<svg xmlns="http://www.w3.org/2000/svg" viewBox="0 0 600 680" font-family="system-ui, -apple-system, sans-serif">
  <defs>
    <linearGradient id="greenGrad" x1="0%" y1="0%" x2="0%" y2="100%">
      <stop offset="0%" stop-color="#16a34a"/>
      <stop offset="100%" stop-color="#15803d"/>
    </linearGradient>
    <linearGradient id="yellowGrad" x1="0%" y1="0%" x2="0%" y2="100%">
      <stop offset="0%" stop-color="#d97706"/>
      <stop offset="100%" stop-color="#b45309"/>
    </linearGradient>
    <linearGradient id="redGrad" x1="0%" y1="0%" x2="0%" y2="100%">
      <stop offset="0%" stop-color="#dc2626"/>
      <stop offset="100%" stop-color="#991b1b"/>
    </linearGradient>
    <marker id="arrow" viewBox="0 0 10 7" refX="10" refY="3.5" markerWidth="10" markerHeight="7" orient="auto-start-reverse">
      <polygon points="0 0, 10 3.5, 0 7" fill="#94a3b8"/>
    </marker>
    <filter id="shadow" x="-5%" y="-5%" width="115%" height="115%">
      <feDropShadow dx="2" dy="2" stdDeviation="3" flood-color="#000" flood-opacity="0.4"/>
    </filter>
  </defs>

  <rect width="600" height="680" fill="#0d1117" rx="8"/>
  <text x="300" y="32" text-anchor="middle" fill="#f1f5f9" font-size="18" font-weight="bold">SDK-Based Proxy Infection Process</text>

  <!-- Step 1: Legitimate Developer -->
  <rect x="150" y="50" width="300" height="50" rx="10" fill="url(#greenGrad)" filter="url(#shadow)"/>
  <text x="175" y="78" fill="#f0fdf4" font-size="11" font-weight="bold">1</text>
  <text x="300" y="80" text-anchor="middle" fill="#f1f5f9" font-size="13" font-weight="bold">Legitimate App Developer</text>

  <line x1="300" y1="100" x2="300" y2="118" stroke="#94a3b8" stroke-width="2" marker-end="url(#arrow)"/>

  <!-- Step 2: SDK Integration -->
  <rect x="150" y="128" width="300" height="50" rx="10" fill="url(#greenGrad)" filter="url(#shadow)"/>
  <text x="175" y="156" fill="#f0fdf4" font-size="11" font-weight="bold">2</text>
  <text x="300" y="150" text-anchor="middle" fill="#f1f5f9" font-size="13" font-weight="bold">SDK Integration (Monetization)</text>
  <text x="300" y="168" text-anchor="middle" fill="#bbf7d0" font-size="11">Castar / Packet SDK</text>

  <line x1="300" y1="178" x2="300" y2="196" stroke="#94a3b8" stroke-width="2" marker-end="url(#arrow)"/>

  <!-- Step 3: App Build -->
  <rect x="150" y="206" width="300" height="50" rx="10" fill="url(#yellowGrad)" filter="url(#shadow)"/>
  <text x="175" y="234" fill="#fef3c7" font-size="11" font-weight="bold">3</text>
  <text x="300" y="236" text-anchor="middle" fill="#f1f5f9" font-size="13" font-weight="bold">App Build + SDK Included</text>

  <line x1="300" y1="256" x2="300" y2="274" stroke="#94a3b8" stroke-width="2" marker-end="url(#arrow)"/>

  <!-- Step 4: Google Play -->
  <rect x="150" y="284" width="300" height="50" rx="10" fill="url(#yellowGrad)" filter="url(#shadow)"/>
  <text x="175" y="312" fill="#fef3c7" font-size="11" font-weight="bold">4</text>
  <text x="300" y="314" text-anchor="middle" fill="#f1f5f9" font-size="13" font-weight="bold">Google Play Distribution</text>

  <line x1="300" y1="334" x2="300" y2="352" stroke="#94a3b8" stroke-width="2" marker-end="url(#arrow)"/>

  <!-- Step 5: User Install -->
  <rect x="150" y="362" width="300" height="50" rx="10" fill="url(#yellowGrad)" filter="url(#shadow)"/>
  <text x="175" y="390" fill="#fef3c7" font-size="11" font-weight="bold">5</text>
  <text x="300" y="392" text-anchor="middle" fill="#f1f5f9" font-size="13" font-weight="bold">User Device Installation</text>

  <line x1="300" y1="412" x2="300" y2="430" stroke="#94a3b8" stroke-width="2" marker-end="url(#arrow)"/>

  <!-- Step 6: SDK Malicious Behavior (big box) -->
  <rect x="90" y="440" width="420" height="155" rx="10" fill="url(#redGrad)" filter="url(#shadow)"/>
  <text x="115" y="462" fill="#fef2f2" font-size="11" font-weight="bold">6</text>
  <text x="300" y="462" text-anchor="middle" fill="#f1f5f9" font-size="14" font-weight="bold">SDK Malicious Behavior</text>
  
  <text x="130" y="485" fill="#fca5a5" font-size="11">a. C2 Server Connection (7,400 Tier 2 servers)</text>
  <text x="130" y="505" fill="#fca5a5" font-size="11">b. Device Registration (IP, location, bandwidth)</text>
  <text x="130" y="525" fill="#fca5a5" font-size="11">c. SOCKS5 Proxy Activation (background)</text>
  <text x="130" y="545" fill="#fca5a5" font-size="11">d. Traffic Relay Start (threat group traffic)</text>
  <text x="130" y="565" fill="#fca5a5" font-size="11">e. Periodic Status Report (bandwidth, online)</text>

  <line x1="300" y1="595" x2="300" y2="613" stroke="#94a3b8" stroke-width="2" marker-end="url(#arrow)"/>

  <!-- Step 7: Registered -->
  <rect x="110" y="623" width="380" height="40" rx="10" fill="#4c1d95" filter="url(#shadow)"/>
  <text x="300" y="648" text-anchor="middle" fill="#c4b5fd" font-size="13" font-weight="bold">Registered in IPIDEA Proxy Pool (6.1M IPs)</text>
</svg>