<svg xmlns="http://www.w3.org/2000/svg" viewBox="0 0 920 520" font-family="system-ui, -apple-system, sans-serif">
  <defs>
    <linearGradient id="yellowGrad" x1="0%" y1="0%" x2="0%" y2="100%">
      <stop offset="0%" stop-color="#d97706"/>
      <stop offset="100%" stop-color="#b45309"/>
    </linearGradient>
    <linearGradient id="purpleGrad" x1="0%" y1="0%" x2="0%" y2="100%">
      <stop offset="0%" stop-color="#7c3aed"/>
      <stop offset="100%" stop-color="#5b21b6"/>
    </linearGradient>
    <linearGradient id="redGrad" x1="0%" y1="0%" x2="0%" y2="100%">
      <stop offset="0%" stop-color="#dc2626"/>
      <stop offset="100%" stop-color="#991b1b"/>
    </linearGradient>
    <marker id="arrow" viewBox="0 0 10 7" refX="10" refY="3.5" markerWidth="10" markerHeight="7" orient="auto-start-reverse">
      <polygon points="0 0, 10 3.5, 0 7" fill="#94a3b8"/>
    </marker>
    <filter id="shadow" x="-5%" y="-5%" width="115%" height="115%">
      <feDropShadow dx="2" dy="2" stdDeviation="3" flood-color="#000" flood-opacity="0.4"/>
    </filter>
  </defs>

  <rect width="920" height="520" fill="#0d1117" rx="8"/>
  <text x="460" y="35" text-anchor="middle" fill="#f1f5f9" font-size="20" font-weight="bold">IPIDEA Residential Proxy Network</text>

  <!-- Column headers -->
  <text x="140" y="65" text-anchor="middle" fill="#fbbf24" font-size="13" font-weight="bold">INFECTION VECTORS</text>
  <text x="460" y="65" text-anchor="middle" fill="#a78bfa" font-size="13" font-weight="bold">PROXY INFRASTRUCTURE</text>
  <text x="790" y="65" text-anchor="middle" fill="#f87171" font-size="13" font-weight="bold">ABUSE CHAIN</text>

  <!-- Left column: Infection Vectors -->
  <rect x="20" y="85" width="240" height="52" rx="8" fill="url(#yellowGrad)" filter="url(#shadow)"/>
  <text x="140" y="107" text-anchor="middle" fill="#f1f5f9" font-size="12" font-weight="bold">Android TV Boxes</text>
  <text x="140" y="125" text-anchor="middle" fill="#fef3c7" font-size="10">Pre-installed malware</text>

  <rect x="20" y="147" width="240" height="52" rx="8" fill="url(#yellowGrad)" filter="url(#shadow)"/>
  <text x="140" y="169" text-anchor="middle" fill="#f1f5f9" font-size="12" font-weight="bold">Fake Earning Apps</text>
  <text x="140" y="187" text-anchor="middle" fill="#fef3c7" font-size="10">Earn / Hex brands</text>

  <rect x="20" y="209" width="240" height="52" rx="8" fill="url(#yellowGrad)" filter="url(#shadow)"/>
  <text x="140" y="231" text-anchor="middle" fill="#f1f5f9" font-size="12" font-weight="bold">SDK-Embedded Apps</text>
  <text x="140" y="249" text-anchor="middle" fill="#fef3c7" font-size="10">Castar SDK / Packet SDK</text>

  <rect x="20" y="271" width="240" height="52" rx="8" fill="url(#yellowGrad)" filter="url(#shadow)"/>
  <text x="140" y="293" text-anchor="middle" fill="#f1f5f9" font-size="12" font-weight="bold">Windows Trojans</text>
  <text x="140" y="311" text-anchor="middle" fill="#fef3c7" font-size="10">Fake OneDrive / Windows Update</text>

  <rect x="20" y="333" width="240" height="52" rx="8" fill="url(#yellowGrad)" filter="url(#shadow)"/>
  <text x="140" y="355" text-anchor="middle" fill="#f1f5f9" font-size="12" font-weight="bold">Play Store Apps (600+)</text>
  <text x="140" y="373" text-anchor="middle" fill="#fef3c7" font-size="10">Proxy code in legitimate apps</text>

  <!-- Arrows left → center -->
  <line x1="260" y1="111" x2="310" y2="240" stroke="#94a3b8" stroke-width="1.5" marker-end="url(#arrow)"/>
  <line x1="260" y1="173" x2="310" y2="240" stroke="#94a3b8" stroke-width="1.5" marker-end="url(#arrow)"/>
  <line x1="260" y1="235" x2="310" y2="240" stroke="#94a3b8" stroke-width="1.5" marker-end="url(#arrow)"/>
  <line x1="260" y1="297" x2="310" y2="260" stroke="#94a3b8" stroke-width="1.5" marker-end="url(#arrow)"/>
  <line x1="260" y1="359" x2="310" y2="270" stroke="#94a3b8" stroke-width="1.5" marker-end="url(#arrow)"/>

  <!-- Center: IPIDEA Proxy Network -->
  <rect x="320" y="90" width="280" height="310" rx="12" fill="url(#purpleGrad)" filter="url(#shadow)"/>
  <text x="460" y="125" text-anchor="middle" fill="#f1f5f9" font-size="16" font-weight="bold">IPIDEA</text>
  <text x="460" y="148" text-anchor="middle" fill="#f1f5f9" font-size="14" font-weight="bold">Proxy Network</text>

  <rect x="350" y="170" width="220" height="30" rx="6" fill="#4c1d95" opacity="0.7"/>
  <text x="460" y="190" text-anchor="middle" fill="#c4b5fd" font-size="12">6.1M IPs (Daily)</text>
  <rect x="350" y="210" width="220" height="30" rx="6" fill="#4c1d95" opacity="0.7"/>
  <text x="460" y="230" text-anchor="middle" fill="#c4b5fd" font-size="12">69K New IPs / Day</text>
  <rect x="350" y="250" width="220" height="30" rx="6" fill="#4c1d95" opacity="0.7"/>
  <text x="460" y="270" text-anchor="middle" fill="#c4b5fd" font-size="12">7,400 C2 Servers</text>
  <rect x="350" y="290" width="220" height="30" rx="6" fill="#4c1d95" opacity="0.7"/>
  <text x="460" y="310" text-anchor="middle" fill="#c4b5fd" font-size="12">3,075 Windows Binaries</text>
  <rect x="350" y="340" width="220" height="30" rx="6" fill="#4c1d95" opacity="0.7"/>
  <text x="460" y="360" text-anchor="middle" fill="#c4b5fd" font-size="12">550+ Threat Groups</text>

  <!-- Arrows center → right -->
  <line x1="600" y1="180" x2="660" y2="111" stroke="#94a3b8" stroke-width="1.5" marker-end="url(#arrow)"/>
  <line x1="600" y1="220" x2="660" y2="173" stroke="#94a3b8" stroke-width="1.5" marker-end="url(#arrow)"/>
  <line x1="600" y1="250" x2="660" y2="235" stroke="#94a3b8" stroke-width="1.5" marker-end="url(#arrow)"/>
  <line x1="600" y1="290" x2="660" y2="297" stroke="#94a3b8" stroke-width="1.5" marker-end="url(#arrow)"/>
  <line x1="600" y1="340" x2="660" y2="359" stroke="#94a3b8" stroke-width="1.5" marker-end="url(#arrow)"/>

  <!-- Right column: Abuse Chain -->
  <rect x="670" y="85" width="230" height="52" rx="8" fill="url(#redGrad)" filter="url(#shadow)"/>
  <text x="785" y="108" text-anchor="middle" fill="#f1f5f9" font-size="12" font-weight="bold">Ad Fraud</text>
  <text x="785" y="126" text-anchor="middle" fill="#fca5a5" font-size="10">Click / impression fraud</text>

  <rect x="670" y="147" width="230" height="52" rx="8" fill="url(#redGrad)" filter="url(#shadow)"/>
  <text x="785" y="169" text-anchor="middle" fill="#f1f5f9" font-size="12" font-weight="bold">Credential Stuffing</text>
  <text x="785" y="187" text-anchor="middle" fill="#fca5a5" font-size="10">Automated login attacks</text>

  <rect x="670" y="209" width="230" height="52" rx="8" fill="url(#redGrad)" filter="url(#shadow)"/>
  <text x="785" y="231" text-anchor="middle" fill="#f1f5f9" font-size="12" font-weight="bold">DDoS Attacks</text>
  <text x="785" y="249" text-anchor="middle" fill="#fca5a5" font-size="10">Distributed denial of service</text>

  <rect x="670" y="271" width="230" height="52" rx="8" fill="url(#redGrad)" filter="url(#shadow)"/>
  <text x="785" y="293" text-anchor="middle" fill="#f1f5f9" font-size="12" font-weight="bold">Spam Campaigns</text>
  <text x="785" y="311" text-anchor="middle" fill="#fca5a5" font-size="10">Mass email / SMS spam</text>

  <rect x="670" y="333" width="230" height="52" rx="8" fill="url(#redGrad)" filter="url(#shadow)"/>
  <text x="785" y="355" text-anchor="middle" fill="#f1f5f9" font-size="12" font-weight="bold">Account Takeover</text>
  <text x="785" y="373" text-anchor="middle" fill="#fca5a5" font-size="10">Residential IP evasion</text>

  <!-- Bottom: Google Play Protect -->
  <rect x="280" y="420" width="360" height="40" rx="10" fill="#14532d" stroke="#22c55e" stroke-width="1.5"/>
  <text x="460" y="444" text-anchor="middle" fill="#86efac" font-size="13" font-weight="bold">Google Play Protect: Warning &amp; Removal</text>

  <!-- Source -->
  <text x="460" y="490" text-anchor="middle" fill="#475569" font-size="10">Source: Human Security / Satori Threat Intelligence</text>
</svg>