<svg xmlns="http://www.w3.org/2000/svg" viewBox="0 0 1200 630" width="1200" height="630" role="img" aria-label="Kandji macOS master guide cover showing setup, security hardening, and compliance operations for managed Mac fleets">
<title>Kandji macOS master guide: setup, security, and compliance</title>
<!-- profile: high-quality-cover (2025 upgraded) -->
<defs>
  <linearGradient id="bgSpread" x1="0%" y1="0%" x2="100%" y2="100%">
    <stop offset="0%" stop-color="#08111F"/>
    <stop offset="50%" stop-color="#0B1730"/>
    <stop offset="100%" stop-color="#111A3E"/>
  </linearGradient>
  <linearGradient id="heroPanel" x1="0%" y1="0%" x2="100%" y2="100%">
    <stop offset="0%" stop-color="#13213F"/>
    <stop offset="55%" stop-color="#16284A"/>
    <stop offset="100%" stop-color="#0D1831"/>
  </linearGradient>
  <filter id="softShadow" x="-10%" y="-10%" width="130%" height="130%">
    <feGaussianBlur in="SourceAlpha" stdDeviation="2.8"/>
    <feOffset dx="1" dy="3"/>
    <feComponentTransfer>
      <feFuncA type="linear" slope="0.5"/>
    </feComponentTransfer>
    <feMerge>
      <feMergeNode/>
      <feMergeNode in="SourceGraphic"/>
    </feMerge>
  </filter>
  <filter id="textShadow" x="-5%" y="-5%" width="110%" height="110%">
    <feGaussianBlur in="SourceAlpha" stdDeviation="1.2"/>
    <feOffset dx="0" dy="1.4"/>
    <feComponentTransfer>
      <feFuncA type="linear" slope="0.8"/>
    </feComponentTransfer>
    <feMerge>
      <feMergeNode/>
      <feMergeNode in="SourceGraphic"/>
    </feMerge>
  </filter>
  <pattern id="gridA" x="0" y="0" width="36" height="18" patternUnits="userSpaceOnUse">
    <path d="M0 18 L36 18" stroke="#1B3560" stroke-width="0.5" opacity="0.55"/>
    <path d="M36 0 L36 18" stroke="#1B3560" stroke-width="0.5" opacity="0.55"/>
  </pattern>
  <pattern id="gridB" x="0" y="0" width="20" height="20" patternUnits="userSpaceOnUse">
    <circle cx="10" cy="10" r="1" fill="#2E5E7C" opacity="0.38"/>
  </pattern>
  <pattern id="gridC" x="0" y="0" width="24" height="16" patternUnits="userSpaceOnUse">
    <path d="M4 8 L20 8" stroke="#31587D" stroke-width="0.45" opacity="0.38"/>
    <path d="M12 2 L12 14" stroke="#31587D" stroke-width="0.45" opacity="0.38"/>
  </pattern>
  <radialGradient id="glowBlue" cx="50%" cy="50%" r="50%">
    <stop offset="0%" stop-color="#59C1FF" stop-opacity="0.55"/>
    <stop offset="100%" stop-color="#59C1FF" stop-opacity="0"/>
  </radialGradient>
  <radialGradient id="glowGreen" cx="50%" cy="50%" r="50%">
    <stop offset="0%" stop-color="#39D98A" stop-opacity="0.45"/>
    <stop offset="100%" stop-color="#39D98A" stop-opacity="0"/>
  </radialGradient>
  <radialGradient id="glowAmber" cx="50%" cy="50%" r="50%">
    <stop offset="0%" stop-color="#F9B44E" stop-opacity="0.5"/>
    <stop offset="100%" stop-color="#F9B44E" stop-opacity="0"/>
  </radialGradient>
</defs>

<rect width="1200" height="630" fill="url(#bgSpread)"/>

<g>
  <rect x="0" y="0" width="1200" height="210" fill="#0A152A" opacity="0.82"/>
  <rect x="0" y="0" width="1200" height="210" fill="url(#gridA)" opacity="0.5"/>
  <rect x="0" y="0" width="10" height="210" fill="#59C1FF"/>
  <text x="30" y="42" font-family="Inter, Helvetica, Arial, sans-serif" font-size="18" font-weight="700" letter-spacing="2.3" fill="#59C1FF" filter="url(#textShadow)">APPLE DEVICE MGMT</text>
  <text x="30" y="84" font-family="Inter, Helvetica, Arial, sans-serif" font-size="36" font-weight="800" fill="#F5F7FA" filter="url(#textShadow)">Kandji : Setup + Security</text>
  <text x="30" y="116" font-family="Inter, Helvetica, Arial, sans-serif" font-size="20" font-weight="600" fill="#A9DFFF" filter="url(#textShadow)">Zero-touch onboarding : Blueprints : Auto Apps</text>
  <text x="30" y="144" font-family="Inter, Helvetica, Arial, sans-serif" font-size="15" font-weight="500" fill="#B8C8DD" filter="url(#textShadow)">Profiles, scripts, patch rules, and fleet automation in one lane</text>

  <g transform="translate(650,106)" filter="url(#softShadow)">
    <circle cx="0" cy="0" r="98" fill="url(#glowBlue)">
      <animate attributeName="r" values="82;110;82" dur="3.2s" repeatCount="indefinite"/>
      <animate attributeName="opacity" values="0.3;0.7;0.3" dur="3.2s" repeatCount="indefinite"/>
    </circle>
    <rect x="-150" y="-60" width="92" height="42" rx="8" fill="#0B1325" stroke="#59C1FF" stroke-width="1.7"/>
    <rect x="-28" y="-60" width="92" height="42" rx="8" fill="#0B1325" stroke="#59C1FF" stroke-width="1.7"/>
    <rect x="94" y="-60" width="92" height="42" rx="8" fill="#0B1325" stroke="#59C1FF" stroke-width="1.7"/>
    <text x="-104" y="-35" text-anchor="middle" font-family="Inter, monospace" font-size="11" font-weight="700" fill="#A9DFFF">ABM</text>
    <text x="-104" y="-22" text-anchor="middle" font-family="Inter, monospace" font-size="9" fill="#7DB9E8">inventory</text>
    <text x="18" y="-35" text-anchor="middle" font-family="Inter, monospace" font-size="11" font-weight="700" fill="#A9DFFF">DEP</text>
    <text x="18" y="-22" text-anchor="middle" font-family="Inter, monospace" font-size="9" fill="#7DB9E8">enroll</text>
    <text x="140" y="-35" text-anchor="middle" font-family="Inter, monospace" font-size="11" font-weight="700" fill="#A9DFFF">IDP</text>
    <text x="140" y="-22" text-anchor="middle" font-family="Inter, monospace" font-size="9" fill="#7DB9E8">sso</text>

    <line x1="-104" y1="-18" x2="-32" y2="20" stroke="#59C1FF" stroke-width="1.4" stroke-dasharray="4 3"/>
    <line x1="18" y1="-18" x2="18" y2="20" stroke="#59C1FF" stroke-width="1.4" stroke-dasharray="4 3"/>
    <line x1="140" y1="-18" x2="68" y2="20" stroke="#59C1FF" stroke-width="1.4" stroke-dasharray="4 3"/>

    <rect x="-110" y="20" width="220" height="126" rx="16" fill="url(#heroPanel)" stroke="#7BC8FF" stroke-width="2.2"/>
    <rect x="-88" y="40" width="176" height="82" rx="8" fill="#081321" stroke="#27486A" stroke-width="1.2"/>
    <circle cx="0" cy="132" r="7" fill="#1D314B"/>
    <rect x="-135" y="146" width="270" height="14" rx="7" fill="#11213D"/>
    <text x="0" y="38" text-anchor="middle" font-family="Inter, monospace" font-size="12" font-weight="800" fill="#59C1FF">KANDJI</text>
    <text x="0" y="56" text-anchor="middle" font-family="Inter, monospace" font-size="10" fill="#BDE9FF">MACOS FLEET CONSOLE</text>
    <text x="-64" y="76" font-family="Inter, monospace" font-size="10" font-weight="700" fill="#A9DFFF">BLUEPRINT</text>
    <text x="24" y="76" font-family="Inter, monospace" font-size="10" font-weight="700" fill="#A9DFFF">AUTO APPS</text>
    <text x="-64" y="96" font-family="Inter, monospace" font-size="10" font-weight="700" fill="#A9DFFF">SCRIPT</text>
    <text x="24" y="96" font-family="Inter, monospace" font-size="10" font-weight="700" fill="#A9DFFF">PROFILE</text>
    <text x="-64" y="116" font-family="Inter, monospace" font-size="10" font-weight="700" fill="#39D98A">READY</text>
    <text x="24" y="116" font-family="Inter, monospace" font-size="10" font-weight="700" fill="#39D98A">PASS</text>
    <rect x="-74" y="66" width="62" height="16" rx="8" fill="#173250"/>
    <rect x="14" y="66" width="64" height="16" rx="8" fill="#173250"/>
    <rect x="-74" y="86" width="62" height="16" rx="8" fill="#173250"/>
    <rect x="14" y="86" width="64" height="16" rx="8" fill="#173250"/>
    <rect x="-74" y="106" width="62" height="16" rx="8" fill="#13311F"/>
    <rect x="14" y="106" width="64" height="16" rx="8" fill="#13311F"/>
  </g>

  <g transform="translate(990,106)" filter="url(#softShadow)">
    <rect x="-82" y="-64" width="184" height="128" rx="14" fill="#0A1120" stroke="#59C1FF" stroke-width="2.1"/>
    <text x="10" y="-32" text-anchor="middle" font-family="Inter, Helvetica, Arial, sans-serif" font-size="13" font-weight="700" letter-spacing="2" fill="#59C1FF">ZERO TOUCH</text>
    <text x="10" y="18" text-anchor="middle" font-family="Inter, Helvetica, Arial, sans-serif" font-size="52" font-weight="900" fill="#F5F7FA">1</text>
    <text x="10" y="42" text-anchor="middle" font-family="Inter, Helvetica, Arial, sans-serif" font-size="12" font-weight="600" fill="#A9DFFF">DEPLOY FLOW</text>
    <text x="-42" y="56" font-family="Inter, monospace" font-size="9" font-weight="700" fill="#7DB9E8">DEP</text>
    <text x="-12" y="56" font-family="Inter, monospace" font-size="9" font-weight="700" fill="#7DB9E8">IDP</text>
    <text x="18" y="56" font-family="Inter, monospace" font-size="9" font-weight="700" fill="#7DB9E8">SSO</text>
    <text x="48" y="56" font-family="Inter, monospace" font-size="9" font-weight="700" fill="#7DB9E8">PKG</text>
  </g>
</g>

<g>
  <rect x="0" y="210" width="1200" height="210" fill="#0D1B2D" opacity="0.88"/>
  <rect x="0" y="210" width="1200" height="210" fill="url(#gridB)" opacity="0.8"/>
  <rect x="0" y="210" width="10" height="210" fill="#39D98A"/>
  <text x="30" y="252" font-family="Inter, Helvetica, Arial, sans-serif" font-size="18" font-weight="700" letter-spacing="2.3" fill="#39D98A" filter="url(#textShadow)">HARDEN MAC FLEETS</text>
  <text x="30" y="294" font-family="Inter, Helvetica, Arial, sans-serif" font-size="36" font-weight="800" fill="#F5F7FA" filter="url(#textShadow)">FileVault : Gatekeeper : CIS baselines</text>
  <text x="30" y="326" font-family="Inter, Helvetica, Arial, sans-serif" font-size="20" font-weight="600" fill="#9BE8C3" filter="url(#textShadow)">Declarative management : remediation loops : patch enforcement</text>
  <text x="30" y="354" font-family="Inter, Helvetica, Arial, sans-serif" font-size="15" font-weight="500" fill="#B8C8DD" filter="url(#textShadow)">Audit trails, escrow, and policy drift control for security teams</text>

  <g transform="translate(670,315)" filter="url(#softShadow)">
    <circle cx="0" cy="0" r="86" fill="url(#glowGreen)">
      <animate attributeName="r" values="66;94;66" dur="3.6s" repeatCount="indefinite"/>
      <animate attributeName="opacity" values="0.25;0.6;0.25" dur="3.6s" repeatCount="indefinite"/>
    </circle>
    <path d="M0 -66 L58 -36 L58 24 C58 64 28 90 0 104 C-28 90 -58 64 -58 24 L-58 -36 Z" fill="url(#heroPanel)" stroke="#39D98A" stroke-width="2.2"/>
    <path d="M-20 14 L-2 34 L28 -4" fill="none" stroke="#39D98A" stroke-width="6" stroke-linecap="round" stroke-linejoin="round"/>
    <text x="0" y="-14" text-anchor="middle" font-family="Inter, monospace" font-size="12" font-weight="800" fill="#39D98A">HARDEN</text>
    <text x="0" y="2" text-anchor="middle" font-family="Inter, monospace" font-size="10" fill="#B2F5CF">DEVICE</text>
    <text x="0" y="20" text-anchor="middle" font-family="Inter, monospace" font-size="10" fill="#B2F5CF">DRIFT</text>

    <g transform="translate(-182,-70)">
      <rect x="0" y="0" width="92" height="24" rx="12" fill="#10283A" stroke="#39D98A" stroke-width="1.1"/>
      <text x="46" y="16" text-anchor="middle" font-family="Inter, monospace" font-size="10" font-weight="700" fill="#B2F5CF">FILEVAULT</text>
    </g>
    <g transform="translate(90,-70)">
      <rect x="0" y="0" width="104" height="24" rx="12" fill="#10283A" stroke="#39D98A" stroke-width="1.1"/>
      <text x="52" y="16" text-anchor="middle" font-family="Inter, monospace" font-size="10" font-weight="700" fill="#B2F5CF">GATEKEEPER</text>
    </g>
    <g transform="translate(-210,-20)">
      <rect x="0" y="0" width="92" height="24" rx="12" fill="#10283A" stroke="#39D98A" stroke-width="1.1"/>
      <text x="46" y="16" text-anchor="middle" font-family="Inter, monospace" font-size="10" font-weight="700" fill="#B2F5CF">FIREWALL</text>
    </g>
    <g transform="translate(124,-20)">
      <rect x="0" y="0" width="76" height="24" rx="12" fill="#10283A" stroke="#39D98A" stroke-width="1.1"/>
      <text x="38" y="16" text-anchor="middle" font-family="Inter, monospace" font-size="10" font-weight="700" fill="#B2F5CF">PATCH</text>
    </g>
    <g transform="translate(-198,30)">
      <rect x="0" y="0" width="58" height="24" rx="12" fill="#10283A" stroke="#39D98A" stroke-width="1.1"/>
      <text x="29" y="16" text-anchor="middle" font-family="Inter, monospace" font-size="10" font-weight="700" fill="#B2F5CF">EDR</text>
    </g>
    <g transform="translate(120,30)">
      <rect x="0" y="0" width="84" height="24" rx="12" fill="#10283A" stroke="#39D98A" stroke-width="1.1"/>
      <text x="42" y="16" text-anchor="middle" font-family="Inter, monospace" font-size="10" font-weight="700" fill="#B2F5CF">ESCROW</text>
    </g>
    <g transform="translate(-154,78)">
      <rect x="0" y="0" width="66" height="24" rx="12" fill="#10283A" stroke="#39D98A" stroke-width="1.1"/>
      <text x="33" y="16" text-anchor="middle" font-family="Inter, monospace" font-size="10" font-weight="700" fill="#B2F5CF">LOCK</text>
    </g>
    <g transform="translate(96,78)">
      <rect x="0" y="0" width="62" height="24" rx="12" fill="#10283A" stroke="#39D98A" stroke-width="1.1"/>
      <text x="31" y="16" text-anchor="middle" font-family="Inter, monospace" font-size="10" font-weight="700" fill="#B2F5CF">WIPE</text>
    </g>

    <line x1="-90" y1="-58" x2="-44" y2="-28" stroke="#39D98A" stroke-width="1.2" stroke-dasharray="4 3"/>
    <line x1="90" y1="-58" x2="44" y2="-28" stroke="#39D98A" stroke-width="1.2" stroke-dasharray="4 3"/>
    <line x1="-118" y1="-8" x2="-58" y2="-6" stroke="#39D98A" stroke-width="1.2" stroke-dasharray="4 3"/>
    <line x1="124" y1="-8" x2="58" y2="-6" stroke="#39D98A" stroke-width="1.2" stroke-dasharray="4 3"/>
    <line x1="-140" y1="42" x2="-58" y2="20" stroke="#39D98A" stroke-width="1.2" stroke-dasharray="4 3"/>
    <line x1="120" y1="42" x2="58" y2="20" stroke="#39D98A" stroke-width="1.2" stroke-dasharray="4 3"/>
    <line x1="-88" y1="90" x2="-44" y2="54" stroke="#39D98A" stroke-width="1.2" stroke-dasharray="4 3"/>
    <line x1="96" y1="90" x2="44" y2="54" stroke="#39D98A" stroke-width="1.2" stroke-dasharray="4 3"/>
  </g>

  <g transform="translate(990,315)" filter="url(#softShadow)">
    <rect x="-82" y="-64" width="184" height="128" rx="14" fill="#0B1323" stroke="#39D98A" stroke-width="2.1"/>
    <text x="10" y="-32" text-anchor="middle" font-family="Inter, Helvetica, Arial, sans-serif" font-size="13" font-weight="700" letter-spacing="2" fill="#39D98A">BASELINE</text>
    <text x="10" y="16" text-anchor="middle" font-family="Inter, Helvetica, Arial, sans-serif" font-size="50" font-weight="900" fill="#F5F7FA">8</text>
    <text x="10" y="40" text-anchor="middle" font-family="Inter, Helvetica, Arial, sans-serif" font-size="12" font-weight="600" fill="#9BE8C3">CORE CONTROLS</text>
    <text x="-34" y="56" font-family="Inter, monospace" font-size="9" font-weight="700" fill="#B2F5CF">CVE</text>
    <text x="-4" y="56" font-family="Inter, monospace" font-size="9" font-weight="700" fill="#B2F5CF">PATCHED</text>
    <text x="48" y="56" font-family="Inter, monospace" font-size="9" font-weight="700" fill="#B2F5CF">SEAL</text>
  </g>
</g>

<g>
  <rect x="0" y="420" width="1200" height="210" fill="#101B32" opacity="0.9"/>
  <rect x="0" y="420" width="1200" height="210" fill="url(#gridC)" opacity="0.72"/>
  <rect x="0" y="420" width="10" height="210" fill="#F9B44E"/>
  <text x="30" y="462" font-family="Inter, Helvetica, Arial, sans-serif" font-size="18" font-weight="700" letter-spacing="2.3" fill="#F9B44E" filter="url(#textShadow)">PROVE COMPLIANCE</text>
  <text x="30" y="504" font-family="Inter, Helvetica, Arial, sans-serif" font-size="36" font-weight="800" fill="#F5F7FA" filter="url(#textShadow)">SOC 2 : ISO 27001 : NIST</text>
  <text x="30" y="536" font-family="Inter, Helvetica, Arial, sans-serif" font-size="20" font-weight="600" fill="#FFD89A" filter="url(#textShadow)">Device posture, evidence exports, and exception handling</text>
  <text x="30" y="564" font-family="Inter, Helvetica, Arial, sans-serif" font-size="15" font-weight="500" fill="#B8C8DD" filter="url(#textShadow)">One console for rollout, security, governance, and audit readiness</text>

  <g transform="translate(650,524)" filter="url(#softShadow)">
    <circle cx="0" cy="0" r="96" fill="url(#glowAmber)">
      <animate attributeName="r" values="76;104;76" dur="4s" repeatCount="indefinite"/>
      <animate attributeName="opacity" values="0.2;0.55;0.2" dur="4s" repeatCount="indefinite"/>
    </circle>
    <rect x="-170" y="-78" width="360" height="132" rx="16" fill="url(#heroPanel)" stroke="#F9B44E" stroke-width="2.1"/>
    <rect x="-146" y="-48" width="308" height="76" rx="8" fill="#081321" stroke="#33506F" stroke-width="1.1"/>
    <line x1="-70" y1="-48" x2="-70" y2="28" stroke="#355778" stroke-width="1"/>
    <line x1="10" y1="-48" x2="10" y2="28" stroke="#355778" stroke-width="1"/>
    <line x1="92" y1="-48" x2="92" y2="28" stroke="#355778" stroke-width="1"/>
    <line x1="-146" y1="-20" x2="162" y2="-20" stroke="#355778" stroke-width="1"/>
    <line x1="-146" y1="4" x2="162" y2="4" stroke="#355778" stroke-width="1"/>

    <text x="-130" y="-58" font-family="Inter, monospace" font-size="10" font-weight="700" fill="#FFD89A">DEVICE</text>
    <text x="-52" y="-58" font-family="Inter, monospace" font-size="10" font-weight="700" fill="#FFD89A">POLICY</text>
    <text x="28" y="-58" font-family="Inter, monospace" font-size="10" font-weight="700" fill="#FFD89A">EVIDENCE</text>
    <text x="110" y="-58" font-family="Inter, monospace" font-size="10" font-weight="700" fill="#FFD89A">STATUS</text>

    <text x="-130" y="-28" font-family="Inter, monospace" font-size="10" font-weight="700" fill="#F5F7FA">SOC2</text>
    <text x="-52" y="-28" font-family="Inter, monospace" font-size="10" font-weight="700" fill="#39D98A">PASS</text>
    <text x="28" y="-28" font-family="Inter, monospace" font-size="10" font-weight="700" fill="#A9DFFF">EXPORT</text>
    <text x="110" y="-28" font-family="Inter, monospace" font-size="10" font-weight="700" fill="#39D98A">READY</text>

    <text x="-130" y="-4" font-family="Inter, monospace" font-size="10" font-weight="700" fill="#F5F7FA">ISO27001</text>
    <text x="-52" y="-4" font-family="Inter, monospace" font-size="10" font-weight="700" fill="#39D98A">PASS</text>
    <text x="28" y="-4" font-family="Inter, monospace" font-size="10" font-weight="700" fill="#A9DFFF">LOG</text>
    <text x="110" y="-4" font-family="Inter, monospace" font-size="10" font-weight="700" fill="#39D98A">READY</text>

    <text x="-130" y="20" font-family="Inter, monospace" font-size="10" font-weight="700" fill="#F5F7FA">NIST</text>
    <text x="-52" y="20" font-family="Inter, monospace" font-size="10" font-weight="700" fill="#39D98A">PASS</text>
    <text x="28" y="20" font-family="Inter, monospace" font-size="10" font-weight="700" fill="#A9DFFF">REMED</text>
    <text x="110" y="20" font-family="Inter, monospace" font-size="10" font-weight="700" fill="#39D98A">READY</text>

    <text x="-130" y="44" font-family="Inter, monospace" font-size="10" font-weight="700" fill="#F5F7FA">CIS</text>
    <text x="-52" y="44" font-family="Inter, monospace" font-size="10" font-weight="700" fill="#39D98A">PASS</text>
    <text x="28" y="44" font-family="Inter, monospace" font-size="10" font-weight="700" fill="#A9DFFF">MAP</text>
    <text x="110" y="44" font-family="Inter, monospace" font-size="10" font-weight="700" fill="#39D98A">READY</text>

    <rect x="-148" y="68" width="96" height="24" rx="12" fill="#15314B" stroke="#F9B44E" stroke-width="1.1"/>
    <rect x="-38" y="68" width="90" height="24" rx="12" fill="#15314B" stroke="#F9B44E" stroke-width="1.1"/>
    <rect x="64" y="68" width="96" height="24" rx="12" fill="#15314B" stroke="#F9B44E" stroke-width="1.1"/>
    <text x="-100" y="84" text-anchor="middle" font-family="Inter, monospace" font-size="10" font-weight="700" fill="#FFD89A">AUDIT</text>
    <text x="7" y="84" text-anchor="middle" font-family="Inter, monospace" font-size="10" font-weight="700" fill="#FFD89A">EXCEPT</text>
    <text x="112" y="84" text-anchor="middle" font-family="Inter, monospace" font-size="10" font-weight="700" fill="#FFD89A">REPORT</text>
  </g>

  <g transform="translate(990,524)" filter="url(#softShadow)">
    <rect x="-82" y="-64" width="184" height="128" rx="14" fill="#15110A" stroke="#F9B44E" stroke-width="2.1"/>
    <text x="10" y="-32" text-anchor="middle" font-family="Inter, Helvetica, Arial, sans-serif" font-size="13" font-weight="700" letter-spacing="2" fill="#F9B44E">COMPLIANCE</text>
    <text x="10" y="4" text-anchor="middle" font-family="Inter, Helvetica, Arial, sans-serif" font-size="28" font-weight="900" fill="#F5F7FA">AUDIT</text>
    <text x="10" y="30" text-anchor="middle" font-family="Inter, Helvetica, Arial, sans-serif" font-size="24" font-weight="900" fill="#F5F7FA">READY</text>
    <text x="-36" y="52" font-family="Inter, monospace" font-size="9" font-weight="700" fill="#FFD89A">OWNER</text>
    <text x="4" y="52" font-family="Inter, monospace" font-size="9" font-weight="700" fill="#FFD89A">SECOPS</text>
    <text x="52" y="52" font-family="Inter, monospace" font-size="9" font-weight="700" fill="#FFD89A">RISK</text>
    <text x="82" y="52" font-family="Inter, monospace" font-size="9" font-weight="700" fill="#39D98A">LOW</text>
  </g>
</g>

<line x1="0" y1="210" x2="1200" y2="210" stroke="#23334B" stroke-width="1.5"/>
<line x1="0" y1="420" x2="1200" y2="420" stroke="#23334B" stroke-width="1.5"/>

<g filter="url(#softShadow)">
  <rect x="32" y="582" width="214" height="28" rx="14" fill="#0D1831" stroke="#27486A" stroke-width="1.1"/>
  <text x="56" y="600" font-family="Inter, Helvetica, Arial, sans-serif" font-size="11" font-weight="700" fill="#59C1FF">MANAGED</text>
  <text x="122" y="600" font-family="Inter, Helvetica, Arial, sans-serif" font-size="11" font-weight="700" fill="#39D98A">MAC FLEET</text>
  <text x="194" y="600" font-family="Inter, Helvetica, Arial, sans-serif" font-size="11" font-weight="700" fill="#F9B44E">KANDJI GUIDE</text>
</g>

<g opacity="0.6">
  <circle cx="270" cy="174" r="1.4" fill="#59C1FF"/>
  <circle cx="340" cy="174" r="1.4" fill="#59C1FF"/>
  <circle cx="410" cy="174" r="1.4" fill="#59C1FF"/>
  <circle cx="280" cy="388" r="1.4" fill="#39D98A"/>
  <circle cx="350" cy="388" r="1.4" fill="#39D98A"/>
  <circle cx="420" cy="388" r="1.4" fill="#39D98A"/>
  <circle cx="286" cy="598" r="1.4" fill="#F9B44E"/>
  <circle cx="356" cy="598" r="1.4" fill="#F9B44E"/>
  <circle cx="426" cy="598" r="1.4" fill="#F9B44E"/>
</g>
</svg>