<svg xmlns="http://www.w3.org/2000/svg" viewBox="0 0 1200 630" width="1200" height="630">
  <title>Kubernetes Minikube</title>
  
  <defs>
    <linearGradient id="u0ba16fbg" x1="0%" y1="0%" x2="100%" y2="100%">
      <stop offset="0%" style="stop-color:#0f0a2a" />
      <stop offset="50%" style="stop-color:#0d1525" />
      <stop offset="100%" style="stop-color:#0a0f2e" />
    </linearGradient>
    <linearGradient id="u0ba16faccent" x1="0%" y1="0%" x2="0%" y2="100%">
      <stop offset="0%" style="stop-color:#818cf8" />
      <stop offset="100%" style="stop-color:#06b6d4" />
    </linearGradient>
    <linearGradient id="u0ba16ftitle" x1="0%" y1="0%" x2="100%" y2="0%">
      <stop offset="0%" style="stop-color:#f8fafc" />
      <stop offset="100%" style="stop-color:#cbd5e1" />
    </linearGradient>
    <linearGradient id="u0ba16fpanel" x1="0%" y1="0%" x2="100%" y2="100%">
      <stop offset="0%" style="stop-color:#020810;stop-opacity:0.85" />
      <stop offset="100%" style="stop-color:#0a0f1e;stop-opacity:0.75" />
    </linearGradient>
    <radialGradient id="u0ba16fambientL" cx="20%" cy="50%" r="40%">
      <stop offset="0%" style="stop-color:#818cf8;stop-opacity:0.06" />
      <stop offset="100%" style="stop-color:#818cf8;stop-opacity:0" />
    </radialGradient>
    <radialGradient id="u0ba16fambientR" cx="70%" cy="45%" r="35%">
      <stop offset="0%" style="stop-color:#6366f1;stop-opacity:0.08" />
      <stop offset="100%" style="stop-color:#6366f1;stop-opacity:0" />
    </radialGradient>
    <filter id="u0ba16fglow" x="-100%" y="-100%" width="300%" height="300%">
      <feDropShadow dx="0" dy="0" stdDeviation="8" flood-color="#6366f1" flood-opacity="0.7" />
    </filter>
    <filter id="u0ba16fblur" x="-50%" y="-50%" width="200%" height="200%">
      <feGaussianBlur stdDeviation="12" />
    </filter>
    <filter id="u0ba16ftextglow" x="-20%" y="-20%" width="140%" height="140%">
      <feDropShadow dx="0" dy="0" stdDeviation="4" flood-color="#818cf8" flood-opacity="0.5" />
    </filter>
    <filter id="u0ba16ffxGlow" x="-50%" y="-50%" width="200%" height="200%">
      <feGaussianBlur stdDeviation="6" result="b" />
      <feColorMatrix in="b" type="matrix" values="1.2 0.4 0 0 0 0.5 0.6 0 0 0 0 0 0 0 0 0 0 0 0.85 0" result="g" />
      <feMerge><feMergeNode in="g" /><feMergeNode in="SourceGraphic" /></feMerge>
    </filter>
    <filter id="u0ba16ffxRed" x="-60%" y="-60%" width="220%" height="220%">
      <feGaussianBlur stdDeviation="8" result="b" />
      <feColorMatrix in="b" type="matrix" values="1.3 0 0 0 0.7 0 0 0 0 0 0 0 0 0 0 0 0 0 0.95 0" result="g" />
      <feMerge><feMergeNode in="g" /><feMergeNode in="SourceGraphic" /></feMerge>
    </filter>
    <radialGradient id="u0ba16fsceneGlow1" cx="75%" cy="30%" r="50%">
      <stop offset="0%" stop-color="#818cf8" stop-opacity="0.15" />
      <stop offset="100%" stop-color="#818cf8" stop-opacity="0" />
    </radialGradient>
    <radialGradient id="u0ba16fsceneGlow2" cx="60%" cy="70%" r="60%">
      <stop offset="0%" stop-color="#06b6d4" stop-opacity="0.10" />
      <stop offset="100%" stop-color="#06b6d4" stop-opacity="0" />
    </radialGradient>
    <pattern id="u0ba16fdots" x="0" y="0" width="30" height="30" patternUnits="userSpaceOnUse">
      <circle cx="15" cy="15" r="1" fill="#1e293b" opacity="0.7" />
    </pattern>
    <clipPath id="u0ba16fclip">
      <rect x="1" y="1" width="1198" height="628" rx="8" ry="8" />
    </clipPath>
    <style>
      @keyframes u0ba16ffloatUp { 0%{transform:translateY(0);opacity:0.9} 85%{opacity:0.5} 100%{transform:translateY(-80px);opacity:0} }
      @keyframes u0ba16fpulse { 0%,100%{opacity:0.5} 50%{opacity:1} }
      @keyframes u0ba16fcrackFx { 0%,100%{stroke-opacity:0.6} 50%{stroke-opacity:1} }
      @keyframes u0ba16fglimmer { 0%{opacity:0.3} 50%{opacity:0.85} 100%{opacity:0.3} }
      @keyframes u0ba16fdash { to{stroke-dashoffset:-20} }
      @keyframes u0ba16frotSpin { from{transform:rotate(0deg)} to{transform:rotate(360deg)} }
      .u0ba16ffa { animation: u0ba16ffloatUp 3.2s ease-in infinite; }
      .u0ba16ffb { animation: u0ba16ffloatUp 3.8s ease-in infinite; animation-delay:0.9s; }
      .u0ba16ffc { animation: u0ba16ffloatUp 2.9s ease-in infinite; animation-delay:1.7s; }
      .u0ba16fcrack { animation: u0ba16fcrackFx 1.9s ease-in-out infinite; }
      .u0ba16fblink { animation: u0ba16fpulse 2.2s ease-in-out infinite; }
    </style>
  </defs>

  
  <rect width="1200" height="630" fill="url(#u0ba16fbg)" />
  <g clip-path="url(#u0ba16fclip)">
    <rect width="1200" height="630" fill="url(#u0ba16fdots)" opacity="0.6" />
    <rect width="1200" height="630" fill="url(#u0ba16fambientL)" />
    <rect width="1200" height="630" fill="url(#u0ba16fambientR)" />

    
    <rect x="0" y="0" width="370" height="630" fill="url(#u0ba16fpanel)" />
    <rect x="0" y="0" width="4" height="630" fill="url(#u0ba16faccent)" />

    
    <rect x="40" y="40" width="160" height="28" rx="4" fill="#312e81" stroke="#6366f1" stroke-width="1.5" />
    <text x="120" y="58" font-family="Courier New, monospace" font-size="11" fill="#c4b5fd" text-anchor="middle" letter-spacing="2" font-weight="bold">K8S / CONTAINER</text>

    
    <text x="40" y="100" font-family="Courier New, monospace" font-size="10" fill="#64748b" letter-spacing="1">2025-05-30</text>

    
    <text x="40" y="155" font-family="Segoe UI, Arial, sans-serif" font-size="40" fill="url(#u0ba16ftitle)" font-weight="700" letter-spacing="-1">Kubernetes Minikube</text>
    <text x="40" y="203" font-family="Segoe UI, Arial, sans-serif" font-size="44" fill="url(#u0ba16ftitle)" font-weight="700" letter-spacing="-1">&amp; K9s</text>

    
    <rect x="40" y="221" width="260" height="2" rx="1" fill="url(#u0ba16faccent)" opacity="0.8" />

    
    <text x="40" y="259" font-family="Segoe UI, Arial, sans-serif" font-size="16" fill="#818cf8" font-weight="600">Kubernetes</text>
    <text x="40" y="285" font-family="Segoe UI, Arial, sans-serif" font-size="16" fill="#06b6d4" font-weight="600">Minikube</text>

    
    <rect x="40" y="313" width="280" height="122" rx="12" fill="#0d1525" stroke="#818cf8" stroke-width="1" opacity="0.66" />
    <rect x="40" y="313" width="280" height="18" rx="12" fill="#818cf8" opacity="0.10" />
    <text x="56" y="326" font-family="Segoe UI, Arial, sans-serif" font-size="10" fill="#c4b5fd" font-weight="700" letter-spacing="1">FOCUS</text>
    <text x="56" y="347" font-family="Segoe UI, Arial, sans-serif" font-size="13" fill="#e2e8f0" font-weight="600">Minikube / K9S</text>
    <text x="56" y="364" font-family="Segoe UI, Arial, sans-serif" font-size="12" fill="#94a3b8">K8S / Troubleshooting</text>
    <line x1="56" y1="373" x2="304" y2="373" stroke="#818cf8" stroke-width="0.8" opacity="0.20" />
    <text x="56" y="391" font-family="Segoe UI, Arial, sans-serif" font-size="10.5" fill="#cbd5e1">Minikube focus</text>
    <text x="56" y="406" font-family="Segoe UI, Arial, sans-serif" font-size="10.5" fill="#94a3b8">K9S priority</text>
    <rect x="56" y="413" width="74" height="22" rx="11" fill="#0f0a2a" stroke="#818cf8" stroke-width="1" opacity="0.85" />
    <rect x="138" y="413" width="70" height="22" rx="11" fill="#0f0a2a" stroke="#06b6d4" stroke-width="1" opacity="0.85" />
    <text x="173" y="428" font-family="Segoe UI, Arial, sans-serif" font-size="9" fill="#06b6d4" text-anchor="middle" font-weight="600">K9S</text>

    
    <rect x="40" y="525" width="96" height="24" rx="12" fill="#312e81" stroke="#818cf8" stroke-width="1.2" />
    <rect x="146" y="525" width="80" height="24" rx="12" fill="#0d1525" stroke="#06b6d4" stroke-width="1.2" />
    <rect x="236" y="525" width="54" height="24" rx="12" fill="#0f0a2a" stroke="#6366f1" stroke-width="1.2" />
    <rect x="380" y="40" width="780" height="550" fill="url(#u0ba16fsceneGlow1)" opacity="0.6" />
    <rect x="380" y="40" width="780" height="550" fill="url(#u0ba16fsceneGlow2)" opacity="0.5" />

    
    
    <circle cx="720" cy="280" r="160" fill="none" stroke="#818cf8" stroke-width="1" stroke-dasharray="6 4" opacity="0.3" />
    <circle cx="720" cy="280" r="120" fill="none" stroke="#6366f1" stroke-width="0.8" opacity="0.2" />
    <text x="720" y="130" font-family="Courier New, monospace" font-size="9" fill="#c4b5fd" text-anchor="middle" opacity="0.6">CLUSTER</text>

    
    <rect x="640" y="200" width="70" height="50" rx="6" fill="#0f0a2a" stroke="#818cf8" stroke-width="1.5" />
    <rect x="644" y="204" width="62" height="42" rx="4" fill="none" stroke="#818cf8" stroke-width="0.5" opacity="0.4" />
    <text x="675" y="230" font-family="Courier New, monospace" font-size="9" fill="#818cf8" text-anchor="middle" font-weight="bold">POD</text>

    <rect x="760" y="200" width="70" height="50" rx="6" fill="#0f0a2a" stroke="#06b6d4" stroke-width="1.5" />
    <rect x="764" y="204" width="62" height="42" rx="4" fill="none" stroke="#06b6d4" stroke-width="0.5" opacity="0.4" />
    <rect x="700" y="310" width="70" height="50" rx="6" fill="#0f0a2a" stroke="#6366f1" stroke-width="1.5" />
    <rect x="704" y="314" width="62" height="42" rx="4" fill="none" stroke="#6366f1" stroke-width="0.5" opacity="0.4" />
    <g filter="url(#u0ba16fglow)" transform="translate(580,380)">
      <circle cx="0" cy="0" r="35" fill="#0f0a2a" stroke="#06b6d4" stroke-width="2" />
      <rect x="-15" y="-8" width="8" height="6" rx="1" fill="#06b6d4" opacity="0.7" />
      <rect x="-5" y="-8" width="8" height="6" rx="1" fill="#06b6d4" opacity="0.7" />
      <rect x="5" y="-8" width="8" height="6" rx="1" fill="#06b6d4" opacity="0.7" />
      <rect x="-15" y="-16" width="8" height="6" rx="1" fill="#06b6d4" opacity="0.5" />
      <rect x="-5" y="-16" width="8" height="6" rx="1" fill="#06b6d4" opacity="0.5" />
      <ellipse cx="0" cy="5" rx="20" ry="10" fill="none" stroke="#06b6d4" stroke-width="1.2" />
    </g>
    <text x="580" y="425" font-family="Courier New, monospace" font-size="8" fill="#c4b5fd" text-anchor="middle" opacity="0.7">DOCKER</text>

    
    <g filter="url(#u0ba16fglow)">
      <circle cx="900" cy="350" r="30" fill="#0f0a2a" stroke="#818cf8" stroke-width="2" />
    </g>
    <text x="900" y="348" font-family="Courier New, monospace" font-size="8" fill="#818cf8" text-anchor="middle">NODE</text>
    <text x="900" y="360" font-family="Courier New, monospace" font-size="7" fill="#c4b5fd" text-anchor="middle" opacity="0.7">worker-1</text>

    
    <line x1="710" y1="250" x2="735" y2="310" stroke="#818cf8" stroke-width="1.2" opacity="0.4" stroke-dasharray="4 3" />
    <line x1="830" y1="225" x2="770" y2="310" stroke="#06b6d4" stroke-width="1.2" opacity="0.35" stroke-dasharray="4 3" />
    <line x1="770" y1="335" x2="870" y2="348" stroke="#818cf8" stroke-width="1" opacity="0.3" stroke-dasharray="3 5" style="animation: u0ba16fdash 2s linear infinite" />
    <line x1="615" y1="380" x2="640" y2="250" stroke="#06b6d4" stroke-width="1" opacity="0.25" stroke-dasharray="3 5" />

    
    <g transform="translate(870,200)">
      <rect x="-25" y="-20" width="50" height="40" rx="4" fill="#0d1525" stroke="#818cf8" stroke-width="1.2" opacity="0.7" />
      <line x1="-10" y1="-20" x2="5" y2="20" stroke="#818cf8" stroke-width="1.5" opacity="0.6" class="u0ba16fcrack" />
      <path d="M-5,-20 L0,-15 L5,-20" fill="none" stroke="#818cf8" stroke-width="1" opacity="0.5" />
      <text x="0" y="3" font-family="Courier New, monospace" font-size="7" fill="#818cf8" text-anchor="middle" opacity="0.8">ESC</text>
    </g>
    <text x="870" y="230" font-family="Courier New, monospace" font-size="7" fill="#c4b5fd" text-anchor="middle" opacity="0.6">ESCAPE</text>

    
    <rect x="625" y="260" width="60" height="16" rx="3" fill="#312e81" stroke="#818cf8" stroke-width="0.6" opacity="0.5" />
    <text x="655" y="271" font-family="Courier New, monospace" font-size="6" fill="#818cf8" text-anchor="middle" opacity="0.7">ns:prod</text>
    <rect x="770" y="260" width="56" height="16" rx="3" fill="#312e81" stroke="#06b6d4" stroke-width="0.6" opacity="0.5" />
    <text x="798" y="271" font-family="Courier New, monospace" font-size="6" fill="#06b6d4" text-anchor="middle" opacity="0.7">ns:dev</text>

    
    <g transform="translate(950,440)" filter="url(#u0ba16ffxGlow)">
      <circle cx="0" cy="0" r="22" fill="#0f0a2a" stroke="#6366f1" stroke-width="1.5" />
      <circle cx="0" cy="0" r="10" fill="none" stroke="#6366f1" stroke-width="1" opacity="0.6" />
      <line x1="0" y1="-14" x2="0" y2="-18" stroke="#6366f1" stroke-width="2" opacity="0.5" />
      <line x1="0" y1="14" x2="0" y2="18" stroke="#6366f1" stroke-width="2" opacity="0.5" />
      <line x1="-14" y1="0" x2="-18" y2="0" stroke="#6366f1" stroke-width="2" opacity="0.5" />
      <line x1="14" y1="0" x2="18" y2="0" stroke="#6366f1" stroke-width="2" opacity="0.5" />
    </g>
    <text x="950" y="470" font-family="Courier New, monospace" font-size="7" fill="#c4b5fd" text-anchor="middle" opacity="0.7">HELM</text>

    
    <path d="M 675 250 Q 720 270 735 310" fill="none" stroke="#818cf8" stroke-width="0.8" opacity="0.2" stroke-dasharray="2 3" />
    <path d="M 795 250 Q 770 280 735 310" fill="none" stroke="#06b6d4" stroke-width="0.8" opacity="0.2" stroke-dasharray="2 3" />
    <path d="M 770 340 Q 830 370 900 355" fill="none" stroke="#6366f1" stroke-width="0.8" opacity="0.2" stroke-dasharray="2 3" />

    
    <circle cx="720" cy="280" r="90" fill="none" stroke="#6366f1" stroke-width="0.8" opacity="0.15" style="animation: u0ba16fpulse 3s ease-in-out infinite" />

    
    <ellipse cx="720" cy="300" rx="220" ry="180" fill="#6366f1" opacity="0.04" />

    

    <defs>
      <pattern id="u0ba16fmesh" x="0" y="0" width="28" height="28" patternUnits="userSpaceOnUse">
        <path d="M 0 14 L 14 0 L 28 14 L 14 28 Z" fill="none" stroke="#818cf8" stroke-width="0.35" opacity="0.12" />
      </pattern>
    </defs>
    <rect x="380" y="40" width="780" height="550" fill="url(#u0ba16fmesh)" opacity="0.25" />
    <circle cx="720" cy="315" r="228" fill="none" stroke="#818cf8" stroke-width="0.55" stroke-dasharray="6 9" opacity="0.16" />
    <circle cx="720" cy="315" r="182" fill="none" stroke="#06b6d4" stroke-width="0.45" stroke-dasharray="3 7" opacity="0.11" />
    <circle cx="720" cy="315" r="266" fill="none" stroke="#6366f1" stroke-width="0.35" stroke-dasharray="10 12" opacity="0.08" />
    <line x1="390" y1="70" x2="1150" y2="70" stroke="#818cf8" stroke-width="0.6" opacity="0.10" />
    <line x1="390" y1="560" x2="1150" y2="560" stroke="#06b6d4" stroke-width="0.6" opacity="0.08" />
    <line x1="420" y1="120" x2="1080" y2="500" stroke="#818cf8" stroke-width="0.35" opacity="0.08" />
    <line x1="1080" y1="120" x2="420" y2="500" stroke="#06b6d4" stroke-width="0.35" opacity="0.06" />
    <polyline points="392,56 392,46 404,46" fill="none" stroke="#818cf8" stroke-width="1.5" opacity="0.35" />
    <polyline points="1148,46 1160,46 1160,58" fill="none" stroke="#818cf8" stroke-width="1.5" opacity="0.35" />
    <polyline points="392,574 392,584 404,584" fill="none" stroke="#06b6d4" stroke-width="1.5" opacity="0.30" />
    <polyline points="1148,584 1160,584 1160,572" fill="none" stroke="#06b6d4" stroke-width="1.5" opacity="0.30" />
    <ellipse cx="720" cy="315" rx="275" ry="210" fill="#6366f1" opacity="0.03" />
    <circle cx="430" cy="110" r="3" fill="#818cf8" opacity="0.22" />
    <circle cx="1120" cy="160" r="2.5" fill="#06b6d4" opacity="0.24" />
    <circle cx="470" cy="540" r="3" fill="#6366f1" opacity="0.20" />
    <circle cx="1080" cy="530" r="2.5" fill="#818cf8" opacity="0.20" />
    
    <rect x="432" y="96" width="660" height="370" rx="24" fill="#0f0a2a" opacity="0.12" />
    <rect x="452" y="116" width="620" height="330" rx="20" fill="#0d1525" opacity="0.09" />
    <path d="M 450 490 Q 700 430 1080 520" fill="none" stroke="#818cf8" stroke-width="1.0" opacity="0.14" />
    <rect x="454" y="90" width="206" height="74" rx="10" fill="#0f0a2a" stroke="#818cf8" stroke-width="1.1" opacity="0.78" /><circle cx="472" cy="108" r="5" fill="#818cf8" opacity="0.85" /><text x="486" y="111" font-family="Courier New, monospace" font-size="9" fill="#818cf8" font-weight="700" letter-spacing="1">PRIMARY</text><rect x="676" y="90" width="206" height="74" rx="10" fill="#0f0a2a" stroke="#06b6d4" stroke-width="1.1" opacity="0.78" /><circle cx="694" cy="108" r="5" fill="#06b6d4" opacity="0.85" /><text x="708" y="111" font-family="Courier New, monospace" font-size="9" fill="#06b6d4" font-weight="700" letter-spacing="1">SUMMARY</text><rect x="898" y="90" width="206" height="74" rx="10" fill="#0f0a2a" stroke="#6366f1" stroke-width="1.1" opacity="0.78" /><circle cx="916" cy="108" r="5" fill="#6366f1" opacity="0.85" /><text x="930" y="111" font-family="Courier New, monospace" font-size="9" fill="#6366f1" font-weight="700" letter-spacing="1">TRACK</text><text x="914" y="134" font-family="Segoe UI, Arial, sans-serif" font-size="14" fill="#f8fafc" font-weight="700">K8S</text><text x="914" y="151" font-family="Segoe UI, Arial, sans-serif" font-size="9.5" fill="#94a3b8">Troubleshooting</text>
    <rect x="470" y="186" width="430" height="84" rx="16" fill="#0f0a2a" stroke="#818cf8" stroke-width="1.1" opacity="0.76" /><line x1="488" y1="214" x2="882" y2="214" stroke="#818cf8" stroke-width="0.8" opacity="0.25" /><rect x="548" y="292" width="392" height="82" rx="16" fill="#0f0a2a" stroke="#06b6d4" stroke-width="1.1" opacity="0.76" /><line x1="566" y1="320" x2="922" y2="320" stroke="#06b6d4" stroke-width="0.8" opacity="0.25" /><rect x="620" y="396" width="340" height="78" rx="16" fill="#0f0a2a" stroke="#6366f1" stroke-width="1.1" opacity="0.76" /><line x1="638" y1="424" x2="942" y2="424" stroke="#6366f1" stroke-width="0.8" opacity="0.25" /><circle cx="150" cy="100" r="2.5" fill="#818cf8" opacity="0.5">
      <animate attributeName="opacity" values="0.5;0.15;0.5" dur="3.0s" repeatCount="indefinite" />
    </circle>
    <circle cx="1060" cy="150" r="2.0" fill="#06b6d4" opacity="0.4">
      <animate attributeName="opacity" values="0.4;0.12;0.4" dur="2.8s" repeatCount="indefinite" />
    </circle>
    <circle cx="100" cy="480" r="2.5" fill="#818cf8" opacity="0.4">
      <animate attributeName="opacity" values="0.4;0.12;0.4" dur="3.5s" repeatCount="indefinite" />
    </circle>
    <circle cx="1100" cy="520" r="2.0" fill="#6366f1" opacity="0.5">
      <animate attributeName="opacity" values="0.5;0.15;0.5" dur="4.0s" repeatCount="indefinite" />
    </circle>
    <circle cx="180" cy="560" r="1.5" fill="#06b6d4" opacity="0.35">
      <animate attributeName="opacity" values="0.35;0.10;0.35" dur="3.2s" repeatCount="indefinite" />
    </circle>
    <circle cx="1030" cy="80" r="2.0" fill="#818cf8" opacity="0.4">
      <animate attributeName="opacity" values="0.4;0.12;0.4" dur="2.5s" repeatCount="indefinite" />
    </circle>

    
    <line x1="50" y1="200" x2="120" y2="200" stroke="#818cf8" stroke-width="1" opacity="0.15" />
    <line x1="50" y1="215" x2="95" y2="215" stroke="#818cf8" stroke-width="1" opacity="0.1" />
    <line x1="1080" y1="400" x2="1150" y2="400" stroke="#6366f1" stroke-width="1" opacity="0.15" />
    <line x1="1095" y1="415" x2="1150" y2="415" stroke="#6366f1" stroke-width="1" opacity="0.1" />

    
    <rect width="1200" height="2" x="0" y="0" fill="#818cf8" opacity="0">
      <animate attributeName="y" values="-2;632" dur="6s" repeatCount="indefinite" />
      <animate attributeName="opacity" values="0;0.03;0.03;0" dur="6s" repeatCount="indefinite" keyTimes="0;0.1;0.9;1" />
    </rect>
  </g>

  
  <line x1="40" y1="608" x2="1160" y2="608" stroke="#1e293b" stroke-width="1" />
  <text x="1160" y="622" font-family="Courier New, monospace" font-size="11" fill="#475569" text-anchor="end" letter-spacing="0.5">tech.2twodragon.com</text>

  
  <rect x="0.5" y="0.5" width="1199" height="629" rx="8" ry="8" fill="none" stroke="#1e293b" stroke-width="1" />
  
  <polyline points="0,25 0,0 25,0" fill="none" stroke="#818cf8" stroke-width="2" opacity="0.6" />
  <polyline points="1175,0 1200,0 1200,25" fill="none" stroke="#818cf8" stroke-width="2" opacity="0.6" />
  <polyline points="0,605 0,630 25,630" fill="none" stroke="#06b6d4" stroke-width="2" opacity="0.5" />
  <polyline points="1175,630 1200,630 1200,605" fill="none" stroke="#06b6d4" stroke-width="2" opacity="0.5" />
</svg>