<svg xmlns="http://www.w3.org/2000/svg" viewBox="0 0 1200 630" width="1200" height="630">
  <title>Cloud Security Course 7Batch 7Week: Docker and Ku...</title>
  <defs>
    <linearGradient id="bg" x1="0%" y1="0%" x2="100%" y2="100%">
      <stop offset="0%" stop-color="#0b0e1a"/>
      <stop offset="50%" stop-color="#111827"/>
      <stop offset="100%" stop-color="#0f0a1e"/>
    </linearGradient>
    <linearGradient id="accent" x1="0%" y1="0%" x2="100%" y2="100%">
      <stop offset="0%" stop-color="#2496ed"/>
      <stop offset="100%" stop-color="#0ea5e9"/>
    </linearGradient>
    <filter id="glow"><feGaussianBlur stdDeviation="4" result="b"/><feMerge><feMergeNode in="b"/><feMergeNode in="SourceGraphic"/></feMerge></filter>
    <filter id="sg"><feGaussianBlur stdDeviation="30"/></filter>
    <filter id="shadow"><feDropShadow dx="0" dy="6" stdDeviation="12" flood-color="#000" flood-opacity="0.4"/></filter>
  </defs>
  <rect width="1200" height="630" fill="url(#bg)"/>
  <circle cx="200" cy="200" r="250" fill="#2496ed" opacity="0.06" filter="url(#sg)"/>
  <circle cx="900" cy="400" r="200" fill="#0ea5e9" opacity="0.05" filter="url(#sg)"/>
  <g transform="translate(600,250)">
    <!-- Docker whale simplified -->
    <g transform="translate(0,-40)" opacity="0.6">
      <!-- Container boxes on whale back -->
      <rect x="-70" y="-40" width="28" height="24" rx="3" fill="#2496ed" opacity="0.5" stroke="#2496ed" stroke-width="1.5"/>
      <rect x="-38" y="-40" width="28" height="24" rx="3" fill="#2496ed" opacity="0.6" stroke="#2496ed" stroke-width="1.5"/>
      <rect x="-6" y="-40" width="28" height="24" rx="3" fill="#2496ed" opacity="0.7" stroke="#2496ed" stroke-width="1.5"/>
      <rect x="26" y="-40" width="28" height="24" rx="3" fill="#2496ed" opacity="0.8" stroke="#2496ed" stroke-width="1.5"/>
      <rect x="-38" y="-68" width="28" height="24" rx="3" fill="#2496ed" opacity="0.4" stroke="#2496ed" stroke-width="1.5"/>
      <rect x="-6" y="-68" width="28" height="24" rx="3" fill="#2496ed" opacity="0.5" stroke="#2496ed" stroke-width="1.5"/>
      <!-- Whale body -->
      <path d="M-80,-12 C-120,-12 -130,20 -100,35 C-80,45 60,45 80,35 C100,25 90,0 70,-12 Z"
            fill="#1e293b" stroke="#2496ed" stroke-width="2"/>
      <!-- Whale tail -->
      <path d="M-100,25 C-130,10 -150,-10 -140,-35 C-130,-25 -120,-15 -100,0"
            fill="#1e293b" stroke="#2496ed" stroke-width="2"/>
    </g>

    <!-- Layer stack below -->
    <g transform="translate(0,80)">
      <rect x="-150" y="0" width="300" height="30" rx="6" fill="#0f172a" stroke="#22c55e" stroke-width="1.5"/>
      <text x="0" y="20" font-family="Courier New" font-size="10" fill="#4ade80" text-anchor="middle">APPLICATION LAYER</text>
      <rect x="-150" y="36" width="300" height="30" rx="6" fill="#0f172a" stroke="#3b82f6" stroke-width="1.5"/>
      <text x="0" y="56" font-family="Courier New" font-size="10" fill="#60a5fa" text-anchor="middle">RUNTIME LAYER</text>
      <rect x="-150" y="72" width="300" height="30" rx="6" fill="#0f172a" stroke="#8b5cf6" stroke-width="1.5"/>
      <text x="0" y="92" font-family="Courier New" font-size="10" fill="#a78bfa" text-anchor="middle">OS / KERNEL</text>
    </g>
  </g>

  <text x="600" y="490" font-family="Arial,sans-serif" font-size="30" font-weight="bold" fill="white" text-anchor="middle" filter="url(#glow)">Cloud Security Course 7Batch 7Week: Docker</text>
  <text x="600" y="525" font-family="Arial,sans-serif" font-size="30" font-weight="bold" fill="white" text-anchor="middle" filter="url(#glow)">and Ku...</text>
  <text x="600" y="555" font-family="Arial,sans-serif" font-size="15" fill="#94a3b8" text-anchor="middle">Docker | Kubernetes | Container | K8s</text>
  <rect x="40" y="22" width="140" height="32" rx="16" fill="#2496ed" opacity="0.25" stroke="#2496ed" stroke-width="1"/>
  <text x="110" y="44" font-family="Arial,sans-serif" font-size="13" font-weight="bold" fill="#2496ed" text-anchor="middle">KUBERNETES</text>
  <rect x="1020" y="22" width="140" height="32" rx="16" fill="#3b82f6" opacity="0.2" stroke="#3b82f6" stroke-width="1"/>
  <text x="1090" y="44" font-family="Arial,sans-serif" font-size="13" font-weight="bold" fill="#93c5fd" text-anchor="middle">May 30, 2025</text>
  <line x1="50" y1="588" x2="1150" y2="588" stroke="#334155" stroke-width="1" opacity="0.5"/>
  <text x="1150" y="612" font-family="Arial,sans-serif" font-size="13" fill="#94a3b8" text-anchor="end">tech.2twodragon.com</text>
</svg>