<svg xmlns="http://www.w3.org/2000/svg" viewBox="0 0 1200 630" width="1200" height="630">
  <title>Cloud Security Course Week 5 AWS Control Tower and ZTNA</title>
  <defs>
    <linearGradient id="bg" x1="0%" y1="0%" x2="100%" y2="100%">
      <stop offset="0%" stop-color="#0a0c1a"/>
      <stop offset="100%" stop-color="#0a0a1a"/>
    </linearGradient>
    <linearGradient id="accent" x1="0%" y1="0%" x2="100%" y2="0%">
      <stop offset="0%" stop-color="#3b82f6"/>
      <stop offset="100%" stop-color="#06b6d4"/>
    </linearGradient>
  </defs>
  <rect width="1200" height="630" fill="url(#bg)"/>
  <line x1="0" y1="105" x2="1200" y2="105" stroke="rgba(255,255,255,0.04)" stroke-width="1"/>
  <line x1="0" y1="210" x2="1200" y2="210" stroke="rgba(255,255,255,0.04)" stroke-width="1"/>
  <line x1="0" y1="315" x2="1200" y2="315" stroke="rgba(255,255,255,0.04)" stroke-width="1"/>
  <line x1="0" y1="420" x2="1200" y2="420" stroke="rgba(255,255,255,0.04)" stroke-width="1"/>
  <line x1="240" y1="0" x2="240" y2="630" stroke="rgba(255,255,255,0.03)" stroke-width="1"/>
  <line x1="480" y1="0" x2="480" y2="630" stroke="rgba(255,255,255,0.03)" stroke-width="1"/>
  <line x1="720" y1="0" x2="720" y2="630" stroke="rgba(255,255,255,0.03)" stroke-width="1"/>
  <line x1="960" y1="0" x2="960" y2="630" stroke="rgba(255,255,255,0.03)" stroke-width="1"/>
  <!-- Cloud with server rack icon -->
  <path d="M930,180 Q930,150 960,150 Q975,130 1000,140 Q1030,140 1030,170 Q1050,170 1050,190 Q1050,210 1030,210 L940,210 Q920,210 920,190 Q920,180 930,180 Z" fill="rgba(59,130,246,0.06)" stroke="rgba(59,130,246,0.25)" stroke-width="1.5"/>
  <rect x="955" y="230" width="50" height="70" rx="3" fill="rgba(59,130,246,0.04)" stroke="rgba(59,130,246,0.2)" stroke-width="1"/>
  <line x1="960" y1="248" x2="1000" y2="248" stroke="rgba(59,130,246,0.15)" stroke-width="1"/>
  <line x1="960" y1="265" x2="1000" y2="265" stroke="rgba(59,130,246,0.15)" stroke-width="1"/>
  <line x1="960" y1="282" x2="1000" y2="282" stroke="rgba(59,130,246,0.15)" stroke-width="1"/>
  <circle cx="995" cy="240" r="3" fill="rgba(6,182,212,0.4)"/>
  <circle cx="995" cy="257" r="3" fill="rgba(59,130,246,0.4)"/>
  <circle cx="995" cy="274" r="3" fill="rgba(6,182,212,0.3)"/>
  <circle cx="870" cy="400" r="6" fill="rgba(59,130,246,0.3)"/>
  <circle cx="900" cy="420" r="4" fill="rgba(6,182,212,0.25)"/>
  <circle cx="860" cy="440" r="5" fill="rgba(59,130,246,0.2)"/>
  <circle cx="1050" cy="450" r="200" fill="rgba(255,255,255,0.02)"/>
  <circle cx="1050" cy="450" r="140" fill="rgba(255,255,255,0.02)"/>
  <rect x="0" y="0" width="6" height="630" fill="url(#accent)"/>
  <rect x="80" y="60" width="180" height="32" rx="4" fill="rgba(59,130,246,0.2)" stroke="rgba(59,130,246,0.4)" stroke-width="1"/>
  <text x="170" y="81" font-family="system-ui,sans-serif" font-size="14" fill="rgba(255,255,255,0.8)" text-anchor="middle" letter-spacing="1">MAY 16, 2025</text>
  <text x="80" y="185" font-family="system-ui,sans-serif" font-size="46" font-weight="700" fill="white" letter-spacing="-1">Cloud Security Course Week 5</text>
  <text x="80" y="245" font-family="system-ui,sans-serif" font-size="46" font-weight="700" fill="white" letter-spacing="-1">AWS Control Tower and ZTNA</text>
  <text x="80" y="300" font-family="system-ui,sans-serif" font-size="19" fill="rgba(255,255,255,0.6)">Cloud | Zero Trust | AWS</text>
  <rect x="80" y="325" width="420" height="3" rx="1" fill="url(#accent)"/>
  <text x="80" y="370" font-family="system-ui,sans-serif" font-size="14" fill="rgba(255,255,255,0.4)" letter-spacing="2">CLOUD SECURITY COURSE</text>
  <rect x="80" y="420" width="140" height="36" rx="18" fill="rgba(6,182,212,0.18)" stroke="rgba(6,182,212,0.4)" stroke-width="1"/>
  <text x="150" y="443" font-family="system-ui,sans-serif" font-size="14" fill="#67e8f9" text-anchor="middle" font-weight="600">Control Tower</text>
  <rect x="234" y="420" width="90" height="36" rx="18" fill="rgba(245,158,11,0.15)" stroke="rgba(245,158,11,0.35)" stroke-width="1"/>
  <text x="279" y="443" font-family="system-ui,sans-serif" font-size="14" fill="#fbbf24" text-anchor="middle" font-weight="600">ZTNA</text>
  <rect x="338" y="420" width="80" height="36" rx="18" fill="rgba(59,130,246,0.15)" stroke="rgba(59,130,246,0.35)" stroke-width="1"/>
  <text x="378" y="443" font-family="system-ui,sans-serif" font-size="14" fill="#93c5fd" text-anchor="middle" font-weight="600">AWS</text>
  <rect x="80" y="520" width="1040" height="1" fill="rgba(255,255,255,0.08)"/>
  <text x="80" y="545" font-family="system-ui,sans-serif" font-size="13" fill="rgba(255,255,255,0.3)" letter-spacing="1">tech.2twodragon.com</text>
  <text x="1120" y="545" font-family="system-ui,sans-serif" font-size="13" fill="rgba(255,255,255,0.3)" text-anchor="end">CLOUD SECURITY COURSE</text>
</svg>