<svg xmlns="http://www.w3.org/2000/svg" viewBox="0 0 1200 630" width="1200" height="630">
  <title>Safely on Public PC: Passkey OTP Strong Password ...</title>
  <defs>
    <linearGradient id="bg" x1="0%" y1="0%" x2="100%" y2="100%">
      <stop offset="0%" stop-color="#0b0e1a"/>
      <stop offset="50%" stop-color="#111827"/>
      <stop offset="100%" stop-color="#0f0a1e"/>
    </linearGradient>
    <linearGradient id="accent" x1="0%" y1="0%" x2="100%" y2="100%">
      <stop offset="0%" stop-color="#ef4444"/>
      <stop offset="100%" stop-color="#dc2626"/>
    </linearGradient>
    <filter id="glow"><feGaussianBlur stdDeviation="4" result="b"/><feMerge><feMergeNode in="b"/><feMergeNode in="SourceGraphic"/></feMerge></filter>
    <filter id="sg"><feGaussianBlur stdDeviation="30"/></filter>
    <filter id="shadow"><feDropShadow dx="0" dy="6" stdDeviation="12" flood-color="#000" flood-opacity="0.4"/></filter>
  </defs>
  <rect width="1200" height="630" fill="url(#bg)"/>
  <circle cx="200" cy="200" r="250" fill="#ef4444" opacity="0.06" filter="url(#sg)"/>
  <circle cx="900" cy="400" r="200" fill="#dc2626" opacity="0.05" filter="url(#sg)"/>
  <g transform="translate(600,255)">
    <!-- Outer shield -->
    <path d="M0,-150 C90,-150 150,-100 150,0 C150,90 90,170 0,190 C-90,170 -150,90 -150,0 C-150,-100 -90,-150 0,-150Z"
          fill="#ef4444" fill-opacity="0.04" stroke="#ef4444" stroke-width="2" opacity="0.5"/>
    <!-- Inner shield -->
    <path d="M0,-105 C60,-105 105,-70 105,0 C105,60 60,120 0,135 C-60,120 -105,60 -105,0 C-105,-70 -60,-105 0,-105Z"
          fill="#ef4444" fill-opacity="0.06" stroke="#fca5a5" stroke-width="1.5" opacity="0.4"/>

    <!-- Lock icon in center -->
    <rect x="-22" y="-5" width="44" height="35" rx="6" fill="#1e293b" stroke="#ef4444" stroke-width="2"/>
    <path d="M-12,-5 v-16 c0,-18 24,-18 24,0 v16" stroke="#ef4444" stroke-width="3" fill="none" stroke-linecap="round"/>
    <circle cx="0" cy="14" r="6" fill="#ef4444"/>
    <rect x="-2" y="16" width="4" height="10" rx="2" fill="#ef4444"/>

    <!-- Scanning rings -->
    <circle r="130" fill="none" stroke="#ef4444" stroke-width="0.5" opacity="0.2" stroke-dasharray="4,8"/>
    <circle r="170" fill="none" stroke="#ef4444" stroke-width="0.5" opacity="0.1" stroke-dasharray="3,12"/>

    <!-- Data flow dots -->
    <circle cx="-120" cy="-40" r="3" fill="#ef4444" opacity="0.5"/>
    <circle cx="130" cy="20" r="3" fill="#fca5a5" opacity="0.4"/>
    <circle cx="-80" cy="100" r="2" fill="#f87171" opacity="0.3"/>
    <circle cx="100" cy="-80" r="2" fill="#ef4444" opacity="0.4"/>
  </g>

  <text x="600" y="490" font-family="Arial,sans-serif" font-size="28" font-weight="bold" fill="white" text-anchor="middle" filter="url(#glow)">Safely on Public PC</text>
  <text x="600" y="555" font-family="Arial,sans-serif" font-size="15" fill="#94a3b8" text-anchor="middle">Passkey | OTP | Password-Manager | Authentication</text>
  <rect x="40" y="22" width="140" height="32" rx="16" fill="#ef4444" opacity="0.25" stroke="#ef4444" stroke-width="1"/>
  <text x="110" y="44" font-family="Arial,sans-serif" font-size="13" font-weight="bold" fill="#ef4444" text-anchor="middle">SECURITY</text>
  <rect x="1020" y="22" width="140" height="32" rx="16" fill="#3b82f6" opacity="0.2" stroke="#3b82f6" stroke-width="1"/>
  <text x="1090" y="44" font-family="Arial,sans-serif" font-size="13" font-weight="bold" fill="#93c5fd" text-anchor="middle">April 30, 2025</text>
  <line x1="50" y1="588" x2="1150" y2="588" stroke="#334155" stroke-width="1" opacity="0.5"/>
  <text x="1150" y="612" font-family="Arial,sans-serif" font-size="13" fill="#94a3b8" text-anchor="end">tech.2twodragon.com</text>
</svg>