<svg xmlns="http://www.w3.org/2000/svg" viewBox="0 0 1200 630" width="1200" height="630" role="img" aria-label="devsecops DevSecOps Integration">
<title>DevSecOps Integration</title>
<!-- profile: high-quality-cover (2025 upgraded L25-single) -->
<defs>
    <linearGradient id="bgSpreadX8DE7" x1="0%" y1="0%" x2="100%" y2="100%">
      <stop offset="0%" stop-color="#0b1120"/>
      <stop offset="52%" stop-color="#121a2f"/>
      <stop offset="100%" stop-color="#170f25"/>
    </linearGradient>
    <linearGradient id="heroPanelX8DE7" x1="0%" y1="0%" x2="100%" y2="100%">
      <stop offset="0%" stop-color="#0f172a" stop-opacity="0.96"/>
      <stop offset="100%" stop-color="#111827" stop-opacity="0.86"/>
    </linearGradient>
    <pattern id="microGridX8DE7" x="0" y="0" width="36" height="36" patternUnits="userSpaceOnUse">
      <path d="M36 0H0V36" fill="none" stroke="#334155" stroke-width="1" opacity="0.25"/>
      <circle cx="18" cy="18" r="1.2" fill="#60a5fa" opacity="0.18"/>
    </pattern>
    <filter id="sgBlur" x="-30%" y="-30%" width="160%" height="160%">
      <feGaussianBlur stdDeviation="36"/>
    </filter>
    <filter id="singleShadow" x="-30%" y="-30%" width="180%" height="180%">
      <feDropShadow dx="0" dy="14" stdDeviation="22" flood-color="#020617" flood-opacity="0.42"/>
    </filter>
    <marker id="sgArrow" viewBox="0 0 10 10" refX="8" refY="5" markerWidth="6" markerHeight="6" orient="auto">
      <path d="M0 0 L10 5 L0 10 z" fill="#22d3ee" opacity="0.85"/>
    </marker>
  </defs>
<rect width="1200" height="630" fill="url(#bgSpreadX8DE7)"/>
<rect width="1200" height="630" fill="url(#microGridX8DE7)"/>
<circle cx="202" cy="150" r="190" fill="#60a5fa" opacity="0.08" filter="url(#sgBlur)"/>
  <circle cx="1020" cy="486" r="220" fill="#1d4ed8" opacity="0.08" filter="url(#sgBlur)"/>
  <circle cx="920" cy="160" r="140" fill="#22d3ee" opacity="0.05" filter="url(#sgBlur)"/>
  <path d="M0 96 C224 46 426 44 654 118 L654 630 L0 630 Z" fill="#020617" opacity="0.24"/>
  <path d="M0 526 C248 490 426 486 654 548" fill="none" stroke="#475569" stroke-width="1.2" opacity="0.22"/>
  <path d="M704 148 C792 118 892 122 980 176" fill="none" stroke="#22d3ee" stroke-width="1.3" opacity="0.24"/>
  <path d="M716 430 C804 462 914 458 1010 390" fill="none" stroke="#60a5fa" stroke-width="1.2" opacity="0.22"/>
<rect x="720" y="132" width="388" height="292" rx="28" fill="url(#heroPanelX8DE7)" stroke="#60a5fa" stroke-opacity="0.28" stroke-width="1.4" filter="url(#singleShadow)"/>
  <rect x="738" y="150" width="352" height="256" rx="22" fill="none" stroke="#334155" stroke-opacity="0.7" stroke-width="1"/>
  <rect x="742" y="152" width="108" height="12" rx="6" fill="#60a5fa" opacity="0.28"/>
  <rect x="864" y="152" width="72" height="12" rx="6" fill="#334155" opacity="0.55"/>
  <rect x="948" y="152" width="48" height="12" rx="6" fill="#334155" opacity="0.35"/>
<g><rect x="742" y="156" width="6" height="6" fill="#60a5fa" opacity="0.42"/><rect x="750" y="156" width="6" height="6" fill="#60a5fa" opacity="0.42"/><rect x="758" y="156" width="6" height="6" fill="#60a5fa" opacity="0.42"/><rect x="766" y="156" width="6" height="6" fill="#60a5fa" opacity="0.42"/><rect x="782" y="156" width="6" height="6" fill="#60a5fa" opacity="0.42"/><rect x="790" y="156" width="6" height="6" fill="#60a5fa" opacity="0.42"/><rect x="798" y="156" width="6" height="6" fill="#60a5fa" opacity="0.42"/><rect x="742" y="164" width="6" height="6" fill="#60a5fa" opacity="0.42"/><rect x="774" y="164" width="6" height="6" fill="#60a5fa" opacity="0.42"/><rect x="790" y="164" width="6" height="6" fill="#60a5fa" opacity="0.42"/><rect x="798" y="164" width="6" height="6" fill="#60a5fa" opacity="0.42"/><rect x="742" y="172" width="6" height="6" fill="#60a5fa" opacity="0.42"/><rect x="758" y="172" width="6" height="6" fill="#60a5fa" opacity="0.42"/><rect x="774" y="172" width="6" height="6" fill="#60a5fa" opacity="0.42"/><rect x="790" y="172" width="6" height="6" fill="#60a5fa" opacity="0.42"/><rect x="742" y="180" width="6" height="6" fill="#60a5fa" opacity="0.42"/><rect x="774" y="180" width="6" height="6" fill="#60a5fa" opacity="0.42"/><rect x="782" y="180" width="6" height="6" fill="#60a5fa" opacity="0.42"/><rect x="790" y="180" width="6" height="6" fill="#60a5fa" opacity="0.42"/><rect x="798" y="180" width="6" height="6" fill="#60a5fa" opacity="0.42"/><rect x="742" y="188" width="6" height="6" fill="#60a5fa" opacity="0.42"/><rect x="750" y="188" width="6" height="6" fill="#60a5fa" opacity="0.42"/><rect x="758" y="188" width="6" height="6" fill="#60a5fa" opacity="0.42"/><rect x="766" y="188" width="6" height="6" fill="#60a5fa" opacity="0.42"/><rect x="790" y="188" width="6" height="6" fill="#60a5fa" opacity="0.42"/><rect x="798" y="188" width="6" height="6" fill="#60a5fa" opacity="0.42"/><rect x="758" y="196" width="6" height="6" fill="#60a5fa" opacity="0.42"/><rect x="766" y="196" width="6" height="6" fill="#60a5fa" opacity="0.42"/><rect x="774" y="196" width="6" height="6" fill="#60a5fa" opacity="0.42"/><rect x="782" y="196" width="6" height="6" fill="#60a5fa" opacity="0.42"/><rect x="790" y="196" width="6" height="6" fill="#60a5fa" opacity="0.42"/><rect x="742" y="204" width="6" height="6" fill="#60a5fa" opacity="0.42"/><rect x="750" y="204" width="6" height="6" fill="#60a5fa" opacity="0.42"/><rect x="782" y="204" width="6" height="6" fill="#60a5fa" opacity="0.42"/><rect x="790" y="204" width="6" height="6" fill="#60a5fa" opacity="0.42"/><rect x="750" y="212" width="6" height="6" fill="#60a5fa" opacity="0.42"/><rect x="758" y="212" width="6" height="6" fill="#60a5fa" opacity="0.42"/><rect x="774" y="212" width="6" height="6" fill="#60a5fa" opacity="0.42"/><rect x="790" y="212" width="6" height="6" fill="#60a5fa" opacity="0.42"/><rect x="798" y="212" width="6" height="6" fill="#60a5fa" opacity="0.42"/></g>
<circle cx="1010" cy="60" r="1.4" fill="#22d3ee" opacity="0.18"/>
  <circle cx="1024" cy="60" r="1.4" fill="#22d3ee" opacity="0.26"/>
  <circle cx="1038" cy="60" r="1.4" fill="#22d3ee" opacity="0.33999999999999997"/>
  <circle cx="1052" cy="60" r="1.4" fill="#22d3ee" opacity="0.18"/>
  <circle cx="1066" cy="60" r="1.4" fill="#22d3ee" opacity="0.26"/>
  <circle cx="1080" cy="60" r="1.4" fill="#22d3ee" opacity="0.33999999999999997"/>
  <circle cx="1094" cy="60" r="1.4" fill="#22d3ee" opacity="0.18"/>
  <circle cx="1108" cy="60" r="1.4" fill="#22d3ee" opacity="0.26"/>
  <circle cx="1010" cy="72" r="1.4" fill="#22d3ee" opacity="0.18"/>
  <circle cx="1024" cy="72" r="1.4" fill="#22d3ee" opacity="0.26"/>
  <circle cx="1038" cy="72" r="1.4" fill="#22d3ee" opacity="0.33999999999999997"/>
  <circle cx="1052" cy="72" r="1.4" fill="#22d3ee" opacity="0.18"/>
  <circle cx="1066" cy="72" r="1.4" fill="#22d3ee" opacity="0.26"/>
  <circle cx="1080" cy="72" r="1.4" fill="#22d3ee" opacity="0.33999999999999997"/>
  <circle cx="1094" cy="72" r="1.4" fill="#22d3ee" opacity="0.18"/>
  <circle cx="1108" cy="72" r="1.4" fill="#22d3ee" opacity="0.26"/>
  <circle cx="1010" cy="84" r="1.4" fill="#22d3ee" opacity="0.18"/>
  <circle cx="1024" cy="84" r="1.4" fill="#22d3ee" opacity="0.26"/>
  <circle cx="1038" cy="84" r="1.4" fill="#22d3ee" opacity="0.33999999999999997"/>
  <circle cx="1052" cy="84" r="1.4" fill="#22d3ee" opacity="0.18"/>
  <circle cx="1066" cy="84" r="1.4" fill="#22d3ee" opacity="0.26"/>
  <circle cx="1080" cy="84" r="1.4" fill="#22d3ee" opacity="0.33999999999999997"/>
  <circle cx="1094" cy="84" r="1.4" fill="#22d3ee" opacity="0.18"/>
  <circle cx="1108" cy="84" r="1.4" fill="#22d3ee" opacity="0.26"/>
  <circle cx="1010" cy="96" r="1.4" fill="#22d3ee" opacity="0.18"/>
  <circle cx="1024" cy="96" r="1.4" fill="#22d3ee" opacity="0.26"/>
  <circle cx="1038" cy="96" r="1.4" fill="#22d3ee" opacity="0.33999999999999997"/>
  <circle cx="1052" cy="96" r="1.4" fill="#22d3ee" opacity="0.18"/>
  <circle cx="1066" cy="96" r="1.4" fill="#22d3ee" opacity="0.26"/>
  <circle cx="1080" cy="96" r="1.4" fill="#22d3ee" opacity="0.33999999999999997"/>
  <circle cx="1094" cy="96" r="1.4" fill="#22d3ee" opacity="0.18"/>
  <circle cx="1108" cy="96" r="1.4" fill="#22d3ee" opacity="0.26"/>
  <circle cx="1010" cy="108" r="1.4" fill="#22d3ee" opacity="0.18"/>
  <circle cx="1024" cy="108" r="1.4" fill="#22d3ee" opacity="0.26"/>
  <circle cx="1038" cy="108" r="1.4" fill="#22d3ee" opacity="0.33999999999999997"/>
  <circle cx="1052" cy="108" r="1.4" fill="#22d3ee" opacity="0.18"/>
  <circle cx="1066" cy="108" r="1.4" fill="#22d3ee" opacity="0.26"/>
  <circle cx="1080" cy="108" r="1.4" fill="#22d3ee" opacity="0.33999999999999997"/>
  <circle cx="1094" cy="108" r="1.4" fill="#22d3ee" opacity="0.18"/>
  <circle cx="1108" cy="108" r="1.4" fill="#22d3ee" opacity="0.26"/>
  <circle cx="1010" cy="120" r="1.4" fill="#22d3ee" opacity="0.18"/>
  <circle cx="1024" cy="120" r="1.4" fill="#22d3ee" opacity="0.26"/>
  <circle cx="1038" cy="120" r="1.4" fill="#22d3ee" opacity="0.33999999999999997"/>
  <circle cx="1052" cy="120" r="1.4" fill="#22d3ee" opacity="0.18"/>
  <circle cx="1066" cy="120" r="1.4" fill="#22d3ee" opacity="0.26"/>
  <circle cx="1080" cy="120" r="1.4" fill="#22d3ee" opacity="0.33999999999999997"/>
  <circle cx="1094" cy="120" r="1.4" fill="#22d3ee" opacity="0.18"/>
  <circle cx="1108" cy="120" r="1.4" fill="#22d3ee" opacity="0.26"/>
<text x="740" y="162" font-family="Arial,sans-serif" font-size="9" font-weight="700" fill="#22d3ee" text-anchor="middle" opacity="0.55">01</text>
  <text x="1090" y="162" font-family="Arial,sans-serif" font-size="9" font-weight="700" fill="#22d3ee" text-anchor="middle" opacity="0.55">02</text>
  <text x="740" y="412" font-family="Arial,sans-serif" font-size="9" font-weight="700" fill="#22d3ee" text-anchor="middle" opacity="0.55">03</text>
  <text x="1090" y="412" font-family="Arial,sans-serif" font-size="9" font-weight="700" fill="#22d3ee" text-anchor="middle" opacity="0.55">04</text>
<text x="740" y="178" font-family="Arial,sans-serif" font-size="9" font-weight="700" fill="#94a3b8" opacity="0.7">STATUS</text>
  <text x="816" y="178" font-family="Arial,sans-serif" font-size="9" font-weight="700" fill="#94a3b8" opacity="0.7">OK</text>
  <text x="864" y="178" font-family="Arial,sans-serif" font-size="9" font-weight="700" fill="#94a3b8" opacity="0.7">VER</text>
  <text x="910" y="178" font-family="Arial,sans-serif" font-size="9" font-weight="700" fill="#94a3b8" opacity="0.7">v1.0</text>
  <text x="962" y="178" font-family="Arial,sans-serif" font-size="9" font-weight="700" fill="#94a3b8" opacity="0.7">BUILD</text>
  <text x="1024" y="178" font-family="Arial,sans-serif" font-size="9" font-weight="700" fill="#94a3b8" opacity="0.7">STAB</text>
<text x="40" y="380" font-family="Arial,sans-serif" font-size="8" font-weight="700" fill="#475569" opacity="0.7" text-anchor="middle">00</text>
  <text x="40" y="410" font-family="Arial,sans-serif" font-size="8" font-weight="700" fill="#475569" opacity="0.7" text-anchor="middle">01</text>
  <text x="40" y="440" font-family="Arial,sans-serif" font-size="8" font-weight="700" fill="#475569" opacity="0.7" text-anchor="middle">02</text>
  <text x="40" y="470" font-family="Arial,sans-serif" font-size="8" font-weight="700" fill="#475569" opacity="0.7" text-anchor="middle">03</text>
  <text x="40" y="500" font-family="Arial,sans-serif" font-size="8" font-weight="700" fill="#475569" opacity="0.7" text-anchor="middle">04</text>
  <text x="1160" y="380" font-family="Arial,sans-serif" font-size="8" font-weight="700" fill="#475569" opacity="0.7" text-anchor="middle">OK</text>
  <text x="1160" y="410" font-family="Arial,sans-serif" font-size="8" font-weight="700" fill="#475569" opacity="0.7" text-anchor="middle">RUN</text>
  <text x="1160" y="440" font-family="Arial,sans-serif" font-size="8" font-weight="700" fill="#475569" opacity="0.7" text-anchor="middle">OK</text>
  <text x="1160" y="470" font-family="Arial,sans-serif" font-size="8" font-weight="700" fill="#475569" opacity="0.7" text-anchor="middle">RUN</text>

<g transform="translate(914,278)" filter="url(#singleShadow)">
    <circle r="124" fill="none" stroke="#60a5fa" stroke-opacity="0.18" stroke-width="1.2" stroke-dasharray="8 8"/>
    <rect x="-110" y="-72" width="220" height="144" rx="14" fill="#0f172a" stroke="#60a5fa" stroke-width="2.2" opacity="0.94"/>
    <rect x="-100" y="-18" width="44" height="36" rx="6" fill="#60a5fa" fill-opacity="0.22" stroke="#60a5fa" stroke-width="1.6"/><text x="-78" y="6" text-anchor="middle" font-family="Arial,sans-serif" font-size="9" font-weight="700" fill="#f8fafc">BUILD</text><line x1="-56" y1="0" x2="-48" y2="0" stroke="#22d3ee" stroke-width="2" marker-end="url(#sgArrow)"/><rect x="-48" y="-18" width="44" height="36" rx="6" fill="#60a5fa" fill-opacity="0.22" stroke="#60a5fa" stroke-width="1.6"/><text x="-26" y="6" text-anchor="middle" font-family="Arial,sans-serif" font-size="9" font-weight="700" fill="#f8fafc">TEST</text><line x1="-4" y1="0" x2="4" y2="0" stroke="#22d3ee" stroke-width="2" marker-end="url(#sgArrow)"/><rect x="4" y="-18" width="44" height="36" rx="6" fill="#60a5fa" fill-opacity="0.22" stroke="#60a5fa" stroke-width="1.6"/><text x="26" y="6" text-anchor="middle" font-family="Arial,sans-serif" font-size="9" font-weight="700" fill="#f8fafc">SCAN</text><line x1="48" y1="0" x2="56" y2="0" stroke="#22d3ee" stroke-width="2" marker-end="url(#sgArrow)"/><rect x="56" y="-18" width="44" height="36" rx="6" fill="#60a5fa" fill-opacity="0.22" stroke="#60a5fa" stroke-width="1.6"/><text x="78" y="6" text-anchor="middle" font-family="Arial,sans-serif" font-size="9" font-weight="700" fill="#f8fafc">DEPLOY</text>
    <path d="M22 -34 Q22 -48 36 -48 Q50 -48 50 -34" stroke="#22d3ee" stroke-width="2" fill="none"/>
    <rect x="14" y="-34" width="36" height="22" rx="3" fill="#22d3ee" fill-opacity="0.42" stroke="#22d3ee" stroke-width="1.4"/>
    <text x="32" y="-20" text-anchor="middle" font-family="Arial,sans-serif" font-size="8" font-weight="700" fill="#f8fafc">SEC</text>
    <text y="100" text-anchor="middle" font-family="Arial,sans-serif" font-size="11" font-weight="700" fill="#60a5fa" opacity="0.85">CI/CD PIPELINE</text>
    <text y="116" text-anchor="middle" font-family="Arial,sans-serif" font-size="10" fill="#22d3ee" opacity="0.7">4 stages : 1 gate</text>
  </g>
<g transform="translate(84 66)">
    <rect width="160" height="36" rx="18" fill="#60a5fa" opacity="0.22" stroke="#60a5fa" stroke-width="1.2"/>
    <text x="80" y="23" font-family="Arial,sans-serif" font-size="13" font-weight="700" fill="#60a5fa" text-anchor="middle">CLOUD</text>
  </g>
<text x="84" y="170" font-family="Arial,sans-serif" font-size="60" font-weight="700" fill="#f8fafc" letter-spacing="0.5">DEVSECOPS</text>
  <text x="84" y="238" font-family="Arial,sans-serif" font-size="60" font-weight="700" fill="#dbeafe" letter-spacing="0.5">INTEGRATION</text>
<text x="84" y="294" font-family="Arial,sans-serif" font-size="18" fill="#cbd5e1">DEVSECOPS / INTEGRATION</text>
  <rect x="84" y="320" width="520" height="1.5" fill="#334155" opacity="0.9"/>
  <text x="84" y="350" font-family="Arial,sans-serif" font-size="14" font-weight="700" fill="#94a3b8">VISUAL SYSTEM 8DE7D81CFA1F</text>
  <text x="84" y="378" font-family="Arial,sans-serif" font-size="14" fill="#94a3b8">Cloud Security Course 7Batch 9Week DevSecOps Integration Summary</text>
<g transform="translate(84 474)">
    <rect width="131" height="38" rx="19" fill="#60a5fa" fill-opacity="0.16" stroke="#60a5fa" stroke-width="1.2"/>
    <text x="65" y="24" font-family="Arial,sans-serif" font-size="13" font-weight="700" fill="#e2e8f0" text-anchor="middle">DEVSECOPS</text>
  </g>
  <g transform="translate(229 474)">
    <rect width="153" height="38" rx="19" fill="#60a5fa" fill-opacity="0.16" stroke="#60a5fa" stroke-width="1.2"/>
    <text x="76" y="24" font-family="Arial,sans-serif" font-size="13" font-weight="700" fill="#e2e8f0" text-anchor="middle">INTEGRATION</text>
  </g>
  <g transform="translate(396 474)">
    <rect width="186" height="38" rx="19" fill="#60a5fa" fill-opacity="0.16" stroke="#60a5fa" stroke-width="1.2"/>
    <text x="93" y="24" font-family="Arial,sans-serif" font-size="13" font-weight="700" fill="#e2e8f0" text-anchor="middle">CLOUD-SECURITY</text>
  </g>
  <g transform="translate(596 474)">
    <rect width="110" height="38" rx="19" fill="#60a5fa" fill-opacity="0.16" stroke="#60a5fa" stroke-width="1.2"/>
    <text x="55" y="24" font-family="Arial,sans-serif" font-size="13" font-weight="700" fill="#e2e8f0" text-anchor="middle">SDLC</text>
  </g>
<g transform="translate(84 536)">
    <rect width="144" height="58" rx="16" fill="#111827" fill-opacity="0.78" stroke="#60a5fa" stroke-opacity="0.4" stroke-width="1.2"/>
    <text x="18" y="24" font-family="Arial,sans-serif" font-size="11" font-weight="700" fill="#94a3b8">BATCH</text>
    <text x="18" y="43" font-family="Arial,sans-serif" font-size="16" font-weight="700" fill="#f8fafc">7</text>
  </g>
  <g transform="translate(246 536)">
    <rect width="144" height="58" rx="16" fill="#111827" fill-opacity="0.78" stroke="#60a5fa" stroke-opacity="0.4" stroke-width="1.2"/>
    <text x="18" y="24" font-family="Arial,sans-serif" font-size="11" font-weight="700" fill="#94a3b8">WEEK</text>
    <text x="18" y="43" font-family="Arial,sans-serif" font-size="16" font-weight="700" fill="#f8fafc">9</text>
  </g>
  <g transform="translate(408 536)">
    <rect width="144" height="58" rx="16" fill="#111827" fill-opacity="0.78" stroke="#60a5fa" stroke-opacity="0.4" stroke-width="1.2"/>
    <text x="18" y="24" font-family="Arial,sans-serif" font-size="11" font-weight="700" fill="#94a3b8">MODEL</text>
    <text x="18" y="43" font-family="Arial,sans-serif" font-size="16" font-weight="700" fill="#f8fafc">DEVSEC</text>
  </g>
<g transform="translate(1030 74)">
    <rect width="130" height="34" rx="17" fill="#1d4ed8" opacity="0.22" stroke="#60a5fa" stroke-width="1.2"/>
    <text x="65" y="22" font-family="Arial,sans-serif" font-size="12" font-weight="700" fill="#e2e8f0" text-anchor="middle">June 13, 2025</text>
  </g>
<line x1="50" y1="588" x2="1150" y2="588" stroke="#334155" stroke-width="1" opacity="0.5"/>
  <text x="1150" y="612" font-family="Arial,sans-serif" font-size="13" fill="#94a3b8" text-anchor="end">tech.2twodragon.com</text>
<g transform="translate(1080,504)" filter="url(#softShadow)">
  <rect x="-8" y="-8" width="100" height="100" rx="6" fill="#FFFFFF"/>
  <path fill="#0A1020" d="M0.0 0.0h13.067v1.867h-13.067z M18.667 0.0h1.867v1.867h-1.867z M22.4 0.0h3.733v1.867h-3.733z M29.867 0.0h3.733v1.867h-3.733z M35.467 0.0h1.867v1.867h-1.867z M41.067 0.0h1.867v1.867h-1.867z M46.667 0.0h1.867v1.867h-1.867z M54.133 0.0h3.733v1.867h-3.733z M59.733 0.0h1.867v1.867h-1.867z M67.2 0.0h1.867v1.867h-1.867z M70.933 0.0h13.067v1.867h-13.067z M0.0 1.867h1.867v1.867h-1.867z M11.2 1.867h1.867v1.867h-1.867z M16.8 1.867h3.733v1.867h-3.733z M24.267 1.867h1.867v1.867h-1.867z M33.6 1.867h3.733v1.867h-3.733z M41.067 1.867h7.467v1.867h-7.467z M50.4 1.867h5.6v1.867h-5.6z M65.333 1.867h1.867v1.867h-1.867z M70.933 1.867h1.867v1.867h-1.867z M82.133 1.867h1.867v1.867h-1.867z M0.0 3.733h1.867v1.867h-1.867z M3.733 3.733h5.6v1.867h-5.6z M11.2 3.733h1.867v1.867h-1.867z M14.933 3.733h1.867v1.867h-1.867z M18.667 3.733h5.6v1.867h-5.6z M26.133 3.733h7.467v1.867h-7.467z M35.467 3.733h1.867v1.867h-1.867z M46.667 3.733h11.2v1.867h-11.2z M59.733 3.733h3.733v1.867h-3.733z M65.333 3.733h1.867v1.867h-1.867z M70.933 3.733h1.867v1.867h-1.867z M74.667 3.733h5.6v1.867h-5.6z M82.133 3.733h1.867v1.867h-1.867z M0.0 5.6h1.867v1.867h-1.867z M3.733 5.6h5.6v1.867h-5.6z M11.2 5.6h1.867v1.867h-1.867z M14.933 5.6h1.867v1.867h-1.867z M18.667 5.6h1.867v1.867h-1.867z M22.4 5.6h1.867v1.867h-1.867z M26.133 5.6h1.867v1.867h-1.867z M29.867 5.6h5.6v1.867h-5.6z M37.333 5.6h1.867v1.867h-1.867z M42.933 5.6h1.867v1.867h-1.867z M57.867 5.6h1.867v1.867h-1.867z M65.333 5.6h3.733v1.867h-3.733z M70.933 5.6h1.867v1.867h-1.867z M74.667 5.6h5.6v1.867h-5.6z M82.133 5.6h1.867v1.867h-1.867z M0.0 7.467h1.867v1.867h-1.867z M3.733 7.467h5.6v1.867h-5.6z M11.2 7.467h1.867v1.867h-1.867z M14.933 7.467h3.733v1.867h-3.733z M20.533 7.467h1.867v1.867h-1.867z M26.133 7.467h3.733v1.867h-3.733z M35.467 7.467h11.2v1.867h-11.2z M52.267 7.467h1.867v1.867h-1.867z M56.0 7.467h5.6v1.867h-5.6z M63.467 7.467h5.6v1.867h-5.6z M70.933 7.467h1.867v1.867h-1.867z M74.667 7.467h5.6v1.867h-5.6z M82.133 7.467h1.867v1.867h-1.867z M0.0 9.333h1.867v1.867h-1.867z M11.2 9.333h1.867v1.867h-1.867z M14.933 9.333h3.733v1.867h-3.733z M26.133 9.333h1.867v1.867h-1.867z M29.867 9.333h3.733v1.867h-3.733z M37.333 9.333h1.867v1.867h-1.867z M44.8 9.333h1.867v1.867h-1.867z M50.4 9.333h1.867v1.867h-1.867z M57.867 9.333h3.733v1.867h-3.733z M70.933 9.333h1.867v1.867h-1.867z M82.133 9.333h1.867v1.867h-1.867z M0.0 11.2h13.067v1.867h-13.067z M14.933 11.2h1.867v1.867h-1.867z M18.667 11.2h1.867v1.867h-1.867z M22.4 11.2h1.867v1.867h-1.867z M26.133 11.2h1.867v1.867h-1.867z M29.867 11.2h1.867v1.867h-1.867z M33.6 11.2h1.867v1.867h-1.867z M37.333 11.2h1.867v1.867h-1.867z M41.067 11.2h1.867v1.867h-1.867z M44.8 11.2h1.867v1.867h-1.867z M48.533 11.2h1.867v1.867h-1.867z M52.267 11.2h1.867v1.867h-1.867z M56.0 11.2h1.867v1.867h-1.867z M59.733 11.2h1.867v1.867h-1.867z M63.467 11.2h1.867v1.867h-1.867z M67.2 11.2h1.867v1.867h-1.867z M70.933 11.2h13.067v1.867h-13.067z M14.933 13.067h1.867v1.867h-1.867z M24.267 13.067h7.467v1.867h-7.467z M35.467 13.067h3.733v1.867h-3.733z M44.8 13.067h1.867v1.867h-1.867z M50.4 13.067h3.733v1.867h-3.733z M56.0 13.067h1.867v1.867h-1.867z M59.733 13.067h1.867v1.867h-1.867z M65.333 13.067h3.733v1.867h-3.733z M0.0 14.933h1.867v1.867h-1.867z M3.733 14.933h9.333v1.867h-9.333z M24.267 14.933h1.867v1.867h-1.867z M31.733 14.933h1.867v1.867h-1.867z M35.467 14.933h13.067v1.867h-13.067z M54.133 14.933h1.867v1.867h-1.867z M57.867 14.933h1.867v1.867h-1.867z M61.6 14.933h1.867v1.867h-1.867z M65.333 14.933h3.733v1.867h-3.733z M70.933 14.933h9.333v1.867h-9.333z M1.867 16.8h1.867v1.867h-1.867z M5.6 16.8h5.6v1.867h-5.6z M18.667 16.8h3.733v1.867h-3.733z M24.267 16.8h1.867v1.867h-1.867z M29.867 16.8h1.867v1.867h-1.867z M33.6 16.8h5.6v1.867h-5.6z M41.067 16.8h7.467v1.867h-7.467z M50.4 16.8h7.467v1.867h-7.467z M65.333 16.8h3.733v1.867h-3.733z M74.667 16.8h1.867v1.867h-1.867z M78.4 16.8h5.6v1.867h-5.6z M1.867 18.667h3.733v1.867h-3.733z M9.333 18.667h13.067v1.867h-13.067z M28.0 18.667h9.333v1.867h-9.333z M41.067 18.667h1.867v1.867h-1.867z M44.8 18.667h1.867v1.867h-1.867z M48.533 18.667h3.733v1.867h-3.733z M57.867 18.667h1.867v1.867h-1.867z M61.6 18.667h13.067v1.867h-13.067z M76.533 18.667h1.867v1.867h-1.867z M80.267 18.667h1.867v1.867h-1.867z M0.0 20.533h3.733v1.867h-3.733z M5.6 20.533h1.867v1.867h-1.867z M9.333 20.533h1.867v1.867h-1.867z M13.067 20.533h5.6v1.867h-5.6z M20.533 20.533h3.733v1.867h-3.733z M26.133 20.533h1.867v1.867h-1.867z M33.6 20.533h1.867v1.867h-1.867z M42.933 20.533h13.067v1.867h-13.067z M57.867 20.533h5.6v1.867h-5.6z M65.333 20.533h3.733v1.867h-3.733z M72.8 20.533h7.467v1.867h-7.467z M3.733 22.4h1.867v1.867h-1.867z M9.333 22.4h3.733v1.867h-3.733z M18.667 22.4h1.867v1.867h-1.867z M22.4 22.4h3.733v1.867h-3.733z M28.0 22.4h1.867v1.867h-1.867z M31.733 22.4h5.6v1.867h-5.6z M39.2 22.4h1.867v1.867h-1.867z M44.8 22.4h1.867v1.867h-1.867z M61.6 22.4h1.867v1.867h-1.867z M65.333 22.4h1.867v1.867h-1.867z M82.133 22.4h1.867v1.867h-1.867z M9.333 24.267h1.867v1.867h-1.867z M13.067 24.267h1.867v1.867h-1.867z M16.8 24.267h1.867v1.867h-1.867z M26.133 24.267h3.733v1.867h-3.733z M41.067 24.267h7.467v1.867h-7.467z M56.0 24.267h1.867v1.867h-1.867z M61.6 24.267h1.867v1.867h-1.867z M67.2 24.267h3.733v1.867h-3.733z M80.267 24.267h3.733v1.867h-3.733z M0.0 26.133h1.867v1.867h-1.867z M5.6 26.133h1.867v1.867h-1.867z M9.333 26.133h5.6v1.867h-5.6z M16.8 26.133h1.867v1.867h-1.867z M20.533 26.133h1.867v1.867h-1.867z M24.267 26.133h5.6v1.867h-5.6z M33.6 26.133h3.733v1.867h-3.733z M39.2 26.133h7.467v1.867h-7.467z M48.533 26.133h1.867v1.867h-1.867z M52.267 26.133h1.867v1.867h-1.867z M63.467 26.133h1.867v1.867h-1.867z M69.067 26.133h13.067v1.867h-13.067z M1.867 28.0h7.467v1.867h-7.467z M13.067 28.0h3.733v1.867h-3.733z M28.0 28.0h1.867v1.867h-1.867z M35.467 28.0h1.867v1.867h-1.867z M41.067 28.0h3.733v1.867h-3.733z M46.667 28.0h1.867v1.867h-1.867z M52.267 28.0h9.333v1.867h-9.333z M63.467 28.0h1.867v1.867h-1.867z M67.2 28.0h3.733v1.867h-3.733z M74.667 28.0h9.333v1.867h-9.333z M3.733 29.867h1.867v1.867h-1.867z M11.2 29.867h11.2v1.867h-11.2z M24.267 29.867h1.867v1.867h-1.867z M31.733 29.867h3.733v1.867h-3.733z M37.333 29.867h3.733v1.867h-3.733z M46.667 29.867h5.6v1.867h-5.6z M56.0 29.867h1.867v1.867h-1.867z M63.467 29.867h3.733v1.867h-3.733z M69.067 29.867h1.867v1.867h-1.867z M76.533 29.867h7.467v1.867h-7.467z M1.867 31.733h1.867v1.867h-1.867z M7.467 31.733h1.867v1.867h-1.867z M13.067 31.733h1.867v1.867h-1.867z M16.8 31.733h5.6v1.867h-5.6z M28.0 31.733h1.867v1.867h-1.867z M35.467 31.733h1.867v1.867h-1.867z M39.2 31.733h1.867v1.867h-1.867z M42.933 31.733h5.6v1.867h-5.6z M52.267 31.733h5.6v1.867h-5.6z M59.733 31.733h3.733v1.867h-3.733z M65.333 31.733h5.6v1.867h-5.6z M74.667 31.733h1.867v1.867h-1.867z M78.4 31.733h5.6v1.867h-5.6z M1.867 33.6h1.867v1.867h-1.867z M5.6 33.6h1.867v1.867h-1.867z M9.333 33.6h3.733v1.867h-3.733z M14.933 33.6h1.867v1.867h-1.867z M18.667 33.6h20.533v1.867h-20.533z M41.067 33.6h5.6v1.867h-5.6z M48.533 33.6h1.867v1.867h-1.867z M52.267 33.6h3.733v1.867h-3.733z M57.867 33.6h3.733v1.867h-3.733z M63.467 33.6h3.733v1.867h-3.733z M69.067 33.6h3.733v1.867h-3.733z M74.667 33.6h1.867v1.867h-1.867z M78.4 33.6h3.733v1.867h-3.733z M0.0 35.467h9.333v1.867h-9.333z M13.067 35.467h3.733v1.867h-3.733z M20.533 35.467h1.867v1.867h-1.867z M28.0 35.467h9.333v1.867h-9.333z M44.8 35.467h7.467v1.867h-7.467z M54.133 35.467h1.867v1.867h-1.867z M59.733 35.467h3.733v1.867h-3.733z M65.333 35.467h1.867v1.867h-1.867z M69.067 35.467h3.733v1.867h-3.733z M74.667 35.467h5.6v1.867h-5.6z M1.867 37.333h1.867v1.867h-1.867z M5.6 37.333h13.067v1.867h-13.067z M20.533 37.333h3.733v1.867h-3.733z M26.133 37.333h1.867v1.867h-1.867z M31.733 37.333h14.933v1.867h-14.933z M48.533 37.333h1.867v1.867h-1.867z M54.133 37.333h1.867v1.867h-1.867z M57.867 37.333h1.867v1.867h-1.867z M61.6 37.333h3.733v1.867h-3.733z M67.2 37.333h11.2v1.867h-11.2z M80.267 37.333h1.867v1.867h-1.867z M3.733 39.2h1.867v1.867h-1.867z M7.467 39.2h1.867v1.867h-1.867z M14.933 39.2h3.733v1.867h-3.733z M20.533 39.2h3.733v1.867h-3.733z M28.0 39.2h3.733v1.867h-3.733z M35.467 39.2h3.733v1.867h-3.733z M44.8 39.2h5.6v1.867h-5.6z M52.267 39.2h1.867v1.867h-1.867z M56.0 39.2h3.733v1.867h-3.733z M65.333 39.2h3.733v1.867h-3.733z M74.667 39.2h9.333v1.867h-9.333z M0.0 41.067h1.867v1.867h-1.867z M3.733 41.067h1.867v1.867h-1.867z M7.467 41.067h1.867v1.867h-1.867z M11.2 41.067h1.867v1.867h-1.867z M14.933 41.067h5.6v1.867h-5.6z M22.4 41.067h1.867v1.867h-1.867z M33.6 41.067h1.867v1.867h-1.867z M37.333 41.067h1.867v1.867h-1.867z M41.067 41.067h1.867v1.867h-1.867z M44.8 41.067h1.867v1.867h-1.867z M52.267 41.067h3.733v1.867h-3.733z M59.733 41.067h9.333v1.867h-9.333z M70.933 41.067h1.867v1.867h-1.867z M74.667 41.067h1.867v1.867h-1.867z M78.4 41.067h3.733v1.867h-3.733z M0.0 42.933h3.733v1.867h-3.733z M7.467 42.933h1.867v1.867h-1.867z M14.933 42.933h1.867v1.867h-1.867z M18.667 42.933h5.6v1.867h-5.6z M28.0 42.933h1.867v1.867h-1.867z M31.733 42.933h3.733v1.867h-3.733z M37.333 42.933h1.867v1.867h-1.867z M44.8 42.933h3.733v1.867h-3.733z M52.267 42.933h1.867v1.867h-1.867z M57.867 42.933h3.733v1.867h-3.733z M67.2 42.933h1.867v1.867h-1.867z M74.667 42.933h5.6v1.867h-5.6z M82.133 42.933h1.867v1.867h-1.867z M1.867 44.8h1.867v1.867h-1.867z M5.6 44.8h11.2v1.867h-11.2z M18.667 44.8h7.467v1.867h-7.467z M28.0 44.8h1.867v1.867h-1.867z M33.6 44.8h1.867v1.867h-1.867z M37.333 44.8h13.067v1.867h-13.067z M56.0 44.8h3.733v1.867h-3.733z M65.333 44.8h13.067v1.867h-13.067z M80.267 44.8h1.867v1.867h-1.867z M0.0 46.667h5.6v1.867h-5.6z M22.4 46.667h3.733v1.867h-3.733z M28.0 46.667h1.867v1.867h-1.867z M31.733 46.667h5.6v1.867h-5.6z M39.2 46.667h9.333v1.867h-9.333z M50.4 46.667h1.867v1.867h-1.867z M54.133 46.667h5.6v1.867h-5.6z M70.933 46.667h1.867v1.867h-1.867z M76.533 46.667h3.733v1.867h-3.733z M82.133 46.667h1.867v1.867h-1.867z M0.0 48.533h3.733v1.867h-3.733z M11.2 48.533h1.867v1.867h-1.867z M16.8 48.533h1.867v1.867h-1.867z M22.4 48.533h5.6v1.867h-5.6z M29.867 48.533h5.6v1.867h-5.6z M37.333 48.533h3.733v1.867h-3.733z M48.533 48.533h1.867v1.867h-1.867z M54.133 48.533h3.733v1.867h-3.733z M61.6 48.533h3.733v1.867h-3.733z M67.2 48.533h3.733v1.867h-3.733z M74.667 48.533h7.467v1.867h-7.467z M1.867 50.4h1.867v1.867h-1.867z M13.067 50.4h3.733v1.867h-3.733z M18.667 50.4h1.867v1.867h-1.867z M24.267 50.4h7.467v1.867h-7.467z M33.6 50.4h1.867v1.867h-1.867z M37.333 50.4h1.867v1.867h-1.867z M41.067 50.4h1.867v1.867h-1.867z M44.8 50.4h11.2v1.867h-11.2z M57.867 50.4h5.6v1.867h-5.6z M65.333 50.4h1.867v1.867h-1.867z M69.067 50.4h3.733v1.867h-3.733z M74.667 50.4h5.6v1.867h-5.6z M0.0 52.267h3.733v1.867h-3.733z M5.6 52.267h9.333v1.867h-9.333z M16.8 52.267h5.6v1.867h-5.6z M24.267 52.267h1.867v1.867h-1.867z M28.0 52.267h1.867v1.867h-1.867z M35.467 52.267h1.867v1.867h-1.867z M46.667 52.267h3.733v1.867h-3.733z M61.6 52.267h3.733v1.867h-3.733z M70.933 52.267h1.867v1.867h-1.867z M74.667 52.267h1.867v1.867h-1.867z M0.0 54.133h1.867v1.867h-1.867z M7.467 54.133h1.867v1.867h-1.867z M14.933 54.133h3.733v1.867h-3.733z M28.0 54.133h1.867v1.867h-1.867z M31.733 54.133h1.867v1.867h-1.867z M37.333 54.133h7.467v1.867h-7.467z M46.667 54.133h1.867v1.867h-1.867z M50.4 54.133h1.867v1.867h-1.867z M54.133 54.133h9.333v1.867h-9.333z M65.333 54.133h3.733v1.867h-3.733z M70.933 54.133h1.867v1.867h-1.867z M76.533 54.133h1.867v1.867h-1.867z M1.867 56.0h1.867v1.867h-1.867z M5.6 56.0h7.467v1.867h-7.467z M14.933 56.0h5.6v1.867h-5.6z M22.4 56.0h5.6v1.867h-5.6z M29.867 56.0h1.867v1.867h-1.867z M33.6 56.0h3.733v1.867h-3.733z M44.8 56.0h5.6v1.867h-5.6z M57.867 56.0h3.733v1.867h-3.733z M63.467 56.0h1.867v1.867h-1.867z M72.8 56.0h1.867v1.867h-1.867z M76.533 56.0h1.867v1.867h-1.867z M80.267 56.0h1.867v1.867h-1.867z M0.0 57.867h1.867v1.867h-1.867z M3.733 57.867h3.733v1.867h-3.733z M9.333 57.867h1.867v1.867h-1.867z M13.067 57.867h3.733v1.867h-3.733z M20.533 57.867h5.6v1.867h-5.6z M28.0 57.867h3.733v1.867h-3.733z M35.467 57.867h5.6v1.867h-5.6z M42.933 57.867h1.867v1.867h-1.867z M46.667 57.867h1.867v1.867h-1.867z M54.133 57.867h3.733v1.867h-3.733z M59.733 57.867h1.867v1.867h-1.867z M65.333 57.867h3.733v1.867h-3.733z M70.933 57.867h3.733v1.867h-3.733z M76.533 57.867h7.467v1.867h-7.467z M0.0 59.733h5.6v1.867h-5.6z M11.2 59.733h1.867v1.867h-1.867z M14.933 59.733h3.733v1.867h-3.733z M20.533 59.733h3.733v1.867h-3.733z M28.0 59.733h5.6v1.867h-5.6z M35.467 59.733h3.733v1.867h-3.733z M46.667 59.733h1.867v1.867h-1.867z M54.133 59.733h1.867v1.867h-1.867z M63.467 59.733h1.867v1.867h-1.867z M72.8 59.733h1.867v1.867h-1.867z M78.4 59.733h1.867v1.867h-1.867z M1.867 61.6h1.867v1.867h-1.867z M5.6 61.6h1.867v1.867h-1.867z M9.333 61.6h1.867v1.867h-1.867z M24.267 61.6h1.867v1.867h-1.867z M29.867 61.6h1.867v1.867h-1.867z M35.467 61.6h9.333v1.867h-9.333z M46.667 61.6h1.867v1.867h-1.867z M54.133 61.6h3.733v1.867h-3.733z M65.333 61.6h1.867v1.867h-1.867z M69.067 61.6h3.733v1.867h-3.733z M78.4 61.6h5.6v1.867h-5.6z M7.467 63.467h1.867v1.867h-1.867z M11.2 63.467h1.867v1.867h-1.867z M18.667 63.467h11.2v1.867h-11.2z M31.733 63.467h3.733v1.867h-3.733z M37.333 63.467h3.733v1.867h-3.733z M48.533 63.467h1.867v1.867h-1.867z M52.267 63.467h1.867v1.867h-1.867z M59.733 63.467h3.733v1.867h-3.733z M65.333 63.467h3.733v1.867h-3.733z M74.667 63.467h3.733v1.867h-3.733z M80.267 63.467h1.867v1.867h-1.867z M1.867 65.333h7.467v1.867h-7.467z M18.667 65.333h3.733v1.867h-3.733z M24.267 65.333h3.733v1.867h-3.733z M31.733 65.333h1.867v1.867h-1.867z M37.333 65.333h1.867v1.867h-1.867z M42.933 65.333h3.733v1.867h-3.733z M50.4 65.333h3.733v1.867h-3.733z M56.0 65.333h1.867v1.867h-1.867z M59.733 65.333h3.733v1.867h-3.733z M65.333 65.333h3.733v1.867h-3.733z M70.933 65.333h1.867v1.867h-1.867z M74.667 65.333h7.467v1.867h-7.467z M0.0 67.2h1.867v1.867h-1.867z M5.6 67.2h3.733v1.867h-3.733z M11.2 67.2h1.867v1.867h-1.867z M14.933 67.2h11.2v1.867h-11.2z M33.6 67.2h1.867v1.867h-1.867z M37.333 67.2h11.2v1.867h-11.2z M50.4 67.2h1.867v1.867h-1.867z M54.133 67.2h5.6v1.867h-5.6z M67.2 67.2h13.067v1.867h-13.067z M82.133 67.2h1.867v1.867h-1.867z M14.933 69.067h1.867v1.867h-1.867z M18.667 69.067h1.867v1.867h-1.867z M24.267 69.067h1.867v1.867h-1.867z M37.333 69.067h1.867v1.867h-1.867z M44.8 69.067h1.867v1.867h-1.867z M52.267 69.067h1.867v1.867h-1.867z M56.0 69.067h1.867v1.867h-1.867z M65.333 69.067h3.733v1.867h-3.733z M74.667 69.067h9.333v1.867h-9.333z M0.0 70.933h13.067v1.867h-13.067z M18.667 70.933h5.6v1.867h-5.6z M28.0 70.933h1.867v1.867h-1.867z M33.6 70.933h5.6v1.867h-5.6z M41.067 70.933h1.867v1.867h-1.867z M44.8 70.933h3.733v1.867h-3.733z M50.4 70.933h1.867v1.867h-1.867z M54.133 70.933h1.867v1.867h-1.867z M57.867 70.933h1.867v1.867h-1.867z M63.467 70.933h5.6v1.867h-5.6z M70.933 70.933h1.867v1.867h-1.867z M74.667 70.933h1.867v1.867h-1.867z M78.4 70.933h3.733v1.867h-3.733z M0.0 72.8h1.867v1.867h-1.867z M11.2 72.8h1.867v1.867h-1.867z M14.933 72.8h1.867v1.867h-1.867z M18.667 72.8h7.467v1.867h-7.467z M33.6 72.8h5.6v1.867h-5.6z M44.8 72.8h11.2v1.867h-11.2z M59.733 72.8h3.733v1.867h-3.733z M65.333 72.8h3.733v1.867h-3.733z M74.667 72.8h7.467v1.867h-7.467z M0.0 74.667h1.867v1.867h-1.867z M3.733 74.667h5.6v1.867h-5.6z M11.2 74.667h1.867v1.867h-1.867z M14.933 74.667h1.867v1.867h-1.867z M22.4 74.667h7.467v1.867h-7.467z M31.733 74.667h3.733v1.867h-3.733z M37.333 74.667h13.067v1.867h-13.067z M54.133 74.667h1.867v1.867h-1.867z M57.867 74.667h1.867v1.867h-1.867z M63.467 74.667h14.933v1.867h-14.933z M80.267 74.667h1.867v1.867h-1.867z M0.0 76.533h1.867v1.867h-1.867z M3.733 76.533h5.6v1.867h-5.6z M11.2 76.533h1.867v1.867h-1.867z M14.933 76.533h3.733v1.867h-3.733z M20.533 76.533h3.733v1.867h-3.733z M31.733 76.533h5.6v1.867h-5.6z M39.2 76.533h1.867v1.867h-1.867z M42.933 76.533h5.6v1.867h-5.6z M52.267 76.533h1.867v1.867h-1.867z M56.0 76.533h1.867v1.867h-1.867z M59.733 76.533h1.867v1.867h-1.867z M72.8 76.533h3.733v1.867h-3.733z M78.4 76.533h5.6v1.867h-5.6z M0.0 78.4h1.867v1.867h-1.867z M3.733 78.4h5.6v1.867h-5.6z M11.2 78.4h1.867v1.867h-1.867z M14.933 78.4h1.867v1.867h-1.867z M20.533 78.4h5.6v1.867h-5.6z M28.0 78.4h9.333v1.867h-9.333z M42.933 78.4h3.733v1.867h-3.733z M48.533 78.4h1.867v1.867h-1.867z M52.267 78.4h1.867v1.867h-1.867z M61.6 78.4h7.467v1.867h-7.467z M70.933 78.4h1.867v1.867h-1.867z M76.533 78.4h1.867v1.867h-1.867z M80.267 78.4h1.867v1.867h-1.867z M0.0 80.267h1.867v1.867h-1.867z M11.2 80.267h1.867v1.867h-1.867z M18.667 80.267h1.867v1.867h-1.867z M22.4 80.267h5.6v1.867h-5.6z M33.6 80.267h1.867v1.867h-1.867z M37.333 80.267h1.867v1.867h-1.867z M41.067 80.267h1.867v1.867h-1.867z M46.667 80.267h1.867v1.867h-1.867z M52.267 80.267h1.867v1.867h-1.867z M59.733 80.267h1.867v1.867h-1.867z M67.2 80.267h3.733v1.867h-3.733z M74.667 80.267h5.6v1.867h-5.6z M0.0 82.133h13.067v1.867h-13.067z M14.933 82.133h3.733v1.867h-3.733z M20.533 82.133h3.733v1.867h-3.733z M28.0 82.133h5.6v1.867h-5.6z M35.467 82.133h1.867v1.867h-1.867z M41.067 82.133h7.467v1.867h-7.467z M56.0 82.133h1.867v1.867h-1.867z M65.333 82.133h9.333v1.867h-9.333z M80.267 82.133h1.867v1.867h-1.867z"/>
</g>
<text x="1122" y="614" font-family="Inter, Helvetica, Arial, sans-serif" font-size="10" font-weight="700" fill="#F5F7FA" text-anchor="middle">scan / full post</text>
</svg>