<svg xmlns="http://www.w3.org/2000/svg" viewBox="0 0 1200 630" width="1200" height="630">
  <title>AWS Control Tower and ZTNA - Cloud Security 7Batch Week 5</title>
  <defs>
    <linearGradient id="bg" x1="0%" y1="0%" x2="100%" y2="100%">
      <stop offset="0%" stop-color="#0a0c1a"/>
      <stop offset="100%" stop-color="#0a0a1a"/>
    </linearGradient>
    <linearGradient id="accent" x1="0%" y1="0%" x2="100%" y2="0%">
      <stop offset="0%" stop-color="#3b82f6"/>
      <stop offset="100%" stop-color="#06b6d4"/>
    </linearGradient>
  </defs>
  <rect width="1200" height="630" fill="url(#bg)"/>
  <!-- Grid lines -->
  <line x1="0" y1="105" x2="1200" y2="105" stroke="rgba(255,255,255,0.04)" stroke-width="1"/>
  <line x1="0" y1="210" x2="1200" y2="210" stroke="rgba(255,255,255,0.04)" stroke-width="1"/>
  <line x1="0" y1="315" x2="1200" y2="315" stroke="rgba(255,255,255,0.04)" stroke-width="1"/>
  <line x1="0" y1="420" x2="1200" y2="420" stroke="rgba(255,255,255,0.04)" stroke-width="1"/>
  <line x1="240" y1="0" x2="240" y2="630" stroke="rgba(255,255,255,0.03)" stroke-width="1"/>
  <line x1="480" y1="0" x2="480" y2="630" stroke="rgba(255,255,255,0.03)" stroke-width="1"/>
  <line x1="720" y1="0" x2="720" y2="630" stroke="rgba(255,255,255,0.03)" stroke-width="1"/>
  <line x1="960" y1="0" x2="960" y2="630" stroke="rgba(255,255,255,0.03)" stroke-width="1"/>
  <!-- Tower/Governance icon -->
  <rect x="960" y="140" width="80" height="120" rx="4" fill="rgba(59,130,246,0.06)" stroke="rgba(59,130,246,0.25)" stroke-width="1.5"/>
  <rect x="950" y="130" width="100" height="16" rx="3" fill="rgba(59,130,246,0.08)" stroke="rgba(59,130,246,0.2)" stroke-width="1"/>
  <line x1="980" y1="160" x2="980" y2="255" stroke="rgba(59,130,246,0.15)" stroke-width="1"/>
  <line x1="1020" y1="160" x2="1020" y2="255" stroke="rgba(59,130,246,0.15)" stroke-width="1"/>
  <!-- Zero Trust network nodes -->
  <circle cx="930" cy="320" r="12" fill="rgba(6,182,212,0.1)" stroke="rgba(6,182,212,0.3)" stroke-width="1.5"/>
  <circle cx="1070" cy="320" r="12" fill="rgba(6,182,212,0.1)" stroke="rgba(6,182,212,0.3)" stroke-width="1.5"/>
  <circle cx="1000" cy="380" r="12" fill="rgba(6,182,212,0.1)" stroke="rgba(6,182,212,0.3)" stroke-width="1.5"/>
  <line x1="940" y1="328" x2="992" y2="374" stroke="rgba(6,182,212,0.15)" stroke-width="1"/>
  <line x1="1062" y1="328" x2="1008" y2="374" stroke="rgba(6,182,212,0.15)" stroke-width="1"/>
  <line x1="942" y1="320" x2="1058" y2="320" stroke="rgba(6,182,212,0.15)" stroke-width="1" stroke-dasharray="4,4"/>
  <!-- Background circles -->
  <circle cx="1050" cy="450" r="200" fill="rgba(255,255,255,0.02)"/>
  <circle cx="1050" cy="450" r="140" fill="rgba(255,255,255,0.02)"/>
  <!-- Left accent bar -->
  <rect x="0" y="0" width="6" height="630" fill="url(#accent)"/>
  <!-- Date badge -->
  <rect x="80" y="60" width="180" height="32" rx="4" fill="rgba(59,130,246,0.2)" stroke="rgba(59,130,246,0.4)" stroke-width="1"/>
  <text x="170" y="81" font-family="system-ui,sans-serif" font-size="14" fill="rgba(255,255,255,0.8)" text-anchor="middle" letter-spacing="1">MAY 16, 2025</text>
  <!-- Main title -->
  <text x="80" y="185" font-family="system-ui,sans-serif" font-size="46" font-weight="700" fill="white" letter-spacing="-1">AWS Control Tower</text>
  <text x="80" y="245" font-family="system-ui,sans-serif" font-size="46" font-weight="700" fill="white" letter-spacing="-1">and ZTNA</text>
  <!-- Subtitle -->
  <text x="80" y="300" font-family="system-ui,sans-serif" font-size="19" fill="rgba(255,255,255,0.6)">Cloud Security Course 7Batch - Week 5</text>
  <!-- Accent line -->
  <rect x="80" y="325" width="420" height="3" rx="1" fill="url(#accent)"/>
  <!-- Category label -->
  <text x="80" y="370" font-family="system-ui,sans-serif" font-size="14" fill="rgba(255,255,255,0.4)" letter-spacing="2">CLOUD SECURITY</text>
  <!-- Keyword tags -->
  <rect x="80" y="420" width="148" height="36" rx="18" fill="rgba(59,130,246,0.18)" stroke="rgba(59,130,246,0.4)" stroke-width="1"/>
  <text x="154" y="443" font-family="system-ui,sans-serif" font-size="14" fill="#93c5fd" text-anchor="middle" font-weight="600">Control Tower</text>
  <rect x="242" y="420" width="100" height="36" rx="18" fill="rgba(6,182,212,0.18)" stroke="rgba(6,182,212,0.4)" stroke-width="1"/>
  <text x="292" y="443" font-family="system-ui,sans-serif" font-size="14" fill="#67e8f9" text-anchor="middle" font-weight="600">ZTNA</text>
  <rect x="356" y="420" width="130" height="36" rx="18" fill="rgba(245,158,11,0.18)" stroke="rgba(245,158,11,0.4)" stroke-width="1"/>
  <text x="421" y="443" font-family="system-ui,sans-serif" font-size="14" fill="#fbbf24" text-anchor="middle" font-weight="600">Zero Trust</text>
  <!-- Bottom rule -->
  <rect x="80" y="520" width="1040" height="1" fill="rgba(255,255,255,0.08)"/>
  <text x="80" y="545" font-family="system-ui,sans-serif" font-size="13" fill="rgba(255,255,255,0.3)" letter-spacing="1">tech.2twodragon.com</text>
  <text x="1120" y="545" font-family="system-ui,sans-serif" font-size="13" fill="rgba(255,255,255,0.3)" text-anchor="end">Cloud</text>
</svg>