<svg xmlns="http://www.w3.org/2000/svg" viewBox="0 0 1200 630" width="1200" height="630">
  <title>[12 ] AWSKRUG + OWASP</title>
  <defs>
    <linearGradient id="bg" x1="0%" y1="0%" x2="100%" y2="100%">
      <stop offset="0%" stop-color="#0b0e1a"/>
      <stop offset="50%" stop-color="#111827"/>
      <stop offset="100%" stop-color="#0f0a1e"/>
    </linearGradient>
    <filter id="glow"><feGaussianBlur stdDeviation="4" result="b"/><feMerge><feMergeNode in="b"/><feMergeNode in="SourceGraphic"/></feMerge></filter>
    <filter id="sg"><feGaussianBlur stdDeviation="30"/></filter>
    <filter id="shadow"><feDropShadow dx="0" dy="6" stdDeviation="12" flood-color="#000" flood-opacity="0.4"/></filter>
  </defs>
  <rect width="1200" height="630" fill="url(#bg)"/>
  <circle cx="250" cy="250" r="220" fill="#34d399" opacity="0.06" filter="url(#sg)"/>
  <circle cx="950" cy="400" r="200" fill="#059669" opacity="0.04" filter="url(#sg)"/>

  <!-- Central illustration -->
  <g transform="translate(600,280)" filter="url(#shadow)">
    <circle r="80" fill="#0f172a" stroke="#34d399" stroke-width="2.5" opacity="0.8"/>

    <path d="M-30,15 C-50,15 -55,0 -55,-12 C-55,-28 -42,-38 -28,-38 C-22,-52 -8,-60 8,-60 C28,-60 42,-48 44,-38 C56,-38 64,-28 64,-16 C64,0 56,15 38,15 Z" fill="none" stroke="#34d399" stroke-width="3"/>
    <line x1="-20" y1="30" x2="-20" y2="45" stroke="#34d399" stroke-width="2" opacity="0.5"/>
    <line x1="10" y1="30" x2="10" y2="50" stroke="#34d399" stroke-width="2" opacity="0.5"/>
    <line x1="35" y1="30" x2="35" y2="42" stroke="#34d399" stroke-width="2" opacity="0.5"/>
    <rect x="-30" y="48" width="20" height="14" rx="3" fill="none" stroke="#34d399" stroke-width="1.5" opacity="0.5"/>
    <rect x="0" y="52" width="20" height="14" rx="3" fill="none" stroke="#34d399" stroke-width="1.5" opacity="0.5"/>
    <rect x="25" y="45" width="20" height="14" rx="3" fill="none" stroke="#34d399" stroke-width="1.5" opacity="0.5"/>
  </g>

  <text x="600" y="480" font-family="Arial,sans-serif" font-size="30" font-weight="bold" fill="white" text-anchor="middle" filter="url(#glow)">[12 ] AWSKRUG + OWASP</text>
  <text x="600" y="515" font-family="Arial,sans-serif" font-size="15" fill="#94a3b8" text-anchor="middle">AI | AWS</text>
  <text x="110" y="44" font-family="Arial,sans-serif" font-size="13" font-weight="bold" fill="#34d399" text-anchor="middle">CLOUD</text>
  <rect x="40" y="22" width="140" height="32" rx="16" fill="#34d399" opacity="0.25" stroke="#34d399" stroke-width="1"/>
  <text x="1090" y="44" font-family="Arial,sans-serif" font-size="13" font-weight="bold" fill="#93c5fd" text-anchor="middle">March 26, 2026</text>
  <rect x="1020" y="22" width="140" height="32" rx="16" fill="#3b82f6" opacity="0.2" stroke="#3b82f6" stroke-width="1"/>
  <line x1="50" y1="588" x2="1150" y2="588" stroke="#334155" stroke-width="1" opacity="0.5"/>
  <text x="1150" y="612" font-family="Arial,sans-serif" font-size="13" fill="#94a3b8" text-anchor="end">tech.2twodragon.com</text>
</svg>