<svg xmlns="http://www.w3.org/2000/svg" width="1200" height="630" aria-label="kubernetes Docker Kubernetes" viewBox="0 0 1200 630"><title>Docker Kubernetes</title><!--profile: high-quality-cover (2025 upgraded L25-single)--><defs><linearGradient id="bgSpreadX9903" x1="0%" x2="100%" y1="0%" y2="100%"><stop offset="0%" stop-color="#0b1120"/><stop offset="52%" stop-color="#121a2f"/><stop offset="100%" stop-color="#170f25"/></linearGradient><linearGradient id="heroPanelX9903" x1="0%" x2="100%" y1="0%" y2="100%"><stop offset="0%" stop-color="#0f172a"/><stop offset="100%" stop-color="#111827" stop-opacity=".9"/></linearGradient><filter id="sgBlur" width="160%" height="160%" x="-30%" y="-30%"><feGaussianBlur stdDeviation="36"/></filter><filter id="singleShadow" width="180%" height="180%" x="-30%" y="-30%"><feDropShadow dx="0" dy="14" flood-color="#020617" flood-opacity=".4" stdDeviation="22"/></filter><pattern id="microGridX9903" width="36" height="36" x="0" y="0" patternUnits="userSpaceOnUse"><path fill="none" stroke="#334155" d="M36 0H0v36" opacity=".3"/><circle cx="18" cy="18" r="1.2" fill="#60a5fa" opacity=".2"/></pattern></defs><path fill="url(#bgSpreadX9903)" d="M0 0h1200v630H0z"/><path fill="url(#microGridX9903)" d="M0 0h1200v630H0z"/><circle cx="202" cy="150" r="190" fill="#60a5fa" filter="url(#sgBlur)" opacity=".1"/><circle cx="1020" cy="486" r="220" fill="#1d4ed8" filter="url(#sgBlur)" opacity=".1"/><circle cx="920" cy="160" r="140" fill="#22d3ee" filter="url(#sgBlur)" opacity=".1"/><path fill="#020617" d="M0 96c224-50 426-52 654 22v512H0Z" opacity=".2"/><path fill="none" stroke="#475569" stroke-width="1.2" d="M0 526c248-36 426-40 654 22" opacity=".2"/><path fill="none" stroke="#22d3ee" stroke-width="1.3" d="M704 148c88-30 188-26 276 28" opacity=".2"/><path fill="none" stroke="#60a5fa" stroke-width="1.2" d="M716 430c88 32 198 28 294-40" opacity=".2"/><rect width="388" height="292" x="720" y="132" fill="url(#heroPanelX9903)" stroke="#60a5fa" stroke-opacity=".3" stroke-width="1.4" filter="url(#singleShadow)" rx="28"/><rect width="352" height="256" x="738" y="150" fill="none" stroke="#334155" stroke-opacity=".7" rx="22"/><rect width="108" height="12" x="742" y="152" fill="#60a5fa" opacity=".3" rx="6"/><rect width="72" height="12" x="864" y="152" fill="#334155" opacity=".6" rx="6"/><rect width="48" height="12" x="948" y="152" fill="#334155" opacity=".3" rx="6"/><path fill="#60a5fa" d="M742 156h6v6h-6zm8 0h6v6h-6zm8 0h6v6h-6zm8 0h6v6h-6zm16 0h6v6h-6zm8 0h6v6h-6zm8 0h6v6h-6zm-56 8h6v6h-6zm32 0h6v6h-6zm16 0h6v6h-6zm8 0h6v6h-6zm-56 8h6v6h-6zm16 0h6v6h-6zm16 0h6v6h-6zm16 0h6v6h-6zm-48 8h6v6h-6zm32 0h6v6h-6zm8 0h6v6h-6zm8 0h6v6h-6zm8 0h6v6h-6zm-56 8h6v6h-6zm8 0h6v6h-6zm8 0h6v6h-6zm8 0h6v6h-6zm24 0h6v6h-6zm8 0h6v6h-6zm-40 8h6v6h-6zm8 0h6v6h-6zm8 0h6v6h-6zm8 0h6v6h-6zm8 0h6v6h-6zm-48 8h6v6h-6zm8 0h6v6h-6zm32 0h6v6h-6zm8 0h6v6h-6zm-40 8h6v6h-6zm8 0h6v6h-6zm16 0h6v6h-6zm16 0h6v6h-6zm8 0h6v6h-6z" opacity=".4"/><circle cx="1010" cy="60" r="1.4" fill="#22d3ee" opacity=".2"/><circle cx="1024" cy="60" r="1.4" fill="#22d3ee" opacity=".3"/><circle cx="1038" cy="60" r="1.4" fill="#22d3ee" opacity=".3"/><circle cx="1052" cy="60" r="1.4" fill="#22d3ee" opacity=".2"/><circle cx="1066" cy="60" r="1.4" fill="#22d3ee" opacity=".3"/><circle cx="1080" cy="60" r="1.4" fill="#22d3ee" opacity=".3"/><circle cx="1094" cy="60" r="1.4" fill="#22d3ee" opacity=".2"/><circle cx="1108" cy="60" r="1.4" fill="#22d3ee" opacity=".3"/><circle cx="1010" cy="72" r="1.4" fill="#22d3ee" opacity=".2"/><circle cx="1024" cy="72" r="1.4" fill="#22d3ee" opacity=".3"/><circle cx="1038" cy="72" r="1.4" fill="#22d3ee" opacity=".3"/><circle cx="1052" cy="72" r="1.4" fill="#22d3ee" opacity=".2"/><circle cx="1066" cy="72" r="1.4" fill="#22d3ee" opacity=".3"/><circle cx="1080" cy="72" r="1.4" fill="#22d3ee" opacity=".3"/><circle cx="1094" cy="72" r="1.4" fill="#22d3ee" opacity=".2"/><circle cx="1108" cy="72" r="1.4" fill="#22d3ee" opacity=".3"/><circle cx="1010" cy="84" r="1.4" fill="#22d3ee" opacity=".2"/><circle cx="1024" cy="84" r="1.4" fill="#22d3ee" opacity=".3"/><circle cx="1038" cy="84" r="1.4" fill="#22d3ee" opacity=".3"/><circle cx="1052" cy="84" r="1.4" fill="#22d3ee" opacity=".2"/><circle cx="1066" cy="84" r="1.4" fill="#22d3ee" opacity=".3"/><circle cx="1080" cy="84" r="1.4" fill="#22d3ee" opacity=".3"/><circle cx="1094" cy="84" r="1.4" fill="#22d3ee" opacity=".2"/><circle cx="1108" cy="84" r="1.4" fill="#22d3ee" opacity=".3"/><circle cx="1010" cy="96" r="1.4" fill="#22d3ee" opacity=".2"/><circle cx="1024" cy="96" r="1.4" fill="#22d3ee" opacity=".3"/><circle cx="1038" cy="96" r="1.4" fill="#22d3ee" opacity=".3"/><circle cx="1052" cy="96" r="1.4" fill="#22d3ee" opacity=".2"/><circle cx="1066" cy="96" r="1.4" fill="#22d3ee" opacity=".3"/><circle cx="1080" cy="96" r="1.4" fill="#22d3ee" opacity=".3"/><circle cx="1094" cy="96" r="1.4" fill="#22d3ee" opacity=".2"/><circle cx="1108" cy="96" r="1.4" fill="#22d3ee" opacity=".3"/><circle cx="1010" cy="108" r="1.4" fill="#22d3ee" opacity=".2"/><circle cx="1024" cy="108" r="1.4" fill="#22d3ee" opacity=".3"/><circle cx="1038" cy="108" r="1.4" fill="#22d3ee" opacity=".3"/><circle cx="1052" cy="108" r="1.4" fill="#22d3ee" opacity=".2"/><circle cx="1066" cy="108" r="1.4" fill="#22d3ee" opacity=".3"/><circle cx="1080" cy="108" r="1.4" fill="#22d3ee" opacity=".3"/><circle cx="1094" cy="108" r="1.4" fill="#22d3ee" opacity=".2"/><circle cx="1108" cy="108" r="1.4" fill="#22d3ee" opacity=".3"/><circle cx="1010" cy="120" r="1.4" fill="#22d3ee" opacity=".2"/><circle cx="1024" cy="120" r="1.4" fill="#22d3ee" opacity=".3"/><circle cx="1038" cy="120" r="1.4" fill="#22d3ee" opacity=".3"/><circle cx="1052" cy="120" r="1.4" fill="#22d3ee" opacity=".2"/><circle cx="1066" cy="120" r="1.4" fill="#22d3ee" opacity=".3"/><circle cx="1080" cy="120" r="1.4" fill="#22d3ee" opacity=".3"/><circle cx="1094" cy="120" r="1.4" fill="#22d3ee" opacity=".2"/><circle cx="1108" cy="120" r="1.4" fill="#22d3ee" opacity=".3"/><text x="740" y="162" fill="#22d3ee" font-family="Arial,sans-serif" font-size="9" font-weight="700" opacity=".6" text-anchor="middle">01</text><text x="1090" y="162" fill="#22d3ee" font-family="Arial,sans-serif" font-size="9" font-weight="700" opacity=".6" text-anchor="middle">02</text><text x="740" y="412" fill="#22d3ee" font-family="Arial,sans-serif" font-size="9" font-weight="700" opacity=".6" text-anchor="middle">03</text><text x="1090" y="412" fill="#22d3ee" font-family="Arial,sans-serif" font-size="9" font-weight="700" opacity=".6" text-anchor="middle">04</text><text x="740" y="178" fill="#94a3b8" font-family="Arial,sans-serif" font-size="9" font-weight="700" opacity=".7">STATUS</text><text x="816" y="178" fill="#94a3b8" font-family="Arial,sans-serif" font-size="9" font-weight="700" opacity=".7">OK</text><text x="864" y="178" fill="#94a3b8" font-family="Arial,sans-serif" font-size="9" font-weight="700" opacity=".7">VER</text><text x="910" y="178" fill="#94a3b8" font-family="Arial,sans-serif" font-size="9" font-weight="700" opacity=".7">v1.0</text><text x="962" y="178" fill="#94a3b8" font-family="Arial,sans-serif" font-size="9" font-weight="700" opacity=".7">BUILD</text><text x="1024" y="178" fill="#94a3b8" font-family="Arial,sans-serif" font-size="9" font-weight="700" opacity=".7">STAB</text><text x="40" y="380" fill="#475569" font-family="Arial,sans-serif" font-size="8" font-weight="700" opacity=".7" text-anchor="middle">00</text><text x="40" y="410" fill="#475569" font-family="Arial,sans-serif" font-size="8" font-weight="700" opacity=".7" text-anchor="middle">01</text><text x="40" y="440" fill="#475569" font-family="Arial,sans-serif" font-size="8" font-weight="700" opacity=".7" text-anchor="middle">02</text><text x="40" y="470" fill="#475569" font-family="Arial,sans-serif" font-size="8" font-weight="700" opacity=".7" text-anchor="middle">03</text><text x="40" y="500" fill="#475569" font-family="Arial,sans-serif" font-size="8" font-weight="700" opacity=".7" text-anchor="middle">04</text><text x="1160" y="380" fill="#475569" font-family="Arial,sans-serif" font-size="8" font-weight="700" opacity=".7" text-anchor="middle">OK</text><text x="1160" y="410" fill="#475569" font-family="Arial,sans-serif" font-size="8" font-weight="700" opacity=".7" text-anchor="middle">RUN</text><text x="1160" y="440" fill="#475569" font-family="Arial,sans-serif" font-size="8" font-weight="700" opacity=".7" text-anchor="middle">OK</text><text x="1160" y="470" fill="#475569" font-family="Arial,sans-serif" font-size="8" font-weight="700" opacity=".7" text-anchor="middle">RUN</text><g filter="url(#singleShadow)" transform="translate(914,278)"><circle r="124" fill="none" stroke="#60a5fa" stroke-dasharray="8 8" stroke-opacity=".2" stroke-width="1.2"/><path fill="#0f172a" stroke="#60a5fa" stroke-width="2.6" d="m0-86 74 42v86L0 84l-74-42v-86z"/><path fill="none" stroke="#60a5fa" stroke-opacity=".5" stroke-width="1.6" d="m0-58 50 28v58L0 56l-50-28v-58z"/><g fill="#22d3ee" stroke="#60a5fa" stroke-width="1.2"><circle cy="-44" r="9"/><circle cx="44" cy="-22" r="9"/><circle cx="44" cy="22" r="9"/><circle cy="44" r="9"/><circle cx="-44" cy="22" r="9"/><circle cx="-44" cy="-22" r="9"/></g><circle r="14" fill="#60a5fa" fill-opacity=".4" stroke="#60a5fa" stroke-width="2"/><text y="4" fill="#f8fafc" font-family="Arial,sans-serif" font-size="10" font-weight="900" text-anchor="middle">CTL</text><text y="100" fill="#60a5fa" font-family="Arial,sans-serif" font-size="11" font-weight="700" opacity=".8" text-anchor="middle">K8S CLUSTER</text><text y="116" fill="#22d3ee" font-family="Arial,sans-serif" font-size="10" opacity=".7" text-anchor="middle">6 pods : 1 control-plane</text></g><g fill="#60a5fa" transform="translate(84 66)"><rect width="160" height="36" stroke="#60a5fa" stroke-width="1.2" opacity=".2" rx="18"/><text x="80" y="23" font-family="Arial,sans-serif" font-size="13" font-weight="700" text-anchor="middle">CLOUD</text></g><text x="84" y="170" fill="#f8fafc" font-family="Arial,sans-serif" font-size="48" font-weight="700" letter-spacing=".5">DOCKER KUBERNETES</text><text x="84" y="226" fill="#cbd5e1" font-family="Arial,sans-serif" font-size="18">KUBERNETES / DOCKER</text><path fill="#334155" d="M84 252h520v1.5H84z" opacity=".9"/><text x="84" y="282" fill="#94a3b8" font-family="Arial,sans-serif" font-size="14" font-weight="700">VISUAL SYSTEM 9903D4A6BC59</text><text x="84" y="310" fill="#94a3b8" font-family="Arial,sans-serif" font-size="14">Cloud Security Course 7Batch 7Week Docker and Kubernetes Understanding</text><g transform="translate(84 474)"><rect width="110" height="38" fill="#60a5fa" fill-opacity=".2" stroke="#60a5fa" stroke-width="1.2" rx="19"/><text x="55" y="24" fill="#e2e8f0" font-family="Arial,sans-serif" font-size="13" font-weight="700" text-anchor="middle">DOCKER</text></g><g transform="translate(208 474)"><rect width="142" height="38" fill="#60a5fa" fill-opacity=".2" stroke="#60a5fa" stroke-width="1.2" rx="19"/><text x="71" y="24" fill="#e2e8f0" font-family="Arial,sans-serif" font-size="13" font-weight="700" text-anchor="middle">KUBERNETES</text></g><g transform="translate(364 474)"><rect width="131" height="38" fill="#60a5fa" fill-opacity=".2" stroke="#60a5fa" stroke-width="1.2" rx="19"/><text x="65" y="24" fill="#e2e8f0" font-family="Arial,sans-serif" font-size="13" font-weight="700" text-anchor="middle">CONTAINER</text></g><g transform="translate(509 474)"><rect width="110" height="38" fill="#60a5fa" fill-opacity=".2" stroke="#60a5fa" stroke-width="1.2" rx="19"/><text x="55" y="24" fill="#e2e8f0" font-family="Arial,sans-serif" font-size="13" font-weight="700" text-anchor="middle">K8S</text></g><g transform="translate(84 536)"><rect width="144" height="58" fill="#111827" fill-opacity=".8" stroke="#60a5fa" stroke-opacity=".4" stroke-width="1.2" rx="16"/><text x="18" y="24" fill="#94a3b8" font-family="Arial,sans-serif" font-size="11" font-weight="700">BATCH</text><text x="18" y="43" fill="#f8fafc" font-family="Arial,sans-serif" font-size="16" font-weight="700">7</text></g><g transform="translate(246 536)"><rect width="144" height="58" fill="#111827" fill-opacity=".8" stroke="#60a5fa" stroke-opacity=".4" stroke-width="1.2" rx="16"/><text x="18" y="24" fill="#94a3b8" font-family="Arial,sans-serif" font-size="11" font-weight="700">WEEK</text><text x="18" y="43" fill="#f8fafc" font-family="Arial,sans-serif" font-size="16" font-weight="700">7</text></g><g transform="translate(408 536)"><rect width="144" height="58" fill="#111827" fill-opacity=".8" stroke="#60a5fa" stroke-opacity=".4" stroke-width="1.2" rx="16"/><text x="18" y="24" fill="#94a3b8" font-family="Arial,sans-serif" font-size="11" font-weight="700">STACK</text><text x="18" y="43" fill="#f8fafc" font-family="Arial,sans-serif" font-size="16" font-weight="700">K8S</text></g><g transform="translate(1030 74)"><rect width="130" height="34" fill="#1d4ed8" stroke="#60a5fa" stroke-width="1.2" opacity=".2" rx="17"/><text x="65" y="22" fill="#e2e8f0" font-family="Arial,sans-serif" font-size="12" font-weight="700" text-anchor="middle">May 30, 2025</text></g><path stroke="#334155" d="M50 588h1100" opacity=".5"/><text x="1150" y="612" fill="#94a3b8" font-family="Arial,sans-serif" font-size="13" text-anchor="end">tech.2twodragon.com</text><g filter="url(#softShadow)" transform="translate(1080,504)"><rect width="100" height="100" x="-8" y="-8" fill="#fff" rx="6"/><path fill="#0a1020" d="M0 0h12v1.7H0zm13.7 0h3.4v1.7h-3.4zM19 0h3.4v1.7H19zm15.4 0h3.4v1.7h-3.4zm5.1 0H43v1.7h-3.5zM48 0h3.4v1.7H48zm5.1 0H55v1.7h-2zm3.5 0H60v1.7h-3.4zm6.8 0h1.7v1.7h-1.7zm5.2 0h1.7v1.7h-1.7zM72 0h12v1.7H72zM0 1.7h1.7v1.7H0zm10.3 0H12v1.7h-1.7zm5.1 0h1.7v1.7h-1.7zm6.9 0h3.4v1.7h-3.4zm5.1 0h1.7v1.7h-1.7zm8.6 0h13.7v1.7H36zm15.4 0h1.7v1.7h-1.7zm8.6 0h1.7v1.7H60zm5.1 0h5.2v1.7H65zm6.9 0h1.7v1.7H72zm10.3 0H84v1.7h-1.7zM0 3.4h1.7v1.7H0zm3.4 0h5.2v1.7H3.4zm6.9 0H12v1.7h-1.7zm5.1 0h1.7v1.7h-1.7zm3.5 0h1.7v1.7h-1.7zm3.4 0H24v1.7h-1.7zm5.1 0h1.7v1.7h-1.7zm3.5 0H41v1.7H31zm12 0H48v1.7h-5.1zm8.5 0H55v1.7h-3.5zm6.9 0h5.1v1.7h-5.1zm8.6 0h3.4v1.7h-3.4zm5.1 0h1.7v1.7H72zm3.4 0h5.2v1.7h-5.2zm6.9 0H84v1.7h-1.7zM0 5.1h1.7V7H0zm3.4 0h5.2V7H3.4zm6.9 0H12V7h-1.7zm3.4 0H19V7h-5.2zm6.9 0h1.7V7h-1.7zm6.8 0h5.2V7h-5.2zm13.7 0h5.2V7H41zm6.9 0h1.7V7H48zm3.4 0H55V7h-3.5zm12 0h1.7V7h-1.7zm3.5 0h1.7V7h-1.7zm5.1 0h1.7V7H72zm3.4 0h5.2V7h-5.2zm6.9 0H84V7h-1.7zM0 7h1.7v1.7H0zm3.4 0h5.2v1.7H3.4zm6.9 0H12v1.7h-1.7zm3.4 0h1.7v1.7h-1.7zm5.2 0h3.4v1.7h-3.4zm8.5 0h1.7v1.7h-1.7zm3.5 0h1.7v1.7h-1.7zm6.8 0h8.6v1.7h-8.6zM48 7h10.3v1.7H48zm12 0h1.7v1.7H60zm12 0h1.7v1.7H72zm3.4 0h5.2v1.7h-5.2zm6.9 0H84v1.7h-1.7zM0 8.6h1.7v1.7H0zm10.3 0H12v1.7h-1.7zm3.4 0h8.6v1.7h-8.6zm12 0h3.4v1.7h-3.4zm5.2 0h3.4v1.7h-3.4zm5.1 0h3.4v1.7H36zm8.6 0h1.7v1.7h-1.7zm10.3 0h1.7v1.7h-1.7zm3.4 0H60v1.7h-1.7zm5.1 0H67v1.7h-3.5zm8.6 0h1.7v1.7H72zm10.3 0H84v1.7h-1.7zM0 10.3h12V12H0zm13.7 0h1.7V12h-1.7zm3.4 0H19V12h-2zm3.5 0h1.7V12h-1.7zm3.4 0h1.7V12H24zm3.4 0h1.7V12h-1.7zm3.5 0h1.7V12h-1.7zm3.4 0H36V12h-1.7zm3.4 0h1.7V12h-1.7zm3.4 0H43V12h-2zm3.5 0h1.7V12h-1.7zm3.4 0h1.7V12H48zm3.4 0h1.7V12h-1.7zm3.5 0h1.7V12h-1.7zm3.4 0H60V12h-1.7zm3.4 0h1.7V12h-1.7zm3.4 0H67V12h-2zm3.5 0h1.7V12h-1.7zm3.4 0h12V12H72zM13.7 12h3.4v1.7h-3.4zM24 12h1.7v1.7H24zm5.1 0H31v1.7h-2zm3.5 0H36v1.7h-3.4zm5.1 0h1.7v1.7h-1.7zm6.9 0h5.1v1.7h-5.1zm8.5 0h3.5v1.7H53zm5.2 0H60v1.7h-1.7zm3.4 0h1.7v1.7h-1.7zm6.9 0h1.7v1.7h-1.7zM0 13.7h1.7v1.7H0zm6.9 0h1.7v1.7H6.9zm3.4 0h5.1v1.7h-5.1zm6.8 0H19v1.7h-2zm8.6 0h3.4v1.7h-3.4zm5.2 0h1.7v1.7h-1.7zm6.8 0H48v1.7H37.7zm12 0h3.4v1.7h-3.4zm5.2 0h3.4v1.7h-3.4zm5.1 0h3.4v1.7H60zm6.9 0h12v1.7h-12zm15.4 0H84v1.7h-1.7zM0 15.4h1.7v1.7H0zm3.4 0H7v1.7H3.4zm10.3 0h1.7v1.7h-1.7zm5.2 0h3.4v1.7h-3.4zm5.1 0h1.7v1.7H24zm10.3 0H36v1.7h-1.7zm10.3 0H53v1.7h-8.5zm12 0h1.7v1.7h-1.7zm3.4 0h1.7v1.7H60zm3.4 0h5.2v1.7h-5.2zm6.9 0h3.4v1.7h-3.4zm5.1 0h1.7v1.7h-1.7zm5.2 0h1.7v1.7h-1.7zM5 17.1h3.5V19H5zm5.2 0H12V19h-1.7zm5.1 0H17V19h-1.7zm5.2 0H24V19h-3.4zm5.1 0H29V19h-3.4zm5.2 0h3.4V19h-3.4zm10.2 0h2V19h-2zm3.5 0h1.7V19h-1.7zm6.8 0H53V19h-1.7zm5.2 0h1.7V19h-1.7zm5.1 0h12V19h-12zm13.7 0H77V19h-1.7zm5.2 0h1.7V19h-1.7zM1.7 19h6.9v1.7H1.7zm12 0h1.7v1.7h-1.7zm5.2 0H24v1.7h-5.1zm8.5 0h1.7v1.7h-1.7zm3.5 0h3.4v1.7h-3.4zm6.8 0h1.7v1.7h-1.7zm3.4 0H43v1.7h-2zm5.2 0H48v1.7h-1.7zm5.1 0h1.7v1.7h-1.7zm3.5 0h1.7v1.7h-1.7zm3.4 0H60v1.7h-1.7zm3.4 0h1.7v1.7h-1.7zm3.4 0h3.5v1.7H65zm5.2 0H77v1.7h-6.8zm8.6 0h1.7v1.7h-1.7zm3.4 0H84v1.7h-1.7zM0 20.6h3.4v1.7H0zm6.9 0h1.7v1.7H6.9zm3.4 0H12v1.7h-1.7zm5.1 0h1.7v1.7h-1.7zm13.7 0H31v1.7h-2zm5.2 0h3.4v1.7h-3.4zm5.1 0H43v1.7h-3.5zm10.3 0h1.7v1.7h-1.7zm5.2 0h3.4v1.7h-3.4zm5.1 0h3.4v1.7H60zm8.6 0h1.7v1.7h-1.7zm5.1 0h3.4v1.7h-3.4zm5.2 0h3.4v1.7h-3.4zM3.4 22.3h5.2V24H3.4zm12 0h1.7V24h-1.7zm3.5 0h1.7V24h-1.7zm3.4 0H36V24H22.3zm17.1 0H43V24h-3.5zm5.2 0H48V24h-3.4zm5.1 0h3.4V24h-3.4zm6.9 0h1.7V24h-1.7zm5.1 0h1.7V24h-1.7zm3.4 0h3.5V24H65zm6.9 0h1.7V24H72zm5.1 0H79V24h-2zm3.5 0h1.7V24h-1.7zM1.7 24h3.4v1.7H1.7zM7 24h5v1.7H6.9zm13.7 0h1.7v1.7h-1.7zm3.4 0h1.7v1.7H24zm3.4 0H31v1.7h-3.5zm5.2 0h1.7v1.7h-1.7zm5.1 0h1.7v1.7h-1.7zm6.9 0h1.7v1.7h-1.7zm5.1 0h1.7v1.7h-1.7zm3.4 0H55v1.7h-2zm10.3 0h1.7v1.7h-1.7zm5.2 0h12v1.7h-12zM3.4 25.7h1.7v1.7H3.4zm3.5 0h1.7v1.7H6.9zm5.1 0h3.4v1.7H12zm17.1 0h3.5v1.7H29zm6.9 0h3.4v1.7H36zm5.1 0h5.2v1.7H41zm6.9 0h3.4v1.7H48zm5.1 0H55v1.7h-2zm3.5 0H60v1.7h-3.4zm6.8 0h1.7v1.7h-1.7zm5.2 0h1.7v1.7h-1.7zm3.4 0h1.7v1.7H72zm3.4 0h1.7v1.7h-1.7zm3.5 0h3.4v1.7h-3.4zM0 27.4h1.7v1.7H0zm5.1 0H7v1.7H5zm5.2 0h5.1v1.7h-5.1zm6.8 0h12v1.7h-12zm13.8 0h3.4v1.7h-3.4zm5.1 0h1.7v1.7H36zm3.4 0h5.2v1.7h-5.2zm10.3 0h8.6v1.7h-8.6zm12 0H72v1.7H61.7zm12 0h3.4v1.7h-3.4zm5.2 0h1.7v1.7h-1.7zM0 29.1h1.7V31H0zm5.1 0h5.2V31H5zm8.6 0H19V31h-5.2zm8.6 0h5.1V31h-5.1zm12 0H36V31h-1.7zm10.3 0H48V31h-3.4zm6.8 0h1.7V31h-1.7zm3.5 0h1.7V31h-1.7zm5.1 0h3.4V31H60zm5.1 0H67V31h-2zm6.9 0h1.7V31H72zm3.4 0H79V31h-3.5zm5.2 0h1.7V31h-1.7zM1.7 31h3.4v1.7H1.7zm5.2 0h1.7v1.7H6.9zm3.4 0h3.4v1.7h-3.4zm5.1 0h5.2v1.7h-5.2zm6.9 0H24v1.7h-1.7zm8.6 0h1.7v1.7h-1.7zm5.1 0h1.7v1.7H36zm3.4 0h1.7v1.7h-1.7zm5.2 0h5.1v1.7h-5.1zm13.7 0h3.4v1.7h-3.4zm6.8 0H67v1.7h-2zm6.9 0h3.4v1.7H72zm5.1 0h3.5v1.7H77zM0 32.6h1.7v1.7H0zm3.4 0H7v1.7H3.4zm8.6 0h3.4v1.7H12zm6.9 0h3.4v1.7h-3.4zm12 0h3.4v1.7h-3.4zm6.8 0H43v1.7h-5.2zm13.7 0h1.7v1.7h-1.7zm3.5 0h1.7v1.7h-1.7zm5.1 0h3.4v1.7H60zm13.7 0h3.4v1.7h-3.4zm5.2 0h1.7v1.7h-1.7zm3.4 0H84v1.7h-1.7zM0 34.3h1.7V36H0zm5.1 0h8.6V36H5.1zm10.3 0H19V36h-3.5zm5.2 0H24V36h-3.4zm12 0h1.7V36h-1.7zm5.1 0H43V36h-5.2zm6.9 0H48V36h-3.4zm10.3 0h8.5V36H55zm13.7 0H72V36h-3.4zm5.1 0h6.9V36h-6.9zm8.6 0H84V36h-1.7zM5 36h2v1.7H5zm6.9 0H17v1.7h-5zm6.9 0h3.4v1.7h-3.4zm5.1 0h1.7v1.7H24zm3.4 0H31v1.7h-3.5zm6.9 0h3.4v1.7h-3.4zm8.6 0H48v1.7h-5.1zm8.5 0H55v1.7h-3.5zm5.2 0h1.7v1.7h-1.7zm3.4 0h1.7v1.7H60zm5.1 0h3.5v1.7H65zm5.2 0h3.4v1.7h-3.4zM3.4 37.7h13.7v1.7H3.4zm15.5 0h1.7v1.7h-1.7zm8.5 0h1.7v1.7h-1.7zm6.9 0h12v1.7h-12zm13.7 0h10.3v1.7H48zm12 0h1.7v1.7H60zm5.1 0H79v1.7H65zM1.7 39.4h1.7v1.7H1.7zm3.4 0h3.5v1.7H5zm8.6 0h3.4v1.7h-3.4zm5.2 0h1.7v1.7h-1.7zm3.4 0h3.4v1.7h-3.4zm5.1 0h1.7v1.7h-1.7zm10.3 0h1.7v1.7h-1.7zm6.9 0h1.7v1.7h-1.7zm3.4 0h3.4v1.7H48zm6.9 0h1.7v1.7h-1.7zm3.4 0h5.1v1.7h-5.1zm8.6 0h3.4v1.7h-3.4zm8.5 0h6.9v1.7h-6.9zM0 41.1h1.7V43H0zm5.1 0h3.5V43H5zm5.2 0H12V43h-1.7zm3.4 0h3.4V43h-3.4zm5.2 0h1.7V43h-1.7zm6.8 0h1.7V43h-1.7zm3.4 0h5.2V43H29zm8.6 0h1.7V43h-1.7zm3.4 0H43V43h-2zm3.5 0H48V43h-3.4zm10.3 0h1.7V43h-1.7zm5.1 0h10.3V43H60zm12 0h1.7V43H72zm3.4 0H84V43h-8.6zM0 43h1.7v1.7H0zm3.4 0h5.2v1.7H3.4zm10.3 0h3.4v1.7h-3.4zm6.9 0h1.7v1.7h-1.7zm5.1 0h6.9v1.7h-6.9zm8.6 0h5.1v1.7h-5.1zm10.3 0H48v1.7h-3.4zm5.1 0h3.4v1.7h-3.4zm5.2 0h3.4v1.7h-3.4zm6.8 0H67v1.7h-5.2zm6.9 0h1.7v1.7h-1.7zm6.8 0h1.7v1.7h-1.7zm3.5 0h1.7v1.7h-1.7zM1.7 44.6h13.7v1.7H1.7zm15.4 0h5.2v1.7H17zm8.6 0h1.7v1.7h-1.7zm3.4 0H31v1.7h-2zm6.9 0h12v1.7H36zm13.7 0H55v1.7h-5.2zm8.6 0H60v1.7h-1.7zm3.4 0h1.7v1.7h-1.7zm3.4 0h17.2v1.7H65zM1.7 46.3h1.7V48H1.7zm3.4 0H7V48H5zm8.6 0h3.4V48h-3.4zm5.2 0h3.4V48h-3.4zm5.1 0h1.7V48H24zm3.4 0h1.7V48h-1.7zm3.5 0h3.4V48h-3.4zm8.5 0h1.7V48h-1.7zm3.5 0h1.7V48h-1.7zm3.4 0H48V48h-1.7zm3.4 0h3.4V48h-3.4zm5.2 0H60V48h-5.1zm6.8 0H67V48h-5.2zm17.2 0h1.7V48h-1.7zm3.4 0H84V48h-1.7zM0 48h8.6v1.7H0zm10.3 0h3.4v1.7h-3.4zm6.8 0h3.5v1.7H17zm10.3 0h17.2v1.7H27.4zm18.9 0H48v1.7h-1.7zm3.4 0h1.7v1.7h-1.7zm5.2 0h1.7v1.7h-1.7zm3.4 0h5.1v1.7h-5.1zm12 0H72v1.7h-1.7zm3.4 0h1.7v1.7h-1.7zm3.4 0H79v1.7h-2zm5.2 0H84v1.7h-1.7zM0 49.7h1.7v1.7H0zm6.9 0h3.4v1.7H6.9zm12 0h3.4v1.7h-3.4zm5.1 0h1.7v1.7H24zm6.9 0h1.7v1.7h-1.7zm6.8 0h1.7v1.7h-1.7zm3.4 0H43v1.7h-2zm5.2 0H53v1.7h-6.8zm8.6 0h3.4v1.7h-3.4zm10.2 0h5.2v1.7H65zm10.3 0h1.7v1.7h-1.7zM0 51.4h5.1v1.7H0zm6.9 0h1.7v1.7H6.9zm3.4 0H12v1.7h-1.7zm12 0H24v1.7h-1.7zm12 0h3.4v1.7h-3.4zm8.6 0h1.7v1.7h-1.7zm8.5 0h1.7v1.7h-1.7zm6.9 0h3.4v1.7h-3.4zm10.3 0h1.7v1.7h-1.7zm10.3 0h1.7v1.7h-1.7zM0 53.1h6.9V55H0zm8.6 0h1.7V55H8.6zm3.4 0h1.7V55H12zm3.4 0h1.7V55h-1.7zm3.5 0h1.7V55h-1.7zm6.8 0h1.7V55h-1.7zm3.4 0H31V55h-2zm3.5 0H36V55h-3.4zm6.8 0h1.7V55h-1.7zm3.5 0h6.8V55H43zm8.5 0h1.7V55h-1.7zm8.6 0h1.7V55H60zm3.4 0H67V55h-3.5zm6.9 0h5.1V55h-5.1zm8.6 0h1.7V55h-1.7zm3.4 0H84V55h-1.7zM0 55h3.4v1.7H0zm5.1 0H7v1.7H5zm5.2 0h5.1v1.7h-5.1zm8.6 0h3.4v1.7h-3.4zm5.1 0h1.7v1.7H24zm5.1 0h5.2v1.7H29zm6.9 0h3.4v1.7H36zm10.3 0h3.4v1.7h-3.4zm12 0h3.4v1.7h-3.4zm6.8 0H67v1.7h-2zm3.5 0H72v1.7h-3.4zm6.8 0h1.7v1.7h-1.7zm3.5 0h3.4v1.7h-3.4zM0 56.6h3.4v1.7H0zm5.1 0H7v1.7H5zm3.5 0h1.7v1.7H8.6zm3.4 0h1.7v1.7H12zm8.6 0H29v1.7h-8.5zm13.7 0h3.4v1.7h-3.4zm5.1 0H43v1.7h-3.5zm8.6 0h3.4v1.7H48zm5.1 0H55v1.7h-2zm3.5 0H60v1.7h-3.4zm8.5 0H67v1.7h-2zm3.5 0H72v1.7h-3.4zm6.8 0H79v1.7h-3.5zm5.2 0h1.7v1.7h-1.7zM0 58.3h1.7V60H0zm3.4 0h1.7V60H3.4zm3.5 0H12V60H6.9zm6.8 0H19V60h-5.2zm10.3 0h1.7V60H24zm6.9 0h1.7V60h-1.7zm3.4 0h3.4V60h-3.4zm5.1 0h1.7V60h-1.7zm3.5 0h1.7V60h-1.7zm6.8 0h1.7V60h-1.7zm3.4 0H60V60h-6.9zm8.6 0h1.7V60h-1.7zm3.4 0H72V60h-6.9zm8.6 0h1.7V60h-1.7zm3.4 0h3.5V60H77zM0 60h1.7v1.7H0zm5.1 0H7v1.7H5zm8.6 0h1.7v1.7h-1.7zm3.4 0h3.5v1.7H17zm5.2 0H24v1.7h-1.7zm3.4 0h1.7v1.7h-1.7zm5.2 0H36v1.7h-5.1zm6.8 0h1.7v1.7h-1.7zm5.2 0H48v1.7h-5.1zm8.5 0h1.7v1.7h-1.7zm3.5 0h1.7v1.7h-1.7zm3.4 0h5.1v1.7h-5.1zm6.8 0H67v1.7h-2zm3.5 0H77v1.7h-8.5zm10.3 0H84v1.7h-5.1zM0 61.7h1.7v1.7H0zm3.4 0h13.7v1.7H3.4zm15.5 0h6.8v1.7H19zm13.7 0H41v1.7h-8.5zm12 0H48v1.7h-3.4zm10.3 0h1.7v1.7h-1.7zm5.1 0h6.9v1.7H60zm8.6 0h1.7v1.7h-1.7zm3.4 0h1.7v1.7H72zm5.1 0h3.5v1.7H77zm5.2 0H84v1.7h-1.7zM0 63.4h1.7v1.7H0zm3.4 0H7v1.7H3.4zm8.6 0h8.6v1.7H12zm12 0h3.4v1.7H24zm5.1 0h3.5v1.7H29zm5.2 0H36v1.7h-1.7zm5.1 0H43v1.7h-3.5zm5.2 0h1.7v1.7h-1.7zm3.4 0h5.1v1.7H48zm6.9 0h3.4v1.7h-3.4zm5.1 0h1.7v1.7H60zm3.4 0H67v1.7h-3.5zm5.2 0h1.7v1.7h-1.7zm3.4 0h5.1v1.7H72zm8.6 0h1.7v1.7h-1.7zM1.7 65.1h1.7V67H1.7zm6.9 0H12V67H8.6zm5.1 0h6.9V67h-6.9zm10.3 0h5.1V67H24zm6.9 0H36V67h-5.1zm12 0h1.7V67h-1.7zm3.4 0H53V67h-6.8zm15.4 0h1.7V67h-1.7zm3.4 0h3.5V67H65zm5.2 0H72V67h-1.7zm5.1 0h5.2V67h-5.2zM1.7 67H7v1.7H1.7zM12 67h3.4v1.7H12zm5.1 0H24v1.7h-6.9zm13.8 0h3.4v1.7h-3.4zm6.8 0h1.7v1.7h-1.7zm5.2 0h3.4v1.7h-3.4zm6.8 0h3.4v1.7h-3.4zm5.2 0h1.7v1.7h-1.7zm5.1 0h6.9v1.7H60zm12 0h1.7v1.7H72zm5.1 0h3.5v1.7H77zM0 68.6h5.1v1.7H0zm10.3 0h3.4v1.7h-3.4zm5.1 0h1.7v1.7h-1.7zm5.2 0h1.7v1.7h-1.7zm5.1 0h6.9v1.7h-6.9zm10.3 0h12v1.7H36zm13.7 0h3.4v1.7h-3.4zm5.2 0h8.5v1.7H55zm13.7 0h12v1.7h-12zm13.7 0H84v1.7h-1.7zm-68.6 1.7h3.4V72h-3.4zm10.3 0h6.9V72H24zm10.3 0h5.1V72h-5.1zm10.3 0h1.7V72h-1.7zm5.1 0h3.4V72h-3.4zm6.9 0h1.7V72h-1.7zm3.4 0h1.7V72H60zm5.1 0h5.2V72H65zm10.3 0h6.9V72h-6.9zM0 72h12v1.7H0zm13.7 0h1.7v1.7h-1.7zm3.4 0H19v1.7h-2zm3.5 0h1.7v1.7h-1.7zm6.8 0h1.7v1.7h-1.7zm3.5 0h3.4v1.7h-3.4zm6.8 0h1.7v1.7h-1.7zm3.4 0H43v1.7h-2zm3.5 0h1.7v1.7h-1.7zm3.4 0h1.7v1.7H48zm3.4 0h1.7v1.7h-1.7zm6.9 0h3.4v1.7h-3.4zm10.3 0h1.7v1.7h-1.7zm3.4 0h1.7v1.7H72zm3.4 0h1.7v1.7h-1.7zM0 73.7h1.7v1.7H0zm10.3 0H12v1.7h-1.7zm6.8 0H19v1.7h-2zm3.5 0H24v1.7h-3.4zm8.5 0H31v1.7h-2zm3.5 0h1.7v1.7h-1.7zm3.4 0h3.4v1.7H36zm8.6 0H48v1.7h-3.4zm10.3 0h1.7v1.7h-1.7zm6.8 0h3.4v1.7h-3.4zm6.9 0h1.7v1.7h-1.7zm6.8 0h5.2v1.7h-5.2zM0 75.4h1.7v1.7H0zm3.4 0h5.2v1.7H3.4zm6.9 0H12v1.7h-1.7zm3.4 0h3.4v1.7h-3.4zm8.6 0H24v1.7h-1.7zm3.4 0h1.7v1.7h-1.7zm3.4 0h3.5v1.7H29zm5.2 0H36v1.7h-1.7zm3.4 0H48v1.7H37.7zm12 0h3.4v1.7h-3.4zm5.2 0H60v1.7h-5.1zm6.8 0h15.4v1.7H61.7zm17.2 0H84v1.7h-5.1zM0 77.1h1.7V79H0zm3.4 0h5.2V79H3.4zm6.9 0H12V79h-1.7zm8.6 0h1.7V79h-1.7zm3.4 0H24V79h-1.7zm3.4 0h3.4V79h-3.4zm5.2 0h8.5V79H31zm15.4 0h8.6V79h-8.6zm10.3 0h1.7V79h-1.7zm8.5 0H67V79h-2zm3.5 0h5.1V79h-5.1zm8.5 0h5.2V79H77zM0 79h1.7v1.7H0zm3.4 0h5.2v1.7H3.4zm6.9 0H12v1.7h-1.7zm5.1 0h5.2v1.7h-5.2zm8.6 0h5.1v1.7H24zm8.6 0h1.7v1.7h-1.7zm5.1 0h1.7v1.7h-1.7zm6.9 0H53v1.7h-8.5zm12 0H60v1.7h-3.4zm5.1 0h1.7v1.7h-1.7zm3.4 0h5.2v1.7H65zm6.9 0h3.4v1.7H72zm5.1 0H79v1.7h-2zM0 80.6h1.7v1.7H0zm10.3 0H12v1.7h-1.7zm13.7 0h1.7v1.7H24zm3.4 0h1.7v1.7h-1.7zm10.3 0h1.7v1.7h-1.7zm5.2 0h3.4v1.7h-3.4zm5.1 0h3.4v1.7H48zm5.1 0H55v1.7h-2zm3.5 0h5.1v1.7h-5.1zm6.8 0H67v1.7h-3.5zm15.5 0h3.4v1.7h-3.4zM0 82.3h12V84H0zm13.7 0h3.4V84h-3.4zm12 0h3.4V84h-3.4zm5.2 0h3.4V84h-3.4zm5.1 0h1.7V84H36zm3.4 0h6.9V84h-6.9zm10.3 0h8.6V84h-8.6zm12 0h6.9V84h-6.9zm12 0h3.4V84h-3.4zm5.2 0H84V84h-5.1z"/></g><text x="1122" y="614" fill="#f5f7fa" font-family="Inter, Helvetica, Arial, sans-serif" font-size="10" font-weight="700" text-anchor="middle">scan / full post</text></svg>