<svg xmlns="http://www.w3.org/2000/svg" viewBox="0 0 1200 630" width="1200" height="630">
  <title>Kandji macOS Complete Master: Setup from Security...</title>
  <defs>
    <linearGradient id="bg" x1="0%" y1="0%" x2="100%" y2="100%">
      <stop offset="0%" stop-color="#0b0e1a"/>
      <stop offset="50%" stop-color="#111827"/>
      <stop offset="100%" stop-color="#0f0a1e"/>
    </linearGradient>
    <linearGradient id="accent" x1="0%" y1="0%" x2="100%" y2="100%">
      <stop offset="0%" stop-color="#a855f7"/>
      <stop offset="100%" stop-color="#3b82f6"/>
    </linearGradient>
    <filter id="glow"><feGaussianBlur stdDeviation="4" result="b"/><feMerge><feMergeNode in="b"/><feMergeNode in="SourceGraphic"/></feMerge></filter>
    <filter id="sg"><feGaussianBlur stdDeviation="30"/></filter>
    <filter id="shadow"><feDropShadow dx="0" dy="6" stdDeviation="12" flood-color="#000" flood-opacity="0.4"/></filter>
  </defs>
  <rect width="1200" height="630" fill="url(#bg)"/>
  <circle cx="200" cy="200" r="250" fill="#a855f7" opacity="0.06" filter="url(#sg)"/>
  <circle cx="900" cy="400" r="200" fill="#3b82f6" opacity="0.05" filter="url(#sg)"/>
  <g transform="translate(600,250)">
    <!-- MacBook outline -->
    <rect x="-140" y="-100" width="280" height="170" rx="12" fill="#0f172a" stroke="#a855f7" stroke-width="2" filter="url(#shadow)"/>
    <rect x="-120" y="-85" width="240" height="130" rx="4" fill="#111827"/>
    <!-- Screen content -->
    <rect x="-108" y="-75" width="216" height="110" rx="2" fill="#0f172a"/>
    <text x="0" y="-55" font-family="Courier New" font-size="10" font-weight="bold" fill="#a855f7" text-anchor="middle">MDM DASHBOARD</text>
    <!-- Status bars -->
    <rect x="-95" y="-38" width="100" height="8" rx="4" fill="#22c55e" opacity="0.4"/>
    <rect x="-95" y="-24" width="80" height="8" rx="4" fill="#22c55e" opacity="0.3"/>
    <rect x="-95" y="-10" width="120" height="8" rx="4" fill="#f59e0b" opacity="0.3"/>
    <rect x="-95" y="4" width="60" height="8" rx="4" fill="#3b82f6" opacity="0.3"/>
    <!-- Compliance indicator -->
    <circle cx="70" cy="-10" r="22" fill="#22c55e" opacity="0.15" stroke="#22c55e" stroke-width="1.5"/>
    <text x="70" y="-5" font-family="Arial,sans-serif" font-size="14" font-weight="bold" fill="#4ade80" text-anchor="middle">98</text>
    <text x="70" y="10" font-family="Courier New" font-size="7" fill="#64748b" text-anchor="middle">SCORE</text>

    <!-- Base -->
    <path d="M-160,70 L-140,85 L140,85 L160,70" fill="#1e293b" stroke="#475569" stroke-width="1"/>

    <!-- Side devices -->
    <g transform="translate(-230,20)" opacity="0.5">
      <rect x="-20" y="-35" width="40" height="70" rx="6" fill="#0f172a" stroke="#a855f7" stroke-width="1.5"/>
      <text x="0" y="5" font-family="Courier New" font-size="7" fill="#c084fc" text-anchor="middle">iPHONE</text>
    </g>
    <g transform="translate(230,20)" opacity="0.5">
      <rect x="-25" y="-30" width="50" height="60" rx="6" fill="#0f172a" stroke="#a855f7" stroke-width="1.5"/>
      <text x="0" y="5" font-family="Courier New" font-size="7" fill="#c084fc" text-anchor="middle">iPAD</text>
    </g>
  </g>

  <text x="600" y="490" font-family="Arial,sans-serif" font-size="30" font-weight="bold" fill="white" text-anchor="middle" filter="url(#glow)">Kandji macOS Complete Master: Setup from</text>
  <text x="600" y="525" font-family="Arial,sans-serif" font-size="30" font-weight="bold" fill="white" text-anchor="middle" filter="url(#glow)">Security...</text>
  <text x="600" y="555" font-family="Arial,sans-serif" font-size="15" fill="#94a3b8" text-anchor="middle">Kandji | macOS | MDM | Endpoint-Security</text>
  <rect x="40" y="22" width="140" height="32" rx="16" fill="#a855f7" opacity="0.25" stroke="#a855f7" stroke-width="1"/>
  <text x="110" y="44" font-family="Arial,sans-serif" font-size="13" font-weight="bold" fill="#a855f7" text-anchor="middle">SECURITY</text>
  <rect x="1020" y="22" width="140" height="32" rx="16" fill="#3b82f6" opacity="0.2" stroke="#3b82f6" stroke-width="1"/>
  <text x="1090" y="44" font-family="Arial,sans-serif" font-size="13" font-weight="bold" fill="#93c5fd" text-anchor="middle">May 02, 2025</text>
  <line x1="50" y1="588" x2="1150" y2="588" stroke="#334155" stroke-width="1" opacity="0.5"/>
  <text x="1150" y="612" font-family="Arial,sans-serif" font-size="13" fill="#94a3b8" text-anchor="end">tech.2twodragon.com</text>
</svg>