<svg xmlns="http://www.w3.org/2000/svg" width="1200" height="630" aria-label="incident Cloudflare 11/18 PM" viewBox="0 0 1200 630"><title>Cloudflare 11/18 PM</title><!--profile: high-quality-cover (2025 upgraded L25-single)--><defs><linearGradient id="bgSpreadX5D3B" x1="0%" x2="100%" y1="0%" y2="100%"><stop offset="0%" stop-color="#0b1120"/><stop offset="52%" stop-color="#121a2f"/><stop offset="100%" stop-color="#170f25"/></linearGradient><linearGradient id="heroPanelX5D3B" x1="0%" x2="100%" y1="0%" y2="100%"><stop offset="0%" stop-color="#0f172a"/><stop offset="100%" stop-color="#111827" stop-opacity=".9"/></linearGradient><filter id="sgBlur" width="160%" height="160%" x="-30%" y="-30%"><feGaussianBlur stdDeviation="36"/></filter><filter id="singleShadow" width="180%" height="180%" x="-30%" y="-30%"><feDropShadow dx="0" dy="14" flood-color="#020617" flood-opacity=".4" stdDeviation="22"/></filter><pattern id="microGridX5D3B" width="36" height="36" x="0" y="0" patternUnits="userSpaceOnUse"><path fill="none" stroke="#334155" d="M36 0H0v36" opacity=".3"/><circle cx="18" cy="18" r="1.2" fill="#60a5fa" opacity=".2"/></pattern></defs><path fill="url(#bgSpreadX5D3B)" d="M0 0h1200v630H0z"/><path fill="url(#microGridX5D3B)" d="M0 0h1200v630H0z"/><circle cx="202" cy="150" r="190" fill="#60a5fa" filter="url(#sgBlur)" opacity=".1"/><circle cx="1020" cy="486" r="220" fill="#1d4ed8" filter="url(#sgBlur)" opacity=".1"/><circle cx="920" cy="160" r="140" fill="#22d3ee" filter="url(#sgBlur)" opacity=".1"/><path fill="#020617" d="M0 96c224-50 426-52 654 22v512H0Z" opacity=".2"/><path fill="none" stroke="#475569" stroke-width="1.2" d="M0 526c248-36 426-40 654 22" opacity=".2"/><path fill="none" stroke="#22d3ee" stroke-width="1.3" d="M704 148c88-30 188-26 276 28" opacity=".2"/><path fill="none" stroke="#60a5fa" stroke-width="1.2" d="M716 430c88 32 198 28 294-40" opacity=".2"/><rect width="388" height="292" x="720" y="132" fill="url(#heroPanelX5D3B)" stroke="#60a5fa" stroke-opacity=".3" stroke-width="1.4" filter="url(#singleShadow)" rx="28"/><rect width="352" height="256" x="738" y="150" fill="none" stroke="#334155" stroke-opacity=".7" rx="22"/><rect width="108" height="12" x="742" y="152" fill="#60a5fa" opacity=".3" rx="6"/><rect width="72" height="12" x="864" y="152" fill="#334155" opacity=".6" rx="6"/><rect width="48" height="12" x="948" y="152" fill="#334155" opacity=".3" rx="6"/><path fill="#60a5fa" d="M742 156h6v6h-6zm8 0h6v6h-6zm8 0h6v6h-6zm8 0h6v6h-6zm16 0h6v6h-6zm8 0h6v6h-6zm8 0h6v6h-6zm-56 8h6v6h-6zm32 0h6v6h-6zm16 0h6v6h-6zm8 0h6v6h-6zm-56 8h6v6h-6zm16 0h6v6h-6zm16 0h6v6h-6zm16 0h6v6h-6zm-48 8h6v6h-6zm32 0h6v6h-6zm8 0h6v6h-6zm8 0h6v6h-6zm8 0h6v6h-6zm-56 8h6v6h-6zm8 0h6v6h-6zm8 0h6v6h-6zm8 0h6v6h-6zm24 0h6v6h-6zm8 0h6v6h-6zm-40 8h6v6h-6zm8 0h6v6h-6zm8 0h6v6h-6zm8 0h6v6h-6zm8 0h6v6h-6zm-48 8h6v6h-6zm8 0h6v6h-6zm32 0h6v6h-6zm8 0h6v6h-6zm-40 8h6v6h-6zm8 0h6v6h-6zm16 0h6v6h-6zm16 0h6v6h-6zm8 0h6v6h-6z" opacity=".4"/><circle cx="1010" cy="60" r="1.4" fill="#22d3ee" opacity=".2"/><circle cx="1024" cy="60" r="1.4" fill="#22d3ee" opacity=".3"/><circle cx="1038" cy="60" r="1.4" fill="#22d3ee" opacity=".3"/><circle cx="1052" cy="60" r="1.4" fill="#22d3ee" opacity=".2"/><circle cx="1066" cy="60" r="1.4" fill="#22d3ee" opacity=".3"/><circle cx="1080" cy="60" r="1.4" fill="#22d3ee" opacity=".3"/><circle cx="1094" cy="60" r="1.4" fill="#22d3ee" opacity=".2"/><circle cx="1108" cy="60" r="1.4" fill="#22d3ee" opacity=".3"/><circle cx="1010" cy="72" r="1.4" fill="#22d3ee" opacity=".2"/><circle cx="1024" cy="72" r="1.4" fill="#22d3ee" opacity=".3"/><circle cx="1038" cy="72" r="1.4" fill="#22d3ee" opacity=".3"/><circle cx="1052" cy="72" r="1.4" fill="#22d3ee" opacity=".2"/><circle cx="1066" cy="72" r="1.4" fill="#22d3ee" opacity=".3"/><circle cx="1080" cy="72" r="1.4" fill="#22d3ee" opacity=".3"/><circle cx="1094" cy="72" r="1.4" fill="#22d3ee" opacity=".2"/><circle cx="1108" cy="72" r="1.4" fill="#22d3ee" opacity=".3"/><circle cx="1010" cy="84" r="1.4" fill="#22d3ee" opacity=".2"/><circle cx="1024" cy="84" r="1.4" fill="#22d3ee" opacity=".3"/><circle cx="1038" cy="84" r="1.4" fill="#22d3ee" opacity=".3"/><circle cx="1052" cy="84" r="1.4" fill="#22d3ee" opacity=".2"/><circle cx="1066" cy="84" r="1.4" fill="#22d3ee" opacity=".3"/><circle cx="1080" cy="84" r="1.4" fill="#22d3ee" opacity=".3"/><circle cx="1094" cy="84" r="1.4" fill="#22d3ee" opacity=".2"/><circle cx="1108" cy="84" r="1.4" fill="#22d3ee" opacity=".3"/><circle cx="1010" cy="96" r="1.4" fill="#22d3ee" opacity=".2"/><circle cx="1024" cy="96" r="1.4" fill="#22d3ee" opacity=".3"/><circle cx="1038" cy="96" r="1.4" fill="#22d3ee" opacity=".3"/><circle cx="1052" cy="96" r="1.4" fill="#22d3ee" opacity=".2"/><circle cx="1066" cy="96" r="1.4" fill="#22d3ee" opacity=".3"/><circle cx="1080" cy="96" r="1.4" fill="#22d3ee" opacity=".3"/><circle cx="1094" cy="96" r="1.4" fill="#22d3ee" opacity=".2"/><circle cx="1108" cy="96" r="1.4" fill="#22d3ee" opacity=".3"/><circle cx="1010" cy="108" r="1.4" fill="#22d3ee" opacity=".2"/><circle cx="1024" cy="108" r="1.4" fill="#22d3ee" opacity=".3"/><circle cx="1038" cy="108" r="1.4" fill="#22d3ee" opacity=".3"/><circle cx="1052" cy="108" r="1.4" fill="#22d3ee" opacity=".2"/><circle cx="1066" cy="108" r="1.4" fill="#22d3ee" opacity=".3"/><circle cx="1080" cy="108" r="1.4" fill="#22d3ee" opacity=".3"/><circle cx="1094" cy="108" r="1.4" fill="#22d3ee" opacity=".2"/><circle cx="1108" cy="108" r="1.4" fill="#22d3ee" opacity=".3"/><circle cx="1010" cy="120" r="1.4" fill="#22d3ee" opacity=".2"/><circle cx="1024" cy="120" r="1.4" fill="#22d3ee" opacity=".3"/><circle cx="1038" cy="120" r="1.4" fill="#22d3ee" opacity=".3"/><circle cx="1052" cy="120" r="1.4" fill="#22d3ee" opacity=".2"/><circle cx="1066" cy="120" r="1.4" fill="#22d3ee" opacity=".3"/><circle cx="1080" cy="120" r="1.4" fill="#22d3ee" opacity=".3"/><circle cx="1094" cy="120" r="1.4" fill="#22d3ee" opacity=".2"/><circle cx="1108" cy="120" r="1.4" fill="#22d3ee" opacity=".3"/><text x="740" y="162" fill="#22d3ee" font-family="Arial,sans-serif" font-size="9" font-weight="700" opacity=".6" text-anchor="middle">01</text><text x="1090" y="162" fill="#22d3ee" font-family="Arial,sans-serif" font-size="9" font-weight="700" opacity=".6" text-anchor="middle">02</text><text x="740" y="412" fill="#22d3ee" font-family="Arial,sans-serif" font-size="9" font-weight="700" opacity=".6" text-anchor="middle">03</text><text x="1090" y="412" fill="#22d3ee" font-family="Arial,sans-serif" font-size="9" font-weight="700" opacity=".6" text-anchor="middle">04</text><text x="740" y="178" fill="#94a3b8" font-family="Arial,sans-serif" font-size="9" font-weight="700" opacity=".7">STATUS</text><text x="816" y="178" fill="#94a3b8" font-family="Arial,sans-serif" font-size="9" font-weight="700" opacity=".7">OK</text><text x="864" y="178" fill="#94a3b8" font-family="Arial,sans-serif" font-size="9" font-weight="700" opacity=".7">VER</text><text x="910" y="178" fill="#94a3b8" font-family="Arial,sans-serif" font-size="9" font-weight="700" opacity=".7">v1.0</text><text x="962" y="178" fill="#94a3b8" font-family="Arial,sans-serif" font-size="9" font-weight="700" opacity=".7">BUILD</text><text x="1024" y="178" fill="#94a3b8" font-family="Arial,sans-serif" font-size="9" font-weight="700" opacity=".7">STAB</text><text x="40" y="380" fill="#475569" font-family="Arial,sans-serif" font-size="8" font-weight="700" opacity=".7" text-anchor="middle">00</text><text x="40" y="410" fill="#475569" font-family="Arial,sans-serif" font-size="8" font-weight="700" opacity=".7" text-anchor="middle">01</text><text x="40" y="440" fill="#475569" font-family="Arial,sans-serif" font-size="8" font-weight="700" opacity=".7" text-anchor="middle">02</text><text x="40" y="470" fill="#475569" font-family="Arial,sans-serif" font-size="8" font-weight="700" opacity=".7" text-anchor="middle">03</text><text x="40" y="500" fill="#475569" font-family="Arial,sans-serif" font-size="8" font-weight="700" opacity=".7" text-anchor="middle">04</text><text x="1160" y="380" fill="#475569" font-family="Arial,sans-serif" font-size="8" font-weight="700" opacity=".7" text-anchor="middle">OK</text><text x="1160" y="410" fill="#475569" font-family="Arial,sans-serif" font-size="8" font-weight="700" opacity=".7" text-anchor="middle">RUN</text><text x="1160" y="440" fill="#475569" font-family="Arial,sans-serif" font-size="8" font-weight="700" opacity=".7" text-anchor="middle">OK</text><text x="1160" y="470" fill="#475569" font-family="Arial,sans-serif" font-size="8" font-weight="700" opacity=".7" text-anchor="middle">RUN</text><g filter="url(#singleShadow)" transform="translate(914,278)"><circle r="124" fill="none" stroke="#60a5fa" stroke-dasharray="8 8" stroke-opacity=".2" stroke-width="1.2"/><circle r="68" fill="#0f172a" stroke="#60a5fa" stroke-width="2.6" opacity=".9"/><ellipse fill="none" stroke="#22d3ee" stroke-opacity=".6" stroke-width="1.4" rx="68" ry="24"/><ellipse fill="none" stroke="#22d3ee" stroke-opacity=".4" stroke-width="1.4" rx="68" ry="46"/><path stroke="#22d3ee" stroke-opacity=".6" stroke-width="1.4" d="M-68 0H68"/><path fill="none" stroke="#60a5fa" stroke-width="2" d="M-90-48q30-8 60 0t60 0 60 0" opacity=".7"/><path fill="none" stroke="#60a5fa" stroke-width="2" d="M-90 48q30 8 60 0t60 0 60 0" opacity=".5"/><g fill="#22d3ee" stroke="#60a5fa" stroke-width="1.2"><rect width="18" height="24" x="-104" y="-12" rx="2"/><rect width="18" height="24" x="86" y="-12" rx="2"/><rect width="24" height="18" x="-12" y="-104" rx="2"/><rect width="24" height="18" x="-12" y="86" rx="2"/><rect width="20" height="20" x="62" y="-72" rx="2"/></g><text y="6" fill="#f8fafc" font-family="Arial,sans-serif" font-size="11" font-weight="900" opacity=".8" text-anchor="middle">EDGE</text><text y="120" fill="#60a5fa" font-family="Arial,sans-serif" font-size="11" font-weight="700" opacity=".8" text-anchor="middle">GLOBAL EDGE NET</text><text y="136" fill="#22d3ee" font-family="Arial,sans-serif" font-size="10" opacity=".7" text-anchor="middle">5 PoPs : WAF on</text></g><g fill="#60a5fa" transform="translate(84 66)"><rect width="160" height="36" stroke="#60a5fa" stroke-width="1.2" opacity=".2" rx="18"/><text x="80" y="23" font-family="Arial,sans-serif" font-size="13" font-weight="700" text-anchor="middle">CLOUD</text></g><text x="84" y="170" fill="#f8fafc" font-family="Arial,sans-serif" font-size="54" font-weight="700" letter-spacing=".5">CLOUDFLARE 11/18</text><text x="84" y="232" fill="#dbeafe" font-family="Arial,sans-serif" font-size="54" font-weight="700" letter-spacing=".5">PM</text><text x="84" y="288" fill="#cbd5e1" font-family="Arial,sans-serif" font-size="18">INCIDENT / CLOUDFLARE</text><path fill="#334155" d="M84 314h520v1.5H84z" opacity=".9"/><text x="84" y="344" fill="#94a3b8" font-family="Arial,sans-serif" font-size="14" font-weight="700">VISUAL SYSTEM 5D3B9EB59E3D</text><text x="84" y="372" fill="#94a3b8" font-family="Arial,sans-serif" font-size="14">Post-Mortem November 18 2025 Cloudflare Global Incident Response Log What We</text><g transform="translate(84 474)"><rect width="142" height="38" fill="#60a5fa" fill-opacity=".2" stroke="#60a5fa" stroke-width="1.2" rx="19"/><text x="71" y="24" fill="#e2e8f0" font-family="Arial,sans-serif" font-size="13" font-weight="700" text-anchor="middle">CLOUDFLARE</text></g><g transform="translate(240 474)"><rect width="153" height="38" fill="#60a5fa" fill-opacity=".2" stroke="#60a5fa" stroke-width="1.2" rx="19"/><text x="76" y="24" fill="#e2e8f0" font-family="Arial,sans-serif" font-size="13" font-weight="700" text-anchor="middle">POST-MORTEM</text></g><g transform="translate(407 474)"><rect width="219" height="38" fill="#60a5fa" fill-opacity=".2" stroke="#60a5fa" stroke-width="1.2" rx="19"/><text x="109" y="24" fill="#e2e8f0" font-family="Arial,sans-serif" font-size="13" font-weight="700" text-anchor="middle">INCIDENT-RESPONSE</text></g><g transform="translate(640 474)"><rect width="110" height="38" fill="#60a5fa" fill-opacity=".2" stroke="#60a5fa" stroke-width="1.2" rx="19"/><text x="55" y="24" fill="#e2e8f0" font-family="Arial,sans-serif" font-size="13" font-weight="700" text-anchor="middle">CDN</text></g><g transform="translate(84 536)"><rect width="144" height="58" fill="#111827" fill-opacity=".8" stroke="#60a5fa" stroke-opacity=".4" stroke-width="1.2" rx="16"/><text x="18" y="24" fill="#94a3b8" font-family="Arial,sans-serif" font-size="11" font-weight="700">EVENT</text><text x="18" y="43" fill="#f8fafc" font-family="Arial,sans-serif" font-size="16" font-weight="700">11/18</text></g><g transform="translate(246 536)"><rect width="144" height="58" fill="#111827" fill-opacity=".8" stroke="#60a5fa" stroke-opacity=".4" stroke-width="1.2" rx="16"/><text x="18" y="24" fill="#94a3b8" font-family="Arial,sans-serif" font-size="11" font-weight="700">VENDOR</text><text x="18" y="43" fill="#f8fafc" font-family="Arial,sans-serif" font-size="16" font-weight="700">CF</text></g><g transform="translate(408 536)"><rect width="144" height="58" fill="#111827" fill-opacity=".8" stroke="#60a5fa" stroke-opacity=".4" stroke-width="1.2" rx="16"/><text x="18" y="24" fill="#94a3b8" font-family="Arial,sans-serif" font-size="11" font-weight="700">SEVERITY</text><text x="18" y="43" fill="#f8fafc" font-family="Arial,sans-serif" font-size="16" font-weight="700">GLOBAL</text></g><g transform="translate(1030 74)"><rect width="130" height="34" fill="#1d4ed8" stroke="#60a5fa" stroke-width="1.2" opacity=".2" rx="17"/><text x="65" y="22" fill="#e2e8f0" font-family="Arial,sans-serif" font-size="12" font-weight="700" text-anchor="middle">November 19, 2025</text></g><path stroke="#334155" d="M50 588h1100" opacity=".5"/><text x="1150" y="612" fill="#94a3b8" font-family="Arial,sans-serif" font-size="13" text-anchor="end">tech.2twodragon.com</text><g filter="url(#softShadow)" transform="translate(1080,504)"><rect width="100" height="100" x="-8" y="-8" fill="#fff" rx="6"/><path fill="#0a1020" d="M0 0h12v1.7H0zm13.7 0h8.6v1.7h-8.6zm15.4 0H31v1.7h-2zm3.5 0H36v1.7h-3.4zm6.8 0H43v1.7h-3.5zm12 0H55v1.7h-3.5zm5.2 0h1.7v1.7h-1.7zM60 0h3.4v1.7H60zm8.6 0h1.7v1.7h-1.7zM72 0h12v1.7H72zM0 1.7h1.7v1.7H0zm10.3 0H12v1.7h-1.7zm3.4 0h1.7v1.7h-1.7zm3.4 0H19v1.7h-2zm6.9 0h3.4v1.7H24zm6.9 0h3.4v1.7h-3.4zm6.8 0h8.6v1.7h-8.6zm17.2 0h3.4v1.7h-3.4zm5.1 0h1.7v1.7H60zm3.4 0h6.9v1.7h-6.9zm8.6 0h1.7v1.7H72zm10.3 0H84v1.7h-1.7zM0 3.4h1.7v1.7H0zm3.4 0h5.2v1.7H3.4zm6.9 0H12v1.7h-1.7zm5.1 0h5.2v1.7h-5.2zm8.6 0h6.9v1.7H24zm8.6 0h1.7v1.7h-1.7zm6.8 0h1.7v1.7h-1.7zm5.2 0h1.7v1.7h-1.7zm5.1 0h3.4v1.7h-3.4zm6.9 0H60v1.7h-3.4zm5.1 0h3.4v1.7h-3.4zm5.2 0h3.4v1.7h-3.4zm5.1 0h1.7v1.7H72zm3.4 0h5.2v1.7h-5.2zm6.9 0H84v1.7h-1.7zM0 5.1h1.7V7H0zm3.4 0h5.2V7H3.4zm6.9 0H12V7h-1.7zm3.4 0h1.7V7h-1.7zm6.9 0h5.1V7h-5.1zm6.8 0h1.7V7h-1.7zm3.5 0h3.4V7h-3.4zm5.1 0h1.7V7H36zm5.1 0h5.2V7H41zm8.6 0h1.7V7h-1.7zm3.4 0H55V7h-2zm5.2 0H65V7h-6.8zm8.6 0h1.7V7h-1.7zm5.1 0h1.7V7H72zm3.4 0h5.2V7h-5.2zm6.9 0H84V7h-1.7zM0 7h1.7v1.7H0zm3.4 0h5.2v1.7H3.4zm6.9 0H12v1.7h-1.7zm5.1 0H19v1.7h-3.5zm6.9 0H24v1.7h-1.7zm5.1 0h5.2v1.7h-5.2zm6.9 0H36v1.7h-1.7zm3.4 0h12v1.7h-12zm17.2 0h3.4v1.7h-3.4zM60 7h5.1v1.7H60zm12 0h1.7v1.7H72zm3.4 0h5.2v1.7h-5.2zm6.9 0H84v1.7h-1.7zM0 8.6h1.7v1.7H0zm10.3 0H12v1.7h-1.7zm8.6 0h1.7v1.7h-1.7zm3.4 0H24v1.7h-1.7zm3.4 0h3.4v1.7h-3.4zm5.2 0h1.7v1.7h-1.7zm5.1 0h3.4v1.7H36zm8.6 0H48v1.7h-3.4zm6.8 0h1.7v1.7h-1.7zm8.6 0h6.9v1.7H60zm12 0h1.7v1.7H72zm10.3 0H84v1.7h-1.7zM0 10.3h12V12H0zm13.7 0h1.7V12h-1.7zm3.4 0H19V12h-2zm3.5 0h1.7V12h-1.7zm3.4 0h1.7V12H24zm3.4 0h1.7V12h-1.7zm3.5 0h1.7V12h-1.7zm3.4 0H36V12h-1.7zm3.4 0h1.7V12h-1.7zm3.4 0H43V12h-2zm3.5 0h1.7V12h-1.7zm3.4 0h1.7V12H48zm3.4 0h1.7V12h-1.7zm3.5 0h1.7V12h-1.7zm3.4 0H60V12h-1.7zm3.4 0h1.7V12h-1.7zm3.4 0H67V12h-2zm3.5 0h1.7V12h-1.7zm3.4 0h12V12H72zM13.7 12H19v1.7h-5.2zm6.9 0H24v1.7h-3.4zm6.8 0h1.7v1.7h-1.7zm3.5 0h1.7v1.7h-1.7zm3.4 0H36v1.7h-1.7zm3.4 0h1.7v1.7h-1.7zm6.9 0h5.1v1.7h-5.1zm6.8 0h10.3v1.7H51.4zm12 0h1.7v1.7h-1.7zm3.5 0h1.7v1.7h-1.7zM0 13.7h1.7v1.7H0zm3.4 0H7v1.7H3.4zm5.2 0h5.1v1.7H8.6zm8.5 0H19v1.7h-2zm3.5 0H24v1.7h-3.4zm6.8 0h1.7v1.7h-1.7zm5.2 0h13.7v1.7H32.6zm15.4 0h5.1v1.7H48zm8.6 0h5.1v1.7h-5.1zm8.5 0H67v1.7h-2zm6.9 0h1.7v1.7H72zm5.1 0H79v1.7h-2zm3.5 0H84v1.7h-3.4zM0 15.4h5.1v1.7H0zm8.6 0h1.7v1.7H8.6zm3.4 0h5.1v1.7H12zm6.9 0H24v1.7h-5.1zm6.8 0h3.4v1.7h-3.4zm5.2 0h3.4v1.7h-3.4zm6.8 0h6.9v1.7h-6.9zm10.3 0h1.7v1.7H48zm3.4 0H55v1.7h-3.5zm8.6 0h5.1v1.7H60zm10.3 0h3.4v1.7h-3.4zm5.1 0h1.7v1.7h-1.7zm5.2 0h1.7v1.7h-1.7zM0 17.1h1.7V19H0zm3.4 0h1.7V19H3.4zm3.5 0H12V19H6.9zm8.5 0H19V19h-3.5zm5.2 0h1.7V19h-1.7zm3.4 0h1.7V19H24zm5.1 0h3.5V19H29zm5.2 0H36V19h-1.7zm5.1 0h1.7V19h-1.7zm6.9 0h3.4V19h-3.4zm5.1 0H55V19h-3.5zm6.9 0H60V19h-1.7zm3.4 0H67V19h-5.2zm6.9 0h5.1V19h-5.1zm6.8 0h1.7V19h-1.7zm3.5 0h3.4V19h-3.4zM0 19h3.4v1.7H0zm6.9 0h3.4v1.7H6.9zm5.1 0h1.7v1.7H12zm3.4 0H19v1.7h-3.5zm5.2 0h1.7v1.7h-1.7zm3.4 0h3.4v1.7H24zm8.6 0h6.8v1.7h-6.8zm10.3 0h1.7v1.7h-1.7zm6.8 0h6.9v1.7h-6.9zm8.6 0H65v1.7h-6.8zm8.6 0h1.7v1.7h-1.7zm5.1 0h1.7v1.7H72zm5.1 0h3.5v1.7H77zM0 20.6h3.4v1.7H0zm5.1 0H7v1.7H5zm5.2 0H12v1.7h-1.7zm3.4 0h1.7v1.7h-1.7zm8.6 0H24v1.7h-1.7zm6.8 0H31v1.7h-2zm6.9 0h8.6v1.7H36zm10.3 0H48v1.7h-1.7zm3.4 0h1.7v1.7h-1.7zm3.4 0H55v1.7h-2zm5.2 0h5.1v1.7h-5.1zm6.8 0h5.2v1.7H65zm8.6 0h1.7v1.7h-1.7zm3.4 0h3.5v1.7H77zm5.2 0H84v1.7h-1.7zM0 22.3h1.7V24H0zm3.4 0H7V24H3.4zm5.2 0h1.7V24H8.6zm5.1 0h6.9V24h-6.9zm12 0h3.4V24h-3.4zm6.9 0h1.7V24h-1.7zm3.4 0h3.4V24H36zm5.1 0H43V24h-2zm3.5 0H48V24h-3.4zm8.5 0H55V24h-2zm3.5 0h1.7V24h-1.7zm3.4 0h1.7V24H60zm3.4 0h5.2V24h-5.2zm6.9 0H72V24h-1.7zm3.4 0h6.9V24h-6.9zm8.6 0H84V24h-1.7zM0 24h1.7v1.7H0zm8.6 0H17v1.7H8.6zM24 24h1.7v1.7H24zm3.4 0H31v1.7h-3.5zm5.2 0H36v1.7h-3.4zm6.8 0H43v1.7h-3.5zm5.2 0H48v1.7h-3.4zm5.1 0h1.7v1.7h-1.7zM60 24h1.7v1.7H60zm3.4 0h5.2v1.7h-5.2zm8.6 0h1.7v1.7H72zm5.1 0H79v1.7h-2zm3.5 0h1.7v1.7h-1.7zM0 25.7h1.7v1.7H0zm3.4 0h5.2v1.7H3.4zm10.3 0h1.7v1.7h-1.7zm3.4 0H19v1.7h-2zm5.2 0H24v1.7h-1.7zm3.4 0h1.7v1.7h-1.7zm3.4 0H36v1.7h-6.9zm8.6 0h3.4v1.7h-3.4zm5.2 0H48v1.7h-5.1zm6.8 0h1.7v1.7h-1.7zm8.6 0H60v1.7h-1.7zm3.4 0h1.7v1.7h-1.7zm3.4 0H67v1.7h-2zm3.5 0h1.7v1.7h-1.7zm3.4 0h5.1v1.7H72zm10.3 0H84v1.7h-1.7zM1.7 27.4h1.7v1.7H1.7zm3.4 0h3.5v1.7H5zm5.2 0H12v1.7h-1.7zm3.4 0h8.6v1.7h-8.6zm12 0H31v1.7h-5.2zm13.7 0h1.7v1.7h-1.7zm6.9 0h8.6v1.7h-8.6zm12 0H60v1.7h-1.7zm3.4 0h1.7v1.7h-1.7zm3.4 0H67v1.7h-2zm3.5 0h1.7v1.7h-1.7zm6.8 0h1.7v1.7h-1.7zm5.2 0H84v1.7h-3.4zM0 29.1h1.7V31H0zm3.4 0h1.7V31H3.4zm5.2 0h1.7V31H8.6zm3.4 0h1.7V31H12zm3.4 0h1.7V31h-1.7zm5.2 0h1.7V31h-1.7zm3.4 0h1.7V31H24zm3.4 0h1.7V31h-1.7zm8.6 0h5.1V31H36zm13.7 0h8.6V31h-8.6zm12 0h1.7V31h-1.7zm6.9 0h1.7V31h-1.7zm8.5 0h5.2V31H77zM0 31h3.4v1.7H0zm8.6 0h5.1v1.7H8.6zm8.5 0h3.5v1.7H17zm6.9 0h5.1v1.7H24zm6.9 0h6.8v1.7H31zm10.2 0h5.2v1.7H41zm6.9 0h1.7v1.7H48zm3.4 0h6.9v1.7h-6.9zm8.6 0h1.7v1.7H60zm3.4 0H67v1.7h-3.5zm13.7 0H79v1.7h-2zm3.5 0H84v1.7h-3.4zM0 32.6h3.4v1.7H0zm5.1 0h5.2v1.7H5zm6.9 0h3.4v1.7H12zm5.1 0H19v1.7h-2zm3.5 0h1.7v1.7h-1.7zm3.4 0h3.4v1.7H24zm5.1 0H31v1.7h-2zm3.5 0h5.1v1.7h-5.1zm6.8 0h5.2v1.7h-5.2zm8.6 0h1.7v1.7H48zm3.4 0H55v1.7h-3.5zm5.2 0h6.8v1.7h-6.8zm8.5 0H67v1.7h-2zm3.5 0h1.7v1.7h-1.7zm3.4 0h3.4v1.7H72zm5.1 0H79v1.7h-2zm3.5 0h1.7v1.7h-1.7zM1.7 34.3h1.7V36H1.7zm5.2 0H12V36H6.9zm8.5 0h1.7V36h-1.7zm3.5 0h1.7V36h-1.7zm3.4 0h3.4V36h-3.4zm5.1 0h5.2V36h-5.2zm6.9 0H36V36h-1.7zm5.1 0h1.7V36h-1.7zm3.5 0h6.8V36H43zm8.5 0h1.7V36h-1.7zm5.2 0h1.7V36h-1.7zm3.4 0h1.7V36H60zm5.1 0H67V36h-2zm5.2 0h5.1V36h-5.1zm6.8 0H79V36h-2zm3.5 0h1.7V36h-1.7zM3.4 36h1.7v1.7H3.4zM7 36h3.4v1.7H6.9zm10 0h2v1.7h-2zm5.2 0H24v1.7h-1.7zm5.1 0H31v1.7h-3.5zm5.2 0h1.7v1.7h-1.7zm5.1 0H41v1.7h-3.4zm5.2 0H48v1.7h-5.1zm8.5 0H53v1.7h-1.7zm3.5 0h1.7v1.7h-1.7zm5.1 0H65v1.7h-5zm10.3 0h8.6v1.7h-8.6zM0 37.7h3.4v1.7H0zm6.9 0h8.5v1.7H7zm10.2 0H24v1.7h-6.9zm8.6 0h1.7v1.7h-1.7zm3.4 0H31v1.7h-2zm3.5 0h1.7v1.7h-1.7zm3.4 0h10.3v1.7H36zm13.7 0H55v1.7h-5.2zm8.6 0h5.1v1.7h-5.1zm10.3 0H77v1.7h-8.5zm10.3 0h1.7v1.7h-1.7zM1.7 39.4h1.7v1.7H1.7zm3.4 0h3.5v1.7H5zm8.6 0H19v1.7h-5.2zm6.9 0H24v1.7h-3.4zm5.1 0h1.7v1.7h-1.7zm3.4 0H31v1.7h-2zm5.2 0h5.1v1.7h-5.1zm10.3 0h5.1v1.7h-5.1zm8.5 0h5.2v1.7H53zm8.6 0h3.4v1.7h-3.4zm6.9 0h1.7v1.7h-1.7zm6.8 0h1.7v1.7h-1.7zm3.5 0h1.7v1.7h-1.7zM1.7 41.1h1.7V43H1.7zm5.2 0h1.7V43H6.9zm3.4 0H12V43h-1.7zm3.4 0h1.7V43h-1.7zm8.6 0H24V43h-1.7zm5.1 0H31V43h-3.5zm6.9 0h5.1V43h-5.1zm6.8 0H43V43h-2zm3.5 0h1.7V43h-1.7zm8.5 0H55V43h-2zm5.2 0H60V43h-1.7zm3.4 0h1.7V43h-1.7zm6.9 0h1.7V43h-1.7zm3.4 0h1.7V43H72zm3.4 0h1.7V43h-1.7zm3.5 0H84V43h-5.1zM0 43h5.1v1.7H0zm6.9 0h1.7v1.7H6.9zm6.8 0h1.7v1.7h-1.7zm3.4 0H19v1.7h-2zm3.5 0h1.7v1.7h-1.7zm3.4 0h1.7v1.7H24zm5.1 0h3.5v1.7H29zm5.2 0h5.1v1.7h-5.1zm10.3 0H48v1.7h-3.4zm5.1 0h1.7v1.7h-1.7zm3.4 0h5.2v1.7H53zm6.9 0h1.7v1.7H60zm3.4 0H67v1.7h-3.5zm5.2 0h1.7v1.7h-1.7zm6.8 0h5.2v1.7h-5.2zm6.9 0H84v1.7h-1.7zM0 44.6h1.7v1.7H0zm6.9 0h8.5v1.7H7zm10.2 0H24v1.7h-6.9zm10.3 0H31v1.7h-3.5zm5.2 0h1.7v1.7h-1.7zm5.1 0h15.4v1.7H37.7zm18.9 0h1.7v1.7h-1.7zm3.4 0h1.7v1.7H60zm3.4 0H67v1.7h-3.5zm5.2 0H77v1.7h-8.5zm10.3 0h1.7v1.7h-1.7zM0 46.3h1.7V48H0zm3.4 0h5.2V48H3.4zm8.6 0h5.1V48H12zm8.6 0h1.7V48h-1.7zm3.4 0h1.7V48H24zm5.1 0h5.2V48H29zm12 0H43V48h-2zm5.2 0h3.4V48h-3.4zm5.1 0h1.7V48h-1.7zm3.5 0h6.8V48H55zm17.1 0h1.7V48H72zM1.7 48h1.7v1.7H1.7zm6.9 0h5.1v1.7H8.6zm6.8 0h1.7v1.7h-1.7zm3.5 0h3.4v1.7h-3.4zM29 48h2v1.7h-2zm3.5 0H41v1.7h-8.5zm13.7 0H48v1.7h-1.7zm3.4 0h8.6v1.7h-8.6zm13.7 0H67v1.7h-3.5zm8.6 0h3.4v1.7H72zm6.9 0h3.4v1.7h-3.4zM0 49.7h10.3v1.7H0zm12 0h10.3v1.7H12zm15.4 0h1.7v1.7h-1.7zm3.5 0h3.4v1.7h-3.4zm8.5 0H43v1.7h-3.5zm6.9 0H48v1.7h-1.7zm3.4 0h1.7v1.7h-1.7zm6.9 0H60v1.7h-3.4zm5.1 0h1.7v1.7h-1.7zm10.3 0h1.7v1.7H72zm5.1 0H79v1.7h-2zm5.2 0H84v1.7h-1.7zM8.6 51.4h5.1v1.7H8.6zm6.8 0h1.7v1.7h-1.7zm3.5 0h1.7v1.7h-1.7zm6.8 0H31v1.7h-5.2zm6.9 0h1.7v1.7h-1.7zm5.1 0h1.7v1.7h-1.7zm5.2 0h1.7v1.7h-1.7zm5.1 0h1.7v1.7H48zm8.6 0H60v1.7h-3.4zm5.1 0h1.7v1.7h-1.7zm3.4 0h3.5v1.7H65zm5.2 0h5.1v1.7h-5.1zm6.8 0H79v1.7h-2zm3.5 0H84v1.7h-3.4zM0 53.1h1.7V55H0zm3.4 0H7V55H3.4zm8.6 0h3.4V55H12zm6.9 0h3.4V55h-3.4zm5.1 0h8.6V55H24zm10.3 0H36V55h-1.7zm6.8 0H43V55h-2zm5.2 0H48V55h-1.7zm3.4 0h1.7V55h-1.7zm3.4 0h3.5V55H53zm6.9 0h1.7V55H60zm3.4 0h10.3V55H63.4zm12 0H79V55h-3.5zm5.2 0h1.7V55h-1.7zM1.7 55h1.7v1.7H1.7zm3.4 0H7v1.7H5zm3.5 0H12v1.7H8.6zm6.8 0h1.7v1.7h-1.7zm3.5 0h1.7v1.7h-1.7zm3.4 0h5.1v1.7h-5.1zm6.8 0h3.5v1.7H29zm8.6 0h3.4v1.7h-3.4zm5.2 0h1.7v1.7h-1.7zm5.1 0h3.4v1.7H48zm5.1 0H55v1.7h-2zm3.5 0H60v1.7h-3.4zm6.8 0h1.7v1.7h-1.7zm5.2 0H77v1.7h-8.5zM1.7 56.6h6.9v1.7H1.7zm13.7 0H19v1.7h-3.5zm5.2 0H24v1.7h-3.4zm5.1 0h1.7v1.7h-1.7zm5.2 0h3.4v1.7h-3.4zm5.1 0h8.6v1.7H36zm15.4 0H55v1.7h-3.5zm5.2 0h1.7v1.7h-1.7zm5.1 0h3.4v1.7h-3.4zm5.2 0H72v1.7h-5.1zm6.8 0h1.7v1.7h-1.7zm6.9 0h1.7v1.7h-1.7zM0 58.3h3.4V60H0zm8.6 0H12V60H8.6zm6.8 0H19V60h-3.5zm6.9 0h5.1V60h-5.1zm6.8 0h5.2V60H29zm13.8 0h3.4V60h-3.4zm12 0h3.4V60h-3.4zm6.8 0h1.7V60h-1.7zm5.2 0H72V60h-5.1zM3.4 60h1.7v1.7H3.4zM7 60h3.4v1.7H6.9zm5.1 0h5.1v1.7H12zm6.9 0h1.7v1.7H19zm3.4 0H31v1.7h-8.6zm12 0H36v1.7h-1.7zm5.1 0h1.7v1.7h-1.7zm6.9 0H48v1.7h-1.7zm3.4 0H60v1.7H49.7zm13.7 0h6.9v1.7h-6.9zm8.6 0h3.4v1.7H72zm5.1 0h5.2v1.7H77zM0 61.7h1.7v1.7H0zm3.4 0h1.7v1.7H3.4zm3.5 0H12v1.7H6.9zm8.5 0h1.7v1.7h-1.7zm8.6 0h3.4v1.7H24zm10.3 0H41v1.7h-6.8zm18.8 0H55v1.7h-2zm3.5 0h1.7v1.7h-1.7zm3.4 0h3.4v1.7H60zm6.9 0H72v1.7h-5.1zm6.8 0h3.4v1.7h-3.4zm5.2 0h1.7v1.7h-1.7zm3.4 0H84v1.7h-1.7zM1.7 63.4h1.7v1.7H1.7zm3.4 0H7v1.7H5zm3.5 0h1.7v1.7H8.6zm3.4 0h1.7v1.7H12zm3.4 0h1.7v1.7h-1.7zm3.5 0h6.8v1.7H19zm10.2 0H36v1.7h-6.9zm8.6 0h3.4v1.7h-3.4zm5.2 0h1.7v1.7h-1.7zm3.4 0h3.4v1.7h-3.4zm6.8 0h5.2v1.7H53zm8.6 0h1.7v1.7h-1.7zm3.4 0H67v1.7h-2zm6.9 0h1.7v1.7H72zm3.4 0H79v1.7h-3.5zm5.2 0H84v1.7h-3.4zM1.7 65.1h1.7V67H1.7zm6.9 0H12V67H8.6zm10.3 0h1.7V67h-1.7zm10.2 0h5.2V67H29zm6.9 0h1.7V67H36zm3.4 0H43V67h-3.5zm8.6 0h1.7V67H48zm3.4 0h1.7V67h-1.7zm5.2 0h1.7V67h-1.7zm3.4 0h6.9V67H60zm15.4 0h6.9V67h-6.9zM1.7 67H7v1.7H1.7zM12 67h3.4v1.7H12zm5.1 0H19v1.7h-2zm3.5 0h1.7v1.7h-1.7zm10.3 0h6.8v1.7H31zm8.5 0h1.7v1.7h-1.7zm5.2 0h1.7v1.7h-1.7zm3.4 0h1.7v1.7H48zm3.4 0h1.7v1.7h-1.7zm3.5 0h3.4v1.7h-3.4zm5.1 0h1.7v1.7H60zm3.4 0H67v1.7h-3.5zm5.2 0H72v1.7h-3.4zm5.1 0H79v1.7h-5.2zm6.9 0H84v1.7h-3.4zM0 68.6h5.1v1.7H0zm10.3 0H12v1.7h-1.7zm3.4 0h3.4v1.7h-3.4zm10.3 0h1.7v1.7H24zm8.6 0h1.7v1.7h-1.7zm5.1 0h8.6v1.7h-8.6zm12 0h1.7v1.7h-1.7zm3.4 0h3.5v1.7H53zm5.2 0H60v1.7h-1.7zm5.1 0h1.7v1.7h-1.7zm5.2 0H77v1.7h-8.5zm10.3 0h1.7v1.7h-1.7zm-65.2 1.7h1.7V72h-1.7zm8.6 0H29V72h-6.8zm13.7 0h3.4V72H36zm8.6 0h1.7V72h-1.7zm8.5 0H55V72h-2zm3.5 0h6.8V72h-6.8zm10.3 0h3.4V72h-3.4zm8.5 0h1.7V72h-1.7zm3.5 0H84V72h-5.1zM0 72h12v1.7H0zm13.7 0h1.7v1.7h-1.7zm8.6 0H24v1.7h-1.7zm5.1 0H31v1.7h-3.5zm6.9 0H36v1.7h-1.7zm3.4 0h1.7v1.7h-1.7zm3.4 0H43v1.7h-2zm3.5 0H48v1.7h-3.4zm5.1 0h1.7v1.7h-1.7zm3.4 0H55v1.7h-2zm5.2 0H60v1.7h-1.7zm3.4 0H67v1.7h-5.2zm6.9 0h1.7v1.7h-1.7zm3.4 0h1.7v1.7H72zm3.4 0h1.7v1.7h-1.7zm6.9 0H84v1.7h-1.7zM0 73.7h1.7v1.7H0zm10.3 0H12v1.7h-1.7zm3.4 0h1.7v1.7h-1.7zm3.4 0H24v1.7h-6.9zm8.6 0h3.4v1.7h-3.4zm5.2 0h3.4v1.7h-3.4zm6.8 0h1.7v1.7h-1.7zm6.9 0h1.7v1.7h-1.7zm3.4 0h1.7v1.7H48zm8.6 0h1.7v1.7h-1.7zm5.1 0h3.4v1.7h-3.4zm5.2 0h3.4v1.7h-3.4zm8.5 0H79v1.7h-3.5zm6.9 0H84v1.7h-1.7zM0 75.4h1.7v1.7H0zm3.4 0h5.2v1.7H3.4zm6.9 0H12v1.7h-1.7zm5.1 0h1.7v1.7h-1.7zm8.6 0h5.1v1.7H24zm6.9 0h3.4v1.7h-3.4zm5.1 0h15.4v1.7H36zm22.3 0H60v1.7h-1.7zm5.1 0h1.7v1.7h-1.7zm3.5 0h12v1.7h-12zm13.7 0H84v1.7h-3.4zM0 77.1h1.7V79H0zm3.4 0h5.2V79H3.4zm6.9 0H12V79h-1.7zm3.4 0h1.7V79h-1.7zm5.2 0h3.4V79h-3.4zm10.2 0h10.3V79H29.1zm18.9 0h5.1V79H48zm6.9 0h1.7V79h-1.7zm8.5 0h1.7V79h-1.7zm3.5 0H77V79H67zm15.4 0H84V79h-1.7zM0 79h1.7v1.7H0zm3.4 0h5.2v1.7H3.4zm6.9 0H12v1.7h-1.7zm3.4 0h1.7v1.7h-1.7zm6.9 0H24v1.7h-3.4zm5.1 0h1.7v1.7h-1.7zM36 79h1.7v1.7H36zm6.9 0h3.4v1.7h-3.4zm8.5 0h1.7v1.7h-1.7zm3.5 0h1.7v1.7h-1.7zm3.4 0H60v1.7h-1.7zm3.4 0h6.9v1.7h-6.9zM72 79h6.9v1.7H72zm8.6 0H84v1.7h-3.4zM0 80.6h1.7v1.7H0zm10.3 0H12v1.7h-1.7zm5.1 0H19v1.7h-3.5zm5.2 0h1.7v1.7h-1.7zm3.4 0h3.4v1.7H24zm10.3 0h3.4v1.7h-3.4zm6.8 0h3.5v1.7H41zm6.9 0h6.9v1.7H48zm8.6 0h1.7v1.7h-1.7zm5.1 0h1.7v1.7h-1.7zm3.4 0H72v1.7h-6.9zm8.6 0h1.7v1.7h-1.7zm3.4 0h3.5v1.7H77zM0 82.3h12V84H0zm13.7 0h3.4V84h-3.4zm6.9 0h1.7V84h-1.7zm3.4 0h1.7V84H24zm8.6 0h1.7V84h-1.7zm6.8 0h1.7V84h-1.7zm3.5 0h1.7V84h-1.7zm5.1 0h1.7V84H48zm5.1 0h12V84h-12zm24 0H84V84h-6.9z"/></g><text x="1122" y="614" fill="#f5f7fa" font-family="Inter, Helvetica, Arial, sans-serif" font-size="10" font-weight="700" text-anchor="middle">scan / full post</text></svg>