<svg xmlns="http://www.w3.org/2000/svg" viewBox="0 0 1200 630" width="1200" height="630" role="img" aria-label="course cover 2025.12.12: AWS FinOps + ISMS-P Audit">
<title>Cloud Security 8Batch Week 3: AWS FinOps and ISMS-P Audit</title>
<!-- profile: high-quality-cover (2025 upgraded L25-single) -->
<defs><linearGradient id="bgSpread" x1="0%" y1="0%" x2="100%" y2="100%"><stop offset="0%" stop-color="#0B1326"/><stop offset="55%" stop-color="#0D1530"/><stop offset="100%" stop-color="#141034"/></linearGradient><linearGradient id="heroPanel" x1="0%" y1="0%" x2="0%" y2="100%"><stop offset="0%" stop-color="#1A0A08"/><stop offset="100%" stop-color="#110608"/></linearGradient><linearGradient id="heroPanelBlue" x1="0%" y1="0%" x2="0%" y2="100%"><stop offset="0%" stop-color="#0A1A30"/><stop offset="100%" stop-color="#071426"/></linearGradient><linearGradient id="heroPanelAmber" x1="0%" y1="0%" x2="0%" y2="100%"><stop offset="0%" stop-color="#1A1208"/><stop offset="100%" stop-color="#120E06"/></linearGradient><linearGradient id="heroPanelGreen" x1="0%" y1="0%" x2="0%" y2="100%"><stop offset="0%" stop-color="#08160E"/><stop offset="100%" stop-color="#04100A"/></linearGradient><linearGradient id="heroPanelPurple" x1="0%" y1="0%" x2="0%" y2="100%"><stop offset="0%" stop-color="#110629"/><stop offset="100%" stop-color="#0A0418"/></linearGradient><radialGradient id="hotRed" cx="50%" cy="50%" r="50%"><stop offset="0%" stop-color="#E63946" stop-opacity="0.6"/><stop offset="100%" stop-color="#E63946" stop-opacity="0"/></radialGradient><radialGradient id="hotBlue" cx="50%" cy="50%" r="50%"><stop offset="0%" stop-color="#3A86FF" stop-opacity="0.5"/><stop offset="100%" stop-color="#3A86FF" stop-opacity="0"/></radialGradient><radialGradient id="hotAmber" cx="50%" cy="50%" r="50%"><stop offset="0%" stop-color="#FFB703" stop-opacity="0.45"/><stop offset="100%" stop-color="#FFB703" stop-opacity="0"/></radialGradient><radialGradient id="hotGreen" cx="50%" cy="50%" r="50%"><stop offset="0%" stop-color="#4ADE80" stop-opacity="0.45"/><stop offset="100%" stop-color="#4ADE80" stop-opacity="0"/></radialGradient><radialGradient id="hotPurple" cx="50%" cy="50%" r="50%"><stop offset="0%" stop-color="#A78BFA" stop-opacity="0.45"/><stop offset="100%" stop-color="#A78BFA" stop-opacity="0"/></radialGradient><pattern id="envGrid" x="0" y="0" width="40" height="40" patternUnits="userSpaceOnUse"><circle cx="20" cy="20" r="0.8" fill="#2A3256" opacity="0.55"/></pattern><filter id="softShadow" x="-10%" y="-10%" width="130%" height="130%"><feGaussianBlur in="SourceAlpha" stdDeviation="3"/><feOffset dx="2" dy="4"/><feComponentTransfer><feFuncA type="linear" slope="0.55"/></feComponentTransfer><feMerge><feMergeNode/><feMergeNode in="SourceGraphic"/></feMerge></filter><filter id="textShadow" x="-10%" y="-10%" width="130%" height="130%"><feGaussianBlur in="SourceAlpha" stdDeviation="1.2"/><feOffset dx="1" dy="1.5"/><feComponentTransfer><feFuncA type="linear" slope="0.7"/></feComponentTransfer><feMerge><feMergeNode/><feMergeNode in="SourceGraphic"/></feMerge></filter></defs>
<rect width="1200" height="630" fill="url(#bgSpread)"/>
<rect width="1200" height="630" fill="url(#envGrid)"/>
<circle cx="310" cy="310" r="160" fill="url(#hotRed)"><animate attributeName="opacity" values="0.6;1;0.6" dur="5.8s" repeatCount="indefinite"/></circle><circle cx="950" cy="210" r="120" fill="url(#hotBlue)"><animate attributeName="opacity" values="0.45;0.85;0.45" dur="6.4s" repeatCount="indefinite"/></circle><circle cx="970" cy="480" r="110" fill="url(#hotAmber)"><animate attributeName="opacity" values="0.4;0.75;0.4" dur="7.1s" repeatCount="indefinite"/></circle><g fill="#8FB8FF"><circle cx="180" cy="70" r="1.2"><animate attributeName="opacity" values="0.2;1;0.2" dur="3.4s" repeatCount="indefinite"/></circle><circle cx="440" cy="62" r="1"><animate attributeName="opacity" values="0.2;0.9;0.2" dur="4.2s" repeatCount="indefinite"/></circle><circle cx="740" cy="68" r="1.3"><animate attributeName="opacity" values="0.25;1;0.25" dur="3.9s" repeatCount="indefinite"/></circle><circle cx="1060" cy="74" r="0.9"><animate attributeName="opacity" values="0.2;0.85;0.2" dur="5.1s" repeatCount="indefinite"/></circle><circle cx="90" cy="580" r="1"><animate attributeName="opacity" values="0.15;0.8;0.15" dur="4.7s" repeatCount="indefinite"/></circle><circle cx="550" cy="590" r="0.8"><animate attributeName="opacity" values="0.2;0.75;0.2" dur="3.6s" begin="0.5s" repeatCount="indefinite"/></circle></g>
<rect x="0" y="0" width="1200" height="56" fill="#050813" opacity="0.92"/>
<text x="36" y="36" font-family="Inter, Helvetica, Arial, sans-serif" font-size="18" font-weight="700" fill="#A78BFA" letter-spacing="2.5">COURSE</text>
<text x="1164" y="36" font-family="Inter, Helvetica, Arial, sans-serif" font-size="15" font-weight="600" fill="#7DA3D9" letter-spacing="1.5" text-anchor="end">2025.12.12</text>
<rect x="0" y="54" width="1200" height="2" fill="#A78BFA" opacity="0.85"><animate attributeName="opacity" values="0.4;1;0.4" dur="4.8s" repeatCount="indefinite"/></rect>
<rect x="32" y="80" width="1136" height="420" rx="14" ry="14" fill="url(#heroPanelPurple)" stroke="#A78BFA" stroke-width="1.8" opacity="0.98"/>
<circle cx="840" cy="290" r="240" fill="url(#hotPurple)" opacity="0.28"/>
<rect x="32" y="80" width="1136" height="4" fill="#A78BFA" opacity="0.85"><animate attributeName="opacity" values="0.5;1;0.5" dur="3.4s" repeatCount="indefinite"/></rect>
<g filter="url(#textShadow)">
<text x="54" y="120" font-family="Inter, Helvetica, Arial, sans-serif" font-size="13" font-weight="700" fill="#C4B5FD" letter-spacing="3">COURSE  /  PURPLE</text>
<text x="54" y="172" font-family="Inter, Helvetica, Arial, sans-serif" font-size="34" font-weight="800" fill="#F8FAFC">AWS FinOps + ISMS-P Audit</text>
<text x="54" y="208" font-family="Inter, Helvetica, Arial, sans-serif" font-size="18" font-weight="500" fill="#DDD6FE">Cost Optimization Hub, Compute Optimizer, Anomaly Detection</text>
</g>
<g transform="translate(54,226)"><rect x="0"   y="0" width="120" height="3" rx="1.5" fill="#A78BFA" opacity="0.85"><animate attributeName="opacity" values="0.4;1;0.4" dur="1.8s" repeatCount="indefinite"/></rect><rect x="132" y="0" width="68"  height="3" rx="1.5" fill="#C4B5FD" opacity="0.7"><animate attributeName="opacity" values="0.3;0.9;0.3" dur="2.4s" repeatCount="indefinite"/></rect><rect x="212" y="0" width="40"  height="3" rx="1.5" fill="#A78BFA" opacity="0.55"><animate attributeName="opacity" values="0.2;0.8;0.2" dur="3.1s" repeatCount="indefinite"/></rect></g>
<text x="54" y="254" font-family="Inter, Helvetica, Arial, sans-serif" font-size="13" font-weight="500" fill="#DDD6FE" fill-opacity="0.85" letter-spacing="0.4"><tspan fill="#A78BFA" font-weight="700">&#9656; </tspan>FinOps 2025 - AI/ML cost optimization - GreenOps - Unit Economics &#8226; AWS Artifact - Config Rules - Security Hub - CloudTrail compliance</text>
<g transform="translate(740,340)" opacity="0.85"><rect x="-180" y="-150" width="360" height="300" rx="12" fill="none" stroke="#A78BFA" stroke-width="0.9" stroke-opacity="0.55" stroke-dasharray="6 4"/><g fill="#C4B5FD" opacity="0.45"><circle cx="-162" cy="-136" r="1.4"/><circle cx="0"          cy="-136" r="1.4"/><circle cx="162"  cy="-136" r="1.4"/><circle cx="-162" cy="136"  r="1.4"/><circle cx="0"          cy="136"  r="1.4"/><circle cx="162"  cy="136"  r="1.4"/></g><polyline points="-184,-134 -184,-154 -164,-154" fill="none" stroke="#A78BFA" stroke-width="1.6" stroke-opacity="0.8"/><polyline points="184,-134 184,-154 164,-154" fill="none" stroke="#A78BFA" stroke-width="1.6" stroke-opacity="0.8"/><polyline points="-184,134 -184,154 -164,154" fill="none" stroke="#A78BFA" stroke-width="1.6" stroke-opacity="0.8"/><polyline points="184,134 184,154 164,154" fill="none" stroke="#A78BFA" stroke-width="1.6" stroke-opacity="0.8"/><g transform="translate(0,-148)"><rect x="-70" y="-12" width="141" height="20" rx="6" fill="#0A0C16" stroke="#A78BFA" stroke-width="1" opacity="0.92"/><text x="0" y="2" text-anchor="middle" font-family="Inter, Helvetica, Arial, sans-serif" font-size="10" font-weight="700" fill="#C4B5FD" letter-spacing="2">SUPPLY CHAIN PIPE</text></g><circle cx="176" cy="-152" r="2" fill="#A78BFA"><animate attributeName="opacity" values="0.3;1;0.3" dur="2s" repeatCount="indefinite"/></circle></g>
<g transform="translate(740,340)" font-family="Inter, monospace" font-weight="800"><g transform="translate(-200,-30)"><rect x="0" y="0" width="80" height="60" rx="6" fill="#0A1628" stroke="#3A86FF" stroke-width="1.4"/><text x="40" y="22" text-anchor="middle" font-size="10" fill="#8FB8FF">SOURCE</text><text x="40" y="40" text-anchor="middle" font-size="8" font-weight="600" fill="#BFC9D9">git repo</text><text x="40" y="52" text-anchor="middle" font-size="8" font-weight="600" fill="#BFC9D9">commits</text></g><g transform="translate(-100,-30)"><rect x="0" y="0" width="80" height="60" rx="6" fill="#1E1805" stroke="#A78BFA" stroke-width="2"><animate attributeName="stroke-opacity" values="0.6;1;0.6" dur="1.8s" repeatCount="indefinite"/></rect><text x="40" y="22" text-anchor="middle" font-size="10" fill="#C4B5FD">CI / BUILD</text><text x="40" y="40" text-anchor="middle" font-size="8" font-weight="600" fill="#A78BFA">poisoned step</text><circle cx="68" cy="12" r="5" fill="#E63946"><animate attributeName="opacity" values="0.4;1;0.4" dur="1.2s" repeatCount="indefinite"/></circle></g><g transform="translate(0,-30)"><rect x="0" y="0" width="80" height="60" rx="6" fill="#0A1B2E" stroke="#2CCCE4" stroke-width="1.4"/><text x="40" y="22" text-anchor="middle" font-size="10" fill="#2CCCE4">REGISTRY</text><text x="40" y="40" text-anchor="middle" font-size="8" font-weight="600" fill="#7ED4E5">images</text><text x="40" y="52" text-anchor="middle" font-size="8" font-weight="600" fill="#7ED4E5">artifacts</text></g><g transform="translate(100,-30)"><rect x="0" y="0" width="80" height="60" rx="6" fill="#062012" stroke="#4ADE80" stroke-width="1.4"/><text x="40" y="22" text-anchor="middle" font-size="10" fill="#4ADE80">DEPLOY</text><text x="40" y="40" text-anchor="middle" font-size="8" font-weight="600" fill="#86EFAC">prod cluster</text><text x="40" y="52" text-anchor="middle" font-size="8" font-weight="600" fill="#86EFAC">tainted</text></g><g stroke="#A78BFA" stroke-width="2" fill="none" stroke-linecap="round"><path d="M-120 0 L-100 0" stroke-dasharray="3 2"><animate attributeName="stroke-dashoffset" values="0;-10" dur="1s" repeatCount="indefinite"/></path><path d="M-20 0 L0 0" stroke-dasharray="3 2"><animate attributeName="stroke-dashoffset" values="0;-10" dur="1s" repeatCount="indefinite"/></path><path d="M80 0 L100 0" stroke-dasharray="3 2"><animate attributeName="stroke-dashoffset" values="0;-10" dur="1s" repeatCount="indefinite"/></path></g><g fill="#C4B5FD"><circle r="2.4"><animateMotion path="M-120 0 L100 0" dur="3.6s" repeatCount="indefinite"/></circle><circle r="2" opacity="0.7"><animateMotion path="M-120 0 L100 0" dur="3.6s" begin="1.2s" repeatCount="indefinite"/></circle></g><text x="0" y="56" text-anchor="middle" font-family="Inter, Helvetica, Arial, sans-serif" font-size="10" font-weight="700" fill="#A78BFA" letter-spacing="2">SUPPLY-CHAIN POISON</text></g>
<g transform="translate(1080,165)" filter="url(#softShadow)"><rect x="-80" y="-60" width="160" height="120" rx="14" fill="#0A0C16" stroke="#A78BFA" stroke-width="2.2" opacity="0.96"/><text x="0" y="-32" text-anchor="middle" font-family="Inter, Helvetica, Arial, sans-serif" font-size="11" font-weight="700" letter-spacing="2.4" fill="#C4B5FD">BATCH/WEEK</text><text x="0" y="22" text-anchor="middle" font-family="Inter, Helvetica, Arial, sans-serif" font-size="52" font-weight="900" fill="#F5F7FA">8/3</text><text x="0" y="44" text-anchor="middle" font-family="Inter, Helvetica, Arial, sans-serif" font-size="9" font-weight="600" fill="#C4B5FD" letter-spacing="1.2">ISMS-P + FINOPS</text><line x1="-60" y1="50" x2="60" y2="50" stroke="#A78BFA" stroke-width="0.8" stroke-opacity="0.5"/><rect x="-76" y="-56" width="14" height="2" rx="1" fill="#A78BFA" opacity="0.7"><animate attributeName="opacity" values="0.3;1;0.3" dur="1.6s" repeatCount="indefinite"/></rect><rect x="62" y="-56" width="14" height="2" rx="1" fill="#A78BFA" opacity="0.7"><animate attributeName="opacity" values="0.3;1;0.3" dur="1.7s" begin="0.5s" repeatCount="indefinite"/></rect><circle cx="0" cy="-48" r="2.4" fill="#A78BFA"><animate attributeName="opacity" values="0.25;1;0.25" dur="2s" repeatCount="indefinite"/></circle></g>
<g transform="translate(54,520)"><rect x="0" y="0" width="70" height="26" rx="13" fill="#0A0C16" stroke="#FFD58A" stroke-width="1.2" opacity="0.9"/><text x="35" y="17" text-anchor="middle" font-family="Inter, Helvetica, Arial, sans-serif" font-size="11" font-weight="700" fill="#FFD58A" letter-spacing="1.5">AWS</text></g><g transform="translate(136,520)"><rect x="0" y="0" width="70" height="26" rx="13" fill="#0A0C16" stroke="#86EFAC" stroke-width="1.2" opacity="0.9"/><text x="35" y="17" text-anchor="middle" font-family="Inter, Helvetica, Arial, sans-serif" font-size="11" font-weight="700" fill="#86EFAC" letter-spacing="1.5">FINOPS</text></g><g transform="translate(218,520)"><rect x="0" y="0" width="70" height="26" rx="13" fill="#0A0C16" stroke="#C4B5FD" stroke-width="1.2" opacity="0.9"/><text x="35" y="17" text-anchor="middle" font-family="Inter, Helvetica, Arial, sans-serif" font-size="11" font-weight="700" fill="#C4B5FD" letter-spacing="1.5">ISMS-P</text></g><g transform="translate(300,520)"><rect x="0" y="0" width="70" height="26" rx="13" fill="#0A0C16" stroke="#60A5FA" stroke-width="1.2" opacity="0.9"/><text x="35" y="17" text-anchor="middle" font-family="Inter, Helvetica, Arial, sans-serif" font-size="11" font-weight="700" fill="#60A5FA" letter-spacing="1.5">AUDIT</text></g><g transform="translate(382,520)"><rect x="0" y="0" width="146" height="26" rx="13" fill="#0A0C16" stroke="#FFD58A" stroke-width="1.2" opacity="0.9"/><text x="73" y="17" text-anchor="middle" font-family="Inter, Helvetica, Arial, sans-serif" font-size="11" font-weight="700" fill="#FFD58A" letter-spacing="1.5">COST-OPTIMIZATION</text></g>
<g transform="translate(54,562)"><rect x="0" y="0" width="320" height="52" rx="6" fill="#0A0C16" stroke="#A78BFA" stroke-width="1.2" opacity="0.85"/><text x="14" y="34" font-family="Inter, Helvetica, Arial, sans-serif" font-size="22" font-weight="800" fill="#F5F7FA">FINOPS</text><text x="306" y="22" text-anchor="end" font-family="Inter, Helvetica, Arial, sans-serif" font-size="10" font-weight="700" fill="#C4B5FD" letter-spacing="2">TRACK</text></g><g transform="translate(397,562)"><rect x="0" y="0" width="320" height="52" rx="6" fill="#0A0C16" stroke="#A78BFA" stroke-width="1.2" opacity="0.85"/><text x="14" y="34" font-family="Inter, Helvetica, Arial, sans-serif" font-size="22" font-weight="800" fill="#F5F7FA">ISMS-P</text><text x="306" y="22" text-anchor="end" font-family="Inter, Helvetica, Arial, sans-serif" font-size="10" font-weight="700" fill="#C4B5FD" letter-spacing="2">FRAMEWORK</text></g><g transform="translate(740,562)"><rect x="0" y="0" width="320" height="52" rx="6" fill="#0A0C16" stroke="#A78BFA" stroke-width="1.2" opacity="0.85"/><text x="14" y="34" font-family="Inter, Helvetica, Arial, sans-serif" font-size="22" font-weight="800" fill="#F5F7FA">ACTIVE</text><text x="306" y="22" text-anchor="end" font-family="Inter, Helvetica, Arial, sans-serif" font-size="10" font-weight="700" fill="#C4B5FD" letter-spacing="2">STATUS</text></g>
<g transform="translate(1080,504)" filter="url(#softShadow)">
  <rect x="-8" y="-8" width="100" height="100" rx="6" fill="#FFFFFF"/>
  <path fill="#0A1020" d="M0.0 0.0h12.0v1.714h-12.0z M13.714 0.0h8.571v1.714h-8.571z M25.714 0.0h1.714v1.714h-1.714z M29.143 0.0h1.714v1.714h-1.714z M34.286 0.0h1.714v1.714h-1.714z M37.714 0.0h8.571v1.714h-8.571z M48.0 0.0h1.714v1.714h-1.714z M51.429 0.0h5.143v1.714h-5.143z M58.286 0.0h6.857v1.714h-6.857z M68.571 0.0h1.714v1.714h-1.714z M72.0 0.0h12.0v1.714h-12.0z M0.0 1.714h1.714v1.714h-1.714z M10.286 1.714h1.714v1.714h-1.714z M13.714 1.714h1.714v1.714h-1.714z M20.571 1.714h6.857v1.714h-6.857z M29.143 1.714h3.429v1.714h-3.429z M36.0 1.714h8.571v1.714h-8.571z M48.0 1.714h3.429v1.714h-3.429z M54.857 1.714h1.714v1.714h-1.714z M58.286 1.714h3.429v1.714h-3.429z M65.143 1.714h5.143v1.714h-5.143z M72.0 1.714h1.714v1.714h-1.714z M82.286 1.714h1.714v1.714h-1.714z M0.0 3.429h1.714v1.714h-1.714z M3.429 3.429h5.143v1.714h-5.143z M10.286 3.429h1.714v1.714h-1.714z M13.714 3.429h1.714v1.714h-1.714z M17.143 3.429h3.429v1.714h-3.429z M22.286 3.429h1.714v1.714h-1.714z M27.429 3.429h1.714v1.714h-1.714z M34.286 3.429h1.714v1.714h-1.714z M37.714 3.429h1.714v1.714h-1.714z M41.143 3.429h1.714v1.714h-1.714z M44.571 3.429h6.857v1.714h-6.857z M54.857 3.429h1.714v1.714h-1.714z M58.286 3.429h1.714v1.714h-1.714z M63.429 3.429h1.714v1.714h-1.714z M66.857 3.429h3.429v1.714h-3.429z M72.0 3.429h1.714v1.714h-1.714z M75.429 3.429h5.143v1.714h-5.143z M82.286 3.429h1.714v1.714h-1.714z M0.0 5.143h1.714v1.714h-1.714z M3.429 5.143h5.143v1.714h-5.143z M10.286 5.143h1.714v1.714h-1.714z M15.429 5.143h12.0v1.714h-12.0z M34.286 5.143h6.857v1.714h-6.857z M42.857 5.143h1.714v1.714h-1.714z M46.286 5.143h5.143v1.714h-5.143z M53.143 5.143h5.143v1.714h-5.143z M60.0 5.143h5.143v1.714h-5.143z M66.857 5.143h1.714v1.714h-1.714z M72.0 5.143h1.714v1.714h-1.714z M75.429 5.143h5.143v1.714h-5.143z M82.286 5.143h1.714v1.714h-1.714z M0.0 6.857h1.714v1.714h-1.714z M3.429 6.857h5.143v1.714h-5.143z M10.286 6.857h1.714v1.714h-1.714z M13.714 6.857h1.714v1.714h-1.714z M17.143 6.857h1.714v1.714h-1.714z M20.571 6.857h1.714v1.714h-1.714z M25.714 6.857h1.714v1.714h-1.714z M29.143 6.857h5.143v1.714h-5.143z M36.0 6.857h10.286v1.714h-10.286z M48.0 6.857h1.714v1.714h-1.714z M51.429 6.857h1.714v1.714h-1.714z M61.714 6.857h3.429v1.714h-3.429z M72.0 6.857h1.714v1.714h-1.714z M75.429 6.857h5.143v1.714h-5.143z M82.286 6.857h1.714v1.714h-1.714z M0.0 8.571h1.714v1.714h-1.714z M10.286 8.571h1.714v1.714h-1.714z M17.143 8.571h1.714v1.714h-1.714z M20.571 8.571h1.714v1.714h-1.714z M25.714 8.571h1.714v1.714h-1.714z M30.857 8.571h1.714v1.714h-1.714z M34.286 8.571h5.143v1.714h-5.143z M44.571 8.571h1.714v1.714h-1.714z M48.0 8.571h3.429v1.714h-3.429z M53.143 8.571h1.714v1.714h-1.714z M61.714 8.571h1.714v1.714h-1.714z M65.143 8.571h1.714v1.714h-1.714z M72.0 8.571h1.714v1.714h-1.714z M82.286 8.571h1.714v1.714h-1.714z M0.0 10.286h12.0v1.714h-12.0z M13.714 10.286h1.714v1.714h-1.714z M17.143 10.286h1.714v1.714h-1.714z M20.571 10.286h1.714v1.714h-1.714z M24.0 10.286h1.714v1.714h-1.714z M27.429 10.286h1.714v1.714h-1.714z M30.857 10.286h1.714v1.714h-1.714z M34.286 10.286h1.714v1.714h-1.714z M37.714 10.286h1.714v1.714h-1.714z M41.143 10.286h1.714v1.714h-1.714z M44.571 10.286h1.714v1.714h-1.714z M48.0 10.286h1.714v1.714h-1.714z M51.429 10.286h1.714v1.714h-1.714z M54.857 10.286h1.714v1.714h-1.714z M58.286 10.286h1.714v1.714h-1.714z M61.714 10.286h1.714v1.714h-1.714z M65.143 10.286h1.714v1.714h-1.714z M68.571 10.286h1.714v1.714h-1.714z M72.0 10.286h12.0v1.714h-12.0z M24.0 12.0h6.857v1.714h-6.857z M36.0 12.0h3.429v1.714h-3.429z M44.571 12.0h1.714v1.714h-1.714z M48.0 12.0h3.429v1.714h-3.429z M54.857 12.0h1.714v1.714h-1.714z M66.857 12.0h1.714v1.714h-1.714z M0.0 13.714h1.714v1.714h-1.714z M5.143 13.714h10.286v1.714h-10.286z M17.143 13.714h3.429v1.714h-3.429z M24.0 13.714h3.429v1.714h-3.429z M29.143 13.714h17.143v1.714h-17.143z M48.0 13.714h3.429v1.714h-3.429z M60.0 13.714h3.429v1.714h-3.429z M65.143 13.714h1.714v1.714h-1.714z M68.571 13.714h3.429v1.714h-3.429z M75.429 13.714h1.714v1.714h-1.714z M78.857 13.714h5.143v1.714h-5.143z M1.714 15.429h1.714v1.714h-1.714z M5.143 15.429h1.714v1.714h-1.714z M13.714 15.429h5.143v1.714h-5.143z M29.143 15.429h8.571v1.714h-8.571z M42.857 15.429h5.143v1.714h-5.143z M51.429 15.429h22.286v1.714h-22.286z M75.429 15.429h3.429v1.714h-3.429z M80.571 15.429h1.714v1.714h-1.714z M0.0 17.143h1.714v1.714h-1.714z M3.429 17.143h1.714v1.714h-1.714z M8.571 17.143h5.143v1.714h-5.143z M15.429 17.143h6.857v1.714h-6.857z M29.143 17.143h1.714v1.714h-1.714z M37.714 17.143h1.714v1.714h-1.714z M42.857 17.143h1.714v1.714h-1.714z M46.286 17.143h1.714v1.714h-1.714z M58.286 17.143h1.714v1.714h-1.714z M61.714 17.143h3.429v1.714h-3.429z M68.571 17.143h3.429v1.714h-3.429z M73.714 17.143h3.429v1.714h-3.429z M78.857 17.143h5.143v1.714h-5.143z M0.0 18.857h5.143v1.714h-5.143z M8.571 18.857h1.714v1.714h-1.714z M13.714 18.857h3.429v1.714h-3.429z M20.571 18.857h3.429v1.714h-3.429z M29.143 18.857h1.714v1.714h-1.714z M36.0 18.857h3.429v1.714h-3.429z M41.143 18.857h1.714v1.714h-1.714z M44.571 18.857h1.714v1.714h-1.714z M49.714 18.857h3.429v1.714h-3.429z M54.857 18.857h1.714v1.714h-1.714z M58.286 18.857h1.714v1.714h-1.714z M66.857 18.857h1.714v1.714h-1.714z M70.286 18.857h1.714v1.714h-1.714z M73.714 18.857h6.857v1.714h-6.857z M0.0 20.571h1.714v1.714h-1.714z M3.429 20.571h1.714v1.714h-1.714z M10.286 20.571h3.429v1.714h-3.429z M17.143 20.571h5.143v1.714h-5.143z M25.714 20.571h3.429v1.714h-3.429z M30.857 20.571h1.714v1.714h-1.714z M34.286 20.571h1.714v1.714h-1.714z M37.714 20.571h1.714v1.714h-1.714z M41.143 20.571h10.286v1.714h-10.286z M54.857 20.571h1.714v1.714h-1.714z M61.714 20.571h3.429v1.714h-3.429z M70.286 20.571h1.714v1.714h-1.714z M75.429 20.571h5.143v1.714h-5.143z M0.0 22.286h3.429v1.714h-3.429z M5.143 22.286h1.714v1.714h-1.714z M15.429 22.286h1.714v1.714h-1.714z M24.0 22.286h5.143v1.714h-5.143z M30.857 22.286h5.143v1.714h-5.143z M41.143 22.286h1.714v1.714h-1.714z M44.571 22.286h3.429v1.714h-3.429z M49.714 22.286h3.429v1.714h-3.429z M56.571 22.286h1.714v1.714h-1.714z M61.714 22.286h1.714v1.714h-1.714z M65.143 22.286h3.429v1.714h-3.429z M72.0 22.286h1.714v1.714h-1.714z M78.857 22.286h3.429v1.714h-3.429z M5.143 24.0h3.429v1.714h-3.429z M10.286 24.0h3.429v1.714h-3.429z M17.143 24.0h1.714v1.714h-1.714z M22.286 24.0h3.429v1.714h-3.429z M27.429 24.0h1.714v1.714h-1.714z M37.714 24.0h1.714v1.714h-1.714z M41.143 24.0h1.714v1.714h-1.714z M60.0 24.0h6.857v1.714h-6.857z M68.571 24.0h1.714v1.714h-1.714z M75.429 24.0h1.714v1.714h-1.714z M78.857 24.0h5.143v1.714h-5.143z M5.143 25.714h5.143v1.714h-5.143z M12.0 25.714h1.714v1.714h-1.714z M15.429 25.714h3.429v1.714h-3.429z M20.571 25.714h3.429v1.714h-3.429z M27.429 25.714h1.714v1.714h-1.714z M34.286 25.714h1.714v1.714h-1.714z M37.714 25.714h1.714v1.714h-1.714z M42.857 25.714h1.714v1.714h-1.714z M46.286 25.714h1.714v1.714h-1.714z M51.429 25.714h3.429v1.714h-3.429z M56.571 25.714h3.429v1.714h-3.429z M63.429 25.714h1.714v1.714h-1.714z M68.571 25.714h1.714v1.714h-1.714z M72.0 25.714h3.429v1.714h-3.429z M77.143 25.714h3.429v1.714h-3.429z M82.286 25.714h1.714v1.714h-1.714z M0.0 27.429h1.714v1.714h-1.714z M3.429 27.429h1.714v1.714h-1.714z M10.286 27.429h5.143v1.714h-5.143z M17.143 27.429h3.429v1.714h-3.429z M22.286 27.429h3.429v1.714h-3.429z M29.143 27.429h1.714v1.714h-1.714z M32.571 27.429h1.714v1.714h-1.714z M41.143 27.429h5.143v1.714h-5.143z M49.714 27.429h1.714v1.714h-1.714z M53.143 27.429h3.429v1.714h-3.429z M61.714 27.429h3.429v1.714h-3.429z M66.857 27.429h5.143v1.714h-5.143z M75.429 27.429h1.714v1.714h-1.714z M80.571 27.429h1.714v1.714h-1.714z M0.0 29.143h1.714v1.714h-1.714z M5.143 29.143h1.714v1.714h-1.714z M8.571 29.143h1.714v1.714h-1.714z M12.0 29.143h1.714v1.714h-1.714z M15.429 29.143h1.714v1.714h-1.714z M32.571 29.143h1.714v1.714h-1.714z M37.714 29.143h1.714v1.714h-1.714z M42.857 29.143h1.714v1.714h-1.714z M46.286 29.143h1.714v1.714h-1.714z M51.429 29.143h13.714v1.714h-13.714z M66.857 29.143h8.571v1.714h-8.571z M77.143 29.143h3.429v1.714h-3.429z M0.0 30.857h1.714v1.714h-1.714z M3.429 30.857h1.714v1.714h-1.714z M10.286 30.857h6.857v1.714h-6.857z M18.857 30.857h5.143v1.714h-5.143z M25.714 30.857h1.714v1.714h-1.714z M30.857 30.857h1.714v1.714h-1.714z M34.286 30.857h1.714v1.714h-1.714z M41.143 30.857h1.714v1.714h-1.714z M44.571 30.857h1.714v1.714h-1.714z M48.0 30.857h3.429v1.714h-3.429z M53.143 30.857h3.429v1.714h-3.429z M60.0 30.857h12.0v1.714h-12.0z M73.714 30.857h6.857v1.714h-6.857z M82.286 30.857h1.714v1.714h-1.714z M0.0 32.571h3.429v1.714h-3.429z M6.857 32.571h3.429v1.714h-3.429z M12.0 32.571h1.714v1.714h-1.714z M20.571 32.571h1.714v1.714h-1.714z M24.0 32.571h1.714v1.714h-1.714z M27.429 32.571h1.714v1.714h-1.714z M34.286 32.571h1.714v1.714h-1.714z M39.429 32.571h1.714v1.714h-1.714z M46.286 32.571h1.714v1.714h-1.714z M49.714 32.571h1.714v1.714h-1.714z M53.143 32.571h6.857v1.714h-6.857z M63.429 32.571h6.857v1.714h-6.857z M72.0 32.571h1.714v1.714h-1.714z M77.143 32.571h1.714v1.714h-1.714z M82.286 32.571h1.714v1.714h-1.714z M0.0 34.286h3.429v1.714h-3.429z M6.857 34.286h8.571v1.714h-8.571z M20.571 34.286h12.0v1.714h-12.0z M36.0 34.286h1.714v1.714h-1.714z M39.429 34.286h3.429v1.714h-3.429z M44.571 34.286h1.714v1.714h-1.714z M48.0 34.286h1.714v1.714h-1.714z M60.0 34.286h3.429v1.714h-3.429z M65.143 34.286h3.429v1.714h-3.429z M72.0 34.286h3.429v1.714h-3.429z M80.571 34.286h3.429v1.714h-3.429z M3.429 36.0h1.714v1.714h-1.714z M12.0 36.0h1.714v1.714h-1.714z M15.429 36.0h6.857v1.714h-6.857z M24.0 36.0h3.429v1.714h-3.429z M29.143 36.0h12.0v1.714h-12.0z M44.571 36.0h5.143v1.714h-5.143z M51.429 36.0h8.571v1.714h-8.571z M61.714 36.0h13.714v1.714h-13.714z M78.857 36.0h5.143v1.714h-5.143z M1.714 37.714h3.429v1.714h-3.429z M6.857 37.714h13.714v1.714h-13.714z M24.0 37.714h5.143v1.714h-5.143z M32.571 37.714h18.857v1.714h-18.857z M53.143 37.714h6.857v1.714h-6.857z M61.714 37.714h1.714v1.714h-1.714z M66.857 37.714h10.286v1.714h-10.286z M82.286 37.714h1.714v1.714h-1.714z M5.143 39.429h3.429v1.714h-3.429z M13.714 39.429h3.429v1.714h-3.429z M24.0 39.429h1.714v1.714h-1.714z M27.429 39.429h5.143v1.714h-5.143z M36.0 39.429h3.429v1.714h-3.429z M44.571 39.429h1.714v1.714h-1.714z M49.714 39.429h1.714v1.714h-1.714z M53.143 39.429h8.571v1.714h-8.571z M63.429 39.429h1.714v1.714h-1.714z M68.571 39.429h1.714v1.714h-1.714z M75.429 39.429h1.714v1.714h-1.714z M78.857 39.429h1.714v1.714h-1.714z M0.0 41.143h3.429v1.714h-3.429z M6.857 41.143h1.714v1.714h-1.714z M10.286 41.143h1.714v1.714h-1.714z M13.714 41.143h1.714v1.714h-1.714z M27.429 41.143h3.429v1.714h-3.429z M36.0 41.143h3.429v1.714h-3.429z M41.143 41.143h1.714v1.714h-1.714z M44.571 41.143h1.714v1.714h-1.714z M48.0 41.143h5.143v1.714h-5.143z M54.857 41.143h1.714v1.714h-1.714z M58.286 41.143h1.714v1.714h-1.714z M61.714 41.143h1.714v1.714h-1.714z M65.143 41.143h1.714v1.714h-1.714z M68.571 41.143h1.714v1.714h-1.714z M72.0 41.143h1.714v1.714h-1.714z M75.429 41.143h1.714v1.714h-1.714z M80.571 41.143h3.429v1.714h-3.429z M3.429 42.857h5.143v1.714h-5.143z M13.714 42.857h6.857v1.714h-6.857z M25.714 42.857h3.429v1.714h-3.429z M30.857 42.857h8.571v1.714h-8.571z M44.571 42.857h1.714v1.714h-1.714z M49.714 42.857h8.571v1.714h-8.571z M60.0 42.857h1.714v1.714h-1.714z M65.143 42.857h1.714v1.714h-1.714z M68.571 42.857h1.714v1.714h-1.714z M75.429 42.857h3.429v1.714h-3.429z M1.714 44.571h1.714v1.714h-1.714z M6.857 44.571h8.571v1.714h-8.571z M18.857 44.571h1.714v1.714h-1.714z M22.286 44.571h1.714v1.714h-1.714z M25.714 44.571h3.429v1.714h-3.429z M32.571 44.571h1.714v1.714h-1.714z M37.714 44.571h8.571v1.714h-8.571z M48.0 44.571h1.714v1.714h-1.714z M51.429 44.571h1.714v1.714h-1.714z M61.714 44.571h17.143v1.714h-17.143z M82.286 44.571h1.714v1.714h-1.714z M0.0 46.286h1.714v1.714h-1.714z M3.429 46.286h1.714v1.714h-1.714z M8.571 46.286h1.714v1.714h-1.714z M13.714 46.286h5.143v1.714h-5.143z M20.571 46.286h6.857v1.714h-6.857z M29.143 46.286h1.714v1.714h-1.714z M34.286 46.286h1.714v1.714h-1.714z M37.714 46.286h1.714v1.714h-1.714z M41.143 46.286h1.714v1.714h-1.714z M44.571 46.286h1.714v1.714h-1.714z M49.714 46.286h1.714v1.714h-1.714z M56.571 46.286h5.143v1.714h-5.143z M65.143 46.286h3.429v1.714h-3.429z M70.286 46.286h1.714v1.714h-1.714z M75.429 46.286h8.571v1.714h-8.571z M1.714 48.0h1.714v1.714h-1.714z M6.857 48.0h1.714v1.714h-1.714z M10.286 48.0h5.143v1.714h-5.143z M18.857 48.0h1.714v1.714h-1.714z M22.286 48.0h1.714v1.714h-1.714z M25.714 48.0h1.714v1.714h-1.714z M29.143 48.0h3.429v1.714h-3.429z M34.286 48.0h1.714v1.714h-1.714z M41.143 48.0h1.714v1.714h-1.714z M44.571 48.0h1.714v1.714h-1.714z M53.143 48.0h5.143v1.714h-5.143z M61.714 48.0h3.429v1.714h-3.429z M66.857 48.0h1.714v1.714h-1.714z M70.286 48.0h1.714v1.714h-1.714z M77.143 48.0h3.429v1.714h-3.429z M82.286 48.0h1.714v1.714h-1.714z M1.714 49.714h1.714v1.714h-1.714z M5.143 49.714h3.429v1.714h-3.429z M13.714 49.714h1.714v1.714h-1.714z M24.0 49.714h1.714v1.714h-1.714z M29.143 49.714h1.714v1.714h-1.714z M32.571 49.714h3.429v1.714h-3.429z M39.429 49.714h3.429v1.714h-3.429z M46.286 49.714h1.714v1.714h-1.714z M51.429 49.714h3.429v1.714h-3.429z M56.571 49.714h5.143v1.714h-5.143z M63.429 49.714h1.714v1.714h-1.714z M72.0 49.714h3.429v1.714h-3.429z M77.143 49.714h1.714v1.714h-1.714z M80.571 49.714h1.714v1.714h-1.714z M0.0 51.429h1.714v1.714h-1.714z M3.429 51.429h1.714v1.714h-1.714z M8.571 51.429h3.429v1.714h-3.429z M13.714 51.429h1.714v1.714h-1.714z M17.143 51.429h1.714v1.714h-1.714z M24.0 51.429h1.714v1.714h-1.714z M30.857 51.429h3.429v1.714h-3.429z M41.143 51.429h1.714v1.714h-1.714z M44.571 51.429h1.714v1.714h-1.714z M49.714 51.429h1.714v1.714h-1.714z M53.143 51.429h3.429v1.714h-3.429z M60.0 51.429h5.143v1.714h-5.143z M66.857 51.429h3.429v1.714h-3.429z M72.0 51.429h1.714v1.714h-1.714z M75.429 51.429h1.714v1.714h-1.714z M82.286 51.429h1.714v1.714h-1.714z M0.0 53.143h3.429v1.714h-3.429z M13.714 53.143h3.429v1.714h-3.429z M18.857 53.143h6.857v1.714h-6.857z M29.143 53.143h3.429v1.714h-3.429z M36.0 53.143h1.714v1.714h-1.714z M41.143 53.143h3.429v1.714h-3.429z M48.0 53.143h1.714v1.714h-1.714z M51.429 53.143h1.714v1.714h-1.714z M54.857 53.143h3.429v1.714h-3.429z M60.0 53.143h1.714v1.714h-1.714z M63.429 53.143h3.429v1.714h-3.429z M68.571 53.143h3.429v1.714h-3.429z M75.429 53.143h3.429v1.714h-3.429z M80.571 53.143h1.714v1.714h-1.714z M3.429 54.857h1.714v1.714h-1.714z M10.286 54.857h1.714v1.714h-1.714z M15.429 54.857h3.429v1.714h-3.429z M22.286 54.857h3.429v1.714h-3.429z M27.429 54.857h3.429v1.714h-3.429z M34.286 54.857h1.714v1.714h-1.714z M39.429 54.857h3.429v1.714h-3.429z M44.571 54.857h1.714v1.714h-1.714z M48.0 54.857h5.143v1.714h-5.143z M56.571 54.857h6.857v1.714h-6.857z M65.143 54.857h3.429v1.714h-3.429z M70.286 54.857h1.714v1.714h-1.714z M73.714 54.857h1.714v1.714h-1.714z M77.143 54.857h5.143v1.714h-5.143z M1.714 56.571h1.714v1.714h-1.714z M17.143 56.571h3.429v1.714h-3.429z M25.714 56.571h1.714v1.714h-1.714z M29.143 56.571h15.429v1.714h-15.429z M46.286 56.571h8.571v1.714h-8.571z M56.571 56.571h12.0v1.714h-12.0z M70.286 56.571h1.714v1.714h-1.714z M73.714 56.571h8.571v1.714h-8.571z M0.0 58.286h3.429v1.714h-3.429z M10.286 58.286h1.714v1.714h-1.714z M13.714 58.286h6.857v1.714h-6.857z M22.286 58.286h5.143v1.714h-5.143z M29.143 58.286h1.714v1.714h-1.714z M32.571 58.286h1.714v1.714h-1.714z M36.0 58.286h3.429v1.714h-3.429z M41.143 58.286h1.714v1.714h-1.714z M44.571 58.286h1.714v1.714h-1.714z M53.143 58.286h1.714v1.714h-1.714z M56.571 58.286h3.429v1.714h-3.429z M70.286 58.286h3.429v1.714h-3.429z M77.143 58.286h1.714v1.714h-1.714z M82.286 58.286h1.714v1.714h-1.714z M5.143 60.0h1.714v1.714h-1.714z M8.571 60.0h1.714v1.714h-1.714z M12.0 60.0h3.429v1.714h-3.429z M18.857 60.0h1.714v1.714h-1.714z M25.714 60.0h3.429v1.714h-3.429z M36.0 60.0h3.429v1.714h-3.429z M42.857 60.0h3.429v1.714h-3.429z M48.0 60.0h1.714v1.714h-1.714z M54.857 60.0h5.143v1.714h-5.143z M65.143 60.0h3.429v1.714h-3.429z M70.286 60.0h1.714v1.714h-1.714z M73.714 60.0h6.857v1.714h-6.857z M82.286 60.0h1.714v1.714h-1.714z M0.0 61.714h3.429v1.714h-3.429z M8.571 61.714h5.143v1.714h-5.143z M20.571 61.714h3.429v1.714h-3.429z M25.714 61.714h3.429v1.714h-3.429z M32.571 61.714h3.429v1.714h-3.429z M41.143 61.714h5.143v1.714h-5.143z M48.0 61.714h3.429v1.714h-3.429z M54.857 61.714h5.143v1.714h-5.143z M61.714 61.714h6.857v1.714h-6.857z M80.571 61.714h1.714v1.714h-1.714z M0.0 63.429h1.714v1.714h-1.714z M3.429 63.429h5.143v1.714h-5.143z M13.714 63.429h3.429v1.714h-3.429z M20.571 63.429h1.714v1.714h-1.714z M25.714 63.429h1.714v1.714h-1.714z M34.286 63.429h1.714v1.714h-1.714z M37.714 63.429h5.143v1.714h-5.143z M46.286 63.429h8.571v1.714h-8.571z M56.571 63.429h1.714v1.714h-1.714z M60.0 63.429h8.571v1.714h-8.571z M70.286 63.429h1.714v1.714h-1.714z M73.714 63.429h3.429v1.714h-3.429z M80.571 63.429h3.429v1.714h-3.429z M1.714 65.143h1.714v1.714h-1.714z M8.571 65.143h3.429v1.714h-3.429z M13.714 65.143h3.429v1.714h-3.429z M18.857 65.143h1.714v1.714h-1.714z M24.0 65.143h1.714v1.714h-1.714z M29.143 65.143h3.429v1.714h-3.429z M34.286 65.143h1.714v1.714h-1.714z M37.714 65.143h3.429v1.714h-3.429z M42.857 65.143h1.714v1.714h-1.714z M53.143 65.143h1.714v1.714h-1.714z M63.429 65.143h5.143v1.714h-5.143z M70.286 65.143h3.429v1.714h-3.429z M75.429 65.143h3.429v1.714h-3.429z M80.571 65.143h3.429v1.714h-3.429z M1.714 66.857h5.143v1.714h-5.143z M18.857 66.857h3.429v1.714h-3.429z M25.714 66.857h3.429v1.714h-3.429z M32.571 66.857h1.714v1.714h-1.714z M36.0 66.857h1.714v1.714h-1.714z M41.143 66.857h1.714v1.714h-1.714z M46.286 66.857h1.714v1.714h-1.714z M51.429 66.857h3.429v1.714h-3.429z M58.286 66.857h10.286v1.714h-10.286z M72.0 66.857h3.429v1.714h-3.429z M78.857 66.857h3.429v1.714h-3.429z M0.0 68.571h5.143v1.714h-5.143z M10.286 68.571h1.714v1.714h-1.714z M13.714 68.571h3.429v1.714h-3.429z M18.857 68.571h1.714v1.714h-1.714z M22.286 68.571h1.714v1.714h-1.714z M27.429 68.571h1.714v1.714h-1.714z M32.571 68.571h1.714v1.714h-1.714z M36.0 68.571h10.286v1.714h-10.286z M49.714 68.571h1.714v1.714h-1.714z M53.143 68.571h6.857v1.714h-6.857z M61.714 68.571h1.714v1.714h-1.714z M65.143 68.571h15.429v1.714h-15.429z M82.286 68.571h1.714v1.714h-1.714z M13.714 70.286h1.714v1.714h-1.714z M17.143 70.286h1.714v1.714h-1.714z M24.0 70.286h3.429v1.714h-3.429z M30.857 70.286h1.714v1.714h-1.714z M36.0 70.286h3.429v1.714h-3.429z M44.571 70.286h5.143v1.714h-5.143z M51.429 70.286h3.429v1.714h-3.429z M56.571 70.286h3.429v1.714h-3.429z M63.429 70.286h1.714v1.714h-1.714z M66.857 70.286h3.429v1.714h-3.429z M75.429 70.286h1.714v1.714h-1.714z M0.0 72.0h12.0v1.714h-12.0z M13.714 72.0h3.429v1.714h-3.429z M22.286 72.0h6.857v1.714h-6.857z M32.571 72.0h1.714v1.714h-1.714z M37.714 72.0h1.714v1.714h-1.714z M41.143 72.0h1.714v1.714h-1.714z M44.571 72.0h6.857v1.714h-6.857z M53.143 72.0h1.714v1.714h-1.714z M56.571 72.0h1.714v1.714h-1.714z M65.143 72.0h1.714v1.714h-1.714z M68.571 72.0h1.714v1.714h-1.714z M72.0 72.0h1.714v1.714h-1.714z M75.429 72.0h1.714v1.714h-1.714z M78.857 72.0h5.143v1.714h-5.143z M0.0 73.714h1.714v1.714h-1.714z M10.286 73.714h1.714v1.714h-1.714z M13.714 73.714h1.714v1.714h-1.714z M20.571 73.714h1.714v1.714h-1.714z M27.429 73.714h1.714v1.714h-1.714z M30.857 73.714h5.143v1.714h-5.143z M37.714 73.714h1.714v1.714h-1.714z M44.571 73.714h1.714v1.714h-1.714z M48.0 73.714h3.429v1.714h-3.429z M53.143 73.714h1.714v1.714h-1.714z M56.571 73.714h1.714v1.714h-1.714z M60.0 73.714h1.714v1.714h-1.714z M63.429 73.714h1.714v1.714h-1.714z M66.857 73.714h3.429v1.714h-3.429z M75.429 73.714h3.429v1.714h-3.429z M0.0 75.429h1.714v1.714h-1.714z M3.429 75.429h5.143v1.714h-5.143z M10.286 75.429h1.714v1.714h-1.714z M13.714 75.429h3.429v1.714h-3.429z M18.857 75.429h1.714v1.714h-1.714z M25.714 75.429h3.429v1.714h-3.429z M30.857 75.429h1.714v1.714h-1.714z M37.714 75.429h8.571v1.714h-8.571z M48.0 75.429h5.143v1.714h-5.143z M58.286 75.429h1.714v1.714h-1.714z M61.714 75.429h3.429v1.714h-3.429z M68.571 75.429h10.286v1.714h-10.286z M82.286 75.429h1.714v1.714h-1.714z M0.0 77.143h1.714v1.714h-1.714z M3.429 77.143h5.143v1.714h-5.143z M10.286 77.143h1.714v1.714h-1.714z M13.714 77.143h1.714v1.714h-1.714z M18.857 77.143h1.714v1.714h-1.714z M22.286 77.143h1.714v1.714h-1.714z M25.714 77.143h3.429v1.714h-3.429z M34.286 77.143h6.857v1.714h-6.857z M42.857 77.143h1.714v1.714h-1.714z M46.286 77.143h1.714v1.714h-1.714z M49.714 77.143h3.429v1.714h-3.429z M56.571 77.143h3.429v1.714h-3.429z M63.429 77.143h6.857v1.714h-6.857z M72.0 77.143h3.429v1.714h-3.429z M78.857 77.143h1.714v1.714h-1.714z M82.286 77.143h1.714v1.714h-1.714z M0.0 78.857h1.714v1.714h-1.714z M3.429 78.857h5.143v1.714h-5.143z M10.286 78.857h1.714v1.714h-1.714z M17.143 78.857h1.714v1.714h-1.714z M22.286 78.857h1.714v1.714h-1.714z M32.571 78.857h3.429v1.714h-3.429z M41.143 78.857h1.714v1.714h-1.714z M46.286 78.857h1.714v1.714h-1.714z M51.429 78.857h1.714v1.714h-1.714z M54.857 78.857h1.714v1.714h-1.714z M58.286 78.857h1.714v1.714h-1.714z M73.714 78.857h3.429v1.714h-3.429z M80.571 78.857h1.714v1.714h-1.714z M0.0 80.571h1.714v1.714h-1.714z M10.286 80.571h1.714v1.714h-1.714z M15.429 80.571h1.714v1.714h-1.714z M18.857 80.571h1.714v1.714h-1.714z M22.286 80.571h1.714v1.714h-1.714z M25.714 80.571h3.429v1.714h-3.429z M36.0 80.571h3.429v1.714h-3.429z M42.857 80.571h3.429v1.714h-3.429z M51.429 80.571h3.429v1.714h-3.429z M56.571 80.571h5.143v1.714h-5.143z M63.429 80.571h3.429v1.714h-3.429z M68.571 80.571h1.714v1.714h-1.714z M72.0 80.571h1.714v1.714h-1.714z M77.143 80.571h6.857v1.714h-6.857z M0.0 82.286h12.0v1.714h-12.0z M13.714 82.286h1.714v1.714h-1.714z M17.143 82.286h1.714v1.714h-1.714z M20.571 82.286h8.571v1.714h-8.571z M30.857 82.286h3.429v1.714h-3.429z M37.714 82.286h1.714v1.714h-1.714z M42.857 82.286h3.429v1.714h-3.429z M48.0 82.286h5.143v1.714h-5.143z M54.857 82.286h1.714v1.714h-1.714z M58.286 82.286h1.714v1.714h-1.714z M61.714 82.286h1.714v1.714h-1.714z M68.571 82.286h1.714v1.714h-1.714z M72.0 82.286h5.143v1.714h-5.143z M82.286 82.286h1.714v1.714h-1.714z"/>
</g>
<text x="1122" y="614" font-family="Inter, Helvetica, Arial, sans-serif" font-size="10" font-weight="700" fill="#F5F7FA" text-anchor="middle">scan / full post</text>
</svg>
