<svg xmlns="http://www.w3.org/2000/svg" viewBox="0 0 1200 630" width="1200" height="630" role="img" aria-label="incident cover 2025.11.19: Cloudflare Global Outage RCA">
<title>Post-Mortem: 2025-11-18 Cloudflare Global Incident Response Log</title>
<!-- profile: high-quality-cover (2025 upgraded L25-single) -->
<defs><linearGradient id="bgSpread" x1="0%" y1="0%" x2="100%" y2="100%"><stop offset="0%" stop-color="#0B1326"/><stop offset="55%" stop-color="#0D1530"/><stop offset="100%" stop-color="#141034"/></linearGradient><linearGradient id="heroPanel" x1="0%" y1="0%" x2="0%" y2="100%"><stop offset="0%" stop-color="#1A0A08"/><stop offset="100%" stop-color="#110608"/></linearGradient><linearGradient id="heroPanelBlue" x1="0%" y1="0%" x2="0%" y2="100%"><stop offset="0%" stop-color="#0A1A30"/><stop offset="100%" stop-color="#071426"/></linearGradient><linearGradient id="heroPanelAmber" x1="0%" y1="0%" x2="0%" y2="100%"><stop offset="0%" stop-color="#1A1208"/><stop offset="100%" stop-color="#120E06"/></linearGradient><linearGradient id="heroPanelGreen" x1="0%" y1="0%" x2="0%" y2="100%"><stop offset="0%" stop-color="#08160E"/><stop offset="100%" stop-color="#04100A"/></linearGradient><linearGradient id="heroPanelPurple" x1="0%" y1="0%" x2="0%" y2="100%"><stop offset="0%" stop-color="#110629"/><stop offset="100%" stop-color="#0A0418"/></linearGradient><radialGradient id="hotRed" cx="50%" cy="50%" r="50%"><stop offset="0%" stop-color="#E63946" stop-opacity="0.6"/><stop offset="100%" stop-color="#E63946" stop-opacity="0"/></radialGradient><radialGradient id="hotBlue" cx="50%" cy="50%" r="50%"><stop offset="0%" stop-color="#3A86FF" stop-opacity="0.5"/><stop offset="100%" stop-color="#3A86FF" stop-opacity="0"/></radialGradient><radialGradient id="hotAmber" cx="50%" cy="50%" r="50%"><stop offset="0%" stop-color="#FFB703" stop-opacity="0.45"/><stop offset="100%" stop-color="#FFB703" stop-opacity="0"/></radialGradient><radialGradient id="hotGreen" cx="50%" cy="50%" r="50%"><stop offset="0%" stop-color="#4ADE80" stop-opacity="0.45"/><stop offset="100%" stop-color="#4ADE80" stop-opacity="0"/></radialGradient><radialGradient id="hotPurple" cx="50%" cy="50%" r="50%"><stop offset="0%" stop-color="#A78BFA" stop-opacity="0.45"/><stop offset="100%" stop-color="#A78BFA" stop-opacity="0"/></radialGradient><pattern id="envGrid" x="0" y="0" width="40" height="40" patternUnits="userSpaceOnUse"><circle cx="20" cy="20" r="0.8" fill="#2A3256" opacity="0.55"/></pattern><filter id="softShadow" x="-10%" y="-10%" width="130%" height="130%"><feGaussianBlur in="SourceAlpha" stdDeviation="3"/><feOffset dx="2" dy="4"/><feComponentTransfer><feFuncA type="linear" slope="0.55"/></feComponentTransfer><feMerge><feMergeNode/><feMergeNode in="SourceGraphic"/></feMerge></filter><filter id="textShadow" x="-10%" y="-10%" width="130%" height="130%"><feGaussianBlur in="SourceAlpha" stdDeviation="1.2"/><feOffset dx="1" dy="1.5"/><feComponentTransfer><feFuncA type="linear" slope="0.7"/></feComponentTransfer><feMerge><feMergeNode/><feMergeNode in="SourceGraphic"/></feMerge></filter></defs>
<rect width="1200" height="630" fill="url(#bgSpread)"/>
<rect width="1200" height="630" fill="url(#envGrid)"/>
<circle cx="310" cy="310" r="160" fill="url(#hotRed)"><animate attributeName="opacity" values="0.6;1;0.6" dur="5.8s" repeatCount="indefinite"/></circle><circle cx="950" cy="210" r="120" fill="url(#hotBlue)"><animate attributeName="opacity" values="0.45;0.85;0.45" dur="6.4s" repeatCount="indefinite"/></circle><circle cx="970" cy="480" r="110" fill="url(#hotAmber)"><animate attributeName="opacity" values="0.4;0.75;0.4" dur="7.1s" repeatCount="indefinite"/></circle><g fill="#8FB8FF"><circle cx="180" cy="70" r="1.2"><animate attributeName="opacity" values="0.2;1;0.2" dur="3.4s" repeatCount="indefinite"/></circle><circle cx="440" cy="62" r="1"><animate attributeName="opacity" values="0.2;0.9;0.2" dur="4.2s" repeatCount="indefinite"/></circle><circle cx="740" cy="68" r="1.3"><animate attributeName="opacity" values="0.25;1;0.25" dur="3.9s" repeatCount="indefinite"/></circle><circle cx="1060" cy="74" r="0.9"><animate attributeName="opacity" values="0.2;0.85;0.2" dur="5.1s" repeatCount="indefinite"/></circle><circle cx="90" cy="580" r="1"><animate attributeName="opacity" values="0.15;0.8;0.15" dur="4.7s" repeatCount="indefinite"/></circle><circle cx="550" cy="590" r="0.8"><animate attributeName="opacity" values="0.2;0.75;0.2" dur="3.6s" begin="0.5s" repeatCount="indefinite"/></circle></g>
<rect x="0" y="0" width="1200" height="56" fill="#050813" opacity="0.92"/>
<text x="36" y="36" font-family="Inter, Helvetica, Arial, sans-serif" font-size="18" font-weight="700" fill="#F87171" letter-spacing="2.5">INCIDENT</text>
<text x="1164" y="36" font-family="Inter, Helvetica, Arial, sans-serif" font-size="15" font-weight="600" fill="#7DA3D9" letter-spacing="1.5" text-anchor="end">2025.11.19</text>
<rect x="0" y="54" width="1200" height="2" fill="#E63946" opacity="0.85"><animate attributeName="opacity" values="0.4;1;0.4" dur="4.8s" repeatCount="indefinite"/></rect>
<rect x="32" y="80" width="1136" height="420" rx="14" ry="14" fill="url(#heroPanel)" stroke="#E63946" stroke-width="1.8" opacity="0.98"/>
<circle cx="840" cy="290" r="240" fill="url(#hotRed)" opacity="0.28"/>
<rect x="32" y="80" width="1136" height="4" fill="#E63946" opacity="0.85"><animate attributeName="opacity" values="0.5;1;0.5" dur="3.4s" repeatCount="indefinite"/></rect>
<g filter="url(#textShadow)">
<text x="54" y="120" font-family="Inter, Helvetica, Arial, sans-serif" font-size="13" font-weight="700" fill="#F87171" letter-spacing="3">INCIDENT  /  RED</text>
<text x="54" y="172" font-family="Inter, Helvetica, Arial, sans-serif" font-size="34" font-weight="800" fill="#F8FAFC">Cloudflare Global Outage RCA</text>
<text x="54" y="208" font-family="Inter, Helvetica, Arial, sans-serif" font-size="18" font-weight="500" fill="#FBB6BD">Multi-CDN failover playbook and SRE incident-response log</text>
</g>
<g transform="translate(54,226)"><rect x="0"   y="0" width="120" height="3" rx="1.5" fill="#E63946" opacity="0.85"><animate attributeName="opacity" values="0.4;1;0.4" dur="1.8s" repeatCount="indefinite"/></rect><rect x="132" y="0" width="68"  height="3" rx="1.5" fill="#F87171" opacity="0.7"><animate attributeName="opacity" values="0.3;0.9;0.3" dur="2.4s" repeatCount="indefinite"/></rect><rect x="212" y="0" width="40"  height="3" rx="1.5" fill="#E63946" opacity="0.55"><animate attributeName="opacity" values="0.2;0.8;0.2" dur="3.1s" repeatCount="indefinite"/></rect></g>
<text x="54" y="254" font-family="Inter, Helvetica, Arial, sans-serif" font-size="13" font-weight="500" fill="#FBB6BD" fill-opacity="0.85" letter-spacing="0.4"><tspan fill="#E63946" font-weight="700">&#9656; </tspan>RCA - 2025-11-18 - Multi-CDN failover - Post-Quantum readiness &#8226; Mobile vs PC asymmetric symptoms - DDoS trend - DNS over HTTPS</text>
<g transform="translate(740,340)" opacity="0.85"><rect x="-180" y="-150" width="360" height="300" rx="12" fill="none" stroke="#E63946" stroke-width="0.9" stroke-opacity="0.55" stroke-dasharray="6 4"/><g fill="#F87171" opacity="0.45"><circle cx="-162" cy="-136" r="1.4"/><circle cx="0"          cy="-136" r="1.4"/><circle cx="162"  cy="-136" r="1.4"/><circle cx="-162" cy="136"  r="1.4"/><circle cx="0"          cy="136"  r="1.4"/><circle cx="162"  cy="136"  r="1.4"/></g><polyline points="-184,-134 -184,-154 -164,-154" fill="none" stroke="#E63946" stroke-width="1.6" stroke-opacity="0.8"/><polyline points="184,-134 184,-154 164,-154" fill="none" stroke="#E63946" stroke-width="1.6" stroke-opacity="0.8"/><polyline points="-184,134 -184,154 -164,154" fill="none" stroke="#E63946" stroke-width="1.6" stroke-opacity="0.8"/><polyline points="184,134 184,154 164,154" fill="none" stroke="#E63946" stroke-width="1.6" stroke-opacity="0.8"/><g transform="translate(0,-148)"><rect x="-63" y="-12" width="127" height="20" rx="6" fill="#0A0C16" stroke="#E63946" stroke-width="1" opacity="0.92"/><text x="0" y="2" text-anchor="middle" font-family="Inter, Helvetica, Arial, sans-serif" font-size="10" font-weight="700" fill="#F87171" letter-spacing="2">OUTAGE TIMELINE</text></g><circle cx="176" cy="-152" r="2" fill="#E63946"><animate attributeName="opacity" values="0.3;1;0.3" dur="2s" repeatCount="indefinite"/></circle></g>
<g transform="translate(740,340)"><line x1="-168" y1="-30" x2="168" y2="-30" stroke="#F87171" stroke-width="1.2" stroke-opacity="0.55" stroke-dasharray="4 3"/><circle cx="-150" cy="-30" r="6" fill="#0A0C16" stroke="#F87171" stroke-width="1.4"></circle><text x="-150" y="-50" text-anchor="middle" font-family="Inter, monospace" font-size="8" font-weight="800" fill="#F87171" letter-spacing="1.2">DETECT</text><circle cx="-78" cy="-30" r="6" fill="#0A0C16" stroke="#F87171" stroke-width="1.4"></circle><text x="-78" y="-50" text-anchor="middle" font-family="Inter, monospace" font-size="8" font-weight="800" fill="#F87171" letter-spacing="1.2">DIAGNOSE</text><circle cx="0" cy="-30" r="9" fill="#E63946" stroke="#E63946" stroke-width="2"><animate attributeName="r" values="8;11;8" dur="2s" repeatCount="indefinite"/></circle><text x="0" y="-50" text-anchor="middle" font-family="Inter, monospace" font-size="8" font-weight="800" fill="#E63946" letter-spacing="1.2">MITIGATE</text><circle cx="78" cy="-30" r="6" fill="#0A0C16" stroke="#F87171" stroke-width="1.4"></circle><text x="78" y="-50" text-anchor="middle" font-family="Inter, monospace" font-size="8" font-weight="800" fill="#F87171" letter-spacing="1.2">RESOLVE</text><circle cx="150" cy="-30" r="6" fill="#0A0C16" stroke="#F87171" stroke-width="1.4"></circle><text x="150" y="-50" text-anchor="middle" font-family="Inter, monospace" font-size="8" font-weight="800" fill="#F87171" letter-spacing="1.2">POSTMORTEM</text><circle r="2.4" fill="#E63946"><animateMotion path="M-150 -30 L150 -30" dur="3.6s" repeatCount="indefinite"/></circle><text x="0" y="22" text-anchor="middle" font-family="Inter, monospace" font-size="9" font-weight="800" fill="#F87171" letter-spacing="2">BLAST RADIUS</text><path d="M-96 90 A96 96 0 0 1 96 90" fill="none" stroke="#E63946" stroke-width="1.2" stroke-opacity="0.3"/><text x="0" y="6" text-anchor="middle" font-family="Inter, monospace" font-size="7" font-weight="700" fill="#F87171" opacity="0.50" letter-spacing="1">GLOBAL</text><path d="M-74 90 A74 74 0 0 1 74 90" fill="none" stroke="#E63946" stroke-width="1.2" stroke-opacity="0.45"/><text x="0" y="28" text-anchor="middle" font-family="Inter, monospace" font-size="7" font-weight="700" fill="#F87171" opacity="0.65" letter-spacing="1">US-EAST</text><path d="M-52 90 A52 52 0 0 1 52 90" fill="none" stroke="#E63946" stroke-width="1.2" stroke-opacity="0.65"/><text x="0" y="50" text-anchor="middle" font-family="Inter, monospace" font-size="7" font-weight="700" fill="#F87171" opacity="0.85" letter-spacing="1">EU</text><path d="M-30 90 A30 30 0 0 1 30 90" fill="none" stroke="#E63946" stroke-width="1.2" stroke-opacity="0.9"/><text x="0" y="72" text-anchor="middle" font-family="Inter, monospace" font-size="7" font-weight="700" fill="#F87171" opacity="1.10" letter-spacing="1">ASIA</text><circle cx="0" cy="90" r="3" fill="#E63946"><animate attributeName="opacity" values="0.4;1;0.4" dur="1.8s" repeatCount="indefinite"/></circle></g>
<g transform="translate(1080,165)" filter="url(#softShadow)"><rect x="-80" y="-60" width="160" height="120" rx="14" fill="#0A0C16" stroke="#E63946" stroke-width="2.2" opacity="0.96"/><text x="0" y="-32" text-anchor="middle" font-family="Inter, Helvetica, Arial, sans-serif" font-size="11" font-weight="700" letter-spacing="2.4" fill="#F87171">SEVERITY</text><text x="0" y="22" text-anchor="middle" font-family="Inter, Helvetica, Arial, sans-serif" font-size="52" font-weight="900" fill="#F5F7FA">P0</text><text x="0" y="44" text-anchor="middle" font-family="Inter, Helvetica, Arial, sans-serif" font-size="9" font-weight="600" fill="#F87171" letter-spacing="1.2">GLOBAL EDGE OUTAGE</text><line x1="-60" y1="50" x2="60" y2="50" stroke="#E63946" stroke-width="0.8" stroke-opacity="0.5"/><rect x="-76" y="-56" width="14" height="2" rx="1" fill="#E63946" opacity="0.7"><animate attributeName="opacity" values="0.3;1;0.3" dur="1.6s" repeatCount="indefinite"/></rect><rect x="62" y="-56" width="14" height="2" rx="1" fill="#E63946" opacity="0.7"><animate attributeName="opacity" values="0.3;1;0.3" dur="1.7s" begin="0.5s" repeatCount="indefinite"/></rect><circle cx="0" cy="-48" r="2.4" fill="#E63946"><animate attributeName="opacity" values="0.25;1;0.25" dur="2s" repeatCount="indefinite"/></circle></g>
<g transform="translate(54,520)"><rect x="0" y="0" width="96" height="26" rx="13" fill="#0A0C16" stroke="#F87171" stroke-width="1.2" opacity="0.9"/><text x="48" y="17" text-anchor="middle" font-family="Inter, Helvetica, Arial, sans-serif" font-size="11" font-weight="700" fill="#F87171" letter-spacing="1.5">CLOUDFLARE</text></g><g transform="translate(162,520)"><rect x="0" y="0" width="103" height="26" rx="13" fill="#0A0C16" stroke="#FFD58A" stroke-width="1.2" opacity="0.9"/><text x="51" y="17" text-anchor="middle" font-family="Inter, Helvetica, Arial, sans-serif" font-size="11" font-weight="700" fill="#FFD58A" letter-spacing="1.5">POST-MORTEM</text></g><g transform="translate(277,520)"><rect x="0" y="0" width="146" height="26" rx="13" fill="#0A0C16" stroke="#F87171" stroke-width="1.2" opacity="0.9"/><text x="73" y="17" text-anchor="middle" font-family="Inter, Helvetica, Arial, sans-serif" font-size="11" font-weight="700" fill="#F87171" letter-spacing="1.5">INCIDENT-RESPONSE</text></g><g transform="translate(435,520)"><rect x="0" y="0" width="70" height="26" rx="13" fill="#0A0C16" stroke="#60A5FA" stroke-width="1.2" opacity="0.9"/><text x="35" y="17" text-anchor="middle" font-family="Inter, Helvetica, Arial, sans-serif" font-size="11" font-weight="700" fill="#60A5FA" letter-spacing="1.5">CDN</text></g><g transform="translate(517,520)"><rect x="0" y="0" width="70" height="26" rx="13" fill="#0A0C16" stroke="#C4B5FD" stroke-width="1.2" opacity="0.9"/><text x="35" y="17" text-anchor="middle" font-family="Inter, Helvetica, Arial, sans-serif" font-size="11" font-weight="700" fill="#C4B5FD" letter-spacing="1.5">SRE</text></g>
<g transform="translate(54,562)"><rect x="0" y="0" width="320" height="52" rx="6" fill="#0A0C16" stroke="#E63946" stroke-width="1.2" opacity="0.85"/><text x="14" y="34" font-family="Inter, Helvetica, Arial, sans-serif" font-size="22" font-weight="800" fill="#F5F7FA">6h 12m</text><text x="306" y="22" text-anchor="end" font-family="Inter, Helvetica, Arial, sans-serif" font-size="10" font-weight="700" fill="#F87171" letter-spacing="2">DURATION</text></g><g transform="translate(397,562)"><rect x="0" y="0" width="320" height="52" rx="6" fill="#0A0C16" stroke="#E63946" stroke-width="1.2" opacity="0.85"/><text x="14" y="34" font-family="Inter, Helvetica, Arial, sans-serif" font-size="22" font-weight="800" fill="#F5F7FA">GLOBAL</text><text x="306" y="22" text-anchor="end" font-family="Inter, Helvetica, Arial, sans-serif" font-size="10" font-weight="700" fill="#F87171" letter-spacing="2">AFFECTED</text></g><g transform="translate(740,562)"><rect x="0" y="0" width="320" height="52" rx="6" fill="#0A0C16" stroke="#E63946" stroke-width="1.2" opacity="0.85"/><text x="14" y="34" font-family="Inter, Helvetica, Arial, sans-serif" font-size="22" font-weight="800" fill="#F5F7FA">MULTI-PoP</text><text x="306" y="22" text-anchor="end" font-family="Inter, Helvetica, Arial, sans-serif" font-size="10" font-weight="700" fill="#F87171" letter-spacing="2">REGION</text></g>
<g transform="translate(1080,504)" filter="url(#softShadow)">
  <rect x="-8" y="-8" width="100" height="100" rx="6" fill="#FFFFFF"/>
  <path fill="#0A1020" d="M0.0 0.0h13.067v1.867h-13.067z M14.933 0.0h1.867v1.867h-1.867z M20.533 0.0h1.867v1.867h-1.867z M24.267 0.0h1.867v1.867h-1.867z M29.867 0.0h3.733v1.867h-3.733z M46.667 0.0h1.867v1.867h-1.867z M50.4 0.0h1.867v1.867h-1.867z M54.133 0.0h3.733v1.867h-3.733z M59.733 0.0h1.867v1.867h-1.867z M67.2 0.0h1.867v1.867h-1.867z M70.933 0.0h13.067v1.867h-13.067z M0.0 1.867h1.867v1.867h-1.867z M11.2 1.867h1.867v1.867h-1.867z M14.933 1.867h3.733v1.867h-3.733z M20.533 1.867h1.867v1.867h-1.867z M26.133 1.867h9.333v1.867h-9.333z M37.333 1.867h3.733v1.867h-3.733z M50.4 1.867h3.733v1.867h-3.733z M56.0 1.867h1.867v1.867h-1.867z M59.733 1.867h1.867v1.867h-1.867z M65.333 1.867h1.867v1.867h-1.867z M70.933 1.867h1.867v1.867h-1.867z M82.133 1.867h1.867v1.867h-1.867z M0.0 3.733h1.867v1.867h-1.867z M3.733 3.733h5.6v1.867h-5.6z M11.2 3.733h1.867v1.867h-1.867z M18.667 3.733h7.467v1.867h-7.467z M31.733 3.733h1.867v1.867h-1.867z M35.467 3.733h1.867v1.867h-1.867z M39.2 3.733h3.733v1.867h-3.733z M44.8 3.733h1.867v1.867h-1.867z M52.267 3.733h9.333v1.867h-9.333z M65.333 3.733h1.867v1.867h-1.867z M70.933 3.733h1.867v1.867h-1.867z M74.667 3.733h5.6v1.867h-5.6z M82.133 3.733h1.867v1.867h-1.867z M0.0 5.6h1.867v1.867h-1.867z M3.733 5.6h5.6v1.867h-5.6z M11.2 5.6h1.867v1.867h-1.867z M14.933 5.6h1.867v1.867h-1.867z M22.4 5.6h1.867v1.867h-1.867z M26.133 5.6h1.867v1.867h-1.867z M29.867 5.6h14.933v1.867h-14.933z M54.133 5.6h1.867v1.867h-1.867z M57.867 5.6h1.867v1.867h-1.867z M65.333 5.6h3.733v1.867h-3.733z M70.933 5.6h1.867v1.867h-1.867z M74.667 5.6h5.6v1.867h-5.6z M82.133 5.6h1.867v1.867h-1.867z M0.0 7.467h1.867v1.867h-1.867z M3.733 7.467h5.6v1.867h-5.6z M11.2 7.467h1.867v1.867h-1.867z M24.267 7.467h1.867v1.867h-1.867z M28.0 7.467h1.867v1.867h-1.867z M31.733 7.467h20.533v1.867h-20.533z M57.867 7.467h1.867v1.867h-1.867z M61.6 7.467h7.467v1.867h-7.467z M70.933 7.467h1.867v1.867h-1.867z M74.667 7.467h5.6v1.867h-5.6z M82.133 7.467h1.867v1.867h-1.867z M0.0 9.333h1.867v1.867h-1.867z M11.2 9.333h1.867v1.867h-1.867z M20.533 9.333h1.867v1.867h-1.867z M31.733 9.333h7.467v1.867h-7.467z M44.8 9.333h1.867v1.867h-1.867z M50.4 9.333h1.867v1.867h-1.867z M54.133 9.333h1.867v1.867h-1.867z M59.733 9.333h3.733v1.867h-3.733z M70.933 9.333h1.867v1.867h-1.867z M82.133 9.333h1.867v1.867h-1.867z M0.0 11.2h13.067v1.867h-13.067z M14.933 11.2h1.867v1.867h-1.867z M18.667 11.2h1.867v1.867h-1.867z M22.4 11.2h1.867v1.867h-1.867z M26.133 11.2h1.867v1.867h-1.867z M29.867 11.2h1.867v1.867h-1.867z M33.6 11.2h1.867v1.867h-1.867z M37.333 11.2h1.867v1.867h-1.867z M41.067 11.2h1.867v1.867h-1.867z M44.8 11.2h1.867v1.867h-1.867z M48.533 11.2h1.867v1.867h-1.867z M52.267 11.2h1.867v1.867h-1.867z M56.0 11.2h1.867v1.867h-1.867z M59.733 11.2h1.867v1.867h-1.867z M63.467 11.2h1.867v1.867h-1.867z M67.2 11.2h1.867v1.867h-1.867z M70.933 11.2h13.067v1.867h-13.067z M14.933 13.067h5.6v1.867h-5.6z M24.267 13.067h7.467v1.867h-7.467z M33.6 13.067h5.6v1.867h-5.6z M44.8 13.067h1.867v1.867h-1.867z M48.533 13.067h1.867v1.867h-1.867z M52.267 13.067h3.733v1.867h-3.733z M61.6 13.067h1.867v1.867h-1.867z M67.2 13.067h1.867v1.867h-1.867z M0.0 14.933h1.867v1.867h-1.867z M3.733 14.933h3.733v1.867h-3.733z M9.333 14.933h5.6v1.867h-5.6z M16.8 14.933h1.867v1.867h-1.867z M24.267 14.933h7.467v1.867h-7.467z M37.333 14.933h9.333v1.867h-9.333z M50.4 14.933h5.6v1.867h-5.6z M63.467 14.933h1.867v1.867h-1.867z M67.2 14.933h1.867v1.867h-1.867z M70.933 14.933h1.867v1.867h-1.867z M76.533 14.933h1.867v1.867h-1.867z M80.267 14.933h3.733v1.867h-3.733z M0.0 16.8h1.867v1.867h-1.867z M3.733 16.8h7.467v1.867h-7.467z M16.8 16.8h7.467v1.867h-7.467z M33.6 16.8h5.6v1.867h-5.6z M41.067 16.8h3.733v1.867h-3.733z M46.667 16.8h1.867v1.867h-1.867z M50.4 16.8h7.467v1.867h-7.467z M65.333 16.8h3.733v1.867h-3.733z M74.667 16.8h9.333v1.867h-9.333z M0.0 18.667h7.467v1.867h-7.467z M9.333 18.667h9.333v1.867h-9.333z M22.4 18.667h7.467v1.867h-7.467z M31.733 18.667h1.867v1.867h-1.867z M39.2 18.667h3.733v1.867h-3.733z M56.0 18.667h3.733v1.867h-3.733z M63.467 18.667h3.733v1.867h-3.733z M69.067 18.667h1.867v1.867h-1.867z M76.533 18.667h1.867v1.867h-1.867z M80.267 18.667h3.733v1.867h-3.733z M0.0 20.533h5.6v1.867h-5.6z M7.467 20.533h3.733v1.867h-3.733z M13.067 20.533h5.6v1.867h-5.6z M20.533 20.533h3.733v1.867h-3.733z M26.133 20.533h3.733v1.867h-3.733z M35.467 20.533h1.867v1.867h-1.867z M39.2 20.533h5.6v1.867h-5.6z M48.533 20.533h3.733v1.867h-3.733z M54.133 20.533h1.867v1.867h-1.867z M57.867 20.533h3.733v1.867h-3.733z M63.467 20.533h7.467v1.867h-7.467z M72.8 20.533h1.867v1.867h-1.867z M76.533 20.533h1.867v1.867h-1.867z M80.267 20.533h1.867v1.867h-1.867z M11.2 22.4h1.867v1.867h-1.867z M16.8 22.4h1.867v1.867h-1.867z M26.133 22.4h1.867v1.867h-1.867z M29.867 22.4h5.6v1.867h-5.6z M39.2 22.4h1.867v1.867h-1.867z M44.8 22.4h3.733v1.867h-3.733z M54.133 22.4h1.867v1.867h-1.867z M65.333 22.4h1.867v1.867h-1.867z M76.533 22.4h1.867v1.867h-1.867z M82.133 22.4h1.867v1.867h-1.867z M0.0 24.267h1.867v1.867h-1.867z M3.733 24.267h5.6v1.867h-5.6z M16.8 24.267h1.867v1.867h-1.867z M31.733 24.267h7.467v1.867h-7.467z M46.667 24.267h5.6v1.867h-5.6z M57.867 24.267h3.733v1.867h-3.733z M65.333 24.267h1.867v1.867h-1.867z M70.933 24.267h3.733v1.867h-3.733z M76.533 24.267h1.867v1.867h-1.867z M80.267 24.267h1.867v1.867h-1.867z M1.867 26.133h1.867v1.867h-1.867z M11.2 26.133h1.867v1.867h-1.867z M14.933 26.133h5.6v1.867h-5.6z M24.267 26.133h1.867v1.867h-1.867z M29.867 26.133h1.867v1.867h-1.867z M35.467 26.133h3.733v1.867h-3.733z M42.933 26.133h1.867v1.867h-1.867z M46.667 26.133h3.733v1.867h-3.733z M52.267 26.133h3.733v1.867h-3.733z M57.867 26.133h5.6v1.867h-5.6z M65.333 26.133h3.733v1.867h-3.733z M70.933 26.133h7.467v1.867h-7.467z M1.867 28.0h1.867v1.867h-1.867z M9.333 28.0h1.867v1.867h-1.867z M16.8 28.0h1.867v1.867h-1.867z M24.267 28.0h7.467v1.867h-7.467z M35.467 28.0h1.867v1.867h-1.867z M44.8 28.0h16.8v1.867h-16.8z M63.467 28.0h3.733v1.867h-3.733z M70.933 28.0h1.867v1.867h-1.867z M74.667 28.0h1.867v1.867h-1.867z M78.4 28.0h1.867v1.867h-1.867z M82.133 28.0h1.867v1.867h-1.867z M3.733 29.867h5.6v1.867h-5.6z M11.2 29.867h1.867v1.867h-1.867z M14.933 29.867h5.6v1.867h-5.6z M24.267 29.867h9.333v1.867h-9.333z M35.467 29.867h1.867v1.867h-1.867z M41.067 29.867h1.867v1.867h-1.867z M44.8 29.867h3.733v1.867h-3.733z M50.4 29.867h1.867v1.867h-1.867z M54.133 29.867h1.867v1.867h-1.867z M59.733 29.867h5.6v1.867h-5.6z M67.2 29.867h1.867v1.867h-1.867z M70.933 29.867h1.867v1.867h-1.867z M78.4 29.867h3.733v1.867h-3.733z M9.333 31.733h1.867v1.867h-1.867z M13.067 31.733h1.867v1.867h-1.867z M18.667 31.733h3.733v1.867h-3.733z M26.133 31.733h3.733v1.867h-3.733z M31.733 31.733h5.6v1.867h-5.6z M41.067 31.733h1.867v1.867h-1.867z M44.8 31.733h1.867v1.867h-1.867z M50.4 31.733h1.867v1.867h-1.867z M54.133 31.733h1.867v1.867h-1.867z M57.867 31.733h9.333v1.867h-9.333z M72.8 31.733h5.6v1.867h-5.6z M82.133 31.733h1.867v1.867h-1.867z M0.0 33.6h3.733v1.867h-3.733z M7.467 33.6h5.6v1.867h-5.6z M14.933 33.6h1.867v1.867h-1.867z M18.667 33.6h1.867v1.867h-1.867z M22.4 33.6h7.467v1.867h-7.467z M31.733 33.6h7.467v1.867h-7.467z M41.067 33.6h5.6v1.867h-5.6z M48.533 33.6h1.867v1.867h-1.867z M54.133 33.6h1.867v1.867h-1.867z M57.867 33.6h3.733v1.867h-3.733z M63.467 33.6h3.733v1.867h-3.733z M69.067 33.6h1.867v1.867h-1.867z M72.8 33.6h1.867v1.867h-1.867z M78.4 33.6h1.867v1.867h-1.867z M1.867 35.467h5.6v1.867h-5.6z M14.933 35.467h3.733v1.867h-3.733z M20.533 35.467h13.067v1.867h-13.067z M37.333 35.467h3.733v1.867h-3.733z M42.933 35.467h1.867v1.867h-1.867z M46.667 35.467h1.867v1.867h-1.867z M52.267 35.467h3.733v1.867h-3.733z M67.2 35.467h1.867v1.867h-1.867z M70.933 35.467h5.6v1.867h-5.6z M80.267 35.467h1.867v1.867h-1.867z M1.867 37.333h14.933v1.867h-14.933z M20.533 37.333h1.867v1.867h-1.867z M28.0 37.333h5.6v1.867h-5.6z M35.467 37.333h11.2v1.867h-11.2z M48.533 37.333h1.867v1.867h-1.867z M52.267 37.333h1.867v1.867h-1.867z M61.6 37.333h1.867v1.867h-1.867z M67.2 37.333h11.2v1.867h-11.2z M82.133 37.333h1.867v1.867h-1.867z M0.0 39.2h5.6v1.867h-5.6z M7.467 39.2h1.867v1.867h-1.867z M14.933 39.2h5.6v1.867h-5.6z M24.267 39.2h1.867v1.867h-1.867z M28.0 39.2h1.867v1.867h-1.867z M35.467 39.2h3.733v1.867h-3.733z M44.8 39.2h3.733v1.867h-3.733z M50.4 39.2h1.867v1.867h-1.867z M54.133 39.2h3.733v1.867h-3.733z M65.333 39.2h3.733v1.867h-3.733z M74.667 39.2h9.333v1.867h-9.333z M1.867 41.067h1.867v1.867h-1.867z M7.467 41.067h1.867v1.867h-1.867z M11.2 41.067h1.867v1.867h-1.867z M14.933 41.067h1.867v1.867h-1.867z M18.667 41.067h1.867v1.867h-1.867z M22.4 41.067h3.733v1.867h-3.733z M28.0 41.067h3.733v1.867h-3.733z M33.6 41.067h1.867v1.867h-1.867z M37.333 41.067h1.867v1.867h-1.867z M41.067 41.067h1.867v1.867h-1.867z M44.8 41.067h1.867v1.867h-1.867z M48.533 41.067h3.733v1.867h-3.733z M54.133 41.067h5.6v1.867h-5.6z M63.467 41.067h1.867v1.867h-1.867z M67.2 41.067h1.867v1.867h-1.867z M70.933 41.067h1.867v1.867h-1.867z M74.667 41.067h3.733v1.867h-3.733z M80.267 41.067h3.733v1.867h-3.733z M1.867 42.933h7.467v1.867h-7.467z M14.933 42.933h1.867v1.867h-1.867z M18.667 42.933h3.733v1.867h-3.733z M26.133 42.933h5.6v1.867h-5.6z M33.6 42.933h5.6v1.867h-5.6z M44.8 42.933h1.867v1.867h-1.867z M50.4 42.933h1.867v1.867h-1.867z M57.867 42.933h7.467v1.867h-7.467z M67.2 42.933h1.867v1.867h-1.867z M74.667 42.933h3.733v1.867h-3.733z M82.133 42.933h1.867v1.867h-1.867z M1.867 44.8h1.867v1.867h-1.867z M7.467 44.8h9.333v1.867h-9.333z M18.667 44.8h14.933v1.867h-14.933z M37.333 44.8h13.067v1.867h-13.067z M57.867 44.8h1.867v1.867h-1.867z M65.333 44.8h13.067v1.867h-13.067z M5.6 46.667h1.867v1.867h-1.867z M24.267 46.667h3.733v1.867h-3.733z M31.733 46.667h1.867v1.867h-1.867z M35.467 46.667h3.733v1.867h-3.733z M41.067 46.667h1.867v1.867h-1.867z M46.667 46.667h3.733v1.867h-3.733z M61.6 46.667h1.867v1.867h-1.867z M67.2 46.667h3.733v1.867h-3.733z M76.533 46.667h1.867v1.867h-1.867z M1.867 48.533h16.8v1.867h-16.8z M20.533 48.533h1.867v1.867h-1.867z M26.133 48.533h3.733v1.867h-3.733z M33.6 48.533h7.467v1.867h-7.467z M44.8 48.533h9.333v1.867h-9.333z M56.0 48.533h1.867v1.867h-1.867z M65.333 48.533h1.867v1.867h-1.867z M76.533 48.533h3.733v1.867h-3.733z M0.0 50.4h3.733v1.867h-3.733z M5.6 50.4h1.867v1.867h-1.867z M9.333 50.4h1.867v1.867h-1.867z M13.067 50.4h1.867v1.867h-1.867z M18.667 50.4h1.867v1.867h-1.867z M28.0 50.4h1.867v1.867h-1.867z M31.733 50.4h3.733v1.867h-3.733z M37.333 50.4h1.867v1.867h-1.867z M44.8 50.4h11.2v1.867h-11.2z M57.867 50.4h5.6v1.867h-5.6z M65.333 50.4h1.867v1.867h-1.867z M69.067 50.4h5.6v1.867h-5.6z M78.4 50.4h3.733v1.867h-3.733z M1.867 52.267h1.867v1.867h-1.867z M5.6 52.267h7.467v1.867h-7.467z M18.667 52.267h3.733v1.867h-3.733z M29.867 52.267h1.867v1.867h-1.867z M33.6 52.267h7.467v1.867h-7.467z M42.933 52.267h5.6v1.867h-5.6z M50.4 52.267h1.867v1.867h-1.867z M56.0 52.267h1.867v1.867h-1.867z M59.733 52.267h3.733v1.867h-3.733z M65.333 52.267h3.733v1.867h-3.733z M72.8 52.267h7.467v1.867h-7.467z M3.733 54.133h3.733v1.867h-3.733z M9.333 54.133h1.867v1.867h-1.867z M13.067 54.133h13.067v1.867h-13.067z M29.867 54.133h5.6v1.867h-5.6z M37.333 54.133h9.333v1.867h-9.333z M52.267 54.133h3.733v1.867h-3.733z M63.467 54.133h3.733v1.867h-3.733z M69.067 54.133h7.467v1.867h-7.467z M80.267 54.133h3.733v1.867h-3.733z M0.0 56.0h5.6v1.867h-5.6z M7.467 56.0h5.6v1.867h-5.6z M20.533 56.0h1.867v1.867h-1.867z M28.0 56.0h3.733v1.867h-3.733z M37.333 56.0h5.6v1.867h-5.6z M46.667 56.0h9.333v1.867h-9.333z M61.6 56.0h3.733v1.867h-3.733z M67.2 56.0h1.867v1.867h-1.867z M72.8 56.0h1.867v1.867h-1.867z M76.533 56.0h5.6v1.867h-5.6z M9.333 57.867h1.867v1.867h-1.867z M13.067 57.867h7.467v1.867h-7.467z M26.133 57.867h5.6v1.867h-5.6z M33.6 57.867h1.867v1.867h-1.867z M39.2 57.867h1.867v1.867h-1.867z M48.533 57.867h1.867v1.867h-1.867z M61.6 57.867h1.867v1.867h-1.867z M80.267 57.867h3.733v1.867h-3.733z M7.467 59.733h1.867v1.867h-1.867z M11.2 59.733h3.733v1.867h-3.733z M16.8 59.733h1.867v1.867h-1.867z M22.4 59.733h1.867v1.867h-1.867z M26.133 59.733h1.867v1.867h-1.867z M33.6 59.733h3.733v1.867h-3.733z M39.2 59.733h5.6v1.867h-5.6z M46.667 59.733h13.067v1.867h-13.067z M61.6 59.733h3.733v1.867h-3.733z M67.2 59.733h3.733v1.867h-3.733z M76.533 59.733h1.867v1.867h-1.867z M0.0 61.6h11.2v1.867h-11.2z M13.067 61.6h7.467v1.867h-7.467z M24.267 61.6h5.6v1.867h-5.6z M31.733 61.6h1.867v1.867h-1.867z M35.467 61.6h13.067v1.867h-13.067z M52.267 61.6h5.6v1.867h-5.6z M70.933 61.6h1.867v1.867h-1.867z M76.533 61.6h1.867v1.867h-1.867z M80.267 61.6h1.867v1.867h-1.867z M7.467 63.467h1.867v1.867h-1.867z M11.2 63.467h1.867v1.867h-1.867z M14.933 63.467h1.867v1.867h-1.867z M22.4 63.467h3.733v1.867h-3.733z M28.0 63.467h3.733v1.867h-3.733z M33.6 63.467h1.867v1.867h-1.867z M37.333 63.467h9.333v1.867h-9.333z M50.4 63.467h7.467v1.867h-7.467z M63.467 63.467h3.733v1.867h-3.733z M70.933 63.467h1.867v1.867h-1.867z M74.667 63.467h1.867v1.867h-1.867z M78.4 63.467h5.6v1.867h-5.6z M1.867 65.333h7.467v1.867h-7.467z M20.533 65.333h7.467v1.867h-7.467z M31.733 65.333h3.733v1.867h-3.733z M37.333 65.333h1.867v1.867h-1.867z M42.933 65.333h1.867v1.867h-1.867z M48.533 65.333h3.733v1.867h-3.733z M54.133 65.333h5.6v1.867h-5.6z M61.6 65.333h5.6v1.867h-5.6z M70.933 65.333h1.867v1.867h-1.867z M74.667 65.333h3.733v1.867h-3.733z M0.0 67.2h1.867v1.867h-1.867z M5.6 67.2h3.733v1.867h-3.733z M11.2 67.2h3.733v1.867h-3.733z M22.4 67.2h1.867v1.867h-1.867z M26.133 67.2h5.6v1.867h-5.6z M35.467 67.2h11.2v1.867h-11.2z M54.133 67.2h1.867v1.867h-1.867z M57.867 67.2h1.867v1.867h-1.867z M67.2 67.2h14.933v1.867h-14.933z M14.933 69.067h5.6v1.867h-5.6z M22.4 69.067h3.733v1.867h-3.733z M35.467 69.067h3.733v1.867h-3.733z M44.8 69.067h9.333v1.867h-9.333z M57.867 69.067h1.867v1.867h-1.867z M61.6 69.067h1.867v1.867h-1.867z M67.2 69.067h1.867v1.867h-1.867z M74.667 69.067h1.867v1.867h-1.867z M80.267 69.067h1.867v1.867h-1.867z M0.0 70.933h13.067v1.867h-13.067z M14.933 70.933h7.467v1.867h-7.467z M24.267 70.933h3.733v1.867h-3.733z M37.333 70.933h1.867v1.867h-1.867z M41.067 70.933h1.867v1.867h-1.867z M44.8 70.933h5.6v1.867h-5.6z M52.267 70.933h5.6v1.867h-5.6z M59.733 70.933h9.333v1.867h-9.333z M70.933 70.933h1.867v1.867h-1.867z M74.667 70.933h1.867v1.867h-1.867z M0.0 72.8h1.867v1.867h-1.867z M11.2 72.8h1.867v1.867h-1.867z M14.933 72.8h1.867v1.867h-1.867z M20.533 72.8h3.733v1.867h-3.733z M26.133 72.8h1.867v1.867h-1.867z M31.733 72.8h1.867v1.867h-1.867z M37.333 72.8h1.867v1.867h-1.867z M44.8 72.8h13.067v1.867h-13.067z M59.733 72.8h3.733v1.867h-3.733z M65.333 72.8h3.733v1.867h-3.733z M74.667 72.8h9.333v1.867h-9.333z M0.0 74.667h1.867v1.867h-1.867z M3.733 74.667h5.6v1.867h-5.6z M11.2 74.667h1.867v1.867h-1.867z M18.667 74.667h5.6v1.867h-5.6z M26.133 74.667h9.333v1.867h-9.333z M37.333 74.667h11.2v1.867h-11.2z M50.4 74.667h1.867v1.867h-1.867z M57.867 74.667h7.467v1.867h-7.467z M67.2 74.667h9.333v1.867h-9.333z M78.4 74.667h3.733v1.867h-3.733z M0.0 76.533h1.867v1.867h-1.867z M3.733 76.533h5.6v1.867h-5.6z M11.2 76.533h1.867v1.867h-1.867z M14.933 76.533h9.333v1.867h-9.333z M31.733 76.533h3.733v1.867h-3.733z M37.333 76.533h7.467v1.867h-7.467z M50.4 76.533h1.867v1.867h-1.867z M54.133 76.533h1.867v1.867h-1.867z M57.867 76.533h1.867v1.867h-1.867z M61.6 76.533h3.733v1.867h-3.733z M67.2 76.533h1.867v1.867h-1.867z M70.933 76.533h3.733v1.867h-3.733z M76.533 76.533h3.733v1.867h-3.733z M82.133 76.533h1.867v1.867h-1.867z M0.0 78.4h1.867v1.867h-1.867z M3.733 78.4h5.6v1.867h-5.6z M11.2 78.4h1.867v1.867h-1.867z M14.933 78.4h1.867v1.867h-1.867z M18.667 78.4h1.867v1.867h-1.867z M24.267 78.4h1.867v1.867h-1.867z M28.0 78.4h1.867v1.867h-1.867z M31.733 78.4h1.867v1.867h-1.867z M35.467 78.4h7.467v1.867h-7.467z M44.8 78.4h1.867v1.867h-1.867z M48.533 78.4h1.867v1.867h-1.867z M52.267 78.4h7.467v1.867h-7.467z M61.6 78.4h13.067v1.867h-13.067z M76.533 78.4h1.867v1.867h-1.867z M80.267 78.4h1.867v1.867h-1.867z M0.0 80.267h1.867v1.867h-1.867z M11.2 80.267h1.867v1.867h-1.867z M16.8 80.267h3.733v1.867h-3.733z M39.2 80.267h3.733v1.867h-3.733z M44.8 80.267h1.867v1.867h-1.867z M48.533 80.267h1.867v1.867h-1.867z M52.267 80.267h1.867v1.867h-1.867z M57.867 80.267h1.867v1.867h-1.867z M61.6 80.267h5.6v1.867h-5.6z M69.067 80.267h9.333v1.867h-9.333z M82.133 80.267h1.867v1.867h-1.867z M0.0 82.133h13.067v1.867h-13.067z M14.933 82.133h1.867v1.867h-1.867z M20.533 82.133h1.867v1.867h-1.867z M24.267 82.133h1.867v1.867h-1.867z M28.0 82.133h3.733v1.867h-3.733z M39.2 82.133h1.867v1.867h-1.867z M42.933 82.133h1.867v1.867h-1.867z M46.667 82.133h13.067v1.867h-13.067z M61.6 82.133h1.867v1.867h-1.867z M69.067 82.133h1.867v1.867h-1.867z M72.8 82.133h1.867v1.867h-1.867z M76.533 82.133h3.733v1.867h-3.733z"/>
</g>
<text x="1122" y="614" font-family="Inter, Helvetica, Arial, sans-serif" font-size="10" font-weight="700" fill="#F5F7FA" text-anchor="middle">scan / full post</text>
</svg>
