<svg xmlns="http://www.w3.org/2000/svg" viewBox="0 0 1200 630" width="1200" height="630" role="img" aria-label="kubernetes Kubernetes Minikube K9s">
<title>Kubernetes Minikube K9s</title>
<!-- profile: high-quality-cover (2025 upgraded L25-single) -->
<defs>
    <linearGradient id="bgSpreadXEF29" x1="0%" y1="0%" x2="100%" y2="100%">
      <stop offset="0%" stop-color="#0b1120"/>
      <stop offset="52%" stop-color="#121a2f"/>
      <stop offset="100%" stop-color="#170f25"/>
    </linearGradient>
    <linearGradient id="heroPanelXEF29" x1="0%" y1="0%" x2="100%" y2="100%">
      <stop offset="0%" stop-color="#0f172a" stop-opacity="0.96"/>
      <stop offset="100%" stop-color="#111827" stop-opacity="0.86"/>
    </linearGradient>
    <pattern id="microGridXEF29" x="0" y="0" width="36" height="36" patternUnits="userSpaceOnUse">
      <path d="M36 0H0V36" fill="none" stroke="#334155" stroke-width="1" opacity="0.25"/>
      <circle cx="18" cy="18" r="1.2" fill="#22d3ee" opacity="0.18"/>
    </pattern>
    <filter id="sgBlur" x="-30%" y="-30%" width="160%" height="160%">
      <feGaussianBlur stdDeviation="36"/>
    </filter>
    <filter id="singleShadow" x="-30%" y="-30%" width="180%" height="180%">
      <feDropShadow dx="0" dy="14" stdDeviation="22" flood-color="#020617" flood-opacity="0.42"/>
    </filter>
  </defs>
<rect width="1200" height="630" fill="url(#bgSpreadXEF29)"/>
<rect width="1200" height="630" fill="url(#microGridXEF29)"/>
<circle cx="202" cy="150" r="190" fill="#22d3ee" opacity="0.08" filter="url(#sgBlur)"/>
  <circle cx="1020" cy="486" r="220" fill="#0891b2" opacity="0.08" filter="url(#sgBlur)"/>
  <circle cx="920" cy="160" r="140" fill="#a78bfa" opacity="0.05" filter="url(#sgBlur)"/>
  <path d="M0 96 C224 46 426 44 654 118 L654 630 L0 630 Z" fill="#020617" opacity="0.24"/>
  <path d="M0 526 C248 490 426 486 654 548" fill="none" stroke="#475569" stroke-width="1.2" opacity="0.22"/>
  <path d="M704 148 C792 118 892 122 980 176" fill="none" stroke="#a78bfa" stroke-width="1.3" opacity="0.24"/>
  <path d="M716 430 C804 462 914 458 1010 390" fill="none" stroke="#22d3ee" stroke-width="1.2" opacity="0.22"/>
<rect x="720" y="132" width="388" height="292" rx="28" fill="url(#heroPanelXEF29)" stroke="#22d3ee" stroke-opacity="0.28" stroke-width="1.4" filter="url(#singleShadow)"/>
  <rect x="738" y="150" width="352" height="256" rx="22" fill="none" stroke="#334155" stroke-opacity="0.7" stroke-width="1"/>
  <rect x="742" y="152" width="108" height="12" rx="6" fill="#22d3ee" opacity="0.28"/>
  <rect x="864" y="152" width="72" height="12" rx="6" fill="#334155" opacity="0.55"/>
  <rect x="948" y="152" width="48" height="12" rx="6" fill="#334155" opacity="0.35"/>
<g><rect x="742" y="156" width="6" height="6" fill="#22d3ee" opacity="0.42"/><rect x="750" y="156" width="6" height="6" fill="#22d3ee" opacity="0.42"/><rect x="758" y="156" width="6" height="6" fill="#22d3ee" opacity="0.42"/><rect x="766" y="156" width="6" height="6" fill="#22d3ee" opacity="0.42"/><rect x="782" y="156" width="6" height="6" fill="#22d3ee" opacity="0.42"/><rect x="790" y="156" width="6" height="6" fill="#22d3ee" opacity="0.42"/><rect x="798" y="156" width="6" height="6" fill="#22d3ee" opacity="0.42"/><rect x="742" y="164" width="6" height="6" fill="#22d3ee" opacity="0.42"/><rect x="774" y="164" width="6" height="6" fill="#22d3ee" opacity="0.42"/><rect x="790" y="164" width="6" height="6" fill="#22d3ee" opacity="0.42"/><rect x="798" y="164" width="6" height="6" fill="#22d3ee" opacity="0.42"/><rect x="742" y="172" width="6" height="6" fill="#22d3ee" opacity="0.42"/><rect x="758" y="172" width="6" height="6" fill="#22d3ee" opacity="0.42"/><rect x="774" y="172" width="6" height="6" fill="#22d3ee" opacity="0.42"/><rect x="790" y="172" width="6" height="6" fill="#22d3ee" opacity="0.42"/><rect x="742" y="180" width="6" height="6" fill="#22d3ee" opacity="0.42"/><rect x="774" y="180" width="6" height="6" fill="#22d3ee" opacity="0.42"/><rect x="782" y="180" width="6" height="6" fill="#22d3ee" opacity="0.42"/><rect x="790" y="180" width="6" height="6" fill="#22d3ee" opacity="0.42"/><rect x="798" y="180" width="6" height="6" fill="#22d3ee" opacity="0.42"/><rect x="742" y="188" width="6" height="6" fill="#22d3ee" opacity="0.42"/><rect x="750" y="188" width="6" height="6" fill="#22d3ee" opacity="0.42"/><rect x="758" y="188" width="6" height="6" fill="#22d3ee" opacity="0.42"/><rect x="766" y="188" width="6" height="6" fill="#22d3ee" opacity="0.42"/><rect x="790" y="188" width="6" height="6" fill="#22d3ee" opacity="0.42"/><rect x="798" y="188" width="6" height="6" fill="#22d3ee" opacity="0.42"/><rect x="758" y="196" width="6" height="6" fill="#22d3ee" opacity="0.42"/><rect x="766" y="196" width="6" height="6" fill="#22d3ee" opacity="0.42"/><rect x="774" y="196" width="6" height="6" fill="#22d3ee" opacity="0.42"/><rect x="782" y="196" width="6" height="6" fill="#22d3ee" opacity="0.42"/><rect x="790" y="196" width="6" height="6" fill="#22d3ee" opacity="0.42"/><rect x="742" y="204" width="6" height="6" fill="#22d3ee" opacity="0.42"/><rect x="750" y="204" width="6" height="6" fill="#22d3ee" opacity="0.42"/><rect x="782" y="204" width="6" height="6" fill="#22d3ee" opacity="0.42"/><rect x="790" y="204" width="6" height="6" fill="#22d3ee" opacity="0.42"/><rect x="750" y="212" width="6" height="6" fill="#22d3ee" opacity="0.42"/><rect x="758" y="212" width="6" height="6" fill="#22d3ee" opacity="0.42"/><rect x="774" y="212" width="6" height="6" fill="#22d3ee" opacity="0.42"/><rect x="790" y="212" width="6" height="6" fill="#22d3ee" opacity="0.42"/><rect x="798" y="212" width="6" height="6" fill="#22d3ee" opacity="0.42"/></g>
<circle cx="1010" cy="60" r="1.4" fill="#a78bfa" opacity="0.18"/>
  <circle cx="1024" cy="60" r="1.4" fill="#a78bfa" opacity="0.26"/>
  <circle cx="1038" cy="60" r="1.4" fill="#a78bfa" opacity="0.33999999999999997"/>
  <circle cx="1052" cy="60" r="1.4" fill="#a78bfa" opacity="0.18"/>
  <circle cx="1066" cy="60" r="1.4" fill="#a78bfa" opacity="0.26"/>
  <circle cx="1080" cy="60" r="1.4" fill="#a78bfa" opacity="0.33999999999999997"/>
  <circle cx="1094" cy="60" r="1.4" fill="#a78bfa" opacity="0.18"/>
  <circle cx="1108" cy="60" r="1.4" fill="#a78bfa" opacity="0.26"/>
  <circle cx="1010" cy="72" r="1.4" fill="#a78bfa" opacity="0.18"/>
  <circle cx="1024" cy="72" r="1.4" fill="#a78bfa" opacity="0.26"/>
  <circle cx="1038" cy="72" r="1.4" fill="#a78bfa" opacity="0.33999999999999997"/>
  <circle cx="1052" cy="72" r="1.4" fill="#a78bfa" opacity="0.18"/>
  <circle cx="1066" cy="72" r="1.4" fill="#a78bfa" opacity="0.26"/>
  <circle cx="1080" cy="72" r="1.4" fill="#a78bfa" opacity="0.33999999999999997"/>
  <circle cx="1094" cy="72" r="1.4" fill="#a78bfa" opacity="0.18"/>
  <circle cx="1108" cy="72" r="1.4" fill="#a78bfa" opacity="0.26"/>
  <circle cx="1010" cy="84" r="1.4" fill="#a78bfa" opacity="0.18"/>
  <circle cx="1024" cy="84" r="1.4" fill="#a78bfa" opacity="0.26"/>
  <circle cx="1038" cy="84" r="1.4" fill="#a78bfa" opacity="0.33999999999999997"/>
  <circle cx="1052" cy="84" r="1.4" fill="#a78bfa" opacity="0.18"/>
  <circle cx="1066" cy="84" r="1.4" fill="#a78bfa" opacity="0.26"/>
  <circle cx="1080" cy="84" r="1.4" fill="#a78bfa" opacity="0.33999999999999997"/>
  <circle cx="1094" cy="84" r="1.4" fill="#a78bfa" opacity="0.18"/>
  <circle cx="1108" cy="84" r="1.4" fill="#a78bfa" opacity="0.26"/>
  <circle cx="1010" cy="96" r="1.4" fill="#a78bfa" opacity="0.18"/>
  <circle cx="1024" cy="96" r="1.4" fill="#a78bfa" opacity="0.26"/>
  <circle cx="1038" cy="96" r="1.4" fill="#a78bfa" opacity="0.33999999999999997"/>
  <circle cx="1052" cy="96" r="1.4" fill="#a78bfa" opacity="0.18"/>
  <circle cx="1066" cy="96" r="1.4" fill="#a78bfa" opacity="0.26"/>
  <circle cx="1080" cy="96" r="1.4" fill="#a78bfa" opacity="0.33999999999999997"/>
  <circle cx="1094" cy="96" r="1.4" fill="#a78bfa" opacity="0.18"/>
  <circle cx="1108" cy="96" r="1.4" fill="#a78bfa" opacity="0.26"/>
  <circle cx="1010" cy="108" r="1.4" fill="#a78bfa" opacity="0.18"/>
  <circle cx="1024" cy="108" r="1.4" fill="#a78bfa" opacity="0.26"/>
  <circle cx="1038" cy="108" r="1.4" fill="#a78bfa" opacity="0.33999999999999997"/>
  <circle cx="1052" cy="108" r="1.4" fill="#a78bfa" opacity="0.18"/>
  <circle cx="1066" cy="108" r="1.4" fill="#a78bfa" opacity="0.26"/>
  <circle cx="1080" cy="108" r="1.4" fill="#a78bfa" opacity="0.33999999999999997"/>
  <circle cx="1094" cy="108" r="1.4" fill="#a78bfa" opacity="0.18"/>
  <circle cx="1108" cy="108" r="1.4" fill="#a78bfa" opacity="0.26"/>
  <circle cx="1010" cy="120" r="1.4" fill="#a78bfa" opacity="0.18"/>
  <circle cx="1024" cy="120" r="1.4" fill="#a78bfa" opacity="0.26"/>
  <circle cx="1038" cy="120" r="1.4" fill="#a78bfa" opacity="0.33999999999999997"/>
  <circle cx="1052" cy="120" r="1.4" fill="#a78bfa" opacity="0.18"/>
  <circle cx="1066" cy="120" r="1.4" fill="#a78bfa" opacity="0.26"/>
  <circle cx="1080" cy="120" r="1.4" fill="#a78bfa" opacity="0.33999999999999997"/>
  <circle cx="1094" cy="120" r="1.4" fill="#a78bfa" opacity="0.18"/>
  <circle cx="1108" cy="120" r="1.4" fill="#a78bfa" opacity="0.26"/>
<text x="842" y="202" font-family="Arial,sans-serif" font-size="9" font-weight="700" fill="#a78bfa" text-anchor="middle" opacity="0.7">01</text>
  <text x="988" y="202" font-family="Arial,sans-serif" font-size="9" font-weight="700" fill="#a78bfa" text-anchor="middle" opacity="0.7">02</text>
  <text x="842" y="360" font-family="Arial,sans-serif" font-size="9" font-weight="700" fill="#a78bfa" text-anchor="middle" opacity="0.7">03</text>
  <text x="988" y="360" font-family="Arial,sans-serif" font-size="9" font-weight="700" fill="#a78bfa" text-anchor="middle" opacity="0.7">04</text>
  <text x="914" y="192" font-family="Arial,sans-serif" font-size="9" font-weight="700" fill="#a78bfa" text-anchor="middle" opacity="0.7">PRI</text>
  <text x="914" y="372" font-family="Arial,sans-serif" font-size="9" font-weight="700" fill="#a78bfa" text-anchor="middle" opacity="0.7">SEC</text>
<text x="740" y="392" font-family="Arial,sans-serif" font-size="9" font-weight="700" fill="#94a3b8" opacity="0.7">STATUS</text>
  <text x="810" y="392" font-family="Arial,sans-serif" font-size="9" font-weight="700" fill="#94a3b8" opacity="0.7">OK</text>
  <text x="740" y="410" font-family="Arial,sans-serif" font-size="9" font-weight="700" fill="#94a3b8" opacity="0.7">REGION</text>
  <text x="810" y="410" font-family="Arial,sans-serif" font-size="9" font-weight="700" fill="#94a3b8" opacity="0.7">ASIA</text>
  <text x="900" y="392" font-family="Arial,sans-serif" font-size="9" font-weight="700" fill="#94a3b8" opacity="0.7">VERSION</text>
  <text x="980" y="392" font-family="Arial,sans-serif" font-size="9" font-weight="700" fill="#94a3b8" opacity="0.7">v1</text>
  <text x="900" y="410" font-family="Arial,sans-serif" font-size="9" font-weight="700" fill="#94a3b8" opacity="0.7">BUILD</text>
  <text x="980" y="410" font-family="Arial,sans-serif" font-size="9" font-weight="700" fill="#94a3b8" opacity="0.7">STAB</text>
<text x="40" y="380" font-family="Arial,sans-serif" font-size="8" font-weight="700" fill="#475569" opacity="0.7" text-anchor="middle">00</text>
  <text x="40" y="410" font-family="Arial,sans-serif" font-size="8" font-weight="700" fill="#475569" opacity="0.7" text-anchor="middle">01</text>
  <text x="40" y="440" font-family="Arial,sans-serif" font-size="8" font-weight="700" fill="#475569" opacity="0.7" text-anchor="middle">02</text>
  <text x="40" y="470" font-family="Arial,sans-serif" font-size="8" font-weight="700" fill="#475569" opacity="0.7" text-anchor="middle">03</text>
  <text x="40" y="500" font-family="Arial,sans-serif" font-size="8" font-weight="700" fill="#475569" opacity="0.7" text-anchor="middle">04</text>
  <text x="1160" y="380" font-family="Arial,sans-serif" font-size="8" font-weight="700" fill="#475569" opacity="0.7" text-anchor="middle">OK</text>
  <text x="1160" y="410" font-family="Arial,sans-serif" font-size="8" font-weight="700" fill="#475569" opacity="0.7" text-anchor="middle">RUN</text>
  <text x="1160" y="440" font-family="Arial,sans-serif" font-size="8" font-weight="700" fill="#475569" opacity="0.7" text-anchor="middle">OK</text>
  <text x="1160" y="470" font-family="Arial,sans-serif" font-size="8" font-weight="700" fill="#475569" opacity="0.7" text-anchor="middle">RUN</text>
<text x="740" y="268" font-family="Arial,sans-serif" font-size="9" font-weight="700" fill="#94a3b8" opacity="0.75">STAGE</text>
  <text x="796" y="268" font-family="Arial,sans-serif" font-size="9" font-weight="700" fill="#a78bfa" opacity="0.85">01</text>
  <text x="740" y="286" font-family="Arial,sans-serif" font-size="9" font-weight="700" fill="#94a3b8" opacity="0.75">SCOPE</text>
  <text x="796" y="286" font-family="Arial,sans-serif" font-size="9" font-weight="700" fill="#a78bfa" opacity="0.85">GLOBAL</text>
  <text x="740" y="304" font-family="Arial,sans-serif" font-size="9" font-weight="700" fill="#94a3b8" opacity="0.75">ZONE</text>
  <text x="796" y="304" font-family="Arial,sans-serif" font-size="9" font-weight="700" fill="#a78bfa" opacity="0.85">AP-NE</text>
  <text x="900" y="268" font-family="Arial,sans-serif" font-size="9" font-weight="700" fill="#94a3b8" opacity="0.75">TIER</text>
  <text x="956" y="268" font-family="Arial,sans-serif" font-size="9" font-weight="700" fill="#a78bfa" opacity="0.85">HQ</text>
  <text x="900" y="286" font-family="Arial,sans-serif" font-size="9" font-weight="700" fill="#94a3b8" opacity="0.75">DEPTH</text>
  <text x="956" y="286" font-family="Arial,sans-serif" font-size="9" font-weight="700" fill="#a78bfa" opacity="0.85">L2</text>
  <text x="900" y="304" font-family="Arial,sans-serif" font-size="9" font-weight="700" fill="#94a3b8" opacity="0.75">FANOUT</text>
  <text x="956" y="304" font-family="Arial,sans-serif" font-size="9" font-weight="700" fill="#a78bfa" opacity="0.85">x4</text>
  <text x="740" y="332" font-family="Arial,sans-serif" font-size="9" font-weight="700" fill="#94a3b8" opacity="0.75">INDEX</text>
  <text x="796" y="332" font-family="Arial,sans-serif" font-size="9" font-weight="700" fill="#a78bfa" opacity="0.85">00</text>
  <text x="900" y="332" font-family="Arial,sans-serif" font-size="9" font-weight="700" fill="#94a3b8" opacity="0.75">DRIFT</text>
  <text x="956" y="332" font-family="Arial,sans-serif" font-size="9" font-weight="700" fill="#a78bfa" opacity="0.85">0.0</text>
<g transform="translate(914,278)" filter="url(#singleShadow)">
    <circle r="124" fill="none" stroke="#22d3ee" stroke-opacity="0.18" stroke-width="1.2" stroke-dasharray="8 8"/>
    <path d="M-86 12 Q-100 -28 -60 -36 Q-50 -68 -8 -60 Q14 -82 44 -64 Q78 -68 84 -28 Q108 -22 96 16 Q90 36 50 36 L-56 36 Q-100 36 -86 12 Z" fill="#0f172a" stroke="#22d3ee" stroke-width="2.6" opacity="0.94"/>
    <g fill="#22d3ee" stroke="#a78bfa" stroke-width="1.4" opacity="0.92">
      <polygon points="-40,-12 -22,-22 -4,-12 -4,8 -22,18 -40,8"/>
      <polygon points="0,-12 18,-22 36,-12 36,8 18,18 0,8"/>
      <polygon points="-20,16 -2,6 16,16 16,36 -2,46 -20,36"/>
    </g>
    <g fill="#a78bfa">
      <circle cx="-22" cy="-2" r="3"/>
      <circle cx="18" cy="-2" r="3"/>
      <circle cx="-2" cy="26" r="3"/>
    </g>
    <circle cx="-72" cy="-56" r="4" fill="#a78bfa" opacity="0.7"/>
    <circle cx="72" cy="-56" r="4" fill="#a78bfa" opacity="0.7"/>
    <circle cx="-72" cy="56" r="4" fill="#22d3ee" opacity="0.5"/>
    <circle cx="72" cy="56" r="4" fill="#22d3ee" opacity="0.5"/>
    <text y="84" text-anchor="middle" font-family="Arial,sans-serif" font-size="11" font-weight="700" fill="#22d3ee" opacity="0.85">CLOUD WORKLOADS</text>
    <text y="100" text-anchor="middle" font-family="Arial,sans-serif" font-size="10" fill="#a78bfa" opacity="0.7">3 nodes : multi-zone</text>
  </g>
<g transform="translate(84 66)">
    <rect width="160" height="36" rx="18" fill="#22d3ee" opacity="0.22" stroke="#22d3ee" stroke-width="1.2"/>
    <text x="80" y="23" font-family="Arial,sans-serif" font-size="13" font-weight="700" fill="#22d3ee" text-anchor="middle">KUBERNETES</text>
  </g>
<text x="84" y="170" font-family="Arial,sans-serif" font-size="60" font-weight="700" fill="#f8fafc" letter-spacing="0.5">KUBERNETES</text>
  <text x="84" y="238" font-family="Arial,sans-serif" font-size="60" font-weight="700" fill="#dbeafe" letter-spacing="0.5">MINIKUBE K9S</text>
<text x="84" y="294" font-family="Arial,sans-serif" font-size="18" fill="#cbd5e1">KUBERNETES / MINIKUBE</text>
  <rect x="84" y="320" width="520" height="1.5" fill="#334155" opacity="0.9"/>
  <text x="84" y="350" font-family="Arial,sans-serif" font-size="14" font-weight="700" fill="#94a3b8">VISUAL SYSTEM EF29A9F4B545</text>
  <text x="84" y="378" font-family="Arial,sans-serif" font-size="14" fill="#94a3b8">Kubernetes . Minikube 1.37.0 , K9s UI , Kubernetes 2024-2025 (User Namespaces, Bound Service Account Tokens)</text>
<g transform="translate(84 474)">
    <rect width="142" height="38" rx="19" fill="#22d3ee" fill-opacity="0.16" stroke="#22d3ee" stroke-width="1.2"/>
    <text x="71" y="24" font-family="Arial,sans-serif" font-size="13" font-weight="700" fill="#e2e8f0" text-anchor="middle">KUBERNETES</text>
  </g>
  <g transform="translate(240 474)">
    <rect width="120" height="38" rx="19" fill="#22d3ee" fill-opacity="0.16" stroke="#22d3ee" stroke-width="1.2"/>
    <text x="60" y="24" font-family="Arial,sans-serif" font-size="13" font-weight="700" fill="#e2e8f0" text-anchor="middle">MINIKUBE</text>
  </g>
  <g transform="translate(374 474)">
    <rect width="110" height="38" rx="19" fill="#22d3ee" fill-opacity="0.16" stroke="#22d3ee" stroke-width="1.2"/>
    <text x="55" y="24" font-family="Arial,sans-serif" font-size="13" font-weight="700" fill="#e2e8f0" text-anchor="middle">K9S</text>
  </g>
  <g transform="translate(498 474)">
    <rect width="110" height="38" rx="19" fill="#22d3ee" fill-opacity="0.16" stroke="#22d3ee" stroke-width="1.2"/>
    <text x="55" y="24" font-family="Arial,sans-serif" font-size="13" font-weight="700" fill="#e2e8f0" text-anchor="middle">K8S</text>
  </g>
<g transform="translate(84 536)">
    <rect width="144" height="58" rx="16" fill="#111827" fill-opacity="0.78" stroke="#22d3ee" stroke-opacity="0.4" stroke-width="1.2"/>
    <text x="18" y="24" font-family="Arial,sans-serif" font-size="11" font-weight="700" fill="#94a3b8">CATEGORY</text>
    <text x="18" y="43" font-family="Arial,sans-serif" font-size="16" font-weight="700" fill="#f8fafc">KUBERNETES</text>
  </g>
  <g transform="translate(246 536)">
    <rect width="144" height="58" rx="16" fill="#111827" fill-opacity="0.78" stroke="#22d3ee" stroke-opacity="0.4" stroke-width="1.2"/>
    <text x="18" y="24" font-family="Arial,sans-serif" font-size="11" font-weight="700" fill="#94a3b8">SIGNALS</text>
    <text x="18" y="43" font-family="Arial,sans-serif" font-size="16" font-weight="700" fill="#f8fafc">05</text>
  </g>
  <g transform="translate(408 536)">
    <rect width="144" height="58" rx="16" fill="#111827" fill-opacity="0.78" stroke="#22d3ee" stroke-opacity="0.4" stroke-width="1.2"/>
    <text x="18" y="24" font-family="Arial,sans-serif" font-size="11" font-weight="700" fill="#94a3b8">TAGS</text>
    <text x="18" y="43" font-family="Arial,sans-serif" font-size="16" font-weight="700" fill="#f8fafc">04</text>
  </g>
<g transform="translate(1030 74)">
    <rect width="130" height="34" rx="17" fill="#0891b2" opacity="0.22" stroke="#22d3ee" stroke-width="1.2"/>
    <text x="65" y="22" font-family="Arial,sans-serif" font-size="12" font-weight="700" fill="#e2e8f0" text-anchor="middle">May 30, 2025</text>
  </g>
<line x1="50" y1="588" x2="1150" y2="588" stroke="#334155" stroke-width="1" opacity="0.5"/>
  <text x="1150" y="612" font-family="Arial,sans-serif" font-size="13" fill="#94a3b8" text-anchor="end">tech.2twodragon.com</text>
<g transform="translate(1080,504)" filter="url(#softShadow)">
  <rect x="-8" y="-8" width="100" height="100" rx="6" fill="#FFFFFF"/>
  <path fill="#0A1020" d="M0.0 0.0h14.341v2.049h-14.341z M20.488 0.0h6.146v2.049h-6.146z M28.683 0.0h2.049v2.049h-2.049z M34.829 0.0h2.049v2.049h-2.049z M40.976 0.0h4.098v2.049h-4.098z M47.122 0.0h2.049v2.049h-2.049z M51.22 0.0h2.049v2.049h-2.049z M57.366 0.0h2.049v2.049h-2.049z M61.463 0.0h6.146v2.049h-6.146z M69.659 0.0h14.341v2.049h-14.341z M0.0 2.049h2.049v2.049h-2.049z M12.293 2.049h2.049v2.049h-2.049z M18.439 2.049h2.049v2.049h-2.049z M22.537 2.049h6.146v2.049h-6.146z M30.732 2.049h6.146v2.049h-6.146z M40.976 2.049h4.098v2.049h-4.098z M49.171 2.049h2.049v2.049h-2.049z M55.317 2.049h4.098v2.049h-4.098z M65.561 2.049h2.049v2.049h-2.049z M69.659 2.049h2.049v2.049h-2.049z M81.951 2.049h2.049v2.049h-2.049z M0.0 4.098h2.049v2.049h-2.049z M4.098 4.098h6.146v2.049h-6.146z M12.293 4.098h2.049v2.049h-2.049z M16.39 4.098h6.146v2.049h-6.146z M24.585 4.098h4.098v2.049h-4.098z M30.732 4.098h10.244v2.049h-10.244z M43.024 4.098h6.146v2.049h-6.146z M55.317 4.098h4.098v2.049h-4.098z M65.561 4.098h2.049v2.049h-2.049z M69.659 4.098h2.049v2.049h-2.049z M73.756 4.098h6.146v2.049h-6.146z M81.951 4.098h2.049v2.049h-2.049z M0.0 6.146h2.049v2.049h-2.049z M4.098 6.146h6.146v2.049h-6.146z M12.293 6.146h2.049v2.049h-2.049z M16.39 6.146h2.049v2.049h-2.049z M20.488 6.146h2.049v2.049h-2.049z M24.585 6.146h2.049v2.049h-2.049z M43.024 6.146h2.049v2.049h-2.049z M47.122 6.146h2.049v2.049h-2.049z M51.22 6.146h10.244v2.049h-10.244z M63.512 6.146h4.098v2.049h-4.098z M69.659 6.146h2.049v2.049h-2.049z M73.756 6.146h6.146v2.049h-6.146z M81.951 6.146h2.049v2.049h-2.049z M0.0 8.195h2.049v2.049h-2.049z M4.098 8.195h6.146v2.049h-6.146z M12.293 8.195h2.049v2.049h-2.049z M16.39 8.195h2.049v2.049h-2.049z M22.537 8.195h2.049v2.049h-2.049z M26.634 8.195h2.049v2.049h-2.049z M30.732 8.195h2.049v2.049h-2.049z M34.829 8.195h4.098v2.049h-4.098z M40.976 8.195h10.244v2.049h-10.244z M53.268 8.195h2.049v2.049h-2.049z M61.463 8.195h6.146v2.049h-6.146z M69.659 8.195h2.049v2.049h-2.049z M73.756 8.195h6.146v2.049h-6.146z M81.951 8.195h2.049v2.049h-2.049z M0.0 10.244h2.049v2.049h-2.049z M12.293 10.244h2.049v2.049h-2.049z M16.39 10.244h2.049v2.049h-2.049z M22.537 10.244h4.098v2.049h-4.098z M28.683 10.244h4.098v2.049h-4.098z M34.829 10.244h2.049v2.049h-2.049z M40.976 10.244h2.049v2.049h-2.049z M49.171 10.244h4.098v2.049h-4.098z M55.317 10.244h2.049v2.049h-2.049z M65.561 10.244h2.049v2.049h-2.049z M69.659 10.244h2.049v2.049h-2.049z M81.951 10.244h2.049v2.049h-2.049z M0.0 12.293h14.341v2.049h-14.341z M16.39 12.293h2.049v2.049h-2.049z M20.488 12.293h2.049v2.049h-2.049z M24.585 12.293h2.049v2.049h-2.049z M28.683 12.293h2.049v2.049h-2.049z M32.78 12.293h2.049v2.049h-2.049z M36.878 12.293h2.049v2.049h-2.049z M40.976 12.293h2.049v2.049h-2.049z M45.073 12.293h2.049v2.049h-2.049z M49.171 12.293h2.049v2.049h-2.049z M53.268 12.293h2.049v2.049h-2.049z M57.366 12.293h2.049v2.049h-2.049z M61.463 12.293h2.049v2.049h-2.049z M65.561 12.293h2.049v2.049h-2.049z M69.659 12.293h14.341v2.049h-14.341z M16.39 14.341h4.098v2.049h-4.098z M22.537 14.341h2.049v2.049h-2.049z M26.634 14.341h2.049v2.049h-2.049z M30.732 14.341h4.098v2.049h-4.098z M36.878 14.341h8.195v2.049h-8.195z M49.171 14.341h2.049v2.049h-2.049z M61.463 14.341h2.049v2.049h-2.049z M65.561 14.341h2.049v2.049h-2.049z M0.0 16.39h2.049v2.049h-2.049z M4.098 16.39h10.244v2.049h-10.244z M18.439 16.39h6.146v2.049h-6.146z M34.829 16.39h2.049v2.049h-2.049z M38.927 16.39h2.049v2.049h-2.049z M45.073 16.39h2.049v2.049h-2.049z M51.22 16.39h10.244v2.049h-10.244z M65.561 16.39h2.049v2.049h-2.049z M69.659 16.39h10.244v2.049h-10.244z M0.0 18.439h12.293v2.049h-12.293z M14.341 18.439h6.146v2.049h-6.146z M22.537 18.439h2.049v2.049h-2.049z M28.683 18.439h2.049v2.049h-2.049z M32.78 18.439h8.195v2.049h-8.195z M43.024 18.439h2.049v2.049h-2.049z M47.122 18.439h2.049v2.049h-2.049z M53.268 18.439h2.049v2.049h-2.049z M61.463 18.439h14.341v2.049h-14.341z M77.854 18.439h6.146v2.049h-6.146z M2.049 20.488h4.098v2.049h-4.098z M8.195 20.488h6.146v2.049h-6.146z M20.488 20.488h2.049v2.049h-2.049z M26.634 20.488h2.049v2.049h-2.049z M32.78 20.488h6.146v2.049h-6.146z M43.024 20.488h4.098v2.049h-4.098z M49.171 20.488h2.049v2.049h-2.049z M55.317 20.488h2.049v2.049h-2.049z M65.561 20.488h4.098v2.049h-4.098z M73.756 20.488h2.049v2.049h-2.049z M4.098 22.537h8.195v2.049h-8.195z M18.439 22.537h6.146v2.049h-6.146z M26.634 22.537h2.049v2.049h-2.049z M32.78 22.537h2.049v2.049h-2.049z M38.927 22.537h8.195v2.049h-8.195z M57.366 22.537h2.049v2.049h-2.049z M61.463 22.537h6.146v2.049h-6.146z M69.659 22.537h8.195v2.049h-8.195z M2.049 24.585h2.049v2.049h-2.049z M6.146 24.585h10.244v2.049h-10.244z M22.537 24.585h2.049v2.049h-2.049z M26.634 24.585h6.146v2.049h-6.146z M34.829 24.585h2.049v2.049h-2.049z M38.927 24.585h4.098v2.049h-4.098z M49.171 24.585h4.098v2.049h-4.098z M59.415 24.585h2.049v2.049h-2.049z M63.512 24.585h4.098v2.049h-4.098z M75.805 24.585h6.146v2.049h-6.146z M4.098 26.634h4.098v2.049h-4.098z M20.488 26.634h2.049v2.049h-2.049z M24.585 26.634h4.098v2.049h-4.098z M32.78 26.634h4.098v2.049h-4.098z M43.024 26.634h2.049v2.049h-2.049z M53.268 26.634h2.049v2.049h-2.049z M57.366 26.634h22.537v2.049h-22.537z M81.951 26.634h2.049v2.049h-2.049z M2.049 28.683h2.049v2.049h-2.049z M10.244 28.683h4.098v2.049h-4.098z M18.439 28.683h2.049v2.049h-2.049z M30.732 28.683h2.049v2.049h-2.049z M34.829 28.683h2.049v2.049h-2.049z M40.976 28.683h12.293v2.049h-12.293z M55.317 28.683h2.049v2.049h-2.049z M61.463 28.683h2.049v2.049h-2.049z M65.561 28.683h4.098v2.049h-4.098z M75.805 28.683h4.098v2.049h-4.098z M6.146 30.732h6.146v2.049h-6.146z M18.439 30.732h2.049v2.049h-2.049z M22.537 30.732h2.049v2.049h-2.049z M26.634 30.732h6.146v2.049h-6.146z M43.024 30.732h2.049v2.049h-2.049z M47.122 30.732h2.049v2.049h-2.049z M57.366 30.732h2.049v2.049h-2.049z M63.512 30.732h4.098v2.049h-4.098z M69.659 30.732h2.049v2.049h-2.049z M73.756 30.732h4.098v2.049h-4.098z M0.0 32.78h2.049v2.049h-2.049z M6.146 32.78h2.049v2.049h-2.049z M10.244 32.78h4.098v2.049h-4.098z M18.439 32.78h2.049v2.049h-2.049z M26.634 32.78h2.049v2.049h-2.049z M30.732 32.78h4.098v2.049h-4.098z M40.976 32.78h14.341v2.049h-14.341z M57.366 32.78h4.098v2.049h-4.098z M67.61 32.78h2.049v2.049h-2.049z M71.707 32.78h2.049v2.049h-2.049z M77.854 32.78h2.049v2.049h-2.049z M6.146 34.829h2.049v2.049h-2.049z M16.39 34.829h4.098v2.049h-4.098z M26.634 34.829h2.049v2.049h-2.049z M30.732 34.829h2.049v2.049h-2.049z M38.927 34.829h4.098v2.049h-4.098z M45.073 34.829h4.098v2.049h-4.098z M57.366 34.829h6.146v2.049h-6.146z M65.561 34.829h2.049v2.049h-2.049z M69.659 34.829h6.146v2.049h-6.146z M79.902 34.829h4.098v2.049h-4.098z M4.098 36.878h2.049v2.049h-2.049z M8.195 36.878h2.049v2.049h-2.049z M12.293 36.878h6.146v2.049h-6.146z M20.488 36.878h2.049v2.049h-2.049z M24.585 36.878h2.049v2.049h-2.049z M30.732 36.878h2.049v2.049h-2.049z M36.878 36.878h2.049v2.049h-2.049z M40.976 36.878h2.049v2.049h-2.049z M45.073 36.878h2.049v2.049h-2.049z M53.268 36.878h6.146v2.049h-6.146z M61.463 36.878h2.049v2.049h-2.049z M65.561 36.878h2.049v2.049h-2.049z M73.756 36.878h2.049v2.049h-2.049z M77.854 36.878h4.098v2.049h-4.098z M8.195 38.927h4.098v2.049h-4.098z M14.341 38.927h4.098v2.049h-4.098z M22.537 38.927h2.049v2.049h-2.049z M49.171 38.927h2.049v2.049h-2.049z M63.512 38.927h4.098v2.049h-4.098z M73.756 38.927h4.098v2.049h-4.098z M0.0 40.976h2.049v2.049h-2.049z M6.146 40.976h10.244v2.049h-10.244z M20.488 40.976h2.049v2.049h-2.049z M24.585 40.976h2.049v2.049h-2.049z M30.732 40.976h2.049v2.049h-2.049z M36.878 40.976h4.098v2.049h-4.098z M43.024 40.976h4.098v2.049h-4.098z M51.22 40.976h4.098v2.049h-4.098z M57.366 40.976h4.098v2.049h-4.098z M63.512 40.976h2.049v2.049h-2.049z M77.854 40.976h2.049v2.049h-2.049z M81.951 40.976h2.049v2.049h-2.049z M2.049 43.024h6.146v2.049h-6.146z M10.244 43.024h2.049v2.049h-2.049z M16.39 43.024h2.049v2.049h-2.049z M20.488 43.024h2.049v2.049h-2.049z M26.634 43.024h2.049v2.049h-2.049z M30.732 43.024h2.049v2.049h-2.049z M38.927 43.024h2.049v2.049h-2.049z M43.024 43.024h2.049v2.049h-2.049z M47.122 43.024h4.098v2.049h-4.098z M61.463 43.024h6.146v2.049h-6.146z M69.659 43.024h6.146v2.049h-6.146z M79.902 43.024h4.098v2.049h-4.098z M0.0 45.073h4.098v2.049h-4.098z M6.146 45.073h4.098v2.049h-4.098z M12.293 45.073h2.049v2.049h-2.049z M20.488 45.073h2.049v2.049h-2.049z M24.585 45.073h2.049v2.049h-2.049z M30.732 45.073h2.049v2.049h-2.049z M34.829 45.073h4.098v2.049h-4.098z M43.024 45.073h2.049v2.049h-2.049z M53.268 45.073h6.146v2.049h-6.146z M71.707 45.073h8.195v2.049h-8.195z M2.049 47.122h4.098v2.049h-4.098z M8.195 47.122h4.098v2.049h-4.098z M14.341 47.122h2.049v2.049h-2.049z M20.488 47.122h4.098v2.049h-4.098z M26.634 47.122h2.049v2.049h-2.049z M30.732 47.122h2.049v2.049h-2.049z M43.024 47.122h6.146v2.049h-6.146z M57.366 47.122h2.049v2.049h-2.049z M63.512 47.122h4.098v2.049h-4.098z M75.805 47.122h2.049v2.049h-2.049z M4.098 49.171h4.098v2.049h-4.098z M10.244 49.171h10.244v2.049h-10.244z M28.683 49.171h2.049v2.049h-2.049z M34.829 49.171h2.049v2.049h-2.049z M45.073 49.171h10.244v2.049h-10.244z M59.415 49.171h2.049v2.049h-2.049z M63.512 49.171h2.049v2.049h-2.049z M71.707 49.171h2.049v2.049h-2.049z M75.805 49.171h6.146v2.049h-6.146z M2.049 51.22h2.049v2.049h-2.049z M10.244 51.22h2.049v2.049h-2.049z M14.341 51.22h4.098v2.049h-4.098z M20.488 51.22h2.049v2.049h-2.049z M24.585 51.22h2.049v2.049h-2.049z M28.683 51.22h4.098v2.049h-4.098z M36.878 51.22h6.146v2.049h-6.146z M47.122 51.22h2.049v2.049h-2.049z M53.268 51.22h2.049v2.049h-2.049z M61.463 51.22h4.098v2.049h-4.098z M69.659 51.22h8.195v2.049h-8.195z M79.902 51.22h4.098v2.049h-4.098z M0.0 53.268h6.146v2.049h-6.146z M12.293 53.268h4.098v2.049h-4.098z M18.439 53.268h4.098v2.049h-4.098z M24.585 53.268h6.146v2.049h-6.146z M40.976 53.268h2.049v2.049h-2.049z M45.073 53.268h2.049v2.049h-2.049z M51.22 53.268h2.049v2.049h-2.049z M55.317 53.268h2.049v2.049h-2.049z M65.561 53.268h2.049v2.049h-2.049z M71.707 53.268h4.098v2.049h-4.098z M2.049 55.317h2.049v2.049h-2.049z M8.195 55.317h2.049v2.049h-2.049z M14.341 55.317h4.098v2.049h-4.098z M20.488 55.317h2.049v2.049h-2.049z M24.585 55.317h2.049v2.049h-2.049z M28.683 55.317h2.049v2.049h-2.049z M32.78 55.317h2.049v2.049h-2.049z M38.927 55.317h10.244v2.049h-10.244z M55.317 55.317h2.049v2.049h-2.049z M63.512 55.317h4.098v2.049h-4.098z M71.707 55.317h6.146v2.049h-6.146z M79.902 55.317h4.098v2.049h-4.098z M2.049 57.366h4.098v2.049h-4.098z M8.195 57.366h6.146v2.049h-6.146z M18.439 57.366h6.146v2.049h-6.146z M26.634 57.366h2.049v2.049h-2.049z M30.732 57.366h6.146v2.049h-6.146z M38.927 57.366h2.049v2.049h-2.049z M47.122 57.366h6.146v2.049h-6.146z M59.415 57.366h2.049v2.049h-2.049z M63.512 57.366h2.049v2.049h-2.049z M75.805 57.366h6.146v2.049h-6.146z M0.0 59.415h4.098v2.049h-4.098z M6.146 59.415h6.146v2.049h-6.146z M16.39 59.415h6.146v2.049h-6.146z M26.634 59.415h4.098v2.049h-4.098z M32.78 59.415h2.049v2.049h-2.049z M36.878 59.415h2.049v2.049h-2.049z M40.976 59.415h2.049v2.049h-2.049z M45.073 59.415h2.049v2.049h-2.049z M49.171 59.415h2.049v2.049h-2.049z M53.268 59.415h2.049v2.049h-2.049z M59.415 59.415h2.049v2.049h-2.049z M65.561 59.415h2.049v2.049h-2.049z M71.707 59.415h4.098v2.049h-4.098z M77.854 59.415h6.146v2.049h-6.146z M0.0 61.463h2.049v2.049h-2.049z M12.293 61.463h2.049v2.049h-2.049z M18.439 61.463h2.049v2.049h-2.049z M22.537 61.463h10.244v2.049h-10.244z M36.878 61.463h4.098v2.049h-4.098z M45.073 61.463h2.049v2.049h-2.049z M49.171 61.463h2.049v2.049h-2.049z M53.268 61.463h8.195v2.049h-8.195z M65.561 61.463h14.341v2.049h-14.341z M0.0 63.512h2.049v2.049h-2.049z M6.146 63.512h6.146v2.049h-6.146z M16.39 63.512h2.049v2.049h-2.049z M22.537 63.512h2.049v2.049h-2.049z M26.634 63.512h2.049v2.049h-2.049z M36.878 63.512h10.244v2.049h-10.244z M53.268 63.512h6.146v2.049h-6.146z M61.463 63.512h16.39v2.049h-16.39z M79.902 63.512h4.098v2.049h-4.098z M0.0 65.561h2.049v2.049h-2.049z M4.098 65.561h4.098v2.049h-4.098z M12.293 65.561h2.049v2.049h-2.049z M16.39 65.561h2.049v2.049h-2.049z M20.488 65.561h2.049v2.049h-2.049z M26.634 65.561h2.049v2.049h-2.049z M32.78 65.561h4.098v2.049h-4.098z M38.927 65.561h12.293v2.049h-12.293z M53.268 65.561h4.098v2.049h-4.098z M59.415 65.561h2.049v2.049h-2.049z M63.512 65.561h18.439v2.049h-18.439z M16.39 67.61h6.146v2.049h-6.146z M26.634 67.61h2.049v2.049h-2.049z M32.78 67.61h4.098v2.049h-4.098z M38.927 67.61h2.049v2.049h-2.049z M43.024 67.61h2.049v2.049h-2.049z M47.122 67.61h2.049v2.049h-2.049z M51.22 67.61h4.098v2.049h-4.098z M57.366 67.61h2.049v2.049h-2.049z M61.463 67.61h6.146v2.049h-6.146z M73.756 67.61h10.244v2.049h-10.244z M0.0 69.659h14.341v2.049h-14.341z M20.488 69.659h8.195v2.049h-8.195z M30.732 69.659h2.049v2.049h-2.049z M34.829 69.659h2.049v2.049h-2.049z M40.976 69.659h4.098v2.049h-4.098z M53.268 69.659h6.146v2.049h-6.146z M65.561 69.659h2.049v2.049h-2.049z M69.659 69.659h2.049v2.049h-2.049z M73.756 69.659h2.049v2.049h-2.049z M77.854 69.659h2.049v2.049h-2.049z M0.0 71.707h2.049v2.049h-2.049z M12.293 71.707h2.049v2.049h-2.049z M16.39 71.707h2.049v2.049h-2.049z M24.585 71.707h16.39v2.049h-16.39z M43.024 71.707h6.146v2.049h-6.146z M53.268 71.707h4.098v2.049h-4.098z M61.463 71.707h6.146v2.049h-6.146z M73.756 71.707h4.098v2.049h-4.098z M81.951 71.707h2.049v2.049h-2.049z M0.0 73.756h2.049v2.049h-2.049z M4.098 73.756h6.146v2.049h-6.146z M12.293 73.756h2.049v2.049h-2.049z M16.39 73.756h4.098v2.049h-4.098z M24.585 73.756h2.049v2.049h-2.049z M28.683 73.756h6.146v2.049h-6.146z M38.927 73.756h6.146v2.049h-6.146z M47.122 73.756h8.195v2.049h-8.195z M59.415 73.756h2.049v2.049h-2.049z M65.561 73.756h10.244v2.049h-10.244z M77.854 73.756h2.049v2.049h-2.049z M81.951 73.756h2.049v2.049h-2.049z M0.0 75.805h2.049v2.049h-2.049z M4.098 75.805h6.146v2.049h-6.146z M12.293 75.805h2.049v2.049h-2.049z M16.39 75.805h2.049v2.049h-2.049z M20.488 75.805h4.098v2.049h-4.098z M28.683 75.805h2.049v2.049h-2.049z M32.78 75.805h2.049v2.049h-2.049z M36.878 75.805h4.098v2.049h-4.098z M43.024 75.805h8.195v2.049h-8.195z M61.463 75.805h8.195v2.049h-8.195z M71.707 75.805h2.049v2.049h-2.049z M75.805 75.805h2.049v2.049h-2.049z M79.902 75.805h4.098v2.049h-4.098z M0.0 77.854h2.049v2.049h-2.049z M4.098 77.854h6.146v2.049h-6.146z M12.293 77.854h2.049v2.049h-2.049z M16.39 77.854h2.049v2.049h-2.049z M20.488 77.854h2.049v2.049h-2.049z M24.585 77.854h2.049v2.049h-2.049z M28.683 77.854h2.049v2.049h-2.049z M34.829 77.854h2.049v2.049h-2.049z M40.976 77.854h2.049v2.049h-2.049z M45.073 77.854h2.049v2.049h-2.049z M51.22 77.854h12.293v2.049h-12.293z M67.61 77.854h8.195v2.049h-8.195z M0.0 79.902h2.049v2.049h-2.049z M12.293 79.902h2.049v2.049h-2.049z M18.439 79.902h4.098v2.049h-4.098z M26.634 79.902h6.146v2.049h-6.146z M34.829 79.902h2.049v2.049h-2.049z M38.927 79.902h2.049v2.049h-2.049z M43.024 79.902h4.098v2.049h-4.098z M53.268 79.902h2.049v2.049h-2.049z M65.561 79.902h4.098v2.049h-4.098z M73.756 79.902h4.098v2.049h-4.098z M79.902 79.902h2.049v2.049h-2.049z M0.0 81.951h14.341v2.049h-14.341z M16.39 81.951h2.049v2.049h-2.049z M30.732 81.951h4.098v2.049h-4.098z M45.073 81.951h2.049v2.049h-2.049z M49.171 81.951h8.195v2.049h-8.195z M59.415 81.951h2.049v2.049h-2.049z M63.512 81.951h2.049v2.049h-2.049z M67.61 81.951h8.195v2.049h-8.195z M77.854 81.951h2.049v2.049h-2.049z"/>
</g>
<text x="1122" y="614" font-family="Inter, Helvetica, Arial, sans-serif" font-size="10" font-weight="700" fill="#F5F7FA" text-anchor="middle">scan / full post</text>
</svg>