<svg xmlns="http://www.w3.org/2000/svg" viewBox="0 0 1200 630">
  <defs>
    <linearGradient id="bg" x1="0%" y1="0%" x2="100%" y2="100%">
      <stop offset="0%" style="stop-color:#0a0a1a"/><stop offset="100%" style="stop-color:#0a1a1a"/>
    </linearGradient>
    <linearGradient id="ot" x1="0%" y1="0%" x2="100%" y2="100%">
      <stop offset="0%" style="stop-color:#10b981"/><stop offset="100%" style="stop-color:#059669"/>
    </linearGradient>
    <filter id="glow"><feGaussianBlur stdDeviation="4" result="b"/><feMerge><feMergeNode in="b"/><feMergeNode in="SourceGraphic"/></feMerge></filter>
    <filter id="sg"><feGaussianBlur stdDeviation="30"/></filter>
    <filter id="shadow"><feDropShadow dx="0" dy="4" stdDeviation="8" flood-color="#000" flood-opacity="0.3"/></filter>
  </defs>
  <rect width="1200" height="630" fill="url(#bg)"/>
  <circle cx="600" cy="250" r="280" fill="#10b981" opacity="0.03" filter="url(#sg)"/>
  <g transform="translate(600,235)">
    <!-- OT/Industrial control system -->
    <g filter="url(#shadow)">
      <!-- Factory/industrial shape -->
      <rect x="-100" y="-80" width="200" height="140" rx="12" fill="#1e293b" stroke="#10b981" stroke-width="2.5"/>
      <!-- Smokestacks -->
      <rect x="-80" y="-110" width="20" height="35" rx="3" fill="#1e293b" stroke="#10b981" stroke-width="1.5"/>
      <rect x="-45" y="-100" width="20" height="25" rx="3" fill="#1e293b" stroke="#10b981" stroke-width="1.5"/>
      <!-- Control panel -->
      <rect x="-75" y="-55" width="150" height="80" rx="6" fill="#0f172a" stroke="#10b981" stroke-width="1.5"/>
      <!-- Gauges -->
      <circle cx="-40" cy="-30" r="18" fill="#1e293b" stroke="#10b981" stroke-width="1.5"/>
      <line x1="-40" y1="-30" x2="-32" y2="-40" stroke="#22c55e" stroke-width="2" stroke-linecap="round"/>
      <circle cx="20" cy="-30" r="18" fill="#1e293b" stroke="#f59e0b" stroke-width="1.5"/>
      <line x1="20" y1="-30" x2="30" y2="-38" stroke="#f59e0b" stroke-width="2" stroke-linecap="round"/>
      <!-- Status lights -->
      <circle cx="-50" cy="5" r="5" fill="#22c55e" opacity="0.8"/>
      <circle cx="-30" cy="5" r="5" fill="#22c55e" opacity="0.8"/>
      <circle cx="-10" cy="5" r="5" fill="#f59e0b" opacity="0.8"/>
      <circle cx="10" cy="5" r="5" fill="#22c55e" opacity="0.6"/>
      <circle cx="30" cy="5" r="5" fill="#ef4444" opacity="0.6"/>
      <circle cx="50" cy="5" r="5" fill="#22c55e" opacity="0.8"/>
    </g>
    <!-- DevSecOps + FinOps bridge -->
    <g transform="translate(0,95)">
      <rect x="-140" y="-15" width="100" height="30" rx="8" fill="#1e293b" stroke="#8b5cf6" stroke-width="1.5"/>
      <text x="-90" y="5" font-family="Arial,sans-serif" font-size="11" font-weight="bold" fill="#c4b5fd" text-anchor="middle">DevSecOps</text>
      <rect x="40" y="-15" width="100" height="30" rx="8" fill="#1e293b" stroke="#22c55e" stroke-width="1.5"/>
      <text x="90" y="5" font-family="Arial,sans-serif" font-size="11" font-weight="bold" fill="#86efac" text-anchor="middle">FinOps</text>
      <!-- Arrow bridge -->
      <path d="M-35,0 L35,0" fill="none" stroke="#94a3b8" stroke-width="1.5" stroke-dasharray="4,3"/>
      <polygon points="30,-4 38,0 30,4" fill="#94a3b8" opacity="0.5"/>
      <polygon points="-30,4 -38,0 -30,-4" fill="#94a3b8" opacity="0.5"/>
    </g>
    <!-- Network connections -->
    <g opacity="0.25">
      <line x1="-140" y1="-20" x2="-180" y2="-60" stroke="#10b981" stroke-width="1" stroke-dasharray="3,3"/>
      <line x1="140" y1="-20" x2="180" y2="-60" stroke="#10b981" stroke-width="1" stroke-dasharray="3,3"/>
      <circle cx="-180" cy="-60" r="10" fill="#1e293b" stroke="#10b981" stroke-width="1"/>
      <text x="-180" y="-56" font-family="Courier New" font-size="6" fill="#86efac" text-anchor="middle">PLC</text>
      <circle cx="180" cy="-60" r="10" fill="#1e293b" stroke="#10b981" stroke-width="1"/>
      <text x="180" y="-56" font-family="Courier New" font-size="6" fill="#86efac" text-anchor="middle">HMI</text>
    </g>
  </g>
  <text x="600" y="500" font-family="Arial,sans-serif" font-size="36" font-weight="bold" fill="white" text-anchor="middle" filter="url(#glow)">OT Security Guide</text>
  <text x="600" y="538" font-family="Arial,sans-serif" font-size="16" fill="#94a3b8" text-anchor="middle">Cloud Security 8th Batch | DevSecOps + FinOps | OT/ICS</text>
  <rect x="40" y="25" width="160" height="32" rx="16" fill="#10b981" opacity="0.2" stroke="#10b981" stroke-width="1"/>
  <text x="120" y="47" font-family="Arial,sans-serif" font-size="13" font-weight="bold" fill="#6ee7b7" text-anchor="middle">CLOUD COURSE</text>
  <rect x="1000" y="25" width="160" height="32" rx="16" fill="#3b82f6" opacity="0.2" stroke="#3b82f6" stroke-width="1"/>
  <text x="1080" y="47" font-family="Arial,sans-serif" font-size="13" font-weight="bold" fill="#93c5fd" text-anchor="middle">Nov 21, 2025</text>
  <text x="1160" y="615" font-family="Arial,sans-serif" font-size="13" fill="#475569" text-anchor="end">tech.2twodragon.com</text>
</svg>