<svg xmlns="http://www.w3.org/2000/svg" viewBox="0 0 1200 630">
  <defs>
    <linearGradient id="bg" x1="0%" y1="0%" x2="100%" y2="100%">
      <stop offset="0%" style="stop-color:#0a0a1a"/><stop offset="100%" style="stop-color:#1a0a20"/>
    </linearGradient>
    <filter id="glow"><feGaussianBlur stdDeviation="4" result="b"/><feMerge><feMergeNode in="b"/><feMergeNode in="SourceGraphic"/></feMerge></filter>
    <filter id="sg"><feGaussianBlur stdDeviation="25"/></filter>
  </defs>
  <rect width="1200" height="630" fill="url(#bg)"/>
  <circle cx="600" cy="270" r="260" fill="#ef4444" opacity="0.04" filter="url(#sg)"/>
  <g transform="translate(600,250)">
    <path d="M-60,-120 L60,-120 L80,-100 L80,120 L-80,120 L-80,-100 Z" fill="#1e293b" stroke="#f59e0b" stroke-width="2.5"/>
    <rect x="-30" y="-40" width="60" height="50" rx="6" fill="#f59e0b" opacity="0.3" stroke="#f59e0b" stroke-width="1.5"/>
    <line x1="-30" y1="-15" x2="30" y2="-15" stroke="#f59e0b" stroke-width="0.8" opacity="0.5"/>
    <line x1="-30" y1="0" x2="30" y2="0" stroke="#f59e0b" stroke-width="0.8" opacity="0.5"/>
    <line x1="0" y1="-40" x2="0" y2="10" stroke="#f59e0b" stroke-width="0.8" opacity="0.5"/>
    <path d="M-20,-120 L-5,-80 L10,-60 L-5,-20 L15,30 L0,80" fill="none" stroke="#ef4444" stroke-width="2.5" opacity="0.7"/>
    <circle cx="0" cy="75" r="20" fill="#ef4444" opacity="0.15"/>
    <text x="0" y="81" font-family="Arial,sans-serif" font-size="22" font-weight="bold" fill="#ef4444" text-anchor="middle">!</text>
    <g transform="translate(160,0)">
      <path d="M0,-50 L40,-35 L40,10 C40,35 20,50 0,58 C-20,50 -40,35 -40,10 L-40,-35 Z" fill="#1e293b" stroke="#22c55e" stroke-width="2.5"/>
      <text x="0" y="-10" font-family="Courier New" font-size="11" fill="#86efac" text-anchor="middle">MFA</text>
      <path d="M-10,10 L-4,18 L12,0" fill="none" stroke="#22c55e" stroke-width="2.5" stroke-linecap="round"/>
    </g>
    <g transform="translate(-160,-20)" opacity="0.6">
      <rect x="-45" y="-25" width="90" height="50" rx="8" fill="#1e293b" stroke="#3b82f6" stroke-width="1.5"/>
      <text x="0" y="-5" font-family="Courier New" font-size="9" fill="#93c5fd" text-anchor="middle">IMEI</text>
      <text x="0" y="10" font-family="Courier New" font-size="8" fill="#60a5fa" text-anchor="middle">*06#</text>
    </g>
  </g>
  <text x="600" y="510" font-family="Arial,sans-serif" font-size="36" font-weight="bold" fill="white" text-anchor="middle" filter="url(#glow)">SIM Security Breach</text>
  <text x="600" y="548" font-family="Arial,sans-serif" font-size="16" fill="#94a3b8" text-anchor="middle">IMEI Check | USIM/eSIM Replace | MFA Defense</text>
  <rect x="40" y="25" width="160" height="32" rx="16" fill="#ef4444" opacity="0.2" stroke="#ef4444" stroke-width="1"/>
  <text x="120" y="47" font-family="Arial,sans-serif" font-size="13" font-weight="bold" fill="#fca5a5" text-anchor="middle">INCIDENT GUIDE</text>
  <rect x="1000" y="25" width="160" height="32" rx="16" fill="#3b82f6" opacity="0.2" stroke="#3b82f6" stroke-width="1"/>
  <text x="1080" y="47" font-family="Arial,sans-serif" font-size="13" font-weight="bold" fill="#93c5fd" text-anchor="middle">April 29, 2025</text>
  <text x="1160" y="615" font-family="Arial,sans-serif" font-size="13" fill="#475569" text-anchor="end">tech.2twodragon.com</text>
</svg>