<svg xmlns="http://www.w3.org/2000/svg" viewBox="0 0 1200 630" width="1200" height="630" role="img" aria-label="security Kandji macOS MDM">
<title>Kandji macOS MDM</title>
<!-- profile: high-quality-cover (2025 upgraded L25-single) -->
<defs>
    <linearGradient id="bgSpreadX153D" x1="0%" y1="0%" x2="100%" y2="100%">
      <stop offset="0%" stop-color="#0b1120"/>
      <stop offset="52%" stop-color="#121a2f"/>
      <stop offset="100%" stop-color="#170f25"/>
    </linearGradient>
    <linearGradient id="heroPanelX153D" x1="0%" y1="0%" x2="100%" y2="100%">
      <stop offset="0%" stop-color="#0f172a" stop-opacity="0.96"/>
      <stop offset="100%" stop-color="#111827" stop-opacity="0.86"/>
    </linearGradient>
    <pattern id="microGridX153D" x="0" y="0" width="36" height="36" patternUnits="userSpaceOnUse">
      <path d="M36 0H0V36" fill="none" stroke="#334155" stroke-width="1" opacity="0.25"/>
      <circle cx="18" cy="18" r="1.2" fill="#ef4444" opacity="0.18"/>
    </pattern>
    <filter id="sgBlur" x="-30%" y="-30%" width="160%" height="160%">
      <feGaussianBlur stdDeviation="36"/>
    </filter>
    <filter id="singleShadow" x="-30%" y="-30%" width="180%" height="180%">
      <feDropShadow dx="0" dy="14" stdDeviation="22" flood-color="#020617" flood-opacity="0.42"/>
    </filter>
    <marker id="sgArrow" viewBox="0 0 10 10" refX="8" refY="5" markerWidth="6" markerHeight="6" orient="auto">
      <path d="M0 0 L10 5 L0 10 z" fill="#38bdf8" opacity="0.85"/>
    </marker>
  </defs>
<rect width="1200" height="630" fill="url(#bgSpreadX153D)"/>
<rect width="1200" height="630" fill="url(#microGridX153D)"/>
<circle cx="202" cy="150" r="190" fill="#ef4444" opacity="0.08" filter="url(#sgBlur)"/>
  <circle cx="1020" cy="486" r="220" fill="#991b1b" opacity="0.08" filter="url(#sgBlur)"/>
  <circle cx="920" cy="160" r="140" fill="#38bdf8" opacity="0.05" filter="url(#sgBlur)"/>
  <path d="M0 96 C224 46 426 44 654 118 L654 630 L0 630 Z" fill="#020617" opacity="0.24"/>
  <path d="M0 526 C248 490 426 486 654 548" fill="none" stroke="#475569" stroke-width="1.2" opacity="0.22"/>
  <path d="M704 148 C792 118 892 122 980 176" fill="none" stroke="#38bdf8" stroke-width="1.3" opacity="0.24"/>
  <path d="M716 430 C804 462 914 458 1010 390" fill="none" stroke="#ef4444" stroke-width="1.2" opacity="0.22"/>
<rect x="720" y="132" width="388" height="292" rx="28" fill="url(#heroPanelX153D)" stroke="#ef4444" stroke-opacity="0.28" stroke-width="1.4" filter="url(#singleShadow)"/>
  <rect x="738" y="150" width="352" height="256" rx="22" fill="none" stroke="#334155" stroke-opacity="0.7" stroke-width="1"/>
  <rect x="742" y="152" width="108" height="12" rx="6" fill="#ef4444" opacity="0.28"/>
  <rect x="864" y="152" width="72" height="12" rx="6" fill="#334155" opacity="0.55"/>
  <rect x="948" y="152" width="48" height="12" rx="6" fill="#334155" opacity="0.35"/>
<g><rect x="742" y="156" width="6" height="6" fill="#ef4444" opacity="0.42"/><rect x="750" y="156" width="6" height="6" fill="#ef4444" opacity="0.42"/><rect x="758" y="156" width="6" height="6" fill="#ef4444" opacity="0.42"/><rect x="766" y="156" width="6" height="6" fill="#ef4444" opacity="0.42"/><rect x="782" y="156" width="6" height="6" fill="#ef4444" opacity="0.42"/><rect x="790" y="156" width="6" height="6" fill="#ef4444" opacity="0.42"/><rect x="798" y="156" width="6" height="6" fill="#ef4444" opacity="0.42"/><rect x="742" y="164" width="6" height="6" fill="#ef4444" opacity="0.42"/><rect x="774" y="164" width="6" height="6" fill="#ef4444" opacity="0.42"/><rect x="790" y="164" width="6" height="6" fill="#ef4444" opacity="0.42"/><rect x="798" y="164" width="6" height="6" fill="#ef4444" opacity="0.42"/><rect x="742" y="172" width="6" height="6" fill="#ef4444" opacity="0.42"/><rect x="758" y="172" width="6" height="6" fill="#ef4444" opacity="0.42"/><rect x="774" y="172" width="6" height="6" fill="#ef4444" opacity="0.42"/><rect x="790" y="172" width="6" height="6" fill="#ef4444" opacity="0.42"/><rect x="742" y="180" width="6" height="6" fill="#ef4444" opacity="0.42"/><rect x="774" y="180" width="6" height="6" fill="#ef4444" opacity="0.42"/><rect x="782" y="180" width="6" height="6" fill="#ef4444" opacity="0.42"/><rect x="790" y="180" width="6" height="6" fill="#ef4444" opacity="0.42"/><rect x="798" y="180" width="6" height="6" fill="#ef4444" opacity="0.42"/><rect x="742" y="188" width="6" height="6" fill="#ef4444" opacity="0.42"/><rect x="750" y="188" width="6" height="6" fill="#ef4444" opacity="0.42"/><rect x="758" y="188" width="6" height="6" fill="#ef4444" opacity="0.42"/><rect x="766" y="188" width="6" height="6" fill="#ef4444" opacity="0.42"/><rect x="790" y="188" width="6" height="6" fill="#ef4444" opacity="0.42"/><rect x="798" y="188" width="6" height="6" fill="#ef4444" opacity="0.42"/><rect x="758" y="196" width="6" height="6" fill="#ef4444" opacity="0.42"/><rect x="766" y="196" width="6" height="6" fill="#ef4444" opacity="0.42"/><rect x="774" y="196" width="6" height="6" fill="#ef4444" opacity="0.42"/><rect x="782" y="196" width="6" height="6" fill="#ef4444" opacity="0.42"/><rect x="790" y="196" width="6" height="6" fill="#ef4444" opacity="0.42"/><rect x="742" y="204" width="6" height="6" fill="#ef4444" opacity="0.42"/><rect x="750" y="204" width="6" height="6" fill="#ef4444" opacity="0.42"/><rect x="782" y="204" width="6" height="6" fill="#ef4444" opacity="0.42"/><rect x="790" y="204" width="6" height="6" fill="#ef4444" opacity="0.42"/><rect x="750" y="212" width="6" height="6" fill="#ef4444" opacity="0.42"/><rect x="758" y="212" width="6" height="6" fill="#ef4444" opacity="0.42"/><rect x="774" y="212" width="6" height="6" fill="#ef4444" opacity="0.42"/><rect x="790" y="212" width="6" height="6" fill="#ef4444" opacity="0.42"/><rect x="798" y="212" width="6" height="6" fill="#ef4444" opacity="0.42"/></g>
<circle cx="1010" cy="60" r="1.4" fill="#38bdf8" opacity="0.18"/>
  <circle cx="1024" cy="60" r="1.4" fill="#38bdf8" opacity="0.26"/>
  <circle cx="1038" cy="60" r="1.4" fill="#38bdf8" opacity="0.33999999999999997"/>
  <circle cx="1052" cy="60" r="1.4" fill="#38bdf8" opacity="0.18"/>
  <circle cx="1066" cy="60" r="1.4" fill="#38bdf8" opacity="0.26"/>
  <circle cx="1080" cy="60" r="1.4" fill="#38bdf8" opacity="0.33999999999999997"/>
  <circle cx="1094" cy="60" r="1.4" fill="#38bdf8" opacity="0.18"/>
  <circle cx="1108" cy="60" r="1.4" fill="#38bdf8" opacity="0.26"/>
  <circle cx="1010" cy="72" r="1.4" fill="#38bdf8" opacity="0.18"/>
  <circle cx="1024" cy="72" r="1.4" fill="#38bdf8" opacity="0.26"/>
  <circle cx="1038" cy="72" r="1.4" fill="#38bdf8" opacity="0.33999999999999997"/>
  <circle cx="1052" cy="72" r="1.4" fill="#38bdf8" opacity="0.18"/>
  <circle cx="1066" cy="72" r="1.4" fill="#38bdf8" opacity="0.26"/>
  <circle cx="1080" cy="72" r="1.4" fill="#38bdf8" opacity="0.33999999999999997"/>
  <circle cx="1094" cy="72" r="1.4" fill="#38bdf8" opacity="0.18"/>
  <circle cx="1108" cy="72" r="1.4" fill="#38bdf8" opacity="0.26"/>
  <circle cx="1010" cy="84" r="1.4" fill="#38bdf8" opacity="0.18"/>
  <circle cx="1024" cy="84" r="1.4" fill="#38bdf8" opacity="0.26"/>
  <circle cx="1038" cy="84" r="1.4" fill="#38bdf8" opacity="0.33999999999999997"/>
  <circle cx="1052" cy="84" r="1.4" fill="#38bdf8" opacity="0.18"/>
  <circle cx="1066" cy="84" r="1.4" fill="#38bdf8" opacity="0.26"/>
  <circle cx="1080" cy="84" r="1.4" fill="#38bdf8" opacity="0.33999999999999997"/>
  <circle cx="1094" cy="84" r="1.4" fill="#38bdf8" opacity="0.18"/>
  <circle cx="1108" cy="84" r="1.4" fill="#38bdf8" opacity="0.26"/>
  <circle cx="1010" cy="96" r="1.4" fill="#38bdf8" opacity="0.18"/>
  <circle cx="1024" cy="96" r="1.4" fill="#38bdf8" opacity="0.26"/>
  <circle cx="1038" cy="96" r="1.4" fill="#38bdf8" opacity="0.33999999999999997"/>
  <circle cx="1052" cy="96" r="1.4" fill="#38bdf8" opacity="0.18"/>
  <circle cx="1066" cy="96" r="1.4" fill="#38bdf8" opacity="0.26"/>
  <circle cx="1080" cy="96" r="1.4" fill="#38bdf8" opacity="0.33999999999999997"/>
  <circle cx="1094" cy="96" r="1.4" fill="#38bdf8" opacity="0.18"/>
  <circle cx="1108" cy="96" r="1.4" fill="#38bdf8" opacity="0.26"/>
  <circle cx="1010" cy="108" r="1.4" fill="#38bdf8" opacity="0.18"/>
  <circle cx="1024" cy="108" r="1.4" fill="#38bdf8" opacity="0.26"/>
  <circle cx="1038" cy="108" r="1.4" fill="#38bdf8" opacity="0.33999999999999997"/>
  <circle cx="1052" cy="108" r="1.4" fill="#38bdf8" opacity="0.18"/>
  <circle cx="1066" cy="108" r="1.4" fill="#38bdf8" opacity="0.26"/>
  <circle cx="1080" cy="108" r="1.4" fill="#38bdf8" opacity="0.33999999999999997"/>
  <circle cx="1094" cy="108" r="1.4" fill="#38bdf8" opacity="0.18"/>
  <circle cx="1108" cy="108" r="1.4" fill="#38bdf8" opacity="0.26"/>
  <circle cx="1010" cy="120" r="1.4" fill="#38bdf8" opacity="0.18"/>
  <circle cx="1024" cy="120" r="1.4" fill="#38bdf8" opacity="0.26"/>
  <circle cx="1038" cy="120" r="1.4" fill="#38bdf8" opacity="0.33999999999999997"/>
  <circle cx="1052" cy="120" r="1.4" fill="#38bdf8" opacity="0.18"/>
  <circle cx="1066" cy="120" r="1.4" fill="#38bdf8" opacity="0.26"/>
  <circle cx="1080" cy="120" r="1.4" fill="#38bdf8" opacity="0.33999999999999997"/>
  <circle cx="1094" cy="120" r="1.4" fill="#38bdf8" opacity="0.18"/>
  <circle cx="1108" cy="120" r="1.4" fill="#38bdf8" opacity="0.26"/>
<text x="740" y="162" font-family="Arial,sans-serif" font-size="9" font-weight="700" fill="#38bdf8" text-anchor="middle" opacity="0.55">01</text>
  <text x="1090" y="162" font-family="Arial,sans-serif" font-size="9" font-weight="700" fill="#38bdf8" text-anchor="middle" opacity="0.55">02</text>
  <text x="740" y="412" font-family="Arial,sans-serif" font-size="9" font-weight="700" fill="#38bdf8" text-anchor="middle" opacity="0.55">03</text>
  <text x="1090" y="412" font-family="Arial,sans-serif" font-size="9" font-weight="700" fill="#38bdf8" text-anchor="middle" opacity="0.55">04</text>
<text x="740" y="178" font-family="Arial,sans-serif" font-size="9" font-weight="700" fill="#94a3b8" opacity="0.7">STATUS</text>
  <text x="816" y="178" font-family="Arial,sans-serif" font-size="9" font-weight="700" fill="#94a3b8" opacity="0.7">OK</text>
  <text x="864" y="178" font-family="Arial,sans-serif" font-size="9" font-weight="700" fill="#94a3b8" opacity="0.7">VER</text>
  <text x="910" y="178" font-family="Arial,sans-serif" font-size="9" font-weight="700" fill="#94a3b8" opacity="0.7">v1.0</text>
  <text x="962" y="178" font-family="Arial,sans-serif" font-size="9" font-weight="700" fill="#94a3b8" opacity="0.7">BUILD</text>
  <text x="1024" y="178" font-family="Arial,sans-serif" font-size="9" font-weight="700" fill="#94a3b8" opacity="0.7">STAB</text>
<text x="40" y="380" font-family="Arial,sans-serif" font-size="8" font-weight="700" fill="#475569" opacity="0.7" text-anchor="middle">00</text>
  <text x="40" y="410" font-family="Arial,sans-serif" font-size="8" font-weight="700" fill="#475569" opacity="0.7" text-anchor="middle">01</text>
  <text x="40" y="440" font-family="Arial,sans-serif" font-size="8" font-weight="700" fill="#475569" opacity="0.7" text-anchor="middle">02</text>
  <text x="40" y="470" font-family="Arial,sans-serif" font-size="8" font-weight="700" fill="#475569" opacity="0.7" text-anchor="middle">03</text>
  <text x="40" y="500" font-family="Arial,sans-serif" font-size="8" font-weight="700" fill="#475569" opacity="0.7" text-anchor="middle">04</text>
  <text x="1160" y="380" font-family="Arial,sans-serif" font-size="8" font-weight="700" fill="#475569" opacity="0.7" text-anchor="middle">OK</text>
  <text x="1160" y="410" font-family="Arial,sans-serif" font-size="8" font-weight="700" fill="#475569" opacity="0.7" text-anchor="middle">RUN</text>
  <text x="1160" y="440" font-family="Arial,sans-serif" font-size="8" font-weight="700" fill="#475569" opacity="0.7" text-anchor="middle">OK</text>
  <text x="1160" y="470" font-family="Arial,sans-serif" font-size="8" font-weight="700" fill="#475569" opacity="0.7" text-anchor="middle">RUN</text>

<g transform="translate(914,278)" filter="url(#singleShadow)">
    <circle r="124" fill="none" stroke="#ef4444" stroke-opacity="0.18" stroke-width="1.2" stroke-dasharray="8 8"/>
    <path d="M-78 -30 L-78 36 L78 36 L78 -30 Z" fill="#0f172a" stroke="#ef4444" stroke-width="2.4" opacity="0.96"/>
    <rect x="-70" y="-22" width="140" height="50" rx="3" fill="#ef4444" fill-opacity="0.18" stroke="#ef4444" stroke-width="1.4"/>
    <path d="M-94 38 L94 38 L102 50 L-102 50 Z" fill="#0f172a" stroke="#ef4444" stroke-width="2.2" opacity="0.96"/>
    <rect x="-14" y="40" width="28" height="6" rx="2" fill="#ef4444" fill-opacity="0.45"/>
    <g fill="#38bdf8" font-family="Arial,sans-serif" font-size="7" font-weight="700">
      <text x="-62" y="-8" opacity="0.7">DEVICE</text>
      <text x="-62" y="2" opacity="0.55">macOS 14.5</text>
      <text x="-62" y="12" opacity="0.55">Apple Silicon</text>
      <text x="-62" y="22" opacity="0.55">FileVault: ON</text>
    </g>
    <g transform="translate(40 0)">
      <circle r="20" fill="#ef4444" fill-opacity="0.32" stroke="#ef4444" stroke-width="2"/>
      <path d="M0,-12 L9,-8 L9,2 C9,9 0,14 0,14 C0,14 -9,9 -9,2 L-9,-8 Z" fill="none" stroke="#f8fafc" stroke-width="1.8"/>
      <path d="M-3,0 L-1,2 L3,-2" stroke="#f8fafc" stroke-width="1.6" fill="none" stroke-linecap="round"/>
    </g>
    <g transform="translate(-86 -54)">
      <rect x="0" y="0" width="36" height="16" rx="3" fill="#38bdf8" fill-opacity="0.7"/>
      <text x="18" y="11" text-anchor="middle" font-family="Arial,sans-serif" font-size="8" font-weight="900" fill="#0f172a">MDM</text>
    </g>
    <text y="80" text-anchor="middle" font-family="Arial,sans-serif" font-size="11" font-weight="700" fill="#ef4444" opacity="0.85">macOS DEVICE</text>
    <text y="96" text-anchor="middle" font-family="Arial,sans-serif" font-size="10" fill="#38bdf8" opacity="0.7">MDM enrolled : compliant</text>
  </g>
<g transform="translate(84 66)">
    <rect width="160" height="36" rx="18" fill="#ef4444" opacity="0.22" stroke="#ef4444" stroke-width="1.2"/>
    <text x="80" y="23" font-family="Arial,sans-serif" font-size="13" font-weight="700" fill="#ef4444" text-anchor="middle">SECURITY</text>
  </g>
<text x="84" y="170" font-family="Arial,sans-serif" font-size="54" font-weight="700" fill="#f8fafc" letter-spacing="0.5">KANDJI MACOS MDM</text>
<text x="84" y="226" font-family="Arial,sans-serif" font-size="18" fill="#cbd5e1">SECURITY / KANDJI / MACOS</text>
  <rect x="84" y="252" width="520" height="1.5" fill="#334155" opacity="0.9"/>
  <text x="84" y="282" font-family="Arial,sans-serif" font-size="14" font-weight="700" fill="#94a3b8">VISUAL SYSTEM 153DB81F3C0B</text>
  <text x="84" y="310" font-family="Arial,sans-serif" font-size="14" fill="#94a3b8">Kandji macOS Complete Master Setup from Security Regulation Compliance to</text>
<g transform="translate(84 474)">
    <rect width="110" height="38" rx="19" fill="#ef4444" fill-opacity="0.16" stroke="#ef4444" stroke-width="1.2"/>
    <text x="55" y="24" font-family="Arial,sans-serif" font-size="13" font-weight="700" fill="#e2e8f0" text-anchor="middle">KANDJI</text>
  </g>
  <g transform="translate(208 474)">
    <rect width="110" height="38" rx="19" fill="#ef4444" fill-opacity="0.16" stroke="#ef4444" stroke-width="1.2"/>
    <text x="55" y="24" font-family="Arial,sans-serif" font-size="13" font-weight="700" fill="#e2e8f0" text-anchor="middle">MACOS</text>
  </g>
  <g transform="translate(332 474)">
    <rect width="110" height="38" rx="19" fill="#ef4444" fill-opacity="0.16" stroke="#ef4444" stroke-width="1.2"/>
    <text x="55" y="24" font-family="Arial,sans-serif" font-size="13" font-weight="700" fill="#e2e8f0" text-anchor="middle">MDM</text>
  </g>
  <g transform="translate(456 474)">
    <rect width="219" height="38" rx="19" fill="#ef4444" fill-opacity="0.16" stroke="#ef4444" stroke-width="1.2"/>
    <text x="109" y="24" font-family="Arial,sans-serif" font-size="13" font-weight="700" fill="#e2e8f0" text-anchor="middle">ENDPOINT-SECURITY</text>
  </g>
<g transform="translate(84 536)">
    <rect width="144" height="58" rx="16" fill="#111827" fill-opacity="0.78" stroke="#ef4444" stroke-opacity="0.4" stroke-width="1.2"/>
    <text x="18" y="24" font-family="Arial,sans-serif" font-size="11" font-weight="700" fill="#94a3b8">TOOL</text>
    <text x="18" y="43" font-family="Arial,sans-serif" font-size="16" font-weight="700" fill="#f8fafc">KANDJI</text>
  </g>
  <g transform="translate(246 536)">
    <rect width="144" height="58" rx="16" fill="#111827" fill-opacity="0.78" stroke="#ef4444" stroke-opacity="0.4" stroke-width="1.2"/>
    <text x="18" y="24" font-family="Arial,sans-serif" font-size="11" font-weight="700" fill="#94a3b8">OS</text>
    <text x="18" y="43" font-family="Arial,sans-serif" font-size="16" font-weight="700" fill="#f8fafc">MACOS</text>
  </g>
  <g transform="translate(408 536)">
    <rect width="144" height="58" rx="16" fill="#111827" fill-opacity="0.78" stroke="#ef4444" stroke-opacity="0.4" stroke-width="1.2"/>
    <text x="18" y="24" font-family="Arial,sans-serif" font-size="11" font-weight="700" fill="#94a3b8">CONTROL</text>
    <text x="18" y="43" font-family="Arial,sans-serif" font-size="16" font-weight="700" fill="#f8fafc">MDM</text>
  </g>
<g transform="translate(1030 74)">
    <rect width="130" height="34" rx="17" fill="#991b1b" opacity="0.22" stroke="#ef4444" stroke-width="1.2"/>
    <text x="65" y="22" font-family="Arial,sans-serif" font-size="12" font-weight="700" fill="#e2e8f0" text-anchor="middle">May 2, 2025</text>
  </g>
<line x1="50" y1="588" x2="1150" y2="588" stroke="#334155" stroke-width="1" opacity="0.5"/>
  <text x="1150" y="612" font-family="Arial,sans-serif" font-size="13" fill="#94a3b8" text-anchor="end">tech.2twodragon.com</text>
<g transform="translate(1080,504)" filter="url(#softShadow)">
  <rect x="-8" y="-8" width="100" height="100" rx="6" fill="#FFFFFF"/>
  <path fill="#0A1020" d="M0.0 0.0h12.0v1.714h-12.0z M18.857 0.0h5.143v1.714h-5.143z M27.429 0.0h3.429v1.714h-3.429z M32.571 0.0h1.714v1.714h-1.714z M39.429 0.0h10.286v1.714h-10.286z M51.429 0.0h3.429v1.714h-3.429z M60.0 0.0h3.429v1.714h-3.429z M68.571 0.0h1.714v1.714h-1.714z M72.0 0.0h12.0v1.714h-12.0z M0.0 1.714h1.714v1.714h-1.714z M10.286 1.714h1.714v1.714h-1.714z M15.429 1.714h6.857v1.714h-6.857z M25.714 1.714h3.429v1.714h-3.429z M30.857 1.714h5.143v1.714h-5.143z M37.714 1.714h5.143v1.714h-5.143z M48.0 1.714h1.714v1.714h-1.714z M53.143 1.714h1.714v1.714h-1.714z M60.0 1.714h10.286v1.714h-10.286z M72.0 1.714h1.714v1.714h-1.714z M82.286 1.714h1.714v1.714h-1.714z M0.0 3.429h1.714v1.714h-1.714z M3.429 3.429h5.143v1.714h-5.143z M10.286 3.429h1.714v1.714h-1.714z M13.714 3.429h1.714v1.714h-1.714z M17.143 3.429h1.714v1.714h-1.714z M20.571 3.429h1.714v1.714h-1.714z M25.714 3.429h1.714v1.714h-1.714z M29.143 3.429h1.714v1.714h-1.714z M34.286 3.429h1.714v1.714h-1.714z M37.714 3.429h1.714v1.714h-1.714z M41.143 3.429h10.286v1.714h-10.286z M54.857 3.429h1.714v1.714h-1.714z M60.0 3.429h1.714v1.714h-1.714z M66.857 3.429h3.429v1.714h-3.429z M72.0 3.429h1.714v1.714h-1.714z M75.429 3.429h5.143v1.714h-5.143z M82.286 3.429h1.714v1.714h-1.714z M0.0 5.143h1.714v1.714h-1.714z M3.429 5.143h5.143v1.714h-5.143z M10.286 5.143h1.714v1.714h-1.714z M13.714 5.143h5.143v1.714h-5.143z M20.571 5.143h1.714v1.714h-1.714z M27.429 5.143h5.143v1.714h-5.143z M37.714 5.143h3.429v1.714h-3.429z M42.857 5.143h3.429v1.714h-3.429z M49.714 5.143h1.714v1.714h-1.714z M53.143 5.143h1.714v1.714h-1.714z M58.286 5.143h6.857v1.714h-6.857z M66.857 5.143h1.714v1.714h-1.714z M72.0 5.143h1.714v1.714h-1.714z M75.429 5.143h5.143v1.714h-5.143z M82.286 5.143h1.714v1.714h-1.714z M0.0 6.857h1.714v1.714h-1.714z M3.429 6.857h5.143v1.714h-5.143z M10.286 6.857h1.714v1.714h-1.714z M13.714 6.857h3.429v1.714h-3.429z M18.857 6.857h1.714v1.714h-1.714z M24.0 6.857h3.429v1.714h-3.429z M29.143 6.857h1.714v1.714h-1.714z M32.571 6.857h15.429v1.714h-15.429z M49.714 6.857h3.429v1.714h-3.429z M54.857 6.857h1.714v1.714h-1.714z M60.0 6.857h5.143v1.714h-5.143z M72.0 6.857h1.714v1.714h-1.714z M75.429 6.857h5.143v1.714h-5.143z M82.286 6.857h1.714v1.714h-1.714z M0.0 8.571h1.714v1.714h-1.714z M10.286 8.571h1.714v1.714h-1.714z M13.714 8.571h1.714v1.714h-1.714z M17.143 8.571h1.714v1.714h-1.714z M20.571 8.571h1.714v1.714h-1.714z M25.714 8.571h5.143v1.714h-5.143z M34.286 8.571h1.714v1.714h-1.714z M37.714 8.571h1.714v1.714h-1.714z M44.571 8.571h1.714v1.714h-1.714z M56.571 8.571h6.857v1.714h-6.857z M65.143 8.571h1.714v1.714h-1.714z M72.0 8.571h1.714v1.714h-1.714z M82.286 8.571h1.714v1.714h-1.714z M0.0 10.286h12.0v1.714h-12.0z M13.714 10.286h1.714v1.714h-1.714z M17.143 10.286h1.714v1.714h-1.714z M20.571 10.286h1.714v1.714h-1.714z M24.0 10.286h1.714v1.714h-1.714z M27.429 10.286h1.714v1.714h-1.714z M30.857 10.286h1.714v1.714h-1.714z M34.286 10.286h1.714v1.714h-1.714z M37.714 10.286h1.714v1.714h-1.714z M41.143 10.286h1.714v1.714h-1.714z M44.571 10.286h1.714v1.714h-1.714z M48.0 10.286h1.714v1.714h-1.714z M51.429 10.286h1.714v1.714h-1.714z M54.857 10.286h1.714v1.714h-1.714z M58.286 10.286h1.714v1.714h-1.714z M61.714 10.286h1.714v1.714h-1.714z M65.143 10.286h1.714v1.714h-1.714z M68.571 10.286h1.714v1.714h-1.714z M72.0 10.286h12.0v1.714h-12.0z M13.714 12.0h8.571v1.714h-8.571z M24.0 12.0h3.429v1.714h-3.429z M30.857 12.0h8.571v1.714h-8.571z M44.571 12.0h5.143v1.714h-5.143z M51.429 12.0h3.429v1.714h-3.429z M56.571 12.0h3.429v1.714h-3.429z M63.429 12.0h3.429v1.714h-3.429z M0.0 13.714h1.714v1.714h-1.714z M3.429 13.714h8.571v1.714h-8.571z M20.571 13.714h1.714v1.714h-1.714z M29.143 13.714h3.429v1.714h-3.429z M34.286 13.714h12.0v1.714h-12.0z M49.714 13.714h1.714v1.714h-1.714z M53.143 13.714h1.714v1.714h-1.714z M60.0 13.714h10.286v1.714h-10.286z M72.0 13.714h8.571v1.714h-8.571z M3.429 15.429h5.143v1.714h-5.143z M13.714 15.429h1.714v1.714h-1.714z M17.143 15.429h5.143v1.714h-5.143z M25.714 15.429h5.143v1.714h-5.143z M32.571 15.429h1.714v1.714h-1.714z M36.0 15.429h1.714v1.714h-1.714z M42.857 15.429h1.714v1.714h-1.714z M46.286 15.429h1.714v1.714h-1.714z M49.714 15.429h6.857v1.714h-6.857z M63.429 15.429h1.714v1.714h-1.714z M70.286 15.429h6.857v1.714h-6.857z M78.857 15.429h3.429v1.714h-3.429z M1.714 17.143h1.714v1.714h-1.714z M6.857 17.143h6.857v1.714h-6.857z M17.143 17.143h3.429v1.714h-3.429z M22.286 17.143h3.429v1.714h-3.429z M29.143 17.143h1.714v1.714h-1.714z M32.571 17.143h1.714v1.714h-1.714z M37.714 17.143h3.429v1.714h-3.429z M42.857 17.143h5.143v1.714h-5.143z M49.714 17.143h6.857v1.714h-6.857z M72.0 17.143h5.143v1.714h-5.143z M78.857 17.143h1.714v1.714h-1.714z M82.286 17.143h1.714v1.714h-1.714z M0.0 18.857h5.143v1.714h-5.143z M6.857 18.857h3.429v1.714h-3.429z M12.0 18.857h5.143v1.714h-5.143z M18.857 18.857h3.429v1.714h-3.429z M25.714 18.857h1.714v1.714h-1.714z M29.143 18.857h1.714v1.714h-1.714z M34.286 18.857h1.714v1.714h-1.714z M41.143 18.857h12.0v1.714h-12.0z M54.857 18.857h3.429v1.714h-3.429z M60.0 18.857h1.714v1.714h-1.714z M63.429 18.857h3.429v1.714h-3.429z M68.571 18.857h1.714v1.714h-1.714z M73.714 18.857h3.429v1.714h-3.429z M82.286 18.857h1.714v1.714h-1.714z M0.0 20.571h3.429v1.714h-3.429z M8.571 20.571h3.429v1.714h-3.429z M13.714 20.571h3.429v1.714h-3.429z M18.857 20.571h1.714v1.714h-1.714z M25.714 20.571h1.714v1.714h-1.714z M30.857 20.571h3.429v1.714h-3.429z M36.0 20.571h6.857v1.714h-6.857z M46.286 20.571h1.714v1.714h-1.714z M49.714 20.571h5.143v1.714h-5.143z M56.571 20.571h8.571v1.714h-8.571z M66.857 20.571h3.429v1.714h-3.429z M73.714 20.571h1.714v1.714h-1.714z M82.286 20.571h1.714v1.714h-1.714z M8.571 22.286h1.714v1.714h-1.714z M13.714 22.286h1.714v1.714h-1.714z M22.286 22.286h1.714v1.714h-1.714z M27.429 22.286h1.714v1.714h-1.714z M36.0 22.286h1.714v1.714h-1.714z M39.429 22.286h1.714v1.714h-1.714z M42.857 22.286h1.714v1.714h-1.714z M49.714 22.286h6.857v1.714h-6.857z M61.714 22.286h3.429v1.714h-3.429z M72.0 22.286h3.429v1.714h-3.429z M77.143 22.286h1.714v1.714h-1.714z M80.571 22.286h1.714v1.714h-1.714z M0.0 24.0h1.714v1.714h-1.714z M6.857 24.0h1.714v1.714h-1.714z M10.286 24.0h3.429v1.714h-3.429z M15.429 24.0h13.714v1.714h-13.714z M30.857 24.0h3.429v1.714h-3.429z M39.429 24.0h1.714v1.714h-1.714z M44.571 24.0h1.714v1.714h-1.714z M48.0 24.0h1.714v1.714h-1.714z M53.143 24.0h1.714v1.714h-1.714z M56.571 24.0h8.571v1.714h-8.571z M68.571 24.0h1.714v1.714h-1.714z M73.714 24.0h1.714v1.714h-1.714z M78.857 24.0h5.143v1.714h-5.143z M0.0 25.714h10.286v1.714h-10.286z M15.429 25.714h1.714v1.714h-1.714z M18.857 25.714h1.714v1.714h-1.714z M24.0 25.714h5.143v1.714h-5.143z M30.857 25.714h1.714v1.714h-1.714z M36.0 25.714h1.714v1.714h-1.714z M39.429 25.714h3.429v1.714h-3.429z M44.571 25.714h3.429v1.714h-3.429z M49.714 25.714h1.714v1.714h-1.714z M54.857 25.714h1.714v1.714h-1.714z M58.286 25.714h1.714v1.714h-1.714z M65.143 25.714h1.714v1.714h-1.714z M68.571 25.714h8.571v1.714h-8.571z M82.286 25.714h1.714v1.714h-1.714z M1.714 27.429h3.429v1.714h-3.429z M6.857 27.429h5.143v1.714h-5.143z M13.714 27.429h1.714v1.714h-1.714z M18.857 27.429h1.714v1.714h-1.714z M24.0 27.429h8.571v1.714h-8.571z M34.286 27.429h1.714v1.714h-1.714z M39.429 27.429h5.143v1.714h-5.143z M46.286 27.429h1.714v1.714h-1.714z M53.143 27.429h1.714v1.714h-1.714z M58.286 27.429h6.857v1.714h-6.857z M66.857 27.429h6.857v1.714h-6.857z M77.143 27.429h3.429v1.714h-3.429z M1.714 29.143h3.429v1.714h-3.429z M6.857 29.143h1.714v1.714h-1.714z M20.571 29.143h1.714v1.714h-1.714z M30.857 29.143h3.429v1.714h-3.429z M36.0 29.143h1.714v1.714h-1.714z M39.429 29.143h5.143v1.714h-5.143z M46.286 29.143h1.714v1.714h-1.714z M49.714 29.143h3.429v1.714h-3.429z M63.429 29.143h1.714v1.714h-1.714z M66.857 29.143h1.714v1.714h-1.714z M72.0 29.143h1.714v1.714h-1.714z M1.714 30.857h1.714v1.714h-1.714z M5.143 30.857h12.0v1.714h-12.0z M18.857 30.857h1.714v1.714h-1.714z M24.0 30.857h1.714v1.714h-1.714z M27.429 30.857h5.143v1.714h-5.143z M36.0 30.857h6.857v1.714h-6.857z M44.571 30.857h1.714v1.714h-1.714z M48.0 30.857h1.714v1.714h-1.714z M53.143 30.857h1.714v1.714h-1.714z M56.571 30.857h1.714v1.714h-1.714z M60.0 30.857h1.714v1.714h-1.714z M65.143 30.857h5.143v1.714h-5.143z M77.143 30.857h1.714v1.714h-1.714z M80.571 30.857h3.429v1.714h-3.429z M0.0 32.571h3.429v1.714h-3.429z M5.143 32.571h5.143v1.714h-5.143z M20.571 32.571h6.857v1.714h-6.857z M29.143 32.571h6.857v1.714h-6.857z M39.429 32.571h1.714v1.714h-1.714z M48.0 32.571h3.429v1.714h-3.429z M53.143 32.571h1.714v1.714h-1.714z M58.286 32.571h3.429v1.714h-3.429z M66.857 32.571h1.714v1.714h-1.714z M72.0 32.571h5.143v1.714h-5.143z M3.429 34.286h5.143v1.714h-5.143z M10.286 34.286h1.714v1.714h-1.714z M18.857 34.286h1.714v1.714h-1.714z M30.857 34.286h1.714v1.714h-1.714z M34.286 34.286h10.286v1.714h-10.286z M53.143 34.286h1.714v1.714h-1.714z M58.286 34.286h12.0v1.714h-12.0z M72.0 34.286h1.714v1.714h-1.714z M78.857 34.286h3.429v1.714h-3.429z M0.0 36.0h3.429v1.714h-3.429z M6.857 36.0h3.429v1.714h-3.429z M12.0 36.0h1.714v1.714h-1.714z M20.571 36.0h3.429v1.714h-3.429z M30.857 36.0h3.429v1.714h-3.429z M37.714 36.0h3.429v1.714h-3.429z M51.429 36.0h5.143v1.714h-5.143z M60.0 36.0h1.714v1.714h-1.714z M63.429 36.0h1.714v1.714h-1.714z M70.286 36.0h8.571v1.714h-8.571z M80.571 36.0h3.429v1.714h-3.429z M0.0 37.714h15.429v1.714h-15.429z M18.857 37.714h3.429v1.714h-3.429z M29.143 37.714h1.714v1.714h-1.714z M36.0 37.714h12.0v1.714h-12.0z M53.143 37.714h6.857v1.714h-6.857z M61.714 37.714h1.714v1.714h-1.714z M65.143 37.714h18.857v1.714h-18.857z M3.429 39.429h5.143v1.714h-5.143z M13.714 39.429h6.857v1.714h-6.857z M22.286 39.429h3.429v1.714h-3.429z M27.429 39.429h3.429v1.714h-3.429z M32.571 39.429h1.714v1.714h-1.714z M37.714 39.429h1.714v1.714h-1.714z M44.571 39.429h1.714v1.714h-1.714z M48.0 39.429h3.429v1.714h-3.429z M58.286 39.429h1.714v1.714h-1.714z M65.143 39.429h5.143v1.714h-5.143z M75.429 39.429h3.429v1.714h-3.429z M0.0 41.143h8.571v1.714h-8.571z M10.286 41.143h1.714v1.714h-1.714z M13.714 41.143h1.714v1.714h-1.714z M18.857 41.143h3.429v1.714h-3.429z M27.429 41.143h5.143v1.714h-5.143z M34.286 41.143h5.143v1.714h-5.143z M41.143 41.143h1.714v1.714h-1.714z M44.571 41.143h1.714v1.714h-1.714z M49.714 41.143h1.714v1.714h-1.714z M53.143 41.143h1.714v1.714h-1.714z M58.286 41.143h8.571v1.714h-8.571z M68.571 41.143h1.714v1.714h-1.714z M72.0 41.143h1.714v1.714h-1.714z M75.429 41.143h1.714v1.714h-1.714z M78.857 41.143h1.714v1.714h-1.714z M82.286 41.143h1.714v1.714h-1.714z M5.143 42.857h3.429v1.714h-3.429z M13.714 42.857h3.429v1.714h-3.429z M18.857 42.857h3.429v1.714h-3.429z M25.714 42.857h3.429v1.714h-3.429z M37.714 42.857h1.714v1.714h-1.714z M44.571 42.857h1.714v1.714h-1.714z M49.714 42.857h6.857v1.714h-6.857z M61.714 42.857h3.429v1.714h-3.429z M66.857 42.857h3.429v1.714h-3.429z M75.429 42.857h3.429v1.714h-3.429z M80.571 42.857h1.714v1.714h-1.714z M0.0 44.571h5.143v1.714h-5.143z M6.857 44.571h15.429v1.714h-15.429z M24.0 44.571h3.429v1.714h-3.429z M29.143 44.571h1.714v1.714h-1.714z M32.571 44.571h1.714v1.714h-1.714z M37.714 44.571h8.571v1.714h-8.571z M48.0 44.571h1.714v1.714h-1.714z M51.429 44.571h1.714v1.714h-1.714z M56.571 44.571h6.857v1.714h-6.857z M65.143 44.571h12.0v1.714h-12.0z M78.857 44.571h1.714v1.714h-1.714z M82.286 44.571h1.714v1.714h-1.714z M0.0 46.286h3.429v1.714h-3.429z M6.857 46.286h1.714v1.714h-1.714z M13.714 46.286h1.714v1.714h-1.714z M18.857 46.286h3.429v1.714h-3.429z M24.0 46.286h3.429v1.714h-3.429z M29.143 46.286h1.714v1.714h-1.714z M34.286 46.286h1.714v1.714h-1.714z M41.143 46.286h3.429v1.714h-3.429z M46.286 46.286h6.857v1.714h-6.857z M54.857 46.286h6.857v1.714h-6.857z M63.429 46.286h3.429v1.714h-3.429z M72.0 46.286h1.714v1.714h-1.714z M0.0 48.0h1.714v1.714h-1.714z M3.429 48.0h8.571v1.714h-8.571z M13.714 48.0h6.857v1.714h-6.857z M24.0 48.0h8.571v1.714h-8.571z M37.714 48.0h5.143v1.714h-5.143z M49.714 48.0h1.714v1.714h-1.714z M53.143 48.0h1.714v1.714h-1.714z M60.0 48.0h8.571v1.714h-8.571z M72.0 48.0h3.429v1.714h-3.429z M77.143 48.0h3.429v1.714h-3.429z M82.286 48.0h1.714v1.714h-1.714z M1.714 49.714h3.429v1.714h-3.429z M8.571 49.714h1.714v1.714h-1.714z M18.857 49.714h10.286v1.714h-10.286z M30.857 49.714h8.571v1.714h-8.571z M41.143 49.714h5.143v1.714h-5.143z M48.0 49.714h6.857v1.714h-6.857z M63.429 49.714h1.714v1.714h-1.714z M66.857 49.714h8.571v1.714h-8.571z M0.0 51.429h3.429v1.714h-3.429z M10.286 51.429h1.714v1.714h-1.714z M17.143 51.429h1.714v1.714h-1.714z M20.571 51.429h1.714v1.714h-1.714z M24.0 51.429h1.714v1.714h-1.714z M27.429 51.429h3.429v1.714h-3.429z M34.286 51.429h1.714v1.714h-1.714z M37.714 51.429h6.857v1.714h-6.857z M48.0 51.429h3.429v1.714h-3.429z M58.286 51.429h1.714v1.714h-1.714z M61.714 51.429h3.429v1.714h-3.429z M70.286 51.429h6.857v1.714h-6.857z M80.571 51.429h3.429v1.714h-3.429z M0.0 53.143h3.429v1.714h-3.429z M6.857 53.143h3.429v1.714h-3.429z M12.0 53.143h1.714v1.714h-1.714z M15.429 53.143h1.714v1.714h-1.714z M22.286 53.143h6.857v1.714h-6.857z M30.857 53.143h5.143v1.714h-5.143z M41.143 53.143h1.714v1.714h-1.714z M44.571 53.143h5.143v1.714h-5.143z M54.857 53.143h1.714v1.714h-1.714z M63.429 53.143h3.429v1.714h-3.429z M68.571 53.143h1.714v1.714h-1.714z M73.714 53.143h3.429v1.714h-3.429z M80.571 53.143h3.429v1.714h-3.429z M0.0 54.857h1.714v1.714h-1.714z M3.429 54.857h1.714v1.714h-1.714z M8.571 54.857h15.429v1.714h-15.429z M27.429 54.857h3.429v1.714h-3.429z M34.286 54.857h1.714v1.714h-1.714z M37.714 54.857h6.857v1.714h-6.857z M51.429 54.857h3.429v1.714h-3.429z M58.286 54.857h5.143v1.714h-5.143z M65.143 54.857h3.429v1.714h-3.429z M70.286 54.857h1.714v1.714h-1.714z M73.714 54.857h3.429v1.714h-3.429z M80.571 54.857h1.714v1.714h-1.714z M0.0 56.571h3.429v1.714h-3.429z M8.571 56.571h1.714v1.714h-1.714z M13.714 56.571h6.857v1.714h-6.857z M24.0 56.571h3.429v1.714h-3.429z M29.143 56.571h5.143v1.714h-5.143z M39.429 56.571h5.143v1.714h-5.143z M49.714 56.571h5.143v1.714h-5.143z M60.0 56.571h1.714v1.714h-1.714z M70.286 56.571h1.714v1.714h-1.714z M73.714 56.571h1.714v1.714h-1.714z M5.143 58.286h6.857v1.714h-6.857z M15.429 58.286h1.714v1.714h-1.714z M20.571 58.286h1.714v1.714h-1.714z M25.714 58.286h3.429v1.714h-3.429z M36.0 58.286h3.429v1.714h-3.429z M42.857 58.286h1.714v1.714h-1.714z M48.0 58.286h3.429v1.714h-3.429z M54.857 58.286h1.714v1.714h-1.714z M58.286 58.286h3.429v1.714h-3.429z M65.143 58.286h5.143v1.714h-5.143z M72.0 58.286h1.714v1.714h-1.714z M77.143 58.286h1.714v1.714h-1.714z M80.571 58.286h3.429v1.714h-3.429z M0.0 60.0h5.143v1.714h-5.143z M8.571 60.0h1.714v1.714h-1.714z M17.143 60.0h1.714v1.714h-1.714z M27.429 60.0h1.714v1.714h-1.714z M30.857 60.0h1.714v1.714h-1.714z M39.429 60.0h1.714v1.714h-1.714z M42.857 60.0h8.571v1.714h-8.571z M53.143 60.0h1.714v1.714h-1.714z M65.143 60.0h1.714v1.714h-1.714z M73.714 60.0h1.714v1.714h-1.714z M80.571 60.0h3.429v1.714h-3.429z M0.0 61.714h5.143v1.714h-5.143z M8.571 61.714h3.429v1.714h-3.429z M13.714 61.714h1.714v1.714h-1.714z M17.143 61.714h3.429v1.714h-3.429z M22.286 61.714h1.714v1.714h-1.714z M30.857 61.714h6.857v1.714h-6.857z M42.857 61.714h3.429v1.714h-3.429z M53.143 61.714h1.714v1.714h-1.714z M56.571 61.714h1.714v1.714h-1.714z M60.0 61.714h3.429v1.714h-3.429z M66.857 61.714h1.714v1.714h-1.714z M70.286 61.714h1.714v1.714h-1.714z M73.714 61.714h3.429v1.714h-3.429z M78.857 61.714h1.714v1.714h-1.714z M82.286 61.714h1.714v1.714h-1.714z M3.429 63.429h3.429v1.714h-3.429z M8.571 63.429h1.714v1.714h-1.714z M18.857 63.429h1.714v1.714h-1.714z M24.0 63.429h1.714v1.714h-1.714z M27.429 63.429h1.714v1.714h-1.714z M32.571 63.429h1.714v1.714h-1.714z M36.0 63.429h12.0v1.714h-12.0z M49.714 63.429h5.143v1.714h-5.143z M60.0 63.429h3.429v1.714h-3.429z M66.857 63.429h1.714v1.714h-1.714z M70.286 63.429h1.714v1.714h-1.714z M80.571 63.429h1.714v1.714h-1.714z M1.714 65.143h1.714v1.714h-1.714z M8.571 65.143h3.429v1.714h-3.429z M13.714 65.143h3.429v1.714h-3.429z M18.857 65.143h1.714v1.714h-1.714z M22.286 65.143h1.714v1.714h-1.714z M29.143 65.143h6.857v1.714h-6.857z M37.714 65.143h1.714v1.714h-1.714z M41.143 65.143h3.429v1.714h-3.429z M48.0 65.143h1.714v1.714h-1.714z M54.857 65.143h1.714v1.714h-1.714z M58.286 65.143h5.143v1.714h-5.143z M65.143 65.143h5.143v1.714h-5.143z M72.0 65.143h5.143v1.714h-5.143z M80.571 65.143h3.429v1.714h-3.429z M1.714 66.857h5.143v1.714h-5.143z M12.0 66.857h5.143v1.714h-5.143z M18.857 66.857h3.429v1.714h-3.429z M25.714 66.857h3.429v1.714h-3.429z M36.0 66.857h6.857v1.714h-6.857z M44.571 66.857h5.143v1.714h-5.143z M51.429 66.857h1.714v1.714h-1.714z M54.857 66.857h1.714v1.714h-1.714z M58.286 66.857h1.714v1.714h-1.714z M68.571 66.857h3.429v1.714h-3.429z M73.714 66.857h5.143v1.714h-5.143z M80.571 66.857h3.429v1.714h-3.429z M0.0 68.571h5.143v1.714h-5.143z M10.286 68.571h3.429v1.714h-3.429z M20.571 68.571h1.714v1.714h-1.714z M24.0 68.571h1.714v1.714h-1.714z M27.429 68.571h1.714v1.714h-1.714z M30.857 68.571h15.429v1.714h-15.429z M49.714 68.571h1.714v1.714h-1.714z M53.143 68.571h1.714v1.714h-1.714z M60.0 68.571h5.143v1.714h-5.143z M66.857 68.571h17.143v1.714h-17.143z M13.714 70.286h1.714v1.714h-1.714z M17.143 70.286h3.429v1.714h-3.429z M22.286 70.286h1.714v1.714h-1.714z M25.714 70.286h1.714v1.714h-1.714z M29.143 70.286h5.143v1.714h-5.143z M36.0 70.286h3.429v1.714h-3.429z M44.571 70.286h1.714v1.714h-1.714z M48.0 70.286h6.857v1.714h-6.857z M63.429 70.286h1.714v1.714h-1.714z M68.571 70.286h1.714v1.714h-1.714z M75.429 70.286h1.714v1.714h-1.714z M80.571 70.286h1.714v1.714h-1.714z M0.0 72.0h12.0v1.714h-12.0z M15.429 72.0h1.714v1.714h-1.714z M18.857 72.0h3.429v1.714h-3.429z M37.714 72.0h1.714v1.714h-1.714z M41.143 72.0h1.714v1.714h-1.714z M44.571 72.0h1.714v1.714h-1.714z M48.0 72.0h1.714v1.714h-1.714z M56.571 72.0h5.143v1.714h-5.143z M65.143 72.0h1.714v1.714h-1.714z M68.571 72.0h1.714v1.714h-1.714z M72.0 72.0h1.714v1.714h-1.714z M75.429 72.0h1.714v1.714h-1.714z M82.286 72.0h1.714v1.714h-1.714z M0.0 73.714h1.714v1.714h-1.714z M10.286 73.714h1.714v1.714h-1.714z M13.714 73.714h1.714v1.714h-1.714z M17.143 73.714h3.429v1.714h-3.429z M22.286 73.714h1.714v1.714h-1.714z M25.714 73.714h8.571v1.714h-8.571z M36.0 73.714h3.429v1.714h-3.429z M44.571 73.714h8.571v1.714h-8.571z M54.857 73.714h1.714v1.714h-1.714z M60.0 73.714h1.714v1.714h-1.714z M68.571 73.714h1.714v1.714h-1.714z M75.429 73.714h1.714v1.714h-1.714z M80.571 73.714h1.714v1.714h-1.714z M0.0 75.429h1.714v1.714h-1.714z M3.429 75.429h5.143v1.714h-5.143z M10.286 75.429h1.714v1.714h-1.714z M13.714 75.429h5.143v1.714h-5.143z M24.0 75.429h1.714v1.714h-1.714z M30.857 75.429h3.429v1.714h-3.429z M37.714 75.429h8.571v1.714h-8.571z M49.714 75.429h5.143v1.714h-5.143z M56.571 75.429h1.714v1.714h-1.714z M61.714 75.429h5.143v1.714h-5.143z M68.571 75.429h8.571v1.714h-8.571z M78.857 75.429h3.429v1.714h-3.429z M0.0 77.143h1.714v1.714h-1.714z M3.429 77.143h5.143v1.714h-5.143z M10.286 77.143h1.714v1.714h-1.714z M13.714 77.143h5.143v1.714h-5.143z M20.571 77.143h1.714v1.714h-1.714z M29.143 77.143h3.429v1.714h-3.429z M37.714 77.143h1.714v1.714h-1.714z M42.857 77.143h3.429v1.714h-3.429z M48.0 77.143h5.143v1.714h-5.143z M54.857 77.143h1.714v1.714h-1.714z M63.429 77.143h1.714v1.714h-1.714z M66.857 77.143h10.286v1.714h-10.286z M82.286 77.143h1.714v1.714h-1.714z M0.0 78.857h1.714v1.714h-1.714z M3.429 78.857h5.143v1.714h-5.143z M10.286 78.857h1.714v1.714h-1.714z M13.714 78.857h6.857v1.714h-6.857z M22.286 78.857h6.857v1.714h-6.857z M30.857 78.857h3.429v1.714h-3.429z M37.714 78.857h5.143v1.714h-5.143z M44.571 78.857h3.429v1.714h-3.429z M58.286 78.857h3.429v1.714h-3.429z M65.143 78.857h1.714v1.714h-1.714z M73.714 78.857h1.714v1.714h-1.714z M77.143 78.857h1.714v1.714h-1.714z M0.0 80.571h1.714v1.714h-1.714z M10.286 80.571h1.714v1.714h-1.714z M18.857 80.571h5.143v1.714h-5.143z M29.143 80.571h1.714v1.714h-1.714z M39.429 80.571h13.714v1.714h-13.714z M54.857 80.571h1.714v1.714h-1.714z M61.714 80.571h6.857v1.714h-6.857z M70.286 80.571h3.429v1.714h-3.429z M82.286 80.571h1.714v1.714h-1.714z M0.0 82.286h12.0v1.714h-12.0z M13.714 82.286h3.429v1.714h-3.429z M18.857 82.286h3.429v1.714h-3.429z M32.571 82.286h3.429v1.714h-3.429z M39.429 82.286h3.429v1.714h-3.429z M51.429 82.286h3.429v1.714h-3.429z M60.0 82.286h5.143v1.714h-5.143z M68.571 82.286h3.429v1.714h-3.429z M77.143 82.286h6.857v1.714h-6.857z"/>
</g>
<text x="1122" y="614" font-family="Inter, Helvetica, Arial, sans-serif" font-size="10" font-weight="700" fill="#F5F7FA" text-anchor="middle">scan / full post</text>
</svg>