<svg xmlns="http://www.w3.org/2000/svg" viewBox="0 0 1200 630" width="1200" height="630">
  <title>Cloud Security Course 7Batch 5Week: AWS Control T...</title>
  <defs>
    <linearGradient id="bg" x1="0%" y1="0%" x2="100%" y2="100%">
      <stop offset="0%" stop-color="#0b0e1a"/>
      <stop offset="50%" stop-color="#111827"/>
      <stop offset="100%" stop-color="#0f0a1e"/>
    </linearGradient>
    <linearGradient id="accent" x1="0%" y1="0%" x2="100%" y2="100%">
      <stop offset="0%" stop-color="#0ea5e9"/>
      <stop offset="100%" stop-color="#8b5cf6"/>
    </linearGradient>
    <filter id="glow"><feGaussianBlur stdDeviation="4" result="b"/><feMerge><feMergeNode in="b"/><feMergeNode in="SourceGraphic"/></feMerge></filter>
    <filter id="sg"><feGaussianBlur stdDeviation="30"/></filter>
    <filter id="shadow"><feDropShadow dx="0" dy="6" stdDeviation="12" flood-color="#000" flood-opacity="0.4"/></filter>
  </defs>
  <rect width="1200" height="630" fill="url(#bg)"/>
  <circle cx="200" cy="200" r="250" fill="#0ea5e9" opacity="0.06" filter="url(#sg)"/>
  <circle cx="900" cy="400" r="200" fill="#8b5cf6" opacity="0.05" filter="url(#sg)"/>
  <g transform="translate(600,260)">
    <!-- Central Zscaler cloud -->
    <ellipse cx="0" cy="0" rx="80" ry="50" fill="#0f172a" stroke="#0ea5e9" stroke-width="2.5" filter="url(#shadow)"/>
    <text x="0" y="-8" font-family="Arial,sans-serif" font-size="16" font-weight="bold" fill="#38bdf8" text-anchor="middle">ZERO</text>
    <text x="0" y="14" font-family="Arial,sans-serif" font-size="16" font-weight="bold" fill="#38bdf8" text-anchor="middle">TRUST</text>

    <!-- User endpoints -->
    <g transform="translate(-240,-60)">
      <rect x="-35" y="-25" width="70" height="50" rx="8" fill="#0f172a" stroke="#22c55e" stroke-width="1.5"/>
    </g>
    <g transform="translate(-240,60)">
      <rect x="-35" y="-25" width="70" height="50" rx="8" fill="#0f172a" stroke="#22c55e" stroke-width="1.5"/>
    </g>

    <!-- Cloud apps -->
    <g transform="translate(240,-60)">
      <rect x="-35" y="-25" width="70" height="50" rx="8" fill="#0f172a" stroke="#8b5cf6" stroke-width="1.5"/>
    </g>
    <g transform="translate(240,60)">
      <rect x="-35" y="-25" width="70" height="50" rx="8" fill="#0f172a" stroke="#8b5cf6" stroke-width="1.5"/>
    </g>

    <!-- SSL inspection indicator -->
    <g transform="translate(0,100)" opacity="0.6">
      <rect x="-45" y="-14" width="90" height="28" rx="14" fill="#f59e0b" opacity="0.2" stroke="#f59e0b" stroke-width="1"/>
    </g>

    <!-- Encrypted tunnels -->
    <g stroke="#0ea5e9" stroke-width="1.5" stroke-dasharray="6,4" opacity="0.4">
      <line x1="-170" y1="-50" x2="-80" y2="-20"/>
      <line x1="-170" y1="60" x2="-80" y2="20"/>
      <line x1="80" y1="-20" x2="170" y2="-50"/>
      <line x1="80" y1="20" x2="170" y2="60"/>
    </g>

    <!-- Blocked threats -->
    <g transform="translate(0,-100)" opacity="0.5">
      <line x1="-15" y1="-15" x2="15" y2="15" stroke="#ef4444" stroke-width="3"/>
      <line x1="15" y1="-15" x2="-15" y2="15" stroke="#ef4444" stroke-width="3"/>
    </g>
  </g>

  <text x="600" y="490" font-family="Arial,sans-serif" font-size="28" font-weight="bold" fill="white" text-anchor="middle" filter="url(#glow)">Cloud Security Course 7Batch</text>
  <text x="600" y="555" font-family="Arial,sans-serif" font-size="15" fill="#94a3b8" text-anchor="middle">AWS | Control-Tower | ZTNA | Zero-Trust</text>
  <rect x="40" y="22" width="140" height="32" rx="16" fill="#0ea5e9" opacity="0.25" stroke="#0ea5e9" stroke-width="1"/>
  <text x="110" y="44" font-family="Arial,sans-serif" font-size="13" font-weight="bold" fill="#0ea5e9" text-anchor="middle">CLOUD</text>
  <rect x="1020" y="22" width="140" height="32" rx="16" fill="#3b82f6" opacity="0.2" stroke="#3b82f6" stroke-width="1"/>
  <text x="1090" y="44" font-family="Arial,sans-serif" font-size="13" font-weight="bold" fill="#93c5fd" text-anchor="middle">May 16, 2025</text>
  <line x1="50" y1="588" x2="1150" y2="588" stroke="#334155" stroke-width="1" opacity="0.5"/>
  <text x="1150" y="612" font-family="Arial,sans-serif" font-size="13" fill="#94a3b8" text-anchor="end">tech.2twodragon.com</text>
</svg>