<svg xmlns="http://www.w3.org/2000/svg" viewBox="0 0 1200 630" width="1200" height="630" role="img" aria-label="cloud Control Tower SCP SIEM">
<title>Control Tower SCP SIEM</title>
<!-- profile: high-quality-cover (2025 upgraded L25-single) -->
<defs>
    <linearGradient id="bgSpreadXC308" x1="0%" y1="0%" x2="100%" y2="100%">
      <stop offset="0%" stop-color="#0b1120"/>
      <stop offset="52%" stop-color="#121a2f"/>
      <stop offset="100%" stop-color="#170f25"/>
    </linearGradient>
    <linearGradient id="heroPanelXC308" x1="0%" y1="0%" x2="100%" y2="100%">
      <stop offset="0%" stop-color="#0f172a" stop-opacity="0.96"/>
      <stop offset="100%" stop-color="#111827" stop-opacity="0.86"/>
    </linearGradient>
    <pattern id="microGridXC308" x="0" y="0" width="36" height="36" patternUnits="userSpaceOnUse">
      <path d="M36 0H0V36" fill="none" stroke="#334155" stroke-width="1" opacity="0.25"/>
      <circle cx="18" cy="18" r="1.2" fill="#60a5fa" opacity="0.18"/>
    </pattern>
    <filter id="sgBlur" x="-30%" y="-30%" width="160%" height="160%">
      <feGaussianBlur stdDeviation="36"/>
    </filter>
    <filter id="singleShadow" x="-30%" y="-30%" width="180%" height="180%">
      <feDropShadow dx="0" dy="14" stdDeviation="22" flood-color="#020617" flood-opacity="0.42"/>
    </filter>
  </defs>
<rect width="1200" height="630" fill="url(#bgSpreadXC308)"/>
<rect width="1200" height="630" fill="url(#microGridXC308)"/>
<circle cx="202" cy="150" r="190" fill="#60a5fa" opacity="0.08" filter="url(#sgBlur)"/>
  <circle cx="1020" cy="486" r="220" fill="#1d4ed8" opacity="0.08" filter="url(#sgBlur)"/>
  <circle cx="920" cy="160" r="140" fill="#22d3ee" opacity="0.05" filter="url(#sgBlur)"/>
  <path d="M0 96 C224 46 426 44 654 118 L654 630 L0 630 Z" fill="#020617" opacity="0.24"/>
  <path d="M0 526 C248 490 426 486 654 548" fill="none" stroke="#475569" stroke-width="1.2" opacity="0.22"/>
  <path d="M704 148 C792 118 892 122 980 176" fill="none" stroke="#22d3ee" stroke-width="1.3" opacity="0.24"/>
  <path d="M716 430 C804 462 914 458 1010 390" fill="none" stroke="#60a5fa" stroke-width="1.2" opacity="0.22"/>
<rect x="720" y="132" width="388" height="292" rx="28" fill="url(#heroPanelXC308)" stroke="#60a5fa" stroke-opacity="0.28" stroke-width="1.4" filter="url(#singleShadow)"/>
  <rect x="738" y="150" width="352" height="256" rx="22" fill="none" stroke="#334155" stroke-opacity="0.7" stroke-width="1"/>
  <rect x="742" y="152" width="108" height="12" rx="6" fill="#60a5fa" opacity="0.28"/>
  <rect x="864" y="152" width="72" height="12" rx="6" fill="#334155" opacity="0.55"/>
  <rect x="948" y="152" width="48" height="12" rx="6" fill="#334155" opacity="0.35"/>
<g><rect x="742" y="156" width="6" height="6" fill="#60a5fa" opacity="0.42"/><rect x="750" y="156" width="6" height="6" fill="#60a5fa" opacity="0.42"/><rect x="758" y="156" width="6" height="6" fill="#60a5fa" opacity="0.42"/><rect x="766" y="156" width="6" height="6" fill="#60a5fa" opacity="0.42"/><rect x="782" y="156" width="6" height="6" fill="#60a5fa" opacity="0.42"/><rect x="790" y="156" width="6" height="6" fill="#60a5fa" opacity="0.42"/><rect x="798" y="156" width="6" height="6" fill="#60a5fa" opacity="0.42"/><rect x="742" y="164" width="6" height="6" fill="#60a5fa" opacity="0.42"/><rect x="774" y="164" width="6" height="6" fill="#60a5fa" opacity="0.42"/><rect x="790" y="164" width="6" height="6" fill="#60a5fa" opacity="0.42"/><rect x="798" y="164" width="6" height="6" fill="#60a5fa" opacity="0.42"/><rect x="742" y="172" width="6" height="6" fill="#60a5fa" opacity="0.42"/><rect x="758" y="172" width="6" height="6" fill="#60a5fa" opacity="0.42"/><rect x="774" y="172" width="6" height="6" fill="#60a5fa" opacity="0.42"/><rect x="790" y="172" width="6" height="6" fill="#60a5fa" opacity="0.42"/><rect x="742" y="180" width="6" height="6" fill="#60a5fa" opacity="0.42"/><rect x="774" y="180" width="6" height="6" fill="#60a5fa" opacity="0.42"/><rect x="782" y="180" width="6" height="6" fill="#60a5fa" opacity="0.42"/><rect x="790" y="180" width="6" height="6" fill="#60a5fa" opacity="0.42"/><rect x="798" y="180" width="6" height="6" fill="#60a5fa" opacity="0.42"/><rect x="742" y="188" width="6" height="6" fill="#60a5fa" opacity="0.42"/><rect x="750" y="188" width="6" height="6" fill="#60a5fa" opacity="0.42"/><rect x="758" y="188" width="6" height="6" fill="#60a5fa" opacity="0.42"/><rect x="766" y="188" width="6" height="6" fill="#60a5fa" opacity="0.42"/><rect x="790" y="188" width="6" height="6" fill="#60a5fa" opacity="0.42"/><rect x="798" y="188" width="6" height="6" fill="#60a5fa" opacity="0.42"/><rect x="758" y="196" width="6" height="6" fill="#60a5fa" opacity="0.42"/><rect x="766" y="196" width="6" height="6" fill="#60a5fa" opacity="0.42"/><rect x="774" y="196" width="6" height="6" fill="#60a5fa" opacity="0.42"/><rect x="782" y="196" width="6" height="6" fill="#60a5fa" opacity="0.42"/><rect x="790" y="196" width="6" height="6" fill="#60a5fa" opacity="0.42"/><rect x="742" y="204" width="6" height="6" fill="#60a5fa" opacity="0.42"/><rect x="750" y="204" width="6" height="6" fill="#60a5fa" opacity="0.42"/><rect x="782" y="204" width="6" height="6" fill="#60a5fa" opacity="0.42"/><rect x="790" y="204" width="6" height="6" fill="#60a5fa" opacity="0.42"/><rect x="750" y="212" width="6" height="6" fill="#60a5fa" opacity="0.42"/><rect x="758" y="212" width="6" height="6" fill="#60a5fa" opacity="0.42"/><rect x="774" y="212" width="6" height="6" fill="#60a5fa" opacity="0.42"/><rect x="790" y="212" width="6" height="6" fill="#60a5fa" opacity="0.42"/><rect x="798" y="212" width="6" height="6" fill="#60a5fa" opacity="0.42"/></g>
<circle cx="1010" cy="60" r="1.4" fill="#22d3ee" opacity="0.18"/>
  <circle cx="1024" cy="60" r="1.4" fill="#22d3ee" opacity="0.26"/>
  <circle cx="1038" cy="60" r="1.4" fill="#22d3ee" opacity="0.33999999999999997"/>
  <circle cx="1052" cy="60" r="1.4" fill="#22d3ee" opacity="0.18"/>
  <circle cx="1066" cy="60" r="1.4" fill="#22d3ee" opacity="0.26"/>
  <circle cx="1080" cy="60" r="1.4" fill="#22d3ee" opacity="0.33999999999999997"/>
  <circle cx="1094" cy="60" r="1.4" fill="#22d3ee" opacity="0.18"/>
  <circle cx="1108" cy="60" r="1.4" fill="#22d3ee" opacity="0.26"/>
  <circle cx="1010" cy="72" r="1.4" fill="#22d3ee" opacity="0.18"/>
  <circle cx="1024" cy="72" r="1.4" fill="#22d3ee" opacity="0.26"/>
  <circle cx="1038" cy="72" r="1.4" fill="#22d3ee" opacity="0.33999999999999997"/>
  <circle cx="1052" cy="72" r="1.4" fill="#22d3ee" opacity="0.18"/>
  <circle cx="1066" cy="72" r="1.4" fill="#22d3ee" opacity="0.26"/>
  <circle cx="1080" cy="72" r="1.4" fill="#22d3ee" opacity="0.33999999999999997"/>
  <circle cx="1094" cy="72" r="1.4" fill="#22d3ee" opacity="0.18"/>
  <circle cx="1108" cy="72" r="1.4" fill="#22d3ee" opacity="0.26"/>
  <circle cx="1010" cy="84" r="1.4" fill="#22d3ee" opacity="0.18"/>
  <circle cx="1024" cy="84" r="1.4" fill="#22d3ee" opacity="0.26"/>
  <circle cx="1038" cy="84" r="1.4" fill="#22d3ee" opacity="0.33999999999999997"/>
  <circle cx="1052" cy="84" r="1.4" fill="#22d3ee" opacity="0.18"/>
  <circle cx="1066" cy="84" r="1.4" fill="#22d3ee" opacity="0.26"/>
  <circle cx="1080" cy="84" r="1.4" fill="#22d3ee" opacity="0.33999999999999997"/>
  <circle cx="1094" cy="84" r="1.4" fill="#22d3ee" opacity="0.18"/>
  <circle cx="1108" cy="84" r="1.4" fill="#22d3ee" opacity="0.26"/>
  <circle cx="1010" cy="96" r="1.4" fill="#22d3ee" opacity="0.18"/>
  <circle cx="1024" cy="96" r="1.4" fill="#22d3ee" opacity="0.26"/>
  <circle cx="1038" cy="96" r="1.4" fill="#22d3ee" opacity="0.33999999999999997"/>
  <circle cx="1052" cy="96" r="1.4" fill="#22d3ee" opacity="0.18"/>
  <circle cx="1066" cy="96" r="1.4" fill="#22d3ee" opacity="0.26"/>
  <circle cx="1080" cy="96" r="1.4" fill="#22d3ee" opacity="0.33999999999999997"/>
  <circle cx="1094" cy="96" r="1.4" fill="#22d3ee" opacity="0.18"/>
  <circle cx="1108" cy="96" r="1.4" fill="#22d3ee" opacity="0.26"/>
  <circle cx="1010" cy="108" r="1.4" fill="#22d3ee" opacity="0.18"/>
  <circle cx="1024" cy="108" r="1.4" fill="#22d3ee" opacity="0.26"/>
  <circle cx="1038" cy="108" r="1.4" fill="#22d3ee" opacity="0.33999999999999997"/>
  <circle cx="1052" cy="108" r="1.4" fill="#22d3ee" opacity="0.18"/>
  <circle cx="1066" cy="108" r="1.4" fill="#22d3ee" opacity="0.26"/>
  <circle cx="1080" cy="108" r="1.4" fill="#22d3ee" opacity="0.33999999999999997"/>
  <circle cx="1094" cy="108" r="1.4" fill="#22d3ee" opacity="0.18"/>
  <circle cx="1108" cy="108" r="1.4" fill="#22d3ee" opacity="0.26"/>
  <circle cx="1010" cy="120" r="1.4" fill="#22d3ee" opacity="0.18"/>
  <circle cx="1024" cy="120" r="1.4" fill="#22d3ee" opacity="0.26"/>
  <circle cx="1038" cy="120" r="1.4" fill="#22d3ee" opacity="0.33999999999999997"/>
  <circle cx="1052" cy="120" r="1.4" fill="#22d3ee" opacity="0.18"/>
  <circle cx="1066" cy="120" r="1.4" fill="#22d3ee" opacity="0.26"/>
  <circle cx="1080" cy="120" r="1.4" fill="#22d3ee" opacity="0.33999999999999997"/>
  <circle cx="1094" cy="120" r="1.4" fill="#22d3ee" opacity="0.18"/>
  <circle cx="1108" cy="120" r="1.4" fill="#22d3ee" opacity="0.26"/>
<text x="842" y="202" font-family="Arial,sans-serif" font-size="9" font-weight="700" fill="#22d3ee" text-anchor="middle" opacity="0.7">01</text>
  <text x="988" y="202" font-family="Arial,sans-serif" font-size="9" font-weight="700" fill="#22d3ee" text-anchor="middle" opacity="0.7">02</text>
  <text x="842" y="360" font-family="Arial,sans-serif" font-size="9" font-weight="700" fill="#22d3ee" text-anchor="middle" opacity="0.7">03</text>
  <text x="988" y="360" font-family="Arial,sans-serif" font-size="9" font-weight="700" fill="#22d3ee" text-anchor="middle" opacity="0.7">04</text>
  <text x="914" y="192" font-family="Arial,sans-serif" font-size="9" font-weight="700" fill="#22d3ee" text-anchor="middle" opacity="0.7">PRI</text>
  <text x="914" y="372" font-family="Arial,sans-serif" font-size="9" font-weight="700" fill="#22d3ee" text-anchor="middle" opacity="0.7">SEC</text>
<text x="740" y="392" font-family="Arial,sans-serif" font-size="9" font-weight="700" fill="#94a3b8" opacity="0.7">STATUS</text>
  <text x="810" y="392" font-family="Arial,sans-serif" font-size="9" font-weight="700" fill="#94a3b8" opacity="0.7">OK</text>
  <text x="740" y="410" font-family="Arial,sans-serif" font-size="9" font-weight="700" fill="#94a3b8" opacity="0.7">REGION</text>
  <text x="810" y="410" font-family="Arial,sans-serif" font-size="9" font-weight="700" fill="#94a3b8" opacity="0.7">ASIA</text>
  <text x="900" y="392" font-family="Arial,sans-serif" font-size="9" font-weight="700" fill="#94a3b8" opacity="0.7">VERSION</text>
  <text x="980" y="392" font-family="Arial,sans-serif" font-size="9" font-weight="700" fill="#94a3b8" opacity="0.7">v1</text>
  <text x="900" y="410" font-family="Arial,sans-serif" font-size="9" font-weight="700" fill="#94a3b8" opacity="0.7">BUILD</text>
  <text x="980" y="410" font-family="Arial,sans-serif" font-size="9" font-weight="700" fill="#94a3b8" opacity="0.7">STAB</text>
<text x="40" y="380" font-family="Arial,sans-serif" font-size="8" font-weight="700" fill="#475569" opacity="0.7" text-anchor="middle">00</text>
  <text x="40" y="410" font-family="Arial,sans-serif" font-size="8" font-weight="700" fill="#475569" opacity="0.7" text-anchor="middle">01</text>
  <text x="40" y="440" font-family="Arial,sans-serif" font-size="8" font-weight="700" fill="#475569" opacity="0.7" text-anchor="middle">02</text>
  <text x="40" y="470" font-family="Arial,sans-serif" font-size="8" font-weight="700" fill="#475569" opacity="0.7" text-anchor="middle">03</text>
  <text x="40" y="500" font-family="Arial,sans-serif" font-size="8" font-weight="700" fill="#475569" opacity="0.7" text-anchor="middle">04</text>
  <text x="1160" y="380" font-family="Arial,sans-serif" font-size="8" font-weight="700" fill="#475569" opacity="0.7" text-anchor="middle">OK</text>
  <text x="1160" y="410" font-family="Arial,sans-serif" font-size="8" font-weight="700" fill="#475569" opacity="0.7" text-anchor="middle">RUN</text>
  <text x="1160" y="440" font-family="Arial,sans-serif" font-size="8" font-weight="700" fill="#475569" opacity="0.7" text-anchor="middle">OK</text>
  <text x="1160" y="470" font-family="Arial,sans-serif" font-size="8" font-weight="700" fill="#475569" opacity="0.7" text-anchor="middle">RUN</text>
<text x="740" y="268" font-family="Arial,sans-serif" font-size="9" font-weight="700" fill="#94a3b8" opacity="0.75">STAGE</text>
  <text x="796" y="268" font-family="Arial,sans-serif" font-size="9" font-weight="700" fill="#22d3ee" opacity="0.85">01</text>
  <text x="740" y="286" font-family="Arial,sans-serif" font-size="9" font-weight="700" fill="#94a3b8" opacity="0.75">SCOPE</text>
  <text x="796" y="286" font-family="Arial,sans-serif" font-size="9" font-weight="700" fill="#22d3ee" opacity="0.85">GLOBAL</text>
  <text x="740" y="304" font-family="Arial,sans-serif" font-size="9" font-weight="700" fill="#94a3b8" opacity="0.75">ZONE</text>
  <text x="796" y="304" font-family="Arial,sans-serif" font-size="9" font-weight="700" fill="#22d3ee" opacity="0.85">AP-NE</text>
  <text x="900" y="268" font-family="Arial,sans-serif" font-size="9" font-weight="700" fill="#94a3b8" opacity="0.75">TIER</text>
  <text x="956" y="268" font-family="Arial,sans-serif" font-size="9" font-weight="700" fill="#22d3ee" opacity="0.85">HQ</text>
  <text x="900" y="286" font-family="Arial,sans-serif" font-size="9" font-weight="700" fill="#94a3b8" opacity="0.75">DEPTH</text>
  <text x="956" y="286" font-family="Arial,sans-serif" font-size="9" font-weight="700" fill="#22d3ee" opacity="0.85">L2</text>
  <text x="900" y="304" font-family="Arial,sans-serif" font-size="9" font-weight="700" fill="#94a3b8" opacity="0.75">FANOUT</text>
  <text x="956" y="304" font-family="Arial,sans-serif" font-size="9" font-weight="700" fill="#22d3ee" opacity="0.85">x4</text>
  <text x="740" y="332" font-family="Arial,sans-serif" font-size="9" font-weight="700" fill="#94a3b8" opacity="0.75">INDEX</text>
  <text x="796" y="332" font-family="Arial,sans-serif" font-size="9" font-weight="700" fill="#22d3ee" opacity="0.85">00</text>
  <text x="900" y="332" font-family="Arial,sans-serif" font-size="9" font-weight="700" fill="#94a3b8" opacity="0.75">DRIFT</text>
  <text x="956" y="332" font-family="Arial,sans-serif" font-size="9" font-weight="700" fill="#22d3ee" opacity="0.85">0.0</text>
<g transform="translate(914,278)" filter="url(#singleShadow)">
    <circle r="124" fill="none" stroke="#60a5fa" stroke-opacity="0.18" stroke-width="1.2" stroke-dasharray="8 8"/>
    <rect x="-72" y="-72" width="144" height="144" rx="18" fill="#0f172a" stroke="#60a5fa" stroke-width="2.6" opacity="0.94"/>
    <rect x="-46" y="-46" width="92" height="92" rx="10" fill="none" stroke="#22d3ee" stroke-width="1.6" stroke-opacity="0.55"/>
    <rect x="-22" y="-22" width="44" height="44" rx="6" fill="#60a5fa" fill-opacity="0.22" stroke="#60a5fa" stroke-width="2"/>
    <text y="6" text-anchor="middle" font-family="Arial,sans-serif" font-size="18" font-weight="900" fill="#60a5fa">AI</text>
    <g stroke="#60a5fa" stroke-width="2" opacity="0.85">
      <line x1="-72" y1="-30" x2="-90" y2="-30"/><line x1="-72" y1="0" x2="-90" y2="0"/><line x1="-72" y1="30" x2="-90" y2="30"/>
      <line x1="72" y1="-30" x2="90" y2="-30"/><line x1="72" y1="0" x2="90" y2="0"/><line x1="72" y1="30" x2="90" y2="30"/>
      <line x1="-30" y1="-72" x2="-30" y2="-90"/><line x1="0" y1="-72" x2="0" y2="-90"/><line x1="30" y1="-72" x2="30" y2="-90"/>
      <line x1="-30" y1="72" x2="-30" y2="90"/><line x1="0" y1="72" x2="0" y2="90"/><line x1="30" y1="72" x2="30" y2="90"/>
    </g>
    <g fill="#22d3ee">
      <circle cx="-90" cy="-30" r="3"/><circle cx="-90" cy="0" r="3"/><circle cx="-90" cy="30" r="3"/>
      <circle cx="90" cy="-30" r="3"/><circle cx="90" cy="0" r="3"/><circle cx="90" cy="30" r="3"/>
    </g>
    <text y="108" text-anchor="middle" font-family="Arial,sans-serif" font-size="11" font-weight="700" fill="#60a5fa" opacity="0.85">AI INFERENCE</text>
    <text y="124" text-anchor="middle" font-family="Arial,sans-serif" font-size="10" fill="#22d3ee" opacity="0.7">12 lanes : on-chip</text>
  </g>
<g transform="translate(84 66)">
    <rect width="160" height="36" rx="18" fill="#60a5fa" opacity="0.22" stroke="#60a5fa" stroke-width="1.2"/>
    <text x="80" y="23" font-family="Arial,sans-serif" font-size="13" font-weight="700" fill="#60a5fa" text-anchor="middle">CLOUD</text>
  </g>
<text x="84" y="170" font-family="Arial,sans-serif" font-size="48" font-weight="700" fill="#f8fafc" letter-spacing="0.5">CONTROL TOWER SCP</text>
  <text x="84" y="226" font-family="Arial,sans-serif" font-size="48" font-weight="700" fill="#dbeafe" letter-spacing="0.5">SIEM</text>
<text x="84" y="282" font-family="Arial,sans-serif" font-size="18" fill="#cbd5e1">CLOUD / CONTROL / TOWER</text>
  <rect x="84" y="308" width="520" height="1.5" fill="#334155" opacity="0.9"/>
  <text x="84" y="338" font-family="Arial,sans-serif" font-size="14" font-weight="700" fill="#94a3b8">VISUAL SYSTEM C3084D3B78B0</text>
  <text x="84" y="366" font-family="Arial,sans-serif" font-size="14" fill="#94a3b8">8 5 . AWS Control Tower SCP , Datadog SIEM , Cloudflare , Landing Zone</text>
<g transform="translate(84 474)">
    <rect width="110" height="38" rx="19" fill="#60a5fa" fill-opacity="0.16" stroke="#60a5fa" stroke-width="1.2"/>
    <text x="55" y="24" font-family="Arial,sans-serif" font-size="13" font-weight="700" fill="#e2e8f0" text-anchor="middle">AWS</text>
  </g>
  <g transform="translate(208 474)">
    <rect width="175" height="38" rx="19" fill="#60a5fa" fill-opacity="0.16" stroke="#60a5fa" stroke-width="1.2"/>
    <text x="87" y="24" font-family="Arial,sans-serif" font-size="13" font-weight="700" fill="#e2e8f0" text-anchor="middle">CONTROL-TOWER</text>
  </g>
  <g transform="translate(397 474)">
    <rect width="110" height="38" rx="19" fill="#60a5fa" fill-opacity="0.16" stroke="#60a5fa" stroke-width="1.2"/>
    <text x="55" y="24" font-family="Arial,sans-serif" font-size="13" font-weight="700" fill="#e2e8f0" text-anchor="middle">SCP</text>
  </g>
  <g transform="translate(521 474)">
    <rect width="110" height="38" rx="19" fill="#60a5fa" fill-opacity="0.16" stroke="#60a5fa" stroke-width="1.2"/>
    <text x="55" y="24" font-family="Arial,sans-serif" font-size="13" font-weight="700" fill="#e2e8f0" text-anchor="middle">DATADOG</text>
  </g>
<g transform="translate(84 536)">
    <rect width="144" height="58" rx="16" fill="#111827" fill-opacity="0.78" stroke="#60a5fa" stroke-opacity="0.4" stroke-width="1.2"/>
    <text x="18" y="24" font-family="Arial,sans-serif" font-size="11" font-weight="700" fill="#94a3b8">CATEGORY</text>
    <text x="18" y="43" font-family="Arial,sans-serif" font-size="16" font-weight="700" fill="#f8fafc">CLOUD</text>
  </g>
  <g transform="translate(246 536)">
    <rect width="144" height="58" rx="16" fill="#111827" fill-opacity="0.78" stroke="#60a5fa" stroke-opacity="0.4" stroke-width="1.2"/>
    <text x="18" y="24" font-family="Arial,sans-serif" font-size="11" font-weight="700" fill="#94a3b8">SIGNALS</text>
    <text x="18" y="43" font-family="Arial,sans-serif" font-size="16" font-weight="700" fill="#f8fafc">05</text>
  </g>
  <g transform="translate(408 536)">
    <rect width="144" height="58" rx="16" fill="#111827" fill-opacity="0.78" stroke="#60a5fa" stroke-opacity="0.4" stroke-width="1.2"/>
    <text x="18" y="24" font-family="Arial,sans-serif" font-size="11" font-weight="700" fill="#94a3b8">TAGS</text>
    <text x="18" y="43" font-family="Arial,sans-serif" font-size="16" font-weight="700" fill="#f8fafc">04</text>
  </g>
<g transform="translate(1030 74)">
    <rect width="130" height="34" rx="17" fill="#1d4ed8" opacity="0.22" stroke="#60a5fa" stroke-width="1.2"/>
    <text x="65" y="22" font-family="Arial,sans-serif" font-size="12" font-weight="700" fill="#e2e8f0" text-anchor="middle">December 24, 2025</text>
  </g>
<line x1="50" y1="588" x2="1150" y2="588" stroke="#334155" stroke-width="1" opacity="0.5"/>
  <text x="1150" y="612" font-family="Arial,sans-serif" font-size="13" fill="#94a3b8" text-anchor="end">tech.2twodragon.com</text>
<g transform="translate(1080,504)" filter="url(#softShadow)">
  <rect x="-8" y="-8" width="100" height="100" rx="6" fill="#FFFFFF"/>
  <path fill="#0A1020" d="M0.0 0.0h11.094v1.585h-11.094z M12.679 0.0h1.585v1.585h-1.585z M17.434 0.0h3.17v1.585h-3.17z M23.774 0.0h3.17v1.585h-3.17z M28.528 0.0h1.585v1.585h-1.585z M31.698 0.0h3.17v1.585h-3.17z M38.038 0.0h4.755v1.585h-4.755z M44.377 0.0h4.755v1.585h-4.755z M52.302 0.0h1.585v1.585h-1.585z M60.226 0.0h3.17v1.585h-3.17z M66.566 0.0h1.585v1.585h-1.585z M72.906 0.0h11.094v1.585h-11.094z M0.0 1.585h1.585v1.585h-1.585z M9.509 1.585h1.585v1.585h-1.585z M14.264 1.585h1.585v1.585h-1.585z M19.019 1.585h3.17v1.585h-3.17z M25.358 1.585h1.585v1.585h-1.585z M28.528 1.585h3.17v1.585h-3.17z M33.283 1.585h1.585v1.585h-1.585z M36.453 1.585h3.17v1.585h-3.17z M41.208 1.585h3.17v1.585h-3.17z M47.547 1.585h1.585v1.585h-1.585z M53.887 1.585h1.585v1.585h-1.585z M57.057 1.585h3.17v1.585h-3.17z M61.811 1.585h3.17v1.585h-3.17z M66.566 1.585h3.17v1.585h-3.17z M72.906 1.585h1.585v1.585h-1.585z M82.415 1.585h1.585v1.585h-1.585z M0.0 3.17h1.585v1.585h-1.585z M3.17 3.17h4.755v1.585h-4.755z M9.509 3.17h1.585v1.585h-1.585z M19.019 3.17h6.34v1.585h-6.34z M26.943 3.17h1.585v1.585h-1.585z M30.113 3.17h1.585v1.585h-1.585z M33.283 3.17h4.755v1.585h-4.755z M50.717 3.17h1.585v1.585h-1.585z M53.887 3.17h1.585v1.585h-1.585z M63.396 3.17h3.17v1.585h-3.17z M68.151 3.17h1.585v1.585h-1.585z M72.906 3.17h1.585v1.585h-1.585z M76.075 3.17h4.755v1.585h-4.755z M82.415 3.17h1.585v1.585h-1.585z M0.0 4.755h1.585v1.585h-1.585z M3.17 4.755h4.755v1.585h-4.755z M9.509 4.755h1.585v1.585h-1.585z M12.679 4.755h1.585v1.585h-1.585z M15.849 4.755h1.585v1.585h-1.585z M19.019 4.755h6.34v1.585h-6.34z M26.943 4.755h14.264v1.585h-14.264z M42.792 4.755h3.17v1.585h-3.17z M49.132 4.755h1.585v1.585h-1.585z M53.887 4.755h3.17v1.585h-3.17z M60.226 4.755h1.585v1.585h-1.585z M63.396 4.755h1.585v1.585h-1.585z M66.566 4.755h1.585v1.585h-1.585z M69.736 4.755h1.585v1.585h-1.585z M72.906 4.755h1.585v1.585h-1.585z M76.075 4.755h4.755v1.585h-4.755z M82.415 4.755h1.585v1.585h-1.585z M0.0 6.34h1.585v1.585h-1.585z M3.17 6.34h4.755v1.585h-4.755z M9.509 6.34h1.585v1.585h-1.585z M12.679 6.34h4.755v1.585h-4.755z M19.019 6.34h3.17v1.585h-3.17z M26.943 6.34h6.34v1.585h-6.34z M34.868 6.34h15.849v1.585h-15.849z M52.302 6.34h1.585v1.585h-1.585z M55.472 6.34h3.17v1.585h-3.17z M60.226 6.34h1.585v1.585h-1.585z M64.981 6.34h3.17v1.585h-3.17z M72.906 6.34h1.585v1.585h-1.585z M76.075 6.34h4.755v1.585h-4.755z M82.415 6.34h1.585v1.585h-1.585z M0.0 7.925h1.585v1.585h-1.585z M9.509 7.925h1.585v1.585h-1.585z M12.679 7.925h1.585v1.585h-1.585z M17.434 7.925h1.585v1.585h-1.585z M23.774 7.925h1.585v1.585h-1.585z M26.943 7.925h3.17v1.585h-3.17z M38.038 7.925h1.585v1.585h-1.585z M44.377 7.925h3.17v1.585h-3.17z M52.302 7.925h3.17v1.585h-3.17z M57.057 7.925h1.585v1.585h-1.585z M61.811 7.925h1.585v1.585h-1.585z M64.981 7.925h3.17v1.585h-3.17z M72.906 7.925h1.585v1.585h-1.585z M82.415 7.925h1.585v1.585h-1.585z M0.0 9.509h11.094v1.585h-11.094z M12.679 9.509h1.585v1.585h-1.585z M15.849 9.509h1.585v1.585h-1.585z M19.019 9.509h1.585v1.585h-1.585z M22.189 9.509h1.585v1.585h-1.585z M25.358 9.509h1.585v1.585h-1.585z M28.528 9.509h1.585v1.585h-1.585z M31.698 9.509h1.585v1.585h-1.585z M34.868 9.509h1.585v1.585h-1.585z M38.038 9.509h1.585v1.585h-1.585z M41.208 9.509h1.585v1.585h-1.585z M44.377 9.509h1.585v1.585h-1.585z M47.547 9.509h1.585v1.585h-1.585z M50.717 9.509h1.585v1.585h-1.585z M53.887 9.509h1.585v1.585h-1.585z M57.057 9.509h1.585v1.585h-1.585z M60.226 9.509h1.585v1.585h-1.585z M63.396 9.509h1.585v1.585h-1.585z M66.566 9.509h1.585v1.585h-1.585z M69.736 9.509h1.585v1.585h-1.585z M72.906 9.509h11.094v1.585h-11.094z M12.679 11.094h1.585v1.585h-1.585z M19.019 11.094h3.17v1.585h-3.17z M23.774 11.094h3.17v1.585h-3.17z M30.113 11.094h4.755v1.585h-4.755z M36.453 11.094h3.17v1.585h-3.17z M44.377 11.094h4.755v1.585h-4.755z M55.472 11.094h4.755v1.585h-4.755z M61.811 11.094h1.585v1.585h-1.585z M68.151 11.094h1.585v1.585h-1.585z M0.0 12.679h1.585v1.585h-1.585z M6.34 12.679h1.585v1.585h-1.585z M9.509 12.679h4.755v1.585h-4.755z M17.434 12.679h4.755v1.585h-4.755z M23.774 12.679h1.585v1.585h-1.585z M26.943 12.679h1.585v1.585h-1.585z M33.283 12.679h1.585v1.585h-1.585z M38.038 12.679h11.094v1.585h-11.094z M55.472 12.679h7.925v1.585h-7.925z M66.566 12.679h3.17v1.585h-3.17z M71.321 12.679h7.925v1.585h-7.925z M82.415 12.679h1.585v1.585h-1.585z M0.0 14.264h1.585v1.585h-1.585z M3.17 14.264h1.585v1.585h-1.585z M7.925 14.264h1.585v1.585h-1.585z M14.264 14.264h1.585v1.585h-1.585z M17.434 14.264h3.17v1.585h-3.17z M22.189 14.264h3.17v1.585h-3.17z M30.113 14.264h3.17v1.585h-3.17z M34.868 14.264h9.509v1.585h-9.509z M45.962 14.264h4.755v1.585h-4.755z M52.302 14.264h1.585v1.585h-1.585z M55.472 14.264h3.17v1.585h-3.17z M60.226 14.264h7.925v1.585h-7.925z M69.736 14.264h1.585v1.585h-1.585z M74.491 14.264h1.585v1.585h-1.585z M77.66 14.264h6.34v1.585h-6.34z M3.17 15.849h4.755v1.585h-4.755z M9.509 15.849h1.585v1.585h-1.585z M14.264 15.849h4.755v1.585h-4.755z M20.604 15.849h3.17v1.585h-3.17z M28.528 15.849h3.17v1.585h-3.17z M34.868 15.849h7.925v1.585h-7.925z M44.377 15.849h3.17v1.585h-3.17z M49.132 15.849h3.17v1.585h-3.17z M53.887 15.849h3.17v1.585h-3.17z M58.642 15.849h1.585v1.585h-1.585z M61.811 15.849h9.509v1.585h-9.509z M74.491 15.849h1.585v1.585h-1.585z M79.245 15.849h1.585v1.585h-1.585z M82.415 15.849h1.585v1.585h-1.585z M0.0 17.434h1.585v1.585h-1.585z M3.17 17.434h3.17v1.585h-3.17z M7.925 17.434h1.585v1.585h-1.585z M12.679 17.434h7.925v1.585h-7.925z M22.189 17.434h4.755v1.585h-4.755z M30.113 17.434h1.585v1.585h-1.585z M34.868 17.434h1.585v1.585h-1.585z M39.623 17.434h1.585v1.585h-1.585z M42.792 17.434h4.755v1.585h-4.755z M53.887 17.434h9.509v1.585h-9.509z M66.566 17.434h1.585v1.585h-1.585z M71.321 17.434h3.17v1.585h-3.17z M76.075 17.434h1.585v1.585h-1.585z M80.83 17.434h3.17v1.585h-3.17z M1.585 19.019h11.094v1.585h-11.094z M15.849 19.019h4.755v1.585h-4.755z M22.189 19.019h1.585v1.585h-1.585z M25.358 19.019h4.755v1.585h-4.755z M31.698 19.019h3.17v1.585h-3.17z M36.453 19.019h1.585v1.585h-1.585z M39.623 19.019h1.585v1.585h-1.585z M45.962 19.019h3.17v1.585h-3.17z M50.717 19.019h1.585v1.585h-1.585z M55.472 19.019h3.17v1.585h-3.17z M61.811 19.019h1.585v1.585h-1.585z M64.981 19.019h1.585v1.585h-1.585z M68.151 19.019h3.17v1.585h-3.17z M72.906 19.019h4.755v1.585h-4.755z M82.415 19.019h1.585v1.585h-1.585z M6.34 20.604h1.585v1.585h-1.585z M11.094 20.604h6.34v1.585h-6.34z M20.604 20.604h3.17v1.585h-3.17z M25.358 20.604h1.585v1.585h-1.585z M34.868 20.604h1.585v1.585h-1.585z M38.038 20.604h7.925v1.585h-7.925z M47.547 20.604h1.585v1.585h-1.585z M52.302 20.604h1.585v1.585h-1.585z M55.472 20.604h1.585v1.585h-1.585z M60.226 20.604h3.17v1.585h-3.17z M64.981 20.604h3.17v1.585h-3.17z M69.736 20.604h1.585v1.585h-1.585z M74.491 20.604h1.585v1.585h-1.585z M77.66 20.604h1.585v1.585h-1.585z M80.83 20.604h1.585v1.585h-1.585z M1.585 22.189h1.585v1.585h-1.585z M4.755 22.189h1.585v1.585h-1.585z M9.509 22.189h1.585v1.585h-1.585z M12.679 22.189h4.755v1.585h-4.755z M20.604 22.189h4.755v1.585h-4.755z M26.943 22.189h1.585v1.585h-1.585z M30.113 22.189h3.17v1.585h-3.17z M34.868 22.189h3.17v1.585h-3.17z M39.623 22.189h3.17v1.585h-3.17z M44.377 22.189h1.585v1.585h-1.585z M52.302 22.189h1.585v1.585h-1.585z M57.057 22.189h1.585v1.585h-1.585z M60.226 22.189h1.585v1.585h-1.585z M63.396 22.189h3.17v1.585h-3.17z M68.151 22.189h4.755v1.585h-4.755z M74.491 22.189h1.585v1.585h-1.585z M82.415 22.189h1.585v1.585h-1.585z M0.0 23.774h1.585v1.585h-1.585z M4.755 23.774h1.585v1.585h-1.585z M7.925 23.774h1.585v1.585h-1.585z M11.094 23.774h4.755v1.585h-4.755z M17.434 23.774h7.925v1.585h-7.925z M26.943 23.774h4.755v1.585h-4.755z M33.283 23.774h1.585v1.585h-1.585z M39.623 23.774h1.585v1.585h-1.585z M42.792 23.774h1.585v1.585h-1.585z M45.962 23.774h1.585v1.585h-1.585z M50.717 23.774h1.585v1.585h-1.585z M57.057 23.774h4.755v1.585h-4.755z M64.981 23.774h1.585v1.585h-1.585z M68.151 23.774h3.17v1.585h-3.17z M72.906 23.774h6.34v1.585h-6.34z M82.415 23.774h1.585v1.585h-1.585z M0.0 25.358h3.17v1.585h-3.17z M4.755 25.358h3.17v1.585h-3.17z M9.509 25.358h4.755v1.585h-4.755z M17.434 25.358h1.585v1.585h-1.585z M22.189 25.358h1.585v1.585h-1.585z M25.358 25.358h4.755v1.585h-4.755z M31.698 25.358h3.17v1.585h-3.17z M38.038 25.358h3.17v1.585h-3.17z M45.962 25.358h1.585v1.585h-1.585z M50.717 25.358h1.585v1.585h-1.585z M53.887 25.358h4.755v1.585h-4.755z M64.981 25.358h4.755v1.585h-4.755z M71.321 25.358h1.585v1.585h-1.585z M74.491 25.358h3.17v1.585h-3.17z M79.245 25.358h3.17v1.585h-3.17z M0.0 26.943h1.585v1.585h-1.585z M3.17 26.943h1.585v1.585h-1.585z M6.34 26.943h3.17v1.585h-3.17z M15.849 26.943h6.34v1.585h-6.34z M25.358 26.943h4.755v1.585h-4.755z M31.698 26.943h1.585v1.585h-1.585z M34.868 26.943h1.585v1.585h-1.585z M44.377 26.943h4.755v1.585h-4.755z M52.302 26.943h4.755v1.585h-4.755z M60.226 26.943h1.585v1.585h-1.585z M63.396 26.943h9.509v1.585h-9.509z M82.415 26.943h1.585v1.585h-1.585z M0.0 28.528h1.585v1.585h-1.585z M4.755 28.528h3.17v1.585h-3.17z M9.509 28.528h1.585v1.585h-1.585z M14.264 28.528h1.585v1.585h-1.585z M19.019 28.528h1.585v1.585h-1.585z M22.189 28.528h3.17v1.585h-3.17z M26.943 28.528h1.585v1.585h-1.585z M30.113 28.528h3.17v1.585h-3.17z M36.453 28.528h6.34v1.585h-6.34z M44.377 28.528h6.34v1.585h-6.34z M52.302 28.528h4.755v1.585h-4.755z M71.321 28.528h1.585v1.585h-1.585z M74.491 28.528h1.585v1.585h-1.585z M77.66 28.528h3.17v1.585h-3.17z M82.415 28.528h1.585v1.585h-1.585z M3.17 30.113h1.585v1.585h-1.585z M7.925 30.113h1.585v1.585h-1.585z M12.679 30.113h3.17v1.585h-3.17z M19.019 30.113h3.17v1.585h-3.17z M23.774 30.113h1.585v1.585h-1.585z M28.528 30.113h3.17v1.585h-3.17z M33.283 30.113h1.585v1.585h-1.585z M39.623 30.113h1.585v1.585h-1.585z M45.962 30.113h1.585v1.585h-1.585z M49.132 30.113h1.585v1.585h-1.585z M52.302 30.113h3.17v1.585h-3.17z M57.057 30.113h6.34v1.585h-6.34z M68.151 30.113h1.585v1.585h-1.585z M74.491 30.113h4.755v1.585h-4.755z M9.509 31.698h1.585v1.585h-1.585z M12.679 31.698h3.17v1.585h-3.17z M17.434 31.698h4.755v1.585h-4.755z M23.774 31.698h4.755v1.585h-4.755z M30.113 31.698h1.585v1.585h-1.585z M33.283 31.698h14.264v1.585h-14.264z M50.717 31.698h3.17v1.585h-3.17z M55.472 31.698h7.925v1.585h-7.925z M64.981 31.698h3.17v1.585h-3.17z M72.906 31.698h4.755v1.585h-4.755z M80.83 31.698h1.585v1.585h-1.585z M1.585 33.283h1.585v1.585h-1.585z M4.755 33.283h1.585v1.585h-1.585z M7.925 33.283h1.585v1.585h-1.585z M12.679 33.283h1.585v1.585h-1.585z M17.434 33.283h1.585v1.585h-1.585z M23.774 33.283h4.755v1.585h-4.755z M30.113 33.283h1.585v1.585h-1.585z M36.453 33.283h3.17v1.585h-3.17z M45.962 33.283h3.17v1.585h-3.17z M50.717 33.283h3.17v1.585h-3.17z M57.057 33.283h4.755v1.585h-4.755z M64.981 33.283h3.17v1.585h-3.17z M69.736 33.283h3.17v1.585h-3.17z M74.491 33.283h1.585v1.585h-1.585z M82.415 33.283h1.585v1.585h-1.585z M3.17 34.868h1.585v1.585h-1.585z M6.34 34.868h1.585v1.585h-1.585z M9.509 34.868h1.585v1.585h-1.585z M12.679 34.868h4.755v1.585h-4.755z M19.019 34.868h1.585v1.585h-1.585z M23.774 34.868h3.17v1.585h-3.17z M28.528 34.868h3.17v1.585h-3.17z M36.453 34.868h1.585v1.585h-1.585z M45.962 34.868h3.17v1.585h-3.17z M50.717 34.868h3.17v1.585h-3.17z M63.396 34.868h1.585v1.585h-1.585z M68.151 34.868h4.755v1.585h-4.755z M77.66 34.868h3.17v1.585h-3.17z M82.415 34.868h1.585v1.585h-1.585z M1.585 36.453h1.585v1.585h-1.585z M6.34 36.453h3.17v1.585h-3.17z M12.679 36.453h4.755v1.585h-4.755z M19.019 36.453h3.17v1.585h-3.17z M23.774 36.453h1.585v1.585h-1.585z M26.943 36.453h4.755v1.585h-4.755z M38.038 36.453h3.17v1.585h-3.17z M42.792 36.453h1.585v1.585h-1.585z M45.962 36.453h1.585v1.585h-1.585z M50.717 36.453h6.34v1.585h-6.34z M58.642 36.453h1.585v1.585h-1.585z M61.811 36.453h1.585v1.585h-1.585z M64.981 36.453h6.34v1.585h-6.34z M72.906 36.453h1.585v1.585h-1.585z M76.075 36.453h3.17v1.585h-3.17z M1.585 38.038h3.17v1.585h-3.17z M6.34 38.038h12.679v1.585h-12.679z M20.604 38.038h3.17v1.585h-3.17z M28.528 38.038h1.585v1.585h-1.585z M31.698 38.038h1.585v1.585h-1.585z M38.038 38.038h7.925v1.585h-7.925z M49.132 38.038h3.17v1.585h-3.17z M53.887 38.038h3.17v1.585h-3.17z M58.642 38.038h4.755v1.585h-4.755z M64.981 38.038h3.17v1.585h-3.17z M69.736 38.038h7.925v1.585h-7.925z M79.245 38.038h1.585v1.585h-1.585z M0.0 39.623h3.17v1.585h-3.17z M6.34 39.623h1.585v1.585h-1.585z M12.679 39.623h3.17v1.585h-3.17z M19.019 39.623h1.585v1.585h-1.585z M23.774 39.623h1.585v1.585h-1.585z M31.698 39.623h7.925v1.585h-7.925z M44.377 39.623h6.34v1.585h-6.34z M52.302 39.623h1.585v1.585h-1.585z M60.226 39.623h1.585v1.585h-1.585z M63.396 39.623h1.585v1.585h-1.585z M66.566 39.623h1.585v1.585h-1.585z M69.736 39.623h1.585v1.585h-1.585z M76.075 39.623h1.585v1.585h-1.585z M79.245 39.623h4.755v1.585h-4.755z M0.0 41.208h3.17v1.585h-3.17z M6.34 41.208h1.585v1.585h-1.585z M9.509 41.208h1.585v1.585h-1.585z M12.679 41.208h3.17v1.585h-3.17z M22.189 41.208h6.34v1.585h-6.34z M31.698 41.208h4.755v1.585h-4.755z M38.038 41.208h1.585v1.585h-1.585z M41.208 41.208h1.585v1.585h-1.585z M44.377 41.208h1.585v1.585h-1.585z M49.132 41.208h4.755v1.585h-4.755z M57.057 41.208h4.755v1.585h-4.755z M64.981 41.208h6.34v1.585h-6.34z M72.906 41.208h1.585v1.585h-1.585z M76.075 41.208h1.585v1.585h-1.585z M80.83 41.208h3.17v1.585h-3.17z M0.0 42.792h3.17v1.585h-3.17z M6.34 42.792h1.585v1.585h-1.585z M12.679 42.792h1.585v1.585h-1.585z M15.849 42.792h1.585v1.585h-1.585z M19.019 42.792h4.755v1.585h-4.755z M25.358 42.792h3.17v1.585h-3.17z M30.113 42.792h3.17v1.585h-3.17z M34.868 42.792h1.585v1.585h-1.585z M38.038 42.792h1.585v1.585h-1.585z M44.377 42.792h1.585v1.585h-1.585z M49.132 42.792h1.585v1.585h-1.585z M55.472 42.792h9.509v1.585h-9.509z M69.736 42.792h1.585v1.585h-1.585z M76.075 42.792h3.17v1.585h-3.17z M80.83 42.792h3.17v1.585h-3.17z M1.585 44.377h12.679v1.585h-12.679z M15.849 44.377h3.17v1.585h-3.17z M22.189 44.377h3.17v1.585h-3.17z M28.528 44.377h3.17v1.585h-3.17z M33.283 44.377h1.585v1.585h-1.585z M38.038 44.377h20.604v1.585h-20.604z M61.811 44.377h1.585v1.585h-1.585z M64.981 44.377h3.17v1.585h-3.17z M69.736 44.377h7.925v1.585h-7.925z M1.585 45.962h1.585v1.585h-1.585z M6.34 45.962h1.585v1.585h-1.585z M11.094 45.962h4.755v1.585h-4.755z M17.434 45.962h6.34v1.585h-6.34z M25.358 45.962h3.17v1.585h-3.17z M33.283 45.962h4.755v1.585h-4.755z M39.623 45.962h1.585v1.585h-1.585z M42.792 45.962h6.34v1.585h-6.34z M50.717 45.962h3.17v1.585h-3.17z M57.057 45.962h1.585v1.585h-1.585z M60.226 45.962h12.679v1.585h-12.679z M76.075 45.962h1.585v1.585h-1.585z M79.245 45.962h1.585v1.585h-1.585z M82.415 45.962h1.585v1.585h-1.585z M0.0 47.547h4.755v1.585h-4.755z M7.925 47.547h7.925v1.585h-7.925z M19.019 47.547h1.585v1.585h-1.585z M28.528 47.547h1.585v1.585h-1.585z M31.698 47.547h1.585v1.585h-1.585z M34.868 47.547h12.679v1.585h-12.679z M53.887 47.547h1.585v1.585h-1.585z M58.642 47.547h1.585v1.585h-1.585z M64.981 47.547h4.755v1.585h-4.755z M72.906 47.547h1.585v1.585h-1.585z M77.66 47.547h1.585v1.585h-1.585z M82.415 47.547h1.585v1.585h-1.585z M0.0 49.132h3.17v1.585h-3.17z M6.34 49.132h3.17v1.585h-3.17z M11.094 49.132h1.585v1.585h-1.585z M14.264 49.132h1.585v1.585h-1.585z M19.019 49.132h1.585v1.585h-1.585z M22.189 49.132h3.17v1.585h-3.17z M26.943 49.132h3.17v1.585h-3.17z M33.283 49.132h6.34v1.585h-6.34z M41.208 49.132h1.585v1.585h-1.585z M44.377 49.132h1.585v1.585h-1.585z M47.547 49.132h3.17v1.585h-3.17z M55.472 49.132h6.34v1.585h-6.34z M64.981 49.132h1.585v1.585h-1.585z M68.151 49.132h3.17v1.585h-3.17z M74.491 49.132h1.585v1.585h-1.585z M0.0 50.717h1.585v1.585h-1.585z M3.17 50.717h1.585v1.585h-1.585z M9.509 50.717h1.585v1.585h-1.585z M17.434 50.717h1.585v1.585h-1.585z M20.604 50.717h1.585v1.585h-1.585z M30.113 50.717h4.755v1.585h-4.755z M42.792 50.717h3.17v1.585h-3.17z M50.717 50.717h9.509v1.585h-9.509z M61.811 50.717h1.585v1.585h-1.585z M64.981 50.717h1.585v1.585h-1.585z M68.151 50.717h3.17v1.585h-3.17z M72.906 50.717h3.17v1.585h-3.17z M77.66 50.717h1.585v1.585h-1.585z M80.83 50.717h3.17v1.585h-3.17z M6.34 52.302h3.17v1.585h-3.17z M23.774 52.302h1.585v1.585h-1.585z M26.943 52.302h1.585v1.585h-1.585z M30.113 52.302h4.755v1.585h-4.755z M36.453 52.302h1.585v1.585h-1.585z M39.623 52.302h7.925v1.585h-7.925z M52.302 52.302h1.585v1.585h-1.585z M60.226 52.302h7.925v1.585h-7.925z M72.906 52.302h4.755v1.585h-4.755z M82.415 52.302h1.585v1.585h-1.585z M0.0 53.887h1.585v1.585h-1.585z M4.755 53.887h3.17v1.585h-3.17z M9.509 53.887h1.585v1.585h-1.585z M12.679 53.887h4.755v1.585h-4.755z M19.019 53.887h1.585v1.585h-1.585z M25.358 53.887h1.585v1.585h-1.585z M28.528 53.887h4.755v1.585h-4.755z M36.453 53.887h6.34v1.585h-6.34z M44.377 53.887h3.17v1.585h-3.17z M49.132 53.887h4.755v1.585h-4.755z M55.472 53.887h1.585v1.585h-1.585z M58.642 53.887h3.17v1.585h-3.17z M64.981 53.887h11.094v1.585h-11.094z M77.66 53.887h3.17v1.585h-3.17z M82.415 53.887h1.585v1.585h-1.585z M0.0 55.472h1.585v1.585h-1.585z M4.755 55.472h1.585v1.585h-1.585z M14.264 55.472h1.585v1.585h-1.585z M17.434 55.472h1.585v1.585h-1.585z M20.604 55.472h1.585v1.585h-1.585z M26.943 55.472h4.755v1.585h-4.755z M33.283 55.472h4.755v1.585h-4.755z M44.377 55.472h1.585v1.585h-1.585z M47.547 55.472h12.679v1.585h-12.679z M61.811 55.472h1.585v1.585h-1.585z M69.736 55.472h3.17v1.585h-3.17z M74.491 55.472h1.585v1.585h-1.585z M80.83 55.472h1.585v1.585h-1.585z M0.0 57.057h3.17v1.585h-3.17z M4.755 57.057h1.585v1.585h-1.585z M7.925 57.057h3.17v1.585h-3.17z M12.679 57.057h3.17v1.585h-3.17z M17.434 57.057h3.17v1.585h-3.17z M22.189 57.057h3.17v1.585h-3.17z M26.943 57.057h1.585v1.585h-1.585z M31.698 57.057h3.17v1.585h-3.17z M41.208 57.057h6.34v1.585h-6.34z M50.717 57.057h3.17v1.585h-3.17z M55.472 57.057h6.34v1.585h-6.34z M64.981 57.057h1.585v1.585h-1.585z M68.151 57.057h1.585v1.585h-1.585z M71.321 57.057h3.17v1.585h-3.17z M0.0 58.642h6.34v1.585h-6.34z M11.094 58.642h1.585v1.585h-1.585z M17.434 58.642h1.585v1.585h-1.585z M22.189 58.642h1.585v1.585h-1.585z M30.113 58.642h3.17v1.585h-3.17z M34.868 58.642h6.34v1.585h-6.34z M45.962 58.642h3.17v1.585h-3.17z M55.472 58.642h3.17v1.585h-3.17z M60.226 58.642h1.585v1.585h-1.585z M64.981 58.642h3.17v1.585h-3.17z M69.736 58.642h7.925v1.585h-7.925z M79.245 58.642h1.585v1.585h-1.585z M0.0 60.226h4.755v1.585h-4.755z M9.509 60.226h1.585v1.585h-1.585z M15.849 60.226h1.585v1.585h-1.585z M22.189 60.226h3.17v1.585h-3.17z M28.528 60.226h3.17v1.585h-3.17z M33.283 60.226h7.925v1.585h-7.925z M45.962 60.226h6.34v1.585h-6.34z M53.887 60.226h1.585v1.585h-1.585z M60.226 60.226h3.17v1.585h-3.17z M68.151 60.226h6.34v1.585h-6.34z M79.245 60.226h1.585v1.585h-1.585z M82.415 60.226h1.585v1.585h-1.585z M0.0 61.811h1.585v1.585h-1.585z M4.755 61.811h1.585v1.585h-1.585z M7.925 61.811h1.585v1.585h-1.585z M12.679 61.811h1.585v1.585h-1.585z M20.604 61.811h4.755v1.585h-4.755z M26.943 61.811h6.34v1.585h-6.34z M34.868 61.811h1.585v1.585h-1.585z M38.038 61.811h3.17v1.585h-3.17z M44.377 61.811h1.585v1.585h-1.585z M47.547 61.811h4.755v1.585h-4.755z M53.887 61.811h7.925v1.585h-7.925z M66.566 61.811h3.17v1.585h-3.17z M77.66 61.811h1.585v1.585h-1.585z M3.17 63.396h1.585v1.585h-1.585z M7.925 63.396h3.17v1.585h-3.17z M12.679 63.396h1.585v1.585h-1.585z M17.434 63.396h1.585v1.585h-1.585z M20.604 63.396h3.17v1.585h-3.17z M30.113 63.396h3.17v1.585h-3.17z M36.453 63.396h1.585v1.585h-1.585z M41.208 63.396h3.17v1.585h-3.17z M45.962 63.396h1.585v1.585h-1.585z M50.717 63.396h9.509v1.585h-9.509z M61.811 63.396h1.585v1.585h-1.585z M64.981 63.396h1.585v1.585h-1.585z M68.151 63.396h4.755v1.585h-4.755z M74.491 63.396h1.585v1.585h-1.585z M77.66 63.396h1.585v1.585h-1.585z M80.83 63.396h3.17v1.585h-3.17z M1.585 64.981h1.585v1.585h-1.585z M4.755 64.981h4.755v1.585h-4.755z M14.264 64.981h7.925v1.585h-7.925z M26.943 64.981h4.755v1.585h-4.755z M33.283 64.981h1.585v1.585h-1.585z M36.453 64.981h1.585v1.585h-1.585z M41.208 64.981h3.17v1.585h-3.17z M45.962 64.981h7.925v1.585h-7.925z M55.472 64.981h1.585v1.585h-1.585z M64.981 64.981h3.17v1.585h-3.17z M69.736 64.981h3.17v1.585h-3.17z M74.491 64.981h6.34v1.585h-6.34z M82.415 64.981h1.585v1.585h-1.585z M0.0 66.566h3.17v1.585h-3.17z M4.755 66.566h6.34v1.585h-6.34z M14.264 66.566h3.17v1.585h-3.17z M28.528 66.566h3.17v1.585h-3.17z M33.283 66.566h6.34v1.585h-6.34z M42.792 66.566h1.585v1.585h-1.585z M47.547 66.566h3.17v1.585h-3.17z M52.302 66.566h1.585v1.585h-1.585z M57.057 66.566h1.585v1.585h-1.585z M61.811 66.566h1.585v1.585h-1.585z M64.981 66.566h1.585v1.585h-1.585z M72.906 66.566h1.585v1.585h-1.585z M77.66 66.566h3.17v1.585h-3.17z M82.415 66.566h1.585v1.585h-1.585z M1.585 68.151h3.17v1.585h-3.17z M11.094 68.151h3.17v1.585h-3.17z M17.434 68.151h1.585v1.585h-1.585z M25.358 68.151h1.585v1.585h-1.585z M30.113 68.151h3.17v1.585h-3.17z M34.868 68.151h1.585v1.585h-1.585z M38.038 68.151h1.585v1.585h-1.585z M41.208 68.151h6.34v1.585h-6.34z M50.717 68.151h3.17v1.585h-3.17z M58.642 68.151h1.585v1.585h-1.585z M61.811 68.151h1.585v1.585h-1.585z M66.566 68.151h3.17v1.585h-3.17z M71.321 68.151h1.585v1.585h-1.585z M77.66 68.151h1.585v1.585h-1.585z M80.83 68.151h3.17v1.585h-3.17z M4.755 69.736h1.585v1.585h-1.585z M9.509 69.736h7.925v1.585h-7.925z M19.019 69.736h4.755v1.585h-4.755z M28.528 69.736h1.585v1.585h-1.585z M33.283 69.736h1.585v1.585h-1.585z M36.453 69.736h11.094v1.585h-11.094z M50.717 69.736h3.17v1.585h-3.17z M57.057 69.736h1.585v1.585h-1.585z M61.811 69.736h1.585v1.585h-1.585z M68.151 69.736h11.094v1.585h-11.094z M80.83 69.736h1.585v1.585h-1.585z M12.679 71.321h1.585v1.585h-1.585z M15.849 71.321h1.585v1.585h-1.585z M19.019 71.321h3.17v1.585h-3.17z M23.774 71.321h4.755v1.585h-4.755z M33.283 71.321h6.34v1.585h-6.34z M44.377 71.321h4.755v1.585h-4.755z M52.302 71.321h1.585v1.585h-1.585z M55.472 71.321h3.17v1.585h-3.17z M60.226 71.321h3.17v1.585h-3.17z M64.981 71.321h3.17v1.585h-3.17z M69.736 71.321h1.585v1.585h-1.585z M76.075 71.321h1.585v1.585h-1.585z M79.245 71.321h4.755v1.585h-4.755z M0.0 72.906h11.094v1.585h-11.094z M12.679 72.906h7.925v1.585h-7.925z M22.189 72.906h1.585v1.585h-1.585z M25.358 72.906h6.34v1.585h-6.34z M36.453 72.906h3.17v1.585h-3.17z M41.208 72.906h1.585v1.585h-1.585z M44.377 72.906h3.17v1.585h-3.17z M49.132 72.906h3.17v1.585h-3.17z M55.472 72.906h1.585v1.585h-1.585z M60.226 72.906h11.094v1.585h-11.094z M72.906 72.906h1.585v1.585h-1.585z M76.075 72.906h1.585v1.585h-1.585z M80.83 72.906h3.17v1.585h-3.17z M0.0 74.491h1.585v1.585h-1.585z M9.509 74.491h1.585v1.585h-1.585z M17.434 74.491h1.585v1.585h-1.585z M20.604 74.491h1.585v1.585h-1.585z M30.113 74.491h4.755v1.585h-4.755z M36.453 74.491h3.17v1.585h-3.17z M44.377 74.491h1.585v1.585h-1.585z M47.547 74.491h1.585v1.585h-1.585z M53.887 74.491h1.585v1.585h-1.585z M57.057 74.491h1.585v1.585h-1.585z M63.396 74.491h3.17v1.585h-3.17z M68.151 74.491h3.17v1.585h-3.17z M76.075 74.491h3.17v1.585h-3.17z M80.83 74.491h1.585v1.585h-1.585z M0.0 76.075h1.585v1.585h-1.585z M3.17 76.075h4.755v1.585h-4.755z M9.509 76.075h1.585v1.585h-1.585z M12.679 76.075h1.585v1.585h-1.585z M17.434 76.075h7.925v1.585h-7.925z M31.698 76.075h4.755v1.585h-4.755z M38.038 76.075h11.094v1.585h-11.094z M55.472 76.075h3.17v1.585h-3.17z M61.811 76.075h1.585v1.585h-1.585z M64.981 76.075h1.585v1.585h-1.585z M69.736 76.075h7.925v1.585h-7.925z M0.0 77.66h1.585v1.585h-1.585z M3.17 77.66h4.755v1.585h-4.755z M9.509 77.66h1.585v1.585h-1.585z M19.019 77.66h1.585v1.585h-1.585z M22.189 77.66h6.34v1.585h-6.34z M30.113 77.66h3.17v1.585h-3.17z M36.453 77.66h3.17v1.585h-3.17z M41.208 77.66h3.17v1.585h-3.17z M45.962 77.66h4.755v1.585h-4.755z M52.302 77.66h1.585v1.585h-1.585z M55.472 77.66h3.17v1.585h-3.17z M60.226 77.66h9.509v1.585h-9.509z M74.491 77.66h3.17v1.585h-3.17z M80.83 77.66h1.585v1.585h-1.585z M0.0 79.245h1.585v1.585h-1.585z M3.17 79.245h4.755v1.585h-4.755z M9.509 79.245h1.585v1.585h-1.585z M15.849 79.245h4.755v1.585h-4.755z M23.774 79.245h1.585v1.585h-1.585z M26.943 79.245h3.17v1.585h-3.17z M34.868 79.245h3.17v1.585h-3.17z M41.208 79.245h1.585v1.585h-1.585z M49.132 79.245h4.755v1.585h-4.755z M55.472 79.245h1.585v1.585h-1.585z M60.226 79.245h9.509v1.585h-9.509z M72.906 79.245h1.585v1.585h-1.585z M77.66 79.245h4.755v1.585h-4.755z M0.0 80.83h1.585v1.585h-1.585z M9.509 80.83h1.585v1.585h-1.585z M14.264 80.83h4.755v1.585h-4.755z M23.774 80.83h1.585v1.585h-1.585z M26.943 80.83h1.585v1.585h-1.585z M31.698 80.83h1.585v1.585h-1.585z M34.868 80.83h1.585v1.585h-1.585z M38.038 80.83h4.755v1.585h-4.755z M44.377 80.83h3.17v1.585h-3.17z M49.132 80.83h1.585v1.585h-1.585z M53.887 80.83h1.585v1.585h-1.585z M57.057 80.83h3.17v1.585h-3.17z M61.811 80.83h1.585v1.585h-1.585z M66.566 80.83h1.585v1.585h-1.585z M69.736 80.83h1.585v1.585h-1.585z M72.906 80.83h1.585v1.585h-1.585z M80.83 80.83h3.17v1.585h-3.17z M0.0 82.415h11.094v1.585h-11.094z M12.679 82.415h4.755v1.585h-4.755z M20.604 82.415h4.755v1.585h-4.755z M26.943 82.415h12.679v1.585h-12.679z M45.962 82.415h3.17v1.585h-3.17z M50.717 82.415h12.679v1.585h-12.679z M66.566 82.415h4.755v1.585h-4.755z M72.906 82.415h4.755v1.585h-4.755z M80.83 82.415h1.585v1.585h-1.585z"/>
</g>
<text x="1122" y="614" font-family="Inter, Helvetica, Arial, sans-serif" font-size="10" font-weight="700" fill="#F5F7FA" text-anchor="middle">scan / full post</text>
</svg>