<svg xmlns="http://www.w3.org/2000/svg" viewBox="0 0 1200 630" width="1200" height="630" role="img" aria-label="High quality security cover for SKT response guide with IMEI check, USIM and eSIM swap, and MFA hardening">
<title>SKT Security Response Guide: IMEI Check, USIM and eSIM Swap, and MFA Hardening</title>
<!-- profile: high-quality-cover (2025 upgraded) -->
<defs>
  <linearGradient id="bgSpread" x1="0%" y1="0%" x2="100%" y2="100%">
    <stop offset="0%" stop-color="#07111F"/>
    <stop offset="50%" stop-color="#0A1630"/>
    <stop offset="100%" stop-color="#111827"/>
  </linearGradient>
  <linearGradient id="heroPanel" x1="0%" y1="0%" x2="100%" y2="100%">
    <stop offset="0%" stop-color="#0F172A"/>
    <stop offset="50%" stop-color="#13213A"/>
    <stop offset="100%" stop-color="#1A2740"/>
  </linearGradient>
  <linearGradient id="bandA" x1="0%" y1="0%" x2="100%" y2="0%">
    <stop offset="0%" stop-color="#1A1028"/>
    <stop offset="100%" stop-color="#211534"/>
  </linearGradient>
  <linearGradient id="bandB" x1="0%" y1="0%" x2="100%" y2="0%">
    <stop offset="0%" stop-color="#0B1A2B"/>
    <stop offset="100%" stop-color="#112238"/>
  </linearGradient>
  <linearGradient id="bandC" x1="0%" y1="0%" x2="100%" y2="0%">
    <stop offset="0%" stop-color="#0C1B18"/>
    <stop offset="100%" stop-color="#11231F"/>
  </linearGradient>
  <radialGradient id="glowViolet" cx="50%" cy="50%" r="50%">
    <stop offset="0%" stop-color="#8B5CF6" stop-opacity="0.58"/>
    <stop offset="100%" stop-color="#8B5CF6" stop-opacity="0"/>
  </radialGradient>
  <radialGradient id="glowCyan" cx="50%" cy="50%" r="50%">
    <stop offset="0%" stop-color="#22D3EE" stop-opacity="0.52"/>
    <stop offset="100%" stop-color="#22D3EE" stop-opacity="0"/>
  </radialGradient>
  <radialGradient id="glowGreen" cx="50%" cy="50%" r="50%">
    <stop offset="0%" stop-color="#22C55E" stop-opacity="0.52"/>
    <stop offset="100%" stop-color="#22C55E" stop-opacity="0"/>
  </radialGradient>
  <filter id="softShadow" x="-10%" y="-10%" width="130%" height="130%">
    <feGaussianBlur in="SourceAlpha" stdDeviation="2.5"/>
    <feOffset dx="1" dy="3"/>
    <feComponentTransfer>
      <feFuncA type="linear" slope="0.55"/>
    </feComponentTransfer>
    <feMerge>
      <feMergeNode/>
      <feMergeNode in="SourceGraphic"/>
    </feMerge>
  </filter>
  <filter id="textShadow" x="-5%" y="-5%" width="110%" height="110%">
    <feGaussianBlur in="SourceAlpha" stdDeviation="1.2"/>
    <feOffset dx="0" dy="1.5"/>
    <feComponentTransfer>
      <feFuncA type="linear" slope="0.82"/>
    </feComponentTransfer>
    <feMerge>
      <feMergeNode/>
      <feMergeNode in="SourceGraphic"/>
    </feMerge>
  </filter>
  <pattern id="gridA" x="0" y="0" width="42" height="18" patternUnits="userSpaceOnUse">
    <path d="M0 18 L42 18" stroke="#35224F" stroke-width="0.4" opacity="0.55"/>
    <path d="M42 0 L42 18" stroke="#35224F" stroke-width="0.4" opacity="0.55"/>
  </pattern>
  <pattern id="dotB" x="0" y="0" width="18" height="18" patternUnits="userSpaceOnUse">
    <circle cx="9" cy="9" r="0.8" fill="#2E5B72" opacity="0.55"/>
  </pattern>
  <pattern id="hexC" x="0" y="0" width="22" height="18" patternUnits="userSpaceOnUse">
    <circle cx="11" cy="9" r="0.8" fill="#2A6A55" opacity="0.52"/>
  </pattern>
</defs>

<rect width="1200" height="630" fill="url(#bgSpread)"/>
<rect x="0" y="0" width="1200" height="4" fill="#8B5CF6" opacity="0.75"/>

<g>
  <rect x="0" y="0" width="1200" height="210" fill="url(#bandA)"/>
  <rect x="0" y="0" width="1200" height="210" fill="url(#gridA)" opacity="0.72"/>
  <rect x="0" y="0" width="8" height="210" fill="#8B5CF6"/>
  <g filter="url(#textShadow)">
    <text x="30" y="42" font-family="Inter, Helvetica, Arial, sans-serif" font-size="18" font-weight="700" letter-spacing="2.2" fill="#A78BFA">SECURITY RESPONSE PLAYBOOK</text>
    <text x="30" y="84" font-family="Inter, Helvetica, Arial, sans-serif" font-size="34" font-weight="800" fill="#F8FAFC">SKT Security Guide : SIM, eSIM, IMEI, MFA</text>
    <text x="30" y="116" font-family="Inter, Helvetica, Arial, sans-serif" font-size="20" font-weight="600" fill="#DDD6FE">Immediate actions after a telecom account security issue</text>
    <text x="30" y="144" font-family="Inter, Helvetica, Arial, sans-serif" font-size="15" font-weight="500" fill="#C7D2FE">Protect the line, confirm device identity, and harden account login paths</text>
    <text x="30" y="170" font-family="Inter, Helvetica, Arial, sans-serif" font-size="13" font-weight="600" fill="#94A3B8">USIM swap, eSIM profile reset, IMEI match check, and stronger multi factor login</text>
    <text x="30" y="192" font-family="Inter, Helvetica, Arial, sans-serif" font-size="12" font-weight="700" fill="#8B9BB4">SECURITY / TELECOM / ACCOUNT</text>
  </g>

  <g transform="translate(700,104)">
    <circle cx="0" cy="0" r="88" fill="url(#glowViolet)">
      <animate attributeName="r" values="68;96;68" dur="3.3s" repeatCount="indefinite"/>
      <animate attributeName="opacity" values="0.35;0.75;0.35" dur="3.3s" repeatCount="indefinite"/>
    </circle>
    <g filter="url(#softShadow)">
      <rect x="-62" y="-86" width="124" height="172" rx="18" fill="url(#heroPanel)" stroke="#C4B5FD" stroke-width="1.8"/>
      <rect x="-46" y="-60" width="92" height="104" rx="10" fill="#0B1220" stroke="#334155" stroke-width="1.2"/>
      <rect x="-16" y="-76" width="32" height="5" rx="2.5" fill="#64748B"/>
      <circle cx="0" cy="58" r="8" fill="none" stroke="#64748B" stroke-width="1.2"/>
      <text x="0" y="-33" text-anchor="middle" font-family="Inter, monospace" font-size="12" font-weight="800" fill="#E9D5FF">LINE</text>
      <text x="0" y="-14" text-anchor="middle" font-family="Inter, monospace" font-size="11" font-weight="700" fill="#A78BFA">PROFILE</text>

      <rect x="-132" y="-18" width="78" height="46" rx="8" fill="#1A1028" stroke="#8B5CF6" stroke-width="1.6"/>
      <circle cx="-117" cy="5" r="8" fill="#8B5CF6" opacity="0.9"/>
      <rect x="-103" y="-7" width="35" height="24" rx="4" fill="#F8FAFC" opacity="0.96"/>
      <text x="-84" y="0" text-anchor="middle" font-family="Inter, monospace" font-size="10" font-weight="800" fill="#6D28D9">USIM</text>
      <text x="-84" y="14" text-anchor="middle" font-family="Inter, monospace" font-size="9" fill="#C4B5FD">SWAP</text>

      <rect x="54" y="-18" width="82" height="46" rx="8" fill="#1A1028" stroke="#22D3EE" stroke-width="1.6"/>
      <circle cx="70" cy="5" r="8" fill="#22D3EE" opacity="0.92"/>
      <path d="M84 -6 h30 a6 6 0 0 1 6 6 v10 a6 6 0 0 1 -6 6 h-30 a6 6 0 0 1 -6 -6 v-10 a6 6 0 0 1 6 -6 z" fill="#E0F2FE"/>
      <text x="99" y="0" text-anchor="middle" font-family="Inter, monospace" font-size="10" font-weight="800" fill="#0E7490">eSIM</text>
      <text x="99" y="14" text-anchor="middle" font-family="Inter, monospace" font-size="9" fill="#A5F3FC">PROFILE</text>

      <rect x="-28" y="4" width="56" height="24" rx="6" fill="#7C3AED" opacity="0.22"/>
      <rect x="-24" y="10" width="14" height="12" rx="2" fill="#8B5CF6"/>
      <rect x="-6" y="10" width="14" height="12" rx="2" fill="#A78BFA"/>
      <rect x="12" y="10" width="8" height="12" rx="2" fill="#C4B5FD"/>

      <rect x="-18" y="76" width="36" height="18" rx="4" fill="#1E293B" stroke="#8B5CF6" stroke-width="1.1"/>
      <text x="0" y="89" text-anchor="middle" font-family="Inter, monospace" font-size="9" font-weight="800" fill="#DDD6FE">CHECK</text>
    </g>

    <g filter="url(#softShadow)">
      <rect x="-210" y="-32" width="82" height="50" rx="8" fill="#120E20" stroke="#8B5CF6" stroke-width="1.5"/>
      <text x="-169" y="-9" text-anchor="middle" font-family="Inter, monospace" font-size="11" font-weight="800" fill="#C4B5FD">DEVICE</text>
      <text x="-169" y="9" text-anchor="middle" font-family="Inter, monospace" font-size="9" fill="#A78BFA">PHONE</text>

      <rect x="128" y="-32" width="92" height="50" rx="8" fill="#120E20" stroke="#22D3EE" stroke-width="1.5"/>
      <text x="174" y="-9" text-anchor="middle" font-family="Inter, monospace" font-size="11" font-weight="800" fill="#A5F3FC">ACCOUNT</text>
      <text x="174" y="9" text-anchor="middle" font-family="Inter, monospace" font-size="9" fill="#67E8F9">ID</text>

      <rect x="-44" y="-128" width="88" height="48" rx="8" fill="#120E20" stroke="#C4B5FD" stroke-width="1.5"/>
      <text x="0" y="-106" text-anchor="middle" font-family="Inter, monospace" font-size="11" font-weight="800" fill="#E9D5FF">NETWORK</text>
      <text x="0" y="-90" text-anchor="middle" font-family="Inter, monospace" font-size="9" fill="#C4B5FD">LINE</text>
    </g>

    <g stroke-width="1.6" fill="none">
      <path d="M-128 -7 C-102 -7 -92 -7 -62 -7" stroke="#8B5CF6" stroke-dasharray="4 4"/>
      <path d="M62 -7 C92 -7 108 -7 128 -7" stroke="#22D3EE" stroke-dasharray="4 4"/>
      <path d="M0 -80 C0 -60 0 -48 0 -28" stroke="#C4B5FD" stroke-dasharray="4 4"/>
    </g>

    <circle r="4" fill="#A78BFA">
      <animateMotion path="M-128 -7 L130 -7" dur="2.6s" repeatCount="indefinite"/>
    </circle>

    <g transform="translate(300,2)" filter="url(#softShadow)">
      <rect x="-84" y="-64" width="180" height="126" rx="14" fill="#0A1020" stroke="#8B5CF6" stroke-width="2.2"/>
      <text x="6" y="-30" text-anchor="middle" font-family="Inter, Helvetica, Arial, sans-serif" font-size="13" font-weight="700" letter-spacing="2" fill="#A78BFA">PRIORITY</text>
      <text x="6" y="26" text-anchor="middle" font-family="Inter, Helvetica, Arial, sans-serif" font-size="72" font-weight="900" fill="#F8FAFC">3</text>
      <text x="6" y="50" text-anchor="middle" font-family="Inter, Helvetica, Arial, sans-serif" font-size="12" font-weight="700" fill="#C4B5FD">CHECK / SWAP / MFA</text>
    </g>
  </g>
</g>

<g>
  <rect x="0" y="210" width="1200" height="210" fill="url(#bandB)"/>
  <rect x="0" y="210" width="1200" height="210" fill="url(#dotB)" opacity="0.72"/>
  <rect x="0" y="210" width="8" height="210" fill="#22D3EE"/>
  <g filter="url(#textShadow)">
    <text x="30" y="252" font-family="Inter, Helvetica, Arial, sans-serif" font-size="18" font-weight="700" letter-spacing="2.2" fill="#67E8F9">IMEI VERIFICATION</text>
    <text x="30" y="294" font-family="Inter, Helvetica, Arial, sans-serif" font-size="34" font-weight="800" fill="#F8FAFC">Confirm device identity before and after SIM changes</text>
    <text x="30" y="326" font-family="Inter, Helvetica, Arial, sans-serif" font-size="20" font-weight="600" fill="#BAE6FD">Dial *#06# and compare handset, tray box, and account records</text>
    <text x="30" y="354" font-family="Inter, Helvetica, Arial, sans-serif" font-size="15" font-weight="500" fill="#C7D2FE">Use carrier support if the reported number does not match your known device history</text>
    <text x="30" y="382" font-family="Inter, Helvetica, Arial, sans-serif" font-size="12" font-weight="700" fill="#8FB9C8">DEVICE ID WORKFLOW</text>
  </g>

  <g transform="translate(650,316)">
    <circle cx="0" cy="0" r="90" fill="url(#glowCyan)">
      <animate attributeName="r" values="64;92;64" dur="3.5s" repeatCount="indefinite"/>
      <animate attributeName="opacity" values="0.3;0.72;0.3" dur="3.5s" repeatCount="indefinite"/>
    </circle>

    <g filter="url(#softShadow)">
      <rect x="-68" y="-80" width="136" height="160" rx="18" fill="url(#heroPanel)" stroke="#67E8F9" stroke-width="1.8"/>
      <rect x="-48" y="-54" width="96" height="98" rx="10" fill="#08131F" stroke="#1E3A50" stroke-width="1.2"/>
      <text x="0" y="-28" text-anchor="middle" font-family="Inter, monospace" font-size="12" font-weight="800" fill="#A5F3FC">IMEI</text>
      <text x="0" y="-6" text-anchor="middle" font-family="Inter, monospace" font-size="11" font-weight="700" fill="#E0F2FE">3569 84</text>
      <text x="0" y="14" text-anchor="middle" font-family="Inter, monospace" font-size="11" font-weight="700" fill="#E0F2FE">2104 67</text>
      <rect x="-28" y="60" width="56" height="16" rx="4" fill="#0E7490" opacity="0.18"/>
      <text x="0" y="72" text-anchor="middle" font-family="Inter, monospace" font-size="10" font-weight="800" fill="#67E8F9">*#06#</text>

      <rect x="-182" y="-24" width="84" height="48" rx="8" fill="#08131F" stroke="#22D3EE" stroke-width="1.6"/>
      <text x="-140" y="-1" text-anchor="middle" font-family="Inter, monospace" font-size="11" font-weight="800" fill="#A5F3FC">USIM</text>

      <rect x="-46" y="-24" width="92" height="48" rx="8" fill="#0C1C26" stroke="#67E8F9" stroke-width="1.6"/>
      <text x="0" y="-1" text-anchor="middle" font-family="Inter, monospace" font-size="11" font-weight="800" fill="#E0F2FE">MATCH</text>

      <rect x="98" y="-24" width="84" height="48" rx="8" fill="#08131F" stroke="#22D3EE" stroke-width="1.6"/>
      <text x="140" y="-1" text-anchor="middle" font-family="Inter, monospace" font-size="11" font-weight="800" fill="#A5F3FC">eSIM</text>

      <rect x="102" y="52" width="92" height="56" rx="10" fill="#08131F" stroke="#22D3EE" stroke-width="1.7"/>
      <text x="148" y="76" text-anchor="middle" font-family="Inter, monospace" font-size="11" font-weight="800" fill="#A5F3FC">VERIFY</text>
      <text x="148" y="92" text-anchor="middle" font-family="Inter, monospace" font-size="9" fill="#67E8F9">PROFILE</text>
      <text x="148" y="104" text-anchor="middle" font-family="Inter, monospace" font-size="9" fill="#67E8F9">SERIAL</text>
    </g>

    <g stroke="#22D3EE" stroke-width="1.5" fill="none" stroke-dasharray="4 4">
      <path d="M-98 0 L-46 0"/>
      <path d="M46 0 L98 0"/>
      <path d="M48 44 L102 68"/>
    </g>

    <circle r="3.5" fill="#A5F3FC">
      <animateMotion path="M-98 0 L98 0" dur="2.4s" repeatCount="indefinite"/>
    </circle>

    <g filter="url(#textShadow)">
      <text x="-120" y="-38" text-anchor="middle" font-family="Inter, monospace" font-size="9" font-weight="700" fill="#67E8F9">READ</text>
      <text x="0" y="-38" text-anchor="middle" font-family="Inter, monospace" font-size="9" font-weight="700" fill="#67E8F9">COMPARE</text>
      <text x="122" y="44" text-anchor="middle" font-family="Inter, monospace" font-size="9" font-weight="700" fill="#67E8F9">CONFIRM</text>
    </g>

    <g transform="translate(340,0)" filter="url(#softShadow)">
      <rect x="-84" y="-64" width="180" height="126" rx="14" fill="#08131F" stroke="#22D3EE" stroke-width="2.2"/>
      <text x="6" y="-30" text-anchor="middle" font-family="Inter, Helvetica, Arial, sans-serif" font-size="13" font-weight="700" letter-spacing="2" fill="#67E8F9">DEVICE ID</text>
      <text x="6" y="16" text-anchor="middle" font-family="Inter, Helvetica, Arial, sans-serif" font-size="34" font-weight="900" fill="#F8FAFC">IMEI</text>
      <text x="6" y="42" text-anchor="middle" font-family="Inter, Helvetica, Arial, sans-serif" font-size="12" font-weight="700" fill="#A5F3FC">MATCH ALL RECORDS</text>
      <text x="6" y="58" text-anchor="middle" font-family="Inter, Helvetica, Arial, sans-serif" font-size="11" font-weight="600" fill="#67E8F9">PHONE / BOX / CARRIER</text>
    </g>
  </g>
</g>

<g>
  <rect x="0" y="420" width="1200" height="210" fill="url(#bandC)"/>
  <rect x="0" y="420" width="1200" height="210" fill="url(#hexC)" opacity="0.7"/>
  <rect x="0" y="420" width="8" height="210" fill="#22C55E"/>
  <g filter="url(#textShadow)">
    <text x="30" y="462" font-family="Inter, Helvetica, Arial, sans-serif" font-size="18" font-weight="700" letter-spacing="2.2" fill="#4ADE80">MFA HARDENING</text>
    <text x="30" y="504" font-family="Inter, Helvetica, Arial, sans-serif" font-size="34" font-weight="800" fill="#F8FAFC">Reduce SIM swap risk by moving beyond SMS only</text>
    <text x="30" y="536" font-family="Inter, Helvetica, Arial, sans-serif" font-size="20" font-weight="600" fill="#BBF7D0">Use authenticator apps, passkeys, and offline recovery codes</text>
    <text x="30" y="564" font-family="Inter, Helvetica, Arial, sans-serif" font-size="15" font-weight="500" fill="#C7D2FE">Review account recovery paths, active sessions, alerts, and trusted devices</text>
    <text x="30" y="592" font-family="Inter, Helvetica, Arial, sans-serif" font-size="12" font-weight="700" fill="#94C7A7">ACCOUNT DEFENSE</text>
  </g>

  <g transform="translate(650,525)">
    <circle cx="0" cy="0" r="84" fill="url(#glowGreen)">
      <animate attributeName="r" values="58;88;58" dur="3.8s" repeatCount="indefinite"/>
      <animate attributeName="opacity" values="0.3;0.7;0.3" dur="3.8s" repeatCount="indefinite"/>
    </circle>

    <g filter="url(#softShadow)">
      <path d="M0 -64 L54 -42 L54 8 C54 44 28 70 0 84 C-28 70 -54 44 -54 8 L-54 -42 Z" fill="url(#heroPanel)" stroke="#4ADE80" stroke-width="2"/>
      <text x="0" y="-6" text-anchor="middle" font-family="Inter, monospace" font-size="18" font-weight="900" fill="#DCFCE7">MFA</text>
      <text x="0" y="16" text-anchor="middle" font-family="Inter, monospace" font-size="10" font-weight="800" fill="#86EFAC">CORE</text>

      <circle cx="-128" cy="-12" r="28" fill="#0B1A18" stroke="#22C55E" stroke-width="1.6"/>
      <text x="-128" y="-16" text-anchor="middle" font-family="Inter, monospace" font-size="11" font-weight="800" fill="#86EFAC">APP</text>
      <text x="-128" y="0" text-anchor="middle" font-family="Inter, monospace" font-size="9" fill="#BBF7D0">TOTP</text>

      <circle cx="0" cy="-104" r="28" fill="#0B1A18" stroke="#22C55E" stroke-width="1.6"/>
      <text x="0" y="-108" text-anchor="middle" font-family="Inter, monospace" font-size="10" font-weight="800" fill="#86EFAC">PASSKEY</text>
      <text x="0" y="-92" text-anchor="middle" font-family="Inter, monospace" font-size="9" fill="#BBF7D0">DEVICE</text>

      <circle cx="128" cy="-12" r="28" fill="#0B1A18" stroke="#22C55E" stroke-width="1.6"/>
      <text x="128" y="-16" text-anchor="middle" font-family="Inter, monospace" font-size="10" font-weight="800" fill="#86EFAC">BACKUP</text>
      <text x="128" y="0" text-anchor="middle" font-family="Inter, monospace" font-size="9" fill="#BBF7D0">CODES</text>

      <circle cx="-92" cy="76" r="24" fill="#0B1A18" stroke="#22C55E" stroke-width="1.5"/>
      <text x="-92" y="72" text-anchor="middle" font-family="Inter, monospace" font-size="10" font-weight="800" fill="#86EFAC">EMAIL</text>
      <text x="-92" y="88" text-anchor="middle" font-family="Inter, monospace" font-size="9" fill="#BBF7D0">ALERTS</text>

      <circle cx="92" cy="76" r="24" fill="#0B1A18" stroke="#22C55E" stroke-width="1.5"/>
      <text x="92" y="72" text-anchor="middle" font-family="Inter, monospace" font-size="10" font-weight="800" fill="#86EFAC">LOCK</text>
      <text x="92" y="88" text-anchor="middle" font-family="Inter, monospace" font-size="9" fill="#BBF7D0">SESSION</text>

      <rect x="-24" y="42" width="48" height="28" rx="7" fill="#0B1220" stroke="#22C55E" stroke-width="1.2"/>
      <text x="0" y="58" text-anchor="middle" font-family="Inter, monospace" font-size="10" font-weight="800" fill="#86EFAC">LOGIN</text>
      <text x="0" y="69" text-anchor="middle" font-family="Inter, monospace" font-size="8" fill="#BBF7D0">APP</text>
    </g>

    <g stroke="#22C55E" stroke-width="1.5" fill="none" stroke-dasharray="4 4">
      <path d="M-98 -18 L-44 -8"/>
      <path d="M0 -76 L0 -44"/>
      <path d="M98 -18 L44 -8"/>
      <path d="M-78 58 L-34 28"/>
      <path d="M78 58 L34 28"/>
    </g>

    <g filter="url(#textShadow)">
      <text x="-66" y="-34" text-anchor="middle" font-family="Inter, monospace" font-size="9" font-weight="700" fill="#4ADE80">PRIMARY</text>
      <text x="0" y="-52" text-anchor="middle" font-family="Inter, monospace" font-size="9" font-weight="700" fill="#4ADE80">STRONG</text>
      <text x="68" y="-34" text-anchor="middle" font-family="Inter, monospace" font-size="9" font-weight="700" fill="#4ADE80">RECOVER</text>
      <text x="0" y="100" text-anchor="middle" font-family="Inter, monospace" font-size="9" font-weight="700" fill="#4ADE80">WATCH</text>
    </g>

    <circle r="3.5" fill="#86EFAC">
      <animateMotion path="M-98 -18 L0 -76 L98 -18" dur="3.2s" repeatCount="indefinite"/>
    </circle>

    <g transform="translate(340,0)" filter="url(#softShadow)">
      <rect x="-84" y="-64" width="180" height="126" rx="14" fill="#081611" stroke="#22C55E" stroke-width="2.2"/>
      <text x="6" y="-30" text-anchor="middle" font-family="Inter, Helvetica, Arial, sans-serif" font-size="13" font-weight="700" letter-spacing="2" fill="#4ADE80">BEST</text>
      <text x="6" y="18" text-anchor="middle" font-family="Inter, Helvetica, Arial, sans-serif" font-size="40" font-weight="900" fill="#F8FAFC">MFA</text>
      <text x="6" y="44" text-anchor="middle" font-family="Inter, Helvetica, Arial, sans-serif" font-size="12" font-weight="700" fill="#86EFAC">APP OR PASSKEY</text>
      <text x="6" y="60" text-anchor="middle" font-family="Inter, Helvetica, Arial, sans-serif" font-size="11" font-weight="600" fill="#BBF7D0">KEEP RECOVERY CODES OFFLINE</text>
    </g>
  </g>
</g>

<line x1="0" y1="210" x2="1200" y2="210" stroke="#23324A" stroke-width="1.4"/>
<line x1="0" y1="420" x2="1200" y2="420" stroke="#23324A" stroke-width="1.4"/>

<g filter="url(#textShadow)">
  <rect x="26" y="602" width="110" height="18" rx="9" fill="#0F172A" stroke="#8B5CF6" stroke-width="1"/>
  <rect x="148" y="602" width="102" height="18" rx="9" fill="#0F172A" stroke="#22D3EE" stroke-width="1"/>
  <rect x="262" y="602" width="104" height="18" rx="9" fill="#0F172A" stroke="#22C55E" stroke-width="1"/>
  <text x="81" y="615" text-anchor="middle" font-family="Inter, Helvetica, Arial, sans-serif" font-size="10" font-weight="800" fill="#DDD6FE">RESPOND</text>
  <text x="199" y="615" text-anchor="middle" font-family="Inter, Helvetica, Arial, sans-serif" font-size="10" font-weight="800" fill="#BAE6FD">VERIFY</text>
  <text x="314" y="615" text-anchor="middle" font-family="Inter, Helvetica, Arial, sans-serif" font-size="10" font-weight="800" fill="#BBF7D0">HARDEN</text>
  <text x="1168" y="614" text-anchor="end" font-family="Inter, Helvetica, Arial, sans-serif" font-size="10" font-weight="700" fill="#CBD5E1">SKT SECURITY GUIDE</text>
</g>
</svg>