<?xml version="1.0" encoding="UTF-8"?>
<svg xmlns="http://www.w3.org/2000/svg" viewBox="0 0 1200 800" font-family="Arial, sans-serif">
  <defs>
    <linearGradient id="bgGrad" x1="0%" y1="0%" x2="100%" y2="100%">
      <stop offset="0%" style="stop-color:#0f172a"/>
      <stop offset="100%" style="stop-color:#1e293b"/>
    </linearGradient>
    <linearGradient id="awsGrad" x1="0%" y1="0%" x2="100%" y2="100%">
      <stop offset="0%" style="stop-color:#ff9900"/>
      <stop offset="100%" style="stop-color:#ec7211"/>
    </linearGradient>
    <linearGradient id="githubGrad" x1="0%" y1="0%" x2="100%" y2="100%">
      <stop offset="0%" style="stop-color:#6e5494"/>
      <stop offset="100%" style="stop-color:#4c3575"/>
    </linearGradient>
    <linearGradient id="securityGrad" x1="0%" y1="0%" x2="100%" y2="100%">
      <stop offset="0%" style="stop-color:#22c55e"/>
      <stop offset="100%" style="stop-color:#16a34a"/>
    </linearGradient>
    <linearGradient id="aiGrad" x1="0%" y1="0%" x2="100%" y2="100%">
      <stop offset="0%" style="stop-color:#3b82f6"/>
      <stop offset="100%" style="stop-color:#2563eb"/>
    </linearGradient>
    <filter id="glow">
      <feGaussianBlur stdDeviation="3" result="coloredBlur"/>
      <feMerge><feMergeNode in="coloredBlur"/><feMergeNode in="SourceGraphic"/></feMerge>
    </filter>
    <marker id="arrow" markerWidth="10" markerHeight="10" refX="9" refY="3" orient="auto">
      <polygon points="0 0, 10 3, 0 6" fill="#64748b"/>
    </marker>
  </defs>

  <!-- Background -->
  <rect width="1200" height="800" fill="url(#bgGrad)"/>
  <pattern id="grid" width="40" height="40" patternUnits="userSpaceOnUse">
    <path d="M 40 0 L 0 0 0 40" fill="none" stroke="#ffffff" stroke-opacity="0.02"/>
  </pattern>
  <rect width="1200" height="800" fill="url(#grid)"/>

  <!-- Title -->
  <text x="600" y="45" text-anchor="middle" font-size="30" font-weight="bold" fill="#ffffff" filter="url(#glow)">Amazon Q Developer + GitHub Advanced Security</text>
  <text x="600" y="75" text-anchor="middle" font-size="16" fill="#94a3b8">AI-Powered Code Security and AWS DevSecOps Integration</text>

  <!-- Left: Amazon Q Developer -->
  <g transform="translate(50, 100)">
    <rect x="0" y="0" width="530" height="320" rx="16" fill="#1e293b" stroke="#ff9900" stroke-width="2"/>
    <rect x="0" y="0" width="530" height="50" rx="16" fill="url(#awsGrad)"/>
    <rect x="0" y="35" width="530" height="15" fill="url(#awsGrad)"/>
    <text x="265" y="35" text-anchor="middle" font-size="20" font-weight="bold" fill="#ffffff">Amazon Q Developer</text>

    <!-- Features Grid -->
    <g transform="translate(20, 70)">
      <!-- AI Code Review -->
      <rect x="0" y="0" width="155" height="110" rx="10" fill="#0f172a" stroke="#ff9900" stroke-width="1"/>
      <text x="77" y="25" text-anchor="middle" font-size="13" font-weight="bold" fill="#ff9900">AI Code Review</text>
      <text x="77" y="50" text-anchor="middle" font-size="11" fill="#94a3b8">Security Analysis</text>
      <text x="77" y="70" text-anchor="middle" font-size="11" fill="#94a3b8">Best Practices</text>
      <text x="77" y="90" text-anchor="middle" font-size="11" fill="#94a3b8">Bug Detection</text>
    </g>

    <g transform="translate(185, 70)">
      <!-- AWS Integration -->
      <rect x="0" y="0" width="155" height="110" rx="10" fill="#0f172a" stroke="#ff9900" stroke-width="1"/>
      <text x="77" y="25" text-anchor="middle" font-size="13" font-weight="bold" fill="#ff9900">AWS Services</text>
      <text x="77" y="50" text-anchor="middle" font-size="11" fill="#94a3b8">CodeCommit</text>
      <text x="77" y="70" text-anchor="middle" font-size="11" fill="#94a3b8">CodeBuild</text>
      <text x="77" y="90" text-anchor="middle" font-size="11" fill="#94a3b8">CodePipeline</text>
    </g>

    <g transform="translate(350, 70)">
      <!-- Well-Architected -->
      <rect x="0" y="0" width="155" height="110" rx="10" fill="#0f172a" stroke="#ff9900" stroke-width="1"/>
      <text x="77" y="25" text-anchor="middle" font-size="13" font-weight="bold" fill="#ff9900">Well-Architected</text>
      <text x="77" y="50" text-anchor="middle" font-size="11" fill="#94a3b8">Security Pillar</text>
      <text x="77" y="70" text-anchor="middle" font-size="11" fill="#94a3b8">Cost Optimization</text>
      <text x="77" y="90" text-anchor="middle" font-size="11" fill="#94a3b8">Recommendations</text>
    </g>

    <!-- Key Stats -->
    <g transform="translate(20, 195)">
      <rect x="0" y="0" width="490" height="100" rx="10" fill="#0f172a" stroke="#334155" stroke-width="1"/>
      <text x="245" y="25" text-anchor="middle" font-size="14" font-weight="bold" fill="#ffffff">Key Capabilities</text>
      
      <g transform="translate(30, 45)">
        <circle cx="0" cy="0" r="6" fill="#22c55e"/>
        <text x="15" y="5" font-size="11" fill="#94a3b8">Natural language to code</text>
      </g>
      <g transform="translate(30, 70)">
        <circle cx="0" cy="0" r="6" fill="#22c55e"/>
        <text x="15" y="5" font-size="11" fill="#94a3b8">Vulnerability auto-detection</text>
      </g>
      <g transform="translate(250, 45)">
        <circle cx="0" cy="0" r="6" fill="#22c55e"/>
        <text x="15" y="5" font-size="11" fill="#94a3b8">IAM policy generation</text>
      </g>
      <g transform="translate(250, 70)">
        <circle cx="0" cy="0" r="6" fill="#22c55e"/>
        <text x="15" y="5" font-size="11" fill="#94a3b8">CloudFormation review</text>
      </g>
    </g>
  </g>

  <!-- Right: GitHub Advanced Security -->
  <g transform="translate(620, 100)">
    <rect x="0" y="0" width="530" height="320" rx="16" fill="#1e293b" stroke="#6e5494" stroke-width="2"/>
    <rect x="0" y="0" width="530" height="50" rx="16" fill="url(#githubGrad)"/>
    <rect x="0" y="35" width="530" height="15" fill="url(#githubGrad)"/>
    <text x="265" y="35" text-anchor="middle" font-size="20" font-weight="bold" fill="#ffffff">GitHub Advanced Security</text>

    <!-- Features Grid -->
    <g transform="translate(20, 70)">
      <!-- CodeQL -->
      <rect x="0" y="0" width="155" height="110" rx="10" fill="#0f172a" stroke="#6e5494" stroke-width="1"/>
      <text x="77" y="25" text-anchor="middle" font-size="13" font-weight="bold" fill="#a78bfa">CodeQL</text>
      <text x="77" y="50" text-anchor="middle" font-size="11" fill="#94a3b8">SAST Scanning</text>
      <text x="77" y="70" text-anchor="middle" font-size="11" fill="#94a3b8">Custom Queries</text>
      <text x="77" y="90" text-anchor="middle" font-size="11" fill="#94a3b8">70+ Languages</text>
    </g>

    <g transform="translate(185, 70)">
      <!-- Dependabot -->
      <rect x="0" y="0" width="155" height="110" rx="10" fill="#0f172a" stroke="#6e5494" stroke-width="1"/>
      <text x="77" y="25" text-anchor="middle" font-size="13" font-weight="bold" fill="#a78bfa">Dependabot</text>
      <text x="77" y="50" text-anchor="middle" font-size="11" fill="#94a3b8">Dependency Scan</text>
      <text x="77" y="70" text-anchor="middle" font-size="11" fill="#94a3b8">Auto PR Updates</text>
      <text x="77" y="90" text-anchor="middle" font-size="11" fill="#94a3b8">CVE Alerts</text>
    </g>

    <g transform="translate(350, 70)">
      <!-- Secret Scanning -->
      <rect x="0" y="0" width="155" height="110" rx="10" fill="#0f172a" stroke="#ef4444" stroke-width="1"/>
      <text x="77" y="25" text-anchor="middle" font-size="13" font-weight="bold" fill="#ef4444">Secret Scanning</text>
      <text x="77" y="50" text-anchor="middle" font-size="11" fill="#94a3b8">200+ Patterns</text>
      <text x="77" y="70" text-anchor="middle" font-size="11" fill="#94a3b8">Push Protection</text>
      <text x="77" y="90" text-anchor="middle" font-size="11" fill="#94a3b8">Custom Patterns</text>
    </g>

    <!-- Key Stats -->
    <g transform="translate(20, 195)">
      <rect x="0" y="0" width="490" height="100" rx="10" fill="#0f172a" stroke="#334155" stroke-width="1"/>
      <text x="245" y="25" text-anchor="middle" font-size="14" font-weight="bold" fill="#ffffff">Security Coverage</text>
      
      <g transform="translate(30, 45)">
        <circle cx="0" cy="0" r="6" fill="#22c55e"/>
        <text x="15" y="5" font-size="11" fill="#94a3b8">AI code suggestions review</text>
      </g>
      <g transform="translate(30, 70)">
        <circle cx="0" cy="0" r="6" fill="#22c55e"/>
        <text x="15" y="5" font-size="11" fill="#94a3b8">Security advisories</text>
      </g>
      <g transform="translate(250, 45)">
        <circle cx="0" cy="0" r="6" fill="#22c55e"/>
        <text x="15" y="5" font-size="11" fill="#94a3b8">CI/CD integration</text>
      </g>
      <g transform="translate(250, 70)">
        <circle cx="0" cy="0" r="6" fill="#22c55e"/>
        <text x="15" y="5" font-size="11" fill="#94a3b8">Copilot security checks</text>
      </g>
    </g>
  </g>

  <!-- Center: Integration Flow -->
  <g transform="translate(550, 250)">
    <circle cx="50" cy="50" r="40" fill="url(#securityGrad)" opacity="0.9" filter="url(#glow)"/>
    <text x="50" y="45" text-anchor="middle" font-size="12" font-weight="bold" fill="#ffffff">DevSecOps</text>
    <text x="50" y="60" text-anchor="middle" font-size="10" fill="#e0e7ff">Integration</text>
  </g>

  <!-- Bottom: Security Pipeline -->
  <g transform="translate(50, 450)">
    <rect x="0" y="0" width="1100" height="200" rx="16" fill="#1e293b" stroke="#22c55e" stroke-width="2"/>
    <text x="550" y="35" text-anchor="middle" font-size="18" font-weight="bold" fill="#22c55e">Unified Security Pipeline</text>

    <!-- Pipeline Steps -->
    <g transform="translate(50, 60)">
      <!-- Step 1 -->
      <rect x="0" y="0" width="180" height="110" rx="10" fill="#0f172a" stroke="#3b82f6" stroke-width="2"/>
      <circle cx="20" cy="20" r="15" fill="url(#aiGrad)"/>
      <text x="20" y="25" text-anchor="middle" font-size="14" font-weight="bold" fill="#ffffff">1</text>
      <text x="100" y="20" text-anchor="middle" font-size="12" font-weight="bold" fill="#3b82f6">Code Write</text>
      <text x="90" y="45" text-anchor="middle" font-size="10" fill="#94a3b8">Amazon Q generates code</text>
      <text x="90" y="65" text-anchor="middle" font-size="10" fill="#94a3b8">Copilot suggestions</text>
      <text x="90" y="85" text-anchor="middle" font-size="10" fill="#94a3b8">AI-assisted development</text>
    </g>

    <path d="M 230 115 L 270 115" stroke="#22c55e" stroke-width="3" marker-end="url(#arrow)"/>

    <g transform="translate(280, 60)">
      <!-- Step 2 -->
      <rect x="0" y="0" width="180" height="110" rx="10" fill="#0f172a" stroke="#6e5494" stroke-width="2"/>
      <circle cx="20" cy="20" r="15" fill="url(#githubGrad)"/>
      <text x="20" y="25" text-anchor="middle" font-size="14" font-weight="bold" fill="#ffffff">2</text>
      <text x="100" y="20" text-anchor="middle" font-size="12" font-weight="bold" fill="#a78bfa">Code Scan</text>
      <text x="90" y="45" text-anchor="middle" font-size="10" fill="#94a3b8">CodeQL analysis</text>
      <text x="90" y="65" text-anchor="middle" font-size="10" fill="#94a3b8">Secret scanning</text>
      <text x="90" y="85" text-anchor="middle" font-size="10" fill="#94a3b8">Dependency check</text>
    </g>

    <path d="M 460 115 L 500 115" stroke="#22c55e" stroke-width="3" marker-end="url(#arrow)"/>

    <g transform="translate(510, 60)">
      <!-- Step 3 -->
      <rect x="0" y="0" width="180" height="110" rx="10" fill="#0f172a" stroke="#ff9900" stroke-width="2"/>
      <circle cx="20" cy="20" r="15" fill="url(#awsGrad)"/>
      <text x="20" y="25" text-anchor="middle" font-size="14" font-weight="bold" fill="#ffffff">3</text>
      <text x="100" y="20" text-anchor="middle" font-size="12" font-weight="bold" fill="#ff9900">Deploy</text>
      <text x="90" y="45" text-anchor="middle" font-size="10" fill="#94a3b8">AWS CodePipeline</text>
      <text x="90" y="65" text-anchor="middle" font-size="10" fill="#94a3b8">IAM least privilege</text>
      <text x="90" y="85" text-anchor="middle" font-size="10" fill="#94a3b8">Security validation</text>
    </g>

    <path d="M 690 115 L 730 115" stroke="#22c55e" stroke-width="3" marker-end="url(#arrow)"/>

    <g transform="translate(740, 60)">
      <!-- Step 4 -->
      <rect x="0" y="0" width="180" height="110" rx="10" fill="#0f172a" stroke="#22c55e" stroke-width="2"/>
      <circle cx="20" cy="20" r="15" fill="url(#securityGrad)"/>
      <text x="20" y="25" text-anchor="middle" font-size="14" font-weight="bold" fill="#ffffff">4</text>
      <text x="100" y="20" text-anchor="middle" font-size="12" font-weight="bold" fill="#22c55e">Monitor</text>
      <text x="90" y="45" text-anchor="middle" font-size="10" fill="#94a3b8">Security Hub</text>
      <text x="90" y="65" text-anchor="middle" font-size="10" fill="#94a3b8">GuardDuty alerts</text>
      <text x="90" y="85" text-anchor="middle" font-size="10" fill="#94a3b8">Continuous audit</text>
    </g>

    <!-- Stats bar -->
    <g transform="translate(950, 70)">
      <text x="50" y="20" text-anchor="middle" font-size="24" font-weight="bold" fill="#22c55e">85%</text>
      <text x="50" y="45" text-anchor="middle" font-size="10" fill="#94a3b8">Vulnerability</text>
      <text x="50" y="60" text-anchor="middle" font-size="10" fill="#94a3b8">Reduction</text>
      <text x="50" y="95" text-anchor="middle" font-size="20" font-weight="bold" fill="#3b82f6">10x</text>
      <text x="50" y="115" text-anchor="middle" font-size="10" fill="#94a3b8">Faster Review</text>
    </g>
  </g>

  <!-- Footer -->
  <text x="600" y="785" text-anchor="middle" font-size="11" fill="#64748b">Amazon Q Developer | GitHub Advanced Security | DevSecOps | AI Code Security</text>
</svg>
