<svg xmlns="http://www.w3.org/2000/svg" viewBox="0 0 1200 630" width="1200" height="630">
  <title>Karpenter v153 Node Integration Due to Large scale Incident Resolution</title>
  <defs>
    <linearGradient id="bg" x1="0%" y1="0%" x2="100%" y2="100%">
      <stop offset="0%" stop-color="#0a0c1a"/>
      <stop offset="100%" stop-color="#1a0a0a"/>
    </linearGradient>
    <linearGradient id="accent" x1="0%" y1="0%" x2="100%" y2="0%">
      <stop offset="0%" stop-color="#ef4444"/>
      <stop offset="100%" stop-color="#f59e0b"/>
    </linearGradient>
  </defs>
  <rect width="1200" height="630" fill="url(#bg)"/>
  <!-- Grid lines -->
  <line x1="0" y1="105" x2="1200" y2="105" stroke="rgba(255,255,255,0.04)" stroke-width="1"/>
  <line x1="0" y1="210" x2="1200" y2="210" stroke="rgba(255,255,255,0.04)" stroke-width="1"/>
  <line x1="0" y1="315" x2="1200" y2="315" stroke="rgba(255,255,255,0.04)" stroke-width="1"/>
  <line x1="0" y1="420" x2="1200" y2="420" stroke="rgba(255,255,255,0.04)" stroke-width="1"/>
  <line x1="240" y1="0" x2="240" y2="630" stroke="rgba(255,255,255,0.03)" stroke-width="1"/>
  <line x1="480" y1="0" x2="480" y2="630" stroke="rgba(255,255,255,0.03)" stroke-width="1"/>
  <line x1="720" y1="0" x2="720" y2="630" stroke="rgba(255,255,255,0.03)" stroke-width="1"/>
  <line x1="960" y1="0" x2="960" y2="630" stroke="rgba(255,255,255,0.03)" stroke-width="1"/>
  <!-- Hexagonal container -->
  <polygon points="980,150 1020,170 1020,210 980,230 940,210 940,170" fill="rgba(239,68,68,0.06)" stroke="rgba(239,68,68,0.25)" stroke-width="1.5"/>
  <line x1="980" y1="170" x2="980" y2="210" stroke="rgba(239,68,68,0.15)" stroke-width="1"/>
  <line x1="950" y1="180" x2="1010" y2="180" stroke="rgba(239,68,68,0.15)" stroke-width="1"/>
  <!-- Alert dots -->
  <circle cx="870" cy="400" r="6" fill="rgba(239,68,68,0.3)"/>
  <circle cx="900" cy="420" r="4" fill="rgba(239,68,68,0.25)"/>
  <circle cx="860" cy="440" r="5" fill="rgba(239,68,68,0.2)"/>
  <!-- Background circles -->
  <circle cx="1050" cy="450" r="200" fill="rgba(255,255,255,0.02)"/>
  <circle cx="1050" cy="450" r="140" fill="rgba(255,255,255,0.02)"/>
  <!-- Left accent bar -->
  <rect x="0" y="0" width="6" height="630" fill="url(#accent)"/>
  <!-- Date badge -->
  <rect x="80" y="60" width="200" height="32" rx="4" fill="rgba(239,68,68,0.2)" stroke="rgba(239,68,68,0.4)" stroke-width="1"/>
  <text x="180" y="81" font-family="system-ui,sans-serif" font-size="14" fill="rgba(255,255,255,0.8)" text-anchor="middle" letter-spacing="1">OCTOBER 02, 2025</text>
  <!-- Main title -->
  <text x="80" y="185" font-family="system-ui,sans-serif" font-size="46" font-weight="700" fill="white" letter-spacing="-1">Karpenter v153 Node Integration Due to</text>
  <text x="80" y="245" font-family="system-ui,sans-serif" font-size="46" font-weight="700" fill="white" letter-spacing="-1">Large scale Incident Resolution</text>
  <!-- Subtitle -->
  <text x="80" y="300" font-family="system-ui,sans-serif" font-size="19" fill="rgba(255,255,255,0.6)">Incident</text>
  <!-- Accent line -->
  <rect x="80" y="325" width="420" height="3" rx="1" fill="url(#accent)"/>
  <!-- Category label -->
  <text x="80" y="370" font-family="system-ui,sans-serif" font-size="14" fill="rgba(255,255,255,0.4)" letter-spacing="2">INCIDENT</text>
  <!-- Keyword tags -->
  <rect x="80" y="420" width="93" height="36" rx="18" fill="rgba(239,68,68,0.18)" stroke="rgba(239,68,68,0.4)" stroke-width="1"/>
  <text x="127" y="443" font-family="system-ui,sans-serif" font-size="14" fill="#fca5a5" text-anchor="middle" font-weight="600">Karpenter</text>
  <rect x="187" y="420" width="101" height="36" rx="18" fill="rgba(245,158,11,0.18)" stroke="rgba(245,158,11,0.4)" stroke-width="1"/>
  <text x="238" y="443" font-family="system-ui,sans-serif" font-size="14" fill="#fbbf24" text-anchor="middle" font-weight="600">Kubernetes</text>
  <rect x="302" y="420" width="80" height="36" rx="18" fill="rgba(59,130,246,0.18)" stroke="rgba(59,130,246,0.4)" stroke-width="1"/>
  <text x="342" y="443" font-family="system-ui,sans-serif" font-size="14" fill="#93c5fd" text-anchor="middle" font-weight="600">AWS</text>
  <!-- Bottom rule -->
  <rect x="80" y="520" width="1040" height="1" fill="rgba(255,255,255,0.08)"/>
  <text x="80" y="545" font-family="system-ui,sans-serif" font-size="13" fill="rgba(255,255,255,0.3)" letter-spacing="1">tech.2twodragon.com</text>
  <text x="1120" y="545" font-family="system-ui,sans-serif" font-size="13" fill="rgba(255,255,255,0.3)" text-anchor="end">Incident</text>
</svg>