<svg xmlns="http://www.w3.org/2000/svg" viewBox="0 0 1200 630">
  <defs>
    <linearGradient id="bg" x1="0%" y1="0%" x2="100%" y2="100%">
      <stop offset="0%" style="stop-color:#0a0a1a"/><stop offset="100%" style="stop-color:#0a1a2a"/>
    </linearGradient>
    <filter id="glow"><feGaussianBlur stdDeviation="4" result="b"/><feMerge><feMergeNode in="b"/><feMergeNode in="SourceGraphic"/></feMerge></filter>
    <filter id="sg"><feGaussianBlur stdDeviation="30"/></filter>
    <filter id="shadow"><feDropShadow dx="0" dy="4" stdDeviation="8" flood-color="#000" flood-opacity="0.3"/></filter>
  </defs>
  <rect width="1200" height="630" fill="url(#bg)"/>
  <circle cx="600" cy="250" r="280" fill="#3b82f6" opacity="0.03" filter="url(#sg)"/>
  <g transform="translate(600,225)">
    <!-- Control Tower - tall tower structure -->
    <g filter="url(#shadow)">
      <!-- Tower base -->
      <rect x="-40" y="-100" width="80" height="180" rx="8" fill="#1e293b" stroke="#3b82f6" stroke-width="2.5"/>
      <!-- Tower antenna -->
      <line x1="0" y1="-100" x2="0" y2="-130" stroke="#3b82f6" stroke-width="3" stroke-linecap="round"/>
      <circle cx="0" cy="-135" r="6" fill="#3b82f6" opacity="0.6"/>
      <!-- Signal waves -->
      <path d="M-20,-140 C-20,-155 20,-155 20,-140" fill="none" stroke="#3b82f6" stroke-width="1.5" opacity="0.3"/>
      <path d="M-35,-145 C-35,-165 35,-165 35,-145" fill="none" stroke="#3b82f6" stroke-width="1.5" opacity="0.2"/>
      <!-- Tower windows/levels -->
      <rect x="-28" y="-85" width="56" height="25" rx="4" fill="#0f172a" stroke="#3b82f6" stroke-width="1"/>
      <text x="0" y="-68" font-family="Courier New" font-size="9" fill="#60a5fa" text-anchor="middle">SCP</text>
      <rect x="-28" y="-50" width="56" height="25" rx="4" fill="#0f172a" stroke="#3b82f6" stroke-width="1"/>
      <text x="0" y="-33" font-family="Courier New" font-size="9" fill="#60a5fa" text-anchor="middle">OU</text>
      <rect x="-28" y="-15" width="56" height="25" rx="4" fill="#0f172a" stroke="#3b82f6" stroke-width="1"/>
      <text x="0" y="2" font-family="Courier New" font-size="9" fill="#60a5fa" text-anchor="middle">SSO</text>
      <rect x="-28" y="20" width="56" height="25" rx="4" fill="#0f172a" stroke="#3b82f6" stroke-width="1"/>
      <text x="0" y="37" font-family="Courier New" font-size="9" fill="#60a5fa" text-anchor="middle">Guard</text>
      <rect x="-28" y="55" width="56" height="20" rx="4" fill="#3b82f6" opacity="0.15"/>
      <text x="0" y="69" font-family="Arial,sans-serif" font-size="8" font-weight="bold" fill="#93c5fd" text-anchor="middle">TOWER</text>
    </g>
    <!-- Left: Datadog SIEM -->
    <g transform="translate(-170,0)">
      <rect x="-60" y="-40" width="120" height="80" rx="10" fill="#1e293b" stroke="#8b5cf6" stroke-width="2" filter="url(#shadow)"/>
      <!-- Datadog dog silhouette (simplified) -->
      <circle cx="0" cy="-10" r="18" fill="#8b5cf6" opacity="0.15"/>
      <text x="0" y="-5" font-family="Arial,sans-serif" font-size="16" font-weight="bold" fill="#c4b5fd" text-anchor="middle">DD</text>
      <text x="0" y="15" font-family="Courier New" font-size="9" fill="#a78bfa" text-anchor="middle">SIEM</text>
      <!-- Log lines -->
      <g transform="translate(0,28)" opacity="0.3">
        <rect x="-40" y="0" width="80" height="3" rx="1" fill="#8b5cf6"/>
        <rect x="-40" y="5" width="60" height="3" rx="1" fill="#8b5cf6"/>
      </g>
    </g>
    <!-- Right: Cloudflare -->
    <g transform="translate(170,0)">
      <rect x="-60" y="-40" width="120" height="80" rx="10" fill="#1e293b" stroke="#f97316" stroke-width="2" filter="url(#shadow)"/>
      <!-- CF cloud -->
      <path d="M-15,-18 C-25,-18 -30,-12 -30,-5 C-35,-5 -38,0 -38,5 C-38,12 -33,15 -28,15 L28,15 C33,15 38,12 38,5 C38,0 35,-5 30,-5 C30,-12 25,-18 15,-18 C8,-18 2,-14 0,-10 C-2,-14 -8,-18 -15,-18 Z" fill="#f97316" opacity="0.15" stroke="#f97316" stroke-width="1.5"/>
      <text x="0" y="30" font-family="Courier New" font-size="9" fill="#fdba74" text-anchor="middle">WAF</text>
    </g>
    <!-- Connection lines -->
    <g stroke-dasharray="6,3" opacity="0.3">
      <line x1="-45" y1="0" x2="-110" y2="0" stroke="#8b5cf6" stroke-width="1.5"/>
      <line x1="45" y1="0" x2="110" y2="0" stroke="#f97316" stroke-width="1.5"/>
    </g>
    <!-- Governance flow arrows -->
    <g transform="translate(0,105)" opacity="0.4">
      <path d="M-120,0 L120,0" fill="none" stroke="#22c55e" stroke-width="1.5"/>
      <polygon points="115,-4 125,0 115,4" fill="#22c55e"/>
      <polygon points="-115,4 -125,0 -115,-4" fill="#22c55e"/>
      <text x="0" y="15" font-family="Courier New" font-size="8" fill="#86efac" text-anchor="middle">Governance Flow</text>
    </g>
    <!-- Week 5 badge -->
    <rect x="50" y="-140" width="50" height="22" rx="6" fill="#3b82f6" opacity="0.2" stroke="#3b82f6" stroke-width="1"/>
    <text x="75" y="-125" font-family="Courier New" font-size="9" fill="#93c5fd" text-anchor="middle">W5</text>
  </g>
  <text x="600" y="510" font-family="Arial,sans-serif" font-size="34" font-weight="bold" fill="white" text-anchor="middle" filter="url(#glow)">Control Tower + SIEM</text>
  <text x="600" y="548" font-family="Arial,sans-serif" font-size="16" fill="#94a3b8" text-anchor="middle">Cloud Security 8th | Week 5 | SCP Governance + Datadog + Cloudflare</text>
  <rect x="40" y="25" width="160" height="32" rx="16" fill="#3b82f6" opacity="0.2" stroke="#3b82f6" stroke-width="1"/>
  <text x="120" y="47" font-family="Arial,sans-serif" font-size="13" font-weight="bold" fill="#93c5fd" text-anchor="middle">CLOUD COURSE</text>
  <rect x="1000" y="25" width="160" height="32" rx="16" fill="#22c55e" opacity="0.2" stroke="#22c55e" stroke-width="1"/>
  <text x="1080" y="47" font-family="Arial,sans-serif" font-size="13" font-weight="bold" fill="#86efac" text-anchor="middle">Dec 24, 2025</text>
  <text x="1160" y="615" font-family="Arial,sans-serif" font-size="13" fill="#475569" text-anchor="end">tech.2twodragon.com</text>
</svg>