<svg xmlns="http://www.w3.org/2000/svg" viewBox="0 0 1200 630" width="1200" height="630" role="img" aria-label="tutorial cover 2025.05.30: Minikube + K9s Lab Guide">
<title>Kubernetes Minikube + K9s Practice Guide</title>
<!-- profile: high-quality-cover (2025 upgraded L25-single) -->
<defs><linearGradient id="bgSpread" x1="0%" y1="0%" x2="100%" y2="100%"><stop offset="0%" stop-color="#0B1326"/><stop offset="55%" stop-color="#0D1530"/><stop offset="100%" stop-color="#141034"/></linearGradient><linearGradient id="heroPanel" x1="0%" y1="0%" x2="0%" y2="100%"><stop offset="0%" stop-color="#1A0A08"/><stop offset="100%" stop-color="#110608"/></linearGradient><linearGradient id="heroPanelBlue" x1="0%" y1="0%" x2="0%" y2="100%"><stop offset="0%" stop-color="#0A1A30"/><stop offset="100%" stop-color="#071426"/></linearGradient><linearGradient id="heroPanelAmber" x1="0%" y1="0%" x2="0%" y2="100%"><stop offset="0%" stop-color="#1A1208"/><stop offset="100%" stop-color="#120E06"/></linearGradient><linearGradient id="heroPanelGreen" x1="0%" y1="0%" x2="0%" y2="100%"><stop offset="0%" stop-color="#08160E"/><stop offset="100%" stop-color="#04100A"/></linearGradient><linearGradient id="heroPanelPurple" x1="0%" y1="0%" x2="0%" y2="100%"><stop offset="0%" stop-color="#110629"/><stop offset="100%" stop-color="#0A0418"/></linearGradient><radialGradient id="hotRed" cx="50%" cy="50%" r="50%"><stop offset="0%" stop-color="#E63946" stop-opacity="0.6"/><stop offset="100%" stop-color="#E63946" stop-opacity="0"/></radialGradient><radialGradient id="hotBlue" cx="50%" cy="50%" r="50%"><stop offset="0%" stop-color="#3A86FF" stop-opacity="0.5"/><stop offset="100%" stop-color="#3A86FF" stop-opacity="0"/></radialGradient><radialGradient id="hotAmber" cx="50%" cy="50%" r="50%"><stop offset="0%" stop-color="#FFB703" stop-opacity="0.45"/><stop offset="100%" stop-color="#FFB703" stop-opacity="0"/></radialGradient><radialGradient id="hotGreen" cx="50%" cy="50%" r="50%"><stop offset="0%" stop-color="#4ADE80" stop-opacity="0.45"/><stop offset="100%" stop-color="#4ADE80" stop-opacity="0"/></radialGradient><radialGradient id="hotPurple" cx="50%" cy="50%" r="50%"><stop offset="0%" stop-color="#A78BFA" stop-opacity="0.45"/><stop offset="100%" stop-color="#A78BFA" stop-opacity="0"/></radialGradient><pattern id="envGrid" x="0" y="0" width="40" height="40" patternUnits="userSpaceOnUse"><circle cx="20" cy="20" r="0.8" fill="#2A3256" opacity="0.55"/></pattern><filter id="softShadow" x="-10%" y="-10%" width="130%" height="130%"><feGaussianBlur in="SourceAlpha" stdDeviation="3"/><feOffset dx="2" dy="4"/><feComponentTransfer><feFuncA type="linear" slope="0.55"/></feComponentTransfer><feMerge><feMergeNode/><feMergeNode in="SourceGraphic"/></feMerge></filter><filter id="textShadow" x="-10%" y="-10%" width="130%" height="130%"><feGaussianBlur in="SourceAlpha" stdDeviation="1.2"/><feOffset dx="1" dy="1.5"/><feComponentTransfer><feFuncA type="linear" slope="0.7"/></feComponentTransfer><feMerge><feMergeNode/><feMergeNode in="SourceGraphic"/></feMerge></filter></defs>
<rect width="1200" height="630" fill="url(#bgSpread)"/>
<rect width="1200" height="630" fill="url(#envGrid)"/>
<circle cx="310" cy="310" r="160" fill="url(#hotRed)"><animate attributeName="opacity" values="0.6;1;0.6" dur="5.8s" repeatCount="indefinite"/></circle><circle cx="950" cy="210" r="120" fill="url(#hotBlue)"><animate attributeName="opacity" values="0.45;0.85;0.45" dur="6.4s" repeatCount="indefinite"/></circle><circle cx="970" cy="480" r="110" fill="url(#hotAmber)"><animate attributeName="opacity" values="0.4;0.75;0.4" dur="7.1s" repeatCount="indefinite"/></circle><g fill="#8FB8FF"><circle cx="180" cy="70" r="1.2"><animate attributeName="opacity" values="0.2;1;0.2" dur="3.4s" repeatCount="indefinite"/></circle><circle cx="440" cy="62" r="1"><animate attributeName="opacity" values="0.2;0.9;0.2" dur="4.2s" repeatCount="indefinite"/></circle><circle cx="740" cy="68" r="1.3"><animate attributeName="opacity" values="0.25;1;0.25" dur="3.9s" repeatCount="indefinite"/></circle><circle cx="1060" cy="74" r="0.9"><animate attributeName="opacity" values="0.2;0.85;0.2" dur="5.1s" repeatCount="indefinite"/></circle><circle cx="90" cy="580" r="1"><animate attributeName="opacity" values="0.15;0.8;0.15" dur="4.7s" repeatCount="indefinite"/></circle><circle cx="550" cy="590" r="0.8"><animate attributeName="opacity" values="0.2;0.75;0.2" dur="3.6s" begin="0.5s" repeatCount="indefinite"/></circle></g>
<rect x="0" y="0" width="1200" height="56" fill="#050813" opacity="0.92"/>
<text x="36" y="36" font-family="Inter, Helvetica, Arial, sans-serif" font-size="18" font-weight="700" fill="#4ADE80" letter-spacing="2.5">TUTORIAL</text>
<text x="1164" y="36" font-family="Inter, Helvetica, Arial, sans-serif" font-size="15" font-weight="600" fill="#7DA3D9" letter-spacing="1.5" text-anchor="end">2025.05.30</text>
<rect x="0" y="54" width="1200" height="2" fill="#3A86FF" opacity="0.85"><animate attributeName="opacity" values="0.4;1;0.4" dur="4.8s" repeatCount="indefinite"/></rect>
<rect x="32" y="80" width="1136" height="420" rx="14" ry="14" fill="url(#heroPanelBlue)" stroke="#3A86FF" stroke-width="1.8" opacity="0.98"/>
<circle cx="840" cy="290" r="240" fill="url(#hotBlue)" opacity="0.28"/>
<rect x="32" y="80" width="1136" height="4" fill="#3A86FF" opacity="0.85"><animate attributeName="opacity" values="0.5;1;0.5" dur="3.4s" repeatCount="indefinite"/></rect>
<g filter="url(#textShadow)">
<text x="54" y="120" font-family="Inter, Helvetica, Arial, sans-serif" font-size="13" font-weight="700" fill="#60A5FA" letter-spacing="3">TUTORIAL  /  BLUE</text>
<text x="54" y="172" font-family="Inter, Helvetica, Arial, sans-serif" font-size="34" font-weight="800" fill="#F8FAFC">Minikube + K9s Lab Guide</text>
<text x="54" y="208" font-family="Inter, Helvetica, Arial, sans-serif" font-size="18" font-weight="500" fill="#BFC9D9">Local cluster, terminal UI, 2024-2025 K8s security upgrades</text>
</g>
<g transform="translate(54,226)"><rect x="0"   y="0" width="120" height="3" rx="1.5" fill="#3A86FF" opacity="0.85"><animate attributeName="opacity" values="0.4;1;0.4" dur="1.8s" repeatCount="indefinite"/></rect><rect x="132" y="0" width="68"  height="3" rx="1.5" fill="#60A5FA" opacity="0.7"><animate attributeName="opacity" values="0.3;0.9;0.3" dur="2.4s" repeatCount="indefinite"/></rect><rect x="212" y="0" width="40"  height="3" rx="1.5" fill="#3A86FF" opacity="0.55"><animate attributeName="opacity" values="0.2;0.8;0.2" dur="3.1s" repeatCount="indefinite"/></rect></g>
<text x="54" y="254" font-family="Inter, Helvetica, Arial, sans-serif" font-size="13" font-weight="500" fill="#BFC9D9" fill-opacity="0.85" letter-spacing="0.4"><tspan fill="#3A86FF" font-weight="700">&#9656; </tspan>Minikube 1.37.0+ - containerd runtime - krunkit AI - AMD GPU &#8226; User Namespaces 1.33 - Bound SA tokens 1.32 - mTLS Pod Certs 1.35</text>
<g transform="translate(740,340)" opacity="0.85"><rect x="-180" y="-150" width="360" height="300" rx="12" fill="none" stroke="#3A86FF" stroke-width="0.9" stroke-opacity="0.55" stroke-dasharray="6 4"/><g fill="#60A5FA" opacity="0.45"><circle cx="-162" cy="-136" r="1.4"/><circle cx="0"          cy="-136" r="1.4"/><circle cx="162"  cy="-136" r="1.4"/><circle cx="-162" cy="136"  r="1.4"/><circle cx="0"          cy="136"  r="1.4"/><circle cx="162"  cy="136"  r="1.4"/></g><polyline points="-184,-134 -184,-154 -164,-154" fill="none" stroke="#3A86FF" stroke-width="1.6" stroke-opacity="0.8"/><polyline points="184,-134 184,-154 164,-154" fill="none" stroke="#3A86FF" stroke-width="1.6" stroke-opacity="0.8"/><polyline points="-184,134 -184,154 -164,154" fill="none" stroke="#3A86FF" stroke-width="1.6" stroke-opacity="0.8"/><polyline points="184,134 184,154 164,154" fill="none" stroke="#3A86FF" stroke-width="1.6" stroke-opacity="0.8"/><g transform="translate(0,-148)"><rect x="-52" y="-12" width="104" height="20" rx="6" fill="#0A0C16" stroke="#3A86FF" stroke-width="1" opacity="0.92"/><text x="0" y="2" text-anchor="middle" font-family="Inter, Helvetica, Arial, sans-serif" font-size="10" font-weight="700" fill="#60A5FA" letter-spacing="2">K8S TOPOLOGY</text></g><circle cx="176" cy="-152" r="2" fill="#3A86FF"><animate attributeName="opacity" values="0.3;1;0.3" dur="2s" repeatCount="indefinite"/></circle></g>
<g transform="translate(740,340)"><path d="M0 0 Q16.6 -50.6 0 -92" stroke="#3A86FF" stroke-width="1" stroke-opacity="0.5" fill="none" stroke-dasharray="3 3"><animate attributeName="stroke-dashoffset" values="0;-12" dur="2.6s" repeatCount="indefinite"/></path><path d="M0 0 Q56.7 -2.1 92 -34" stroke="#3A86FF" stroke-width="1" stroke-opacity="0.5" fill="none" stroke-dasharray="3 3"><animate attributeName="stroke-dashoffset" values="0;-12" dur="2.6s" repeatCount="indefinite"/></path><path d="M0 0 Q35.4 44.5 82 54" stroke="#3A86FF" stroke-width="1" stroke-opacity="0.5" fill="none" stroke-dasharray="3 3"><animate attributeName="stroke-dashoffset" values="0;-12" dur="2.6s" repeatCount="indefinite"/></path><path d="M0 0 Q-16.6 50.6 0 92" stroke="#3A86FF" stroke-width="1" stroke-opacity="0.5" fill="none" stroke-dasharray="3 3"><animate attributeName="stroke-dashoffset" values="0;-12" dur="2.6s" repeatCount="indefinite"/></path><path d="M0 0 Q-54.8 14.9 -82 54" stroke="#3A86FF" stroke-width="1" stroke-opacity="0.5" fill="none" stroke-dasharray="3 3"><animate attributeName="stroke-dashoffset" values="0;-12" dur="2.6s" repeatCount="indefinite"/></path><path d="M0 0 Q-44.5 -35.3 -92 -34" stroke="#3A86FF" stroke-width="1" stroke-opacity="0.5" fill="none" stroke-dasharray="3 3"><animate attributeName="stroke-dashoffset" values="0;-12" dur="2.6s" repeatCount="indefinite"/></path><polygon points="0,-26 22,-13 22,13 0,26 -22,13 -22,-13" fill="#0A1A30" stroke="#3A86FF" stroke-width="2" filter="url(#softShadow)"><animate attributeName="stroke-opacity" values="0.7;1;0.7" dur="3s" repeatCount="indefinite"/></polygon><text x="0" y="-3" text-anchor="middle" font-family="Inter, monospace" font-size="9" font-weight="900" fill="#60A5FA">api-server</text><text x="0" y="9" text-anchor="middle" font-family="Inter, monospace" font-size="7" font-weight="700" fill="#3A86FF" letter-spacing="1.2">CONTROL PLANE</text><g transform="translate(0,-92)"><rect x="-24" y="-13" width="48" height="26" rx="5" fill="#0A1A30" stroke="#86EFAC" stroke-width="1.4"/><text x="0" y="4" text-anchor="middle" font-family="Inter, monospace" font-size="10" font-weight="900" fill="#86EFAC" letter-spacing="1">POD</text></g><g transform="translate(92,-34)"><rect x="-24" y="-13" width="48" height="26" rx="5" fill="#0A1A30" stroke="#67E8F9" stroke-width="1.4"/><text x="0" y="4" text-anchor="middle" font-family="Inter, monospace" font-size="10" font-weight="900" fill="#67E8F9" letter-spacing="1">SVC</text></g><g transform="translate(82,54)"><rect x="-24" y="-13" width="48" height="26" rx="5" fill="#0A1A30" stroke="#C4B5FD" stroke-width="1.4"/><text x="0" y="4" text-anchor="middle" font-family="Inter, monospace" font-size="10" font-weight="900" fill="#C4B5FD" letter-spacing="1">NS</text></g><g transform="translate(0,92)"><rect x="-24" y="-13" width="48" height="26" rx="5" fill="#0A1A30" stroke="#FFD58A" stroke-width="1.4"/><text x="0" y="4" text-anchor="middle" font-family="Inter, monospace" font-size="10" font-weight="900" fill="#FFD58A" letter-spacing="1">CM</text></g><g transform="translate(-82,54)"><rect x="-24" y="-13" width="48" height="26" rx="5" fill="#0A1A30" stroke="#F9A8D4" stroke-width="1.4"/><text x="0" y="4" text-anchor="middle" font-family="Inter, monospace" font-size="10" font-weight="900" fill="#F9A8D4" letter-spacing="1">CRD</text></g><g transform="translate(-92,-34)"><rect x="-24" y="-13" width="48" height="26" rx="5" fill="#0A1A30" stroke="#60A5FA" stroke-width="1.4"/><text x="0" y="4" text-anchor="middle" font-family="Inter, monospace" font-size="10" font-weight="900" fill="#60A5FA" letter-spacing="1">NODE</text></g><g transform="translate(-120,124)"><rect x="0" y="0" width="86" height="18" rx="3" fill="#0A0C16" stroke="#3A86FF" stroke-width="1"/><text x="43" y="13" text-anchor="middle" font-family="Inter, monospace" font-size="8" font-weight="800" fill="#60A5FA" letter-spacing="1.4">single-node</text></g></g>
<g transform="translate(1080,165)" filter="url(#softShadow)"><rect x="-80" y="-60" width="160" height="120" rx="14" fill="#0A0C16" stroke="#3A86FF" stroke-width="2.2" opacity="0.96"/><text x="0" y="-32" text-anchor="middle" font-family="Inter, Helvetica, Arial, sans-serif" font-size="11" font-weight="700" letter-spacing="2.4" fill="#7DA3D9">MINIKUBE</text><text x="0" y="22" text-anchor="middle" font-family="Inter, Helvetica, Arial, sans-serif" font-size="40" font-weight="900" fill="#F5F7FA">1.37</text><text x="0" y="44" text-anchor="middle" font-family="Inter, Helvetica, Arial, sans-serif" font-size="9" font-weight="600" fill="#60A5FA" letter-spacing="1.2">LOCAL K8S LAB</text><line x1="-60" y1="50" x2="60" y2="50" stroke="#3A86FF" stroke-width="0.8" stroke-opacity="0.5"/><rect x="-76" y="-56" width="14" height="2" rx="1" fill="#3A86FF" opacity="0.7"><animate attributeName="opacity" values="0.3;1;0.3" dur="1.6s" repeatCount="indefinite"/></rect><rect x="62" y="-56" width="14" height="2" rx="1" fill="#3A86FF" opacity="0.7"><animate attributeName="opacity" values="0.3;1;0.3" dur="1.7s" begin="0.5s" repeatCount="indefinite"/></rect><circle cx="0" cy="-48" r="2.4" fill="#3A86FF"><animate attributeName="opacity" values="0.25;1;0.25" dur="2s" repeatCount="indefinite"/></circle></g>
<g transform="translate(54,520)"><rect x="0" y="0" width="96" height="26" rx="13" fill="#0A0C16" stroke="#60A5FA" stroke-width="1.2" opacity="0.9"/><text x="48" y="17" text-anchor="middle" font-family="Inter, Helvetica, Arial, sans-serif" font-size="11" font-weight="700" fill="#60A5FA" letter-spacing="1.5">KUBERNETES</text></g><g transform="translate(162,520)"><rect x="0" y="0" width="81" height="26" rx="13" fill="#0A0C16" stroke="#86EFAC" stroke-width="1.2" opacity="0.9"/><text x="40" y="17" text-anchor="middle" font-family="Inter, Helvetica, Arial, sans-serif" font-size="11" font-weight="700" fill="#86EFAC" letter-spacing="1.5">MINIKUBE</text></g><g transform="translate(255,520)"><rect x="0" y="0" width="70" height="26" rx="13" fill="#0A0C16" stroke="#67E8F9" stroke-width="1.2" opacity="0.9"/><text x="35" y="17" text-anchor="middle" font-family="Inter, Helvetica, Arial, sans-serif" font-size="11" font-weight="700" fill="#67E8F9" letter-spacing="1.5">K9S</text></g><g transform="translate(337,520)"><rect x="0" y="0" width="70" height="26" rx="13" fill="#0A0C16" stroke="#60A5FA" stroke-width="1.2" opacity="0.9"/><text x="35" y="17" text-anchor="middle" font-family="Inter, Helvetica, Arial, sans-serif" font-size="11" font-weight="700" fill="#60A5FA" letter-spacing="1.5">K8S</text></g><g transform="translate(419,520)"><rect x="0" y="0" width="132" height="26" rx="13" fill="#0A0C16" stroke="#FFD58A" stroke-width="1.2" opacity="0.9"/><text x="66" y="17" text-anchor="middle" font-family="Inter, Helvetica, Arial, sans-serif" font-size="11" font-weight="700" fill="#FFD58A" letter-spacing="1.5">TROUBLESHOOTING</text></g>
<g transform="translate(54,562)"><rect x="0" y="0" width="320" height="52" rx="6" fill="#0A0C16" stroke="#3A86FF" stroke-width="1.2" opacity="0.85"/><text x="14" y="34" font-family="Inter, Helvetica, Arial, sans-serif" font-size="22" font-weight="800" fill="#F5F7FA">containerd</text><text x="306" y="22" text-anchor="end" font-family="Inter, Helvetica, Arial, sans-serif" font-size="10" font-weight="700" fill="#7DA3D9" letter-spacing="2">RUNTIME</text></g><g transform="translate(397,562)"><rect x="0" y="0" width="320" height="52" rx="6" fill="#0A0C16" stroke="#3A86FF" stroke-width="1.2" opacity="0.85"/><text x="14" y="34" font-family="Inter, Helvetica, Arial, sans-serif" font-size="22" font-weight="800" fill="#F5F7FA">1.37+</text><text x="306" y="22" text-anchor="end" font-family="Inter, Helvetica, Arial, sans-serif" font-size="10" font-weight="700" fill="#7DA3D9" letter-spacing="2">VERSION</text></g><g transform="translate(740,562)"><rect x="0" y="0" width="320" height="52" rx="6" fill="#0A0C16" stroke="#3A86FF" stroke-width="1.2" opacity="0.85"/><text x="14" y="34" font-family="Inter, Helvetica, Arial, sans-serif" font-size="22" font-weight="800" fill="#F5F7FA">CKAD/CKA</text><text x="306" y="22" text-anchor="end" font-family="Inter, Helvetica, Arial, sans-serif" font-size="10" font-weight="700" fill="#7DA3D9" letter-spacing="2">CERT</text></g>
<g transform="translate(1080,504)" filter="url(#softShadow)">
  <rect x="-8" y="-8" width="100" height="100" rx="6" fill="#FFFFFF"/>
  <path fill="#0A1020" d="M0.0 0.0h14.341v2.049h-14.341z M18.439 0.0h2.049v2.049h-2.049z M26.634 0.0h2.049v2.049h-2.049z M30.732 0.0h4.098v2.049h-4.098z M38.927 0.0h2.049v2.049h-2.049z M43.024 0.0h2.049v2.049h-2.049z M53.268 0.0h4.098v2.049h-4.098z M59.415 0.0h6.146v2.049h-6.146z M69.659 0.0h14.341v2.049h-14.341z M0.0 2.049h2.049v2.049h-2.049z M12.293 2.049h2.049v2.049h-2.049z M22.537 2.049h6.146v2.049h-6.146z M30.732 2.049h2.049v2.049h-2.049z M34.829 2.049h2.049v2.049h-2.049z M40.976 2.049h2.049v2.049h-2.049z M47.122 2.049h4.098v2.049h-4.098z M55.317 2.049h4.098v2.049h-4.098z M61.463 2.049h2.049v2.049h-2.049z M65.561 2.049h2.049v2.049h-2.049z M69.659 2.049h2.049v2.049h-2.049z M81.951 2.049h2.049v2.049h-2.049z M0.0 4.098h2.049v2.049h-2.049z M4.098 4.098h6.146v2.049h-6.146z M12.293 4.098h2.049v2.049h-2.049z M20.488 4.098h6.146v2.049h-6.146z M30.732 4.098h2.049v2.049h-2.049z M34.829 4.098h2.049v2.049h-2.049z M38.927 4.098h2.049v2.049h-2.049z M43.024 4.098h4.098v2.049h-4.098z M49.171 4.098h2.049v2.049h-2.049z M53.268 4.098h4.098v2.049h-4.098z M61.463 4.098h2.049v2.049h-2.049z M65.561 4.098h2.049v2.049h-2.049z M69.659 4.098h2.049v2.049h-2.049z M73.756 4.098h6.146v2.049h-6.146z M81.951 4.098h2.049v2.049h-2.049z M0.0 6.146h2.049v2.049h-2.049z M4.098 6.146h6.146v2.049h-6.146z M12.293 6.146h2.049v2.049h-2.049z M20.488 6.146h4.098v2.049h-4.098z M28.683 6.146h8.195v2.049h-8.195z M38.927 6.146h2.049v2.049h-2.049z M43.024 6.146h6.146v2.049h-6.146z M51.22 6.146h2.049v2.049h-2.049z M57.366 6.146h10.244v2.049h-10.244z M69.659 6.146h2.049v2.049h-2.049z M73.756 6.146h6.146v2.049h-6.146z M81.951 6.146h2.049v2.049h-2.049z M0.0 8.195h2.049v2.049h-2.049z M4.098 8.195h6.146v2.049h-6.146z M12.293 8.195h2.049v2.049h-2.049z M22.537 8.195h6.146v2.049h-6.146z M32.78 8.195h4.098v2.049h-4.098z M51.22 8.195h2.049v2.049h-2.049z M55.317 8.195h2.049v2.049h-2.049z M61.463 8.195h2.049v2.049h-2.049z M65.561 8.195h2.049v2.049h-2.049z M69.659 8.195h2.049v2.049h-2.049z M73.756 8.195h6.146v2.049h-6.146z M81.951 8.195h2.049v2.049h-2.049z M0.0 10.244h2.049v2.049h-2.049z M12.293 10.244h2.049v2.049h-2.049z M16.39 10.244h4.098v2.049h-4.098z M24.585 10.244h4.098v2.049h-4.098z M32.78 10.244h10.244v2.049h-10.244z M49.171 10.244h2.049v2.049h-2.049z M53.268 10.244h4.098v2.049h-4.098z M61.463 10.244h6.146v2.049h-6.146z M69.659 10.244h2.049v2.049h-2.049z M81.951 10.244h2.049v2.049h-2.049z M0.0 12.293h14.341v2.049h-14.341z M16.39 12.293h2.049v2.049h-2.049z M20.488 12.293h2.049v2.049h-2.049z M24.585 12.293h2.049v2.049h-2.049z M28.683 12.293h2.049v2.049h-2.049z M32.78 12.293h2.049v2.049h-2.049z M36.878 12.293h2.049v2.049h-2.049z M40.976 12.293h2.049v2.049h-2.049z M45.073 12.293h2.049v2.049h-2.049z M49.171 12.293h2.049v2.049h-2.049z M53.268 12.293h2.049v2.049h-2.049z M57.366 12.293h2.049v2.049h-2.049z M61.463 12.293h2.049v2.049h-2.049z M65.561 12.293h2.049v2.049h-2.049z M69.659 12.293h14.341v2.049h-14.341z M20.488 14.341h10.244v2.049h-10.244z M34.829 14.341h2.049v2.049h-2.049z M38.927 14.341h2.049v2.049h-2.049z M43.024 14.341h4.098v2.049h-4.098z M49.171 14.341h2.049v2.049h-2.049z M55.317 14.341h6.146v2.049h-6.146z M63.512 14.341h2.049v2.049h-2.049z M0.0 16.39h2.049v2.049h-2.049z M6.146 16.39h2.049v2.049h-2.049z M10.244 16.39h4.098v2.049h-4.098z M16.39 16.39h4.098v2.049h-4.098z M22.537 16.39h2.049v2.049h-2.049z M26.634 16.39h2.049v2.049h-2.049z M30.732 16.39h2.049v2.049h-2.049z M43.024 16.39h2.049v2.049h-2.049z M51.22 16.39h4.098v2.049h-4.098z M65.561 16.39h4.098v2.049h-4.098z M71.707 16.39h2.049v2.049h-2.049z M10.244 18.439h2.049v2.049h-2.049z M16.39 18.439h2.049v2.049h-2.049z M20.488 18.439h4.098v2.049h-4.098z M26.634 18.439h4.098v2.049h-4.098z M32.78 18.439h2.049v2.049h-2.049z M49.171 18.439h6.146v2.049h-6.146z M59.415 18.439h2.049v2.049h-2.049z M65.561 18.439h6.146v2.049h-6.146z M75.805 18.439h4.098v2.049h-4.098z M2.049 20.488h6.146v2.049h-6.146z M10.244 20.488h4.098v2.049h-4.098z M18.439 20.488h8.195v2.049h-8.195z M28.683 20.488h2.049v2.049h-2.049z M34.829 20.488h2.049v2.049h-2.049z M38.927 20.488h6.146v2.049h-6.146z M49.171 20.488h4.098v2.049h-4.098z M61.463 20.488h4.098v2.049h-4.098z M69.659 20.488h12.293v2.049h-12.293z M6.146 22.537h4.098v2.049h-4.098z M14.341 22.537h4.098v2.049h-4.098z M20.488 22.537h2.049v2.049h-2.049z M26.634 22.537h6.146v2.049h-6.146z M43.024 22.537h4.098v2.049h-4.098z M49.171 22.537h4.098v2.049h-4.098z M57.366 22.537h2.049v2.049h-2.049z M73.756 22.537h2.049v2.049h-2.049z M77.854 22.537h2.049v2.049h-2.049z M0.0 24.585h2.049v2.049h-2.049z M4.098 24.585h2.049v2.049h-2.049z M10.244 24.585h6.146v2.049h-6.146z M18.439 24.585h2.049v2.049h-2.049z M22.537 24.585h6.146v2.049h-6.146z M30.732 24.585h2.049v2.049h-2.049z M34.829 24.585h2.049v2.049h-2.049z M38.927 24.585h6.146v2.049h-6.146z M51.22 24.585h22.537v2.049h-22.537z M75.805 24.585h2.049v2.049h-2.049z M79.902 24.585h4.098v2.049h-4.098z M0.0 26.634h4.098v2.049h-4.098z M8.195 26.634h2.049v2.049h-2.049z M14.341 26.634h10.244v2.049h-10.244z M30.732 26.634h6.146v2.049h-6.146z M40.976 26.634h2.049v2.049h-2.049z M47.122 26.634h2.049v2.049h-2.049z M55.317 26.634h2.049v2.049h-2.049z M59.415 26.634h4.098v2.049h-4.098z M67.61 26.634h2.049v2.049h-2.049z M75.805 26.634h4.098v2.049h-4.098z M0.0 28.683h2.049v2.049h-2.049z M4.098 28.683h4.098v2.049h-4.098z M10.244 28.683h4.098v2.049h-4.098z M18.439 28.683h2.049v2.049h-2.049z M22.537 28.683h6.146v2.049h-6.146z M30.732 28.683h2.049v2.049h-2.049z M34.829 28.683h2.049v2.049h-2.049z M38.927 28.683h2.049v2.049h-2.049z M43.024 28.683h2.049v2.049h-2.049z M47.122 28.683h2.049v2.049h-2.049z M53.268 28.683h6.146v2.049h-6.146z M61.463 28.683h2.049v2.049h-2.049z M65.561 28.683h2.049v2.049h-2.049z M69.659 28.683h2.049v2.049h-2.049z M75.805 28.683h8.195v2.049h-8.195z M0.0 30.732h2.049v2.049h-2.049z M4.098 30.732h2.049v2.049h-2.049z M8.195 30.732h4.098v2.049h-4.098z M22.537 30.732h2.049v2.049h-2.049z M32.78 30.732h4.098v2.049h-4.098z M40.976 30.732h8.195v2.049h-8.195z M51.22 30.732h2.049v2.049h-2.049z M57.366 30.732h4.098v2.049h-4.098z M65.561 30.732h2.049v2.049h-2.049z M69.659 30.732h4.098v2.049h-4.098z M0.0 32.78h4.098v2.049h-4.098z M12.293 32.78h2.049v2.049h-2.049z M18.439 32.78h6.146v2.049h-6.146z M26.634 32.78h10.244v2.049h-10.244z M40.976 32.78h2.049v2.049h-2.049z M45.073 32.78h2.049v2.049h-2.049z M51.22 32.78h2.049v2.049h-2.049z M55.317 32.78h2.049v2.049h-2.049z M59.415 32.78h2.049v2.049h-2.049z M71.707 32.78h2.049v2.049h-2.049z M79.902 32.78h2.049v2.049h-2.049z M0.0 34.829h2.049v2.049h-2.049z M4.098 34.829h6.146v2.049h-6.146z M16.39 34.829h6.146v2.049h-6.146z M24.585 34.829h2.049v2.049h-2.049z M28.683 34.829h8.195v2.049h-8.195z M43.024 34.829h8.195v2.049h-8.195z M57.366 34.829h2.049v2.049h-2.049z M69.659 34.829h4.098v2.049h-4.098z M75.805 34.829h8.195v2.049h-8.195z M0.0 36.878h6.146v2.049h-6.146z M8.195 36.878h10.244v2.049h-10.244z M22.537 36.878h2.049v2.049h-2.049z M26.634 36.878h6.146v2.049h-6.146z M34.829 36.878h2.049v2.049h-2.049z M45.073 36.878h2.049v2.049h-2.049z M51.22 36.878h2.049v2.049h-2.049z M61.463 36.878h2.049v2.049h-2.049z M67.61 36.878h4.098v2.049h-4.098z M73.756 36.878h4.098v2.049h-4.098z M81.951 36.878h2.049v2.049h-2.049z M4.098 38.927h4.098v2.049h-4.098z M10.244 38.927h2.049v2.049h-2.049z M14.341 38.927h2.049v2.049h-2.049z M26.634 38.927h8.195v2.049h-8.195z M43.024 38.927h2.049v2.049h-2.049z M47.122 38.927h2.049v2.049h-2.049z M51.22 38.927h2.049v2.049h-2.049z M55.317 38.927h10.244v2.049h-10.244z M67.61 38.927h6.146v2.049h-6.146z M75.805 38.927h2.049v2.049h-2.049z M81.951 38.927h2.049v2.049h-2.049z M4.098 40.976h10.244v2.049h-10.244z M18.439 40.976h4.098v2.049h-4.098z M24.585 40.976h2.049v2.049h-2.049z M30.732 40.976h2.049v2.049h-2.049z M34.829 40.976h2.049v2.049h-2.049z M40.976 40.976h2.049v2.049h-2.049z M45.073 40.976h2.049v2.049h-2.049z M49.171 40.976h2.049v2.049h-2.049z M53.268 40.976h2.049v2.049h-2.049z M59.415 40.976h14.341v2.049h-14.341z M75.805 40.976h2.049v2.049h-2.049z M79.902 40.976h2.049v2.049h-2.049z M2.049 43.024h2.049v2.049h-2.049z M8.195 43.024h4.098v2.049h-4.098z M14.341 43.024h8.195v2.049h-8.195z M26.634 43.024h4.098v2.049h-4.098z M32.78 43.024h4.098v2.049h-4.098z M40.976 43.024h6.146v2.049h-6.146z M51.22 43.024h2.049v2.049h-2.049z M59.415 43.024h4.098v2.049h-4.098z M69.659 43.024h2.049v2.049h-2.049z M77.854 43.024h6.146v2.049h-6.146z M6.146 45.073h2.049v2.049h-2.049z M10.244 45.073h4.098v2.049h-4.098z M18.439 45.073h2.049v2.049h-2.049z M22.537 45.073h2.049v2.049h-2.049z M28.683 45.073h2.049v2.049h-2.049z M32.78 45.073h8.195v2.049h-8.195z M49.171 45.073h4.098v2.049h-4.098z M57.366 45.073h2.049v2.049h-2.049z M63.512 45.073h2.049v2.049h-2.049z M67.61 45.073h8.195v2.049h-8.195z M79.902 45.073h2.049v2.049h-2.049z M8.195 47.122h2.049v2.049h-2.049z M14.341 47.122h2.049v2.049h-2.049z M20.488 47.122h4.098v2.049h-4.098z M30.732 47.122h2.049v2.049h-2.049z M36.878 47.122h4.098v2.049h-4.098z M43.024 47.122h4.098v2.049h-4.098z M51.22 47.122h4.098v2.049h-4.098z M57.366 47.122h2.049v2.049h-2.049z M61.463 47.122h2.049v2.049h-2.049z M67.61 47.122h6.146v2.049h-6.146z M77.854 47.122h4.098v2.049h-4.098z M4.098 49.171h6.146v2.049h-6.146z M12.293 49.171h2.049v2.049h-2.049z M16.39 49.171h2.049v2.049h-2.049z M20.488 49.171h4.098v2.049h-4.098z M26.634 49.171h2.049v2.049h-2.049z M30.732 49.171h2.049v2.049h-2.049z M34.829 49.171h2.049v2.049h-2.049z M40.976 49.171h4.098v2.049h-4.098z M49.171 49.171h4.098v2.049h-4.098z M55.317 49.171h6.146v2.049h-6.146z M63.512 49.171h8.195v2.049h-8.195z M77.854 49.171h2.049v2.049h-2.049z M0.0 51.22h8.195v2.049h-8.195z M10.244 51.22h2.049v2.049h-2.049z M14.341 51.22h2.049v2.049h-2.049z M28.683 51.22h8.195v2.049h-8.195z M38.927 51.22h8.195v2.049h-8.195z M49.171 51.22h6.146v2.049h-6.146z M57.366 51.22h4.098v2.049h-4.098z M63.512 51.22h2.049v2.049h-2.049z M67.61 51.22h2.049v2.049h-2.049z M75.805 51.22h2.049v2.049h-2.049z M79.902 51.22h2.049v2.049h-2.049z M0.0 53.268h4.098v2.049h-4.098z M6.146 53.268h2.049v2.049h-2.049z M12.293 53.268h4.098v2.049h-4.098z M22.537 53.268h2.049v2.049h-2.049z M28.683 53.268h8.195v2.049h-8.195z M40.976 53.268h2.049v2.049h-2.049z M47.122 53.268h2.049v2.049h-2.049z M51.22 53.268h4.098v2.049h-4.098z M57.366 53.268h2.049v2.049h-2.049z M61.463 53.268h2.049v2.049h-2.049z M65.561 53.268h6.146v2.049h-6.146z M73.756 53.268h2.049v2.049h-2.049z M79.902 53.268h4.098v2.049h-4.098z M0.0 55.317h2.049v2.049h-2.049z M4.098 55.317h8.195v2.049h-8.195z M14.341 55.317h4.098v2.049h-4.098z M20.488 55.317h2.049v2.049h-2.049z M24.585 55.317h2.049v2.049h-2.049z M28.683 55.317h4.098v2.049h-4.098z M34.829 55.317h4.098v2.049h-4.098z M40.976 55.317h6.146v2.049h-6.146z M49.171 55.317h8.195v2.049h-8.195z M59.415 55.317h2.049v2.049h-2.049z M65.561 55.317h4.098v2.049h-4.098z M73.756 55.317h2.049v2.049h-2.049z M81.951 55.317h2.049v2.049h-2.049z M0.0 57.366h6.146v2.049h-6.146z M8.195 57.366h2.049v2.049h-2.049z M12.293 57.366h2.049v2.049h-2.049z M22.537 57.366h2.049v2.049h-2.049z M26.634 57.366h4.098v2.049h-4.098z M32.78 57.366h4.098v2.049h-4.098z M43.024 57.366h8.195v2.049h-8.195z M53.268 57.366h10.244v2.049h-10.244z M65.561 57.366h4.098v2.049h-4.098z M71.707 57.366h2.049v2.049h-2.049z M2.049 59.415h4.098v2.049h-4.098z M8.195 59.415h4.098v2.049h-4.098z M14.341 59.415h8.195v2.049h-8.195z M24.585 59.415h2.049v2.049h-2.049z M28.683 59.415h2.049v2.049h-2.049z M32.78 59.415h12.293v2.049h-12.293z M49.171 59.415h2.049v2.049h-2.049z M55.317 59.415h2.049v2.049h-2.049z M61.463 59.415h2.049v2.049h-2.049z M65.561 59.415h8.195v2.049h-8.195z M75.805 59.415h8.195v2.049h-8.195z M0.0 61.463h2.049v2.049h-2.049z M4.098 61.463h4.098v2.049h-4.098z M12.293 61.463h2.049v2.049h-2.049z M18.439 61.463h2.049v2.049h-2.049z M36.878 61.463h2.049v2.049h-2.049z M45.073 61.463h8.195v2.049h-8.195z M71.707 61.463h2.049v2.049h-2.049z M77.854 61.463h6.146v2.049h-6.146z M6.146 63.512h4.098v2.049h-4.098z M14.341 63.512h10.244v2.049h-10.244z M26.634 63.512h6.146v2.049h-6.146z M34.829 63.512h4.098v2.049h-4.098z M43.024 63.512h4.098v2.049h-4.098z M49.171 63.512h2.049v2.049h-2.049z M53.268 63.512h10.244v2.049h-10.244z M65.561 63.512h4.098v2.049h-4.098z M73.756 63.512h4.098v2.049h-4.098z M79.902 63.512h4.098v2.049h-4.098z M0.0 65.561h2.049v2.049h-2.049z M10.244 65.561h4.098v2.049h-4.098z M16.39 65.561h10.244v2.049h-10.244z M30.732 65.561h4.098v2.049h-4.098z M43.024 65.561h2.049v2.049h-2.049z M53.268 65.561h2.049v2.049h-2.049z M57.366 65.561h4.098v2.049h-4.098z M65.561 65.561h10.244v2.049h-10.244z M77.854 65.561h6.146v2.049h-6.146z M16.39 67.61h4.098v2.049h-4.098z M24.585 67.61h12.293v2.049h-12.293z M40.976 67.61h2.049v2.049h-2.049z M45.073 67.61h2.049v2.049h-2.049z M51.22 67.61h2.049v2.049h-2.049z M57.366 67.61h2.049v2.049h-2.049z M61.463 67.61h6.146v2.049h-6.146z M73.756 67.61h2.049v2.049h-2.049z M77.854 67.61h6.146v2.049h-6.146z M0.0 69.659h14.341v2.049h-14.341z M18.439 69.659h2.049v2.049h-2.049z M22.537 69.659h4.098v2.049h-4.098z M30.732 69.659h2.049v2.049h-2.049z M36.878 69.659h10.244v2.049h-10.244z M51.22 69.659h4.098v2.049h-4.098z M57.366 69.659h4.098v2.049h-4.098z M65.561 69.659h2.049v2.049h-2.049z M69.659 69.659h2.049v2.049h-2.049z M73.756 69.659h2.049v2.049h-2.049z M79.902 69.659h2.049v2.049h-2.049z M0.0 71.707h2.049v2.049h-2.049z M12.293 71.707h2.049v2.049h-2.049z M16.39 71.707h2.049v2.049h-2.049z M20.488 71.707h4.098v2.049h-4.098z M26.634 71.707h2.049v2.049h-2.049z M30.732 71.707h2.049v2.049h-2.049z M36.878 71.707h2.049v2.049h-2.049z M40.976 71.707h2.049v2.049h-2.049z M47.122 71.707h2.049v2.049h-2.049z M51.22 71.707h2.049v2.049h-2.049z M57.366 71.707h4.098v2.049h-4.098z M65.561 71.707h2.049v2.049h-2.049z M73.756 71.707h2.049v2.049h-2.049z M77.854 71.707h2.049v2.049h-2.049z M81.951 71.707h2.049v2.049h-2.049z M0.0 73.756h2.049v2.049h-2.049z M4.098 73.756h6.146v2.049h-6.146z M12.293 73.756h2.049v2.049h-2.049z M18.439 73.756h4.098v2.049h-4.098z M24.585 73.756h4.098v2.049h-4.098z M30.732 73.756h4.098v2.049h-4.098z M36.878 73.756h2.049v2.049h-2.049z M40.976 73.756h2.049v2.049h-2.049z M47.122 73.756h2.049v2.049h-2.049z M53.268 73.756h6.146v2.049h-6.146z M65.561 73.756h10.244v2.049h-10.244z M77.854 73.756h4.098v2.049h-4.098z M0.0 75.805h2.049v2.049h-2.049z M4.098 75.805h6.146v2.049h-6.146z M12.293 75.805h2.049v2.049h-2.049z M16.39 75.805h2.049v2.049h-2.049z M20.488 75.805h2.049v2.049h-2.049z M28.683 75.805h4.098v2.049h-4.098z M34.829 75.805h12.293v2.049h-12.293z M53.268 75.805h2.049v2.049h-2.049z M57.366 75.805h4.098v2.049h-4.098z M63.512 75.805h2.049v2.049h-2.049z M67.61 75.805h4.098v2.049h-4.098z M73.756 75.805h4.098v2.049h-4.098z M81.951 75.805h2.049v2.049h-2.049z M0.0 77.854h2.049v2.049h-2.049z M4.098 77.854h6.146v2.049h-6.146z M12.293 77.854h2.049v2.049h-2.049z M20.488 77.854h12.293v2.049h-12.293z M43.024 77.854h2.049v2.049h-2.049z M47.122 77.854h2.049v2.049h-2.049z M51.22 77.854h4.098v2.049h-4.098z M61.463 77.854h2.049v2.049h-2.049z M65.561 77.854h2.049v2.049h-2.049z M73.756 77.854h10.244v2.049h-10.244z M0.0 79.902h2.049v2.049h-2.049z M12.293 79.902h2.049v2.049h-2.049z M18.439 79.902h2.049v2.049h-2.049z M22.537 79.902h2.049v2.049h-2.049z M34.829 79.902h4.098v2.049h-4.098z M43.024 79.902h4.098v2.049h-4.098z M51.22 79.902h18.439v2.049h-18.439z M71.707 79.902h2.049v2.049h-2.049z M79.902 79.902h2.049v2.049h-2.049z M0.0 81.951h14.341v2.049h-14.341z M16.39 81.951h2.049v2.049h-2.049z M20.488 81.951h8.195v2.049h-8.195z M34.829 81.951h12.293v2.049h-12.293z M49.171 81.951h2.049v2.049h-2.049z M59.415 81.951h2.049v2.049h-2.049z M63.512 81.951h12.293v2.049h-12.293z M79.902 81.951h2.049v2.049h-2.049z"/>
</g>
<text x="1122" y="614" font-family="Inter, Helvetica, Arial, sans-serif" font-size="10" font-weight="700" fill="#F5F7FA" text-anchor="middle">scan / full post</text>
</svg>
