<svg xmlns="http://www.w3.org/2000/svg" viewBox="0 0 1200 630" width="1200" height="630">
  <title>Cloud Security 8Batch 1Week Infrastructure EssenceFrom</title>
  <defs>
    <linearGradient id="bg" x1="0%" y1="0%" x2="100%" y2="100%">
      <stop offset="0%" stop-color="#0a0c1a"/>
      <stop offset="100%" stop-color="#0a1525"/>
    </linearGradient>
    <linearGradient id="accent" x1="0%" y1="0%" x2="100%" y2="0%">
      <stop offset="0%" stop-color="#06b6d4"/>
      <stop offset="100%" stop-color="#3b82f6"/>
    </linearGradient>
  </defs>
  <rect width="1200" height="630" fill="url(#bg)"/>
  <!-- Grid lines -->
  <line x1="0" y1="105" x2="1200" y2="105" stroke="rgba(255,255,255,0.04)" stroke-width="1"/>
  <line x1="0" y1="210" x2="1200" y2="210" stroke="rgba(255,255,255,0.04)" stroke-width="1"/>
  <line x1="0" y1="315" x2="1200" y2="315" stroke="rgba(255,255,255,0.04)" stroke-width="1"/>
  <line x1="0" y1="420" x2="1200" y2="420" stroke="rgba(255,255,255,0.04)" stroke-width="1"/>
  <line x1="240" y1="0" x2="240" y2="630" stroke="rgba(255,255,255,0.03)" stroke-width="1"/>
  <line x1="480" y1="0" x2="480" y2="630" stroke="rgba(255,255,255,0.03)" stroke-width="1"/>
  <line x1="720" y1="0" x2="720" y2="630" stroke="rgba(255,255,255,0.03)" stroke-width="1"/>
  <line x1="960" y1="0" x2="960" y2="630" stroke="rgba(255,255,255,0.03)" stroke-width="1"/>
  <!-- Cloud shape -->
  <ellipse cx="970" cy="200" rx="110" ry="50" fill="rgba(6,182,212,0.07)" stroke="rgba(6,182,212,0.2)" stroke-width="1.5"/>
  <ellipse cx="935" cy="218" rx="75" ry="38" fill="rgba(6,182,212,0.05)"/>
  <ellipse cx="1010" cy="222" rx="65" ry="33" fill="rgba(6,182,212,0.05)"/>
  <!-- Server rack -->
  <rect x="920" y="320" width="80" height="100" rx="6" fill="rgba(59,130,246,0.06)" stroke="rgba(59,130,246,0.2)" stroke-width="1"/>
  <line x1="920" y1="350" x2="1000" y2="350" stroke="rgba(59,130,246,0.15)" stroke-width="1"/>
  <line x1="920" y1="380" x2="1000" y2="380" stroke="rgba(59,130,246,0.15)" stroke-width="1"/>
  <circle cx="985" cy="335" r="4" fill="rgba(34,197,94,0.4)"/>
  <circle cx="985" cy="365" r="4" fill="rgba(34,197,94,0.3)"/>
  <circle cx="985" cy="395" r="4" fill="rgba(245,158,11,0.3)"/>
  <!-- Background circles -->
  <circle cx="1050" cy="450" r="200" fill="rgba(255,255,255,0.02)"/>
  <circle cx="1050" cy="450" r="140" fill="rgba(255,255,255,0.02)"/>
  <!-- Left accent bar -->
  <rect x="0" y="0" width="6" height="630" fill="url(#accent)"/>
  <!-- Date badge -->
  <rect x="80" y="60" width="200" height="32" rx="4" fill="rgba(6,182,212,0.2)" stroke="rgba(6,182,212,0.4)" stroke-width="1"/>
  <text x="180" y="81" font-family="system-ui,sans-serif" font-size="14" fill="rgba(255,255,255,0.8)" text-anchor="middle" letter-spacing="1">NOVEMBER 26, 2025</text>
  <!-- Main title -->
  <text x="80" y="185" font-family="system-ui,sans-serif" font-size="46" font-weight="700" fill="white" letter-spacing="-1">Cloud Security 8Batch 1Week</text>
  <text x="80" y="245" font-family="system-ui,sans-serif" font-size="46" font-weight="700" fill="white" letter-spacing="-1">Infrastructure EssenceFrom</text>
  <!-- Subtitle -->
  <text x="80" y="300" font-family="system-ui,sans-serif" font-size="19" fill="rgba(255,255,255,0.6)">Infrastructure | Cloud Security | AWS</text>
  <!-- Accent line -->
  <rect x="80" y="325" width="420" height="3" rx="1" fill="url(#accent)"/>
  <!-- Category label -->
  <text x="80" y="370" font-family="system-ui,sans-serif" font-size="14" fill="rgba(255,255,255,0.4)" letter-spacing="2">CLOUD SECURITY DIGEST</text>
  <!-- Keyword tags (3 max) -->
  <rect x="80" y="420" width="162" height="36" rx="18" fill="rgba(6,182,212,0.18)" stroke="rgba(6,182,212,0.4)" stroke-width="1"/>
  <text x="161" y="443" font-family="system-ui,sans-serif" font-size="14" fill="#67e8f9" text-anchor="middle" font-weight="600">Infrastructure</text>
  <rect x="256" y="420" width="162" height="36" rx="18" fill="rgba(59,130,246,0.15)" stroke="rgba(59,130,246,0.35)" stroke-width="1"/>
  <text x="337" y="443" font-family="system-ui,sans-serif" font-size="14" fill="#93c5fd" text-anchor="middle" font-weight="600">Cloud Security</text>
  <rect x="432" y="420" width="80" height="36" rx="18" fill="rgba(139,92,246,0.15)" stroke="rgba(139,92,246,0.35)" stroke-width="1"/>
  <text x="472" y="443" font-family="system-ui,sans-serif" font-size="14" fill="#a78bfa" text-anchor="middle" font-weight="600">AWS</text>
  <!-- Bottom rule -->
  <rect x="80" y="520" width="1040" height="1" fill="rgba(255,255,255,0.08)"/>
  <text x="80" y="545" font-family="system-ui,sans-serif" font-size="13" fill="rgba(255,255,255,0.3)" letter-spacing="1">tech.2twodragon.com</text>
  <text x="1120" y="545" font-family="system-ui,sans-serif" font-size="13" fill="rgba(255,255,255,0.3)" text-anchor="end">DevSecOps</text>
</svg>
