<svg xmlns="http://www.w3.org/2000/svg" width="1200" height="630" viewBox="0 0 1200 630">
  <defs>
    <linearGradient id="bgGrad" x1="0" y1="0" x2="1" y2="1">
      <stop offset="0%" stop-color="#04091a"/>
      <stop offset="50%" stop-color="#080f26"/>
      <stop offset="100%" stop-color="#050e1e"/>
    </linearGradient>
    <linearGradient id="accentGrad" x1="0" y1="0" x2="1" y2="0">
      <stop offset="0%" stop-color="#6366f1"/>
      <stop offset="100%" stop-color="#22d3ee"/>
    </linearGradient>
    <linearGradient id="card1Grad" x1="0" y1="0" x2="0" y2="1">
      <stop offset="0%" stop-color="#0e1040"/>
      <stop offset="100%" stop-color="#080b2e"/>
    </linearGradient>
    <linearGradient id="card2Grad" x1="0" y1="0" x2="0" y2="1">
      <stop offset="0%" stop-color="#041a28"/>
      <stop offset="100%" stop-color="#02111c"/>
    </linearGradient>
    <linearGradient id="card3Grad" x1="0" y1="0" x2="0" y2="1">
      <stop offset="0%" stop-color="#0a1035"/>
      <stop offset="100%" stop-color="#060b25"/>
    </linearGradient>
    <filter id="glow">
      <feGaussianBlur stdDeviation="4" result="blur"/>
      <feMerge><feMergeNode in="blur"/><feMergeNode in="SourceGraphic"/></feMerge>
    </filter>
    <filter id="shadow">
      <feDropShadow dx="0" dy="4" stdDeviation="8" flood-color="#000" flood-opacity="0.6"/>
    </filter>
    <pattern id="grid" width="40" height="40" patternUnits="userSpaceOnUse">
      <path d="M 40 0 L 0 0 0 40" fill="none" stroke="#0e1540" stroke-width="0.5" opacity="0.6"/>
    </pattern>
  </defs>

  <!-- Background -->
  <rect width="1200" height="630" fill="url(#bgGrad)"/>
  <rect width="1200" height="630" fill="url(#grid)"/>

  <!-- Glow accents -->
  <circle cx="1100" cy="80" r="220" fill="#6366f1" opacity="0.04"/>
  <circle cx="1100" cy="80" r="130" fill="#22d3ee" opacity="0.04"/>
  <circle cx="80" cy="540" r="160" fill="#6366f1" opacity="0.03"/>

  <!-- Outer border -->
  <rect x="20" y="20" width="1160" height="590" rx="20" fill="none" stroke="#6366f1" stroke-width="1" opacity="0.2"/>

  <!-- Top accent line -->
  <rect x="0" y="0" width="1200" height="4" fill="url(#accentGrad)"/>

  <!-- Badge -->
  <rect x="60" y="38" width="250" height="34" rx="17" fill="#0e1040" stroke="#6366f1" stroke-width="1.5"/>
  <text x="185" y="61" fill="#818cf8" font-family="Arial, sans-serif" font-size="12" font-weight="700" text-anchor="middle" letter-spacing="2">CLOUD SECURITY COURSE</text>

  <!-- Date badge -->
  <rect x="1040" y="38" width="120" height="34" rx="17" fill="#041a28" stroke="#22d3ee" stroke-width="1.5"/>
  <text x="1100" y="61" fill="#67e8f9" font-family="Arial, sans-serif" font-size="12" font-weight="600" text-anchor="middle">Jun 6, 2025</text>

  <!-- Main title -->
  <text x="60" y="145" fill="#e0e7ff" font-family="Arial, sans-serif" font-size="44" font-weight="800" filter="url(#glow)">CI/CD and Kubernetes Security</text>

  <!-- Subtitle -->
  <text x="60" y="188" fill="#a5b4fc" font-family="Arial, sans-serif" font-size="19" font-weight="400" letter-spacing="1">Batch 7  |  Week 8  |  Practical Guide</text>

  <!-- Divider -->
  <line x1="60" y1="208" x2="720" y2="208" stroke="url(#accentGrad)" stroke-width="1.5" opacity="0.6"/>

  <!-- CARD 1: CI/CD Pipeline -->
  <rect x="60" y="228" width="340" height="320" rx="16" fill="url(#card1Grad)" stroke="#6366f1" stroke-width="1.5" filter="url(#shadow)"/>
  <rect x="60" y="228" width="340" height="5" rx="3" fill="#6366f1"/>

  <!-- CI/CD icon: pipeline flow -->
  <circle cx="110" cy="290" r="28" fill="#080b2e" stroke="#6366f1" stroke-width="1.5"/>
  <circle cx="98" cy="290" r="5" fill="#6366f1"/>
  <line x1="103" y1="290" x2="117" y2="290" stroke="#6366f1" stroke-width="2"/>
  <circle cx="122" cy="290" r="5" fill="#818cf8"/>
  <!-- arrow -->
  <path d="M108 285 L115 290 L108 295" fill="#6366f1"/>

  <text x="148" y="283" fill="#e0e7ff" font-family="Arial, sans-serif" font-size="18" font-weight="700">CI/CD Pipeline</text>
  <text x="148" y="303" fill="#a5b4fc" font-family="Arial, sans-serif" font-size="13">Pipeline Security</text>

  <line x1="85" y1="325" x2="375" y2="325" stroke="#0e1040" stroke-width="1"/>

  <!-- Pipeline steps visualization -->
  <text x="85" y="348" fill="#818cf8" font-family="Arial, sans-serif" font-size="12" font-weight="600">PIPELINE STAGES</text>

  <!-- Stage blocks -->
  <rect x="85" y="358" width="62" height="28" rx="6" fill="#1e2060" stroke="#6366f1" stroke-width="1"/>
  <text x="116" y="377" fill="#e0e7ff" font-family="Arial, sans-serif" font-size="11" text-anchor="middle">Build</text>

  <path d="M147 372 L155 372" stroke="#6366f1" stroke-width="1.5" marker-end="url(#arr)"/>
  <text x="152" y="370" fill="#6366f1" font-family="Arial, sans-serif" font-size="14">></text>

  <rect x="159" y="358" width="62" height="28" rx="6" fill="#1e2060" stroke="#6366f1" stroke-width="1"/>
  <text x="190" y="377" fill="#e0e7ff" font-family="Arial, sans-serif" font-size="11" text-anchor="middle">Scan</text>

  <text x="224" y="370" fill="#6366f1" font-family="Arial, sans-serif" font-size="14">></text>

  <rect x="233" y="358" width="62" height="28" rx="6" fill="#1e2060" stroke="#6366f1" stroke-width="1"/>
  <text x="264" y="377" fill="#e0e7ff" font-family="Arial, sans-serif" font-size="11" text-anchor="middle">Sign</text>

  <text x="298" y="370" fill="#6366f1" font-family="Arial, sans-serif" font-size="14">></text>

  <rect x="307" y="358" width="62" height="28" rx="6" fill="#0a3a20" stroke="#22c55e" stroke-width="1"/>
  <text x="338" y="377" fill="#86efac" font-family="Arial, sans-serif" font-size="11" text-anchor="middle">Deploy</text>

  <text x="85" y="414" fill="#94a3b8" font-family="Arial, sans-serif" font-size="14">SAST / DAST Scanning</text>
  <text x="85" y="434" fill="#6366f1" font-family="Arial, sans-serif" font-size="12">SonarQube and OWASP ZAP integration</text>

  <text x="85" y="458" fill="#94a3b8" font-family="Arial, sans-serif" font-size="14">Secret Detection</text>
  <text x="85" y="478" fill="#6366f1" font-family="Arial, sans-serif" font-size="12">Gitleaks and truffleHog pre-commit</text>

  <text x="85" y="502" fill="#94a3b8" font-family="Arial, sans-serif" font-size="14">Artifact Signing</text>
  <text x="85" y="522" fill="#6366f1" font-family="Arial, sans-serif" font-size="12">Sigstore Cosign keyless signing</text>

  <!-- CARD 2: K8s Runtime -->
  <rect x="430" y="228" width="340" height="320" rx="16" fill="url(#card2Grad)" stroke="#22d3ee" stroke-width="1.5" filter="url(#shadow)"/>
  <rect x="430" y="228" width="340" height="5" rx="3" fill="#22d3ee"/>

  <!-- K8s icon: hexagon wheel -->
  <circle cx="480" cy="290" r="28" fill="#02111c" stroke="#22d3ee" stroke-width="1.5"/>
  <polygon points="480,268 494,276 494,292 480,300 466,292 466,276" fill="none" stroke="#22d3ee" stroke-width="2" filter="url(#glow)"/>
  <circle cx="480" cy="284" r="4" fill="#22d3ee"/>
  <line x1="480" y1="268" x2="480" y2="272" stroke="#22d3ee" stroke-width="1.5"/>
  <line x1="494" y1="276" x2="491" y2="278" stroke="#22d3ee" stroke-width="1.5"/>
  <line x1="494" y1="292" x2="491" y2="290" stroke="#22d3ee" stroke-width="1.5"/>
  <line x1="480" y1="300" x2="480" y2="296" stroke="#22d3ee" stroke-width="1.5"/>
  <line x1="466" y1="292" x2="469" y2="290" stroke="#22d3ee" stroke-width="1.5"/>
  <line x1="466" y1="276" x2="469" y2="278" stroke="#22d3ee" stroke-width="1.5"/>

  <text x="518" y="283" fill="#e0f7fa" font-family="Arial, sans-serif" font-size="18" font-weight="700">K8s Runtime</text>
  <text x="518" y="303" fill="#67e8f9" font-family="Arial, sans-serif" font-size="13">Runtime Security</text>

  <line x1="455" y1="325" x2="745" y2="325" stroke="#041a28" stroke-width="1"/>

  <text x="455" y="352" fill="#94a3b8" font-family="Arial, sans-serif" font-size="14">Falco Runtime Detection</text>
  <text x="455" y="372" fill="#22d3ee" font-family="Arial, sans-serif" font-size="12">Syscall anomaly alerting</text>

  <text x="455" y="398" fill="#94a3b8" font-family="Arial, sans-serif" font-size="14">OPA / Kyverno Policy</text>
  <text x="455" y="418" fill="#22d3ee" font-family="Arial, sans-serif" font-size="12">Admission controller enforcement</text>

  <text x="455" y="444" fill="#94a3b8" font-family="Arial, sans-serif" font-size="14">Network Policy</text>
  <text x="455" y="464" fill="#22d3ee" font-family="Arial, sans-serif" font-size="12">Calico zero-trust microsegmentation</text>

  <text x="455" y="490" fill="#94a3b8" font-family="Arial, sans-serif" font-size="14">RBAC Hardening</text>
  <text x="455" y="510" fill="#22d3ee" font-family="Arial, sans-serif" font-size="12">Least-privilege service accounts</text>

  <text x="455" y="536" fill="#22d3ee" font-family="Arial, sans-serif" font-size="12">Audit logging to SIEM</text>

  <!-- CARD 3: Image Scanning -->
  <rect x="800" y="228" width="340" height="320" rx="16" fill="url(#card3Grad)" stroke="#818cf8" stroke-width="1.5" filter="url(#shadow)"/>
  <rect x="800" y="228" width="340" height="5" rx="3" fill="#818cf8"/>

  <!-- Scan icon: magnifier over layers -->
  <circle cx="850" cy="290" r="28" fill="#060b25" stroke="#818cf8" stroke-width="1.5"/>
  <rect x="838" y="280" width="18" height="16" rx="2" fill="none" stroke="#818cf8" stroke-width="1.5"/>
  <line x1="838" y1="284" x2="856" y2="284" stroke="#818cf8" stroke-width="1"/>
  <line x1="838" y1="288" x2="856" y2="288" stroke="#818cf8" stroke-width="1"/>
  <circle cx="858" cy="298" r="6" fill="none" stroke="#818cf8" stroke-width="2" filter="url(#glow)"/>
  <line x1="862" y1="302" x2="866" y2="306" stroke="#818cf8" stroke-width="2.5" stroke-linecap="round"/>

  <text x="888" y="283" fill="#e0e7ff" font-family="Arial, sans-serif" font-size="18" font-weight="700">Image Scanning</text>
  <text x="888" y="303" fill="#a5b4fc" font-family="Arial, sans-serif" font-size="13">Container Security</text>

  <line x1="825" y1="325" x2="1115" y2="325" stroke="#0a1035" stroke-width="1"/>

  <!-- CVE severity breakdown -->
  <text x="825" y="350" fill="#818cf8" font-family="Arial, sans-serif" font-size="12" font-weight="600">CVE SEVERITY BREAKDOWN</text>

  <text x="825" y="376" fill="#f87171" font-family="Arial, sans-serif" font-size="13">Critical</text>
  <rect x="885" y="365" width="190" height="14" rx="7" fill="#1a0a0a"/>
  <rect x="885" y="365" width="38" height="14" rx="7" fill="#ef4444"/>
  <text x="1080" y="378" fill="#f87171" font-family="Arial, sans-serif" font-size="12" text-anchor="end">2</text>

  <text x="825" y="402" fill="#fb923c" font-family="Arial, sans-serif" font-size="13">High</text>
  <rect x="885" y="391" width="190" height="14" rx="7" fill="#1a0a0a"/>
  <rect x="885" y="391" width="76" height="14" rx="7" fill="#f97316"/>
  <text x="1080" y="404" fill="#fb923c" font-family="Arial, sans-serif" font-size="12" text-anchor="end">8</text>

  <text x="825" y="428" fill="#fbbf24" font-family="Arial, sans-serif" font-size="13">Medium</text>
  <rect x="885" y="417" width="190" height="14" rx="7" fill="#1a0a0a"/>
  <rect x="885" y="417" width="114" height="14" rx="7" fill="#f59e0b"/>
  <text x="1080" y="430" fill="#fbbf24" font-family="Arial, sans-serif" font-size="12" text-anchor="end">12</text>

  <text x="825" y="454" fill="#94a3b8" font-family="Arial, sans-serif" font-size="13">Low</text>
  <rect x="885" y="443" width="190" height="14" rx="7" fill="#0a1035"/>
  <rect x="885" y="443" width="152" height="14" rx="7" fill="#4b5563"/>
  <text x="1080" y="456" fill="#94a3b8" font-family="Arial, sans-serif" font-size="12" text-anchor="end">16</text>

  <text x="825" y="480" fill="#94a3b8" font-family="Arial, sans-serif" font-size="14">Trivy / Grype Scanning</text>
  <text x="825" y="500" fill="#818cf8" font-family="Arial, sans-serif" font-size="12">Gate build on Critical and High CVEs</text>

  <text x="825" y="524" fill="#94a3b8" font-family="Arial, sans-serif" font-size="14">Distroless Base Images</text>
  <text x="825" y="544" fill="#818cf8" font-family="Arial, sans-serif" font-size="12">Reduce attack surface by 80%</text>

  <!-- Footer -->
  <rect x="0" y="596" width="1200" height="34" fill="#04091a" opacity="0.9"/>
  <line x1="0" y1="596" x2="1200" y2="596" stroke="#0e1540" stroke-width="1"/>
  <text x="60" y="618" fill="#6366f1" font-family="Arial, sans-serif" font-size="13" font-weight="600">Kubernetes</text>
  <text x="155" y="618" fill="#475569" font-family="Arial, sans-serif" font-size="13">CI/CD Security</text>
  <text x="275" y="618" fill="#475569" font-family="Arial, sans-serif" font-size="13">OPA Policy</text>
  <text x="375" y="618" fill="#475569" font-family="Arial, sans-serif" font-size="13">Falco</text>
  <text x="430" y="618" fill="#475569" font-family="Arial, sans-serif" font-size="13">Trivy</text>
  <text x="490" y="618" fill="#475569" font-family="Arial, sans-serif" font-size="13">DevSecOps</text>
  <text x="960" y="618" fill="#64748b" font-family="Arial, sans-serif" font-size="13" text-anchor="end">tech.2twodragon.com</text>
</svg>
