<svg xmlns="http://www.w3.org/2000/svg" viewBox="0 0 1200 630" width="1200" height="630">
  <title>Building Secure Database Access Gateway on AWS: N...</title>
  <defs>
    <linearGradient id="bg" x1="0%" y1="0%" x2="100%" y2="100%">
      <stop offset="0%" stop-color="#0b0e1a"/>
      <stop offset="50%" stop-color="#111827"/>
      <stop offset="100%" stop-color="#0f0a1e"/>
    </linearGradient>
    <linearGradient id="accent" x1="0%" y1="0%" x2="100%" y2="100%">
      <stop offset="0%" stop-color="#f59e0b"/>
      <stop offset="100%" stop-color="#3b82f6"/>
    </linearGradient>
    <filter id="glow"><feGaussianBlur stdDeviation="4" result="b"/><feMerge><feMergeNode in="b"/><feMergeNode in="SourceGraphic"/></feMerge></filter>
    <filter id="sg"><feGaussianBlur stdDeviation="30"/></filter>
    <filter id="shadow"><feDropShadow dx="0" dy="6" stdDeviation="12" flood-color="#000" flood-opacity="0.4"/></filter>
  </defs>
  <rect width="1200" height="630" fill="url(#bg)"/>
  <circle cx="200" cy="200" r="250" fill="#f59e0b" opacity="0.06" filter="url(#sg)"/>
  <circle cx="900" cy="400" r="200" fill="#3b82f6" opacity="0.05" filter="url(#sg)"/>
  <g transform="translate(600,260)">
    <!-- Database cylinder -->
    <g transform="translate(150,0)" filter="url(#shadow)">
      <ellipse cx="0" cy="-50" rx="55" ry="18" fill="#0f172a" stroke="#f59e0b" stroke-width="2"/>
      <rect x="-55" y="-50" width="110" height="100" fill="#0f172a"/>
      <line x1="-55" y1="-50" x2="-55" y2="50" stroke="#f59e0b" stroke-width="2"/>
      <line x1="55" y1="-50" x2="55" y2="50" stroke="#f59e0b" stroke-width="2"/>
      <ellipse cx="0" cy="50" rx="55" ry="18" fill="#0f172a" stroke="#f59e0b" stroke-width="2"/>
      <ellipse cx="0" cy="-20" rx="55" ry="12" fill="none" stroke="#f59e0b" stroke-width="0.8" opacity="0.3"/>
      <ellipse cx="0" cy="15" rx="55" ry="12" fill="none" stroke="#f59e0b" stroke-width="0.8" opacity="0.3"/>
      <text x="0" y="5" font-family="Courier New" font-size="12" font-weight="bold" fill="#fbbf24" text-anchor="middle">RDS</text>
    </g>

    <!-- NLB -->
    <g transform="translate(-150,0)" filter="url(#shadow)">
      <rect x="-55" y="-40" width="110" height="80" rx="12" fill="#0f172a" stroke="#3b82f6" stroke-width="2"/>
      <text x="0" y="-10" font-family="Courier New" font-size="14" font-weight="bold" fill="#60a5fa" text-anchor="middle">NLB</text>
      <text x="0" y="12" font-family="Courier New" font-size="9" fill="#475569" text-anchor="middle">Load Balancer</text>
    </g>

    <!-- Security Group -->
    <rect x="-20" y="-70" width="40" height="140" rx="4" fill="none" stroke="#22c55e" stroke-width="1.5" stroke-dasharray="6,4" opacity="0.4"/>
    <text x="10" y="-80" font-family="Courier New" font-size="9" fill="#4ade80" text-anchor="middle">SG</text>

    <!-- Connection -->
    <line x1="-95" y1="0" x2="95" y2="0" stroke="#475569" stroke-width="2" opacity="0.5"/>
    <polygon points="90,-6 100,0 90,6" fill="#475569" opacity="0.6"/>
  </g>

  <text x="600" y="490" font-family="Arial,sans-serif" font-size="28" font-weight="bold" fill="white" text-anchor="middle" filter="url(#glow)">AWSin Database Access Gateway Build NLB</text>
  <text x="600" y="555" font-family="Arial,sans-serif" font-size="15" fill="#94a3b8" text-anchor="middle">AWS | NLB | Security-Group | Database</text>
  <rect x="40" y="22" width="140" height="32" rx="16" fill="#f59e0b" opacity="0.25" stroke="#f59e0b" stroke-width="1"/>
  <text x="110" y="44" font-family="Arial,sans-serif" font-size="13" font-weight="bold" fill="#f59e0b" text-anchor="middle">CLOUD</text>
  <rect x="1020" y="22" width="140" height="32" rx="16" fill="#3b82f6" opacity="0.2" stroke="#3b82f6" stroke-width="1"/>
  <text x="1090" y="44" font-family="Arial,sans-serif" font-size="13" font-weight="bold" fill="#93c5fd" text-anchor="middle">October 03, 2025</text>
  <line x1="50" y1="588" x2="1150" y2="588" stroke="#334155" stroke-width="1" opacity="0.5"/>
  <text x="1150" y="612" font-family="Arial,sans-serif" font-size="13" fill="#94a3b8" text-anchor="end">tech.2twodragon.com</text>
</svg>