<svg xmlns="http://www.w3.org/2000/svg" viewBox="0 0 1200 630">
  <defs>
    <linearGradient id="bg" x1="0%" y1="0%" x2="100%" y2="100%">
      <stop offset="0%" style="stop-color:#0a0a1a"/><stop offset="100%" style="stop-color:#0a1a2a"/>
    </linearGradient>
    <filter id="glow"><feGaussianBlur stdDeviation="4" result="b"/><feMerge><feMergeNode in="b"/><feMergeNode in="SourceGraphic"/></feMerge></filter>
    <filter id="sg"><feGaussianBlur stdDeviation="25"/></filter>
  </defs>
  <rect width="1200" height="630" fill="url(#bg)"/>
  <circle cx="600" cy="270" r="260" fill="#8b5cf6" opacity="0.04" filter="url(#sg)"/>
  <!-- Control Tower -->
  <g transform="translate(600,250)">
    <rect x="-30" y="-130" width="60" height="200" rx="4" fill="#1e293b" stroke="#8b5cf6" stroke-width="2"/>
    <rect x="-80" y="-130" width="160" height="40" rx="8" fill="#1e293b" stroke="#8b5cf6" stroke-width="2.5"/>
    <rect x="-70" y="-120" width="140" height="20" rx="3" fill="#8b5cf6" opacity="0.15"/>
    <circle cx="-40" cy="-110" r="4" fill="#22d3ee" opacity="0.8"/>
    <circle cx="0" cy="-110" r="4" fill="#22c55e" opacity="0.8"/>
    <circle cx="40" cy="-110" r="4" fill="#f59e0b" opacity="0.8"/>
    <!-- Antenna -->
    <line x1="0" y1="-130" x2="0" y2="-160" stroke="#8b5cf6" stroke-width="2"/>
    <circle cx="0" cy="-165" r="6" fill="#8b5cf6" opacity="0.6"/>
    <!-- Signal waves -->
    <path d="M-20,-165 C-20,-185 20,-185 20,-165" fill="none" stroke="#8b5cf6" stroke-width="1.5" opacity="0.3"/>
    <path d="M-35,-165 C-35,-195 35,-195 35,-165" fill="none" stroke="#8b5cf6" stroke-width="1.5" opacity="0.2"/>
    <!-- ZTNA rings at base -->
    <ellipse cx="0" cy="80" rx="160" ry="30" fill="none" stroke="#22d3ee" stroke-width="1.5" opacity="0.3" stroke-dasharray="6,4"/>
    <ellipse cx="0" cy="80" rx="110" ry="20" fill="none" stroke="#22d3ee" stroke-width="1.5" opacity="0.4" stroke-dasharray="4,3"/>
    <ellipse cx="0" cy="80" rx="60" ry="12" fill="none" stroke="#22d3ee" stroke-width="2" opacity="0.5"/>
    <text x="0" y="85" font-family="Courier New" font-size="10" fill="#67e8f9" text-anchor="middle">ZTNA</text>
    <!-- SCP policy documents -->
    <g transform="translate(-140,-40)" opacity="0.5">
      <rect x="0" y="0" width="50" height="60" rx="4" fill="#1e293b" stroke="#f59e0b" stroke-width="1.5"/>
      <text x="25" y="35" font-family="Courier New" font-size="8" fill="#fde68a" text-anchor="middle">SCP</text>
    </g>
    <g transform="translate(90,-40)" opacity="0.5">
      <rect x="0" y="0" width="50" height="60" rx="4" fill="#1e293b" stroke="#f59e0b" stroke-width="1.5"/>
      <text x="25" y="35" font-family="Courier New" font-size="8" fill="#fde68a" text-anchor="middle">OU</text>
    </g>
  </g>
  <text x="600" y="510" font-family="Arial,sans-serif" font-size="36" font-weight="bold" fill="white" text-anchor="middle" filter="url(#glow)">AWS Control Tower</text>
  <text x="600" y="548" font-family="Arial,sans-serif" font-size="16" fill="#94a3b8" text-anchor="middle">Cloud Security Course 7th | Week 5 | ZTNA Architecture</text>
  <rect x="40" y="25" width="160" height="32" rx="16" fill="#8b5cf6" opacity="0.2" stroke="#8b5cf6" stroke-width="1"/>
  <text x="120" y="47" font-family="Arial,sans-serif" font-size="13" font-weight="bold" fill="#c4b5fd" text-anchor="middle">CLOUD COURSE</text>
  <rect x="1000" y="25" width="160" height="32" rx="16" fill="#3b82f6" opacity="0.2" stroke="#3b82f6" stroke-width="1"/>
  <text x="1080" y="47" font-family="Arial,sans-serif" font-size="13" font-weight="bold" fill="#93c5fd" text-anchor="middle">May 16, 2025</text>
  <text x="1160" y="615" font-family="Arial,sans-serif" font-size="13" fill="#475569" text-anchor="end">tech.2twodragon.com</text>
</svg>