<svg xmlns="http://www.w3.org/2000/svg" viewBox="0 0 1200 630">
  <defs>
    <linearGradient id="bg" x1="0%" y1="0%" x2="100%" y2="100%">
      <stop offset="0%" style="stop-color:#0a0a1a"/><stop offset="100%" style="stop-color:#1a0a0a"/>
    </linearGradient>
    <filter id="glow"><feGaussianBlur stdDeviation="4" result="b"/><feMerge><feMergeNode in="b"/><feMergeNode in="SourceGraphic"/></feMerge></filter>
    <filter id="sg"><feGaussianBlur stdDeviation="25"/></filter>
  </defs>
  <rect width="1200" height="630" fill="url(#bg)"/>
  <circle cx="600" cy="270" r="260" fill="#cb3837" opacity="0.04" filter="url(#sg)"/>
  <g transform="translate(600,250)">
    <!-- npm box -->
    <rect x="-80" y="-80" width="160" height="120" rx="12" fill="#1e293b" stroke="#cb3837" stroke-width="3"/>
    <text x="0" y="-10" font-family="Arial,sans-serif" font-size="50" font-weight="bold" fill="#cb3837" text-anchor="middle" opacity="0.8">npm</text>
    <!-- Warning badge -->
    <circle cx="70" cy="-70" r="25" fill="#ef4444" opacity="0.9"/>
    <text x="70" y="-64" font-family="Arial,sans-serif" font-size="16" font-weight="bold" fill="white" text-anchor="middle">20</text>
    <text x="70" y="-52" font-family="Courier New" font-size="7" fill="white" text-anchor="middle">CVEs</text>
    <!-- Malicious packages -->
    <g opacity="0.4">
      <rect x="-160" y="-40" width="55" height="35" rx="4" fill="#1e293b" stroke="#ef4444" stroke-width="1.5"/>
      <text x="-133" y="-18" font-family="Courier New" font-size="7" fill="#fca5a5" text-anchor="middle">pkg_1</text>
      <rect x="105" y="-40" width="55" height="35" rx="4" fill="#1e293b" stroke="#ef4444" stroke-width="1.5"/>
      <text x="133" y="-18" font-family="Courier New" font-size="7" fill="#fca5a5" text-anchor="middle">pkg_2</text>
    </g>
    <!-- Shield scan -->
    <g transform="translate(0,70)" opacity="0.5">
      <path d="M0,-20 L25,-12 L25,8 C25,18 12,25 0,28 C-12,25 -25,18 -25,8 L-25,-12 Z" fill="#1e293b" stroke="#22c55e" stroke-width="2"/>
      <text x="0" y="8" font-family="Courier New" font-size="10" fill="#86efac" text-anchor="middle">SCAN</text>
    </g>
  </g>
  <text x="600" y="510" font-family="Arial,sans-serif" font-size="36" font-weight="bold" fill="white" text-anchor="middle" filter="url(#glow)">npm Security Audit</text>
  <text x="600" y="548" font-family="Arial,sans-serif" font-size="16" fill="#94a3b8" text-anchor="middle">Large-scale Package Analysis | 20 Critical Vulnerabilities</text>
  <rect x="40" y="25" width="160" height="32" rx="16" fill="#cb3837" opacity="0.2" stroke="#cb3837" stroke-width="1"/>
  <text x="120" y="47" font-family="Arial,sans-serif" font-size="13" font-weight="bold" fill="#fca5a5" text-anchor="middle">NPM SECURITY</text>
  <rect x="1000" y="25" width="160" height="32" rx="16" fill="#3b82f6" opacity="0.2" stroke="#3b82f6" stroke-width="1"/>
  <text x="1080" y="47" font-family="Arial,sans-serif" font-size="13" font-weight="bold" fill="#93c5fd" text-anchor="middle">Sep 10, 2025</text>
  <text x="1160" y="615" font-family="Arial,sans-serif" font-size="13" fill="#475569" text-anchor="end">tech.2twodragon.com</text>
</svg>