<svg xmlns="http://www.w3.org/2000/svg" viewBox="0 0 1200 630">
  <defs>
    <!-- Background Gradients -->
    <linearGradient id="bgGradient" x1="0%" y1="0%" x2="100%" y2="100%">
      <stop offset="0%" style="stop-color:#0a0a1a"/>
      <stop offset="30%" style="stop-color:#0f1629"/>
      <stop offset="70%" style="stop-color:#1a1f3a"/>
      <stop offset="100%" style="stop-color:#0d1117"/>
    </linearGradient>
    
    <!-- Category Gradient -->
    <linearGradient id="cloudGradient" x1="0%" y1="0%" x2="100%" y2="100%">
      <stop offset="0%" style="stop-color:#0ea5e9"/>
      <stop offset="100%" style="stop-color:#0284c7"/>
    </linearGradient>
    
    <!-- Accent Gradient -->
    <linearGradient id="accentGradient" x1="0%" y1="0%" x2="100%" y2="0%">
      <stop offset="0%" style="stop-color:#3b82f6"/>
      <stop offset="33%" style="stop-color:#8b5cf6"/>
      <stop offset="66%" style="stop-color:#ec4899"/>
      <stop offset="100%" style="stop-color:#f59e0b"/>
    </linearGradient>
    
    <!-- Card Gradient -->
    <linearGradient id="cardGradient" x1="0%" y1="0%" x2="100%" y2="100%">
      <stop offset="0%" style="stop-color:#1e293b"/>
      <stop offset="100%" style="stop-color:#0f172a"/>
    </linearGradient>
    
    <!-- Fire Gradient for Incident -->
    <linearGradient id="fireGradient" x1="0%" y1="100%" x2="0%" y2="0%">
      <stop offset="0%" style="stop-color:#dc2626"/>
      <stop offset="50%" style="stop-color:#f59e0b"/>
      <stop offset="100%" style="stop-color:#fbbf24"/>
    </linearGradient>
    
    <!-- Glow Effects -->
    <filter id="glow" x="-50%" y="-50%" width="200%" height="200%">
      <feGaussianBlur stdDeviation="4" result="blur"/>
      <feMerge>
        <feMergeNode in="blur"/>
        <feMergeNode in="SourceGraphic"/>
      </feMerge>
    </filter>
    
    <filter id="strongGlow" x="-100%" y="-100%" width="300%" height="300%">
      <feGaussianBlur stdDeviation="8" result="blur"/>
      <feMerge>
        <feMergeNode in="blur"/>
        <feMergeNode in="blur"/>
        <feMergeNode in="SourceGraphic"/>
      </feMerge>
    </filter>
    
    <!-- Shadow -->
    <filter id="shadow" x="-20%" y="-20%" width="140%" height="140%">
      <feDropShadow dx="0" dy="6" stdDeviation="12" flood-color="#000" flood-opacity="0.4"/>
    </filter>
    
    <!-- Inner Glow -->
    <filter id="innerGlow">
      <feGaussianBlur in="SourceAlpha" stdDeviation="3" result="blur"/>
      <feOffset in="blur" dx="0" dy="0"/>
      <feComposite in2="SourceAlpha" operator="arithmetic" k2="-1" k3="1"/>
      <feColorMatrix type="matrix" values="0 0 0 0 1 0 0 0 0 1 0 0 0 0 1 0 0 0 0.5 0"/>
      <feBlend in2="SourceGraphic"/>
    </filter>
  </defs>

  <!-- Background -->
  <rect width="1200" height="630" fill="url(#bgGradient)"/>
  
  <!-- Animated Grid Pattern -->
  <pattern id="grid" width="60" height="60" patternUnits="userSpaceOnUse">
    <path d="M 60 0 L 0 0 0 60" fill="none" stroke="#38bdf8" stroke-opacity="0.05" stroke-width="1"/>
  </pattern>
  <rect width="1200" height="630" fill="url(#grid)"/>
  
  <!-- Background Decorative Elements -->
  <circle cx="0" cy="0" r="300" fill="#0ea5e9" fill-opacity="0.03"/>
  <circle cx="1200" cy="630" r="350" fill="#0284c7" fill-opacity="0.04"/>
  <circle cx="600" cy="315" r="400" fill="#0ea5e9" fill-opacity="0.02"/>
  
  <!-- Decorative Lines -->
  <line x1="0" y1="200" x2="150" y2="200" stroke="#38bdf8" stroke-width="1" opacity="0.3"/>
  <line x1="1050" y1="430" x2="1200" y2="430" stroke="#38bdf8" stroke-width="1" opacity="0.3"/>
  
  <!-- Top Header Bar -->
  <rect x="0" y="0" width="1200" height="6" fill="url(#accentGradient)"/>
  
  <!-- Category Badge -->
  <g filter="url(#shadow)">
    <rect x="40" y="25" width="160" height="40" rx="20" fill="url(#cloudGradient)"/>
    <text x="120" y="51" font-family="Arial, sans-serif" font-size="14" font-weight="bold" fill="white" text-anchor="middle">CLOUD</text>
  </g>
  
  <!-- Date Badge -->
  <g filter="url(#shadow)">
    <rect x="1000" y="25" width="160" height="40" rx="20" fill="url(#accentGradient)"/>
    <text x="1080" y="51" font-family="Arial, sans-serif" font-size="13" font-weight="bold" fill="white" text-anchor="middle">February 04, 2026</text>
  </g>
  
  <!-- Main Title -->
  <text x="600" y="110" font-family="Arial, sans-serif" font-size="36" font-weight="bold" fill="white" text-anchor="middle" filter="url(#glow)">클라우드 시큐리티 8기 1주차: 인프라의 본질부터 보안의 미래까지</text>
  
  <!-- Subtitle Line -->
  <rect x="400" y="135" width="400" height="4" rx="2" fill="url(#accentGradient)"/>
  
  <!-- Icon Section - Left Side -->
  <g opacity="0.95">
    
    <!-- Cloud Icon -->
    <g transform="translate(80, 280)">
      <path d="M30 80 Q10 80 10 60 Q10 40 30 40 Q30 20 55 20 Q80 20 80 45 Q100 45 100 65 Q100 80 80 80 Z" 
            fill="url(#cloudGradient)" stroke="#0ea5e9" stroke-width="2" opacity="0.9"/>
    </g>
    
    <!-- Server Stack -->
    <g transform="translate(200, 290)">
      <rect x="10" y="10" width="60" height="20" rx="3" fill="#14b8a6" stroke="#0d9488" stroke-width="2"/>
      <rect x="10" y="35" width="60" height="20" rx="3" fill="#14b8a6" stroke="#0d9488" stroke-width="2"/>
      <rect x="10" y="60" width="60" height="20" rx="3" fill="#14b8a6" stroke="#0d9488" stroke-width="2"/>
      <circle cx="55" cy="20" r="4" fill="#22d3ee"/>
      <circle cx="55" cy="45" r="4" fill="#22d3ee"/>
      <circle cx="55" cy="70" r="4" fill="#22d3ee"/>
    </g>
    
    <!-- Network Node -->
    <g transform="translate(330, 300)">
      <circle cx="30" cy="30" r="20" fill="#0284c7" stroke="#0369a1" stroke-width="2"/>
      <circle cx="30" cy="30" r="8" fill="white"/>
      <line x1="10" y1="30" x2="-10" y2="30" stroke="#0284c7" stroke-width="2"/>
      <line x1="50" y1="30" x2="70" y2="30" stroke="#0284c7" stroke-width="2"/>
      <line x1="30" y1="10" x2="30" y2="-10" stroke="#0284c7" stroke-width="2"/>
    </g>
    
  </g>
  
  <!-- Main Content Card -->
  <g transform="translate(450, 180)" filter="url(#shadow)">
    <rect width="720" height="340" rx="16" fill="url(#cardGradient)" stroke="#38bdf8" stroke-width="1" stroke-opacity="0.3"/>
    
    <!-- Card Header Accent -->
    <rect x="0" y="0" width="720" height="8" rx="4" fill="url(#cloudGradient)"/>
    
    <!-- Card Title -->
    <text x="30" y="50" font-family="Arial, sans-serif" font-size="20" font-weight="bold" fill="#38bdf8">Key Highlights</text>
    
    <!-- Summary Content -->
    <g transform="translate(30, 90)">
      <circle cx="8" cy="8" r="4" fill="#38bdf8"/>
      <text x="25" y="13" font-family="Arial, sans-serif" font-size="14" fill="#e2e8f0">클라우드 인프라 본질부터 2025년 AI 보안, Zero Trust, Post-quantum 암호화까지 실무 중심 학습</text>
    </g>
    
    <!-- Tags Section -->
    <g transform="translate(30, 230)">
      <rect x="0" y="0" width="159" height="30" rx="15" fill="#38bdf8" fill-opacity="0.15" stroke="#38bdf8" stroke-width="1" stroke-opacity="0.4"/>
      <text x="79" y="20" font-family="Arial, sans-serif" font-size="12" fill="#38bdf8" text-anchor="middle">#Infrastructure</text>
      <rect x="171" y="0" width="159" height="30" rx="15" fill="#38bdf8" fill-opacity="0.15" stroke="#38bdf8" stroke-width="1" stroke-opacity="0.4"/>
      <text x="250" y="20" font-family="Arial, sans-serif" font-size="12" fill="#38bdf8" text-anchor="middle">#Cloud-Security</text>
      <rect x="342" y="0" width="60" height="30" rx="15" fill="#38bdf8" fill-opacity="0.15" stroke="#38bdf8" stroke-width="1" stroke-opacity="0.4"/>
      <text x="372" y="20" font-family="Arial, sans-serif" font-size="12" fill="#38bdf8" text-anchor="middle">#AWS</text>
    </g>
    
    <!-- CTA Button -->
    <g transform="translate(540, 280)">
      <rect width="150" height="45" rx="22" fill="url(#accentGradient)" filter="url(#glow)"/>
      <text x="75" y="29" font-family="Arial, sans-serif" font-size="14" font-weight="bold" fill="white" text-anchor="middle">Read More</text>
    </g>
  </g>
  
  <!-- Bottom Section -->
  <line x1="40" y1="560" x2="1160" y2="560" stroke="#334155" stroke-width="1"/>
  
  <!-- Blog Branding -->
  <g transform="translate(50, 575)">
    <rect width="45" height="45" rx="10" fill="url(#cloudGradient)" filter="url(#shadow)"/>
    <text x="22" y="32" font-family="Arial, sans-serif" font-size="20" font-weight="bold" fill="white" text-anchor="middle">TD</text>
  </g>
  
  <text x="110" y="595" font-family="Arial, sans-serif" font-size="18" font-weight="bold" fill="white">Twodragon Tech Blog</text>
  <text x="110" y="615" font-family="Arial, sans-serif" font-size="12" fill="#64748b">tech.2twodragon.com</text>
  
  <!-- Tech Stack -->
  <text x="1150" y="595" font-family="Arial, sans-serif" font-size="12" fill="#64748b" text-anchor="end">DevSecOps | Cloud | Security | AI</text>
  <text x="1150" y="615" font-family="Arial, sans-serif" font-size="11" fill="#475569" text-anchor="end">Powered by Claude AI</text>
</svg>