<svg xmlns="http://www.w3.org/2000/svg" width="1200" height="630" viewBox="0 0 1200 630">
  <defs>
    <linearGradient id="bgGrad" x1="0%" y1="0%" x2="100%" y2="100%">
      <stop offset="0%" stop-color="#0a1628"/>
      <stop offset="50%" stop-color="#0d1f3c"/>
      <stop offset="100%" stop-color="#0a0f1e"/>
    </linearGradient>
    <linearGradient id="accentGrad" x1="0%" y1="0%" x2="100%" y2="0%">
      <stop offset="0%" stop-color="#FF9900"/>
      <stop offset="100%" stop-color="#ff6b00"/>
    </linearGradient>
    <linearGradient id="shieldGrad" x1="0%" y1="0%" x2="100%" y2="100%">
      <stop offset="0%" stop-color="#FF9900" stop-opacity="0.3"/>
      <stop offset="100%" stop-color="#FF9900" stop-opacity="0.05"/>
    </linearGradient>
    <filter id="glow2">
      <feGaussianBlur stdDeviation="4" result="blur"/>
      <feMerge><feMergeNode in="blur"/><feMergeNode in="SourceGraphic"/></feMerge>
    </filter>
  </defs>

  <!-- Background -->
  <rect width="1200" height="630" fill="url(#bgGrad)"/>

  <!-- Grid pattern -->
  <line x1="0" y1="210" x2="1200" y2="210" stroke="#FF9900" stroke-width="0.3" opacity="0.1"/>
  <line x1="0" y1="420" x2="1200" y2="420" stroke="#FF9900" stroke-width="0.3" opacity="0.1"/>
  <line x1="600" y1="0" x2="600" y2="630" stroke="#1e40af" stroke-width="0.3" opacity="0.15"/>

  <!-- Top accent bar -->
  <rect x="0" y="0" width="1200" height="5" fill="url(#accentGrad)"/>

  <!-- === RIGHT SIDE: AWS Shield + Cloud visual === -->
  <!-- Large shield shape -->
  <path d="M860,130 L960,170 L960,320 Q960,420 860,460 Q760,420 760,320 L760,170 Z"
        fill="url(#shieldGrad)" stroke="#FF9900" stroke-width="1.8" opacity="0.8"/>
  <!-- Inner shield -->
  <path d="M860,180 L930,210 L930,320 Q930,390 860,420 Q790,390 790,320 L790,210 Z"
        fill="none" stroke="#FF9900" stroke-width="1" stroke-dasharray="5,4" opacity="0.45"/>

  <!-- Lock icon in shield center -->
  <rect x="838" y="278" width="44" height="36" rx="5" fill="#FF9900" opacity="0.9" filter="url(#glow2)"/>
  <path d="M848,278 L848,262 Q848,248 860,248 Q872,248 872,262 L872,278" fill="none" stroke="#FF9900" stroke-width="3.5" opacity="0.9"/>
  <circle cx="860" cy="296" r="5" fill="#0a1628"/>
  <rect x="857" y="296" width="6" height="10" rx="2" fill="#0a1628"/>

  <!-- Cloud shapes -->
  <!-- Cloud 1 - top right -->
  <ellipse cx="1060" cy="150" rx="55" ry="30" fill="#1e3a5f" stroke="#3b82f6" stroke-width="1" opacity="0.7"/>
  <ellipse cx="1030" cy="162" rx="35" ry="22" fill="#1e3a5f" stroke="#3b82f6" stroke-width="1" opacity="0.7"/>
  <ellipse cx="1085" cy="162" rx="30" ry="20" fill="#1e3a5f" stroke="#3b82f6" stroke-width="1" opacity="0.7"/>
  <rect x="1005" y="162" width="115" height="20" fill="#1e3a5f" opacity="0.7"/>
  <text x="1060" y="157" font-size="10" fill="#FF9900" text-anchor="middle" font-family="Space Grotesk, Inter, system-ui, sans-serif" font-weight="600">GuardDuty</text>

  <!-- Cloud 2 - bottom right -->
  <ellipse cx="1070" cy="470" rx="50" ry="27" fill="#1e3a5f" stroke="#3b82f6" stroke-width="1" opacity="0.6"/>
  <ellipse cx="1044" cy="480" rx="32" ry="20" fill="#1e3a5f" stroke="#3b82f6" stroke-width="1" opacity="0.6"/>
  <ellipse cx="1092" cy="480" rx="28" ry="18" fill="#1e3a5f" stroke="#3b82f6" stroke-width="1" opacity="0.6"/>
  <rect x="1016" y="480" width="108" height="18" fill="#1e3a5f" opacity="0.6"/>
  <text x="1070" y="475" font-size="10" fill="#FF9900" text-anchor="middle" font-family="Space Grotesk, Inter, system-ui, sans-serif" font-weight="600">S3 Secure</text>

  <!-- VPC box decoration -->
  <rect x="710" y="220" width="60" height="40" rx="5" fill="none" stroke="#FF9900" stroke-width="1.2" stroke-dasharray="4,3" opacity="0.55"/>
  <text x="740" y="245" font-size="10" fill="#FF9900" text-anchor="middle" font-family="Space Grotesk, Inter, system-ui, sans-serif">VPC</text>
  <rect x="710" y="360" width="60" height="40" rx="5" fill="none" stroke="#60a5fa" stroke-width="1.2" stroke-dasharray="4,3" opacity="0.55"/>
  <text x="740" y="385" font-size="10" fill="#60a5fa" text-anchor="middle" font-family="Space Grotesk, Inter, system-ui, sans-serif">IAM</text>

  <!-- Connecting lines shield to clouds -->
  <line x1="960" y1="200" x2="1005" y2="165" stroke="#FF9900" stroke-width="1" opacity="0.4" stroke-dasharray="4,3"/>
  <line x1="960" y1="430" x2="1016" y2="480" stroke="#FF9900" stroke-width="1" opacity="0.4" stroke-dasharray="4,3"/>

  <!-- AWS badge -->
  <rect x="820" y="475" width="80" height="28" rx="6" fill="#FF9900" opacity="0.9"/>
  <text x="860" y="494" font-size="13" fill="#0a1628" text-anchor="middle" font-family="Space Grotesk, Inter, system-ui, sans-serif" font-weight="700">AWS</text>

  <!-- === LEFT SIDE: Text content === -->
  <!-- Category label -->
  <text x="60" y="82" font-size="13" fill="#FF9900" font-family="Space Grotesk, Inter, system-ui, sans-serif" font-weight="600" letter-spacing="3" opacity="0.9">AWS CLOUD SECURITY</text>

  <!-- Main title -->
  <text x="60" y="158" font-size="50" fill="white" font-family="Space Grotesk, Inter, system-ui, sans-serif" font-weight="700" letter-spacing="-1">AWS Security</text>
  <text x="60" y="218" font-size="50" fill="white" font-family="Space Grotesk, Inter, system-ui, sans-serif" font-weight="700" letter-spacing="-1">Architecture</text>
  <text x="60" y="278" font-size="50" fill="#FF9900" font-family="Space Grotesk, Inter, system-ui, sans-serif" font-weight="700" letter-spacing="-1">Complete Guide</text>

  <!-- Accent underline -->
  <rect x="60" y="294" width="300" height="4" rx="2" fill="url(#accentGrad)"/>

  <!-- Subtitle -->
  <text x="60" y="338" font-size="21" fill="#94a3b8" font-family="Space Grotesk, Inter, system-ui, sans-serif">VPC, IAM, S3, GuardDuty Complete Guide</text>

  <!-- Service cards -->
  <rect x="60"  y="376" width="110" height="62" rx="7" fill="#0d1f3c" stroke="#FF9900" stroke-width="1.2"/>
  <text x="115" y="401" font-size="18" fill="#FF9900" font-family="Space Grotesk, Inter, system-ui, sans-serif" font-weight="700" text-anchor="middle">VPC</text>
  <text x="115" y="420" font-size="10" fill="#64748b" font-family="Space Grotesk, Inter, system-ui, sans-serif" text-anchor="middle">Network Layer</text>
  <text x="115" y="432" font-size="10" fill="#64748b" font-family="Space Grotesk, Inter, system-ui, sans-serif" text-anchor="middle">Isolation</text>

  <rect x="184" y="376" width="110" height="62" rx="7" fill="#0d1f3c" stroke="#3b82f6" stroke-width="1.2"/>
  <text x="239" y="401" font-size="18" fill="#60a5fa" font-family="Space Grotesk, Inter, system-ui, sans-serif" font-weight="700" text-anchor="middle">IAM</text>
  <text x="239" y="420" font-size="10" fill="#64748b" font-family="Space Grotesk, Inter, system-ui, sans-serif" text-anchor="middle">Identity and</text>
  <text x="239" y="432" font-size="10" fill="#64748b" font-family="Space Grotesk, Inter, system-ui, sans-serif" text-anchor="middle">Access Mgmt</text>

  <rect x="308" y="376" width="110" height="62" rx="7" fill="#0d1f3c" stroke="#22c55e" stroke-width="1.2"/>
  <text x="363" y="401" font-size="18" fill="#22c55e" font-family="Space Grotesk, Inter, system-ui, sans-serif" font-weight="700" text-anchor="middle">S3</text>
  <text x="363" y="420" font-size="10" fill="#64748b" font-family="Space Grotesk, Inter, system-ui, sans-serif" text-anchor="middle">Secure Object</text>
  <text x="363" y="432" font-size="10" fill="#64748b" font-family="Space Grotesk, Inter, system-ui, sans-serif" text-anchor="middle">Storage</text>

  <rect x="432" y="376" width="130" height="62" rx="7" fill="#0d1f3c" stroke="#a855f7" stroke-width="1.2"/>
  <text x="497" y="401" font-size="15" fill="#c084fc" font-family="Space Grotesk, Inter, system-ui, sans-serif" font-weight="700" text-anchor="middle">GuardDuty</text>
  <text x="497" y="420" font-size="10" fill="#64748b" font-family="Space Grotesk, Inter, system-ui, sans-serif" text-anchor="middle">Threat Detection</text>
  <text x="497" y="432" font-size="10" fill="#64748b" font-family="Space Grotesk, Inter, system-ui, sans-serif" text-anchor="middle">AI-Powered</text>

  <!-- Date and branding -->
  <text x="60" y="530" font-size="16" fill="#64748b" font-family="Space Grotesk, Inter, system-ui, sans-serif">December 5, 2025</text>
  <text x="60" y="560" font-size="15" fill="#475569" font-family="Space Grotesk, Inter, system-ui, sans-serif">Twodragon Tech Blog</text>

  <!-- Bottom accent bar -->
  <rect x="0" y="625" width="1200" height="5" fill="url(#accentGrad)"/>
</svg>
