<svg xmlns="http://www.w3.org/2000/svg" viewBox="0 0 1200 630">
  <defs>
    <linearGradient id="bg" x1="0%" y1="0%" x2="100%" y2="100%">
      <stop offset="0%" style="stop-color:#0a0a1a"/><stop offset="100%" style="stop-color:#0a1a2a"/>
    </linearGradient>
    <filter id="glow"><feGaussianBlur stdDeviation="4" result="b"/><feMerge><feMergeNode in="b"/><feMergeNode in="SourceGraphic"/></feMerge></filter>
    <filter id="sg"><feGaussianBlur stdDeviation="25"/></filter>
  </defs>
  <rect width="1200" height="630" fill="url(#bg)"/>
  <circle cx="600" cy="270" r="260" fill="#6366f1" opacity="0.04" filter="url(#sg)"/>
  <!-- MacBook laptop -->
  <g transform="translate(600,260)">
    <!-- Screen -->
    <rect x="-150" y="-140" width="300" height="195" rx="10" fill="#1e293b" stroke="#475569" stroke-width="2.5"/>
    <rect x="-138" y="-130" width="276" height="175" rx="4" fill="#0f172a"/>
    <!-- Camera dot -->
    <circle cx="0" cy="-135" r="3" fill="#334155"/>
    <!-- Screen content: Kandji dashboard -->
    <!-- Shield logo center -->
    <path d="M0,-80 L35,-65 L35,-30 C35,-5 18,10 0,18 C-18,10 -35,-5 -35,-30 L-35,-65 Z" fill="#6366f1" opacity="0.2" stroke="#6366f1" stroke-width="2"/>
    <text x="0" y="-40" font-family="Courier New" font-size="14" fill="#a5b4fc" text-anchor="middle">MDM</text>
    <!-- Compliance checkmarks around shield -->
    <g transform="translate(-100,-90)" opacity="0.7">
      <rect x="0" y="0" width="50" height="18" rx="4" fill="#22c55e" opacity="0.15"/>
      <circle cx="12" cy="9" r="5" fill="#22c55e" opacity="0.8"/>
      <path d="M9,9 L11,12 L15,7" fill="none" stroke="white" stroke-width="1.5"/>
      <text x="32" y="13" font-family="Courier New" font-size="7" fill="#86efac">CIS</text>
    </g>
    <g transform="translate(50,-90)" opacity="0.7">
      <rect x="0" y="0" width="55" height="18" rx="4" fill="#22c55e" opacity="0.15"/>
      <circle cx="12" cy="9" r="5" fill="#22c55e" opacity="0.8"/>
      <path d="M9,9 L11,12 L15,7" fill="none" stroke="white" stroke-width="1.5"/>
      <text x="35" y="13" font-family="Courier New" font-size="7" fill="#86efac">SOC2</text>
    </g>
    <g transform="translate(-100,-5)" opacity="0.7">
      <rect x="0" y="0" width="55" height="18" rx="4" fill="#22c55e" opacity="0.15"/>
      <circle cx="12" cy="9" r="5" fill="#22c55e" opacity="0.8"/>
      <path d="M9,9 L11,12 L15,7" fill="none" stroke="white" stroke-width="1.5"/>
      <text x="35" y="13" font-family="Courier New" font-size="7" fill="#86efac">NIST</text>
    </g>
    <g transform="translate(50,-5)" opacity="0.7">
      <rect x="0" y="0" width="60" height="18" rx="4" fill="#f59e0b" opacity="0.15"/>
      <circle cx="12" cy="9" r="5" fill="#f59e0b" opacity="0.8"/>
      <text x="10" y="12" font-family="Courier New" font-size="8" fill="white" text-anchor="middle">~</text>
      <text x="38" y="13" font-family="Courier New" font-size="7" fill="#fde68a">FIDO2</text>
    </g>
    <!-- Status bar at bottom of screen -->
    <rect x="-130" y="20" width="260" height="18" rx="3" fill="#334155" opacity="0.5"/>
    <circle cx="-115" cy="29" r="4" fill="#22c55e"/>
    <text x="-105" y="33" font-family="Courier New" font-size="8" fill="#94a3b8">128 devices managed</text>
    <!-- Laptop base -->
    <path d="M-180,55 L-150,55 L-138,60 L138,60 L150,55 L180,55 L170,70 L-170,70 Z" fill="#334155" stroke="#475569" stroke-width="1.5"/>
    <rect x="-40" y="55" width="80" height="4" rx="2" fill="#475569"/>
  </g>
  <!-- Floating device icons managed by Kandji -->
  <g opacity="0.4">
    <!-- iPhone -->
    <g transform="translate(200,180)">
      <rect x="-12" y="-20" width="24" height="40" rx="5" fill="none" stroke="#6366f1" stroke-width="1.5"/>
      <circle cx="0" cy="14" r="3" fill="none" stroke="#6366f1" stroke-width="1"/>
    </g>
    <path d="M212,180 L450,230" fill="none" stroke="#6366f1" stroke-width="1" stroke-dasharray="4,4" opacity="0.3"/>
    <!-- iPad -->
    <g transform="translate(200,340)">
      <rect x="-18" y="-24" width="36" height="48" rx="5" fill="none" stroke="#6366f1" stroke-width="1.5"/>
      <circle cx="0" cy="18" r="3" fill="none" stroke="#6366f1" stroke-width="1"/>
    </g>
    <path d="M218,340 L460,300" fill="none" stroke="#6366f1" stroke-width="1" stroke-dasharray="4,4" opacity="0.3"/>
    <!-- Another Mac -->
    <g transform="translate(1000,200)">
      <rect x="-20" y="-15" width="40" height="28" rx="3" fill="none" stroke="#6366f1" stroke-width="1.5"/>
      <path d="M-25,13 L25,13 L20,18 L-20,18 Z" fill="none" stroke="#6366f1" stroke-width="1"/>
    </g>
    <path d="M980,200 L750,240" fill="none" stroke="#6366f1" stroke-width="1" stroke-dasharray="4,4" opacity="0.3"/>
  </g>
  <text x="600" y="510" font-family="Arial,sans-serif" font-size="36" font-weight="bold" fill="white" text-anchor="middle" filter="url(#glow)">Kandji macOS MDM</text>
  <text x="600" y="548" font-family="Arial,sans-serif" font-size="16" fill="#94a3b8" text-anchor="middle">Endpoint Security | Compliance | Device Management</text>
  <rect x="40" y="25" width="160" height="32" rx="16" fill="#6366f1" opacity="0.2" stroke="#6366f1" stroke-width="1"/>
  <text x="120" y="47" font-family="Arial,sans-serif" font-size="13" font-weight="bold" fill="#a5b4fc" text-anchor="middle">SECURITY GUIDE</text>
  <rect x="1000" y="25" width="160" height="32" rx="16" fill="#3b82f6" opacity="0.2" stroke="#3b82f6" stroke-width="1"/>
  <text x="1080" y="47" font-family="Arial,sans-serif" font-size="13" font-weight="bold" fill="#93c5fd" text-anchor="middle">May 2, 2025</text>
  <text x="1160" y="615" font-family="Arial,sans-serif" font-size="13" fill="#475569" text-anchor="end">tech.2twodragon.com</text>
</svg>