<svg xmlns="http://www.w3.org/2000/svg" width="1200" height="630" aria-label="devsecops DevSecOps Integration" viewBox="0 0 1200 630"><title>DevSecOps Integration</title><!--profile: high-quality-cover (2025 upgraded L25-single)--><defs><linearGradient id="bgSpreadX8DE7" x1="0%" x2="100%" y1="0%" y2="100%"><stop offset="0%" stop-color="#0b1120"/><stop offset="52%" stop-color="#121a2f"/><stop offset="100%" stop-color="#170f25"/></linearGradient><linearGradient id="heroPanelX8DE7" x1="0%" x2="100%" y1="0%" y2="100%"><stop offset="0%" stop-color="#0f172a"/><stop offset="100%" stop-color="#111827" stop-opacity=".9"/></linearGradient><filter id="sgBlur" width="160%" height="160%" x="-30%" y="-30%"><feGaussianBlur stdDeviation="36"/></filter><filter id="singleShadow" width="180%" height="180%" x="-30%" y="-30%"><feDropShadow dx="0" dy="14" flood-color="#020617" flood-opacity=".4" stdDeviation="22"/></filter><pattern id="microGridX8DE7" width="36" height="36" x="0" y="0" patternUnits="userSpaceOnUse"><path fill="none" stroke="#334155" d="M36 0H0v36" opacity=".3"/><circle cx="18" cy="18" r="1.2" fill="#60a5fa" opacity=".2"/></pattern><marker id="sgArrow" markerHeight="6" markerWidth="6" orient="auto" refX="8" refY="5" viewBox="0 0 10 10"><path fill="#22d3ee" d="m0 0 10 5-10 5z" opacity=".8"/></marker></defs><path fill="url(#bgSpreadX8DE7)" d="M0 0h1200v630H0z"/><path fill="url(#microGridX8DE7)" d="M0 0h1200v630H0z"/><circle cx="202" cy="150" r="190" fill="#60a5fa" filter="url(#sgBlur)" opacity=".1"/><circle cx="1020" cy="486" r="220" fill="#1d4ed8" filter="url(#sgBlur)" opacity=".1"/><circle cx="920" cy="160" r="140" fill="#22d3ee" filter="url(#sgBlur)" opacity=".1"/><path fill="#020617" d="M0 96c224-50 426-52 654 22v512H0Z" opacity=".2"/><path fill="none" stroke="#475569" stroke-width="1.2" d="M0 526c248-36 426-40 654 22" opacity=".2"/><path fill="none" stroke="#22d3ee" stroke-width="1.3" d="M704 148c88-30 188-26 276 28" opacity=".2"/><path fill="none" stroke="#60a5fa" stroke-width="1.2" d="M716 430c88 32 198 28 294-40" opacity=".2"/><rect width="388" height="292" x="720" y="132" fill="url(#heroPanelX8DE7)" stroke="#60a5fa" stroke-opacity=".3" stroke-width="1.4" filter="url(#singleShadow)" rx="28"/><rect width="352" height="256" x="738" y="150" fill="none" stroke="#334155" stroke-opacity=".7" rx="22"/><rect width="108" height="12" x="742" y="152" fill="#60a5fa" opacity=".3" rx="6"/><rect width="72" height="12" x="864" y="152" fill="#334155" opacity=".6" rx="6"/><rect width="48" height="12" x="948" y="152" fill="#334155" opacity=".3" rx="6"/><path fill="#60a5fa" d="M742 156h6v6h-6zm8 0h6v6h-6zm8 0h6v6h-6zm8 0h6v6h-6zm16 0h6v6h-6zm8 0h6v6h-6zm8 0h6v6h-6zm-56 8h6v6h-6zm32 0h6v6h-6zm16 0h6v6h-6zm8 0h6v6h-6zm-56 8h6v6h-6zm16 0h6v6h-6zm16 0h6v6h-6zm16 0h6v6h-6zm-48 8h6v6h-6zm32 0h6v6h-6zm8 0h6v6h-6zm8 0h6v6h-6zm8 0h6v6h-6zm-56 8h6v6h-6zm8 0h6v6h-6zm8 0h6v6h-6zm8 0h6v6h-6zm24 0h6v6h-6zm8 0h6v6h-6zm-40 8h6v6h-6zm8 0h6v6h-6zm8 0h6v6h-6zm8 0h6v6h-6zm8 0h6v6h-6zm-48 8h6v6h-6zm8 0h6v6h-6zm32 0h6v6h-6zm8 0h6v6h-6zm-40 8h6v6h-6zm8 0h6v6h-6zm16 0h6v6h-6zm16 0h6v6h-6zm8 0h6v6h-6z" opacity=".4"/><circle cx="1010" cy="60" r="1.4" fill="#22d3ee" opacity=".2"/><circle cx="1024" cy="60" r="1.4" fill="#22d3ee" opacity=".3"/><circle cx="1038" cy="60" r="1.4" fill="#22d3ee" opacity=".3"/><circle cx="1052" cy="60" r="1.4" fill="#22d3ee" opacity=".2"/><circle cx="1066" cy="60" r="1.4" fill="#22d3ee" opacity=".3"/><circle cx="1080" cy="60" r="1.4" fill="#22d3ee" opacity=".3"/><circle cx="1094" cy="60" r="1.4" fill="#22d3ee" opacity=".2"/><circle cx="1108" cy="60" r="1.4" fill="#22d3ee" opacity=".3"/><circle cx="1010" cy="72" r="1.4" fill="#22d3ee" opacity=".2"/><circle cx="1024" cy="72" r="1.4" fill="#22d3ee" opacity=".3"/><circle cx="1038" cy="72" r="1.4" fill="#22d3ee" opacity=".3"/><circle cx="1052" cy="72" r="1.4" fill="#22d3ee" opacity=".2"/><circle cx="1066" cy="72" r="1.4" fill="#22d3ee" opacity=".3"/><circle cx="1080" cy="72" r="1.4" fill="#22d3ee" opacity=".3"/><circle cx="1094" cy="72" r="1.4" fill="#22d3ee" opacity=".2"/><circle cx="1108" cy="72" r="1.4" fill="#22d3ee" opacity=".3"/><circle cx="1010" cy="84" r="1.4" fill="#22d3ee" opacity=".2"/><circle cx="1024" cy="84" r="1.4" fill="#22d3ee" opacity=".3"/><circle cx="1038" cy="84" r="1.4" fill="#22d3ee" opacity=".3"/><circle cx="1052" cy="84" r="1.4" fill="#22d3ee" opacity=".2"/><circle cx="1066" cy="84" r="1.4" fill="#22d3ee" opacity=".3"/><circle cx="1080" cy="84" r="1.4" fill="#22d3ee" opacity=".3"/><circle cx="1094" cy="84" r="1.4" fill="#22d3ee" opacity=".2"/><circle cx="1108" cy="84" r="1.4" fill="#22d3ee" opacity=".3"/><circle cx="1010" cy="96" r="1.4" fill="#22d3ee" opacity=".2"/><circle cx="1024" cy="96" r="1.4" fill="#22d3ee" opacity=".3"/><circle cx="1038" cy="96" r="1.4" fill="#22d3ee" opacity=".3"/><circle cx="1052" cy="96" r="1.4" fill="#22d3ee" opacity=".2"/><circle cx="1066" cy="96" r="1.4" fill="#22d3ee" opacity=".3"/><circle cx="1080" cy="96" r="1.4" fill="#22d3ee" opacity=".3"/><circle cx="1094" cy="96" r="1.4" fill="#22d3ee" opacity=".2"/><circle cx="1108" cy="96" r="1.4" fill="#22d3ee" opacity=".3"/><circle cx="1010" cy="108" r="1.4" fill="#22d3ee" opacity=".2"/><circle cx="1024" cy="108" r="1.4" fill="#22d3ee" opacity=".3"/><circle cx="1038" cy="108" r="1.4" fill="#22d3ee" opacity=".3"/><circle cx="1052" cy="108" r="1.4" fill="#22d3ee" opacity=".2"/><circle cx="1066" cy="108" r="1.4" fill="#22d3ee" opacity=".3"/><circle cx="1080" cy="108" r="1.4" fill="#22d3ee" opacity=".3"/><circle cx="1094" cy="108" r="1.4" fill="#22d3ee" opacity=".2"/><circle cx="1108" cy="108" r="1.4" fill="#22d3ee" opacity=".3"/><circle cx="1010" cy="120" r="1.4" fill="#22d3ee" opacity=".2"/><circle cx="1024" cy="120" r="1.4" fill="#22d3ee" opacity=".3"/><circle cx="1038" cy="120" r="1.4" fill="#22d3ee" opacity=".3"/><circle cx="1052" cy="120" r="1.4" fill="#22d3ee" opacity=".2"/><circle cx="1066" cy="120" r="1.4" fill="#22d3ee" opacity=".3"/><circle cx="1080" cy="120" r="1.4" fill="#22d3ee" opacity=".3"/><circle cx="1094" cy="120" r="1.4" fill="#22d3ee" opacity=".2"/><circle cx="1108" cy="120" r="1.4" fill="#22d3ee" opacity=".3"/><text x="740" y="162" fill="#22d3ee" font-family="Arial,sans-serif" font-size="9" font-weight="700" opacity=".6" text-anchor="middle">01</text><text x="1090" y="162" fill="#22d3ee" font-family="Arial,sans-serif" font-size="9" font-weight="700" opacity=".6" text-anchor="middle">02</text><text x="740" y="412" fill="#22d3ee" font-family="Arial,sans-serif" font-size="9" font-weight="700" opacity=".6" text-anchor="middle">03</text><text x="1090" y="412" fill="#22d3ee" font-family="Arial,sans-serif" font-size="9" font-weight="700" opacity=".6" text-anchor="middle">04</text><text x="740" y="178" fill="#94a3b8" font-family="Arial,sans-serif" font-size="9" font-weight="700" opacity=".7">STATUS</text><text x="816" y="178" fill="#94a3b8" font-family="Arial,sans-serif" font-size="9" font-weight="700" opacity=".7">OK</text><text x="864" y="178" fill="#94a3b8" font-family="Arial,sans-serif" font-size="9" font-weight="700" opacity=".7">VER</text><text x="910" y="178" fill="#94a3b8" font-family="Arial,sans-serif" font-size="9" font-weight="700" opacity=".7">v1.0</text><text x="962" y="178" fill="#94a3b8" font-family="Arial,sans-serif" font-size="9" font-weight="700" opacity=".7">BUILD</text><text x="1024" y="178" fill="#94a3b8" font-family="Arial,sans-serif" font-size="9" font-weight="700" opacity=".7">STAB</text><text x="40" y="380" fill="#475569" font-family="Arial,sans-serif" font-size="8" font-weight="700" opacity=".7" text-anchor="middle">00</text><text x="40" y="410" fill="#475569" font-family="Arial,sans-serif" font-size="8" font-weight="700" opacity=".7" text-anchor="middle">01</text><text x="40" y="440" fill="#475569" font-family="Arial,sans-serif" font-size="8" font-weight="700" opacity=".7" text-anchor="middle">02</text><text x="40" y="470" fill="#475569" font-family="Arial,sans-serif" font-size="8" font-weight="700" opacity=".7" text-anchor="middle">03</text><text x="40" y="500" fill="#475569" font-family="Arial,sans-serif" font-size="8" font-weight="700" opacity=".7" text-anchor="middle">04</text><text x="1160" y="380" fill="#475569" font-family="Arial,sans-serif" font-size="8" font-weight="700" opacity=".7" text-anchor="middle">OK</text><text x="1160" y="410" fill="#475569" font-family="Arial,sans-serif" font-size="8" font-weight="700" opacity=".7" text-anchor="middle">RUN</text><text x="1160" y="440" fill="#475569" font-family="Arial,sans-serif" font-size="8" font-weight="700" opacity=".7" text-anchor="middle">OK</text><text x="1160" y="470" fill="#475569" font-family="Arial,sans-serif" font-size="8" font-weight="700" opacity=".7" text-anchor="middle">RUN</text><g filter="url(#singleShadow)" transform="translate(914,278)"><circle r="124" fill="none" stroke="#60a5fa" stroke-dasharray="8 8" stroke-opacity=".2" stroke-width="1.2"/><rect width="220" height="144" x="-110" y="-72" fill="#0f172a" stroke="#60a5fa" stroke-width="2.2" opacity=".9" rx="14"/><rect width="44" height="36" x="-100" y="-18" fill="#60a5fa" fill-opacity=".2" stroke="#60a5fa" stroke-width="1.6" rx="6"/><text x="-78" y="6" fill="#f8fafc" font-family="Arial,sans-serif" font-size="9" font-weight="700" text-anchor="middle">BUILD</text><path stroke="#22d3ee" stroke-width="2" marker-end="url(#sgArrow)" d="M-56 0h8"/><rect width="44" height="36" x="-48" y="-18" fill="#60a5fa" fill-opacity=".2" stroke="#60a5fa" stroke-width="1.6" rx="6"/><text x="-26" y="6" fill="#f8fafc" font-family="Arial,sans-serif" font-size="9" font-weight="700" text-anchor="middle">TEST</text><path stroke="#22d3ee" stroke-width="2" marker-end="url(#sgArrow)" d="M-4 0h8"/><rect width="44" height="36" x="4" y="-18" fill="#60a5fa" fill-opacity=".2" stroke="#60a5fa" stroke-width="1.6" rx="6"/><text x="26" y="6" fill="#f8fafc" font-family="Arial,sans-serif" font-size="9" font-weight="700" text-anchor="middle">SCAN</text><path stroke="#22d3ee" stroke-width="2" marker-end="url(#sgArrow)" d="M48 0h8"/><rect width="44" height="36" x="56" y="-18" fill="#60a5fa" fill-opacity=".2" stroke="#60a5fa" stroke-width="1.6" rx="6"/><text x="78" y="6" fill="#f8fafc" font-family="Arial,sans-serif" font-size="9" font-weight="700" text-anchor="middle">DEPLOY</text><path fill="none" stroke="#22d3ee" stroke-width="2" d="M22-34q0-14 14-14t14 14"/><rect width="36" height="22" x="14" y="-34" fill="#22d3ee" fill-opacity=".4" stroke="#22d3ee" stroke-width="1.4" rx="3"/><text x="32" y="-20" fill="#f8fafc" font-family="Arial,sans-serif" font-size="8" font-weight="700" text-anchor="middle">SEC</text><text y="100" fill="#60a5fa" font-family="Arial,sans-serif" font-size="11" font-weight="700" opacity=".8" text-anchor="middle">CI/CD PIPELINE</text><text y="116" fill="#22d3ee" font-family="Arial,sans-serif" font-size="10" opacity=".7" text-anchor="middle">4 stages : 1 gate</text></g><g fill="#60a5fa" transform="translate(84 66)"><rect width="160" height="36" stroke="#60a5fa" stroke-width="1.2" opacity=".2" rx="18"/><text x="80" y="23" font-family="Arial,sans-serif" font-size="13" font-weight="700" text-anchor="middle">CLOUD</text></g><text x="84" y="170" fill="#f8fafc" font-family="Arial,sans-serif" font-size="60" font-weight="700" letter-spacing=".5">DEVSECOPS</text><text x="84" y="238" fill="#dbeafe" font-family="Arial,sans-serif" font-size="60" font-weight="700" letter-spacing=".5">INTEGRATION</text><text x="84" y="294" fill="#cbd5e1" font-family="Arial,sans-serif" font-size="18">DEVSECOPS / INTEGRATION</text><path fill="#334155" d="M84 320h520v1.5H84z" opacity=".9"/><text x="84" y="350" fill="#94a3b8" font-family="Arial,sans-serif" font-size="14" font-weight="700">VISUAL SYSTEM 8DE7D81CFA1F</text><text x="84" y="378" fill="#94a3b8" font-family="Arial,sans-serif" font-size="14">Cloud Security Course 7Batch 9Week DevSecOps Integration Summary</text><g transform="translate(84 474)"><rect width="131" height="38" fill="#60a5fa" fill-opacity=".2" stroke="#60a5fa" stroke-width="1.2" rx="19"/><text x="65" y="24" fill="#e2e8f0" font-family="Arial,sans-serif" font-size="13" font-weight="700" text-anchor="middle">DEVSECOPS</text></g><g transform="translate(229 474)"><rect width="153" height="38" fill="#60a5fa" fill-opacity=".2" stroke="#60a5fa" stroke-width="1.2" rx="19"/><text x="76" y="24" fill="#e2e8f0" font-family="Arial,sans-serif" font-size="13" font-weight="700" text-anchor="middle">INTEGRATION</text></g><g transform="translate(396 474)"><rect width="186" height="38" fill="#60a5fa" fill-opacity=".2" stroke="#60a5fa" stroke-width="1.2" rx="19"/><text x="93" y="24" fill="#e2e8f0" font-family="Arial,sans-serif" font-size="13" font-weight="700" text-anchor="middle">CLOUD-SECURITY</text></g><g transform="translate(596 474)"><rect width="110" height="38" fill="#60a5fa" fill-opacity=".2" stroke="#60a5fa" stroke-width="1.2" rx="19"/><text x="55" y="24" fill="#e2e8f0" font-family="Arial,sans-serif" font-size="13" font-weight="700" text-anchor="middle">SDLC</text></g><g transform="translate(84 536)"><rect width="144" height="58" fill="#111827" fill-opacity=".8" stroke="#60a5fa" stroke-opacity=".4" stroke-width="1.2" rx="16"/><text x="18" y="24" fill="#94a3b8" font-family="Arial,sans-serif" font-size="11" font-weight="700">BATCH</text><text x="18" y="43" fill="#f8fafc" font-family="Arial,sans-serif" font-size="16" font-weight="700">7</text></g><g transform="translate(246 536)"><rect width="144" height="58" fill="#111827" fill-opacity=".8" stroke="#60a5fa" stroke-opacity=".4" stroke-width="1.2" rx="16"/><text x="18" y="24" fill="#94a3b8" font-family="Arial,sans-serif" font-size="11" font-weight="700">WEEK</text><text x="18" y="43" fill="#f8fafc" font-family="Arial,sans-serif" font-size="16" font-weight="700">9</text></g><g transform="translate(408 536)"><rect width="144" height="58" fill="#111827" fill-opacity=".8" stroke="#60a5fa" stroke-opacity=".4" stroke-width="1.2" rx="16"/><text x="18" y="24" fill="#94a3b8" font-family="Arial,sans-serif" font-size="11" font-weight="700">MODEL</text><text x="18" y="43" fill="#f8fafc" font-family="Arial,sans-serif" font-size="16" font-weight="700">DEVSEC</text></g><g transform="translate(1030 74)"><rect width="130" height="34" fill="#1d4ed8" stroke="#60a5fa" stroke-width="1.2" opacity=".2" rx="17"/><text x="65" y="22" fill="#e2e8f0" font-family="Arial,sans-serif" font-size="12" font-weight="700" text-anchor="middle">June 13, 2025</text></g><path stroke="#334155" d="M50 588h1100" opacity=".5"/><text x="1150" y="612" fill="#94a3b8" font-family="Arial,sans-serif" font-size="13" text-anchor="end">tech.2twodragon.com</text><g filter="url(#softShadow)" transform="translate(1080,504)"><rect width="100" height="100" x="-8" y="-8" fill="#fff" rx="6"/><path fill="#0a1020" d="M0 0h13v1.9H0zm18.7 0h1.8v1.9h-1.8zm3.7 0h3.7v1.9h-3.7zm7.5 0h3.7v1.9h-3.7zm5.6 0h1.8v1.9h-1.8zM41 0h1.8v1.9H41zm5.6 0h1.8v1.9h-1.8zM54 0h4v1.9h-4zm5.6 0h1.9v1.9h-1.9zm7.5 0H69v1.9h-1.9zm3.7 0H84v1.9H71zM0 1.9h1.9v1.8H0zm11.2 0h1.9v1.8h-1.9zm5.6 0h3.7v1.8h-3.7zm7.5 0H26v1.8h-1.8zm9.3 0h3.7v1.8h-3.7zm7.5 0h7.4v1.8h-7.4zm9.3 0H56v1.8h-5.6zm15 0h1.8v1.8h-1.9zm5.5 0h1.9v1.8h-1.9zm11.2 0H84v1.8h-1.9zM0 3.7h1.9v1.9H0zm3.7 0h5.6v1.9H3.7zm7.5 0h1.9v1.9h-1.9zm3.7 0h1.9v1.9h-1.9zm3.8 0h5.6v1.9h-5.6zm7.4 0h7.5v1.9h-7.5zm9.4 0h1.8v1.9h-1.8zm11.2 0h11.2v1.9H46.7zm13 0h3.8v1.9h-3.8zm5.6 0h1.9v1.9h-1.9zm5.6 0h1.9v1.9h-1.9zm3.8 0h5.6v1.9h-5.6zm7.4 0H84v1.9h-1.9zM0 5.6h1.9v1.9H0zm3.7 0h5.6v1.9H3.7zm7.5 0h1.9v1.9h-1.9zm3.7 0h1.9v1.9h-1.9zm3.8 0h1.8v1.9h-1.8zm3.7 0h1.9v1.9h-1.9zm3.7 0H28v1.9h-1.9zm3.8 0h5.6v1.9h-5.6zm7.4 0h1.9v1.9h-1.9zm5.6 0h1.9v1.9h-1.9zm15 0h1.8v1.9H58zm7.4 0h3.8v1.9h-3.8zm5.6 0h1.9v1.9h-1.9zm3.8 0h5.6v1.9h-5.6zm7.4 0H84v1.9h-1.9zM0 7.5h1.9v1.8H0zm3.7 0h5.6v1.8H3.7zm7.5 0h1.9v1.8h-1.9zm3.7 0h3.8v1.8h-3.8zm5.6 0h1.9v1.8h-1.9zm5.6 0H30v1.8h-4zm9.4 0h11.2v1.8H35.5zm16.8 0H54v1.8h-1.8zm3.7 0h5.6v1.8H56zm7.5 0H69v1.8h-5.6zm7.4 0h1.9v1.8h-1.9zm3.8 0h5.6v1.8h-5.6zm7.4 0H84v1.8h-1.9zM0 9.3h1.9v1.9H0zm11.2 0h1.9v1.9h-1.9zm3.7 0h3.8v1.9h-3.8zm11.2 0H28v1.9h-1.9zm3.8 0h3.7v1.9h-3.7zm7.4 0h1.9v1.9h-1.9zm7.5 0h1.9v1.9h-1.9zm5.6 0h1.9v1.9h-1.9zm7.5 0h3.7v1.9h-3.7zm13 0h1.9v1.9h-1.9zm11.2 0H84v1.9h-1.9zM0 11.2h13v1.9H0zm15 0h1.8v1.9h-1.9zm3.7 0h1.8v1.9h-1.8zm3.7 0h1.9v1.9h-1.9zm3.7 0H28v1.9h-1.9zm3.8 0h1.8v1.9H30zm3.7 0h1.9v1.9h-1.9zm3.7 0h1.9v1.9h-1.9zm3.8 0h1.8v1.9h-1.8zm3.7 0h1.9v1.9h-1.9zm3.7 0h1.9v1.9h-1.9zm3.8 0H54v1.9h-1.8zm3.7 0h1.9v1.9H56zm3.7 0h1.9v1.9h-1.9zm3.8 0h1.8v1.9h-1.8zm3.7 0h1.9v1.9h-1.9zm3.7 0H84v1.9H71zm-56 1.9h1.9v1.8h-1.9zm9.4 0h7.4v1.8h-7.4zm11.2 0h3.7v1.8h-3.7zm9.3 0h1.9v1.8h-1.9zm5.6 0h3.7v1.8h-3.7zm5.6 0h1.9v1.8H56zm3.7 0h1.9v1.8h-1.9zm5.6 0h3.8v1.8h-3.8zM0 14.9h1.9v1.9H0zm3.7 0h9.4v1.9H3.7zm20.6 0H26v1.9h-1.8zm7.4 0h1.9v1.9h-1.9zm3.8 0h13v1.9h-13zM54 15h2v1.9h-1.9zm3.8 0h1.8v1.9H58zm3.7 0h1.9v1.9h-1.9zm3.7 0H69v1.9h-3.8zm5.6 0h9.4v1.9h-9.4zM2 16.8h1.8v1.9H2zm3.7 0h5.6v1.9H5.6zm13 0h3.8v1.9h-3.7zm5.7 0H26v1.9h-1.8zm5.6 0h1.8v1.9H30zm3.7 0h5.6v1.9h-5.6zm7.5 0h7.4v1.9h-7.4zm9.3 0H58v1.9h-7.5zm15 0H69v1.9h-3.8zm9.3 0h1.8v1.9h-1.8zm3.7 0H84v1.9h-5.6zM1.9 18.7h3.7v1.8H1.9zm7.4 0h13.1v1.8h-13zm18.7 0h9.3v1.8H28zm13 0h2v1.8h-2zm3.8 0h1.9v1.8h-1.9zm3.7 0h3.8v1.8h-3.8zm9.4 0h1.8v1.8H58zm3.7 0h13v1.8h-13zm15 0h1.8v1.8h-1.9zm3.7 0H82v1.8h-1.8zM0 20.5h3.7v1.9H0zm5.6 0h1.9v1.9H5.6zm3.7 0h1.9v1.9H9.3zm3.8 0h5.6v1.9H13zm7.4 0h3.8v1.9h-3.8zm5.6 0H28v1.9h-1.9zm7.5 0h1.9v1.9h-1.9zm9.3 0H56v1.9H43zm15 0h5.6v1.9h-5.6zm7.4 0h3.8v1.9h-3.8zm7.5 0h7.5v1.9h-7.5zm-69 1.9h1.8v1.9H3.7zm5.5 0h3.8v1.9H9.3zm9.4 0h1.8v1.9h-1.8zm3.7 0h3.7v1.9h-3.7zm5.6 0h1.9v1.9H28zm3.7 0h5.6v1.9h-5.6zm7.5 0h1.9v1.9h-1.9zm5.6 0h1.9v1.9h-1.9zm16.8 0h1.9v1.9h-1.9zm3.7 0h1.9v1.9h-1.9zm16.8 0H84v1.9h-1.9zM9.3 24.3h1.9V26H9.3zm3.8 0h1.8V26h-1.8zm3.7 0h1.9V26h-1.9zm9.3 0H30V26h-4zm15 0h7.4V26h-7.4zm14.9 0h1.9V26H56zm5.6 0h1.9V26h-1.9zm5.6 0h3.7V26h-3.7zm13 0H84V26h-3.7zM0 26h1.9v2H0zm5.6 0h1.9v2H5.6zm3.7 0H15v2H9.3zm7.5 0h1.9v2h-1.9zm3.7 0h1.9v2h-1.9zm3.8 0h5.6v2h-5.6zm9.3 0h3.7v2h-3.7zm5.6 0h7.5v2h-7.5zm9.3 0h1.9v2h-1.9zm3.8 0H54v2h-1.8zm11.2 0h1.8v2h-1.8zm5.6 0h13v2h-13zM1.9 28h7.4v1.9H2zM13 28h3.7v1.9H13zm15 0h1.9v1.9H28zm7.5 0h1.8v1.9h-1.8zm5.6 0h3.7v1.9h-3.7zm5.6 0h1.8v1.9h-1.8zm5.6 0h9.3v1.9h-9.3zm11.2 0h1.8v1.9h-1.8zm3.7 0h3.7v1.9h-3.7zm7.5 0H84v1.9h-9.3zm-71 1.9h1.9v1.8H3.7zm7.5 0h11.2v1.8H11.2zm13 0h2v1.8h-2zm7.5 0h3.8v1.8h-3.8zm5.6 0h3.8v1.8h-3.8zm9.4 0h5.6v1.8h-5.6zm9.3 0h1.9v1.8H56zm7.5 0h3.7v1.8h-3.7zm5.6 0h1.8v1.8h-1.8zm7.4 0H84v1.8h-7.5zM2 31.7h1.8v1.9H2zm5.6 0h1.8v1.9H7.5zm5.6 0H15v1.9h-1.8zm3.7 0h5.6v1.9h-5.6zm11.2 0H30v1.9h-2zm7.5 0h1.8v1.9h-1.8zm3.7 0h1.9v1.9h-1.9zm3.7 0h5.6v1.9H43zm9.4 0H58v1.9h-5.6zm7.4 0h3.8v1.9h-3.8zm5.6 0H71v1.9h-5.6zm9.4 0h1.8v1.9h-1.8zm3.7 0H84v1.9h-5.6zM1.9 33.6h1.8v1.9H2zm3.7 0h1.9v1.9H5.6zm3.7 0h3.8v1.9H9.3zm5.6 0h1.9v1.9h-1.9zm3.8 0h20.5v1.9H18.7zm22.4 0h5.6v1.9H41zm7.4 0h1.9v1.9h-1.9zm3.8 0H56v1.9h-3.7zm5.6 0h3.7v1.9h-3.7zm5.6 0h3.7v1.9h-3.7zm5.6 0h3.7v1.9h-3.7zm5.6 0h1.8v1.9h-1.8zm3.7 0h3.7v1.9h-3.7zM0 35.5h9.3v1.8H0zm13 0h3.8v1.8h-3.7zm7.5 0h1.9v1.8h-1.9zm7.5 0h9.3v1.8H28zm16.8 0h7.5v1.8h-7.5zm9.3 0H56v1.8h-1.9zm5.6 0h3.8v1.8h-3.8zm5.6 0h1.9v1.8h-1.9zm3.8 0h3.7v1.8h-3.7zm5.6 0h5.6v1.8h-5.6zM1.9 37.3h1.8v1.9H2zm3.7 0h13v1.9h-13zm15 0h3.7v1.9h-3.8zm5.5 0H28v1.9h-1.9zm5.6 0h15v1.9h-15zm16.8 0h1.9v1.9h-1.9zm5.6 0H56v1.9h-1.9zm3.8 0h1.8v1.9H58zm3.7 0h3.7v1.9h-3.7zm5.6 0h11.2v1.9H67.2zm13 0h2v1.9h-2zM3.8 39.2h1.9v1.9h-2zm3.8 0h1.8v1.9H7.5zm7.4 0h3.8v1.9H15zm5.6 0h3.8v1.9h-3.8zm7.5 0h3.7v1.9H28zm7.5 0h3.7v1.9h-3.7zm9.3 0h5.6v1.9h-5.6zm7.5 0H54v1.9h-1.8zm3.7 0h3.7v1.9H56zm9.3 0h3.8v1.9h-3.8zm9.4 0H84v1.9h-9.3zM0 41.1h1.9v1.8H0zm3.7 0h1.9v1.8H3.7zm3.8 0h1.8v1.8H7.5zm3.7 0h1.9v1.8h-1.9zm3.7 0h5.6v1.8H15zm7.5 0h1.9v1.8h-1.9zm11.2 0h1.9v1.8h-1.9zm3.7 0h1.9v1.8h-1.9zm3.8 0h1.8v1.8h-1.8zm3.7 0h1.9v1.8h-1.9zm7.5 0H56v1.8h-3.7zm7.4 0h9.4v1.8h-9.4zM71 41h1.9v1.8H71zm3.8 0h1.8v1.8h-1.8zm3.7 0h3.7v1.8h-3.7zM0 42.9h3.7v1.9H0zm7.5 0h1.8v1.9H7.5zm7.4 0h1.9v1.9h-1.9zm3.8 0h5.6v1.9h-5.6zm9.3 0h1.9v1.9H28zm3.7 0h3.8v1.9h-3.8zm5.6 0h1.9v1.9h-1.9zm7.5 0h3.7v1.9h-3.7zm7.5 0H54v1.9h-1.8zm5.6 0h3.7v1.9h-3.7zm9.3 0h1.9v1.9h-1.9zm7.5 0h5.6v1.9h-5.6zm7.4 0H84v1.9h-1.9zM2 44.8h1.8v1.9H2zm3.7 0h11.2v1.9H5.6zm13 0h7.5v1.9h-7.4zm9.4 0H30v1.9h-2zm5.6 0h1.9v1.9h-1.9zm3.7 0h13.1v1.9h-13zm18.7 0h3.7v1.9H56zm9.3 0h13.1v1.9h-13zm15 0H82v1.9h-1.8zM0 46.7h5.6v1.8H0zm22.4 0h3.7v1.8h-3.7zm5.6 0h1.9v1.8H28zm3.7 0h5.6v1.8h-5.6zm7.5 0h9.3v1.8h-9.3zm11.2 0h1.9v1.8h-1.9zm3.7 0h5.6v1.8h-5.6zm16.8 0h1.9v1.8h-1.9zm5.6 0h3.8v1.8h-3.8zm5.6 0H84v1.8h-1.9zM0 48.5h3.7v1.9H0zm11.2 0h1.9v1.9h-1.9zm5.6 0h1.9v1.9h-1.9zm5.6 0H28v1.9h-5.6zm7.5 0h5.6v1.9h-5.6zm7.4 0h3.8v1.9h-3.8zm11.2 0h1.9v1.9h-1.9zm5.6 0H58v1.9h-4zm7.5 0h3.7v1.9h-3.7zm5.6 0h3.7v1.9h-3.7zm7.5 0H82v1.9h-7.4zM1.9 50.4h1.8v1.9H2zm11.2 0h3.7v1.9h-3.7zm5.6 0h1.8v1.9h-1.8zm5.6 0h7.4v1.9h-7.4zm9.3 0h1.9v1.9h-1.9zm3.7 0h1.9v1.9h-1.9zm3.8 0h1.8v1.9h-1.8zm3.7 0H56v1.9H44.8zm13 0h5.7v1.9h-5.6zm7.5 0h1.9v1.9h-1.9zm3.8 0h3.7v1.9h-3.7zm5.6 0h5.6v1.9h-5.6zM0 52.3h3.7V54H0zm5.6 0h9.3V54H5.6zm11.2 0h5.6V54h-5.6zm7.5 0H26V54h-1.8zm3.7 0h1.9V54H28zm7.5 0h1.8V54h-1.8zm11.2 0h3.7V54h-3.7zm14.9 0h3.7V54h-3.7zm9.3 0h1.9V54h-1.9zm3.8 0h1.8V54h-1.8zM0 54h1.9v2H0zm7.5 0h1.8v2H7.5zm7.4 0h3.8v2h-3.8zM28 54h1.9v2H28zm3.7 0h1.9v2h-1.9zm5.6 0h7.5v2h-7.5zm9.4 0h1.8v2h-1.8zm3.7 0h1.9v2h-1.9zm3.7 0h9.4v2H54zm11.2 0h3.8v2h-3.8zm5.6 0h1.9v2h-1.9zm5.6 0h1.9v2h-1.9zM2 56h1.8v1.9H2zm3.7 0h7.5v1.9H5.6zm9.3 0h5.6v1.9H15zm7.5 0H28v1.9h-5.6zm7.5 0h1.8v1.9H30zm3.7 0h3.7v1.9h-3.7zm11.2 0h5.6v1.9h-5.6zm13 0h3.8v1.9H58zm5.7 0h1.8v1.9h-1.8zm9.3 0h1.9v1.9h-1.9zm3.7 0h1.9v1.9h-1.9zm3.8 0H82v1.9h-1.8zM0 57.9h1.9v1.8H0zm3.7 0h3.8v1.8H3.7zm5.6 0h1.9v1.8H9.3zm3.8 0h3.7v1.8h-3.7zm7.4 0h5.6v1.8h-5.6zm7.5 0h3.7v1.8H28zm7.5 0H41v1.8h-5.6zm7.4 0h1.9v1.8h-1.9zm3.8 0h1.8v1.8h-1.8zm7.4 0H58v1.8h-4zm5.6 0h1.9v1.8h-1.9zm5.6 0h3.8v1.8h-3.8zm5.6 0h3.8v1.8h-3.8zm5.6 0H84v1.8h-7.5zM0 59.7h5.6v1.9H0zm11.2 0h1.9v1.9h-1.9zm3.7 0h3.8v1.9h-3.8zm5.6 0h3.8v1.9h-3.8zm7.5 0h5.6v1.9H28zm7.5 0h3.7v1.9h-3.7zm11.2 0h1.8v1.9h-1.8zm7.4 0H56v1.9h-1.9zm9.4 0h1.8v1.9h-1.8zm9.3 0h1.9v1.9h-1.9zm5.6 0h1.9v1.9h-1.9zM1.9 61.6h1.8v1.9H2zm3.7 0h1.9v1.9H5.6zm3.7 0h1.9v1.9H9.3zm15 0H26v1.9h-1.8zm5.6 0h1.8v1.9H30zm5.6 0h9.3v1.9h-9.3zm11.2 0h1.8v1.9h-1.8zm7.4 0H58v1.9h-4zm11.2 0h1.9v1.9h-1.9zm3.8 0h3.7v1.9h-3.7zm9.3 0H84v1.9h-5.6zm-71 1.9h2v1.8h-2zm3.8 0h1.9v1.8h-1.9zm7.5 0h11.2v1.8H18.7zm13 0h3.8v1.8h-3.8zm5.6 0h3.8v1.8h-3.8zm11.2 0h1.9v1.8h-1.9zm3.8 0H54v1.8h-1.8zm7.4 0h3.8v1.8h-3.8zm5.6 0h3.8v1.8h-3.8zm9.4 0h3.7v1.8h-3.7zm5.6 0H82v1.8h-1.8zM1.9 65.3h7.4v1.9H2zm16.8 0h3.7v1.9h-3.7zm5.6 0H28v1.9h-3.7zm7.4 0h1.9v1.9h-1.9zm5.6 0h1.9v1.9h-1.9zm5.6 0h3.8v1.9h-3.8zm7.5 0h3.7v1.9h-3.7zm5.6 0h1.9v1.9H56zm3.7 0h3.8v1.9h-3.8zm5.6 0h3.8v1.9h-3.8zm5.6 0h1.9v1.9h-1.9zm3.8 0H82v1.9h-7.4zM0 67.2h1.9v1.9H0zm5.6 0h3.7v1.9H5.6zm5.6 0h1.9v1.9h-1.9zm3.7 0h11.2v1.9H15zm18.7 0h1.9v1.9h-1.9zm3.7 0h11.2v1.9H37.3zm13.1 0h1.9v1.9h-1.9zm3.7 0h5.6v1.9h-5.6zm13.1 0h13v1.9h-13zm15 0H84v1.9h-1.9zm-67.3 1.9h1.9v1.8h-1.9zm3.8 0h1.8v1.8h-1.8zm5.6 0H26v1.8h-1.8zm13 0h1.9v1.8h-1.9zm7.5 0h1.9v1.8h-1.9zm7.5 0H54v1.8h-1.8zm3.7 0h1.9v1.8H56zm9.3 0h3.8v1.8h-3.8zm9.4 0H84v1.8h-9.3zM0 70.9h13v1.9H0zm18.7 0h5.6v1.9h-5.6zm9.3 0h1.9v1.9H28zm5.6 0h5.6v1.9h-5.6zm7.5 0h1.8v1.9h-1.8zm3.7 0h3.7v1.9h-3.7zm5.6 0h1.9v1.9h-1.9zm3.7 0H56v1.9h-1.9zm3.8 0h1.8v1.9H58zm5.6 0H69v1.9h-5.6zm7.4 0h1.9v1.9h-1.9zm3.8 0h1.8v1.9h-1.8zm3.7 0h3.7v1.9h-3.7zM0 72.8h1.9v1.9H0zm11.2 0h1.9v1.9h-1.9zm3.7 0h1.9v1.9h-1.9zm3.8 0H26v1.9h-7.4zm14.9 0h5.6v1.9h-5.6zm11.2 0H56v1.9H44.8zm15 0h3.7v1.9h-3.8zm5.5 0h3.8v1.9h-3.8zm9.4 0H82v1.9h-7.4zM0 74.7h1.9v1.8H0zm3.7 0h5.6v1.8H3.7zm7.5 0h1.9v1.8h-1.9zm3.7 0h1.9v1.8h-1.9zm7.5 0h7.5v1.8h-7.5zm9.3 0h3.8v1.8h-3.8zm5.6 0h13.1v1.8h-13zm16.8 0H56v1.8h-1.9zm3.8 0h1.8v1.8H58zm5.6 0h14.9v1.8h-15zm16.8 0H82v1.8h-1.8zM0 76.5h1.9v1.9H0zm3.7 0h5.6v1.9H3.7zm7.5 0h1.9v1.9h-1.9zm3.7 0h3.8v1.9h-3.8zm5.6 0h3.8v1.9h-3.8zm11.2 0h5.6v1.9h-5.6zm7.5 0h1.9v1.9h-1.9zm3.7 0h5.6v1.9H43zm9.4 0H54v1.9h-1.8zm3.7 0h1.9v1.9H56zm3.7 0h1.9v1.9h-1.9zm13.1 0h3.7v1.9h-3.7zm5.6 0H84v1.9h-5.6zM0 78.4h1.9v1.9H0zm3.7 0h5.6v1.9H3.7zm7.5 0h1.9v1.9h-1.9zm3.7 0h1.9v1.9h-1.9zm5.6 0h5.6v1.9h-5.6zm7.5 0h9.3v1.9H28zm15 0h3.7v1.9h-3.8zm5.5 0h1.9v1.9h-1.9zm3.8 0H54v1.9h-1.8zm9.3 0h7.5v1.9h-7.5zm9.3 0h1.9v1.9h-1.9zm5.6 0h1.9v1.9h-1.9zm3.8 0H82v1.9h-1.8zM0 80.3h1.9V82H0zm11.2 0h1.9V82h-1.9zm7.5 0h1.8V82h-1.8zm3.7 0H28V82h-5.6zm11.2 0h1.9V82h-1.9zm3.7 0h1.9V82h-1.9zm3.8 0h1.8V82h-1.8zm5.6 0h1.8V82h-1.8zm5.6 0H54V82h-1.8zm7.4 0h1.9V82h-1.9zm7.5 0h3.7V82h-3.7zm7.5 0h5.6V82h-5.6zM0 82h13v2H0zm15 0h3.7v2h-3.8zm5.5 0h3.8v2h-3.8zm7.5 0h5.6v2H28zm7.5 0h1.8v2h-1.8zm5.6 0h7.4v2h-7.4zM56 82h1.9v2H56zm9.3 0h9.4v2h-9.4zm15 0H82v2h-1.8z"/></g><text x="1122" y="614" fill="#f5f7fa" font-family="Inter, Helvetica, Arial, sans-serif" font-size="10" font-weight="700" text-anchor="middle">scan / full post</text></svg>