<svg xmlns="http://www.w3.org/2000/svg" viewBox="0 0 1200 630" width="1200" height="630">
<title>Email Delivery Trust Improvement: SendGrid SPF DK...</title>
<defs>
<linearGradient id="bg" x1="0%" y1="0%" x2="100%" y2="100%">
<stop offset="0%" stop-color="#0b0e1a"/>
<stop offset="50%" stop-color="#111827"/>
<stop offset="100%" stop-color="#0f0a1e"/>
</linearGradient>
<linearGradient id="accent" x1="0%" y1="0%" x2="100%" y2="100%">
<stop offset="0%" stop-color="#3b82f6"/>
<stop offset="100%" stop-color="#22c55e"/>
</linearGradient>
<filter id="glow"><feGaussianBlur stdDeviation="4" result="b"/><feMerge><feMergeNode in="b"/><feMergeNode in="SourceGraphic"/></feMerge></filter>
<filter id="sg"><feGaussianBlur stdDeviation="30"/></filter>
<filter id="shadow"><feDropShadow dx="0" dy="6" stdDeviation="12" flood-color="#000" flood-opacity="0.4"/></filter>
</defs>
<rect width="1200" height="630" fill="url(#bg)"/>
<circle cx="200" cy="200" r="250" fill="#3b82f6" opacity="0.06" filter="url(#sg)"/>
<circle cx="900" cy="400" r="200" fill="#22c55e" opacity="0.05" filter="url(#sg)"/>
<g transform="translate(600,260)">
<rect x="-100" y="-60" width="200" height="120" rx="12" fill="#0f172a" stroke="#3b82f6" stroke-width="2" filter="url(#shadow)"/>
<path d="M-100,-60 L0,20 L100,-60" fill="none" stroke="#3b82f6" stroke-width="2"/>
<text x="0" y="40" font-family="Courier New" font-size="10" fill="#64748b" text-anchor="middle">FROM: verified@domain.com</text>
<g transform="translate(-200,-30)">
<rect x="-40" y="-25" width="80" height="50" rx="10" fill="#0f172a" stroke="#22c55e" stroke-width="2"/>
<text x="0" y="-4" font-family="Courier New" font-size="12" font-weight="bold" fill="#4ade80" text-anchor="middle">SPF</text>
<text x="0" y="14" font-family="Courier New" font-size="8" fill="#4ade80" text-anchor="middle">PASS</text>
</g>
<g transform="translate(200,-30)">
<rect x="-40" y="-25" width="80" height="50" rx="10" fill="#0f172a" stroke="#22c55e" stroke-width="2"/>
<text x="0" y="-4" font-family="Courier New" font-size="12" font-weight="bold" fill="#4ade80" text-anchor="middle">DKIM</text>
<text x="0" y="14" font-family="Courier New" font-size="8" fill="#4ade80" text-anchor="middle">PASS</text>
</g>
<g transform="translate(0,130)">
<rect x="-50" y="-22" width="100" height="44" rx="10" fill="#0f172a" stroke="#f59e0b" stroke-width="2"/>
<text x="0" y="-2" font-family="Courier New" font-size="12" font-weight="bold" fill="#fbbf24" text-anchor="middle">DMARC</text>
<text x="0" y="14" font-family="Courier New" font-size="8" fill="#fbbf24" text-anchor="middle">ALIGNED</text>
</g>
<line x1="-160" y1="-10" x2="-105" y2="-10" stroke="#475569" stroke-width="1.5" opacity="0.5"/>
<line x1="105" y1="-10" x2="160" y2="-10" stroke="#475569" stroke-width="1.5" opacity="0.5"/>
<line x1="0" y1="60" x2="0" y2="108" stroke="#475569" stroke-width="1.5" opacity="0.5"/>
</g>
<text x="600" y="490" font-family="Arial,sans-serif" font-size="30" font-weight="bold" fill="white" text-anchor="middle" filter="url(#glow)">Email Delivery Trust Improvement: SendGrid</text>
<text x="600" y="525" font-family="Arial,sans-serif" font-size="30" font-weight="bold" fill="white" text-anchor="middle" filter="url(#glow)">SPF DK...</text>
<text x="600" y="555" font-family="Arial,sans-serif" font-size="15" fill="#94a3b8" text-anchor="middle">SendGrid | SPF | DKIM | DMARC</text>
<rect x="40" y="22" width="140" height="32" rx="16" fill="#3b82f6" opacity="0.25" stroke="#3b82f6" stroke-width="1"/>
<text x="110" y="44" font-family="Arial,sans-serif" font-size="13" font-weight="bold" fill="#3b82f6" text-anchor="middle">SECURITY</text>
<rect x="1020" y="22" width="140" height="32" rx="16" fill="#3b82f6" opacity="0.2" stroke="#3b82f6" stroke-width="1"/>
<text x="1090" y="44" font-family="Arial,sans-serif" font-size="13" font-weight="bold" fill="#93c5fd" text-anchor="middle">June 05, 2025</text>
<line x1="50" y1="588" x2="1150" y2="588" stroke="#334155" stroke-width="1" opacity="0.5"/>
<text x="1150" y="612" font-family="Arial,sans-serif" font-size="13" fill="#94a3b8" text-anchor="end">tech.2twodragon.com</text>
</svg>