<svg xmlns="http://www.w3.org/2000/svg" viewBox="0 0 1200 630" width="1200" height="630" role="img" aria-label="Weekly digest cover 2025.12.24: Control Tower + SCP, Datadog SIEM, Cloudflare Web Sec">
<!-- profile: high-quality-cover (L20 Hero+2-Card) -->
<title>Cloud Security 8/5: Control Tower SCP, Datadog SIEM, Cloudflare web sec</title>
<defs><linearGradient id="bgSpread" x1="0%" y1="0%" x2="100%" y2="100%"><stop offset="0%" stop-color="#0B1326"/><stop offset="55%" stop-color="#0D1530"/><stop offset="100%" stop-color="#141034"/></linearGradient><linearGradient id="heroPanel" x1="0%" y1="0%" x2="0%" y2="100%"><stop offset="0%" stop-color="#1A0A08"/><stop offset="100%" stop-color="#110608"/></linearGradient><linearGradient id="heroPanelBlue" x1="0%" y1="0%" x2="0%" y2="100%"><stop offset="0%" stop-color="#0A1A30"/><stop offset="100%" stop-color="#071426"/></linearGradient><linearGradient id="heroPanelAmber" x1="0%" y1="0%" x2="0%" y2="100%"><stop offset="0%" stop-color="#1A1208"/><stop offset="100%" stop-color="#120E06"/></linearGradient><linearGradient id="heroPanelGreen" x1="0%" y1="0%" x2="0%" y2="100%"><stop offset="0%" stop-color="#08160E"/><stop offset="100%" stop-color="#04100A"/></linearGradient><linearGradient id="heroPanelPurple" x1="0%" y1="0%" x2="0%" y2="100%"><stop offset="0%" stop-color="#110629"/><stop offset="100%" stop-color="#0A0418"/></linearGradient><radialGradient id="hotRed" cx="50%" cy="50%" r="50%"><stop offset="0%" stop-color="#E63946" stop-opacity="0.6"/><stop offset="100%" stop-color="#E63946" stop-opacity="0"/></radialGradient><radialGradient id="hotBlue" cx="50%" cy="50%" r="50%"><stop offset="0%" stop-color="#3A86FF" stop-opacity="0.5"/><stop offset="100%" stop-color="#3A86FF" stop-opacity="0"/></radialGradient><radialGradient id="hotAmber" cx="50%" cy="50%" r="50%"><stop offset="0%" stop-color="#FFB703" stop-opacity="0.45"/><stop offset="100%" stop-color="#FFB703" stop-opacity="0"/></radialGradient><radialGradient id="hotGreen" cx="50%" cy="50%" r="50%"><stop offset="0%" stop-color="#4ADE80" stop-opacity="0.45"/><stop offset="100%" stop-color="#4ADE80" stop-opacity="0"/></radialGradient><radialGradient id="hotPurple" cx="50%" cy="50%" r="50%"><stop offset="0%" stop-color="#A78BFA" stop-opacity="0.45"/><stop offset="100%" stop-color="#A78BFA" stop-opacity="0"/></radialGradient><pattern id="envGrid" x="0" y="0" width="40" height="40" patternUnits="userSpaceOnUse"><circle cx="20" cy="20" r="0.8" fill="#2A3256" opacity="0.55"/></pattern><filter id="softShadow" x="-10%" y="-10%" width="130%" height="130%"><feGaussianBlur in="SourceAlpha" stdDeviation="3"/><feOffset dx="2" dy="4"/><feComponentTransfer><feFuncA type="linear" slope="0.55"/></feComponentTransfer><feMerge><feMergeNode/><feMergeNode in="SourceGraphic"/></feMerge></filter><filter id="textShadow" x="-10%" y="-10%" width="130%" height="130%"><feGaussianBlur in="SourceAlpha" stdDeviation="1.2"/><feOffset dx="1" dy="1.5"/><feComponentTransfer><feFuncA type="linear" slope="0.7"/></feComponentTransfer><feMerge><feMergeNode/><feMergeNode in="SourceGraphic"/></feMerge></filter></defs>
<rect width="1200" height="630" fill="url(#bgSpread)"/>
<rect width="1200" height="630" fill="url(#envGrid)"/>
<circle cx="310" cy="310" r="160" fill="url(#hotRed)"><animate attributeName="opacity" values="0.6;1;0.6" dur="5.8s" repeatCount="indefinite"/></circle><circle cx="950" cy="210" r="120" fill="url(#hotBlue)"><animate attributeName="opacity" values="0.45;0.85;0.45" dur="6.4s" repeatCount="indefinite"/></circle><circle cx="970" cy="480" r="110" fill="url(#hotAmber)"><animate attributeName="opacity" values="0.4;0.75;0.4" dur="7.1s" repeatCount="indefinite"/></circle><g fill="#8FB8FF"><circle cx="180" cy="70" r="1.2"><animate attributeName="opacity" values="0.2;1;0.2" dur="3.4s" repeatCount="indefinite"/></circle><circle cx="440" cy="62" r="1"><animate attributeName="opacity" values="0.2;0.9;0.2" dur="4.2s" repeatCount="indefinite"/></circle><circle cx="740" cy="68" r="1.3"><animate attributeName="opacity" values="0.25;1;0.25" dur="3.9s" repeatCount="indefinite"/></circle><circle cx="1060" cy="74" r="0.9"><animate attributeName="opacity" values="0.2;0.85;0.2" dur="5.1s" repeatCount="indefinite"/></circle><circle cx="90" cy="580" r="1"><animate attributeName="opacity" values="0.15;0.8;0.15" dur="4.7s" repeatCount="indefinite"/></circle><circle cx="550" cy="590" r="0.8"><animate attributeName="opacity" values="0.2;0.75;0.2" dur="3.6s" begin="0.5s" repeatCount="indefinite"/></circle></g>
<g fill="#7DA3D9" opacity="0.85"><circle cx="252" cy="58" r="0.8"><animate attributeName="opacity" values="0.15;0.7;0.15" dur="4.3s" repeatCount="indefinite"/></circle><circle cx="368" cy="74" r="0.9"><animate attributeName="opacity" values="0.2;0.85;0.2" dur="3.8s" begin="0.4s" repeatCount="indefinite"/></circle><circle cx="624" cy="60" r="1.1"><animate attributeName="opacity" values="0.25;0.95;0.25" dur="4.5s" repeatCount="indefinite"/></circle><circle cx="858" cy="68" r="0.9"><animate attributeName="opacity" values="0.2;0.8;0.2" dur="3.6s" begin="0.6s" repeatCount="indefinite"/></circle><circle cx="996" cy="62" r="1.0"><animate attributeName="opacity" values="0.2;0.9;0.2" dur="4.0s" begin="0.2s" repeatCount="indefinite"/></circle><circle cx="1138" cy="76" r="0.8"><animate attributeName="opacity" values="0.15;0.7;0.15" dur="5.2s" begin="0.5s" repeatCount="indefinite"/></circle><circle cx="218" cy="596" r="0.9"><animate attributeName="opacity" values="0.18;0.75;0.18" dur="4.6s" begin="0.3s" repeatCount="indefinite"/></circle><circle cx="380" cy="608" r="1.0"><animate attributeName="opacity" values="0.2;0.85;0.2" dur="3.9s" begin="0.7s" repeatCount="indefinite"/></circle><circle cx="704" cy="600" r="0.8"><animate attributeName="opacity" values="0.18;0.7;0.18" dur="4.2s" begin="0.4s" repeatCount="indefinite"/></circle><circle cx="892" cy="608" r="1.1"><animate attributeName="opacity" values="0.22;0.9;0.22" dur="4.7s" begin="0.6s" repeatCount="indefinite"/></circle><circle cx="1078" cy="600" r="0.9"><animate attributeName="opacity" values="0.2;0.85;0.2" dur="3.6s" begin="0.8s" repeatCount="indefinite"/></circle></g>
<rect x="0" y="0" width="1200" height="56" fill="#050813" opacity="0.92"/>
<text x="36" y="36" font-family="Inter, Helvetica, Arial, sans-serif" font-size="18" font-weight="700" fill="#8FB8FF" letter-spacing="2.5">WEEKLY DIGEST</text>
<text x="1164" y="36" font-family="Inter, Helvetica, Arial, sans-serif" font-size="15" font-weight="600" fill="#7DA3D9" letter-spacing="1.5" text-anchor="end">2025.12.24</text>
<rect x="0" y="54" width="1200" height="2" fill="#E63946" opacity="0.85"><animate attributeName="opacity" values="0.4;1;0.4" dur="4.8s" repeatCount="indefinite"/></rect>
<rect x="32" y="80" width="600" height="510" rx="14" ry="14" fill="url(#heroPanel)" stroke="#E63946" stroke-width="1.8" opacity="0.98"/>
<circle cx="160" cy="300" r="240" fill="url(#hotRed)" opacity="0.28"/>
<rect x="32" y="80" width="600" height="4" fill="#E63946" opacity="0.85"><animate attributeName="opacity" values="0.5;1;0.5" dur="3.4s" repeatCount="indefinite"/></rect>
<g filter="url(#textShadow)">
<text x="54" y="112" font-family="Inter, Helvetica, Arial, sans-serif" font-size="13" font-weight="700" fill="#F87171" letter-spacing="3">CTL TOWER  /  01</text>
<text x="54" y="146" font-family="Inter, Helvetica, Arial, sans-serif" font-size="31" font-weight="800" fill="#F8FAFC">Control Tower + SCP</text>
<text x="54" y="174" font-family="Inter, Helvetica, Arial, sans-serif" font-size="17" font-weight="500" fill="#FBB6BD">AWS Control Tower SCP-based multi-account governance and</text>
</g>
<g transform="translate(332,360)" opacity="0.32"><circle r="180" fill="none" stroke="#E63946" stroke-width="0.6" stroke-dasharray="2 4"/><circle r="140" fill="none" stroke="#E63946" stroke-width="0.6" stroke-dasharray="2 4" opacity="0.7"/><circle r="100" fill="none" stroke="#E63946" stroke-width="0.6" stroke-dasharray="2 4" opacity="0.5"/><g><path d="M0 0 L180 0 A180 180 0 0 1 127 127 Z" fill="#E63946" opacity="0.10"/><animateTransform attributeName="transform" type="rotate" from="0" to="360" dur="14s" repeatCount="indefinite"/></g></g>
<g stroke="#E63946" stroke-width="1.4" fill="none" opacity="0.7"><path d="M36 96 L36 84 L48 84"/><path d="M616 84 L628 84 L628 96"/><path d="M36 574 L36 586 L48 586"/><path d="M616 586 L628 586 L628 574"/></g>
<g><rect x="54" y="526" width="280" height="1" fill="#E63946" opacity="0.35"/><rect x="54" y="528" width="1" height="4" fill="#E63946" opacity="0.55"/><rect x="68" y="528" width="1" height="2" fill="#E63946" opacity="0.55"/><rect x="82" y="528" width="1" height="2" fill="#E63946" opacity="0.55"/><rect x="96" y="528" width="1" height="4" fill="#E63946" opacity="0.55"/><rect x="110" y="528" width="1" height="2" fill="#E63946" opacity="0.55"/><rect x="124" y="528" width="1" height="2" fill="#E63946" opacity="0.55"/><rect x="138" y="528" width="1" height="4" fill="#E63946" opacity="0.55"/><rect x="152" y="528" width="1" height="2" fill="#E63946" opacity="0.55"/><rect x="166" y="528" width="1" height="2" fill="#E63946" opacity="0.55"/><rect x="180" y="528" width="1" height="4" fill="#E63946" opacity="0.55"/><rect x="194" y="528" width="1" height="2" fill="#E63946" opacity="0.55"/><rect x="208" y="528" width="1" height="2" fill="#E63946" opacity="0.55"/><rect x="222" y="528" width="1" height="4" fill="#E63946" opacity="0.55"/><rect x="236" y="528" width="1" height="2" fill="#E63946" opacity="0.55"/><rect x="250" y="528" width="1" height="2" fill="#E63946" opacity="0.55"/><rect x="264" y="528" width="1" height="4" fill="#E63946" opacity="0.55"/><rect x="278" y="528" width="1" height="2" fill="#E63946" opacity="0.55"/><rect x="292" y="528" width="1" height="2" fill="#E63946" opacity="0.55"/><rect x="306" y="528" width="1" height="4" fill="#E63946" opacity="0.55"/><rect x="320" y="528" width="1" height="2" fill="#E63946" opacity="0.55"/><rect x="284" y="527" width="50" height="6" fill="#E63946" opacity="0.45"><animate attributeName="x" values="54;284;54" dur="6.4s" repeatCount="indefinite"/><animate attributeName="opacity" values="0.2;0.7;0.2" dur="6.4s" repeatCount="indefinite"/></rect></g>
<g transform="translate(332,360)"><circle cx="0" cy="0" r="30" fill="#0A1540" stroke="#E63946" stroke-width="2" filter="url(#softShadow)"><animate attributeName="r" values="28;34;28" dur="3.2s" repeatCount="indefinite"/></circle><text x="0" y="2" text-anchor="middle" font-family="Inter, monospace" font-size="11" font-weight="900" fill="#F87171">SCP</text><text x="0" y="16" text-anchor="middle" font-family="Inter, monospace" font-size="8" font-weight="700" fill="#E63946">HUB</text><g stroke="#E63946" stroke-width="1" stroke-dasharray="3 2" fill="none" opacity="0.6"><line x1="0" y1="0" x2="90" y2="-55"/><line x1="0" y1="0" x2="108" y2="0"/><line x1="0" y1="0" x2="90" y2="55"/><line x1="0" y1="0" x2="-90" y2="55"/><line x1="0" y1="0" x2="-108" y2="0"/><line x1="0" y1="0" x2="-90" y2="-55"/></g><g font-family="Inter, monospace" font-size="7" font-weight="800"><g transform="translate(92,-58)"><rect x="-24" y="-12" width="48" height="24" rx="4" fill="#0A2040" stroke="#E63946" stroke-width="1.2"/><g transform="translate(-18,-8)" stroke="#F87171" stroke-width="0.9" fill="none"><rect x="0" y="0" width="9" height="5" rx="1"/><circle cx="2" cy="2.5" r="0.6" fill="#E63946"/><circle cx="5" cy="2.5" r="0.6" fill="#E63946"/></g><text x="3" y="2" text-anchor="middle" fill="#F87171">EDGE-1</text><circle cx="20" cy="-8" r="4" fill="#E63946"><animate attributeName="opacity" values="0.4;1;0.4" dur="1.6s" repeatCount="indefinite"/></circle></g><g transform="translate(112,0)"><rect x="-24" y="-12" width="48" height="24" rx="4" fill="#0A2040" stroke="#E63946" stroke-width="1.2"/><g transform="translate(-18,-8)" stroke="#F87171" stroke-width="0.9" fill="none"><rect x="0" y="0" width="9" height="5" rx="1"/><circle cx="2" cy="2.5" r="0.6" fill="#E63946"/><circle cx="5" cy="2.5" r="0.6" fill="#E63946"/></g><text x="3" y="2" text-anchor="middle" fill="#F87171">EDGE-2</text><circle cx="20" cy="-8" r="4" fill="#E63946"><animate attributeName="opacity" values="0.4;1;0.4" dur="2s" begin="0.3s" repeatCount="indefinite"/></circle></g><g transform="translate(92,58)"><rect x="-24" y="-12" width="48" height="24" rx="4" fill="#0A2040" stroke="#FFB703" stroke-width="1.2"/><g transform="translate(-18,-4)" stroke="#FFD58A" stroke-width="0.9" fill="none"><path d="M2 4 L0 0 M2 4 L4 0 M2 4 L2 8"/></g><text x="4" y="2" text-anchor="middle" fill="#FFD58A">RELAY</text></g><g transform="translate(-92,58)"><rect x="-24" y="-12" width="48" height="24" rx="4" fill="#0A2040" stroke="#FFB703" stroke-width="1.2"/><g transform="translate(-19,-3)" stroke="#FFD58A" stroke-width="0.9" fill="none"><path d="M0 3 L4 0 L4 6 Z" fill="#FFD58A"/></g><text x="4" y="2" text-anchor="middle" fill="#FFD58A">PROXY</text></g><g transform="translate(-112,0)"><rect x="-24" y="-12" width="48" height="24" rx="4" fill="#0A2040" stroke="#4ADE80" stroke-width="1.2"/><g transform="translate(-19,-6)" stroke="#4ADE80" stroke-width="0.9" fill="none"><rect x="0" y="0" width="8" height="5" rx="0.6"/><path d="M-1 7 L9 7"/></g><text x="4" y="2" text-anchor="middle" fill="#4ADE80">VICTIM</text></g><g transform="translate(-92,-58)"><rect x="-24" y="-12" width="48" height="24" rx="4" fill="#0A2040" stroke="#4ADE80" stroke-width="1.2"/><g transform="translate(-19,-4)" stroke="#4ADE80" stroke-width="0.9" fill="none"><circle cx="2" cy="3" r="1.6"/><path d="M3.5 3 L9 3 M7 3 L7 5"/></g><text x="4" y="2" text-anchor="middle" fill="#4ADE80">CREDS</text></g></g><g fill="#F87171"><circle r="2.2"><animateMotion path="M0 0 L90 -55" dur="2s" repeatCount="indefinite"/></circle><circle r="2.2"><animateMotion path="M0 0 L108 0" dur="1.8s" begin="0.3s" repeatCount="indefinite"/></circle><circle r="2.2"><animateMotion path="M0 0 L90 55" dur="2.2s" begin="0.6s" repeatCount="indefinite"/></circle><circle r="2.2"><animateMotion path="M0 0 L-90 55" dur="2.4s" begin="0.9s" repeatCount="indefinite"/></circle><circle r="2.2"><animateMotion path="M0 0 L-108 0" dur="1.9s" begin="1.2s" repeatCount="indefinite"/></circle><circle r="2.2"><animateMotion path="M0 0 L-90 -55" dur="2.1s" begin="1.5s" repeatCount="indefinite"/></circle></g></g>
<g transform="translate(54,548)">
<rect x="0" y="0" width="280" height="24" rx="3" fill="#E63946" opacity="0.95"/>
<text x="140" y="17" text-anchor="middle" font-family="Inter, Helvetica, Arial, sans-serif" font-size="12" font-weight="700" fill="#FFFFFF">DEFINE SCP + ENFORCE LZ</text>
</g>
<text x="350" y="566" font-family="Inter, Helvetica, Arial, sans-serif" font-size="13" font-weight="600" fill="#A5B4C4" font-style="italic">Weekly Digest  /  2025.12.24</text>
<rect x="652" y="80" width="516" height="248" rx="14" ry="14" fill="url(#heroPanelAmber)" stroke="#FFB703" stroke-width="1.6" opacity="0.97"/>
<rect x="652" y="80" width="516" height="4" fill="#FFB703" opacity="0.85"><animate attributeName="opacity" values="0.5;1;0.5" dur="4.2s" repeatCount="indefinite"/></rect>
<g filter="url(#textShadow)">
<text x="670" y="110" font-family="Inter, Helvetica, Arial, sans-serif" font-size="12" font-weight="700" fill="#FFB703" letter-spacing="3">DATADOG SIEM  /  02</text>
<text x="670" y="140" font-family="Inter, Helvetica, Arial, sans-serif" font-size="24" font-weight="800" fill="#F5F7FA">Datadog SIEM</text>
<text x="670" y="163" font-family="Inter, Helvetica, Arial, sans-serif" font-size="14" font-weight="500" fill="#FFD58A">Datadog SIEM unified security monitoring across</text>
</g>
<g stroke="#FFB703" stroke-width="1.4" fill="none" opacity="0.7"><path d="M656 93 L656 84 L665 84"/><path d="M1155 84 L1164 84 L1164 93"/><path d="M656 315 L656 324 L665 324"/><path d="M1155 324 L1164 324 L1164 315"/></g>
<g transform="translate(800,230)"><g transform="translate(-160,-50)" filter="url(#softShadow)"><ellipse cx="40" cy="6" rx="40" ry="8" fill="#0A1B2E" stroke="#2CCCE4" stroke-width="1.6"/><rect x="0" y="6" width="80" height="56" fill="#0A1B2E" stroke="#2CCCE4" stroke-width="1.6"/><ellipse cx="40" cy="62" rx="40" ry="8" fill="#0A1B2E" stroke="#2CCCE4" stroke-width="1.6"/><ellipse cx="40" cy="22" rx="40" ry="6" fill="none" stroke="#2CCCE4" stroke-width="0.8" opacity="0.6"/><ellipse cx="40" cy="40" rx="40" ry="6" fill="none" stroke="#2CCCE4" stroke-width="0.8" opacity="0.6"/><text x="40" y="84" text-anchor="middle" font-family="Inter, monospace" font-size="10" font-weight="800" fill="#2CCCE4">DB / S3</text><text x="40" y="98" text-anchor="middle" font-family="Inter, monospace" font-size="8" font-weight="600" fill="#7ED4E5">PII  /  secrets</text></g><g transform="translate(80,-50)" filter="url(#softShadow)"><rect x="0" y="0" width="80" height="80" rx="8" fill="#1E0A0A" stroke="#FFB703" stroke-width="2"/><text x="40" y="22" text-anchor="middle" font-family="Inter, monospace" font-size="10" font-weight="900" fill="#FFD58A">ATTACKER</text><g transform="translate(20,32)" stroke="#FFD58A" stroke-width="1.6" fill="none"><circle cx="20" cy="10" r="8"/><path d="M6 32 Q20 22 34 32"/></g><text x="40" y="74" text-anchor="middle" font-family="Inter, monospace" font-size="8" font-weight="700" fill="#FCA5A5">offshore relay</text></g><g stroke="#FFB703" stroke-width="1.4" stroke-dasharray="4 3" fill="none"><path d="M-80 -10 L80 -10"><animate attributeName="stroke-dashoffset" values="0;-14" dur="1.2s" repeatCount="indefinite"/></path><path d="M-80 0 L80 0"><animate attributeName="stroke-dashoffset" values="0;-14" dur="1.4s" begin="0.2s" repeatCount="indefinite"/></path><path d="M-80 10 L80 10"><animate attributeName="stroke-dashoffset" values="0;-14" dur="1s" begin="0.4s" repeatCount="indefinite"/></path></g><g fill="#FFD58A"><circle r="2.4"><animateMotion path="M-80 -10 L80 -10" dur="2s" repeatCount="indefinite"/></circle><circle r="2.4"><animateMotion path="M-80 0 L80 0" dur="2.2s" begin="0.4s" repeatCount="indefinite"/></circle><circle r="2.4"><animateMotion path="M-80 10 L80 10" dur="2.4s" begin="0.8s" repeatCount="indefinite"/></circle></g><text x="0" y="40" text-anchor="middle" font-family="Inter, Helvetica, Arial, sans-serif" font-size="10" font-weight="700" fill="#FFB703" letter-spacing="2">DATA EXFILTRATION</text></g>
<g transform="translate(1094,168)" filter="url(#softShadow)"><rect x="-68" y="-55" width="140" height="110" rx="10" fill="#1A1208" stroke="#FFB703" stroke-width="2"/><text x="2" y="-28" text-anchor="middle" font-family="Inter, Helvetica, Arial, sans-serif" font-size="10" font-weight="700" letter-spacing="2" fill="#FFB703">SIEM</text><text x="2" y="18" text-anchor="middle" font-family="Inter, Helvetica, Arial, sans-serif" font-size="28" font-weight="900" fill="#F5F7FA">DD</text><text x="2" y="40" text-anchor="middle" font-family="Inter, Helvetica, Arial, sans-serif" font-size="10" font-weight="600" fill="#FFD58A">unif</text></g>
<rect x="652" y="344" width="516" height="246" rx="14" ry="14" fill="url(#heroPanelBlue)" stroke="#3A86FF" stroke-width="1.6" opacity="0.97"/>
<rect x="652" y="344" width="516" height="4" fill="#3A86FF" opacity="0.85"><animate attributeName="opacity" values="0.5;1;0.5" dur="4.8s" repeatCount="indefinite"/></rect>
<g filter="url(#textShadow)">
<text x="670" y="374" font-family="Inter, Helvetica, Arial, sans-serif" font-size="12" font-weight="700" fill="#7DA3D9" letter-spacing="3">CLOUDFLARE  /  03</text>
<text x="670" y="404" font-family="Inter, Helvetica, Arial, sans-serif" font-size="24" font-weight="800" fill="#F5F7FA">Cloudflare Web Sec</text>
<text x="670" y="428" font-family="Inter, Helvetica, Arial, sans-serif" font-size="14" font-weight="500" fill="#BFC9D9">Cloudflare web security hardening complements</text>
</g>
<g stroke="#3A86FF" stroke-width="1.4" fill="none" opacity="0.7"><path d="M656 357 L656 348 L665 348"/><path d="M1155 348 L1164 348 L1164 357"/><path d="M656 577 L656 586 L665 586"/><path d="M1155 586 L1164 586 L1164 577"/></g>
<g transform="translate(800,490)" filter="url(#softShadow)"><rect x="-160" y="-110" width="320" height="220" rx="10" fill="#0A0C16" stroke="#3A86FF" stroke-width="1.4" opacity="0.95"/><g transform="translate(-148,-100)"><rect x="0" y="6" width="14" height="11" rx="1.5" fill="#3A86FF" opacity="0.9"/><path d="M2 6 L2 3 A5 5 0 0 1 12 3 L12 6" stroke="#60A5FA" stroke-width="1.4" fill="none"/><circle cx="7" cy="11" r="1.2" fill="#0A0C16"/></g><g transform="translate(110,-104)"><rect x="0" y="0" width="48" height="16" rx="2.5" fill="#7A0000" stroke="#3A86FF" stroke-width="1.2"><animate attributeName="opacity" values="0.7;1;0.7" dur="1.4s" repeatCount="indefinite"/></rect><text x="24" y="11" text-anchor="middle" font-family="Inter, monospace" font-size="9" font-weight="900" fill="#FFE4E6">0-DAY</text></g><text x="0" y="-86" text-anchor="middle" font-family="Inter, Helvetica, Arial, sans-serif" font-size="11" font-weight="700" fill="#60A5FA" letter-spacing="2">CVE REGRESSION CHAIN</text><g transform="translate(-140,-70)"><rect x="0" y="0" width="280" height="50" rx="6" fill="#1E0A14" stroke="#60A5FA" stroke-width="1.2"/><text x="10" y="18" font-family="Inter, monospace" font-size="11" font-weight="800" fill="#60A5FA">PRIOR CVE</text><text x="10" y="33" font-family="Inter, monospace" font-size="9" font-weight="600" fill="#BFC9D9">Original flaw  /  patched</text><text x="10" y="44" font-family="Inter, monospace" font-size="8" font-weight="500" fill="#BFC9D9" opacity="0.8">Partial fix earlier</text><rect x="226" y="6" width="48" height="14" rx="3" fill="#7A0000" stroke="#3A86FF" stroke-width="1"><animate attributeName="opacity" values="0.7;1;0.7" dur="1.6s" repeatCount="indefinite"/></rect><text x="250" y="16" text-anchor="middle" font-family="Inter, monospace" font-size="8" font-weight="900" fill="#FFE4E6">PATCHED</text></g><g transform="translate(-12,-12)"><path d="M0 0 L0 22 L-6 14 M0 22 L6 14" stroke="#3A86FF" stroke-width="1.8" fill="none" stroke-linecap="round"/><text x="14" y="14" font-family="Inter, monospace" font-size="9" font-weight="700" fill="#60A5FA">REGRESSED</text><g transform="translate(-30,8)" stroke="#3A86FF" stroke-width="1.2" fill="none"><path d="M0 4 L4 0 L8 4 M2 6 L6 2"><animate attributeName="stroke-opacity" values="0.4;1;0.4" dur="1.6s" repeatCount="indefinite"/></path></g></g><g transform="translate(-140,16)"><rect x="0" y="0" width="280" height="50" rx="6" fill="#2A0808" stroke="#3A86FF" stroke-width="2"><animate attributeName="stroke-opacity" values="0.6;1;0.6" dur="1.8s" repeatCount="indefinite"/></rect><text x="10" y="18" font-family="Inter, monospace" font-size="11" font-weight="800" fill="#F5F7FA">NEW CVE</text><text x="10" y="33" font-family="Inter, monospace" font-size="9" font-weight="600" fill="#FFB703">Active exploitation</text><text x="10" y="44" font-family="Inter, monospace" font-size="8" font-weight="500" fill="#E0C0A0" opacity="0.8">Production hosts at risk</text><rect x="232" y="6" width="42" height="14" rx="3" fill="#3A86FF"><animate attributeName="opacity" values="0.8;1;0.8" dur="1.2s" repeatCount="indefinite"/></rect><text x="253" y="16" text-anchor="middle" font-family="Inter, monospace" font-size="8" font-weight="900" fill="#FFFFFF">ACTIVE</text></g><g transform="translate(-140,80)"><rect x="0" y="0" width="280" height="22" rx="4" fill="#0E1220" stroke="#3A86FF" stroke-width="1"/><text x="140" y="15" text-anchor="middle" font-family="Inter, monospace" font-size="9" font-weight="700" fill="#8FB8FF">PATCH UPSTREAM NOW</text></g></g>
<g transform="translate(1094,452)" filter="url(#softShadow)"><rect x="-68" y="-55" width="140" height="110" rx="10" fill="#071426" stroke="#3A86FF" stroke-width="2"/><text x="2" y="-28" text-anchor="middle" font-family="Inter, Helvetica, Arial, sans-serif" font-size="10" font-weight="700" letter-spacing="2" fill="#7DA3D9">WEB</text><text x="2" y="18" text-anchor="middle" font-family="Inter, Helvetica, Arial, sans-serif" font-size="28" font-weight="900" fill="#F5F7FA">CF</text><text x="2" y="40" text-anchor="middle" font-family="Inter, Helvetica, Arial, sans-serif" font-size="10" font-weight="600" fill="#BFC9D9">sec</text></g>
<g opacity="0.85"><g fill="#F87171"><circle cx="1104" cy="110" r="1.4"><animate attributeName="opacity" values="0.2;1;0.2" dur="1.8s" repeatCount="indefinite"/></circle><circle cx="1124" cy="110" r="1.4"><animate attributeName="opacity" values="0.2;1;0.2" dur="1.4s" begin="0.3s" repeatCount="indefinite"/></circle></g><g fill="#7DA3D9"><circle cx="1104" cy="218" r="1.2"><animate attributeName="opacity" values="0.2;1;0.2" dur="2s" repeatCount="indefinite"/></circle><circle cx="1124" cy="218" r="1.2"><animate attributeName="opacity" values="0.2;1;0.2" dur="1.6s" begin="0.4s" repeatCount="indefinite"/></circle></g><g fill="#FFD58A"><circle cx="1104" cy="374" r="1.4"><animate attributeName="opacity" values="0.2;1;0.2" dur="1.8s" repeatCount="indefinite"/></circle><circle cx="1124" cy="374" r="1.4"><animate attributeName="opacity" values="0.2;1;0.2" dur="1.6s" begin="0.3s" repeatCount="indefinite"/></circle></g><g stroke="#E63946" stroke-width="0.5" fill="none"><path d="M20 230 L28 230"><animate attributeName="stroke-opacity" values="0;0.7;0" dur="2s" repeatCount="indefinite"/></path><path d="M20 300 L28 300"><animate attributeName="stroke-opacity" values="0;0.7;0" dur="2.3s" begin="0.3s" repeatCount="indefinite"/></path><path d="M20 370 L28 370"><animate attributeName="stroke-opacity" values="0;0.7;0" dur="1.9s" begin="0.6s" repeatCount="indefinite"/></path><path d="M20 440 L28 440"><animate attributeName="stroke-opacity" values="0;0.7;0" dur="2.1s" begin="0.9s" repeatCount="indefinite"/></path></g></g>
<g transform="translate(1080,504)" filter="url(#softShadow)">
  <rect x="-8" y="-8" width="100" height="100" rx="6" fill="#FFFFFF"/>
  <path fill="#0A1020" d="M0.0 0.0h11.094v1.585h-11.094z M12.679 0.0h1.585v1.585h-1.585z M15.849 0.0h3.17v1.585h-3.17z M22.189 0.0h1.585v1.585h-1.585z M25.358 0.0h1.585v1.585h-1.585z M28.528 0.0h1.585v1.585h-1.585z M33.283 0.0h1.585v1.585h-1.585z M38.038 0.0h4.755v1.585h-4.755z M44.377 0.0h4.755v1.585h-4.755z M52.302 0.0h1.585v1.585h-1.585z M63.396 0.0h1.585v1.585h-1.585z M66.566 0.0h1.585v1.585h-1.585z M72.906 0.0h11.094v1.585h-11.094z M0.0 1.585h1.585v1.585h-1.585z M9.509 1.585h1.585v1.585h-1.585z M14.264 1.585h1.585v1.585h-1.585z M17.434 1.585h6.34v1.585h-6.34z M26.943 1.585h4.755v1.585h-4.755z M36.453 1.585h3.17v1.585h-3.17z M41.208 1.585h3.17v1.585h-3.17z M47.547 1.585h1.585v1.585h-1.585z M53.887 1.585h1.585v1.585h-1.585z M57.057 1.585h7.925v1.585h-7.925z M66.566 1.585h3.17v1.585h-3.17z M72.906 1.585h1.585v1.585h-1.585z M82.415 1.585h1.585v1.585h-1.585z M0.0 3.17h1.585v1.585h-1.585z M3.17 3.17h4.755v1.585h-4.755z M9.509 3.17h1.585v1.585h-1.585z M17.434 3.17h3.17v1.585h-3.17z M22.189 3.17h3.17v1.585h-3.17z M30.113 3.17h3.17v1.585h-3.17z M36.453 3.17h1.585v1.585h-1.585z M50.717 3.17h1.585v1.585h-1.585z M53.887 3.17h1.585v1.585h-1.585z M63.396 3.17h3.17v1.585h-3.17z M68.151 3.17h1.585v1.585h-1.585z M72.906 3.17h1.585v1.585h-1.585z M76.075 3.17h4.755v1.585h-4.755z M82.415 3.17h1.585v1.585h-1.585z M0.0 4.755h1.585v1.585h-1.585z M3.17 4.755h4.755v1.585h-4.755z M9.509 4.755h1.585v1.585h-1.585z M12.679 4.755h1.585v1.585h-1.585z M15.849 4.755h3.17v1.585h-3.17z M20.604 4.755h3.17v1.585h-3.17z M25.358 4.755h3.17v1.585h-3.17z M30.113 4.755h11.094v1.585h-11.094z M42.792 4.755h3.17v1.585h-3.17z M49.132 4.755h1.585v1.585h-1.585z M53.887 4.755h3.17v1.585h-3.17z M60.226 4.755h1.585v1.585h-1.585z M63.396 4.755h1.585v1.585h-1.585z M66.566 4.755h1.585v1.585h-1.585z M69.736 4.755h1.585v1.585h-1.585z M72.906 4.755h1.585v1.585h-1.585z M76.075 4.755h4.755v1.585h-4.755z M82.415 4.755h1.585v1.585h-1.585z M0.0 6.34h1.585v1.585h-1.585z M3.17 6.34h4.755v1.585h-4.755z M9.509 6.34h1.585v1.585h-1.585z M12.679 6.34h6.34v1.585h-6.34z M25.358 6.34h7.925v1.585h-7.925z M34.868 6.34h15.849v1.585h-15.849z M52.302 6.34h1.585v1.585h-1.585z M55.472 6.34h3.17v1.585h-3.17z M60.226 6.34h1.585v1.585h-1.585z M64.981 6.34h3.17v1.585h-3.17z M72.906 6.34h1.585v1.585h-1.585z M76.075 6.34h4.755v1.585h-4.755z M82.415 6.34h1.585v1.585h-1.585z M0.0 7.925h1.585v1.585h-1.585z M9.509 7.925h1.585v1.585h-1.585z M12.679 7.925h1.585v1.585h-1.585z M25.358 7.925h3.17v1.585h-3.17z M38.038 7.925h1.585v1.585h-1.585z M44.377 7.925h3.17v1.585h-3.17z M52.302 7.925h3.17v1.585h-3.17z M57.057 7.925h1.585v1.585h-1.585z M61.811 7.925h1.585v1.585h-1.585z M64.981 7.925h3.17v1.585h-3.17z M72.906 7.925h1.585v1.585h-1.585z M82.415 7.925h1.585v1.585h-1.585z M0.0 9.509h11.094v1.585h-11.094z M12.679 9.509h1.585v1.585h-1.585z M15.849 9.509h1.585v1.585h-1.585z M19.019 9.509h1.585v1.585h-1.585z M22.189 9.509h1.585v1.585h-1.585z M25.358 9.509h1.585v1.585h-1.585z M28.528 9.509h1.585v1.585h-1.585z M31.698 9.509h1.585v1.585h-1.585z M34.868 9.509h1.585v1.585h-1.585z M38.038 9.509h1.585v1.585h-1.585z M41.208 9.509h1.585v1.585h-1.585z M44.377 9.509h1.585v1.585h-1.585z M47.547 9.509h1.585v1.585h-1.585z M50.717 9.509h1.585v1.585h-1.585z M53.887 9.509h1.585v1.585h-1.585z M57.057 9.509h1.585v1.585h-1.585z M60.226 9.509h1.585v1.585h-1.585z M63.396 9.509h1.585v1.585h-1.585z M66.566 9.509h1.585v1.585h-1.585z M69.736 9.509h1.585v1.585h-1.585z M72.906 9.509h11.094v1.585h-11.094z M12.679 11.094h1.585v1.585h-1.585z M19.019 11.094h3.17v1.585h-3.17z M23.774 11.094h4.755v1.585h-4.755z M30.113 11.094h4.755v1.585h-4.755z M36.453 11.094h3.17v1.585h-3.17z M44.377 11.094h4.755v1.585h-4.755z M55.472 11.094h4.755v1.585h-4.755z M61.811 11.094h1.585v1.585h-1.585z M68.151 11.094h1.585v1.585h-1.585z M0.0 12.679h1.585v1.585h-1.585z M6.34 12.679h1.585v1.585h-1.585z M9.509 12.679h4.755v1.585h-4.755z M17.434 12.679h4.755v1.585h-4.755z M23.774 12.679h1.585v1.585h-1.585z M26.943 12.679h1.585v1.585h-1.585z M33.283 12.679h1.585v1.585h-1.585z M38.038 12.679h11.094v1.585h-11.094z M55.472 12.679h7.925v1.585h-7.925z M66.566 12.679h3.17v1.585h-3.17z M71.321 12.679h7.925v1.585h-7.925z M82.415 12.679h1.585v1.585h-1.585z M0.0 14.264h1.585v1.585h-1.585z M3.17 14.264h1.585v1.585h-1.585z M7.925 14.264h1.585v1.585h-1.585z M14.264 14.264h1.585v1.585h-1.585z M17.434 14.264h3.17v1.585h-3.17z M22.189 14.264h3.17v1.585h-3.17z M26.943 14.264h1.585v1.585h-1.585z M30.113 14.264h3.17v1.585h-3.17z M34.868 14.264h9.509v1.585h-9.509z M45.962 14.264h4.755v1.585h-4.755z M52.302 14.264h1.585v1.585h-1.585z M55.472 14.264h3.17v1.585h-3.17z M60.226 14.264h7.925v1.585h-7.925z M69.736 14.264h1.585v1.585h-1.585z M74.491 14.264h1.585v1.585h-1.585z M77.66 14.264h6.34v1.585h-6.34z M3.17 15.849h4.755v1.585h-4.755z M9.509 15.849h1.585v1.585h-1.585z M20.604 15.849h3.17v1.585h-3.17z M28.528 15.849h3.17v1.585h-3.17z M34.868 15.849h4.755v1.585h-4.755z M44.377 15.849h3.17v1.585h-3.17z M49.132 15.849h3.17v1.585h-3.17z M53.887 15.849h3.17v1.585h-3.17z M58.642 15.849h1.585v1.585h-1.585z M61.811 15.849h9.509v1.585h-9.509z M74.491 15.849h1.585v1.585h-1.585z M79.245 15.849h1.585v1.585h-1.585z M82.415 15.849h1.585v1.585h-1.585z M0.0 17.434h1.585v1.585h-1.585z M3.17 17.434h3.17v1.585h-3.17z M7.925 17.434h1.585v1.585h-1.585z M17.434 17.434h3.17v1.585h-3.17z M22.189 17.434h4.755v1.585h-4.755z M30.113 17.434h1.585v1.585h-1.585z M34.868 17.434h1.585v1.585h-1.585z M39.623 17.434h1.585v1.585h-1.585z M42.792 17.434h4.755v1.585h-4.755z M53.887 17.434h9.509v1.585h-9.509z M66.566 17.434h1.585v1.585h-1.585z M71.321 17.434h3.17v1.585h-3.17z M76.075 17.434h1.585v1.585h-1.585z M80.83 17.434h3.17v1.585h-3.17z M1.585 19.019h1.585v1.585h-1.585z M6.34 19.019h4.755v1.585h-4.755z M12.679 19.019h1.585v1.585h-1.585z M17.434 19.019h3.17v1.585h-3.17z M22.189 19.019h1.585v1.585h-1.585z M25.358 19.019h4.755v1.585h-4.755z M31.698 19.019h3.17v1.585h-3.17z M36.453 19.019h1.585v1.585h-1.585z M39.623 19.019h1.585v1.585h-1.585z M45.962 19.019h3.17v1.585h-3.17z M50.717 19.019h1.585v1.585h-1.585z M55.472 19.019h3.17v1.585h-3.17z M61.811 19.019h1.585v1.585h-1.585z M64.981 19.019h1.585v1.585h-1.585z M68.151 19.019h3.17v1.585h-3.17z M72.906 19.019h4.755v1.585h-4.755z M82.415 19.019h1.585v1.585h-1.585z M6.34 20.604h1.585v1.585h-1.585z M11.094 20.604h6.34v1.585h-6.34z M20.604 20.604h3.17v1.585h-3.17z M25.358 20.604h1.585v1.585h-1.585z M30.113 20.604h3.17v1.585h-3.17z M34.868 20.604h1.585v1.585h-1.585z M38.038 20.604h7.925v1.585h-7.925z M47.547 20.604h1.585v1.585h-1.585z M52.302 20.604h1.585v1.585h-1.585z M55.472 20.604h1.585v1.585h-1.585z M60.226 20.604h3.17v1.585h-3.17z M64.981 20.604h3.17v1.585h-3.17z M69.736 20.604h1.585v1.585h-1.585z M74.491 20.604h1.585v1.585h-1.585z M77.66 20.604h1.585v1.585h-1.585z M80.83 20.604h1.585v1.585h-1.585z M3.17 22.189h3.17v1.585h-3.17z M9.509 22.189h6.34v1.585h-6.34z M23.774 22.189h1.585v1.585h-1.585z M26.943 22.189h1.585v1.585h-1.585z M31.698 22.189h1.585v1.585h-1.585z M34.868 22.189h3.17v1.585h-3.17z M39.623 22.189h3.17v1.585h-3.17z M44.377 22.189h1.585v1.585h-1.585z M52.302 22.189h1.585v1.585h-1.585z M57.057 22.189h1.585v1.585h-1.585z M60.226 22.189h1.585v1.585h-1.585z M63.396 22.189h3.17v1.585h-3.17z M68.151 22.189h4.755v1.585h-4.755z M74.491 22.189h1.585v1.585h-1.585z M82.415 22.189h1.585v1.585h-1.585z M3.17 23.774h1.585v1.585h-1.585z M6.34 23.774h1.585v1.585h-1.585z M14.264 23.774h1.585v1.585h-1.585z M17.434 23.774h7.925v1.585h-7.925z M26.943 23.774h3.17v1.585h-3.17z M31.698 23.774h3.17v1.585h-3.17z M39.623 23.774h1.585v1.585h-1.585z M42.792 23.774h1.585v1.585h-1.585z M45.962 23.774h1.585v1.585h-1.585z M50.717 23.774h1.585v1.585h-1.585z M57.057 23.774h4.755v1.585h-4.755z M64.981 23.774h1.585v1.585h-1.585z M68.151 23.774h3.17v1.585h-3.17z M72.906 23.774h6.34v1.585h-6.34z M82.415 23.774h1.585v1.585h-1.585z M0.0 25.358h4.755v1.585h-4.755z M7.925 25.358h3.17v1.585h-3.17z M17.434 25.358h1.585v1.585h-1.585z M22.189 25.358h9.509v1.585h-9.509z M33.283 25.358h1.585v1.585h-1.585z M38.038 25.358h3.17v1.585h-3.17z M45.962 25.358h1.585v1.585h-1.585z M50.717 25.358h1.585v1.585h-1.585z M53.887 25.358h4.755v1.585h-4.755z M64.981 25.358h4.755v1.585h-4.755z M71.321 25.358h1.585v1.585h-1.585z M74.491 25.358h3.17v1.585h-3.17z M79.245 25.358h3.17v1.585h-3.17z M1.585 26.943h7.925v1.585h-7.925z M11.094 26.943h11.094v1.585h-11.094z M26.943 26.943h4.755v1.585h-4.755z M34.868 26.943h1.585v1.585h-1.585z M42.792 26.943h6.34v1.585h-6.34z M52.302 26.943h4.755v1.585h-4.755z M60.226 26.943h1.585v1.585h-1.585z M63.396 26.943h9.509v1.585h-9.509z M82.415 26.943h1.585v1.585h-1.585z M4.755 28.528h3.17v1.585h-3.17z M9.509 28.528h3.17v1.585h-3.17z M14.264 28.528h3.17v1.585h-3.17z M19.019 28.528h1.585v1.585h-1.585z M23.774 28.528h7.925v1.585h-7.925z M38.038 28.528h4.755v1.585h-4.755z M44.377 28.528h6.34v1.585h-6.34z M52.302 28.528h4.755v1.585h-4.755z M71.321 28.528h1.585v1.585h-1.585z M74.491 28.528h1.585v1.585h-1.585z M77.66 28.528h3.17v1.585h-3.17z M82.415 28.528h1.585v1.585h-1.585z M0.0 30.113h4.755v1.585h-4.755z M14.264 30.113h1.585v1.585h-1.585z M19.019 30.113h3.17v1.585h-3.17z M26.943 30.113h1.585v1.585h-1.585z M33.283 30.113h1.585v1.585h-1.585z M39.623 30.113h1.585v1.585h-1.585z M45.962 30.113h1.585v1.585h-1.585z M49.132 30.113h1.585v1.585h-1.585z M52.302 30.113h3.17v1.585h-3.17z M57.057 30.113h1.585v1.585h-1.585z M63.396 30.113h1.585v1.585h-1.585z M68.151 30.113h1.585v1.585h-1.585z M74.491 30.113h4.755v1.585h-4.755z M1.585 31.698h3.17v1.585h-3.17z M6.34 31.698h1.585v1.585h-1.585z M9.509 31.698h12.679v1.585h-12.679z M25.358 31.698h3.17v1.585h-3.17z M31.698 31.698h4.755v1.585h-4.755z M38.038 31.698h9.509v1.585h-9.509z M50.717 31.698h3.17v1.585h-3.17z M55.472 31.698h3.17v1.585h-3.17z M60.226 31.698h1.585v1.585h-1.585z M64.981 31.698h3.17v1.585h-3.17z M72.906 31.698h4.755v1.585h-4.755z M80.83 31.698h1.585v1.585h-1.585z M3.17 33.283h1.585v1.585h-1.585z M6.34 33.283h3.17v1.585h-3.17z M11.094 33.283h1.585v1.585h-1.585z M14.264 33.283h1.585v1.585h-1.585z M17.434 33.283h1.585v1.585h-1.585z M22.189 33.283h3.17v1.585h-3.17z M26.943 33.283h1.585v1.585h-1.585z M36.453 33.283h3.17v1.585h-3.17z M45.962 33.283h3.17v1.585h-3.17z M50.717 33.283h3.17v1.585h-3.17z M57.057 33.283h6.34v1.585h-6.34z M64.981 33.283h3.17v1.585h-3.17z M69.736 33.283h3.17v1.585h-3.17z M74.491 33.283h1.585v1.585h-1.585z M82.415 33.283h1.585v1.585h-1.585z M3.17 34.868h1.585v1.585h-1.585z M6.34 34.868h1.585v1.585h-1.585z M9.509 34.868h1.585v1.585h-1.585z M14.264 34.868h4.755v1.585h-4.755z M23.774 34.868h1.585v1.585h-1.585z M26.943 34.868h4.755v1.585h-4.755z M36.453 34.868h1.585v1.585h-1.585z M45.962 34.868h3.17v1.585h-3.17z M50.717 34.868h3.17v1.585h-3.17z M58.642 34.868h1.585v1.585h-1.585z M61.811 34.868h3.17v1.585h-3.17z M68.151 34.868h4.755v1.585h-4.755z M77.66 34.868h3.17v1.585h-3.17z M82.415 34.868h1.585v1.585h-1.585z M0.0 36.453h1.585v1.585h-1.585z M4.755 36.453h1.585v1.585h-1.585z M7.925 36.453h1.585v1.585h-1.585z M12.679 36.453h7.925v1.585h-7.925z M23.774 36.453h1.585v1.585h-1.585z M30.113 36.453h1.585v1.585h-1.585z M38.038 36.453h3.17v1.585h-3.17z M42.792 36.453h1.585v1.585h-1.585z M45.962 36.453h1.585v1.585h-1.585z M50.717 36.453h6.34v1.585h-6.34z M58.642 36.453h1.585v1.585h-1.585z M61.811 36.453h1.585v1.585h-1.585z M64.981 36.453h6.34v1.585h-6.34z M72.906 36.453h1.585v1.585h-1.585z M76.075 36.453h3.17v1.585h-3.17z M1.585 38.038h3.17v1.585h-3.17z M6.34 38.038h11.094v1.585h-11.094z M19.019 38.038h7.925v1.585h-7.925z M31.698 38.038h1.585v1.585h-1.585z M38.038 38.038h7.925v1.585h-7.925z M49.132 38.038h3.17v1.585h-3.17z M53.887 38.038h3.17v1.585h-3.17z M58.642 38.038h4.755v1.585h-4.755z M64.981 38.038h3.17v1.585h-3.17z M69.736 38.038h7.925v1.585h-7.925z M79.245 38.038h1.585v1.585h-1.585z M6.34 39.623h1.585v1.585h-1.585z M12.679 39.623h3.17v1.585h-3.17z M19.019 39.623h3.17v1.585h-3.17z M23.774 39.623h4.755v1.585h-4.755z M31.698 39.623h7.925v1.585h-7.925z M44.377 39.623h6.34v1.585h-6.34z M52.302 39.623h1.585v1.585h-1.585z M60.226 39.623h1.585v1.585h-1.585z M63.396 39.623h1.585v1.585h-1.585z M66.566 39.623h1.585v1.585h-1.585z M69.736 39.623h1.585v1.585h-1.585z M76.075 39.623h1.585v1.585h-1.585z M79.245 39.623h4.755v1.585h-4.755z M0.0 41.208h3.17v1.585h-3.17z M6.34 41.208h1.585v1.585h-1.585z M9.509 41.208h1.585v1.585h-1.585z M12.679 41.208h3.17v1.585h-3.17z M17.434 41.208h3.17v1.585h-3.17z M22.189 41.208h1.585v1.585h-1.585z M31.698 41.208h4.755v1.585h-4.755z M38.038 41.208h1.585v1.585h-1.585z M41.208 41.208h1.585v1.585h-1.585z M44.377 41.208h1.585v1.585h-1.585z M49.132 41.208h4.755v1.585h-4.755z M57.057 41.208h4.755v1.585h-4.755z M64.981 41.208h6.34v1.585h-6.34z M72.906 41.208h1.585v1.585h-1.585z M76.075 41.208h1.585v1.585h-1.585z M80.83 41.208h3.17v1.585h-3.17z M0.0 42.792h3.17v1.585h-3.17z M6.34 42.792h1.585v1.585h-1.585z M12.679 42.792h1.585v1.585h-1.585z M15.849 42.792h1.585v1.585h-1.585z M20.604 42.792h6.34v1.585h-6.34z M30.113 42.792h3.17v1.585h-3.17z M34.868 42.792h1.585v1.585h-1.585z M38.038 42.792h1.585v1.585h-1.585z M44.377 42.792h1.585v1.585h-1.585z M49.132 42.792h1.585v1.585h-1.585z M55.472 42.792h9.509v1.585h-9.509z M69.736 42.792h1.585v1.585h-1.585z M76.075 42.792h3.17v1.585h-3.17z M80.83 42.792h3.17v1.585h-3.17z M1.585 44.377h12.679v1.585h-12.679z M15.849 44.377h3.17v1.585h-3.17z M22.189 44.377h3.17v1.585h-3.17z M30.113 44.377h1.585v1.585h-1.585z M33.283 44.377h1.585v1.585h-1.585z M38.038 44.377h20.604v1.585h-20.604z M61.811 44.377h1.585v1.585h-1.585z M64.981 44.377h3.17v1.585h-3.17z M69.736 44.377h7.925v1.585h-7.925z M1.585 45.962h1.585v1.585h-1.585z M6.34 45.962h1.585v1.585h-1.585z M11.094 45.962h4.755v1.585h-4.755z M17.434 45.962h1.585v1.585h-1.585z M20.604 45.962h3.17v1.585h-3.17z M25.358 45.962h1.585v1.585h-1.585z M28.528 45.962h1.585v1.585h-1.585z M33.283 45.962h4.755v1.585h-4.755z M39.623 45.962h1.585v1.585h-1.585z M42.792 45.962h6.34v1.585h-6.34z M50.717 45.962h3.17v1.585h-3.17z M57.057 45.962h1.585v1.585h-1.585z M60.226 45.962h12.679v1.585h-12.679z M76.075 45.962h1.585v1.585h-1.585z M79.245 45.962h1.585v1.585h-1.585z M82.415 45.962h1.585v1.585h-1.585z M0.0 47.547h4.755v1.585h-4.755z M6.34 47.547h1.585v1.585h-1.585z M9.509 47.547h7.925v1.585h-7.925z M19.019 47.547h1.585v1.585h-1.585z M28.528 47.547h1.585v1.585h-1.585z M31.698 47.547h1.585v1.585h-1.585z M34.868 47.547h12.679v1.585h-12.679z M53.887 47.547h1.585v1.585h-1.585z M58.642 47.547h1.585v1.585h-1.585z M64.981 47.547h4.755v1.585h-4.755z M72.906 47.547h1.585v1.585h-1.585z M77.66 47.547h1.585v1.585h-1.585z M82.415 47.547h1.585v1.585h-1.585z M0.0 49.132h3.17v1.585h-3.17z M6.34 49.132h3.17v1.585h-3.17z M11.094 49.132h1.585v1.585h-1.585z M14.264 49.132h1.585v1.585h-1.585z M22.189 49.132h3.17v1.585h-3.17z M26.943 49.132h3.17v1.585h-3.17z M33.283 49.132h6.34v1.585h-6.34z M41.208 49.132h1.585v1.585h-1.585z M44.377 49.132h1.585v1.585h-1.585z M47.547 49.132h3.17v1.585h-3.17z M55.472 49.132h6.34v1.585h-6.34z M64.981 49.132h1.585v1.585h-1.585z M68.151 49.132h3.17v1.585h-3.17z M74.491 49.132h1.585v1.585h-1.585z M0.0 50.717h1.585v1.585h-1.585z M4.755 50.717h1.585v1.585h-1.585z M9.509 50.717h1.585v1.585h-1.585z M14.264 50.717h1.585v1.585h-1.585z M17.434 50.717h1.585v1.585h-1.585z M20.604 50.717h1.585v1.585h-1.585z M30.113 50.717h4.755v1.585h-4.755z M42.792 50.717h3.17v1.585h-3.17z M50.717 50.717h9.509v1.585h-9.509z M61.811 50.717h1.585v1.585h-1.585z M64.981 50.717h1.585v1.585h-1.585z M68.151 50.717h3.17v1.585h-3.17z M72.906 50.717h3.17v1.585h-3.17z M77.66 50.717h1.585v1.585h-1.585z M82.415 50.717h1.585v1.585h-1.585z M3.17 52.302h1.585v1.585h-1.585z M6.34 52.302h3.17v1.585h-3.17z M14.264 52.302h1.585v1.585h-1.585z M23.774 52.302h1.585v1.585h-1.585z M26.943 52.302h1.585v1.585h-1.585z M31.698 52.302h3.17v1.585h-3.17z M36.453 52.302h1.585v1.585h-1.585z M39.623 52.302h7.925v1.585h-7.925z M52.302 52.302h1.585v1.585h-1.585z M60.226 52.302h7.925v1.585h-7.925z M72.906 52.302h4.755v1.585h-4.755z M82.415 52.302h1.585v1.585h-1.585z M3.17 53.887h1.585v1.585h-1.585z M6.34 53.887h1.585v1.585h-1.585z M9.509 53.887h1.585v1.585h-1.585z M12.679 53.887h3.17v1.585h-3.17z M19.019 53.887h4.755v1.585h-4.755z M25.358 53.887h1.585v1.585h-1.585z M28.528 53.887h3.17v1.585h-3.17z M36.453 53.887h6.34v1.585h-6.34z M44.377 53.887h3.17v1.585h-3.17z M49.132 53.887h4.755v1.585h-4.755z M55.472 53.887h1.585v1.585h-1.585z M58.642 53.887h3.17v1.585h-3.17z M64.981 53.887h11.094v1.585h-11.094z M77.66 53.887h3.17v1.585h-3.17z M82.415 53.887h1.585v1.585h-1.585z M0.0 55.472h1.585v1.585h-1.585z M3.17 55.472h1.585v1.585h-1.585z M14.264 55.472h4.755v1.585h-4.755z M20.604 55.472h1.585v1.585h-1.585z M26.943 55.472h3.17v1.585h-3.17z M31.698 55.472h6.34v1.585h-6.34z M39.623 55.472h3.17v1.585h-3.17z M44.377 55.472h1.585v1.585h-1.585z M47.547 55.472h12.679v1.585h-12.679z M61.811 55.472h1.585v1.585h-1.585z M69.736 55.472h3.17v1.585h-3.17z M74.491 55.472h1.585v1.585h-1.585z M80.83 55.472h1.585v1.585h-1.585z M0.0 57.057h4.755v1.585h-4.755z M7.925 57.057h3.17v1.585h-3.17z M17.434 57.057h6.34v1.585h-6.34z M26.943 57.057h1.585v1.585h-1.585z M30.113 57.057h4.755v1.585h-4.755z M41.208 57.057h6.34v1.585h-6.34z M50.717 57.057h3.17v1.585h-3.17z M55.472 57.057h6.34v1.585h-6.34z M64.981 57.057h1.585v1.585h-1.585z M68.151 57.057h1.585v1.585h-1.585z M71.321 57.057h3.17v1.585h-3.17z M1.585 58.642h1.585v1.585h-1.585z M4.755 58.642h1.585v1.585h-1.585z M11.094 58.642h1.585v1.585h-1.585z M17.434 58.642h1.585v1.585h-1.585z M20.604 58.642h3.17v1.585h-3.17z M34.868 58.642h4.755v1.585h-4.755z M45.962 58.642h3.17v1.585h-3.17z M55.472 58.642h3.17v1.585h-3.17z M60.226 58.642h1.585v1.585h-1.585z M64.981 58.642h3.17v1.585h-3.17z M69.736 58.642h7.925v1.585h-7.925z M79.245 58.642h1.585v1.585h-1.585z M1.585 60.226h1.585v1.585h-1.585z M4.755 60.226h1.585v1.585h-1.585z M9.509 60.226h1.585v1.585h-1.585z M14.264 60.226h3.17v1.585h-3.17z M20.604 60.226h1.585v1.585h-1.585z M23.774 60.226h1.585v1.585h-1.585z M26.943 60.226h1.585v1.585h-1.585z M33.283 60.226h7.925v1.585h-7.925z M45.962 60.226h6.34v1.585h-6.34z M53.887 60.226h1.585v1.585h-1.585z M60.226 60.226h3.17v1.585h-3.17z M68.151 60.226h6.34v1.585h-6.34z M79.245 60.226h1.585v1.585h-1.585z M82.415 60.226h1.585v1.585h-1.585z M0.0 61.811h3.17v1.585h-3.17z M7.925 61.811h1.585v1.585h-1.585z M11.094 61.811h1.585v1.585h-1.585z M14.264 61.811h3.17v1.585h-3.17z M22.189 61.811h3.17v1.585h-3.17z M26.943 61.811h4.755v1.585h-4.755z M34.868 61.811h1.585v1.585h-1.585z M38.038 61.811h3.17v1.585h-3.17z M44.377 61.811h1.585v1.585h-1.585z M47.547 61.811h4.755v1.585h-4.755z M53.887 61.811h11.094v1.585h-11.094z M66.566 61.811h3.17v1.585h-3.17z M77.66 61.811h1.585v1.585h-1.585z M0.0 63.396h1.585v1.585h-1.585z M4.755 63.396h3.17v1.585h-3.17z M9.509 63.396h3.17v1.585h-3.17z M14.264 63.396h1.585v1.585h-1.585z M19.019 63.396h1.585v1.585h-1.585z M22.189 63.396h7.925v1.585h-7.925z M36.453 63.396h1.585v1.585h-1.585z M41.208 63.396h3.17v1.585h-3.17z M45.962 63.396h1.585v1.585h-1.585z M50.717 63.396h9.509v1.585h-9.509z M61.811 63.396h4.755v1.585h-4.755z M68.151 63.396h4.755v1.585h-4.755z M74.491 63.396h1.585v1.585h-1.585z M77.66 63.396h1.585v1.585h-1.585z M80.83 63.396h3.17v1.585h-3.17z M3.17 64.981h6.34v1.585h-6.34z M12.679 64.981h1.585v1.585h-1.585z M15.849 64.981h1.585v1.585h-1.585z M20.604 64.981h1.585v1.585h-1.585z M25.358 64.981h1.585v1.585h-1.585z M33.283 64.981h1.585v1.585h-1.585z M36.453 64.981h1.585v1.585h-1.585z M41.208 64.981h3.17v1.585h-3.17z M45.962 64.981h7.925v1.585h-7.925z M55.472 64.981h1.585v1.585h-1.585z M63.396 64.981h4.755v1.585h-4.755z M69.736 64.981h3.17v1.585h-3.17z M74.491 64.981h6.34v1.585h-6.34z M82.415 64.981h1.585v1.585h-1.585z M0.0 66.566h3.17v1.585h-3.17z M4.755 66.566h6.34v1.585h-6.34z M14.264 66.566h4.755v1.585h-4.755z M20.604 66.566h1.585v1.585h-1.585z M25.358 66.566h6.34v1.585h-6.34z M33.283 66.566h6.34v1.585h-6.34z M42.792 66.566h1.585v1.585h-1.585z M47.547 66.566h3.17v1.585h-3.17z M52.302 66.566h1.585v1.585h-1.585z M57.057 66.566h1.585v1.585h-1.585z M64.981 66.566h3.17v1.585h-3.17z M72.906 66.566h1.585v1.585h-1.585z M77.66 66.566h3.17v1.585h-3.17z M82.415 66.566h1.585v1.585h-1.585z M1.585 68.151h3.17v1.585h-3.17z M11.094 68.151h3.17v1.585h-3.17z M20.604 68.151h3.17v1.585h-3.17z M25.358 68.151h4.755v1.585h-4.755z M34.868 68.151h1.585v1.585h-1.585z M41.208 68.151h6.34v1.585h-6.34z M50.717 68.151h3.17v1.585h-3.17z M58.642 68.151h1.585v1.585h-1.585z M61.811 68.151h1.585v1.585h-1.585z M66.566 68.151h3.17v1.585h-3.17z M71.321 68.151h1.585v1.585h-1.585z M77.66 68.151h1.585v1.585h-1.585z M80.83 68.151h3.17v1.585h-3.17z M4.755 69.736h1.585v1.585h-1.585z M9.509 69.736h9.509v1.585h-9.509z M22.189 69.736h1.585v1.585h-1.585z M33.283 69.736h1.585v1.585h-1.585z M38.038 69.736h9.509v1.585h-9.509z M50.717 69.736h3.17v1.585h-3.17z M57.057 69.736h1.585v1.585h-1.585z M61.811 69.736h1.585v1.585h-1.585z M64.981 69.736h1.585v1.585h-1.585z M68.151 69.736h11.094v1.585h-11.094z M80.83 69.736h1.585v1.585h-1.585z M12.679 71.321h1.585v1.585h-1.585z M15.849 71.321h1.585v1.585h-1.585z M19.019 71.321h1.585v1.585h-1.585z M22.189 71.321h7.925v1.585h-7.925z M33.283 71.321h6.34v1.585h-6.34z M44.377 71.321h4.755v1.585h-4.755z M52.302 71.321h1.585v1.585h-1.585z M55.472 71.321h3.17v1.585h-3.17z M60.226 71.321h3.17v1.585h-3.17z M66.566 71.321h1.585v1.585h-1.585z M69.736 71.321h1.585v1.585h-1.585z M76.075 71.321h1.585v1.585h-1.585z M79.245 71.321h4.755v1.585h-4.755z M0.0 72.906h11.094v1.585h-11.094z M12.679 72.906h4.755v1.585h-4.755z M19.019 72.906h1.585v1.585h-1.585z M22.189 72.906h3.17v1.585h-3.17z M30.113 72.906h1.585v1.585h-1.585z M36.453 72.906h3.17v1.585h-3.17z M41.208 72.906h1.585v1.585h-1.585z M44.377 72.906h3.17v1.585h-3.17z M49.132 72.906h3.17v1.585h-3.17z M55.472 72.906h1.585v1.585h-1.585z M60.226 72.906h6.34v1.585h-6.34z M68.151 72.906h3.17v1.585h-3.17z M72.906 72.906h1.585v1.585h-1.585z M76.075 72.906h1.585v1.585h-1.585z M80.83 72.906h3.17v1.585h-3.17z M0.0 74.491h1.585v1.585h-1.585z M9.509 74.491h1.585v1.585h-1.585z M19.019 74.491h3.17v1.585h-3.17z M23.774 74.491h1.585v1.585h-1.585z M28.528 74.491h6.34v1.585h-6.34z M36.453 74.491h3.17v1.585h-3.17z M44.377 74.491h1.585v1.585h-1.585z M47.547 74.491h1.585v1.585h-1.585z M53.887 74.491h1.585v1.585h-1.585z M57.057 74.491h1.585v1.585h-1.585z M63.396 74.491h3.17v1.585h-3.17z M68.151 74.491h3.17v1.585h-3.17z M76.075 74.491h3.17v1.585h-3.17z M80.83 74.491h1.585v1.585h-1.585z M0.0 76.075h1.585v1.585h-1.585z M3.17 76.075h4.755v1.585h-4.755z M9.509 76.075h1.585v1.585h-1.585z M12.679 76.075h1.585v1.585h-1.585z M20.604 76.075h4.755v1.585h-4.755z M28.528 76.075h1.585v1.585h-1.585z M31.698 76.075h4.755v1.585h-4.755z M38.038 76.075h11.094v1.585h-11.094z M55.472 76.075h3.17v1.585h-3.17z M61.811 76.075h1.585v1.585h-1.585z M64.981 76.075h1.585v1.585h-1.585z M69.736 76.075h7.925v1.585h-7.925z M0.0 77.66h1.585v1.585h-1.585z M3.17 77.66h4.755v1.585h-4.755z M9.509 77.66h1.585v1.585h-1.585z M17.434 77.66h1.585v1.585h-1.585z M22.189 77.66h4.755v1.585h-4.755z M28.528 77.66h4.755v1.585h-4.755z M36.453 77.66h3.17v1.585h-3.17z M41.208 77.66h3.17v1.585h-3.17z M45.962 77.66h4.755v1.585h-4.755z M52.302 77.66h1.585v1.585h-1.585z M55.472 77.66h3.17v1.585h-3.17z M60.226 77.66h9.509v1.585h-9.509z M74.491 77.66h3.17v1.585h-3.17z M80.83 77.66h1.585v1.585h-1.585z M0.0 79.245h1.585v1.585h-1.585z M3.17 79.245h4.755v1.585h-4.755z M9.509 79.245h1.585v1.585h-1.585z M19.019 79.245h1.585v1.585h-1.585z M23.774 79.245h1.585v1.585h-1.585z M26.943 79.245h3.17v1.585h-3.17z M34.868 79.245h3.17v1.585h-3.17z M41.208 79.245h1.585v1.585h-1.585z M49.132 79.245h4.755v1.585h-4.755z M55.472 79.245h1.585v1.585h-1.585z M60.226 79.245h9.509v1.585h-9.509z M72.906 79.245h1.585v1.585h-1.585z M77.66 79.245h4.755v1.585h-4.755z M0.0 80.83h1.585v1.585h-1.585z M9.509 80.83h1.585v1.585h-1.585z M14.264 80.83h1.585v1.585h-1.585z M17.434 80.83h3.17v1.585h-3.17z M23.774 80.83h1.585v1.585h-1.585z M26.943 80.83h1.585v1.585h-1.585z M31.698 80.83h3.17v1.585h-3.17z M38.038 80.83h4.755v1.585h-4.755z M44.377 80.83h3.17v1.585h-3.17z M49.132 80.83h1.585v1.585h-1.585z M53.887 80.83h1.585v1.585h-1.585z M57.057 80.83h3.17v1.585h-3.17z M61.811 80.83h1.585v1.585h-1.585z M66.566 80.83h1.585v1.585h-1.585z M69.736 80.83h1.585v1.585h-1.585z M72.906 80.83h1.585v1.585h-1.585z M80.83 80.83h3.17v1.585h-3.17z M0.0 82.415h11.094v1.585h-11.094z M12.679 82.415h1.585v1.585h-1.585z M15.849 82.415h1.585v1.585h-1.585z M20.604 82.415h4.755v1.585h-4.755z M26.943 82.415h3.17v1.585h-3.17z M31.698 82.415h3.17v1.585h-3.17z M36.453 82.415h3.17v1.585h-3.17z M45.962 82.415h3.17v1.585h-3.17z M50.717 82.415h12.679v1.585h-12.679z M66.566 82.415h4.755v1.585h-4.755z M72.906 82.415h4.755v1.585h-4.755z M80.83 82.415h1.585v1.585h-1.585z"/>
</g>
<text x="1122" y="614" font-family="Inter, Helvetica, Arial, sans-serif" font-size="10" font-weight="700" fill="#F5F7FA" text-anchor="middle">scan / full post</text>
</svg>
