<svg xmlns="http://www.w3.org/2000/svg" width="1200" height="630" aria-label="security SPF DKIM DMARC SendGrid" viewBox="0 0 1200 630"><title>SPF DKIM DMARC SendGrid</title><!--profile: high-quality-cover (2025 upgraded L25-single)--><defs><linearGradient id="bgSpreadX7378" x1="0%" x2="100%" y1="0%" y2="100%"><stop offset="0%" stop-color="#0b1120"/><stop offset="52%" stop-color="#121a2f"/><stop offset="100%" stop-color="#170f25"/></linearGradient><linearGradient id="heroPanelX7378" x1="0%" x2="100%" y1="0%" y2="100%"><stop offset="0%" stop-color="#0f172a"/><stop offset="100%" stop-color="#111827" stop-opacity=".9"/></linearGradient><filter id="sgBlur" width="160%" height="160%" x="-30%" y="-30%"><feGaussianBlur stdDeviation="36"/></filter><filter id="singleShadow" width="180%" height="180%" x="-30%" y="-30%"><feDropShadow dx="0" dy="14" flood-color="#020617" flood-opacity=".4" stdDeviation="22"/></filter><pattern id="microGridX7378" width="36" height="36" x="0" y="0" patternUnits="userSpaceOnUse"><path fill="none" stroke="#334155" d="M36 0H0v36" opacity=".3"/><circle cx="18" cy="18" r="1.2" fill="#ef4444" opacity=".2"/></pattern></defs><path fill="url(#bgSpreadX7378)" d="M0 0h1200v630H0z"/><path fill="url(#microGridX7378)" d="M0 0h1200v630H0z"/><circle cx="202" cy="150" r="190" fill="#ef4444" filter="url(#sgBlur)" opacity=".1"/><circle cx="1020" cy="486" r="220" fill="#991b1b" filter="url(#sgBlur)" opacity=".1"/><circle cx="920" cy="160" r="140" fill="#38bdf8" filter="url(#sgBlur)" opacity=".1"/><path fill="#020617" d="M0 96c224-50 426-52 654 22v512H0Z" opacity=".2"/><path fill="none" stroke="#475569" stroke-width="1.2" d="M0 526c248-36 426-40 654 22" opacity=".2"/><path fill="none" stroke="#38bdf8" stroke-width="1.3" d="M704 148c88-30 188-26 276 28" opacity=".2"/><path fill="none" stroke="#ef4444" stroke-width="1.2" d="M716 430c88 32 198 28 294-40" opacity=".2"/><rect width="388" height="292" x="720" y="132" fill="url(#heroPanelX7378)" stroke="#ef4444" stroke-opacity=".3" stroke-width="1.4" filter="url(#singleShadow)" rx="28"/><rect width="352" height="256" x="738" y="150" fill="none" stroke="#334155" stroke-opacity=".7" rx="22"/><rect width="108" height="12" x="742" y="152" fill="#ef4444" opacity=".3" rx="6"/><rect width="72" height="12" x="864" y="152" fill="#334155" opacity=".6" rx="6"/><rect width="48" height="12" x="948" y="152" fill="#334155" opacity=".3" rx="6"/><path fill="#ef4444" d="M742 156h6v6h-6zm8 0h6v6h-6zm8 0h6v6h-6zm8 0h6v6h-6zm16 0h6v6h-6zm8 0h6v6h-6zm8 0h6v6h-6zm-56 8h6v6h-6zm32 0h6v6h-6zm16 0h6v6h-6zm8 0h6v6h-6zm-56 8h6v6h-6zm16 0h6v6h-6zm16 0h6v6h-6zm16 0h6v6h-6zm-48 8h6v6h-6zm32 0h6v6h-6zm8 0h6v6h-6zm8 0h6v6h-6zm8 0h6v6h-6zm-56 8h6v6h-6zm8 0h6v6h-6zm8 0h6v6h-6zm8 0h6v6h-6zm24 0h6v6h-6zm8 0h6v6h-6zm-40 8h6v6h-6zm8 0h6v6h-6zm8 0h6v6h-6zm8 0h6v6h-6zm8 0h6v6h-6zm-48 8h6v6h-6zm8 0h6v6h-6zm32 0h6v6h-6zm8 0h6v6h-6zm-40 8h6v6h-6zm8 0h6v6h-6zm16 0h6v6h-6zm16 0h6v6h-6zm8 0h6v6h-6z" opacity=".4"/><circle cx="1010" cy="60" r="1.4" fill="#38bdf8" opacity=".2"/><circle cx="1024" cy="60" r="1.4" fill="#38bdf8" opacity=".3"/><circle cx="1038" cy="60" r="1.4" fill="#38bdf8" opacity=".3"/><circle cx="1052" cy="60" r="1.4" fill="#38bdf8" opacity=".2"/><circle cx="1066" cy="60" r="1.4" fill="#38bdf8" opacity=".3"/><circle cx="1080" cy="60" r="1.4" fill="#38bdf8" opacity=".3"/><circle cx="1094" cy="60" r="1.4" fill="#38bdf8" opacity=".2"/><circle cx="1108" cy="60" r="1.4" fill="#38bdf8" opacity=".3"/><circle cx="1010" cy="72" r="1.4" fill="#38bdf8" opacity=".2"/><circle cx="1024" cy="72" r="1.4" fill="#38bdf8" opacity=".3"/><circle cx="1038" cy="72" r="1.4" fill="#38bdf8" opacity=".3"/><circle cx="1052" cy="72" r="1.4" fill="#38bdf8" opacity=".2"/><circle cx="1066" cy="72" r="1.4" fill="#38bdf8" opacity=".3"/><circle cx="1080" cy="72" r="1.4" fill="#38bdf8" opacity=".3"/><circle cx="1094" cy="72" r="1.4" fill="#38bdf8" opacity=".2"/><circle cx="1108" cy="72" r="1.4" fill="#38bdf8" opacity=".3"/><circle cx="1010" cy="84" r="1.4" fill="#38bdf8" opacity=".2"/><circle cx="1024" cy="84" r="1.4" fill="#38bdf8" opacity=".3"/><circle cx="1038" cy="84" r="1.4" fill="#38bdf8" opacity=".3"/><circle cx="1052" cy="84" r="1.4" fill="#38bdf8" opacity=".2"/><circle cx="1066" cy="84" r="1.4" fill="#38bdf8" opacity=".3"/><circle cx="1080" cy="84" r="1.4" fill="#38bdf8" opacity=".3"/><circle cx="1094" cy="84" r="1.4" fill="#38bdf8" opacity=".2"/><circle cx="1108" cy="84" r="1.4" fill="#38bdf8" opacity=".3"/><circle cx="1010" cy="96" r="1.4" fill="#38bdf8" opacity=".2"/><circle cx="1024" cy="96" r="1.4" fill="#38bdf8" opacity=".3"/><circle cx="1038" cy="96" r="1.4" fill="#38bdf8" opacity=".3"/><circle cx="1052" cy="96" r="1.4" fill="#38bdf8" opacity=".2"/><circle cx="1066" cy="96" r="1.4" fill="#38bdf8" opacity=".3"/><circle cx="1080" cy="96" r="1.4" fill="#38bdf8" opacity=".3"/><circle cx="1094" cy="96" r="1.4" fill="#38bdf8" opacity=".2"/><circle cx="1108" cy="96" r="1.4" fill="#38bdf8" opacity=".3"/><circle cx="1010" cy="108" r="1.4" fill="#38bdf8" opacity=".2"/><circle cx="1024" cy="108" r="1.4" fill="#38bdf8" opacity=".3"/><circle cx="1038" cy="108" r="1.4" fill="#38bdf8" opacity=".3"/><circle cx="1052" cy="108" r="1.4" fill="#38bdf8" opacity=".2"/><circle cx="1066" cy="108" r="1.4" fill="#38bdf8" opacity=".3"/><circle cx="1080" cy="108" r="1.4" fill="#38bdf8" opacity=".3"/><circle cx="1094" cy="108" r="1.4" fill="#38bdf8" opacity=".2"/><circle cx="1108" cy="108" r="1.4" fill="#38bdf8" opacity=".3"/><circle cx="1010" cy="120" r="1.4" fill="#38bdf8" opacity=".2"/><circle cx="1024" cy="120" r="1.4" fill="#38bdf8" opacity=".3"/><circle cx="1038" cy="120" r="1.4" fill="#38bdf8" opacity=".3"/><circle cx="1052" cy="120" r="1.4" fill="#38bdf8" opacity=".2"/><circle cx="1066" cy="120" r="1.4" fill="#38bdf8" opacity=".3"/><circle cx="1080" cy="120" r="1.4" fill="#38bdf8" opacity=".3"/><circle cx="1094" cy="120" r="1.4" fill="#38bdf8" opacity=".2"/><circle cx="1108" cy="120" r="1.4" fill="#38bdf8" opacity=".3"/><text x="740" y="162" fill="#38bdf8" font-family="Arial,sans-serif" font-size="9" font-weight="700" opacity=".6" text-anchor="middle">01</text><text x="1090" y="162" fill="#38bdf8" font-family="Arial,sans-serif" font-size="9" font-weight="700" opacity=".6" text-anchor="middle">02</text><text x="740" y="412" fill="#38bdf8" font-family="Arial,sans-serif" font-size="9" font-weight="700" opacity=".6" text-anchor="middle">03</text><text x="1090" y="412" fill="#38bdf8" font-family="Arial,sans-serif" font-size="9" font-weight="700" opacity=".6" text-anchor="middle">04</text><text x="740" y="178" fill="#94a3b8" font-family="Arial,sans-serif" font-size="9" font-weight="700" opacity=".7">STATUS</text><text x="816" y="178" fill="#94a3b8" font-family="Arial,sans-serif" font-size="9" font-weight="700" opacity=".7">OK</text><text x="864" y="178" fill="#94a3b8" font-family="Arial,sans-serif" font-size="9" font-weight="700" opacity=".7">VER</text><text x="910" y="178" fill="#94a3b8" font-family="Arial,sans-serif" font-size="9" font-weight="700" opacity=".7">v1.0</text><text x="962" y="178" fill="#94a3b8" font-family="Arial,sans-serif" font-size="9" font-weight="700" opacity=".7">BUILD</text><text x="1024" y="178" fill="#94a3b8" font-family="Arial,sans-serif" font-size="9" font-weight="700" opacity=".7">STAB</text><text x="40" y="380" fill="#475569" font-family="Arial,sans-serif" font-size="8" font-weight="700" opacity=".7" text-anchor="middle">00</text><text x="40" y="410" fill="#475569" font-family="Arial,sans-serif" font-size="8" font-weight="700" opacity=".7" text-anchor="middle">01</text><text x="40" y="440" fill="#475569" font-family="Arial,sans-serif" font-size="8" font-weight="700" opacity=".7" text-anchor="middle">02</text><text x="40" y="470" fill="#475569" font-family="Arial,sans-serif" font-size="8" font-weight="700" opacity=".7" text-anchor="middle">03</text><text x="40" y="500" fill="#475569" font-family="Arial,sans-serif" font-size="8" font-weight="700" opacity=".7" text-anchor="middle">04</text><text x="1160" y="380" fill="#475569" font-family="Arial,sans-serif" font-size="8" font-weight="700" opacity=".7" text-anchor="middle">OK</text><text x="1160" y="410" fill="#475569" font-family="Arial,sans-serif" font-size="8" font-weight="700" opacity=".7" text-anchor="middle">RUN</text><text x="1160" y="440" fill="#475569" font-family="Arial,sans-serif" font-size="8" font-weight="700" opacity=".7" text-anchor="middle">OK</text><text x="1160" y="470" fill="#475569" font-family="Arial,sans-serif" font-size="8" font-weight="700" opacity=".7" text-anchor="middle">RUN</text><g filter="url(#singleShadow)" transform="translate(914,278)"><circle r="124" fill="none" stroke="#ef4444" stroke-dasharray="8 8" stroke-opacity=".2" stroke-width="1.2"/><rect width="180" height="116" x="-90" y="-58" fill="#0f172a" stroke="#ef4444" stroke-width="2.6" rx="10"/><path fill="none" stroke="#ef4444" stroke-opacity=".6" stroke-width="1.8" d="M-90-58 0 14l90-72"/><g font-family="Arial,sans-serif" font-size="10" font-weight="700"><g transform="translate(-72 24)"><circle r="7" fill="#38bdf8" fill-opacity=".5" stroke="#38bdf8" stroke-width="1.4"/><path fill="none" stroke="#0f172a" stroke-linecap="round" stroke-width="2" d="m-3 0 2 2 4-4"/><text x="14" y="3" fill="#f8fafc">SPF</text></g><g transform="translate(-12 24)"><circle r="7" fill="#38bdf8" fill-opacity=".5" stroke="#38bdf8" stroke-width="1.4"/><path fill="none" stroke="#0f172a" stroke-linecap="round" stroke-width="2" d="m-3 0 2 2 4-4"/><text x="14" y="3" fill="#f8fafc">DKIM</text></g><g transform="translate(54 24)"><circle r="7" fill="#38bdf8" fill-opacity=".5" stroke="#38bdf8" stroke-width="1.4"/><path fill="none" stroke="#0f172a" stroke-linecap="round" stroke-width="2" d="m-3 0 2 2 4-4"/><text x="-14" y="3" fill="#f8fafc" text-anchor="end">DMARC</text></g><text y="46" fill="#38bdf8" font-size="8" opacity=".7" text-anchor="middle">policy = reject  |  align = strict</text></g><text y="92" fill="#ef4444" font-family="Arial,sans-serif" font-size="11" font-weight="700" opacity=".8" text-anchor="middle">EMAIL TRUST</text><text y="108" fill="#38bdf8" font-family="Arial,sans-serif" font-size="10" opacity=".7" text-anchor="middle">SPF + DKIM + DMARC</text></g><g fill="#ef4444" transform="translate(84 66)"><rect width="160" height="36" stroke="#ef4444" stroke-width="1.2" opacity=".2" rx="18"/><text x="80" y="23" font-family="Arial,sans-serif" font-size="13" font-weight="700" text-anchor="middle">SECURITY</text></g><text x="84" y="170" fill="#f8fafc" font-family="Arial,sans-serif" font-size="54" font-weight="700" letter-spacing=".5">SPF DKIM DMARC</text><text x="84" y="232" fill="#dbeafe" font-family="Arial,sans-serif" font-size="54" font-weight="700" letter-spacing=".5">SENDGRID</text><text x="84" y="288" fill="#cbd5e1" font-family="Arial,sans-serif" font-size="18">SECURITY / SPF / DKIM</text><path fill="#334155" d="M84 314h520v1.5H84z" opacity=".9"/><text x="84" y="344" fill="#94a3b8" font-family="Arial,sans-serif" font-size="14" font-weight="700">VISUAL SYSTEM 737838B96011</text><text x="84" y="372" fill="#94a3b8" font-family="Arial,sans-serif" font-size="14">Email Delivery Trust Improvement SendGrid SPF DKIM DMARC Setup Complete</text><g transform="translate(84 474)"><rect width="120" height="38" fill="#ef4444" fill-opacity=".2" stroke="#ef4444" stroke-width="1.2" rx="19"/><text x="60" y="24" fill="#e2e8f0" font-family="Arial,sans-serif" font-size="13" font-weight="700" text-anchor="middle">SENDGRID</text></g><g transform="translate(218 474)"><rect width="110" height="38" fill="#ef4444" fill-opacity=".2" stroke="#ef4444" stroke-width="1.2" rx="19"/><text x="55" y="24" fill="#e2e8f0" font-family="Arial,sans-serif" font-size="13" font-weight="700" text-anchor="middle">SPF</text></g><g transform="translate(342 474)"><rect width="110" height="38" fill="#ef4444" fill-opacity=".2" stroke="#ef4444" stroke-width="1.2" rx="19"/><text x="55" y="24" fill="#e2e8f0" font-family="Arial,sans-serif" font-size="13" font-weight="700" text-anchor="middle">DKIM</text></g><g transform="translate(466 474)"><rect width="110" height="38" fill="#ef4444" fill-opacity=".2" stroke="#ef4444" stroke-width="1.2" rx="19"/><text x="55" y="24" fill="#e2e8f0" font-family="Arial,sans-serif" font-size="13" font-weight="700" text-anchor="middle">DMARC</text></g><g transform="translate(84 536)"><rect width="144" height="58" fill="#111827" fill-opacity=".8" stroke="#ef4444" stroke-opacity=".4" stroke-width="1.2" rx="16"/><text x="18" y="24" fill="#94a3b8" font-family="Arial,sans-serif" font-size="11" font-weight="700">VENDOR</text><text x="18" y="43" fill="#f8fafc" font-family="Arial,sans-serif" font-size="16" font-weight="700">SENDGRID</text></g><g transform="translate(246 536)"><rect width="144" height="58" fill="#111827" fill-opacity=".8" stroke="#ef4444" stroke-opacity=".4" stroke-width="1.2" rx="16"/><text x="18" y="24" fill="#94a3b8" font-family="Arial,sans-serif" font-size="11" font-weight="700">CONTROL</text><text x="18" y="43" fill="#f8fafc" font-family="Arial,sans-serif" font-size="16" font-weight="700">DMARC</text></g><g transform="translate(408 536)"><rect width="144" height="58" fill="#111827" fill-opacity=".8" stroke="#ef4444" stroke-opacity=".4" stroke-width="1.2" rx="16"/><text x="18" y="24" fill="#94a3b8" font-family="Arial,sans-serif" font-size="11" font-weight="700">ALIGN</text><text x="18" y="43" fill="#f8fafc" font-family="Arial,sans-serif" font-size="16" font-weight="700">STRICT</text></g><g transform="translate(1030 74)"><rect width="130" height="34" fill="#991b1b" stroke="#ef4444" stroke-width="1.2" opacity=".2" rx="17"/><text x="65" y="22" fill="#e2e8f0" font-family="Arial,sans-serif" font-size="12" font-weight="700" text-anchor="middle">June 5, 2025</text></g><path stroke="#334155" d="M50 588h1100" opacity=".5"/><text x="1150" y="612" fill="#94a3b8" font-family="Arial,sans-serif" font-size="13" text-anchor="end">tech.2twodragon.com</text><g filter="url(#softShadow)" transform="translate(1080,504)"><rect width="100" height="100" x="-8" y="-8" fill="#fff" rx="6"/><path fill="#0a1020" d="M0 0h12v1.7H0zm13.7 0H19v1.7h-5.2zm6.9 0h1.7v1.7h-1.7zM29 0h5.2v1.7H29zm7 0h1.7v1.7H36zm3.4 0H48v1.7h-8.6zm12 0h1.7v1.7h-1.7zM55 0h1.7v1.7H55zm5 0h5.1v1.7H60zm8.6 0h1.7v1.7h-1.7zM72 0h12v1.7H72zM0 1.7h1.7v1.7H0zm10.3 0H12v1.7h-1.7zm6.8 0H19v1.7h-2zm3.5 0h1.7v1.7h-1.7zm5.1 0h3.4v1.7h-3.4zm6.9 0h1.7v1.7h-1.7zm3.4 0h6.9v1.7H36zm8.6 0h1.7v1.7h-1.7zm5.1 0h8.6v1.7h-8.6zm12 0h1.7v1.7h-1.7zm3.4 0h5.2v1.7H65zm6.9 0h1.7v1.7H72zm10.3 0H84v1.7h-1.7zM0 3.4h1.7v1.7H0zm3.4 0h5.2v1.7H3.4zm6.9 0H12v1.7h-1.7zm5.1 0h5.2v1.7h-5.2zm8.6 0h1.7v1.7H24zm3.4 0h1.7v1.7h-1.7zm5.2 0h5.1v1.7h-5.1zm10.3 0h3.4v1.7h-3.4zm8.5 0h1.7v1.7h-1.7zm6.9 0h3.4v1.7h-3.4zm8.6 0h3.4v1.7h-3.4zm5.1 0h1.7v1.7H72zm3.4 0h5.2v1.7h-5.2zm6.9 0H84v1.7h-1.7zM0 5.1h1.7V7H0zm3.4 0h5.2V7H3.4zm6.9 0H12V7h-1.7zm3.4 0h1.7V7h-1.7zm8.6 0H24V7h-1.7zm3.4 0h3.4V7h-3.4zm6.9 0h1.7V7h-1.7zm5.1 0h3.4V7h-3.4zm5.2 0h3.4V7h-3.4zm5.1 0h1.7V7H48zm3.4 0H55V7h-3.5zm12 0h1.7V7h-1.7zm3.5 0h1.7V7h-1.7zm5.1 0h1.7V7H72zm3.4 0h5.2V7h-5.2zm6.9 0H84V7h-1.7zM0 7h1.7v1.7H0zm3.4 0h5.2v1.7H3.4zm6.9 0H12v1.7h-1.7zm3.4 0h3.4v1.7h-3.4zm5.2 0h3.4v1.7h-3.4zM24 7h3.4v1.7H24zm6.9 0H36v1.7h-5.1zm6.8 0H48v1.7H37.7zm12 0h3.4v1.7h-3.4zm5.2 0h3.4v1.7h-3.4zm6.8 0h1.7v1.7h-1.7zM72 7h1.7v1.7H72zm3.4 0h5.2v1.7h-5.2zm6.9 0H84v1.7h-1.7zM0 8.6h1.7v1.7H0zm10.3 0H12v1.7h-1.7zm3.4 0h3.4v1.7h-3.4zm5.2 0h6.8v1.7H19zm10.2 0H31v1.7h-2zm5.2 0h5.1v1.7h-5.1zm10.3 0H48v1.7h-3.4zm13.7 0h8.6v1.7h-8.6zm13.7 0h1.7v1.7H72zm10.3 0H84v1.7h-1.7zM0 10.3h12V12H0zm13.7 0h1.7V12h-1.7zm3.4 0H19V12h-2zm3.5 0h1.7V12h-1.7zm3.4 0h1.7V12H24zm3.4 0h1.7V12h-1.7zm3.5 0h1.7V12h-1.7zm3.4 0H36V12h-1.7zm3.4 0h1.7V12h-1.7zm3.4 0H43V12h-2zm3.5 0h1.7V12h-1.7zm3.4 0h1.7V12H48zm3.4 0h1.7V12h-1.7zm3.5 0h1.7V12h-1.7zm3.4 0H60V12h-1.7zm3.4 0h1.7V12h-1.7zm3.4 0H67V12h-2zm3.5 0h1.7V12h-1.7zm3.4 0h12V12H72zM13.7 12h3.4v1.7h-3.4zm5.2 0h1.7v1.7h-1.7zm8.5 0h5.2v1.7h-5.2zm10.3 0h1.7v1.7h-1.7zm6.9 0h1.7v1.7h-1.7zm10.3 0h1.7v1.7h-1.7zm8.5 0H67v1.7h-3.5zm5.2 0h1.7v1.7h-1.7zM0 13.7h1.7v1.7H0zm6.9 0h1.7v1.7H6.9zm3.4 0h8.6v1.7h-8.6zm10.3 0H24v1.7h-3.4zm5.1 0h1.7v1.7h-1.7zm3.4 0h3.5v1.7H29zm8.6 0H48v1.7H37.7zm12 0h3.4v1.7h-3.4zm5.2 0h8.5v1.7H55zm13.7 0h10.3v1.7H68.6zm13.7 0H84v1.7h-1.7zM6.9 15.4h3.4v1.7H6.9zm6.8 0h1.7v1.7h-1.7zm5.2 0h1.7v1.7h-1.7zm3.4 0H24v1.7h-1.7zm3.4 0h3.4v1.7h-3.4zm8.6 0H36v1.7h-1.7zm5.1 0H43v1.7h-3.5zm5.2 0h1.7v1.7h-1.7zm3.4 0h6.9v1.7H48zm8.6 0h1.7v1.7h-1.7zm5.1 0h1.7v1.7h-1.7zm3.4 0h3.5v1.7H65zm5.2 0h12v1.7h-12zM3.4 17.1H7V19H3.4zm6.9 0H12V19h-1.7zm3.4 0h3.4V19h-3.4zm5.2 0h1.7V19h-1.7zm6.8 0h8.6V19h-8.6zm13.7 0h1.7V19h-1.7zm3.5 0h6.8V19H43zm8.5 0H55V19h-3.5zm5.2 0H60V19h-3.4zm5.1 0h1.7V19h-1.7zm5.2 0h8.5V19H67zm13.7 0h1.7V19h-1.7zM1.7 19h1.7v1.7H1.7zm12 0H31v1.7H13.7zm18.9 0h1.7v1.7h-1.7zm5.1 0h3.4v1.7h-3.4zm5.2 0h1.7v1.7h-1.7zm3.4 0H48v1.7h-1.7zm3.4 0h1.7v1.7h-1.7zm5.2 0h3.4v1.7h-3.4zm6.8 0H67v1.7h-5.2zm6.9 0h5.1v1.7h-5.1zm10.3 0h3.4v1.7h-3.4zM0 20.6h1.7v1.7H0zm6.9 0H12v1.7H6.9zm8.5 0h1.7v1.7h-1.7zm3.5 0h1.7v1.7h-1.7zm5.1 0h1.7v1.7H24zm5.1 0H31v1.7h-2zm3.5 0H36v1.7h-3.4zm5.1 0H43v1.7h-5.2zm6.9 0h1.7v1.7h-1.7zm5.1 0h3.4v1.7h-3.4zm5.2 0h8.5v1.7H55zm12 0h1.7v1.7h-1.7zm8.5 0H79v1.7h-3.5zm6.9 0H84v1.7h-1.7zM0 22.3h3.4V24H0zm5.1 0h5.2V24H5zm6.9 0h5.1V24H12zm6.9 0h1.7V24h-1.7zm5.1 0h1.7V24H24zm3.4 0h5.2V24h-5.2zm8.6 0h5.1V24H36zm8.6 0H48V24h-3.4zm5.1 0h3.4V24h-3.4zm6.9 0h1.7V24h-1.7zm5.1 0h1.7V24h-1.7zm3.4 0h3.5V24H65zm6.9 0h10.3V24H72zM1.7 24h1.7v1.7H1.7zm3.4 0H7v1.7H5zm3.5 0H12v1.7H8.6zm5.1 0h1.7v1.7h-1.7zm3.4 0H19v1.7h-2zm5.2 0H29v1.7h-6.8zm8.6 0h1.7v1.7h-1.7zm3.4 0h3.4v1.7h-3.4zm6.8 0h5.2v1.7H41zm12 0H55v1.7h-2zm3.5 0H60v1.7h-3.4zm6.8 0h1.7v1.7h-1.7zm3.5 0h8.5v1.7H67zM0 25.7h1.7v1.7H0zm3.4 0h1.7v1.7H3.4zm3.5 0h1.7v1.7H6.9zm6.8 0h3.4v1.7h-3.4zm8.6 0h3.4v1.7h-3.4zm5.1 0h1.7v1.7h-1.7zm3.5 0H36v1.7h-5.1zm8.5 0h1.7v1.7h-1.7zm3.5 0h1.7v1.7h-1.7zm3.4 0h3.4v1.7h-3.4zm5.1 0h1.7v1.7h-1.7zm8.6 0h1.7v1.7H60zm3.4 0H67v1.7h-3.5zm5.2 0h1.7v1.7h-1.7zm5.1 0h3.4v1.7h-3.4zm5.2 0h3.4v1.7h-3.4zM3.4 27.4H7v1.7H3.4zm5.2 0h6.8v1.7H8.6zm12 0h6.8v1.7h-6.8zm12 0h1.7v1.7h-1.7zm6.8 0h10.3v1.7H39.4zm18.9 0h3.4v1.7h-3.4zm6.8 0H67v1.7h-2zm3.5 0h1.7v1.7h-1.7zm5.1 0h3.4v1.7h-3.4zM0 29.1h1.7V31H0zm3.4 0H7V31H3.4zm5.2 0h1.7V31H8.6zm5.1 0h1.7V31h-1.7zm3.4 0H19V31h-2zm3.5 0h6.8V31h-6.8zm8.5 0h3.5V31H29zm5.2 0H36V31h-1.7zm5.1 0h1.7V31h-1.7zm5.2 0h1.7V31h-1.7zm3.4 0h3.4V31H48zm5.1 0H55V31h-2zm3.5 0H60V31h-3.4zm8.5 0H67V31h-2zm6.9 0h6.9V31H72zm8.6 0H84V31h-3.4zM1.7 31h3.4v1.7H1.7zm8.6 0h5.1v1.7h-5.1zm10.3 0H29v1.7h-8.5zm10.3 0h1.7v1.7h-1.7zm5.1 0h1.7v1.7H36zm5.1 0h5.2v1.7H41zm8.6 0h1.7v1.7h-1.7zm3.4 0H60v1.7h-6.9zm8.6 0h1.7v1.7h-1.7zm3.4 0H67v1.7h-2zm3.5 0h5.1v1.7h-5.1zm8.5 0h3.5v1.7H77zM1.7 32.6h3.4v1.7H1.7zm5.2 0h3.4v1.7H6.9zm6.8 0h1.7v1.7h-1.7zm5.2 0h1.7v1.7h-1.7zm3.4 0H24v1.7h-1.7zm5.1 0h1.7v1.7h-1.7zm5.2 0H36v1.7h-3.4zm5.1 0h1.7v1.7h-1.7zm3.4 0H48v1.7h-6.9zm10.3 0h1.7v1.7h-1.7zm8.6 0h1.7v1.7H60zm8.6 0h1.7v1.7h-1.7zm5.1 0h3.4v1.7h-3.4zm5.2 0h1.7v1.7h-1.7zM0 34.3h5.1V36H0zm6.9 0h1.7V36H6.9zm3.4 0h3.4V36h-3.4zm5.1 0h1.7V36h-1.7zm3.5 0h1.7V36h-1.7zm3.4 0H24V36h-1.7zm3.4 0h1.7V36h-1.7zm12 0h6.9V36h-6.9zm8.6 0H48V36h-1.7zm8.6 0h8.5V36H55zm13.7 0H72V36h-3.4zm5.1 0H84V36H73.7zM3.4 36h1.7v1.7H3.4zM7 36h1.7v1.7H6.9zm5.1 0h1.7v1.7H12zm3.4 0h1.7v1.7h-1.7zm8.6 0h1.7v1.7H24zm3.4 0h1.7v1.7h-1.7zm6.9 0H41v1.7h-6.8zm12 0h3.4v1.7h-3.4zm5.1 0h6.9v1.7h-6.9zm8.6 0h1.7v1.7H60zm5.1 0h3.5v1.7H65zm5.2 0h3.4v1.7h-3.4zm10.3 0H84v1.7h-3.4zM0 37.7h1.7v1.7H0zm6.9 0H17v1.7H7zm12 0h1.7v1.7h-1.7zm5.1 0h3.4v1.7H24zm5.1 0H31v1.7h-2zm3.5 0h22.3v1.7H32.6zm24 0h1.7v1.7h-1.7zm5.1 0h1.7v1.7h-1.7zm3.4 0H79v1.7H65zM0 39.4h3.4v1.7H0zm5.1 0h3.5v1.7H5zm8.6 0h1.7v1.7h-1.7zm5.2 0H24v1.7h-5.1zm6.8 0h1.7v1.7h-1.7zm3.4 0H36v1.7h-6.9zm8.6 0h1.7v1.7h-1.7zm6.9 0h1.7v1.7h-1.7zm5.1 0h1.7v1.7h-1.7zm3.4 0h3.5v1.7H53zm5.2 0H65v1.7h-6.8zm8.6 0h3.4v1.7h-3.4zm8.5 0h5.2v1.7h-5.2zM1.7 41.1h6.9V43H1.7zm8.6 0H12V43h-1.7zm3.4 0h1.7V43h-1.7zm3.4 0H19V43h-2zm3.5 0h1.7V43h-1.7zm5.1 0h1.7V43h-1.7zm6.9 0h1.7V43h-1.7zm5.1 0h1.7V43h-1.7zm3.4 0H43V43h-2zm3.5 0H48V43h-3.4zm10.3 0h1.7V43h-1.7zm5.1 0h3.4V43H60zm5.1 0h5.2V43H65zm6.9 0h1.7V43H72zm3.4 0H84V43h-8.6zM0 43h1.7v1.7H0zm5.1 0h3.5v1.7H5zm8.6 0H19v1.7h-5.2zm6.9 0H24v1.7h-3.4zm5.1 0H31v1.7h-5.2zm6.9 0h6.8v1.7h-6.8zm12 0h1.7v1.7h-1.7zm5.1 0h3.4v1.7h-3.4zm5.2 0h3.4v1.7h-3.4zm5.1 0h3.4v1.7H60zm5.1 0H67v1.7h-2zm3.5 0h1.7v1.7h-1.7zm6.8 0h1.7v1.7h-1.7zm5.2 0h1.7v1.7h-1.7zM5 44.6h14v1.7H5zm20.6 0h1.7v1.7h-1.7zm5.2 0h3.4v1.7h-3.4zm6.8 0h8.6v1.7h-8.6zm10.3 0h1.7v1.7H48zm3.4 0H53v1.7h-1.7zm3.5 0h3.4v1.7h-3.4zm5.1 0h3.4v1.7H60zm5.1 0h2v1.7h-2zm3.5 0H77v1.7h-8.5zm12 0h1.7v1.7h-1.7zM0 46.3h1.7V48H0zm3.4 0H7V48H3.4zm8.6 0h10.3V48H12zm18.9 0h1.7V48h-1.7zm3.4 0H36V48h-1.7zm5.1 0h1.7V48h-1.7zm6.9 0H48V48h-1.7zm3.4 0h1.7V48h-1.7zm5.2 0h3.4V48h-3.4zm6.8 0h1.7V48h-1.7zm10.3 0h1.7V48H72zm6.9 0H84V48h-5.1zM3.4 48h1.7v1.7H3.4zM7 48h1.7v1.7H6.9zm3.4 0H12v1.7h-1.7zm3.4 0h1.7v1.7h-1.7zm3.4 0h3.5v1.7H17zm6.9 0h3.4v1.7H24zm5.1 0h3.5v1.7H29zm5.2 0h5.1v1.7h-5.1zm6.8 0H48v1.7h-6.9zM55 48h3.4v1.7H55zm5.1 0h3.4v1.7H60zm10.3 0h5.1v1.7h-5.1zm8.6 0h1.7v1.7H79zm3.4 0H84v1.7h-1.7zM0 49.7h1.7v1.7H0zm5.1 0H7v1.7H5zm3.5 0h1.7v1.7H8.6zm3.4 0h1.7v1.7H12zm3.4 0h1.7v1.7h-1.7zm10.3 0h1.7v1.7h-1.7zm3.4 0H31v1.7h-2zm3.5 0H36v1.7h-3.4zm5.1 0h3.4v1.7h-3.4zm8.6 0H53v1.7h-6.8zm8.6 0h3.4v1.7h-3.4zm10.2 0H67v1.7h-2zm5.2 0h3.4v1.7h-3.4zm5.1 0H79v1.7h-3.5zM1.7 51.4h1.7v1.7H1.7zm3.4 0H7v1.7H5zm5.2 0H12v1.7h-1.7zm8.6 0H29v1.7H19zm12 0h3.4v1.7h-3.4zm8.5 0h5.2v1.7h-5.2zm10.3 0h1.7v1.7h-1.7zm6.9 0h5.1v1.7h-5.1zm6.8 0h1.7v1.7h-1.7zm5.2 0H72v1.7h-3.4zm5.1 0h1.7v1.7h-1.7zM12 53.1h1.7V55H12zm5.1 0H19V55h-2zm5.2 0H24V55h-1.7zm3.4 0h1.7V55h-1.7zm10.3 0h3.4V55H36zm5.1 0H43V55h-2zm3.5 0h1.7V55h-1.7zm3.4 0h3.4V55H48zm5.1 0H55V55h-2zm3.5 0H60V55h-3.4zm6.8 0H67V55h-3.5zm6.9 0h3.4V55h-3.4zm5.1 0h1.7V55h-1.7zm3.5 0H84V55h-5.1zM3.4 55h1.7v1.7H3.4zm6.9 0H12v1.7h-1.7zm3.4 0h1.7v1.7h-1.7zm3.4 0H19v1.7h-2zm3.5 0H24v1.7h-3.4zm6.8 0h1.7v1.7h-1.7zm3.5 0h3.4v1.7h-3.4zm8.5 0h6.9v1.7h-6.9zm10.3 0h8.6v1.7h-8.6zm12 0H67v1.7h-5.2zm6.9 0H72v1.7h-3.4zm5.1 0h1.7v1.7h-1.7zm3.4 0h5.2v1.7H77zM1.7 56.6h1.7v1.7H1.7zm5.2 0h1.7v1.7H6.9zm6.8 0h1.7v1.7h-1.7zm15.4 0h3.5v1.7H29zm5.2 0H36v1.7h-1.7zm3.4 0H43v1.7h-5.2zm8.6 0H48v1.7h-1.7zm5.1 0h1.7v1.7h-1.7zm3.5 0h1.7v1.7h-1.7zm5.1 0h6.9v1.7H60zm10.3 0H72v1.7h-1.7zm5.1 0H79v1.7h-3.5zM0 58.3h1.7V60H0zm3.4 0h10.3V60H3.4zm15.5 0h3.4V60h-3.4zm5.1 0h3.4V60H24zm12 0h5.1V60H36zm6.9 0h1.7V60h-1.7zm3.4 0h3.4V60h-3.4zm12 0h3.4V60h-3.4zm12 0H72V60h-1.7zm5.1 0h5.2V60h-5.2zM0 60h5.1v1.7H0zm8.6 0h1.7v1.7H8.6zm5.1 0h3.4v1.7h-3.4zm8.6 0h3.4v1.7h-3.4zm8.6 0h1.7v1.7h-1.7zm8.5 0h1.7v1.7h-1.7zm3.5 0h3.4v1.7h-3.4zm5.1 0h1.7v1.7H48zm3.4 0h1.7v1.7h-1.7zm6.9 0H60v1.7h-1.7zm6.8 0H67v1.7h-2zm3.5 0H77v1.7h-8.5zm10.3 0h3.4v1.7h-3.4zM0 61.7h1.7v1.7H0zm3.4 0h1.7v1.7H3.4zm6.9 0H12v1.7h-1.7zm3.4 0h6.9v1.7h-6.9zm12 0h1.7v1.7h-1.7zm6.9 0h1.7v1.7h-1.7zm6.8 0H43v1.7h-3.5zm5.2 0H48v1.7h-3.4zm10.3 0h1.7v1.7h-1.7zm5.1 0h6.9v1.7H60zm10.3 0H72v1.7h-1.7zm6.8 0H84v1.7h-6.9zM1.7 63.4h1.7v1.7H1.7zm10.3 0h1.7v1.7H12zm5.1 0h3.5v1.7H17zm6.9 0h3.4v1.7H24zm5.1 0h3.5v1.7H29zm5.2 0H36v1.7h-1.7zm3.4 0H43v1.7h-5.2zm6.9 0H53v1.7h-8.5zm12 0h1.7v1.7h-1.7zm6.8 0H67v1.7h-3.5zm6.9 0H72v1.7h-1.7zm3.4 0H79v1.7h-5.2zm-72 1.7h1.7V67H1.7zm6.9 0H12V67H8.6zm8.5 0H19V67h-2zm3.5 0H24V67h-3.4zm6.8 0h1.7V67h-1.7zm3.5 0h1.7V67h-1.7zm3.4 0H36V67h-1.7zm5.1 0h1.7V67h-1.7zm3.5 0h1.7V67h-1.7zm6.8 0h6.9V67h-6.9zm15.4 0h3.5V67H65zm5.2 0H72V67h-1.7zm3.4 0h3.4V67h-3.4zm5.2 0h1.7V67h-1.7zM1.7 67H7v1.7H1.7zm12 0h1.7v1.7h-1.7zm3.4 0h5.2v1.7H17zm8.6 0h1.7v1.7h-1.7zm3.4 0h3.5v1.7H29zm6.9 0h1.7v1.7H36zm6.9 0h3.4v1.7h-3.4zm5.1 0h5.1v1.7H48zm6.9 0h1.7v1.7h-1.7zm3.4 0h8.6v1.7h-8.6zM72 67h12v1.7H72zM0 68.6h5.1v1.7H0zm10.3 0H12v1.7h-1.7zm3.4 0h1.7v1.7h-1.7zm3.4 0H19v1.7h-2zm5.2 0h3.4v1.7h-3.4zm5.1 0h1.7v1.7h-1.7zm3.5 0h1.7v1.7h-1.7zm6.8 0H48v1.7H37.7zm12 0h3.4v1.7h-3.4zm5.2 0h3.4v1.7h-3.4zm5.1 0h3.4v1.7H60zm5.1 0H67v1.7h-2zm3.5 0H77v1.7h-8.5zm10.3 0H84v1.7h-5.1zm-65.2 1.7h3.4V72h-3.4zm8.6 0H24V72h-1.7zm3.4 0h1.7V72h-1.7zm3.4 0H31V72h-2zm5.2 0H36V72h-1.7zm3.4 0h1.7V72h-1.7zm6.9 0h13.7V72H44.6zm15.4 0h3.4V72H60zm5.1 0h5.2V72H65zm10.3 0H79V72h-3.5zm5.2 0h1.7V72h-1.7zM0 72h12v1.7H0zm13.7 0h8.6v1.7h-8.6zm12 0h1.7v1.7h-1.7zm3.4 0H31v1.7h-2zm6.9 0h3.4v1.7H36zm5.1 0H43v1.7h-2zm3.5 0h1.7v1.7h-1.7zm8.5 0h5.2v1.7H53zm6.9 0h1.7v1.7H60zm5.1 0H67v1.7h-2zm3.5 0h1.7v1.7h-1.7zm3.4 0h1.7v1.7H72zm3.4 0h1.7v1.7h-1.7zm3.5 0h3.4v1.7h-3.4zM0 73.7h1.7v1.7H0zm10.3 0H12v1.7h-1.7zm6.8 0H19v1.7h-2zm6.9 0h6.9v1.7H24zm8.6 0h1.7v1.7h-1.7zm3.4 0h3.4v1.7H36zm8.6 0H48v1.7h-3.4zm5.1 0h1.7v1.7h-1.7zm5.2 0h1.7v1.7h-1.7zm6.8 0h1.7v1.7h-1.7zm6.9 0h1.7v1.7h-1.7zm6.8 0h1.7v1.7h-1.7zm3.5 0h1.7v1.7h-1.7zm3.4 0H84v1.7h-1.7zM0 75.4h1.7v1.7H0zm3.4 0h5.2v1.7H3.4zm6.9 0H12v1.7h-1.7zm3.4 0h1.7v1.7h-1.7zm3.4 0h3.5v1.7H17zm5.2 0H24v1.7h-1.7zm5.1 0H48v1.7H27.4zm22.3 0h1.7v1.7h-1.7zm5.2 0h3.4v1.7h-3.4zm6.8 0h15.4v1.7H61.7zm17.2 0h3.4v1.7h-3.4zM0 77.1h1.7V79H0zm3.4 0h5.2V79H3.4zm6.9 0H12V79h-1.7zm5.1 0h1.7V79h-1.7zm5.2 0h1.7V79h-1.7zm5.1 0h6.9V79h-6.9zm10.3 0h3.4V79H36zm6.9 0h12V79h-12zm13.7 0h1.7V79h-1.7zm8.5 0H67V79h-2zm3.5 0h1.7V79h-1.7zm3.4 0h1.7V79H72zm5.1 0H79V79h-2zm3.5 0h1.7V79h-1.7zM0 79h1.7v1.7H0zm3.4 0h5.2v1.7H3.4zm6.9 0H12v1.7h-1.7zm5.1 0H24v1.7h-8.6zm12 0h1.7v1.7h-1.7zm6.9 0H36v1.7h-1.7zm8.6 0h1.7v1.7h-1.7zm3.4 0h3.4v1.7h-3.4zm12 0H60v1.7h-1.7zm3.4 0h1.7v1.7h-1.7zm6.9 0h6.8v1.7h-6.8zm10.3 0h1.7v1.7h-1.7zM0 80.6h1.7v1.7H0zm10.3 0H12v1.7h-1.7zm6.8 0h3.5v1.7H17zm5.2 0h3.4v1.7h-3.4zm5.1 0h1.7v1.7h-1.7zm3.5 0H36v1.7h-5.1zm6.8 0h1.7v1.7h-1.7zm8.6 0h3.4v1.7h-3.4zm5.1 0h1.7v1.7h-1.7zm8.6 0h1.7v1.7H60zm3.4 0h5.2v1.7h-5.2zm15.5 0h3.4v1.7h-3.4zM0 82.3h12V84H0zm13.7 0h8.6V84h-8.6zm10.3 0h1.7V84H24zm3.4 0H31V84h-3.5zm8.6 0h1.7V84H36zm3.4 0H43V84h-3.5zm5.2 0h5.1V84h-5.1zm13.7 0h3.4V84h-3.4zm5.1 0h1.7V84h-1.7zm3.5 0h3.4V84h-3.4zm6.8 0h3.4V84h-3.4zm5.2 0H84V84h-5.1z"/></g><text x="1122" y="614" fill="#f5f7fa" font-family="Inter, Helvetica, Arial, sans-serif" font-size="10" font-weight="700" text-anchor="middle">scan / full post</text></svg>