<svg xmlns="http://www.w3.org/2000/svg" viewBox="0 0 1200 630" width="1200" height="630" role="img" aria-label="Security guide cover 2026.01.22: KARA Ransomware, Trends Report, SK Shieldus">
<!-- profile: high-quality-cover (L20 Hero+2-Card) -->
<title>Security Guide - 2026.01.22</title>
<defs><linearGradient id="bgSpread" x1="0%" y1="0%" x2="100%" y2="100%"><stop offset="0%" stop-color="#0B1326"/><stop offset="55%" stop-color="#0D1530"/><stop offset="100%" stop-color="#141034"/></linearGradient><linearGradient id="heroPanel" x1="0%" y1="0%" x2="0%" y2="100%"><stop offset="0%" stop-color="#1A0A08"/><stop offset="100%" stop-color="#110608"/></linearGradient><linearGradient id="heroPanelBlue" x1="0%" y1="0%" x2="0%" y2="100%"><stop offset="0%" stop-color="#0A1A30"/><stop offset="100%" stop-color="#071426"/></linearGradient><linearGradient id="heroPanelAmber" x1="0%" y1="0%" x2="0%" y2="100%"><stop offset="0%" stop-color="#1A1208"/><stop offset="100%" stop-color="#120E06"/></linearGradient><linearGradient id="heroPanelGreen" x1="0%" y1="0%" x2="0%" y2="100%"><stop offset="0%" stop-color="#08160E"/><stop offset="100%" stop-color="#04100A"/></linearGradient><linearGradient id="heroPanelPurple" x1="0%" y1="0%" x2="0%" y2="100%"><stop offset="0%" stop-color="#110629"/><stop offset="100%" stop-color="#0A0418"/></linearGradient><radialGradient id="hotRed" cx="50%" cy="50%" r="50%"><stop offset="0%" stop-color="#E63946" stop-opacity="0.6"/><stop offset="100%" stop-color="#E63946" stop-opacity="0"/></radialGradient><radialGradient id="hotBlue" cx="50%" cy="50%" r="50%"><stop offset="0%" stop-color="#3A86FF" stop-opacity="0.5"/><stop offset="100%" stop-color="#3A86FF" stop-opacity="0"/></radialGradient><radialGradient id="hotAmber" cx="50%" cy="50%" r="50%"><stop offset="0%" stop-color="#FFB703" stop-opacity="0.45"/><stop offset="100%" stop-color="#FFB703" stop-opacity="0"/></radialGradient><radialGradient id="hotGreen" cx="50%" cy="50%" r="50%"><stop offset="0%" stop-color="#4ADE80" stop-opacity="0.45"/><stop offset="100%" stop-color="#4ADE80" stop-opacity="0"/></radialGradient><radialGradient id="hotPurple" cx="50%" cy="50%" r="50%"><stop offset="0%" stop-color="#A78BFA" stop-opacity="0.45"/><stop offset="100%" stop-color="#A78BFA" stop-opacity="0"/></radialGradient><pattern id="envGrid" x="0" y="0" width="40" height="40" patternUnits="userSpaceOnUse"><circle cx="20" cy="20" r="0.8" fill="#2A3256" opacity="0.55"/></pattern><filter id="softShadow" x="-10%" y="-10%" width="130%" height="130%"><feGaussianBlur in="SourceAlpha" stdDeviation="3"/><feOffset dx="2" dy="4"/><feComponentTransfer><feFuncA type="linear" slope="0.55"/></feComponentTransfer><feMerge><feMergeNode/><feMergeNode in="SourceGraphic"/></feMerge></filter><filter id="textShadow" x="-10%" y="-10%" width="130%" height="130%"><feGaussianBlur in="SourceAlpha" stdDeviation="1.2"/><feOffset dx="1" dy="1.5"/><feComponentTransfer><feFuncA type="linear" slope="0.7"/></feComponentTransfer><feMerge><feMergeNode/><feMergeNode in="SourceGraphic"/></feMerge></filter></defs>
<rect width="1200" height="630" fill="url(#bgSpread)"/>
<rect width="1200" height="630" fill="url(#envGrid)"/>
<circle cx="310" cy="310" r="160" fill="url(#hotRed)"><animate attributeName="opacity" values="0.6;1;0.6" dur="5.8s" repeatCount="indefinite"/></circle><circle cx="950" cy="210" r="120" fill="url(#hotBlue)"><animate attributeName="opacity" values="0.45;0.85;0.45" dur="6.4s" repeatCount="indefinite"/></circle><circle cx="970" cy="480" r="110" fill="url(#hotAmber)"><animate attributeName="opacity" values="0.4;0.75;0.4" dur="7.1s" repeatCount="indefinite"/></circle><g fill="#8FB8FF"><circle cx="180" cy="70" r="1.2"><animate attributeName="opacity" values="0.2;1;0.2" dur="3.4s" repeatCount="indefinite"/></circle><circle cx="440" cy="62" r="1"><animate attributeName="opacity" values="0.2;0.9;0.2" dur="4.2s" repeatCount="indefinite"/></circle><circle cx="740" cy="68" r="1.3"><animate attributeName="opacity" values="0.25;1;0.25" dur="3.9s" repeatCount="indefinite"/></circle><circle cx="1060" cy="74" r="0.9"><animate attributeName="opacity" values="0.2;0.85;0.2" dur="5.1s" repeatCount="indefinite"/></circle><circle cx="90" cy="580" r="1"><animate attributeName="opacity" values="0.15;0.8;0.15" dur="4.7s" repeatCount="indefinite"/></circle><circle cx="550" cy="590" r="0.8"><animate attributeName="opacity" values="0.2;0.75;0.2" dur="3.6s" begin="0.5s" repeatCount="indefinite"/></circle></g>
<g fill="#7DA3D9" opacity="0.85"><circle cx="252" cy="58" r="0.8"><animate attributeName="opacity" values="0.15;0.7;0.15" dur="4.3s" repeatCount="indefinite"/></circle><circle cx="368" cy="74" r="0.9"><animate attributeName="opacity" values="0.2;0.85;0.2" dur="3.8s" begin="0.4s" repeatCount="indefinite"/></circle><circle cx="624" cy="60" r="1.1"><animate attributeName="opacity" values="0.25;0.95;0.25" dur="4.5s" repeatCount="indefinite"/></circle><circle cx="858" cy="68" r="0.9"><animate attributeName="opacity" values="0.2;0.8;0.2" dur="3.6s" begin="0.6s" repeatCount="indefinite"/></circle><circle cx="996" cy="62" r="1.0"><animate attributeName="opacity" values="0.2;0.9;0.2" dur="4.0s" begin="0.2s" repeatCount="indefinite"/></circle><circle cx="1138" cy="76" r="0.8"><animate attributeName="opacity" values="0.15;0.7;0.15" dur="5.2s" begin="0.5s" repeatCount="indefinite"/></circle><circle cx="218" cy="596" r="0.9"><animate attributeName="opacity" values="0.18;0.75;0.18" dur="4.6s" begin="0.3s" repeatCount="indefinite"/></circle><circle cx="380" cy="608" r="1.0"><animate attributeName="opacity" values="0.2;0.85;0.2" dur="3.9s" begin="0.7s" repeatCount="indefinite"/></circle><circle cx="704" cy="600" r="0.8"><animate attributeName="opacity" values="0.18;0.7;0.18" dur="4.2s" begin="0.4s" repeatCount="indefinite"/></circle><circle cx="892" cy="608" r="1.1"><animate attributeName="opacity" values="0.22;0.9;0.22" dur="4.7s" begin="0.6s" repeatCount="indefinite"/></circle><circle cx="1078" cy="600" r="0.9"><animate attributeName="opacity" values="0.2;0.85;0.2" dur="3.6s" begin="0.8s" repeatCount="indefinite"/></circle></g>
<rect x="0" y="0" width="1200" height="56" fill="#050813" opacity="0.92"/>
<text x="36" y="36" font-family="Inter, Helvetica, Arial, sans-serif" font-size="18" font-weight="700" fill="#8FB8FF" letter-spacing="2.5">SECURITY GUIDE</text>
<text x="1164" y="36" font-family="Inter, Helvetica, Arial, sans-serif" font-size="15" font-weight="600" fill="#7DA3D9" letter-spacing="1.5" text-anchor="end">2026.01.22</text>
<rect x="0" y="54" width="1200" height="2" fill="#E63946" opacity="0.85"><animate attributeName="opacity" values="0.4;1;0.4" dur="4.8s" repeatCount="indefinite"/></rect>
<rect x="32" y="80" width="600" height="510" rx="14" ry="14" fill="url(#heroPanel)" stroke="#E63946" stroke-width="1.8" opacity="0.98"/>
<circle cx="160" cy="300" r="240" fill="url(#hotRed)" opacity="0.28"/>
<rect x="32" y="80" width="600" height="4" fill="#E63946" opacity="0.85"><animate attributeName="opacity" values="0.5;1;0.5" dur="3.4s" repeatCount="indefinite"/></rect>
<g filter="url(#textShadow)">
<text x="54" y="112" font-family="Inter, Helvetica, Arial, sans-serif" font-size="13" font-weight="700" fill="#F87171" letter-spacing="3">HIGH  /  01</text>
<text x="54" y="146" font-family="Inter, Helvetica, Arial, sans-serif" font-size="31" font-weight="800" fill="#F8FAFC">KARA Ransomware</text>
<text x="54" y="174" font-family="Inter, Helvetica, Arial, sans-serif" font-size="17" font-weight="500" fill="#FBB6BD">Trends Report - SK Shieldus</text>
</g>
<g transform="translate(332,360)" opacity="0.32"><circle r="180" fill="none" stroke="#E63946" stroke-width="0.6" stroke-dasharray="2 4"/><circle r="140" fill="none" stroke="#E63946" stroke-width="0.6" stroke-dasharray="2 4" opacity="0.7"/><circle r="100" fill="none" stroke="#E63946" stroke-width="0.6" stroke-dasharray="2 4" opacity="0.5"/><g><path d="M0 0 L180 0 A180 180 0 0 1 127 127 Z" fill="#E63946" opacity="0.10"/><animateTransform attributeName="transform" type="rotate" from="0" to="360" dur="14s" repeatCount="indefinite"/></g></g>
<g stroke="#E63946" stroke-width="1.4" fill="none" opacity="0.7"><path d="M36 96 L36 84 L48 84"/><path d="M616 84 L628 84 L628 96"/><path d="M36 574 L36 586 L48 586"/><path d="M616 586 L628 586 L628 574"/></g>
<g><rect x="54" y="526" width="280" height="1" fill="#E63946" opacity="0.35"/><rect x="54" y="528" width="1" height="4" fill="#E63946" opacity="0.55"/><rect x="68" y="528" width="1" height="2" fill="#E63946" opacity="0.55"/><rect x="82" y="528" width="1" height="2" fill="#E63946" opacity="0.55"/><rect x="96" y="528" width="1" height="4" fill="#E63946" opacity="0.55"/><rect x="110" y="528" width="1" height="2" fill="#E63946" opacity="0.55"/><rect x="124" y="528" width="1" height="2" fill="#E63946" opacity="0.55"/><rect x="138" y="528" width="1" height="4" fill="#E63946" opacity="0.55"/><rect x="152" y="528" width="1" height="2" fill="#E63946" opacity="0.55"/><rect x="166" y="528" width="1" height="2" fill="#E63946" opacity="0.55"/><rect x="180" y="528" width="1" height="4" fill="#E63946" opacity="0.55"/><rect x="194" y="528" width="1" height="2" fill="#E63946" opacity="0.55"/><rect x="208" y="528" width="1" height="2" fill="#E63946" opacity="0.55"/><rect x="222" y="528" width="1" height="4" fill="#E63946" opacity="0.55"/><rect x="236" y="528" width="1" height="2" fill="#E63946" opacity="0.55"/><rect x="250" y="528" width="1" height="2" fill="#E63946" opacity="0.55"/><rect x="264" y="528" width="1" height="4" fill="#E63946" opacity="0.55"/><rect x="278" y="528" width="1" height="2" fill="#E63946" opacity="0.55"/><rect x="292" y="528" width="1" height="2" fill="#E63946" opacity="0.55"/><rect x="306" y="528" width="1" height="4" fill="#E63946" opacity="0.55"/><rect x="320" y="528" width="1" height="2" fill="#E63946" opacity="0.55"/><rect x="284" y="527" width="50" height="6" fill="#E63946" opacity="0.45"><animate attributeName="x" values="54;284;54" dur="6.4s" repeatCount="indefinite"/><animate attributeName="opacity" values="0.2;0.7;0.2" dur="6.4s" repeatCount="indefinite"/></rect></g>
<g transform="translate(332,360) scale(1.4)"><g fill="none" stroke="#E63946" opacity="0.4"><ellipse cx="0" cy="2" rx="58" ry="44" stroke-width="1"/><ellipse cx="0" cy="2" rx="92" ry="62" stroke-width="0.8" opacity="0.6"/></g><g fill="#F87171"><circle r="3"><animateMotion path="M58 2 A58 44 0 1 1 -58 2 A58 44 0 1 1 58 2" dur="6s" repeatCount="indefinite"/></circle><circle r="2.5"><animateMotion path="M-92 2 A92 62 0 1 0 92 2 A92 62 0 1 0 -92 2" dur="8s" repeatCount="indefinite"/></circle></g><g fill="#0E1426" stroke="#E63946" stroke-width="1.1"><circle cx="-58" cy="2" r="3.5"/><circle cx="58" cy="2" r="3.5"/><circle cx="0" cy="-42" r="3.5"/></g><circle cx="0" cy="2" r="30" fill="#0A1326" stroke="#E63946" stroke-width="2" filter="url(#softShadow)"><animate attributeName="r" values="28;33;28" dur="3.4s" repeatCount="indefinite"/></circle><text x="0" y="-1" text-anchor="middle" font-family="Inter, monospace" font-size="11" font-weight="900" fill="#F87171">UPDATE</text><text x="0" y="13" text-anchor="middle" font-family="Inter, monospace" font-size="8" font-weight="700" fill="#4ADE80">RELEASE</text><g transform="translate(70,-44)" filter="url(#softShadow)"><rect x="0" y="0" width="106" height="92" rx="6" fill="#0A0F1E" stroke="#E63946" stroke-width="1.2"/><text x="53" y="16" text-anchor="middle" font-family="Inter, monospace" font-size="9" font-weight="800" fill="#F87171">CYCLE</text><circle cx="53" cy="52" r="22" fill="none" stroke="#E63946" stroke-width="6" opacity="0.3"/><circle cx="53" cy="52" r="22" fill="none" stroke="#E63946" stroke-width="6" stroke-dasharray="104 138" stroke-linecap="round" transform="rotate(-90 53 52)"/><text x="53" y="86" text-anchor="middle" font-family="Inter, monospace" font-size="8" font-weight="600" fill="#E63946">cycle overview</text></g></g>
<g transform="translate(54,548)">
<rect x="0" y="0" width="280" height="24" rx="3" fill="#E63946"/>
<text x="140" y="17" text-anchor="middle" font-family="Inter, Helvetica, Arial, sans-serif" font-size="12" font-weight="700" fill="#0A0F1E">READ THE FULL GUIDE</text>
</g>
<text x="350" y="566" font-family="Inter, Helvetica, Arial, sans-serif" font-size="13" font-weight="600" fill="#A5B4C4" font-style="italic">Security Guide  /  2026.01.22</text>
<rect x="652" y="80" width="516" height="248" rx="14" ry="14" fill="url(#heroPanelBlue)" stroke="#3A86FF" stroke-width="1.6" opacity="0.97"/>
<rect x="652" y="80" width="516" height="4" fill="#3A86FF" opacity="0.85"><animate attributeName="opacity" values="0.5;1;0.5" dur="4.2s" repeatCount="indefinite"/></rect>
<g filter="url(#textShadow)">
<text x="670" y="110" font-family="Inter, Helvetica, Arial, sans-serif" font-size="12" font-weight="700" fill="#7DA3D9" letter-spacing="3">HIGH  /  02</text>
<text x="670" y="140" font-family="Inter, Helvetica, Arial, sans-serif" font-size="24" font-weight="800" fill="#F5F7FA">Trends Report</text>
<text x="670" y="163" font-family="Inter, Helvetica, Arial, sans-serif" font-size="14" font-weight="500" fill="#BFC9D9">KARA Ransomware - SK Shieldus</text>
</g>
<g stroke="#3A86FF" stroke-width="1.4" fill="none" opacity="0.7"><path d="M656 93 L656 84 L665 84"/><path d="M1155 84 L1164 84 L1164 93"/><path d="M656 315 L656 324 L665 324"/><path d="M1155 324 L1164 324 L1164 315"/></g>
<g transform="translate(800,230)"><g font-family="Inter, monospace" font-size="8" font-weight="800"><g transform="translate(-150,-40)"><rect x="0" y="0" width="76" height="24" rx="4" fill="#0E1426" stroke="#3A86FF" stroke-width="1.2"/><text x="38" y="15" text-anchor="middle" fill="#60A5FA">DIGEST</text></g><g transform="translate(-150,-6)"><rect x="0" y="0" width="76" height="24" rx="4" fill="#0E1426" stroke="#3A86FF" stroke-width="1.2" opacity="0.88"/><text x="38" y="15" text-anchor="middle" fill="#60A5FA">ECOSYSTEM</text></g><g transform="translate(-150,28)"><rect x="0" y="0" width="76" height="24" rx="4" fill="#0E1426" stroke="#3A86FF" stroke-width="1.2" opacity="0.76"/><text x="38" y="15" text-anchor="middle" fill="#60A5FA">RELEASE</text></g></g><g stroke="#3A86FF" stroke-width="1" stroke-dasharray="3 2" fill="none" opacity="0.6"><line x1="-74" y1="-28" x2="-8" y2="0"/><line x1="-74" y1="6" x2="-8" y2="2"/><line x1="-74" y1="40" x2="-8" y2="4"/></g><g fill="#60A5FA"><circle r="2"><animateMotion path="M-74 -28 L-8 0" dur="2.2s" repeatCount="indefinite"/></circle><circle r="2"><animateMotion path="M-74 6 L-8 2" dur="2s" begin="0.4s" repeatCount="indefinite"/></circle><circle r="2"><animateMotion path="M-74 40 L-8 4" dur="2.4s" begin="0.8s" repeatCount="indefinite"/></circle></g><circle cx="0" cy="2" r="30" fill="#0A1326" stroke="#3A86FF" stroke-width="2" filter="url(#softShadow)"><animate attributeName="r" values="28;33;28" dur="3.4s" repeatCount="indefinite"/></circle><text x="0" y="-1" text-anchor="middle" font-family="Inter, monospace" font-size="11" font-weight="900" fill="#60A5FA">UPDATE</text><text x="0" y="13" text-anchor="middle" font-family="Inter, monospace" font-size="8" font-weight="700" fill="#3A86FF">ECOSYSTEM</text><g transform="translate(56,-44)" filter="url(#softShadow)"><rect x="0" y="0" width="120" height="92" rx="6" fill="#0A0F1E" stroke="#3A86FF" stroke-width="1.2"/><text x="60" y="16" text-anchor="middle" font-family="Inter, monospace" font-size="9" font-weight="800" fill="#60A5FA">ACTIVITY</text><polyline points="12,72 30,60 46,64 62,48 80,52 98,34 108,30" fill="none" stroke="#3A86FF" stroke-width="2" stroke-linecap="round" stroke-linejoin="round"/><circle cx="108" cy="30" r="3" fill="#60A5FA"><animate attributeName="opacity" values="0.5;1;0.5" dur="2s" repeatCount="indefinite"/></circle><g stroke="#3A86FF" stroke-width="0.6" opacity="0.3"><line x1="12" y1="46" x2="108" y2="46"/><line x1="12" y1="62" x2="108" y2="62"/></g><text x="60" y="86" text-anchor="middle" font-family="Inter, monospace" font-size="8" font-weight="600" fill="#3A86FF">trend overview</text></g></g>
<g transform="translate(1094,168)" filter="url(#softShadow)"><rect x="-68" y="-55" width="140" height="110" rx="10" fill="#071426" stroke="#3A86FF" stroke-width="2"/><text x="2" y="-28" text-anchor="middle" font-family="Inter, Helvetica, Arial, sans-serif" font-size="10" font-weight="700" letter-spacing="2" fill="#7DA3D9">STATUS</text><text x="2" y="18" text-anchor="middle" font-family="Inter, Helvetica, Arial, sans-serif" font-size="28" font-weight="900" fill="#F5F7FA">TBD</text><text x="2" y="40" text-anchor="middle" font-family="Inter, Helvetica, Arial, sans-serif" font-size="10" font-weight="600" fill="#BFC9D9">NEW</text></g>
<rect x="652" y="344" width="516" height="246" rx="14" ry="14" fill="url(#heroPanelBlue)" stroke="#3A86FF" stroke-width="1.6" opacity="0.97"/>
<rect x="652" y="344" width="516" height="4" fill="#3A86FF" opacity="0.85"><animate attributeName="opacity" values="0.5;1;0.5" dur="4.8s" repeatCount="indefinite"/></rect>
<g filter="url(#textShadow)">
<text x="670" y="374" font-family="Inter, Helvetica, Arial, sans-serif" font-size="12" font-weight="700" fill="#7DA3D9" letter-spacing="3">MEDIUM  /  03</text>
<text x="670" y="404" font-family="Inter, Helvetica, Arial, sans-serif" font-size="24" font-weight="800" fill="#F5F7FA">SK Shieldus</text>
<text x="670" y="428" font-family="Inter, Helvetica, Arial, sans-serif" font-size="14" font-weight="500" fill="#BFC9D9">KARA Ransomware - Trends Report</text>
</g>
<g stroke="#3A86FF" stroke-width="1.4" fill="none" opacity="0.7"><path d="M656 357 L656 348 L665 348"/><path d="M1155 348 L1164 348 L1164 357"/><path d="M656 577 L656 586 L665 586"/><path d="M1155 586 L1164 586 L1164 577"/></g>
<g transform="translate(800,490)"><g stroke="#3A86FF" stroke-width="0.8" opacity="0.35"><line x1="-156" y1="-36" x2="-130" y2="-36"/><line x1="-156" y1="-36" x2="-156" y2="0"/><line x1="-130" y1="-36" x2="-104" y2="-36"/><line x1="-130" y1="-36" x2="-130" y2="0"/><line x1="-104" y1="-36" x2="-104" y2="0"/><line x1="-156" y1="0" x2="-130" y2="0"/><line x1="-156" y1="0" x2="-156" y2="36"/><line x1="-130" y1="0" x2="-104" y2="0"/><line x1="-130" y1="0" x2="-130" y2="36"/><line x1="-104" y1="0" x2="-104" y2="36"/><line x1="-156" y1="36" x2="-130" y2="36"/><line x1="-130" y1="36" x2="-104" y2="36"/></g><circle cx="-156" cy="-36" r="3.4" fill="#0E1426" stroke="#3A86FF" stroke-width="1.1" opacity="0.90"/><circle cx="-130" cy="-36" r="3.4" fill="#0E1426" stroke="#3A86FF" stroke-width="1.1" opacity="0.83"/><circle cx="-104" cy="-36" r="3.4" fill="#0E1426" stroke="#3A86FF" stroke-width="1.1" opacity="0.76"/><circle cx="-156" cy="0" r="3.4" fill="#0E1426" stroke="#3A86FF" stroke-width="1.1" opacity="0.83"/><circle cx="-130" cy="0" r="3.4" fill="#0E1426" stroke="#3A86FF" stroke-width="1.1" opacity="0.76"/><circle cx="-104" cy="0" r="3.4" fill="#0E1426" stroke="#3A86FF" stroke-width="1.1" opacity="0.69"/><circle cx="-156" cy="36" r="3.4" fill="#0E1426" stroke="#3A86FF" stroke-width="1.1" opacity="0.76"/><circle cx="-130" cy="36" r="3.4" fill="#0E1426" stroke="#3A86FF" stroke-width="1.1" opacity="0.69"/><circle cx="-104" cy="36" r="3.4" fill="#0E1426" stroke="#3A86FF" stroke-width="1.1" opacity="0.62"/><line x1="-104" y1="0" x2="-8" y2="2" stroke="#3A86FF" stroke-width="1" stroke-dasharray="3 2" opacity="0.6"/><g fill="#60A5FA"><circle r="2"><animateMotion path="M-104 0 L-8 2" dur="2.3s" repeatCount="indefinite"/></circle></g><circle cx="0" cy="2" r="30" fill="#0A1326" stroke="#3A86FF" stroke-width="2" filter="url(#softShadow)"><animate attributeName="r" values="28;33;28" dur="3.4s" repeatCount="indefinite"/></circle><text x="0" y="-1" text-anchor="middle" font-family="Inter, monospace" font-size="11" font-weight="900" fill="#60A5FA">UPDATE</text><text x="0" y="13" text-anchor="middle" font-family="Inter, monospace" font-size="8" font-weight="700" fill="#FFB703">ADVISORY</text><g transform="translate(56,-44)" filter="url(#softShadow)"><rect x="0" y="0" width="120" height="92" rx="6" fill="#0A0F1E" stroke="#3A86FF" stroke-width="1.2"/><text x="60" y="16" text-anchor="middle" font-family="Inter, monospace" font-size="9" font-weight="800" fill="#60A5FA">NODES</text><g stroke="#3A86FF" stroke-width="1" opacity="0.5"><line x1="24" y1="40" x2="60" y2="28"/><line x1="60" y1="28" x2="96" y2="44"/><line x1="60" y1="28" x2="60" y2="64"/><line x1="24" y1="40" x2="60" y2="64"/></g><g fill="#60A5FA"><circle cx="24" cy="40" r="3.5"/><circle cx="96" cy="44" r="3.5"/><circle cx="60" cy="64" r="3.5"/></g><circle cx="60" cy="28" r="4.5" fill="#3A86FF"/><text x="60" y="86" text-anchor="middle" font-family="Inter, monospace" font-size="8" font-weight="600" fill="#3A86FF">mesh overview</text></g></g>
<g transform="translate(1094,414)" filter="url(#softShadow)"><rect x="-68" y="-55" width="140" height="110" rx="10" fill="#071426" stroke="#3A86FF" stroke-width="2"/><text x="2" y="-28" text-anchor="middle" font-family="Inter, Helvetica, Arial, sans-serif" font-size="10" font-weight="700" letter-spacing="2" fill="#7DA3D9">STATUS</text><text x="2" y="18" text-anchor="middle" font-family="Inter, Helvetica, Arial, sans-serif" font-size="28" font-weight="900" fill="#F5F7FA">TBD</text><text x="2" y="40" text-anchor="middle" font-family="Inter, Helvetica, Arial, sans-serif" font-size="10" font-weight="600" fill="#BFC9D9">NEW</text></g>
<g opacity="0.85"><g fill="#F87171"><circle cx="1104" cy="110" r="1.4"><animate attributeName="opacity" values="0.2;1;0.2" dur="1.8s" repeatCount="indefinite"/></circle><circle cx="1124" cy="110" r="1.4"><animate attributeName="opacity" values="0.2;1;0.2" dur="1.4s" begin="0.3s" repeatCount="indefinite"/></circle></g><g fill="#7DA3D9"><circle cx="1104" cy="218" r="1.2"><animate attributeName="opacity" values="0.2;1;0.2" dur="2s" repeatCount="indefinite"/></circle><circle cx="1124" cy="218" r="1.2"><animate attributeName="opacity" values="0.2;1;0.2" dur="1.6s" begin="0.4s" repeatCount="indefinite"/></circle></g><g fill="#FFD58A"><circle cx="1104" cy="374" r="1.4"><animate attributeName="opacity" values="0.2;1;0.2" dur="1.8s" repeatCount="indefinite"/></circle><circle cx="1124" cy="374" r="1.4"><animate attributeName="opacity" values="0.2;1;0.2" dur="1.6s" begin="0.3s" repeatCount="indefinite"/></circle></g><g stroke="#E63946" stroke-width="0.5" fill="none"><path d="M20 230 L28 230"><animate attributeName="stroke-opacity" values="0;0.7;0" dur="2s" repeatCount="indefinite"/></path><path d="M20 300 L28 300"><animate attributeName="stroke-opacity" values="0;0.7;0" dur="2.3s" begin="0.3s" repeatCount="indefinite"/></path><path d="M20 370 L28 370"><animate attributeName="stroke-opacity" values="0;0.7;0" dur="1.9s" begin="0.6s" repeatCount="indefinite"/></path><path d="M20 440 L28 440"><animate attributeName="stroke-opacity" values="0;0.7;0" dur="2.1s" begin="0.9s" repeatCount="indefinite"/></path></g></g>
<g transform="translate(1080,504)" filter="url(#softShadow)">
  <rect x="-12" y="-12" width="132" height="132" rx="8" fill="#FFFFFF"/>
  <path fill="#0A1020" d="M0.0 0.0h16.8v2.4h-16.8z M19.2 0.0h2.4v2.4h-2.4z M33.6 0.0h2.4v2.4h-2.4z M40.8 0.0h2.4v2.4h-2.4z M48.0 0.0h2.4v2.4h-2.4z M55.2 0.0h2.4v2.4h-2.4z M60.0 0.0h4.8v2.4h-4.8z M67.2 0.0h2.4v2.4h-2.4z M72.0 0.0h4.8v2.4h-4.8z M79.2 0.0h2.4v2.4h-2.4z M86.4 0.0h2.4v2.4h-2.4z M91.2 0.0h16.8v2.4h-16.8z M0.0 2.4h2.4v2.4h-2.4z M14.4 2.4h2.4v2.4h-2.4z M19.2 2.4h4.8v2.4h-4.8z M26.4 2.4h2.4v2.4h-2.4z M38.4 2.4h2.4v2.4h-2.4z M45.6 2.4h2.4v2.4h-2.4z M50.4 2.4h9.6v2.4h-9.6z M69.6 2.4h2.4v2.4h-2.4z M74.4 2.4h4.8v2.4h-4.8z M84.0 2.4h2.4v2.4h-2.4z M91.2 2.4h2.4v2.4h-2.4z M105.6 2.4h2.4v2.4h-2.4z M0.0 4.8h2.4v2.4h-2.4z M4.8 4.8h7.2v2.4h-7.2z M14.4 4.8h2.4v2.4h-2.4z M19.2 4.8h12.0v2.4h-12.0z M36.0 4.8h12.0v2.4h-12.0z M52.8 4.8h2.4v2.4h-2.4z M62.4 4.8h2.4v2.4h-2.4z M67.2 4.8h4.8v2.4h-4.8z M79.2 4.8h2.4v2.4h-2.4z M84.0 4.8h2.4v2.4h-2.4z M91.2 4.8h2.4v2.4h-2.4z M96.0 4.8h7.2v2.4h-7.2z M105.6 4.8h2.4v2.4h-2.4z M0.0 7.2h2.4v2.4h-2.4z M4.8 7.2h7.2v2.4h-7.2z M14.4 7.2h2.4v2.4h-2.4z M21.6 7.2h7.2v2.4h-7.2z M31.2 7.2h2.4v2.4h-2.4z M40.8 7.2h7.2v2.4h-7.2z M55.2 7.2h2.4v2.4h-2.4z M64.8 7.2h7.2v2.4h-7.2z M74.4 7.2h7.2v2.4h-7.2z M84.0 7.2h4.8v2.4h-4.8z M91.2 7.2h2.4v2.4h-2.4z M96.0 7.2h7.2v2.4h-7.2z M105.6 7.2h2.4v2.4h-2.4z M0.0 9.6h2.4v2.4h-2.4z M4.8 9.6h7.2v2.4h-7.2z M14.4 9.6h2.4v2.4h-2.4z M19.2 9.6h4.8v2.4h-4.8z M31.2 9.6h2.4v2.4h-2.4z M38.4 9.6h2.4v2.4h-2.4z M45.6 9.6h16.8v2.4h-16.8z M67.2 9.6h2.4v2.4h-2.4z M72.0 9.6h7.2v2.4h-7.2z M81.6 9.6h7.2v2.4h-7.2z M91.2 9.6h2.4v2.4h-2.4z M96.0 9.6h7.2v2.4h-7.2z M105.6 9.6h2.4v2.4h-2.4z M0.0 12.0h2.4v2.4h-2.4z M14.4 12.0h2.4v2.4h-2.4z M31.2 12.0h2.4v2.4h-2.4z M36.0 12.0h2.4v2.4h-2.4z M40.8 12.0h4.8v2.4h-4.8z M48.0 12.0h2.4v2.4h-2.4z M57.6 12.0h2.4v2.4h-2.4z M64.8 12.0h2.4v2.4h-2.4z M69.6 12.0h4.8v2.4h-4.8z M79.2 12.0h2.4v2.4h-2.4z M91.2 12.0h2.4v2.4h-2.4z M105.6 12.0h2.4v2.4h-2.4z M0.0 14.4h16.8v2.4h-16.8z M19.2 14.4h2.4v2.4h-2.4z M24.0 14.4h2.4v2.4h-2.4z M28.8 14.4h2.4v2.4h-2.4z M33.6 14.4h2.4v2.4h-2.4z M38.4 14.4h2.4v2.4h-2.4z M43.2 14.4h2.4v2.4h-2.4z M48.0 14.4h2.4v2.4h-2.4z M52.8 14.4h2.4v2.4h-2.4z M57.6 14.4h2.4v2.4h-2.4z M62.4 14.4h2.4v2.4h-2.4z M67.2 14.4h2.4v2.4h-2.4z M72.0 14.4h2.4v2.4h-2.4z M76.8 14.4h2.4v2.4h-2.4z M81.6 14.4h2.4v2.4h-2.4z M86.4 14.4h2.4v2.4h-2.4z M91.2 14.4h16.8v2.4h-16.8z M21.6 16.8h4.8v2.4h-4.8z M40.8 16.8h4.8v2.4h-4.8z M48.0 16.8h2.4v2.4h-2.4z M57.6 16.8h7.2v2.4h-7.2z M67.2 16.8h2.4v2.4h-2.4z M72.0 16.8h2.4v2.4h-2.4z M79.2 16.8h2.4v2.4h-2.4z M84.0 16.8h4.8v2.4h-4.8z M0.0 19.2h2.4v2.4h-2.4z M7.2 19.2h14.4v2.4h-14.4z M24.0 19.2h2.4v2.4h-2.4z M38.4 19.2h2.4v2.4h-2.4z M43.2 19.2h2.4v2.4h-2.4z M48.0 19.2h12.0v2.4h-12.0z M67.2 19.2h2.4v2.4h-2.4z M74.4 19.2h2.4v2.4h-2.4z M79.2 19.2h7.2v2.4h-7.2z M88.8 19.2h2.4v2.4h-2.4z M96.0 19.2h2.4v2.4h-2.4z M100.8 19.2h7.2v2.4h-7.2z M0.0 21.6h2.4v2.4h-2.4z M4.8 21.6h2.4v2.4h-2.4z M9.6 21.6h2.4v2.4h-2.4z M26.4 21.6h21.6v2.4h-21.6z M52.8 21.6h2.4v2.4h-2.4z M57.6 21.6h7.2v2.4h-7.2z M72.0 21.6h4.8v2.4h-4.8z M79.2 21.6h9.6v2.4h-9.6z M91.2 21.6h4.8v2.4h-4.8z M98.4 21.6h7.2v2.4h-7.2z M0.0 24.0h2.4v2.4h-2.4z M4.8 24.0h2.4v2.4h-2.4z M14.4 24.0h4.8v2.4h-4.8z M33.6 24.0h12.0v2.4h-12.0z M48.0 24.0h2.4v2.4h-2.4z M64.8 24.0h2.4v2.4h-2.4z M74.4 24.0h2.4v2.4h-2.4z M79.2 24.0h4.8v2.4h-4.8z M86.4 24.0h4.8v2.4h-4.8z M93.6 24.0h2.4v2.4h-2.4z M98.4 24.0h9.6v2.4h-9.6z M0.0 26.4h2.4v2.4h-2.4z M4.8 26.4h4.8v2.4h-4.8z M16.8 26.4h4.8v2.4h-4.8z M26.4 26.4h4.8v2.4h-4.8z M36.0 26.4h21.6v2.4h-21.6z M64.8 26.4h9.6v2.4h-9.6z M76.8 26.4h2.4v2.4h-2.4z M81.6 26.4h2.4v2.4h-2.4z M86.4 26.4h2.4v2.4h-2.4z M100.8 26.4h2.4v2.4h-2.4z M0.0 28.8h2.4v2.4h-2.4z M7.2 28.8h4.8v2.4h-4.8z M14.4 28.8h4.8v2.4h-4.8z M28.8 28.8h4.8v2.4h-4.8z M36.0 28.8h2.4v2.4h-2.4z M43.2 28.8h4.8v2.4h-4.8z M50.4 28.8h2.4v2.4h-2.4z M60.0 28.8h2.4v2.4h-2.4z M64.8 28.8h4.8v2.4h-4.8z M74.4 28.8h9.6v2.4h-9.6z M88.8 28.8h4.8v2.4h-4.8z M96.0 28.8h2.4v2.4h-2.4z M103.2 28.8h2.4v2.4h-2.4z M0.0 31.2h2.4v2.4h-2.4z M4.8 31.2h2.4v2.4h-2.4z M9.6 31.2h4.8v2.4h-4.8z M16.8 31.2h4.8v2.4h-4.8z M26.4 31.2h7.2v2.4h-7.2z M62.4 31.2h4.8v2.4h-4.8z M69.6 31.2h7.2v2.4h-7.2z M86.4 31.2h7.2v2.4h-7.2z M100.8 31.2h7.2v2.4h-7.2z M0.0 33.6h9.6v2.4h-9.6z M14.4 33.6h4.8v2.4h-4.8z M24.0 33.6h2.4v2.4h-2.4z M28.8 33.6h2.4v2.4h-2.4z M33.6 33.6h2.4v2.4h-2.4z M38.4 33.6h12.0v2.4h-12.0z M52.8 33.6h24.0v2.4h-24.0z M84.0 33.6h2.4v2.4h-2.4z M91.2 33.6h4.8v2.4h-4.8z M4.8 36.0h2.4v2.4h-2.4z M9.6 36.0h4.8v2.4h-4.8z M16.8 36.0h2.4v2.4h-2.4z M28.8 36.0h4.8v2.4h-4.8z M40.8 36.0h9.6v2.4h-9.6z M52.8 36.0h2.4v2.4h-2.4z M62.4 36.0h14.4v2.4h-14.4z M81.6 36.0h4.8v2.4h-4.8z M91.2 36.0h4.8v2.4h-4.8z M98.4 36.0h7.2v2.4h-7.2z M2.4 38.4h2.4v2.4h-2.4z M7.2 38.4h2.4v2.4h-2.4z M14.4 38.4h2.4v2.4h-2.4z M21.6 38.4h2.4v2.4h-2.4z M26.4 38.4h4.8v2.4h-4.8z M36.0 38.4h4.8v2.4h-4.8z M43.2 38.4h4.8v2.4h-4.8z M60.0 38.4h2.4v2.4h-2.4z M69.6 38.4h4.8v2.4h-4.8z M76.8 38.4h4.8v2.4h-4.8z M88.8 38.4h2.4v2.4h-2.4z M98.4 38.4h2.4v2.4h-2.4z M105.6 38.4h2.4v2.4h-2.4z M7.2 40.8h2.4v2.4h-2.4z M12.0 40.8h2.4v2.4h-2.4z M26.4 40.8h9.6v2.4h-9.6z M43.2 40.8h2.4v2.4h-2.4z M52.8 40.8h4.8v2.4h-4.8z M60.0 40.8h2.4v2.4h-2.4z M64.8 40.8h2.4v2.4h-2.4z M72.0 40.8h2.4v2.4h-2.4z M76.8 40.8h7.2v2.4h-7.2z M86.4 40.8h4.8v2.4h-4.8z M96.0 40.8h4.8v2.4h-4.8z M103.2 40.8h4.8v2.4h-4.8z M0.0 43.2h4.8v2.4h-4.8z M9.6 43.2h9.6v2.4h-9.6z M24.0 43.2h4.8v2.4h-4.8z M31.2 43.2h4.8v2.4h-4.8z M38.4 43.2h7.2v2.4h-7.2z M57.6 43.2h2.4v2.4h-2.4z M62.4 43.2h2.4v2.4h-2.4z M79.2 43.2h2.4v2.4h-2.4z M91.2 43.2h2.4v2.4h-2.4z M96.0 43.2h2.4v2.4h-2.4z M105.6 43.2h2.4v2.4h-2.4z M0.0 45.6h2.4v2.4h-2.4z M4.8 45.6h4.8v2.4h-4.8z M16.8 45.6h12.0v2.4h-12.0z M40.8 45.6h2.4v2.4h-2.4z M48.0 45.6h4.8v2.4h-4.8z M55.2 45.6h2.4v2.4h-2.4z M60.0 45.6h7.2v2.4h-7.2z M76.8 45.6h4.8v2.4h-4.8z M84.0 45.6h2.4v2.4h-2.4z M88.8 45.6h2.4v2.4h-2.4z M93.6 45.6h14.4v2.4h-14.4z M0.0 48.0h4.8v2.4h-4.8z M9.6 48.0h12.0v2.4h-12.0z M24.0 48.0h2.4v2.4h-2.4z M31.2 48.0h2.4v2.4h-2.4z M36.0 48.0h9.6v2.4h-9.6z M48.0 48.0h12.0v2.4h-12.0z M67.2 48.0h4.8v2.4h-4.8z M81.6 48.0h2.4v2.4h-2.4z M86.4 48.0h16.8v2.4h-16.8z M0.0 50.4h12.0v2.4h-12.0z M19.2 50.4h7.2v2.4h-7.2z M31.2 50.4h2.4v2.4h-2.4z M36.0 50.4h9.6v2.4h-9.6z M48.0 50.4h2.4v2.4h-2.4z M57.6 50.4h2.4v2.4h-2.4z M62.4 50.4h26.4v2.4h-26.4z M96.0 50.4h9.6v2.4h-9.6z M0.0 52.8h4.8v2.4h-4.8z M7.2 52.8h4.8v2.4h-4.8z M14.4 52.8h2.4v2.4h-2.4z M19.2 52.8h2.4v2.4h-2.4z M24.0 52.8h7.2v2.4h-7.2z M33.6 52.8h2.4v2.4h-2.4z M48.0 52.8h2.4v2.4h-2.4z M52.8 52.8h2.4v2.4h-2.4z M57.6 52.8h9.6v2.4h-9.6z M69.6 52.8h9.6v2.4h-9.6z M81.6 52.8h2.4v2.4h-2.4z M86.4 52.8h2.4v2.4h-2.4z M91.2 52.8h2.4v2.4h-2.4z M96.0 52.8h12.0v2.4h-12.0z M7.2 55.2h4.8v2.4h-4.8z M19.2 55.2h12.0v2.4h-12.0z M33.6 55.2h2.4v2.4h-2.4z M38.4 55.2h4.8v2.4h-4.8z M48.0 55.2h2.4v2.4h-2.4z M57.6 55.2h4.8v2.4h-4.8z M64.8 55.2h2.4v2.4h-2.4z M69.6 55.2h7.2v2.4h-7.2z M79.2 55.2h9.6v2.4h-9.6z M96.0 55.2h2.4v2.4h-2.4z M100.8 55.2h7.2v2.4h-7.2z M4.8 57.6h19.2v2.4h-19.2z M26.4 57.6h2.4v2.4h-2.4z M36.0 57.6h2.4v2.4h-2.4z M45.6 57.6h14.4v2.4h-14.4z M67.2 57.6h7.2v2.4h-7.2z M76.8 57.6h2.4v2.4h-2.4z M81.6 57.6h16.8v2.4h-16.8z M103.2 57.6h4.8v2.4h-4.8z M0.0 60.0h9.6v2.4h-9.6z M16.8 60.0h2.4v2.4h-2.4z M26.4 60.0h2.4v2.4h-2.4z M31.2 60.0h2.4v2.4h-2.4z M36.0 60.0h2.4v2.4h-2.4z M43.2 60.0h2.4v2.4h-2.4z M48.0 60.0h2.4v2.4h-2.4z M52.8 60.0h2.4v2.4h-2.4z M57.6 60.0h2.4v2.4h-2.4z M62.4 60.0h2.4v2.4h-2.4z M72.0 60.0h9.6v2.4h-9.6z M91.2 60.0h2.4v2.4h-2.4z M100.8 60.0h4.8v2.4h-4.8z M14.4 62.4h4.8v2.4h-4.8z M24.0 62.4h4.8v2.4h-4.8z M31.2 62.4h4.8v2.4h-4.8z M43.2 62.4h7.2v2.4h-7.2z M60.0 62.4h4.8v2.4h-4.8z M67.2 62.4h4.8v2.4h-4.8z M79.2 62.4h2.4v2.4h-2.4z M84.0 62.4h4.8v2.4h-4.8z M93.6 62.4h2.4v2.4h-2.4z M98.4 62.4h2.4v2.4h-2.4z M4.8 64.8h2.4v2.4h-2.4z M9.6 64.8h2.4v2.4h-2.4z M16.8 64.8h2.4v2.4h-2.4z M28.8 64.8h2.4v2.4h-2.4z M36.0 64.8h4.8v2.4h-4.8z M50.4 64.8h4.8v2.4h-4.8z M57.6 64.8h2.4v2.4h-2.4z M62.4 64.8h2.4v2.4h-2.4z M67.2 64.8h9.6v2.4h-9.6z M81.6 64.8h4.8v2.4h-4.8z M96.0 64.8h2.4v2.4h-2.4z M100.8 64.8h7.2v2.4h-7.2z M2.4 67.2h2.4v2.4h-2.4z M9.6 67.2h2.4v2.4h-2.4z M14.4 67.2h9.6v2.4h-9.6z M33.6 67.2h4.8v2.4h-4.8z M43.2 67.2h4.8v2.4h-4.8z M55.2 67.2h2.4v2.4h-2.4z M60.0 67.2h4.8v2.4h-4.8z M67.2 67.2h7.2v2.4h-7.2z M76.8 67.2h2.4v2.4h-2.4z M84.0 67.2h4.8v2.4h-4.8z M96.0 67.2h4.8v2.4h-4.8z M103.2 67.2h2.4v2.4h-2.4z M0.0 69.6h4.8v2.4h-4.8z M9.6 69.6h4.8v2.4h-4.8z M36.0 69.6h2.4v2.4h-2.4z M43.2 69.6h2.4v2.4h-2.4z M50.4 69.6h2.4v2.4h-2.4z M60.0 69.6h2.4v2.4h-2.4z M69.6 69.6h4.8v2.4h-4.8z M76.8 69.6h2.4v2.4h-2.4z M81.6 69.6h2.4v2.4h-2.4z M86.4 69.6h2.4v2.4h-2.4z M91.2 69.6h7.2v2.4h-7.2z M100.8 69.6h4.8v2.4h-4.8z M2.4 72.0h4.8v2.4h-4.8z M12.0 72.0h7.2v2.4h-7.2z M28.8 72.0h2.4v2.4h-2.4z M33.6 72.0h4.8v2.4h-4.8z M40.8 72.0h2.4v2.4h-2.4z M45.6 72.0h2.4v2.4h-2.4z M57.6 72.0h4.8v2.4h-4.8z M69.6 72.0h2.4v2.4h-2.4z M74.4 72.0h7.2v2.4h-7.2z M84.0 72.0h14.4v2.4h-14.4z M100.8 72.0h2.4v2.4h-2.4z M105.6 72.0h2.4v2.4h-2.4z M12.0 74.4h2.4v2.4h-2.4z M21.6 74.4h7.2v2.4h-7.2z M38.4 74.4h4.8v2.4h-4.8z M45.6 74.4h4.8v2.4h-4.8z M57.6 74.4h2.4v2.4h-2.4z M64.8 74.4h2.4v2.4h-2.4z M69.6 74.4h7.2v2.4h-7.2z M79.2 74.4h12.0v2.4h-12.0z M98.4 74.4h4.8v2.4h-4.8z M0.0 76.8h2.4v2.4h-2.4z M4.8 76.8h4.8v2.4h-4.8z M12.0 76.8h4.8v2.4h-4.8z M21.6 76.8h7.2v2.4h-7.2z M33.6 76.8h2.4v2.4h-2.4z M38.4 76.8h12.0v2.4h-12.0z M52.8 76.8h7.2v2.4h-7.2z M62.4 76.8h2.4v2.4h-2.4z M67.2 76.8h4.8v2.4h-4.8z M74.4 76.8h2.4v2.4h-2.4z M86.4 76.8h4.8v2.4h-4.8z M93.6 76.8h2.4v2.4h-2.4z M105.6 76.8h2.4v2.4h-2.4z M2.4 79.2h2.4v2.4h-2.4z M12.0 79.2h2.4v2.4h-2.4z M16.8 79.2h4.8v2.4h-4.8z M33.6 79.2h4.8v2.4h-4.8z M40.8 79.2h7.2v2.4h-7.2z M50.4 79.2h2.4v2.4h-2.4z M57.6 79.2h16.8v2.4h-16.8z M76.8 79.2h9.6v2.4h-9.6z M93.6 79.2h7.2v2.4h-7.2z M103.2 79.2h4.8v2.4h-4.8z M9.6 81.6h2.4v2.4h-2.4z M14.4 81.6h7.2v2.4h-7.2z M26.4 81.6h4.8v2.4h-4.8z M33.6 81.6h9.6v2.4h-9.6z M52.8 81.6h4.8v2.4h-4.8z M62.4 81.6h2.4v2.4h-2.4z M69.6 81.6h2.4v2.4h-2.4z M81.6 81.6h7.2v2.4h-7.2z M91.2 81.6h2.4v2.4h-2.4z M96.0 81.6h2.4v2.4h-2.4z M103.2 81.6h4.8v2.4h-4.8z M2.4 84.0h9.6v2.4h-9.6z M16.8 84.0h2.4v2.4h-2.4z M21.6 84.0h2.4v2.4h-2.4z M28.8 84.0h4.8v2.4h-4.8z M40.8 84.0h4.8v2.4h-4.8z M57.6 84.0h7.2v2.4h-7.2z M67.2 84.0h7.2v2.4h-7.2z M81.6 84.0h2.4v2.4h-2.4z M86.4 84.0h7.2v2.4h-7.2z M96.0 84.0h2.4v2.4h-2.4z M100.8 84.0h7.2v2.4h-7.2z M0.0 86.4h2.4v2.4h-2.4z M7.2 86.4h4.8v2.4h-4.8z M14.4 86.4h4.8v2.4h-4.8z M24.0 86.4h2.4v2.4h-2.4z M31.2 86.4h4.8v2.4h-4.8z M40.8 86.4h2.4v2.4h-2.4z M48.0 86.4h14.4v2.4h-14.4z M67.2 86.4h2.4v2.4h-2.4z M72.0 86.4h2.4v2.4h-2.4z M76.8 86.4h2.4v2.4h-2.4z M84.0 86.4h14.4v2.4h-14.4z M100.8 86.4h2.4v2.4h-2.4z M19.2 88.8h2.4v2.4h-2.4z M28.8 88.8h4.8v2.4h-4.8z M36.0 88.8h7.2v2.4h-7.2z M45.6 88.8h4.8v2.4h-4.8z M57.6 88.8h2.4v2.4h-2.4z M67.2 88.8h7.2v2.4h-7.2z M79.2 88.8h2.4v2.4h-2.4z M84.0 88.8h4.8v2.4h-4.8z M96.0 88.8h7.2v2.4h-7.2z M0.0 91.2h16.8v2.4h-16.8z M19.2 91.2h2.4v2.4h-2.4z M26.4 91.2h4.8v2.4h-4.8z M33.6 91.2h4.8v2.4h-4.8z M40.8 91.2h4.8v2.4h-4.8z M48.0 91.2h2.4v2.4h-2.4z M52.8 91.2h2.4v2.4h-2.4z M57.6 91.2h4.8v2.4h-4.8z M64.8 91.2h9.6v2.4h-9.6z M76.8 91.2h2.4v2.4h-2.4z M81.6 91.2h7.2v2.4h-7.2z M91.2 91.2h2.4v2.4h-2.4z M96.0 91.2h2.4v2.4h-2.4z M100.8 91.2h2.4v2.4h-2.4z M0.0 93.6h2.4v2.4h-2.4z M14.4 93.6h2.4v2.4h-2.4z M19.2 93.6h4.8v2.4h-4.8z M26.4 93.6h4.8v2.4h-4.8z M38.4 93.6h12.0v2.4h-12.0z M57.6 93.6h4.8v2.4h-4.8z M72.0 93.6h4.8v2.4h-4.8z M81.6 93.6h7.2v2.4h-7.2z M96.0 93.6h9.6v2.4h-9.6z M0.0 96.0h2.4v2.4h-2.4z M4.8 96.0h7.2v2.4h-7.2z M14.4 96.0h2.4v2.4h-2.4z M19.2 96.0h7.2v2.4h-7.2z M28.8 96.0h9.6v2.4h-9.6z M40.8 96.0h2.4v2.4h-2.4z M48.0 96.0h14.4v2.4h-14.4z M69.6 96.0h2.4v2.4h-2.4z M74.4 96.0h4.8v2.4h-4.8z M81.6 96.0h2.4v2.4h-2.4z M86.4 96.0h12.0v2.4h-12.0z M103.2 96.0h2.4v2.4h-2.4z M0.0 98.4h2.4v2.4h-2.4z M4.8 98.4h7.2v2.4h-7.2z M14.4 98.4h2.4v2.4h-2.4z M19.2 98.4h9.6v2.4h-9.6z M31.2 98.4h9.6v2.4h-9.6z M43.2 98.4h9.6v2.4h-9.6z M57.6 98.4h4.8v2.4h-4.8z M64.8 98.4h2.4v2.4h-2.4z M69.6 98.4h4.8v2.4h-4.8z M76.8 98.4h9.6v2.4h-9.6z M88.8 98.4h4.8v2.4h-4.8z M105.6 98.4h2.4v2.4h-2.4z M0.0 100.8h2.4v2.4h-2.4z M4.8 100.8h7.2v2.4h-7.2z M14.4 100.8h2.4v2.4h-2.4z M28.8 100.8h2.4v2.4h-2.4z M36.0 100.8h2.4v2.4h-2.4z M40.8 100.8h2.4v2.4h-2.4z M48.0 100.8h14.4v2.4h-14.4z M74.4 100.8h7.2v2.4h-7.2z M86.4 100.8h2.4v2.4h-2.4z M96.0 100.8h2.4v2.4h-2.4z M105.6 100.8h2.4v2.4h-2.4z M0.0 103.2h2.4v2.4h-2.4z M14.4 103.2h2.4v2.4h-2.4z M21.6 103.2h2.4v2.4h-2.4z M28.8 103.2h2.4v2.4h-2.4z M33.6 103.2h2.4v2.4h-2.4z M40.8 103.2h7.2v2.4h-7.2z M50.4 103.2h7.2v2.4h-7.2z M69.6 103.2h2.4v2.4h-2.4z M79.2 103.2h9.6v2.4h-9.6z M91.2 103.2h2.4v2.4h-2.4z M96.0 103.2h2.4v2.4h-2.4z M100.8 103.2h7.2v2.4h-7.2z M0.0 105.6h16.8v2.4h-16.8z M19.2 105.6h2.4v2.4h-2.4z M26.4 105.6h7.2v2.4h-7.2z M40.8 105.6h2.4v2.4h-2.4z M55.2 105.6h16.8v2.4h-16.8z M74.4 105.6h2.4v2.4h-2.4z M84.0 105.6h4.8v2.4h-4.8z M98.4 105.6h2.4v2.4h-2.4z"/>
</g>
<text x="1134" y="486" font-family="Inter, Helvetica, Arial, sans-serif" font-size="10" font-weight="700" fill="#F5F7FA" text-anchor="middle">scan / full post</text>
</svg>
