<svg xmlns="http://www.w3.org/2000/svg" viewBox="0 0 1200 630" width="1200" height="630">
  <title>Tech Security Weekly Digest Ollama AI SolarWinds RCE Google IPIDEA</title>
  <defs>
    <linearGradient id="bg" x1="0%" y1="0%" x2="100%" y2="100%">
      <stop offset="0%" style="stop-color:#0d1b2a"/>
      <stop offset="100%" style="stop-color:#1a3050"/>
    </linearGradient>
    <linearGradient id="accent" x1="0%" y1="0%" x2="100%" y2="0%">
      <stop offset="0%" style="stop-color:#2980b9"/>
      <stop offset="100%" style="stop-color:#f39c12"/>
    </linearGradient>
  </defs>
  <rect width="1200" height="630" fill="url(#bg)"/>
  <line x1="0" y1="105" x2="1200" y2="105" stroke="rgba(255,255,255,0.04)" stroke-width="1"/>
  <line x1="0" y1="210" x2="1200" y2="210" stroke="rgba(255,255,255,0.04)" stroke-width="1"/>
  <line x1="0" y1="315" x2="1200" y2="315" stroke="rgba(255,255,255,0.04)" stroke-width="1"/>
  <line x1="0" y1="420" x2="1200" y2="420" stroke="rgba(255,255,255,0.04)" stroke-width="1"/>
  <line x1="240" y1="0" x2="240" y2="630" stroke="rgba(255,255,255,0.03)" stroke-width="1"/>
  <line x1="480" y1="0" x2="480" y2="630" stroke="rgba(255,255,255,0.03)" stroke-width="1"/>
  <line x1="720" y1="0" x2="720" y2="630" stroke="rgba(255,255,255,0.03)" stroke-width="1"/>
  <line x1="960" y1="0" x2="960" y2="630" stroke="rgba(255,255,255,0.03)" stroke-width="1"/>
  <circle cx="1050" cy="450" r="200" fill="rgba(255,255,255,0.02)"/>
  <circle cx="1050" cy="450" r="140" fill="rgba(255,255,255,0.02)"/>
  <!-- Panel 1: Ollama AI exposed server -->
  <rect x="760" y="135" width="130" height="88" rx="7" fill="rgba(108,92,231,0.12)" stroke="#6c5ce7" stroke-width="1.5"/>
  <circle cx="800" cy="168" r="22" fill="rgba(108,92,231,0.2)" stroke="#6c5ce7" stroke-width="1.5"/>
  <!-- Exposed warning on server -->
  <rect x="830" y="154" width="50" height="20" rx="3" fill="rgba(231,76,60,0.3)" stroke="#e74c3c" stroke-width="1"/>
  <!-- Panel 2: SolarWinds sun cracked -->
  <circle cx="970" cy="175" r="32" fill="rgba(243,156,18,0.12)" stroke="#f39c12" stroke-width="2" opacity="0.85"/>
  <line x1="970" y1="138" x2="970" y2="128" stroke="#f39c12" stroke-width="2" opacity="0.65"/>
  <line x1="996" y1="149" x2="1003" y2="142" stroke="#f39c12" stroke-width="2" opacity="0.65"/>
  <line x1="1005" y1="175" x2="1016" y2="175" stroke="#f39c12" stroke-width="2" opacity="0.65"/>
  <line x1="944" y1="149" x2="937" y2="142" stroke="#f39c12" stroke-width="2" opacity="0.65"/>
  <line x1="935" y1="175" x2="924" y2="175" stroke="#f39c12" stroke-width="2" opacity="0.65"/>
  <!-- Crack on sun -->
  <polyline points="958,158 966,174 956,186" fill="none" stroke="#e74c3c" stroke-width="2.5" stroke-linecap="round"/>
  <!-- Panel 3: IPIDEA proxy disruption nodes -->
  <circle cx="1110" cy="160" r="22" fill="rgba(52,152,219,0.15)" stroke="#3498db" stroke-width="1.5"/>
  <circle cx="1090" cy="188" r="14" fill="rgba(52,152,219,0.1)" stroke="#3498db" stroke-width="1"/>
  <circle cx="1130" cy="190" r="14" fill="rgba(230,126,34,0.1)" stroke="#e67e22" stroke-width="1" stroke-dasharray="4,3"/>
  <!-- X on disrupted node -->
  <line x1="1123" y1="183" x2="1137" y2="197" stroke="#e67e22" stroke-width="2"/>
  <line x1="1137" y1="183" x2="1123" y2="197" stroke="#e67e22" stroke-width="2"/>
  <line x1="1110" y1="138" x2="1090" y2="188" stroke="rgba(52,152,219,0.4)" stroke-width="1.5" stroke-dasharray="4,3"/>
  <line x1="1110" y1="138" x2="1130" y2="190" stroke="rgba(230,126,34,0.35)" stroke-width="1.5" stroke-dasharray="4,3"/>
  <!-- Left accent bar -->
  <rect x="0" y="0" width="6" height="630" fill="url(#accent)"/>
  <!-- Date badge -->
  <rect x="80" y="60" width="240" height="32" rx="6" fill="rgba(41,128,185,0.25)" stroke="rgba(41,128,185,0.4)" stroke-width="1"/>
  <text x="200" y="81" font-size="13" fill="rgba(255,255,255,0.85)" font-family="sans-serif" text-anchor="middle" letter-spacing="1">JANUARY 30, 2026</text>
  <!-- Title -->
  <text x="80" y="185" font-size="40" font-weight="700" fill="white" font-family="sans-serif">Ollama AI Exposed,</text>
  <text x="80" y="245" font-size="40" font-weight="700" fill="white" font-family="sans-serif">SolarWinds RCE and IPIDEA</text>
  <!-- Subtitle -->
  <text x="80" y="300" font-size="18" fill="rgba(255,255,255,0.65)" font-family="sans-serif">Weekly digest: AI server exposure, WHD exploit chain and proxy disruptions</text>
  <!-- Accent line -->
  <rect x="80" y="325" width="420" height="3" fill="url(#accent)" rx="2"/>
  <!-- Category -->
  <text x="80" y="370" font-size="14" fill="rgba(255,255,255,0.5)" font-family="sans-serif" letter-spacing="2">SECURITY WEEKLY DIGEST</text>
  <!-- Pill tags -->
  <rect x="80" y="402" width="100" height="36" rx="18" fill="rgba(108,92,231,0.25)" stroke="rgba(108,92,231,0.5)" stroke-width="1"/>
  <text x="130" y="425" font-size="13" fill="rgba(255,255,255,0.85)" font-family="sans-serif" text-anchor="middle">Ollama AI</text>
  <rect x="196" y="402" width="120" height="36" rx="18" fill="rgba(243,156,18,0.2)" stroke="rgba(243,156,18,0.45)" stroke-width="1"/>
  <text x="256" y="425" font-size="13" fill="rgba(255,255,255,0.85)" font-family="sans-serif" text-anchor="middle">SolarWinds</text>
  <rect x="332" y="402" width="90" height="36" rx="18" fill="rgba(41,128,185,0.2)" stroke="rgba(41,128,185,0.4)" stroke-width="1"/>
  <text x="377" y="425" font-size="13" fill="rgba(255,255,255,0.85)" font-family="sans-serif" text-anchor="middle">IPIDEA</text>
  <!-- Bottom bar -->
  <rect x="0" y="520" width="1200" height="110" fill="rgba(0,0,0,0.3)"/>
  <text x="80" y="545" font-size="15" fill="rgba(255,255,255,0.5)" font-family="sans-serif">tech.2twodragon.com</text>
  <text x="1120" y="545" font-size="13" fill="rgba(255,255,255,0.4)" font-family="sans-serif" text-anchor="end">DevSecOps</text>
</svg>
