<svg xmlns="http://www.w3.org/2000/svg" viewBox="0 0 1200 630" width="1200" height="630">
  <title>Docker AI Vulnerability CVE-2025-11953 RCE Attack Analysis</title>
  <defs>
    <linearGradient id="bg" x1="0%" y1="0%" x2="100%" y2="100%">
      <stop offset="0%" stop-color="#0d1b2a"/>
      <stop offset="100%" stop-color="#1a3050"/>
    </linearGradient>
    <linearGradient id="accent" x1="0%" y1="0%" x2="100%" y2="0%">
      <stop offset="0%" stop-color="#2980b9"/>
      <stop offset="100%" stop-color="#d35400"/>
    </linearGradient>
  </defs>
  <rect width="1200" height="630" fill="url(#bg)"/>
  <!-- Grid lines -->
  <line x1="0" y1="105" x2="1200" y2="105" stroke="rgba(255,255,255,0.04)" stroke-width="1"/>
  <line x1="0" y1="210" x2="1200" y2="210" stroke="rgba(255,255,255,0.04)" stroke-width="1"/>
  <line x1="0" y1="315" x2="1200" y2="315" stroke="rgba(255,255,255,0.04)" stroke-width="1"/>
  <line x1="0" y1="420" x2="1200" y2="420" stroke="rgba(255,255,255,0.04)" stroke-width="1"/>
  <line x1="240" y1="0" x2="240" y2="630" stroke="rgba(255,255,255,0.03)" stroke-width="1"/>
  <line x1="480" y1="0" x2="480" y2="630" stroke="rgba(255,255,255,0.03)" stroke-width="1"/>
  <line x1="720" y1="0" x2="720" y2="630" stroke="rgba(255,255,255,0.03)" stroke-width="1"/>
  <line x1="960" y1="0" x2="960" y2="630" stroke="rgba(255,255,255,0.03)" stroke-width="1"/>
  <!-- Background circles -->
  <circle cx="1050" cy="350" r="200" fill="rgba(41,128,185,0.04)"/>
  <circle cx="1050" cy="350" r="140" fill="rgba(211,84,0,0.04)"/>
  <!-- Docker whale icon outline -->
  <ellipse cx="990" cy="330" rx="80" ry="55" fill="rgba(41,128,185,0.15)" stroke="#2980b9" stroke-width="2"/>
  <!-- Whale tail -->
  <path d="M910 345 Q890 340 885 325 Q895 330 905 320 Q915 330 910 345 Z" fill="rgba(41,128,185,0.2)" stroke="#2980b9" stroke-width="1.5"/>
  <!-- Whale spout -->
  <path d="M980 275 Q985 255 990 240 Q995 255 1000 275" fill="none" stroke="rgba(41,128,185,0.5)" stroke-width="2"/>
  <!-- Container boxes on whale -->
  <rect x="950" y="310" width="28" height="22" rx="3" fill="rgba(41,128,185,0.4)" stroke="rgba(255,255,255,0.3)" stroke-width="1"/>
  <rect x="982" y="310" width="28" height="22" rx="3" fill="rgba(41,128,185,0.4)" stroke="rgba(255,255,255,0.3)" stroke-width="1"/>
  <rect x="1014" y="310" width="28" height="22" rx="3" fill="rgba(41,128,185,0.4)" stroke="rgba(255,255,255,0.3)" stroke-width="1"/>
  <rect x="966" y="290" width="28" height="22" rx="3" fill="rgba(41,128,185,0.35)" stroke="rgba(255,255,255,0.25)" stroke-width="1"/>
  <rect x="998" y="290" width="28" height="22" rx="3" fill="rgba(41,128,185,0.35)" stroke="rgba(255,255,255,0.25)" stroke-width="1"/>
  <!-- Warning triangle over whale -->
  <polygon points="990,215 1020,265 960,265" fill="rgba(211,84,0,0.3)" stroke="#d35400" stroke-width="2"/>
  <text x="990" y="258" font-family="system-ui,sans-serif" font-size="22" fill="#d35400" text-anchor="middle" font-weight="700">!</text>
  <!-- Attack arrows -->
  <line x1="1080" y1="280" x2="1055" y2="315" stroke="rgba(231,76,60,0.7)" stroke-width="2" stroke-dasharray="5 3"/>
  <polygon points="1055,315 1060,302 1068,308" fill="rgba(231,76,60,0.7)"/>
  <line x1="880" y1="280" x2="905" y2="310" stroke="rgba(231,76,60,0.7)" stroke-width="2" stroke-dasharray="5 3"/>
  <polygon points="905,310 898,298 907,296" fill="rgba(231,76,60,0.7)"/>
  <!-- CVE label -->
  <rect x="920" y="400" width="140" height="30" rx="5" fill="rgba(211,84,0,0.2)" stroke="rgba(211,84,0,0.5)" stroke-width="1"/>
  <text x="990" y="420" font-family="system-ui,sans-serif" font-size="13" fill="#d35400" text-anchor="middle" font-weight="700">CVE-2025-11953</text>
  <!-- Left accent bar -->
  <rect x="0" y="0" width="6" height="630" fill="url(#accent)"/>
  <!-- Date badge -->
  <rect x="80" y="60" width="220" height="32" rx="4" fill="rgba(41,128,185,0.2)" stroke="rgba(41,128,185,0.4)" stroke-width="1"/>
  <text x="190" y="81" font-family="system-ui,sans-serif" font-size="14" fill="rgba(255,255,255,0.8)" text-anchor="middle" letter-spacing="1">FEBRUARY 4, 2026</text>
  <!-- Main title -->
  <text x="80" y="185" font-family="system-ui,sans-serif" font-size="46" font-weight="700" fill="white" letter-spacing="-1">Docker AI Vuln</text>
  <text x="80" y="245" font-family="system-ui,sans-serif" font-size="46" font-weight="700" fill="white" letter-spacing="-1">RCE Attack Analysis</text>
  <!-- Subtitle -->
  <text x="80" y="300" font-family="system-ui,sans-serif" font-size="19" fill="rgba(255,255,255,0.6)">CVE-2025-11953, Container Escape and RCE Vector</text>
  <!-- Accent line -->
  <rect x="80" y="325" width="420" height="3" rx="1" fill="url(#accent)"/>
  <!-- Category label -->
  <text x="80" y="370" font-family="system-ui,sans-serif" font-size="14" fill="rgba(255,255,255,0.4)" letter-spacing="2">SECURITY WEEKLY DIGEST</text>
  <!-- Keyword tags -->
  <rect x="80" y="420" width="100" height="36" rx="18" fill="rgba(41,128,185,0.18)" stroke="rgba(41,128,185,0.4)" stroke-width="1"/>
  <text x="130" y="443" font-family="system-ui,sans-serif" font-size="14" fill="#2980b9" text-anchor="middle" font-weight="600">Docker</text>
  <rect x="198" y="420" width="80" height="36" rx="18" fill="rgba(211,84,0,0.18)" stroke="rgba(211,84,0,0.4)" stroke-width="1"/>
  <text x="238" y="443" font-family="system-ui,sans-serif" font-size="14" fill="#d35400" text-anchor="middle" font-weight="600">CVE</text>
  <rect x="296" y="420" width="120" height="36" rx="18" fill="rgba(231,76,60,0.18)" stroke="rgba(231,76,60,0.4)" stroke-width="1"/>
  <text x="356" y="443" font-family="system-ui,sans-serif" font-size="14" fill="#e74c3c" text-anchor="middle" font-weight="600">RCE Attack</text>
  <!-- Bottom rule -->
  <rect x="80" y="520" width="1040" height="1" fill="rgba(255,255,255,0.08)"/>
  <text x="80" y="545" font-family="system-ui,sans-serif" font-size="13" fill="rgba(255,255,255,0.3)" letter-spacing="1">tech.2twodragon.com</text>
  <text x="1120" y="545" font-family="system-ui,sans-serif" font-size="13" fill="rgba(255,255,255,0.3)" text-anchor="end">DevSecOps</text>
</svg>
