<svg xmlns="http://www.w3.org/2000/svg" viewBox="0 0 1200 630" width="1200" height="630">
  <defs>
    <linearGradient id="bgGrad" x1="0%" y1="0%" x2="100%" y2="100%">
      <stop offset="0%" style="stop-color:#001529;stop-opacity:1"/>
      <stop offset="50%" style="stop-color:#0f172a;stop-opacity:1"/>
      <stop offset="100%" style="stop-color:#0a0f1e;stop-opacity:1"/>
    </linearGradient>
    <linearGradient id="cuffGrad" x1="0%" y1="0%" x2="0%" y2="100%">
      <stop offset="0%" style="stop-color:#e2e8f0;stop-opacity:1"/>
      <stop offset="30%" style="stop-color:#cbd5e1;stop-opacity:1"/>
      <stop offset="60%" style="stop-color:#94a3b8;stop-opacity:1"/>
      <stop offset="100%" style="stop-color:#64748b;stop-opacity:1"/>
    </linearGradient>
    <linearGradient id="cuffInner" x1="0%" y1="0%" x2="0%" y2="100%">
      <stop offset="0%" style="stop-color:#475569;stop-opacity:1"/>
      <stop offset="100%" style="stop-color:#1e293b;stop-opacity:1"/>
    </linearGradient>
    <radialGradient id="lawGlow" cx="50%" cy="50%" r="50%">
      <stop offset="0%" style="stop-color:#2563eb;stop-opacity:0.5"/>
      <stop offset="50%" style="stop-color:#1d4ed8;stop-opacity:0.25"/>
      <stop offset="100%" style="stop-color:#1e3a5f;stop-opacity:0"/>
    </radialGradient>
    <radialGradient id="skullGlow" cx="50%" cy="50%" r="50%">
      <stop offset="0%" style="stop-color:#dc2626;stop-opacity:0.4"/>
      <stop offset="60%" style="stop-color:#991b1b;stop-opacity:0.15"/>
      <stop offset="100%" style="stop-color:#7f1d1d;stop-opacity:0"/>
    </radialGradient>
    <radialGradient id="redPing" cx="50%" cy="50%" r="50%">
      <stop offset="0%" style="stop-color:#ef4444;stop-opacity:0.8"/>
      <stop offset="70%" style="stop-color:#dc2626;stop-opacity:0.3"/>
      <stop offset="100%" style="stop-color:#dc2626;stop-opacity:0"/>
    </radialGradient>
    <radialGradient id="bluePing" cx="50%" cy="50%" r="50%">
      <stop offset="0%" style="stop-color:#60a5fa;stop-opacity:0.8"/>
      <stop offset="70%" style="stop-color:#2563eb;stop-opacity:0.3"/>
      <stop offset="100%" style="stop-color:#2563eb;stop-opacity:0"/>
    </radialGradient>
    <linearGradient id="badgeGrad" x1="0%" y1="0%" x2="100%" y2="100%">
      <stop offset="0%" style="stop-color:#1e3a5f;stop-opacity:1"/>
      <stop offset="100%" style="stop-color:#172554;stop-opacity:1"/>
    </linearGradient>
    <linearGradient id="titleGrad" x1="0%" y1="0%" x2="100%" y2="0%">
      <stop offset="0%" style="stop-color:#e2e8f0;stop-opacity:1"/>
      <stop offset="60%" style="stop-color:#cbd5e1;stop-opacity:1"/>
      <stop offset="100%" style="stop-color:#94a3b8;stop-opacity:1"/>
    </linearGradient>
    <linearGradient id="fadeGrad" x1="0%" y1="0%" x2="100%" y2="0%">
      <stop offset="0%" style="stop-color:#ef4444;stop-opacity:1"/>
      <stop offset="60%" style="stop-color:#ef4444;stop-opacity:0.5"/>
      <stop offset="100%" style="stop-color:#ef4444;stop-opacity:0"/>
    </linearGradient>
    <filter id="cuffGlowFx" x="-20%" y="-20%" width="140%" height="140%">
      <feGaussianBlur stdDeviation="5" result="blur"/>
      <feComposite in="SourceGraphic" in2="blur" operator="over"/>
    </filter>
    <filter id="softGlow" x="-10%" y="-10%" width="120%" height="120%">
      <feGaussianBlur stdDeviation="3" result="blur"/>
      <feMerge>
        <feMergeNode in="blur"/>
        <feMergeNode in="SourceGraphic"/>
      </feMerge>
    </filter>
    <filter id="mapGlow">
      <feGaussianBlur stdDeviation="1.2" result="blur"/>
      <feComposite in="SourceGraphic" in2="blur" operator="over"/>
    </filter>
  </defs>

  <!-- LAYER 0: BASE BACKGROUND -->
  <rect width="1200" height="630" fill="url(#bgGrad)"/>

  <!-- LAYER 1: WORLD MAP GRID -->
  <g opacity="0.10" stroke="#334155" stroke-width="0.7" fill="none" filter="url(#mapGlow)">
    <line x1="0" y1="105" x2="1200" y2="105"/>
    <line x1="0" y1="210" x2="1200" y2="210"/>
    <line x1="0" y1="315" x2="1200" y2="315"/>
    <line x1="0" y1="420" x2="1200" y2="420"/>
    <line x1="0" y1="525" x2="1200" y2="525"/>
    <line x1="120" y1="0" x2="120" y2="630"/>
    <line x1="240" y1="0" x2="240" y2="630"/>
    <line x1="360" y1="0" x2="360" y2="630"/>
    <line x1="480" y1="0" x2="480" y2="630"/>
    <line x1="600" y1="0" x2="600" y2="630"/>
    <line x1="720" y1="0" x2="720" y2="630"/>
    <line x1="840" y1="0" x2="840" y2="630"/>
    <line x1="960" y1="0" x2="960" y2="630"/>
    <line x1="1080" y1="0" x2="1080" y2="630"/>
    <line x1="0" y1="0" x2="600" y2="630" stroke-width="0.4"/>
    <line x1="600" y1="0" x2="1200" y2="630" stroke-width="0.4"/>
    <line x1="0" y1="630" x2="600" y2="0" stroke-width="0.4"/>
    <line x1="600" y1="630" x2="1200" y2="0" stroke-width="0.4"/>
  </g>
  <g opacity="0.06" fill="#475569" filter="url(#mapGlow)">
    <ellipse cx="580" cy="200" rx="110" ry="70"/>
    <ellipse cx="570" cy="380" rx="80" ry="110"/>
    <ellipse cx="220" cy="210" rx="130" ry="85"/>
    <ellipse cx="270" cy="420" rx="70" ry="100"/>
    <ellipse cx="880" cy="220" rx="160" ry="90"/>
    <ellipse cx="960" cy="430" rx="75" ry="50"/>
  </g>

  <!-- RADAR PINGS: ATTACK ORIGINS -->
  <g transform="translate(310, 245)">
    <circle cx="0" cy="0" r="55" fill="none" stroke="#ef4444" stroke-width="1.2" opacity="0.22"/>
    <circle cx="0" cy="0" r="38" fill="none" stroke="#ef4444" stroke-width="1.5" opacity="0.38"/>
    <circle cx="0" cy="0" r="20" fill="url(#redPing)" opacity="0.6"/>
    <circle cx="0" cy="0" r="6" fill="#ef4444" opacity="0.95"/>
    <circle cx="0" cy="0" r="3" fill="#fca5a5"/>
    <text x="12" y="-10" font-family="Courier New, monospace" font-size="10" fill="#ef4444" opacity="0.9" font-weight="bold">IRAN</text>
  </g>
  <g transform="translate(195, 175)">
    <circle cx="0" cy="0" r="50" fill="none" stroke="#ef4444" stroke-width="1.2" opacity="0.22"/>
    <circle cx="0" cy="0" r="33" fill="none" stroke="#ef4444" stroke-width="1.5" opacity="0.38"/>
    <circle cx="0" cy="0" r="18" fill="url(#redPing)" opacity="0.6"/>
    <circle cx="0" cy="0" r="5.5" fill="#ef4444" opacity="0.95"/>
    <circle cx="0" cy="0" r="2.5" fill="#fca5a5"/>
    <text x="10" y="-8" font-family="Courier New, monospace" font-size="10" fill="#ef4444" opacity="0.9" font-weight="bold">DPRK</text>
  </g>

  <!-- ATTACK LINES -->
  <path d="M310,245 Q500,200 860,290" fill="none" stroke="#ef4444" stroke-width="1.2" stroke-dasharray="6,5" opacity="0.32"/>
  <polygon points="856,282 866,292 850,296" fill="#ef4444" opacity="0.45"/>
  <path d="M195,175 Q460,140 870,220" fill="none" stroke="#dc2626" stroke-width="1" stroke-dasharray="5,6" opacity="0.28"/>
  <polygon points="866,214 876,222 860,226" fill="#dc2626" opacity="0.4"/>

  <!-- TARGET PINGS -->
  <g transform="translate(870, 290)">
    <circle cx="0" cy="0" r="42" fill="none" stroke="#60a5fa" stroke-width="1.2" opacity="0.28"/>
    <circle cx="0" cy="0" r="28" fill="none" stroke="#60a5fa" stroke-width="1.5" opacity="0.42"/>
    <circle cx="0" cy="0" r="16" fill="url(#bluePing)" opacity="0.55"/>
    <circle cx="0" cy="0" r="5" fill="#60a5fa" opacity="0.9"/>
    <circle cx="0" cy="0" r="2.5" fill="#bfdbfe"/>
    <text x="12" y="-6" font-family="Courier New, monospace" font-size="10" fill="#60a5fa" opacity="0.9" font-weight="bold">ISRAEL</text>
  </g>
  <g transform="translate(920, 220)">
    <circle cx="0" cy="0" r="38" fill="none" stroke="#60a5fa" stroke-width="1.2" opacity="0.28"/>
    <circle cx="0" cy="0" r="24" fill="none" stroke="#60a5fa" stroke-width="1.5" opacity="0.42"/>
    <circle cx="0" cy="0" r="14" fill="url(#bluePing)" opacity="0.5"/>
    <circle cx="0" cy="0" r="4.5" fill="#60a5fa" opacity="0.9"/>
    <circle cx="0" cy="0" r="2" fill="#bfdbfe"/>
    <text x="10" y="-5" font-family="Courier New, monospace" font-size="10" fill="#60a5fa" opacity="0.9" font-weight="bold">KOREA</text>
  </g>

  <!-- LAYER 2: RANSOMWARE SKULL -->
  <circle cx="600" cy="315" r="140" fill="url(#skullGlow)" opacity="0.55"/>
  <g transform="translate(600, 315)" opacity="0.78">
    <ellipse cx="0" cy="-20" rx="58" ry="62" fill="#1e293b" stroke="#991b1b" stroke-width="2.5" opacity="0.9"/>
    <ellipse cx="-18" cy="-28" rx="13" ry="15" fill="#dc2626" opacity="0.82"/>
    <ellipse cx="18" cy="-28" rx="13" ry="15" fill="#dc2626" opacity="0.82"/>
    <ellipse cx="-18" cy="-28" rx="7" ry="8" fill="#ef4444" opacity="0.68"/>
    <ellipse cx="18" cy="-28" rx="7" ry="8" fill="#ef4444" opacity="0.68"/>
    <path d="M-6,-8 L6,-8 L0,4 Z" fill="#991b1b" opacity="0.8"/>
    <rect x="-28" y="15" width="12" height="18" rx="2" fill="#991b1b" opacity="0.68"/>
    <rect x="-13" y="15" width="12" height="22" rx="2" fill="#7f1d1d" opacity="0.62"/>
    <rect x="2" y="15" width="12" height="22" rx="2" fill="#7f1d1d" opacity="0.62"/>
    <rect x="17" y="15" width="12" height="18" rx="2" fill="#991b1b" opacity="0.68"/>
    <line x1="-30" y1="15" x2="30" y2="15" stroke="#991b1b" stroke-width="2" opacity="0.55"/>
  </g>

  <!-- REvil dissolving -->
  <text x="440" y="270" font-family="Arial Black, Arial, sans-serif" font-size="28" font-weight="900" fill="url(#fadeGrad)" opacity="0.68" letter-spacing="3">REvil</text>
  <g opacity="0.32">
    <rect x="408" y="255" width="3" height="3" fill="#ef4444"/>
    <rect x="415" y="248" width="2" height="2" fill="#dc2626"/>
    <rect x="421" y="260" width="3" height="3" fill="#ef4444"/>
    <rect x="398" y="262" width="2" height="2" fill="#dc2626"/>
    <rect x="402" y="270" width="3" height="2" fill="#ef4444"/>
    <rect x="410" y="278" width="2" height="3" fill="#dc2626"/>
    <rect x="425" y="244" width="3" height="2" fill="#ef4444"/>
    <rect x="430" y="275" width="2" height="2" fill="#dc2626"/>
  </g>

  <!-- GandCrab crossed out -->
  <line x1="665" y1="258" x2="820" y2="258" stroke="#ef4444" stroke-width="3.5" opacity="0.75"/>
  <line x1="663" y1="262" x2="822" y2="254" stroke="#fca5a5" stroke-width="1.5" opacity="0.55"/>

  <!-- LAYER 3: LAW ENFORCEMENT GLOW + BADGE -->
  <circle cx="600" cy="315" r="180" fill="url(#lawGlow)" opacity="0.65"/>
  <g transform="translate(600, 315)">
    <polygon points="0,-90 18,-35 70,-55 45,-8 90,0 45,8 70,55 18,35 0,90 -18,35 -70,55 -45,8 -90,0 -45,-8 -70,-55 -18,-35"
             fill="#1e3a5f" stroke="#2563eb" stroke-width="2" opacity="0.50"/>
    <circle cx="0" cy="0" r="52" fill="#0f172a" stroke="#3b82f6" stroke-width="2" opacity="0.62"/>
    <text x="0" y="8" text-anchor="middle" font-family="Arial, sans-serif" font-size="13" fill="#bfdbfe" opacity="0.88" font-weight="900" letter-spacing="1">TAKEDOWN</text>
  </g>

  <!-- LAYER 4: DIGITAL HANDCUFFS -->
  <ellipse cx="600" cy="310" rx="200" ry="110" fill="#2563eb" opacity="0.10"/>
  <ellipse cx="600" cy="310" rx="155" ry="80" fill="#1d4ed8" opacity="0.08"/>

  <!-- Left Cuff -->
  <g transform="translate(490, 310)" filter="url(#cuffGlowFx)">
    <path d="M 10,-52 A 52,52 0 1,0 10,52" fill="none" stroke="url(#cuffGrad)" stroke-width="22" stroke-linecap="round"/>
    <path d="M 10,-36 A 36,36 0 1,0 10,36" fill="none" stroke="url(#cuffInner)" stroke-width="8" stroke-linecap="round"/>
    <rect x="-4" y="-58" width="18" height="14" rx="4" fill="url(#cuffGrad)"/>
    <rect x="-4" y="44" width="18" height="14" rx="4" fill="url(#cuffGrad)"/>
    <rect x="-14" y="-18" width="28" height="36" rx="5" fill="url(#cuffGrad)"/>
    <rect x="-8" y="-12" width="16" height="24" rx="3" fill="url(#cuffInner)" opacity="0.9"/>
    <circle cx="0" cy="-2" r="5" fill="#0f172a"/>
    <rect x="-3" y="2" width="6" height="7" rx="1" fill="#0f172a"/>
    <rect x="6" y="-8" width="16" height="16" rx="2" fill="url(#cuffGrad)"/>
  </g>

  <!-- Chain Links -->
  <g fill="none" stroke="url(#cuffGrad)" stroke-width="9" stroke-linecap="round">
    <ellipse cx="548" cy="304" rx="14" ry="8" transform="rotate(-20,548,304)"/>
    <ellipse cx="566" cy="310" rx="14" ry="8" transform="rotate(15,566,310)"/>
    <ellipse cx="584" cy="306" rx="14" ry="8" transform="rotate(-25,584,306)"/>
    <ellipse cx="602" cy="312" rx="14" ry="8" transform="rotate(10,602,312)"/>
    <ellipse cx="620" cy="307" rx="14" ry="8" transform="rotate(-20,620,307)"/>
    <ellipse cx="638" cy="313" rx="14" ry="8" transform="rotate(15,638,313)"/>
    <ellipse cx="656" cy="308" rx="14" ry="8" transform="rotate(-15,656,308)"/>
  </g>

  <!-- Right Cuff -->
  <g transform="translate(710, 310)" filter="url(#cuffGlowFx)">
    <path d="M -10,-52 A 52,52 0 1,1 -10,52" fill="none" stroke="url(#cuffGrad)" stroke-width="22" stroke-linecap="round"/>
    <path d="M -10,-36 A 36,36 0 1,1 -10,36" fill="none" stroke="url(#cuffInner)" stroke-width="8" stroke-linecap="round"/>
    <rect x="-14" y="-58" width="18" height="14" rx="4" fill="url(#cuffGrad)"/>
    <rect x="-14" y="44" width="18" height="14" rx="4" fill="url(#cuffGrad)"/>
    <rect x="-14" y="-18" width="28" height="36" rx="5" fill="url(#cuffGrad)"/>
    <rect x="-8" y="-12" width="16" height="24" rx="3" fill="url(#cuffInner)" opacity="0.9"/>
    <circle cx="0" cy="-2" r="5" fill="#0f172a"/>
    <rect x="-3" y="2" width="6" height="7" rx="1" fill="#0f172a"/>
    <rect x="-22" y="-8" width="16" height="16" rx="2" fill="url(#cuffGrad)"/>
  </g>

  <!-- Sheen highlights -->
  <g opacity="0.38">
    <path d="M 438,258 A 52,52 0 0,1 438,278" fill="none" stroke="#f1f5f9" stroke-width="4" stroke-linecap="round"/>
    <path d="M 762,258 A 52,52 0 0,0 762,278" fill="none" stroke="#f1f5f9" stroke-width="4" stroke-linecap="round"/>
  </g>

  <!-- Snap motion arcs -->
  <g opacity="0.28" stroke="#60a5fa" stroke-width="1.5" fill="none">
    <path d="M 540,230 Q 550,210 570,220" stroke-dasharray="4,4"/>
    <path d="M 660,230 Q 650,210 630,220" stroke-dasharray="4,4"/>
    <path d="M 535,235 Q 540,215 555,222" stroke-dasharray="3,5" opacity="0.6"/>
    <path d="M 665,235 Q 660,215 645,222" stroke-dasharray="3,5" opacity="0.6"/>
  </g>

  <!-- UI OVERLAY DIMMING -->
  <rect x="0" y="0" width="1200" height="630" fill="#000d1a" opacity="0.28"/>

  <!-- TOP BADGES -->
  <rect x="42" y="38" width="160" height="32" rx="6" fill="url(#badgeGrad)" stroke="#2563eb" stroke-width="1.5" opacity="0.9"/>
  <text x="122" y="59" text-anchor="middle" font-family="Arial, sans-serif" font-size="11" fill="#60a5fa" font-weight="bold" letter-spacing="2.5" opacity="0.95">WEEKLY DIGEST</text>

  <rect x="960" y="38" width="200" height="32" rx="6" fill="#1e293b" stroke="#334155" stroke-width="1.2" opacity="0.85"/>
  <text x="1060" y="59" text-anchor="middle" font-family="Courier New, monospace" font-size="11" fill="#94a3b8" letter-spacing="1.5">APRIL 07, 2026</text>

  <!-- MAIN TITLE -->
  <text x="50" y="112" font-family="Arial Black, Arial, sans-serif" font-size="44" font-weight="900" fill="url(#titleGrad)" letter-spacing="-0.5" filter="url(#softGlow)">Tech Security Weekly</text>
  <rect x="50" y="130" width="560" height="2" rx="1" fill="#2563eb" opacity="0.65"/>
  <rect x="50" y="130" width="200" height="2" rx="1" fill="#3b82f6" opacity="0.45"/>

  <!-- TAG PILLS -->
  <g transform="translate(50, 390)">
    <rect x="0" y="0" width="74" height="26" rx="13" fill="#7f1d1d" stroke="#dc2626" stroke-width="1.2"/>
    <text x="37" y="17" text-anchor="middle" font-family="Arial, sans-serif" font-size="11" fill="#fca5a5" font-weight="bold">Iran</text>
    <rect x="84" y="0" width="74" height="26" rx="13" fill="#7f1d1d" stroke="#b91c1c" stroke-width="1.2"/>
    <text x="121" y="17" text-anchor="middle" font-family="Arial, sans-serif" font-size="11" fill="#fca5a5" font-weight="bold">DPRK</text>
    <rect x="168" y="0" width="70" height="26" rx="13" fill="#1e293b" stroke="#475569" stroke-width="1.2"/>
    <text x="203" y="17" text-anchor="middle" font-family="Arial, sans-serif" font-size="11" fill="#94a3b8" font-weight="bold">REvil</text>
    <rect x="248" y="0" width="96" height="26" rx="13" fill="#1e3a5f" stroke="#2563eb" stroke-width="1.2"/>
    <text x="296" y="17" text-anchor="middle" font-family="Arial, sans-serif" font-size="11" fill="#60a5fa" font-weight="bold">Takedown</text>
    <rect x="354" y="0" width="106" height="26" rx="13" fill="#1e293b" stroke="#334155" stroke-width="1.2"/>
    <text x="407" y="17" text-anchor="middle" font-family="Arial, sans-serif" font-size="11" fill="#94a3b8" font-weight="bold">Ransomware</text>
    <rect x="470" y="0" width="102" height="26" rx="13" fill="#1e293b" stroke="#475569" stroke-width="1.2"/>
    <text x="521" y="17" text-anchor="middle" font-family="Arial, sans-serif" font-size="11" fill="#64748b" font-weight="bold">GandCrab</text>
  </g>

  <!-- FOOTER -->
  <rect x="0" y="600" width="1200" height="30" fill="#000d1a" opacity="0.65"/>
  <line x1="0" y1="600" x2="1200" y2="600" stroke="#1e3a5f" stroke-width="1"/>
  <text x="42" y="620" font-family="Courier New, monospace" font-size="11" fill="#475569" letter-spacing="0.5">tech.2twodragon.com</text>

  <!-- CORNER DECORATIONS -->
  <g opacity="0.18" stroke="#2563eb" stroke-width="1" fill="none">
    <line x1="1100" y1="0" x2="1200" y2="100"/>
    <line x1="1120" y1="0" x2="1200" y2="80"/>
    <line x1="1140" y1="0" x2="1200" y2="60"/>
    <line x1="1160" y1="0" x2="1200" y2="40"/>
  </g>
  <g opacity="0.13" stroke="#dc2626" stroke-width="1" fill="none">
    <line x1="0" y1="530" x2="100" y2="630"/>
    <line x1="0" y1="550" x2="80" y2="630"/>
    <line x1="0" y1="570" x2="60" y2="630"/>
    <line x1="0" y1="590" x2="40" y2="630"/>
  </g>

  <!-- ANIMATIONS -->
  <circle cx="310" cy="245" r="20" fill="none" stroke="#ef4444" stroke-width="1.5" opacity="0">
    <animate attributeName="r" values="20;70;20" dur="3s" repeatCount="indefinite"/>
    <animate attributeName="opacity" values="0.55;0;0.55" dur="3s" repeatCount="indefinite"/>
  </circle>
  <circle cx="195" cy="175" r="18" fill="none" stroke="#ef4444" stroke-width="1.5" opacity="0">
    <animate attributeName="r" values="18;62;18" dur="3.5s" repeatCount="indefinite"/>
    <animate attributeName="opacity" values="0.50;0;0.50" dur="3.5s" repeatCount="indefinite"/>
  </circle>
  <circle cx="870" cy="290" r="16" fill="none" stroke="#60a5fa" stroke-width="1.5" opacity="0">
    <animate attributeName="r" values="16;55;16" dur="2.8s" repeatCount="indefinite"/>
    <animate attributeName="opacity" values="0.48;0;0.48" dur="2.8s" repeatCount="indefinite"/>
  </circle>
  <circle cx="920" cy="220" r="14" fill="none" stroke="#60a5fa" stroke-width="1.5" opacity="0">
    <animate attributeName="r" values="14;48;14" dur="3.2s" repeatCount="indefinite"/>
    <animate attributeName="opacity" values="0.48;0;0.48" dur="3.2s" repeatCount="indefinite"/>
  </circle>
  <circle cx="600" cy="315" r="130" fill="none" stroke="#3b82f6" stroke-width="2" opacity="0">
    <animate attributeName="r" values="130;165;130" dur="4s" repeatCount="indefinite"/>
    <animate attributeName="opacity" values="0.22;0.04;0.22" dur="4s" repeatCount="indefinite"/>
  </circle>

</svg>
