<svg xmlns="http://www.w3.org/2000/svg" viewBox="0 0 1200 630" width="1200" height="630" role="img" aria-label="Weekly digest three-card infographic: tampered downloads, model RCE, CVE exploit triage">
<defs>
  <linearGradient id="bg" x1="0%" y1="0%" x2="0%" y2="100%">
    <stop offset="0%" stop-color="#0B132B"/>
    <stop offset="100%" stop-color="#0A1020"/>
  </linearGradient>
  <linearGradient id="stripeBlue" x1="0%" y1="0%" x2="100%" y2="0%">
    <stop offset="0%" stop-color="#3A86FF" stop-opacity="0"/>
    <stop offset="50%" stop-color="#3A86FF" stop-opacity="0.9"/>
    <stop offset="100%" stop-color="#3A86FF" stop-opacity="0"/>
  </linearGradient>
  <linearGradient id="stripeAmber" x1="0%" y1="0%" x2="100%" y2="0%">
    <stop offset="0%" stop-color="#FFB703" stop-opacity="0"/>
    <stop offset="50%" stop-color="#FFB703" stop-opacity="0.9"/>
    <stop offset="100%" stop-color="#FFB703" stop-opacity="0"/>
  </linearGradient>
  <linearGradient id="stripeRed" x1="0%" y1="0%" x2="100%" y2="0%">
    <stop offset="0%" stop-color="#E63946" stop-opacity="0"/>
    <stop offset="50%" stop-color="#E63946" stop-opacity="0.9"/>
    <stop offset="100%" stop-color="#E63946" stop-opacity="0"/>
  </linearGradient>
  <pattern id="dotGrid" x="0" y="0" width="32" height="32" patternUnits="userSpaceOnUse">
    <circle cx="16" cy="16" r="0.9" fill="#2A3256" opacity="0.5"/>
  </pattern>
  <radialGradient id="glowBlue" cx="50%" cy="50%" r="50%">
    <stop offset="0%" stop-color="#3A86FF" stop-opacity="0.55"/>
    <stop offset="100%" stop-color="#3A86FF" stop-opacity="0"/>
  </radialGradient>
  <radialGradient id="glowAmber" cx="50%" cy="50%" r="50%">
    <stop offset="0%" stop-color="#FFB703" stop-opacity="0.55"/>
    <stop offset="100%" stop-color="#FFB703" stop-opacity="0"/>
  </radialGradient>
  <radialGradient id="glowRed" cx="50%" cy="50%" r="50%">
    <stop offset="0%" stop-color="#E63946" stop-opacity="0.55"/>
    <stop offset="100%" stop-color="#E63946" stop-opacity="0"/>
  </radialGradient>
</defs>
<rect width="1200" height="630" fill="url(#bg)"/>
<rect width="1200" height="630" fill="url(#dotGrid)"/>
<rect x="0" y="56" width="1200" height="2" fill="url(#stripeBlue)" opacity="0.85">
  <animate attributeName="opacity" values="0.4;1;0.4" dur="5.2s" repeatCount="indefinite"/>
</rect>
<rect x="0" y="598" width="1200" height="2" fill="url(#stripeAmber)" opacity="0.7">
  <animate attributeName="opacity" values="0.35;0.85;0.35" dur="6.1s" repeatCount="indefinite"/>
</rect>
<circle cx="170" cy="80" r="60" fill="url(#glowBlue)" opacity="0.55">
  <animate attributeName="opacity" values="0.3;0.7;0.3" dur="4.4s" repeatCount="indefinite"/>
</circle>
<circle cx="1030" cy="550" r="70" fill="url(#glowRed)" opacity="0.4">
  <animate attributeName="opacity" values="0.2;0.55;0.2" dur="5.8s" repeatCount="indefinite"/>
</circle>
<rect x="48" y="96" width="336" height="482" rx="18" ry="18" fill="#1C2541" stroke="#3A86FF" stroke-width="1.6" opacity="0.96"/>
<rect x="66" y="114" width="56" height="3" fill="#3A86FF" rx="1.5">
  <animate attributeName="width" values="56;92;56" dur="3.8s" repeatCount="indefinite"/>
</rect>
<rect x="48" y="94" width="336" height="2" fill="url(#stripeBlue)" opacity="0.7">
  <animate attributeName="opacity" values="0.35;0.85;0.35" dur="4.2s" repeatCount="indefinite"/>
</rect>
<rect x="408" y="96" width="336" height="482" rx="18" ry="18" fill="#1C2541" stroke="#FFB703" stroke-width="1.6" opacity="0.96"/>
<rect x="426" y="114" width="56" height="3" fill="#FFB703" rx="1.5">
  <animate attributeName="width" values="56;92;56" dur="3.6s" repeatCount="indefinite"/>
</rect>
<rect x="408" y="94" width="336" height="2" fill="url(#stripeAmber)" opacity="0.7">
  <animate attributeName="opacity" values="0.35;0.85;0.35" dur="4.6s" repeatCount="indefinite"/>
</rect>
<rect x="768" y="96" width="336" height="482" rx="18" ry="18" fill="#1C2541" stroke="#E63946" stroke-width="1.6" opacity="0.96"/>
<rect x="786" y="114" width="56" height="3" fill="#E63946" rx="1.5">
  <animate attributeName="width" values="56;92;56" dur="3.4s" repeatCount="indefinite"/>
</rect>
<rect x="768" y="94" width="336" height="2" fill="url(#stripeRed)" opacity="0.7">
  <animate attributeName="opacity" values="0.35;0.85;0.35" dur="5.0s" repeatCount="indefinite"/>
</rect>
<!-- Card footer accent dots (pulse) -->
<circle cx="102" cy="562" r="3" fill="#3A86FF" opacity="0.7">
  <animate attributeName="opacity" values="0.4;1;0.4" dur="2.4s" repeatCount="indefinite"/>
</circle>
<circle cx="118" cy="562" r="3" fill="#3A86FF" opacity="0.55">
  <animate attributeName="opacity" values="0.3;0.8;0.3" dur="2.8s" repeatCount="indefinite"/>
</circle>
<circle cx="134" cy="562" r="3" fill="#3A86FF" opacity="0.4">
  <animate attributeName="opacity" values="0.25;0.65;0.25" dur="3.2s" repeatCount="indefinite"/>
</circle>
<circle cx="462" cy="562" r="3" fill="#FFB703" opacity="0.7">
  <animate attributeName="opacity" values="0.4;1;0.4" dur="2.4s" repeatCount="indefinite"/>
</circle>
<circle cx="478" cy="562" r="3" fill="#FFB703" opacity="0.55">
  <animate attributeName="opacity" values="0.3;0.8;0.3" dur="2.6s" repeatCount="indefinite"/>
</circle>
<circle cx="494" cy="562" r="3" fill="#FFB703" opacity="0.4">
  <animate attributeName="opacity" values="0.25;0.65;0.25" dur="3.0s" repeatCount="indefinite"/>
</circle>
<circle cx="822" cy="562" r="3" fill="#E63946" opacity="0.7">
  <animate attributeName="opacity" values="0.4;1;0.4" dur="2.4s" repeatCount="indefinite"/>
</circle>
<circle cx="838" cy="562" r="3" fill="#E63946" opacity="0.55">
  <animate attributeName="opacity" values="0.3;0.8;0.3" dur="2.7s" repeatCount="indefinite"/>
</circle>
<circle cx="854" cy="562" r="3" fill="#E63946" opacity="0.4">
  <animate attributeName="opacity" values="0.25;0.65;0.25" dur="3.1s" repeatCount="indefinite"/>
</circle>
<g transform="translate(216,330)">
  <!-- Industrial rack -->
  <g transform="translate(-60,-100)">
    <rect x="0" y="0" width="120" height="150" rx="4" fill="#0B132B" stroke="#E63946" stroke-width="2.4"/>
    <!-- 1U rows -->
    <rect x="6" y="8" width="108" height="18" rx="2" fill="#1C2541" stroke="#E63946" stroke-width="1.4"/>
    <rect x="6" y="30" width="108" height="18" rx="2" fill="#1C2541" stroke="#E63946" stroke-width="1.4"/>
    <rect x="6" y="52" width="108" height="18" rx="2" fill="#1C2541" stroke="#E63946" stroke-width="1.4"/>
    <rect x="6" y="74" width="108" height="18" rx="2" fill="#1C2541" stroke="#E63946" stroke-width="1.4"/>
    <rect x="6" y="96" width="108" height="18" rx="2" fill="#1C2541" stroke="#E63946" stroke-width="1.4"/>
    <rect x="6" y="118" width="108" height="18" rx="2" fill="#1C2541" stroke="#E63946" stroke-width="1.4"/>
    <!-- row LEDs blinking (red = vulnerable) -->
    <circle cx="14" cy="17" r="2.4" fill="#E63946"><animate attributeName="opacity" values="0.4;1;0.4" dur="1.2s" repeatCount="indefinite"/></circle>
    <circle cx="22" cy="17" r="2.4" fill="#FFB703"><animate attributeName="opacity" values="0.5;1;0.5" dur="1.4s" repeatCount="indefinite"/></circle>
    <circle cx="14" cy="39" r="2.4" fill="#E63946"><animate attributeName="opacity" values="0.4;1;0.4" dur="1.3s" repeatCount="indefinite"/></circle>
    <circle cx="22" cy="39" r="2.4" fill="#E63946"><animate attributeName="opacity" values="0.4;1;0.4" dur="1.6s" repeatCount="indefinite"/></circle>
    <circle cx="14" cy="61" r="2.4" fill="#E63946"><animate attributeName="opacity" values="0.4;1;0.4" dur="1.1s" repeatCount="indefinite"/></circle>
    <circle cx="22" cy="61" r="2.4" fill="#FFB703"><animate attributeName="opacity" values="0.5;1;0.5" dur="1.5s" repeatCount="indefinite"/></circle>
    <circle cx="14" cy="83" r="2.4" fill="#E63946"><animate attributeName="opacity" values="0.4;1;0.4" dur="1.2s" repeatCount="indefinite"/></circle>
    <circle cx="22" cy="83" r="2.4" fill="#E63946"><animate attributeName="opacity" values="0.4;1;0.4" dur="1.4s" repeatCount="indefinite"/></circle>
    <circle cx="14" cy="105" r="2.4" fill="#E63946"><animate attributeName="opacity" values="0.4;1;0.4" dur="1.3s" repeatCount="indefinite"/></circle>
    <circle cx="22" cy="105" r="2.4" fill="#FFB703"><animate attributeName="opacity" values="0.5;1;0.5" dur="1.7s" repeatCount="indefinite"/></circle>
    <circle cx="14" cy="127" r="2.4" fill="#E63946"><animate attributeName="opacity" values="0.4;1;0.4" dur="1.1s" repeatCount="indefinite"/></circle>
    <circle cx="22" cy="127" r="2.4" fill="#E63946"><animate attributeName="opacity" values="0.4;1;0.4" dur="1.5s" repeatCount="indefinite"/></circle>
    <!-- serial ports (right side of each row) -->
    <rect x="90" y="14" width="18" height="6" rx="1" fill="#2A3256" stroke="#E63946" stroke-width="1"/>
    <rect x="90" y="36" width="18" height="6" rx="1" fill="#2A3256" stroke="#E63946" stroke-width="1"/>
    <rect x="90" y="58" width="18" height="6" rx="1" fill="#2A3256" stroke="#E63946" stroke-width="1"/>
    <rect x="90" y="80" width="18" height="6" rx="1" fill="#2A3256" stroke="#E63946" stroke-width="1"/>
    <rect x="90" y="102" width="18" height="6" rx="1" fill="#2A3256" stroke="#E63946" stroke-width="1"/>
    <rect x="90" y="124" width="18" height="6" rx="1" fill="#2A3256" stroke="#E63946" stroke-width="1"/>
    <!-- progress bars of each row -->
    <rect x="34" y="15" width="48" height="4" rx="1" fill="#2A3256"/>
    <rect x="34" y="15" width="30" height="4" rx="1" fill="#E63946"><animate attributeName="width" values="10;48;10" dur="4s" repeatCount="indefinite"/></rect>
    <rect x="34" y="37" width="48" height="4" rx="1" fill="#2A3256"/>
    <rect x="34" y="37" width="30" height="4" rx="1" fill="#E63946"><animate attributeName="width" values="10;48;10" dur="4s" begin="0.5s" repeatCount="indefinite"/></rect>
    <rect x="34" y="59" width="48" height="4" rx="1" fill="#2A3256"/>
    <rect x="34" y="59" width="30" height="4" rx="1" fill="#E63946"><animate attributeName="width" values="10;48;10" dur="4s" begin="1s" repeatCount="indefinite"/></rect>
    <rect x="34" y="81" width="48" height="4" rx="1" fill="#2A3256"/>
    <rect x="34" y="81" width="30" height="4" rx="1" fill="#E63946"><animate attributeName="width" values="10;48;10" dur="4s" begin="1.5s" repeatCount="indefinite"/></rect>
    <rect x="34" y="103" width="48" height="4" rx="1" fill="#2A3256"/>
    <rect x="34" y="103" width="30" height="4" rx="1" fill="#E63946"><animate attributeName="width" values="10;48;10" dur="4s" begin="2s" repeatCount="indefinite"/></rect>
    <rect x="34" y="125" width="48" height="4" rx="1" fill="#2A3256"/>
    <rect x="34" y="125" width="30" height="4" rx="1" fill="#E63946"><animate attributeName="width" values="10;48;10" dur="4s" begin="2.5s" repeatCount="indefinite"/></rect>
  </g>
  <!-- Serial cable snaking out -->
  <path d="M 70 -30 Q 100 -30 100 0 Q 100 30 70 30 Q 40 30 40 60" fill="none" stroke="#E63946" stroke-width="3" stroke-linecap="round">
    <animate attributeName="stroke-dasharray" values="0 300;300 0" dur="4s" repeatCount="indefinite"/>
  </path>
  <circle cx="40" cy="60" r="4" fill="#E63946">
    <animate attributeName="r" values="4;6;4" dur="1.8s" repeatCount="indefinite"/>
  </circle>
  <!-- Glowing vulnerability burst -->
  <g transform="translate(-100,60)">
    <circle cx="0" cy="0" r="10" fill="url(#glowRed)" opacity="0.7">
      <animate attributeName="r" values="10;20;10" dur="2s" repeatCount="indefinite"/>
    </circle>
    <!-- crack star burst -->
    <path d="M 0 -14 L 0 14 M -14 0 L 14 0 M -10 -10 L 10 10 M 10 -10 L -10 10"
          stroke="#E63946" stroke-width="1.8" fill="none">
      <animate attributeName="opacity" values="0.6;1;0.6" dur="1.5s" repeatCount="indefinite"/>
    </path>
  </g>
  <!-- Exposure count beads (3 small circles, visual-only) -->
  <circle cx="90" cy="-80" r="3" fill="#E63946"><animate attributeName="opacity" values="0.5;1;0.5" dur="1.6s" repeatCount="indefinite"/></circle>
  <circle cx="96" cy="-72" r="3" fill="#E63946"><animate attributeName="opacity" values="0.5;1;0.5" dur="1.8s" repeatCount="indefinite"/></circle>
  <circle cx="102" cy="-64" r="3" fill="#E63946"><animate attributeName="opacity" values="0.5;1;0.5" dur="2.0s" repeatCount="indefinite"/></circle>
  <text x="0" y="170" font-family="Inter,Segoe UI,Arial,sans-serif"
        font-size="14" font-weight="800" fill="#E7ECF4"
        text-anchor="middle" letter-spacing="2">CPUZ</text>
</g>
<g transform="translate(216,330)">
  <circle cx="0" cy="190" r="90" fill="url(#glowBlue)" opacity="0.16">
    <animate attributeName="opacity" values="0.1;0.22;0.1" dur="4.2s" repeatCount="indefinite"/>
  </circle>
  <circle cx="-70" cy="192" r="2" fill="#3A86FF" opacity="0.45">
    <animate attributeName="opacity" values="0.2;0.75;0.2" dur="2.6s" repeatCount="indefinite"/>
  </circle>
  <circle cx="-60" cy="196" r="1.6" fill="#3A86FF" opacity="0.55">
    <animate attributeName="opacity" values="0.25;0.8;0.25" dur="2.8s" repeatCount="indefinite"/>
  </circle>
  <circle cx="60" cy="196" r="1.6" fill="#3A86FF" opacity="0.55">
    <animate attributeName="opacity" values="0.25;0.8;0.25" dur="3.0s" repeatCount="indefinite"/>
  </circle>
  <circle cx="70" cy="192" r="2" fill="#3A86FF" opacity="0.45">
    <animate attributeName="opacity" values="0.2;0.75;0.2" dur="2.4s" repeatCount="indefinite"/>
  </circle>
  <line x1="-52" y1="204" x2="-28" y2="204" stroke="#3A86FF" stroke-width="1.2" opacity="0.6"/>
  <line x1="28" y1="204" x2="52" y2="204" stroke="#3A86FF" stroke-width="1.2" opacity="0.6"/>
  <line x1="-48" y1="210" x2="-34" y2="210" stroke="#3A86FF" stroke-width="0.9" opacity="0.4"/>
  <line x1="34" y1="210" x2="48" y2="210" stroke="#3A86FF" stroke-width="0.9" opacity="0.4"/>
</g>
<text x="216" y="520" font-family="Inter,Segoe UI,Arial,sans-serif" font-size="11" font-weight="500" fill="#E7ECF4" text-anchor="middle" letter-spacing="0.3">Tampered utility installers ship hidden RAT</text>
<g transform="translate(576,330)">
  <!-- Model file card (GGUF-style) -->
  <g transform="translate(-80,-110)">
    <rect x="0" y="0" width="90" height="110" rx="8" fill="#0B132B" stroke="#3A86FF" stroke-width="2.2"/>
    <!-- folded corner -->
    <path d="M 70 0 L 90 20 L 70 20 Z" fill="#1C2541" stroke="#3A86FF" stroke-width="2.2"/>
    <!-- neural net nodes inside -->
    <circle cx="18" cy="38" r="4" fill="#3A86FF">
      <animate attributeName="opacity" values="0.6;1;0.6" dur="2.2s" repeatCount="indefinite"/>
    </circle>
    <circle cx="18" cy="58" r="4" fill="#3A86FF">
      <animate attributeName="opacity" values="0.6;1;0.6" dur="2.6s" repeatCount="indefinite"/>
    </circle>
    <circle cx="18" cy="78" r="4" fill="#3A86FF">
      <animate attributeName="opacity" values="0.6;1;0.6" dur="2.4s" repeatCount="indefinite"/>
    </circle>
    <circle cx="45" cy="48" r="4" fill="#3A86FF">
      <animate attributeName="opacity" values="0.6;1;0.6" dur="2.8s" repeatCount="indefinite"/>
    </circle>
    <circle cx="45" cy="68" r="4" fill="#3A86FF">
      <animate attributeName="opacity" values="0.6;1;0.6" dur="3.0s" repeatCount="indefinite"/>
    </circle>
    <circle cx="72" cy="58" r="4" fill="#E63946">
      <animate attributeName="r" values="4;6;4" dur="2.2s" repeatCount="indefinite"/>
      <animate attributeName="opacity" values="0.7;1;0.7" dur="2.2s" repeatCount="indefinite"/>
    </circle>
    <line x1="18" y1="38" x2="45" y2="48" stroke="#3A86FF" stroke-width="1.4" opacity="0.6"/>
    <line x1="18" y1="58" x2="45" y2="48" stroke="#3A86FF" stroke-width="1.4" opacity="0.6"/>
    <line x1="18" y1="58" x2="45" y2="68" stroke="#3A86FF" stroke-width="1.4" opacity="0.6"/>
    <line x1="18" y1="78" x2="45" y2="68" stroke="#3A86FF" stroke-width="1.4" opacity="0.6"/>
    <line x1="45" y1="48" x2="72" y2="58" stroke="#E63946" stroke-width="1.6" opacity="0.75"/>
    <line x1="45" y1="68" x2="72" y2="58" stroke="#E63946" stroke-width="1.6" opacity="0.75"/>
    <!-- bug sneaking in (upper right) -->
    <g transform="translate(72,20)">
      <circle cx="0" cy="0" r="4" fill="#E63946">
        <animate attributeName="opacity" values="0;1;0" dur="3s" repeatCount="indefinite"/>
      </circle>
      <line x1="-4" y1="-4" x2="-6" y2="-6" stroke="#E63946" stroke-width="1.4"/>
      <line x1="4" y1="-4" x2="6" y2="-6" stroke="#E63946" stroke-width="1.4"/>
      <line x1="-4" y1="4" x2="-6" y2="6" stroke="#E63946" stroke-width="1.4"/>
      <line x1="4" y1="4" x2="6" y2="6" stroke="#E63946" stroke-width="1.4"/>
    </g>
  </g>
  <!-- Payload stream flowing rightward -->
  <g>
    <circle cx="-8" cy="-30" r="2.4" fill="#E63946">
      <animate attributeName="cx" values="-8;64" dur="2.2s" repeatCount="indefinite"/>
      <animate attributeName="opacity" values="0.9;0" dur="2.2s" repeatCount="indefinite"/>
    </circle>
    <circle cx="-8" cy="-10" r="2" fill="#E63946">
      <animate attributeName="cx" values="-8;64" dur="2.6s" begin="0.5s" repeatCount="indefinite"/>
      <animate attributeName="opacity" values="0.9;0" dur="2.6s" begin="0.5s" repeatCount="indefinite"/>
    </circle>
    <circle cx="-8" cy="10" r="2.6" fill="#E63946">
      <animate attributeName="cx" values="-8;64" dur="2.4s" begin="1s" repeatCount="indefinite"/>
      <animate attributeName="opacity" values="0.9;0" dur="2.4s" begin="1s" repeatCount="indefinite"/>
    </circle>
    <circle cx="-8" cy="30" r="2.2" fill="#E63946">
      <animate attributeName="cx" values="-8;64" dur="2.8s" begin="1.5s" repeatCount="indefinite"/>
      <animate attributeName="opacity" values="0.9;0" dur="2.8s" begin="1.5s" repeatCount="indefinite"/>
    </circle>
  </g>
  <!-- Shell/terminal window (right) -->
  <g transform="translate(30,-60)">
    <rect x="0" y="0" width="80" height="100" rx="6" fill="#0B132B" stroke="#E63946" stroke-width="2.2"/>
    <rect x="0" y="0" width="80" height="14" rx="6" fill="#1C2541"/>
    <circle cx="8" cy="7" r="2.4" fill="#E63946"/>
    <circle cx="16" cy="7" r="2.4" fill="#FFB703"/>
    <circle cx="24" cy="7" r="2.4" fill="#3A86FF"/>
    <!-- prompt lines appearing -->
    <g>
      <path d="M 8 28 L 14 24 L 8 20" fill="none" stroke="#E63946" stroke-width="2"/>
      <rect x="18" y="22" width="40" height="3" rx="1.5" fill="#E63946" opacity="0">
        <animate attributeName="opacity" values="0;0.9;0.9;0" dur="5s" repeatCount="indefinite"/>
        <animate attributeName="width" values="0;48;48;0" dur="5s" repeatCount="indefinite"/>
      </rect>
    </g>
    <g>
      <path d="M 8 44 L 14 40 L 8 36" fill="none" stroke="#E63946" stroke-width="2"/>
      <rect x="18" y="38" width="36" height="3" rx="1.5" fill="#FFB703" opacity="0">
        <animate attributeName="opacity" values="0;0.9;0.9;0" dur="5s" begin="1.2s" repeatCount="indefinite"/>
        <animate attributeName="width" values="0;44;44;0" dur="5s" begin="1.2s" repeatCount="indefinite"/>
      </rect>
    </g>
    <g>
      <path d="M 8 60 L 14 56 L 8 52" fill="none" stroke="#E63946" stroke-width="2"/>
      <rect x="18" y="54" width="40" height="3" rx="1.5" fill="#E63946" opacity="0">
        <animate attributeName="opacity" values="0;0.9;0.9;0" dur="5s" begin="2.4s" repeatCount="indefinite"/>
        <animate attributeName="width" values="0;54;54;0" dur="5s" begin="2.4s" repeatCount="indefinite"/>
      </rect>
    </g>
    <!-- cursor -->
    <rect x="8" y="76" width="6" height="10" fill="#E63946">
      <animate attributeName="opacity" values="1;0;1" dur="0.9s" repeatCount="indefinite"/>
    </rect>
  </g>
  <!-- skull glyph near shell as RCE indicator (pure shape) -->
  <g transform="translate(70,-80)">
    <circle cx="0" cy="0" r="9" fill="#E63946" opacity="0.9">
      <animate attributeName="opacity" values="0.5;1;0.5" dur="1.8s" repeatCount="indefinite"/>
    </circle>
    <circle cx="-3" cy="-1" r="1.4" fill="#0B132B"/>
    <circle cx="3" cy="-1" r="1.4" fill="#0B132B"/>
    <rect x="-3" y="3" width="6" height="3" fill="#0B132B"/>
  </g>
  <text x="0" y="170" font-family="Inter,Segoe UI,Arial,sans-serif"
        font-size="16" font-weight="800" fill="#E7ECF4"
        text-anchor="middle" letter-spacing="3">MARIMO</text>
</g>
<g transform="translate(576,330)">
  <circle cx="0" cy="190" r="90" fill="url(#glowAmber)" opacity="0.16">
    <animate attributeName="opacity" values="0.1;0.22;0.1" dur="4.2s" repeatCount="indefinite"/>
  </circle>
  <circle cx="-70" cy="192" r="2" fill="#FFB703" opacity="0.45">
    <animate attributeName="opacity" values="0.2;0.75;0.2" dur="2.6s" repeatCount="indefinite"/>
  </circle>
  <circle cx="-60" cy="196" r="1.6" fill="#FFB703" opacity="0.55">
    <animate attributeName="opacity" values="0.25;0.8;0.25" dur="2.8s" repeatCount="indefinite"/>
  </circle>
  <circle cx="60" cy="196" r="1.6" fill="#FFB703" opacity="0.55">
    <animate attributeName="opacity" values="0.25;0.8;0.25" dur="3.0s" repeatCount="indefinite"/>
  </circle>
  <circle cx="70" cy="192" r="2" fill="#FFB703" opacity="0.45">
    <animate attributeName="opacity" values="0.2;0.75;0.2" dur="2.4s" repeatCount="indefinite"/>
  </circle>
  <line x1="-52" y1="204" x2="-28" y2="204" stroke="#FFB703" stroke-width="1.2" opacity="0.6"/>
  <line x1="28" y1="204" x2="52" y2="204" stroke="#FFB703" stroke-width="1.2" opacity="0.6"/>
  <line x1="-48" y1="210" x2="-34" y2="210" stroke="#FFB703" stroke-width="0.9" opacity="0.4"/>
  <line x1="34" y1="210" x2="48" y2="210" stroke="#FFB703" stroke-width="0.9" opacity="0.4"/>
</g>
<text x="576" y="520" font-family="Inter,Segoe UI,Arial,sans-serif" font-size="11" font-weight="500" fill="#E7ECF4" text-anchor="middle" letter-spacing="0.3">Preauth notebook RCE under active exploitation</text>
<g transform="translate(936,330)">
  <!-- CVE stack (left, 4 cards cascading) -->
  <g transform="translate(-90,-80)">
    <rect x="0" y="0" width="64" height="22" rx="4" fill="#1C2541" stroke="#FFB703" stroke-width="1.6" opacity="0.95">
      <animate attributeName="x" values="-20;0;0;-20" dur="6s" repeatCount="indefinite"/>
      <animate attributeName="opacity" values="0;0.95;0.95;0" dur="6s" repeatCount="indefinite"/>
    </rect>
    <rect x="0" y="26" width="64" height="22" rx="4" fill="#1C2541" stroke="#FFB703" stroke-width="1.6" opacity="0.95">
      <animate attributeName="x" values="-20;0;0;-20" dur="6s" begin="0.4s" repeatCount="indefinite"/>
      <animate attributeName="opacity" values="0;0.95;0.95;0" dur="6s" begin="0.4s" repeatCount="indefinite"/>
    </rect>
    <rect x="0" y="52" width="64" height="22" rx="4" fill="#1C2541" stroke="#FFB703" stroke-width="1.6" opacity="0.95">
      <animate attributeName="x" values="-20;0;0;-20" dur="6s" begin="0.8s" repeatCount="indefinite"/>
      <animate attributeName="opacity" values="0;0.95;0.95;0" dur="6s" begin="0.8s" repeatCount="indefinite"/>
    </rect>
    <rect x="0" y="78" width="64" height="22" rx="4" fill="#1C2541" stroke="#FFB703" stroke-width="1.6" opacity="0.95">
      <animate attributeName="x" values="-20;0;0;-20" dur="6s" begin="1.2s" repeatCount="indefinite"/>
      <animate attributeName="opacity" values="0;0.95;0.95;0" dur="6s" begin="1.2s" repeatCount="indefinite"/>
    </rect>
    <!-- bug icon marks on each card -->
    <circle cx="10" cy="11" r="3" fill="#FFB703"/>
    <circle cx="10" cy="37" r="3" fill="#FFB703"/>
    <circle cx="10" cy="63" r="3" fill="#FFB703"/>
    <circle cx="10" cy="89" r="3" fill="#FFB703"/>
    <line x1="22" y1="11" x2="50" y2="11" stroke="#8B94A8" stroke-width="1.6"/>
    <line x1="22" y1="37" x2="50" y2="37" stroke="#8B94A8" stroke-width="1.6"/>
    <line x1="22" y1="63" x2="50" y2="63" stroke="#8B94A8" stroke-width="1.6"/>
    <line x1="22" y1="89" x2="50" y2="89" stroke="#8B94A8" stroke-width="1.6"/>
  </g>
  <!-- Arrow flowing from stack to diamond -->
  <path d="M -18 -20 L 18 -20" stroke="#FFB703" stroke-width="2.4" fill="none"
        stroke-dasharray="4 3">
    <animate attributeName="stroke-dashoffset" values="0;-14" dur="1.6s" repeatCount="indefinite"/>
  </path>
  <path d="M 18 -20 L 12 -24 M 18 -20 L 12 -16" stroke="#FFB703" stroke-width="2.4" fill="none"/>
  <!-- Decision diamond (center) rotating -->
  <g transform="translate(42,-20)">
    <polygon points="0,-22 22,0 0,22 -22,0" fill="none" stroke="#FFB703" stroke-width="2.4" opacity="0.95">
      <animateTransform attributeName="transform" type="rotate"
                        values="0;360" dur="18s" repeatCount="indefinite"/>
    </polygon>
    <circle cx="0" cy="0" r="5" fill="#FFB703">
      <animate attributeName="r" values="5;7;5" dur="2.4s" repeatCount="indefinite"/>
    </circle>
    <!-- small question mark via lines only (no text) -->
    <path d="M -3 -4 Q 0 -8 3 -4 Q 3 0 0 2" fill="none" stroke="#0B132B" stroke-width="1.6"/>
    <circle cx="0" cy="6" r="1" fill="#0B132B"/>
  </g>
  <!-- Branch up (keep) -->
  <path d="M 64 -30 L 104 -58" stroke="#3A86FF" stroke-width="2.4" fill="none" stroke-dasharray="4 3">
    <animate attributeName="stroke-dashoffset" values="0;-14" dur="1.8s" repeatCount="indefinite"/>
  </path>
  <g transform="translate(112,-66)">
    <!-- checkmark in circle -->
    <circle cx="0" cy="0" r="14" fill="none" stroke="#3A86FF" stroke-width="2.2">
      <animate attributeName="opacity" values="0.7;1;0.7" dur="2.4s" repeatCount="indefinite"/>
    </circle>
    <path d="M -6 0 L -2 5 L 7 -5" fill="none" stroke="#3A86FF" stroke-width="2.6" stroke-linecap="round"/>
  </g>
  <!-- Branch down (drop/trash) -->
  <path d="M 64 -10 L 104 18" stroke="#E63946" stroke-width="2.4" fill="none" stroke-dasharray="4 3">
    <animate attributeName="stroke-dashoffset" values="0;-14" dur="1.8s" repeatCount="indefinite"/>
  </path>
  <g transform="translate(112,26)">
    <!-- trash bin -->
    <rect x="-10" y="-6" width="20" height="20" rx="2" fill="none" stroke="#E63946" stroke-width="2.2">
      <animate attributeName="opacity" values="0.7;1;0.7" dur="2.8s" repeatCount="indefinite"/>
    </rect>
    <line x1="-12" y1="-6" x2="12" y2="-6" stroke="#E63946" stroke-width="2.2"/>
    <rect x="-4" y="-10" width="8" height="4" fill="#E63946"/>
    <line x1="-4" y1="-2" x2="-4" y2="10" stroke="#E63946" stroke-width="1.6"/>
    <line x1="0" y1="-2" x2="0" y2="10" stroke="#E63946" stroke-width="1.6"/>
    <line x1="4" y1="-2" x2="4" y2="10" stroke="#E63946" stroke-width="1.6"/>
  </g>
  <!-- Falling CVE cards toward trash (animation) -->
  <rect x="90" y="0" width="24" height="10" rx="2" fill="#E63946" opacity="0">
    <animate attributeName="y" values="0;50" dur="2.4s" repeatCount="indefinite"/>
    <animate attributeName="opacity" values="0.9;0" dur="2.4s" repeatCount="indefinite"/>
  </rect>
  <rect x="92" y="0" width="20" height="8" rx="2" fill="#E63946" opacity="0">
    <animate attributeName="y" values="0;52" dur="2.8s" begin="1s" repeatCount="indefinite"/>
    <animate attributeName="opacity" values="0.9;0" dur="2.8s" begin="1s" repeatCount="indefinite"/>
  </rect>
  <!-- Rising card toward keep -->
  <rect x="80" y="-40" width="20" height="8" rx="2" fill="#3A86FF" opacity="0">
    <animate attributeName="y" values="-40;-62" dur="2.6s" begin="0.4s" repeatCount="indefinite"/>
    <animate attributeName="opacity" values="0.9;0" dur="2.6s" begin="0.4s" repeatCount="indefinite"/>
  </rect>
  <!-- brand noun -->
  <text x="0" y="170" font-family="Inter,Segoe UI,Arial,sans-serif"
        font-size="16" font-weight="800" fill="#E7ECF4"
        text-anchor="middle" letter-spacing="3">ADOBE</text>
</g>
<g transform="translate(936,330)">
  <circle cx="0" cy="190" r="90" fill="url(#glowRed)" opacity="0.16">
    <animate attributeName="opacity" values="0.1;0.22;0.1" dur="4.2s" repeatCount="indefinite"/>
  </circle>
  <circle cx="-70" cy="192" r="2" fill="#E63946" opacity="0.45">
    <animate attributeName="opacity" values="0.2;0.75;0.2" dur="2.6s" repeatCount="indefinite"/>
  </circle>
  <circle cx="-60" cy="196" r="1.6" fill="#E63946" opacity="0.55">
    <animate attributeName="opacity" values="0.25;0.8;0.25" dur="2.8s" repeatCount="indefinite"/>
  </circle>
  <circle cx="60" cy="196" r="1.6" fill="#E63946" opacity="0.55">
    <animate attributeName="opacity" values="0.25;0.8;0.25" dur="3.0s" repeatCount="indefinite"/>
  </circle>
  <circle cx="70" cy="192" r="2" fill="#E63946" opacity="0.45">
    <animate attributeName="opacity" values="0.2;0.75;0.2" dur="2.4s" repeatCount="indefinite"/>
  </circle>
  <line x1="-52" y1="204" x2="-28" y2="204" stroke="#E63946" stroke-width="1.2" opacity="0.6"/>
  <line x1="28" y1="204" x2="52" y2="204" stroke="#E63946" stroke-width="1.2" opacity="0.6"/>
  <line x1="-48" y1="210" x2="-34" y2="210" stroke="#E63946" stroke-width="0.9" opacity="0.4"/>
  <line x1="34" y1="210" x2="48" y2="210" stroke="#E63946" stroke-width="0.9" opacity="0.4"/>
</g>
<text x="936" y="520" font-family="Inter,Segoe UI,Arial,sans-serif" font-size="12" font-weight="500" fill="#E7ECF4" text-anchor="middle" letter-spacing="0.3">Reader flaw delivers wiper payload</text>
<g transform="translate(1080,510)">
  <rect x="-6" y="-6" width="112" height="112" rx="8" fill="#E7ECF4" opacity="0.96"/>
  <rect x="-2" y="-2" width="104" height="104" rx="6" fill="#FFFFFF"/>
  <g transform="scale(5.555556)" fill="#0B132B">
    <path d="M0.8,0.8H1.2V1.2H0.8zM1.2,0.8H1.6V1.2H1.2zM1.6,0.8H2V1.2H1.6zM2,0.8H2.4V1.2H2zM2.4,0.8H2.8V1.2H2.4zM2.8,0.8H3.2V1.2H2.8zM3.2,0.8H3.6V1.2H3.2zM4.4,0.8H4.8V1.2H4.4zM4.8,0.8H5.2V1.2H4.8zM5.2,0.8H5.6V1.2H5.2zM5.6,0.8H6V1.2H5.6zM6.4,0.8H6.8V1.2H6.4zM7.2,0.8H7.6V1.2H7.2zM7.6,0.8H8V1.2H7.6zM8.4,0.8H8.8V1.2H8.4zM8.8,0.8H9.2V1.2H8.8zM9.2,0.8H9.6V1.2H9.2zM10,0.8H10.4V1.2H10zM10.4,0.8H10.8V1.2H10.4zM12,0.8H12.4V1.2H12zM12.8,0.8H13.2V1.2H12.8zM13.2,0.8H13.6V1.2H13.2zM13.6,0.8H14V1.2H13.6zM14.4,0.8H14.8V1.2H14.4zM14.8,0.8H15.2V1.2H14.8zM15.2,0.8H15.6V1.2H15.2zM15.6,0.8H16V1.2H15.6zM16,0.8H16.4V1.2H16zM16.4,0.8H16.8V1.2H16.4zM16.8,0.8H17.2V1.2H16.8zM0.8,1.2H1.2V1.6H0.8zM3.2,1.2H3.6V1.6H3.2zM4.8,1.2H5.2V1.6H4.8zM5.2,1.2H5.6V1.6H5.2zM5.6,1.2H6V1.6H5.6zM7.2,1.2H7.6V1.6H7.2zM7.6,1.2H8V1.6H7.6zM8.8,1.2H9.2V1.6H8.8zM9.2,1.2H9.6V1.6H9.2zM10.4,1.2H10.8V1.6H10.4zM11.2,1.2H11.6V1.6H11.2zM11.6,1.2H12V1.6H11.6zM13.6,1.2H14V1.6H13.6zM14.4,1.2H14.8V1.6H14.4zM16.8,1.2H17.2V1.6H16.8zM0.8,1.6H1.2V2H0.8zM1.6,1.6H2V2H1.6zM2,1.6H2.4V2H2zM2.4,1.6H2.8V2H2.4zM3.2,1.6H3.6V2H3.2zM4,1.6H4.4V2H4zM4.8,1.6H5.2V2H4.8zM5.2,1.6H5.6V2H5.2zM7.2,1.6H7.6V2H7.2zM7.6,1.6H8V2H7.6zM8,1.6H8.4V2H8zM8.8,1.6H9.2V2H8.8zM9.2,1.6H9.6V2H9.2zM9.6,1.6H10V2H9.6zM11.2,1.6H11.6V2H11.2zM11.6,1.6H12V2H11.6zM12,1.6H12.4V2H12zM12.8,1.6H13.2V2H12.8zM13.6,1.6H14V2H13.6zM14.4,1.6H14.8V2H14.4zM15.2,1.6H15.6V2H15.2zM15.6,1.6H16V2H15.6zM16,1.6H16.4V2H16zM16.8,1.6H17.2V2H16.8zM0.8,2H1.2V2.4H0.8zM1.6,2H2V2.4H1.6zM2,2H2.4V2.4H2zM2.4,2H2.8V2.4H2.4zM3.2,2H3.6V2.4H3.2zM4,2H4.4V2.4H4zM4.4,2H4.8V2.4H4.4zM4.8,2H5.2V2.4H4.8zM5.2,2H5.6V2.4H5.2zM5.6,2H6V2.4H5.6zM6.4,2H6.8V2.4H6.4zM8.4,2H8.8V2.4H8.4zM8.8,2H9.2V2.4H8.8zM9.2,2H9.6V2.4H9.2zM10.8,2H11.2V2.4H10.8zM11.2,2H11.6V2.4H11.2zM11.6,2H12V2.4H11.6zM12,2H12.4V2.4H12zM12.4,2H12.8V2.4H12.4zM13.6,2H14V2.4H13.6zM14.4,2H14.8V2.4H14.4zM15.2,2H15.6V2.4H15.2zM15.6,2H16V2.4H15.6zM16,2H16.4V2.4H16zM16.8,2H17.2V2.4H16.8zM0.8,2.4H1.2V2.8H0.8zM1.6,2.4H2V2.8H1.6zM2,2.4H2.4V2.8H2zM2.4,2.4H2.8V2.8H2.4zM3.2,2.4H3.6V2.8H3.2zM4,2.4H4.4V2.8H4zM4.8,2.4H5.2V2.8H4.8zM5.2,2.4H5.6V2.8H5.2zM5.6,2.4H6V2.8H5.6zM6,2.4H6.4V2.8H6zM6.8,2.4H7.2V2.8H6.8zM7.6,2.4H8V2.8H7.6zM8,2.4H8.4V2.8H8zM8.4,2.4H8.8V2.8H8.4zM8.8,2.4H9.2V2.8H8.8zM9.2,2.4H9.6V2.8H9.2zM9.6,2.4H10V2.8H9.6zM10,2.4H10.4V2.8H10zM11.2,2.4H11.6V2.8H11.2zM12.8,2.4H13.2V2.8H12.8zM13.2,2.4H13.6V2.8H13.2zM14.4,2.4H14.8V2.8H14.4zM15.2,2.4H15.6V2.8H15.2zM15.6,2.4H16V2.8H15.6zM16,2.4H16.4V2.8H16zM16.8,2.4H17.2V2.8H16.8zM0.8,2.8H1.2V3.2H0.8zM3.2,2.8H3.6V3.2H3.2zM4,2.8H4.4V3.2H4zM5.2,2.8H5.6V3.2H5.2zM6.4,2.8H6.8V3.2H6.4zM7.6,2.8H8V3.2H7.6zM8.8,2.8H9.2V3.2H8.8zM10.8,2.8H11.2V3.2H10.8zM11.6,2.8H12V3.2H11.6zM14.4,2.8H14.8V3.2H14.4zM16.8,2.8H17.2V3.2H16.8zM0.8,3.2H1.2V3.6H0.8zM1.2,3.2H1.6V3.6H1.2zM1.6,3.2H2V3.6H1.6zM2,3.2H2.4V3.6H2zM2.4,3.2H2.8V3.6H2.4zM2.8,3.2H3.2V3.6H2.8zM3.2,3.2H3.6V3.6H3.2zM4,3.2H4.4V3.6H4zM4.8,3.2H5.2V3.6H4.8zM5.6,3.2H6V3.6H5.6zM6.4,3.2H6.8V3.6H6.4zM7.2,3.2H7.6V3.6H7.2zM8,3.2H8.4V3.6H8zM8.8,3.2H9.2V3.6H8.8zM9.6,3.2H10V3.6H9.6zM10.4,3.2H10.8V3.6H10.4zM11.2,3.2H11.6V3.6H11.2zM12,3.2H12.4V3.6H12zM12.8,3.2H13.2V3.6H12.8zM13.6,3.2H14V3.6H13.6zM14.4,3.2H14.8V3.6H14.4zM14.8,3.2H15.2V3.6H14.8zM15.2,3.2H15.6V3.6H15.2zM15.6,3.2H16V3.6H15.6zM16,3.2H16.4V3.6H16zM16.4,3.2H16.8V3.6H16.4zM16.8,3.2H17.2V3.6H16.8zM4,3.6H4.4V4H4zM4.4,3.6H4.8V4H4.4zM6,3.6H6.4V4H6zM6.8,3.6H7.2V4H6.8zM7.2,3.6H7.6V4H7.2zM8,3.6H8.4V4H8zM8.8,3.6H9.2V4H8.8zM9.2,3.6H9.6V4H9.2zM10,3.6H10.4V4H10zM11.6,3.6H12V4H11.6zM12.8,3.6H13.2V4H12.8zM13.2,3.6H13.6V4H13.2zM0.8,4H1.2V4.4H0.8zM1.6,4H2V4.4H1.6zM2,4H2.4V4.4H2zM2.4,4H2.8V4.4H2.4zM2.8,4H3.2V4.4H2.8zM3.2,4H3.6V4.4H3.2zM4.4,4H4.8V4.4H4.4zM4.8,4H5.2V4.4H4.8zM5.2,4H5.6V4.4H5.2zM7.6,4H8V4.4H7.6zM8.4,4H8.8V4.4H8.4zM9.6,4H10V4.4H9.6zM10,4H10.4V4.4H10zM10.8,4H11.2V4.4H10.8zM11.2,4H11.6V4.4H11.2zM11.6,4H12V4.4H11.6zM12,4H12.4V4.4H12zM12.4,4H12.8V4.4H12.4zM13.6,4H14V4.4H13.6zM14.4,4H14.8V4.4H14.4zM14.8,4H15.2V4.4H14.8zM15.2,4H15.6V4.4H15.2zM15.6,4H16V4.4H15.6zM16,4H16.4V4.4H16zM1.6,4.4H2V4.8H1.6zM2,4.4H2.4V4.8H2zM2.8,4.4H3.2V4.8H2.8zM3.6,4.4H4V4.8H3.6zM4.4,4.4H4.8V4.8H4.4zM5.2,4.4H5.6V4.8H5.2zM6.4,4.4H6.8V4.8H6.4zM7.2,4.4H7.6V4.8H7.2zM8,4.4H8.4V4.8H8zM8.4,4.4H8.8V4.8H8.4zM9.2,4.4H9.6V4.8H9.2zM10,4.4H10.4V4.8H10zM11.2,4.4H11.6V4.8H11.2zM12.8,4.4H13.2V4.8H12.8zM13.2,4.4H13.6V4.8H13.2zM13.6,4.4H14V4.8H13.6zM14,4.4H14.4V4.8H14zM14.4,4.4H14.8V4.8H14.4zM15.2,4.4H15.6V4.8H15.2zM16,4.4H16.4V4.8H16zM16.4,4.4H16.8V4.8H16.4zM16.8,4.4H17.2V4.8H16.8zM0.8,4.8H1.2V5.2H0.8zM1.6,4.8H2V5.2H1.6zM2,4.8H2.4V5.2H2zM2.4,4.8H2.8V5.2H2.4zM2.8,4.8H3.2V5.2H2.8zM3.2,4.8H3.6V5.2H3.2zM3.6,4.8H4V5.2H3.6zM4.8,4.8H5.2V5.2H4.8zM7.2,4.8H7.6V5.2H7.2zM7.6,4.8H8V5.2H7.6zM8,4.8H8.4V5.2H8zM9.2,4.8H9.6V5.2H9.2zM9.6,4.8H10V5.2H9.6zM10.4,4.8H10.8V5.2H10.4zM11.2,4.8H11.6V5.2H11.2zM11.6,4.8H12V5.2H11.6zM12.8,4.8H13.2V5.2H12.8zM13.6,4.8H14V5.2H13.6zM14.8,4.8H15.2V5.2H14.8zM15.2,4.8H15.6V5.2H15.2zM1.2,5.2H1.6V5.6H1.2zM1.6,5.2H2V5.6H1.6zM2,5.2H2.4V5.6H2zM2.4,5.2H2.8V5.6H2.4zM4.4,5.2H4.8V5.6H4.4zM4.8,5.2H5.2V5.6H4.8zM5.2,5.2H5.6V5.6H5.2zM7.2,5.2H7.6V5.6H7.2zM8.4,5.2H8.8V5.6H8.4zM8.8,5.2H9.2V5.6H8.8zM9.2,5.2H9.6V5.6H9.2zM12,5.2H12.4V5.6H12zM12.8,5.2H13.2V5.6H12.8zM13.2,5.2H13.6V5.6H13.2zM13.6,5.2H14V5.6H13.6zM15.6,5.2H16V5.6H15.6zM16.8,5.2H17.2V5.6H16.8zM0.8,5.6H1.2V6H0.8zM1.6,5.6H2V6H1.6zM2.8,5.6H3.2V6H2.8zM3.2,5.6H3.6V6H3.2zM3.6,5.6H4V6H3.6zM4,5.6H4.4V6H4zM4.8,5.6H5.2V6H4.8zM5.2,5.6H5.6V6H5.2zM5.6,5.6H6V6H5.6zM6.4,5.6H6.8V6H6.4zM6.8,5.6H7.2V6H6.8zM7.2,5.6H7.6V6H7.2zM7.6,5.6H8V6H7.6zM8.4,5.6H8.8V6H8.4zM8.8,5.6H9.2V6H8.8zM9.6,5.6H10V6H9.6zM10.4,5.6H10.8V6H10.4zM10.8,5.6H11.2V6H10.8zM12,5.6H12.4V6H12zM12.4,5.6H12.8V6H12.4zM12.8,5.6H13.2V6H12.8zM13.2,5.6H13.6V6H13.2zM14.8,5.6H15.2V6H14.8zM15.6,5.6H16V6H15.6zM16,5.6H16.4V6H16zM16.4,5.6H16.8V6H16.4zM1.2,6H1.6V6.4H1.2zM4,6H4.4V6.4H4zM4.4,6H4.8V6.4H4.4zM7.2,6H7.6V6.4H7.2zM8,6H8.4V6.4H8zM10.8,6H11.2V6.4H10.8zM12,6H12.4V6.4H12zM12.4,6H12.8V6.4H12.4zM13.2,6H13.6V6.4H13.2zM13.6,6H14V6.4H13.6zM14.4,6H14.8V6.4H14.4zM14.8,6H15.2V6.4H14.8zM15.2,6H15.6V6.4H15.2zM15.6,6H16V6.4H15.6zM16,6H16.4V6.4H16zM16.8,6H17.2V6.4H16.8zM1.2,6.4H1.6V6.8H1.2zM1.6,6.4H2V6.8H1.6zM2,6.4H2.4V6.8H2zM2.8,6.4H3.2V6.8H2.8zM3.2,6.4H3.6V6.8H3.2zM3.6,6.4H4V6.8H3.6zM4.8,6.4H5.2V6.8H4.8zM5.2,6.4H5.6V6.8H5.2zM6.4,6.4H6.8V6.8H6.4zM8,6.4H8.4V6.8H8zM8.8,6.4H9.2V6.8H8.8zM9.2,6.4H9.6V6.8H9.2zM9.6,6.4H10V6.8H9.6zM10,6.4H10.4V6.8H10zM10.4,6.4H10.8V6.8H10.4zM11.6,6.4H12V6.8H11.6zM12.4,6.4H12.8V6.8H12.4zM12.8,6.4H13.2V6.8H12.8zM13.6,6.4H14V6.8H13.6zM14,6.4H14.4V6.8H14zM14.8,6.4H15.2V6.8H14.8zM15.6,6.4H16V6.8H15.6zM16,6.4H16.4V6.8H16zM2,6.8H2.4V7.2H2zM2.4,6.8H2.8V7.2H2.4zM2.8,6.8H3.2V7.2H2.8zM4,6.8H4.4V7.2H4zM4.4,6.8H4.8V7.2H4.4zM4.8,6.8H5.2V7.2H4.8zM5.6,6.8H6V7.2H5.6zM6.4,6.8H6.8V7.2H6.4zM6.8,6.8H7.2V7.2H6.8zM8,6.8H8.4V7.2H8zM9.2,6.8H9.6V7.2H9.2zM9.6,6.8H10V7.2H9.6zM10,6.8H10.4V7.2H10zM11.2,6.8H11.6V7.2H11.2zM13.6,6.8H14V7.2H13.6zM14.4,6.8H14.8V7.2H14.4zM15.2,6.8H15.6V7.2H15.2zM15.6,6.8H16V7.2H15.6zM0.8,7.2H1.2V7.6H0.8zM2,7.2H2.4V7.6H2zM2.8,7.2H3.2V7.6H2.8zM3.2,7.2H3.6V7.6H3.2zM3.6,7.2H4V7.6H3.6zM4.4,7.2H4.8V7.6H4.4zM5.2,7.2H5.6V7.6H5.2zM5.6,7.2H6V7.6H5.6zM6.4,7.2H6.8V7.6H6.4zM7.6,7.2H8V7.6H7.6zM9.6,7.2H10V7.6H9.6zM10,7.2H10.4V7.6H10zM10.8,7.2H11.2V7.6H10.8zM11.2,7.2H11.6V7.6H11.2zM11.6,7.2H12V7.6H11.6zM12.4,7.2H12.8V7.6H12.4zM13.2,7.2H13.6V7.6H13.2zM14,7.2H14.4V7.6H14zM14.8,7.2H15.2V7.6H14.8zM15.6,7.2H16V7.6H15.6zM16,7.2H16.4V7.6H16zM2,7.6H2.4V8H2zM2.4,7.6H2.8V8H2.4zM4,7.6H4.4V8H4zM4.4,7.6H4.8V8H4.4zM6,7.6H6.4V8H6zM6.8,7.6H7.2V8H6.8zM7.2,7.6H7.6V8H7.2zM8,7.6H8.4V8H8zM8.4,7.6H8.8V8H8.4zM10,7.6H10.4V8H10zM12,7.6H12.4V8H12zM12.8,7.6H13.2V8H12.8zM13.2,7.6H13.6V8H13.2zM13.6,7.6H14V8H13.6zM14.4,7.6H14.8V8H14.4zM14.8,7.6H15.2V8H14.8zM15.2,7.6H15.6V8H15.2zM16.4,7.6H16.8V8H16.4zM16.8,7.6H17.2V8H16.8zM1.6,8H2V8.4H1.6zM2.8,8H3.2V8.4H2.8zM3.2,8H3.6V8.4H3.2zM3.6,8H4V8.4H3.6zM4,8H4.4V8.4H4zM4.4,8H4.8V8.4H4.4zM4.8,8H5.2V8.4H4.8zM5.2,8H5.6V8.4H5.2zM6,8H6.4V8.4H6zM7.2,8H7.6V8.4H7.2zM8,8H8.4V8.4H8zM8.8,8H9.2V8.4H8.8zM9.6,8H10V8.4H9.6zM10.8,8H11.2V8.4H10.8zM11.6,8H12V8.4H11.6zM12,8H12.4V8.4H12zM12.8,8H13.2V8.4H12.8zM13.6,8H14V8.4H13.6zM15.2,8H15.6V8.4H15.2zM16,8H16.4V8.4H16zM16.4,8H16.8V8.4H16.4zM1.2,8.4H1.6V8.8H1.2zM2.4,8.4H2.8V8.8H2.4zM2.8,8.4H3.2V8.8H2.8zM3.6,8.4H4V8.8H3.6zM4,8.4H4.4V8.8H4zM5.2,8.4H5.6V8.8H5.2zM6.4,8.4H6.8V8.8H6.4zM6.8,8.4H7.2V8.8H6.8zM8.8,8.4H9.2V8.8H8.8zM10,8.4H10.4V8.8H10zM10.4,8.4H10.8V8.8H10.4zM11.2,8.4H11.6V8.8H11.2zM11.6,8.4H12V8.8H11.6zM12,8.4H12.4V8.8H12zM13.6,8.4H14V8.8H13.6zM14,8.4H14.4V8.8H14zM15.2,8.4H15.6V8.8H15.2zM15.6,8.4H16V8.8H15.6zM2,8.8H2.4V9.2H2zM2.4,8.8H2.8V9.2H2.4zM3.2,8.8H3.6V9.2H3.2zM3.6,8.8H4V9.2H3.6zM4,8.8H4.4V9.2H4zM4.4,8.8H4.8V9.2H4.4zM4.8,8.8H5.2V9.2H4.8zM6.4,8.8H6.8V9.2H6.4zM6.8,8.8H7.2V9.2H6.8zM8,8.8H8.4V9.2H8zM9.2,8.8H9.6V9.2H9.2zM9.6,8.8H10V9.2H9.6zM10.4,8.8H10.8V9.2H10.4zM10.8,8.8H11.2V9.2H10.8zM11.2,8.8H11.6V9.2H11.2zM12,8.8H12.4V9.2H12zM12.4,8.8H12.8V9.2H12.4zM13.6,8.8H14V9.2H13.6zM16,8.8H16.4V9.2H16zM16.8,8.8H17.2V9.2H16.8zM0.8,9.2H1.2V9.6H0.8zM1.2,9.2H1.6V9.6H1.2zM1.6,9.2H2V9.6H1.6zM4,9.2H4.4V9.6H4zM5.2,9.2H5.6V9.6H5.2zM5.6,9.2H6V9.6H5.6zM6,9.2H6.4V9.6H6zM6.4,9.2H6.8V9.6H6.4zM6.8,9.2H7.2V9.6H6.8zM7.2,9.2H7.6V9.6H7.2zM8.4,9.2H8.8V9.6H8.4zM9.2,9.2H9.6V9.6H9.2zM10,9.2H10.4V9.6H10zM10.4,9.2H10.8V9.6H10.4zM11.2,9.2H11.6V9.6H11.2zM13.2,9.2H13.6V9.6H13.2zM14.4,9.2H14.8V9.6H14.4zM14.8,9.2H15.2V9.6H14.8zM15.2,9.2H15.6V9.6H15.2zM16,9.2H16.4V9.6H16zM16.4,9.2H16.8V9.6H16.4zM16.8,9.2H17.2V9.6H16.8zM0.8,9.6H1.2V10H0.8zM2.4,9.6H2.8V10H2.4zM2.8,9.6H3.2V10H2.8zM3.2,9.6H3.6V10H3.2zM3.6,9.6H4V10H3.6zM4,9.6H4.4V10H4zM4.8,9.6H5.2V10H4.8zM5.2,9.6H5.6V10H5.2zM5.6,9.6H6V10H5.6zM7.2,9.6H7.6V10H7.2zM7.6,9.6H8V10H7.6zM8,9.6H8.4V10H8zM9.2,9.6H9.6V10H9.2zM11.2,9.6H11.6V10H11.2zM11.6,9.6H12V10H11.6zM12,9.6H12.4V10H12zM13.6,9.6H14V10H13.6zM14.4,9.6H14.8V10H14.4zM1.6,10H2V10.4H1.6zM2,10H2.4V10.4H2zM2.4,10H2.8V10.4H2.4zM3.6,10H4V10.4H3.6zM4.8,10H5.2V10.4H4.8zM5.2,10H5.6V10.4H5.2zM6,10H6.4V10.4H6zM9.2,10H9.6V10.4H9.2zM9.6,10H10V10.4H9.6zM10,10H10.4V10.4H10zM10.4,10H10.8V10.4H10.4zM12,10H12.4V10.4H12zM13.2,10H13.6V10.4H13.2zM13.6,10H14V10.4H13.6zM2.4,10.4H2.8V10.8H2.4zM2.8,10.4H3.2V10.8H2.8zM3.2,10.4H3.6V10.8H3.2zM4,10.4H4.4V10.8H4zM4.4,10.4H4.8V10.8H4.4zM5.2,10.4H5.6V10.8H5.2zM6.4,10.4H6.8V10.8H6.4zM7.6,10.4H8V10.8H7.6zM8.4,10.4H8.8V10.8H8.4zM9.6,10.4H10V10.8H9.6zM10.4,10.4H10.8V10.8H10.4zM10.8,10.4H11.2V10.8H10.8zM11.2,10.4H11.6V10.8H11.2zM12.4,10.4H12.8V10.8H12.4zM13.2,10.4H13.6V10.8H13.2zM14.8,10.4H15.2V10.8H14.8zM16,10.4H16.4V10.8H16zM16.4,10.4H16.8V10.8H16.4zM1.6,10.8H2V11.2H1.6zM2.4,10.8H2.8V11.2H2.4zM3.6,10.8H4V11.2H3.6zM4,10.8H4.4V11.2H4zM4.8,10.8H5.2V11.2H4.8zM5.6,10.8H6V11.2H5.6zM6,10.8H6.4V11.2H6zM6.4,10.8H6.8V11.2H6.4zM6.8,10.8H7.2V11.2H6.8zM8,10.8H8.4V11.2H8zM8.4,10.8H8.8V11.2H8.4zM8.8,10.8H9.2V11.2H8.8zM9.2,10.8H9.6V11.2H9.2zM10,10.8H10.4V11.2H10zM10.8,10.8H11.2V11.2H10.8zM11.2,10.8H11.6V11.2H11.2zM12.8,10.8H13.2V11.2H12.8zM13.2,10.8H13.6V11.2H13.2zM14.4,10.8H14.8V11.2H14.4zM14.8,10.8H15.2V11.2H14.8zM15.2,10.8H15.6V11.2H15.2zM15.6,10.8H16V11.2H15.6zM16.4,10.8H16.8V11.2H16.4zM16.8,10.8H17.2V11.2H16.8zM0.8,11.2H1.2V11.6H0.8zM2,11.2H2.4V11.6H2zM2.8,11.2H3.2V11.6H2.8zM3.2,11.2H3.6V11.6H3.2zM4.4,11.2H4.8V11.6H4.4zM5.6,11.2H6V11.6H5.6zM6,11.2H6.4V11.6H6zM8.8,11.2H9.2V11.6H8.8zM9.2,11.2H9.6V11.6H9.2zM9.6,11.2H10V11.6H9.6zM10.8,11.2H11.2V11.6H10.8zM11.2,11.2H11.6V11.6H11.2zM11.6,11.2H12V11.6H11.6zM12.4,11.2H12.8V11.6H12.4zM12.8,11.2H13.2V11.6H12.8zM13.6,11.2H14V11.6H13.6zM14,11.2H14.4V11.6H14zM15.2,11.2H15.6V11.6H15.2zM1.6,11.6H2V12H1.6zM2.4,11.6H2.8V12H2.4zM4.8,11.6H5.2V12H4.8zM5.6,11.6H6V12H5.6zM6,11.6H6.4V12H6zM6.4,11.6H6.8V12H6.4zM7.2,11.6H7.6V12H7.2zM8.4,11.6H8.8V12H8.4zM8.8,11.6H9.2V12H8.8zM9.2,11.6H9.6V12H9.2zM9.6,11.6H10V12H9.6zM10,11.6H10.4V12H10zM11.2,11.6H11.6V12H11.2zM11.6,11.6H12V12H11.6zM12.8,11.6H13.2V12H12.8zM13.2,11.6H13.6V12H13.2zM13.6,11.6H14V12H13.6zM14,11.6H14.4V12H14zM14.4,11.6H14.8V12H14.4zM14.8,11.6H15.2V12H14.8zM15.2,11.6H15.6V12H15.2zM15.6,11.6H16V12H15.6zM16.4,11.6H16.8V12H16.4zM0.8,12H1.2V12.4H0.8zM1.2,12H1.6V12.4H1.2zM1.6,12H2V12.4H1.6zM2,12H2.4V12.4H2zM3.2,12H3.6V12.4H3.2zM3.6,12H4V12.4H3.6zM4,12H4.4V12.4H4zM5.2,12H5.6V12.4H5.2zM5.6,12H6V12.4H5.6zM6,12H6.4V12.4H6zM6.4,12H6.8V12.4H6.4zM6.8,12H7.2V12.4H6.8zM7.2,12H7.6V12.4H7.2zM7.6,12H8V12.4H7.6zM8.4,12H8.8V12.4H8.4zM9.6,12H10V12.4H9.6zM10,12H10.4V12.4H10zM10.4,12H10.8V12.4H10.4zM10.8,12H11.2V12.4H10.8zM12,12H12.4V12.4H12zM12.4,12H12.8V12.4H12.4zM12.8,12H13.2V12.4H12.8zM13.2,12H13.6V12.4H13.2zM14.8,12H15.2V12.4H14.8zM15.6,12H16V12.4H15.6zM16,12H16.4V12.4H16zM0.8,12.4H1.2V12.8H0.8zM2,12.4H2.4V12.8H2zM2.4,12.4H2.8V12.8H2.4zM2.8,12.4H3.2V12.8H2.8zM3.6,12.4H4V12.8H3.6zM4,12.4H4.4V12.8H4zM4.4,12.4H4.8V12.8H4.4zM4.8,12.4H5.2V12.8H4.8zM5.2,12.4H5.6V12.8H5.2zM5.6,12.4H6V12.8H5.6zM6,12.4H6.4V12.8H6zM8,12.4H8.4V12.8H8zM8.8,12.4H9.2V12.8H8.8zM9.2,12.4H9.6V12.8H9.2zM10.4,12.4H10.8V12.8H10.4zM11.2,12.4H11.6V12.8H11.2zM12,12.4H12.4V12.8H12zM12.4,12.4H12.8V12.8H12.4zM13.2,12.4H13.6V12.8H13.2zM14,12.4H14.4V12.8H14zM14.4,12.4H14.8V12.8H14.4zM14.8,12.4H15.2V12.8H14.8zM15.2,12.4H15.6V12.8H15.2zM16.8,12.4H17.2V12.8H16.8zM0.8,12.8H1.2V13.2H0.8zM2,12.8H2.4V13.2H2zM3.2,12.8H3.6V13.2H3.2zM3.6,12.8H4V13.2H3.6zM5.2,12.8H5.6V13.2H5.2zM6.4,12.8H6.8V13.2H6.4zM7.2,12.8H7.6V13.2H7.2zM8,12.8H8.4V13.2H8zM8.4,12.8H8.8V13.2H8.4zM10.8,12.8H11.2V13.2H10.8zM11.2,12.8H11.6V13.2H11.2zM11.6,12.8H12V13.2H11.6zM12,12.8H12.4V13.2H12zM13.6,12.8H14V13.2H13.6zM14,12.8H14.4V13.2H14zM14.4,12.8H14.8V13.2H14.4zM14.8,12.8H15.2V13.2H14.8zM0.8,13.2H1.2V13.6H0.8zM1.6,13.2H2V13.6H1.6zM2.4,13.2H2.8V13.6H2.4zM2.8,13.2H3.2V13.6H2.8zM4.8,13.2H5.2V13.6H4.8zM5.6,13.2H6V13.6H5.6zM6,13.2H6.4V13.6H6zM6.4,13.2H6.8V13.6H6.4zM7.2,13.2H7.6V13.6H7.2zM8.4,13.2H8.8V13.6H8.4zM8.8,13.2H9.2V13.6H8.8zM9.2,13.2H9.6V13.6H9.2zM9.6,13.2H10V13.6H9.6zM10,13.2H10.4V13.6H10zM11.2,13.2H11.6V13.6H11.2zM11.6,13.2H12V13.6H11.6zM12,13.2H12.4V13.6H12zM12.8,13.2H13.2V13.6H12.8zM13.2,13.2H13.6V13.6H13.2zM13.6,13.2H14V13.6H13.6zM14,13.2H14.4V13.6H14zM14.4,13.2H14.8V13.6H14.4zM14.8,13.2H15.2V13.6H14.8zM15.6,13.2H16V13.6H15.6zM16.8,13.2H17.2V13.6H16.8zM0.8,13.6H1.2V14H0.8zM2,13.6H2.4V14H2zM3.2,13.6H3.6V14H3.2zM4,13.6H4.4V14H4zM4.4,13.6H4.8V14H4.4zM5.2,13.6H5.6V14H5.2zM5.6,13.6H6V14H5.6zM6.4,13.6H6.8V14H6.4zM6.8,13.6H7.2V14H6.8zM7.2,13.6H7.6V14H7.2zM7.6,13.6H8V14H7.6zM8.4,13.6H8.8V14H8.4zM9.6,13.6H10V14H9.6zM10,13.6H10.4V14H10zM10.8,13.6H11.2V14H10.8zM11.2,13.6H11.6V14H11.2zM12.4,13.6H12.8V14H12.4zM13.2,13.6H13.6V14H13.2zM13.6,13.6H14V14H13.6zM14,13.6H14.4V14H14zM14.4,13.6H14.8V14H14.4zM14.8,13.6H15.2V14H14.8zM15.2,13.6H15.6V14H15.2zM16,13.6H16.4V14H16zM16.4,13.6H16.8V14H16.4zM4,14H4.4V14.4H4zM5.2,14H5.6V14.4H5.2zM5.6,14H6V14.4H5.6zM6,14H6.4V14.4H6zM6.4,14H6.8V14.4H6.4zM6.8,14H7.2V14.4H6.8zM7.2,14H7.6V14.4H7.2zM7.6,14H8V14.4H7.6zM8.4,14H8.8V14.4H8.4zM8.8,14H9.2V14.4H8.8zM9.2,14H9.6V14.4H9.2zM9.6,14H10V14.4H9.6zM10,14H10.4V14.4H10zM12.4,14H12.8V14.4H12.4zM13.6,14H14V14.4H13.6zM15.2,14H15.6V14.4H15.2zM16,14H16.4V14.4H16zM16.4,14H16.8V14.4H16.4zM16.8,14H17.2V14.4H16.8zM0.8,14.4H1.2V14.8H0.8zM1.2,14.4H1.6V14.8H1.2zM1.6,14.4H2V14.8H1.6zM2,14.4H2.4V14.8H2zM2.4,14.4H2.8V14.8H2.4zM2.8,14.4H3.2V14.8H2.8zM3.2,14.4H3.6V14.8H3.2zM5.2,14.4H5.6V14.8H5.2zM6,14.4H6.4V14.8H6zM7.6,14.4H8V14.8H7.6zM9.2,14.4H9.6V14.8H9.2zM11.2,14.4H11.6V14.8H11.2zM11.6,14.4H12V14.8H11.6zM12,14.4H12.4V14.8H12zM12.8,14.4H13.2V14.8H12.8zM13.2,14.4H13.6V14.8H13.2zM13.6,14.4H14V14.8H13.6zM14.4,14.4H14.8V14.8H14.4zM15.2,14.4H15.6V14.8H15.2zM15.6,14.4H16V14.8H15.6zM0.8,14.8H1.2V15.2H0.8zM3.2,14.8H3.6V15.2H3.2zM4,14.8H4.4V15.2H4zM4.4,14.8H4.8V15.2H4.4zM5.2,14.8H5.6V15.2H5.2zM6.4,14.8H6.8V15.2H6.4zM7.2,14.8H7.6V15.2H7.2zM7.6,14.8H8V15.2H7.6zM8,14.8H8.4V15.2H8zM8.4,14.8H8.8V15.2H8.4zM8.8,14.8H9.2V15.2H8.8zM9.2,14.8H9.6V15.2H9.2zM9.6,14.8H10V15.2H9.6zM11.6,14.8H12V15.2H11.6zM13.2,14.8H13.6V15.2H13.2zM13.6,14.8H14V15.2H13.6zM15.2,14.8H15.6V15.2H15.2zM15.6,14.8H16V15.2H15.6zM16.8,14.8H17.2V15.2H16.8zM0.8,15.2H1.2V15.6H0.8zM1.6,15.2H2V15.6H1.6zM2,15.2H2.4V15.6H2zM2.4,15.2H2.8V15.6H2.4zM3.2,15.2H3.6V15.6H3.2zM4,15.2H4.4V15.6H4zM4.4,15.2H4.8V15.6H4.4zM4.8,15.2H5.2V15.6H4.8zM5.2,15.2H5.6V15.6H5.2zM6,15.2H6.4V15.6H6zM6.4,15.2H6.8V15.6H6.4zM6.8,15.2H7.2V15.6H6.8zM7.2,15.2H7.6V15.6H7.2zM9.2,15.2H9.6V15.6H9.2zM10.8,15.2H11.2V15.6H10.8zM12.4,15.2H12.8V15.6H12.4zM12.8,15.2H13.2V15.6H12.8zM13.6,15.2H14V15.6H13.6zM14,15.2H14.4V15.6H14zM14.4,15.2H14.8V15.6H14.4zM14.8,15.2H15.2V15.6H14.8zM15.2,15.2H15.6V15.6H15.2zM15.6,15.2H16V15.6H15.6zM16,15.2H16.4V15.6H16zM16.8,15.2H17.2V15.6H16.8zM0.8,15.6H1.2V16H0.8zM1.6,15.6H2V16H1.6zM2,15.6H2.4V16H2zM2.4,15.6H2.8V16H2.4zM3.2,15.6H3.6V16H3.2zM4,15.6H4.4V16H4zM5.2,15.6H5.6V16H5.2zM5.6,15.6H6V16H5.6zM6.8,15.6H7.2V16H6.8zM8,15.6H8.4V16H8zM8.4,15.6H8.8V16H8.4zM8.8,15.6H9.2V16H8.8zM9.2,15.6H9.6V16H9.2zM9.6,15.6H10V16H9.6zM10,15.6H10.4V16H10zM10.4,15.6H10.8V16H10.4zM12.8,15.6H13.2V16H12.8zM13.2,15.6H13.6V16H13.2zM13.6,15.6H14V16H13.6zM14,15.6H14.4V16H14zM14.8,15.6H15.2V16H14.8zM15.6,15.6H16V16H15.6zM16,15.6H16.4V16H16zM16.4,15.6H16.8V16H16.4zM16.8,15.6H17.2V16H16.8zM0.8,16H1.2V16.4H0.8zM1.6,16H2V16.4H1.6zM2,16H2.4V16.4H2zM2.4,16H2.8V16.4H2.4zM3.2,16H3.6V16.4H3.2zM4,16H4.4V16.4H4zM4.8,16H5.2V16.4H4.8zM5.6,16H6V16.4H5.6zM6.4,16H6.8V16.4H6.4zM7.6,16H8V16.4H7.6zM8.8,16H9.2V16.4H8.8zM9.6,16H10V16.4H9.6zM10.8,16H11.2V16.4H10.8zM11.2,16H11.6V16.4H11.2zM11.6,16H12V16.4H11.6zM12.4,16H12.8V16.4H12.4zM12.8,16H13.2V16.4H12.8zM13.2,16H13.6V16.4H13.2zM14,16H14.4V16.4H14zM14.4,16H14.8V16.4H14.4zM14.8,16H15.2V16.4H14.8zM15.2,16H15.6V16.4H15.2zM15.6,16H16V16.4H15.6zM0.8,16.4H1.2V16.8H0.8zM3.2,16.4H3.6V16.8H3.2zM4.4,16.4H4.8V16.8H4.4zM4.8,16.4H5.2V16.8H4.8zM5.2,16.4H5.6V16.8H5.2zM6,16.4H6.4V16.8H6zM6.4,16.4H6.8V16.8H6.4zM6.8,16.4H7.2V16.8H6.8zM7.2,16.4H7.6V16.8H7.2zM7.6,16.4H8V16.8H7.6zM8.4,16.4H8.8V16.8H8.4zM9.2,16.4H9.6V16.8H9.2zM9.6,16.4H10V16.8H9.6zM10.4,16.4H10.8V16.8H10.4zM11.2,16.4H11.6V16.8H11.2zM12,16.4H12.4V16.8H12zM13.6,16.4H14V16.8H13.6zM14,16.4H14.4V16.8H14zM15.2,16.4H15.6V16.8H15.2zM15.6,16.4H16V16.8H15.6zM16.4,16.4H16.8V16.8H16.4zM0.8,16.8H1.2V17.2H0.8zM1.2,16.8H1.6V17.2H1.2zM1.6,16.8H2V17.2H1.6zM2,16.8H2.4V17.2H2zM2.4,16.8H2.8V17.2H2.4zM2.8,16.8H3.2V17.2H2.8zM3.2,16.8H3.6V17.2H3.2zM4,16.8H4.4V17.2H4zM5.2,16.8H5.6V17.2H5.2zM6.8,16.8H7.2V17.2H6.8zM7.2,16.8H7.6V17.2H7.2zM9.6,16.8H10V17.2H9.6zM10.4,16.8H10.8V17.2H10.4zM10.8,16.8H11.2V17.2H10.8zM11.2,16.8H11.6V17.2H11.2zM11.6,16.8H12V17.2H11.6zM12.4,16.8H12.8V17.2H12.4zM14.4,16.8H14.8V17.2H14.4zM14.8,16.8H15.2V17.2H14.8zM15.2,16.8H15.6V17.2H15.2zM15.6,16.8H16V17.2H15.6zM16,16.8H16.4V17.2H16z"/>
  </g>
</g>
</svg>
