<svg xmlns="http://www.w3.org/2000/svg" viewBox="0 0 1200 630" width="1200" height="630" role="img" aria-label="Research-based weekly digest cover: Android Developer Verification rollout September 2026 in four countries, TrueConf zero-day exploit against Southeast Asia government networks, AWS ISO/IEC 27001:2022 compliance guide">
<title>Weekly digest 2026-04-01: Android Dev Verification Sep rollout, TrueConf 0-day SE Asia gov, AWS ISO 27001:2022</title>
<defs>
  <linearGradient id="bgSpread" x1="0%" y1="0%" x2="100%" y2="100%">
    <stop offset="0%" stop-color="#0A1226"/>
    <stop offset="55%" stop-color="#0D1530"/>
    <stop offset="100%" stop-color="#131038"/>
  </linearGradient>
  <linearGradient id="heroPanel" x1="0%" y1="0%" x2="0%" y2="100%">
    <stop offset="0%" stop-color="#112838"/>
    <stop offset="100%" stop-color="#0C1E2E"/>
  </linearGradient>
  <linearGradient id="topRightPanel" x1="0%" y1="0%" x2="0%" y2="100%">
    <stop offset="0%" stop-color="#2A0F16"/>
    <stop offset="100%" stop-color="#1E0A12"/>
  </linearGradient>
  <linearGradient id="bottomRightPanel" x1="0%" y1="0%" x2="0%" y2="100%">
    <stop offset="0%" stop-color="#0E2038"/>
    <stop offset="100%" stop-color="#0A1830"/>
  </linearGradient>
  <linearGradient id="shieldGrad" x1="0%" y1="0%" x2="0%" y2="100%">
    <stop offset="0%" stop-color="#4ADE80"/>
    <stop offset="100%" stop-color="#16A34A"/>
  </linearGradient>
  <linearGradient id="phoneGrad" x1="0%" y1="0%" x2="0%" y2="100%">
    <stop offset="0%" stop-color="#1C2541"/>
    <stop offset="100%" stop-color="#0F1A33"/>
  </linearGradient>
  <radialGradient id="glowGreen" cx="50%" cy="50%" r="50%">
    <stop offset="0%" stop-color="#4ADE80" stop-opacity="0.55"/>
    <stop offset="100%" stop-color="#4ADE80" stop-opacity="0"/>
  </radialGradient>
  <radialGradient id="glowRed" cx="50%" cy="50%" r="50%">
    <stop offset="0%" stop-color="#E63946" stop-opacity="0.55"/>
    <stop offset="100%" stop-color="#E63946" stop-opacity="0"/>
  </radialGradient>
  <radialGradient id="glowBlue" cx="50%" cy="50%" r="50%">
    <stop offset="0%" stop-color="#3A86FF" stop-opacity="0.5"/>
    <stop offset="100%" stop-color="#3A86FF" stop-opacity="0"/>
  </radialGradient>
  <pattern id="dotGrid" x="0" y="0" width="40" height="40" patternUnits="userSpaceOnUse">
    <circle cx="20" cy="20" r="0.8" fill="#2A3256" opacity="0.55"/>
  </pattern>
  <filter id="softShadow" x="-10%" y="-10%" width="130%" height="130%">
    <feGaussianBlur in="SourceAlpha" stdDeviation="2.8"/>
    <feOffset dx="1" dy="3"/>
    <feComponentTransfer><feFuncA type="linear" slope="0.55"/></feComponentTransfer>
    <feMerge><feMergeNode/><feMergeNode in="SourceGraphic"/></feMerge>
  </filter>
  <filter id="textShadow" x="-5%" y="-5%" width="110%" height="110%">
    <feGaussianBlur in="SourceAlpha" stdDeviation="1.2"/>
    <feOffset dx="0" dy="1.5"/>
    <feComponentTransfer><feFuncA type="linear" slope="0.8"/></feComponentTransfer>
    <feMerge><feMergeNode/><feMergeNode in="SourceGraphic"/></feMerge>
  </filter>
</defs>

<rect width="1200" height="630" fill="url(#bgSpread)"/>
<rect width="1200" height="630" fill="url(#dotGrid)"/>

<circle cx="320" cy="340" r="150" fill="url(#glowGreen)">
  <animate attributeName="opacity" values="0.55;0.9;0.55" dur="6.4s" repeatCount="indefinite"/>
  <animate attributeName="r" values="150;165;150" dur="8.2s" repeatCount="indefinite"/>
</circle>
<circle cx="940" cy="200" r="110" fill="url(#glowRed)">
  <animate attributeName="opacity" values="0.45;0.85;0.45" dur="5.8s" repeatCount="indefinite"/>
</circle>
<circle cx="940" cy="470" r="110" fill="url(#glowBlue)">
  <animate attributeName="opacity" values="0.4;0.75;0.4" dur="7.2s" repeatCount="indefinite"/>
</circle>

<rect x="0" y="0" width="1200" height="56" fill="#050813" opacity="0.92"/>
<text x="36" y="36" font-family="Inter, Helvetica, Arial, sans-serif" font-size="18" font-weight="700" fill="#8FB8FF" letter-spacing="2.5">WEEKLY DIGEST</text>
<text x="1164" y="36" font-family="Inter, Helvetica, Arial, sans-serif" font-size="15" font-weight="600" fill="#7DA3D9" letter-spacing="1.5" text-anchor="end">2026.04.01</text>
<rect x="0" y="54" width="1200" height="2" fill="#4ADE80" opacity="0.85">
  <animate attributeName="opacity" values="0.4;1;0.4" dur="4.8s" repeatCount="indefinite"/>
</rect>

<rect x="32" y="80" width="600" height="510" rx="14" ry="14" fill="url(#heroPanel)" stroke="#4ADE80" stroke-width="1.6" opacity="0.98"/>
<rect x="32" y="80" width="600" height="4" fill="#4ADE80" opacity="0.85">
  <animate attributeName="opacity" values="0.5;1;0.5" dur="3.8s" repeatCount="indefinite"/>
</rect>

<g filter="url(#textShadow)">
  <text x="54" y="112" font-family="Inter, Helvetica, Arial, sans-serif" font-size="13" font-weight="700" fill="#9FD3B0" letter-spacing="3">CRITICAL  /  01</text>
  <text x="54" y="146" font-family="Inter, Helvetica, Arial, sans-serif" font-size="34" font-weight="800" fill="#F5F7FA">Android Developer Verification</text>
  <text x="54" y="176" font-family="Inter, Helvetica, Arial, sans-serif" font-size="20" font-weight="500" fill="#BFC9D9">Four-country rollout in September 2026</text>
</g>

<g transform="translate(180,250)" filter="url(#softShadow)">
  <rect x="0" y="0" width="160" height="270" rx="24" ry="24" fill="url(#phoneGrad)" stroke="#4ADE80" stroke-width="2.4"/>
  <rect x="12" y="22" width="136" height="210" rx="4" fill="#0A1B2E"/>
  <circle cx="80" cy="250" r="6" fill="#2A3A56" stroke="#4ADE80" stroke-width="1.2"/>
  <g transform="translate(80,105)">
    <rect x="-30" y="-6" width="60" height="44" rx="30" ry="30" fill="#3DDC84"/>
    <circle cx="-14" cy="10" r="3" fill="#0A1B2E"/>
    <circle cx="14" cy="10" r="3" fill="#0A1B2E"/>
    <line x1="-22" y1="-14" x2="-28" y2="-24" stroke="#3DDC84" stroke-width="3" stroke-linecap="round"/>
    <line x1="22" y1="-14" x2="28" y2="-24" stroke="#3DDC84" stroke-width="3" stroke-linecap="round"/>
    <rect x="-26" y="44" width="52" height="44" rx="4" fill="#3DDC84"/>
    <rect x="-38" y="52" width="8" height="28" rx="4" fill="#3DDC84"/>
    <rect x="30" y="52" width="8" height="28" rx="4" fill="#3DDC84"/>
  </g>
  <g transform="translate(120,180)">
    <path d="M0 -22 L22 -12 L22 10 Q22 22 0 30 Q-22 22 -22 10 L-22 -12 Z" fill="url(#shieldGrad)" stroke="#FFFFFF" stroke-width="1.8" filter="url(#softShadow)">
      <animate attributeName="opacity" values="0.9;1;0.9" dur="2.6s" repeatCount="indefinite"/>
    </path>
    <path d="M-10 2 L-3 9 L12 -8" stroke="#FFFFFF" stroke-width="3" fill="none" stroke-linecap="round" stroke-linejoin="round"/>
  </g>
  <text x="80" y="225" text-anchor="middle" font-family="Inter, monospace" font-size="10" font-weight="800" fill="#4ADE80">VERIFIED DEV</text>
</g>

<g transform="translate(410,280)" filter="url(#softShadow)">
  <rect x="0" y="0" width="180" height="220" rx="10" fill="#0A1B2E" stroke="#4ADE80" stroke-width="1.4" opacity="0.95"/>
  <text x="90" y="28" text-anchor="middle" font-family="Inter, Helvetica, Arial, sans-serif" font-size="12" font-weight="700" fill="#9FD3B0" letter-spacing="2">MANDATORY FROM SEP</text>
  <g transform="translate(16,50)">
    <rect x="0" y="0" width="148" height="34" rx="4" fill="#0F2538" stroke="#16A34A" stroke-width="1"/>
    <circle cx="18" cy="17" r="10" fill="#009B3A"/>
    <polygon points="18,10 26,17 18,24 10,17" fill="#FFDF00"/>
    <circle cx="18" cy="17" r="4" fill="#002776"/>
    <text x="38" y="22" font-family="Inter, Helvetica, Arial, sans-serif" font-size="15" font-weight="700" fill="#F5F7FA">Brazil</text>
    <text x="110" y="22" font-family="Inter, monospace" font-size="12" font-weight="600" fill="#4ADE80">BR</text>
  </g>
  <g transform="translate(16,92)">
    <rect x="0" y="0" width="148" height="34" rx="4" fill="#0F2538" stroke="#16A34A" stroke-width="1"/>
    <rect x="8" y="7" width="20" height="10" fill="#FF0000"/>
    <rect x="8" y="17" width="20" height="10" fill="#FFFFFF"/>
    <text x="38" y="22" font-family="Inter, Helvetica, Arial, sans-serif" font-size="15" font-weight="700" fill="#F5F7FA">Indonesia</text>
    <text x="110" y="22" font-family="Inter, monospace" font-size="12" font-weight="600" fill="#4ADE80">ID</text>
  </g>
  <g transform="translate(16,134)">
    <rect x="0" y="0" width="148" height="34" rx="4" fill="#0F2538" stroke="#16A34A" stroke-width="1"/>
    <rect x="8" y="7" width="20" height="10" fill="#EE2536"/>
    <rect x="8" y="17" width="20" height="10" fill="#FFFFFF"/>
    <circle cx="14" cy="12" r="3" fill="#FFFFFF"/>
    <text x="38" y="22" font-family="Inter, Helvetica, Arial, sans-serif" font-size="15" font-weight="700" fill="#F5F7FA">Singapore</text>
    <text x="110" y="22" font-family="Inter, monospace" font-size="12" font-weight="600" fill="#4ADE80">SG</text>
  </g>
  <g transform="translate(16,176)">
    <rect x="0" y="0" width="148" height="34" rx="4" fill="#0F2538" stroke="#16A34A" stroke-width="1"/>
    <rect x="8" y="7" width="20" height="4" fill="#ED1C24"/>
    <rect x="8" y="11" width="20" height="4" fill="#FFFFFF"/>
    <rect x="8" y="15" width="20" height="8" fill="#241D4F"/>
    <rect x="8" y="23" width="20" height="4" fill="#FFFFFF"/>
    <text x="38" y="22" font-family="Inter, Helvetica, Arial, sans-serif" font-size="15" font-weight="700" fill="#F5F7FA">Thailand</text>
    <text x="110" y="22" font-family="Inter, monospace" font-size="12" font-weight="600" fill="#4ADE80">TH</text>
  </g>
</g>

<g transform="translate(54,546)">
  <rect x="0" y="0" width="260" height="26" rx="3" fill="#16A34A" opacity="0.95"/>
  <text x="130" y="18" text-anchor="middle" font-family="Inter, Helvetica, Arial, sans-serif" font-size="12" font-weight="700" fill="#FFFFFF">SUPPLY CHAIN TRUST SHIFT</text>
</g>
<text x="332" y="564" font-family="Inter, Helvetica, Arial, sans-serif" font-size="13" font-weight="600" fill="#9FD3B0" font-style="italic">The Hacker News  /  Mar 31</text>

<g fill="#4ADE80">
  <circle cx="140" cy="300" r="1.8"><animate attributeName="opacity" values="0;1;0" dur="2.1s" repeatCount="indefinite"/></circle>
  <circle cx="352" cy="320" r="1.8"><animate attributeName="opacity" values="0;1;0" dur="1.7s" begin="0.3s" repeatCount="indefinite"/></circle>
  <circle cx="150" cy="500" r="1.8"><animate attributeName="opacity" values="0;1;0" dur="2.4s" begin="0.5s" repeatCount="indefinite"/></circle>
  <circle cx="348" cy="510" r="1.8"><animate attributeName="opacity" values="0;1;0" dur="1.9s" begin="0.8s" repeatCount="indefinite"/></circle>
</g>

<rect x="652" y="80" width="516" height="248" rx="14" ry="14" fill="url(#topRightPanel)" stroke="#E63946" stroke-width="1.6" opacity="0.97"/>
<rect x="652" y="80" width="516" height="4" fill="#E63946" opacity="0.85">
  <animate attributeName="opacity" values="0.5;1;0.5" dur="4.2s" repeatCount="indefinite"/>
</rect>
<g filter="url(#textShadow)">
  <text x="670" y="110" font-family="Inter, Helvetica, Arial, sans-serif" font-size="12" font-weight="700" fill="#F87171" letter-spacing="3">CRITICAL  /  02</text>
  <text x="670" y="140" font-family="Inter, Helvetica, Arial, sans-serif" font-size="24" font-weight="800" fill="#F5F7FA">TrueConf Zero-Day Exploit</text>
  <text x="670" y="164" font-family="Inter, Helvetica, Arial, sans-serif" font-size="14" font-weight="500" fill="#FBB6BD">SE Asia gov networks targeted via video call RCE</text>
</g>

<g transform="translate(680,180)" filter="url(#softShadow)">
  <rect x="0" y="0" width="220" height="128" rx="8" fill="#1C0913" stroke="#E63946" stroke-width="1.8"/>
  <rect x="0" y="0" width="220" height="18" fill="#3A0F1A"/>
  <circle cx="12" cy="9" r="3" fill="#E63946"/>
  <circle cx="24" cy="9" r="3" fill="#FFB703"/>
  <circle cx="36" cy="9" r="3" fill="#4ADE80"/>
  <text x="110" y="13" text-anchor="middle" font-family="Inter, monospace" font-size="9" font-weight="700" fill="#FBB6BD">trueconf.exe</text>
  <rect x="8" y="26" width="100" height="46" rx="3" fill="#2A1218" stroke="#E63946" stroke-width="0.8"/>
  <circle cx="58" cy="49" r="11" fill="#4A2028"/>
  <rect x="47" y="54" width="22" height="14" rx="3" fill="#4A2028"/>
  <rect x="112" y="26" width="100" height="46" rx="3" fill="#2A1218" stroke="#E63946" stroke-width="0.8"/>
  <circle cx="162" cy="49" r="11" fill="#4A2028"/>
  <rect x="151" y="54" width="22" height="14" rx="3" fill="#4A2028"/>
  <rect x="8" y="76" width="100" height="46" rx="3" fill="#2A1218" stroke="#E63946" stroke-width="0.8"/>
  <rect x="112" y="76" width="100" height="46" rx="3" fill="#2A1218" stroke="#E63946" stroke-width="0.8"/>
  <g transform="translate(110,60)">
    <circle r="22" fill="#E63946" opacity="0.3">
      <animate attributeName="r" values="18;32;18" dur="2.4s" repeatCount="indefinite"/>
      <animate attributeName="opacity" values="0.2;0.6;0.2" dur="2.4s" repeatCount="indefinite"/>
    </circle>
    <circle r="10" fill="#E63946" stroke="#FCA5A5" stroke-width="1.5"/>
    <text y="4" text-anchor="middle" font-family="Inter, monospace" font-size="10" font-weight="800" fill="#FFF">RCE</text>
  </g>
</g>

<g transform="translate(1050,244)" filter="url(#softShadow)">
  <rect x="-80" y="-60" width="170" height="120" rx="12" fill="#1E0A14" stroke="#E63946" stroke-width="2"/>
  <text x="5" y="-32" text-anchor="middle" font-family="Inter, Helvetica, Arial, sans-serif" font-size="11" font-weight="700" letter-spacing="2" fill="#F87171">ZERO-DAY</text>
  <text x="5" y="14" text-anchor="middle" font-family="Inter, Helvetica, Arial, sans-serif" font-size="44" font-weight="900" fill="#F5F7FA">0-Day</text>
  <text x="5" y="40" text-anchor="middle" font-family="Inter, Helvetica, Arial, sans-serif" font-size="11" font-weight="600" fill="#FBB6BD">APT : SE Asia gov</text>
</g>

<rect x="652" y="344" width="516" height="246" rx="14" ry="14" fill="url(#bottomRightPanel)" stroke="#3A86FF" stroke-width="1.6" opacity="0.97"/>
<rect x="652" y="344" width="516" height="4" fill="#3A86FF" opacity="0.85">
  <animate attributeName="opacity" values="0.5;1;0.5" dur="4.6s" repeatCount="indefinite"/>
</rect>
<g filter="url(#textShadow)">
  <text x="670" y="374" font-family="Inter, Helvetica, Arial, sans-serif" font-size="12" font-weight="700" fill="#8FB8FF" letter-spacing="3">MEDIUM  /  03</text>
  <text x="670" y="404" font-family="Inter, Helvetica, Arial, sans-serif" font-size="24" font-weight="800" fill="#F5F7FA">AWS ISO/IEC 27001:2022 Guide</text>
  <text x="670" y="428" font-family="Inter, Helvetica, Arial, sans-serif" font-size="14" font-weight="500" fill="#BFC9D9">Compliance guidance for cloud workloads</text>
</g>

<g transform="translate(690,450)" filter="url(#softShadow)">
  <g transform="translate(0,0)">
    <path d="M0 0 L80 0 L80 90 Q80 110 40 120 Q0 110 0 90 Z" fill="#0E2038" stroke="#3A86FF" stroke-width="2.2"/>
    <text x="40" y="32" text-anchor="middle" font-family="Inter, monospace" font-size="11" font-weight="800" fill="#8FB8FF">ISO/IEC</text>
    <text x="40" y="58" text-anchor="middle" font-family="Inter, Helvetica, Arial, sans-serif" font-size="22" font-weight="900" fill="#F5F7FA">27001</text>
    <text x="40" y="78" text-anchor="middle" font-family="Inter, monospace" font-size="11" font-weight="700" fill="#8FB8FF">: 2022</text>
    <path d="M28 92 L38 102 L54 86" stroke="#4ADE80" stroke-width="3" fill="none" stroke-linecap="round" stroke-linejoin="round"/>
  </g>
  <g transform="translate(110,10)">
    <g>
      <rect x="0" y="0" width="16" height="16" rx="3" fill="#4ADE80"/>
      <path d="M4 8 L7 11 L12 5" stroke="#FFFFFF" stroke-width="2" fill="none" stroke-linecap="round"/>
      <text x="26" y="13" font-family="Inter, Helvetica, Arial, sans-serif" font-size="13" font-weight="600" fill="#BFC9D9">ISMS alignment</text>
    </g>
    <g transform="translate(0,26)">
      <rect x="0" y="0" width="16" height="16" rx="3" fill="#4ADE80"/>
      <path d="M4 8 L7 11 L12 5" stroke="#FFFFFF" stroke-width="2" fill="none" stroke-linecap="round"/>
      <text x="26" y="13" font-family="Inter, Helvetica, Arial, sans-serif" font-size="13" font-weight="600" fill="#BFC9D9">Control mapping 2022</text>
    </g>
    <g transform="translate(0,52)">
      <rect x="0" y="0" width="16" height="16" rx="3" fill="#4ADE80"/>
      <path d="M4 8 L7 11 L12 5" stroke="#FFFFFF" stroke-width="2" fill="none" stroke-linecap="round"/>
      <text x="26" y="13" font-family="Inter, Helvetica, Arial, sans-serif" font-size="13" font-weight="600" fill="#BFC9D9">Evidence on AWS</text>
    </g>
    <g transform="translate(0,78)">
      <rect x="0" y="0" width="16" height="16" rx="3" fill="#4ADE80"/>
      <path d="M4 8 L7 11 L12 5" stroke="#FFFFFF" stroke-width="2" fill="none" stroke-linecap="round"/>
      <text x="26" y="13" font-family="Inter, Helvetica, Arial, sans-serif" font-size="13" font-weight="600" fill="#BFC9D9">Auditor workbook</text>
    </g>
  </g>
</g>

<g transform="translate(1080,470)" filter="url(#softShadow)">
  <rect x="-60" y="-50" width="130" height="110" rx="10" fill="#0A1B2E" stroke="#3A86FF" stroke-width="2"/>
  <text x="5" y="-26" text-anchor="middle" font-family="Inter, Helvetica, Arial, sans-serif" font-size="10" font-weight="700" letter-spacing="2" fill="#8FB8FF">STANDARD</text>
  <text x="5" y="20" text-anchor="middle" font-family="Inter, Helvetica, Arial, sans-serif" font-size="40" font-weight="900" fill="#F5F7FA">2022</text>
  <text x="5" y="42" text-anchor="middle" font-family="Inter, Helvetica, Arial, sans-serif" font-size="10" font-weight="600" fill="#8FB8FF">AWS Security Blog</text>
</g>

<g opacity="0.9">
  <g fill="#F87171">
    <circle cx="1100" cy="108" r="1.4"><animate attributeName="opacity" values="0.2;1;0.2" dur="1.8s" repeatCount="indefinite"/></circle>
    <circle cx="1120" cy="108" r="1.4"><animate attributeName="opacity" values="0.2;1;0.2" dur="1.4s" begin="0.3s" repeatCount="indefinite"/></circle>
    <circle cx="1140" cy="108" r="1.4"><animate attributeName="opacity" values="0.2;1;0.2" dur="2.0s" begin="0.6s" repeatCount="indefinite"/></circle>
  </g>
  <g fill="#8FB8FF">
    <circle cx="1100" cy="372" r="1.4"><animate attributeName="opacity" values="0.2;1;0.2" dur="1.8s" repeatCount="indefinite"/></circle>
    <circle cx="1120" cy="372" r="1.4"><animate attributeName="opacity" values="0.2;1;0.2" dur="1.6s" begin="0.3s" repeatCount="indefinite"/></circle>
    <circle cx="1140" cy="372" r="1.4"><animate attributeName="opacity" values="0.2;1;0.2" dur="2.2s" begin="0.6s" repeatCount="indefinite"/></circle>
  </g>
</g>

</svg>
