<svg xmlns="http://www.w3.org/2000/svg" viewBox="0 0 1200 630" width="1200" height="630" role="img" aria-label="VMware vCenter zero-day RCE, Fortinet FortiAuthenticator SSO bypass, Sandworm DynoWiper Ukraine attack">
<title>Weekly digest 2026-01-25: VMware vCenter zero-day, Fortinet SSO bypass, Sandworm DynoWiper</title>
<defs>
<linearGradient id="bgSpreadJA03" x1="0%" y1="0%" x2="100%" y2="100%"><stop offset="0%" stop-color="#0A1226"/><stop offset="50%" stop-color="#0C1430"/><stop offset="100%" stop-color="#131038"/></linearGradient>
<linearGradient id="bandAJA03" x1="0%" y1="0%" x2="100%" y2="0%"><stop offset="0%" stop-color="#1A0E2E"/><stop offset="100%" stop-color="#24122F"/></linearGradient>
<linearGradient id="bandBJA03" x1="0%" y1="0%" x2="100%" y2="0%"><stop offset="0%" stop-color="#2A1A0C"/><stop offset="100%" stop-color="#1E1F0A"/></linearGradient>
<linearGradient id="bandCJA03" x1="0%" y1="0%" x2="100%" y2="0%"><stop offset="0%" stop-color="#0E2038"/><stop offset="100%" stop-color="#12283F"/></linearGradient>
<filter id="softShadow" x="-10%" y="-10%" width="130%" height="130%"><feGaussianBlur in="SourceAlpha" stdDeviation="2.5"/><feOffset dx="1" dy="3"/><feComponentTransfer><feFuncA type="linear" slope="0.55"/></feComponentTransfer><feMerge><feMergeNode/><feMergeNode in="SourceGraphic"/></feMerge></filter>
<filter id="textShadow" x="-5%" y="-5%" width="110%" height="110%"><feGaussianBlur in="SourceAlpha" stdDeviation="1.2"/><feOffset dx="0" dy="1.5"/><feComponentTransfer><feFuncA type="linear" slope="0.85"/></feComponentTransfer><feMerge><feMergeNode/><feMergeNode in="SourceGraphic"/></feMerge></filter>
<pattern id="ledgerGrid" x="0" y="0" width="40" height="20" patternUnits="userSpaceOnUse"><path d="M0 20 L40 20" stroke="#2A3A56" stroke-width="0.4" opacity="0.5"/><path d="M40 0 L40 20" stroke="#2A3A56" stroke-width="0.4" opacity="0.5"/></pattern>
<pattern id="circuitDot" x="0" y="0" width="18" height="18" patternUnits="userSpaceOnUse"><circle cx="9" cy="9" r="0.8" fill="#3A2A4E" opacity="0.55"/></pattern>
</defs>
<rect width="1200" height="630" fill="url(#bgSpreadJA03)"/>
<g>
  <rect x="0" y="0" width="1200" height="210" fill="url(#bandAJA03)"/>
  <rect x="0" y="0" width="1200" height="210" fill="url(#circuitDot)" opacity="0.6"/>
  <rect x="0" y="0" width="8" height="210" fill="#E63946"/>
  <g filter="url(#textShadow)">
    <text x="30" y="44" font-family="Inter, Helvetica, Arial, sans-serif" font-size="18" font-weight="700" letter-spacing="2.4" fill="#F87171">CRITICAL VCENTER</text>
    <text x="30" y="86" font-family="Inter, Helvetica, Arial, sans-serif" font-size="36" font-weight="800" fill="#F5F7FA">VMware vCenter RCE</text>
    <text x="30" y="118" font-family="Inter, Helvetica, Arial, sans-serif" font-size="20" font-weight="600" fill="#FBB6BD">CVE-2026-0294 : CVSS 9.8</text>
    <text x="30" y="146" font-family="Inter, Helvetica, Arial, sans-serif" font-size="15" font-weight="500" fill="#D9C9CE">DCERPC unauthenticated RCE : vCenter 8.0.3 affected : 38K internet-exposed instances</text>
  </g>
  <g transform="translate(500,105)">
    <path d="M-22 -20 Q-22 -50 0 -50 Q22 -50 22 -20" stroke="#E63946" stroke-width="4" fill="none"/>
    <rect x="-32" y="-22" width="64" height="60" rx="6" fill="#E63946" fill-opacity="0.2" stroke="#E63946" stroke-width="2.2" filter="url(#softShadow)"/>
    <circle r="5" fill="#FCA5A5" cy="2"/>
    <rect x="-3" y="2" width="6" height="18" fill="#FCA5A5"/>
    <text y="60" text-anchor="middle" font-family="Inter, monospace" font-size="14" font-weight="900" fill="#E63946">CVSS 9.8</text>
    <g fill="#FCA5A5" opacity="0.7">
      <circle cx="-45" cy="-35" r="2"><animate attributeName="opacity" values="0.2;1;0.2" dur="1.8s" repeatCount="indefinite"/></circle>
      <circle cx="45" cy="-35" r="2"><animate attributeName="opacity" values="0.2;1;0.2" dur="2.1s" repeatCount="indefinite"/></circle>
      <circle cx="-45" cy="35" r="2"><animate attributeName="opacity" values="0.2;1;0.2" dur="2.3s" repeatCount="indefinite"/></circle>
      <circle cx="45" cy="35" r="2"><animate attributeName="opacity" values="0.2;1;0.2" dur="1.9s" repeatCount="indefinite"/></circle>
    </g>
  </g>
  <g transform="translate(990,105)" filter="url(#softShadow)">
    <rect x="-80" y="-65" width="180" height="125" rx="14" fill="#1E0A14" stroke="#E63946" stroke-width="2.2"/>
    <text x="10" y="-30" text-anchor="middle" font-family="Inter, Helvetica, Arial, sans-serif" font-size="13" font-weight="700" letter-spacing="2" fill="#F87171">CVSS</text>
    <text x="10" y="28" text-anchor="middle" font-family="Inter, Helvetica, Arial, sans-serif" font-size="72" font-weight="900" fill="#F5F7FA">9.8</text>
    <text x="10" y="52" text-anchor="middle" font-family="Inter, Helvetica, Arial, sans-serif" font-size="12" font-weight="600" fill="#FBB6BD">critical</text>
  </g>
  <g transform="translate(990,105)"><circle cx="10" cy="-50" r="3" fill="#E63946"><animate attributeName="opacity" values="0.2;1;0.2" dur="1.8s" repeatCount="indefinite"/></circle></g>
</g>
<g>
  <rect x="0" y="210" width="1200" height="210" fill="url(#bandBJA03)"/>
  <rect x="0" y="210" width="1200" height="210" fill="url(#ledgerGrid)" opacity="0.6"/>
  <rect x="0" y="210" width="8" height="210" fill="#FFB703"/>
  <g filter="url(#textShadow)">
    <text x="30" y="254" font-family="Inter, Helvetica, Arial, sans-serif" font-size="18" font-weight="700" letter-spacing="2.4" fill="#FFB703">SSO BYPASS</text>
    <text x="30" y="296" font-family="Inter, Helvetica, Arial, sans-serif" font-size="36" font-weight="800" fill="#F5F7FA">Fortinet FortiAuthenticator</text>
    <text x="30" y="328" font-family="Inter, Helvetica, Arial, sans-serif" font-size="20" font-weight="600" fill="#FFD58A">CVE-2026-0311 : auth bypass</text>
    <text x="30" y="356" font-family="Inter, Helvetica, Arial, sans-serif" font-size="15" font-weight="500" fill="#E0D5B6">SAML assertion spoofing : admin session takeover : FortiGate federation : FG-IR-26-004</text>
  </g>
  <g transform="translate(500,315)">
    <path d="M0 -60 L55 -40 L50 25 Q40 55 0 65 Q-40 55 -50 25 L-55 -40 Z" fill="#FFB703" fill-opacity="0.15" stroke="#FFB703" stroke-width="2.4" filter="url(#softShadow)"/>
    <path d="M0 -50 L45 -33 L40 22 Q32 46 0 55 Q-32 46 -40 22 L-45 -33 Z" fill="none" stroke="#FCD34D" stroke-width="1" opacity="0.7"/>
    <g transform="translate(0,-5)" stroke="#FCD34D" stroke-width="3" fill="none">
      <path d="M-18 5 L-4 20 L22 -12"><animate attributeName="stroke-dasharray" values="0 80;80 0" dur="2.4s" repeatCount="indefinite"/></path>
    </g>
    <text y="44" text-anchor="middle" font-family="Inter, monospace" font-size="10" font-weight="800" fill="#FFB703">SAML</text>
  </g>
  <g transform="translate(990,315)" filter="url(#softShadow)">
    <rect x="-80" y="-65" width="180" height="125" rx="14" fill="#1E1805" stroke="#FFB703" stroke-width="2.2"/>
    <text x="10" y="-30" text-anchor="middle" font-family="Inter, Helvetica, Arial, sans-serif" font-size="13" font-weight="700" letter-spacing="2" fill="#FFB703">FG-IR-26-004</text>
    <text x="10" y="28" text-anchor="middle" font-family="Inter, Helvetica, Arial, sans-serif" font-size="72" font-weight="900" fill="#F5F7FA">CVE</text>
    <text x="10" y="52" text-anchor="middle" font-family="Inter, Helvetica, Arial, sans-serif" font-size="12" font-weight="600" fill="#FFD58A">SAML SSO</text>
  </g>
  <g transform="translate(990,315)"><circle cx="10" cy="-50" r="3" fill="#FFB703"><animate attributeName="opacity" values="0.2;1;0.2" dur="1.8s" repeatCount="indefinite"/></circle></g>
</g>
<g>
  <rect x="0" y="420" width="1200" height="210" fill="url(#bandCJA03)"/>
  <rect x="0" y="420" width="1200" height="210" fill="url(#ledgerGrid)" opacity="0.6"/>
  <rect x="0" y="420" width="8" height="210" fill="#4ADE80"/>
  <g filter="url(#textShadow)">
    <text x="30" y="464" font-family="Inter, Helvetica, Arial, sans-serif" font-size="18" font-weight="700" letter-spacing="2.4" fill="#4ADE80">APT SANDWORM</text>
    <text x="30" y="506" font-family="Inter, Helvetica, Arial, sans-serif" font-size="36" font-weight="800" fill="#F5F7FA">DynoWiper Campaign</text>
    <text x="30" y="538" font-family="Inter, Helvetica, Arial, sans-serif" font-size="20" font-weight="600" fill="#9FD3B0">Ukraine telecom : 6 ISPs hit</text>
    <text x="30" y="566" font-family="Inter, Helvetica, Arial, sans-serif" font-size="15" font-weight="500" fill="#BFC9D9">Wiper deployed via RMM : volume shadow delete : domain controller pivot : GRU attribution</text>
  </g>
  <g transform="translate(500,525)">
    <circle r="60" fill="#4ADE80" fill-opacity="0.08"><animate attributeName="r" values="50;70;50" dur="3s" repeatCount="indefinite"/></circle>
    <circle r="22" fill="#4ADE80" stroke="#86EFAC" stroke-width="2" filter="url(#softShadow)"/>
    <text y="4" text-anchor="middle" font-family="Inter, monospace" font-size="11" font-weight="800" fill="#FFF">WIPER</text>
    <g stroke="#4ADE80" stroke-width="1" stroke-dasharray="2 3" fill="none" opacity="0.55">
      <line x1="0" y1="0" x2="70" y2="-45"/><line x1="0" y1="0" x2="85" y2="0"/><line x1="0" y1="0" x2="70" y2="45"/>
      <line x1="0" y1="0" x2="-70" y2="-45"/><line x1="0" y1="0" x2="-85" y2="0"/><line x1="0" y1="0" x2="-70" y2="45"/>
      <line x1="0" y1="0" x2="40" y2="-70"/><line x1="0" y1="0" x2="-40" y2="-70"/>
    </g>
    <g fill="#86EFAC">
      <circle cx="70" cy="-45" r="4"><animate attributeName="opacity" values="0.3;1;0.3" dur="1.8s" repeatCount="indefinite"/></circle>
      <circle cx="85" cy="0" r="4"><animate attributeName="opacity" values="0.3;1;0.3" dur="2.1s" repeatCount="indefinite"/></circle>
      <circle cx="70" cy="45" r="4"><animate attributeName="opacity" values="0.3;1;0.3" dur="2.4s" repeatCount="indefinite"/></circle>
      <circle cx="-70" cy="-45" r="4"><animate attributeName="opacity" values="0.3;1;0.3" dur="1.9s" repeatCount="indefinite"/></circle>
      <circle cx="-85" cy="0" r="4"><animate attributeName="opacity" values="0.3;1;0.3" dur="2.3s" repeatCount="indefinite"/></circle>
      <circle cx="-70" cy="45" r="4"><animate attributeName="opacity" values="0.3;1;0.3" dur="2.0s" repeatCount="indefinite"/></circle>
      <circle cx="40" cy="-70" r="4"><animate attributeName="opacity" values="0.3;1;0.3" dur="2.5s" repeatCount="indefinite"/></circle>
      <circle cx="-40" cy="-70" r="4"><animate attributeName="opacity" values="0.3;1;0.3" dur="1.7s" repeatCount="indefinite"/></circle>
    </g>
    <g fill="#FFF">
      <circle r="1.6"><animateMotion path="M0 0 L70 -45" dur="1.9s" repeatCount="indefinite"/></circle>
      <circle r="1.6"><animateMotion path="M0 0 L85 0" dur="2.1s" repeatCount="indefinite"/></circle>
      <circle r="1.6"><animateMotion path="M0 0 L-70 -45" dur="2.0s" repeatCount="indefinite"/></circle>
      <circle r="1.6"><animateMotion path="M0 0 L-85 0" dur="2.3s" repeatCount="indefinite"/></circle>
    </g>
  </g>
  <g transform="translate(990,525)" filter="url(#softShadow)">
    <rect x="-80" y="-65" width="180" height="125" rx="14" fill="#0A1B2E" stroke="#4ADE80" stroke-width="2.2"/>
    <text x="10" y="-30" text-anchor="middle" font-family="Inter, Helvetica, Arial, sans-serif" font-size="13" font-weight="700" letter-spacing="2" fill="#4ADE80">ISPs</text>
    <text x="10" y="28" text-anchor="middle" font-family="Inter, Helvetica, Arial, sans-serif" font-size="72" font-weight="900" fill="#F5F7FA">6</text>
    <text x="10" y="52" text-anchor="middle" font-family="Inter, Helvetica, Arial, sans-serif" font-size="12" font-weight="600" fill="#9FD3B0">Ukraine hit</text>
  </g>
  <g transform="translate(990,525)"><circle cx="10" cy="-50" r="3" fill="#4ADE80"><animate attributeName="opacity" values="0.2;1;0.2" dur="1.8s" repeatCount="indefinite"/></circle></g>
</g>
<g opacity="0.9">
  <g fill="#E63946">
    <circle cx="240" cy="168" r="1.5"><animate attributeName="opacity" values="0;1;0" dur="1.8s" repeatCount="indefinite"/></circle>
    <circle cx="310" cy="168" r="1.5"><animate attributeName="opacity" values="0;1;0" dur="1.6s" begin="0.2s" repeatCount="indefinite"/></circle>
    <circle cx="380" cy="168" r="1.5"><animate attributeName="opacity" values="0;1;0" dur="2.0s" begin="0.4s" repeatCount="indefinite"/></circle>
    <circle cx="820" cy="168" r="1.5"><animate attributeName="opacity" values="0;1;0" dur="1.9s" repeatCount="indefinite"/></circle>
    <circle cx="880" cy="168" r="1.5"><animate attributeName="opacity" values="0;1;0" dur="2.1s" begin="0.3s" repeatCount="indefinite"/></circle>
  </g>
  <g fill="#E63946" opacity="0.6">
    <rect x="780" y="30" width="6" height="2"><animate attributeName="opacity" values="0.2;1;0.2" dur="1.4s" repeatCount="indefinite"/></rect>
    <rect x="800" y="30" width="6" height="2"><animate attributeName="opacity" values="0.2;1;0.2" dur="1.2s" begin="0.3s" repeatCount="indefinite"/></rect>
    <rect x="820" y="30" width="6" height="2"><animate attributeName="opacity" values="0.2;1;0.2" dur="1.6s" begin="0.6s" repeatCount="indefinite"/></rect>
  </g>
  <g fill="#FFB703">
    <circle cx="560" cy="260" r="1.2"><animate attributeName="opacity" values="0;1;0" dur="1.8s" repeatCount="indefinite"/></circle>
    <circle cx="580" cy="265" r="1.2"><animate attributeName="opacity" values="0;1;0" dur="1.6s" begin="0.2s" repeatCount="indefinite"/></circle>
    <circle cx="600" cy="268" r="1.2"><animate attributeName="opacity" values="0;1;0" dur="2.0s" begin="0.4s" repeatCount="indefinite"/></circle>
    <circle cx="620" cy="272" r="1.2"><animate attributeName="opacity" values="0;1;0" dur="1.7s" begin="0.6s" repeatCount="indefinite"/></circle>
    <circle cx="640" cy="268" r="1.2"><animate attributeName="opacity" values="0;1;0" dur="1.9s" begin="0.8s" repeatCount="indefinite"/></circle>
    <circle cx="560" cy="370" r="1.2"><animate attributeName="opacity" values="0;1;0" dur="1.8s" repeatCount="indefinite"/></circle>
    <circle cx="580" cy="375" r="1.2"><animate attributeName="opacity" values="0;1;0" dur="1.6s" begin="0.2s" repeatCount="indefinite"/></circle>
    <circle cx="600" cy="378" r="1.2"><animate attributeName="opacity" values="0;1;0" dur="2.0s" begin="0.4s" repeatCount="indefinite"/></circle>
  </g>
  <g fill="#4ADE80">
    <circle cx="260" cy="442" r="1.5"><animate attributeName="opacity" values="0;1;0" dur="1.5s" repeatCount="indefinite"/></circle>
    <circle cx="330" cy="442" r="1.5"><animate attributeName="opacity" values="0;1;0" dur="1.7s" begin="0.2s" repeatCount="indefinite"/></circle>
    <circle cx="400" cy="442" r="1.5"><animate attributeName="opacity" values="0;1;0" dur="1.9s" begin="0.4s" repeatCount="indefinite"/></circle>
    <circle cx="470" cy="442" r="1.5"><animate attributeName="opacity" values="0;1;0" dur="1.6s" begin="0.6s" repeatCount="indefinite"/></circle>
  </g>
  <g fill="#9FD3B0" opacity="0.9">
    <rect x="770" y="440" width="4" height="4" rx="1"><animate attributeName="opacity" values="0.3;1;0.3" dur="1.4s" repeatCount="indefinite"/></rect>
    <rect x="790" y="440" width="4" height="4" rx="1"><animate attributeName="opacity" values="0.3;1;0.3" dur="1.2s" begin="0.3s" repeatCount="indefinite"/></rect>
    <rect x="810" y="440" width="4" height="4" rx="1"><animate attributeName="opacity" values="0.3;1;0.3" dur="1.6s" begin="0.6s" repeatCount="indefinite"/></rect>
    <rect x="830" y="440" width="4" height="4" rx="1"><animate attributeName="opacity" values="0.3;1;0.3" dur="1.3s" begin="0.9s" repeatCount="indefinite"/></rect>
  </g>
  <g stroke="#E63946" stroke-width="0.5" stroke-opacity="0.35" fill="none">
    <path d="M20 95 L28 95"><animate attributeName="stroke-opacity" values="0;0.7;0" dur="2s" repeatCount="indefinite"/></path>
    <path d="M20 125 L28 125"><animate attributeName="stroke-opacity" values="0;0.7;0" dur="2.2s" begin="0.3s" repeatCount="indefinite"/></path>
  </g>
  <g stroke="#FFB703" stroke-width="0.5" stroke-opacity="0.35" fill="none">
    <path d="M20 305 L28 305"><animate attributeName="stroke-opacity" values="0;0.7;0" dur="2s" repeatCount="indefinite"/></path>
    <path d="M20 335 L28 335"><animate attributeName="stroke-opacity" values="0;0.7;0" dur="2.2s" begin="0.3s" repeatCount="indefinite"/></path>
  </g>
  <g stroke="#4ADE80" stroke-width="0.5" stroke-opacity="0.35" fill="none">
    <path d="M20 515 L28 515"><animate attributeName="stroke-opacity" values="0;0.7;0" dur="2s" repeatCount="indefinite"/></path>
    <path d="M20 545 L28 545"><animate attributeName="stroke-opacity" values="0;0.7;0" dur="2.2s" begin="0.3s" repeatCount="indefinite"/></path>
  </g>
</g>
<g transform="translate(1080,504)" filter="url(#softShadow)">
  <rect x="-8" y="-8" width="100" height="100" rx="6" fill="#FFFFFF"/>
  <path fill="#0A1020" d="M0.0 0.0h12.0v1.714h-12.0z M13.714 0.0h1.714v1.714h-1.714z M18.857 0.0h5.143v1.714h-5.143z M29.143 0.0h1.714v1.714h-1.714z M36.0 0.0h1.714v1.714h-1.714z M41.143 0.0h6.857v1.714h-6.857z M51.429 0.0h1.714v1.714h-1.714z M54.857 0.0h1.714v1.714h-1.714z M60.0 0.0h1.714v1.714h-1.714z M63.429 0.0h1.714v1.714h-1.714z M68.571 0.0h1.714v1.714h-1.714z M72.0 0.0h12.0v1.714h-12.0z M0.0 1.714h1.714v1.714h-1.714z M10.286 1.714h1.714v1.714h-1.714z M15.429 1.714h1.714v1.714h-1.714z M20.571 1.714h3.429v1.714h-3.429z M25.714 1.714h1.714v1.714h-1.714z M30.857 1.714h1.714v1.714h-1.714z M36.0 1.714h6.857v1.714h-6.857z M44.571 1.714h1.714v1.714h-1.714z M49.714 1.714h6.857v1.714h-6.857z M60.0 1.714h1.714v1.714h-1.714z M65.143 1.714h5.143v1.714h-5.143z M72.0 1.714h1.714v1.714h-1.714z M82.286 1.714h1.714v1.714h-1.714z M0.0 3.429h1.714v1.714h-1.714z M3.429 3.429h5.143v1.714h-5.143z M10.286 3.429h1.714v1.714h-1.714z M18.857 3.429h1.714v1.714h-1.714z M25.714 3.429h1.714v1.714h-1.714z M30.857 3.429h3.429v1.714h-3.429z M37.714 3.429h1.714v1.714h-1.714z M42.857 3.429h5.143v1.714h-5.143z M51.429 3.429h3.429v1.714h-3.429z M58.286 3.429h1.714v1.714h-1.714z M61.714 3.429h1.714v1.714h-1.714z M66.857 3.429h3.429v1.714h-3.429z M72.0 3.429h1.714v1.714h-1.714z M75.429 3.429h5.143v1.714h-5.143z M82.286 3.429h1.714v1.714h-1.714z M0.0 5.143h1.714v1.714h-1.714z M3.429 5.143h5.143v1.714h-5.143z M10.286 5.143h1.714v1.714h-1.714z M13.714 5.143h5.143v1.714h-5.143z M24.0 5.143h5.143v1.714h-5.143z M30.857 5.143h3.429v1.714h-3.429z M37.714 5.143h3.429v1.714h-3.429z M42.857 5.143h3.429v1.714h-3.429z M48.0 5.143h1.714v1.714h-1.714z M51.429 5.143h3.429v1.714h-3.429z M63.429 5.143h1.714v1.714h-1.714z M66.857 5.143h1.714v1.714h-1.714z M72.0 5.143h1.714v1.714h-1.714z M75.429 5.143h5.143v1.714h-5.143z M82.286 5.143h1.714v1.714h-1.714z M0.0 6.857h1.714v1.714h-1.714z M3.429 6.857h5.143v1.714h-5.143z M10.286 6.857h1.714v1.714h-1.714z M13.714 6.857h1.714v1.714h-1.714z M17.143 6.857h1.714v1.714h-1.714z M32.571 6.857h3.429v1.714h-3.429z M37.714 6.857h10.286v1.714h-10.286z M49.714 6.857h3.429v1.714h-3.429z M54.857 6.857h3.429v1.714h-3.429z M72.0 6.857h1.714v1.714h-1.714z M75.429 6.857h5.143v1.714h-5.143z M82.286 6.857h1.714v1.714h-1.714z M0.0 8.571h1.714v1.714h-1.714z M10.286 8.571h1.714v1.714h-1.714z M13.714 8.571h3.429v1.714h-3.429z M20.571 8.571h3.429v1.714h-3.429z M25.714 8.571h1.714v1.714h-1.714z M30.857 8.571h1.714v1.714h-1.714z M34.286 8.571h5.143v1.714h-5.143z M44.571 8.571h1.714v1.714h-1.714z M58.286 8.571h1.714v1.714h-1.714z M61.714 8.571h5.143v1.714h-5.143z M72.0 8.571h1.714v1.714h-1.714z M82.286 8.571h1.714v1.714h-1.714z M0.0 10.286h12.0v1.714h-12.0z M13.714 10.286h1.714v1.714h-1.714z M17.143 10.286h1.714v1.714h-1.714z M20.571 10.286h1.714v1.714h-1.714z M24.0 10.286h1.714v1.714h-1.714z M27.429 10.286h1.714v1.714h-1.714z M30.857 10.286h1.714v1.714h-1.714z M34.286 10.286h1.714v1.714h-1.714z M37.714 10.286h1.714v1.714h-1.714z M41.143 10.286h1.714v1.714h-1.714z M44.571 10.286h1.714v1.714h-1.714z M48.0 10.286h1.714v1.714h-1.714z M51.429 10.286h1.714v1.714h-1.714z M54.857 10.286h1.714v1.714h-1.714z M58.286 10.286h1.714v1.714h-1.714z M61.714 10.286h1.714v1.714h-1.714z M65.143 10.286h1.714v1.714h-1.714z M68.571 10.286h1.714v1.714h-1.714z M72.0 10.286h12.0v1.714h-12.0z M13.714 12.0h3.429v1.714h-3.429z M18.857 12.0h3.429v1.714h-3.429z M24.0 12.0h1.714v1.714h-1.714z M27.429 12.0h1.714v1.714h-1.714z M30.857 12.0h1.714v1.714h-1.714z M37.714 12.0h1.714v1.714h-1.714z M44.571 12.0h3.429v1.714h-3.429z M53.143 12.0h1.714v1.714h-1.714z M58.286 12.0h1.714v1.714h-1.714z M61.714 12.0h1.714v1.714h-1.714z M68.571 12.0h1.714v1.714h-1.714z M0.0 13.714h1.714v1.714h-1.714z M6.857 13.714h1.714v1.714h-1.714z M10.286 13.714h8.571v1.714h-8.571z M20.571 13.714h1.714v1.714h-1.714z M25.714 13.714h1.714v1.714h-1.714z M30.857 13.714h3.429v1.714h-3.429z M36.0 13.714h10.286v1.714h-10.286z M49.714 13.714h1.714v1.714h-1.714z M54.857 13.714h3.429v1.714h-3.429z M60.0 13.714h3.429v1.714h-3.429z M68.571 13.714h10.286v1.714h-10.286z M82.286 13.714h1.714v1.714h-1.714z M0.0 15.429h6.857v1.714h-6.857z M8.571 15.429h1.714v1.714h-1.714z M17.143 15.429h1.714v1.714h-1.714z M24.0 15.429h3.429v1.714h-3.429z M29.143 15.429h3.429v1.714h-3.429z M34.286 15.429h1.714v1.714h-1.714z M39.429 15.429h3.429v1.714h-3.429z M44.571 15.429h3.429v1.714h-3.429z M49.714 15.429h3.429v1.714h-3.429z M54.857 15.429h3.429v1.714h-3.429z M60.0 15.429h1.714v1.714h-1.714z M65.143 15.429h3.429v1.714h-3.429z M70.286 15.429h3.429v1.714h-3.429z M75.429 15.429h1.714v1.714h-1.714z M80.571 15.429h1.714v1.714h-1.714z M5.143 17.143h3.429v1.714h-3.429z M10.286 17.143h1.714v1.714h-1.714z M15.429 17.143h1.714v1.714h-1.714z M18.857 17.143h8.571v1.714h-8.571z M30.857 17.143h1.714v1.714h-1.714z M34.286 17.143h3.429v1.714h-3.429z M39.429 17.143h1.714v1.714h-1.714z M42.857 17.143h5.143v1.714h-5.143z M49.714 17.143h6.857v1.714h-6.857z M60.0 17.143h1.714v1.714h-1.714z M65.143 17.143h1.714v1.714h-1.714z M68.571 17.143h3.429v1.714h-3.429z M73.714 17.143h3.429v1.714h-3.429z M78.857 17.143h3.429v1.714h-3.429z M0.0 18.857h1.714v1.714h-1.714z M5.143 18.857h1.714v1.714h-1.714z M12.0 18.857h1.714v1.714h-1.714z M15.429 18.857h1.714v1.714h-1.714z M20.571 18.857h1.714v1.714h-1.714z M27.429 18.857h8.571v1.714h-8.571z M37.714 18.857h1.714v1.714h-1.714z M41.143 18.857h6.857v1.714h-6.857z M49.714 18.857h1.714v1.714h-1.714z M54.857 18.857h1.714v1.714h-1.714z M58.286 18.857h1.714v1.714h-1.714z M61.714 18.857h3.429v1.714h-3.429z M66.857 18.857h6.857v1.714h-6.857z M78.857 18.857h1.714v1.714h-1.714z M82.286 18.857h1.714v1.714h-1.714z M0.0 20.571h3.429v1.714h-3.429z M8.571 20.571h3.429v1.714h-3.429z M17.143 20.571h1.714v1.714h-1.714z M20.571 20.571h3.429v1.714h-3.429z M25.714 20.571h1.714v1.714h-1.714z M32.571 20.571h3.429v1.714h-3.429z M37.714 20.571h5.143v1.714h-5.143z M44.571 20.571h1.714v1.714h-1.714z M49.714 20.571h1.714v1.714h-1.714z M54.857 20.571h1.714v1.714h-1.714z M60.0 20.571h3.429v1.714h-3.429z M65.143 20.571h1.714v1.714h-1.714z M68.571 20.571h1.714v1.714h-1.714z M75.429 20.571h6.857v1.714h-6.857z M1.714 22.286h6.857v1.714h-6.857z M13.714 22.286h5.143v1.714h-5.143z M20.571 22.286h1.714v1.714h-1.714z M25.714 22.286h3.429v1.714h-3.429z M36.0 22.286h5.143v1.714h-5.143z M44.571 22.286h3.429v1.714h-3.429z M49.714 22.286h3.429v1.714h-3.429z M56.571 22.286h1.714v1.714h-1.714z M61.714 22.286h1.714v1.714h-1.714z M65.143 22.286h3.429v1.714h-3.429z M72.0 22.286h3.429v1.714h-3.429z M78.857 22.286h3.429v1.714h-3.429z M0.0 24.0h1.714v1.714h-1.714z M5.143 24.0h1.714v1.714h-1.714z M8.571 24.0h8.571v1.714h-8.571z M18.857 24.0h3.429v1.714h-3.429z M25.714 24.0h5.143v1.714h-5.143z M34.286 24.0h3.429v1.714h-3.429z M41.143 24.0h1.714v1.714h-1.714z M53.143 24.0h1.714v1.714h-1.714z M56.571 24.0h1.714v1.714h-1.714z M63.429 24.0h12.0v1.714h-12.0z M78.857 24.0h1.714v1.714h-1.714z M1.714 25.714h1.714v1.714h-1.714z M5.143 25.714h1.714v1.714h-1.714z M13.714 25.714h6.857v1.714h-6.857z M22.286 25.714h3.429v1.714h-3.429z M27.429 25.714h3.429v1.714h-3.429z M32.571 25.714h3.429v1.714h-3.429z M39.429 25.714h10.286v1.714h-10.286z M51.429 25.714h1.714v1.714h-1.714z M60.0 25.714h5.143v1.714h-5.143z M68.571 25.714h1.714v1.714h-1.714z M73.714 25.714h3.429v1.714h-3.429z M78.857 25.714h3.429v1.714h-3.429z M0.0 27.429h12.0v1.714h-12.0z M13.714 27.429h1.714v1.714h-1.714z M17.143 27.429h3.429v1.714h-3.429z M24.0 27.429h5.143v1.714h-5.143z M32.571 27.429h1.714v1.714h-1.714z M39.429 27.429h5.143v1.714h-5.143z M46.286 27.429h3.429v1.714h-3.429z M58.286 27.429h1.714v1.714h-1.714z M61.714 27.429h1.714v1.714h-1.714z M68.571 27.429h12.0v1.714h-12.0z M3.429 29.143h1.714v1.714h-1.714z M8.571 29.143h1.714v1.714h-1.714z M12.0 29.143h3.429v1.714h-3.429z M17.143 29.143h1.714v1.714h-1.714z M24.0 29.143h6.857v1.714h-6.857z M34.286 29.143h1.714v1.714h-1.714z M39.429 29.143h1.714v1.714h-1.714z M44.571 29.143h1.714v1.714h-1.714z M48.0 29.143h3.429v1.714h-3.429z M53.143 29.143h1.714v1.714h-1.714z M56.571 29.143h5.143v1.714h-5.143z M65.143 29.143h3.429v1.714h-3.429z M72.0 29.143h3.429v1.714h-3.429z M77.143 29.143h1.714v1.714h-1.714z M1.714 30.857h5.143v1.714h-5.143z M10.286 30.857h1.714v1.714h-1.714z M17.143 30.857h3.429v1.714h-3.429z M25.714 30.857h1.714v1.714h-1.714z M30.857 30.857h3.429v1.714h-3.429z M44.571 30.857h1.714v1.714h-1.714z M49.714 30.857h1.714v1.714h-1.714z M53.143 30.857h8.571v1.714h-8.571z M65.143 30.857h1.714v1.714h-1.714z M68.571 30.857h5.143v1.714h-5.143z M77.143 30.857h3.429v1.714h-3.429z M0.0 32.571h1.714v1.714h-1.714z M5.143 32.571h1.714v1.714h-1.714z M8.571 32.571h1.714v1.714h-1.714z M12.0 32.571h1.714v1.714h-1.714z M17.143 32.571h1.714v1.714h-1.714z M27.429 32.571h5.143v1.714h-5.143z M34.286 32.571h5.143v1.714h-5.143z M41.143 32.571h6.857v1.714h-6.857z M51.429 32.571h1.714v1.714h-1.714z M54.857 32.571h1.714v1.714h-1.714z M61.714 32.571h1.714v1.714h-1.714z M68.571 32.571h3.429v1.714h-3.429z M73.714 32.571h3.429v1.714h-3.429z M78.857 32.571h1.714v1.714h-1.714z M82.286 32.571h1.714v1.714h-1.714z M3.429 34.286h1.714v1.714h-1.714z M6.857 34.286h1.714v1.714h-1.714z M10.286 34.286h1.714v1.714h-1.714z M15.429 34.286h1.714v1.714h-1.714z M22.286 34.286h5.143v1.714h-5.143z M29.143 34.286h6.857v1.714h-6.857z M37.714 34.286h6.857v1.714h-6.857z M46.286 34.286h1.714v1.714h-1.714z M53.143 34.286h10.286v1.714h-10.286z M68.571 34.286h3.429v1.714h-3.429z M73.714 34.286h10.286v1.714h-10.286z M1.714 36.0h1.714v1.714h-1.714z M6.857 36.0h3.429v1.714h-3.429z M12.0 36.0h5.143v1.714h-5.143z M20.571 36.0h1.714v1.714h-1.714z M24.0 36.0h1.714v1.714h-1.714z M27.429 36.0h3.429v1.714h-3.429z M34.286 36.0h1.714v1.714h-1.714z M39.429 36.0h1.714v1.714h-1.714z M46.286 36.0h3.429v1.714h-3.429z M51.429 36.0h6.857v1.714h-6.857z M60.0 36.0h1.714v1.714h-1.714z M65.143 36.0h3.429v1.714h-3.429z M70.286 36.0h3.429v1.714h-3.429z M6.857 37.714h10.286v1.714h-10.286z M25.714 37.714h3.429v1.714h-3.429z M30.857 37.714h1.714v1.714h-1.714z M34.286 37.714h1.714v1.714h-1.714z M37.714 37.714h17.143v1.714h-17.143z M56.571 37.714h1.714v1.714h-1.714z M61.714 37.714h1.714v1.714h-1.714z M65.143 37.714h15.429v1.714h-15.429z M0.0 39.429h8.571v1.714h-8.571z M13.714 39.429h1.714v1.714h-1.714z M17.143 39.429h1.714v1.714h-1.714z M20.571 39.429h1.714v1.714h-1.714z M24.0 39.429h1.714v1.714h-1.714z M27.429 39.429h6.857v1.714h-6.857z M37.714 39.429h1.714v1.714h-1.714z M44.571 39.429h1.714v1.714h-1.714z M54.857 39.429h8.571v1.714h-8.571z M65.143 39.429h5.143v1.714h-5.143z M75.429 39.429h5.143v1.714h-5.143z M82.286 39.429h1.714v1.714h-1.714z M6.857 41.143h1.714v1.714h-1.714z M10.286 41.143h1.714v1.714h-1.714z M13.714 41.143h1.714v1.714h-1.714z M17.143 41.143h1.714v1.714h-1.714z M20.571 41.143h1.714v1.714h-1.714z M24.0 41.143h3.429v1.714h-3.429z M29.143 41.143h3.429v1.714h-3.429z M37.714 41.143h1.714v1.714h-1.714z M41.143 41.143h1.714v1.714h-1.714z M44.571 41.143h3.429v1.714h-3.429z M49.714 41.143h6.857v1.714h-6.857z M58.286 41.143h12.0v1.714h-12.0z M72.0 41.143h1.714v1.714h-1.714z M75.429 41.143h8.571v1.714h-8.571z M6.857 42.857h1.714v1.714h-1.714z M13.714 42.857h1.714v1.714h-1.714z M17.143 42.857h3.429v1.714h-3.429z M22.286 42.857h8.571v1.714h-8.571z M32.571 42.857h6.857v1.714h-6.857z M44.571 42.857h1.714v1.714h-1.714z M49.714 42.857h3.429v1.714h-3.429z M54.857 42.857h3.429v1.714h-3.429z M60.0 42.857h6.857v1.714h-6.857z M68.571 42.857h1.714v1.714h-1.714z M75.429 42.857h1.714v1.714h-1.714z M1.714 44.571h1.714v1.714h-1.714z M6.857 44.571h8.571v1.714h-8.571z M18.857 44.571h8.571v1.714h-8.571z M29.143 44.571h1.714v1.714h-1.714z M37.714 44.571h8.571v1.714h-8.571z M49.714 44.571h3.429v1.714h-3.429z M54.857 44.571h3.429v1.714h-3.429z M65.143 44.571h13.714v1.714h-13.714z M80.571 44.571h1.714v1.714h-1.714z M1.714 46.286h5.143v1.714h-5.143z M8.571 46.286h1.714v1.714h-1.714z M13.714 46.286h1.714v1.714h-1.714z M17.143 46.286h1.714v1.714h-1.714z M20.571 46.286h3.429v1.714h-3.429z M29.143 46.286h1.714v1.714h-1.714z M39.429 46.286h1.714v1.714h-1.714z M46.286 46.286h1.714v1.714h-1.714z M49.714 46.286h1.714v1.714h-1.714z M54.857 46.286h3.429v1.714h-3.429z M61.714 46.286h1.714v1.714h-1.714z M66.857 46.286h1.714v1.714h-1.714z M70.286 46.286h3.429v1.714h-3.429z M78.857 46.286h5.143v1.714h-5.143z M1.714 48.0h1.714v1.714h-1.714z M8.571 48.0h5.143v1.714h-5.143z M15.429 48.0h5.143v1.714h-5.143z M22.286 48.0h3.429v1.714h-3.429z M29.143 48.0h1.714v1.714h-1.714z M34.286 48.0h1.714v1.714h-1.714z M37.714 48.0h1.714v1.714h-1.714z M41.143 48.0h6.857v1.714h-6.857z M49.714 48.0h1.714v1.714h-1.714z M54.857 48.0h3.429v1.714h-3.429z M60.0 48.0h5.143v1.714h-5.143z M68.571 48.0h1.714v1.714h-1.714z M72.0 48.0h3.429v1.714h-3.429z M78.857 48.0h5.143v1.714h-5.143z M0.0 49.714h5.143v1.714h-5.143z M13.714 49.714h3.429v1.714h-3.429z M18.857 49.714h3.429v1.714h-3.429z M24.0 49.714h1.714v1.714h-1.714z M27.429 49.714h1.714v1.714h-1.714z M30.857 49.714h5.143v1.714h-5.143z M37.714 49.714h3.429v1.714h-3.429z M42.857 49.714h10.286v1.714h-10.286z M54.857 49.714h3.429v1.714h-3.429z M63.429 49.714h3.429v1.714h-3.429z M68.571 49.714h8.571v1.714h-8.571z M0.0 51.429h3.429v1.714h-3.429z M5.143 51.429h1.714v1.714h-1.714z M10.286 51.429h1.714v1.714h-1.714z M17.143 51.429h1.714v1.714h-1.714z M24.0 51.429h1.714v1.714h-1.714z M27.429 51.429h6.857v1.714h-6.857z M37.714 51.429h6.857v1.714h-6.857z M49.714 51.429h1.714v1.714h-1.714z M56.571 51.429h1.714v1.714h-1.714z M60.0 51.429h1.714v1.714h-1.714z M65.143 51.429h1.714v1.714h-1.714z M75.429 51.429h5.143v1.714h-5.143z M0.0 53.143h1.714v1.714h-1.714z M5.143 53.143h1.714v1.714h-1.714z M15.429 53.143h1.714v1.714h-1.714z M20.571 53.143h1.714v1.714h-1.714z M27.429 53.143h1.714v1.714h-1.714z M36.0 53.143h3.429v1.714h-3.429z M41.143 53.143h1.714v1.714h-1.714z M44.571 53.143h1.714v1.714h-1.714z M48.0 53.143h3.429v1.714h-3.429z M53.143 53.143h1.714v1.714h-1.714z M56.571 53.143h3.429v1.714h-3.429z M61.714 53.143h3.429v1.714h-3.429z M70.286 53.143h1.714v1.714h-1.714z M78.857 53.143h5.143v1.714h-5.143z M0.0 54.857h1.714v1.714h-1.714z M3.429 54.857h10.286v1.714h-10.286z M15.429 54.857h3.429v1.714h-3.429z M22.286 54.857h3.429v1.714h-3.429z M27.429 54.857h1.714v1.714h-1.714z M30.857 54.857h1.714v1.714h-1.714z M44.571 54.857h1.714v1.714h-1.714z M49.714 54.857h8.571v1.714h-8.571z M60.0 54.857h3.429v1.714h-3.429z M65.143 54.857h1.714v1.714h-1.714z M70.286 54.857h1.714v1.714h-1.714z M78.857 54.857h1.714v1.714h-1.714z M82.286 54.857h1.714v1.714h-1.714z M5.143 56.571h5.143v1.714h-5.143z M12.0 56.571h1.714v1.714h-1.714z M15.429 56.571h12.0v1.714h-12.0z M29.143 56.571h3.429v1.714h-3.429z M34.286 56.571h1.714v1.714h-1.714z M37.714 56.571h10.286v1.714h-10.286z M51.429 56.571h1.714v1.714h-1.714z M54.857 56.571h1.714v1.714h-1.714z M61.714 56.571h1.714v1.714h-1.714z M65.143 56.571h6.857v1.714h-6.857z M75.429 56.571h3.429v1.714h-3.429z M80.571 56.571h3.429v1.714h-3.429z M0.0 58.286h6.857v1.714h-6.857z M10.286 58.286h1.714v1.714h-1.714z M18.857 58.286h1.714v1.714h-1.714z M24.0 58.286h1.714v1.714h-1.714z M27.429 58.286h3.429v1.714h-3.429z M36.0 58.286h3.429v1.714h-3.429z M41.143 58.286h3.429v1.714h-3.429z M46.286 58.286h3.429v1.714h-3.429z M58.286 58.286h1.714v1.714h-1.714z M65.143 58.286h1.714v1.714h-1.714z M68.571 58.286h3.429v1.714h-3.429z M73.714 58.286h1.714v1.714h-1.714z M77.143 58.286h3.429v1.714h-3.429z M3.429 60.0h3.429v1.714h-3.429z M12.0 60.0h1.714v1.714h-1.714z M15.429 60.0h3.429v1.714h-3.429z M20.571 60.0h10.286v1.714h-10.286z M32.571 60.0h1.714v1.714h-1.714z M44.571 60.0h1.714v1.714h-1.714z M48.0 60.0h1.714v1.714h-1.714z M51.429 60.0h5.143v1.714h-5.143z M58.286 60.0h5.143v1.714h-5.143z M65.143 60.0h1.714v1.714h-1.714z M70.286 60.0h6.857v1.714h-6.857z M78.857 60.0h1.714v1.714h-1.714z M82.286 60.0h1.714v1.714h-1.714z M0.0 61.714h6.857v1.714h-6.857z M8.571 61.714h3.429v1.714h-3.429z M17.143 61.714h3.429v1.714h-3.429z M27.429 61.714h3.429v1.714h-3.429z M34.286 61.714h5.143v1.714h-5.143z M44.571 61.714h3.429v1.714h-3.429z M54.857 61.714h1.714v1.714h-1.714z M60.0 61.714h6.857v1.714h-6.857z M70.286 61.714h1.714v1.714h-1.714z M77.143 61.714h5.143v1.714h-5.143z M0.0 63.429h3.429v1.714h-3.429z M5.143 63.429h1.714v1.714h-1.714z M8.571 63.429h1.714v1.714h-1.714z M15.429 63.429h1.714v1.714h-1.714z M18.857 63.429h1.714v1.714h-1.714z M25.714 63.429h1.714v1.714h-1.714z M34.286 63.429h1.714v1.714h-1.714z M37.714 63.429h10.286v1.714h-10.286z M49.714 63.429h3.429v1.714h-3.429z M54.857 63.429h3.429v1.714h-3.429z M63.429 63.429h3.429v1.714h-3.429z M68.571 63.429h3.429v1.714h-3.429z M73.714 63.429h3.429v1.714h-3.429z M80.571 63.429h1.714v1.714h-1.714z M1.714 65.143h1.714v1.714h-1.714z M8.571 65.143h6.857v1.714h-6.857z M17.143 65.143h1.714v1.714h-1.714z M24.0 65.143h1.714v1.714h-1.714z M29.143 65.143h1.714v1.714h-1.714z M32.571 65.143h1.714v1.714h-1.714z M37.714 65.143h1.714v1.714h-1.714z M42.857 65.143h1.714v1.714h-1.714z M49.714 65.143h5.143v1.714h-5.143z M65.143 65.143h3.429v1.714h-3.429z M73.714 65.143h3.429v1.714h-3.429z M78.857 65.143h1.714v1.714h-1.714z M1.714 66.857h5.143v1.714h-5.143z M12.0 66.857h6.857v1.714h-6.857z M24.0 66.857h3.429v1.714h-3.429z M29.143 66.857h1.714v1.714h-1.714z M32.571 66.857h5.143v1.714h-5.143z M39.429 66.857h8.571v1.714h-8.571z M53.143 66.857h5.143v1.714h-5.143z M60.0 66.857h6.857v1.714h-6.857z M73.714 66.857h6.857v1.714h-6.857z M0.0 68.571h5.143v1.714h-5.143z M10.286 68.571h5.143v1.714h-5.143z M20.571 68.571h1.714v1.714h-1.714z M24.0 68.571h1.714v1.714h-1.714z M27.429 68.571h3.429v1.714h-3.429z M36.0 68.571h12.0v1.714h-12.0z M49.714 68.571h3.429v1.714h-3.429z M54.857 68.571h3.429v1.714h-3.429z M60.0 68.571h3.429v1.714h-3.429z M65.143 68.571h1.714v1.714h-1.714z M68.571 68.571h8.571v1.714h-8.571z M78.857 68.571h3.429v1.714h-3.429z M13.714 70.286h3.429v1.714h-3.429z M18.857 70.286h1.714v1.714h-1.714z M24.0 70.286h6.857v1.714h-6.857z M32.571 70.286h3.429v1.714h-3.429z M37.714 70.286h1.714v1.714h-1.714z M44.571 70.286h13.714v1.714h-13.714z M60.0 70.286h1.714v1.714h-1.714z M65.143 70.286h5.143v1.714h-5.143z M75.429 70.286h3.429v1.714h-3.429z M80.571 70.286h1.714v1.714h-1.714z M0.0 72.0h12.0v1.714h-12.0z M13.714 72.0h1.714v1.714h-1.714z M17.143 72.0h3.429v1.714h-3.429z M27.429 72.0h1.714v1.714h-1.714z M30.857 72.0h1.714v1.714h-1.714z M34.286 72.0h5.143v1.714h-5.143z M41.143 72.0h1.714v1.714h-1.714z M44.571 72.0h3.429v1.714h-3.429z M49.714 72.0h5.143v1.714h-5.143z M60.0 72.0h1.714v1.714h-1.714z M63.429 72.0h1.714v1.714h-1.714z M68.571 72.0h1.714v1.714h-1.714z M72.0 72.0h1.714v1.714h-1.714z M75.429 72.0h1.714v1.714h-1.714z M78.857 72.0h3.429v1.714h-3.429z M0.0 73.714h1.714v1.714h-1.714z M10.286 73.714h1.714v1.714h-1.714z M17.143 73.714h1.714v1.714h-1.714z M22.286 73.714h1.714v1.714h-1.714z M29.143 73.714h1.714v1.714h-1.714z M36.0 73.714h3.429v1.714h-3.429z M44.571 73.714h3.429v1.714h-3.429z M51.429 73.714h1.714v1.714h-1.714z M54.857 73.714h1.714v1.714h-1.714z M61.714 73.714h5.143v1.714h-5.143z M68.571 73.714h1.714v1.714h-1.714z M75.429 73.714h8.571v1.714h-8.571z M0.0 75.429h1.714v1.714h-1.714z M3.429 75.429h5.143v1.714h-5.143z M10.286 75.429h1.714v1.714h-1.714z M13.714 75.429h1.714v1.714h-1.714z M17.143 75.429h1.714v1.714h-1.714z M20.571 75.429h1.714v1.714h-1.714z M25.714 75.429h3.429v1.714h-3.429z M32.571 75.429h3.429v1.714h-3.429z M37.714 75.429h10.286v1.714h-10.286z M49.714 75.429h1.714v1.714h-1.714z M54.857 75.429h1.714v1.714h-1.714z M58.286 75.429h1.714v1.714h-1.714z M61.714 75.429h1.714v1.714h-1.714z M65.143 75.429h12.0v1.714h-12.0z M78.857 75.429h1.714v1.714h-1.714z M82.286 75.429h1.714v1.714h-1.714z M0.0 77.143h1.714v1.714h-1.714z M3.429 77.143h5.143v1.714h-5.143z M10.286 77.143h1.714v1.714h-1.714z M17.143 77.143h3.429v1.714h-3.429z M22.286 77.143h10.286v1.714h-10.286z M37.714 77.143h3.429v1.714h-3.429z M42.857 77.143h6.857v1.714h-6.857z M51.429 77.143h3.429v1.714h-3.429z M56.571 77.143h1.714v1.714h-1.714z M65.143 77.143h1.714v1.714h-1.714z M68.571 77.143h5.143v1.714h-5.143z M77.143 77.143h1.714v1.714h-1.714z M82.286 77.143h1.714v1.714h-1.714z M0.0 78.857h1.714v1.714h-1.714z M3.429 78.857h5.143v1.714h-5.143z M10.286 78.857h1.714v1.714h-1.714z M15.429 78.857h1.714v1.714h-1.714z M20.571 78.857h1.714v1.714h-1.714z M24.0 78.857h8.571v1.714h-8.571z M34.286 78.857h1.714v1.714h-1.714z M42.857 78.857h1.714v1.714h-1.714z M46.286 78.857h6.857v1.714h-6.857z M56.571 78.857h1.714v1.714h-1.714z M61.714 78.857h1.714v1.714h-1.714z M66.857 78.857h3.429v1.714h-3.429z M73.714 78.857h1.714v1.714h-1.714z M78.857 78.857h5.143v1.714h-5.143z M0.0 80.571h1.714v1.714h-1.714z M10.286 80.571h1.714v1.714h-1.714z M18.857 80.571h3.429v1.714h-3.429z M27.429 80.571h3.429v1.714h-3.429z M32.571 80.571h3.429v1.714h-3.429z M37.714 80.571h1.714v1.714h-1.714z M41.143 80.571h1.714v1.714h-1.714z M46.286 80.571h3.429v1.714h-3.429z M51.429 80.571h1.714v1.714h-1.714z M61.714 80.571h5.143v1.714h-5.143z M68.571 80.571h1.714v1.714h-1.714z M78.857 80.571h3.429v1.714h-3.429z M0.0 82.286h12.0v1.714h-12.0z M13.714 82.286h1.714v1.714h-1.714z M20.571 82.286h3.429v1.714h-3.429z M25.714 82.286h1.714v1.714h-1.714z M30.857 82.286h6.857v1.714h-6.857z M39.429 82.286h1.714v1.714h-1.714z M44.571 82.286h5.143v1.714h-5.143z M58.286 82.286h6.857v1.714h-6.857z M68.571 82.286h1.714v1.714h-1.714z M73.714 82.286h10.286v1.714h-10.286z"/>
</g>
<text x="1122" y="614" font-family="Inter, Helvetica, Arial, sans-serif" font-size="10" font-weight="700" fill="#F5F7FA" text-anchor="middle">scan / full post</text>
</svg>