<?xml version="1.0" encoding="UTF-8"?>
<svg xmlns="http://www.w3.org/2000/svg" viewBox="0 0 1200 630" width="1200" height="630">
  <title>n8n-sandbox-escape-attack-flow</title>
  <defs>
    <linearGradient id="bg" x1="0%" y1="0%" x2="100%" y2="100%">
      <stop offset="0%" style="stop-color:#1a0f0a" />
      <stop offset="100%" style="stop-color:#2d1a10" />
    </linearGradient>
    <linearGradient id="accent" x1="0%" y1="0%" x2="100%" y2="0%">
      <stop offset="0%" style="stop-color:#d35400" />
      <stop offset="100%" style="stop-color:#e74c3c" />
    </linearGradient>
    <marker id="arrowesc" markerWidth="8" markerHeight="8" refX="6" refY="3" orient="auto">
      <path d="M 0 0 L 6 3 L 0 6 Z" fill="#e74c3c" />
    </marker>
  </defs>
  <rect width="1200" height="630" fill="url(#bg)" />
  <line x1="0" y1="105" x2="1200" y2="105" stroke="rgba(255,255,255,0.04)" stroke-width="1" />
  <line x1="0" y1="210" x2="1200" y2="210" stroke="rgba(255,255,255,0.04)" stroke-width="1" />
  <line x1="0" y1="315" x2="1200" y2="315" stroke="rgba(255,255,255,0.04)" stroke-width="1" />
  <line x1="0" y1="420" x2="1200" y2="420" stroke="rgba(255,255,255,0.04)" stroke-width="1" />
  <line x1="240" y1="0" x2="240" y2="630" stroke="rgba(255,255,255,0.03)" stroke-width="1" />
  <line x1="480" y1="0" x2="480" y2="630" stroke="rgba(255,255,255,0.03)" stroke-width="1" />
  <line x1="720" y1="0" x2="720" y2="630" stroke="rgba(255,255,255,0.03)" stroke-width="1" />
  <line x1="960" y1="0" x2="960" y2="630" stroke="rgba(255,255,255,0.03)" stroke-width="1" />
  <circle cx="1050" cy="450" r="200" fill="rgba(255,255,255,0.02)" />
  <circle cx="1050" cy="450" r="140" fill="rgba(255,255,255,0.02)" />
  
  <rect x="770" y="148" width="218" height="175" rx="8" fill="rgba(211,84,0,0.06)" stroke="#d35400" stroke-width="2" stroke-dasharray="9,5" />
  <rect x="820" y="178" width="118" height="45" rx="5" fill="rgba(211,84,0,0.18)" stroke="#d35400" stroke-width="1.5" />
  <rect x="800" y="240" width="158" height="28" rx="4" fill="rgba(0,0,0,0.3)" />
  <line x1="988" y1="175" x2="1010" y2="163" stroke="#e74c3c" stroke-width="2.5" />
  <line x1="1010" y1="163" x2="1004" y2="192" stroke="#e74c3c" stroke-width="2.5" />
  <line x1="1004" y1="192" x2="1025" y2="180" stroke="#e74c3c" stroke-width="2.5" />
  <line x1="1025" y1="180" x2="1018" y2="210" stroke="#e74c3c" stroke-width="2.5" />
  
  <path d="M 988 230 Q 1028 230 1055 265" fill="none" stroke="#e74c3c" stroke-width="3" marker-end="url(#arrowesc)" />
  
  <rect x="1040" y="270" width="130" height="52" rx="7" fill="rgba(231,76,60,0.18)" stroke="#e74c3c" stroke-width="2" />
  <rect x="770" y="368" width="310" height="60" rx="5" fill="rgba(0,0,0,0.45)" stroke="rgba(211,84,0,0.3)" stroke-width="1" />
  <rect x="0" y="0" width="6" height="630" fill="url(#accent)" />
  
  <rect x="80" y="60" width="240" height="32" rx="6" fill="rgba(211,84,0,0.25)" stroke="rgba(211,84,0,0.4)" stroke-width="1" />
  <text x="200" y="81" font-size="13" fill="rgba(255,255,255,0.85)" font-family="sans-serif" text-anchor="middle" letter-spacing="1">JANUARY 29, 2026</text>
  
  <text x="80" y="185" font-size="46" font-weight="700" fill="white" font-family="sans-serif">n8n Sandbox Escape</text>
  <text x="80" y="245" font-size="46" font-weight="700" fill="white" font-family="sans-serif">Attack Flow</text>
  
  <text x="80" y="300" font-size="19" fill="rgba(255,255,255,0.65)" font-family="sans-serif">How attackers escape n8n VM sandbox to achieve remote code execution</text>
  
  <rect x="80" y="325" width="420" height="3" fill="url(#accent)" rx="2" />
  
  <text x="80" y="370" font-size="14" fill="rgba(255,255,255,0.5)" font-family="sans-serif" letter-spacing="2">RCE ANALYSIS</text>
  
  <rect x="80" y="402" width="100" height="36" rx="18" fill="rgba(211,84,0,0.25)" stroke="rgba(211,84,0,0.5)" stroke-width="1" />
  <text x="130" y="425" font-size="13" fill="rgba(255,255,255,0.85)" font-family="sans-serif" text-anchor="middle">n8n RCE</text>
  <rect x="196" y="402" width="140" height="36" rx="18" fill="rgba(231,76,60,0.2)" stroke="rgba(231,76,60,0.45)" stroke-width="1" />
  <text x="266" y="425" font-size="13" fill="rgba(255,255,255,0.85)" font-family="sans-serif" text-anchor="middle">Sandbox Escape</text>
  <rect x="352" y="402" width="110" height="36" rx="18" fill="rgba(211,84,0,0.2)" stroke="rgba(211,84,0,0.4)" stroke-width="1" />
  <text x="407" y="425" font-size="13" fill="rgba(255,255,255,0.85)" font-family="sans-serif" text-anchor="middle">Attack Flow</text>
  
  <rect x="0" y="520" width="1200" height="110" fill="rgba(0,0,0,0.3)" />
  <text x="80" y="545" font-size="15" fill="rgba(255,255,255,0.5)" font-family="sans-serif">tech.2twodragon.com</text>
  <text x="1120" y="545" font-size="13" fill="rgba(255,255,255,0.4)" font-family="sans-serif" text-anchor="end">DevSecOps</text>
</svg>