<svg xmlns="http://www.w3.org/2000/svg" viewBox="0 0 1200 630" fill="none">
  <defs>
    <linearGradient id="bg" x1="0" y1="0" x2="1200" y2="630">
      <stop offset="0%" stop-color="#0f172a"/><stop offset="50%" stop-color="#1e293b"/><stop offset="100%" stop-color="#0f172a"/>
    </linearGradient>
    <linearGradient id="accent" x1="0" y1="0" x2="1" y2="1">
      <stop offset="0%" stop-color="#10b981"/><stop offset="100%" stop-color="#059669"/>
    </linearGradient>
  </defs>
  <rect width="1200" height="630" fill="url(#bg)"/>
  <g opacity="0.05" stroke="#94a3b8" stroke-width="1">
    <line x1="0" y1="100" x2="1200" y2="100"/><line x1="0" y1="200" x2="1200" y2="200"/>
    <line x1="0" y1="300" x2="1200" y2="300"/><line x1="0" y1="400" x2="1200" y2="400"/>
    <line x1="0" y1="500" x2="1200" y2="500"/><line x1="200" y1="0" x2="200" y2="630"/>
    <line x1="400" y1="0" x2="400" y2="630"/><line x1="600" y1="0" x2="600" y2="630"/>
    <line x1="800" y1="0" x2="800" y2="630"/><line x1="1000" y1="0" x2="1000" y2="630"/>
  </g>
  <!-- Backup icon - database with shield -->
  <g transform="translate(80, 180)">
    <rect x="0" y="0" width="120" height="120" rx="20" fill="url(#accent)" opacity="0.9"/>
    <ellipse cx="60" cy="35" rx="30" ry="12" fill="none" stroke="white" stroke-width="2.5"/>
    <path d="M30 35 L30 75 Q30 87 60 87 Q90 87 90 75 L90 35" fill="none" stroke="white" stroke-width="2.5"/>
    <ellipse cx="60" cy="55" rx="30" ry="8" fill="none" stroke="white" stroke-width="1.5" opacity="0.5"/>
    <text x="60" y="108" text-anchor="middle" fill="white" font-family="Arial, sans-serif" font-size="14" font-weight="bold">3-2-1</text>
  </g>
  <!-- Strategy numbers -->
  <g transform="translate(80, 370)">
    <circle cx="20" cy="15" r="18" fill="#059669" stroke="#34d399" stroke-width="2"/>
    <text x="20" y="21" text-anchor="middle" fill="white" font-family="Arial, sans-serif" font-size="16" font-weight="bold">3</text>
    <text x="48" y="20" fill="#34d399" font-family="Arial, sans-serif" font-size="12">copies of data</text>
    <circle cx="20" cy="55" r="18" fill="#0369a1" stroke="#38bdf8" stroke-width="2"/>
    <text x="20" y="61" text-anchor="middle" fill="white" font-family="Arial, sans-serif" font-size="16" font-weight="bold">2</text>
    <text x="48" y="60" fill="#38bdf8" font-family="Arial, sans-serif" font-size="12">storage types</text>
    <circle cx="20" cy="95" r="18" fill="#7c2d12" stroke="#fb923c" stroke-width="2"/>
    <text x="20" y="101" text-anchor="middle" fill="white" font-family="Arial, sans-serif" font-size="16" font-weight="bold">1</text>
    <text x="48" y="100" fill="#fb923c" font-family="Arial, sans-serif" font-size="12">offsite backup</text>
    <circle cx="20" cy="135" r="18" fill="#581c87" stroke="#a855f7" stroke-width="2"/>
    <text x="20" y="141" text-anchor="middle" fill="white" font-family="Arial, sans-serif" font-size="14" font-weight="bold">10</text>
    <text x="48" y="140" fill="#a855f7" font-family="Arial, sans-serif" font-size="12">min recovery</text>
  </g>
  <g transform="translate(260, 100)">
    <text x="0" y="0" fill="#f8fafc" font-family="Arial, sans-serif" font-size="18" font-weight="bold" letter-spacing="4">DATA PROTECTION</text>
    <text x="0" y="60" fill="#f8fafc" font-family="Arial, sans-serif" font-size="42" font-weight="bold">3-2-1 Backup Strategy</text>
    <text x="0" y="110" fill="#94a3b8" font-family="Arial, sans-serif" font-size="36" font-weight="300">Modern Data Resilience</text>
  </g>
  <rect x="260" y="240" width="200" height="36" rx="18" fill="url(#accent)" opacity="0.9"/>
  <text x="360" y="264" text-anchor="middle" fill="white" font-family="Arial, sans-serif" font-size="16" font-weight="bold">January 22, 2026</text>
  <g transform="translate(260, 310)">
    <rect x="0" y="0" width="200" height="90" rx="8" fill="#1e293b" stroke="#334155" stroke-width="1"/>
    <text x="20" y="30" fill="#34d399" font-family="Arial, sans-serif" font-size="12" font-weight="bold">RECOVERY TIME</text>
    <text x="20" y="65" fill="#f8fafc" font-family="Arial, sans-serif" font-size="32" font-weight="bold">10m</text>
    <text x="85" y="65" fill="#64748b" font-family="Arial, sans-serif" font-size="14">target RTO</text>
    <rect x="220" y="0" width="200" height="90" rx="8" fill="#1e293b" stroke="#334155" stroke-width="1"/>
    <text x="240" y="30" fill="#38bdf8" font-family="Arial, sans-serif" font-size="12" font-weight="bold">DATA LOSS</text>
    <text x="240" y="65" fill="#f8fafc" font-family="Arial, sans-serif" font-size="32" font-weight="bold">0</text>
    <text x="270" y="65" fill="#64748b" font-family="Arial, sans-serif" font-size="14">target RPO</text>
    <rect x="440" y="0" width="200" height="90" rx="8" fill="#1e293b" stroke="#334155" stroke-width="1"/>
    <text x="460" y="30" fill="#a855f7" font-family="Arial, sans-serif" font-size="12" font-weight="bold">AVAILABILITY</text>
    <text x="460" y="65" fill="#f8fafc" font-family="Arial, sans-serif" font-size="32" font-weight="bold">99.99%</text>
    <text x="590" y="65" fill="#64748b" font-family="Arial, sans-serif" font-size="14">uptime</text>
  </g>
  <g transform="translate(260, 440)">
    <rect x="0" y="0" width="130" height="32" rx="16" fill="#064e3b" opacity="0.7"/>
    <text x="65" y="21" text-anchor="middle" fill="#6ee7b7" font-family="Arial, sans-serif" font-size="13">Backup</text>
    <rect x="145" y="0" width="150" height="32" rx="16" fill="#0c4a6e" opacity="0.7"/>
    <text x="220" y="21" text-anchor="middle" fill="#7dd3fc" font-family="Arial, sans-serif" font-size="13">Disaster Recovery</text>
    <rect x="310" y="0" width="130" height="32" rx="16" fill="#581c87" opacity="0.7"/>
    <text x="375" y="21" text-anchor="middle" fill="#c4b5fd" font-family="Arial, sans-serif" font-size="13">Resilience</text>
    <rect x="455" y="0" width="130" height="32" rx="16" fill="#7c2d12" opacity="0.7"/>
    <text x="520" y="21" text-anchor="middle" fill="#fdba74" font-family="Arial, sans-serif" font-size="13">Cloud</text>
  </g>
  <g transform="translate(900, 180)" opacity="0.4">
    <circle cx="50" cy="50" r="6" fill="#34d399"/><circle cx="120" cy="30" r="4" fill="#38bdf8"/>
    <circle cx="150" cy="90" r="5" fill="#a855f7"/><circle cx="80" cy="120" r="4" fill="#fb923c"/>
    <circle cx="200" cy="60" r="3" fill="#34d399"/><circle cx="30" cy="150" r="5" fill="#38bdf8"/>
    <circle cx="180" cy="140" r="4" fill="#a855f7"/>
    <line x1="50" y1="50" x2="120" y2="30" stroke="#475569" stroke-width="1"/>
    <line x1="50" y1="50" x2="80" y2="120" stroke="#475569" stroke-width="1"/>
    <line x1="120" y1="30" x2="150" y2="90" stroke="#475569" stroke-width="1"/>
    <line x1="150" y1="90" x2="200" y2="60" stroke="#475569" stroke-width="1"/>
    <line x1="80" y1="120" x2="30" y2="150" stroke="#475569" stroke-width="1"/>
    <line x1="150" y1="90" x2="180" y2="140" stroke="#475569" stroke-width="1"/>
  </g>
  <rect x="0" y="510" width="1200" height="120" fill="#0f172a" opacity="0.8"/>
  <rect x="0" y="510" width="1200" height="2" fill="url(#accent)" opacity="0.5"/>
  <text x="80" y="560" fill="#94a3b8" font-family="Arial, sans-serif" font-size="16">tech.2twodragon.com</text>
  <text x="80" y="590" fill="#64748b" font-family="Arial, sans-serif" font-size="13">Data Protection and Backup Strategy Guide</text>
  <text x="1120" y="560" text-anchor="end" fill="#64748b" font-family="Arial, sans-serif" font-size="14">3-2-1 Rule Extended</text>
  <text x="1120" y="590" text-anchor="end" fill="#64748b" font-family="Arial, sans-serif" font-size="13">Backup | DR | Resilience | Cloud</text>
</svg>