<svg xmlns="http://www.w3.org/2000/svg" width="1200" height="630" viewBox="0 0 1200 630">
  <title>Security Weekly Digest - February 18, 2026</title>
  <defs>
    <linearGradient id="bg" x1="0%" y1="0%" x2="100%" y2="100%">
      <stop offset="0%" stop-color="#0a0e1a"/>
      <stop offset="60%" stop-color="#0f1628"/>
      <stop offset="100%" stop-color="#141b2d"/>
    </linearGradient>
    <linearGradient id="hg" x1="0%" y1="0%" x2="100%" y2="0%">
      <stop offset="0%" stop-color="#1e293b"/>
      <stop offset="100%" stop-color="#0f172a"/>
    </linearGradient>
    <filter id="glow" x="-50%" y="-50%" width="200%" height="200%">
      <feGaussianBlur stdDeviation="18"/>
    </filter>
    <marker id="ar" markerWidth="8" markerHeight="8" refX="4" refY="4" orient="auto">
      <path d="M0,0 L8,4 L0,8 Z" fill="#ef4444" opacity="0.7"/>
    </marker>
  </defs>

  <rect width="1200" height="630" fill="url(#bg)"/>

  <!-- Grid -->
  <g opacity="0.04" stroke="#94a3b8" stroke-width="0.5">
    <line x1="0" y1="105" x2="1200" y2="105"/><line x1="0" y1="210" x2="1200" y2="210"/>
    <line x1="0" y1="315" x2="1200" y2="315"/><line x1="0" y1="420" x2="1200" y2="420"/>
    <line x1="0" y1="525" x2="1200" y2="525"/>
    <line x1="240" y1="0" x2="240" y2="630"/><line x1="480" y1="0" x2="480" y2="630"/>
    <line x1="720" y1="0" x2="720" y2="630"/><line x1="960" y1="0" x2="960" y2="630"/>
  </g>

  <!-- Glow orbs -->
  <circle cx="200" cy="300" r="200" fill="#ef4444" opacity="0.06" filter="url(#glow)"/>
  <circle cx="600" cy="350" r="180" fill="#f59e0b" opacity="0.05" filter="url(#glow)"/>
  <circle cx="1000" cy="300" r="180" fill="#3b82f6" opacity="0.06" filter="url(#glow)"/>

  <!-- Header -->
  <rect x="0" y="0" width="1200" height="80" fill="url(#hg)" opacity="0.9"/>
  <rect x="0" y="78" width="1200" height="2" fill="#334155" opacity="0.8"/>
  <g transform="translate(48,40)">
    <path d="M0,-22 L18,-12 L18,3 C18,13 10,20 0,24 C-10,20 -18,13 -18,3 L-18,-12 Z" fill="#1e3a5f" stroke="#3b82f6" stroke-width="1.5"/>
    <path d="M-7,1 L-2,6 L8,-5" stroke="#3b82f6" stroke-width="2.5" fill="none" stroke-linecap="round"/>
  </g>
  <text x="80" y="44" font-family="Arial,sans-serif" font-size="28" font-weight="700" fill="#f1f5f9">Security Weekly Digest</text>
  <rect x="990" y="18" width="178" height="44" rx="6" fill="#1e293b" stroke="#334155" stroke-width="1"/>
  <text x="1079" y="48" font-family="Arial,sans-serif" font-size="15" font-weight="700" fill="#94a3b8" text-anchor="middle">February 18, 2026</text>

  <!-- Card 1: BOTNET -->
  <rect x="32" y="100" width="220" height="120" rx="8" fill="#1a0505" stroke="#ef4444" stroke-width="1.5"/>
  <circle cx="52" cy="120" r="6" fill="#ef4444"/>
  <g transform="translate(142,148)">
    <circle cx="0" cy="-2" r="10" fill="none" stroke="#ef4444" stroke-width="1.8"/><line x1="-10" y1="-8" x2="-18" y2="-14" stroke="#ef4444" stroke-width="1.5"/><line x1="10" y1="-8" x2="18" y2="-14" stroke="#ef4444" stroke-width="1.5"/><line x1="-10" y1="2" x2="-18" y2="2" stroke="#ef4444" stroke-width="1.5"/><line x1="10" y1="2" x2="18" y2="2" stroke="#ef4444" stroke-width="1.5"/>
  </g>
  <text x="142" y="197" font-family="Arial,sans-serif" font-size="13" font-weight="700" fill="#ef4444" text-anchor="middle">BOTNET</text>
  <!-- Card 2: SEC OPS -->
  <rect x="268" y="100" width="220" height="120" rx="8" fill="#1a0d0d" stroke="#f59e0b" stroke-width="1.5"/>
  <circle cx="288" cy="120" r="6" fill="#f59e0b"/>
  <g transform="translate(378,148)">
    <path d="M0,-16 L14,-8 L14,4 C14,12 8,16 0,20 C-8,16 -14,12 -14,4 L-14,-8 Z" fill="none" stroke="#f59e0b" stroke-width="1.8"/>
  </g>
  <text x="378" y="197" font-family="Arial,sans-serif" font-size="13" font-weight="700" fill="#f59e0b" text-anchor="middle">SEC OPS</text>
  <!-- Card 3: THREAT INT -->
  <rect x="504" y="100" width="220" height="120" rx="8" fill="#0a1020" stroke="#3b82f6" stroke-width="1.5"/>
  <circle cx="524" cy="120" r="6" fill="#3b82f6"/>
  <g transform="translate(614,148)">
    <path d="M0,-16 L14,-8 L14,4 C14,12 8,16 0,20 C-8,16 -14,12 -14,4 L-14,-8 Z" fill="none" stroke="#3b82f6" stroke-width="1.8"/>
  </g>
  <text x="614" y="197" font-family="Arial,sans-serif" font-size="13" font-weight="700" fill="#3b82f6" text-anchor="middle">THREAT INT</text>
  <!-- Card 4: CLOUD SEC -->
  <rect x="740" y="100" width="200" height="120" rx="8" fill="#071a10" stroke="#22c55e" stroke-width="1.5"/>
  <circle cx="760" cy="120" r="6" fill="#22c55e"/>
  <g transform="translate(840,148)">
    <path d="M-16,8 C-24,8 -26,-2 -20,-8 C-18,-18 -6,-22 4,-18 C8,-26 20,-26 24,-16 C30,-16 32,-8 28,0 C26,8 16,8 8,8 Z" fill="none" stroke="#22c55e" stroke-width="1.8" transform="scale(0.65)"/>
  </g>
  <text x="840" y="197" font-family="Arial,sans-serif" font-size="13" font-weight="700" fill="#22c55e" text-anchor="middle">CLOUD SEC</text>
  <!-- Card 5: AI AGENT -->
  <rect x="956" y="100" width="212" height="120" rx="8" fill="#071a20" stroke="#22d3ee" stroke-width="1.5"/>
  <circle cx="976" cy="120" r="6" fill="#22d3ee"/>
  <g transform="translate(1062,148)">
    <circle cx="-12" cy="-8" r="4" fill="none" stroke="#22d3ee" stroke-width="1.5"/><circle cx="12" cy="-8" r="4" fill="none" stroke="#22d3ee" stroke-width="1.5"/><circle cx="0" cy="8" r="5" fill="none" stroke="#22d3ee" stroke-width="1.8"/><line x1="-8" y1="-6" x2="-2" y2="6" stroke="#22d3ee" stroke-width="1.2" opacity="0.7"/><line x1="8" y1="-6" x2="2" y2="6" stroke="#22d3ee" stroke-width="1.2" opacity="0.7"/><line x1="-8" y1="-8" x2="8" y2="-8" stroke="#22d3ee" stroke-width="1.2" opacity="0.5"/>
  </g>
  <text x="1062" y="197" font-family="Arial,sans-serif" font-size="13" font-weight="700" fill="#22d3ee" text-anchor="middle">AI AGENT</text>

  <!-- Threat map area -->
  <rect x="32" y="240" width="1136" height="220" rx="10" fill="#0c1220" stroke="#1e293b" stroke-width="1"/>

  <!-- Ambient dots -->
  <g opacity="0.25">
    <circle cx="180" cy="330" r="2" fill="#94a3b8"/><circle cx="200" cy="340" r="2" fill="#94a3b8"/>
    <circle cx="550" cy="310" r="2" fill="#94a3b8"/><circle cx="570" cy="325" r="2" fill="#94a3b8"/>
    <circle cx="750" cy="320" r="2" fill="#94a3b8"/><circle cx="900" cy="330" r="2" fill="#94a3b8"/>
    <circle cx="350" cy="350" r="2" fill="#94a3b8"/><circle cx="1000" cy="340" r="2" fill="#94a3b8"/>
  </g>
  <!-- Node: BOTNET -->
  <circle cx="170" cy="340" r="22" fill="#1a0505" stroke="#ef4444" stroke-width="2"/>
  <text x="170" y="344" font-family="Arial,sans-serif" font-size="9" font-weight="700" fill="#ef4444" text-anchor="middle">BOT</text>
  <!-- Node: SEC OPS -->
  <circle cx="370" cy="350" r="20" fill="#1a0d0d" stroke="#f59e0b" stroke-width="2"/>
  <text x="370" y="354" font-family="Arial,sans-serif" font-size="9" font-weight="700" fill="#f59e0b" text-anchor="middle">SEC</text>
  <!-- Node: THREAT INT -->
  <circle cx="580" cy="330" r="22" fill="#0a1020" stroke="#3b82f6" stroke-width="2"/>
  <text x="580" y="334" font-family="Arial,sans-serif" font-size="9" font-weight="700" fill="#3b82f6" text-anchor="middle">THRE</text>
  <!-- Node: CLOUD SEC -->
  <circle cx="780" cy="355" r="18" fill="#071a10" stroke="#22c55e" stroke-width="2"/>
  <text x="780" y="359" font-family="Arial,sans-serif" font-size="9" font-weight="700" fill="#22c55e" text-anchor="middle">CLOU</text>
  <!-- Node: AI AGENT -->
  <circle cx="980" cy="340" r="22" fill="#071a20" stroke="#22d3ee" stroke-width="2"/>
  <text x="980" y="344" font-family="Arial,sans-serif" font-size="9" font-weight="700" fill="#22d3ee" text-anchor="middle">AI</text>
  <line x1="192" y1="340" x2="350" y2="350" stroke="#ef4444" stroke-width="1.5" stroke-dasharray="10 6" opacity="0.6" marker-end="url(#ar)"/>
  <line x1="390" y1="350" x2="558" y2="330" stroke="#f59e0b" stroke-width="1.5" stroke-dasharray="10 6" opacity="0.6" marker-end="url(#ar)"/>
  <line x1="602" y1="330" x2="762" y2="355" stroke="#3b82f6" stroke-width="1.5" stroke-dasharray="10 6" opacity="0.6" marker-end="url(#ar)"/>
  <line x1="798" y1="355" x2="958" y2="340" stroke="#22c55e" stroke-width="1.5" stroke-dasharray="10 6" opacity="0.6" marker-end="url(#ar)"/>

  <!-- Footer -->
  <rect x="0" y="472" width="1200" height="158" fill="#080c18" opacity="0.95"/>
  <rect x="0" y="472" width="1200" height="2" fill="#1e293b"/>

  <!-- Tags -->
  <rect x="32" y="490" width="80" height="24" rx="4" fill="#1a0505" stroke="#ef4444" stroke-width="1"/>
  <text x="72" y="506" font-family="Arial,sans-serif" font-size="10" font-weight="700" fill="#ef4444" text-anchor="middle">BOTNET</text>
  <rect x="124" y="490" width="83" height="24" rx="4" fill="#1a0d0d" stroke="#f59e0b" stroke-width="1"/>
  <text x="165" y="506" font-family="Arial,sans-serif" font-size="10" font-weight="700" fill="#f59e0b" text-anchor="middle">SEC OPS</text>
  <rect x="219" y="490" width="110" height="24" rx="4" fill="#0a1020" stroke="#3b82f6" stroke-width="1"/>
  <text x="274" y="506" font-family="Arial,sans-serif" font-size="10" font-weight="700" fill="#3b82f6" text-anchor="middle">THREAT INT</text>
  <rect x="341" y="490" width="101" height="24" rx="4" fill="#071a10" stroke="#22c55e" stroke-width="1"/>
  <text x="391" y="506" font-family="Arial,sans-serif" font-size="10" font-weight="700" fill="#22c55e" text-anchor="middle">CLOUD SEC</text>
  <rect x="454" y="490" width="92" height="24" rx="4" fill="#071a20" stroke="#22d3ee" stroke-width="1"/>
  <text x="500" y="506" font-family="Arial,sans-serif" font-size="10" font-weight="700" fill="#22d3ee" text-anchor="middle">AI AGENT</text>

  <!-- Bottom bar -->
  <circle cx="32" cy="545" r="4" fill="#ef4444" opacity="0.6"/>
  <text x="46" y="550" font-family="Arial,sans-serif" font-size="12" fill="#475569">Security Weekly Digest | February 18, 2026</text>
  <text x="1168" y="550" font-family="Arial,sans-serif" font-size="12" fill="#475569" text-anchor="end">tech.2twodragon.com</text>
<!-- cover-qr: https://tech.2twodragon.com/posts/2026/02/18/Krebs_Security_Digest_Kimwolf_Patch_Tuesday/ : 41x41 -->
<g transform="translate(1080,504)">
  <rect x="-8" y="-8" width="100" height="100" rx="6" fill="#FFFFFF"/>
  <g transform="scale(2.048780)" fill="#0A1020">
    <path d="M0 0h7v1h-7zM10 0h1v1h-1zM12 0h1v1h-1zM21 0h2v1h-2zM26 0h2v1h-2zM30 0h1v1h-1zM34 0h7v1h-7zM0 1h1v1h-1zM6 1h1v1h-1zM8 1h1v1h-1zM11 1h3v1h-3zM15 1h3v1h-3zM20 1h1v1h-1zM25 1h2v1h-2zM28 1h2v1h-2zM32 1h1v1h-1zM34 1h1v1h-1zM40 1h1v1h-1zM0 2h1v1h-1zM2 2h3v1h-3zM6 2h1v1h-1zM8 2h1v1h-1zM10 2h2v1h-2zM13 2h1v1h-1zM15 2h4v1h-4zM21 2h3v1h-3zM25 2h1v1h-1zM28 2h1v1h-1zM34 2h1v1h-1zM36 2h3v1h-3zM40 2h1v1h-1zM0 3h1v1h-1zM2 3h3v1h-3zM6 3h1v1h-1zM8 3h1v1h-1zM10 3h4v1h-4zM15 3h2v1h-2zM22 3h3v1h-3zM27 3h1v1h-1zM30 3h2v1h-2zM34 3h1v1h-1zM36 3h3v1h-3zM40 3h1v1h-1zM0 4h1v1h-1zM2 4h3v1h-3zM6 4h1v1h-1zM9 4h1v1h-1zM11 4h1v1h-1zM13 4h1v1h-1zM15 4h1v1h-1zM17 4h2v1h-2zM20 4h3v1h-3zM30 4h2v1h-2zM34 4h1v1h-1zM36 4h3v1h-3zM40 4h1v1h-1zM0 5h1v1h-1zM6 5h1v1h-1zM10 5h2v1h-2zM13 5h1v1h-1zM17 5h1v1h-1zM20 5h2v1h-2zM25 5h1v1h-1zM34 5h1v1h-1zM40 5h1v1h-1zM0 6h7v1h-7zM8 6h1v1h-1zM10 6h1v1h-1zM12 6h1v1h-1zM14 6h1v1h-1zM16 6h1v1h-1zM18 6h1v1h-1zM20 6h1v1h-1zM22 6h1v1h-1zM24 6h1v1h-1zM26 6h1v1h-1zM28 6h1v1h-1zM30 6h1v1h-1zM32 6h1v1h-1zM34 6h7v1h-7zM8 7h2v1h-2zM11 7h1v1h-1zM13 7h1v1h-1zM15 7h1v1h-1zM18 7h2v1h-2zM23 7h1v1h-1zM30 7h2v1h-2zM0 8h1v1h-1zM6 8h1v1h-1zM8 8h1v1h-1zM11 8h1v1h-1zM13 8h1v1h-1zM15 8h3v1h-3zM22 8h2v1h-2zM25 8h5v1h-5zM32 8h3v1h-3zM37 8h3v1h-3zM1 9h2v1h-2zM4 9h2v1h-2zM8 9h1v1h-1zM10 9h1v1h-1zM12 9h4v1h-4zM17 9h7v1h-7zM27 9h2v1h-2zM30 9h2v1h-2zM33 9h1v1h-1zM35 9h2v1h-2zM39 9h2v1h-2zM2 10h1v1h-1zM4 10h1v1h-1zM6 10h2v1h-2zM11 10h1v1h-1zM16 10h2v1h-2zM24 10h2v1h-2zM27 10h1v1h-1zM30 10h1v1h-1zM32 10h2v1h-2zM36 10h1v1h-1zM0 11h1v1h-1zM3 11h2v1h-2zM8 11h1v1h-1zM10 11h2v1h-2zM14 11h1v1h-1zM19 11h2v1h-2zM22 11h1v1h-1zM27 11h2v1h-2zM30 11h8v1h-8zM39 11h2v1h-2zM0 12h1v1h-1zM2 12h2v1h-2zM5 12h2v1h-2zM11 12h4v1h-4zM16 12h2v1h-2zM23 12h2v1h-2zM26 12h1v1h-1zM30 12h1v1h-1zM32 12h1v1h-1zM34 12h1v1h-1zM0 13h2v1h-2zM3 13h1v1h-1zM7 13h1v1h-1zM10 13h1v1h-1zM13 13h2v1h-2zM21 13h2v1h-2zM25 13h1v1h-1zM31 13h1v1h-1zM34 13h7v1h-7zM0 14h1v1h-1zM2 14h2v1h-2zM5 14h2v1h-2zM9 14h1v1h-1zM20 14h6v1h-6zM27 14h3v1h-3zM32 14h2v1h-2zM35 14h1v1h-1zM37 14h2v1h-2zM0 15h2v1h-2zM4 15h2v1h-2zM7 15h1v1h-1zM11 15h3v1h-3zM18 15h1v1h-1zM20 15h1v1h-1zM22 15h2v1h-2zM28 15h1v1h-1zM32 15h2v1h-2zM36 15h4v1h-4zM1 16h3v1h-3zM5 16h3v1h-3zM9 16h1v1h-1zM11 16h2v1h-2zM16 16h2v1h-2zM22 16h8v1h-8zM31 16h1v1h-1zM33 16h1v1h-1zM35 16h1v1h-1zM37 16h3v1h-3zM1 17h3v1h-3zM5 17h1v1h-1zM7 17h3v1h-3zM14 17h3v1h-3zM18 17h4v1h-4zM23 17h1v1h-1zM28 17h10v1h-10zM40 17h1v1h-1zM0 18h1v1h-1zM4 18h4v1h-4zM9 18h2v1h-2zM12 18h1v1h-1zM14 18h7v1h-7zM23 18h1v1h-1zM25 18h4v1h-4zM31 18h2v1h-2zM34 18h3v1h-3zM38 18h3v1h-3zM1 19h1v1h-1zM7 19h1v1h-1zM9 19h3v1h-3zM14 19h2v1h-2zM21 19h1v1h-1zM23 19h1v1h-1zM26 19h1v1h-1zM28 19h3v1h-3zM32 19h1v1h-1zM36 19h2v1h-2zM39 19h1v1h-1zM3 20h4v1h-4zM8 20h1v1h-1zM11 20h1v1h-1zM14 20h2v1h-2zM18 20h1v1h-1zM20 20h3v1h-3zM24 20h1v1h-1zM27 20h2v1h-2zM32 20h1v1h-1zM35 20h1v1h-1zM37 20h2v1h-2zM40 20h1v1h-1zM0 21h2v1h-2zM8 21h6v1h-6zM15 21h1v1h-1zM19 21h1v1h-1zM22 21h3v1h-3zM27 21h2v1h-2zM30 21h4v1h-4zM35 21h4v1h-4zM0 22h2v1h-2zM3 22h4v1h-4zM9 22h1v1h-1zM17 22h2v1h-2zM21 22h1v1h-1zM24 22h1v1h-1zM26 22h3v1h-3zM32 22h5v1h-5zM1 23h1v1h-1zM4 23h2v1h-2zM8 23h1v1h-1zM11 23h1v1h-1zM15 23h2v1h-2zM19 23h1v1h-1zM22 23h1v1h-1zM24 23h1v1h-1zM27 23h2v1h-2zM31 23h3v1h-3zM35 23h3v1h-3zM39 23h1v1h-1zM2 24h1v1h-1zM4 24h1v1h-1zM6 24h1v1h-1zM8 24h2v1h-2zM13 24h2v1h-2zM19 24h2v1h-2zM24 24h1v1h-1zM28 24h1v1h-1zM32 24h1v1h-1zM34 24h1v1h-1zM39 24h1v1h-1zM0 25h2v1h-2zM5 25h1v1h-1zM7 25h4v1h-4zM14 25h1v1h-1zM18 25h3v1h-3zM23 25h1v1h-1zM25 25h3v1h-3zM30 25h2v1h-2zM33 25h1v1h-1zM35 25h3v1h-3zM39 25h1v1h-1zM0 26h1v1h-1zM2 26h2v1h-2zM6 26h1v1h-1zM8 26h1v1h-1zM10 26h2v1h-2zM14 26h2v1h-2zM17 26h2v1h-2zM20 26h1v1h-1zM25 26h3v1h-3zM29 26h2v1h-2zM32 26h1v1h-1zM35 26h2v1h-2zM1 27h1v1h-1zM3 27h1v1h-1zM5 27h1v1h-1zM8 27h3v1h-3zM12 27h1v1h-1zM14 27h1v1h-1zM19 27h1v1h-1zM22 27h2v1h-2zM28 27h1v1h-1zM30 27h2v1h-2zM34 27h1v1h-1zM37 27h2v1h-2zM40 27h1v1h-1zM0 28h3v1h-3zM4 28h1v1h-1zM6 28h2v1h-2zM12 28h1v1h-1zM16 28h2v1h-2zM19 28h1v1h-1zM22 28h2v1h-2zM25 28h1v1h-1zM29 28h4v1h-4zM35 28h1v1h-1zM37 28h4v1h-4zM0 29h2v1h-2zM3 29h1v1h-1zM5 29h1v1h-1zM7 29h2v1h-2zM10 29h1v1h-1zM12 29h3v1h-3zM16 29h1v1h-1zM18 29h1v1h-1zM20 29h1v1h-1zM24 29h3v1h-3zM28 29h1v1h-1zM31 29h2v1h-2zM34 29h3v1h-3zM40 29h1v1h-1zM0 30h3v1h-3zM4 30h1v1h-1zM6 30h1v1h-1zM10 30h1v1h-1zM13 30h1v1h-1zM16 30h1v1h-1zM18 30h1v1h-1zM20 30h1v1h-1zM23 30h1v1h-1zM25 30h2v1h-2zM28 30h2v1h-2zM31 30h1v1h-1zM33 30h1v1h-1zM37 30h2v1h-2zM40 30h1v1h-1zM0 31h1v1h-1zM2 31h2v1h-2zM5 31h1v1h-1zM8 31h1v1h-1zM12 31h2v1h-2zM15 31h1v1h-1zM19 31h2v1h-2zM24 31h1v1h-1zM26 31h3v1h-3zM34 31h2v1h-2zM37 31h1v1h-1zM39 31h1v1h-1zM0 32h1v1h-1zM3 32h2v1h-2zM6 32h2v1h-2zM10 32h1v1h-1zM12 32h2v1h-2zM15 32h1v1h-1zM17 32h1v1h-1zM19 32h4v1h-4zM25 32h2v1h-2zM28 32h2v1h-2zM32 32h5v1h-5zM38 32h1v1h-1zM8 33h2v1h-2zM12 33h2v1h-2zM16 33h3v1h-3zM23 33h1v1h-1zM25 33h3v1h-3zM32 33h1v1h-1zM36 33h1v1h-1zM38 33h1v1h-1zM0 34h7v1h-7zM10 34h1v1h-1zM13 34h1v1h-1zM15 34h3v1h-3zM20 34h2v1h-2zM25 34h4v1h-4zM30 34h1v1h-1zM32 34h1v1h-1zM34 34h1v1h-1zM36 34h1v1h-1zM38 34h1v1h-1zM0 35h1v1h-1zM6 35h1v1h-1zM10 35h1v1h-1zM12 35h1v1h-1zM14 35h1v1h-1zM16 35h5v1h-5zM22 35h1v1h-1zM25 35h1v1h-1zM27 35h1v1h-1zM31 35h2v1h-2zM36 35h2v1h-2zM39 35h2v1h-2zM0 36h1v1h-1zM2 36h3v1h-3zM6 36h1v1h-1zM9 36h1v1h-1zM11 36h7v1h-7zM20 36h3v1h-3zM25 36h1v1h-1zM27 36h11v1h-11zM0 37h1v1h-1zM2 37h3v1h-3zM6 37h1v1h-1zM9 37h1v1h-1zM14 37h2v1h-2zM17 37h4v1h-4zM22 37h3v1h-3zM27 37h1v1h-1zM31 37h2v1h-2zM35 37h1v1h-1zM37 37h1v1h-1zM39 37h1v1h-1zM0 38h1v1h-1zM2 38h3v1h-3zM6 38h1v1h-1zM10 38h1v1h-1zM13 38h3v1h-3zM20 38h1v1h-1zM22 38h1v1h-1zM25 38h3v1h-3zM29 38h9v1h-9zM0 39h1v1h-1zM6 39h1v1h-1zM9 39h3v1h-3zM13 39h4v1h-4zM18 39h1v1h-1zM24 39h1v1h-1zM27 39h1v1h-1zM34 39h1v1h-1zM36 39h3v1h-3zM40 39h1v1h-1zM0 40h7v1h-7zM8 40h3v1h-3zM13 40h1v1h-1zM15 40h1v1h-1zM22 40h1v1h-1zM24 40h4v1h-4zM29 40h1v1h-1zM34 40h3v1h-3zM38 40h1v1h-1z"/>
  </g>
</g>
<text x="1122" y="614" font-family="Inter,Helvetica,Arial,sans-serif" font-size="10" font-weight="700" fill="#F5F7FA" text-anchor="middle">scan / full post</text>
</svg>