<svg xmlns="http://www.w3.org/2000/svg" viewBox="0 0 1200 630" width="1200" height="630">
  <defs>
    <!-- Split background: dark gold top, dark blue bottom -->
    <linearGradient id="bgTop" x1="0%" y1="0%" x2="0%" y2="100%">
      <stop offset="0%"   stop-color="#0d1117"/>
      <stop offset="100%" stop-color="#140d04"/>
    </linearGradient>
    <linearGradient id="bgBot" x1="0%" y1="0%" x2="0%" y2="100%">
      <stop offset="0%"   stop-color="#04080f"/>
      <stop offset="100%" stop-color="#070d1a"/>
    </linearGradient>

    <!-- Ambient radial glows -->
    <radialGradient id="goldAmbient" cx="65%" cy="85%" r="70%">
      <stop offset="0%"   stop-color="#f59e0b" stop-opacity="0.20"/>
      <stop offset="100%" stop-color="#0d1117" stop-opacity="0"/>
    </radialGradient>
    <radialGradient id="blueAmbient" cx="65%" cy="15%" r="70%">
      <stop offset="0%"   stop-color="#3b82f6" stop-opacity="0.17"/>
      <stop offset="100%" stop-color="#070d1a" stop-opacity="0"/>
    </radialGradient>
    <radialGradient id="breachHalo" cx="50%" cy="50%" r="50%">
      <stop offset="0%"   stop-color="#dc2626" stop-opacity="0.60"/>
      <stop offset="50%"  stop-color="#dc2626" stop-opacity="0.14"/>
      <stop offset="100%" stop-color="#dc2626" stop-opacity="0"/>
    </radialGradient>

    <!-- Coin gradients -->
    <radialGradient id="coinLg" cx="32%" cy="28%" r="68%">
      <stop offset="0%"   stop-color="#fef3c7"/>
      <stop offset="45%"  stop-color="#f59e0b"/>
      <stop offset="100%" stop-color="#78350f"/>
    </radialGradient>
    <radialGradient id="coinSm" cx="32%" cy="28%" r="68%">
      <stop offset="0%"   stop-color="#fde68a"/>
      <stop offset="55%"  stop-color="#d97706"/>
      <stop offset="100%" stop-color="#92400e"/>
    </radialGradient>

    <!-- Tunnel horizontal fade -->
    <linearGradient id="tunnelFade" x1="0%" y1="0%" x2="100%" y2="0%">
      <stop offset="0%"   stop-color="#1d4ed8" stop-opacity="0"/>
      <stop offset="18%"  stop-color="#3b82f6" stop-opacity="0.38"/>
      <stop offset="50%"  stop-color="#60a5fa" stop-opacity="0.55"/>
      <stop offset="82%"  stop-color="#3b82f6" stop-opacity="0.38"/>
      <stop offset="100%" stop-color="#1d4ed8" stop-opacity="0"/>
    </linearGradient>

    <!-- Filters -->
    <filter id="fxGold" x="-50%" y="-50%" width="200%" height="200%">
      <feGaussianBlur stdDeviation="6" result="b"/>
      <feColorMatrix in="b" type="matrix"
        values="1.2 0.4 0 0 0  0.5 0.6 0 0 0  0 0 0 0 0  0 0 0 0.85 0" result="g"/>
      <feMerge><feMergeNode in="g"/><feMergeNode in="SourceGraphic"/></feMerge>
    </filter>
    <filter id="fxRed" x="-60%" y="-60%" width="220%" height="220%">
      <feGaussianBlur stdDeviation="8" result="b"/>
      <feColorMatrix in="b" type="matrix"
        values="1.3 0 0 0 0.7  0 0 0 0 0  0 0 0 0 0  0 0 0 0.95 0" result="g"/>
      <feMerge><feMergeNode in="g"/><feMergeNode in="SourceGraphic"/></feMerge>
    </filter>
    <filter id="fxBlue" x="-50%" y="-50%" width="200%" height="200%">
      <feGaussianBlur stdDeviation="5" result="b"/>
      <feColorMatrix in="b" type="matrix"
        values="0 0 0 0 0.1  0 0.4 0 0 0.4  0 0 1.2 0 0.8  0 0 0 0.75 0" result="g"/>
      <feMerge><feMergeNode in="g"/><feMergeNode in="SourceGraphic"/></feMerge>
    </filter>
    <filter id="fxSoft">
      <feGaussianBlur stdDeviation="2.5" result="b"/>
      <feMerge><feMergeNode in="b"/><feMergeNode in="SourceGraphic"/></feMerge>
    </filter>

    <!-- CSS animations -->
    <style>
      @keyframes floatUp {
        0%   { transform: translateY(0);    opacity: 0.92; }
        85%  { opacity: 0.55; }
        100% { transform: translateY(-88px); opacity: 0; }
      }
      @keyframes pulse   { 0%,100%{opacity:0.55} 50%{opacity:1} }
      @keyframes crackFx { 0%,100%{stroke-opacity:0.65} 50%{stroke-opacity:1} }
      @keyframes glimmer { 0%{opacity:0.35} 50%{opacity:0.88} 100%{opacity:0.35} }

      .fa { animation: floatUp 3.2s ease-in infinite; }
      .fb { animation: floatUp 3.8s ease-in infinite; animation-delay:0.9s; }
      .fc { animation: floatUp 2.9s ease-in infinite; animation-delay:1.7s; }
      .fd { animation: floatUp 4.1s ease-in infinite; animation-delay:0.4s; }
      .fe { animation: floatUp 3.5s ease-in infinite; animation-delay:2.3s; }
      .blink   { animation: pulse   2.2s ease-in-out infinite; }
      .crack   { animation: crackFx 1.9s ease-in-out infinite; }
      .glimmer { animation: glimmer 2.8s ease-in-out infinite; }
    </style>
  </defs>

  <!-- ── BACKGROUNDS ─────────────────────────────────────────── -->
  <rect x="0"   y="0"   width="1200" height="315" fill="url(#bgTop)"/>
  <rect x="0"   y="315" width="1200" height="315" fill="url(#bgBot)"/>
  <rect x="0"   y="0"   width="1200" height="315" fill="url(#goldAmbient)"/>
  <rect x="0"   y="315" width="1200" height="315" fill="url(#blueAmbient)"/>

  <!-- Subtle dot grid -->
  <pattern id="dotGrid" x="0" y="0" width="32" height="32" patternUnits="userSpaceOnUse">
    <circle cx="16" cy="16" r="0.7" fill="#334155" opacity="0.45"/>
  </pattern>
  <rect width="1200" height="630" fill="url(#dotGrid)"/>

  <!-- ── VPN TUNNEL PERSPECTIVE LINES ────────────────────────── -->
  <!-- Vanishing point: (690, 315) - centre-right at crack horizon -->
  <!-- Top rails -->
  <line x1="690" y1="315" x2="350"  y2="0"   stroke="#3b82f6" stroke-width="1.8" stroke-opacity="0.28"/>
  <line x1="690" y1="315" x2="470"  y2="0"   stroke="#60a5fa" stroke-width="1.2" stroke-opacity="0.18"/>
  <line x1="690" y1="315" x2="590"  y2="0"   stroke="#60a5fa" stroke-width="0.9" stroke-opacity="0.15"/>
  <line x1="690" y1="315" x2="790"  y2="0"   stroke="#60a5fa" stroke-width="0.9" stroke-opacity="0.15"/>
  <line x1="690" y1="315" x2="910"  y2="0"   stroke="#60a5fa" stroke-width="1.2" stroke-opacity="0.18"/>
  <line x1="690" y1="315" x2="1030" y2="0"   stroke="#3b82f6" stroke-width="1.8" stroke-opacity="0.28"/>
  <line x1="690" y1="315" x2="1200" y2="70"  stroke="#3b82f6" stroke-width="1.4" stroke-opacity="0.20"/>
  <!-- Bottom rails -->
  <line x1="690" y1="315" x2="350"  y2="630" stroke="#3b82f6" stroke-width="1.8" stroke-opacity="0.22"/>
  <line x1="690" y1="315" x2="470"  y2="630" stroke="#60a5fa" stroke-width="1.2" stroke-opacity="0.14"/>
  <line x1="690" y1="315" x2="590"  y2="630" stroke="#60a5fa" stroke-width="0.9" stroke-opacity="0.12"/>
  <line x1="690" y1="315" x2="790"  y2="630" stroke="#60a5fa" stroke-width="0.9" stroke-opacity="0.12"/>
  <line x1="690" y1="315" x2="910"  y2="630" stroke="#60a5fa" stroke-width="1.2" stroke-opacity="0.14"/>
  <line x1="690" y1="315" x2="1030" y2="630" stroke="#3b82f6" stroke-width="1.8" stroke-opacity="0.22"/>
  <line x1="690" y1="315" x2="1200" y2="560" stroke="#3b82f6" stroke-width="1.4" stroke-opacity="0.16"/>
  <!-- Tunnel ring ellipses -->
  <ellipse cx="690" cy="210" rx="270" ry="23" fill="none" stroke="url(#tunnelFade)" stroke-width="1.2" opacity="0.65"/>
  <ellipse cx="690" cy="118" rx="180" ry="15" fill="none" stroke="url(#tunnelFade)" stroke-width="1.0" opacity="0.42"/>
  <ellipse cx="690" cy="48"  rx="105" ry="8"  fill="none" stroke="url(#tunnelFade)" stroke-width="0.8" opacity="0.25"/>
  <ellipse cx="690" cy="420" rx="270" ry="23" fill="none" stroke="url(#tunnelFade)" stroke-width="1.2" opacity="0.55"/>
  <ellipse cx="690" cy="512" rx="180" ry="15" fill="none" stroke="url(#tunnelFade)" stroke-width="1.0" opacity="0.36"/>
  <ellipse cx="690" cy="582" rx="105" ry="8"  fill="none" stroke="url(#tunnelFade)" stroke-width="0.8" opacity="0.20"/>

  <!-- ── TOP HALF: BROKEN VAULT + CRYPTO SPILL ───────────────── -->

  <!-- Vault door (right side) -->
  <g transform="translate(848, 38)">
    <rect x="0" y="0" width="178" height="234" rx="10" fill="#0d1520" stroke="#44556a" stroke-width="3"/>
    <rect x="11" y="11" width="156" height="212" rx="7" fill="none" stroke="#2d3f52" stroke-width="1.8"/>
    <!-- Wheel -->
    <circle cx="89" cy="117" r="60" fill="#080f18" stroke="#2e4055" stroke-width="4"/>
    <circle cx="89" cy="117" r="43" fill="#0d1520" stroke="#3d5068" stroke-width="2.5"/>
    <circle cx="89" cy="117" r="17" fill="#080f18" stroke="#5a6e82" stroke-width="2"/>
    <!-- Spokes -->
    <line x1="89" y1="57"  x2="89" y2="177" stroke="#3d5068" stroke-width="3.5"/>
    <line x1="29" y1="117" x2="149" y2="117" stroke="#3d5068" stroke-width="3.5"/>
    <line x1="47" y1="74"  x2="131" y2="160" stroke="#2e4055" stroke-width="2.5"/>
    <line x1="131" y1="74" x2="47"  y2="160" stroke="#2e4055" stroke-width="2.5"/>
    <!-- Bolts -->
    <rect x="-10" y="46"  width="18" height="26" rx="4" fill="#2e4055"/>
    <rect x="-10" y="162" width="18" height="26" rx="4" fill="#2e4055"/>
    <rect x="170" y="46"  width="18" height="26" rx="4" fill="#2e4055"/>
    <rect x="170" y="162" width="18" height="26" rx="4" fill="#2e4055"/>
    <!-- Crack across door -->
    <path d="M58,0 L74,54 L46,82 L76,124 L52,168 L64,234"
          stroke="#dc2626" stroke-width="3" fill="none" class="crack"/>
    <path d="M58,0 L74,54 L46,82 L76,124 L52,168 L64,234"
          stroke="#ef4444" stroke-width="14" fill="none" stroke-opacity="0.11"/>
    <path d="M74,54 L92,64 L84,82"  stroke="#ef4444" stroke-width="1.5" fill="none" stroke-opacity="0.6" class="crack"/>
    <path d="M46,82 L28,92 L32,106" stroke="#ef4444" stroke-width="1.5" fill="none" stroke-opacity="0.5" class="crack"/>
  </g>

  <!-- Broken shield -->
  <g transform="translate(700, 65)">
    <path d="M57,0 L104,19 L104,78 Q104,124 57,145 Q10,124 10,78 L10,19 Z"
          fill="#0d1520" stroke="#2e4055" stroke-width="2.5"/>
    <path d="M57,8 L96,24 L96,75 Q96,115 57,134 Q18,115 18,75 L18,24 Z"
          fill="none" stroke="#1a2a38" stroke-width="1.2"/>
    <!-- Broken padlock -->
    <rect x="36" y="72" width="42" height="34" rx="3" fill="#080f18" stroke="#3d5068" stroke-width="1.5"/>
    <path d="M44,72 Q44,52 57,52 Q70,52 70,72" fill="none" stroke="#3d5068" stroke-width="2.5"/>
    <path d="M64,54 L69,62" stroke="#dc2626" stroke-width="2.2" stroke-opacity="0.9"/>
    <circle cx="57" cy="87" r="6" fill="#2e4055"/>
    <!-- Shield crack -->
    <path d="M36,12 L52,50 L32,72 L57,136"
          stroke="#dc2626" stroke-width="2.2" fill="none" class="crack"/>
    <path d="M52,50 L68,58 L62,74"
          stroke="#ef4444" stroke-width="1.4" fill="none" stroke-opacity="0.6" class="crack"/>
  </g>

  <!-- Spilling coins near crack zone -->
  <ellipse cx="600" cy="290" rx="31" ry="31" fill="url(#coinLg)" filter="url(#fxGold)"/>
  <ellipse cx="654" cy="274" rx="24" ry="24" fill="url(#coinLg)" filter="url(#fxGold)"/>
  <ellipse cx="556" cy="270" rx="20" ry="20" fill="url(#coinSm)"/>
  <ellipse cx="706" cy="291" rx="18" ry="18" fill="url(#coinSm)"/>
  <ellipse cx="514" cy="280" rx="22" ry="22" fill="url(#coinLg)"/>

  <!-- Smaller scattered coins -->
  <ellipse cx="756" cy="268" rx="14" ry="14" fill="#d97706" fill-opacity="0.85"/>
  <ellipse cx="466" cy="262" rx="13" ry="13" fill="#f59e0b" fill-opacity="0.78"/>
  <ellipse cx="796" cy="295" rx="11" ry="11" fill="#d97706" fill-opacity="0.65"/>
  <ellipse cx="428" cy="296" rx="10" ry="10" fill="#f59e0b" fill-opacity="0.60"/>
  <ellipse cx="834" cy="270" rx="9"  ry="9"  fill="#d97706" fill-opacity="0.50"/>
  <ellipse cx="392" cy="284" rx="8"  ry="8"  fill="#f59e0b" fill-opacity="0.44"/>
  <ellipse cx="864" cy="294" rx="7"  ry="7"  fill="#b45309" fill-opacity="0.44"/>

  <!-- Floating crypto symbols (animated upward) -->
  <g transform="translate(632, 176)" class="fa" filter="url(#fxGold)">
    <circle r="25" fill="#f59e0b" fill-opacity="0.10" stroke="#fbbf24" stroke-width="1.5"/>
  </g>
  <g transform="translate(695, 146)" class="fb">
    <circle r="18" fill="#f59e0b" fill-opacity="0.08" stroke="#f59e0b" stroke-width="1"/>
  </g>
  <g transform="translate(572, 160)" class="fc"/>
  <g transform="translate(748, 193)" class="fd"/>
  <g transform="translate(520, 204)" class="fe"/>

  <!-- $285M big label -->
  <text x="672" y="168" font-family="Arial Black,sans-serif" font-size="60"
        fill="#f59e0b" text-anchor="middle" filter="url(#fxGold)" opacity="0.97">$285M</text>

  <!-- Gold dust particles -->
  <circle cx="550" cy="230" r="3"   fill="#fbbf24" class="fa" opacity="0.72"/>
  <circle cx="676" cy="212" r="2.5" fill="#f59e0b" class="fb" opacity="0.66"/>
  <circle cx="726" cy="242" r="2"   fill="#fbbf24" class="fc" opacity="0.56"/>
  <circle cx="498" cy="246" r="3"   fill="#f59e0b" class="fd" opacity="0.62"/>
  <circle cx="782" cy="226" r="2"   fill="#fbbf24" class="fe" opacity="0.52"/>
  <circle cx="456" cy="256" r="2"   fill="#f59e0b" class="fa" opacity="0.44"/>
  <circle cx="818" cy="256" r="2.5" fill="#fbbf24" class="fb" opacity="0.40"/>

  <!-- ── CENTRE CRACK / BREACH ZONE (y ≈ 308–322) ────────────── -->

  <!-- Wide breach glow ellipse -->
  <ellipse cx="690" cy="315" rx="440" ry="34" fill="url(#breachHalo)" opacity="0.78"/>

  <!-- Main jagged crack -->
  <polyline
    points="0,307  50,317  100,305  150,319  200,307  250,315
            300,303  350,318  400,307  450,314  500,303  550,316
            590,306  628,317  662,308  700,318  736,308  772,317
            820,307  870,316  920,304  970,318  1020,306
            1070,317 1120,305 1170,319 1200,308"
    stroke="#dc2626" stroke-width="3.2" fill="none"
    filter="url(#fxRed)" class="crack"/>
  <!-- Crack halo band -->
  <polyline
    points="0,307  50,317  100,305  150,319  200,307  250,315
            300,303  350,318  400,307  450,314  500,303  550,316
            590,306  628,317  662,308  700,318  736,308  772,317
            820,307  870,316  920,304  970,318  1020,306
            1070,317 1120,305 1170,319 1200,308"
    stroke="#ef4444" stroke-width="16" fill="none" stroke-opacity="0.09"/>

  <!-- EMS breach badge -->
  <rect x="630" y="296" width="120" height="42" rx="7"
        fill="#1a0505" fill-opacity="0.88" stroke="#dc2626" stroke-width="2"/>
  <text x="690" y="324" font-family="Arial Black,sans-serif" font-size="21"
        fill="#ef4444" text-anchor="middle" filter="url(#fxRed)" letter-spacing="3">EMS</text>

  <!-- Radial crack shards -->
  <line x1="690" y1="315" x2="616" y2="266" stroke="#dc2626" stroke-width="1.8" stroke-opacity="0.55" class="crack"/>
  <line x1="690" y1="315" x2="604" y2="281" stroke="#ef4444" stroke-width="1.0" stroke-opacity="0.36" class="crack"/>
  <line x1="690" y1="315" x2="764" y2="264" stroke="#dc2626" stroke-width="1.8" stroke-opacity="0.55" class="crack"/>
  <line x1="690" y1="315" x2="776" y2="279" stroke="#ef4444" stroke-width="1.0" stroke-opacity="0.36" class="crack"/>
  <line x1="690" y1="315" x2="628" y2="364" stroke="#dc2626" stroke-width="1.8" stroke-opacity="0.50" class="crack"/>
  <line x1="690" y1="315" x2="752" y2="362" stroke="#dc2626" stroke-width="1.8" stroke-opacity="0.50" class="crack"/>
  <line x1="690" y1="315" x2="584" y2="342" stroke="#ef4444" stroke-width="1.0" stroke-opacity="0.28" class="crack"/>
  <line x1="690" y1="315" x2="796" y2="340" stroke="#ef4444" stroke-width="1.0" stroke-opacity="0.28" class="crack"/>


  <!-- ── BOTTOM HALF: QR PHISHING ────────────────────────────── -->

  <!-- QR code block (centre-right) -->
  <g transform="translate(652, 358)" filter="url(#fxBlue)">
    <!-- Frame -->
    <rect x="0" y="0" width="216" height="216" rx="6"
          fill="#030a14" fill-opacity="0.92" stroke="#3b82f6" stroke-width="2.2"/>

    <!-- Corner marker TL -->
    <rect x="13" y="13" width="48" height="48" rx="4" fill="none" stroke="#3b82f6" stroke-width="3"/>
    <rect x="21" y="21" width="32" height="32" rx="2" fill="#3b82f6" opacity="0.52"/>
    <!-- Corner marker TR -->
    <rect x="155" y="13" width="48" height="48" rx="4" fill="none" stroke="#3b82f6" stroke-width="3"/>
    <rect x="163" y="21" width="32" height="32" rx="2" fill="#3b82f6" opacity="0.52"/>
    <!-- Corner marker BL -->
    <rect x="13" y="155" width="48" height="48" rx="4" fill="none" stroke="#3b82f6" stroke-width="3"/>
    <rect x="21" y="163" width="32" height="32" rx="2" fill="#3b82f6" opacity="0.52"/>

    <!-- QR data cells - upper region (solid) -->
    <rect x="73" y="15" width="7" height="7" fill="#60a5fa" opacity="0.92"/>
    <rect x="85" y="15" width="7" height="7" fill="#60a5fa" opacity="0.80"/>
    <rect x="99" y="15" width="7" height="7" fill="#60a5fa" opacity="0.90"/>
    <rect x="115" y="15" width="7" height="7" fill="#60a5fa" opacity="0.70"/>
    <rect x="129" y="15" width="7" height="7" fill="#60a5fa" opacity="0.86"/>
    <rect x="143" y="15" width="7" height="7" fill="#60a5fa" opacity="0.74"/>
    <rect x="75" y="27" width="7" height="7" fill="#60a5fa" opacity="0.70"/>
    <rect x="91" y="27" width="7" height="7" fill="#60a5fa" opacity="0.90"/>
    <rect x="107" y="27" width="7" height="7" fill="#60a5fa" opacity="0.80"/>
    <rect x="123" y="27" width="7" height="7" fill="#60a5fa" opacity="0.66"/>
    <rect x="139" y="27" width="7" height="7" fill="#60a5fa" opacity="0.86"/>
    <rect x="73" y="39" width="7" height="7" fill="#60a5fa" opacity="0.86"/>
    <rect x="89" y="39" width="7" height="7" fill="#60a5fa" opacity="0.70"/>
    <rect x="103" y="39" width="7" height="7" fill="#60a5fa" opacity="0.90"/>
    <rect x="119" y="39" width="7" height="7" fill="#60a5fa" opacity="0.76"/>
    <rect x="135" y="39" width="7" height="7" fill="#60a5fa" opacity="0.60"/>
    <rect x="149" y="39" width="7" height="7" fill="#60a5fa" opacity="0.84"/>
    <rect x="73" y="51" width="7" height="7" fill="#60a5fa" opacity="0.80"/>
    <rect x="87" y="51" width="7" height="7" fill="#60a5fa" opacity="0.90"/>
    <rect x="101" y="51" width="7" height="7" fill="#60a5fa" opacity="0.64"/>
    <rect x="117" y="51" width="7" height="7" fill="#60a5fa" opacity="0.86"/>
    <rect x="133" y="51" width="7" height="7" fill="#60a5fa" opacity="0.74"/>
    <rect x="147" y="51" width="7" height="7" fill="#60a5fa" opacity="0.88"/>
    <!-- Left column -->
    <rect x="15" y="73"  width="7" height="7" fill="#60a5fa" opacity="0.90"/>
    <rect x="15" y="87"  width="7" height="7" fill="#60a5fa" opacity="0.70"/>
    <rect x="15" y="101" width="7" height="7" fill="#60a5fa" opacity="0.86"/>
    <rect x="15" y="115" width="7" height="7" fill="#60a5fa" opacity="0.58"/>
    <rect x="15" y="129" width="7" height="7" fill="#60a5fa" opacity="0.80"/>
    <rect x="15" y="143" width="7" height="7" fill="#60a5fa" opacity="0.68"/>
    <rect x="27" y="79"  width="7" height="7" fill="#60a5fa" opacity="0.80"/>
    <rect x="27" y="93"  width="7" height="7" fill="#60a5fa" opacity="0.92"/>
    <rect x="27" y="107" width="7" height="7" fill="#60a5fa" opacity="0.68"/>
    <rect x="27" y="121" width="7" height="7" fill="#60a5fa" opacity="0.86"/>
    <rect x="27" y="135" width="7" height="7" fill="#60a5fa" opacity="0.62"/>
    <!-- Right column -->
    <rect x="175" y="73"  width="7" height="7" fill="#60a5fa" opacity="0.88"/>
    <rect x="189" y="79"  width="7" height="7" fill="#60a5fa" opacity="0.76"/>
    <rect x="175" y="91"  width="7" height="7" fill="#60a5fa" opacity="0.82"/>
    <rect x="189" y="105" width="7" height="7" fill="#60a5fa" opacity="0.68"/>
    <rect x="175" y="107" width="7" height="7" fill="#60a5fa" opacity="0.62"/>
    <!-- Middle upper block -->
    <rect x="71"  y="71"  width="7" height="7" fill="#60a5fa" opacity="0.86"/>
    <rect x="83"  y="71"  width="7" height="7" fill="#60a5fa" opacity="0.70"/>
    <rect x="97"  y="71"  width="7" height="7" fill="#60a5fa" opacity="0.90"/>
    <rect x="113" y="71"  width="7" height="7" fill="#60a5fa" opacity="0.76"/>
    <rect x="129" y="71"  width="7" height="7" fill="#60a5fa" opacity="0.84"/>
    <rect x="145" y="71"  width="7" height="7" fill="#60a5fa" opacity="0.66"/>
    <rect x="161" y="71"  width="7" height="7" fill="#60a5fa" opacity="0.78"/>
    <rect x="75"  y="85"  width="7" height="7" fill="#60a5fa" opacity="0.80"/>
    <rect x="91"  y="85"  width="7" height="7" fill="#60a5fa" opacity="0.90"/>
    <rect x="107" y="85"  width="7" height="7" fill="#60a5fa" opacity="0.63"/>
    <rect x="123" y="85"  width="7" height="7" fill="#60a5fa" opacity="0.86"/>
    <rect x="139" y="85"  width="7" height="7" fill="#60a5fa" opacity="0.70"/>
    <rect x="155" y="85"  width="7" height="7" fill="#60a5fa" opacity="0.88"/>

    <!-- Dissolving QR cells (fading into web) -->
    <rect x="71"  y="99"  width="6" height="6" fill="#60a5fa" opacity="0.52"/>
    <rect x="85"  y="107" width="6" height="6" fill="#60a5fa" opacity="0.40"/>
    <rect x="101" y="101" width="6" height="6" fill="#60a5fa" opacity="0.46"/>
    <rect x="121" y="99"  width="6" height="6" fill="#60a5fa" opacity="0.35"/>
    <rect x="139" y="107" width="6" height="6" fill="#60a5fa" opacity="0.28"/>
    <rect x="157" y="101" width="6" height="6" fill="#60a5fa" opacity="0.32"/>
    <rect x="77"  y="115" width="5" height="5" fill="#60a5fa" opacity="0.24"/>
    <rect x="111" y="117" width="5" height="5" fill="#60a5fa" opacity="0.20"/>
    <rect x="147" y="115" width="5" height="5" fill="#60a5fa" opacity="0.17"/>

    <!-- Spider web - radials from hub (108, 162) -->
    <line x1="108" y1="162" x2="38"  y2="128" stroke="#3b82f6" stroke-width="1.2" stroke-opacity="0.64"/>
    <line x1="108" y1="162" x2="56"  y2="206" stroke="#3b82f6" stroke-width="1.2" stroke-opacity="0.57"/>
    <line x1="108" y1="162" x2="83"  y2="210" stroke="#3b82f6" stroke-width="1.0" stroke-opacity="0.60"/>
    <line x1="108" y1="162" x2="108" y2="212" stroke="#3b82f6" stroke-width="1.3" stroke-opacity="0.70"/>
    <line x1="108" y1="162" x2="134" y2="210" stroke="#3b82f6" stroke-width="1.0" stroke-opacity="0.60"/>
    <line x1="108" y1="162" x2="162" y2="204" stroke="#3b82f6" stroke-width="1.2" stroke-opacity="0.57"/>
    <line x1="108" y1="162" x2="180" y2="128" stroke="#3b82f6" stroke-width="1.2" stroke-opacity="0.64"/>
    <line x1="108" y1="162" x2="178" y2="160" stroke="#3b82f6" stroke-width="0.9" stroke-opacity="0.42"/>
    <line x1="108" y1="162" x2="38"  y2="162" stroke="#3b82f6" stroke-width="0.9" stroke-opacity="0.38"/>
    <!-- Concentric arcs -->
    <path d="M55,140 Q108,122 162,140" fill="none" stroke="#3b82f6" stroke-width="1.0" stroke-opacity="0.50"/>
    <path d="M47,156 Q108,134 170,156" fill="none" stroke="#3b82f6" stroke-width="1.0" stroke-opacity="0.43"/>
    <path d="M44,172 Q108,148 173,172" fill="none" stroke="#3b82f6" stroke-width="0.9" stroke-opacity="0.36"/>
    <path d="M44,186 Q108,162 173,186" fill="none" stroke="#3b82f6" stroke-width="0.8" stroke-opacity="0.30"/>
    <path d="M46,200 Q108,176 172,200" fill="none" stroke="#3b82f6" stroke-width="0.8" stroke-opacity="0.26"/>
    <!-- Web hub -->
    <circle cx="108" cy="162" r="4.5" fill="#60a5fa" opacity="0.88"/>

    <!-- PHISHING label -->
    <text x="108" y="228" font-family="Arial Black,sans-serif" font-size="15"
          fill="#ef4444" text-anchor="middle" letter-spacing="3" filter="url(#fxRed)">PHISHING TRAP</text>
  </g>

  <!-- Funnel drain below QR -->
  <path d="M722,575 Q760,558 798,575" fill="none" stroke="#3b82f6" stroke-width="1.5" stroke-opacity="0.46"/>
  <path d="M730,589 Q760,572 790,589" fill="none" stroke="#3b82f6" stroke-width="1.2" stroke-opacity="0.33"/>
  <line x1="760" y1="575" x2="760" y2="620" stroke="#3b82f6" stroke-width="1.5" stroke-opacity="0.40"/>
  <path d="M755,620 L760,628 L765,620" fill="none" stroke="#3b82f6" stroke-width="1.2" stroke-opacity="0.38"/>

  <!-- Car + QR windshield (bottom-left) -->
  <g transform="translate(152, 412)" opacity="0.76">
    <rect x="8" y="30" width="134" height="54" rx="10" fill="#08111e" stroke="#1e3a55" stroke-width="2"/>
    <path d="M30,30 L52,7 L110,7 L130,30" fill="#060f1c" stroke="#1e3a55" stroke-width="2"/>
    <path d="M34,30 L53,9 L110,9 L128,30" fill="#0a1f38" stroke="#3b82f6" stroke-width="1.5"/>
    <!-- Mini QR on windshield -->
    <rect x="54" y="11" width="42" height="15" rx="2" fill="#030a14" stroke="#60a5fa" stroke-width="1"/>
    <rect x="56" y="13" width="4" height="4" fill="#60a5fa"/>
    <rect x="62" y="13" width="2" height="4" fill="#60a5fa"/>
    <rect x="66" y="13" width="4" height="4" fill="#60a5fa"/>
    <rect x="72" y="13" width="4" height="4" fill="#60a5fa"/>
    <rect x="78" y="13" width="4" height="4" fill="#60a5fa"/>
    <rect x="84" y="13" width="4" height="4" fill="#60a5fa"/>
    <rect x="56" y="19" width="4" height="4" fill="#60a5fa"/>
    <rect x="64" y="19" width="4" height="4" fill="#60a5fa"/>
    <rect x="72" y="19" width="4" height="4" fill="#60a5fa"/>
    <rect x="80" y="19" width="4" height="4" fill="#60a5fa"/>
    <!-- Wheels -->
    <circle cx="38"  cy="84" r="16" fill="#040c18" stroke="#2e4055" stroke-width="2"/>
    <circle cx="38"  cy="84" r="8"  fill="#0e1f30"/>
    <circle cx="114" cy="84" r="16" fill="#040c18" stroke="#2e4055" stroke-width="2"/>
    <circle cx="114" cy="84" r="8"  fill="#0e1f30"/>
    <!-- Headlight -->
    <rect x="136" y="43" width="10" height="17" rx="3" fill="#fbbf24" fill-opacity="0.55"/>
    <rect x="136" y="63" width="10" height="10" rx="2" fill="#ef4444" fill-opacity="0.48"/>
  </g>

  <!-- Phishing hook over car -->
  <path d="M236,408 Q298,370 298,432 Q298,482 248,480 Q198,480 198,446"
        fill="none" stroke="#ef4444" stroke-width="2.8" stroke-opacity="0.84"/>
  <line x1="298" y1="370" x2="298" y2="328" stroke="#ef4444" stroke-width="2.2" stroke-opacity="0.76"/>
  <line x1="298" y1="328" x2="298" y2="355" stroke="#ef4444" stroke-width="2" stroke-opacity="0.56" stroke-dasharray="4,3"/>
  <path d="M198,446 L188,458 L200,464" fill="none" stroke="#ef4444" stroke-width="2" stroke-opacity="0.88"/>

  <!-- Blue data particles bottom -->
  <circle cx="886" cy="420" r="2.5" fill="#3b82f6" class="fa" opacity="0.55"/>
  <circle cx="938" cy="454" r="2"   fill="#60a5fa" class="fb" opacity="0.48"/>
  <circle cx="814" cy="496" r="3"   fill="#3b82f6" class="fc" opacity="0.50"/>
  <circle cx="968" cy="404" r="2"   fill="#60a5fa" class="fd" opacity="0.42"/>
  <circle cx="1068" cy="468" r="2.5" fill="#3b82f6" class="fe" opacity="0.46"/>
  <circle cx="1112" cy="513" r="2"  fill="#60a5fa" class="fa" opacity="0.36"/>
  <circle cx="860"  cy="550" r="2"  fill="#3b82f6" class="fc" opacity="0.35"/>

  <!-- ── LEFT PANEL ────────────────────────────────────────────── -->
  <rect x="0" y="0" width="368" height="630" fill="#020810" fill-opacity="0.74"/>
  <rect x="0" y="0" width="4"   height="630" fill="#3b82f6" opacity="0.88"/>

  <!-- Panel top glow strip -->
  <linearGradient id="panelGlow" x1="0%" y1="0%" x2="0%" y2="100%">
    <stop offset="0%"   stop-color="#1e3a5f" stop-opacity="0.28"/>
    <stop offset="25%"  stop-color="#020810" stop-opacity="0"/>
  </linearGradient>
  <rect x="0" y="0" width="368" height="180" fill="url(#panelGlow)"/>

  <!-- WEEKLY DIGEST badge -->
  <rect x="24" y="26" width="156" height="29" rx="14.5" fill="#0b1f38" stroke="#3b82f6" stroke-width="1.5"/>
  <text x="102" y="46" font-family="Arial Black,sans-serif" font-size="10"
        fill="#60a5fa" text-anchor="middle" letter-spacing="2.8">WEEKLY DIGEST</text>

  <!-- Title -->
  <text x="28" y="103" font-family="Arial Black,sans-serif" font-size="30"
        fill="#f1f5f9" opacity="0.97" letter-spacing="-0.5">Tech Security</text>
  <text x="28" y="138" font-family="Arial Black,sans-serif" font-size="30"
        fill="#f1f5f9" opacity="0.97" letter-spacing="-0.5">Weekly</text>

  <line x1="28" y1="154" x2="214" y2="154" stroke="#3b82f6" stroke-width="1.5" stroke-opacity="0.55"/>

  <!-- Story 1 -->
  <rect x="28" y="166" width="10" height="10" rx="2" fill="#f59e0b"/>
  <text x="46" y="177" font-family="Arial Black,sans-serif" font-size="13" fill="#fbbf24">Drift $285M Hack</text>
  <!-- Story 2 -->
  <rect x="28" y="196" width="10" height="10" rx="2" fill="#3b82f6"/>
  <text x="46" y="207" font-family="Arial Black,sans-serif" font-size="13" fill="#60a5fa">QR Code Phishing</text>
  <!-- Story 3 -->
  <rect x="28" y="226" width="10" height="10" rx="2" fill="#dc2626"/>
  <text x="46" y="237" font-family="Arial Black,sans-serif" font-size="13" fill="#f87171">FortiClient EMS</text>

  <line x1="28" y1="293" x2="214" y2="293" stroke="#111827" stroke-width="1" stroke-opacity="0.7"/>

  <!-- Severity bars -->
  <rect x="28" y="313" width="120" height="9" rx="4.5" fill="#111827"/>
  <rect x="28" y="313" width="113" height="9" rx="4.5" fill="#dc2626"/>
  <rect x="28" y="328" width="120" height="9" rx="4.5" fill="#111827"/>
  <rect x="28" y="328" width="88"  height="9" rx="4.5" fill="#f59e0b"/>

  <!-- Tag pills -->
  <rect x="28"  y="379" width="54"  height="23" rx="11.5" fill="#f59e0b" fill-opacity="0.17" stroke="#f59e0b" stroke-width="1.2"/>
  <text x="55"  y="395" font-family="Arial,sans-serif" font-size="10" fill="#fbbf24" text-anchor="middle" font-weight="bold">Drift</text>
  <rect x="88"  y="379" width="70"  height="23" rx="11.5" fill="#3b82f6" fill-opacity="0.17" stroke="#3b82f6" stroke-width="1.2"/>
  <text x="123" y="395" font-family="Arial,sans-serif" font-size="10" fill="#60a5fa" text-anchor="middle" font-weight="bold">QR Code</text>
  <rect x="28"  y="408" width="80"  height="23" rx="11.5" fill="#dc2626" fill-opacity="0.17" stroke="#dc2626" stroke-width="1.2"/>
  <text x="68"  y="424" font-family="Arial,sans-serif" font-size="10" fill="#f87171" text-anchor="middle" font-weight="bold">FortiClient</text>
  <rect x="114" y="408" width="67"  height="23" rx="11.5" fill="#7c3aed" fill-opacity="0.17" stroke="#7c3aed" stroke-width="1.2"/>
  <text x="147" y="424" font-family="Arial,sans-serif" font-size="10" fill="#a78bfa" text-anchor="middle" font-weight="bold">Phishing</text>

  <!-- Date -->
  <text x="28" y="464" font-family="Arial,sans-serif" font-size="11"
        fill="#1f2937" letter-spacing="2.5">APRIL 06, 2026</text>

  <!-- Shield icon -->
  <g transform="translate(28,476)" opacity="0.40">
    <path d="M11,0 L20,4 L20,14 Q20,24 11,28 Q2,24 2,14 L2,4 Z"
          fill="none" stroke="#374151" stroke-width="1.5"/>
    <rect x="7" y="14" width="8" height="7" rx="1" fill="none" stroke="#374151" stroke-width="1.2"/>
    <path d="M9,14 Q9,10 11,10 Q13,10 13,14" fill="none" stroke="#374151" stroke-width="1.2"/>
  </g>


  <!-- ── FOOTER ─────────────────────────────────────────────────── -->
  <line x1="0" y1="604" x2="1200" y2="604" stroke="#0e1a28" stroke-width="1"/>
  <text x="28" y="622" font-family="Arial,sans-serif" font-size="11"
        fill="#1f2937" letter-spacing="1">tech.2twodragon.com</text>

  <!-- Top-right hex grid texture -->
  <g opacity="0.08" stroke="#60a5fa" stroke-width="0.8" fill="none">
    <polygon points="1097,18  1113,9  1129,18  1129,36  1113,45  1097,36"/>
    <polygon points="1129,18  1145,9  1161,18  1161,36  1145,45  1129,36"/>
    <polygon points="1161,18  1177,9  1193,18  1193,36  1177,45  1161,36"/>
    <polygon points="1113,45  1129,36 1145,45  1145,63  1129,72  1113,63"/>
    <polygon points="1145,45  1161,36 1177,45  1177,63  1161,72  1145,63"/>
    <polygon points="1097,36  1113,45 1113,63  1097,72  1081,63  1081,45"/>
    <polygon points="1129,72  1145,63 1161,72  1161,90  1145,99  1129,90"/>
    <polygon points="1113,63  1129,72 1129,90  1113,99  1097,90  1097,72"/>
  </g>
</svg>
