<svg xmlns="http://www.w3.org/2000/svg" viewBox="0 0 1200 630">
  <defs>
    <linearGradient id="bg" x1="0%" y1="0%" x2="100%" y2="100%">
      <stop offset="0%" style="stop-color:#0a0a1a"/>
      <stop offset="50%" style="stop-color:#1a0a0a"/>
      <stop offset="100%" style="stop-color:#0a0a2e"/>
    </linearGradient>
    <filter id="ambglow">
      <feGaussianBlur stdDeviation="25" result="blur"/>
      <feMerge><feMergeNode in="blur"/><feMergeNode in="SourceGraphic"/></feMerge>
    </filter>
    <filter id="textglow">
      <feGaussianBlur stdDeviation="4" result="blur"/>
      <feMerge><feMergeNode in="blur"/><feMergeNode in="SourceGraphic"/></feMerge>
    </filter>
    <filter id="crackglow">
      <feGaussianBlur stdDeviation="6" result="blur"/>
      <feMerge><feMergeNode in="blur"/><feMergeNode in="SourceGraphic"/></feMerge>
    </filter>
  </defs>

  <!-- Background -->
  <rect width="1200" height="630" fill="url(#bg)"/>

  <!-- Ambient glow circles -->
  <circle cx="600" cy="300" r="250" fill="#ef4444" opacity="0.07" filter="url(#ambglow)"/>
  <circle cx="200" cy="200" r="170" fill="#3b82f6" opacity="0.07" filter="url(#ambglow)"/>
  <circle cx="1000" cy="400" r="190" fill="#ef4444" opacity="0.06" filter="url(#ambglow)"/>
  <circle cx="920" cy="140" r="130" fill="#3b82f6" opacity="0.06" filter="url(#ambglow)"/>

  <!-- Floating code fragments -->
  <text x="52" y="98" font-family="monospace" font-size="12" fill="#ef4444" opacity="0.13">bitlocker.bypass(tpm)</text>
  <text x="945" y="88" font-family="monospace" font-size="12" fill="#3b82f6" opacity="0.12">fbi.alert(cve)</text>
  <text x="65" y="558" font-family="monospace" font-size="12" fill="#3b82f6" opacity="0.12">route.leak.detect()</text>
  <text x="938" y="552" font-family="monospace" font-size="12" fill="#ef4444" opacity="0.13">docker.harden()</text>
  <text x="488" y="54" font-family="monospace" font-size="11" fill="#ef4444" opacity="0.10">exploit.run(target)</text>

  <!-- Top badge -->
  <rect x="40" y="32" width="175" height="32" rx="16" fill="#ef4444" opacity="0.18"/>
  <rect x="40" y="32" width="175" height="32" rx="16" fill="none" stroke="#ef4444" stroke-width="1" opacity="0.6"/>
  <text x="127" y="53" font-family="Arial,sans-serif" font-size="13" font-weight="bold" fill="#ef4444" text-anchor="middle">WEEKLY DIGEST</text>
  <text x="1160" y="53" font-family="Arial,sans-serif" font-size="13" fill="#94a3b8" text-anchor="end">January 24, 2026</text>

  <!-- CENTRAL ILLUSTRATION: Large padlock being cracked open -->

  <!-- Lock body (BitLocker blue) - very large, centered -->
  <rect x="440" y="185" width="320" height="265" rx="32" fill="#0f1e36" stroke="#3b82f6" stroke-width="3.5" opacity="0.97"/>
  <rect x="440" y="185" width="320" height="265" rx="32" fill="#3b82f6" opacity="0.08"/>

  <!-- Shackle arch (top of lock) -->
  <path d="M510 192 Q510 108 600 108 Q690 108 690 192" fill="none" stroke="#3b82f6" stroke-width="20" stroke-linecap="round" opacity="0.85"/>
  <!-- Shackle gap on right (being forced) -->
  <path d="M685 155 Q710 128 730 118" fill="none" stroke="#ef4444" stroke-width="5" stroke-dasharray="9,5" opacity="0.85"/>

  <!-- Keyhole -->
  <circle cx="600" cy="295" r="34" fill="#060e18" stroke="#3b82f6" stroke-width="2.5" opacity="0.9"/>
  <rect x="591" y="295" width="18" height="42" rx="4" fill="#060e18"/>

  <!-- Major crack lines across the lock body -->
  <path d="M500 220 L548 290 L520 338 L568 400 L542 445" fill="none" stroke="#ef4444" stroke-width="3.5" opacity="0.95" filter="url(#crackglow)"/>
  <path d="M535 238 L562 285 L545 318 L575 368" fill="none" stroke="#ef4444" stroke-width="2" opacity="0.65"/>
  <path d="M625 210 L610 265 L630 290 L618 355" fill="none" stroke="#ef4444" stroke-width="1.8" opacity="0.50"/>

  <!-- Red crowbar forcing the right side of the lock -->
  <rect x="695" y="145" width="20" height="175" rx="7" fill="#ef4444" opacity="0.92" transform="rotate(28 705 232)"/>
  <rect x="760" y="130" width="16" height="46" rx="5" fill="#ef4444" opacity="0.88" transform="rotate(28 768 153)"/>

  <!-- Data leaking out from cracks (left side) -->
  <rect x="418" y="328" width="28" height="9" rx="3" fill="#3b82f6" opacity="0.78" transform="rotate(-18 432 332)"/>
  <rect x="400" y="350" width="22" height="7" rx="3" fill="#94a3b8" opacity="0.62" transform="rotate(-22 411 353)"/>
  <rect x="414" y="372" width="26" height="8" rx="3" fill="#3b82f6" opacity="0.58" transform="rotate(-12 427 376)"/>
  <rect x="396" y="395" width="20" height="7" rx="3" fill="#ef4444" opacity="0.52" transform="rotate(-26 406 398)"/>
  <rect x="410" y="307" width="24" height="8" rx="3" fill="#94a3b8" opacity="0.60" transform="rotate(-14 422 311)"/>
  <rect x="392" y="415" width="18" height="6" rx="3" fill="#3b82f6" opacity="0.48" transform="rotate(-20 401 418)"/>

  <!-- Warning triangles around the lock -->
  <polygon points="155,208 200,285 110,285" fill="none" stroke="#ef4444" stroke-width="2.5" opacity="0.82"/>
  <line x1="155" y1="228" x2="155" y2="262" stroke="#ef4444" stroke-width="2.5" opacity="0.82"/>
  <circle cx="155" cy="272" r="3" fill="#ef4444" opacity="0.82"/>

  <polygon points="1045,172 1090,249 1000,249" fill="none" stroke="#ef4444" stroke-width="2.5" opacity="0.82"/>
  <line x1="1045" y1="192" x2="1045" y2="226" stroke="#ef4444" stroke-width="2.5" opacity="0.82"/>
  <circle cx="1045" cy="236" r="3" fill="#ef4444" opacity="0.82"/>

  <polygon points="170,388 208,452 132,452" fill="none" stroke="#ef4444" stroke-width="2" opacity="0.58"/>
  <line x1="170" y1="406" x2="170" y2="434" stroke="#ef4444" stroke-width="2" opacity="0.58"/>
  <circle cx="170" cy="442" r="3" fill="#ef4444" opacity="0.58"/>

  <polygon points="1030,358 1068,422 992,422" fill="none" stroke="#ef4444" stroke-width="2" opacity="0.58"/>
  <line x1="1030" y1="376" x2="1030" y2="404" stroke="#ef4444" stroke-width="2" opacity="0.58"/>
  <circle cx="1030" cy="412" r="3" fill="#ef4444" opacity="0.58"/>

  <!-- Title and subtitle -->
  <text x="600" y="512" font-family="Arial,sans-serif" font-size="36" font-weight="bold" fill="white" text-anchor="middle" filter="url(#textglow)">BitLocker Bypass Threat</text>
  <text x="600" y="542" font-family="Arial,sans-serif" font-size="16" fill="#94a3b8" text-anchor="middle">FBI Warning | Cloudflare Route Leak | Docker Enterprise | Agentic AI</text>

  <!-- Footer -->
  <line x1="40" y1="585" x2="1160" y2="585" stroke="#334155" stroke-width="1" opacity="0.6"/>
  <text x="600" y="610" font-family="Arial,sans-serif" font-size="13" fill="#64748b" text-anchor="middle">22 News | 6 Security | 4 AI/ML | 3 Cloud | 3 DevOps</text>
  <text x="1160" y="610" font-family="Arial,sans-serif" font-size="12" fill="#475569" text-anchor="end">tech.2twodragon.com</text>
</svg>
