<svg xmlns="http://www.w3.org/2000/svg" viewBox="0 0 1200 630" fill="none">
  <defs>
    <linearGradient id="bg" x1="0" y1="0" x2="1200" y2="630">
      <stop offset="0%" stop-color="#0f172a"/><stop offset="50%" stop-color="#1e293b"/><stop offset="100%" stop-color="#0f172a"/>
    </linearGradient>
    <linearGradient id="accent" x1="0" y1="0" x2="1" y2="1">
      <stop offset="0%" stop-color="#ef4444"/><stop offset="100%" stop-color="#dc2626"/>
    </linearGradient>
  </defs>
  <rect width="1200" height="630" fill="url(#bg)"/>
  <g opacity="0.05" stroke="#94a3b8" stroke-width="1">
    <line x1="0" y1="100" x2="1200" y2="100"/><line x1="0" y1="200" x2="1200" y2="200"/>
    <line x1="0" y1="300" x2="1200" y2="300"/><line x1="0" y1="400" x2="1200" y2="400"/>
    <line x1="0" y1="500" x2="1200" y2="500"/><line x1="200" y1="0" x2="200" y2="630"/>
    <line x1="400" y1="0" x2="400" y2="630"/><line x1="600" y1="0" x2="600" y2="630"/>
    <line x1="800" y1="0" x2="800" y2="630"/><line x1="1000" y1="0" x2="1000" y2="630"/>
  </g>
  <!-- Sandbox escape icon -->
  <g transform="translate(80, 180)">
    <rect x="0" y="0" width="120" height="120" rx="20" fill="url(#accent)" opacity="0.9"/>
    <rect x="20" y="25" width="80" height="60" rx="4" fill="none" stroke="white" stroke-width="2" stroke-dasharray="5,3"/>
    <path d="M60 85 L60 50 L45 65" fill="none" stroke="white" stroke-width="3" stroke-linecap="round"/>
    <path d="M60 50 L75 65" fill="none" stroke="white" stroke-width="3" stroke-linecap="round"/>
    <text x="60" y="110" text-anchor="middle" fill="white" font-family="Arial, sans-serif" font-size="10" font-weight="bold">ESCAPE</text>
  </g>
  <!-- Attack flow steps -->
  <g transform="translate(80, 370)">
    <rect x="0" y="0" width="120" height="24" rx="4" fill="#7f1d1d" stroke="#ef4444" stroke-width="1"/>
    <text x="60" y="16" text-anchor="middle" fill="#fca5a5" font-family="monospace" font-size="9">1. Inject Code</text>
    <path d="M60 24 L60 32" stroke="#ef4444" stroke-width="1.5"/>
    <rect x="0" y="32" width="120" height="24" rx="4" fill="#7f1d1d" stroke="#ef4444" stroke-width="1"/>
    <text x="60" y="48" text-anchor="middle" fill="#fca5a5" font-family="monospace" font-size="9">2. Bypass VM</text>
    <path d="M60 56 L60 64" stroke="#ef4444" stroke-width="1.5"/>
    <rect x="0" y="64" width="120" height="24" rx="4" fill="#7f1d1d" stroke="#ef4444" stroke-width="1"/>
    <text x="60" y="80" text-anchor="middle" fill="#fca5a5" font-family="monospace" font-size="9">3. Host Access</text>
    <path d="M60 88 L60 96" stroke="#ef4444" stroke-width="1.5"/>
    <rect x="0" y="96" width="120" height="24" rx="4" fill="#7f1d1d" stroke="#ef4444" stroke-width="1"/>
    <text x="60" y="112" text-anchor="middle" fill="#fca5a5" font-family="monospace" font-size="9">4. RCE</text>
  </g>
  <g transform="translate(260, 100)">
    <text x="0" y="0" fill="#f8fafc" font-family="Arial, sans-serif" font-size="18" font-weight="bold" letter-spacing="4">VULNERABILITY ANALYSIS</text>
    <text x="0" y="60" fill="#f8fafc" font-family="Arial, sans-serif" font-size="42" font-weight="bold">n8n Sandbox Escape</text>
    <text x="0" y="110" fill="#94a3b8" font-family="Arial, sans-serif" font-size="36" font-weight="300">Attack Flow Analysis</text>
  </g>
  <rect x="260" y="240" width="200" height="36" rx="18" fill="url(#accent)" opacity="0.9"/>
  <text x="360" y="264" text-anchor="middle" fill="white" font-family="Arial, sans-serif" font-size="16" font-weight="bold">January 29, 2026</text>
  <g transform="translate(260, 310)">
    <rect x="0" y="0" width="200" height="90" rx="8" fill="#1e293b" stroke="#334155" stroke-width="1"/>
    <text x="20" y="30" fill="#f87171" font-family="Arial, sans-serif" font-size="12" font-weight="bold">CVSS SCORE</text>
    <text x="20" y="65" fill="#f8fafc" font-family="Arial, sans-serif" font-size="32" font-weight="bold">9.8</text>
    <text x="80" y="65" fill="#64748b" font-family="Arial, sans-serif" font-size="14">Critical</text>
    <rect x="220" y="0" width="200" height="90" rx="8" fill="#1e293b" stroke="#334155" stroke-width="1"/>
    <text x="240" y="30" fill="#fb923c" font-family="Arial, sans-serif" font-size="12" font-weight="bold">AFFECTED</text>
    <text x="240" y="65" fill="#f8fafc" font-family="Arial, sans-serif" font-size="32" font-weight="bold">All</text>
    <text x="300" y="65" fill="#64748b" font-family="Arial, sans-serif" font-size="14">versions</text>
    <rect x="440" y="0" width="200" height="90" rx="8" fill="#1e293b" stroke="#334155" stroke-width="1"/>
    <text x="460" y="30" fill="#818cf8" font-family="Arial, sans-serif" font-size="12" font-weight="bold">IMPACT</text>
    <text x="460" y="65" fill="#f8fafc" font-family="Arial, sans-serif" font-size="32" font-weight="bold">RCE</text>
    <text x="530" y="65" fill="#64748b" font-family="Arial, sans-serif" font-size="14">on host</text>
  </g>
  <g transform="translate(260, 440)">
    <rect x="0" y="0" width="130" height="32" rx="16" fill="#7f1d1d" opacity="0.7"/>
    <text x="65" y="21" text-anchor="middle" fill="#fca5a5" font-family="Arial, sans-serif" font-size="13">CVE</text>
    <rect x="145" y="0" width="130" height="32" rx="16" fill="#7c2d12" opacity="0.7"/>
    <text x="210" y="21" text-anchor="middle" fill="#fdba74" font-family="Arial, sans-serif" font-size="13">Sandbox</text>
    <rect x="290" y="0" width="130" height="32" rx="16" fill="#312e81" opacity="0.7"/>
    <text x="355" y="21" text-anchor="middle" fill="#a5b4fc" font-family="Arial, sans-serif" font-size="13">n8n</text>
    <rect x="435" y="0" width="160" height="32" rx="16" fill="#064e3b" opacity="0.7"/>
    <text x="515" y="21" text-anchor="middle" fill="#6ee7b7" font-family="Arial, sans-serif" font-size="13">Automation</text>
  </g>
  <g transform="translate(900, 180)" opacity="0.4">
    <circle cx="50" cy="50" r="6" fill="#f87171"/><circle cx="120" cy="30" r="4" fill="#fb923c"/>
    <circle cx="150" cy="90" r="5" fill="#818cf8"/><circle cx="80" cy="120" r="4" fill="#34d399"/>
    <circle cx="200" cy="60" r="3" fill="#f87171"/><circle cx="30" cy="150" r="5" fill="#fb923c"/>
    <circle cx="180" cy="140" r="4" fill="#818cf8"/>
    <line x1="50" y1="50" x2="120" y2="30" stroke="#475569" stroke-width="1"/>
    <line x1="50" y1="50" x2="80" y2="120" stroke="#475569" stroke-width="1"/>
    <line x1="120" y1="30" x2="150" y2="90" stroke="#475569" stroke-width="1"/>
    <line x1="150" y1="90" x2="200" y2="60" stroke="#475569" stroke-width="1"/>
    <line x1="80" y1="120" x2="30" y2="150" stroke="#475569" stroke-width="1"/>
    <line x1="150" y1="90" x2="180" y2="140" stroke="#475569" stroke-width="1"/>
  </g>
  <rect x="0" y="510" width="1200" height="120" fill="#0f172a" opacity="0.8"/>
  <rect x="0" y="510" width="1200" height="2" fill="url(#accent)" opacity="0.5"/>
  <text x="80" y="560" fill="#94a3b8" font-family="Arial, sans-serif" font-size="16">tech.2twodragon.com</text>
  <text x="80" y="590" fill="#64748b" font-family="Arial, sans-serif" font-size="13">n8n Sandbox Escape Vulnerability Analysis</text>
  <text x="1120" y="560" text-anchor="end" fill="#64748b" font-family="Arial, sans-serif" font-size="14">Critical Vulnerability</text>
  <text x="1120" y="590" text-anchor="end" fill="#64748b" font-family="Arial, sans-serif" font-size="13">CVE | Sandbox | RCE | Security</text>
</svg>