<svg xmlns="http://www.w3.org/2000/svg" viewBox="0 0 1200 630">
  <defs>
    <linearGradient id="bg" x1="0" y1="0" x2="1" y2="1">
      <stop offset="0%" stop-color="#09101c"/>
      <stop offset="100%" stop-color="#171225"/>
    </linearGradient>
    <filter id="glow" x="-40%" y="-40%" width="180%" height="180%"><feGaussianBlur stdDeviation="20"/></filter>
  </defs>
  <rect width="1200" height="630" fill="url(#bg)"/>
  <circle cx="220" cy="150" r="170" fill="#f59e0b" opacity="0.11" filter="url(#glow)"/>
  <circle cx="980" cy="470" r="180" fill="#06b6d4" opacity="0.10" filter="url(#glow)"/>
  <text x="60" y="70" fill="#e2e8f0" font-size="34" font-family="Georgia, serif">Token Forensics Grid</text>
  <text x="60" y="104" fill="#94a3b8" font-size="18" font-family="Georgia, serif">Mar 16</text>
  <line x1="300" y1="315" x2="520" y2="315" stroke="#f59e0b" stroke-width="4" stroke-dasharray="10 10"/>
  <line x1="680" y1="315" x2="900" y2="315" stroke="#06b6d4" stroke-width="4" stroke-dasharray="10 10"/>
  <g transform="translate(140,235)">
    <rect width="180" height="160" rx="24" fill="#0f172a" stroke="#f59e0b" stroke-width="3"/>
    <circle cx="90" cy="80" r="34" fill="none" stroke="#f59e0b" stroke-width="3"/>
    <path d="M90 46 v68 M60 80 h60" stroke="#f59e0b" stroke-width="3" stroke-linecap="round"/>
  </g>
  <text x="230" y="430" text-anchor="middle" fill="#e2e8f0" font-size="18" font-family="Georgia, serif">Libra Trace</text>
  <g transform="translate(510,235)">
    <circle cx="90" cy="80" r="80" fill="#0f172a" stroke="#8b5cf6" stroke-width="3"/>
    <path d="M58 100 h64 M70 64 h40" fill="none" stroke="#8b5cf6" stroke-width="3" stroke-linecap="round"/>
  </g>
  <text x="600" y="430" text-anchor="middle" fill="#e2e8f0" font-size="18" font-family="Georgia, serif">Stablecoin</text>
  <g transform="translate(880,235)">
    <path d="M90 18 L150 58 L126 142 L54 142 L30 58 Z" fill="#0f172a" stroke="#06b6d4" stroke-width="3"/>
    <path d="M56 100 h68 M72 64 h36 l18 18 l-18 18" fill="none" stroke="#06b6d4" stroke-width="3" stroke-linecap="round" stroke-linejoin="round"/>
  </g>
  <text x="970" y="430" text-anchor="middle" fill="#e2e8f0" font-size="18" font-family="Georgia, serif">Market Flux</text>
</svg>
