<svg xmlns="http://www.w3.org/2000/svg" viewBox="0 0 1200 630" width="1200" height="630">
  <title>OWASP 2025 Latest Update Complete Guide: Top 10 a...</title>
  <defs>
    <linearGradient id="bg" x1="0%" y1="0%" x2="100%" y2="100%">
      <stop offset="0%" stop-color="#0b0e1a"/>
      <stop offset="50%" stop-color="#111827"/>
      <stop offset="100%" stop-color="#0f0a1e"/>
    </linearGradient>
    <linearGradient id="accent" x1="0%" y1="0%" x2="100%" y2="100%">
      <stop offset="0%" stop-color="#ef4444"/>
      <stop offset="100%" stop-color="#f59e0b"/>
    </linearGradient>
    <filter id="glow"><feGaussianBlur stdDeviation="4" result="b"/><feMerge><feMergeNode in="b"/><feMergeNode in="SourceGraphic"/></feMerge></filter>
    <filter id="sg"><feGaussianBlur stdDeviation="30"/></filter>
    <filter id="shadow"><feDropShadow dx="0" dy="6" stdDeviation="12" flood-color="#000" flood-opacity="0.4"/></filter>
  </defs>
  <rect width="1200" height="630" fill="url(#bg)"/>
  <circle cx="200" cy="200" r="250" fill="#ef4444" opacity="0.06" filter="url(#sg)"/>
  <circle cx="900" cy="400" r="200" fill="#f59e0b" opacity="0.05" filter="url(#sg)"/>
  <g transform="translate(600,270)">
    <rect x="30" y="-110" width="266.0" height="22" rx="4" fill="#ef4444" opacity="0.3"/>
    <rect x="30" y="-110" width="266.0" height="22" rx="4" fill="#ef4444" opacity="0.15"/>
    <text x="301.0" y="-95" font-family="Courier New" font-size="10" fill="#ef4444">95%</text>
    <rect x="30" y="-58" width="246.39999999999998" height="22" rx="4" fill="#f97316" opacity="0.3"/>
    <rect x="30" y="-58" width="246.39999999999998" height="22" rx="4" fill="#f97316" opacity="0.15"/>
    <text x="281.4" y="-43" font-family="Courier New" font-size="10" fill="#f97316">88%</text>
    <rect x="30" y="-6" width="229.6" height="22" rx="4" fill="#f59e0b" opacity="0.3"/>
    <rect x="30" y="-6" width="229.6" height="22" rx="4" fill="#f59e0b" opacity="0.15"/>
    <text x="264.6" y="9" font-family="Courier New" font-size="10" fill="#f59e0b">82%</text>
    <rect x="30" y="46" width="212.79999999999998" height="22" rx="4" fill="#eab308" opacity="0.3"/>
    <rect x="30" y="46" width="212.79999999999998" height="22" rx="4" fill="#eab308" opacity="0.15"/>
    <text x="247.79999999999998" y="61" font-family="Courier New" font-size="10" fill="#eab308">76%</text>
    <rect x="30" y="98" width="196.0" height="22" rx="4" fill="#22c55e" opacity="0.3"/>
    <rect x="30" y="98" width="196.0" height="22" rx="4" fill="#22c55e" opacity="0.15"/>
    <text x="231.0" y="113" font-family="Courier New" font-size="10" fill="#22c55e">70%</text>
    <line x1="-250" y1="-120" x2="300" y2="-120" stroke="#334155" stroke-width="1" opacity="0.5"/>
  </g>

  <text x="600" y="490" font-family="Arial,sans-serif" font-size="28" font-weight="bold" fill="white" text-anchor="middle" filter="url(#glow)">OWASP 2025 Complete Guide Top 10 AI Security</text>
  <text x="600" y="555" font-family="Arial,sans-serif" font-size="15" fill="#94a3b8" text-anchor="middle">OWASP | Security | Top10 | AI</text>
  <rect x="40" y="22" width="140" height="32" rx="16" fill="#ef4444" opacity="0.25" stroke="#ef4444" stroke-width="1"/>
  <text x="110" y="44" font-family="Arial,sans-serif" font-size="13" font-weight="bold" fill="#ef4444" text-anchor="middle">SECURITY</text>
  <rect x="1020" y="22" width="140" height="32" rx="16" fill="#3b82f6" opacity="0.2" stroke="#3b82f6" stroke-width="1"/>
  <text x="1090" y="44" font-family="Arial,sans-serif" font-size="13" font-weight="bold" fill="#93c5fd" text-anchor="middle">January 03, 2026</text>
  <line x1="50" y1="588" x2="1150" y2="588" stroke="#334155" stroke-width="1" opacity="0.5"/>
  <text x="1150" y="612" font-family="Arial,sans-serif" font-size="13" fill="#94a3b8" text-anchor="end">tech.2twodragon.com</text>
</svg>