<svg xmlns="http://www.w3.org/2000/svg" width="1200" height="630" viewBox="0 0 1200 630">
  <title>April 2026 Week 1 Security Digest Rollup</title>
  <defs>
    <linearGradient id="bg" x1="0%" y1="0%" x2="100%" y2="100%">
      <stop offset="0%" stop-color="#0a0e1a"/>
      <stop offset="60%" stop-color="#0f1628"/>
      <stop offset="100%" stop-color="#141b2d"/>
    </linearGradient>
    <linearGradient id="hg" x1="0%" y1="0%" x2="100%" y2="0%">
      <stop offset="0%" stop-color="#1e293b"/>
      <stop offset="100%" stop-color="#0f172a"/>
    </linearGradient>
    <linearGradient id="weekBadge" x1="0%" y1="0%" x2="100%" y2="0%">
      <stop offset="0%" stop-color="#2563eb"/>
      <stop offset="100%" stop-color="#7c3aed"/>
    </linearGradient>
    <filter id="glow" x="-50%" y="-50%" width="200%" height="200%">
      <feGaussianBlur stdDeviation="20"/>
    </filter>
  </defs>

  <rect width="1200" height="630" fill="url(#bg)"/>

  <g opacity="0.04" stroke="#94a3b8" stroke-width="0.5">
    <line x1="0" y1="105" x2="1200" y2="105"/><line x1="0" y1="210" x2="1200" y2="210"/>
    <line x1="0" y1="315" x2="1200" y2="315"/><line x1="0" y1="420" x2="1200" y2="420"/>
    <line x1="0" y1="525" x2="1200" y2="525"/>
    <line x1="240" y1="0" x2="240" y2="630"/><line x1="480" y1="0" x2="480" y2="630"/>
    <line x1="720" y1="0" x2="720" y2="630"/><line x1="960" y1="0" x2="960" y2="630"/>
  </g>

  <circle cx="200" cy="300" r="200" fill="#3b82f6" opacity="0.07" filter="url(#glow)"/>
  <circle cx="600" cy="350" r="180" fill="#8b5cf6" opacity="0.06" filter="url(#glow)"/>
  <circle cx="1000" cy="300" r="200" fill="#22c55e" opacity="0.06" filter="url(#glow)"/>

  <rect x="0" y="0" width="1200" height="80" fill="url(#hg)" opacity="0.95"/>
  <rect x="0" y="78" width="1200" height="2" fill="#334155" opacity="0.8"/>
  <g transform="translate(48,40)">
    <path d="M0,-22 L18,-12 L18,3 C18,13 10,20 0,24 C-10,20 -18,13 -18,3 L-18,-12 Z" fill="#1e3a5f" stroke="#3b82f6" stroke-width="1.5"/>
    <path d="M-7,1 L-2,6 L8,-5" stroke="#3b82f6" stroke-width="2.5" fill="none" stroke-linecap="round"/>
  </g>
  <text x="80" y="44" font-family="Arial,sans-serif" font-size="26" font-weight="700" fill="#f1f5f9">Security Weekly Digest Rollup</text>
  <rect x="990" y="18" width="178" height="44" rx="6" fill="url(#weekBadge)"/>
  <text x="1079" y="48" font-family="Arial,sans-serif" font-size="15" font-weight="700" fill="#f8fafc" text-anchor="middle">Week 1 - Apr 2026</text>

  <text x="600" y="148" font-family="Arial,sans-serif" font-size="42" font-weight="800" fill="#f1f5f9" text-anchor="middle">April 1 - 5, 2026</text>
  <text x="600" y="186" font-family="Arial,sans-serif" font-size="20" font-weight="500" fill="#94a3b8" text-anchor="middle">5 Daily Digests Consolidated</text>

  <rect x="32" y="220" width="220" height="120" rx="8" fill="#1a0505" stroke="#ef4444" stroke-width="1.5"/>
  <circle cx="52" cy="240" r="6" fill="#ef4444"/>
  <g transform="translate(142,268)">
    <path d="M-16,0 L-8,-10 L8,-10 L16,0 L8,10 L-8,10 Z" fill="none" stroke="#ef4444" stroke-width="2"/>
    <circle cx="0" cy="0" r="3" fill="#ef4444"/>
  </g>
  <text x="142" y="317" font-family="Arial,sans-serif" font-size="13" font-weight="700" fill="#ef4444" text-anchor="middle">SUPPLY CHAIN</text>

  <rect x="268" y="220" width="220" height="120" rx="8" fill="#1a0d0d" stroke="#f59e0b" stroke-width="1.5"/>
  <circle cx="288" cy="240" r="6" fill="#f59e0b"/>
  <g transform="translate(378,268)">
    <path d="M0,-12 L12,12 L-12,12 Z" fill="none" stroke="#f59e0b" stroke-width="2"/>
    <line x1="0" y1="-2" x2="0" y2="6" stroke="#f59e0b" stroke-width="2"/>
    <circle cx="0" cy="9" r="1.5" fill="#f59e0b"/>
  </g>
  <text x="378" y="317" font-family="Arial,sans-serif" font-size="13" font-weight="700" fill="#f59e0b" text-anchor="middle">ZERO-DAY</text>

  <rect x="504" y="220" width="220" height="120" rx="8" fill="#071a10" stroke="#22c55e" stroke-width="1.5"/>
  <circle cx="524" cy="240" r="6" fill="#22c55e"/>
  <g transform="translate(614,268)">
    <path d="M-16,8 C-24,8 -26,-2 -20,-8 C-18,-18 -6,-22 4,-18 C8,-26 20,-26 24,-16 C30,-16 32,-8 28,0 C26,8 16,8 8,8 Z" fill="none" stroke="#22c55e" stroke-width="2" transform="scale(0.6)"/>
  </g>
  <text x="614" y="317" font-family="Arial,sans-serif" font-size="13" font-weight="700" fill="#22c55e" text-anchor="middle">AWS LZA</text>

  <rect x="740" y="220" width="200" height="120" rx="8" fill="#071a20" stroke="#22d3ee" stroke-width="1.5"/>
  <circle cx="760" cy="240" r="6" fill="#22d3ee"/>
  <g transform="translate(840,268)">
    <circle cx="-12" cy="-8" r="4" fill="none" stroke="#22d3ee" stroke-width="1.6"/>
    <circle cx="12" cy="-8" r="4" fill="none" stroke="#22d3ee" stroke-width="1.6"/>
    <circle cx="0" cy="8" r="5" fill="none" stroke="#22d3ee" stroke-width="1.8"/>
    <line x1="-8" y1="-6" x2="-2" y2="6" stroke="#22d3ee" stroke-width="1.2" opacity="0.7"/>
    <line x1="8" y1="-6" x2="2" y2="6" stroke="#22d3ee" stroke-width="1.2" opacity="0.7"/>
  </g>
  <text x="840" y="317" font-family="Arial,sans-serif" font-size="13" font-weight="700" fill="#22d3ee" text-anchor="middle">AI AGENT</text>

  <rect x="956" y="220" width="212" height="120" rx="8" fill="#1a0a18" stroke="#ec4899" stroke-width="1.5"/>
  <circle cx="976" cy="240" r="6" fill="#ec4899"/>
  <g transform="translate(1062,268)">
    <path d="M-14,-6 L0,4 L14,-6 L14,8 L-14,8 Z" fill="none" stroke="#ec4899" stroke-width="2"/>
    <line x1="-14" y1="-6" x2="14" y2="-6" stroke="#ec4899" stroke-width="2"/>
  </g>
  <text x="1062" y="317" font-family="Arial,sans-serif" font-size="13" font-weight="700" fill="#ec4899" text-anchor="middle">PHISHING +37x</text>

  <rect x="32" y="362" width="1136" height="86" rx="10" fill="#0c1220" stroke="#1e293b" stroke-width="1"/>
  <text x="600" y="395" font-family="Arial,sans-serif" font-size="16" font-weight="600" fill="#cbd5e1" text-anchor="middle">CVE-2026-3502 TrueConf - Axios npm hijack - AWS ISO/IEC 27001:2022 - Device Code Phishing</text>
  <text x="600" y="425" font-family="Arial,sans-serif" font-size="14" font-weight="500" fill="#64748b" text-anchor="middle">5 daily threats consolidated for DevSecOps response patterns</text>

  <rect x="0" y="472" width="1200" height="158" fill="#080c18" opacity="0.95"/>
  <rect x="0" y="472" width="1200" height="2" fill="#1e293b"/>

  <rect x="32" y="490" width="128" height="24" rx="4" fill="#1a0505" stroke="#ef4444" stroke-width="1"/>
  <text x="96" y="506" font-family="Arial,sans-serif" font-size="10" font-weight="700" fill="#ef4444" text-anchor="middle">SUPPLY CHAIN</text>
  <rect x="170" y="490" width="100" height="24" rx="4" fill="#1a0d0d" stroke="#f59e0b" stroke-width="1"/>
  <text x="220" y="506" font-family="Arial,sans-serif" font-size="10" font-weight="700" fill="#f59e0b" text-anchor="middle">ZERO-DAY</text>
  <rect x="280" y="490" width="92" height="24" rx="4" fill="#071a10" stroke="#22c55e" stroke-width="1"/>
  <text x="326" y="506" font-family="Arial,sans-serif" font-size="10" font-weight="700" fill="#22c55e" text-anchor="middle">AWS LZA</text>
  <rect x="382" y="490" width="92" height="24" rx="4" fill="#071a20" stroke="#22d3ee" stroke-width="1"/>
  <text x="428" y="506" font-family="Arial,sans-serif" font-size="10" font-weight="700" fill="#22d3ee" text-anchor="middle">AI AGENT</text>
  <rect x="484" y="490" width="92" height="24" rx="4" fill="#1a0a18" stroke="#ec4899" stroke-width="1"/>
  <text x="530" y="506" font-family="Arial,sans-serif" font-size="10" font-weight="700" fill="#ec4899" text-anchor="middle">PHISHING</text>

  <text x="32" y="555" font-family="Arial,sans-serif" font-size="14" font-weight="500" fill="#94a3b8">Topics: Android Developer Verification - TrueConf 0day - AWS LZA - Axios npm - Device Code Phishing</text>

  <text x="32" y="600" font-family="Arial,sans-serif" font-size="13" font-weight="500" fill="#64748b">DevSecOps Threat Intelligence - April Week 1 Rollup</text>
  <text x="1168" y="600" font-family="Arial,sans-serif" font-size="13" font-weight="700" fill="#94a3b8" text-anchor="end">tech.2twodragon.com</text>
</svg>
