<svg xmlns="http://www.w3.org/2000/svg" viewBox="0 0 1200 630" width="1200" height="630" role="img" aria-label="Incident brief APR 20 2026 three-card infographic">
<title>Incident Brief APR 20 2026</title>

<defs>
  <linearGradient id="bg" x1="0%" y1="0%" x2="0%" y2="100%">
    <stop offset="0%" stop-color="#0B132B"/>
    <stop offset="100%" stop-color="#0A1020"/>
  </linearGradient>
  <linearGradient id="accentStripe" x1="0%" y1="0%" x2="100%" y2="0%">
    <stop offset="0%" stop-color="#3A86FF" stop-opacity="0"/>
    <stop offset="50%" stop-color="#3A86FF" stop-opacity="0.9"/>
    <stop offset="100%" stop-color="#3A86FF" stop-opacity="0"/>
  </linearGradient>
  <pattern id="dotGrid" x="0" y="0" width="32" height="32" patternUnits="userSpaceOnUse">
    <circle cx="16" cy="16" r="0.9" fill="#2A3256" opacity="0.5"/>
  </pattern>
</defs>
<rect width="1200" height="630" fill="url(#bg)"/>
<rect width="1200" height="630" fill="url(#dotGrid)"/>
<!-- Accent stripe animated under header -->
<rect x="0" y="120" width="1200" height="2" fill="url(#accentStripe)" opacity="0.85">
  <animate attributeName="opacity" values="0.5;1;0.5" dur="5.2s" repeatCount="indefinite"/>
</rect>
<rect x="0" y="598" width="1200" height="2" fill="url(#accentStripe)" opacity="0.7">
  <animate attributeName="opacity" values="0.35;0.85;0.35" dur="6.1s" repeatCount="indefinite"/>
</rect>

<g>
  <rect x="48" y="36" width="1104" height="84" rx="14" ry="14"
        fill="#1C2541" opacity="0.78"/>
  <rect x="48" y="36" width="1104" height="84" rx="14" ry="14"
        fill="none" stroke="#3A86FF" stroke-width="1.2" opacity="0.55"/>
  <!-- logo dot (identity only) -->
  <circle cx="80" cy="78" r="12" fill="#3A86FF" opacity="0.9">
    <animate attributeName="opacity" values="0.9;0.55;0.9" dur="3.2s" repeatCount="indefinite"/>
  </circle>
  <circle cx="80" cy="78" r="5" fill="#FFB703">
    <animate attributeName="r" values="5;6.4;5" dur="2.6s" repeatCount="indefinite"/>
  </circle>
  <!-- Date chip (right) -->
  <rect x="1020" y="58" width="120" height="40" rx="8" ry="8"
        fill="#0B132B" stroke="#FFB703" stroke-width="1.4" opacity="0.95"/>
  <text x="1080" y="84" font-family="Inter,Segoe UI,Arial,sans-serif"
        font-size="18" font-weight="800" fill="#FFB703"
        text-anchor="middle" letter-spacing="2">APR 20 2026</text>
  <!-- Middle title (44px) -->
  <text x="600" y="90" font-family="Inter,Segoe UI,Arial,sans-serif"
        font-size="44" font-weight="800" fill="#E7ECF4"
        text-anchor="middle" letter-spacing="3">INCIDENT BRIEF</text>
</g>
<rect x="48" y="148" width="336" height="430" rx="18" ry="18" fill="#1C2541" stroke="#3A86FF" stroke-width="1.6" opacity="0.96"/>
<rect x="66" y="166" width="56" height="3" fill="#3A86FF" rx="1.5"/>
<rect x="408" y="148" width="336" height="430" rx="18" ry="18" fill="#1C2541" stroke="#FFB703" stroke-width="1.6" opacity="0.96"/>
<rect x="426" y="166" width="56" height="3" fill="#FFB703" rx="1.5"/>
<rect x="768" y="148" width="336" height="430" rx="18" ry="18" fill="#1C2541" stroke="#E63946" stroke-width="1.6" opacity="0.96"/>
<rect x="786" y="166" width="56" height="3" fill="#E63946" rx="1.5"/>

<g transform="translate(96,222)">
  <!-- iOS notification rounded rect -->
  <rect x="-28" y="-20" width="56" height="40" rx="10" ry="10"
        fill="none" stroke="#3A86FF" stroke-width="2.4" opacity="0.92"/>
  <circle cx="20" cy="-20" r="6" fill="#E63946">
    <animate attributeName="r" values="6;7.2;6" dur="2.6s" repeatCount="indefinite"/>
    <animate attributeName="opacity" values="1;0.55;1" dur="2.6s" repeatCount="indefinite"/>
  </circle>
  <text x="20" y="-17" font-family="Inter,Segoe UI,Arial,sans-serif"
        font-size="9" font-weight="700" fill="#0B132B" text-anchor="middle">!</text>
  <rect x="-18" y="-10" width="36" height="3" rx="1.5" fill="#E7ECF4" opacity="0.75"/>
  <rect x="-18" y="-2" width="28" height="3" rx="1.5" fill="#8B94A8" opacity="0.65"/>
  <rect x="-18" y="6" width="22" height="3" rx="1.5" fill="#8B94A8" opacity="0.5"/>
  <!-- Fishhook swinging below badge -->
  <g transform="translate(0,34)">
    <animateTransform attributeName="transform" type="rotate"
                      values="-5 0 0; 5 0 0; -5 0 0"
                      dur="3.2s" repeatCount="indefinite" additive="sum"/>
    <line x1="0" y1="-14" x2="0" y2="6" stroke="#FFB703" stroke-width="2.2"/>
    <path d="M 0 6 Q 0 16 -8 16 Q -14 16 -14 10" fill="none"
          stroke="#FFB703" stroke-width="2.2" stroke-linecap="round"/>
    <circle cx="-14" cy="10" r="2.2" fill="#FFB703"/>
  </g>
</g>

<g transform="translate(456,222)">
  <!-- CVE tag -->
  <path d="M -30 -18 L 16 -18 L 30 -6 L 16 6 L -30 6 Z"
        fill="none" stroke="#FFB703" stroke-width="2.2" opacity="0.95"/>
  <circle cx="-20" cy="-6" r="2.4" fill="#FFB703"/>
  <text x="-4" y="-2" font-family="Inter,Segoe UI,Arial,sans-serif"
        font-size="10" font-weight="700" fill="#FFB703" text-anchor="middle">CVE</text>
  <!-- Priority slider: track + thumb drifting down -->
  <line x1="-22" y1="14" x2="-22" y2="42" stroke="#8B94A8" stroke-width="2"
        opacity="0.5"/>
  <line x1="-22" y1="14" x2="-22" y2="42" stroke="#FFB703" stroke-width="2.4"
        opacity="0.8" stroke-dasharray="4 3"/>
  <rect x="-28" y="18" width="12" height="6" rx="2" fill="#FFB703">
    <animate attributeName="y" values="18;32;18" dur="4.0s" repeatCount="indefinite"/>
    <animate attributeName="opacity" values="0.95;0.55;0.95" dur="4.0s" repeatCount="indefinite"/>
  </rect>
  <!-- Arrow head -->
  <path d="M -26 46 L -22 52 L -18 46" fill="none" stroke="#FFB703"
        stroke-width="2" stroke-linecap="round" stroke-linejoin="round"/>
  <!-- Tier labels -->
  <text x="-10" y="20" font-family="Inter,Segoe UI,Arial,sans-serif" font-size="8"
        fill="#8B94A8">high</text>
  <text x="-10" y="32" font-family="Inter,Segoe UI,Arial,sans-serif" font-size="8"
        fill="#8B94A8">med</text>
  <text x="-10" y="44" font-family="Inter,Segoe UI,Arial,sans-serif" font-size="8"
        fill="#8B94A8" opacity="0.5">low</text>
</g>

<g transform="translate(816,222)">
  <!-- Monolith column -->
  <rect x="-24" y="-28" width="20" height="56" fill="none" stroke="#E63946"
        stroke-width="2.2" opacity="0.95"/>
  <line x1="-24" y1="-16" x2="-4" y2="-16" stroke="#E63946" stroke-width="1.2"
        opacity="0.75"/>
  <line x1="-24" y1="-4" x2="-4" y2="-4" stroke="#E63946" stroke-width="1.2"
        opacity="0.75"/>
  <line x1="-24" y1="8" x2="-4" y2="8" stroke="#E63946" stroke-width="1.2"
        opacity="0.75"/>
  <line x1="-24" y1="20" x2="-4" y2="20" stroke="#E63946" stroke-width="1.2"
        opacity="0.75"/>
  <!-- Barred inclusion circle, pulsing -->
  <g transform="translate(16,0)">
    <circle cx="0" cy="0" r="16" fill="none" stroke="#E7ECF4" stroke-width="2.2">
      <animateTransform attributeName="transform" type="scale" values="1;1.1;1"
                        dur="2.8s" repeatCount="indefinite" additive="sum"/>
    </circle>
    <line x1="-12" y1="12" x2="12" y2="-12" stroke="#E63946" stroke-width="2.6"
          stroke-linecap="round">
      <animate attributeName="opacity" values="1;0.55;1" dur="2.8s" repeatCount="indefinite"/>
    </line>
  </g>
</g>

<text x="156" y="214" font-family="Inter,Segoe UI,Arial,sans-serif"
      font-size="13" font-weight="700" fill="#3A86FF" letter-spacing="2">NODE 01</text>
<text x="156" y="242" font-family="Inter,Segoe UI,Arial,sans-serif"
      font-size="11" font-weight="600" fill="#8B94A8" letter-spacing="1.2">PRIORITY HIGH</text>
<text x="72" y="306" font-family="Inter,Segoe UI,Arial,sans-serif"
      font-size="24" font-weight="800" fill="#E7ECF4" letter-spacing="1.2">APPLE PHISHING</text>
<line x1="72" y1="318" x2="144" y2="318"
      stroke="#3A86FF" stroke-width="3" stroke-linecap="round"/>
<text x="72" y="356" font-family="Inter,Segoe UI,Arial,sans-serif"
      font-size="17" font-weight="500" fill="#E7ECF4" opacity="0.95">
  <tspan x="72" dy="0">Change notification emails</tspan>
</text>
<text x="72" y="380" font-family="Inter,Segoe UI,Arial,sans-serif"
      font-size="17" font-weight="500" fill="#E7ECF4" opacity="0.95">
  <tspan x="72" dy="0">phishing Apple IDs.</tspan>
</text>

<text x="516" y="214" font-family="Inter,Segoe UI,Arial,sans-serif"
      font-size="13" font-weight="700" fill="#FFB703" letter-spacing="2">NODE 02</text>
<text x="516" y="242" font-family="Inter,Segoe UI,Arial,sans-serif"
      font-size="11" font-weight="600" fill="#8B94A8" letter-spacing="1.2">PRIORITY HIGH</text>
<text x="432" y="306" font-family="Inter,Segoe UI,Arial,sans-serif"
      font-size="24" font-weight="800" fill="#E7ECF4" letter-spacing="1.2">NIST TRIAGE CUT</text>
<line x1="432" y1="318" x2="504" y2="318"
      stroke="#FFB703" stroke-width="3" stroke-linecap="round"/>
<text x="432" y="356" font-family="Inter,Segoe UI,Arial,sans-serif"
      font-size="17" font-weight="500" fill="#E7ECF4" opacity="0.95">
  <tspan x="432" dy="0">Low severity CVEs</tspan>
</text>
<text x="432" y="380" font-family="Inter,Segoe UI,Arial,sans-serif"
      font-size="17" font-weight="500" fill="#E7ECF4" opacity="0.95">
  <tspan x="432" dy="0">pulled from triage queue.</tspan>
</text>

<text x="876" y="214" font-family="Inter,Segoe UI,Arial,sans-serif"
      font-size="13" font-weight="700" fill="#E63946" letter-spacing="2">NODE 03</text>
<text x="876" y="242" font-family="Inter,Segoe UI,Arial,sans-serif"
      font-size="11" font-weight="600" fill="#8B94A8" letter-spacing="1.2">PRIORITY HIGH</text>
<text x="792" y="306" font-family="Inter,Segoe UI,Arial,sans-serif"
      font-size="24" font-weight="800" fill="#E7ECF4" letter-spacing="1.2">PALANTIR MEMO</text>
<line x1="792" y1="318" x2="864" y2="318"
      stroke="#E63946" stroke-width="3" stroke-linecap="round"/>
<text x="792" y="356" font-family="Inter,Segoe UI,Arial,sans-serif"
      font-size="17" font-weight="500" fill="#E7ECF4" opacity="0.95">
  <tspan x="792" dy="0">Manifesto slams inclusivity</tspan>
</text>
<text x="792" y="380" font-family="Inter,Segoe UI,Arial,sans-serif"
      font-size="17" font-weight="500" fill="#E7ECF4" opacity="0.95">
  <tspan x="792" dy="0">as regressive culture.</tspan>
</text>
<text x="78" y="494" font-family="Inter,Segoe UI,Arial,sans-serif" font-size="11" font-weight="700" fill="#8B94A8" letter-spacing="1.5">ALERT VOLUME (24H)</text><rect x="78" y="504" width="36" height="14" rx="3" fill="#3A86FF" opacity="0.85"><animate attributeName="height" values="6;14;6" dur="3.2s" begin="0.0s" repeatCount="indefinite"/><animate attributeName="y" values="512;504;512" dur="3.2s" begin="0.0s" repeatCount="indefinite"/></rect><rect x="78" y="501" width="36" height="3" rx="1.5" fill="#FFB703" opacity="0.85"><animate attributeName="opacity" values="0.3;0.95;0.3" dur="2.4s" begin="0.0s" repeatCount="indefinite"/></rect><rect x="132" y="496" width="36" height="22" rx="3" fill="#3A86FF" opacity="0.85"><animate attributeName="height" values="14;22;14" dur="3.2s" begin="0.4s" repeatCount="indefinite"/><animate attributeName="y" values="504;496;504" dur="3.2s" begin="0.4s" repeatCount="indefinite"/></rect><rect x="132" y="493" width="36" height="3" rx="1.5" fill="#FFB703" opacity="0.85"><animate attributeName="opacity" values="0.3;0.95;0.3" dur="2.4s" begin="0.3s" repeatCount="indefinite"/></rect><rect x="186" y="486" width="36" height="32" rx="3" fill="#3A86FF" opacity="0.85"><animate attributeName="height" values="24;32;24" dur="3.2s" begin="0.8s" repeatCount="indefinite"/><animate attributeName="y" values="494;486;494" dur="3.2s" begin="0.8s" repeatCount="indefinite"/></rect><rect x="186" y="483" width="36" height="3" rx="1.5" fill="#FFB703" opacity="0.85"><animate attributeName="opacity" values="0.3;0.95;0.3" dur="2.4s" begin="0.6s" repeatCount="indefinite"/></rect><rect x="240" y="472" width="36" height="46" rx="3" fill="#3A86FF" opacity="0.85"><animate attributeName="height" values="38;46;38" dur="3.2s" begin="1.2000000000000002s" repeatCount="indefinite"/><animate attributeName="y" values="480;472;480" dur="3.2s" begin="1.2000000000000002s" repeatCount="indefinite"/></rect><rect x="240" y="469" width="36" height="3" rx="1.5" fill="#FFB703" opacity="0.85"><animate attributeName="opacity" values="0.3;0.95;0.3" dur="2.4s" begin="0.8999999999999999s" repeatCount="indefinite"/></rect><line x1="74" y1="519" x2="280" y2="519" stroke="#8B94A8" stroke-width="1.2" opacity="0.45"/>
<text x="438" y="494" font-family="Inter,Segoe UI,Arial,sans-serif" font-size="11" font-weight="700" fill="#8B94A8" letter-spacing="1.5">SEVERITY QUEUE</text><rect x="438" y="474" width="276" height="18" rx="4" fill="#E63946" opacity="0.92"><animate attributeName="width" values="260;276;260" dur="4.0s" repeatCount="indefinite"/></rect><text x="446" y="488" font-family="Inter,Segoe UI,Arial,sans-serif" font-size="11" font-weight="700" fill="#0B132B">HIGH / CRITICAL</text><rect x="438" y="500" width="180" height="14" rx="4" fill="#FFB703" opacity="0.22"><animate attributeName="width" values="180;120;180" dur="5.2s" repeatCount="indefinite"/><animate attributeName="opacity" values="0.22;0.12;0.22" dur="5.2s" repeatCount="indefinite"/></rect><text x="446" y="511" font-family="Inter,Segoe UI,Arial,sans-serif" font-size="10" font-weight="600" fill="#8B94A8" opacity="0.7">LOW (cut)</text>
<text x="798" y="494" font-family="Inter,Segoe UI,Arial,sans-serif" font-size="11" font-weight="700" fill="#8B94A8" letter-spacing="1.5">SENTIMENT RATIO</text><rect x="798" y="488" width="204" height="22" rx="4" fill="#E63946" opacity="0.92"><animate attributeName="width" values="190;204;190" dur="4.6s" repeatCount="indefinite"/></rect><rect x="1002" y="488" width="72" height="22" rx="4" fill="#2EC27E" opacity="0.85"><animate attributeName="opacity" values="0.85;0.55;0.85" dur="4.6s" repeatCount="indefinite"/></rect><text x="806" y="504" font-family="Inter,Segoe UI,Arial,sans-serif" font-size="11" font-weight="700" fill="#0B132B">CRITICAL  74%</text><text x="798" y="526" font-family="Inter,Segoe UI,Arial,sans-serif" font-size="10" font-weight="600" fill="#8B94A8">26% defends inclusion norms</text>
<circle cx="396" cy="280" r="1.8" fill="#3A86FF" opacity="0.55"><animate attributeName="opacity" values="0.2;0.85;0.2" dur="3.0s" begin="0.0s" repeatCount="indefinite"/><animate attributeName="r" values="1.4;2.2;1.4" dur="3.0s" begin="0.0s" repeatCount="indefinite"/></circle>
<circle cx="396" cy="330" r="1.8" fill="#3A86FF" opacity="0.55"><animate attributeName="opacity" values="0.2;0.85;0.2" dur="3.4s" begin="0.2s" repeatCount="indefinite"/><animate attributeName="r" values="1.4;2.2;1.4" dur="3.4s" begin="0.2s" repeatCount="indefinite"/></circle>
<circle cx="396" cy="380" r="1.8" fill="#3A86FF" opacity="0.55"><animate attributeName="opacity" values="0.2;0.85;0.2" dur="3.8s" begin="0.4s" repeatCount="indefinite"/><animate attributeName="r" values="1.4;2.2;1.4" dur="3.8s" begin="0.4s" repeatCount="indefinite"/></circle>
<circle cx="396" cy="430" r="1.8" fill="#3A86FF" opacity="0.55"><animate attributeName="opacity" values="0.2;0.85;0.2" dur="4.2s" begin="0.6000000000000001s" repeatCount="indefinite"/><animate attributeName="r" values="1.4;2.2;1.4" dur="4.2s" begin="0.6000000000000001s" repeatCount="indefinite"/></circle>
<circle cx="396" cy="480" r="1.8" fill="#3A86FF" opacity="0.55"><animate attributeName="opacity" values="0.2;0.85;0.2" dur="3.0s" begin="0.8s" repeatCount="indefinite"/><animate attributeName="r" values="1.4;2.2;1.4" dur="3.0s" begin="0.8s" repeatCount="indefinite"/></circle>
<circle cx="756" cy="280" r="1.8" fill="#3A86FF" opacity="0.55"><animate attributeName="opacity" values="0.2;0.85;0.2" dur="3.4s" begin="1.0s" repeatCount="indefinite"/><animate attributeName="r" values="1.4;2.2;1.4" dur="3.4s" begin="1.0s" repeatCount="indefinite"/></circle>
<circle cx="756" cy="330" r="1.8" fill="#3A86FF" opacity="0.55"><animate attributeName="opacity" values="0.2;0.85;0.2" dur="3.8s" begin="1.2000000000000002s" repeatCount="indefinite"/><animate attributeName="r" values="1.4;2.2;1.4" dur="3.8s" begin="1.2000000000000002s" repeatCount="indefinite"/></circle>
<circle cx="756" cy="380" r="1.8" fill="#3A86FF" opacity="0.55"><animate attributeName="opacity" values="0.2;0.85;0.2" dur="4.2s" begin="1.4000000000000001s" repeatCount="indefinite"/><animate attributeName="r" values="1.4;2.2;1.4" dur="4.2s" begin="1.4000000000000001s" repeatCount="indefinite"/></circle>
<circle cx="756" cy="430" r="1.8" fill="#3A86FF" opacity="0.55"><animate attributeName="opacity" values="0.2;0.85;0.2" dur="3.0s" begin="1.6s" repeatCount="indefinite"/><animate attributeName="r" values="1.4;2.2;1.4" dur="3.0s" begin="1.6s" repeatCount="indefinite"/></circle>
<circle cx="756" cy="480" r="1.8" fill="#3A86FF" opacity="0.55"><animate attributeName="opacity" values="0.2;0.85;0.2" dur="3.4s" begin="1.8s" repeatCount="indefinite"/><animate attributeName="r" values="1.4;2.2;1.4" dur="3.4s" begin="1.8s" repeatCount="indefinite"/></circle>

<g>
  <rect x="1052" y="482" width="100" height="100" rx="10" ry="10"
        fill="#FFFFFF" stroke="#FFB703" stroke-width="1.6"/>
  <g transform="translate(1056,486) scale(5.1111)">
    <path d="M0.8,0.8H1.2V1.2H0.8zM1.2,0.8H1.6V1.2H1.2zM1.6,0.8H2V1.2H1.6zM2,0.8H2.4V1.2H2zM2.4,0.8H2.8V1.2H2.4zM2.8,0.8H3.2V1.2H2.8zM3.2,0.8H3.6V1.2H3.2zM4,0.8H4.4V1.2H4zM5.2,0.8H5.6V1.2H5.2zM5.6,0.8H6V1.2H5.6zM6,0.8H6.4V1.2H6zM6.4,0.8H6.8V1.2H6.4zM7.6,0.8H8V1.2H7.6zM8.4,0.8H8.8V1.2H8.4zM8.8,0.8H9.2V1.2H8.8zM9.2,0.8H9.6V1.2H9.2zM9.6,0.8H10V1.2H9.6zM12,0.8H12.4V1.2H12zM12.4,0.8H12.8V1.2H12.4zM12.8,0.8H13.2V1.2H12.8zM13.2,0.8H13.6V1.2H13.2zM13.6,0.8H14V1.2H13.6zM14.4,0.8H14.8V1.2H14.4zM14.8,0.8H15.2V1.2H14.8zM15.2,0.8H15.6V1.2H15.2zM15.6,0.8H16V1.2H15.6zM16,0.8H16.4V1.2H16zM16.4,0.8H16.8V1.2H16.4zM16.8,0.8H17.2V1.2H16.8zM0.8,1.2H1.2V1.6H0.8zM3.2,1.2H3.6V1.6H3.2zM4,1.2H4.4V1.6H4zM4.4,1.2H4.8V1.6H4.4zM5.2,1.2H5.6V1.6H5.2zM6,1.2H6.4V1.6H6zM8,1.2H8.4V1.6H8zM10,1.2H10.4V1.6H10zM10.8,1.2H11.2V1.6H10.8zM11.2,1.2H11.6V1.6H11.2zM12.4,1.2H12.8V1.6H12.4zM12.8,1.2H13.2V1.6H12.8zM14.4,1.2H14.8V1.6H14.4zM16.8,1.2H17.2V1.6H16.8zM0.8,1.6H1.2V2H0.8zM1.6,1.6H2V2H1.6zM2,1.6H2.4V2H2zM2.4,1.6H2.8V2H2.4zM3.2,1.6H3.6V2H3.2zM4.8,1.6H5.2V2H4.8zM5.2,1.6H5.6V2H5.2zM5.6,1.6H6V2H5.6zM6.4,1.6H6.8V2H6.4zM7.2,1.6H7.6V2H7.2zM7.6,1.6H8V2H7.6zM8.4,1.6H8.8V2H8.4zM10.4,1.6H10.8V2H10.4zM10.8,1.6H11.2V2H10.8zM13.2,1.6H13.6V2H13.2zM13.6,1.6H14V2H13.6zM14.4,1.6H14.8V2H14.4zM15.2,1.6H15.6V2H15.2zM15.6,1.6H16V2H15.6zM16,1.6H16.4V2H16zM16.8,1.6H17.2V2H16.8zM0.8,2H1.2V2.4H0.8zM1.6,2H2V2.4H1.6zM2,2H2.4V2.4H2zM2.4,2H2.8V2.4H2.4zM3.2,2H3.6V2.4H3.2zM4,2H4.4V2.4H4zM5.2,2H5.6V2.4H5.2zM5.6,2H6V2.4H5.6zM6.4,2H6.8V2.4H6.4zM8.8,2H9.2V2.4H8.8zM9.2,2H9.6V2.4H9.2zM10.8,2H11.2V2.4H10.8zM11.6,2H12V2.4H11.6zM12,2H12.4V2.4H12zM12.4,2H12.8V2.4H12.4zM13.6,2H14V2.4H13.6zM14.4,2H14.8V2.4H14.4zM15.2,2H15.6V2.4H15.2zM15.6,2H16V2.4H15.6zM16,2H16.4V2.4H16zM16.8,2H17.2V2.4H16.8zM0.8,2.4H1.2V2.8H0.8zM1.6,2.4H2V2.8H1.6zM2,2.4H2.4V2.8H2zM2.4,2.4H2.8V2.8H2.4zM3.2,2.4H3.6V2.8H3.2zM4.4,2.4H4.8V2.8H4.4zM5.6,2.4H6V2.8H5.6zM6,2.4H6.4V2.8H6zM7.2,2.4H7.6V2.8H7.2zM9.6,2.4H10V2.8H9.6zM10,2.4H10.4V2.8H10zM10.4,2.4H10.8V2.8H10.4zM11.2,2.4H11.6V2.8H11.2zM11.6,2.4H12V2.8H11.6zM12.4,2.4H12.8V2.8H12.4zM13.2,2.4H13.6V2.8H13.2zM13.6,2.4H14V2.8H13.6zM14.4,2.4H14.8V2.8H14.4zM15.2,2.4H15.6V2.8H15.2zM15.6,2.4H16V2.8H15.6zM16,2.4H16.4V2.8H16zM16.8,2.4H17.2V2.8H16.8zM0.8,2.8H1.2V3.2H0.8zM3.2,2.8H3.6V3.2H3.2zM5.2,2.8H5.6V3.2H5.2zM5.6,2.8H6V3.2H5.6zM6.8,2.8H7.2V3.2H6.8zM7.6,2.8H8V3.2H7.6zM8,2.8H8.4V3.2H8zM8.4,2.8H8.8V3.2H8.4zM8.8,2.8H9.2V3.2H8.8zM9.2,2.8H9.6V3.2H9.2zM9.6,2.8H10V3.2H9.6zM10.4,2.8H10.8V3.2H10.4zM12,2.8H12.4V3.2H12zM12.8,2.8H13.2V3.2H12.8zM13.2,2.8H13.6V3.2H13.2zM14.4,2.8H14.8V3.2H14.4zM16.8,2.8H17.2V3.2H16.8zM0.8,3.2H1.2V3.6H0.8zM1.2,3.2H1.6V3.6H1.2zM1.6,3.2H2V3.6H1.6zM2,3.2H2.4V3.6H2zM2.4,3.2H2.8V3.6H2.4zM2.8,3.2H3.2V3.6H2.8zM3.2,3.2H3.6V3.6H3.2zM4,3.2H4.4V3.6H4zM4.8,3.2H5.2V3.6H4.8zM5.6,3.2H6V3.6H5.6zM6.4,3.2H6.8V3.6H6.4zM7.2,3.2H7.6V3.6H7.2zM8,3.2H8.4V3.6H8zM8.8,3.2H9.2V3.6H8.8zM9.6,3.2H10V3.6H9.6zM10.4,3.2H10.8V3.6H10.4zM11.2,3.2H11.6V3.6H11.2zM12,3.2H12.4V3.6H12zM12.8,3.2H13.2V3.6H12.8zM13.6,3.2H14V3.6H13.6zM14.4,3.2H14.8V3.6H14.4zM14.8,3.2H15.2V3.6H14.8zM15.2,3.2H15.6V3.6H15.2zM15.6,3.2H16V3.6H15.6zM16,3.2H16.4V3.6H16zM16.4,3.2H16.8V3.6H16.4zM16.8,3.2H17.2V3.6H16.8zM4,3.6H4.4V4H4zM4.4,3.6H4.8V4H4.4zM5.2,3.6H5.6V4H5.2zM7.2,3.6H7.6V4H7.2zM7.6,3.6H8V4H7.6zM8.4,3.6H8.8V4H8.4zM10.4,3.6H10.8V4H10.4zM11.2,3.6H11.6V4H11.2zM12.4,3.6H12.8V4H12.4zM13.2,3.6H13.6V4H13.2zM13.6,3.6H14V4H13.6zM0.8,4H1.2V4.4H0.8zM1.6,4H2V4.4H1.6zM2,4H2.4V4.4H2zM2.8,4H3.2V4.4H2.8zM3.2,4H3.6V4.4H3.2zM3.6,4H4V4.4H3.6zM4.8,4H5.2V4.4H4.8zM5.6,4H6V4.4H5.6zM6.4,4H6.8V4.4H6.4zM7.6,4H8V4.4H7.6zM8,4H8.4V4.4H8zM9.2,4H9.6V4.4H9.2zM10,4H10.4V4.4H10zM10.4,4H10.8V4.4H10.4zM11.2,4H11.6V4.4H11.2zM12.4,4H12.8V4.4H12.4zM12.8,4H13.2V4.4H12.8zM13.2,4H13.6V4.4H13.2zM13.6,4H14V4.4H13.6zM14.4,4H14.8V4.4H14.4zM15.6,4H16V4.4H15.6zM16.4,4H16.8V4.4H16.4zM16.8,4H17.2V4.4H16.8zM0.8,4.4H1.2V4.8H0.8zM1.6,4.4H2V4.8H1.6zM2,4.4H2.4V4.8H2zM3.6,4.4H4V4.8H3.6zM4,4.4H4.4V4.8H4zM4.8,4.4H5.2V4.8H4.8zM5.2,4.4H5.6V4.8H5.2zM5.6,4.4H6V4.8H5.6zM6,4.4H6.4V4.8H6zM7.2,4.4H7.6V4.8H7.2zM8,4.4H8.4V4.8H8zM8.4,4.4H8.8V4.8H8.4zM9.2,4.4H9.6V4.8H9.2zM10,4.4H10.4V4.8H10zM11.2,4.4H11.6V4.8H11.2zM12.8,4.4H13.2V4.8H12.8zM13.2,4.4H13.6V4.8H13.2zM13.6,4.4H14V4.8H13.6zM14.8,4.4H15.2V4.8H14.8zM15.2,4.4H15.6V4.8H15.2zM16,4.4H16.4V4.8H16zM2.4,4.8H2.8V5.2H2.4zM2.8,4.8H3.2V5.2H2.8zM3.2,4.8H3.6V5.2H3.2zM4,4.8H4.4V5.2H4zM4.4,4.8H4.8V5.2H4.4zM5.2,4.8H5.6V5.2H5.2zM6.8,4.8H7.2V5.2H6.8zM8.8,4.8H9.2V5.2H8.8zM9.6,4.8H10V5.2H9.6zM10,4.8H10.4V5.2H10zM12.4,4.8H12.8V5.2H12.4zM16,4.8H16.4V5.2H16zM16.4,4.8H16.8V5.2H16.4zM0.8,5.2H1.2V5.6H0.8zM1.2,5.2H1.6V5.6H1.2zM2.8,5.2H3.2V5.6H2.8zM3.6,5.2H4V5.6H3.6zM5.2,5.2H5.6V5.6H5.2zM5.6,5.2H6V5.6H5.6zM6.4,5.2H6.8V5.6H6.4zM8,5.2H8.4V5.6H8zM8.8,5.2H9.2V5.6H8.8zM9.6,5.2H10V5.6H9.6zM10.4,5.2H10.8V5.6H10.4zM10.8,5.2H11.2V5.6H10.8zM11.6,5.2H12V5.6H11.6zM13.6,5.2H14V5.6H13.6zM14,5.2H14.4V5.6H14zM15.2,5.2H15.6V5.6H15.2zM16.4,5.2H16.8V5.6H16.4zM16.8,5.2H17.2V5.6H16.8zM0.8,5.6H1.2V6H0.8zM1.2,5.6H1.6V6H1.2zM2,5.6H2.4V6H2zM2.4,5.6H2.8V6H2.4zM3.2,5.6H3.6V6H3.2zM3.6,5.6H4V6H3.6zM5.6,5.6H6V6H5.6zM6,5.6H6.4V6H6zM6.4,5.6H6.8V6H6.4zM7.2,5.6H7.6V6H7.2zM7.6,5.6H8V6H7.6zM8.4,5.6H8.8V6H8.4zM8.8,5.6H9.2V6H8.8zM9.6,5.6H10V6H9.6zM10.4,5.6H10.8V6H10.4zM10.8,5.6H11.2V6H10.8zM12,5.6H12.4V6H12zM12.4,5.6H12.8V6H12.4zM12.8,5.6H13.2V6H12.8zM13.2,5.6H13.6V6H13.2zM14.8,5.6H15.2V6H14.8zM15.6,5.6H16V6H15.6zM16,5.6H16.4V6H16zM1.2,6H1.6V6.4H1.2zM1.6,6H2V6.4H1.6zM2,6H2.4V6.4H2zM2.8,6H3.2V6.4H2.8zM3.6,6H4V6.4H3.6zM4,6H4.4V6.4H4zM4.8,6H5.2V6.4H4.8zM5.2,6H5.6V6.4H5.2zM5.6,6H6V6.4H5.6zM6.4,6H6.8V6.4H6.4zM7.2,6H7.6V6.4H7.2zM7.6,6H8V6.4H7.6zM8.8,6H9.2V6.4H8.8zM9.2,6H9.6V6.4H9.2zM10,6H10.4V6.4H10zM10.4,6H10.8V6.4H10.4zM10.8,6H11.2V6.4H10.8zM11.2,6H11.6V6.4H11.2zM11.6,6H12V6.4H11.6zM12,6H12.4V6.4H12zM12.8,6H13.2V6.4H12.8zM13.2,6H13.6V6.4H13.2zM14,6H14.4V6.4H14zM15.6,6H16V6.4H15.6zM16.4,6H16.8V6.4H16.4zM16.8,6H17.2V6.4H16.8zM1.2,6.4H1.6V6.8H1.2zM1.6,6.4H2V6.8H1.6zM2,6.4H2.4V6.8H2zM2.4,6.4H2.8V6.8H2.4zM2.8,6.4H3.2V6.8H2.8zM3.2,6.4H3.6V6.8H3.2zM4.4,6.4H4.8V6.8H4.4zM5.2,6.4H5.6V6.8H5.2zM6.4,6.4H6.8V6.8H6.4zM6.8,6.4H7.2V6.8H6.8zM8.4,6.4H8.8V6.8H8.4zM8.8,6.4H9.2V6.8H8.8zM9.2,6.4H9.6V6.8H9.2zM10,6.4H10.4V6.8H10zM10.8,6.4H11.2V6.8H10.8zM12.4,6.4H12.8V6.8H12.4zM13.2,6.4H13.6V6.8H13.2zM13.6,6.4H14V6.8H13.6zM14.4,6.4H14.8V6.8H14.4zM14.8,6.4H15.2V6.8H14.8zM15.2,6.4H15.6V6.8H15.2zM16,6.4H16.4V6.8H16zM16.4,6.4H16.8V6.8H16.4zM16.8,6.4H17.2V6.8H16.8zM0.8,6.8H1.2V7.2H0.8zM1.2,6.8H1.6V7.2H1.2zM1.6,6.8H2V7.2H1.6zM2,6.8H2.4V7.2H2zM3.6,6.8H4V7.2H3.6zM5.2,6.8H5.6V7.2H5.2zM6,6.8H6.4V7.2H6zM6.4,6.8H6.8V7.2H6.4zM7.2,6.8H7.6V7.2H7.2zM8,6.8H8.4V7.2H8zM9.2,6.8H9.6V7.2H9.2zM9.6,6.8H10V7.2H9.6zM10,6.8H10.4V7.2H10zM11.2,6.8H11.6V7.2H11.2zM11.6,6.8H12V7.2H11.6zM14.4,6.8H14.8V7.2H14.4zM15.2,6.8H15.6V7.2H15.2zM15.6,6.8H16V7.2H15.6zM1.2,7.2H1.6V7.6H1.2zM2,7.2H2.4V7.6H2zM2.4,7.2H2.8V7.6H2.4zM3.2,7.2H3.6V7.6H3.2zM4,7.2H4.4V7.6H4zM4.8,7.2H5.2V7.6H4.8zM5.2,7.2H5.6V7.6H5.2zM5.6,7.2H6V7.6H5.6zM6.8,7.2H7.2V7.6H6.8zM7.2,7.2H7.6V7.6H7.2zM8,7.2H8.4V7.6H8zM8.8,7.2H9.2V7.6H8.8zM9.6,7.2H10V7.6H9.6zM10.4,7.2H10.8V7.6H10.4zM10.8,7.2H11.2V7.6H10.8zM11.6,7.2H12V7.6H11.6zM12.8,7.2H13.2V7.6H12.8zM13.6,7.2H14V7.6H13.6zM15.2,7.2H15.6V7.6H15.2zM15.6,7.2H16V7.6H15.6zM16.4,7.2H16.8V7.6H16.4zM1.2,7.6H1.6V8H1.2zM2,7.6H2.4V8H2zM3.6,7.6H4V8H3.6zM5.6,7.6H6V8H5.6zM6.4,7.6H6.8V8H6.4zM7.2,7.6H7.6V8H7.2zM8,7.6H8.4V8H8zM8.4,7.6H8.8V8H8.4zM8.8,7.6H9.2V8H8.8zM9.2,7.6H9.6V8H9.2zM9.6,7.6H10V8H9.6zM10,7.6H10.4V8H10zM10.4,7.6H10.8V8H10.4zM13.6,7.6H14V8H13.6zM14,7.6H14.4V8H14zM14.8,7.6H15.2V8H14.8zM15.6,7.6H16V8H15.6zM0.8,8H1.2V8.4H0.8zM1.6,8H2V8.4H1.6zM2.4,8H2.8V8.4H2.4zM3.2,8H3.6V8.4H3.2zM3.6,8H4V8.4H3.6zM4,8H4.4V8.4H4zM4.4,8H4.8V8.4H4.4zM4.8,8H5.2V8.4H4.8zM6,8H6.4V8.4H6zM6.4,8H6.8V8.4H6.4zM7.2,8H7.6V8.4H7.2zM8,8H8.4V8.4H8zM8.8,8H9.2V8.4H8.8zM9.6,8H10V8.4H9.6zM10.8,8H11.2V8.4H10.8zM11.2,8H11.6V8.4H11.2zM11.6,8H12V8.4H11.6zM12,8H12.4V8.4H12zM12.8,8H13.2V8.4H12.8zM13.6,8H14V8.4H13.6zM15.2,8H15.6V8.4H15.2zM16,8H16.4V8.4H16zM16.4,8H16.8V8.4H16.4zM0.8,8.4H1.2V8.8H0.8zM1.2,8.4H1.6V8.8H1.2zM2.4,8.4H2.8V8.8H2.4zM3.6,8.4H4V8.8H3.6zM5.2,8.4H5.6V8.8H5.2zM7.6,8.4H8V8.8H7.6zM8,8.4H8.4V8.8H8zM8.4,8.4H8.8V8.8H8.4zM9.2,8.4H9.6V8.8H9.2zM11.6,8.4H12V8.8H11.6zM12,8.4H12.4V8.8H12zM12.4,8.4H12.8V8.8H12.4zM12.8,8.4H13.2V8.8H12.8zM14.8,8.4H15.2V8.8H14.8zM15.6,8.4H16V8.8H15.6zM16,8.4H16.4V8.8H16zM16.4,8.4H16.8V8.8H16.4zM0.8,8.8H1.2V9.2H0.8zM1.2,8.8H1.6V9.2H1.2zM1.6,8.8H2V9.2H1.6zM2,8.8H2.4V9.2H2zM3.2,8.8H3.6V9.2H3.2zM3.6,8.8H4V9.2H3.6zM4,8.8H4.4V9.2H4zM4.4,8.8H4.8V9.2H4.4zM4.8,8.8H5.2V9.2H4.8zM5.2,8.8H5.6V9.2H5.2zM5.6,8.8H6V9.2H5.6zM8.8,8.8H9.2V9.2H8.8zM10.8,8.8H11.2V9.2H10.8zM11.6,8.8H12V9.2H11.6zM12.4,8.8H12.8V9.2H12.4zM12.8,8.8H13.2V9.2H12.8zM13.2,8.8H13.6V9.2H13.2zM13.6,8.8H14V9.2H13.6zM14,8.8H14.4V9.2H14zM14.4,8.8H14.8V9.2H14.4zM14.8,8.8H15.2V9.2H14.8zM15.6,8.8H16V9.2H15.6zM16,8.8H16.4V9.2H16zM16.4,8.8H16.8V9.2H16.4zM0.8,9.2H1.2V9.6H0.8zM3.6,9.2H4V9.6H3.6zM4.4,9.2H4.8V9.6H4.4zM4.8,9.2H5.2V9.6H4.8zM5.2,9.2H5.6V9.6H5.2zM6.4,9.2H6.8V9.6H6.4zM6.8,9.2H7.2V9.6H6.8zM7.2,9.2H7.6V9.6H7.2zM8.8,9.2H9.2V9.6H8.8zM9.2,9.2H9.6V9.6H9.2zM10,9.2H10.4V9.6H10zM10.4,9.2H10.8V9.6H10.4zM12.8,9.2H13.2V9.6H12.8zM13.2,9.2H13.6V9.6H13.2zM14.4,9.2H14.8V9.6H14.4zM14.8,9.2H15.2V9.6H14.8zM15.2,9.2H15.6V9.6H15.2zM15.6,9.2H16V9.6H15.6zM16,9.2H16.4V9.6H16zM16.4,9.2H16.8V9.6H16.4zM16.8,9.2H17.2V9.6H16.8zM1.2,9.6H1.6V10H1.2zM2.4,9.6H2.8V10H2.4zM3.2,9.6H3.6V10H3.2zM3.6,9.6H4V10H3.6zM4,9.6H4.4V10H4zM4.4,9.6H4.8V10H4.4zM5.2,9.6H5.6V10H5.2zM6,9.6H6.4V10H6zM6.4,9.6H6.8V10H6.4zM7.2,9.6H7.6V10H7.2zM8.8,9.6H9.2V10H8.8zM10,9.6H10.4V10H10zM12,9.6H12.4V10H12zM12.4,9.6H12.8V10H12.4zM12.8,9.6H13.2V10H12.8zM14,9.6H14.4V10H14zM14.4,9.6H14.8V10H14.4zM15.2,9.6H15.6V10H15.2zM15.6,9.6H16V10H15.6zM16.4,9.6H16.8V10H16.4zM0.8,10H1.2V10.4H0.8zM1.6,10H2V10.4H1.6zM3.6,10H4V10.4H3.6zM4,10H4.4V10.4H4zM4.4,10H4.8V10.4H4.4zM4.8,10H5.2V10.4H4.8zM6,10H6.4V10.4H6zM7.2,10H7.6V10.4H7.2zM8,10H8.4V10.4H8zM8.4,10H8.8V10.4H8.4zM10.8,10H11.2V10.4H10.8zM11.6,10H12V10.4H11.6zM12.8,10H13.2V10.4H12.8zM13.6,10H14V10.4H13.6zM14,10H14.4V10.4H14zM14.8,10H15.2V10.4H14.8zM16.4,10H16.8V10.4H16.4zM0.8,10.4H1.2V10.8H0.8zM2.8,10.4H3.2V10.8H2.8zM3.2,10.4H3.6V10.8H3.2zM5.2,10.4H5.6V10.8H5.2zM6,10.4H6.4V10.8H6zM6.8,10.4H7.2V10.8H6.8zM7.2,10.4H7.6V10.8H7.2zM7.6,10.4H8V10.8H7.6zM8.4,10.4H8.8V10.8H8.4zM9.6,10.4H10V10.8H9.6zM10.4,10.4H10.8V10.8H10.4zM10.8,10.4H11.2V10.8H10.8zM11.2,10.4H11.6V10.8H11.2zM12.4,10.4H12.8V10.8H12.4zM13.2,10.4H13.6V10.8H13.2zM14.8,10.4H15.2V10.8H14.8zM16.8,10.4H17.2V10.8H16.8zM1.6,10.8H2V11.2H1.6zM2,10.8H2.4V11.2H2zM2.4,10.8H2.8V11.2H2.4zM2.8,10.8H3.2V11.2H2.8zM3.6,10.8H4V11.2H3.6zM4,10.8H4.4V11.2H4zM4.4,10.8H4.8V11.2H4.4zM6.4,10.8H6.8V11.2H6.4zM6.8,10.8H7.2V11.2H6.8zM7.6,10.8H8V11.2H7.6zM8.4,10.8H8.8V11.2H8.4zM10.4,10.8H10.8V11.2H10.4zM10.8,10.8H11.2V11.2H10.8zM11.6,10.8H12V11.2H11.6zM12.4,10.8H12.8V11.2H12.4zM13.2,10.8H13.6V11.2H13.2zM13.6,10.8H14V11.2H13.6zM14,10.8H14.4V11.2H14zM15.6,10.8H16V11.2H15.6zM16,10.8H16.4V11.2H16zM16.8,10.8H17.2V11.2H16.8zM0.8,11.2H1.2V11.6H0.8zM1.2,11.2H1.6V11.6H1.2zM1.6,11.2H2V11.6H1.6zM2.8,11.2H3.2V11.6H2.8zM3.2,11.2H3.6V11.6H3.2zM4.4,11.2H4.8V11.6H4.4zM4.8,11.2H5.2V11.6H4.8zM6.4,11.2H6.8V11.6H6.4zM6.8,11.2H7.2V11.6H6.8zM7.2,11.2H7.6V11.6H7.2zM8,11.2H8.4V11.6H8zM8.4,11.2H8.8V11.6H8.4zM8.8,11.2H9.2V11.6H8.8zM10.4,11.2H10.8V11.6H10.4zM11.2,11.2H11.6V11.6H11.2zM12,11.2H12.4V11.6H12zM12.4,11.2H12.8V11.6H12.4zM13.2,11.2H13.6V11.6H13.2zM13.6,11.2H14V11.6H13.6zM14,11.2H14.4V11.6H14zM15.6,11.2H16V11.6H15.6zM16.4,11.2H16.8V11.6H16.4zM16.8,11.2H17.2V11.6H16.8zM0.8,11.6H1.2V12H0.8zM1.2,11.6H1.6V12H1.2zM1.6,11.6H2V12H1.6zM2,11.6H2.4V12H2zM2.4,11.6H2.8V12H2.4zM4.8,11.6H5.2V12H4.8zM6.4,11.6H6.8V12H6.4zM6.8,11.6H7.2V12H6.8zM7.2,11.6H7.6V12H7.2zM8.4,11.6H8.8V12H8.4zM8.8,11.6H9.2V12H8.8zM9.2,11.6H9.6V12H9.2zM9.6,11.6H10V12H9.6zM10,11.6H10.4V12H10zM11.2,11.6H11.6V12H11.2zM11.6,11.6H12V12H11.6zM12.8,11.6H13.2V12H12.8zM13.2,11.6H13.6V12H13.2zM13.6,11.6H14V12H13.6zM14.4,11.6H14.8V12H14.4zM14.8,11.6H15.2V12H14.8zM15.2,11.6H15.6V12H15.2zM15.6,11.6H16V12H15.6zM16.4,11.6H16.8V12H16.4zM0.8,12H1.2V12.4H0.8zM1.2,12H1.6V12.4H1.2zM2.4,12H2.8V12.4H2.4zM3.2,12H3.6V12.4H3.2zM3.6,12H4V12.4H3.6zM4,12H4.4V12.4H4zM4.4,12H4.8V12.4H4.4zM4.8,12H5.2V12.4H4.8zM5.2,12H5.6V12.4H5.2zM6.4,12H6.8V12.4H6.4zM8,12H8.4V12.4H8zM8.4,12H8.8V12.4H8.4zM8.8,12H9.2V12.4H8.8zM9.2,12H9.6V12.4H9.2zM9.6,12H10V12.4H9.6zM10.4,12H10.8V12.4H10.4zM10.8,12H11.2V12.4H10.8zM11.2,12H11.6V12.4H11.2zM11.6,12H12V12.4H11.6zM13.2,12H13.6V12.4H13.2zM13.6,12H14V12.4H13.6zM14,12H14.4V12.4H14zM15.2,12H15.6V12.4H15.2zM15.6,12H16V12.4H15.6zM16.4,12H16.8V12.4H16.4zM16.8,12H17.2V12.4H16.8zM2.4,12.4H2.8V12.8H2.4zM4,12.4H4.4V12.8H4zM4.8,12.4H5.2V12.8H4.8zM5.2,12.4H5.6V12.8H5.2zM5.6,12.4H6V12.8H5.6zM6,12.4H6.4V12.8H6zM6.4,12.4H6.8V12.8H6.4zM7.2,12.4H7.6V12.8H7.2zM8.4,12.4H8.8V12.8H8.4zM8.8,12.4H9.2V12.8H8.8zM9.6,12.4H10V12.8H9.6zM10.8,12.4H11.2V12.8H10.8zM11.2,12.4H11.6V12.8H11.2zM11.6,12.4H12V12.8H11.6zM12.4,12.4H12.8V12.8H12.4zM12.8,12.4H13.2V12.8H12.8zM13.6,12.4H14V12.8H13.6zM14,12.4H14.4V12.8H14zM14.4,12.4H14.8V12.8H14.4zM14.8,12.4H15.2V12.8H14.8zM15.6,12.4H16V12.8H15.6zM16.4,12.4H16.8V12.8H16.4zM0.8,12.8H1.2V13.2H0.8zM1.6,12.8H2V13.2H1.6zM2.4,12.8H2.8V13.2H2.4zM3.2,12.8H3.6V13.2H3.2zM3.6,12.8H4V13.2H3.6zM4.4,12.8H4.8V13.2H4.4zM4.8,12.8H5.2V13.2H4.8zM5.6,12.8H6V13.2H5.6zM8,12.8H8.4V13.2H8zM8.4,12.8H8.8V13.2H8.4zM9.2,12.8H9.6V13.2H9.2zM10.8,12.8H11.2V13.2H10.8zM11.2,12.8H11.6V13.2H11.2zM11.6,12.8H12V13.2H11.6zM14,12.8H14.4V13.2H14zM14.4,12.8H14.8V13.2H14.4zM14.8,12.8H15.2V13.2H14.8zM1.6,13.2H2V13.6H1.6zM2.4,13.2H2.8V13.6H2.4zM2.8,13.2H3.2V13.6H2.8zM3.6,13.2H4V13.6H3.6zM6.4,13.2H6.8V13.6H6.4zM7.2,13.2H7.6V13.6H7.2zM7.6,13.2H8V13.6H7.6zM8.4,13.2H8.8V13.6H8.4zM9.6,13.2H10V13.6H9.6zM10,13.2H10.4V13.6H10zM12,13.2H12.4V13.6H12zM12.4,13.2H12.8V13.6H12.4zM13.6,13.2H14V13.6H13.6zM14.4,13.2H14.8V13.6H14.4zM15.2,13.2H15.6V13.6H15.2zM15.6,13.2H16V13.6H15.6zM16,13.2H16.4V13.6H16zM16.4,13.2H16.8V13.6H16.4zM16.8,13.2H17.2V13.6H16.8zM1.2,13.6H1.6V14H1.2zM2.4,13.6H2.8V14H2.4zM3.2,13.6H3.6V14H3.2zM3.6,13.6H4V14H3.6zM4,13.6H4.4V14H4zM4.8,13.6H5.2V14H4.8zM5.6,13.6H6V14H5.6zM6,13.6H6.4V14H6zM6.8,13.6H7.2V14H6.8zM7.2,13.6H7.6V14H7.2zM7.6,13.6H8V14H7.6zM8,13.6H8.4V14H8zM8.8,13.6H9.2V14H8.8zM10.4,13.6H10.8V14H10.4zM11.2,13.6H11.6V14H11.2zM12.4,13.6H12.8V14H12.4zM12.8,13.6H13.2V14H12.8zM13.2,13.6H13.6V14H13.2zM13.6,13.6H14V14H13.6zM14,13.6H14.4V14H14zM14.4,13.6H14.8V14H14.4zM14.8,13.6H15.2V14H14.8zM15.2,13.6H15.6V14H15.2zM15.6,13.6H16V14H15.6zM16,13.6H16.4V14H16zM16.8,13.6H17.2V14H16.8zM4,14H4.4V14.4H4zM4.8,14H5.2V14.4H4.8zM5.2,14H5.6V14.4H5.2zM6.8,14H7.2V14.4H6.8zM7.6,14H8V14.4H7.6zM8,14H8.4V14.4H8zM8.8,14H9.2V14.4H8.8zM9.2,14H9.6V14.4H9.2zM10,14H10.4V14.4H10zM10.8,14H11.2V14.4H10.8zM11.6,14H12V14.4H11.6zM12,14H12.4V14.4H12zM12.4,14H12.8V14.4H12.4zM13.6,14H14V14.4H13.6zM15.2,14H15.6V14.4H15.2zM16,14H16.4V14.4H16zM16.4,14H16.8V14.4H16.4zM16.8,14H17.2V14.4H16.8zM0.8,14.4H1.2V14.8H0.8zM1.2,14.4H1.6V14.8H1.2zM1.6,14.4H2V14.8H1.6zM2,14.4H2.4V14.8H2zM2.4,14.4H2.8V14.8H2.4zM2.8,14.4H3.2V14.8H2.8zM3.2,14.4H3.6V14.8H3.2zM4,14.4H4.4V14.8H4zM6,14.4H6.4V14.8H6zM6.8,14.4H7.2V14.8H6.8zM8,14.4H8.4V14.8H8zM10,14.4H10.4V14.8H10zM10.4,14.4H10.8V14.8H10.4zM10.8,14.4H11.2V14.8H10.8zM12,14.4H12.4V14.8H12zM12.8,14.4H13.2V14.8H12.8zM13.2,14.4H13.6V14.8H13.2zM13.6,14.4H14V14.8H13.6zM14.4,14.4H14.8V14.8H14.4zM15.2,14.4H15.6V14.8H15.2zM15.6,14.4H16V14.8H15.6zM16,14.4H16.4V14.8H16zM16.4,14.4H16.8V14.8H16.4zM0.8,14.8H1.2V15.2H0.8zM3.2,14.8H3.6V15.2H3.2zM4,14.8H4.4V15.2H4zM5.2,14.8H5.6V15.2H5.2zM6.4,14.8H6.8V15.2H6.4zM7.2,14.8H7.6V15.2H7.2zM7.6,14.8H8V15.2H7.6zM8.4,14.8H8.8V15.2H8.4zM10.4,14.8H10.8V15.2H10.4zM12,14.8H12.4V15.2H12zM13.6,14.8H14V15.2H13.6zM15.2,14.8H15.6V15.2H15.2zM16.4,14.8H16.8V15.2H16.4zM0.8,15.2H1.2V15.6H0.8zM1.6,15.2H2V15.6H1.6zM2,15.2H2.4V15.6H2zM2.4,15.2H2.8V15.6H2.4zM3.2,15.2H3.6V15.6H3.2zM4.4,15.2H4.8V15.6H4.4zM6,15.2H6.4V15.6H6zM8.4,15.2H8.8V15.6H8.4zM9.2,15.2H9.6V15.6H9.2zM11.2,15.2H11.6V15.6H11.2zM12.4,15.2H12.8V15.6H12.4zM13.6,15.2H14V15.6H13.6zM14,15.2H14.4V15.6H14zM14.4,15.2H14.8V15.6H14.4zM14.8,15.2H15.2V15.6H14.8zM15.2,15.2H15.6V15.6H15.2zM15.6,15.2H16V15.6H15.6zM16,15.2H16.4V15.6H16zM16.8,15.2H17.2V15.6H16.8zM0.8,15.6H1.2V16H0.8zM1.6,15.6H2V16H1.6zM2,15.6H2.4V16H2zM2.4,15.6H2.8V16H2.4zM3.2,15.6H3.6V16H3.2zM4,15.6H4.4V16H4zM4.4,15.6H4.8V16H4.4zM5.6,15.6H6V16H5.6zM6.4,15.6H6.8V16H6.4zM7.2,15.6H7.6V16H7.2zM7.6,15.6H8V16H7.6zM8.4,15.6H8.8V16H8.4zM9.6,15.6H10V16H9.6zM11.2,15.6H11.6V16H11.2zM11.6,15.6H12V16H11.6zM12.4,15.6H12.8V16H12.4zM12.8,15.6H13.2V16H12.8zM13.2,15.6H13.6V16H13.2zM15.2,15.6H15.6V16H15.2zM16,15.6H16.4V16H16zM16.4,15.6H16.8V16H16.4zM0.8,16H1.2V16.4H0.8zM1.6,16H2V16.4H1.6zM2,16H2.4V16.4H2zM2.4,16H2.8V16.4H2.4zM3.2,16H3.6V16.4H3.2zM4,16H4.4V16.4H4zM4.8,16H5.2V16.4H4.8zM5.2,16H5.6V16.4H5.2zM6.4,16H6.8V16.4H6.4zM6.8,16H7.2V16.4H6.8zM7.2,16H7.6V16.4H7.2zM8,16H8.4V16.4H8zM8.4,16H8.8V16.4H8.4zM8.8,16H9.2V16.4H8.8zM9.2,16H9.6V16.4H9.2zM11.2,16H11.6V16.4H11.2zM12,16H12.4V16.4H12zM12.4,16H12.8V16.4H12.4zM14.8,16H15.2V16.4H14.8zM16.4,16H16.8V16.4H16.4zM16.8,16H17.2V16.4H16.8zM0.8,16.4H1.2V16.8H0.8zM3.2,16.4H3.6V16.8H3.2zM4.4,16.4H4.8V16.8H4.4zM5.2,16.4H5.6V16.8H5.2zM6,16.4H6.4V16.8H6zM6.4,16.4H6.8V16.8H6.4zM6.8,16.4H7.2V16.8H6.8zM8.4,16.4H8.8V16.8H8.4zM9.2,16.4H9.6V16.8H9.2zM9.6,16.4H10V16.8H9.6zM10,16.4H10.4V16.8H10zM10.4,16.4H10.8V16.8H10.4zM11.2,16.4H11.6V16.8H11.2zM12,16.4H12.4V16.8H12zM13.6,16.4H14V16.8H13.6zM14,16.4H14.4V16.8H14zM15.2,16.4H15.6V16.8H15.2zM15.6,16.4H16V16.8H15.6zM16.4,16.4H16.8V16.8H16.4zM0.8,16.8H1.2V17.2H0.8zM1.2,16.8H1.6V17.2H1.2zM1.6,16.8H2V17.2H1.6zM2,16.8H2.4V17.2H2zM2.4,16.8H2.8V17.2H2.4zM2.8,16.8H3.2V17.2H2.8zM3.2,16.8H3.6V17.2H3.2zM4,16.8H4.4V17.2H4zM4.4,16.8H4.8V17.2H4.4zM4.8,16.8H5.2V17.2H4.8zM5.6,16.8H6V17.2H5.6zM6.4,16.8H6.8V17.2H6.4zM6.8,16.8H7.2V17.2H6.8zM7.2,16.8H7.6V17.2H7.2zM8,16.8H8.4V17.2H8zM8.8,16.8H9.2V17.2H8.8zM9.2,16.8H9.6V17.2H9.2zM9.6,16.8H10V17.2H9.6zM10,16.8H10.4V17.2H10zM10.8,16.8H11.2V17.2H10.8zM12.8,16.8H13.2V17.2H12.8zM13.6,16.8H14V17.2H13.6zM14,16.8H14.4V17.2H14zM14.4,16.8H14.8V17.2H14.4zM15.6,16.8H16V17.2H15.6zM16,16.8H16.4V17.2H16zM16.4,16.8H16.8V17.2H16.4z" fill="#0B132B"/>
  </g>
  <text x="1102" y="474" font-family="Inter,Segoe UI,Arial,sans-serif"
        font-size="10" font-weight="700" fill="#8B94A8" text-anchor="middle" letter-spacing="1.5">SCAN BRIEF</text>
</g>
</svg>