<?xml version="1.0" encoding="UTF-8"?>
<svg xmlns="http://www.w3.org/2000/svg" viewBox="0 0 1200 630" width="1200" height="630">
  <title>DevSecOps Viewing Automotive Security Complete Guide</title>
  <defs>
    <linearGradient id="bgGrad" x1="0%" y1="0%" x2="100%" y2="100%">
      <stop offset="0%" style="stop-color:#0a0c1a;stop-opacity:1" />
      <stop offset="100%" style="stop-color:#1a0a0a;stop-opacity:1" />
    </linearGradient>
    <linearGradient id="accentBar" x1="0%" y1="0%" x2="0%" y2="100%">
      <stop offset="0%" style="stop-color:#e53e3e;stop-opacity:1" />
      <stop offset="50%" style="stop-color:#dd6b20;stop-opacity:1" />
      <stop offset="100%" style="stop-color:#3182ce;stop-opacity:1" />
    </linearGradient>
    <linearGradient id="accentLine" x1="0%" y1="0%" x2="100%" y2="0%">
      <stop offset="0%" style="stop-color:#e53e3e;stop-opacity:1" />
      <stop offset="100%" style="stop-color:#3182ce;stop-opacity:0" />
    </linearGradient>
    <linearGradient id="carBodyGrad" x1="0%" y1="0%" x2="0%" y2="100%">
      <stop offset="0%" style="stop-color:#e53e3e;stop-opacity:0.12" />
      <stop offset="100%" style="stop-color:#9b2c2c;stop-opacity:0.06" />
    </linearGradient>
    <linearGradient id="shieldGrad" x1="0%" y1="0%" x2="100%" y2="100%">
      <stop offset="0%" style="stop-color:#3182ce;stop-opacity:0.15" />
      <stop offset="100%" style="stop-color:#2b6cb0;stop-opacity:0.07" />
    </linearGradient>
    <filter id="glow">
      <feGaussianBlur stdDeviation="3" result="coloredBlur" />
      <feMerge><feMergeNode in="coloredBlur" /><feMergeNode in="SourceGraphic" /></feMerge>
    </filter>
  </defs>

  
  <rect width="1200" height="630" fill="url(#bgGrad)" />

  
  <line x1="0" y1="105" x2="1200" y2="105" stroke="rgba(255,255,255,0.03)" stroke-width="1" />
  <line x1="0" y1="210" x2="1200" y2="210" stroke="rgba(255,255,255,0.04)" stroke-width="1" />
  <line x1="0" y1="315" x2="1200" y2="315" stroke="rgba(255,255,255,0.03)" stroke-width="1" />
  <line x1="0" y1="420" x2="1200" y2="420" stroke="rgba(255,255,255,0.04)" stroke-width="1" />

  
  <line x1="240" y1="0" x2="240" y2="630" stroke="rgba(255,255,255,0.03)" stroke-width="1" />
  <line x1="480" y1="0" x2="480" y2="630" stroke="rgba(255,255,255,0.03)" stroke-width="1" />
  <line x1="720" y1="0" x2="720" y2="630" stroke="rgba(255,255,255,0.04)" stroke-width="1" />
  <line x1="960" y1="0" x2="960" y2="630" stroke="rgba(255,255,255,0.03)" stroke-width="1" />

  

  
  <circle cx="1010" cy="225" r="130" fill="rgba(229,62,62,0.04)" stroke="rgba(229,62,62,0.08)" stroke-width="1" />
  <circle cx="1010" cy="225" r="90" fill="rgba(49,130,206,0.05)" stroke="rgba(49,130,206,0.10)" stroke-width="1" />

  
  <rect x="880" y="240" width="260" height="70" rx="8" fill="url(#carBodyGrad)" stroke="rgba(229,62,62,0.25)" stroke-width="1.5" />
  
  <path d="M920,240 Q940,195 980,185 Q1040,178 1090,185 Q1120,190 1130,240 Z" fill="rgba(229,62,62,0.10)" stroke="rgba(229,62,62,0.28)" stroke-width="1.5" />
  
  <path d="M935,240 Q950,210 980,202 Q1020,196 1050,202 Q1070,208 1080,240 Z" fill="rgba(147,197,253,0.08)" stroke="rgba(147,197,253,0.20)" stroke-width="1" />
  
  <rect x="958" y="204" width="40" height="36" rx="3" fill="rgba(147,197,253,0.06)" stroke="rgba(147,197,253,0.18)" stroke-width="1" />
  <rect x="1006" y="202" width="44" height="38" rx="3" fill="rgba(147,197,253,0.06)" stroke="rgba(147,197,253,0.18)" stroke-width="1" />

  
  <rect x="1120" y="255" width="22" height="30" rx="4" fill="rgba(255,200,100,0.08)" stroke="rgba(255,200,100,0.22)" stroke-width="1" />
  
  <circle cx="1131" cy="262" r="5" fill="rgba(255,220,100,0.20)" stroke="rgba(255,220,100,0.40)" stroke-width="1" />

  
  <rect x="878" y="258" width="18" height="24" rx="3" fill="rgba(255,80,80,0.10)" stroke="rgba(255,80,80,0.28)" stroke-width="1" />
  <circle cx="887" cy="265" r="4" fill="rgba(255,80,80,0.18)" stroke="rgba(255,80,80,0.38)" stroke-width="1" />

  
  <circle cx="930" cy="315" r="26" fill="rgba(30,30,50,0.6)" stroke="rgba(200,200,200,0.20)" stroke-width="2" />
  <circle cx="930" cy="315" r="16" fill="none" stroke="rgba(200,200,200,0.15)" stroke-width="1.5" />
  <circle cx="930" cy="315" r="5" fill="rgba(200,200,200,0.12)" stroke="rgba(200,200,200,0.22)" stroke-width="1" />
  
  <line x1="930" y1="299" x2="930" y2="299" stroke="rgba(200,200,200,0.15)" stroke-width="1" />
  <path d="M930,299 L930,331 M914,315 L946,315 M918,303 L942,327 M942,303 L918,327" stroke="rgba(200,200,200,0.12)" stroke-width="1" />

  <circle cx="1092" cy="315" r="26" fill="rgba(30,30,50,0.6)" stroke="rgba(200,200,200,0.20)" stroke-width="2" />
  <circle cx="1092" cy="315" r="16" fill="none" stroke="rgba(200,200,200,0.15)" stroke-width="1.5" />
  <circle cx="1092" cy="315" r="5" fill="rgba(200,200,200,0.12)" stroke="rgba(200,200,200,0.22)" stroke-width="1" />
  <path d="M1092,299 L1092,331 M1076,315 L1108,315 M1080,303 L1104,327 M1104,303 L1080,327" stroke="rgba(200,200,200,0.12)" stroke-width="1" />

  
  <path d="M1000,148 Q1000,145 1003,143 L1030,130 Q1033,128 1036,130 L1063,143 Q1066,145 1066,148 L1066,175 Q1066,195 1033,207 Q1000,195 1000,175 Z" fill="url(#shieldGrad)" stroke="rgba(49,130,206,0.35)" stroke-width="2" />
  
  <path d="M1015,168 L1025,178 L1050,155" fill="none" stroke="rgba(49,130,206,0.55)" stroke-width="2.5" stroke-linecap="round" stroke-linejoin="round" />
  
  <rect x="1022" y="162" width="22" height="16" rx="3" fill="rgba(49,130,206,0.08)" stroke="rgba(49,130,206,0.30)" stroke-width="1" />
  <path d="M1026,162 L1026,157 Q1026,150 1033,150 Q1040,150 1040,157 L1040,162" fill="none" stroke="rgba(49,130,206,0.35)" stroke-width="1.5" />
  <circle cx="1033" cy="170" r="3" fill="rgba(49,130,206,0.35)" stroke="rgba(49,130,206,0.50)" stroke-width="1" />

  
  <circle cx="1010" cy="280" r="50" fill="none" stroke="rgba(49,130,206,0.08)" stroke-width="1" stroke-dasharray="4,6" />
  <circle cx="1010" cy="280" r="70" fill="none" stroke="rgba(49,130,206,0.06)" stroke-width="1" stroke-dasharray="3,8" />
  <circle cx="1010" cy="280" r="90" fill="none" stroke="rgba(49,130,206,0.04)" stroke-width="1" stroke-dasharray="2,10" />

  
  <path d="M885,270 L870,270 L870,340 L885,340" fill="none" stroke="rgba(255,200,100,0.18)" stroke-width="1" stroke-dasharray="3,4" />
  <circle cx="870" cy="270" r="2.5" fill="rgba(255,200,100,0.30)" />
  <circle cx="870" cy="305" r="2.5" fill="rgba(255,200,100,0.25)" />
  <circle cx="870" cy="340" r="2.5" fill="rgba(255,200,100,0.30)" />

  
  <rect x="840" y="260" width="30" height="18" rx="3" fill="rgba(255,200,100,0.08)" stroke="rgba(255,200,100,0.22)" stroke-width="1" />
  <rect x="840" y="296" width="30" height="18" rx="3" fill="rgba(255,200,100,0.08)" stroke="rgba(255,200,100,0.22)" stroke-width="1" />
  <rect x="840" y="332" width="30" height="18" rx="3" fill="rgba(255,200,100,0.08)" stroke="rgba(255,200,100,0.22)" stroke-width="1" />
  <circle cx="870" cy="400" r="5" fill="rgba(229,62,62,0.7)" filter="url(#glow)" />
  <circle cx="900" cy="420" r="4" fill="rgba(237,137,54,0.65)" filter="url(#glow)" />
  <circle cx="860" cy="440" r="3.5" fill="rgba(49,130,206,0.65)" filter="url(#glow)" />

  
  <circle cx="1050" cy="450" r="200" fill="rgba(229,62,62,0.02)" stroke="rgba(229,62,62,0.04)" stroke-width="1" />
  <circle cx="1050" cy="450" r="140" fill="rgba(49,130,206,0.02)" stroke="rgba(49,130,206,0.04)" stroke-width="1" />

  
  <rect x="0" y="0" width="6" height="630" fill="url(#accentBar)" />

  
  <rect x="80" y="60" width="200" height="32" rx="4" fill="rgba(229,62,62,0.15)" stroke="rgba(229,62,62,0.35)" stroke-width="1" />
  <text x="180" y="81" font-family="'Courier New', monospace" font-size="12" fill="rgba(255,150,150,0.90)" text-anchor="middle" letter-spacing="1">JANUARY 6, 2026</text>

  
  <text x="80" y="185" font-family="'Arial', sans-serif" font-size="46" font-weight="700" fill="white" letter-spacing="-0.5">DevSecOps Viewing</text>
  <text x="80" y="245" font-family="'Arial', sans-serif" font-size="46" font-weight="700" fill="white" letter-spacing="-0.5">Automotive Security</text>

  
  <text x="80" y="300" font-family="'Arial', sans-serif" font-size="19" fill="rgba(200,200,220,0.75)">Vehicle Threat Modeling, ECU Hardening &amp; DevSecOps Integration</text>

  
  <rect x="80" y="325" width="420" height="3" rx="1.5" fill="url(#accentLine)" />

  
  <text x="80" y="370" font-family="'Arial', sans-serif" font-size="14" fill="rgba(229,62,62,0.85)" letter-spacing="3" font-weight="600">DEVSECOPS / AUTOMOTIVE</text>

  
  <rect x="80" y="402" width="130" height="36" rx="18" fill="rgba(229,62,62,0.15)" stroke="rgba(229,62,62,0.40)" stroke-width="1" />
  <text x="145" y="425" font-family="'Arial', sans-serif" font-size="13" fill="rgba(255,150,150,0.95)" text-anchor="middle" font-weight="600">ISO 21434</text>

  <rect x="226" y="402" width="130" height="36" rx="18" fill="rgba(237,137,54,0.15)" stroke="rgba(237,137,54,0.40)" stroke-width="1" />
  <text x="291" y="425" font-family="'Arial', sans-serif" font-size="13" fill="rgba(255,195,120,0.95)" text-anchor="middle" font-weight="600">UNECE WP.29</text>

  <rect x="372" y="402" width="130" height="36" rx="18" fill="rgba(49,130,206,0.15)" stroke="rgba(49,130,206,0.40)" stroke-width="1" />
  <text x="437" y="425" font-family="'Arial', sans-serif" font-size="13" fill="rgba(130,190,255,0.95)" text-anchor="middle" font-weight="600">CAN Bus Sec</text>

  
  <line x1="80" y1="520" x2="1120" y2="520" stroke="rgba(255,255,255,0.07)" stroke-width="1" />

  
  <text x="80" y="545" font-family="'Arial', sans-serif" font-size="13" fill="rgba(255,255,255,0.35)">tech.2twodragon.com</text>
  <text x="1120" y="545" font-family="'Arial', sans-serif" font-size="13" fill="rgba(229,62,62,0.50)" text-anchor="end">DEVSECOPS</text>
</svg>