<svg xmlns="http://www.w3.org/2000/svg" viewBox="0 0 1200 630" fill="none">
  <defs>
    <linearGradient id="bg" x1="0" y1="0" x2="1200" y2="630">
      <stop offset="0%" stop-color="#0f172a"/>
      <stop offset="50%" stop-color="#1e293b"/>
      <stop offset="100%" stop-color="#0f172a"/>
    </linearGradient>
    <linearGradient id="accent" x1="0" y1="0" x2="1" y2="1">
      <stop offset="0%" stop-color="#6366f1"/>
      <stop offset="100%" stop-color="#4f46e5"/>
    </linearGradient>
    <linearGradient id="accent2" x1="0" y1="0" x2="1" y2="1">
      <stop offset="0%" stop-color="#10b981"/>
      <stop offset="100%" stop-color="#059669"/>
    </linearGradient>
  </defs>

  <!-- Background -->
  <rect width="1200" height="630" fill="url(#bg)"/>

  <!-- Grid pattern -->
  <g opacity="0.05" stroke="#94a3b8" stroke-width="1">
    <line x1="0" y1="100" x2="1200" y2="100"/>
    <line x1="0" y1="200" x2="1200" y2="200"/>
    <line x1="0" y1="300" x2="1200" y2="300"/>
    <line x1="0" y1="400" x2="1200" y2="400"/>
    <line x1="0" y1="500" x2="1200" y2="500"/>
    <line x1="200" y1="0" x2="200" y2="630"/>
    <line x1="400" y1="0" x2="400" y2="630"/>
    <line x1="600" y1="0" x2="600" y2="630"/>
    <line x1="800" y1="0" x2="800" y2="630"/>
    <line x1="1000" y1="0" x2="1000" y2="630"/>
  </g>

  <!-- Primary icon -->
  <g transform="translate(80, 180)">
    <circle cx="60" cy="70" r="45" fill="url(#accent)" opacity="0.15"/>
    <circle cx="60" cy="70" r="45" fill="none" stroke="#6366f1" stroke-width="2.5"/>
    <path d="M40 55 Q50 35 60 50 Q70 35 80 55" fill="none" stroke="#c7d2fe" stroke-width="2"/>
    <path d="M35 75 Q45 60 55 75 Q65 60 75 75 Q85 60 90 75" fill="none" stroke="#c7d2fe" stroke-width="2"/>
    <text x="60" y="105" text-anchor="middle" fill="#6366f1" font-family="monospace" font-size="14" font-weight="bold">AI</text>
  </g>

  <!-- Secondary icon -->
  <g transform="translate(80, 380)">
    <circle cx="35" cy="50" r="20" fill="none" stroke="#10b981" stroke-width="3"/>
    <circle cx="85" cy="50" r="20" fill="none" stroke="#94a3b8" stroke-width="3"/>
    <circle cx="60" cy="100" r="20" fill="none" stroke="#10b981" stroke-width="3"/>
    <line x1="50" y1="40" x2="70" y2="40" stroke="#94a3b8" stroke-width="2"/>
    <line x1="45" y1="65" x2="50" y2="85" stroke="#10b981" stroke-width="2"/>
    <line x1="75" y1="65" x2="70" y2="85" stroke="#94a3b8" stroke-width="2"/>
    <text x="60" y="110" text-anchor="middle" fill="#10b981" font-family="monospace" font-size="16" font-weight="bold">B</text>
  </g>

  <!-- Main title area -->
  <g transform="translate(260, 100)">
    <text x="0" y="0" fill="#f8fafc" font-family="Arial, sans-serif" font-size="18" font-weight="bold" letter-spacing="4">TECH SECURITY WEEKLY DIGEST</text>
    <text x="0" y="60" fill="#f8fafc" font-family="Arial, sans-serif" font-size="42" font-weight="bold">Blockchain Tech</text>
    <text x="0" y="110" fill="#94a3b8" font-family="Arial, sans-serif" font-size="36" font-weight="300">Digest Bithumb Bitcoin</text>
  </g>

  <!-- Date badge -->
  <rect x="260" y="240" width="200" height="36" rx="18" fill="url(#accent)" opacity="0.9"/>
  <text x="360" y="264" text-anchor="middle" fill="white" font-family="Arial, sans-serif" font-size="16" font-weight="bold">February 09, 2026</text>

  <!-- Stats cards -->
  <g transform="translate(260, 310)">
    <rect x="0" y="0" width="200" height="90" rx="8" fill="#1e293b" stroke="#334155" stroke-width="1"/>
    <text x="20" y="30" fill="#818cf8" font-family="Arial, sans-serif" font-size="12" font-weight="bold">AI/ML</text>
    <text x="20" y="65" fill="#f8fafc" font-family="Arial, sans-serif" font-size="28" font-weight="bold">AI/ML</text>
    <text x="20" y="80" fill="#64748b" font-family="Arial, sans-serif" font-size="13">analysis</text>
    <rect x="220" y="0" width="200" height="90" rx="8" fill="#1e293b" stroke="#334155" stroke-width="1"/>
    <text x="240" y="30" fill="#f59e0b" font-family="Arial, sans-serif" font-size="12" font-weight="bold">BLOCKCHAIN</text>
    <text x="240" y="65" fill="#f8fafc" font-family="Arial, sans-serif" font-size="28" font-weight="bold">Blockchain</text>
    <text x="240" y="80" fill="#64748b" font-family="Arial, sans-serif" font-size="13">analysis</text>
    <rect x="440" y="0" width="200" height="90" rx="8" fill="#1e293b" stroke="#334155" stroke-width="1"/>
    <text x="460" y="30" fill="#f7931a" font-family="Arial, sans-serif" font-size="12" font-weight="bold">BITCOIN</text>
    <text x="460" y="65" fill="#f8fafc" font-family="Arial, sans-serif" font-size="28" font-weight="bold">Bitcoin</text>
    <text x="460" y="80" fill="#64748b" font-family="Arial, sans-serif" font-size="13">analysis</text>
  </g>

  <!-- Key topics -->
  <g transform="translate(260, 440)">
    <rect x="0" y="0" width="75" height="32" rx="16" fill="#991b1b" opacity="0.7"/>
    <text x="37" y="21" text-anchor="middle" fill="#fca5a5" font-family="Arial, sans-serif" font-size="13">AI/ML</text>
    <rect x="90" y="0" width="120" height="32" rx="16" fill="#7c2d12" opacity="0.7"/>
    <text x="150" y="21" text-anchor="middle" fill="#fdba74" font-family="Arial, sans-serif" font-size="13">Blockchain</text>
    <rect x="225" y="0" width="93" height="32" rx="16" fill="#312e81" opacity="0.7"/>
    <text x="271" y="21" text-anchor="middle" fill="#a5b4fc" font-family="Arial, sans-serif" font-size="13">Bitcoin</text>
  </g>

  <!-- Network visualization -->
  <g transform="translate(900, 180)" opacity="0.4">
    <circle cx="125" cy="77" r="3" fill="#f87171"/>
    <circle cx="91" cy="91" r="4" fill="#fb923c"/>
    <circle cx="162" cy="95" r="5" fill="#818cf8"/>
    <circle cx="221" cy="196" r="6" fill="#34d399"/>
    <circle cx="228" cy="221" r="3" fill="#fbbf24"/>
    <circle cx="204" cy="227" r="4" fill="#f87171"/>
    <circle cx="201" cy="129" r="5" fill="#fb923c"/>
    <circle cx="226" cy="204" r="6" fill="#818cf8"/>
    <circle cx="154" cy="173" r="3" fill="#34d399"/>
    <circle cx="45" cy="215" r="4" fill="#fbbf24"/>
    <line x1="125" y1="77" x2="91" y2="91" stroke="#475569" stroke-width="1"/>
    <line x1="91" y1="91" x2="162" y2="95" stroke="#475569" stroke-width="1"/>
    <line x1="162" y1="95" x2="221" y2="196" stroke="#475569" stroke-width="1"/>
    <line x1="221" y1="196" x2="228" y2="221" stroke="#475569" stroke-width="1"/>
    <line x1="228" y1="221" x2="204" y2="227" stroke="#475569" stroke-width="1"/>
    <line x1="204" y1="227" x2="201" y2="129" stroke="#475569" stroke-width="1"/>
    <line x1="201" y1="129" x2="226" y2="204" stroke="#475569" stroke-width="1"/>
    <line x1="226" y1="204" x2="154" y2="173" stroke="#475569" stroke-width="1"/>
  </g>

  <!-- Bottom bar -->
  <rect x="0" y="510" width="1200" height="120" fill="#0f172a" opacity="0.8"/>
  <rect x="0" y="510" width="1200" height="2" fill="url(#accent)" opacity="0.5"/>

  <!-- Bottom text -->
  <text x="80" y="560" fill="#94a3b8" font-family="Arial, sans-serif" font-size="16">tech.2twodragon.com</text>
  <text x="80" y="590" fill="#64748b" font-family="Arial, sans-serif" font-size="13">DevSecOps Weekly Security Intelligence</text>

  <!-- Bottom right -->
  <text x="1120" y="560" text-anchor="end" fill="#64748b" font-family="Arial, sans-serif" font-size="14">10 curated articles</text>
  <text x="1120" y="590" text-anchor="end" fill="#64748b" font-family="Arial, sans-serif" font-size="13">AI/ML | Blockchain | Bitcoin</text>
</svg>
