<svg xmlns="http://www.w3.org/2000/svg" viewBox="0 0 1200 630" width="1200" height="630" role="img" aria-label="Research-based weekly digest cover 2026-04-07: Iran password spraying targeting 300+ Israeli Microsoft 365 organizations, DPRK hackers using GitHub as C2 in multi-stage attack on South Korea, Germany BKA identifies REvil and GandCrab ransomware operation leaders">
<title>Weekly digest 2026-04-07: Iran M365 spray (300+ orgs), DPRK GitHub C2 (Korea), REvil/GandCrab boss ID</title>
<defs>
  <linearGradient id="bgSpread" x1="0%" y1="0%" x2="100%" y2="100%">
    <stop offset="0%" stop-color="#0A1226"/>
    <stop offset="50%" stop-color="#0C1430"/>
    <stop offset="100%" stop-color="#131038"/>
  </linearGradient>
  <linearGradient id="bandA" x1="0%" y1="0%" x2="100%" y2="0%">
    <stop offset="0%" stop-color="#2A0C0C"/>
    <stop offset="100%" stop-color="#1E1220"/>
  </linearGradient>
  <linearGradient id="bandB" x1="0%" y1="0%" x2="100%" y2="0%">
    <stop offset="0%" stop-color="#1A1A0C"/>
    <stop offset="100%" stop-color="#151C1A"/>
  </linearGradient>
  <linearGradient id="bandC" x1="0%" y1="0%" x2="100%" y2="0%">
    <stop offset="0%" stop-color="#061824"/>
    <stop offset="100%" stop-color="#0A1230"/>
  </linearGradient>
  <radialGradient id="sprayGlow" cx="50%" cy="50%" r="50%">
    <stop offset="0%" stop-color="#E63946" stop-opacity="0.65"/>
    <stop offset="100%" stop-color="#E63946" stop-opacity="0"/>
  </radialGradient>
  <radialGradient id="c2Glow" cx="50%" cy="50%" r="50%">
    <stop offset="0%" stop-color="#FFB703" stop-opacity="0.6"/>
    <stop offset="100%" stop-color="#FFB703" stop-opacity="0"/>
  </radialGradient>
  <radialGradient id="raasSeal" cx="50%" cy="50%" r="50%">
    <stop offset="0%" stop-color="#3A86FF" stop-opacity="0.65"/>
    <stop offset="100%" stop-color="#3A86FF" stop-opacity="0"/>
  </radialGradient>
  <linearGradient id="lockGrad" x1="0%" y1="0%" x2="0%" y2="100%">
    <stop offset="0%" stop-color="#E63946"/>
    <stop offset="100%" stop-color="#9B1C2E"/>
  </linearGradient>
  <linearGradient id="badgeBlue" x1="0%" y1="0%" x2="0%" y2="100%">
    <stop offset="0%" stop-color="#3A86FF"/>
    <stop offset="100%" stop-color="#1D5FCC"/>
  </linearGradient>
  <filter id="softShadow" x="-10%" y="-10%" width="130%" height="130%">
    <feGaussianBlur in="SourceAlpha" stdDeviation="2.5"/>
    <feOffset dx="1" dy="3"/>
    <feComponentTransfer><feFuncA type="linear" slope="0.55"/></feComponentTransfer>
    <feMerge><feMergeNode/><feMergeNode in="SourceGraphic"/></feMerge>
  </filter>
  <filter id="textShadow" x="-5%" y="-5%" width="110%" height="110%">
    <feGaussianBlur in="SourceAlpha" stdDeviation="1.2"/>
    <feOffset dx="0" dy="1.5"/>
    <feComponentTransfer><feFuncA type="linear" slope="0.85"/></feComponentTransfer>
    <feMerge><feMergeNode/><feMergeNode in="SourceGraphic"/></feMerge>
  </filter>
  <pattern id="sprayDot" x="0" y="0" width="22" height="22" patternUnits="userSpaceOnUse">
    <circle cx="11" cy="11" r="0.9" fill="#E63946" opacity="0.3"/>
  </pattern>
  <pattern id="circuitDot" x="0" y="0" width="18" height="18" patternUnits="userSpaceOnUse">
    <circle cx="9" cy="9" r="0.8" fill="#3A2A4E" opacity="0.5"/>
  </pattern>
  <pattern id="ledgerGrid" x="0" y="0" width="40" height="20" patternUnits="userSpaceOnUse">
    <path d="M0 20 L40 20" stroke="#1E3A56" stroke-width="0.4" opacity="0.5"/>
    <path d="M40 0 L40 20" stroke="#1E3A56" stroke-width="0.4" opacity="0.5"/>
  </pattern>
</defs>

<!-- Background -->
<rect width="1200" height="630" fill="url(#bgSpread)"/>

<!-- HEADER (0-56) -->
<rect x="0" y="0" width="1200" height="56" fill="#080E1E"/>
<text x="30" y="36" font-family="Inter, Helvetica, Arial, sans-serif" font-size="18" font-weight="700" letter-spacing="3" fill="#8FB8FF">TECH SECURITY WEEKLY</text>
<!-- animate #1 -->
<text x="600" y="36" text-anchor="middle" font-family="Inter, Helvetica, Arial, sans-serif" font-size="22" font-weight="800" letter-spacing="1" fill="#F5F7FA">2026.04.07<animate attributeName="opacity" values="0.75;1;0.75" dur="5s" repeatCount="indefinite"/></text>
<text x="1170" y="36" text-anchor="end" font-family="Inter, Helvetica, Arial, sans-serif" font-size="14" font-weight="600" letter-spacing="1.5" fill="#BFC9D9">DIGEST</text>
<!-- animate #2 -->
<rect x="0" y="55" width="1200" height="2" fill="#3A86FF" opacity="0.4"><animate attributeName="opacity" values="0.25;0.6;0.25" dur="4s" repeatCount="indefinite"/></rect>

<!-- BAND A (56-266): Iran Password Spray — RED -->
<rect x="0" y="56" width="1200" height="210" fill="url(#bandA)"/>
<rect x="0" y="56" width="1200" height="210" fill="url(#sprayDot)" opacity="0.55"/>
<rect x="0" y="56" width="8" height="210" fill="#E63946"/>
<g filter="url(#textShadow)">
  <text x="30" y="100" font-family="Inter, Helvetica, Arial, sans-serif" font-size="18" font-weight="700" letter-spacing="2.4" fill="#F87171">IRAN PASSWORD SPRAY</text>
  <text x="30" y="142" font-family="Inter, Helvetica, Arial, sans-serif" font-size="34" font-weight="800" fill="#F5F7FA">M365 Orgs Under Siege</text>
  <text x="30" y="174" font-family="Inter, Helvetica, Arial, sans-serif" font-size="19" font-weight="600" fill="#FBB6BD">Israel + UAE : Microsoft 365 breach attempts</text>
  <text x="30" y="202" font-family="Inter, Helvetica, Arial, sans-serif" font-size="14" font-weight="500" fill="#D9C9CE">3 waves : Mar 3 / Mar 13 / Mar 23, 2026 : Check Point</text>
</g>
<!-- Lock + spray illustration — 4 animates (#3-6) -->
<g transform="translate(740,161)">
  <!-- animate #3 #4: glow pulse -->
  <circle cx="0" cy="0" r="80" fill="url(#sprayGlow)">
    <animate attributeName="r" values="65;95;65" dur="3.8s" repeatCount="indefinite"/>
    <animate attributeName="opacity" values="0.5;0.9;0.5" dur="3.8s" repeatCount="indefinite"/>
  </circle>
  <!-- Lock body -->
  <rect x="-22" y="-4" width="44" height="38" rx="6" fill="url(#lockGrad)" filter="url(#softShadow)"/>
  <path d="M-12 -4 L-12 -22 Q0 -34 12 -22 L12 -4" stroke="#E63946" stroke-width="5" fill="none" stroke-linecap="round"/>
  <circle cx="0" cy="12" r="6" fill="#0A1226"/>
  <rect x="-3" y="12" width="6" height="10" rx="1" fill="#0A1226"/>
  <!-- Static spray lines (no animate — static opacity) -->
  <g stroke="#F87171" stroke-width="1.4" opacity="0.55" stroke-dasharray="3 3">
    <line x1="32" y1="-30" x2="60" y2="-55"/>
    <line x1="45" y1="0" x2="80" y2="0"/>
    <line x1="32" y1="30" x2="60" y2="55"/>
    <line x1="-32" y1="-30" x2="-60" y2="-55"/>
    <line x1="-45" y1="0" x2="-80" y2="0"/>
    <line x1="-32" y1="30" x2="-60" y2="55"/>
  </g>
  <!-- animate #5: target dots group pulse -->
  <g fill="#FCA5A5">
    <circle cx="68" cy="-58" r="4"/>
    <circle cx="84" cy="0" r="4"/>
    <circle cx="68" cy="58" r="4"/>
    <circle cx="-68" cy="-58" r="4"/>
    <circle cx="-84" cy="0" r="4"/>
    <circle cx="-68" cy="58" r="4"/>
    <animate attributeName="opacity" values="0.3;1;0.3" dur="2.2s" repeatCount="indefinite"/>
  </g>
  <!-- Pulse rings: animate #6 #7 -->
  <circle cx="0" cy="0" r="48" fill="none" stroke="#FCA5A5" stroke-width="0.8">
    <animate attributeName="r" values="42;70;42" dur="3.0s" repeatCount="indefinite"/>
    <animate attributeName="opacity" values="0.7;0;0.7" dur="3.0s" repeatCount="indefinite"/>
  </circle>
</g>
<!-- Band A KPI card -->
<g transform="translate(990,161)" filter="url(#softShadow)">
  <rect x="-80" y="-65" width="180" height="125" rx="14" fill="#1A0508" stroke="#E63946" stroke-width="2.2"/>
  <text x="10" y="-30" text-anchor="middle" font-family="Inter, Helvetica, Arial, sans-serif" font-size="13" font-weight="700" letter-spacing="2" fill="#F87171">ORGS TARGETED</text>
  <text x="10" y="28" text-anchor="middle" font-family="Inter, Helvetica, Arial, sans-serif" font-size="64" font-weight="900" fill="#F5F7FA">300+</text>
  <text x="10" y="52" text-anchor="middle" font-family="Inter, Helvetica, Arial, sans-serif" font-size="12" font-weight="600" fill="#FBB6BD">Israel + UAE, Q1 2026</text>
</g>
<!-- animate #8: KPI pulse dot -->
<circle cx="1000" cy="96" r="3" fill="#E63946"><animate attributeName="opacity" values="0.2;1;0.2" dur="1.8s" repeatCount="indefinite"/></circle>

<!-- BAND B (266-476): DPRK GitHub C2 — AMBER -->
<rect x="0" y="266" width="1200" height="210" fill="url(#bandB)"/>
<rect x="0" y="266" width="1200" height="210" fill="url(#circuitDot)" opacity="0.6"/>
<rect x="0" y="266" width="8" height="210" fill="#FFB703"/>
<g filter="url(#textShadow)">
  <text x="30" y="310" font-family="Inter, Helvetica, Arial, sans-serif" font-size="18" font-weight="700" letter-spacing="2.4" fill="#FFB703">DPRK MULTI-STAGE APT</text>
  <text x="30" y="352" font-family="Inter, Helvetica, Arial, sans-serif" font-size="34" font-weight="800" fill="#F5F7FA">GitHub as C2 : Korea</text>
  <text x="30" y="384" font-family="Inter, Helvetica, Arial, sans-serif" font-size="19" font-weight="600" fill="#FFD58A">LNK dropper + GitHub dead-drop channel</text>
  <text x="30" y="412" font-family="Inter, Helvetica, Arial, sans-serif" font-size="14" font-weight="500" fill="#E0D5B6">Fortinet FortiGuard : LotL tactic : supply chain risk</text>
</g>
<!-- Attack chain: 4 nodes + 2 animateMotion packets + 3 arrow animates (#9-13) -->
<g transform="translate(580,371)">
  <!-- animate #9 #10: C2 glow -->
  <circle cx="-43" cy="0" r="70" fill="url(#c2Glow)">
    <animate attributeName="r" values="55;85;55" dur="4s" repeatCount="indefinite"/>
    <animate attributeName="opacity" values="0.4;0.8;0.4" dur="4s" repeatCount="indefinite"/>
  </circle>
  <!-- Node 1: LNK -->
  <rect x="-205" y="-22" width="80" height="44" rx="8" fill="#2A1E08" stroke="#FFB703" stroke-width="1.8" filter="url(#softShadow)"/>
  <text x="-165" y="-4" text-anchor="middle" font-family="Inter, monospace" font-size="11" font-weight="800" fill="#FFD58A">LNK FILE</text>
  <text x="-165" y="12" text-anchor="middle" font-family="Inter, monospace" font-size="9" font-weight="600" fill="#FFB703">DROPPER</text>
  <!-- animate #11: arrows pulse -->
  <g stroke="#FFB703" stroke-width="1.6" stroke-dasharray="4 3">
    <line x1="-122" y1="0" x2="-92" y2="0"><animate attributeName="stroke-opacity" values="0.3;1;0.3" dur="1.8s" repeatCount="indefinite"/></line>
    <polygon points="-92,0 -100,-4 -100,4" fill="#FFB703"/>
  </g>
  <!-- Node 2: GitHub C2 -->
  <rect x="-88" y="-26" width="90" height="52" rx="8" fill="#1C1A08" stroke="#FFB703" stroke-width="2.2" filter="url(#softShadow)"/>
  <text x="-43" y="-8" text-anchor="middle" font-family="Inter, monospace" font-size="11" font-weight="800" fill="#FFD58A">GITHUB</text>
  <text x="-43" y="7" text-anchor="middle" font-family="Inter, monospace" font-size="10" font-weight="700" fill="#FFB703">C2 RELAY</text>
  <text x="-43" y="20" text-anchor="middle" font-family="Inter, monospace" font-size="8" font-weight="600" fill="#E0D5B6">dead-drop</text>
  <g stroke="#FFB703" stroke-width="1.6" stroke-dasharray="4 3">
    <line x1="4" y1="0" x2="42" y2="0"><animate attributeName="stroke-opacity" values="0.3;1;0.3" dur="1.8s" begin="0.4s" repeatCount="indefinite"/></line>
    <polygon points="42,0 34,-4 34,4" fill="#FFB703"/>
  </g>
  <!-- Node 3: Payload -->
  <rect x="45" y="-22" width="84" height="44" rx="8" fill="#2A1E08" stroke="#E63946" stroke-width="1.8" filter="url(#softShadow)"/>
  <text x="87" y="-4" text-anchor="middle" font-family="Inter, monospace" font-size="11" font-weight="800" fill="#FCA5A5">PAYLOAD</text>
  <text x="87" y="12" text-anchor="middle" font-family="Inter, monospace" font-size="9" font-weight="600" fill="#E63946">INJECTED</text>
  <g stroke="#E63946" stroke-width="1.6" stroke-dasharray="4 3">
    <line x1="132" y1="0" x2="162" y2="0"><animate attributeName="stroke-opacity" values="0.3;1;0.3" dur="1.8s" begin="0.8s" repeatCount="indefinite"/></line>
    <polygon points="162,0 154,-4 154,4" fill="#E63946"/>
  </g>
  <!-- Node 4: Target -->
  <rect x="165" y="-22" width="74" height="44" rx="8" fill="#220812" stroke="#E63946" stroke-width="1.8" filter="url(#softShadow)"/>
  <text x="202" y="-4" text-anchor="middle" font-family="Inter, monospace" font-size="11" font-weight="800" fill="#FCA5A5">KOREA</text>
  <text x="202" y="12" text-anchor="middle" font-family="Inter, monospace" font-size="9" font-weight="600" fill="#E63946">TARGET</text>
  <!-- animateMotion #12 #13: moving packets -->
  <circle r="3.5" fill="#FFD58A" opacity="0.9"><animateMotion path="M-165,0 L-43,0 L87,0 L202,0" dur="2.4s" repeatCount="indefinite"/></circle>
  <circle r="3.5" fill="#FFD58A" opacity="0.6"><animateMotion path="M-165,0 L-43,0 L87,0 L202,0" dur="2.4s" begin="1.2s" repeatCount="indefinite"/></circle>
</g>
<!-- Band B KPI card -->
<g transform="translate(990,371)" filter="url(#softShadow)">
  <rect x="-80" y="-65" width="180" height="125" rx="14" fill="#1A1405" stroke="#FFB703" stroke-width="2.2"/>
  <text x="10" y="-30" text-anchor="middle" font-family="Inter, Helvetica, Arial, sans-serif" font-size="13" font-weight="700" letter-spacing="2" fill="#FFB703">ATTACK HOPS</text>
  <text x="10" y="24" text-anchor="middle" font-family="Inter, Helvetica, Arial, sans-serif" font-size="64" font-weight="900" fill="#F5F7FA">4+</text>
  <text x="10" y="52" text-anchor="middle" font-family="Inter, Helvetica, Arial, sans-serif" font-size="11" font-weight="600" fill="#FFD58A">LNK-C2-Payload-KR</text>
</g>
<!-- animate #14: KPI pulse dot -->
<circle cx="1000" cy="306" r="3" fill="#FFB703"><animate attributeName="opacity" values="0.2;1;0.2" dur="1.6s" repeatCount="indefinite"/></circle>

<!-- BAND C (476-630): REvil/GandCrab ID — BLUE -->
<rect x="0" y="476" width="1200" height="154" fill="url(#bandC)"/>
<rect x="0" y="476" width="1200" height="154" fill="url(#ledgerGrid)" opacity="0.5"/>
<rect x="0" y="476" width="8" height="154" fill="#3A86FF"/>
<g filter="url(#textShadow)">
  <text x="30" y="514" font-family="Inter, Helvetica, Arial, sans-serif" font-size="18" font-weight="700" letter-spacing="2.4" fill="#8FB8FF">RANSOMWARE TAKEDOWN</text>
  <text x="30" y="552" font-family="Inter, Helvetica, Arial, sans-serif" font-size="32" font-weight="800" fill="#F5F7FA">REvil + GandCrab Boss ID</text>
  <text x="30" y="580" font-family="Inter, Helvetica, Arial, sans-serif" font-size="17" font-weight="600" fill="#A8C8FF">Germany BKA : Russian national identified</text>
  <text x="30" y="603" font-family="Inter, Helvetica, Arial, sans-serif" font-size="13" font-weight="500" fill="#BFC9D9">RaaS 2019-2021 : GandCrab $2B+ : REvil Kaseya attack</text>
</g>
<!-- Shield + handcuffs: 4 animates (#15-18) -->
<g transform="translate(670,553)">
  <!-- animate #15 #16: seal glow -->
  <circle cx="0" cy="0" r="55" fill="url(#raasSeal)">
    <animate attributeName="r" values="45;65;45" dur="4.2s" repeatCount="indefinite"/>
    <animate attributeName="opacity" values="0.4;0.8;0.4" dur="4.2s" repeatCount="indefinite"/>
  </circle>
  <!-- Badge shield -->
  <path d="M0 -38 L28 -22 L28 10 Q28 38 0 48 Q-28 38 -28 10 L-28 -22 Z" fill="url(#badgeBlue)" stroke="#8FB8FF" stroke-width="2" filter="url(#softShadow)"/>
  <text x="0" y="-8" text-anchor="middle" font-family="Inter, monospace" font-size="9" font-weight="800" fill="#F5F7FA">BKA</text>
  <text x="0" y="8" text-anchor="middle" font-family="Inter, monospace" font-size="7" font-weight="700" fill="#DDE8FF">ARREST</text>
  <text x="0" y="24" text-anchor="middle" font-family="Inter, monospace" font-size="7" font-weight="600" fill="#A8C8FF">WARRANT</text>
  <!-- Static handcuff links -->
  <g transform="translate(55,0)" stroke="#3A86FF" stroke-width="2.2" fill="none" opacity="0.75">
    <ellipse cx="0" cy="0" rx="10" ry="6"/>
    <ellipse cx="16" cy="0" rx="10" ry="6"/>
    <ellipse cx="32" cy="0" rx="10" ry="6"/>
    <ellipse cx="48" cy="0" rx="10" ry="6"/>
  </g>
  <!-- animate #17: handcuff group pulse -->
  <g transform="translate(55,0)" stroke="#3A86FF" stroke-width="2.2" fill="none">
    <animate attributeName="opacity" values="0.4;0.9;0.4" dur="2.4s" repeatCount="indefinite"/>
  </g>
  <!-- RaaS labels left -->
  <text x="-80" y="-26" font-family="Inter, monospace" font-size="10" font-weight="800" fill="#F87171" text-anchor="middle">REvil</text>
  <text x="-80" y="-10" font-family="Inter, monospace" font-size="9" font-weight="600" fill="#FCA5A5" text-anchor="middle">Kaseya VSA</text>
  <text x="-80" y="12" font-family="Inter, monospace" font-size="10" font-weight="800" fill="#F87171" text-anchor="middle">GandCrab</text>
  <text x="-80" y="28" font-family="Inter, monospace" font-size="9" font-weight="600" fill="#FCA5A5" text-anchor="middle">$2B+ ransom</text>
</g>
<!-- Band C KPI card -->
<g transform="translate(990,553)" filter="url(#softShadow)">
  <rect x="-80" y="-55" width="180" height="110" rx="14" fill="#030C18" stroke="#3A86FF" stroke-width="2.2"/>
  <text x="10" y="-20" text-anchor="middle" font-family="Inter, Helvetica, Arial, sans-serif" font-size="13" font-weight="700" letter-spacing="2" fill="#8FB8FF">RaaS OPS</text>
  <text x="10" y="24" text-anchor="middle" font-family="Inter, Helvetica, Arial, sans-serif" font-size="52" font-weight="900" fill="#F5F7FA">BUST</text>
  <text x="10" y="46" text-anchor="middle" font-family="Inter, Helvetica, Arial, sans-serif" font-size="11" font-weight="600" fill="#A8C8FF">BKA DE, 2019-2021</text>
</g>

<!-- AMBIENT: 10 sparkles across 3 bands (#18-27) — keeping total at 28 counting animateMotion as 2 -->
<g opacity="0.8">
  <!-- Band A sparkles: 4 dots, 1 group animate -->
  <g fill="#F87171">
    <circle cx="220" cy="120" r="1.4"/>
    <circle cx="340" cy="155" r="1.4"/>
    <circle cx="460" cy="115" r="1.4"/>
    <circle cx="540" cy="200" r="1.4"/>
    <animate attributeName="opacity" values="0;0.9;0" dur="2.4s" repeatCount="indefinite"/>
  </g>
  <!-- Band B sparkles: 3 dots, 1 group animate -->
  <g fill="#FFB703">
    <circle cx="240" cy="300" r="1.4"/>
    <circle cx="380" cy="345" r="1.4"/>
    <circle cx="500" cy="305" r="1.4"/>
    <animate attributeName="opacity" values="0;0.9;0" dur="2.0s" begin="0.4s" repeatCount="indefinite"/>
  </g>
  <!-- Band C sparkles: 3 dots, 1 group animate -->
  <g fill="#8FB8FF">
    <circle cx="260" cy="510" r="1.4"/>
    <circle cx="380" cy="548" r="1.4"/>
    <circle cx="500" cy="512" r="1.4"/>
    <animate attributeName="opacity" values="0;0.9;0" dur="2.2s" begin="0.8s" repeatCount="indefinite"/>
  </g>
  <!-- Header data bars: 1 group animate -->
  <g fill="#8FB8FF" opacity="0.5">
    <rect x="800" y="22" width="6" height="2"/>
    <rect x="820" y="22" width="6" height="2"/>
    <rect x="840" y="22" width="6" height="2"/>
    <rect x="860" y="22" width="6" height="2"/>
    <animate attributeName="opacity" values="0.2;0.8;0.2" dur="1.6s" repeatCount="indefinite"/>
  </g>
</g>

<!-- cover-qr: https://tech.2twodragon.com/posts/2026/04/07/Tech_Security_Weekly_Digest_AI_Ransomware_Go_Palantir/ : 41x41 -->
<g transform="translate(1080,504)" filter="url(#softShadow)">
  <rect x="-8" y="-8" width="100" height="100" rx="6" fill="#FFFFFF"/>
  <g transform="scale(2.048780)" fill="#0A1020">
    <path d="M0 0h7v1h-7zM9 0h1v1h-1zM12 0h1v1h-1zM17 0h3v1h-3zM21 0h1v1h-1zM26 0h2v1h-2zM29 0h3v1h-3zM34 0h7v1h-7zM0 1h1v1h-1zM6 1h1v1h-1zM12 1h1v1h-1zM16 1h1v1h-1zM18 1h1v1h-1zM23 1h1v1h-1zM27 1h2v1h-2zM30 1h1v1h-1zM32 1h1v1h-1zM34 1h1v1h-1zM40 1h1v1h-1zM0 2h1v1h-1zM2 2h3v1h-3zM6 2h1v1h-1zM10 2h1v1h-1zM14 2h1v1h-1zM16 2h1v1h-1zM18 2h2v1h-2zM23 2h1v1h-1zM26 2h1v1h-1zM29 2h1v1h-1zM32 2h1v1h-1zM34 2h1v1h-1zM36 2h3v1h-3zM40 2h1v1h-1zM0 3h1v1h-1zM2 3h3v1h-3zM6 3h1v1h-1zM9 3h1v1h-1zM12 3h1v1h-1zM15 3h1v1h-1zM17 3h5v1h-5zM23 3h2v1h-2zM26 3h7v1h-7zM34 3h1v1h-1zM36 3h3v1h-3zM40 3h1v1h-1zM0 4h1v1h-1zM2 4h3v1h-3zM6 4h1v1h-1zM13 4h1v1h-1zM15 4h5v1h-5zM25 4h3v1h-3zM32 4h1v1h-1zM34 4h1v1h-1zM36 4h3v1h-3zM40 4h1v1h-1zM0 5h1v1h-1zM6 5h1v1h-1zM8 5h1v1h-1zM14 5h1v1h-1zM17 5h3v1h-3zM24 5h1v1h-1zM26 5h2v1h-2zM30 5h3v1h-3zM34 5h1v1h-1zM40 5h1v1h-1zM0 6h7v1h-7zM8 6h1v1h-1zM10 6h1v1h-1zM12 6h1v1h-1zM14 6h1v1h-1zM16 6h1v1h-1zM18 6h1v1h-1zM20 6h1v1h-1zM22 6h1v1h-1zM24 6h1v1h-1zM26 6h1v1h-1zM28 6h1v1h-1zM30 6h1v1h-1zM32 6h1v1h-1zM34 6h7v1h-7zM10 7h2v1h-2zM14 7h1v1h-1zM16 7h2v1h-2zM19 7h4v1h-4zM24 7h1v1h-1zM27 7h3v1h-3zM31 7h1v1h-1zM0 8h1v1h-1zM3 8h1v1h-1zM5 8h2v1h-2zM8 8h2v1h-2zM11 8h6v1h-6zM19 8h1v1h-1zM21 8h1v1h-1zM25 8h2v1h-2zM32 8h2v1h-2zM35 8h1v1h-1zM0 9h2v1h-2zM3 9h1v1h-1zM5 9h1v1h-1zM9 9h1v1h-1zM13 9h1v1h-1zM16 9h2v1h-2zM21 9h1v1h-1zM24 9h3v1h-3zM29 9h1v1h-1zM32 9h1v1h-1zM37 9h4v1h-4zM1 10h4v1h-4zM6 10h1v1h-1zM8 10h1v1h-1zM10 10h3v1h-3zM15 10h1v1h-1zM17 10h4v1h-4zM22 10h1v1h-1zM24 10h2v1h-2zM30 10h2v1h-2zM35 10h5v1h-5zM0 11h4v1h-4zM7 11h1v1h-1zM13 11h4v1h-4zM18 11h1v1h-1zM21 11h1v1h-1zM24 11h3v1h-3zM28 11h1v1h-1zM33 11h2v1h-2zM36 11h1v1h-1zM38 11h1v1h-1zM40 11h1v1h-1zM1 12h1v1h-1zM3 12h7v1h-7zM13 12h2v1h-2zM16 12h2v1h-2zM19 12h1v1h-1zM21 12h1v1h-1zM24 12h12v1h-12zM37 12h1v1h-1zM39 12h1v1h-1zM0 13h2v1h-2zM3 13h1v1h-1zM7 13h1v1h-1zM11 13h1v1h-1zM14 13h4v1h-4zM22 13h1v1h-1zM25 13h1v1h-1zM30 13h4v1h-4zM37 13h2v1h-2zM1 14h2v1h-2zM5 14h2v1h-2zM11 14h2v1h-2zM14 14h5v1h-5zM20 14h2v1h-2zM23 14h2v1h-2zM28 14h1v1h-1zM30 14h1v1h-1zM32 14h1v1h-1zM34 14h1v1h-1zM37 14h4v1h-4zM0 15h4v1h-4zM5 15h1v1h-1zM8 15h1v1h-1zM10 15h2v1h-2zM13 15h7v1h-7zM21 15h2v1h-2zM25 15h6v1h-6zM32 15h1v1h-1zM34 15h2v1h-2zM0 16h2v1h-2zM3 16h4v1h-4zM8 16h4v1h-4zM17 16h1v1h-1zM19 16h1v1h-1zM22 16h1v1h-1zM27 16h1v1h-1zM29 16h1v1h-1zM31 16h2v1h-2zM35 16h1v1h-1zM39 16h1v1h-1zM2 17h3v1h-3zM9 17h1v1h-1zM11 17h1v1h-1zM13 17h4v1h-4zM19 17h1v1h-1zM23 17h2v1h-2zM26 17h4v1h-4zM34 17h2v1h-2zM37 17h4v1h-4zM0 18h2v1h-2zM3 18h1v1h-1zM6 18h1v1h-1zM8 18h4v1h-4zM13 18h1v1h-1zM15 18h1v1h-1zM18 18h1v1h-1zM21 18h1v1h-1zM25 18h1v1h-1zM29 18h1v1h-1zM33 18h2v1h-2zM36 18h1v1h-1zM40 18h1v1h-1zM0 19h5v1h-5zM8 19h5v1h-5zM16 19h5v1h-5zM22 19h1v1h-1zM29 19h2v1h-2zM32 19h4v1h-4zM37 19h1v1h-1zM40 19h1v1h-1zM0 20h2v1h-2zM3 20h2v1h-2zM6 20h2v1h-2zM10 20h1v1h-1zM13 20h1v1h-1zM15 20h6v1h-6zM23 20h5v1h-5zM29 20h1v1h-1zM32 20h3v1h-3zM38 20h2v1h-2zM1 21h3v1h-3zM8 21h1v1h-1zM10 21h1v1h-1zM12 21h1v1h-1zM15 21h7v1h-7zM25 21h2v1h-2zM29 21h2v1h-2zM34 21h1v1h-1zM38 21h3v1h-3zM0 22h3v1h-3zM4 22h4v1h-4zM15 22h1v1h-1zM17 22h4v1h-4zM25 22h1v1h-1zM28 22h1v1h-1zM31 22h1v1h-1zM33 22h4v1h-4zM38 22h2v1h-2zM0 23h2v1h-2zM4 23h2v1h-2zM10 23h1v1h-1zM14 23h1v1h-1zM16 23h1v1h-1zM18 23h9v1h-9zM28 23h1v1h-1zM30 23h1v1h-1zM34 23h1v1h-1zM38 23h1v1h-1zM40 23h1v1h-1zM0 24h2v1h-2zM5 24h2v1h-2zM8 24h1v1h-1zM11 24h2v1h-2zM15 24h1v1h-1zM17 24h1v1h-1zM19 24h3v1h-3zM24 24h2v1h-2zM27 24h3v1h-3zM31 24h5v1h-5zM37 24h1v1h-1zM40 24h1v1h-1zM0 25h3v1h-3zM5 25h1v1h-1zM9 25h3v1h-3zM15 25h1v1h-1zM17 25h1v1h-1zM19 25h4v1h-4zM24 25h3v1h-3zM28 25h2v1h-2zM31 25h1v1h-1zM34 25h1v1h-1zM37 25h1v1h-1zM39 25h1v1h-1zM1 26h2v1h-2zM4 26h1v1h-1zM6 26h7v1h-7zM16 26h2v1h-2zM20 26h1v1h-1zM23 26h1v1h-1zM25 26h2v1h-2zM28 26h1v1h-1zM30 26h1v1h-1zM32 26h5v1h-5zM39 26h2v1h-2zM0 27h2v1h-2zM4 27h2v1h-2zM8 27h1v1h-1zM11 27h2v1h-2zM14 27h1v1h-1zM16 27h3v1h-3zM20 27h3v1h-3zM24 27h4v1h-4zM29 27h1v1h-1zM32 27h1v1h-1zM40 27h1v1h-1zM1 28h1v1h-1zM4 28h4v1h-4zM9 28h1v1h-1zM15 28h3v1h-3zM20 28h4v1h-4zM26 28h2v1h-2zM29 28h2v1h-2zM32 28h2v1h-2zM35 28h1v1h-1zM5 29h1v1h-1zM7 29h4v1h-4zM13 29h3v1h-3zM17 29h1v1h-1zM19 29h1v1h-1zM21 29h1v1h-1zM23 29h3v1h-3zM28 29h4v1h-4zM35 29h1v1h-1zM37 29h2v1h-2zM40 29h1v1h-1zM0 30h1v1h-1zM2 30h5v1h-5zM8 30h3v1h-3zM12 30h2v1h-2zM17 30h1v1h-1zM19 30h2v1h-2zM22 30h1v1h-1zM25 30h1v1h-1zM35 30h1v1h-1zM38 30h3v1h-3zM2 31h1v1h-1zM4 31h2v1h-2zM8 31h2v1h-2zM14 31h1v1h-1zM17 31h1v1h-1zM19 31h3v1h-3zM23 31h1v1h-1zM26 31h4v1h-4zM31 31h3v1h-3zM36 31h2v1h-2zM0 32h1v1h-1zM3 32h2v1h-2zM6 32h1v1h-1zM8 32h1v1h-1zM10 32h2v1h-2zM14 32h1v1h-1zM19 32h2v1h-2zM25 32h2v1h-2zM31 32h6v1h-6zM38 32h1v1h-1zM40 32h1v1h-1zM8 33h1v1h-1zM13 33h1v1h-1zM16 33h1v1h-1zM18 33h4v1h-4zM24 33h2v1h-2zM27 33h6v1h-6zM36 33h5v1h-5zM0 34h7v1h-7zM10 34h3v1h-3zM15 34h1v1h-1zM17 34h1v1h-1zM19 34h1v1h-1zM25 34h1v1h-1zM28 34h1v1h-1zM30 34h1v1h-1zM32 34h1v1h-1zM34 34h1v1h-1zM36 34h1v1h-1zM38 34h2v1h-2zM0 35h1v1h-1zM6 35h1v1h-1zM8 35h2v1h-2zM11 35h4v1h-4zM16 35h2v1h-2zM19 35h4v1h-4zM24 35h4v1h-4zM32 35h1v1h-1zM36 35h1v1h-1zM38 35h1v1h-1zM40 35h1v1h-1zM0 36h1v1h-1zM2 36h3v1h-3zM6 36h1v1h-1zM9 36h2v1h-2zM13 36h4v1h-4zM19 36h2v1h-2zM22 36h1v1h-1zM25 36h1v1h-1zM27 36h3v1h-3zM32 36h6v1h-6zM39 36h1v1h-1zM0 37h1v1h-1zM2 37h3v1h-3zM6 37h1v1h-1zM8 37h3v1h-3zM12 37h1v1h-1zM16 37h2v1h-2zM19 37h3v1h-3zM28 37h2v1h-2zM31 37h4v1h-4zM36 37h2v1h-2zM39 37h1v1h-1zM0 38h1v1h-1zM2 38h3v1h-3zM6 38h1v1h-1zM9 38h2v1h-2zM14 38h1v1h-1zM16 38h3v1h-3zM20 38h2v1h-2zM23 38h4v1h-4zM28 38h1v1h-1zM30 38h2v1h-2zM36 38h5v1h-5zM0 39h1v1h-1zM6 39h1v1h-1zM9 39h1v1h-1zM11 39h5v1h-5zM21 39h3v1h-3zM25 39h2v1h-2zM28 39h6v1h-6zM35 39h1v1h-1zM39 39h1v1h-1zM0 40h7v1h-7zM8 40h1v1h-1zM19 40h4v1h-4zM24 40h1v1h-1zM29 40h1v1h-1zM31 40h7v1h-7zM39 40h1v1h-1z"/>
  </g>
</g>
<text x="1122" y="614" font-family="Inter, Helvetica, Arial, sans-serif" font-size="10" font-weight="700" fill="#F5F7FA" text-anchor="middle">scan / full post</text>
</svg>
