<svg xmlns="http://www.w3.org/2000/svg" viewBox="0 0 1200 630" width="1200" height="630" role="img" aria-label="Research-based weekly digest cover: Android 129 CVEs Qualcomm Zero-Day, VMware Aria KEV, DevSecOps 87pct vulnerable orgs">
<title>Weekly digest 2026-03-07: Android 129 CVEs (CVE-2026-21385), VMware Aria KEV (CVE-2026-22719), DevSecOps 87% vulnerable</title>
<!-- profile: high-quality-cover (L22 Stacked Bands, research-based, batch3a-locked) -->
<defs>
  <linearGradient id="bgBase" x1="0%" y1="0%" x2="100%" y2="100%">
    <stop offset="0%" stop-color="#0A1226"/>
    <stop offset="50%" stop-color="#0C1430"/>
    <stop offset="100%" stop-color="#131038"/>
  </linearGradient>
  <linearGradient id="bandA" x1="0%" y1="0%" x2="100%" y2="0%">
    <stop offset="0%" stop-color="#0B1C2E"/>
    <stop offset="100%" stop-color="#0F2338"/>
  </linearGradient>
  <linearGradient id="bandB" x1="0%" y1="0%" x2="100%" y2="0%">
    <stop offset="0%" stop-color="#1A0C2E"/>
    <stop offset="100%" stop-color="#220F38"/>
  </linearGradient>
  <linearGradient id="bandC" x1="0%" y1="0%" x2="100%" y2="0%">
    <stop offset="0%" stop-color="#1C1008"/>
    <stop offset="100%" stop-color="#241810"/>
  </linearGradient>
  <linearGradient id="barA" x1="0%" y1="0%" x2="0%" y2="100%">
    <stop offset="0%" stop-color="#22D3EE"/>
    <stop offset="100%" stop-color="#0EA5E9"/>
  </linearGradient>
  <linearGradient id="barB" x1="0%" y1="0%" x2="0%" y2="100%">
    <stop offset="0%" stop-color="#E63946"/>
    <stop offset="100%" stop-color="#C1121F"/>
  </linearGradient>
  <linearGradient id="barC" x1="0%" y1="0%" x2="0%" y2="100%">
    <stop offset="0%" stop-color="#F97316"/>
    <stop offset="100%" stop-color="#EA580C"/>
  </linearGradient>
  <linearGradient id="kpiA" x1="0%" y1="0%" x2="0%" y2="100%">
    <stop offset="0%" stop-color="#0E2A40"/>
    <stop offset="100%" stop-color="#0A1B2E"/>
  </linearGradient>
  <linearGradient id="kpiB" x1="0%" y1="0%" x2="0%" y2="100%">
    <stop offset="0%" stop-color="#220E3A"/>
    <stop offset="100%" stop-color="#160924"/>
  </linearGradient>
  <linearGradient id="kpiC" x1="0%" y1="0%" x2="0%" y2="100%">
    <stop offset="0%" stop-color="#2A1608"/>
    <stop offset="100%" stop-color="#1C0E04"/>
  </linearGradient>
  <radialGradient id="glowA" cx="50%" cy="50%" r="50%">
    <stop offset="0%" stop-color="#22D3EE" stop-opacity="0.18"/>
    <stop offset="100%" stop-color="#22D3EE" stop-opacity="0"/>
  </radialGradient>
  <radialGradient id="glowB" cx="50%" cy="50%" r="50%">
    <stop offset="0%" stop-color="#E63946" stop-opacity="0.18"/>
    <stop offset="100%" stop-color="#E63946" stop-opacity="0"/>
  </radialGradient>
  <radialGradient id="glowC" cx="50%" cy="50%" r="50%">
    <stop offset="0%" stop-color="#F97316" stop-opacity="0.18"/>
    <stop offset="100%" stop-color="#F97316" stop-opacity="0"/>
  </radialGradient>
  <filter id="softShadow" x="-10%" y="-10%" width="130%" height="130%">
    <feGaussianBlur in="SourceAlpha" stdDeviation="2.5"/>
    <feOffset dx="1" dy="3"/>
    <feComponentTransfer><feFuncA type="linear" slope="0.5"/></feComponentTransfer>
    <feMerge><feMergeNode/><feMergeNode in="SourceGraphic"/></feMerge>
  </filter>
  <filter id="textGlow" x="-5%" y="-5%" width="110%" height="120%">
    <feGaussianBlur in="SourceAlpha" stdDeviation="1.5"/>
    <feOffset dx="0" dy="1"/>
    <feComponentTransfer><feFuncA type="linear" slope="0.8"/></feComponentTransfer>
    <feMerge><feMergeNode/><feMergeNode in="SourceGraphic"/></feMerge>
  </filter>
  <pattern id="dotGrid" x="0" y="0" width="20" height="20" patternUnits="userSpaceOnUse">
    <circle cx="10" cy="10" r="0.7" fill="#3A4A60" opacity="0.4"/>
  </pattern>
  <pattern id="lineGrid" x="0" y="0" width="40" height="16" patternUnits="userSpaceOnUse">
    <path d="M0 16 L40 16" stroke="#2A3A4E" stroke-width="0.4" opacity="0.5"/>
  </pattern>
</defs>

<!-- Background -->
<rect width="1200" height="630" fill="url(#bgBase)"/>

<!-- ===== BAND A (y=0-210): Android Zero-Day ===== -->
<rect x="0" y="0" width="1200" height="210" fill="url(#bandA)"/>
<rect x="0" y="0" width="1200" height="210" fill="url(#dotGrid)" opacity="0.5"/>
<rect x="1140" y="0" width="60" height="210" fill="url(#glowA)" opacity="0.6"/>
<rect x="0" y="0" width="8" height="210" fill="url(#barA)"/>

<!-- Illustration: Android shield -->
<g transform="translate(762,108)" filter="url(#softShadow)">
  <path d="M0,-72 L52,-52 L52,10 C52,42 28,64 0,72 C-28,64 -52,42 -52,10 L-52,-52 Z" fill="none" stroke="#22D3EE" stroke-width="2.5" opacity="0.2"/>
  <path d="M0,-58 L40,-42 L40,8 C40,34 22,52 0,60 C-22,52 -40,34 -40,8 L-40,-42 Z" fill="#22D3EE" fill-opacity="0.07" stroke="#22D3EE" stroke-width="1.5" opacity="0.55"/>
  <rect x="-22" y="-28" width="44" height="34" rx="8" fill="#22D3EE" opacity="0.82"/>
  <circle cx="-10" cy="-16" r="4" fill="#0B1C2E"/>
  <circle cx="10" cy="-16" r="4" fill="#0B1C2E"/>
  <rect x="-16" y="-2" width="32" height="4" rx="2" fill="#0B1C2E" opacity="0.65"/>
  <line x1="-10" y1="-28" x2="-16" y2="-42" stroke="#22D3EE" stroke-width="2" stroke-linecap="round" opacity="0.9"/>
  <line x1="10" y1="-28" x2="16" y2="-42" stroke="#22D3EE" stroke-width="2" stroke-linecap="round" opacity="0.9"/>
  <circle cx="-16" cy="-44" r="2.5" fill="#22D3EE" opacity="0.9"/>
  <circle cx="16" cy="-44" r="2.5" fill="#22D3EE" opacity="0.9"/>
  <circle cx="38" cy="-50" r="16" fill="#E63946" opacity="0.95"/>
  <text x="38" y="-44" text-anchor="middle" font-family="Inter, Helvetica, Arial, sans-serif" font-size="9" font-weight="900" fill="#FFF">CVE</text>
  <text x="38" y="-33" text-anchor="middle" font-family="Inter, Helvetica, Arial, sans-serif" font-size="9" font-weight="700" fill="#FFF">!</text>
  <circle cx="0" cy="0" r="76" fill="none" stroke="#22D3EE" stroke-width="0.8" opacity="0.14">
    <animate attributeName="r" from="76" to="100" dur="3s" repeatCount="indefinite"/>
    <animate attributeName="opacity" from="0.14" to="0" dur="3s" repeatCount="indefinite"/>
  </circle>
  <circle cx="0" cy="0" r="76" fill="none" stroke="#22D3EE" stroke-width="0.8" opacity="0.1">
    <animate attributeName="r" from="76" to="100" dur="3s" begin="1.5s" repeatCount="indefinite"/>
    <animate attributeName="opacity" from="0.1" to="0" dur="3s" begin="1.5s" repeatCount="indefinite"/>
  </circle>
</g>

<!-- Band A text -->
<g filter="url(#textGlow)">
  <text x="30" y="42" font-family="Inter, Helvetica, Arial, sans-serif" font-size="16" font-weight="700" letter-spacing="2.5" fill="#22D3EE">ANDROID SECURITY</text>
  <text x="30" y="84" font-family="Inter, Helvetica, Arial, sans-serif" font-size="38" font-weight="800" fill="#F0F6FF">129 CVEs Patched</text>
  <text x="30" y="116" font-family="Inter, Helvetica, Arial, sans-serif" font-size="18" font-weight="600" fill="#7DD3FC">Qualcomm Zero-Day CVE-2026-21385 Active Exploitation</text>
  <text x="30" y="144" font-family="Inter, Helvetica, Arial, sans-serif" font-size="14" font-weight="500" fill="#94A3B8">Memory corruption in display driver · 234 chipsets affected · Commercial spyware targeting</text>
  <text x="30" y="168" font-family="Inter, Helvetica, Arial, sans-serif" font-size="12" font-weight="500" fill="#64748B">CVSS 7.8 · Patch level 2026-03-05 required · MDM policy enforcement recommended</text>
</g>

<!-- Band A KPI card -->
<g transform="translate(993,106)" filter="url(#softShadow)">
  <rect x="-83" y="-63" width="178" height="122" rx="12" fill="url(#kpiA)" stroke="#22D3EE" stroke-width="1.8"/>
  <text x="6" y="-32" text-anchor="middle" font-family="Inter, Helvetica, Arial, sans-serif" font-size="11" font-weight="700" letter-spacing="2" fill="#22D3EE">VULNS PATCHED</text>
  <text x="6" y="28" text-anchor="middle" font-family="Inter, Helvetica, Arial, sans-serif" font-size="66" font-weight="900" fill="#F0F6FF">129</text>
  <text x="6" y="50" text-anchor="middle" font-family="Inter, Helvetica, Arial, sans-serif" font-size="11" font-weight="600" fill="#7DD3FC">10 Critical severity</text>
</g>

<line x1="0" y1="210" x2="1200" y2="210" stroke="#22D3EE" stroke-width="0.6" opacity="0.28"/>

<!-- ===== BAND B (y=210-420): VMware KEV ===== -->
<rect x="0" y="210" width="1200" height="210" fill="url(#bandB)"/>
<rect x="0" y="210" width="1200" height="210" fill="url(#lineGrid)" opacity="0.5"/>
<rect x="1140" y="210" width="60" height="210" fill="url(#glowB)" opacity="0.5"/>
<rect x="0" y="210" width="8" height="210" fill="url(#barB)"/>

<!-- Illustration: Server/exploit -->
<g transform="translate(762,316)" filter="url(#softShadow)">
  <rect x="-52" y="-56" width="104" height="16" rx="3" fill="#2A1028" stroke="#E63946" stroke-width="1.5" opacity="0.9"/>
  <rect x="-52" y="-35" width="104" height="16" rx="3" fill="#2A1028" stroke="#E63946" stroke-width="1.4" opacity="0.85"/>
  <rect x="-52" y="-14" width="104" height="16" rx="3" fill="#2A1028" stroke="#E63946" stroke-width="1.2" opacity="0.75"/>
  <rect x="-52" y="7" width="104" height="16" rx="3" fill="#2A1028" stroke="#E63946" stroke-width="1" opacity="0.6"/>
  <circle cx="-40" cy="-48" r="3" fill="#E63946">
    <animate attributeName="opacity" values="1;0.3;1" dur="1.2s" repeatCount="indefinite"/>
  </circle>
  <circle cx="-40" cy="-27" r="3" fill="#E63946">
    <animate attributeName="opacity" values="0.3;1;0.3" dur="1.2s" repeatCount="indefinite"/>
  </circle>
  <circle cx="-40" cy="-6" r="3" fill="#F97316" opacity="0.85"/>
  <circle cx="-40" cy="15" r="3" fill="#4ADE80" opacity="0.75"/>
  <path d="M57,-32 L72,-32 L72,32 L57,32" fill="none" stroke="#E63946" stroke-width="2" opacity="0.6"/>
  <polygon points="53,-32 63,-40 63,-24" fill="#E63946" opacity="0.85"/>
  <text x="72" y="-38" text-anchor="middle" font-family="Inter, Helvetica, Arial, sans-serif" font-size="9" font-weight="700" fill="#E63946">RCE</text>
  <rect x="-18" y="36" width="46" height="20" rx="4" fill="#E63946" opacity="0.95"/>
  <text x="5" y="50" text-anchor="middle" font-family="Inter, Helvetica, Arial, sans-serif" font-size="10" font-weight="900" fill="#FFF">KEV</text>
  <ellipse cx="0" cy="0" rx="80" ry="60" fill="none" stroke="#E63946" stroke-width="0.7" opacity="0.12">
    <animate attributeName="rx" from="80" to="105" dur="2.5s" repeatCount="indefinite"/>
    <animate attributeName="ry" from="60" to="82" dur="2.5s" repeatCount="indefinite"/>
    <animate attributeName="opacity" from="0.12" to="0" dur="2.5s" repeatCount="indefinite"/>
  </ellipse>
</g>

<!-- Band B text -->
<g filter="url(#textGlow)">
  <text x="30" y="252" font-family="Inter, Helvetica, Arial, sans-serif" font-size="16" font-weight="700" letter-spacing="2.5" fill="#E63946">VMWARE ACTIVE EXPLOITATION</text>
  <text x="30" y="294" font-family="Inter, Helvetica, Arial, sans-serif" font-size="38" font-weight="800" fill="#F0F6FF">Aria Operations KEV</text>
  <text x="30" y="326" font-family="Inter, Helvetica, Arial, sans-serif" font-size="18" font-weight="600" fill="#FCA5A5">CVE-2026-22719 CISA KEV Listed Unauthenticated RCE</text>
  <text x="30" y="354" font-family="Inter, Helvetica, Arial, sans-serif" font-size="14" font-weight="500" fill="#94A3B8">Arbitrary command execution without authentication · Virtualization infrastructure at risk</text>
  <text x="30" y="378" font-family="Inter, Helvetica, Arial, sans-serif" font-size="12" font-weight="500" fill="#64748B">Patch immediately · Restrict network access · Audit privilege escalation paths</text>
</g>

<!-- Band B KPI card -->
<g transform="translate(993,316)" filter="url(#softShadow)">
  <rect x="-83" y="-63" width="178" height="122" rx="12" fill="url(#kpiB)" stroke="#E63946" stroke-width="1.8"/>
  <text x="6" y="-32" text-anchor="middle" font-family="Inter, Helvetica, Arial, sans-serif" font-size="11" font-weight="700" letter-spacing="2" fill="#E63946">THREAT LEVEL</text>
  <text x="6" y="22" text-anchor="middle" font-family="Inter, Helvetica, Arial, sans-serif" font-size="44" font-weight="900" fill="#F0F6FF">CRIT</text>
  <text x="6" y="50" text-anchor="middle" font-family="Inter, Helvetica, Arial, sans-serif" font-size="11" font-weight="600" fill="#FCA5A5">KEV Active Exploit</text>
</g>

<line x1="0" y1="420" x2="1200" y2="420" stroke="#E63946" stroke-width="0.6" opacity="0.28"/>

<!-- ===== BAND C (y=420-630): DevSecOps ===== -->
<rect x="0" y="420" width="1200" height="210" fill="url(#bandC)"/>
<rect x="0" y="420" width="1200" height="210" fill="url(#dotGrid)" opacity="0.4"/>
<rect x="1140" y="420" width="60" height="210" fill="url(#glowC)" opacity="0.5"/>
<rect x="0" y="420" width="8" height="210" fill="url(#barC)"/>

<!-- Illustration: Pipeline/chart -->
<g transform="translate(762,526)" filter="url(#softShadow)">
  <rect x="-64" y="-40" width="16" height="55" rx="3" fill="#F97316" opacity="0.82"/>
  <rect x="-43" y="-56" width="16" height="71" rx="3" fill="#F97316" opacity="0.72"/>
  <rect x="-22" y="-30" width="16" height="45" rx="3" fill="#F97316" opacity="0.62"/>
  <rect x="-1" y="-66" width="16" height="81" rx="3" fill="#E63946" opacity="0.78"/>
  <rect x="20" y="-48" width="16" height="63" rx="3" fill="#F97316" opacity="0.68"/>
  <rect x="41" y="-38" width="16" height="53" rx="3" fill="#F97316" opacity="0.72"/>
  <line x1="-68" y1="-58" x2="62" y2="-58" stroke="#E63946" stroke-width="1.5" stroke-dasharray="4,3" opacity="0.75"/>
  <text x="-72" y="-62" font-family="Inter, Helvetica, Arial, sans-serif" font-size="9" font-weight="700" fill="#E63946">87%</text>
  <line x1="-68" y1="18" x2="68" y2="18" stroke="#F97316" stroke-width="1" opacity="0.38"/>
  <polygon points="0,36 -16,58 16,58" fill="#F97316" opacity="0.88"/>
  <text x="0" y="54" text-anchor="middle" font-family="Inter, Helvetica, Arial, sans-serif" font-size="12" font-weight="900" fill="#FFF">!</text>
  <line x1="-68" y1="-66" x2="-68" y2="20" stroke="#F97316" stroke-width="1.5" opacity="0">
    <animate attributeName="x1" from="-68" to="68" dur="2.8s" repeatCount="indefinite"/>
    <animate attributeName="x2" from="-68" to="68" dur="2.8s" repeatCount="indefinite"/>
    <animate attributeName="opacity" values="0;0.7;0" dur="2.8s" repeatCount="indefinite"/>
  </line>
</g>

<!-- Band C text -->
<g filter="url(#textGlow)">
  <text x="30" y="462" font-family="Inter, Helvetica, Arial, sans-serif" font-size="16" font-weight="700" letter-spacing="2.5" fill="#F97316">DEVSECOPS REPORT 2026</text>
  <text x="30" y="504" font-family="Inter, Helvetica, Arial, sans-serif" font-size="38" font-weight="800" fill="#F0F6FF">87% Orgs Exposed</text>
  <text x="30" y="536" font-family="Inter, Helvetica, Arial, sans-serif" font-size="18" font-weight="600" fill="#FDBA74">Datadog Report · Production Vulns · 278-Day Dependency Lag</text>
  <text x="30" y="564" font-family="Inter, Helvetica, Arial, sans-serif" font-size="14" font-weight="500" fill="#94A3B8">87% orgs have exploitable vulns in prod · VoidLink K8s malware · CI/CD token leaks</text>
  <text x="30" y="588" font-family="Inter, Helvetica, Arial, sans-serif" font-size="12" font-weight="500" fill="#64748B">Shorten patch SLA · Automate vuln scanning · Harden container runtime detection</text>
</g>

<!-- Band C KPI card -->
<g transform="translate(993,526)" filter="url(#softShadow)">
  <rect x="-83" y="-63" width="178" height="122" rx="12" fill="url(#kpiC)" stroke="#F97316" stroke-width="1.8"/>
  <text x="6" y="-32" text-anchor="middle" font-family="Inter, Helvetica, Arial, sans-serif" font-size="11" font-weight="700" letter-spacing="2" fill="#F97316">EXPOSED ORGS</text>
  <text x="6" y="28" text-anchor="middle" font-family="Inter, Helvetica, Arial, sans-serif" font-size="66" font-weight="900" fill="#F0F6FF">87%</text>
  <text x="6" y="50" text-anchor="middle" font-family="Inter, Helvetica, Arial, sans-serif" font-size="11" font-weight="600" fill="#FDBA74">Prod vulns exploitable</text>
</g>

<!-- ===== HEADER OVERLAY ===== -->
<rect x="8" y="0" width="1192" height="34" fill="#000" fill-opacity="0.35"/>
<text x="20" y="23" font-family="Inter, Helvetica, Arial, sans-serif" font-size="12" font-weight="700" letter-spacing="2" fill="#94A3B8">TECH SECURITY WEEKLY DIGEST</text>
<text x="1180" y="23" text-anchor="end" font-family="Inter, Helvetica, Arial, sans-serif" font-size="12" font-weight="700" letter-spacing="1.5" fill="#94A3B8">2026.03.07</text>

<!-- ===== FOOTER ===== -->
<rect x="8" y="608" width="1192" height="22" fill="#000" fill-opacity="0.4"/>
<text x="20" y="623" font-family="Inter, Helvetica, Arial, sans-serif" font-size="11" font-weight="500" letter-spacing="1" fill="#475569">tech.2twodragon.com</text>
<text x="1180" y="623" text-anchor="end" font-family="Inter, Helvetica, Arial, sans-serif" font-size="11" font-weight="500" letter-spacing="1" fill="#475569">Android · VMware KEV · DevSecOps</text>

<!-- cover-qr: https://tech.2twodragon.com/posts/2026/03/07/Tech_Security_Weekly_Digest_Android_Zero_Day_DevSecOps/ : 41x41 -->
<g transform="translate(1080,504)" filter="url(#softShadow)">
  <rect x="-8" y="-8" width="100" height="100" rx="6" fill="#FFFFFF"/>
  <g transform="scale(2.048780)" fill="#0A1020">
    <path d="M0 0h7v1h-7zM10 0h1v1h-1zM12 0h1v1h-1zM14 0h2v1h-2zM18 0h5v1h-5zM28 0h5v1h-5zM34 0h7v1h-7zM0 1h1v1h-1zM6 1h1v1h-1zM10 1h3v1h-3zM15 1h1v1h-1zM18 1h1v1h-1zM24 1h2v1h-2zM27 1h1v1h-1zM30 1h1v1h-1zM32 1h1v1h-1zM34 1h1v1h-1zM40 1h1v1h-1zM0 2h1v1h-1zM2 2h3v1h-3zM6 2h1v1h-1zM8 2h1v1h-1zM10 2h2v1h-2zM13 2h1v1h-1zM16 2h1v1h-1zM19 2h1v1h-1zM21 2h2v1h-2zM26 2h3v1h-3zM32 2h1v1h-1zM34 2h1v1h-1zM36 2h3v1h-3zM40 2h1v1h-1zM0 3h1v1h-1zM2 3h3v1h-3zM6 3h1v1h-1zM8 3h3v1h-3zM13 3h2v1h-2zM16 3h1v1h-1zM18 3h1v1h-1zM20 3h1v1h-1zM25 3h4v1h-4zM32 3h1v1h-1zM34 3h1v1h-1zM36 3h3v1h-3zM40 3h1v1h-1zM0 4h1v1h-1zM2 4h3v1h-3zM6 4h1v1h-1zM8 4h1v1h-1zM11 4h1v1h-1zM13 4h2v1h-2zM16 4h2v1h-2zM20 4h2v1h-2zM31 4h1v1h-1zM34 4h1v1h-1zM36 4h3v1h-3zM40 4h1v1h-1zM0 5h1v1h-1zM6 5h1v1h-1zM8 5h1v1h-1zM10 5h3v1h-3zM14 5h4v1h-4zM20 5h1v1h-1zM25 5h1v1h-1zM27 5h1v1h-1zM34 5h1v1h-1zM40 5h1v1h-1zM0 6h7v1h-7zM8 6h1v1h-1zM10 6h1v1h-1zM12 6h1v1h-1zM14 6h1v1h-1zM16 6h1v1h-1zM18 6h1v1h-1zM20 6h1v1h-1zM22 6h1v1h-1zM24 6h1v1h-1zM26 6h1v1h-1zM28 6h1v1h-1zM30 6h1v1h-1zM32 6h1v1h-1zM34 6h7v1h-7zM8 7h1v1h-1zM13 7h2v1h-2zM18 7h4v1h-4zM23 7h1v1h-1zM27 7h1v1h-1zM30 7h2v1h-2zM0 8h1v1h-1zM2 8h5v1h-5zM9 8h1v1h-1zM11 8h3v1h-3zM15 8h1v1h-1zM17 8h1v1h-1zM19 8h1v1h-1zM22 8h2v1h-2zM25 8h5v1h-5zM32 8h1v1h-1zM34 8h5v1h-5zM0 9h3v1h-3zM4 9h1v1h-1zM9 9h1v1h-1zM12 9h1v1h-1zM14 9h1v1h-1zM16 9h1v1h-1zM18 9h2v1h-2zM21 9h1v1h-1zM23 9h1v1h-1zM26 9h1v1h-1zM30 9h3v1h-3zM35 9h2v1h-2zM38 9h1v1h-1zM2 10h3v1h-3zM6 10h4v1h-4zM12 10h1v1h-1zM14 10h2v1h-2zM17 10h2v1h-2zM21 10h2v1h-2zM24 10h2v1h-2zM27 10h1v1h-1zM30 10h1v1h-1zM32 10h1v1h-1zM34 10h3v1h-3zM1 11h1v1h-1zM3 11h1v1h-1zM5 11h1v1h-1zM8 11h4v1h-4zM15 11h1v1h-1zM19 11h3v1h-3zM26 11h1v1h-1zM28 11h1v1h-1zM30 11h3v1h-3zM34 11h1v1h-1zM37 11h1v1h-1zM40 11h1v1h-1zM0 12h3v1h-3zM4 12h4v1h-4zM11 12h3v1h-3zM15 12h3v1h-3zM19 12h1v1h-1zM22 12h1v1h-1zM25 12h1v1h-1zM28 12h5v1h-5zM35 12h1v1h-1zM37 12h2v1h-2zM40 12h1v1h-1zM0 13h1v1h-1zM2 13h3v1h-3zM8 13h4v1h-4zM16 13h3v1h-3zM20 13h1v1h-1zM23 13h1v1h-1zM25 13h1v1h-1zM27 13h3v1h-3zM31 13h2v1h-2zM35 13h4v1h-4zM40 13h1v1h-1zM1 14h1v1h-1zM3 14h1v1h-1zM5 14h4v1h-4zM11 14h1v1h-1zM13 14h1v1h-1zM16 14h2v1h-2zM19 14h1v1h-1zM22 14h1v1h-1zM24 14h1v1h-1zM27 14h1v1h-1zM29 14h2v1h-2zM32 14h2v1h-2zM35 14h1v1h-1zM37 14h2v1h-2zM0 15h1v1h-1zM4 15h1v1h-1zM7 15h1v1h-1zM10 15h3v1h-3zM19 15h4v1h-4zM24 15h1v1h-1zM26 15h1v1h-1zM28 15h1v1h-1zM34 15h1v1h-1zM36 15h2v1h-2zM0 16h2v1h-2zM3 16h1v1h-1zM6 16h1v1h-1zM8 16h2v1h-2zM12 16h2v1h-2zM15 16h3v1h-3zM19 16h4v1h-4zM25 16h3v1h-3zM29 16h1v1h-1zM33 16h1v1h-1zM35 16h1v1h-1zM37 16h2v1h-2zM8 17h1v1h-1zM11 17h4v1h-4zM16 17h5v1h-5zM23 17h1v1h-1zM27 17h6v1h-6zM34 17h3v1h-3zM39 17h2v1h-2zM0 18h1v1h-1zM3 18h1v1h-1zM5 18h2v1h-2zM8 18h4v1h-4zM13 18h1v1h-1zM17 18h1v1h-1zM22 18h1v1h-1zM26 18h4v1h-4zM32 18h1v1h-1zM36 18h1v1h-1zM38 18h2v1h-2zM1 19h4v1h-4zM11 19h2v1h-2zM14 19h1v1h-1zM17 19h2v1h-2zM20 19h5v1h-5zM26 19h1v1h-1zM28 19h1v1h-1zM32 19h2v1h-2zM36 19h2v1h-2zM0 20h1v1h-1zM4 20h4v1h-4zM10 20h6v1h-6zM20 20h2v1h-2zM24 20h3v1h-3zM28 20h1v1h-1zM32 20h1v1h-1zM38 20h1v1h-1zM40 20h1v1h-1zM0 21h4v1h-4zM5 21h1v1h-1zM8 21h1v1h-1zM11 21h1v1h-1zM13 21h4v1h-4zM18 21h1v1h-1zM20 21h2v1h-2zM23 21h2v1h-2zM30 21h2v1h-2zM34 21h3v1h-3zM38 21h3v1h-3zM1 22h1v1h-1zM5 22h2v1h-2zM9 22h1v1h-1zM12 22h7v1h-7zM21 22h1v1h-1zM26 22h3v1h-3zM32 22h1v1h-1zM34 22h1v1h-1zM38 22h1v1h-1zM3 23h3v1h-3zM8 23h1v1h-1zM12 23h1v1h-1zM14 23h1v1h-1zM16 23h1v1h-1zM21 23h3v1h-3zM28 23h1v1h-1zM31 23h2v1h-2zM34 23h1v1h-1zM36 23h2v1h-2zM39 23h1v1h-1zM0 24h4v1h-4zM5 24h2v1h-2zM10 24h1v1h-1zM12 24h1v1h-1zM15 24h3v1h-3zM19 24h1v1h-1zM22 24h1v1h-1zM24 24h3v1h-3zM29 24h1v1h-1zM31 24h1v1h-1zM35 24h1v1h-1zM38 24h1v1h-1zM0 25h1v1h-1zM2 25h1v1h-1zM4 25h1v1h-1zM10 25h1v1h-1zM12 25h3v1h-3zM16 25h1v1h-1zM18 25h4v1h-4zM23 25h1v1h-1zM25 25h2v1h-2zM30 25h2v1h-2zM35 25h3v1h-3zM0 26h1v1h-1zM4 26h1v1h-1zM6 26h3v1h-3zM10 26h1v1h-1zM13 26h1v1h-1zM15 26h1v1h-1zM20 26h3v1h-3zM25 26h3v1h-3zM29 26h2v1h-2zM32 26h1v1h-1zM34 26h1v1h-1zM36 26h1v1h-1zM3 27h1v1h-1zM7 27h1v1h-1zM11 27h1v1h-1zM19 27h5v1h-5zM26 27h2v1h-2zM30 27h3v1h-3zM34 27h4v1h-4zM39 27h1v1h-1zM0 28h2v1h-2zM4 28h1v1h-1zM6 28h2v1h-2zM9 28h4v1h-4zM14 28h1v1h-1zM16 28h2v1h-2zM19 28h2v1h-2zM22 28h2v1h-2zM25 28h1v1h-1zM28 28h4v1h-4zM35 28h1v1h-1zM37 28h2v1h-2zM0 29h2v1h-2zM3 29h3v1h-3zM7 29h1v1h-1zM10 29h3v1h-3zM15 29h4v1h-4zM21 29h1v1h-1zM23 29h1v1h-1zM26 29h1v1h-1zM28 29h2v1h-2zM31 29h3v1h-3zM35 29h2v1h-2zM40 29h1v1h-1zM0 30h1v1h-1zM3 30h1v1h-1zM5 30h2v1h-2zM8 30h2v1h-2zM12 30h1v1h-1zM14 30h1v1h-1zM16 30h1v1h-1zM18 30h1v1h-1zM20 30h2v1h-2zM25 30h4v1h-4zM33 30h3v1h-3zM0 31h1v1h-1zM2 31h1v1h-1zM4 31h2v1h-2zM8 31h1v1h-1zM11 31h2v1h-2zM21 31h3v1h-3zM26 31h3v1h-3zM30 31h1v1h-1zM32 31h4v1h-4zM37 31h1v1h-1zM40 31h1v1h-1zM0 32h1v1h-1zM2 32h1v1h-1zM4 32h6v1h-6zM13 32h1v1h-1zM15 32h1v1h-1zM17 32h1v1h-1zM22 32h2v1h-2zM25 32h5v1h-5zM32 32h5v1h-5zM38 32h2v1h-2zM8 33h8v1h-8zM18 33h3v1h-3zM23 33h1v1h-1zM27 33h2v1h-2zM32 33h1v1h-1zM36 33h1v1h-1zM38 33h3v1h-3zM0 34h7v1h-7zM9 34h1v1h-1zM12 34h1v1h-1zM14 34h3v1h-3zM18 34h1v1h-1zM22 34h1v1h-1zM25 34h1v1h-1zM27 34h2v1h-2zM31 34h2v1h-2zM34 34h1v1h-1zM36 34h2v1h-2zM0 35h1v1h-1zM6 35h1v1h-1zM8 35h1v1h-1zM10 35h1v1h-1zM12 35h1v1h-1zM15 35h1v1h-1zM19 35h2v1h-2zM26 35h2v1h-2zM30 35h3v1h-3zM36 35h2v1h-2zM40 35h1v1h-1zM0 36h1v1h-1zM2 36h3v1h-3zM6 36h1v1h-1zM8 36h1v1h-1zM10 36h1v1h-1zM12 36h1v1h-1zM15 36h2v1h-2zM18 36h2v1h-2zM21 36h2v1h-2zM26 36h1v1h-1zM29 36h1v1h-1zM32 36h7v1h-7zM40 36h1v1h-1zM0 37h1v1h-1zM2 37h3v1h-3zM6 37h1v1h-1zM8 37h3v1h-3zM12 37h1v1h-1zM14 37h2v1h-2zM19 37h3v1h-3zM23 37h2v1h-2zM30 37h4v1h-4zM35 37h1v1h-1zM37 37h1v1h-1zM39 37h2v1h-2zM0 38h1v1h-1zM2 38h3v1h-3zM6 38h1v1h-1zM8 38h1v1h-1zM14 38h1v1h-1zM17 38h2v1h-2zM20 38h1v1h-1zM22 38h1v1h-1zM24 38h4v1h-4zM29 38h3v1h-3zM33 38h5v1h-5zM0 39h1v1h-1zM6 39h1v1h-1zM9 39h1v1h-1zM12 39h1v1h-1zM16 39h4v1h-4zM21 39h2v1h-2zM24 39h1v1h-1zM26 39h1v1h-1zM28 39h1v1h-1zM32 39h2v1h-2zM36 39h2v1h-2zM39 39h1v1h-1zM0 40h7v1h-7zM8 40h1v1h-1zM11 40h3v1h-3zM16 40h1v1h-1zM18 40h1v1h-1zM22 40h1v1h-1zM24 40h4v1h-4zM29 40h1v1h-1zM34 40h5v1h-5z"/>
  </g>
</g>
<text x="1122" y="614" font-family="Inter, Helvetica, Arial, sans-serif" font-size="10" font-weight="700" fill="#F5F7FA" text-anchor="middle">scan / full post</text>
</svg>
