<?xml version="1.0" encoding="UTF-8"?>
<svg xmlns="http://www.w3.org/2000/svg" viewBox="0 0 1200 630" width="1200" height="630">
  <title>Tech Security Weekly Digest - Kubernetes RBAC, SLSA Supply Chain, AI Prompt Injection</title>
  <defs>
    <filter id="orbGlow"><feGaussianBlur stdDeviation="40" /></filter>
    <filter id="cardShadow" x="-10%" y="-10%" width="130%" height="130%">
      <feDropShadow dx="0" dy="4" stdDeviation="12" flood-color="#000" flood-opacity="0.4" />
    </filter>
    <linearGradient id="accentGrad" x1="0" y1="0" x2="1" y2="1">
      <stop offset="0%" stop-color="#3b82f6" />
      <stop offset="100%" stop-color="#8b5cf6" />
    </linearGradient>
    <linearGradient id="accentLine" x1="0" y1="0" x2="1" y2="0">
      <stop offset="0%" stop-color="#3b82f6" />
      <stop offset="50%" stop-color="#6366f1" />
      <stop offset="100%" stop-color="#8b5cf6" />
    </linearGradient>
    <linearGradient id="cardBorder1" x1="0" y1="0" x2="1" y2="1">
      <stop offset="0%" stop-color="#ef4444" stop-opacity="0.6" />
      <stop offset="100%" stop-color="#3b82f6" stop-opacity="0.1" />
    </linearGradient>
    <linearGradient id="cardBorder2" x1="0" y1="0" x2="1" y2="1">
      <stop offset="0%" stop-color="#3b82f6" stop-opacity="0.5" />
      <stop offset="100%" stop-color="#8b5cf6" stop-opacity="0.15" />
    </linearGradient>
    <linearGradient id="cardBorder3" x1="0" y1="0" x2="1" y2="1">
      <stop offset="0%" stop-color="#8b5cf6" stop-opacity="0.5" />
      <stop offset="100%" stop-color="#f59e0b" stop-opacity="0.1" />
    </linearGradient>
    <linearGradient id="cardFill1" x1="0" y1="0" x2="0.5" y2="1">
      <stop offset="0%" stop-color="#1e293b" stop-opacity="0.7" />
      <stop offset="100%" stop-color="#0f172a" stop-opacity="0.5" />
    </linearGradient>
    <linearGradient id="cardFill2" x1="0" y1="0" x2="0.5" y2="1">
      <stop offset="0%" stop-color="#1e293b" stop-opacity="0.65" />
      <stop offset="100%" stop-color="#0f172a" stop-opacity="0.45" />
    </linearGradient>
    <pattern id="dots" x="0" y="0" width="30" height="30" patternUnits="userSpaceOnUse">
      <circle cx="15" cy="15" r="0.8" fill="#334155" opacity="0.5" />
    </pattern>
  </defs>

  <rect width="1200" height="630" fill="#0f172a" />
  <rect width="1200" height="630" fill="url(#dots)" />

  <circle cx="770" cy="145" r="185" fill="#3b82f6" opacity="0.07" filter="url(#orbGlow)" />
  <circle cx="1040" cy="440" r="150" fill="#8b5cf6" opacity="0.06" filter="url(#orbGlow)" />
  <circle cx="190" cy="500" r="120" fill="#6366f1" opacity="0.05" filter="url(#orbGlow)" />

  <!-- Card 1: AI Prompt Injection -->
  <g transform="translate(830, 60)" filter="url(#cardShadow)">
    <rect width="310" height="220" rx="16" fill="url(#cardFill2)" stroke="url(#cardBorder3)" stroke-width="1.5" />
    <rect x="2" y="2" width="306" height="80" rx="14" fill="white" opacity="0.03" />
    <g transform="translate(100, 18)">
      <circle cx="55" cy="45" r="28" fill="none" stroke="#f59e0b" stroke-width="2" opacity="0.8" />
      <circle cx="55" cy="45" r="15" fill="#f59e0b" opacity="0.15" />
      <text x="55" y="50" text-anchor="middle" fill="#f59e0b" font-family="Inter,system-ui,sans-serif" font-size="14" font-weight="700">AI</text>
      <path d="M30 75 L55 85 L80 75" fill="none" stroke="#ef4444" stroke-width="2" stroke-dasharray="4 3" opacity="0.7" />
      <text x="55" y="98" text-anchor="middle" fill="#ef4444" font-family="monospace" font-size="8" opacity="0.7">INJECT</text>
      <rect x="22" y="105" width="66" height="16" rx="4" fill="#f59e0b" opacity="0.2" stroke="#f59e0b" stroke-width="1" stroke-opacity="0.4" />
      <text x="55" y="117" text-anchor="middle" fill="#fbbf24" font-family="Inter,system-ui,sans-serif" font-size="8" font-weight="700">PROMPT DEF</text>
    </g>
    <circle cx="130" cy="200" r="3" fill="#f59e0b" opacity="0.8" />
    <circle cx="145" cy="200" r="3" fill="#ef4444" opacity="0.6" />
    <circle cx="160" cy="200" r="3" fill="#f59e0b" opacity="0.4" />
  </g>

  <!-- Card 2: SLSA Supply Chain -->
  <g transform="translate(720, 190)" filter="url(#cardShadow)">
    <rect width="310" height="230" rx="16" fill="url(#cardFill1)" stroke="url(#cardBorder2)" stroke-width="1.5" />
    <rect x="2" y="2" width="306" height="80" rx="14" fill="white" opacity="0.03" />
    <g transform="translate(95, 15)">
      <path d="M55 10 L100 30 L100 75 L55 95 L10 75 L10 30 Z" fill="none" stroke="#6366f1" stroke-width="2" opacity="0.85" />
      <line x1="55" y1="10" x2="55" y2="52" stroke="#6366f1" stroke-width="1.5" opacity="0.5" />
      <line x1="10" y1="30" x2="55" y2="52" stroke="#6366f1" stroke-width="1.5" opacity="0.5" />
      <line x1="100" y1="30" x2="55" y2="52" stroke="#6366f1" stroke-width="1.5" opacity="0.5" />
      <path d="M40 48 L50 58 L70 38" fill="none" stroke="#22c55e" stroke-width="3" stroke-linecap="round" opacity="0.8" />
      <rect x="18" y="102" width="72" height="16" rx="4" fill="#6366f1" opacity="0.2" stroke="#6366f1" stroke-width="1" stroke-opacity="0.4" />
      <text x="54" y="114" text-anchor="middle" fill="#a5b4fc" font-family="Inter,system-ui,sans-serif" font-size="8" font-weight="700">SLSA + SBOM</text>
    </g>
    <rect x="40" y="192" width="230" height="4" rx="2" fill="#1e293b" />
    <rect x="40" y="192" width="175" height="4" rx="2" fill="url(#accentGrad)" opacity="0.7" />
  </g>

  <!-- Card 3: Kubernetes RBAC -->
  <g transform="translate(660, 340)" filter="url(#cardShadow)">
    <rect width="320" height="240" rx="16" fill="url(#cardFill1)" stroke="url(#cardBorder1)" stroke-width="1.5" />
    <rect x="2" y="2" width="316" height="80" rx="14" fill="white" opacity="0.03" />
    <g transform="translate(110, 12)">
      <!-- K8s wheel -->
      <circle cx="50" cy="50" r="35" fill="none" stroke="#3b82f6" stroke-width="2" opacity="0.7" />
      <circle cx="50" cy="50" r="12" fill="#3b82f6" opacity="0.2" />
      <circle cx="50" cy="50" r="5" fill="#3b82f6" opacity="0.5" />
      <line x1="50" y1="15" x2="50" y2="30" stroke="#3b82f6" stroke-width="2.5" opacity="0.6" stroke-linecap="round" />
      <line x1="50" y1="70" x2="50" y2="85" stroke="#3b82f6" stroke-width="2.5" opacity="0.6" stroke-linecap="round" />
      <line x1="15" y1="50" x2="30" y2="50" stroke="#3b82f6" stroke-width="2.5" opacity="0.6" stroke-linecap="round" />
      <line x1="70" y1="50" x2="85" y2="50" stroke="#3b82f6" stroke-width="2.5" opacity="0.6" stroke-linecap="round" />
      <line x1="25" y1="25" x2="36" y2="36" stroke="#3b82f6" stroke-width="2" opacity="0.5" stroke-linecap="round" />
      <line x1="64" y1="64" x2="75" y2="75" stroke="#3b82f6" stroke-width="2" opacity="0.5" stroke-linecap="round" />
      <line x1="75" y1="25" x2="64" y2="36" stroke="#3b82f6" stroke-width="2" opacity="0.5" stroke-linecap="round" />
      <line x1="36" y1="64" x2="25" y2="75" stroke="#3b82f6" stroke-width="2" opacity="0.5" stroke-linecap="round" />
      <!-- RBAC warning -->
      <circle cx="78" cy="22" r="10" fill="#ef4444" opacity="0.2" />
      <text x="78" y="26" text-anchor="middle" fill="#ef4444" font-family="Inter,system-ui,sans-serif" font-size="12" font-weight="900">!</text>
      <rect x="12" y="96" width="76" height="16" rx="4" fill="#3b82f6" opacity="0.2" stroke="#3b82f6" stroke-width="1" stroke-opacity="0.4" />
      <text x="50" y="108" text-anchor="middle" fill="#93c5fd" font-family="Inter,system-ui,sans-serif" font-size="8" font-weight="700">K8S RBAC</text>
    </g>
    <g transform="translate(40, 195)">
      <rect width="240" height="28" rx="6" fill="#1e293b" opacity="0.8" />
      <circle cx="18" cy="14" r="5" fill="#ef4444" opacity="0.9">
        <animate attributeName="opacity" values="0.9;0.4;0.9" dur="2s" repeatCount="indefinite" />
      </circle>
    </g>
  </g>

  <!-- Floating particles -->
  <circle cx="720" cy="280" r="2" fill="#3b82f6" opacity="0.5">
    <animate attributeName="cy" values="280;270;280" dur="3s" repeatCount="indefinite" />
  </circle>
  <circle cx="840" cy="330" r="1.5" fill="#8b5cf6" opacity="0.4">
    <animate attributeName="cy" values="330;320;330" dur="2.5s" repeatCount="indefinite" />
  </circle>
  <circle cx="1060" cy="300" r="2" fill="#6366f1" opacity="0.5">
    <animate attributeName="cy" values="300;290;300" dur="3.5s" repeatCount="indefinite" />
  </circle>
  <circle cx="690" cy="205" r="1.5" fill="#3b82f6" opacity="0.3">
    <animate attributeName="cy" values="205;197;205" dur="2.8s" repeatCount="indefinite" />
  </circle>
  <circle cx="1110" cy="175" r="1" fill="#8b5cf6" opacity="0.4">
    <animate attributeName="cy" values="175;167;175" dur="2s" repeatCount="indefinite" />
  </circle>

  <!-- WEEKLY DIGEST badge -->
  <g transform="translate(60, 80)">
    <rect width="160" height="32" rx="16" fill="#3b82f6" opacity="0.15" stroke="#3b82f6" stroke-width="1" stroke-opacity="0.4" />
    <text x="80" y="21" text-anchor="middle" fill="#60a5fa" font-family="Inter,system-ui,sans-serif" font-size="12" font-weight="600" letter-spacing="1.5">WEEKLY DIGEST</text>
  </g>

  <text x="60" y="170" fill="white" font-family="Inter,system-ui,sans-serif" font-size="44" font-weight="800" letter-spacing="-0.5">Tech Security</text>
  <text x="60" y="225" fill="white" font-family="Inter,system-ui,sans-serif" font-size="44" font-weight="800" letter-spacing="-0.5">Weekly</text>
  <text x="60" y="290" fill="url(#accentGrad)" font-family="Inter,system-ui,sans-serif" font-size="38" font-weight="700" letter-spacing="-0.3">K8s RBAC Bypass</text>
  <text x="60" y="335" fill="url(#accentGrad)" font-family="Inter,system-ui,sans-serif" font-size="38" font-weight="700" letter-spacing="-0.3">SLSA Supply Chain</text>

  <rect x="60" y="360" width="200" height="3" rx="1.5" fill="url(#accentLine)" />

  <g transform="translate(60, 385)">
    <rect width="52" height="30" rx="15" fill="#3b82f6" opacity="0.12" stroke="#3b82f6" stroke-width="0.8" stroke-opacity="0.35" />
    <text x="26" y="20" text-anchor="middle" fill="#60a5fa" font-family="Inter,system-ui,sans-serif" font-size="11" font-weight="600">K8s</text>
    <g transform="translate(62, 0)">
      <rect width="60" height="30" rx="15" fill="#6366f1" opacity="0.12" stroke="#6366f1" stroke-width="0.8" stroke-opacity="0.35" />
      <text x="30" y="20" text-anchor="middle" fill="#a5b4fc" font-family="Inter,system-ui,sans-serif" font-size="11" font-weight="600">SLSA</text>
    </g>
    <g transform="translate(132, 0)">
      <rect width="86" height="30" rx="15" fill="#8b5cf6" opacity="0.12" stroke="#8b5cf6" stroke-width="0.8" stroke-opacity="0.35" />
      <text x="43" y="20" text-anchor="middle" fill="#c4b5fd" font-family="Inter,system-ui,sans-serif" font-size="11" font-weight="600">AI Agent</text>
    </g>
    <g transform="translate(228, 0)">
      <rect width="58" height="30" rx="15" fill="#ef4444" opacity="0.12" stroke="#ef4444" stroke-width="0.8" stroke-opacity="0.35" />
      <text x="29" y="20" text-anchor="middle" fill="#f87171" font-family="Inter,system-ui,sans-serif" font-size="11" font-weight="600">CVE</text>
    </g>
  </g>

  <text x="60" y="460" fill="#64748b" font-family="Inter,system-ui,sans-serif" font-size="13" font-weight="500" letter-spacing="2">MARCH 26, 2026</text>

  <g transform="translate(60, 560)">
    <circle cx="6" cy="-4" r="4" fill="url(#accentGrad)" opacity="0.8" />
    <text x="18" y="0" fill="#475569" font-family="Inter,system-ui,sans-serif" font-size="13" font-weight="500">tech.2twodragon.com</text>
  </g>

  <rect x="1" y="1" width="1198" height="628" rx="4" fill="none" stroke="#1e293b" stroke-width="1" />
</svg>