<svg xmlns="http://www.w3.org/2000/svg" viewBox="0 0 1200 630">
  <defs>
    <linearGradient id="bg" x1="0%" y1="0%" x2="100%" y2="100%">
      <stop offset="0%" style="stop-color:#0a0a1a"/><stop offset="100%" style="stop-color:#0a1a2a"/>
    </linearGradient>
    <filter id="glow"><feGaussianBlur stdDeviation="4" result="b"/><feMerge><feMergeNode in="b"/><feMergeNode in="SourceGraphic"/></feMerge></filter>
    <filter id="sg"><feGaussianBlur stdDeviation="30"/></filter>
    <filter id="shadow"><feDropShadow dx="0" dy="4" stdDeviation="8" flood-color="#000" flood-opacity="0.3"/></filter>
  </defs>
  <rect width="1200" height="630" fill="url(#bg)"/>
  <circle cx="600" cy="250" r="280" fill="#4285f4" opacity="0.03" filter="url(#sg)"/>
  <g transform="translate(600,225)">
    <!-- GCP hexagon -->
    <g filter="url(#shadow)">
      <polygon points="0,-100 87,-50 87,50 0,100 -87,50 -87,-50" fill="#1e293b" stroke="#4285f4" stroke-width="3"/>
      <polygon points="0,-80 70,-40 70,40 0,80 -70,40 -70,-40" fill="none" stroke="#4285f4" stroke-width="1" stroke-dasharray="6,3" opacity="0.3"/>
      <!-- Google colors dots -->
      <circle cx="0" cy="-40" r="8" fill="#4285f4" opacity="0.6"/>
      <circle cx="35" cy="-20" r="8" fill="#ea4335" opacity="0.6"/>
      <circle cx="35" cy="20" r="8" fill="#fbbc05" opacity="0.6"/>
      <circle cx="0" cy="40" r="8" fill="#34a853" opacity="0.6"/>
      <circle cx="-35" cy="20" r="8" fill="#4285f4" opacity="0.6"/>
      <circle cx="-35" cy="-20" r="8" fill="#ea4335" opacity="0.6"/>
      <!-- Center -->
      <text x="0" y="5" font-family="Arial,sans-serif" font-size="22" font-weight="bold" fill="#4285f4" text-anchor="middle">GCP</text>
    </g>
    <!-- IAM key icon (left) -->
    <g transform="translate(-150,0)" opacity="0.5">
      <circle cx="0" cy="0" r="16" fill="#1e293b" stroke="#fbbc05" stroke-width="2"/>
      <circle cx="0" cy="0" r="5" fill="none" stroke="#fbbc05" stroke-width="1.5"/>
      <line x1="8" y1="0" x2="22" y2="0" stroke="#fbbc05" stroke-width="2"/>
      <line x1="18" y1="0" x2="18" y2="5" stroke="#fbbc05" stroke-width="1.5"/>
      <text x="0" y="28" font-family="Courier New" font-size="8" fill="#fde68a" text-anchor="middle">IAM</text>
    </g>
    <!-- GKE icon (right) -->
    <g transform="translate(150,0)" opacity="0.5">
      <circle cx="0" cy="0" r="20" fill="#1e293b" stroke="#326ce5" stroke-width="2"/>
      <circle cx="0" cy="0" r="7" fill="none" stroke="#326ce5" stroke-width="1.5"/>
      <line x1="0" y1="-20" x2="0" y2="-7" stroke="#326ce5" stroke-width="1.5"/>
      <line x1="0" y1="7" x2="0" y2="20" stroke="#326ce5" stroke-width="1.5"/>
      <line x1="-20" y1="0" x2="-7" y2="0" stroke="#326ce5" stroke-width="1.5"/>
      <line x1="7" y1="0" x2="20" y2="0" stroke="#326ce5" stroke-width="1.5"/>
      <text x="0" y="32" font-family="Courier New" font-size="8" fill="#93c5fd" text-anchor="middle">GKE</text>
    </g>
    <!-- Connection arrows -->
    <line x1="-130" y1="0" x2="-92" y2="0" stroke="#94a3b8" stroke-width="1.5" stroke-dasharray="4,3" opacity="0.3"/>
    <line x1="92" y1="0" x2="125" y2="0" stroke="#94a3b8" stroke-width="1.5" stroke-dasharray="4,3" opacity="0.3"/>
    <!-- Security shield -->
    <path d="M0,-115 L100,-85 L100,50 C100,80 55,100 0,110 C-55,100 -100,80 -100,50 L-100,-85 Z" fill="none" stroke="#34a853" stroke-width="2" stroke-dasharray="8,4" opacity="0.2"/>
  </g>
  <text x="600" y="510" font-family="Arial,sans-serif" font-size="36" font-weight="bold" fill="white" text-anchor="middle" filter="url(#glow)">GCP Cloud Security</text>
  <text x="600" y="548" font-family="Arial,sans-serif" font-size="16" fill="#94a3b8" text-anchor="middle">IAM to GKE | Complete Security Architecture Guide</text>
  <rect x="40" y="25" width="160" height="32" rx="16" fill="#4285f4" opacity="0.2" stroke="#4285f4" stroke-width="1"/>
  <text x="120" y="47" font-family="Arial,sans-serif" font-size="13" font-weight="bold" fill="#93c5fd" text-anchor="middle">GCP SECURITY</text>
  <rect x="1000" y="25" width="160" height="32" rx="16" fill="#34a853" opacity="0.2" stroke="#34a853" stroke-width="1"/>
  <text x="1080" y="47" font-family="Arial,sans-serif" font-size="13" font-weight="bold" fill="#86efac" text-anchor="middle">Jan 14, 2026</text>
  <text x="1160" y="615" font-family="Arial,sans-serif" font-size="13" fill="#475569" text-anchor="end">tech.2twodragon.com</text>
</svg>