<svg xmlns="http://www.w3.org/2000/svg" viewBox="0 0 1200 630" width="1200" height="630">
  <title>Tesla FSD 2026 Complete Guide Model Y Juniper Security DevSecOps</title>
  <defs>
    <linearGradient id="bg" x1="0%" y1="0%" x2="100%" y2="100%">
      <stop offset="0%" style="stop-color:#0d1520"/>
      <stop offset="100%" style="stop-color:#1a2d42"/>
    </linearGradient>
    <linearGradient id="accent" x1="0%" y1="0%" x2="100%" y2="0%">
      <stop offset="0%" style="stop-color:#e74c3c"/>
      <stop offset="100%" style="stop-color:#3498db"/>
    </linearGradient>
  </defs>
  <rect width="1200" height="630" fill="url(#bg)"/>
  <line x1="0" y1="105" x2="1200" y2="105" stroke="rgba(255,255,255,0.04)" stroke-width="1"/>
  <line x1="0" y1="210" x2="1200" y2="210" stroke="rgba(255,255,255,0.04)" stroke-width="1"/>
  <line x1="0" y1="315" x2="1200" y2="315" stroke="rgba(255,255,255,0.04)" stroke-width="1"/>
  <line x1="0" y1="420" x2="1200" y2="420" stroke="rgba(255,255,255,0.04)" stroke-width="1"/>
  <line x1="240" y1="0" x2="240" y2="630" stroke="rgba(255,255,255,0.03)" stroke-width="1"/>
  <line x1="480" y1="0" x2="480" y2="630" stroke="rgba(255,255,255,0.03)" stroke-width="1"/>
  <line x1="720" y1="0" x2="720" y2="630" stroke="rgba(255,255,255,0.03)" stroke-width="1"/>
  <line x1="960" y1="0" x2="960" y2="630" stroke="rgba(255,255,255,0.03)" stroke-width="1"/>
  <circle cx="1050" cy="450" r="200" fill="rgba(255,255,255,0.02)"/>
  <circle cx="1050" cy="450" r="140" fill="rgba(255,255,255,0.02)"/>
  <!-- Car silhouette body -->
  <ellipse cx="990" cy="395" rx="155" ry="38" fill="rgba(52,152,219,0.12)" stroke="rgba(52,152,219,0.35)" stroke-width="1.5"/>
  <path d="M865 390 Q878 348 918 328 Q955 312 990 312 Q1025 312 1062 328 Q1102 348 1115 390 Z" fill="rgba(52,152,219,0.18)" stroke="rgba(52,152,219,0.45)" stroke-width="1.5"/>
  <path d="M918 328 Q955 290 990 286 Q1025 290 1062 328" fill="none" stroke="rgba(52,152,219,0.35)" stroke-width="1.5"/>
  <!-- Wheels -->
  <circle cx="912" cy="398" r="26" fill="rgba(10,25,45,0.9)" stroke="rgba(52,152,219,0.65)" stroke-width="2"/>
  <circle cx="912" cy="398" r="13" fill="rgba(52,152,219,0.28)"/>
  <circle cx="1068" cy="398" r="26" fill="rgba(10,25,45,0.9)" stroke="rgba(52,152,219,0.65)" stroke-width="2"/>
  <circle cx="1068" cy="398" r="13" fill="rgba(52,152,219,0.28)"/>
  <!-- FSD sensor rays -->
  <line x1="990" y1="314" x2="945" y2="235" stroke="rgba(231,76,60,0.5)" stroke-width="1.2" stroke-dasharray="5,4"/>
  <line x1="990" y1="314" x2="990" y2="225" stroke="rgba(231,76,60,0.5)" stroke-width="1.2" stroke-dasharray="5,4"/>
  <line x1="990" y1="314" x2="1035" y2="235" stroke="rgba(231,76,60,0.5)" stroke-width="1.2" stroke-dasharray="5,4"/>
  <line x1="865" y1="362" x2="820" y2="308" stroke="rgba(231,76,60,0.38)" stroke-width="1" stroke-dasharray="4,4"/>
  <line x1="1115" y1="362" x2="1160" y2="308" stroke="rgba(231,76,60,0.38)" stroke-width="1" stroke-dasharray="4,4"/>
  <!-- Radar arcs -->
  <path d="M990 314 m-50 0 a50,50 0 0,1 100,0" fill="none" stroke="rgba(52,152,219,0.25)" stroke-width="1.5"/>
  <path d="M990 314 m-80 0 a80,80 0 0,1 160,0" fill="none" stroke="rgba(52,152,219,0.15)" stroke-width="1"/>
  <!-- Security shield below car -->
  <path d="M990 438 L970 454 L970 474 Q970 490 990 498 Q1010 490 1010 474 L1010 454 Z" fill="rgba(231,76,60,0.18)" stroke="rgba(231,76,60,0.7)" stroke-width="2"/>
  <path d="M983 463 L988 470 L998 458" fill="none" stroke="rgba(231,76,60,0.95)" stroke-width="2.2"/>
  <rect x="0" y="0" width="6" height="630" fill="url(#accent)"/>
  <rect x="80" y="60" width="210" height="30" rx="4" fill="rgba(231,76,60,0.14)" stroke="rgba(231,76,60,0.38)" stroke-width="1"/>
  <text x="185" y="81" font-family="Arial,sans-serif" font-size="12" fill="rgba(255,255,255,0.72)" text-anchor="middle" letter-spacing="1">JANUARY 1, 2026</text>
  <text x="80" y="185" font-family="Arial,sans-serif" font-size="46" font-weight="700" fill="#ffffff">Tesla FSD 2026 Guide</text>
  <text x="80" y="245" font-family="Arial,sans-serif" font-size="46" font-weight="700" fill="#ffffff">Model Y Security Analysis</text>
  <text x="80" y="300" font-family="Arial,sans-serif" font-size="19" fill="rgba(255,255,255,0.65)">Full Self-Driving Security from a DevSecOps Perspective</text>
  <rect x="80" y="325" width="420" height="3" fill="url(#accent)" rx="2"/>
  <text x="80" y="370" font-family="Arial,sans-serif" font-size="14" fill="rgba(255,255,255,0.5)" letter-spacing="2">AUTOMOTIVE SECURITY</text>
  <rect x="80" y="402" width="112" height="36" rx="18" fill="rgba(231,76,60,0.14)" stroke="rgba(231,76,60,0.4)" stroke-width="1"/>
  <text x="136" y="425" font-family="Arial,sans-serif" font-size="13" fill="rgba(255,255,255,0.82)" text-anchor="middle">Tesla FSD</text>
  <rect x="207" y="402" width="102" height="36" rx="18" fill="rgba(52,152,219,0.14)" stroke="rgba(52,152,219,0.4)" stroke-width="1"/>
  <text x="258" y="425" font-family="Arial,sans-serif" font-size="13" fill="rgba(255,255,255,0.82)" text-anchor="middle">Model Y</text>
  <rect x="324" y="402" width="115" height="36" rx="18" fill="rgba(255,255,255,0.05)" stroke="rgba(255,255,255,0.2)" stroke-width="1"/>
  <text x="381" y="425" font-family="Arial,sans-serif" font-size="13" fill="rgba(255,255,255,0.82)" text-anchor="middle">DevSecOps</text>
  <rect x="0" y="520" width="1200" height="110" fill="rgba(0,0,0,0.3)"/>
  <text x="80" y="545" font-family="Arial,sans-serif" font-size="15" fill="rgba(255,255,255,0.5)">tech.2twodragon.com</text>
  <text x="1120" y="545" font-family="Arial,sans-serif" font-size="13" fill="rgba(255,255,255,0.4)" text-anchor="end">DevSecOps</text>
</svg>
