<svg xmlns="http://www.w3.org/2000/svg" viewBox="0 0 1200 630">
  <defs>
    <linearGradient id="bg" x1="0%" y1="0%" x2="100%" y2="100%">
      <stop offset="0%" style="stop-color:#0a0a1a"/><stop offset="100%" style="stop-color:#0a1a2a"/>
    </linearGradient>
    <filter id="glow"><feGaussianBlur stdDeviation="4" result="b"/><feMerge><feMergeNode in="b"/><feMergeNode in="SourceGraphic"/></feMerge></filter>
    <filter id="sg"><feGaussianBlur stdDeviation="30"/></filter>
    <filter id="shadow"><feDropShadow dx="0" dy="4" stdDeviation="8" flood-color="#000" flood-opacity="0.3"/></filter>
  </defs>
  <rect width="1200" height="630" fill="url(#bg)"/>
  <circle cx="600" cy="250" r="280" fill="#22c55e" opacity="0.03" filter="url(#sg)"/>
  <g transform="translate(600,225)">
    <!-- CI/CD infinity loop -->
    <g filter="url(#shadow)">
      <path d="M-80,0 C-80,-50 -30,-50 0,-25 C30,-50 80,-50 80,0 C80,50 30,50 0,25 C-30,50 -80,50 -80,0 Z" fill="none" stroke="#22c55e" stroke-width="4"/>
      <!-- Pipeline stages on loop -->
      <circle cx="-60" cy="-20" r="12" fill="#1e293b" stroke="#3b82f6" stroke-width="2"/>
      <text x="-60" y="-16" font-family="Courier New" font-size="6" fill="#93c5fd" text-anchor="middle">Code</text>
      <circle cx="-20" cy="-35" r="12" fill="#1e293b" stroke="#8b5cf6" stroke-width="2"/>
      <text x="-20" y="-31" font-family="Courier New" font-size="6" fill="#c4b5fd" text-anchor="middle">Build</text>
      <circle cx="20" cy="-35" r="12" fill="#1e293b" stroke="#f59e0b" stroke-width="2"/>
      <text x="20" y="-31" font-family="Courier New" font-size="6" fill="#fde68a" text-anchor="middle">Test</text>
      <circle cx="60" cy="-20" r="12" fill="#1e293b" stroke="#ef4444" stroke-width="2"/>
      <text x="60" y="-16" font-family="Courier New" font-size="6" fill="#fca5a5" text-anchor="middle">Scan</text>
      <circle cx="60" cy="20" r="12" fill="#1e293b" stroke="#22c55e" stroke-width="2"/>
      <text x="60" y="24" font-family="Courier New" font-size="6" fill="#86efac" text-anchor="middle">Deploy</text>
      <circle cx="20" cy="35" r="12" fill="#1e293b" stroke="#0db7ed" stroke-width="2"/>
      <text x="20" y="39" font-family="Courier New" font-size="6" fill="#67e8f9" text-anchor="middle">K8s</text>
      <circle cx="-20" cy="35" r="12" fill="#1e293b" stroke="#ec4899" stroke-width="2"/>
      <text x="-20" y="39" font-family="Courier New" font-size="6" fill="#f9a8d4" text-anchor="middle">Mon</text>
      <circle cx="-60" cy="20" r="12" fill="#1e293b" stroke="#94a3b8" stroke-width="2"/>
      <text x="-60" y="24" font-family="Courier New" font-size="6" fill="#cbd5e1" text-anchor="middle">Plan</text>
    </g>
    <!-- K8s cluster below -->
    <g transform="translate(0,90)">
      <rect x="-100" y="-15" width="200" height="30" rx="6" fill="#1e293b" stroke="#326ce5" stroke-width="1.5"/>
      <!-- Pod boxes -->
      <rect x="-85" y="-8" width="25" height="16" rx="3" fill="#326ce5" opacity="0.2" stroke="#326ce5" stroke-width="1"/>
      <rect x="-55" y="-8" width="25" height="16" rx="3" fill="#326ce5" opacity="0.2" stroke="#326ce5" stroke-width="1"/>
      <rect x="-25" y="-8" width="25" height="16" rx="3" fill="#22c55e" opacity="0.2" stroke="#22c55e" stroke-width="1"/>
      <rect x="5" y="-8" width="25" height="16" rx="3" fill="#326ce5" opacity="0.2" stroke="#326ce5" stroke-width="1"/>
      <rect x="35" y="-8" width="25" height="16" rx="3" fill="#326ce5" opacity="0.2" stroke="#326ce5" stroke-width="1"/>
      <rect x="65" y="-8" width="25" height="16" rx="3" fill="#f59e0b" opacity="0.2" stroke="#f59e0b" stroke-width="1"/>
    </g>
    <!-- W8 badge -->
    <rect x="100" y="-55" width="40" height="20" rx="5" fill="#22c55e" opacity="0.2" stroke="#22c55e" stroke-width="1"/>
    <text x="120" y="-41" font-family="Courier New" font-size="9" fill="#86efac" text-anchor="middle">W8</text>
  </g>
  <text x="600" y="500" font-family="Arial,sans-serif" font-size="34" font-weight="bold" fill="white" text-anchor="middle" filter="url(#glow)">CI/CD + K8s Security</text>
  <text x="600" y="538" font-family="Arial,sans-serif" font-size="16" fill="#94a3b8" text-anchor="middle">Cloud Security 8th | Week 8 | Pipeline Security Practical</text>
  <rect x="40" y="25" width="160" height="32" rx="16" fill="#22c55e" opacity="0.2" stroke="#22c55e" stroke-width="1"/>
  <text x="120" y="47" font-family="Arial,sans-serif" font-size="13" font-weight="bold" fill="#86efac" text-anchor="middle">CLOUD COURSE</text>
  <rect x="1000" y="25" width="160" height="32" rx="16" fill="#3b82f6" opacity="0.2" stroke="#3b82f6" stroke-width="1"/>
  <text x="1080" y="47" font-family="Arial,sans-serif" font-size="13" font-weight="bold" fill="#93c5fd" text-anchor="middle">Jan 22, 2026</text>
  <text x="1160" y="615" font-family="Arial,sans-serif" font-size="13" fill="#475569" text-anchor="end">tech.2twodragon.com</text>
</svg>