<svg xmlns="http://www.w3.org/2000/svg" viewBox="0 0 1200 630" fill="none">
  <defs>
    <linearGradient id="bg" x1="0" y1="0" x2="1200" y2="630" gradientUnits="userSpaceOnUse">
      <stop offset="0%" stop-color="#0f172a"/>
      <stop offset="50%" stop-color="#080f1a"/>
      <stop offset="100%" stop-color="#0f172a"/>
    </linearGradient>
    <linearGradient id="accentRed" x1="0" y1="0" x2="1" y2="1">
      <stop offset="0%" stop-color="#ef4444"/>
      <stop offset="100%" stop-color="#b91c1c"/>
    </linearGradient>
    <linearGradient id="accentGreen" x1="0" y1="0" x2="1" y2="1">
      <stop offset="0%" stop-color="#22c55e"/>
      <stop offset="100%" stop-color="#15803d"/>
    </linearGradient>
    <linearGradient id="shieldGrad" x1="0" y1="0" x2="0" y2="1">
      <stop offset="0%" stop-color="#dc2626"/>
      <stop offset="100%" stop-color="#7f1d1d"/>
    </linearGradient>
    <radialGradient id="glowRed" cx="50%" cy="50%" r="50%">
      <stop offset="0%" stop-color="#ef4444" stop-opacity="0.3"/>
      <stop offset="100%" stop-color="#ef4444" stop-opacity="0"/>
    </radialGradient>
    <radialGradient id="glowGreen" cx="50%" cy="50%" r="50%">
      <stop offset="0%" stop-color="#22c55e" stop-opacity="0.2"/>
      <stop offset="100%" stop-color="#22c55e" stop-opacity="0"/>
    </radialGradient>
  </defs>

  <!-- Background -->
  <rect width="1200" height="630" fill="url(#bg)"/>

  <!-- Glow -->
  <ellipse cx="130" cy="270" rx="175" ry="175" fill="url(#glowRed)"/>
  <ellipse cx="1060" cy="250" rx="215" ry="200" fill="url(#glowGreen)"/>

  <!-- Grid pattern -->
  <g opacity="0.05" stroke="#94a3b8" stroke-width="1">
    <line x1="0" y1="100" x2="1200" y2="100"/>
    <line x1="0" y1="200" x2="1200" y2="200"/>
    <line x1="0" y1="300" x2="1200" y2="300"/>
    <line x1="0" y1="400" x2="1200" y2="400"/>
    <line x1="0" y1="500" x2="1200" y2="500"/>
    <line x1="200" y1="0" x2="200" y2="630"/>
    <line x1="400" y1="0" x2="400" y2="630"/>
    <line x1="600" y1="0" x2="600" y2="630"/>
    <line x1="800" y1="0" x2="800" y2="630"/>
    <line x1="1000" y1="0" x2="1000" y2="630"/>
  </g>

  <!-- Primary icon: Android Shield with vulnerability -->
  <g transform="translate(44, 145)">
    <!-- Shield shape -->
    <path d="M62 10 L110 30 L110 75 C110 105 90 130 62 145 C34 130 14 105 14 75 L14 30 Z" fill="url(#shieldGrad)" opacity="0.9"/>
    <path d="M62 25 L98 40 L98 72 C98 95 82 115 62 126 C42 115 26 95 26 72 L26 40 Z" fill="#7f1d1d" opacity="0.5"/>
    <!-- Android robot head -->
    <rect x="42" y="50" width="40" height="30" rx="4" fill="#22c55e" opacity="0.8"/>
    <rect x="42" y="44" width="40" height="20" rx="10" fill="#22c55e" opacity="0.8"/>
    <!-- Eyes -->
    <circle cx="52" cy="52" r="3" fill="#0f172a"/>
    <circle cx="72" cy="52" r="3" fill="#0f172a"/>
    <!-- Antennae -->
    <line x1="50" y1="35" x2="45" y2="26" stroke="#22c55e" stroke-width="2" stroke-linecap="round"/>
    <line x1="74" y1="35" x2="79" y2="26" stroke="#22c55e" stroke-width="2" stroke-linecap="round"/>
    <!-- Warning triangle overlay -->
    <polygon points="62,62 52,80 72,80" fill="#ef4444" stroke="#fca5a5" stroke-width="1.5"/>
    <text x="62" y="77" text-anchor="middle" fill="white" font-family="Arial" font-size="10" font-weight="bold">!</text>
    <!-- CVE label -->
    <rect x="14" y="128" width="96" height="22" rx="6" fill="#7f1d1d" opacity="0.8"/>
    <text x="62" y="143" text-anchor="middle" fill="#fca5a5" font-family="monospace" font-size="11" font-weight="bold" letter-spacing="2">129 CVEs</text>
  </g>

  <!-- Secondary icon: DevSecOps Pipeline -->
  <g transform="translate(44, 355)">
    <!-- Pipeline stages -->
    <rect x="10" y="30" width="35" height="28" rx="4" fill="#03131c" stroke="#22c55e" stroke-width="1.5"/>
    <text x="27" y="48" text-anchor="middle" fill="#4ade80" font-family="monospace" font-size="8" font-weight="bold">DEV</text>
    <line x1="45" y1="44" x2="55" y2="44" stroke="#22c55e" stroke-width="1.5"/>
    <polygon points="53,40 60,44 53,48" fill="#22c55e"/>
    <rect x="60" y="30" width="35" height="28" rx="4" fill="#03131c" stroke="#eab308" stroke-width="1.5"/>
    <text x="77" y="48" text-anchor="middle" fill="#facc15" font-family="monospace" font-size="8" font-weight="bold">SEC</text>
    <line x1="95" y1="44" x2="105" y2="44" stroke="#eab308" stroke-width="1.5"/>
    <polygon points="103,40 110,44 103,48" fill="#eab308"/>
    <rect x="110" y="30" width="35" height="28" rx="4" fill="#03131c" stroke="#06b6d4" stroke-width="1.5"/>
    <text x="127" y="48" text-anchor="middle" fill="#22d3ee" font-family="monospace" font-size="8" font-weight="bold">OPS</text>
    <!-- Stats -->
    <text x="10" y="85" fill="#ef4444" font-family="monospace" font-size="10" font-weight="bold">87%</text>
    <text x="10" y="98" fill="#94a3b8" font-family="monospace" font-size="8">orgs exposed</text>
    <text x="75" y="85" fill="#eab308" font-family="monospace" font-size="10" font-weight="bold">278d</text>
    <text x="75" y="98" fill="#94a3b8" font-family="monospace" font-size="8">dep lag</text>
    <!-- Label -->
    <text x="62" y="125" text-anchor="middle" fill="#22c55e" font-family="monospace" font-size="10" font-weight="bold" letter-spacing="2">DEVSECOPS</text>
  </g>

  <!-- Main title area -->
  <g transform="translate(210, 95)">
    <text x="0" y="0" fill="#94a3b8" font-family="Arial, sans-serif" font-size="13" font-weight="bold" letter-spacing="5">TECH SECURITY WEEKLY DIGEST</text>
    <text x="0" y="55" fill="#f8fafc" font-family="Arial, sans-serif" font-size="44" font-weight="bold">Tech Security Weekly</text>
    <text x="0" y="103" fill="#67e8f9" font-family="Arial, sans-serif" font-size="30" font-weight="300">Android Zero-Day DevSecOps K8s</text>
  </g>

  <!-- Date badge -->
  <rect x="210" y="230" width="188" height="36" rx="18" fill="url(#accentRed)" opacity="0.9"/>
  <text x="304" y="254" text-anchor="middle" fill="white" font-family="Arial, sans-serif" font-size="15" font-weight="bold">March 07, 2026</text>

  <!-- Stats cards -->
  <g transform="translate(210, 298)">
    <!-- Card 1: Security -->
    <rect x="0" y="0" width="195" height="95" rx="10" fill="#180a0a" stroke="#dc2626" stroke-width="1.5"/>
    <text x="16" y="28" fill="#ef4444" font-family="Arial, sans-serif" font-size="11" font-weight="bold" letter-spacing="1">SECURITY</text>
    <text x="16" y="68" fill="#f8fafc" font-family="Arial, sans-serif" font-size="40" font-weight="bold">8</text>
    <text x="60" y="68" fill="#94a3b8" font-family="Arial, sans-serif" font-size="14">articles</text>
    <text x="16" y="85" fill="#64748b" font-family="Arial, sans-serif" font-size="12">Android CVE, VMware, APT28</text>
    <!-- Card 2: DevSecOps -->
    <rect x="215" y="0" width="195" height="95" rx="10" fill="#0d1520" stroke="#22c55e" stroke-width="1.5"/>
    <text x="231" y="28" fill="#4ade80" font-family="Arial, sans-serif" font-size="11" font-weight="bold" letter-spacing="1">DEVSECOPS</text>
    <text x="231" y="68" fill="#f8fafc" font-family="Arial, sans-serif" font-size="40" font-weight="bold">6</text>
    <text x="275" y="68" fill="#94a3b8" font-family="Arial, sans-serif" font-size="14">articles</text>
    <text x="231" y="85" fill="#64748b" font-family="Arial, sans-serif" font-size="12">Datadog, CI/CD, AI Agent</text>
    <!-- Card 3: Cloud -->
    <rect x="430" y="0" width="195" height="95" rx="10" fill="#03131c" stroke="#0ea5e9" stroke-width="1.5"/>
    <text x="446" y="28" fill="#38bdf8" font-family="Arial, sans-serif" font-size="11" font-weight="bold" letter-spacing="1">CLOUD / K8S</text>
    <text x="446" y="68" fill="#f8fafc" font-family="Arial, sans-serif" font-size="40" font-weight="bold">6</text>
    <text x="490" y="68" fill="#94a3b8" font-family="Arial, sans-serif" font-size="14">articles</text>
    <text x="446" y="85" fill="#64748b" font-family="Arial, sans-serif" font-size="12">VoidLink, K8s Attacks</text>
  </g>

  <!-- Key topic tags -->
  <g transform="translate(210, 430)">
    <rect x="0" y="0" width="110" height="32" rx="16" fill="#7f1d1d" opacity="0.85"/>
    <text x="55" y="21" text-anchor="middle" fill="#fca5a5" font-family="Arial, sans-serif" font-size="13" font-weight="bold">Android 129</text>
    <rect x="124" y="0" width="82" height="32" rx="16" fill="#14532d" opacity="0.85"/>
    <text x="165" y="21" text-anchor="middle" fill="#4ade80" font-family="Arial, sans-serif" font-size="13" font-weight="bold">DevSec</text>
    <rect x="220" y="0" width="82" height="32" rx="16" fill="#062535" opacity="0.85"/>
    <text x="261" y="21" text-anchor="middle" fill="#7dd3fc" font-family="Arial, sans-serif" font-size="13" font-weight="bold">VoidLink</text>
    <rect x="316" y="0" width="72" height="32" rx="16" fill="#1e293b" opacity="0.85"/>
    <text x="352" y="21" text-anchor="middle" fill="#c7d2fe" font-family="Arial, sans-serif" font-size="13" font-weight="bold">APT28</text>
  </g>

  <!-- Right visualization -->
  <g transform="translate(858, 138)" opacity="0.55">
    <!-- Android CVE severity -->
    <rect x="60" y="8" width="190" height="28" rx="6" fill="#180a0a" stroke="#ef4444" stroke-width="1.5"/>
    <text x="155" y="27" text-anchor="middle" fill="#fca5a5" font-family="monospace" font-size="11" font-weight="bold">ANDROID CVE-2026-21385</text>
    <!-- Severity bar -->
    <rect x="60" y="44" width="190" height="12" rx="6" fill="#1e293b"/>
    <rect x="60" y="44" width="148" height="12" rx="6" fill="#ef4444" opacity="0.85"/>
    <text x="245" y="55" text-anchor="end" fill="#fca5a5" font-family="monospace" font-size="9">7.8/10</text>
    <!-- Attack chain -->
    <rect x="60" y="70" width="80" height="28" rx="5" fill="#1e293b" stroke="#ef4444" stroke-width="1"/>
    <text x="100" y="88" text-anchor="middle" fill="#fca5a5" font-family="monospace" font-size="9">Qualcomm 0day</text>
    <line x1="140" y1="84" x2="160" y2="84" stroke="#ef4444" stroke-width="1.5"/>
    <polygon points="158,79 168,84 158,89" fill="#ef4444"/>
    <rect x="168" y="70" width="82" height="28" rx="5" fill="#1e293b" stroke="#dc2626" stroke-width="1"/>
    <text x="209" y="88" text-anchor="middle" fill="#fca5a5" font-family="monospace" font-size="9">234 Chipsets</text>
    <!-- DevSecOps section -->
    <line x1="155" y1="108" x2="155" y2="128" stroke="#22c55e" stroke-width="1.5" stroke-dasharray="4,3"/>
    <text x="155" y="148" text-anchor="middle" fill="#4ade80" font-family="monospace" font-size="11" font-weight="bold">DEVSECOPS 2026</text>
    <!-- Stats boxes -->
    <rect x="60" y="158" width="82" height="26" rx="4" fill="#03131c" stroke="#22c55e" stroke-width="1.5"/>
    <text x="101" y="175" text-anchor="middle" fill="#4ade80" font-family="monospace" font-size="9" font-weight="bold">87% EXPOSED</text>
    <rect x="168" y="158" width="82" height="26" rx="4" fill="#03131c" stroke="#eab308" stroke-width="1.5"/>
    <text x="209" y="175" text-anchor="middle" fill="#facc15" font-family="monospace" font-size="9" font-weight="bold">278d LAG</text>
    <!-- K8s section -->
    <line x1="155" y1="194" x2="155" y2="214" stroke="#38bdf8" stroke-width="1.5" stroke-dasharray="4,3"/>
    <rect x="68" y="214" width="174" height="50" rx="6" fill="#03131c" stroke="#0ea5e9" stroke-width="1.5"/>
    <text x="155" y="234" text-anchor="middle" fill="#38bdf8" font-family="monospace" font-size="9" font-weight="bold">K8S THREAT LANDSCAPE</text>
    <text x="155" y="250" text-anchor="middle" fill="#94a3b8" font-family="monospace" font-size="9">VoidLink / GridTide / CI-CD</text>
    <text x="155" y="263" text-anchor="middle" fill="#64748b" font-family="monospace" font-size="9">Agentic AI / Supply Chain</text>
  </g>

  <!-- Bottom bar -->
  <rect x="0" y="510" width="1200" height="120" fill="#080e1a" opacity="0.9"/>
  <rect x="0" y="510" width="1200" height="2" fill="url(#accentRed)" opacity="0.6"/>
  <rect x="0" y="512" width="1200" height="1" fill="url(#accentGreen)" opacity="0.3"/>

  <!-- Bottom text -->
  <text x="80" y="558" fill="#94a3b8" font-family="Arial, sans-serif" font-size="16" font-weight="bold">tech.2twodragon.com</text>
  <text x="80" y="584" fill="#64748b" font-family="Arial, sans-serif" font-size="13">DevSecOps Weekly Security Intelligence</text>

  <!-- Bottom right -->
  <text x="1130" y="552" text-anchor="end" fill="#ef4444" font-family="Arial, sans-serif" font-size="22" font-weight="bold">20</text>
  <text x="1130" y="570" text-anchor="end" fill="#94a3b8" font-family="Arial, sans-serif" font-size="13">curated articles</text>
  <text x="1130" y="588" text-anchor="end" fill="#64748b" font-family="Arial, sans-serif" font-size="12">Android 0day | DevSecOps | VoidLink | APT28</text>
</svg>
