<svg xmlns="http://www.w3.org/2000/svg" viewBox="0 0 1200 630">
  <defs>
    <linearGradient id="bg" x1="0%" y1="0%" x2="100%" y2="100%">
      <stop offset="0%" style="stop-color:#0a0a1a"/><stop offset="100%" style="stop-color:#1a0a0a"/>
    </linearGradient>
    <filter id="glow"><feGaussianBlur stdDeviation="4" result="b"/><feMerge><feMergeNode in="b"/><feMergeNode in="SourceGraphic"/></feMerge></filter>
    <filter id="sg"><feGaussianBlur stdDeviation="30"/></filter>
    <filter id="shadow"><feDropShadow dx="0" dy="4" stdDeviation="8" flood-color="#000" flood-opacity="0.3"/></filter>
  </defs>
  <rect width="1200" height="630" fill="url(#bg)"/>
  <circle cx="600" cy="250" r="280" fill="#ef4444" opacity="0.03" filter="url(#sg)"/>
  <g transform="translate(600,225)">
    <!-- Vulnerability target -->
    <g filter="url(#shadow)">
      <circle cx="0" cy="0" r="90" fill="#1e293b" stroke="#ef4444" stroke-width="2"/>
      <circle cx="0" cy="0" r="65" fill="none" stroke="#ef4444" stroke-width="1.5" opacity="0.4"/>
      <circle cx="0" cy="0" r="40" fill="none" stroke="#ef4444" stroke-width="1.5" opacity="0.5"/>
      <circle cx="0" cy="0" r="15" fill="#ef4444" opacity="0.3"/>
      <!-- CVE markers -->
      <text x="0" y="-2" font-family="Courier New" font-size="8" fill="#fca5a5" text-anchor="middle">CVE</text>
      <text x="0" y="10" font-family="Courier New" font-size="7" fill="#ef4444" text-anchor="middle">0-Day</text>
    </g>
    <!-- RCE exploit arrow -->
    <g transform="translate(0,0)">
      <line x1="-180" y1="-60" x2="-20" y2="-5" stroke="#ef4444" stroke-width="2" opacity="0.4"/>
      <polygon points="-25,-8 -15,-2 -25,2" fill="#ef4444" opacity="0.4"/>
      <text x="-160" y="-65" font-family="Courier New" font-size="9" fill="#fca5a5" opacity="0.6">RCE</text>
    </g>
    <!-- CTEM cycle -->
    <g transform="translate(140,30)" opacity="0.5">
      <circle cx="0" cy="0" r="35" fill="#1e293b" stroke="#3b82f6" stroke-width="1.5"/>
      <path d="M0,-25 A25,25 0 1,1 -18,18" fill="none" stroke="#3b82f6" stroke-width="2"/>
      <polygon points="-22,14 -14,22 -20,10" fill="#3b82f6"/>
      <text x="0" y="5" font-family="Courier New" font-size="8" fill="#93c5fd" text-anchor="middle">CTEM</text>
    </g>
  </g>
  <text x="600" y="500" font-family="Arial,sans-serif" font-size="34" font-weight="bold" fill="white" text-anchor="middle" filter="url(#glow)">Zero-Day + CTEM + RCE</text>
  <text x="600" y="538" font-family="Arial,sans-serif" font-size="16" fill="#94a3b8" text-anchor="middle">Weekly Digest | MS Office 0-Day + Grist Core RCE</text>
  <rect x="40" y="25" width="160" height="32" rx="16" fill="#ef4444" opacity="0.2" stroke="#ef4444" stroke-width="1"/>
  <text x="120" y="47" font-family="Arial,sans-serif" font-size="13" font-weight="bold" fill="#fca5a5" text-anchor="middle">WEEKLY</text>
  <rect x="1000" y="25" width="160" height="32" rx="16" fill="#3b82f6" opacity="0.2" stroke="#3b82f6" stroke-width="1"/>
  <text x="1080" y="47" font-family="Arial,sans-serif" font-size="13" font-weight="bold" fill="#93c5fd" text-anchor="middle">Jan 28, 2026</text>
  <text x="1160" y="615" font-family="Arial,sans-serif" font-size="13" fill="#475569" text-anchor="end">tech.2twodragon.com</text>
</svg>