<svg xmlns="http://www.w3.org/2000/svg" viewBox="0 0 1200 630" fill="none">
  <defs>
    <linearGradient id="bg" x1="0" y1="0" x2="1200" y2="630" gradientUnits="userSpaceOnUse">
      <stop offset="0%" stop-color="#0f172a"/>
      <stop offset="50%" stop-color="#1c1208"/>
      <stop offset="100%" stop-color="#0f172a"/>
    </linearGradient>
    <linearGradient id="accentOrange" x1="0" y1="0" x2="1" y2="1">
      <stop offset="0%" stop-color="#f97316"/>
      <stop offset="100%" stop-color="#c2410c"/>
    </linearGradient>
    <linearGradient id="accentGold" x1="0" y1="0" x2="1" y2="1">
      <stop offset="0%" stop-color="#f59e0b"/>
      <stop offset="100%" stop-color="#b45309"/>
    </linearGradient>
    <linearGradient id="keyGrad" x1="0" y1="0" x2="0" y2="1">
      <stop offset="0%" stop-color="#f59e0b"/>
      <stop offset="100%" stop-color="#92400e"/>
    </linearGradient>
    <radialGradient id="glowOrange" cx="50%" cy="50%" r="50%">
      <stop offset="0%" stop-color="#f97316" stop-opacity="0.25"/>
      <stop offset="100%" stop-color="#f97316" stop-opacity="0"/>
    </radialGradient>
    <radialGradient id="glowGold" cx="50%" cy="50%" r="50%">
      <stop offset="0%" stop-color="#f59e0b" stop-opacity="0.2"/>
      <stop offset="100%" stop-color="#f59e0b" stop-opacity="0"/>
    </radialGradient>
  </defs>

  <!-- Background -->
  <rect width="1200" height="630" fill="url(#bg)"/>

  <!-- Glow -->
  <ellipse cx="130" cy="290" rx="180" ry="180" fill="url(#glowOrange)"/>
  <ellipse cx="1060" cy="260" rx="210" ry="200" fill="url(#glowGold)"/>

  <!-- Grid pattern -->
  <g opacity="0.05" stroke="#94a3b8" stroke-width="1">
    <line x1="0" y1="100" x2="1200" y2="100"/>
    <line x1="0" y1="200" x2="1200" y2="200"/>
    <line x1="0" y1="300" x2="1200" y2="300"/>
    <line x1="0" y1="400" x2="1200" y2="400"/>
    <line x1="0" y1="500" x2="1200" y2="500"/>
    <line x1="200" y1="0" x2="200" y2="630"/>
    <line x1="400" y1="0" x2="400" y2="630"/>
    <line x1="600" y1="0" x2="600" y2="630"/>
    <line x1="800" y1="0" x2="800" y2="630"/>
    <line x1="1000" y1="0" x2="1000" y2="630"/>
  </g>

  <!-- Primary icon: JWT Key Token -->
  <g transform="translate(44, 148)">
    <!-- Key bow (circle part) -->
    <circle cx="50" cy="52" r="34" fill="url(#keyGrad)" opacity="0.9"/>
    <circle cx="50" cy="52" r="22" fill="#1c1208" opacity="0.8"/>
    <!-- Key hole in bow -->
    <circle cx="50" cy="52" r="10" fill="url(#keyGrad)" opacity="0.7"/>
    <!-- Key blade (shank) -->
    <rect x="78" y="48" width="48" height="8" rx="4" fill="url(#keyGrad)"/>
    <!-- Key teeth -->
    <rect x="96" y="56" width="6" height="12" rx="2" fill="url(#keyGrad)"/>
    <rect x="110" y="56" width="6" height="9" rx="2" fill="url(#keyGrad)"/>
    <!-- JWT label -->
    <rect x="10" y="100" width="100" height="22" rx="6" fill="#78350f" opacity="0.8"/>
    <text x="60" y="115" text-anchor="middle" fill="#fcd34d" font-family="monospace" font-size="12" font-weight="bold" letter-spacing="2">JWT TOKEN</text>
  </g>

  <!-- Secondary icon: Bitcoin/Crypto Finance -->
  <g transform="translate(48, 355)">
    <!-- Bitcoin coin -->
    <circle cx="60" cy="62" r="46" fill="#1c1208" stroke="#f59e0b" stroke-width="3"/>
    <circle cx="60" cy="62" r="38" fill="none" stroke="#92400e" stroke-width="1"/>
    <!-- BTC symbol -->
    <text x="60" y="82" text-anchor="middle" fill="#f59e0b" font-family="Arial, sans-serif" font-size="50" font-weight="bold">&#8383;</text>
    <!-- Price arrow up -->
    <polygon points="60,115 50,135 55,135 55,150 65,150 65,135 70,135" fill="#10b981" opacity="0.8"/>
    <text x="60" y="165" text-anchor="middle" fill="#fbbf24" font-family="monospace" font-size="10" font-weight="bold" letter-spacing="1">BTC OUTFLOW</text>
  </g>

  <!-- Main title area -->
  <g transform="translate(210, 95)">
    <text x="0" y="0" fill="#94a3b8" font-family="Arial, sans-serif" font-size="13" font-weight="bold" letter-spacing="5">TECH SECURITY WEEKLY DIGEST</text>
    <text x="0" y="55" fill="#f8fafc" font-family="Arial, sans-serif" font-size="44" font-weight="bold">Tech Security Weekly</text>
    <text x="0" y="103" fill="#fbbf24" font-family="Arial, sans-serif" font-size="30" font-weight="300">JWT Auth Crypto Outflow AI Gov</text>
  </g>

  <!-- Date badge - orange theme -->
  <rect x="210" y="230" width="188" height="36" rx="18" fill="url(#accentOrange)" opacity="0.9"/>
  <text x="304" y="254" text-anchor="middle" fill="white" font-family="Arial, sans-serif" font-size="15" font-weight="bold">March 04, 2026</text>

  <!-- Stats cards -->
  <g transform="translate(210, 298)">
    <!-- Card 1: Security -->
    <rect x="0" y="0" width="195" height="95" rx="10" fill="#1c1208" stroke="#c2410c" stroke-width="1.5"/>
    <text x="16" y="28" fill="#f97316" font-family="Arial, sans-serif" font-size="11" font-weight="bold" letter-spacing="1">SECURITY</text>
    <text x="16" y="68" fill="#f8fafc" font-family="Arial, sans-serif" font-size="40" font-weight="bold">5</text>
    <text x="60" y="68" fill="#94a3b8" font-family="Arial, sans-serif" font-size="14">articles</text>
    <text x="16" y="85" fill="#64748b" font-family="Arial, sans-serif" font-size="12">JWT, AML, Phishing</text>
    <!-- Card 2: Blockchain -->
    <rect x="215" y="0" width="195" height="95" rx="10" fill="#1a1000" stroke="#b45309" stroke-width="1.5"/>
    <text x="231" y="28" fill="#f59e0b" font-family="Arial, sans-serif" font-size="11" font-weight="bold" letter-spacing="1">BLOCKCHAIN</text>
    <text x="231" y="68" fill="#f8fafc" font-family="Arial, sans-serif" font-size="40" font-weight="bold">5</text>
    <text x="275" y="68" fill="#94a3b8" font-family="Arial, sans-serif" font-size="14">articles</text>
    <text x="231" y="85" fill="#64748b" font-family="Arial, sans-serif" font-size="12">BTC Outflow, Iran Crypto</text>
    <!-- Card 3: Tech/AI -->
    <rect x="430" y="0" width="195" height="95" rx="10" fill="#1c1208" stroke="#78350f" stroke-width="1.5"/>
    <text x="446" y="28" fill="#fb923c" font-family="Arial, sans-serif" font-size="11" font-weight="bold" letter-spacing="1">TECH / GOV</text>
    <text x="446" y="68" fill="#f8fafc" font-family="Arial, sans-serif" font-size="40" font-weight="bold">5</text>
    <text x="490" y="68" fill="#94a3b8" font-family="Arial, sans-serif" font-size="14">articles</text>
    <text x="446" y="85" fill="#64748b" font-family="Arial, sans-serif" font-size="12">AI Gov, Finance AI</text>
  </g>

  <!-- Key topic tags -->
  <g transform="translate(210, 430)">
    <rect x="0" y="0" width="48" height="32" rx="16" fill="#78350f" opacity="0.85"/>
    <text x="24" y="21" text-anchor="middle" fill="#fcd34d" font-family="Arial, sans-serif" font-size="13" font-weight="bold">JWT</text>
    <rect x="62" y="0" width="57" height="32" rx="16" fill="#78350f" opacity="0.85"/>
    <text x="90" y="21" text-anchor="middle" fill="#fcd34d" font-family="Arial, sans-serif" font-size="13" font-weight="bold">AML</text>
    <rect x="133" y="0" width="112" height="32" rx="16" fill="#1e293b" opacity="0.85"/>
    <text x="189" y="21" text-anchor="middle" fill="#c7d2fe" font-family="Arial, sans-serif" font-size="13" font-weight="bold">AI Governance</text>
    <rect x="259" y="0" width="48" height="32" rx="16" fill="#1a1000" opacity="0.85"/>
    <text x="283" y="21" text-anchor="middle" fill="#fbbf24" font-family="Arial, sans-serif" font-size="13" font-weight="bold">BTC</text>
  </g>

  <!-- Right: Financial/crypto flow chart -->
  <g transform="translate(860, 140)" opacity="0.55">
    <!-- Header: IRAN CRYPTO OUTFLOW -->
    <rect x="70" y="10" width="170" height="24" rx="6" fill="#78350f" opacity="0.7"/>
    <text x="155" y="26" text-anchor="middle" fill="#fcd34d" font-family="monospace" font-size="10" font-weight="bold">IRAN CRYPTO OUTFLOW</text>
    <!-- Flow chart boxes -->
    <rect x="92" y="50" width="126" height="30" rx="5" fill="#1c1208" stroke="#f59e0b" stroke-width="1.5"/>
    <text x="155" y="69" text-anchor="middle" fill="#fbbf24" font-family="monospace" font-size="10">BTC Wallets</text>
    <line x1="155" y1="80" x2="155" y2="100" stroke="#f59e0b" stroke-width="1.5"/>
    <polygon points="150,98 160,98 155,108" fill="#f59e0b"/>
    <rect x="92" y="108" width="126" height="30" rx="5" fill="#1c1208" stroke="#f97316" stroke-width="1.5"/>
    <text x="155" y="127" text-anchor="middle" fill="#fb923c" font-family="monospace" font-size="10">DEX Swap</text>
    <line x1="155" y1="138" x2="155" y2="158" stroke="#f97316" stroke-width="1.5"/>
    <polygon points="150,156 160,156 155,166" fill="#f97316"/>
    <rect x="92" y="166" width="126" height="30" rx="5" fill="#1c1208" stroke="#10b981" stroke-width="1.5"/>
    <text x="155" y="185" text-anchor="middle" fill="#34d399" font-family="monospace" font-size="10">USDT Mixer</text>
    <line x1="155" y1="196" x2="155" y2="216" stroke="#10b981" stroke-width="1.5"/>
    <polygon points="150,214 160,214 155,224" fill="#10b981"/>
    <!-- JWT diagram -->
    <rect x="60" y="232" width="190" height="52" rx="6" fill="#0f172a" stroke="#fbbf24" stroke-width="1.5"/>
    <text x="155" y="252" text-anchor="middle" fill="#fcd34d" font-family="monospace" font-size="9" font-weight="bold">JWT: header.payload.sig</text>
    <text x="155" y="268" text-anchor="middle" fill="#94a3b8" font-family="monospace" font-size="9">alg: RS256 | exp: 3600s</text>
    <text x="155" y="283" text-anchor="middle" fill="#f97316" font-family="monospace" font-size="9">VULN: alg:none bypass</text>
  </g>

  <!-- Bottom bar -->
  <rect x="0" y="510" width="1200" height="120" fill="#080e1a" opacity="0.9"/>
  <rect x="0" y="510" width="1200" height="2" fill="url(#accentOrange)" opacity="0.6"/>
  <rect x="0" y="512" width="1200" height="1" fill="url(#accentGold)" opacity="0.3"/>

  <!-- Bottom text -->
  <text x="80" y="558" fill="#94a3b8" font-family="Arial, sans-serif" font-size="16" font-weight="bold">tech.2twodragon.com</text>
  <text x="80" y="584" fill="#64748b" font-family="Arial, sans-serif" font-size="13">DevSecOps Weekly Security Intelligence</text>

  <!-- Bottom right -->
  <text x="1130" y="552" text-anchor="end" fill="#f59e0b" font-family="Arial, sans-serif" font-size="22" font-weight="bold">15</text>
  <text x="1130" y="570" text-anchor="end" fill="#94a3b8" font-family="Arial, sans-serif" font-size="13">curated articles</text>
  <text x="1130" y="588" text-anchor="end" fill="#64748b" font-family="Arial, sans-serif" font-size="12">JWT | AML | AI Governance | BTC</text>
</svg>
