<svg xmlns="http://www.w3.org/2000/svg" viewBox="0 0 1200 630" width="1200" height="630" role="img" aria-label="Research-based weekly digest cover 2026-04-07: Iran password spraying targeting 300+ Israeli Microsoft 365 organizations, DPRK hackers using GitHub as C2 in multi-stage attack on South Korea, Germany BKA identifies REvil and GandCrab ransomware operation leaders">
<title>Weekly digest 2026-04-07: Iran M365 spray (300+ orgs), DPRK GitHub C2 (Korea), REvil/GandCrab boss ID</title>
<defs>
  <linearGradient id="bgSpread" x1="0%" y1="0%" x2="100%" y2="100%">
    <stop offset="0%" stop-color="#0A1226"/>
    <stop offset="50%" stop-color="#0C1430"/>
    <stop offset="100%" stop-color="#131038"/>
  </linearGradient>
  <linearGradient id="bandA" x1="0%" y1="0%" x2="100%" y2="0%">
    <stop offset="0%" stop-color="#2A0C0C"/>
    <stop offset="100%" stop-color="#1E1220"/>
  </linearGradient>
  <linearGradient id="bandB" x1="0%" y1="0%" x2="100%" y2="0%">
    <stop offset="0%" stop-color="#1A1A0C"/>
    <stop offset="100%" stop-color="#151C1A"/>
  </linearGradient>
  <linearGradient id="bandC" x1="0%" y1="0%" x2="100%" y2="0%">
    <stop offset="0%" stop-color="#061824"/>
    <stop offset="100%" stop-color="#0A1230"/>
  </linearGradient>
  <radialGradient id="sprayGlow" cx="50%" cy="50%" r="50%">
    <stop offset="0%" stop-color="#E63946" stop-opacity="0.65"/>
    <stop offset="100%" stop-color="#E63946" stop-opacity="0"/>
  </radialGradient>
  <radialGradient id="c2Glow" cx="50%" cy="50%" r="50%">
    <stop offset="0%" stop-color="#FFB703" stop-opacity="0.6"/>
    <stop offset="100%" stop-color="#FFB703" stop-opacity="0"/>
  </radialGradient>
  <radialGradient id="raasSeal" cx="50%" cy="50%" r="50%">
    <stop offset="0%" stop-color="#3A86FF" stop-opacity="0.65"/>
    <stop offset="100%" stop-color="#3A86FF" stop-opacity="0"/>
  </radialGradient>
  <linearGradient id="lockGrad" x1="0%" y1="0%" x2="0%" y2="100%">
    <stop offset="0%" stop-color="#E63946"/>
    <stop offset="100%" stop-color="#9B1C2E"/>
  </linearGradient>
  <linearGradient id="badgeBlue" x1="0%" y1="0%" x2="0%" y2="100%">
    <stop offset="0%" stop-color="#3A86FF"/>
    <stop offset="100%" stop-color="#1D5FCC"/>
  </linearGradient>
  <filter id="softShadow" x="-10%" y="-10%" width="130%" height="130%">
    <feGaussianBlur in="SourceAlpha" stdDeviation="2.5"/>
    <feOffset dx="1" dy="3"/>
    <feComponentTransfer><feFuncA type="linear" slope="0.55"/></feComponentTransfer>
    <feMerge><feMergeNode/><feMergeNode in="SourceGraphic"/></feMerge>
  </filter>
  <filter id="textShadow" x="-5%" y="-5%" width="110%" height="110%">
    <feGaussianBlur in="SourceAlpha" stdDeviation="1.2"/>
    <feOffset dx="0" dy="1.5"/>
    <feComponentTransfer><feFuncA type="linear" slope="0.85"/></feComponentTransfer>
    <feMerge><feMergeNode/><feMergeNode in="SourceGraphic"/></feMerge>
  </filter>
  <pattern id="sprayDot" x="0" y="0" width="22" height="22" patternUnits="userSpaceOnUse">
    <circle cx="11" cy="11" r="0.9" fill="#E63946" opacity="0.3"/>
  </pattern>
  <pattern id="circuitDot" x="0" y="0" width="18" height="18" patternUnits="userSpaceOnUse">
    <circle cx="9" cy="9" r="0.8" fill="#3A2A4E" opacity="0.5"/>
  </pattern>
  <pattern id="ledgerGrid" x="0" y="0" width="40" height="20" patternUnits="userSpaceOnUse">
    <path d="M0 20 L40 20" stroke="#1E3A56" stroke-width="0.4" opacity="0.5"/>
    <path d="M40 0 L40 20" stroke="#1E3A56" stroke-width="0.4" opacity="0.5"/>
  </pattern>
</defs>

<!-- Background -->
<rect width="1200" height="630" fill="url(#bgSpread)"/>

<!-- HEADER (0-56) -->
<rect x="0" y="0" width="1200" height="56" fill="#080E1E"/>
<text x="30" y="36" font-family="Inter, Helvetica, Arial, sans-serif" font-size="18" font-weight="700" letter-spacing="3" fill="#8FB8FF">TECH SECURITY WEEKLY</text>
<!-- animate #1 -->
<text x="600" y="36" text-anchor="middle" font-family="Inter, Helvetica, Arial, sans-serif" font-size="22" font-weight="800" letter-spacing="1" fill="#F5F7FA">2026.04.07<animate attributeName="opacity" values="0.75;1;0.75" dur="5s" repeatCount="indefinite"/></text>
<text x="1170" y="36" text-anchor="end" font-family="Inter, Helvetica, Arial, sans-serif" font-size="14" font-weight="600" letter-spacing="1.5" fill="#BFC9D9">DIGEST</text>
<!-- animate #2 -->
<rect x="0" y="55" width="1200" height="2" fill="#3A86FF" opacity="0.4"><animate attributeName="opacity" values="0.25;0.6;0.25" dur="4s" repeatCount="indefinite"/></rect>

<!-- BAND A (56-266): Iran Password Spray — RED -->
<rect x="0" y="56" width="1200" height="210" fill="url(#bandA)"/>
<rect x="0" y="56" width="1200" height="210" fill="url(#sprayDot)" opacity="0.55"/>
<rect x="0" y="56" width="8" height="210" fill="#E63946"/>
<g filter="url(#textShadow)">
  <text x="30" y="100" font-family="Inter, Helvetica, Arial, sans-serif" font-size="18" font-weight="700" letter-spacing="2.4" fill="#F87171">IRAN PASSWORD SPRAY</text>
  <text x="30" y="142" font-family="Inter, Helvetica, Arial, sans-serif" font-size="34" font-weight="800" fill="#F5F7FA">M365 Orgs Under Siege</text>
  <text x="30" y="174" font-family="Inter, Helvetica, Arial, sans-serif" font-size="19" font-weight="600" fill="#FBB6BD">Israel + UAE : Microsoft 365 breach attempts</text>
  <text x="30" y="202" font-family="Inter, Helvetica, Arial, sans-serif" font-size="14" font-weight="500" fill="#D9C9CE">3 waves : Mar 3 / Mar 13 / Mar 23, 2026 : Check Point</text>
</g>
<!-- Lock + spray illustration — 4 animates (#3-6) -->
<g transform="translate(740,161)">
  <!-- animate #3 #4: glow pulse -->
  <circle cx="0" cy="0" r="80" fill="url(#sprayGlow)">
    <animate attributeName="r" values="65;95;65" dur="3.8s" repeatCount="indefinite"/>
    <animate attributeName="opacity" values="0.5;0.9;0.5" dur="3.8s" repeatCount="indefinite"/>
  </circle>
  <!-- Lock body -->
  <rect x="-22" y="-4" width="44" height="38" rx="6" fill="url(#lockGrad)" filter="url(#softShadow)"/>
  <path d="M-12 -4 L-12 -22 Q0 -34 12 -22 L12 -4" stroke="#E63946" stroke-width="5" fill="none" stroke-linecap="round"/>
  <circle cx="0" cy="12" r="6" fill="#0A1226"/>
  <rect x="-3" y="12" width="6" height="10" rx="1" fill="#0A1226"/>
  <!-- Static spray lines (no animate — static opacity) -->
  <g stroke="#F87171" stroke-width="1.4" opacity="0.55" stroke-dasharray="3 3">
    <line x1="32" y1="-30" x2="60" y2="-55"/>
    <line x1="45" y1="0" x2="80" y2="0"/>
    <line x1="32" y1="30" x2="60" y2="55"/>
    <line x1="-32" y1="-30" x2="-60" y2="-55"/>
    <line x1="-45" y1="0" x2="-80" y2="0"/>
    <line x1="-32" y1="30" x2="-60" y2="55"/>
  </g>
  <!-- animate #5: target dots group pulse -->
  <g fill="#FCA5A5">
    <circle cx="68" cy="-58" r="4"/>
    <circle cx="84" cy="0" r="4"/>
    <circle cx="68" cy="58" r="4"/>
    <circle cx="-68" cy="-58" r="4"/>
    <circle cx="-84" cy="0" r="4"/>
    <circle cx="-68" cy="58" r="4"/>
    <animate attributeName="opacity" values="0.3;1;0.3" dur="2.2s" repeatCount="indefinite"/>
  </g>
  <!-- Pulse rings: animate #6 #7 -->
  <circle cx="0" cy="0" r="48" fill="none" stroke="#FCA5A5" stroke-width="0.8">
    <animate attributeName="r" values="42;70;42" dur="3.0s" repeatCount="indefinite"/>
    <animate attributeName="opacity" values="0.7;0;0.7" dur="3.0s" repeatCount="indefinite"/>
  </circle>
</g>
<!-- Band A KPI card -->
<g transform="translate(990,161)" filter="url(#softShadow)">
  <rect x="-80" y="-65" width="180" height="125" rx="14" fill="#1A0508" stroke="#E63946" stroke-width="2.2"/>
  <text x="10" y="-30" text-anchor="middle" font-family="Inter, Helvetica, Arial, sans-serif" font-size="13" font-weight="700" letter-spacing="2" fill="#F87171">ORGS TARGETED</text>
  <text x="10" y="28" text-anchor="middle" font-family="Inter, Helvetica, Arial, sans-serif" font-size="64" font-weight="900" fill="#F5F7FA">300+</text>
  <text x="10" y="52" text-anchor="middle" font-family="Inter, Helvetica, Arial, sans-serif" font-size="12" font-weight="600" fill="#FBB6BD">Israel + UAE, Q1 2026</text>
</g>
<!-- animate #8: KPI pulse dot -->
<circle cx="1000" cy="96" r="3" fill="#E63946"><animate attributeName="opacity" values="0.2;1;0.2" dur="1.8s" repeatCount="indefinite"/></circle>

<!-- BAND B (266-476): DPRK GitHub C2 — AMBER -->
<rect x="0" y="266" width="1200" height="210" fill="url(#bandB)"/>
<rect x="0" y="266" width="1200" height="210" fill="url(#circuitDot)" opacity="0.6"/>
<rect x="0" y="266" width="8" height="210" fill="#FFB703"/>
<g filter="url(#textShadow)">
  <text x="30" y="310" font-family="Inter, Helvetica, Arial, sans-serif" font-size="18" font-weight="700" letter-spacing="2.4" fill="#FFB703">DPRK MULTI-STAGE APT</text>
  <text x="30" y="352" font-family="Inter, Helvetica, Arial, sans-serif" font-size="34" font-weight="800" fill="#F5F7FA">GitHub as C2 : Korea</text>
  <text x="30" y="384" font-family="Inter, Helvetica, Arial, sans-serif" font-size="19" font-weight="600" fill="#FFD58A">LNK dropper + GitHub dead-drop channel</text>
  <text x="30" y="412" font-family="Inter, Helvetica, Arial, sans-serif" font-size="14" font-weight="500" fill="#E0D5B6">Fortinet FortiGuard : LotL tactic : supply chain risk</text>
</g>
<!-- Attack chain: 4 nodes + 2 animateMotion packets + 3 arrow animates (#9-13) -->
<g transform="translate(580,371)">
  <!-- animate #9 #10: C2 glow -->
  <circle cx="-43" cy="0" r="70" fill="url(#c2Glow)">
    <animate attributeName="r" values="55;85;55" dur="4s" repeatCount="indefinite"/>
    <animate attributeName="opacity" values="0.4;0.8;0.4" dur="4s" repeatCount="indefinite"/>
  </circle>
  <!-- Node 1: LNK -->
  <rect x="-205" y="-22" width="80" height="44" rx="8" fill="#2A1E08" stroke="#FFB703" stroke-width="1.8" filter="url(#softShadow)"/>
  <text x="-165" y="-4" text-anchor="middle" font-family="Inter, monospace" font-size="11" font-weight="800" fill="#FFD58A">LNK FILE</text>
  <text x="-165" y="12" text-anchor="middle" font-family="Inter, monospace" font-size="9" font-weight="600" fill="#FFB703">DROPPER</text>
  <!-- animate #11: arrows pulse -->
  <g stroke="#FFB703" stroke-width="1.6" stroke-dasharray="4 3">
    <line x1="-122" y1="0" x2="-92" y2="0"><animate attributeName="stroke-opacity" values="0.3;1;0.3" dur="1.8s" repeatCount="indefinite"/></line>
    <polygon points="-92,0 -100,-4 -100,4" fill="#FFB703"/>
  </g>
  <!-- Node 2: GitHub C2 -->
  <rect x="-88" y="-26" width="90" height="52" rx="8" fill="#1C1A08" stroke="#FFB703" stroke-width="2.2" filter="url(#softShadow)"/>
  <text x="-43" y="-8" text-anchor="middle" font-family="Inter, monospace" font-size="11" font-weight="800" fill="#FFD58A">GITHUB</text>
  <text x="-43" y="7" text-anchor="middle" font-family="Inter, monospace" font-size="10" font-weight="700" fill="#FFB703">C2 RELAY</text>
  <text x="-43" y="20" text-anchor="middle" font-family="Inter, monospace" font-size="8" font-weight="600" fill="#E0D5B6">dead-drop</text>
  <g stroke="#FFB703" stroke-width="1.6" stroke-dasharray="4 3">
    <line x1="4" y1="0" x2="42" y2="0"><animate attributeName="stroke-opacity" values="0.3;1;0.3" dur="1.8s" begin="0.4s" repeatCount="indefinite"/></line>
    <polygon points="42,0 34,-4 34,4" fill="#FFB703"/>
  </g>
  <!-- Node 3: Payload -->
  <rect x="45" y="-22" width="84" height="44" rx="8" fill="#2A1E08" stroke="#E63946" stroke-width="1.8" filter="url(#softShadow)"/>
  <text x="87" y="-4" text-anchor="middle" font-family="Inter, monospace" font-size="11" font-weight="800" fill="#FCA5A5">PAYLOAD</text>
  <text x="87" y="12" text-anchor="middle" font-family="Inter, monospace" font-size="9" font-weight="600" fill="#E63946">INJECTED</text>
  <g stroke="#E63946" stroke-width="1.6" stroke-dasharray="4 3">
    <line x1="132" y1="0" x2="162" y2="0"><animate attributeName="stroke-opacity" values="0.3;1;0.3" dur="1.8s" begin="0.8s" repeatCount="indefinite"/></line>
    <polygon points="162,0 154,-4 154,4" fill="#E63946"/>
  </g>
  <!-- Node 4: Target -->
  <rect x="165" y="-22" width="74" height="44" rx="8" fill="#220812" stroke="#E63946" stroke-width="1.8" filter="url(#softShadow)"/>
  <text x="202" y="-4" text-anchor="middle" font-family="Inter, monospace" font-size="11" font-weight="800" fill="#FCA5A5">KOREA</text>
  <text x="202" y="12" text-anchor="middle" font-family="Inter, monospace" font-size="9" font-weight="600" fill="#E63946">TARGET</text>
  <!-- animateMotion #12 #13: moving packets -->
  <circle r="3.5" fill="#FFD58A" opacity="0.9"><animateMotion path="M-165,0 L-43,0 L87,0 L202,0" dur="2.4s" repeatCount="indefinite"/></circle>
  <circle r="3.5" fill="#FFD58A" opacity="0.6"><animateMotion path="M-165,0 L-43,0 L87,0 L202,0" dur="2.4s" begin="1.2s" repeatCount="indefinite"/></circle>
</g>
<!-- Band B KPI card -->
<g transform="translate(990,371)" filter="url(#softShadow)">
  <rect x="-80" y="-65" width="180" height="125" rx="14" fill="#1A1405" stroke="#FFB703" stroke-width="2.2"/>
  <text x="10" y="-30" text-anchor="middle" font-family="Inter, Helvetica, Arial, sans-serif" font-size="13" font-weight="700" letter-spacing="2" fill="#FFB703">ATTACK HOPS</text>
  <text x="10" y="24" text-anchor="middle" font-family="Inter, Helvetica, Arial, sans-serif" font-size="64" font-weight="900" fill="#F5F7FA">4+</text>
  <text x="10" y="52" text-anchor="middle" font-family="Inter, Helvetica, Arial, sans-serif" font-size="11" font-weight="600" fill="#FFD58A">LNK-C2-Payload-KR</text>
</g>
<!-- animate #14: KPI pulse dot -->
<circle cx="1000" cy="306" r="3" fill="#FFB703"><animate attributeName="opacity" values="0.2;1;0.2" dur="1.6s" repeatCount="indefinite"/></circle>

<!-- BAND C (476-630): REvil/GandCrab ID — BLUE -->
<rect x="0" y="476" width="1200" height="154" fill="url(#bandC)"/>
<rect x="0" y="476" width="1200" height="154" fill="url(#ledgerGrid)" opacity="0.5"/>
<rect x="0" y="476" width="8" height="154" fill="#3A86FF"/>
<g filter="url(#textShadow)">
  <text x="30" y="514" font-family="Inter, Helvetica, Arial, sans-serif" font-size="18" font-weight="700" letter-spacing="2.4" fill="#8FB8FF">RANSOMWARE TAKEDOWN</text>
  <text x="30" y="552" font-family="Inter, Helvetica, Arial, sans-serif" font-size="32" font-weight="800" fill="#F5F7FA">REvil + GandCrab Boss ID</text>
  <text x="30" y="580" font-family="Inter, Helvetica, Arial, sans-serif" font-size="17" font-weight="600" fill="#A8C8FF">Germany BKA : Russian national identified</text>
  <text x="30" y="603" font-family="Inter, Helvetica, Arial, sans-serif" font-size="13" font-weight="500" fill="#BFC9D9">RaaS 2019-2021 : GandCrab $2B+ : REvil Kaseya attack</text>
</g>
<!-- Shield + handcuffs: 4 animates (#15-18) -->
<g transform="translate(670,553)">
  <!-- animate #15 #16: seal glow -->
  <circle cx="0" cy="0" r="55" fill="url(#raasSeal)">
    <animate attributeName="r" values="45;65;45" dur="4.2s" repeatCount="indefinite"/>
    <animate attributeName="opacity" values="0.4;0.8;0.4" dur="4.2s" repeatCount="indefinite"/>
  </circle>
  <!-- Badge shield -->
  <path d="M0 -38 L28 -22 L28 10 Q28 38 0 48 Q-28 38 -28 10 L-28 -22 Z" fill="url(#badgeBlue)" stroke="#8FB8FF" stroke-width="2" filter="url(#softShadow)"/>
  <text x="0" y="-8" text-anchor="middle" font-family="Inter, monospace" font-size="9" font-weight="800" fill="#F5F7FA">BKA</text>
  <text x="0" y="8" text-anchor="middle" font-family="Inter, monospace" font-size="7" font-weight="700" fill="#DDE8FF">ARREST</text>
  <text x="0" y="24" text-anchor="middle" font-family="Inter, monospace" font-size="7" font-weight="600" fill="#A8C8FF">WARRANT</text>
  <!-- Static handcuff links -->
  <g transform="translate(55,0)" stroke="#3A86FF" stroke-width="2.2" fill="none" opacity="0.75">
    <ellipse cx="0" cy="0" rx="10" ry="6"/>
    <ellipse cx="16" cy="0" rx="10" ry="6"/>
    <ellipse cx="32" cy="0" rx="10" ry="6"/>
    <ellipse cx="48" cy="0" rx="10" ry="6"/>
  </g>
  <!-- animate #17: handcuff group pulse -->
  <g transform="translate(55,0)" stroke="#3A86FF" stroke-width="2.2" fill="none">
    <animate attributeName="opacity" values="0.4;0.9;0.4" dur="2.4s" repeatCount="indefinite"/>
  </g>
  <!-- RaaS labels left -->
  <text x="-80" y="-26" font-family="Inter, monospace" font-size="10" font-weight="800" fill="#F87171" text-anchor="middle">REvil</text>
  <text x="-80" y="-10" font-family="Inter, monospace" font-size="9" font-weight="600" fill="#FCA5A5" text-anchor="middle">Kaseya VSA</text>
  <text x="-80" y="12" font-family="Inter, monospace" font-size="10" font-weight="800" fill="#F87171" text-anchor="middle">GandCrab</text>
  <text x="-80" y="28" font-family="Inter, monospace" font-size="9" font-weight="600" fill="#FCA5A5" text-anchor="middle">$2B+ ransom</text>
</g>
<!-- Band C KPI card -->
<g transform="translate(990,553)" filter="url(#softShadow)">
  <rect x="-80" y="-55" width="180" height="110" rx="14" fill="#030C18" stroke="#3A86FF" stroke-width="2.2"/>
  <text x="10" y="-20" text-anchor="middle" font-family="Inter, Helvetica, Arial, sans-serif" font-size="13" font-weight="700" letter-spacing="2" fill="#8FB8FF">RaaS OPS</text>
  <text x="10" y="24" text-anchor="middle" font-family="Inter, Helvetica, Arial, sans-serif" font-size="52" font-weight="900" fill="#F5F7FA">BUST</text>
  <text x="10" y="46" text-anchor="middle" font-family="Inter, Helvetica, Arial, sans-serif" font-size="11" font-weight="600" fill="#A8C8FF">BKA DE, 2019-2021</text>
</g>

<!-- AMBIENT: 10 sparkles across 3 bands (#18-27) — keeping total at 28 counting animateMotion as 2 -->
<g opacity="0.8">
  <!-- Band A sparkles: 4 dots, 1 group animate -->
  <g fill="#F87171">
    <circle cx="220" cy="120" r="1.4"/>
    <circle cx="340" cy="155" r="1.4"/>
    <circle cx="460" cy="115" r="1.4"/>
    <circle cx="540" cy="200" r="1.4"/>
    <animate attributeName="opacity" values="0;0.9;0" dur="2.4s" repeatCount="indefinite"/>
  </g>
  <!-- Band B sparkles: 3 dots, 1 group animate -->
  <g fill="#FFB703">
    <circle cx="240" cy="300" r="1.4"/>
    <circle cx="380" cy="345" r="1.4"/>
    <circle cx="500" cy="305" r="1.4"/>
    <animate attributeName="opacity" values="0;0.9;0" dur="2.0s" begin="0.4s" repeatCount="indefinite"/>
  </g>
  <!-- Band C sparkles: 3 dots, 1 group animate -->
  <g fill="#8FB8FF">
    <circle cx="260" cy="510" r="1.4"/>
    <circle cx="380" cy="548" r="1.4"/>
    <circle cx="500" cy="512" r="1.4"/>
    <animate attributeName="opacity" values="0;0.9;0" dur="2.2s" begin="0.8s" repeatCount="indefinite"/>
  </g>
  <!-- Header data bars: 1 group animate -->
  <g fill="#8FB8FF" opacity="0.5">
    <rect x="800" y="22" width="6" height="2"/>
    <rect x="820" y="22" width="6" height="2"/>
    <rect x="840" y="22" width="6" height="2"/>
    <rect x="860" y="22" width="6" height="2"/>
    <animate attributeName="opacity" values="0.2;0.8;0.2" dur="1.6s" repeatCount="indefinite"/>
  </g>
</g>

<!-- cover-qr: https://tech.2twodragon.com/posts/2026/04/07/Tech_Security_Weekly_Digest_AI_Ransomware_Go_Palantir/ : 41x41 -->
<g transform="translate(1080,504)" filter="url(#softShadow)">
  <rect x="-8" y="-8" width="100" height="100" rx="6" fill="#FFFFFF"/>
  <path fill="#0A1020" d="M0.0 0.0h14.341v2.049h-14.341z M18.439 0.0h2.049v2.049h-2.049z M24.585 0.0h2.049v2.049h-2.049z M34.829 0.0h6.146v2.049h-6.146z M43.024 0.0h2.049v2.049h-2.049z M53.268 0.0h4.098v2.049h-4.098z M59.415 0.0h6.146v2.049h-6.146z M69.659 0.0h14.341v2.049h-14.341z M0.0 2.049h2.049v2.049h-2.049z M12.293 2.049h2.049v2.049h-2.049z M24.585 2.049h2.049v2.049h-2.049z M32.78 2.049h2.049v2.049h-2.049z M36.878 2.049h2.049v2.049h-2.049z M47.122 2.049h2.049v2.049h-2.049z M55.317 2.049h4.098v2.049h-4.098z M61.463 2.049h2.049v2.049h-2.049z M65.561 2.049h2.049v2.049h-2.049z M69.659 2.049h2.049v2.049h-2.049z M81.951 2.049h2.049v2.049h-2.049z M0.0 4.098h2.049v2.049h-2.049z M4.098 4.098h6.146v2.049h-6.146z M12.293 4.098h2.049v2.049h-2.049z M20.488 4.098h2.049v2.049h-2.049z M28.683 4.098h2.049v2.049h-2.049z M32.78 4.098h2.049v2.049h-2.049z M36.878 4.098h4.098v2.049h-4.098z M47.122 4.098h2.049v2.049h-2.049z M53.268 4.098h2.049v2.049h-2.049z M59.415 4.098h2.049v2.049h-2.049z M65.561 4.098h2.049v2.049h-2.049z M69.659 4.098h2.049v2.049h-2.049z M73.756 4.098h6.146v2.049h-6.146z M81.951 4.098h2.049v2.049h-2.049z M0.0 6.146h2.049v2.049h-2.049z M4.098 6.146h6.146v2.049h-6.146z M12.293 6.146h2.049v2.049h-2.049z M18.439 6.146h2.049v2.049h-2.049z M24.585 6.146h2.049v2.049h-2.049z M30.732 6.146h2.049v2.049h-2.049z M34.829 6.146h10.244v2.049h-10.244z M47.122 6.146h4.098v2.049h-4.098z M53.268 6.146h14.341v2.049h-14.341z M69.659 6.146h2.049v2.049h-2.049z M73.756 6.146h6.146v2.049h-6.146z M81.951 6.146h2.049v2.049h-2.049z M0.0 8.195h2.049v2.049h-2.049z M4.098 8.195h6.146v2.049h-6.146z M12.293 8.195h2.049v2.049h-2.049z M26.634 8.195h2.049v2.049h-2.049z M30.732 8.195h10.244v2.049h-10.244z M51.22 8.195h6.146v2.049h-6.146z M65.561 8.195h2.049v2.049h-2.049z M69.659 8.195h2.049v2.049h-2.049z M73.756 8.195h6.146v2.049h-6.146z M81.951 8.195h2.049v2.049h-2.049z M0.0 10.244h2.049v2.049h-2.049z M12.293 10.244h2.049v2.049h-2.049z M16.39 10.244h2.049v2.049h-2.049z M28.683 10.244h2.049v2.049h-2.049z M34.829 10.244h6.146v2.049h-6.146z M49.171 10.244h2.049v2.049h-2.049z M53.268 10.244h4.098v2.049h-4.098z M61.463 10.244h6.146v2.049h-6.146z M69.659 10.244h2.049v2.049h-2.049z M81.951 10.244h2.049v2.049h-2.049z M0.0 12.293h14.341v2.049h-14.341z M16.39 12.293h2.049v2.049h-2.049z M20.488 12.293h2.049v2.049h-2.049z M24.585 12.293h2.049v2.049h-2.049z M28.683 12.293h2.049v2.049h-2.049z M32.78 12.293h2.049v2.049h-2.049z M36.878 12.293h2.049v2.049h-2.049z M40.976 12.293h2.049v2.049h-2.049z M45.073 12.293h2.049v2.049h-2.049z M49.171 12.293h2.049v2.049h-2.049z M53.268 12.293h2.049v2.049h-2.049z M57.366 12.293h2.049v2.049h-2.049z M61.463 12.293h2.049v2.049h-2.049z M65.561 12.293h2.049v2.049h-2.049z M69.659 12.293h14.341v2.049h-14.341z M20.488 14.341h4.098v2.049h-4.098z M28.683 14.341h2.049v2.049h-2.049z M32.78 14.341h4.098v2.049h-4.098z M38.927 14.341h8.195v2.049h-8.195z M49.171 14.341h2.049v2.049h-2.049z M55.317 14.341h6.146v2.049h-6.146z M63.512 14.341h2.049v2.049h-2.049z M0.0 16.39h2.049v2.049h-2.049z M6.146 16.39h2.049v2.049h-2.049z M10.244 16.39h4.098v2.049h-4.098z M16.39 16.39h4.098v2.049h-4.098z M22.537 16.39h12.293v2.049h-12.293z M38.927 16.39h2.049v2.049h-2.049z M43.024 16.39h2.049v2.049h-2.049z M51.22 16.39h4.098v2.049h-4.098z M65.561 16.39h4.098v2.049h-4.098z M71.707 16.39h2.049v2.049h-2.049z M0.0 18.439h4.098v2.049h-4.098z M6.146 18.439h2.049v2.049h-2.049z M10.244 18.439h2.049v2.049h-2.049z M18.439 18.439h2.049v2.049h-2.049z M26.634 18.439h2.049v2.049h-2.049z M32.78 18.439h4.098v2.049h-4.098z M43.024 18.439h2.049v2.049h-2.049z M49.171 18.439h6.146v2.049h-6.146z M59.415 18.439h2.049v2.049h-2.049z M65.561 18.439h2.049v2.049h-2.049z M75.805 18.439h8.195v2.049h-8.195z M2.049 20.488h8.195v2.049h-8.195z M12.293 20.488h2.049v2.049h-2.049z M16.39 20.488h2.049v2.049h-2.049z M20.488 20.488h6.146v2.049h-6.146z M30.732 20.488h2.049v2.049h-2.049z M34.829 20.488h8.195v2.049h-8.195z M45.073 20.488h2.049v2.049h-2.049z M49.171 20.488h4.098v2.049h-4.098z M61.463 20.488h4.098v2.049h-4.098z M71.707 20.488h10.244v2.049h-10.244z M0.0 22.537h8.195v2.049h-8.195z M14.341 22.537h2.049v2.049h-2.049z M26.634 22.537h8.195v2.049h-8.195z M36.878 22.537h2.049v2.049h-2.049z M43.024 22.537h2.049v2.049h-2.049z M49.171 22.537h6.146v2.049h-6.146z M57.366 22.537h2.049v2.049h-2.049z M67.61 22.537h4.098v2.049h-4.098z M73.756 22.537h2.049v2.049h-2.049z M77.854 22.537h2.049v2.049h-2.049z M81.951 22.537h2.049v2.049h-2.049z M2.049 24.585h2.049v2.049h-2.049z M6.146 24.585h14.341v2.049h-14.341z M26.634 24.585h4.098v2.049h-4.098z M32.78 24.585h4.098v2.049h-4.098z M38.927 24.585h2.049v2.049h-2.049z M43.024 24.585h2.049v2.049h-2.049z M49.171 24.585h24.585v2.049h-24.585z M75.805 24.585h2.049v2.049h-2.049z M79.902 24.585h2.049v2.049h-2.049z M0.0 26.634h4.098v2.049h-4.098z M6.146 26.634h2.049v2.049h-2.049z M14.341 26.634h2.049v2.049h-2.049z M22.537 26.634h2.049v2.049h-2.049z M28.683 26.634h8.195v2.049h-8.195z M45.073 26.634h2.049v2.049h-2.049z M51.22 26.634h2.049v2.049h-2.049z M61.463 26.634h8.195v2.049h-8.195z M75.805 26.634h4.098v2.049h-4.098z M2.049 28.683h4.098v2.049h-4.098z M10.244 28.683h4.098v2.049h-4.098z M22.537 28.683h4.098v2.049h-4.098z M28.683 28.683h10.244v2.049h-10.244z M40.976 28.683h4.098v2.049h-4.098z M47.122 28.683h4.098v2.049h-4.098z M57.366 28.683h2.049v2.049h-2.049z M61.463 28.683h2.049v2.049h-2.049z M65.561 28.683h2.049v2.049h-2.049z M69.659 28.683h2.049v2.049h-2.049z M75.805 28.683h8.195v2.049h-8.195z M0.0 30.732h8.195v2.049h-8.195z M10.244 30.732h2.049v2.049h-2.049z M16.39 30.732h2.049v2.049h-2.049z M20.488 30.732h4.098v2.049h-4.098z M26.634 30.732h14.341v2.049h-14.341z M43.024 30.732h4.098v2.049h-4.098z M51.22 30.732h12.293v2.049h-12.293z M65.561 30.732h2.049v2.049h-2.049z M69.659 30.732h4.098v2.049h-4.098z M0.0 32.78h4.098v2.049h-4.098z M6.146 32.78h8.195v2.049h-8.195z M16.39 32.78h8.195v2.049h-8.195z M34.829 32.78h2.049v2.049h-2.049z M38.927 32.78h2.049v2.049h-2.049z M45.073 32.78h2.049v2.049h-2.049z M55.317 32.78h2.049v2.049h-2.049z M59.415 32.78h2.049v2.049h-2.049z M63.512 32.78h4.098v2.049h-4.098z M71.707 32.78h2.049v2.049h-2.049z M79.902 32.78h2.049v2.049h-2.049z M4.098 34.829h6.146v2.049h-6.146z M18.439 34.829h2.049v2.049h-2.049z M22.537 34.829h2.049v2.049h-2.049z M26.634 34.829h8.195v2.049h-8.195z M38.927 34.829h2.049v2.049h-2.049z M47.122 34.829h4.098v2.049h-4.098z M53.268 34.829h8.195v2.049h-8.195z M69.659 34.829h4.098v2.049h-4.098z M75.805 34.829h8.195v2.049h-8.195z M0.0 36.878h4.098v2.049h-4.098z M6.146 36.878h2.049v2.049h-2.049z M12.293 36.878h2.049v2.049h-2.049z M16.39 36.878h8.195v2.049h-8.195z M26.634 36.878h2.049v2.049h-2.049z M30.732 36.878h2.049v2.049h-2.049z M36.878 36.878h2.049v2.049h-2.049z M43.024 36.878h2.049v2.049h-2.049z M51.22 36.878h2.049v2.049h-2.049z M59.415 36.878h2.049v2.049h-2.049z M67.61 36.878h4.098v2.049h-4.098z M73.756 36.878h2.049v2.049h-2.049z M81.951 36.878h2.049v2.049h-2.049z M0.0 38.927h10.244v2.049h-10.244z M16.39 38.927h10.244v2.049h-10.244z M32.78 38.927h10.244v2.049h-10.244z M45.073 38.927h2.049v2.049h-2.049z M59.415 38.927h4.098v2.049h-4.098z M65.561 38.927h8.195v2.049h-8.195z M75.805 38.927h2.049v2.049h-2.049z M81.951 38.927h2.049v2.049h-2.049z M0.0 40.976h4.098v2.049h-4.098z M6.146 40.976h4.098v2.049h-4.098z M12.293 40.976h4.098v2.049h-4.098z M20.488 40.976h2.049v2.049h-2.049z M26.634 40.976h2.049v2.049h-2.049z M30.732 40.976h12.293v2.049h-12.293z M47.122 40.976h10.244v2.049h-10.244z M59.415 40.976h2.049v2.049h-2.049z M65.561 40.976h6.146v2.049h-6.146z M77.854 40.976h4.098v2.049h-4.098z M2.049 43.024h6.146v2.049h-6.146z M16.39 43.024h2.049v2.049h-2.049z M20.488 43.024h2.049v2.049h-2.049z M24.585 43.024h2.049v2.049h-2.049z M30.732 43.024h14.341v2.049h-14.341z M51.22 43.024h4.098v2.049h-4.098z M59.415 43.024h4.098v2.049h-4.098z M69.659 43.024h2.049v2.049h-2.049z M77.854 43.024h6.146v2.049h-6.146z M0.0 45.073h6.146v2.049h-6.146z M8.195 45.073h8.195v2.049h-8.195z M30.732 45.073h2.049v2.049h-2.049z M34.829 45.073h8.195v2.049h-8.195z M51.22 45.073h2.049v2.049h-2.049z M57.366 45.073h2.049v2.049h-2.049z M63.512 45.073h2.049v2.049h-2.049z M67.61 45.073h8.195v2.049h-8.195z M77.854 45.073h4.098v2.049h-4.098z M0.0 47.122h4.098v2.049h-4.098z M8.195 47.122h4.098v2.049h-4.098z M20.488 47.122h2.049v2.049h-2.049z M28.683 47.122h2.049v2.049h-2.049z M32.78 47.122h2.049v2.049h-2.049z M36.878 47.122h18.439v2.049h-18.439z M57.366 47.122h2.049v2.049h-2.049z M61.463 47.122h2.049v2.049h-2.049z M69.659 47.122h2.049v2.049h-2.049z M77.854 47.122h2.049v2.049h-2.049z M81.951 47.122h2.049v2.049h-2.049z M0.0 49.171h4.098v2.049h-4.098z M10.244 49.171h4.098v2.049h-4.098z M16.39 49.171h2.049v2.049h-2.049z M22.537 49.171h4.098v2.049h-4.098z M30.732 49.171h2.049v2.049h-2.049z M34.829 49.171h2.049v2.049h-2.049z M38.927 49.171h6.146v2.049h-6.146z M49.171 49.171h4.098v2.049h-4.098z M55.317 49.171h6.146v2.049h-6.146z M63.512 49.171h10.244v2.049h-10.244z M75.805 49.171h2.049v2.049h-2.049z M81.951 49.171h2.049v2.049h-2.049z M0.0 51.22h6.146v2.049h-6.146z M10.244 51.22h2.049v2.049h-2.049z M18.439 51.22h6.146v2.049h-6.146z M30.732 51.22h2.049v2.049h-2.049z M34.829 51.22h2.049v2.049h-2.049z M38.927 51.22h8.195v2.049h-8.195z M49.171 51.22h6.146v2.049h-6.146z M57.366 51.22h4.098v2.049h-4.098z M63.512 51.22h2.049v2.049h-2.049z M69.659 51.22h2.049v2.049h-2.049z M75.805 51.22h2.049v2.049h-2.049z M79.902 51.22h2.049v2.049h-2.049z M2.049 53.268h4.098v2.049h-4.098z M8.195 53.268h2.049v2.049h-2.049z M12.293 53.268h14.341v2.049h-14.341z M32.78 53.268h4.098v2.049h-4.098z M40.976 53.268h2.049v2.049h-2.049z M47.122 53.268h2.049v2.049h-2.049z M51.22 53.268h4.098v2.049h-4.098z M57.366 53.268h2.049v2.049h-2.049z M61.463 53.268h2.049v2.049h-2.049z M65.561 53.268h10.244v2.049h-10.244z M79.902 53.268h4.098v2.049h-4.098z M0.0 55.317h4.098v2.049h-4.098z M8.195 55.317h4.098v2.049h-4.098z M16.39 55.317h2.049v2.049h-2.049z M22.537 55.317h4.098v2.049h-4.098z M28.683 55.317h2.049v2.049h-2.049z M32.78 55.317h6.146v2.049h-6.146z M40.976 55.317h6.146v2.049h-6.146z M49.171 55.317h8.195v2.049h-8.195z M59.415 55.317h2.049v2.049h-2.049z M65.561 55.317h2.049v2.049h-2.049z M81.951 55.317h2.049v2.049h-2.049z M2.049 57.366h2.049v2.049h-2.049z M8.195 57.366h8.195v2.049h-8.195z M18.439 57.366h2.049v2.049h-2.049z M30.732 57.366h6.146v2.049h-6.146z M40.976 57.366h8.195v2.049h-8.195z M53.268 57.366h4.098v2.049h-4.098z M59.415 57.366h4.098v2.049h-4.098z M65.561 57.366h4.098v2.049h-4.098z M71.707 57.366h2.049v2.049h-2.049z M10.244 59.415h2.049v2.049h-2.049z M14.341 59.415h8.195v2.049h-8.195z M26.634 59.415h6.146v2.049h-6.146z M34.829 59.415h2.049v2.049h-2.049z M38.927 59.415h2.049v2.049h-2.049z M43.024 59.415h2.049v2.049h-2.049z M47.122 59.415h6.146v2.049h-6.146z M57.366 59.415h8.195v2.049h-8.195z M71.707 59.415h2.049v2.049h-2.049z M75.805 59.415h4.098v2.049h-4.098z M81.951 59.415h2.049v2.049h-2.049z M0.0 61.463h2.049v2.049h-2.049z M4.098 61.463h10.244v2.049h-10.244z M16.39 61.463h6.146v2.049h-6.146z M24.585 61.463h4.098v2.049h-4.098z M34.829 61.463h2.049v2.049h-2.049z M38.927 61.463h4.098v2.049h-4.098z M45.073 61.463h2.049v2.049h-2.049z M51.22 61.463h2.049v2.049h-2.049z M71.707 61.463h2.049v2.049h-2.049z M77.854 61.463h6.146v2.049h-6.146z M4.098 63.512h2.049v2.049h-2.049z M8.195 63.512h4.098v2.049h-4.098z M16.39 63.512h4.098v2.049h-4.098z M28.683 63.512h2.049v2.049h-2.049z M34.829 63.512h2.049v2.049h-2.049z M38.927 63.512h6.146v2.049h-6.146z M47.122 63.512h2.049v2.049h-2.049z M53.268 63.512h8.195v2.049h-8.195z M63.512 63.512h6.146v2.049h-6.146z M73.756 63.512h4.098v2.049h-4.098z M0.0 65.561h2.049v2.049h-2.049z M6.146 65.561h4.098v2.049h-4.098z M12.293 65.561h2.049v2.049h-2.049z M16.39 65.561h2.049v2.049h-2.049z M20.488 65.561h4.098v2.049h-4.098z M28.683 65.561h2.049v2.049h-2.049z M38.927 65.561h4.098v2.049h-4.098z M51.22 65.561h4.098v2.049h-4.098z M63.512 65.561h12.293v2.049h-12.293z M77.854 65.561h2.049v2.049h-2.049z M81.951 65.561h2.049v2.049h-2.049z M16.39 67.61h2.049v2.049h-2.049z M26.634 67.61h2.049v2.049h-2.049z M32.78 67.61h2.049v2.049h-2.049z M36.878 67.61h8.195v2.049h-8.195z M49.171 67.61h4.098v2.049h-4.098z M55.317 67.61h12.293v2.049h-12.293z M73.756 67.61h10.244v2.049h-10.244z M0.0 69.659h14.341v2.049h-14.341z M20.488 69.659h6.146v2.049h-6.146z M30.732 69.659h2.049v2.049h-2.049z M34.829 69.659h2.049v2.049h-2.049z M38.927 69.659h2.049v2.049h-2.049z M51.22 69.659h2.049v2.049h-2.049z M57.366 69.659h2.049v2.049h-2.049z M61.463 69.659h2.049v2.049h-2.049z M65.561 69.659h2.049v2.049h-2.049z M69.659 69.659h2.049v2.049h-2.049z M73.756 69.659h2.049v2.049h-2.049z M77.854 69.659h4.098v2.049h-4.098z M0.0 71.707h2.049v2.049h-2.049z M12.293 71.707h2.049v2.049h-2.049z M16.39 71.707h4.098v2.049h-4.098z M22.537 71.707h8.195v2.049h-8.195z M32.78 71.707h4.098v2.049h-4.098z M38.927 71.707h8.195v2.049h-8.195z M49.171 71.707h8.195v2.049h-8.195z M65.561 71.707h2.049v2.049h-2.049z M73.756 71.707h2.049v2.049h-2.049z M77.854 71.707h2.049v2.049h-2.049z M81.951 71.707h2.049v2.049h-2.049z M0.0 73.756h2.049v2.049h-2.049z M4.098 73.756h6.146v2.049h-6.146z M12.293 73.756h2.049v2.049h-2.049z M18.439 73.756h4.098v2.049h-4.098z M26.634 73.756h8.195v2.049h-8.195z M38.927 73.756h4.098v2.049h-4.098z M45.073 73.756h2.049v2.049h-2.049z M51.22 73.756h2.049v2.049h-2.049z M55.317 73.756h6.146v2.049h-6.146z M65.561 73.756h12.293v2.049h-12.293z M79.902 73.756h2.049v2.049h-2.049z M0.0 75.805h2.049v2.049h-2.049z M4.098 75.805h6.146v2.049h-6.146z M12.293 75.805h2.049v2.049h-2.049z M16.39 75.805h6.146v2.049h-6.146z M24.585 75.805h2.049v2.049h-2.049z M32.78 75.805h4.098v2.049h-4.098z M38.927 75.805h6.146v2.049h-6.146z M57.366 75.805h4.098v2.049h-4.098z M63.512 75.805h8.195v2.049h-8.195z M73.756 75.805h4.098v2.049h-4.098z M79.902 75.805h2.049v2.049h-2.049z M0.0 77.854h2.049v2.049h-2.049z M4.098 77.854h6.146v2.049h-6.146z M12.293 77.854h2.049v2.049h-2.049z M18.439 77.854h4.098v2.049h-4.098z M28.683 77.854h2.049v2.049h-2.049z M32.78 77.854h6.146v2.049h-6.146z M40.976 77.854h4.098v2.049h-4.098z M47.122 77.854h8.195v2.049h-8.195z M57.366 77.854h2.049v2.049h-2.049z M61.463 77.854h4.098v2.049h-4.098z M73.756 77.854h10.244v2.049h-10.244z M0.0 79.902h2.049v2.049h-2.049z M12.293 79.902h2.049v2.049h-2.049z M18.439 79.902h2.049v2.049h-2.049z M22.537 79.902h10.244v2.049h-10.244z M43.024 79.902h6.146v2.049h-6.146z M51.22 79.902h4.098v2.049h-4.098z M57.366 79.902h12.293v2.049h-12.293z M71.707 79.902h2.049v2.049h-2.049z M79.902 79.902h2.049v2.049h-2.049z M0.0 81.951h14.341v2.049h-14.341z M16.39 81.951h2.049v2.049h-2.049z M38.927 81.951h8.195v2.049h-8.195z M49.171 81.951h2.049v2.049h-2.049z M59.415 81.951h2.049v2.049h-2.049z M63.512 81.951h14.341v2.049h-14.341z M79.902 81.951h2.049v2.049h-2.049z"/>
</g>
<text x="1122" y="614" font-family="Inter, Helvetica, Arial, sans-serif" font-size="10" font-weight="700" fill="#F5F7FA" text-anchor="middle">scan / full post</text>
</svg>
