<svg xmlns="http://www.w3.org/2000/svg" viewBox="0 0 1200 630">
  <defs>
    <linearGradient id="bg" x1="0%" y1="0%" x2="100%" y2="100%">
      <stop offset="0%" style="stop-color:#0a0a1a"/><stop offset="100%" style="stop-color:#1a0a2a"/>
    </linearGradient>
    <filter id="glow"><feGaussianBlur stdDeviation="4" result="b"/><feMerge><feMergeNode in="b"/><feMergeNode in="SourceGraphic"/></feMerge></filter>
    <filter id="sg"><feGaussianBlur stdDeviation="30"/></filter>
    <filter id="shadow"><feDropShadow dx="0" dy="4" stdDeviation="8" flood-color="#000" flood-opacity="0.3"/></filter>
  </defs>
  <rect width="1200" height="630" fill="url(#bg)"/>
  <circle cx="600" cy="250" r="280" fill="#8b5cf6" opacity="0.03" filter="url(#sg)"/>
  <g transform="translate(600,225)">
    <!-- Ollama llama silhouette -->
    <g filter="url(#shadow)">
      <circle cx="0" cy="0" r="80" fill="#1e293b" stroke="#8b5cf6" stroke-width="2.5"/>
      <!-- Simple llama shape -->
      <path d="M-20,-40 C-20,-55 -10,-60 -5,-55 L-5,-30 M20,-40 C20,-55 10,-60 5,-55 L5,-30" fill="none" stroke="#c4b5fd" stroke-width="2" opacity="0.5"/>
      <ellipse cx="0" cy="0" rx="35" ry="30" fill="none" stroke="#c4b5fd" stroke-width="2" opacity="0.3"/>
      <text x="0" y="8" font-family="Arial,sans-serif" font-size="18" font-weight="bold" fill="#c4b5fd" text-anchor="middle">Ollama</text>
      <!-- AI sparkle -->
      <circle cx="30" cy="-25" r="4" fill="#c4b5fd" opacity="0.5"/>
    </g>
    <!-- SolarWinds breach -->
    <g transform="translate(-130,30)" opacity="0.5">
      <circle cx="0" cy="0" r="28" fill="#1e293b" stroke="#ef4444" stroke-width="1.5"/>
      <!-- Sun rays -->
      <g opacity="0.3">
        <line x1="0" y1="-28" x2="0" y2="-20" stroke="#ef4444" stroke-width="2"/>
        <line x1="20" y1="-20" x2="14" y2="-14" stroke="#ef4444" stroke-width="2"/>
        <line x1="28" y1="0" x2="20" y2="0" stroke="#ef4444" stroke-width="2"/>
        <line x1="-28" y1="0" x2="-20" y2="0" stroke="#ef4444" stroke-width="2"/>
      </g>
      <text x="0" y="4" font-family="Courier New" font-size="7" fill="#fca5a5" text-anchor="middle">SOLAR</text>
      <text x="0" y="44" font-family="Courier New" font-size="7" fill="#fca5a5" text-anchor="middle">RCE</text>
    </g>
    <!-- Google/IPIDEA -->
    <g transform="translate(130,30)" opacity="0.5">
      <circle cx="0" cy="0" r="28" fill="#1e293b" stroke="#4285f4" stroke-width="1.5"/>
      <text x="0" y="-2" font-family="Arial,sans-serif" font-size="10" font-weight="bold" fill="#93c5fd" text-anchor="middle">G</text>
      <text x="0" y="10" font-family="Courier New" font-size="6" fill="#60a5fa" text-anchor="middle">IPIDEA</text>
    </g>
  </g>
  <text x="600" y="500" font-family="Arial,sans-serif" font-size="34" font-weight="bold" fill="white" text-anchor="middle" filter="url(#glow)">Ollama AI + SolarWinds</text>
  <text x="600" y="538" font-family="Arial,sans-serif" font-size="16" fill="#94a3b8" text-anchor="middle">Weekly Digest | AI Security + RCE + Google IPIDEA</text>
  <rect x="40" y="25" width="160" height="32" rx="16" fill="#8b5cf6" opacity="0.2" stroke="#8b5cf6" stroke-width="1"/>
  <text x="120" y="47" font-family="Arial,sans-serif" font-size="13" font-weight="bold" fill="#c4b5fd" text-anchor="middle">WEEKLY</text>
  <rect x="1000" y="25" width="160" height="32" rx="16" fill="#3b82f6" opacity="0.2" stroke="#3b82f6" stroke-width="1"/>
  <text x="1080" y="47" font-family="Arial,sans-serif" font-size="13" font-weight="bold" fill="#93c5fd" text-anchor="middle">Jan 30, 2026</text>
  <text x="1160" y="615" font-family="Arial,sans-serif" font-size="13" fill="#475569" text-anchor="end">tech.2twodragon.com</text>
</svg>