<svg xmlns="http://www.w3.org/2000/svg" viewBox="0 0 1200 630" width="1200" height="630" role="img" aria-label="Weekly digest cover 2026.04.03: CVE, Patch, AWS">
<!-- profile: high-quality-cover (L20 Hero+2-Card) -->
<title>Weekly Security Digest - 2026.04.03</title>
<defs><linearGradient id="bgSpread" x1="0%" y1="0%" x2="100%" y2="100%"><stop offset="0%" stop-color="#0B1326"/><stop offset="55%" stop-color="#0D1530"/><stop offset="100%" stop-color="#141034"/></linearGradient><linearGradient id="heroPanel" x1="0%" y1="0%" x2="0%" y2="100%"><stop offset="0%" stop-color="#1A0A08"/><stop offset="100%" stop-color="#110608"/></linearGradient><linearGradient id="heroPanelBlue" x1="0%" y1="0%" x2="0%" y2="100%"><stop offset="0%" stop-color="#0A1A30"/><stop offset="100%" stop-color="#071426"/></linearGradient><linearGradient id="heroPanelAmber" x1="0%" y1="0%" x2="0%" y2="100%"><stop offset="0%" stop-color="#1A1208"/><stop offset="100%" stop-color="#120E06"/></linearGradient><linearGradient id="heroPanelGreen" x1="0%" y1="0%" x2="0%" y2="100%"><stop offset="0%" stop-color="#08160E"/><stop offset="100%" stop-color="#04100A"/></linearGradient><linearGradient id="heroPanelPurple" x1="0%" y1="0%" x2="0%" y2="100%"><stop offset="0%" stop-color="#110629"/><stop offset="100%" stop-color="#0A0418"/></linearGradient><radialGradient id="hotRed" cx="50%" cy="50%" r="50%"><stop offset="0%" stop-color="#E63946" stop-opacity="0.6"/><stop offset="100%" stop-color="#E63946" stop-opacity="0"/></radialGradient><radialGradient id="hotBlue" cx="50%" cy="50%" r="50%"><stop offset="0%" stop-color="#3A86FF" stop-opacity="0.5"/><stop offset="100%" stop-color="#3A86FF" stop-opacity="0"/></radialGradient><radialGradient id="hotAmber" cx="50%" cy="50%" r="50%"><stop offset="0%" stop-color="#FFB703" stop-opacity="0.45"/><stop offset="100%" stop-color="#FFB703" stop-opacity="0"/></radialGradient><radialGradient id="hotGreen" cx="50%" cy="50%" r="50%"><stop offset="0%" stop-color="#4ADE80" stop-opacity="0.45"/><stop offset="100%" stop-color="#4ADE80" stop-opacity="0"/></radialGradient><radialGradient id="hotPurple" cx="50%" cy="50%" r="50%"><stop offset="0%" stop-color="#A78BFA" stop-opacity="0.45"/><stop offset="100%" stop-color="#A78BFA" stop-opacity="0"/></radialGradient><pattern id="envGrid" x="0" y="0" width="40" height="40" patternUnits="userSpaceOnUse"><circle cx="20" cy="20" r="0.8" fill="#2A3256" opacity="0.55"/></pattern><filter id="softShadow" x="-10%" y="-10%" width="130%" height="130%"><feGaussianBlur in="SourceAlpha" stdDeviation="3"/><feOffset dx="2" dy="4"/><feComponentTransfer><feFuncA type="linear" slope="0.55"/></feComponentTransfer><feMerge><feMergeNode/><feMergeNode in="SourceGraphic"/></feMerge></filter><filter id="textShadow" x="-10%" y="-10%" width="130%" height="130%"><feGaussianBlur in="SourceAlpha" stdDeviation="1.2"/><feOffset dx="1" dy="1.5"/><feComponentTransfer><feFuncA type="linear" slope="0.7"/></feComponentTransfer><feMerge><feMergeNode/><feMergeNode in="SourceGraphic"/></feMerge></filter></defs>
<rect width="1200" height="630" fill="url(#bgSpread)"/>
<rect width="1200" height="630" fill="url(#envGrid)"/>
<circle cx="310" cy="310" r="160" fill="url(#hotRed)"><animate attributeName="opacity" values="0.6;1;0.6" dur="5.8s" repeatCount="indefinite"/></circle><circle cx="950" cy="210" r="120" fill="url(#hotBlue)"><animate attributeName="opacity" values="0.45;0.85;0.45" dur="6.4s" repeatCount="indefinite"/></circle><circle cx="970" cy="480" r="110" fill="url(#hotAmber)"><animate attributeName="opacity" values="0.4;0.75;0.4" dur="7.1s" repeatCount="indefinite"/></circle><g fill="#8FB8FF"><circle cx="180" cy="70" r="1.2"><animate attributeName="opacity" values="0.2;1;0.2" dur="3.4s" repeatCount="indefinite"/></circle><circle cx="440" cy="62" r="1"><animate attributeName="opacity" values="0.2;0.9;0.2" dur="4.2s" repeatCount="indefinite"/></circle><circle cx="740" cy="68" r="1.3"><animate attributeName="opacity" values="0.25;1;0.25" dur="3.9s" repeatCount="indefinite"/></circle><circle cx="1060" cy="74" r="0.9"><animate attributeName="opacity" values="0.2;0.85;0.2" dur="5.1s" repeatCount="indefinite"/></circle><circle cx="90" cy="580" r="1"><animate attributeName="opacity" values="0.15;0.8;0.15" dur="4.7s" repeatCount="indefinite"/></circle><circle cx="550" cy="590" r="0.8"><animate attributeName="opacity" values="0.2;0.75;0.2" dur="3.6s" begin="0.5s" repeatCount="indefinite"/></circle></g>
<g fill="#7DA3D9" opacity="0.85"><circle cx="252" cy="58" r="0.8"><animate attributeName="opacity" values="0.15;0.7;0.15" dur="4.3s" repeatCount="indefinite"/></circle><circle cx="368" cy="74" r="0.9"><animate attributeName="opacity" values="0.2;0.85;0.2" dur="3.8s" begin="0.4s" repeatCount="indefinite"/></circle><circle cx="624" cy="60" r="1.1"><animate attributeName="opacity" values="0.25;0.95;0.25" dur="4.5s" repeatCount="indefinite"/></circle><circle cx="858" cy="68" r="0.9"><animate attributeName="opacity" values="0.2;0.8;0.2" dur="3.6s" begin="0.6s" repeatCount="indefinite"/></circle><circle cx="996" cy="62" r="1.0"><animate attributeName="opacity" values="0.2;0.9;0.2" dur="4.0s" begin="0.2s" repeatCount="indefinite"/></circle><circle cx="1138" cy="76" r="0.8"><animate attributeName="opacity" values="0.15;0.7;0.15" dur="5.2s" begin="0.5s" repeatCount="indefinite"/></circle><circle cx="218" cy="596" r="0.9"><animate attributeName="opacity" values="0.18;0.75;0.18" dur="4.6s" begin="0.3s" repeatCount="indefinite"/></circle><circle cx="380" cy="608" r="1.0"><animate attributeName="opacity" values="0.2;0.85;0.2" dur="3.9s" begin="0.7s" repeatCount="indefinite"/></circle><circle cx="704" cy="600" r="0.8"><animate attributeName="opacity" values="0.18;0.7;0.18" dur="4.2s" begin="0.4s" repeatCount="indefinite"/></circle><circle cx="892" cy="608" r="1.1"><animate attributeName="opacity" values="0.22;0.9;0.22" dur="4.7s" begin="0.6s" repeatCount="indefinite"/></circle><circle cx="1078" cy="600" r="0.9"><animate attributeName="opacity" values="0.2;0.85;0.2" dur="3.6s" begin="0.8s" repeatCount="indefinite"/></circle></g>
<rect x="0" y="0" width="1200" height="56" fill="#050813" opacity="0.92"/>
<text x="36" y="36" font-family="Inter, Helvetica, Arial, sans-serif" font-size="18" font-weight="700" fill="#8FB8FF" letter-spacing="2.5">WEEKLY DIGEST</text>
<text x="1164" y="36" font-family="Inter, Helvetica, Arial, sans-serif" font-size="15" font-weight="600" fill="#7DA3D9" letter-spacing="1.5" text-anchor="end">2026.04.03</text>
<rect x="0" y="54" width="1200" height="2" fill="#E63946" opacity="0.85"><animate attributeName="opacity" values="0.4;1;0.4" dur="4.8s" repeatCount="indefinite"/></rect>
<rect x="32" y="80" width="600" height="510" rx="14" ry="14" fill="url(#heroPanelAmber)" stroke="#FFB703" stroke-width="1.8" opacity="0.98"/>
<circle cx="160" cy="300" r="240" fill="url(#hotAmber)" opacity="0.28"/>
<rect x="32" y="80" width="600" height="4" fill="#FFB703" opacity="0.85"><animate attributeName="opacity" values="0.5;1;0.5" dur="3.4s" repeatCount="indefinite"/></rect>
<g filter="url(#textShadow)">
<text x="54" y="112" font-family="Inter, Helvetica, Arial, sans-serif" font-size="13" font-weight="700" fill="#FFD58A" letter-spacing="3">HIGH  /  01</text>
<text x="54" y="146" font-family="Inter, Helvetica, Arial, sans-serif" font-size="31" font-weight="800" fill="#F8FAFC">CVE</text>
<text x="54" y="174" font-family="Inter, Helvetica, Arial, sans-serif" font-size="17" font-weight="500" fill="#FFD58A">CVE - AI</text>
</g>
<g transform="translate(332,360)" opacity="0.32"><circle r="180" fill="none" stroke="#FFB703" stroke-width="0.6" stroke-dasharray="2 4"/><circle r="140" fill="none" stroke="#FFB703" stroke-width="0.6" stroke-dasharray="2 4" opacity="0.7"/><circle r="100" fill="none" stroke="#FFB703" stroke-width="0.6" stroke-dasharray="2 4" opacity="0.5"/><g><path d="M0 0 L180 0 A180 180 0 0 1 127 127 Z" fill="#FFB703" opacity="0.10"/><animateTransform attributeName="transform" type="rotate" from="0" to="360" dur="14s" repeatCount="indefinite"/></g></g>
<g stroke="#FFB703" stroke-width="1.4" fill="none" opacity="0.7"><path d="M36 96 L36 84 L48 84"/><path d="M616 84 L628 84 L628 96"/><path d="M36 574 L36 586 L48 586"/><path d="M616 586 L628 586 L628 574"/></g>
<g><rect x="54" y="526" width="280" height="1" fill="#FFB703" opacity="0.35"/><rect x="54" y="528" width="1" height="4" fill="#FFB703" opacity="0.55"/><rect x="68" y="528" width="1" height="2" fill="#FFB703" opacity="0.55"/><rect x="82" y="528" width="1" height="2" fill="#FFB703" opacity="0.55"/><rect x="96" y="528" width="1" height="4" fill="#FFB703" opacity="0.55"/><rect x="110" y="528" width="1" height="2" fill="#FFB703" opacity="0.55"/><rect x="124" y="528" width="1" height="2" fill="#FFB703" opacity="0.55"/><rect x="138" y="528" width="1" height="4" fill="#FFB703" opacity="0.55"/><rect x="152" y="528" width="1" height="2" fill="#FFB703" opacity="0.55"/><rect x="166" y="528" width="1" height="2" fill="#FFB703" opacity="0.55"/><rect x="180" y="528" width="1" height="4" fill="#FFB703" opacity="0.55"/><rect x="194" y="528" width="1" height="2" fill="#FFB703" opacity="0.55"/><rect x="208" y="528" width="1" height="2" fill="#FFB703" opacity="0.55"/><rect x="222" y="528" width="1" height="4" fill="#FFB703" opacity="0.55"/><rect x="236" y="528" width="1" height="2" fill="#FFB703" opacity="0.55"/><rect x="250" y="528" width="1" height="2" fill="#FFB703" opacity="0.55"/><rect x="264" y="528" width="1" height="4" fill="#FFB703" opacity="0.55"/><rect x="278" y="528" width="1" height="2" fill="#FFB703" opacity="0.55"/><rect x="292" y="528" width="1" height="2" fill="#FFB703" opacity="0.55"/><rect x="306" y="528" width="1" height="4" fill="#FFB703" opacity="0.55"/><rect x="320" y="528" width="1" height="2" fill="#FFB703" opacity="0.55"/><rect x="284" y="527" width="50" height="6" fill="#FFB703" opacity="0.45"><animate attributeName="x" values="54;284;54" dur="6.4s" repeatCount="indefinite"/><animate attributeName="opacity" values="0.2;0.7;0.2" dur="6.4s" repeatCount="indefinite"/></rect></g>
<g transform="translate(332,360)"><g filter="url(#softShadow)"><rect x="-160" y="-104" width="320" height="208" rx="10" fill="#0A0F1E" stroke="#FFB703" stroke-width="1.4" opacity="0.95"/></g><text x="-148" y="-82" font-family="Inter, Helvetica, Arial, sans-serif" font-size="11" font-weight="700" fill="#FFD58A" letter-spacing="2">SECURITY ADVISORY</text><g transform="translate(96,-96)"><rect x="0" y="0" width="60" height="18" rx="3" fill="#FFB703" opacity="0.9"/><text x="30" y="13" text-anchor="middle" font-family="Inter, monospace" font-size="9" font-weight="900" fill="#0A0F1E">ADVISORY</text></g><g transform="translate(-92,-46)"><path d="M40 0 L78 14 L78 56 Q78 92 40 108 Q2 92 2 56 L2 14 Z" fill="none" stroke="#FFB703" stroke-width="2.4" stroke-linejoin="round"><animate attributeName="stroke-opacity" values="0.6;1;0.6" dur="3.2s" repeatCount="indefinite"/></path><path d="M40 8 L70 19 L70 54 Q70 84 40 98 Q10 84 10 54 L10 19 Z" fill="#FFB703" opacity="0.10"/><path d="M26 54 L37 66 L56 40" fill="none" stroke="#FFD58A" stroke-width="3.2" stroke-linecap="round" stroke-linejoin="round"><animate attributeName="stroke-opacity" values="0.5;1;0.5" dur="2.4s" repeatCount="indefinite"/></path></g><g transform="translate(8,-44)"><text x="0" y="0" font-family="Inter, monospace" font-size="10" font-weight="800" fill="#FFD58A">SEVERITY</text><rect x="0" y="12" width="140" height="14" rx="7" fill="#11182B" stroke="#FFB703" stroke-width="1.2"/><g stroke="#FFB703" stroke-width="1" opacity="0.4"><line x1="47" y1="12" x2="47" y2="26"/><line x1="93" y1="12" x2="93" y2="26"/></g><g transform="translate(70,19)"><circle cx="0" cy="0" r="6.5" fill="#FFB703"><animate attributeName="opacity" values="0.7;1;0.7" dur="2.2s" repeatCount="indefinite"/></circle><circle cx="0" cy="0" r="2.4" fill="#0A0F1E"/></g><text x="0" y="44" font-family="Inter, monospace" font-size="11" font-weight="900" fill="#FFD58A">SEVERITY: TBD</text><text x="0" y="60" font-family="Inter, monospace" font-size="8" font-weight="600" fill="#FFD58A" opacity="0.85">unspecified - under review</text></g><text x="0" y="92" text-anchor="middle" font-family="Inter, Helvetica, Arial, sans-serif" font-size="10" font-weight="700" fill="#FFB703" letter-spacing="2">REVIEW ADVISORY DETAILS</text></g>
<g transform="translate(54,548)">
<rect x="0" y="0" width="280" height="24" rx="3" fill="#FFB703" opacity="0.95"/>
<text x="140" y="17" text-anchor="middle" font-family="Inter, Helvetica, Arial, sans-serif" font-size="12" font-weight="700" fill="#FFFFFF">READ THE ADVISORY</text>
</g>
<text x="350" y="566" font-family="Inter, Helvetica, Arial, sans-serif" font-size="13" font-weight="600" fill="#A5B4C4" font-style="italic">Weekly Digest  /  2026.04.03</text>
<rect x="652" y="80" width="516" height="248" rx="14" ry="14" fill="url(#heroPanelBlue)" stroke="#3A86FF" stroke-width="1.6" opacity="0.97"/>
<rect x="652" y="80" width="516" height="4" fill="#3A86FF" opacity="0.85"><animate attributeName="opacity" values="0.5;1;0.5" dur="4.2s" repeatCount="indefinite"/></rect>
<g filter="url(#textShadow)">
<text x="670" y="110" font-family="Inter, Helvetica, Arial, sans-serif" font-size="12" font-weight="700" fill="#7DA3D9" letter-spacing="3">HIGH  /  02</text>
<text x="670" y="140" font-family="Inter, Helvetica, Arial, sans-serif" font-size="24" font-weight="800" fill="#F5F7FA">Patch</text>
<text x="670" y="163" font-family="Inter, Helvetica, Arial, sans-serif" font-size="14" font-weight="500" fill="#BFC9D9">Patch - AI</text>
</g>
<g stroke="#3A86FF" stroke-width="1.4" fill="none" opacity="0.7"><path d="M656 93 L656 84 L665 84"/><path d="M1155 84 L1164 84 L1164 93"/><path d="M656 315 L656 324 L665 324"/><path d="M1155 324 L1164 324 L1164 315"/></g>
<g transform="translate(800,230)"><g font-family="Inter, monospace" font-size="8" font-weight="800"><g transform="translate(-150,-40)"><rect x="0" y="0" width="76" height="24" rx="4" fill="#0E1426" stroke="#3A86FF" stroke-width="1.2"/><text x="38" y="15" text-anchor="middle" fill="#60A5FA">DIGEST</text></g><g transform="translate(-150,-6)"><rect x="0" y="0" width="76" height="24" rx="4" fill="#0E1426" stroke="#3A86FF" stroke-width="1.2" opacity="0.88"/><text x="38" y="15" text-anchor="middle" fill="#60A5FA">ECOSYSTEM</text></g><g transform="translate(-150,28)"><rect x="0" y="0" width="76" height="24" rx="4" fill="#0E1426" stroke="#3A86FF" stroke-width="1.2" opacity="0.76"/><text x="38" y="15" text-anchor="middle" fill="#60A5FA">RELEASE</text></g></g><g stroke="#3A86FF" stroke-width="1" stroke-dasharray="3 2" fill="none" opacity="0.6"><line x1="-74" y1="-28" x2="-8" y2="0"/><line x1="-74" y1="6" x2="-8" y2="2"/><line x1="-74" y1="40" x2="-8" y2="4"/></g><g fill="#60A5FA"><circle r="2"><animateMotion path="M-74 -28 L-8 0" dur="2.2s" repeatCount="indefinite"/></circle><circle r="2"><animateMotion path="M-74 6 L-8 2" dur="2s" begin="0.4s" repeatCount="indefinite"/></circle><circle r="2"><animateMotion path="M-74 40 L-8 4" dur="2.4s" begin="0.8s" repeatCount="indefinite"/></circle></g><circle cx="0" cy="2" r="30" fill="#0A1326" stroke="#3A86FF" stroke-width="2" filter="url(#softShadow)"><animate attributeName="r" values="28;33;28" dur="3.4s" repeatCount="indefinite"/></circle><text x="0" y="-1" text-anchor="middle" font-family="Inter, monospace" font-size="11" font-weight="900" fill="#60A5FA">UPDATE</text><text x="0" y="13" text-anchor="middle" font-family="Inter, monospace" font-size="8" font-weight="700" fill="#3A86FF">ECOSYSTEM</text><g transform="translate(56,-44)" filter="url(#softShadow)"><rect x="0" y="0" width="120" height="92" rx="6" fill="#0A0F1E" stroke="#3A86FF" stroke-width="1.2"/><text x="60" y="16" text-anchor="middle" font-family="Inter, monospace" font-size="9" font-weight="800" fill="#60A5FA">ACTIVITY</text><polyline points="12,72 30,60 46,64 62,48 80,52 98,34 108,30" fill="none" stroke="#3A86FF" stroke-width="2" stroke-linecap="round" stroke-linejoin="round"/><circle cx="108" cy="30" r="3" fill="#60A5FA"><animate attributeName="opacity" values="0.5;1;0.5" dur="2s" repeatCount="indefinite"/></circle><g stroke="#3A86FF" stroke-width="0.6" opacity="0.3"><line x1="12" y1="46" x2="108" y2="46"/><line x1="12" y1="62" x2="108" y2="62"/></g><text x="60" y="86" text-anchor="middle" font-family="Inter, monospace" font-size="8" font-weight="600" fill="#3A86FF">trend overview</text></g></g>
<g transform="translate(1094,168)" filter="url(#softShadow)"><rect x="-68" y="-55" width="140" height="110" rx="10" fill="#071426" stroke="#3A86FF" stroke-width="2"/><text x="2" y="-28" text-anchor="middle" font-family="Inter, Helvetica, Arial, sans-serif" font-size="10" font-weight="700" letter-spacing="2" fill="#7DA3D9">STATUS</text><text x="2" y="18" text-anchor="middle" font-family="Inter, Helvetica, Arial, sans-serif" font-size="28" font-weight="900" fill="#F5F7FA">TBD</text><text x="2" y="40" text-anchor="middle" font-family="Inter, Helvetica, Arial, sans-serif" font-size="10" font-weight="600" fill="#BFC9D9">NEW</text></g>
<rect x="652" y="344" width="516" height="246" rx="14" ry="14" fill="url(#heroPanelBlue)" stroke="#3A86FF" stroke-width="1.6" opacity="0.97"/>
<rect x="652" y="344" width="516" height="4" fill="#3A86FF" opacity="0.85"><animate attributeName="opacity" values="0.5;1;0.5" dur="4.8s" repeatCount="indefinite"/></rect>
<g filter="url(#textShadow)">
<text x="670" y="374" font-family="Inter, Helvetica, Arial, sans-serif" font-size="12" font-weight="700" fill="#7DA3D9" letter-spacing="3">MEDIUM  /  03</text>
<text x="670" y="404" font-family="Inter, Helvetica, Arial, sans-serif" font-size="24" font-weight="800" fill="#F5F7FA">AWS</text>
<text x="670" y="428" font-family="Inter, Helvetica, Arial, sans-serif" font-size="14" font-weight="500" fill="#BFC9D9">AWS - AI</text>
</g>
<g stroke="#3A86FF" stroke-width="1.4" fill="none" opacity="0.7"><path d="M656 357 L656 348 L665 348"/><path d="M1155 348 L1164 348 L1164 357"/><path d="M656 577 L656 586 L665 586"/><path d="M1155 586 L1164 586 L1164 577"/></g>
<g transform="translate(800,490)"><g font-family="Inter, monospace" font-size="8" font-weight="800"><g transform="translate(-150,-40)"><rect x="0" y="0" width="76" height="24" rx="4" fill="#0E1426" stroke="#3A86FF" stroke-width="1.2"/><text x="38" y="15" text-anchor="middle" fill="#60A5FA">DIGEST</text></g><g transform="translate(-150,-6)"><rect x="0" y="0" width="76" height="24" rx="4" fill="#0E1426" stroke="#3A86FF" stroke-width="1.2" opacity="0.88"/><text x="38" y="15" text-anchor="middle" fill="#60A5FA">ECOSYSTEM</text></g><g transform="translate(-150,28)"><rect x="0" y="0" width="76" height="24" rx="4" fill="#0E1426" stroke="#3A86FF" stroke-width="1.2" opacity="0.76"/><text x="38" y="15" text-anchor="middle" fill="#60A5FA">RELEASE</text></g></g><g stroke="#3A86FF" stroke-width="1" stroke-dasharray="3 2" fill="none" opacity="0.6"><line x1="-74" y1="-28" x2="-8" y2="0"/><line x1="-74" y1="6" x2="-8" y2="2"/><line x1="-74" y1="40" x2="-8" y2="4"/></g><g fill="#60A5FA"><circle r="2"><animateMotion path="M-74 -28 L-8 0" dur="2.2s" repeatCount="indefinite"/></circle><circle r="2"><animateMotion path="M-74 6 L-8 2" dur="2s" begin="0.4s" repeatCount="indefinite"/></circle><circle r="2"><animateMotion path="M-74 40 L-8 4" dur="2.4s" begin="0.8s" repeatCount="indefinite"/></circle></g><circle cx="0" cy="2" r="30" fill="#0A1326" stroke="#3A86FF" stroke-width="2" filter="url(#softShadow)"><animate attributeName="r" values="28;33;28" dur="3.4s" repeatCount="indefinite"/></circle><text x="0" y="-1" text-anchor="middle" font-family="Inter, monospace" font-size="11" font-weight="900" fill="#60A5FA">UPDATE</text><text x="0" y="13" text-anchor="middle" font-family="Inter, monospace" font-size="8" font-weight="700" fill="#FFB703">ADVISORY</text><g transform="translate(56,-44)" filter="url(#softShadow)"><rect x="0" y="0" width="120" height="92" rx="6" fill="#0A0F1E" stroke="#3A86FF" stroke-width="1.2"/><text x="60" y="16" text-anchor="middle" font-family="Inter, monospace" font-size="9" font-weight="800" fill="#60A5FA">ACTIVITY</text><polyline points="12,72 30,60 46,64 62,48 80,52 98,34 108,30" fill="none" stroke="#3A86FF" stroke-width="2" stroke-linecap="round" stroke-linejoin="round"/><circle cx="108" cy="30" r="3" fill="#60A5FA"><animate attributeName="opacity" values="0.5;1;0.5" dur="2s" repeatCount="indefinite"/></circle><g stroke="#3A86FF" stroke-width="0.6" opacity="0.3"><line x1="12" y1="46" x2="108" y2="46"/><line x1="12" y1="62" x2="108" y2="62"/></g><text x="60" y="86" text-anchor="middle" font-family="Inter, monospace" font-size="8" font-weight="600" fill="#3A86FF">trend overview</text></g></g>
<g transform="translate(1094,452)" filter="url(#softShadow)"><rect x="-68" y="-55" width="140" height="110" rx="10" fill="#071426" stroke="#3A86FF" stroke-width="2"/><text x="2" y="-28" text-anchor="middle" font-family="Inter, Helvetica, Arial, sans-serif" font-size="10" font-weight="700" letter-spacing="2" fill="#7DA3D9">STATUS</text><text x="2" y="18" text-anchor="middle" font-family="Inter, Helvetica, Arial, sans-serif" font-size="28" font-weight="900" fill="#F5F7FA">TBD</text><text x="2" y="40" text-anchor="middle" font-family="Inter, Helvetica, Arial, sans-serif" font-size="10" font-weight="600" fill="#BFC9D9">NEW</text></g>
<g opacity="0.85"><g fill="#F87171"><circle cx="1104" cy="110" r="1.4"><animate attributeName="opacity" values="0.2;1;0.2" dur="1.8s" repeatCount="indefinite"/></circle><circle cx="1124" cy="110" r="1.4"><animate attributeName="opacity" values="0.2;1;0.2" dur="1.4s" begin="0.3s" repeatCount="indefinite"/></circle></g><g fill="#7DA3D9"><circle cx="1104" cy="218" r="1.2"><animate attributeName="opacity" values="0.2;1;0.2" dur="2s" repeatCount="indefinite"/></circle><circle cx="1124" cy="218" r="1.2"><animate attributeName="opacity" values="0.2;1;0.2" dur="1.6s" begin="0.4s" repeatCount="indefinite"/></circle></g><g fill="#FFD58A"><circle cx="1104" cy="374" r="1.4"><animate attributeName="opacity" values="0.2;1;0.2" dur="1.8s" repeatCount="indefinite"/></circle><circle cx="1124" cy="374" r="1.4"><animate attributeName="opacity" values="0.2;1;0.2" dur="1.6s" begin="0.3s" repeatCount="indefinite"/></circle></g><g stroke="#E63946" stroke-width="0.5" fill="none"><path d="M20 230 L28 230"><animate attributeName="stroke-opacity" values="0;0.7;0" dur="2s" repeatCount="indefinite"/></path><path d="M20 300 L28 300"><animate attributeName="stroke-opacity" values="0;0.7;0" dur="2.3s" begin="0.3s" repeatCount="indefinite"/></path><path d="M20 370 L28 370"><animate attributeName="stroke-opacity" values="0;0.7;0" dur="1.9s" begin="0.6s" repeatCount="indefinite"/></path><path d="M20 440 L28 440"><animate attributeName="stroke-opacity" values="0;0.7;0" dur="2.1s" begin="0.9s" repeatCount="indefinite"/></path></g></g>
<g transform="translate(1080,504)" filter="url(#softShadow)">
  <rect x="-8" y="-8" width="100" height="100" rx="6" fill="#FFFFFF"/>
  <path fill="#0A1020" d="M0.0 0.0h14.341v2.049h-14.341z M16.39 0.0h2.049v2.049h-2.049z M22.537 0.0h4.098v2.049h-4.098z M28.683 0.0h2.049v2.049h-2.049z M32.78 0.0h2.049v2.049h-2.049z M38.927 0.0h2.049v2.049h-2.049z M43.024 0.0h4.098v2.049h-4.098z M51.22 0.0h12.293v2.049h-12.293z M69.659 0.0h14.341v2.049h-14.341z M0.0 2.049h2.049v2.049h-2.049z M12.293 2.049h2.049v2.049h-2.049z M18.439 2.049h2.049v2.049h-2.049z M22.537 2.049h6.146v2.049h-6.146z M32.78 2.049h2.049v2.049h-2.049z M36.878 2.049h4.098v2.049h-4.098z M43.024 2.049h4.098v2.049h-4.098z M49.171 2.049h6.146v2.049h-6.146z M61.463 2.049h4.098v2.049h-4.098z M69.659 2.049h2.049v2.049h-2.049z M81.951 2.049h2.049v2.049h-2.049z M0.0 4.098h2.049v2.049h-2.049z M4.098 4.098h6.146v2.049h-6.146z M12.293 4.098h2.049v2.049h-2.049z M20.488 4.098h6.146v2.049h-6.146z M30.732 4.098h2.049v2.049h-2.049z M34.829 4.098h8.195v2.049h-8.195z M45.073 4.098h6.146v2.049h-6.146z M53.268 4.098h4.098v2.049h-4.098z M59.415 4.098h4.098v2.049h-4.098z M65.561 4.098h2.049v2.049h-2.049z M69.659 4.098h2.049v2.049h-2.049z M73.756 4.098h6.146v2.049h-6.146z M81.951 4.098h2.049v2.049h-2.049z M0.0 6.146h2.049v2.049h-2.049z M4.098 6.146h6.146v2.049h-6.146z M12.293 6.146h2.049v2.049h-2.049z M16.39 6.146h4.098v2.049h-4.098z M22.537 6.146h2.049v2.049h-2.049z M26.634 6.146h2.049v2.049h-2.049z M30.732 6.146h2.049v2.049h-2.049z M34.829 6.146h2.049v2.049h-2.049z M38.927 6.146h6.146v2.049h-6.146z M47.122 6.146h4.098v2.049h-4.098z M55.317 6.146h2.049v2.049h-2.049z M65.561 6.146h2.049v2.049h-2.049z M69.659 6.146h2.049v2.049h-2.049z M73.756 6.146h6.146v2.049h-6.146z M81.951 6.146h2.049v2.049h-2.049z M0.0 8.195h2.049v2.049h-2.049z M4.098 8.195h6.146v2.049h-6.146z M12.293 8.195h2.049v2.049h-2.049z M16.39 8.195h4.098v2.049h-4.098z M22.537 8.195h4.098v2.049h-4.098z M28.683 8.195h2.049v2.049h-2.049z M34.829 8.195h2.049v2.049h-2.049z M38.927 8.195h2.049v2.049h-2.049z M51.22 8.195h2.049v2.049h-2.049z M55.317 8.195h2.049v2.049h-2.049z M61.463 8.195h2.049v2.049h-2.049z M65.561 8.195h2.049v2.049h-2.049z M69.659 8.195h2.049v2.049h-2.049z M73.756 8.195h6.146v2.049h-6.146z M81.951 8.195h2.049v2.049h-2.049z M0.0 10.244h2.049v2.049h-2.049z M12.293 10.244h2.049v2.049h-2.049z M16.39 10.244h2.049v2.049h-2.049z M22.537 10.244h2.049v2.049h-2.049z M28.683 10.244h8.195v2.049h-8.195z M38.927 10.244h2.049v2.049h-2.049z M43.024 10.244h2.049v2.049h-2.049z M53.268 10.244h2.049v2.049h-2.049z M63.512 10.244h4.098v2.049h-4.098z M69.659 10.244h2.049v2.049h-2.049z M81.951 10.244h2.049v2.049h-2.049z M0.0 12.293h14.341v2.049h-14.341z M16.39 12.293h2.049v2.049h-2.049z M20.488 12.293h2.049v2.049h-2.049z M24.585 12.293h2.049v2.049h-2.049z M28.683 12.293h2.049v2.049h-2.049z M32.78 12.293h2.049v2.049h-2.049z M36.878 12.293h2.049v2.049h-2.049z M40.976 12.293h2.049v2.049h-2.049z M45.073 12.293h2.049v2.049h-2.049z M49.171 12.293h2.049v2.049h-2.049z M53.268 12.293h2.049v2.049h-2.049z M57.366 12.293h2.049v2.049h-2.049z M61.463 12.293h2.049v2.049h-2.049z M65.561 12.293h2.049v2.049h-2.049z M69.659 12.293h14.341v2.049h-14.341z M16.39 14.341h6.146v2.049h-6.146z M34.829 14.341h2.049v2.049h-2.049z M38.927 14.341h8.195v2.049h-8.195z M49.171 14.341h2.049v2.049h-2.049z M55.317 14.341h6.146v2.049h-6.146z M63.512 14.341h2.049v2.049h-2.049z M0.0 16.39h2.049v2.049h-2.049z M8.195 16.39h2.049v2.049h-2.049z M12.293 16.39h6.146v2.049h-6.146z M20.488 16.39h8.195v2.049h-8.195z M30.732 16.39h6.146v2.049h-6.146z M40.976 16.39h8.195v2.049h-8.195z M57.366 16.39h4.098v2.049h-4.098z M63.512 16.39h2.049v2.049h-2.049z M67.61 16.39h10.244v2.049h-10.244z M81.951 16.39h2.049v2.049h-2.049z M0.0 18.439h6.146v2.049h-6.146z M14.341 18.439h8.195v2.049h-8.195z M26.634 18.439h8.195v2.049h-8.195z M36.878 18.439h2.049v2.049h-2.049z M40.976 18.439h2.049v2.049h-2.049z M47.122 18.439h2.049v2.049h-2.049z M51.22 18.439h2.049v2.049h-2.049z M55.317 18.439h2.049v2.049h-2.049z M61.463 18.439h2.049v2.049h-2.049z M67.61 18.439h2.049v2.049h-2.049z M71.707 18.439h6.146v2.049h-6.146z M81.951 18.439h2.049v2.049h-2.049z M4.098 20.488h2.049v2.049h-2.049z M8.195 20.488h6.146v2.049h-6.146z M16.39 20.488h4.098v2.049h-4.098z M22.537 20.488h4.098v2.049h-4.098z M30.732 20.488h2.049v2.049h-2.049z M43.024 20.488h2.049v2.049h-2.049z M47.122 20.488h2.049v2.049h-2.049z M53.268 20.488h8.195v2.049h-8.195z M65.561 20.488h2.049v2.049h-2.049z M69.659 20.488h2.049v2.049h-2.049z M81.951 20.488h2.049v2.049h-2.049z M0.0 22.537h4.098v2.049h-4.098z M10.244 22.537h2.049v2.049h-2.049z M14.341 22.537h2.049v2.049h-2.049z M20.488 22.537h2.049v2.049h-2.049z M24.585 22.537h4.098v2.049h-4.098z M32.78 22.537h18.439v2.049h-18.439z M59.415 22.537h2.049v2.049h-2.049z M63.512 22.537h4.098v2.049h-4.098z M71.707 22.537h6.146v2.049h-6.146z M0.0 24.585h6.146v2.049h-6.146z M8.195 24.585h2.049v2.049h-2.049z M12.293 24.585h6.146v2.049h-6.146z M20.488 24.585h2.049v2.049h-2.049z M26.634 24.585h2.049v2.049h-2.049z M30.732 24.585h6.146v2.049h-6.146z M40.976 24.585h6.146v2.049h-6.146z M53.268 24.585h4.098v2.049h-4.098z M59.415 24.585h4.098v2.049h-4.098z M65.561 24.585h4.098v2.049h-4.098z M71.707 24.585h2.049v2.049h-2.049z M6.146 26.634h6.146v2.049h-6.146z M16.39 26.634h2.049v2.049h-2.049z M22.537 26.634h2.049v2.049h-2.049z M26.634 26.634h2.049v2.049h-2.049z M30.732 26.634h4.098v2.049h-4.098z M36.878 26.634h4.098v2.049h-4.098z M43.024 26.634h2.049v2.049h-2.049z M49.171 26.634h2.049v2.049h-2.049z M53.268 26.634h2.049v2.049h-2.049z M57.366 26.634h4.098v2.049h-4.098z M63.512 26.634h2.049v2.049h-2.049z M67.61 26.634h2.049v2.049h-2.049z M71.707 26.634h4.098v2.049h-4.098z M79.902 26.634h4.098v2.049h-4.098z M8.195 28.683h2.049v2.049h-2.049z M12.293 28.683h4.098v2.049h-4.098z M18.439 28.683h4.098v2.049h-4.098z M30.732 28.683h6.146v2.049h-6.146z M38.927 28.683h2.049v2.049h-2.049z M47.122 28.683h4.098v2.049h-4.098z M57.366 28.683h2.049v2.049h-2.049z M65.561 28.683h6.146v2.049h-6.146z M73.756 28.683h6.146v2.049h-6.146z M81.951 28.683h2.049v2.049h-2.049z M0.0 30.732h4.098v2.049h-4.098z M6.146 30.732h4.098v2.049h-4.098z M14.341 30.732h12.293v2.049h-12.293z M30.732 30.732h6.146v2.049h-6.146z M38.927 30.732h6.146v2.049h-6.146z M47.122 30.732h2.049v2.049h-2.049z M53.268 30.732h2.049v2.049h-2.049z M59.415 30.732h4.098v2.049h-4.098z M71.707 30.732h2.049v2.049h-2.049z M75.805 30.732h2.049v2.049h-2.049z M81.951 30.732h2.049v2.049h-2.049z M0.0 32.78h4.098v2.049h-4.098z M6.146 32.78h4.098v2.049h-4.098z M12.293 32.78h4.098v2.049h-4.098z M18.439 32.78h4.098v2.049h-4.098z M24.585 32.78h2.049v2.049h-2.049z M32.78 32.78h4.098v2.049h-4.098z M45.073 32.78h2.049v2.049h-2.049z M55.317 32.78h2.049v2.049h-2.049z M59.415 32.78h2.049v2.049h-2.049z M63.512 32.78h4.098v2.049h-4.098z M71.707 32.78h2.049v2.049h-2.049z M79.902 32.78h2.049v2.049h-2.049z M0.0 34.829h6.146v2.049h-6.146z M8.195 34.829h2.049v2.049h-2.049z M14.341 34.829h12.293v2.049h-12.293z M28.683 34.829h4.098v2.049h-4.098z M34.829 34.829h6.146v2.049h-6.146z M47.122 34.829h2.049v2.049h-2.049z M53.268 34.829h2.049v2.049h-2.049z M57.366 34.829h6.146v2.049h-6.146z M67.61 34.829h12.293v2.049h-12.293z M81.951 34.829h2.049v2.049h-2.049z M0.0 36.878h2.049v2.049h-2.049z M6.146 36.878h8.195v2.049h-8.195z M16.39 36.878h2.049v2.049h-2.049z M20.488 36.878h10.244v2.049h-10.244z M32.78 36.878h2.049v2.049h-2.049z M36.878 36.878h2.049v2.049h-2.049z M40.976 36.878h16.39v2.049h-16.39z M61.463 36.878h2.049v2.049h-2.049z M65.561 36.878h2.049v2.049h-2.049z M69.659 36.878h4.098v2.049h-4.098z M77.854 36.878h6.146v2.049h-6.146z M10.244 38.927h2.049v2.049h-2.049z M20.488 38.927h2.049v2.049h-2.049z M26.634 38.927h2.049v2.049h-2.049z M32.78 38.927h2.049v2.049h-2.049z M40.976 38.927h4.098v2.049h-4.098z M51.22 38.927h2.049v2.049h-2.049z M59.415 38.927h4.098v2.049h-4.098z M65.561 38.927h8.195v2.049h-8.195z M75.805 38.927h2.049v2.049h-2.049z M81.951 38.927h2.049v2.049h-2.049z M0.0 40.976h4.098v2.049h-4.098z M8.195 40.976h14.341v2.049h-14.341z M28.683 40.976h6.146v2.049h-6.146z M38.927 40.976h2.049v2.049h-2.049z M49.171 40.976h4.098v2.049h-4.098z M55.317 40.976h4.098v2.049h-4.098z M61.463 40.976h4.098v2.049h-4.098z M67.61 40.976h2.049v2.049h-2.049z M71.707 40.976h6.146v2.049h-6.146z M79.902 40.976h4.098v2.049h-4.098z M0.0 43.024h4.098v2.049h-4.098z M8.195 43.024h2.049v2.049h-2.049z M14.341 43.024h4.098v2.049h-4.098z M20.488 43.024h4.098v2.049h-4.098z M26.634 43.024h8.195v2.049h-8.195z M36.878 43.024h4.098v2.049h-4.098z M45.073 43.024h12.293v2.049h-12.293z M61.463 43.024h2.049v2.049h-2.049z M65.561 43.024h12.293v2.049h-12.293z M81.951 43.024h2.049v2.049h-2.049z M6.146 45.073h8.195v2.049h-8.195z M18.439 45.073h2.049v2.049h-2.049z M22.537 45.073h2.049v2.049h-2.049z M28.683 45.073h6.146v2.049h-6.146z M43.024 45.073h8.195v2.049h-8.195z M53.268 45.073h4.098v2.049h-4.098z M59.415 45.073h4.098v2.049h-4.098z M65.561 45.073h2.049v2.049h-2.049z M81.951 45.073h2.049v2.049h-2.049z M0.0 47.122h4.098v2.049h-4.098z M10.244 47.122h2.049v2.049h-2.049z M14.341 47.122h2.049v2.049h-2.049z M22.537 47.122h2.049v2.049h-2.049z M26.634 47.122h4.098v2.049h-4.098z M34.829 47.122h4.098v2.049h-4.098z M43.024 47.122h2.049v2.049h-2.049z M59.415 47.122h8.195v2.049h-8.195z M71.707 47.122h2.049v2.049h-2.049z M75.805 47.122h2.049v2.049h-2.049z M79.902 47.122h2.049v2.049h-2.049z M4.098 49.171h14.341v2.049h-14.341z M20.488 49.171h6.146v2.049h-6.146z M34.829 49.171h2.049v2.049h-2.049z M40.976 49.171h6.146v2.049h-6.146z M49.171 49.171h2.049v2.049h-2.049z M55.317 49.171h2.049v2.049h-2.049z M59.415 49.171h2.049v2.049h-2.049z M65.561 49.171h4.098v2.049h-4.098z M71.707 49.171h2.049v2.049h-2.049z M77.854 49.171h2.049v2.049h-2.049z M81.951 49.171h2.049v2.049h-2.049z M0.0 51.22h4.098v2.049h-4.098z M8.195 51.22h2.049v2.049h-2.049z M16.39 51.22h2.049v2.049h-2.049z M22.537 51.22h4.098v2.049h-4.098z M28.683 51.22h2.049v2.049h-2.049z M32.78 51.22h2.049v2.049h-2.049z M36.878 51.22h2.049v2.049h-2.049z M47.122 51.22h2.049v2.049h-2.049z M55.317 51.22h2.049v2.049h-2.049z M61.463 51.22h2.049v2.049h-2.049z M65.561 51.22h4.098v2.049h-4.098z M71.707 51.22h4.098v2.049h-4.098z M77.854 51.22h2.049v2.049h-2.049z M81.951 51.22h2.049v2.049h-2.049z M2.049 53.268h6.146v2.049h-6.146z M10.244 53.268h6.146v2.049h-6.146z M20.488 53.268h18.439v2.049h-18.439z M40.976 53.268h4.098v2.049h-4.098z M47.122 53.268h12.293v2.049h-12.293z M65.561 53.268h8.195v2.049h-8.195z M81.951 53.268h2.049v2.049h-2.049z M2.049 55.317h2.049v2.049h-2.049z M16.39 55.317h4.098v2.049h-4.098z M28.683 55.317h16.39v2.049h-16.39z M49.171 55.317h2.049v2.049h-2.049z M53.268 55.317h8.195v2.049h-8.195z M63.512 55.317h4.098v2.049h-4.098z M75.805 55.317h2.049v2.049h-2.049z M79.902 55.317h4.098v2.049h-4.098z M6.146 57.366h2.049v2.049h-2.049z M10.244 57.366h4.098v2.049h-4.098z M20.488 57.366h2.049v2.049h-2.049z M30.732 57.366h6.146v2.049h-6.146z M43.024 57.366h8.195v2.049h-8.195z M53.268 57.366h10.244v2.049h-10.244z M65.561 57.366h4.098v2.049h-4.098z M71.707 57.366h2.049v2.049h-2.049z M79.902 57.366h2.049v2.049h-2.049z M0.0 59.415h2.049v2.049h-2.049z M14.341 59.415h2.049v2.049h-2.049z M18.439 59.415h4.098v2.049h-4.098z M26.634 59.415h2.049v2.049h-2.049z M30.732 59.415h4.098v2.049h-4.098z M36.878 59.415h6.146v2.049h-6.146z M51.22 59.415h2.049v2.049h-2.049z M59.415 59.415h2.049v2.049h-2.049z M63.512 59.415h2.049v2.049h-2.049z M67.61 59.415h2.049v2.049h-2.049z M71.707 59.415h12.293v2.049h-12.293z M4.098 61.463h4.098v2.049h-4.098z M12.293 61.463h2.049v2.049h-2.049z M18.439 61.463h2.049v2.049h-2.049z M22.537 61.463h6.146v2.049h-6.146z M30.732 61.463h2.049v2.049h-2.049z M34.829 61.463h2.049v2.049h-2.049z M40.976 61.463h2.049v2.049h-2.049z M45.073 61.463h2.049v2.049h-2.049z M51.22 61.463h6.146v2.049h-6.146z M59.415 61.463h4.098v2.049h-4.098z M65.561 61.463h4.098v2.049h-4.098z M73.756 61.463h2.049v2.049h-2.049z M81.951 61.463h2.049v2.049h-2.049z M4.098 63.512h2.049v2.049h-2.049z M10.244 63.512h2.049v2.049h-2.049z M14.341 63.512h4.098v2.049h-4.098z M20.488 63.512h2.049v2.049h-2.049z M24.585 63.512h2.049v2.049h-2.049z M30.732 63.512h8.195v2.049h-8.195z M43.024 63.512h2.049v2.049h-2.049z M49.171 63.512h2.049v2.049h-2.049z M53.268 63.512h8.195v2.049h-8.195z M63.512 63.512h6.146v2.049h-6.146z M73.756 63.512h4.098v2.049h-4.098z M0.0 65.561h4.098v2.049h-4.098z M6.146 65.561h8.195v2.049h-8.195z M18.439 65.561h6.146v2.049h-6.146z M28.683 65.561h8.195v2.049h-8.195z M38.927 65.561h4.098v2.049h-4.098z M45.073 65.561h4.098v2.049h-4.098z M57.366 65.561h4.098v2.049h-4.098z M65.561 65.561h12.293v2.049h-12.293z M16.39 67.61h2.049v2.049h-2.049z M28.683 67.61h2.049v2.049h-2.049z M38.927 67.61h2.049v2.049h-2.049z M43.024 67.61h6.146v2.049h-6.146z M51.22 67.61h4.098v2.049h-4.098z M57.366 67.61h4.098v2.049h-4.098z M63.512 67.61h4.098v2.049h-4.098z M73.756 67.61h4.098v2.049h-4.098z M81.951 67.61h2.049v2.049h-2.049z M0.0 69.659h14.341v2.049h-14.341z M16.39 69.659h2.049v2.049h-2.049z M20.488 69.659h2.049v2.049h-2.049z M24.585 69.659h6.146v2.049h-6.146z M32.78 69.659h4.098v2.049h-4.098z M47.122 69.659h4.098v2.049h-4.098z M55.317 69.659h2.049v2.049h-2.049z M61.463 69.659h6.146v2.049h-6.146z M69.659 69.659h2.049v2.049h-2.049z M73.756 69.659h4.098v2.049h-4.098z M81.951 69.659h2.049v2.049h-2.049z M0.0 71.707h2.049v2.049h-2.049z M12.293 71.707h2.049v2.049h-2.049z M22.537 71.707h2.049v2.049h-2.049z M28.683 71.707h14.341v2.049h-14.341z M45.073 71.707h6.146v2.049h-6.146z M53.268 71.707h6.146v2.049h-6.146z M63.512 71.707h4.098v2.049h-4.098z M73.756 71.707h4.098v2.049h-4.098z M0.0 73.756h2.049v2.049h-2.049z M4.098 73.756h6.146v2.049h-6.146z M12.293 73.756h2.049v2.049h-2.049z M16.39 73.756h4.098v2.049h-4.098z M22.537 73.756h4.098v2.049h-4.098z M32.78 73.756h2.049v2.049h-2.049z M36.878 73.756h6.146v2.049h-6.146z M45.073 73.756h2.049v2.049h-2.049z M51.22 73.756h6.146v2.049h-6.146z M63.512 73.756h12.293v2.049h-12.293z M79.902 73.756h4.098v2.049h-4.098z M0.0 75.805h2.049v2.049h-2.049z M4.098 75.805h6.146v2.049h-6.146z M12.293 75.805h2.049v2.049h-2.049z M20.488 75.805h2.049v2.049h-2.049z M24.585 75.805h4.098v2.049h-4.098z M32.78 75.805h2.049v2.049h-2.049z M47.122 75.805h6.146v2.049h-6.146z M55.317 75.805h2.049v2.049h-2.049z M61.463 75.805h2.049v2.049h-2.049z M71.707 75.805h2.049v2.049h-2.049z M79.902 75.805h2.049v2.049h-2.049z M0.0 77.854h2.049v2.049h-2.049z M4.098 77.854h6.146v2.049h-6.146z M12.293 77.854h2.049v2.049h-2.049z M18.439 77.854h2.049v2.049h-2.049z M26.634 77.854h6.146v2.049h-6.146z M34.829 77.854h2.049v2.049h-2.049z M40.976 77.854h2.049v2.049h-2.049z M47.122 77.854h2.049v2.049h-2.049z M51.22 77.854h8.195v2.049h-8.195z M63.512 77.854h2.049v2.049h-2.049z M67.61 77.854h2.049v2.049h-2.049z M75.805 77.854h4.098v2.049h-4.098z M81.951 77.854h2.049v2.049h-2.049z M0.0 79.902h2.049v2.049h-2.049z M12.293 79.902h2.049v2.049h-2.049z M18.439 79.902h2.049v2.049h-2.049z M30.732 79.902h6.146v2.049h-6.146z M38.927 79.902h2.049v2.049h-2.049z M43.024 79.902h2.049v2.049h-2.049z M47.122 79.902h2.049v2.049h-2.049z M53.268 79.902h2.049v2.049h-2.049z M59.415 79.902h4.098v2.049h-4.098z M65.561 79.902h8.195v2.049h-8.195z M75.805 79.902h2.049v2.049h-2.049z M79.902 79.902h4.098v2.049h-4.098z M0.0 81.951h14.341v2.049h-14.341z M16.39 81.951h10.244v2.049h-10.244z M28.683 81.951h2.049v2.049h-2.049z M32.78 81.951h14.341v2.049h-14.341z M49.171 81.951h2.049v2.049h-2.049z M59.415 81.951h2.049v2.049h-2.049z M63.512 81.951h18.439v2.049h-18.439z"/>
</g>
<text x="1122" y="614" font-family="Inter, Helvetica, Arial, sans-serif" font-size="10" font-weight="700" fill="#F5F7FA" text-anchor="middle">scan / full post</text>
</svg>
