<svg xmlns="http://www.w3.org/2000/svg" viewBox="0 0 1200 630">
  <defs>
    <linearGradient id="bg" x1="0%" y1="0%" x2="100%" y2="100%">
      <stop offset="0%" style="stop-color:#0a0a1a"/><stop offset="100%" style="stop-color:#0a1a1a"/>
    </linearGradient>
    <filter id="glow"><feGaussianBlur stdDeviation="4" result="b"/><feMerge><feMergeNode in="b"/><feMergeNode in="SourceGraphic"/></feMerge></filter>
    <filter id="sg"><feGaussianBlur stdDeviation="30"/></filter>
    <filter id="shadow"><feDropShadow dx="0" dy="4" stdDeviation="8" flood-color="#000" flood-opacity="0.3"/></filter>
  </defs>
  <rect width="1200" height="630" fill="url(#bg)"/>
  <circle cx="600" cy="250" r="280" fill="#3b82f6" opacity="0.03" filter="url(#sg)"/>
  <g transform="translate(600,225)">
    <!-- Shield with scanning lines -->
    <g filter="url(#shadow)">
      <path d="M0,-100 L110,-70 L110,30 C110,70 60,95 0,110 C-60,95 -110,70 -110,30 L-110,-70 Z" fill="#1e293b" stroke="#3b82f6" stroke-width="3"/>
      <!-- Scan lines -->
      <g opacity="0.15">
        <line x1="-90" y1="-40" x2="90" y2="-40" stroke="#3b82f6" stroke-width="1"/>
        <line x1="-95" y1="-20" x2="95" y2="-20" stroke="#3b82f6" stroke-width="1"/>
        <line x1="-100" y1="0" x2="100" y2="0" stroke="#3b82f6" stroke-width="1"/>
        <line x1="-95" y1="20" x2="95" y2="20" stroke="#3b82f6" stroke-width="1"/>
        <line x1="-85" y1="40" x2="85" y2="40" stroke="#3b82f6" stroke-width="1"/>
        <line x1="-70" y1="60" x2="70" y2="60" stroke="#3b82f6" stroke-width="1"/>
      </g>
      <!-- Central lock -->
      <rect x="-18" y="-10" width="36" height="28" rx="4" fill="#3b82f6" opacity="0.2" stroke="#3b82f6" stroke-width="2"/>
      <path d="M-10,-10 L-10,-22 C-10,-30 -5,-35 0,-35 C5,-35 10,-30 10,-22 L10,-10" fill="none" stroke="#3b82f6" stroke-width="2.5"/>
      <circle cx="0" cy="5" r="4" fill="#93c5fd"/>
    </g>
    <!-- Alert indicators -->
    <g opacity="0.5">
      <circle cx="-60" cy="-50" r="6" fill="#ef4444"/>
      <circle cx="55" cy="-30" r="5" fill="#f59e0b"/>
      <circle cx="-50" cy="30" r="4" fill="#22c55e"/>
    </g>
  </g>
  <text x="600" y="500" font-family="Arial,sans-serif" font-size="36" font-weight="bold" fill="white" text-anchor="middle" filter="url(#glow)">Security Weekly Digest</text>
  <text x="600" y="538" font-family="Arial,sans-serif" font-size="16" fill="#94a3b8" text-anchor="middle">Tech Security Shield | Threat Intelligence</text>
  <rect x="40" y="25" width="160" height="32" rx="16" fill="#3b82f6" opacity="0.2" stroke="#3b82f6" stroke-width="1"/>
  <text x="120" y="47" font-family="Arial,sans-serif" font-size="13" font-weight="bold" fill="#93c5fd" text-anchor="middle">WEEKLY</text>
  <rect x="1000" y="25" width="160" height="32" rx="16" fill="#22c55e" opacity="0.2" stroke="#22c55e" stroke-width="1"/>
  <text x="1080" y="47" font-family="Arial,sans-serif" font-size="13" font-weight="bold" fill="#86efac" text-anchor="middle">Jan 24, 2026</text>
  <text x="1160" y="615" font-family="Arial,sans-serif" font-size="13" fill="#475569" text-anchor="end">tech.2twodragon.com</text>
</svg>