<svg xmlns="http://www.w3.org/2000/svg" viewBox="0 0 1200 630" width="1200" height="630" role="img" aria-label="CNCF Project Velocity 2025, Cluster API v1.12, Chainalysis Hexagate, Bitcoin">
<title>2026-02-10: CNCF Velocity, Cluster API v1.12, Chainalysis MegaETH, BTC $70K</title>
<defs>
<linearGradient id="bgSpreadFB10B" x1="0%" y1="0%" x2="100%" y2="100%"><stop offset="0%" stop-color="#0A1226"/><stop offset="50%" stop-color="#0C1430"/><stop offset="100%" stop-color="#131038"/></linearGradient>
<linearGradient id="bandAFB10B" x1="0%" y1="0%" x2="100%" y2="0%"><stop offset="0%" stop-color="#0E2038"/><stop offset="100%" stop-color="#12283F"/></linearGradient>
<linearGradient id="bandBFB10B" x1="0%" y1="0%" x2="100%" y2="0%"><stop offset="0%" stop-color="#0A1B35"/><stop offset="100%" stop-color="#0D2040"/></linearGradient>
<linearGradient id="bandCFB10B" x1="0%" y1="0%" x2="100%" y2="0%"><stop offset="0%" stop-color="#2A1A0C"/><stop offset="100%" stop-color="#1E1F0A"/></linearGradient>
<linearGradient id="streakAFB10B" x1="0%" y1="0%" x2="100%" y2="0%"><stop offset="0%" stop-color="#4ADE80" stop-opacity="0"/><stop offset="50%" stop-color="#4ADE80" stop-opacity="0.85"/><stop offset="100%" stop-color="#4ADE80" stop-opacity="0"/></linearGradient>
<linearGradient id="streakBFB10B" x1="0%" y1="0%" x2="100%" y2="0%"><stop offset="0%" stop-color="#60A5FA" stop-opacity="0"/><stop offset="50%" stop-color="#60A5FA" stop-opacity="0.85"/><stop offset="100%" stop-color="#60A5FA" stop-opacity="0"/></linearGradient>
<linearGradient id="streakCFB10B" x1="0%" y1="0%" x2="100%" y2="0%"><stop offset="0%" stop-color="#FFB703" stop-opacity="0"/><stop offset="50%" stop-color="#FFB703" stop-opacity="0.85"/><stop offset="100%" stop-color="#FFB703" stop-opacity="0"/></linearGradient>
<radialGradient id="glowAFB10B" cx="50%" cy="50%" r="50%"><stop offset="0%" stop-color="#4ADE80" stop-opacity="0.55"/><stop offset="100%" stop-color="#4ADE80" stop-opacity="0"/></radialGradient>
<radialGradient id="glowBFB10B" cx="50%" cy="50%" r="50%"><stop offset="0%" stop-color="#60A5FA" stop-opacity="0.55"/><stop offset="100%" stop-color="#60A5FA" stop-opacity="0"/></radialGradient>
<radialGradient id="glowCFB10B" cx="50%" cy="50%" r="50%"><stop offset="0%" stop-color="#FFB703" stop-opacity="0.55"/><stop offset="100%" stop-color="#FFB703" stop-opacity="0"/></radialGradient>
<filter id="softShadow" x="-10%" y="-10%" width="130%" height="130%"><feGaussianBlur in="SourceAlpha" stdDeviation="2.5"/><feOffset dx="1" dy="3"/><feComponentTransfer><feFuncA type="linear" slope="0.55"/></feComponentTransfer><feMerge><feMergeNode/><feMergeNode in="SourceGraphic"/></feMerge></filter>
<filter id="textShadow" x="-5%" y="-5%" width="110%" height="110%"><feGaussianBlur in="SourceAlpha" stdDeviation="1.2"/><feOffset dx="0" dy="1.5"/><feComponentTransfer><feFuncA type="linear" slope="0.85"/></feComponentTransfer><feMerge><feMergeNode/><feMergeNode in="SourceGraphic"/></feMerge></filter>
<pattern id="ledgerGrid" x="0" y="0" width="40" height="20" patternUnits="userSpaceOnUse"><path d="M0 20 L40 20" stroke="#2A3A56" stroke-width="0.4" opacity="0.5"/><path d="M40 0 L40 20" stroke="#2A3A56" stroke-width="0.4" opacity="0.5"/></pattern>
<pattern id="circuitDot" x="0" y="0" width="18" height="18" patternUnits="userSpaceOnUse"><circle cx="9" cy="9" r="0.8" fill="#3A2A4E" opacity="0.55"/></pattern>
<pattern id="hexGridFB10B" x="0" y="0" width="28" height="32" patternUnits="userSpaceOnUse"><path d="M14 0 L28 8 L28 24 L14 32 L0 24 L0 8 Z" fill="none" stroke="#2A3A56" stroke-width="0.3" opacity="0.4"/></pattern>
<pattern id="radarRippleFB10B" x="0" y="0" width="60" height="60" patternUnits="userSpaceOnUse"><circle cx="30" cy="30" r="14" fill="none" stroke="#2A3A56" stroke-width="0.3" opacity="0.4"/></pattern>
</defs>
<rect width="1200" height="630" fill="url(#bgSpreadFB10B)"/>
<g>
  <rect x="0" y="0" width="1200" height="210" fill="url(#bandAFB10B)"/>
  <rect x="0" y="0" width="1200" height="210" fill="url(#ledgerGrid)" opacity="0.6"/>
  <rect x="0" y="0" width="8" height="210" fill="#4ADE80"/>
  <g filter="url(#textShadow)">
    <text x="30" y="44" font-family="Inter, Helvetica, Arial, sans-serif" font-size="18" font-weight="700" letter-spacing="2.4" fill="#4ADE80">CNCF VELOCITY</text>
    <text x="30" y="86" font-family="Inter, Helvetica, Arial, sans-serif" font-size="36" font-weight="800" fill="#F5F7FA">Project Velocity 2025</text>
    <text x="30" y="118" font-family="Inter, Helvetica, Arial, sans-serif" font-size="20" font-weight="600" fill="#9FD3B0">Cloud Native future</text>
    <text x="30" y="146" font-family="Inter, Helvetica, Arial, sans-serif" font-size="15" font-weight="500" fill="#BFC9D9">Top mover projects : graduation pipeline : 2026 strategic roadmap</text>
  </g>
  <g transform="translate(640,105)">
    <circle r="80" fill="#4ADE80" fill-opacity="0.06"><animate attributeName="r" values="64;86;64" dur="3.4s" repeatCount="indefinite"/></circle>
    <path d="M-60 0 Q-70 -25 -45 -30 Q-40 -50 -10 -45 Q10 -60 30 -45 Q55 -50 60 -20 Q80 -15 70 10 Q65 25 40 25 L-40 25 Q-70 25 -60 0 Z" fill="#4ADE80" fill-opacity="0.12" stroke="#4ADE80" stroke-width="1.8"/>
    <g fill="#4ADE80" stroke="#86EFAC" stroke-width="1.2">
      <polygon points="-30,-10 -18,-17 -6,-10 -6,4 -18,11 -30,4"/>
      <polygon points="0,-10 12,-17 24,-10 24,4 12,11 0,4"/>
      <polygon points="-15,10 -3,3 9,10 9,24 -3,31 -15,24"/>
    </g>
    <g fill="#86EFAC">
      <circle cx="-18" cy="-3" r="2.4"><animate attributeName="opacity" values="0.4;1;0.4" dur="1.8s" repeatCount="indefinite"/></circle>
      <circle cx="12" cy="-3" r="2.4"><animate attributeName="opacity" values="0.4;1;0.4" dur="2.0s" repeatCount="indefinite"/></circle>
      <circle cx="-3" cy="17" r="2.4"><animate attributeName="opacity" values="0.4;1;0.4" dur="2.2s" repeatCount="indefinite"/></circle>
    </g>
    <g fill="#FFF">
      <circle r="1.6"><animateMotion path="M-18 -3 L12 -3" dur="2.4s" repeatCount="indefinite"/></circle>
      <circle r="1.6"><animateMotion path="M12 -3 L-3 17" dur="2.2s" repeatCount="indefinite"/></circle>
      <circle r="1.6"><animateMotion path="M-3 17 L-18 -3" dur="2.6s" repeatCount="indefinite"/></circle>
    </g>
    <g fill="#86EFAC" opacity="0.6">
      <circle cx="-50" cy="-38" r="1.8"><animate attributeName="opacity" values="0.3;1;0.3" dur="1.6s" repeatCount="indefinite"/></circle>
      <circle cx="50" cy="-38" r="1.8"><animate attributeName="opacity" values="0.3;1;0.3" dur="2.0s" repeatCount="indefinite"/></circle>
    </g>
    <text y="60" text-anchor="middle" font-family="Inter, monospace" font-size="10" font-weight="800" fill="#4ADE80">K8s CLOUD</text>
  </g>
  <g transform="translate(870,105)" filter="url(#softShadow)">
    <rect x="-50" y="-48" width="100" height="96" rx="10" fill="#0A1B2E" stroke="#4ADE80" stroke-width="1.6" stroke-opacity="0.75"/>
    <text x="0" y="-26" text-anchor="middle" font-family="Inter, Helvetica, Arial, sans-serif" font-size="10" font-weight="700" letter-spacing="1.4" fill="#4ADE80">PROJECTS</text>
    <text x="0" y="14" text-anchor="middle" font-family="Inter, Helvetica, Arial, sans-serif" font-size="34" font-weight="900" fill="#F5F7FA">38</text>
    <text x="0" y="34" text-anchor="middle" font-family="Inter, Helvetica, Arial, sans-serif" font-size="10" font-weight="600" fill="#9FD3B0">graduated</text>
  </g>
  <g transform="translate(990,105)" filter="url(#softShadow)">
    <rect x="-80" y="-65" width="180" height="125" rx="14" fill="#0A1B2E" stroke="#4ADE80" stroke-width="2.2"/>
    <text x="10" y="-38" text-anchor="middle" font-family="Inter, Helvetica, Arial, sans-serif" font-size="13" font-weight="700" letter-spacing="2" fill="#4ADE80">VELOCITY</text>
    <text x="10" y="22" text-anchor="middle" font-family="Inter, Helvetica, Arial, sans-serif" font-size="60" font-weight="900" fill="#F5F7FA">2025</text>
    <text x="10" y="44" text-anchor="middle" font-family="Inter, Helvetica, Arial, sans-serif" font-size="11" font-weight="600" fill="#9FD3B0">CNCF</text>
    <line x1="-58" y1="50" x2="78" y2="50" stroke="#4ADE80" stroke-width="0.8" stroke-opacity="0.5"/>
    
  </g>
  <g transform="translate(990,105)">
    <circle cx="10" cy="-50" r="3" fill="#4ADE80"><animate attributeName="opacity" values="0.2;1;0.2" dur="1.8s" repeatCount="indefinite"/></circle>
    <circle cx="-58" cy="-50" r="2" fill="#86EFAC"><animate attributeName="opacity" values="0.8;0.2;0.8" dur="2.2s" repeatCount="indefinite"/></circle>
    <circle cx="78" cy="-50" r="2" fill="#86EFAC"><animate attributeName="opacity" values="0.2;0.9;0.2" dur="2.4s" repeatCount="indefinite"/></circle>
  </g>
</g>
<g>
  <rect x="0" y="210" width="1200" height="210" fill="url(#bandBFB10B)"/>
  <rect x="0" y="210" width="1200" height="210" fill="url(#ledgerGrid)" opacity="0.6"/>
  <rect x="0" y="210" width="8" height="210" fill="#60A5FA"/>
  <g filter="url(#textShadow)">
    <text x="30" y="254" font-family="Inter, Helvetica, Arial, sans-serif" font-size="18" font-weight="700" letter-spacing="2.4" fill="#93C5FD">CLUSTER API</text>
    <text x="30" y="296" font-family="Inter, Helvetica, Arial, sans-serif" font-size="36" font-weight="800" fill="#F5F7FA">v1.12 In-Place Update</text>
    <text x="30" y="328" font-family="Inter, Helvetica, Arial, sans-serif" font-size="20" font-weight="600" fill="#BFDBFE">In-place node upgrade</text>
    <text x="30" y="356" font-family="Inter, Helvetica, Arial, sans-serif" font-size="15" font-weight="500" fill="#D0DCF0">In-place update for nodes : zero-drain rollout : kubeadm-aligned upgrade</text>
  </g>
  <g transform="translate(640,315)">
    <circle r="76" fill="#60A5FA" fill-opacity="0.06"><animate attributeName="r" values="60;82;60" dur="3.6s" repeatCount="indefinite"/></circle>
    <g stroke="#60A5FA" stroke-width="0.8" fill="none" opacity="0.45">
      <line x1="-70" y1="-40" x2="0" y2="0"/><line x1="70" y1="-40" x2="0" y2="0"/>
      <line x1="-70" y1="40" x2="0" y2="0"/><line x1="70" y1="40" x2="0" y2="0"/>
      <line x1="-70" y1="-40" x2="-70" y2="40"/><line x1="70" y1="-40" x2="70" y2="40"/>
      <line x1="-70" y1="-40" x2="70" y2="-40"/><line x1="-70" y1="40" x2="70" y2="40"/>
    </g>
    <g fill="#60A5FA" opacity="0.85" stroke="#93C5FD" stroke-width="0.8">
      <rect x="-82" y="-48" width="24" height="16" rx="2"/><rect x="58" y="-48" width="24" height="16" rx="2"/>
      <rect x="-82" y="32" width="24" height="16" rx="2"/><rect x="58" y="32" width="24" height="16" rx="2"/>
    </g>
    <g fill="#93C5FD">
      <circle cx="-70" cy="-40" r="2.4"><animate attributeName="opacity" values="0.3;1;0.3" dur="1.8s" repeatCount="indefinite"/></circle>
      <circle cx="70" cy="-40" r="2.4"><animate attributeName="opacity" values="0.3;1;0.3" dur="2.1s" repeatCount="indefinite"/></circle>
      <circle cx="-70" cy="40" r="2.4"><animate attributeName="opacity" values="0.3;1;0.3" dur="2.3s" repeatCount="indefinite"/></circle>
      <circle cx="70" cy="40" r="2.4"><animate attributeName="opacity" values="0.3;1;0.3" dur="1.9s" repeatCount="indefinite"/></circle>
    </g>
    <g fill="#FFF">
      <circle r="1.6"><animateMotion path="M-70 -40 L0 0" dur="2.2s" repeatCount="indefinite"/></circle>
      <circle r="1.6"><animateMotion path="M70 -40 L0 0" dur="2.4s" repeatCount="indefinite"/></circle>
      <circle r="1.6"><animateMotion path="M-70 40 L0 0" dur="2.1s" repeatCount="indefinite"/></circle>
      <circle r="1.6"><animateMotion path="M70 40 L0 0" dur="2.3s" repeatCount="indefinite"/></circle>
    </g>
    <circle r="18" fill="#60A5FA" stroke="#93C5FD" stroke-width="2" filter="url(#softShadow)"/>
    <text y="4" text-anchor="middle" font-family="Inter, monospace" font-size="9" font-weight="800" fill="#FFF">HUB</text>
    <text y="74" text-anchor="middle" font-family="Inter, monospace" font-size="10" font-weight="800" fill="#60A5FA">SOHO MESH</text>
  </g>
  <g transform="translate(870,315)" filter="url(#softShadow)">
    <rect x="-50" y="-48" width="100" height="96" rx="10" fill="#0A1628" stroke="#60A5FA" stroke-width="1.6" stroke-opacity="0.75"/>
    <text x="0" y="-26" text-anchor="middle" font-family="Inter, Helvetica, Arial, sans-serif" font-size="10" font-weight="700" letter-spacing="1.4" fill="#93C5FD">DRAIN</text>
    <text x="0" y="14" text-anchor="middle" font-family="Inter, Helvetica, Arial, sans-serif" font-size="34" font-weight="900" fill="#F5F7FA">0d</text>
    <text x="0" y="34" text-anchor="middle" font-family="Inter, Helvetica, Arial, sans-serif" font-size="10" font-weight="600" fill="#BFDBFE">zero-drain</text>
  </g>
  <g transform="translate(990,315)" filter="url(#softShadow)">
    <rect x="-80" y="-65" width="180" height="125" rx="14" fill="#0A1628" stroke="#60A5FA" stroke-width="2.2"/>
    <text x="10" y="-38" text-anchor="middle" font-family="Inter, Helvetica, Arial, sans-serif" font-size="13" font-weight="700" letter-spacing="2" fill="#93C5FD">CAPI</text>
    <text x="10" y="22" text-anchor="middle" font-family="Inter, Helvetica, Arial, sans-serif" font-size="60" font-weight="900" fill="#F5F7FA">v1.12</text>
    <text x="10" y="44" text-anchor="middle" font-family="Inter, Helvetica, Arial, sans-serif" font-size="11" font-weight="600" fill="#BFDBFE">in-place</text>
    <line x1="-58" y1="50" x2="78" y2="50" stroke="#60A5FA" stroke-width="0.8" stroke-opacity="0.5"/>
    
  </g>
  <g transform="translate(990,315)">
    <circle cx="10" cy="-50" r="3" fill="#60A5FA"><animate attributeName="opacity" values="0.2;1;0.2" dur="1.8s" repeatCount="indefinite"/></circle>
    <circle cx="-58" cy="-50" r="2" fill="#93C5FD"><animate attributeName="opacity" values="0.8;0.2;0.8" dur="2.2s" repeatCount="indefinite"/></circle>
    <circle cx="78" cy="-50" r="2" fill="#93C5FD"><animate attributeName="opacity" values="0.2;0.9;0.2" dur="2.4s" repeatCount="indefinite"/></circle>
  </g>
</g>
<g>
  <rect x="0" y="420" width="1200" height="210" fill="url(#bandCFB10B)"/>
  <rect x="0" y="420" width="1200" height="210" fill="url(#ledgerGrid)" opacity="0.6"/>
  <rect x="0" y="420" width="8" height="210" fill="#FFB703"/>
  <g filter="url(#textShadow)">
    <text x="30" y="464" font-family="Inter, Helvetica, Arial, sans-serif" font-size="18" font-weight="700" letter-spacing="2.4" fill="#FFB703">CHAINALYSIS + BTC</text>
    <text x="30" y="506" font-family="Inter, Helvetica, Arial, sans-serif" font-size="36" font-weight="800" fill="#F5F7FA">Hexagate + BTC $70K</text>
    <text x="30" y="538" font-family="Inter, Helvetica, Arial, sans-serif" font-size="20" font-weight="600" fill="#FFD58A">MegaETH security + BTC</text>
    <text x="30" y="566" font-family="Inter, Helvetica, Arial, sans-serif" font-size="15" font-weight="500" fill="#E0D5B6">Chainalysis Hexagate on MegaETH : on-chain anomaly : Bitcoin $70K recovery</text>
  </g>
  <g transform="translate(640,525)">
    <g stroke="#FFB703" stroke-width="0.4" opacity="0.3">
      <line x1="-90" y1="-40" x2="90" y2="-40"/><line x1="-90" y1="-15" x2="90" y2="-15"/>
      <line x1="-90" y1="10" x2="90" y2="10"/><line x1="-90" y1="35" x2="90" y2="35"/>
      <line x1="-60" y1="-45" x2="-60" y2="40" stroke-dasharray="2 3"/>
      <line x1="0" y1="-45" x2="0" y2="40" stroke-dasharray="2 3"/>
      <line x1="60" y1="-45" x2="60" y2="40" stroke-dasharray="2 3"/>
    </g>
    <path d="M-90 -30 L-60 -20 L-30 -25 L0 -5 L30 5 L60 20 L90 35" stroke="#FFB703" stroke-width="2.5" fill="none">
      <animate attributeName="stroke-dasharray" values="0 400;400 0" dur="3.2s" repeatCount="indefinite"/>
    </path>
    <path d="M-90 -30 L-60 -20 L-30 -25 L0 -5 L30 5 L60 20 L90 35 L90 40 L-90 40 Z" fill="#FFB703" fill-opacity="0.12"/>
    <g fill="#FCD34D">
      <circle cx="-90" cy="-30" r="3"/><circle cx="-60" cy="-20" r="3"/><circle cx="-30" cy="-25" r="3"/>
      <circle cx="0" cy="-5" r="3"/><circle cx="30" cy="5" r="3"/><circle cx="60" cy="20" r="3"/>
      <circle cx="90" cy="35" r="4"><animate attributeName="r" values="3;6;3" dur="1.8s" repeatCount="indefinite"/></circle>
    </g>
    <g fill="#FFB703" opacity="0.7">
      <rect x="-92" y="-50" width="14" height="3" rx="1"><animate attributeName="opacity" values="0.3;1;0.3" dur="1.4s" repeatCount="indefinite"/></rect>
      <rect x="-72" y="-50" width="14" height="3" rx="1"><animate attributeName="opacity" values="0.3;1;0.3" dur="1.6s" begin="0.3s" repeatCount="indefinite"/></rect>
      <rect x="-52" y="-50" width="14" height="3" rx="1"><animate attributeName="opacity" values="0.3;1;0.3" dur="1.5s" begin="0.6s" repeatCount="indefinite"/></rect>
    </g>
    <text x="90" y="50" text-anchor="middle" font-family="Inter, monospace" font-size="10" font-weight="800" fill="#FFB703">DOWNTREND</text>
  </g>
  <g transform="translate(870,525)" filter="url(#softShadow)">
    <rect x="-50" y="-48" width="100" height="96" rx="10" fill="#1E1805" stroke="#FFB703" stroke-width="1.6" stroke-opacity="0.75"/>
    <text x="0" y="-26" text-anchor="middle" font-family="Inter, Helvetica, Arial, sans-serif" font-size="10" font-weight="700" letter-spacing="1.4" fill="#FFB703">MEGAETH</text>
    <text x="0" y="14" text-anchor="middle" font-family="Inter, Helvetica, Arial, sans-serif" font-size="34" font-weight="900" fill="#F5F7FA">ETH</text>
    <text x="0" y="34" text-anchor="middle" font-family="Inter, Helvetica, Arial, sans-serif" font-size="10" font-weight="600" fill="#FFD58A">L2 scan</text>
  </g>
  <g transform="translate(990,525)" filter="url(#softShadow)">
    <rect x="-80" y="-65" width="180" height="125" rx="14" fill="#1E1805" stroke="#FFB703" stroke-width="2.2"/>
    <text x="10" y="-38" text-anchor="middle" font-family="Inter, Helvetica, Arial, sans-serif" font-size="13" font-weight="700" letter-spacing="2" fill="#FFB703">BTC</text>
    <text x="10" y="22" text-anchor="middle" font-family="Inter, Helvetica, Arial, sans-serif" font-size="60" font-weight="900" fill="#F5F7FA">$70K</text>
    <text x="10" y="44" text-anchor="middle" font-family="Inter, Helvetica, Arial, sans-serif" font-size="11" font-weight="600" fill="#FFD58A">recovery</text>
    <line x1="-58" y1="50" x2="78" y2="50" stroke="#FFB703" stroke-width="0.8" stroke-opacity="0.5"/>
    
  </g>
  <g transform="translate(990,525)">
    <circle cx="10" cy="-50" r="3" fill="#FFB703"><animate attributeName="opacity" values="0.2;1;0.2" dur="1.8s" repeatCount="indefinite"/></circle>
    <circle cx="-58" cy="-50" r="2" fill="#FCD34D"><animate attributeName="opacity" values="0.8;0.2;0.8" dur="2.2s" repeatCount="indefinite"/></circle>
    <circle cx="78" cy="-50" r="2" fill="#FCD34D"><animate attributeName="opacity" values="0.2;0.9;0.2" dur="2.4s" repeatCount="indefinite"/></circle>
  </g>
</g>
<g opacity="0.9">
  <g fill="#4ADE80">
    <circle cx="240" cy="63" r="1.5"><animate attributeName="opacity" values="0;1;0" dur="1.8s" repeatCount="indefinite"/></circle>
    <circle cx="290" cy="63" r="1.5"><animate attributeName="opacity" values="0;1;0" dur="1.6s" begin="0.2s" repeatCount="indefinite"/></circle>
    <circle cx="340" cy="63" r="1.5"><animate attributeName="opacity" values="0;1;0" dur="2.0s" begin="0.4s" repeatCount="indefinite"/></circle>
    <circle cx="390" cy="63" r="1.5"><animate attributeName="opacity" values="0;1;0" dur="1.7s" begin="0.6s" repeatCount="indefinite"/></circle>
    <circle cx="440" cy="63" r="1.5"><animate attributeName="opacity" values="0;1;0" dur="1.9s" begin="0.8s" repeatCount="indefinite"/></circle>
    <circle cx="780" cy="55" r="1.4"><animate attributeName="opacity" values="0;1;0" dur="1.6s" repeatCount="indefinite"/></circle>
    <circle cx="820" cy="55" r="1.4"><animate attributeName="opacity" values="0;1;0" dur="2.0s" begin="0.3s" repeatCount="indefinite"/></circle>
    <circle cx="860" cy="55" r="1.4"><animate attributeName="opacity" values="0;1;0" dur="1.8s" begin="0.6s" repeatCount="indefinite"/></circle>
    <circle cx="240" cy="147" r="1.3"><animate attributeName="opacity" values="0;1;0" dur="1.7s" begin="0.4s" repeatCount="indefinite"/></circle>
    <circle cx="320" cy="147" r="1.3"><animate attributeName="opacity" values="0;1;0" dur="1.9s" begin="0.7s" repeatCount="indefinite"/></circle>
  </g>
  <g fill="#4ADE80" opacity="0.6">
    <rect x="780" y="27" width="6" height="2"><animate attributeName="opacity" values="0.2;1;0.2" dur="1.4s" repeatCount="indefinite"/></rect>
    <rect x="800" y="27" width="6" height="2"><animate attributeName="opacity" values="0.2;1;0.2" dur="1.2s" begin="0.3s" repeatCount="indefinite"/></rect>
    <rect x="820" y="27" width="6" height="2"><animate attributeName="opacity" values="0.2;1;0.2" dur="1.6s" begin="0.6s" repeatCount="indefinite"/></rect>
    <rect x="840" y="27" width="6" height="2"><animate attributeName="opacity" values="0.2;1;0.2" dur="1.3s" begin="0.9s" repeatCount="indefinite"/></rect>
  </g>
  <g fill="#86EFAC" opacity="0.85">
    <rect x="730" y="165" width="3" height="3" rx="0.6"><animate attributeName="opacity" values="0.3;1;0.3" dur="1.4s" repeatCount="indefinite"/></rect>
    <rect x="746" y="165" width="3" height="3" rx="0.6"><animate attributeName="opacity" values="0.3;1;0.3" dur="1.2s" begin="0.3s" repeatCount="indefinite"/></rect>
    <rect x="762" y="165" width="3" height="3" rx="0.6"><animate attributeName="opacity" values="0.3;1;0.3" dur="1.6s" begin="0.6s" repeatCount="indefinite"/></rect>
  </g>
  <g stroke="#4ADE80" stroke-width="0.5" stroke-opacity="0.35" fill="none">
    <path d="M20 95 L28 95"><animate attributeName="stroke-opacity" values="0;0.7;0" dur="2s" repeatCount="indefinite"/></path>
    <path d="M20 125 L28 125"><animate attributeName="stroke-opacity" values="0;0.7;0" dur="2.2s" begin="0.3s" repeatCount="indefinite"/></path>
    <path d="M20 155 L28 155"><animate attributeName="stroke-opacity" values="0;0.7;0" dur="1.8s" begin="0.6s" repeatCount="indefinite"/></path>
  </g>
  <g stroke="#86EFAC" stroke-width="0.6" stroke-opacity="0.3" fill="none">
    <circle cx="500" cy="105" r="100"><animate attributeName="r" values="80;120;80" dur="4s" repeatCount="indefinite"/><animate attributeName="stroke-opacity" values="0.4;0;0.4" dur="4s" repeatCount="indefinite"/></circle>
  </g>
  <g fill="#60A5FA">
    <circle cx="240" cy="273" r="1.5"><animate attributeName="opacity" values="0;1;0" dur="1.8s" repeatCount="indefinite"/></circle>
    <circle cx="290" cy="273" r="1.5"><animate attributeName="opacity" values="0;1;0" dur="1.6s" begin="0.2s" repeatCount="indefinite"/></circle>
    <circle cx="340" cy="273" r="1.5"><animate attributeName="opacity" values="0;1;0" dur="2.0s" begin="0.4s" repeatCount="indefinite"/></circle>
    <circle cx="390" cy="273" r="1.5"><animate attributeName="opacity" values="0;1;0" dur="1.7s" begin="0.6s" repeatCount="indefinite"/></circle>
    <circle cx="440" cy="273" r="1.5"><animate attributeName="opacity" values="0;1;0" dur="1.9s" begin="0.8s" repeatCount="indefinite"/></circle>
    <circle cx="780" cy="265" r="1.4"><animate attributeName="opacity" values="0;1;0" dur="1.6s" repeatCount="indefinite"/></circle>
    <circle cx="820" cy="265" r="1.4"><animate attributeName="opacity" values="0;1;0" dur="2.0s" begin="0.3s" repeatCount="indefinite"/></circle>
    <circle cx="860" cy="265" r="1.4"><animate attributeName="opacity" values="0;1;0" dur="1.8s" begin="0.6s" repeatCount="indefinite"/></circle>
    <circle cx="240" cy="357" r="1.3"><animate attributeName="opacity" values="0;1;0" dur="1.7s" begin="0.4s" repeatCount="indefinite"/></circle>
    <circle cx="320" cy="357" r="1.3"><animate attributeName="opacity" values="0;1;0" dur="1.9s" begin="0.7s" repeatCount="indefinite"/></circle>
  </g>
  <g fill="#60A5FA" opacity="0.6">
    <rect x="780" y="237" width="6" height="2"><animate attributeName="opacity" values="0.2;1;0.2" dur="1.4s" repeatCount="indefinite"/></rect>
    <rect x="800" y="237" width="6" height="2"><animate attributeName="opacity" values="0.2;1;0.2" dur="1.2s" begin="0.3s" repeatCount="indefinite"/></rect>
    <rect x="820" y="237" width="6" height="2"><animate attributeName="opacity" values="0.2;1;0.2" dur="1.6s" begin="0.6s" repeatCount="indefinite"/></rect>
    <rect x="840" y="237" width="6" height="2"><animate attributeName="opacity" values="0.2;1;0.2" dur="1.3s" begin="0.9s" repeatCount="indefinite"/></rect>
  </g>
  <g fill="#93C5FD" opacity="0.85">
    <rect x="730" y="375" width="3" height="3" rx="0.6"><animate attributeName="opacity" values="0.3;1;0.3" dur="1.4s" repeatCount="indefinite"/></rect>
    <rect x="746" y="375" width="3" height="3" rx="0.6"><animate attributeName="opacity" values="0.3;1;0.3" dur="1.2s" begin="0.3s" repeatCount="indefinite"/></rect>
    <rect x="762" y="375" width="3" height="3" rx="0.6"><animate attributeName="opacity" values="0.3;1;0.3" dur="1.6s" begin="0.6s" repeatCount="indefinite"/></rect>
  </g>
  <g stroke="#60A5FA" stroke-width="0.5" stroke-opacity="0.35" fill="none">
    <path d="M20 305 L28 305"><animate attributeName="stroke-opacity" values="0;0.7;0" dur="2s" repeatCount="indefinite"/></path>
    <path d="M20 335 L28 335"><animate attributeName="stroke-opacity" values="0;0.7;0" dur="2.2s" begin="0.3s" repeatCount="indefinite"/></path>
    <path d="M20 365 L28 365"><animate attributeName="stroke-opacity" values="0;0.7;0" dur="1.8s" begin="0.6s" repeatCount="indefinite"/></path>
  </g>
  <g stroke="#93C5FD" stroke-width="0.6" stroke-opacity="0.3" fill="none">
    <circle cx="500" cy="315" r="100"><animate attributeName="r" values="80;120;80" dur="4s" repeatCount="indefinite"/><animate attributeName="stroke-opacity" values="0.4;0;0.4" dur="4s" repeatCount="indefinite"/></circle>
  </g>
  <g fill="#FFB703">
    <circle cx="240" cy="483" r="1.5"><animate attributeName="opacity" values="0;1;0" dur="1.8s" repeatCount="indefinite"/></circle>
    <circle cx="290" cy="483" r="1.5"><animate attributeName="opacity" values="0;1;0" dur="1.6s" begin="0.2s" repeatCount="indefinite"/></circle>
    <circle cx="340" cy="483" r="1.5"><animate attributeName="opacity" values="0;1;0" dur="2.0s" begin="0.4s" repeatCount="indefinite"/></circle>
    <circle cx="390" cy="483" r="1.5"><animate attributeName="opacity" values="0;1;0" dur="1.7s" begin="0.6s" repeatCount="indefinite"/></circle>
    <circle cx="440" cy="483" r="1.5"><animate attributeName="opacity" values="0;1;0" dur="1.9s" begin="0.8s" repeatCount="indefinite"/></circle>
    <circle cx="780" cy="475" r="1.4"><animate attributeName="opacity" values="0;1;0" dur="1.6s" repeatCount="indefinite"/></circle>
    <circle cx="820" cy="475" r="1.4"><animate attributeName="opacity" values="0;1;0" dur="2.0s" begin="0.3s" repeatCount="indefinite"/></circle>
    <circle cx="860" cy="475" r="1.4"><animate attributeName="opacity" values="0;1;0" dur="1.8s" begin="0.6s" repeatCount="indefinite"/></circle>
    <circle cx="240" cy="567" r="1.3"><animate attributeName="opacity" values="0;1;0" dur="1.7s" begin="0.4s" repeatCount="indefinite"/></circle>
    <circle cx="320" cy="567" r="1.3"><animate attributeName="opacity" values="0;1;0" dur="1.9s" begin="0.7s" repeatCount="indefinite"/></circle>
  </g>
  <g fill="#FFB703" opacity="0.6">
    <rect x="780" y="447" width="6" height="2"><animate attributeName="opacity" values="0.2;1;0.2" dur="1.4s" repeatCount="indefinite"/></rect>
    <rect x="800" y="447" width="6" height="2"><animate attributeName="opacity" values="0.2;1;0.2" dur="1.2s" begin="0.3s" repeatCount="indefinite"/></rect>
    <rect x="820" y="447" width="6" height="2"><animate attributeName="opacity" values="0.2;1;0.2" dur="1.6s" begin="0.6s" repeatCount="indefinite"/></rect>
    <rect x="840" y="447" width="6" height="2"><animate attributeName="opacity" values="0.2;1;0.2" dur="1.3s" begin="0.9s" repeatCount="indefinite"/></rect>
  </g>
  <g fill="#FCD34D" opacity="0.85">
    <rect x="730" y="585" width="3" height="3" rx="0.6"><animate attributeName="opacity" values="0.3;1;0.3" dur="1.4s" repeatCount="indefinite"/></rect>
    <rect x="746" y="585" width="3" height="3" rx="0.6"><animate attributeName="opacity" values="0.3;1;0.3" dur="1.2s" begin="0.3s" repeatCount="indefinite"/></rect>
    <rect x="762" y="585" width="3" height="3" rx="0.6"><animate attributeName="opacity" values="0.3;1;0.3" dur="1.6s" begin="0.6s" repeatCount="indefinite"/></rect>
  </g>
  <g stroke="#FFB703" stroke-width="0.5" stroke-opacity="0.35" fill="none">
    <path d="M20 515 L28 515"><animate attributeName="stroke-opacity" values="0;0.7;0" dur="2s" repeatCount="indefinite"/></path>
    <path d="M20 545 L28 545"><animate attributeName="stroke-opacity" values="0;0.7;0" dur="2.2s" begin="0.3s" repeatCount="indefinite"/></path>
    <path d="M20 575 L28 575"><animate attributeName="stroke-opacity" values="0;0.7;0" dur="1.8s" begin="0.6s" repeatCount="indefinite"/></path>
  </g>
  <g stroke="#FCD34D" stroke-width="0.6" stroke-opacity="0.3" fill="none">
    <circle cx="500" cy="525" r="100"><animate attributeName="r" values="80;120;80" dur="4s" repeatCount="indefinite"/><animate attributeName="stroke-opacity" values="0.4;0;0.4" dur="4s" repeatCount="indefinite"/></circle>
  </g>
</g>
<g transform="translate(1080,504)" filter="url(#softShadow)">
  <rect x="-8" y="-8" width="100" height="100" rx="6" fill="#FFFFFF"/>
  <path fill="#0A1020" d="M0.0 0.0h14.341v2.049h-14.341z M16.39 0.0h2.049v2.049h-2.049z M24.585 0.0h2.049v2.049h-2.049z M28.683 0.0h16.39v2.049h-16.39z M51.22 0.0h4.098v2.049h-4.098z M57.366 0.0h8.195v2.049h-8.195z M69.659 0.0h14.341v2.049h-14.341z M0.0 2.049h2.049v2.049h-2.049z M12.293 2.049h2.049v2.049h-2.049z M16.39 2.049h2.049v2.049h-2.049z M22.537 2.049h6.146v2.049h-6.146z M32.78 2.049h2.049v2.049h-2.049z M36.878 2.049h2.049v2.049h-2.049z M40.976 2.049h2.049v2.049h-2.049z M47.122 2.049h2.049v2.049h-2.049z M51.22 2.049h2.049v2.049h-2.049z M57.366 2.049h4.098v2.049h-4.098z M65.561 2.049h2.049v2.049h-2.049z M69.659 2.049h2.049v2.049h-2.049z M81.951 2.049h2.049v2.049h-2.049z M0.0 4.098h2.049v2.049h-2.049z M4.098 4.098h6.146v2.049h-6.146z M12.293 4.098h2.049v2.049h-2.049z M20.488 4.098h6.146v2.049h-6.146z M28.683 4.098h2.049v2.049h-2.049z M34.829 4.098h2.049v2.049h-2.049z M38.927 4.098h2.049v2.049h-2.049z M47.122 4.098h6.146v2.049h-6.146z M61.463 4.098h2.049v2.049h-2.049z M65.561 4.098h2.049v2.049h-2.049z M69.659 4.098h2.049v2.049h-2.049z M73.756 4.098h6.146v2.049h-6.146z M81.951 4.098h2.049v2.049h-2.049z M0.0 6.146h2.049v2.049h-2.049z M4.098 6.146h6.146v2.049h-6.146z M12.293 6.146h2.049v2.049h-2.049z M16.39 6.146h4.098v2.049h-4.098z M22.537 6.146h2.049v2.049h-2.049z M26.634 6.146h6.146v2.049h-6.146z M38.927 6.146h6.146v2.049h-6.146z M47.122 6.146h6.146v2.049h-6.146z M55.317 6.146h6.146v2.049h-6.146z M63.512 6.146h4.098v2.049h-4.098z M69.659 6.146h2.049v2.049h-2.049z M73.756 6.146h6.146v2.049h-6.146z M81.951 6.146h2.049v2.049h-2.049z M0.0 8.195h2.049v2.049h-2.049z M4.098 8.195h6.146v2.049h-6.146z M12.293 8.195h2.049v2.049h-2.049z M18.439 8.195h2.049v2.049h-2.049z M22.537 8.195h8.195v2.049h-8.195z M38.927 8.195h2.049v2.049h-2.049z M45.073 8.195h6.146v2.049h-6.146z M53.268 8.195h4.098v2.049h-4.098z M59.415 8.195h8.195v2.049h-8.195z M69.659 8.195h2.049v2.049h-2.049z M73.756 8.195h6.146v2.049h-6.146z M81.951 8.195h2.049v2.049h-2.049z M0.0 10.244h2.049v2.049h-2.049z M12.293 10.244h2.049v2.049h-2.049z M22.537 10.244h2.049v2.049h-2.049z M32.78 10.244h8.195v2.049h-8.195z M43.024 10.244h4.098v2.049h-4.098z M49.171 10.244h2.049v2.049h-2.049z M57.366 10.244h2.049v2.049h-2.049z M61.463 10.244h4.098v2.049h-4.098z M69.659 10.244h2.049v2.049h-2.049z M81.951 10.244h2.049v2.049h-2.049z M0.0 12.293h14.341v2.049h-14.341z M16.39 12.293h2.049v2.049h-2.049z M20.488 12.293h2.049v2.049h-2.049z M24.585 12.293h2.049v2.049h-2.049z M28.683 12.293h2.049v2.049h-2.049z M32.78 12.293h2.049v2.049h-2.049z M36.878 12.293h2.049v2.049h-2.049z M40.976 12.293h2.049v2.049h-2.049z M45.073 12.293h2.049v2.049h-2.049z M49.171 12.293h2.049v2.049h-2.049z M53.268 12.293h2.049v2.049h-2.049z M57.366 12.293h2.049v2.049h-2.049z M61.463 12.293h2.049v2.049h-2.049z M65.561 12.293h2.049v2.049h-2.049z M69.659 12.293h14.341v2.049h-14.341z M16.39 14.341h4.098v2.049h-4.098z M30.732 14.341h2.049v2.049h-2.049z M34.829 14.341h2.049v2.049h-2.049z M40.976 14.341h2.049v2.049h-2.049z M49.171 14.341h2.049v2.049h-2.049z M53.268 14.341h2.049v2.049h-2.049z M59.415 14.341h2.049v2.049h-2.049z M63.512 14.341h4.098v2.049h-4.098z M0.0 16.39h2.049v2.049h-2.049z M4.098 16.39h4.098v2.049h-4.098z M10.244 16.39h6.146v2.049h-6.146z M20.488 16.39h6.146v2.049h-6.146z M28.683 16.39h2.049v2.049h-2.049z M34.829 16.39h6.146v2.049h-6.146z M43.024 16.39h2.049v2.049h-2.049z M47.122 16.39h4.098v2.049h-4.098z M53.268 16.39h2.049v2.049h-2.049z M59.415 16.39h8.195v2.049h-8.195z M69.659 16.39h2.049v2.049h-2.049z M75.805 16.39h2.049v2.049h-2.049z M79.902 16.39h4.098v2.049h-4.098z M4.098 18.439h4.098v2.049h-4.098z M10.244 18.439h2.049v2.049h-2.049z M14.341 18.439h12.293v2.049h-12.293z M32.78 18.439h2.049v2.049h-2.049z M36.878 18.439h4.098v2.049h-4.098z M43.024 18.439h2.049v2.049h-2.049z M47.122 18.439h2.049v2.049h-2.049z M53.268 18.439h2.049v2.049h-2.049z M61.463 18.439h14.341v2.049h-14.341z M77.854 18.439h6.146v2.049h-6.146z M6.146 20.488h2.049v2.049h-2.049z M10.244 20.488h6.146v2.049h-6.146z M18.439 20.488h6.146v2.049h-6.146z M28.683 20.488h4.098v2.049h-4.098z M40.976 20.488h2.049v2.049h-2.049z M45.073 20.488h4.098v2.049h-4.098z M51.22 20.488h4.098v2.049h-4.098z M59.415 20.488h2.049v2.049h-2.049z M69.659 20.488h2.049v2.049h-2.049z M73.756 20.488h2.049v2.049h-2.049z M77.854 20.488h4.098v2.049h-4.098z M0.0 22.537h4.098v2.049h-4.098z M14.341 22.537h6.146v2.049h-6.146z M22.537 22.537h4.098v2.049h-4.098z M28.683 22.537h2.049v2.049h-2.049z M36.878 22.537h2.049v2.049h-2.049z M40.976 22.537h2.049v2.049h-2.049z M45.073 22.537h2.049v2.049h-2.049z M49.171 22.537h4.098v2.049h-4.098z M55.317 22.537h2.049v2.049h-2.049z M65.561 22.537h6.146v2.049h-6.146z M79.902 22.537h4.098v2.049h-4.098z M2.049 24.585h4.098v2.049h-4.098z M8.195 24.585h2.049v2.049h-2.049z M12.293 24.585h2.049v2.049h-2.049z M26.634 24.585h2.049v2.049h-2.049z M34.829 24.585h8.195v2.049h-8.195z M45.073 24.585h2.049v2.049h-2.049z M49.171 24.585h4.098v2.049h-4.098z M59.415 24.585h6.146v2.049h-6.146z M71.707 24.585h2.049v2.049h-2.049z M75.805 24.585h6.146v2.049h-6.146z M2.049 26.634h2.049v2.049h-2.049z M14.341 26.634h6.146v2.049h-6.146z M24.585 26.634h12.293v2.049h-12.293z M40.976 26.634h2.049v2.049h-2.049z M47.122 26.634h4.098v2.049h-4.098z M53.268 26.634h6.146v2.049h-6.146z M61.463 26.634h4.098v2.049h-4.098z M67.61 26.634h4.098v2.049h-4.098z M75.805 26.634h2.049v2.049h-2.049z M81.951 26.634h2.049v2.049h-2.049z M2.049 28.683h2.049v2.049h-2.049z M8.195 28.683h10.244v2.049h-10.244z M20.488 28.683h4.098v2.049h-4.098z M30.732 28.683h2.049v2.049h-2.049z M38.927 28.683h10.244v2.049h-10.244z M61.463 28.683h4.098v2.049h-4.098z M69.659 28.683h6.146v2.049h-6.146z M77.854 28.683h6.146v2.049h-6.146z M0.0 30.732h4.098v2.049h-4.098z M14.341 30.732h6.146v2.049h-6.146z M22.537 30.732h2.049v2.049h-2.049z M26.634 30.732h8.195v2.049h-8.195z M43.024 30.732h6.146v2.049h-6.146z M53.268 30.732h4.098v2.049h-4.098z M63.512 30.732h2.049v2.049h-2.049z M69.659 30.732h2.049v2.049h-2.049z M73.756 30.732h4.098v2.049h-4.098z M79.902 30.732h2.049v2.049h-2.049z M2.049 32.78h8.195v2.049h-8.195z M12.293 32.78h6.146v2.049h-6.146z M22.537 32.78h4.098v2.049h-4.098z M36.878 32.78h2.049v2.049h-2.049z M40.976 32.78h2.049v2.049h-2.049z M45.073 32.78h2.049v2.049h-2.049z M51.22 32.78h2.049v2.049h-2.049z M55.317 32.78h2.049v2.049h-2.049z M59.415 32.78h4.098v2.049h-4.098z M65.561 32.78h2.049v2.049h-2.049z M73.756 32.78h4.098v2.049h-4.098z M79.902 32.78h4.098v2.049h-4.098z M0.0 34.829h4.098v2.049h-4.098z M6.146 34.829h2.049v2.049h-2.049z M14.341 34.829h2.049v2.049h-2.049z M18.439 34.829h10.244v2.049h-10.244z M30.732 34.829h4.098v2.049h-4.098z M40.976 34.829h6.146v2.049h-6.146z M49.171 34.829h2.049v2.049h-2.049z M53.268 34.829h4.098v2.049h-4.098z M65.561 34.829h4.098v2.049h-4.098z M71.707 34.829h2.049v2.049h-2.049z M77.854 34.829h2.049v2.049h-2.049z M4.098 36.878h2.049v2.049h-2.049z M10.244 36.878h10.244v2.049h-10.244z M28.683 36.878h2.049v2.049h-2.049z M32.78 36.878h2.049v2.049h-2.049z M36.878 36.878h2.049v2.049h-2.049z M40.976 36.878h2.049v2.049h-2.049z M45.073 36.878h2.049v2.049h-2.049z M51.22 36.878h8.195v2.049h-8.195z M65.561 36.878h2.049v2.049h-2.049z M73.756 36.878h8.195v2.049h-8.195z M0.0 38.927h2.049v2.049h-2.049z M8.195 38.927h2.049v2.049h-2.049z M14.341 38.927h2.049v2.049h-2.049z M18.439 38.927h2.049v2.049h-2.049z M26.634 38.927h18.439v2.049h-18.439z M55.317 38.927h6.146v2.049h-6.146z M65.561 38.927h2.049v2.049h-2.049z M71.707 38.927h2.049v2.049h-2.049z M75.805 38.927h6.146v2.049h-6.146z M4.098 40.976h2.049v2.049h-2.049z M8.195 40.976h2.049v2.049h-2.049z M12.293 40.976h8.195v2.049h-8.195z M26.634 40.976h4.098v2.049h-4.098z M32.78 40.976h2.049v2.049h-2.049z M38.927 40.976h4.098v2.049h-4.098z M51.22 40.976h2.049v2.049h-2.049z M59.415 40.976h4.098v2.049h-4.098z M65.561 40.976h6.146v2.049h-6.146z M73.756 40.976h8.195v2.049h-8.195z M0.0 43.024h8.195v2.049h-8.195z M14.341 43.024h8.195v2.049h-8.195z M24.585 43.024h2.049v2.049h-2.049z M38.927 43.024h6.146v2.049h-6.146z M47.122 43.024h4.098v2.049h-4.098z M61.463 43.024h4.098v2.049h-4.098z M69.659 43.024h14.341v2.049h-14.341z M0.0 45.073h2.049v2.049h-2.049z M4.098 45.073h4.098v2.049h-4.098z M10.244 45.073h4.098v2.049h-4.098z M18.439 45.073h2.049v2.049h-2.049z M22.537 45.073h2.049v2.049h-2.049z M26.634 45.073h4.098v2.049h-4.098z M47.122 45.073h2.049v2.049h-2.049z M57.366 45.073h6.146v2.049h-6.146z M69.659 45.073h2.049v2.049h-2.049z M73.756 45.073h2.049v2.049h-2.049z M77.854 45.073h4.098v2.049h-4.098z M0.0 47.122h4.098v2.049h-4.098z M14.341 47.122h8.195v2.049h-8.195z M26.634 47.122h2.049v2.049h-2.049z M30.732 47.122h2.049v2.049h-2.049z M36.878 47.122h2.049v2.049h-2.049z M40.976 47.122h2.049v2.049h-2.049z M51.22 47.122h2.049v2.049h-2.049z M55.317 47.122h2.049v2.049h-2.049z M61.463 47.122h2.049v2.049h-2.049z M65.561 47.122h2.049v2.049h-2.049z M69.659 47.122h2.049v2.049h-2.049z M79.902 47.122h2.049v2.049h-2.049z M2.049 49.171h2.049v2.049h-2.049z M8.195 49.171h10.244v2.049h-10.244z M22.537 49.171h2.049v2.049h-2.049z M26.634 49.171h2.049v2.049h-2.049z M30.732 49.171h6.146v2.049h-6.146z M38.927 49.171h2.049v2.049h-2.049z M45.073 49.171h2.049v2.049h-2.049z M49.171 49.171h6.146v2.049h-6.146z M59.415 49.171h2.049v2.049h-2.049z M63.512 49.171h2.049v2.049h-2.049z M75.805 49.171h4.098v2.049h-4.098z M81.951 49.171h2.049v2.049h-2.049z M4.098 51.22h8.195v2.049h-8.195z M14.341 51.22h4.098v2.049h-4.098z M28.683 51.22h4.098v2.049h-4.098z M38.927 51.22h2.049v2.049h-2.049z M49.171 51.22h4.098v2.049h-4.098z M55.317 51.22h2.049v2.049h-2.049z M59.415 51.22h2.049v2.049h-2.049z M63.512 51.22h4.098v2.049h-4.098z M69.659 51.22h2.049v2.049h-2.049z M75.805 51.22h4.098v2.049h-4.098z M81.951 51.22h2.049v2.049h-2.049z M6.146 53.268h2.049v2.049h-2.049z M10.244 53.268h12.293v2.049h-12.293z M26.634 53.268h2.049v2.049h-2.049z M30.732 53.268h4.098v2.049h-4.098z M36.878 53.268h6.146v2.049h-6.146z M49.171 53.268h2.049v2.049h-2.049z M53.268 53.268h2.049v2.049h-2.049z M57.366 53.268h4.098v2.049h-4.098z M63.512 53.268h4.098v2.049h-4.098z M69.659 53.268h8.195v2.049h-8.195z M79.902 53.268h4.098v2.049h-4.098z M4.098 55.317h2.049v2.049h-2.049z M8.195 55.317h4.098v2.049h-4.098z M14.341 55.317h2.049v2.049h-2.049z M28.683 55.317h6.146v2.049h-6.146z M38.927 55.317h10.244v2.049h-10.244z M53.268 55.317h4.098v2.049h-4.098z M61.463 55.317h6.146v2.049h-6.146z M69.659 55.317h2.049v2.049h-2.049z M75.805 55.317h2.049v2.049h-2.049z M79.902 55.317h4.098v2.049h-4.098z M0.0 57.366h2.049v2.049h-2.049z M4.098 57.366h12.293v2.049h-12.293z M22.537 57.366h8.195v2.049h-8.195z M32.78 57.366h14.341v2.049h-14.341z M49.171 57.366h8.195v2.049h-8.195z M63.512 57.366h4.098v2.049h-4.098z M73.756 57.366h4.098v2.049h-4.098z M79.902 57.366h4.098v2.049h-4.098z M6.146 59.415h4.098v2.049h-4.098z M16.39 59.415h2.049v2.049h-2.049z M20.488 59.415h4.098v2.049h-4.098z M30.732 59.415h2.049v2.049h-2.049z M34.829 59.415h2.049v2.049h-2.049z M38.927 59.415h4.098v2.049h-4.098z M51.22 59.415h6.146v2.049h-6.146z M61.463 59.415h6.146v2.049h-6.146z M71.707 59.415h2.049v2.049h-2.049z M75.805 59.415h2.049v2.049h-2.049z M0.0 61.463h2.049v2.049h-2.049z M6.146 61.463h4.098v2.049h-4.098z M12.293 61.463h4.098v2.049h-4.098z M20.488 61.463h2.049v2.049h-2.049z M26.634 61.463h2.049v2.049h-2.049z M30.732 61.463h2.049v2.049h-2.049z M36.878 61.463h4.098v2.049h-4.098z M45.073 61.463h2.049v2.049h-2.049z M53.268 61.463h6.146v2.049h-6.146z M65.561 61.463h8.195v2.049h-8.195z M8.195 63.512h4.098v2.049h-4.098z M16.39 63.512h16.39v2.049h-16.39z M34.829 63.512h6.146v2.049h-6.146z M47.122 63.512h2.049v2.049h-2.049z M53.268 63.512h8.195v2.049h-8.195z M69.659 63.512h2.049v2.049h-2.049z M73.756 63.512h6.146v2.049h-6.146z M81.951 63.512h2.049v2.049h-2.049z M2.049 65.561h4.098v2.049h-4.098z M8.195 65.561h2.049v2.049h-2.049z M12.293 65.561h2.049v2.049h-2.049z M16.39 65.561h4.098v2.049h-4.098z M28.683 65.561h2.049v2.049h-2.049z M32.78 65.561h6.146v2.049h-6.146z M43.024 65.561h4.098v2.049h-4.098z M55.317 65.561h8.195v2.049h-8.195z M65.561 65.561h14.341v2.049h-14.341z M81.951 65.561h2.049v2.049h-2.049z M16.39 67.61h2.049v2.049h-2.049z M20.488 67.61h4.098v2.049h-4.098z M34.829 67.61h4.098v2.049h-4.098z M40.976 67.61h4.098v2.049h-4.098z M51.22 67.61h2.049v2.049h-2.049z M57.366 67.61h2.049v2.049h-2.049z M61.463 67.61h2.049v2.049h-2.049z M65.561 67.61h2.049v2.049h-2.049z M73.756 67.61h2.049v2.049h-2.049z M79.902 67.61h4.098v2.049h-4.098z M0.0 69.659h14.341v2.049h-14.341z M16.39 69.659h4.098v2.049h-4.098z M22.537 69.659h6.146v2.049h-6.146z M32.78 69.659h2.049v2.049h-2.049z M36.878 69.659h2.049v2.049h-2.049z M47.122 69.659h6.146v2.049h-6.146z M57.366 69.659h2.049v2.049h-2.049z M63.512 69.659h4.098v2.049h-4.098z M69.659 69.659h2.049v2.049h-2.049z M73.756 69.659h4.098v2.049h-4.098z M79.902 69.659h2.049v2.049h-2.049z M0.0 71.707h2.049v2.049h-2.049z M12.293 71.707h2.049v2.049h-2.049z M16.39 71.707h2.049v2.049h-2.049z M20.488 71.707h2.049v2.049h-2.049z M24.585 71.707h2.049v2.049h-2.049z M34.829 71.707h2.049v2.049h-2.049z M38.927 71.707h4.098v2.049h-4.098z M49.171 71.707h2.049v2.049h-2.049z M57.366 71.707h2.049v2.049h-2.049z M61.463 71.707h2.049v2.049h-2.049z M65.561 71.707h2.049v2.049h-2.049z M73.756 71.707h2.049v2.049h-2.049z M79.902 71.707h2.049v2.049h-2.049z M0.0 73.756h2.049v2.049h-2.049z M4.098 73.756h6.146v2.049h-6.146z M12.293 73.756h2.049v2.049h-2.049z M20.488 73.756h8.195v2.049h-8.195z M30.732 73.756h2.049v2.049h-2.049z M38.927 73.756h2.049v2.049h-2.049z M43.024 73.756h2.049v2.049h-2.049z M47.122 73.756h2.049v2.049h-2.049z M53.268 73.756h2.049v2.049h-2.049z M59.415 73.756h2.049v2.049h-2.049z M65.561 73.756h10.244v2.049h-10.244z M77.854 73.756h2.049v2.049h-2.049z M81.951 73.756h2.049v2.049h-2.049z M0.0 75.805h2.049v2.049h-2.049z M4.098 75.805h6.146v2.049h-6.146z M12.293 75.805h2.049v2.049h-2.049z M16.39 75.805h4.098v2.049h-4.098z M24.585 75.805h2.049v2.049h-2.049z M34.829 75.805h2.049v2.049h-2.049z M45.073 75.805h2.049v2.049h-2.049z M53.268 75.805h4.098v2.049h-4.098z M59.415 75.805h2.049v2.049h-2.049z M63.512 75.805h4.098v2.049h-4.098z M73.756 75.805h2.049v2.049h-2.049z M79.902 75.805h2.049v2.049h-2.049z M0.0 77.854h2.049v2.049h-2.049z M4.098 77.854h6.146v2.049h-6.146z M12.293 77.854h2.049v2.049h-2.049z M16.39 77.854h2.049v2.049h-2.049z M20.488 77.854h6.146v2.049h-6.146z M28.683 77.854h2.049v2.049h-2.049z M36.878 77.854h4.098v2.049h-4.098z M43.024 77.854h2.049v2.049h-2.049z M49.171 77.854h2.049v2.049h-2.049z M53.268 77.854h2.049v2.049h-2.049z M57.366 77.854h4.098v2.049h-4.098z M63.512 77.854h2.049v2.049h-2.049z M71.707 77.854h2.049v2.049h-2.049z M79.902 77.854h4.098v2.049h-4.098z M0.0 79.902h2.049v2.049h-2.049z M12.293 79.902h2.049v2.049h-2.049z M18.439 79.902h2.049v2.049h-2.049z M26.634 79.902h8.195v2.049h-8.195z M38.927 79.902h8.195v2.049h-8.195z M49.171 79.902h2.049v2.049h-2.049z M53.268 79.902h2.049v2.049h-2.049z M57.366 79.902h2.049v2.049h-2.049z M65.561 79.902h4.098v2.049h-4.098z M73.756 79.902h4.098v2.049h-4.098z M79.902 79.902h2.049v2.049h-2.049z M0.0 81.951h14.341v2.049h-14.341z M16.39 81.951h6.146v2.049h-6.146z M24.585 81.951h2.049v2.049h-2.049z M28.683 81.951h2.049v2.049h-2.049z M32.78 81.951h2.049v2.049h-2.049z M36.878 81.951h2.049v2.049h-2.049z M40.976 81.951h8.195v2.049h-8.195z M51.22 81.951h2.049v2.049h-2.049z M61.463 81.951h2.049v2.049h-2.049z M65.561 81.951h6.146v2.049h-6.146z M75.805 81.951h2.049v2.049h-2.049z M79.902 81.951h2.049v2.049h-2.049z"/>
</g>
<text x="1122" y="614" font-family="Inter, Helvetica, Arial, sans-serif" font-size="10" font-weight="700" fill="#F5F7FA" text-anchor="middle">scan / full post</text>
</svg>