<svg xmlns="http://www.w3.org/2000/svg" viewBox="0 0 1200 630" width="1200" height="630" role="img" aria-label="Weekly digest cover: AI Agent Privilege Escalation, AWS ECS Zero-Day, Harbor Registry Attack">
<title>Weekly Digest 2026-03-28: AI Agent Privilege Escalation / AWS ECS Zero-Day / Harbor Registry Attack</title>
<!-- profile: high-quality-cover (L13 Callouts, research-based, batch3b-locked) -->
<defs>
  <linearGradient id="bg" x1="0%" y1="0%" x2="100%" y2="100%"><stop offset="0%" stop-color="#090D1A"/><stop offset="100%" stop-color="#0F1528"/></linearGradient>
  <filter id="sh"><feGaussianBlur in="SourceAlpha" stdDeviation="3"/><feOffset dx="0" dy="4"/><feComponentTransfer><feFuncA type="linear" slope="0.4"/></feComponentTransfer><feMerge><feMergeNode/><feMergeNode in="SourceGraphic"/></feMerge></filter>
  <filter id="glow1"><feGaussianBlur stdDeviation="8" result="blur"/><feMerge><feMergeNode in="blur"/><feMergeNode in="SourceGraphic"/></feMerge></filter>
</defs>
<rect width="1200" height="630" fill="url(#bg)"/>
<rect x="0" y="0" width="1200" height="42" fill="#0A1220" opacity="0.98"/>
<text x="40" y="27" font-family="Inter,Helvetica,Arial,sans-serif" font-size="11" font-weight="700" letter-spacing="3" fill="#E63946">TECH SECURITY WEEKLY DIGEST</text>
<text x="1160" y="27" text-anchor="end" font-family="Inter,Helvetica,Arial,sans-serif" font-size="11" fill="#4A6070">2026-03-28</text>
<!-- Callout 1 -->
<rect x="30" y="62" width="330" height="430" rx="14" fill="#110A1A" stroke="#E63946" stroke-width="2" filter="url(#sh)"/>
<rect x="30" y="62" width="330" height="6" rx="3" fill="#E63946"/>
<circle cx="195" cy="140" r="42" fill="none" stroke="#E63946" stroke-width="2" opacity="0.5"/>
<circle cx="195" cy="140" r="28" fill="#E63946" opacity="0.15"/>
<text x="195" y="148" text-anchor="middle" font-family="Inter,Helvetica,Arial,sans-serif" font-size="28" font-weight="900" fill="#E63946">01</text>
<rect x="62" y="208" width="264" height="24" rx="12" fill="#E63946" opacity="0.15"/>
<text x="194" y="225" text-anchor="middle" font-family="Inter,Helvetica,Arial,sans-serif" font-size="10" font-weight="700" letter-spacing="2.5" fill="#E63946">FRAMEWORK EXPLOIT</text>
<text x="194" y="268" text-anchor="middle" font-family="Inter,Helvetica,Arial,sans-serif" font-size="19" font-weight="800" fill="#F0F4FA">AI Agent Privilege Escalation</text>
<text x="194" y="298" text-anchor="middle" font-family="Inter,Helvetica,Arial,sans-serif" font-size="13" font-weight="600" fill="#E63946">Framework Exploit</text>
<line x1="80" y1="318" x2="310" y2="318" stroke="#E63946" stroke-width="0.5" opacity="0.3"/>
<text x="194" y="350" text-anchor="middle" font-family="Inter,Helvetica,Arial,sans-serif" font-size="11" fill="#6A8090">Active threat — immediate action</text>
<text x="194" y="370" text-anchor="middle" font-family="Inter,Helvetica,Arial,sans-serif" font-size="11" fill="#6A8090">required per CISA guidelines</text>
<!-- Callout 2 -->
<rect x="435" y="62" width="330" height="430" rx="14" fill="#0A1220" stroke="#F5A623" stroke-width="2" filter="url(#sh)"/>
<rect x="435" y="62" width="330" height="6" rx="3" fill="#F5A623"/>
<circle cx="600" cy="140" r="42" fill="none" stroke="#F5A623" stroke-width="2" opacity="0.5"/>
<circle cx="600" cy="140" r="28" fill="#F5A623" opacity="0.15"/>
<text x="600" y="148" text-anchor="middle" font-family="Inter,Helvetica,Arial,sans-serif" font-size="28" font-weight="900" fill="#F5A623">02</text>
<rect x="467" y="208" width="264" height="24" rx="12" fill="#F5A623" opacity="0.15"/>
<text x="599" y="225" text-anchor="middle" font-family="Inter,Helvetica,Arial,sans-serif" font-size="10" font-weight="700" letter-spacing="2.5" fill="#F5A623">CONTAINER ESCAPE</text>
<text x="599" y="268" text-anchor="middle" font-family="Inter,Helvetica,Arial,sans-serif" font-size="19" font-weight="800" fill="#F0F4FA">AWS ECS Zero-Day</text>
<text x="599" y="298" text-anchor="middle" font-family="Inter,Helvetica,Arial,sans-serif" font-size="13" font-weight="600" fill="#F5A623">Container Escape</text>
<line x1="485" y1="318" x2="715" y2="318" stroke="#F5A623" stroke-width="0.5" opacity="0.3"/>
<text x="599" y="350" text-anchor="middle" font-family="Inter,Helvetica,Arial,sans-serif" font-size="11" fill="#6A8090">High priority — patch within 48h</text>
<text x="599" y="370" text-anchor="middle" font-family="Inter,Helvetica,Arial,sans-serif" font-size="11" fill="#6A8090">and review exposure scope</text>
<!-- Callout 3 -->
<rect x="840" y="62" width="330" height="430" rx="14" fill="#061818" stroke="#4DE8D0" stroke-width="2" filter="url(#sh)"/>
<rect x="840" y="62" width="330" height="6" rx="3" fill="#4DE8D0"/>
<circle cx="1005" cy="140" r="42" fill="none" stroke="#4DE8D0" stroke-width="2" opacity="0.5"/>
<circle cx="1005" cy="140" r="28" fill="#4DE8D0" opacity="0.15"/>
<text x="1005" y="148" text-anchor="middle" font-family="Inter,Helvetica,Arial,sans-serif" font-size="28" font-weight="900" fill="#4DE8D0">03</text>
<rect x="872" y="208" width="264" height="24" rx="12" fill="#4DE8D0" opacity="0.15"/>
<text x="1004" y="225" text-anchor="middle" font-family="Inter,Helvetica,Arial,sans-serif" font-size="10" font-weight="700" letter-spacing="2.5" fill="#4DE8D0">SUPPLY CHAIN POISON</text>
<text x="1004" y="268" text-anchor="middle" font-family="Inter,Helvetica,Arial,sans-serif" font-size="19" font-weight="800" fill="#F0F4FA">Harbor Registry Attack</text>
<text x="1004" y="298" text-anchor="middle" font-family="Inter,Helvetica,Arial,sans-serif" font-size="13" font-weight="600" fill="#4DE8D0">Supply Chain Poison</text>
<line x1="890" y1="318" x2="1120" y2="318" stroke="#4DE8D0" stroke-width="0.5" opacity="0.3"/>
<text x="1004" y="350" text-anchor="middle" font-family="Inter,Helvetica,Arial,sans-serif" font-size="11" fill="#6A8090">Monitor and apply defense</text>
<text x="1004" y="370" text-anchor="middle" font-family="Inter,Helvetica,Arial,sans-serif" font-size="11" fill="#6A8090">in-depth strategies</text>
<!-- Footer -->
<rect x="0" y="506" width="1200" height="20" fill="#080E18" opacity="0.85"/>
<text x="40" y="519" font-family="Inter,Helvetica,Arial,sans-serif" font-size="9" fill="#3A4A5A">tech.2twodragon.com</text>
<text x="600" y="519" text-anchor="middle" font-family="Inter,Helvetica,Arial,sans-serif" font-size="9" fill="#3A4A5A">Security · AI · Cloud · 2026-03-28</text>
<text x="1160" y="519" text-anchor="end" font-family="Inter,Helvetica,Arial,sans-serif" font-size="9" fill="#3A4A5A">Twodragon</text>
<!-- cover-qr: https://tech.2twodragon.com/posts/2026/03/28/Tech_Security_Weekly_Digest_AI_Cloud_Zero_Day/ : 41x41 -->
<g transform="translate(1080,490)">
  <rect x="-8" y="-8" width="100" height="100" rx="6" fill="#FFFFFF"/>
  <g transform="scale(2.048780)" fill="#0A1020">
    <path d="M0 0h7v1h-7zM14 0h1v1h-1zM17 0h3v1h-3zM25 0h3v1h-3zM30 0h2v1h-2zM34 0h7v1h-7zM0 1h1v1h-1zM6 1h1v1h-1zM10 1h1v1h-1zM12 1h3v1h-3zM16 1h1v1h-1zM18 1h1v1h-1zM20 1h4v1h-4zM25 1h5v1h-5zM32 1h1v1h-1zM34 1h1v1h-1zM40 1h1v1h-1zM0 2h1v1h-1zM2 2h3v1h-3zM6 2h1v1h-1zM9 2h1v1h-1zM13 2h1v1h-1zM16 2h1v1h-1zM18 2h2v1h-2zM23 2h1v1h-1zM25 2h1v1h-1zM29 2h1v1h-1zM32 2h1v1h-1zM34 2h1v1h-1zM36 2h3v1h-3zM40 2h1v1h-1zM0 3h1v1h-1zM2 3h3v1h-3zM6 3h1v1h-1zM9 3h1v1h-1zM12 3h1v1h-1zM14 3h8v1h-8zM23 3h6v1h-6zM30 3h3v1h-3zM34 3h1v1h-1zM36 3h3v1h-3zM40 3h1v1h-1zM0 4h1v1h-1zM2 4h3v1h-3zM6 4h1v1h-1zM9 4h1v1h-1zM11 4h1v1h-1zM13 4h3v1h-3zM17 4h3v1h-3zM22 4h1v1h-1zM25 4h3v1h-3zM32 4h1v1h-1zM34 4h1v1h-1zM36 4h3v1h-3zM40 4h1v1h-1zM0 5h1v1h-1zM6 5h1v1h-1zM8 5h3v1h-3zM12 5h2v1h-2zM17 5h3v1h-3zM24 5h1v1h-1zM26 5h2v1h-2zM30 5h3v1h-3zM34 5h1v1h-1zM40 5h1v1h-1zM0 6h7v1h-7zM8 6h1v1h-1zM10 6h1v1h-1zM12 6h1v1h-1zM14 6h1v1h-1zM16 6h1v1h-1zM18 6h1v1h-1zM20 6h1v1h-1zM22 6h1v1h-1zM24 6h1v1h-1zM26 6h1v1h-1zM28 6h1v1h-1zM30 6h1v1h-1zM32 6h1v1h-1zM34 6h7v1h-7zM9 7h2v1h-2zM14 7h1v1h-1zM17 7h1v1h-1zM19 7h4v1h-4zM24 7h1v1h-1zM27 7h3v1h-3zM31 7h1v1h-1zM0 8h1v1h-1zM3 8h1v1h-1zM5 8h2v1h-2zM8 8h1v1h-1zM10 8h1v1h-1zM12 8h1v1h-1zM14 8h1v1h-1zM19 8h1v1h-1zM21 8h1v1h-1zM25 8h2v1h-2zM32 8h2v1h-2zM35 8h1v1h-1zM1 9h1v1h-1zM3 9h1v1h-1zM7 9h2v1h-2zM11 9h4v1h-4zM16 9h2v1h-2zM21 9h1v1h-1zM24 9h3v1h-3zM29 9h1v1h-1zM32 9h1v1h-1zM37 9h2v1h-2zM0 10h1v1h-1zM2 10h5v1h-5zM9 10h2v1h-2zM12 10h1v1h-1zM14 10h2v1h-2zM17 10h4v1h-4zM22 10h1v1h-1zM24 10h1v1h-1zM26 10h1v1h-1zM30 10h2v1h-2zM35 10h5v1h-5zM2 11h4v1h-4zM8 11h3v1h-3zM13 11h2v1h-2zM18 11h1v1h-1zM21 11h1v1h-1zM24 11h2v1h-2zM28 11h1v1h-1zM33 11h2v1h-2zM36 11h1v1h-1zM38 11h2v1h-2zM5 12h3v1h-3zM11 12h7v1h-7zM19 12h1v1h-1zM21 12h1v1h-1zM24 12h4v1h-4zM29 12h7v1h-7zM37 12h1v1h-1zM39 12h2v1h-2zM1 13h1v1h-1zM3 13h1v1h-1zM5 13h1v1h-1zM9 13h6v1h-6zM22 13h4v1h-4zM27 13h2v1h-2zM30 13h4v1h-4zM37 13h2v1h-2zM0 14h1v1h-1zM2 14h1v1h-1zM5 14h4v1h-4zM10 14h2v1h-2zM14 14h1v1h-1zM17 14h1v1h-1zM20 14h2v1h-2zM24 14h1v1h-1zM30 14h1v1h-1zM34 14h1v1h-1zM37 14h4v1h-4zM2 15h4v1h-4zM8 15h2v1h-2zM15 15h3v1h-3zM19 15h1v1h-1zM21 15h2v1h-2zM24 15h4v1h-4zM29 15h4v1h-4zM34 15h2v1h-2zM2 16h5v1h-5zM8 16h2v1h-2zM12 16h2v1h-2zM16 16h2v1h-2zM19 16h2v1h-2zM22 16h2v1h-2zM29 16h1v1h-1zM31 16h2v1h-2zM35 16h1v1h-1zM39 16h1v1h-1zM1 17h1v1h-1zM5 17h1v1h-1zM7 17h1v1h-1zM10 17h2v1h-2zM13 17h4v1h-4zM19 17h1v1h-1zM23 17h7v1h-7zM34 17h2v1h-2zM37 17h4v1h-4zM3 18h1v1h-1zM6 18h3v1h-3zM13 18h1v1h-1zM15 18h1v1h-1zM18 18h1v1h-1zM21 18h1v1h-1zM26 18h1v1h-1zM30 18h1v1h-1zM33 18h2v1h-2zM36 18h1v1h-1zM40 18h1v1h-1zM2 19h1v1h-1zM4 19h1v1h-1zM10 19h1v1h-1zM12 19h1v1h-1zM14 19h2v1h-2zM17 19h4v1h-4zM22 19h1v1h-1zM26 19h1v1h-1zM29 19h2v1h-2zM32 19h4v1h-4zM37 19h1v1h-1zM40 19h1v1h-1zM1 20h1v1h-1zM6 20h1v1h-1zM8 20h2v1h-2zM11 20h4v1h-4zM16 20h5v1h-5zM23 20h2v1h-2zM27 20h1v1h-1zM30 20h1v1h-1zM32 20h3v1h-3zM38 20h2v1h-2zM2 21h4v1h-4zM7 21h2v1h-2zM10 21h1v1h-1zM12 21h1v1h-1zM16 21h6v1h-6zM25 21h2v1h-2zM29 21h1v1h-1zM34 21h1v1h-1zM38 21h3v1h-3zM0 22h2v1h-2zM4 22h1v1h-1zM6 22h5v1h-5zM17 22h4v1h-4zM24 22h2v1h-2zM28 22h1v1h-1zM31 22h1v1h-1zM33 22h4v1h-4zM39 22h1v1h-1zM0 23h1v1h-1zM2 23h4v1h-4zM7 23h3v1h-3zM11 23h1v1h-1zM13 23h3v1h-3zM18 23h5v1h-5zM25 23h2v1h-2zM28 23h1v1h-1zM30 23h1v1h-1zM34 23h2v1h-2zM38 23h1v1h-1zM40 23h1v1h-1zM0 24h1v1h-1zM2 24h2v1h-2zM5 24h2v1h-2zM10 24h1v1h-1zM12 24h1v1h-1zM14 24h4v1h-4zM19 24h3v1h-3zM23 24h3v1h-3zM27 24h3v1h-3zM31 24h5v1h-5zM37 24h2v1h-2zM0 25h1v1h-1zM2 25h4v1h-4zM9 25h4v1h-4zM15 25h1v1h-1zM17 25h1v1h-1zM19 25h4v1h-4zM24 25h3v1h-3zM28 25h2v1h-2zM31 25h1v1h-1zM34 25h1v1h-1zM37 25h1v1h-1zM39 25h1v1h-1zM0 26h1v1h-1zM5 26h2v1h-2zM8 26h1v1h-1zM15 26h3v1h-3zM20 26h1v1h-1zM23 26h1v1h-1zM25 26h2v1h-2zM28 26h1v1h-1zM30 26h1v1h-1zM32 26h2v1h-2zM35 26h2v1h-2zM39 26h2v1h-2zM0 27h1v1h-1zM5 27h1v1h-1zM7 27h1v1h-1zM9 27h1v1h-1zM11 27h3v1h-3zM15 27h4v1h-4zM20 27h3v1h-3zM24 27h4v1h-4zM29 27h1v1h-1zM32 27h1v1h-1zM34 27h1v1h-1zM0 28h3v1h-3zM4 28h3v1h-3zM8 28h1v1h-1zM10 28h4v1h-4zM17 28h1v1h-1zM20 28h4v1h-4zM26 28h2v1h-2zM29 28h2v1h-2zM32 28h2v1h-2zM35 28h1v1h-1zM39 28h1v1h-1zM2 29h4v1h-4zM7 29h2v1h-2zM12 29h3v1h-3zM17 29h1v1h-1zM19 29h1v1h-1zM21 29h1v1h-1zM25 29h1v1h-1zM27 29h5v1h-5zM35 29h1v1h-1zM37 29h2v1h-2zM40 29h1v1h-1zM0 30h1v1h-1zM4 30h1v1h-1zM6 30h5v1h-5zM14 30h4v1h-4zM19 30h2v1h-2zM22 30h1v1h-1zM25 30h1v1h-1zM27 30h2v1h-2zM35 30h1v1h-1zM38 30h3v1h-3zM2 31h2v1h-2zM5 31h1v1h-1zM7 31h1v1h-1zM11 31h1v1h-1zM14 31h8v1h-8zM23 31h1v1h-1zM26 31h1v1h-1zM29 31h1v1h-1zM31 31h3v1h-3zM36 31h2v1h-2zM0 32h1v1h-1zM2 32h2v1h-2zM6 32h2v1h-2zM9 32h1v1h-1zM15 32h1v1h-1zM19 32h2v1h-2zM23 32h1v1h-1zM25 32h3v1h-3zM31 32h6v1h-6zM38 32h1v1h-1zM40 32h1v1h-1zM8 33h1v1h-1zM12 33h1v1h-1zM14 33h3v1h-3zM18 33h4v1h-4zM24 33h1v1h-1zM27 33h2v1h-2zM30 33h3v1h-3zM36 33h5v1h-5zM0 34h7v1h-7zM11 34h1v1h-1zM13 34h3v1h-3zM17 34h1v1h-1zM19 34h1v1h-1zM28 34h2v1h-2zM32 34h1v1h-1zM34 34h1v1h-1zM36 34h1v1h-1zM38 34h2v1h-2zM0 35h1v1h-1zM6 35h1v1h-1zM8 35h1v1h-1zM13 35h1v1h-1zM16 35h2v1h-2zM19 35h4v1h-4zM24 35h1v1h-1zM26 35h2v1h-2zM30 35h1v1h-1zM32 35h1v1h-1zM36 35h1v1h-1zM38 35h1v1h-1zM40 35h1v1h-1zM0 36h1v1h-1zM2 36h3v1h-3zM6 36h1v1h-1zM10 36h2v1h-2zM15 36h1v1h-1zM19 36h2v1h-2zM22 36h1v1h-1zM27 36h2v1h-2zM30 36h1v1h-1zM32 36h6v1h-6zM39 36h1v1h-1zM0 37h1v1h-1zM2 37h3v1h-3zM6 37h1v1h-1zM8 37h2v1h-2zM15 37h2v1h-2zM19 37h3v1h-3zM28 37h2v1h-2zM31 37h4v1h-4zM36 37h1v1h-1zM38 37h1v1h-1zM40 37h1v1h-1zM0 38h1v1h-1zM2 38h3v1h-3zM6 38h1v1h-1zM9 38h3v1h-3zM13 38h4v1h-4zM18 38h1v1h-1zM20 38h2v1h-2zM23 38h4v1h-4zM28 38h1v1h-1zM30 38h2v1h-2zM36 38h1v1h-1zM38 38h3v1h-3zM0 39h1v1h-1zM6 39h1v1h-1zM10 39h4v1h-4zM15 39h4v1h-4zM21 39h2v1h-2zM25 39h2v1h-2zM28 39h6v1h-6zM35 39h1v1h-1zM39 39h1v1h-1zM0 40h7v1h-7zM8 40h4v1h-4zM13 40h1v1h-1zM16 40h1v1h-1zM19 40h4v1h-4zM24 40h1v1h-1zM29 40h1v1h-1zM31 40h7v1h-7zM39 40h1v1h-1z"/>
  </g>
</g>
<text x="1122" y="600" font-family="Inter,Helvetica,Arial,sans-serif" font-size="10" font-weight="700" fill="#F5F7FA" text-anchor="middle">scan / full post</text>
<rect x="0" y="620" width="1200" height="10" fill="#080E18"/>
</svg>