<svg xmlns="http://www.w3.org/2000/svg" viewBox="0 0 1200 630" fill="none">
  <defs>
    <linearGradient id="bg" x1="0" y1="0" x2="1200" y2="630">
      <stop offset="0%" stop-color="#0f172a"/>
      <stop offset="50%" stop-color="#1e293b"/>
      <stop offset="100%" stop-color="#0f172a"/>
    </linearGradient>
    <linearGradient id="accent" x1="0" y1="0" x2="1" y2="1">
      <stop offset="0%" stop-color="#6366f1"/>
      <stop offset="100%" stop-color="#4f46e5"/>
    </linearGradient>
    <linearGradient id="accent2" x1="0" y1="0" x2="1" y2="1">
      <stop offset="0%" stop-color="#ef4444"/>
      <stop offset="100%" stop-color="#dc2626"/>
    </linearGradient>
  </defs>

  <!-- Background -->
  <rect width="1200" height="630" fill="url(#bg)"/>

  <!-- Grid pattern -->
  <g opacity="0.05" stroke="#94a3b8" stroke-width="1">
    <line x1="0" y1="100" x2="1200" y2="100"/>
    <line x1="0" y1="200" x2="1200" y2="200"/>
    <line x1="0" y1="300" x2="1200" y2="300"/>
    <line x1="0" y1="400" x2="1200" y2="400"/>
    <line x1="0" y1="500" x2="1200" y2="500"/>
    <line x1="200" y1="0" x2="200" y2="630"/>
    <line x1="400" y1="0" x2="400" y2="630"/>
    <line x1="600" y1="0" x2="600" y2="630"/>
    <line x1="800" y1="0" x2="800" y2="630"/>
    <line x1="1000" y1="0" x2="1000" y2="630"/>
  </g>

  <!-- Primary icon -->
  <g transform="translate(80, 180)">
    <rect x="25" y="0" width="70" height="130" rx="10" fill="url(#accent)" opacity="0.2" stroke="#6366f1" stroke-width="2"/>
    <rect x="32" y="15" width="56" height="85" rx="3" fill="#1e293b"/>
    <circle cx="60" cy="115" r="7" fill="none" stroke="#6366f1" stroke-width="1.5"/>
    <text x="60" y="60" text-anchor="middle" fill="#fecaca" font-family="monospace" font-size="16">CALL</text>
  </g>

  <!-- Secondary icon -->
  <g transform="translate(80, 380)">
    <path d="M90 120 L30 120 C13 120 0 107 0 90 C0 75 10 63 24 60 C24 35 45 15 70 15 C92 15 110 30 115 50 C128 52 138 63 138 78 C138 95 125 108 108 108" fill="none" stroke="#ef4444" stroke-width="2.5"/>
    <path d="M50 75 L65 90 L90 60" fill="none" stroke="#94a3b8" stroke-width="3"/>
  </g>

  <!-- Main title area -->
  <g transform="translate(260, 100)">
    <text x="0" y="0" fill="#f8fafc" font-family="Arial, sans-serif" font-size="18" font-weight="bold" letter-spacing="4">TECH SECURITY WEEKLY DIGEST</text>
    <text x="0" y="60" fill="#f8fafc" font-family="Arial, sans-serif" font-size="36" font-weight="bold">Tech Security Weekly Digest ShinyHunters</text>
    <text x="0" y="110" fill="#94a3b8" font-family="Arial, sans-serif" font-size="36" font-weight="300">Vishing Chrome Extension OT Attack</text>
  </g>

  <!-- Date badge -->
  <rect x="260" y="240" width="200" height="36" rx="18" fill="url(#accent)" opacity="0.9"/>
  <text x="360" y="264" text-anchor="middle" fill="white" font-family="Arial, sans-serif" font-size="16" font-weight="bold">January 31, 2026</text>

  <!-- Stats cards -->
  <g transform="translate(260, 310)">
    <rect x="0" y="0" width="200" height="90" rx="8" fill="#1e293b" stroke="#334155" stroke-width="1"/>
    <text x="20" y="30" fill="#f87171" font-family="Arial, sans-serif" font-size="12" font-weight="bold">VISHING</text>
    <text x="20" y="65" fill="#f8fafc" font-family="Arial, sans-serif" font-size="28" font-weight="bold">Vishing</text>
    <text x="20" y="80" fill="#64748b" font-family="Arial, sans-serif" font-size="13">analysis</text>
    <rect x="220" y="0" width="200" height="90" rx="8" fill="#1e293b" stroke="#334155" stroke-width="1"/>
    <text x="240" y="30" fill="#06b6d4" font-family="Arial, sans-serif" font-size="12" font-weight="bold">CLOUD</text>
    <text x="240" y="65" fill="#f8fafc" font-family="Arial, sans-serif" font-size="28" font-weight="bold">Cloud</text>
    <text x="240" y="80" fill="#64748b" font-family="Arial, sans-serif" font-size="13">analysis</text>
    <rect x="440" y="0" width="200" height="90" rx="8" fill="#1e293b" stroke="#334155" stroke-width="1"/>
    <text x="460" y="30" fill="#8b5cf6" font-family="Arial, sans-serif" font-size="12" font-weight="bold">DEVSECOPS</text>
    <text x="460" y="65" fill="#f8fafc" font-family="Arial, sans-serif" font-size="28" font-weight="bold">DevSecOps</text>
    <text x="460" y="80" fill="#64748b" font-family="Arial, sans-serif" font-size="13">analysis</text>
  </g>

  <!-- Key topics -->
  <g transform="translate(260, 440)">
    <rect x="0" y="0" width="93" height="32" rx="16" fill="#991b1b" opacity="0.7"/>
    <text x="46" y="21" text-anchor="middle" fill="#fca5a5" font-family="Arial, sans-serif" font-size="13">Vishing</text>
    <rect x="108" y="0" width="75" height="32" rx="16" fill="#7c2d12" opacity="0.7"/>
    <text x="145" y="21" text-anchor="middle" fill="#fdba74" font-family="Arial, sans-serif" font-size="13">Cloud</text>
    <rect x="198" y="0" width="111" height="32" rx="16" fill="#312e81" opacity="0.7"/>
    <text x="253" y="21" text-anchor="middle" fill="#a5b4fc" font-family="Arial, sans-serif" font-size="13">DevSecOps</text>
    <rect x="324" y="0" width="102" height="32" rx="16" fill="#064e3b" opacity="0.7"/>
    <text x="375" y="21" text-anchor="middle" fill="#6ee7b7" font-family="Arial, sans-serif" font-size="13">Security</text>
  </g>

  <!-- Network visualization -->
  <g transform="translate(900, 180)" opacity="0.4">
    <circle cx="38" cy="34" r="3" fill="#f87171"/>
    <circle cx="131" cy="131" r="4" fill="#fb923c"/>
    <circle cx="192" cy="155" r="5" fill="#818cf8"/>
    <circle cx="75" cy="211" r="6" fill="#34d399"/>
    <circle cx="160" cy="75" r="3" fill="#fbbf24"/>
    <circle cx="171" cy="91" r="4" fill="#f87171"/>
    <circle cx="72" cy="195" r="5" fill="#fb923c"/>
    <circle cx="110" cy="171" r="6" fill="#818cf8"/>
    <circle cx="90" cy="115" r="3" fill="#34d399"/>
    <circle cx="37" cy="151" r="4" fill="#fbbf24"/>
    <line x1="38" y1="34" x2="131" y2="131" stroke="#475569" stroke-width="1"/>
    <line x1="131" y1="131" x2="192" y2="155" stroke="#475569" stroke-width="1"/>
    <line x1="192" y1="155" x2="75" y2="211" stroke="#475569" stroke-width="1"/>
    <line x1="75" y1="211" x2="160" y2="75" stroke="#475569" stroke-width="1"/>
    <line x1="160" y1="75" x2="171" y2="91" stroke="#475569" stroke-width="1"/>
    <line x1="171" y1="91" x2="72" y2="195" stroke="#475569" stroke-width="1"/>
    <line x1="72" y1="195" x2="110" y2="171" stroke="#475569" stroke-width="1"/>
    <line x1="110" y1="171" x2="90" y2="115" stroke="#475569" stroke-width="1"/>
  </g>

  <!-- Bottom bar -->
  <rect x="0" y="510" width="1200" height="120" fill="#0f172a" opacity="0.8"/>
  <rect x="0" y="510" width="1200" height="2" fill="url(#accent)" opacity="0.5"/>

  <!-- Bottom text -->
  <text x="80" y="560" fill="#94a3b8" font-family="Arial, sans-serif" font-size="16">tech.2twodragon.com</text>
  <text x="80" y="590" fill="#64748b" font-family="Arial, sans-serif" font-size="13">DevSecOps Weekly Security Intelligence</text>

  <!-- Bottom right -->
  <text x="1120" y="560" text-anchor="end" fill="#64748b" font-family="Arial, sans-serif" font-size="14">12 curated articles</text>
  <text x="1120" y="590" text-anchor="end" fill="#64748b" font-family="Arial, sans-serif" font-size="13">Vishing | Cloud | DevSecOps | Security</text>
</svg>
