<svg viewBox="0 0 1200 630" width="1200" height="630" xmlns="http://www.w3.org/2000/svg">
  <defs>
    <linearGradient id="bgGrad" x1="0%" y1="0%" x2="100%" y2="100%">
      <stop offset="0%" style="stop-color:#0a0c1a"/>
      <stop offset="100%" style="stop-color:#1a0a0a"/>
    </linearGradient>
    <linearGradient id="accentBar" x1="0%" y1="0%" x2="0%" y2="100%">
      <stop offset="0%" style="stop-color:#ff4444"/>
      <stop offset="50%" style="stop-color:#ff8800"/>
      <stop offset="100%" style="stop-color:#4488ff"/>
    </linearGradient>
    <linearGradient id="accentLine" x1="0%" y1="0%" x2="100%" y2="0%">
      <stop offset="0%" style="stop-color:#ff4444"/>
      <stop offset="100%" style="stop-color:transparent"/>
    </linearGradient>
    <linearGradient id="badgeGrad" x1="0%" y1="0%" x2="100%" y2="0%">
      <stop offset="0%" style="stop-color:#ff2222;stop-opacity:0.25"/>
      <stop offset="100%" style="stop-color:#440000;stop-opacity:0.15"/>
    </linearGradient>
  </defs>

  <!-- Background -->
  <rect width="1200" height="630" fill="url(#bgGrad)"/>

  <!-- Grid lines horizontal -->
  <line x1="0" y1="105" x2="1200" y2="105" stroke="rgba(255,255,255,0.03)" stroke-width="1"/>
  <line x1="0" y1="210" x2="1200" y2="210" stroke="rgba(255,255,255,0.04)" stroke-width="1"/>
  <line x1="0" y1="315" x2="1200" y2="315" stroke="rgba(255,255,255,0.03)" stroke-width="1"/>
  <line x1="0" y1="420" x2="1200" y2="420" stroke="rgba(255,255,255,0.04)" stroke-width="1"/>

  <!-- Grid lines vertical -->
  <line x1="240" y1="0" x2="240" y2="630" stroke="rgba(255,255,255,0.03)" stroke-width="1"/>
  <line x1="480" y1="0" x2="480" y2="630" stroke="rgba(255,255,255,0.04)" stroke-width="1"/>
  <line x1="720" y1="0" x2="720" y2="630" stroke="rgba(255,255,255,0.03)" stroke-width="1"/>
  <line x1="960" y1="0" x2="960" y2="630" stroke="rgba(255,255,255,0.04)" stroke-width="1"/>

  <!-- RIGHT SIDE ILLUSTRATION: Security Shield with Docker/AI/Go layers -->
  <!-- Outer shield shape -->
  <path d="M1010,145 L1100,170 L1100,250 Q1100,310 1010,335 Q920,310 920,250 L920,170 Z"
        fill="rgba(255,68,68,0.07)" stroke="rgba(255,68,68,0.28)" stroke-width="1.5"/>
  <!-- Inner shield -->
  <path d="M1010,165 L1085,186 L1085,252 Q1085,300 1010,318 Q935,300 935,252 L935,186 Z"
        fill="rgba(255,100,50,0.06)" stroke="rgba(255,120,50,0.22)" stroke-width="1"/>

  <!-- Docker whale body inside shield -->
  <rect x="974" y="225" width="72" height="44" rx="8"
        fill="rgba(0,150,255,0.10)" stroke="rgba(0,180,255,0.35)" stroke-width="1.2"/>
  <!-- Docker container boxes -->
  <rect x="980" y="232" width="16" height="12" rx="2" fill="rgba(0,180,255,0.12)" stroke="rgba(0,200,255,0.4)" stroke-width="1"/>
  <rect x="1000" y="232" width="16" height="12" rx="2" fill="rgba(0,180,255,0.12)" stroke="rgba(0,200,255,0.4)" stroke-width="1"/>
  <rect x="1020" y="232" width="16" height="12" rx="2" fill="rgba(0,200,120,0.12)" stroke="rgba(0,220,140,0.4)" stroke-width="1"/>
  <rect x="980" y="248" width="16" height="12" rx="2" fill="rgba(0,200,120,0.12)" stroke="rgba(0,220,140,0.4)" stroke-width="1"/>
  <rect x="1000" y="248" width="16" height="12" rx="2" fill="rgba(255,140,0,0.12)" stroke="rgba(255,160,0,0.4)" stroke-width="1"/>
  <!-- Docker whale tail -->
  <path d="M1043,225 Q1058,215 1060,222" fill="none" stroke="rgba(0,180,255,0.35)" stroke-width="2"/>
  <!-- Docker spout -->
  <rect x="1050" y="210" width="6" height="14" rx="3" fill="rgba(0,180,255,0.10)" stroke="rgba(0,200,255,0.3)" stroke-width="1"/>

  <!-- AI neural nodes around shield -->
  <circle cx="890" cy="185" r="10" fill="rgba(180,80,255,0.08)" stroke="rgba(180,80,255,0.35)" stroke-width="1.2"/>
  <circle cx="1130" cy="195" r="10" fill="rgba(180,80,255,0.08)" stroke="rgba(180,80,255,0.35)" stroke-width="1.2"/>
  <circle cx="875" cy="280" r="8" fill="rgba(180,80,255,0.06)" stroke="rgba(180,80,255,0.28)" stroke-width="1"/>
  <circle cx="1145" cy="270" r="8" fill="rgba(180,80,255,0.06)" stroke="rgba(180,80,255,0.28)" stroke-width="1"/>
  <!-- Neural connections -->
  <line x1="890" y1="185" x2="920" y2="200" stroke="rgba(180,80,255,0.2)" stroke-width="1"/>
  <line x1="1130" y1="195" x2="1100" y2="205" stroke="rgba(180,80,255,0.2)" stroke-width="1"/>
  <line x1="875" y1="280" x2="920" y2="265" stroke="rgba(180,80,255,0.18)" stroke-width="1"/>
  <line x1="1145" y1="270" x2="1100" y2="262" stroke="rgba(180,80,255,0.18)" stroke-width="1"/>
  <circle cx="1010" cy="178" r="6" fill="rgba(180,80,255,0.10)" stroke="rgba(200,100,255,0.4)" stroke-width="1"/>
  <!-- AI node center -->
  <line x1="890" y1="185" x2="1010" y2="178" stroke="rgba(180,80,255,0.12)" stroke-width="0.8"/>
  <line x1="1130" y1="195" x2="1010" y2="178" stroke="rgba(180,80,255,0.12)" stroke-width="0.8"/>

  <!-- Go gopher eye hint - small gopher circles -->
  <circle cx="993" cy="197" r="7" fill="rgba(0,180,150,0.08)" stroke="rgba(0,200,170,0.30)" stroke-width="1"/>
  <circle cx="1027" cy="197" r="7" fill="rgba(0,180,150,0.08)" stroke="rgba(0,200,170,0.30)" stroke-width="1"/>
  <circle cx="993" cy="197" r="3" fill="rgba(0,200,170,0.15)"/>
  <circle cx="1027" cy="197" r="3" fill="rgba(0,200,170,0.15)"/>
  <!-- Go antenna -->
  <line x1="1010" y1="178" x2="1003" y2="188" stroke="rgba(0,200,170,0.25)" stroke-width="1.2"/>
  <line x1="1010" y1="178" x2="1017" y2="188" stroke="rgba(0,200,170,0.25)" stroke-width="1.2"/>
  <circle cx="1010" cy="178" r="3" fill="rgba(0,200,170,0.20)" stroke="rgba(0,220,180,0.4)" stroke-width="1"/>

  <!-- Security lock below shield -->
  <rect x="992" y="295" width="36" height="28" rx="5" fill="rgba(255,200,0,0.07)" stroke="rgba(255,200,0,0.28)" stroke-width="1.2"/>
  <path d="M998,295 Q998,278 1010,278 Q1022,278 1022,295" fill="none" stroke="rgba(255,200,0,0.30)" stroke-width="1.5"/>
  <circle cx="1010" cy="310" r="4" fill="rgba(255,200,0,0.15)" stroke="rgba(255,220,0,0.4)" stroke-width="1"/>
  <rect x="1009" y="310" width="2" height="7" rx="1" fill="rgba(255,200,0,0.25)"/>

  <!-- Orbiting data dots around illustration -->
  <circle cx="950" cy="155" r="3" fill="rgba(255,100,100,0.30)"/>
  <circle cx="1075" cy="145" r="2" fill="rgba(100,180,255,0.35)"/>
  <circle cx="1115" cy="240" r="3" fill="rgba(0,200,170,0.30)"/>
  <circle cx="950" cy="325" r="2" fill="rgba(255,200,0,0.30)"/>
  <circle cx="1070" cy="335" r="3" fill="rgba(180,80,255,0.30)"/>

  <!-- Alert dots -->
  <circle cx="870" cy="400" r="4" fill="rgba(255,80,80,0.65)"/>
  <circle cx="900" cy="420" r="4" fill="rgba(255,140,0,0.65)"/>
  <circle cx="860" cy="440" r="4" fill="rgba(80,160,255,0.65)"/>

  <!-- Background large circles -->
  <circle cx="1050" cy="450" r="200" fill="none" stroke="rgba(255,255,255,0.025)" stroke-width="1"/>
  <circle cx="1050" cy="450" r="140" fill="none" stroke="rgba(255,255,255,0.025)" stroke-width="1"/>

  <!-- Left accent bar -->
  <rect x="0" y="0" width="6" height="630" fill="url(#accentBar)"/>

  <!-- Date badge -->
  <rect x="80" y="60" width="220" height="32" rx="4" fill="url(#badgeGrad)" stroke="rgba(255,60,60,0.25)" stroke-width="1"/>
  <text x="92" y="81" font-family="'Courier New',monospace" font-size="12" font-weight="600" fill="rgba(255,150,150,0.90)" letter-spacing="1.5">FEBRUARY 4, 2026</text>

  <!-- Title line 1 -->
  <text x="80" y="185" font-family="'Arial',sans-serif" font-size="46" font-weight="700" fill="white">Tech Security Weekly Digest</text>

  <!-- Title line 2 -->
  <text x="80" y="245" font-family="'Arial',sans-serif" font-size="46" font-weight="700" fill="white">AI Docker Data Go</text>

  <!-- Subtitle -->
  <text x="80" y="300" font-family="'Arial',sans-serif" font-size="19" fill="rgba(220,180,180,0.80)">Security · AI · Container · Data Engineering</text>

  <!-- Accent line -->
  <rect x="80" y="325" width="420" height="3" rx="1" fill="url(#accentLine)"/>

  <!-- Category label -->
  <text x="80" y="370" font-family="'Arial',sans-serif" font-size="14" font-weight="600" fill="rgba(255,80,80,0.75)" letter-spacing="2.5">SECURITY</text>

  <!-- Tag pills -->
  <rect x="80" y="400" width="120" height="36" rx="18" fill="rgba(255,50,50,0.15)" stroke="rgba(255,80,80,0.40)" stroke-width="1"/>
  <text x="140" y="423" font-family="'Arial',sans-serif" font-size="13" font-weight="600" fill="rgba(255,130,130,0.95)" text-anchor="middle">#Docker</text>

  <rect x="214" y="400" width="110" height="36" rx="18" fill="rgba(255,160,0,0.12)" stroke="rgba(255,180,0,0.38)" stroke-width="1"/>
  <text x="269" y="423" font-family="'Arial',sans-serif" font-size="13" font-weight="600" fill="rgba(255,200,80,0.95)" text-anchor="middle">#GoLang</text>

  <rect x="338" y="400" width="100" height="36" rx="18" fill="rgba(40,120,255,0.12)" stroke="rgba(80,150,255,0.38)" stroke-width="1"/>
  <text x="388" y="423" font-family="'Arial',sans-serif" font-size="13" font-weight="600" fill="rgba(120,180,255,0.95)" text-anchor="middle">#AI/ML</text>

  <!-- Footer -->
  <text x="80" y="545" font-family="'Courier New',monospace" font-size="13" fill="rgba(255,255,255,0.35)" letter-spacing="0.5">tech.2twodragon.com</text>
  <text x="1120" y="545" font-family="'Arial',sans-serif" font-size="13" font-weight="600" fill="rgba(255,80,80,0.50)" text-anchor="end" letter-spacing="1">SECURITY</text>
</svg>