<svg xmlns="http://www.w3.org/2000/svg" width="1200" height="630" viewBox="0 0 1200 630">
  <defs>
    <linearGradient id="bg" x1="0%" y1="0%" x2="100%" y2="100%">
      <stop offset="0%" stop-color="#0a0e1a"/>
      <stop offset="60%" stop-color="#0f1628"/>
      <stop offset="100%" stop-color="#141b2d"/>
    </linearGradient>
    <linearGradient id="hg" x1="0%" y1="0%" x2="100%" y2="0%">
      <stop offset="0%" stop-color="#1e293b"/>
      <stop offset="100%" stop-color="#0f172a"/>
    </linearGradient>
    <filter id="glow" x="-50%" y="-50%" width="200%" height="200%">
      <feGaussianBlur stdDeviation="18"/>
    </filter>
  </defs>
  <rect width="1200" height="630" fill="url(#bg)"/>
  <g opacity="0.04" stroke="#94a3b8" stroke-width="0.5">
    <line x1="0" y1="105" x2="1200" y2="105"/><line x1="0" y1="210" x2="1200" y2="210"/>
    <line x1="0" y1="315" x2="1200" y2="315"/><line x1="0" y1="420" x2="1200" y2="420"/>
    <line x1="0" y1="525" x2="1200" y2="525"/>
    <line x1="240" y1="0" x2="240" y2="630"/><line x1="480" y1="0" x2="480" y2="630"/>
    <line x1="720" y1="0" x2="720" y2="630"/><line x1="960" y1="0" x2="960" y2="630"/>
  </g>
  <circle cx="600" cy="320" r="260" fill="#3b82f6" opacity="0.05" filter="url(#glow)"/>

  <!-- Shared header frame -->
  <rect x="0" y="0" width="1200" height="80" fill="url(#hg)" opacity="0.9"/>
  <rect x="0" y="78" width="1200" height="2" fill="#334155" opacity="0.8"/>
  <g transform="translate(48,40)">
    <path d="M0,-22 L18,-12 L18,3 C18,13 10,20 0,24 C-10,20 -18,13 -18,3 L-18,-12 Z" fill="#1e3a5f" stroke="#3b82f6" stroke-width="1.5"/>
    <path d="M-7,1 L-2,6 L8,-5" stroke="#3b82f6" stroke-width="2.5" fill="none" stroke-linecap="round"/>
  </g>
  <text x="80" y="42" font-family="Arial,sans-serif" font-size="26" font-weight="700" fill="#f1f5f9">Tutorial Guide</text>
  <text x="80" y="62" font-family="Arial,sans-serif" font-size="13" fill="#94a3b8">Hands-on DevSecOps walkthrough</text>
  <rect x="990" y="18" width="178" height="44" rx="6" fill="#1e293b" stroke="#334155" stroke-width="1"/>
  <text x="1079" y="48" font-family="Arial,sans-serif" font-size="15" font-weight="700" fill="#94a3b8" text-anchor="middle">January 14, 2026</text>

  <!-- Pillar 1: AWS CLOUD -->
  <rect x="66" y="120" width="340" height="380" rx="14" fill="#0a1020" stroke="#3b82f6" stroke-width="2"/>
  <rect x="66" y="120" width="340" height="52" rx="14" fill="#3b82f6" opacity="0.18"/>
  <text x="86" y="152" font-family="Arial,sans-serif" font-size="14" font-weight="700" fill="#3b82f6" letter-spacing="3">STEP 01</text>
  <g transform="translate(236,290)">
    <path d="M-16,8 C-24,8 -26,-2 -20,-8 C-18,-18 -6,-22 4,-18 C8,-26 20,-26 24,-16 C30,-16 32,-8 28,0 C26,8 16,8 8,8 Z" fill="none" stroke="#3b82f6" stroke-width="1.8" transform="scale(0.65)"/>
  </g>
  <text x="236" y="380" font-family="Arial,sans-serif" font-size="20" font-weight="700" fill="#3b82f6" text-anchor="middle">AWS CLOUD</text>
  <line x1="106" y1="410" x2="366" y2="410" stroke="#3b82f6" stroke-width="1" opacity="0.4"/>
  <text x="236" y="440" font-family="Arial,sans-serif" font-size="11" fill="#94a3b8" text-anchor="middle">Core concept</text>
  <text x="236" y="460" font-family="Arial,sans-serif" font-size="11" fill="#94a3b8" text-anchor="middle">Practice drills</text>
  <text x="236" y="480" font-family="Arial,sans-serif" font-size="11" fill="#94a3b8" text-anchor="middle">Checklist</text>
  <!-- Pillar 2: SEC OPS -->
  <rect x="430" y="120" width="340" height="380" rx="14" fill="#071a20" stroke="#22d3ee" stroke-width="2"/>
  <rect x="430" y="120" width="340" height="52" rx="14" fill="#22d3ee" opacity="0.18"/>
  <text x="450" y="152" font-family="Arial,sans-serif" font-size="14" font-weight="700" fill="#22d3ee" letter-spacing="3">STEP 02</text>
  <g transform="translate(600,290)">
    <path d="M0,-16 L14,-8 L14,4 C14,12 8,16 0,20 C-8,16 -14,12 -14,4 L-14,-8 Z" fill="none" stroke="#22d3ee" stroke-width="1.8"/>
  </g>
  <text x="600" y="380" font-family="Arial,sans-serif" font-size="20" font-weight="700" fill="#22d3ee" text-anchor="middle">SEC OPS</text>
  <line x1="470" y1="410" x2="730" y2="410" stroke="#22d3ee" stroke-width="1" opacity="0.4"/>
  <text x="600" y="440" font-family="Arial,sans-serif" font-size="11" fill="#94a3b8" text-anchor="middle">Core concept</text>
  <text x="600" y="460" font-family="Arial,sans-serif" font-size="11" fill="#94a3b8" text-anchor="middle">Practice drills</text>
  <text x="600" y="480" font-family="Arial,sans-serif" font-size="11" fill="#94a3b8" text-anchor="middle">Checklist</text>
  <!-- Pillar 3: THREAT INT -->
  <rect x="794" y="120" width="340" height="380" rx="14" fill="#071a10" stroke="#22c55e" stroke-width="2"/>
  <rect x="794" y="120" width="340" height="52" rx="14" fill="#22c55e" opacity="0.18"/>
  <text x="814" y="152" font-family="Arial,sans-serif" font-size="14" font-weight="700" fill="#22c55e" letter-spacing="3">STEP 03</text>
  <g transform="translate(964,290)">
    <path d="M0,-16 L14,-8 L14,4 C14,12 8,16 0,20 C-8,16 -14,12 -14,4 L-14,-8 Z" fill="none" stroke="#22c55e" stroke-width="1.8"/>
  </g>
  <text x="964" y="380" font-family="Arial,sans-serif" font-size="20" font-weight="700" fill="#22c55e" text-anchor="middle">THREAT INT</text>
  <line x1="834" y1="410" x2="1094" y2="410" stroke="#22c55e" stroke-width="1" opacity="0.4"/>
  <text x="964" y="440" font-family="Arial,sans-serif" font-size="11" fill="#94a3b8" text-anchor="middle">Core concept</text>
  <text x="964" y="460" font-family="Arial,sans-serif" font-size="11" fill="#94a3b8" text-anchor="middle">Practice drills</text>
  <text x="964" y="480" font-family="Arial,sans-serif" font-size="11" fill="#94a3b8" text-anchor="middle">Checklist</text>
  <!-- Shared footer frame -->
  <rect x="0" y="540" width="1200" height="90" fill="#080c18" opacity="0.95"/>
  <rect x="0" y="540" width="1200" height="2" fill="#1e293b"/>
  <circle cx="32" cy="580" r="4" fill="#3b82f6" opacity="0.6"/>
  <text x="46" y="585" font-family="Arial,sans-serif" font-size="12" fill="#475569">Tutorial Guide | January 14, 2026</text>
  <text x="1168" y="585" font-family="Arial,sans-serif" font-size="12" fill="#475569" text-anchor="end">tech.2twodragon.com</text>
</svg>