<svg xmlns="http://www.w3.org/2000/svg" viewBox="0 0 1200 630">
  <defs>
    <linearGradient id="bg" x1="0%" y1="0%" x2="100%" y2="100%">
      <stop offset="0%" style="stop-color:#0a0a1a"/><stop offset="100%" style="stop-color:#0a1a2a"/>
    </linearGradient>
    <filter id="glow"><feGaussianBlur stdDeviation="4" result="b"/><feMerge><feMergeNode in="b"/><feMergeNode in="SourceGraphic"/></feMerge></filter>
    <filter id="sg"><feGaussianBlur stdDeviation="30"/></filter>
    <filter id="shadow"><feDropShadow dx="0" dy="4" stdDeviation="8" flood-color="#000" flood-opacity="0.3"/></filter>
  </defs>
  <rect width="1200" height="630" fill="url(#bg)"/>
  <circle cx="600" cy="250" r="280" fill="#f97316" opacity="0.03" filter="url(#sg)"/>
  <g transform="translate(600,230)">
    <!-- WAF firewall wall -->
    <g filter="url(#shadow)">
      <rect x="-30" y="-90" width="60" height="180" rx="8" fill="#1e293b" stroke="#f97316" stroke-width="3"/>
      <!-- Brick pattern -->
      <g opacity="0.15">
        <rect x="-25" y="-82" width="50" height="18" rx="2" fill="#f97316"/>
        <rect x="-25" y="-58" width="22" height="18" rx="2" fill="#f97316"/>
        <rect x="3" y="-58" width="22" height="18" rx="2" fill="#f97316"/>
        <rect x="-25" y="-34" width="50" height="18" rx="2" fill="#f97316"/>
        <rect x="-25" y="-10" width="22" height="18" rx="2" fill="#f97316"/>
        <rect x="3" y="-10" width="22" height="18" rx="2" fill="#f97316"/>
        <rect x="-25" y="14" width="50" height="18" rx="2" fill="#f97316"/>
        <rect x="-25" y="38" width="22" height="18" rx="2" fill="#f97316"/>
        <rect x="3" y="38" width="22" height="18" rx="2" fill="#f97316"/>
        <rect x="-25" y="62" width="50" height="18" rx="2" fill="#f97316"/>
      </g>
      <text x="0" y="5" font-family="Arial,sans-serif" font-size="16" font-weight="bold" fill="#fdba74" text-anchor="middle">WAF</text>
    </g>
    <!-- Left: Threats -->
    <g transform="translate(-130,0)" opacity="0.5">
      <polygon points="-40,-15 -25,0 -40,15" fill="#ef4444" opacity="0.4"/>
      <polygon points="-55,-10 -40,0 -55,10" fill="#ef4444" opacity="0.3"/>
      <polygon points="-70,-8 -58,0 -70,8" fill="#ef4444" opacity="0.2"/>
      <text x="-55" y="35" font-family="Courier New" font-size="8" fill="#fca5a5" text-anchor="middle">SQLi/XSS</text>
    </g>
    <!-- Blocked X marks -->
    <g transform="translate(-55,0)" opacity="0.5">
      <line x1="-8" y1="-8" x2="8" y2="8" stroke="#ef4444" stroke-width="2"/>
      <line x1="8" y1="-8" x2="-8" y2="8" stroke="#ef4444" stroke-width="2"/>
    </g>
    <!-- Right: CloudFront CDN -->
    <g transform="translate(130,0)">
      <g filter="url(#shadow)">
        <circle cx="0" cy="0" r="50" fill="#1e293b" stroke="#3b82f6" stroke-width="2"/>
        <!-- Globe lines -->
        <ellipse cx="0" cy="0" rx="50" ry="20" fill="none" stroke="#3b82f6" stroke-width="1" opacity="0.3"/>
        <ellipse cx="0" cy="0" rx="20" ry="50" fill="none" stroke="#3b82f6" stroke-width="1" opacity="0.3"/>
        <line x1="-50" y1="0" x2="50" y2="0" stroke="#3b82f6" stroke-width="1" opacity="0.3"/>
        <line x1="0" y1="-50" x2="0" y2="50" stroke="#3b82f6" stroke-width="1" opacity="0.3"/>
        <text x="0" y="5" font-family="Arial,sans-serif" font-size="10" font-weight="bold" fill="#93c5fd" text-anchor="middle">CDN</text>
      </g>
      <!-- Edge locations -->
      <circle cx="35" cy="-35" r="4" fill="#22c55e" opacity="0.5"/>
      <circle cx="-30" cy="-40" r="4" fill="#22c55e" opacity="0.5"/>
      <circle cx="40" cy="25" r="4" fill="#22c55e" opacity="0.5"/>
    </g>
    <!-- Arrow WAF -> CDN -->
    <line x1="35" y1="0" x2="75" y2="0" stroke="#22c55e" stroke-width="2" opacity="0.4"/>
    <polygon points="72,-4 80,0 72,4" fill="#22c55e" opacity="0.4"/>
    <!-- W6 badge -->
    <rect x="160" y="-90" width="40" height="20" rx="5" fill="#f97316" opacity="0.2" stroke="#f97316" stroke-width="1"/>
    <text x="180" y="-76" font-family="Courier New" font-size="9" fill="#fdba74" text-anchor="middle">W6</text>
  </g>
  <text x="600" y="500" font-family="Arial,sans-serif" font-size="36" font-weight="bold" fill="white" text-anchor="middle" filter="url(#glow)">AWS WAF + CloudFront</text>
  <text x="600" y="538" font-family="Arial,sans-serif" font-size="16" fill="#94a3b8" text-anchor="middle">Cloud Security 8th | Week 6 | WAF + CDN + GitHub DevSecOps</text>
  <rect x="40" y="25" width="160" height="32" rx="16" fill="#f97316" opacity="0.2" stroke="#f97316" stroke-width="1"/>
  <text x="120" y="47" font-family="Arial,sans-serif" font-size="13" font-weight="bold" fill="#fdba74" text-anchor="middle">CLOUD COURSE</text>
  <rect x="1000" y="25" width="160" height="32" rx="16" fill="#3b82f6" opacity="0.2" stroke="#3b82f6" stroke-width="1"/>
  <text x="1080" y="47" font-family="Arial,sans-serif" font-size="13" font-weight="bold" fill="#93c5fd" text-anchor="middle">Jan 8, 2026</text>
  <text x="1160" y="615" font-family="Arial,sans-serif" font-size="13" fill="#475569" text-anchor="end">tech.2twodragon.com</text>
</svg>