<?xml version="1.0" encoding="UTF-8"?>
<svg xmlns="http://www.w3.org/2000/svg" viewBox="0 0 1200 630" width="1200" height="630">
  <title>docker-ecosystem-2026</title>
  <defs>
    <linearGradient id="bg" x1="0%" y1="0%" x2="100%" y2="100%">
      <stop offset="0%" style="stop-color:#0a1a20" />
      <stop offset="100%" style="stop-color:#153040" />
    </linearGradient>
    <linearGradient id="accent" x1="0%" y1="0%" x2="100%" y2="0%">
      <stop offset="0%" style="stop-color:#2496ed" />
      <stop offset="100%" style="stop-color:#00b894" />
    </linearGradient>
  </defs>
  <rect width="1200" height="630" fill="url(#bg)" />
  <line x1="0" y1="105" x2="1200" y2="105" stroke="rgba(255,255,255,0.04)" stroke-width="1" />
  <line x1="0" y1="210" x2="1200" y2="210" stroke="rgba(255,255,255,0.04)" stroke-width="1" />
  <line x1="0" y1="315" x2="1200" y2="315" stroke="rgba(255,255,255,0.04)" stroke-width="1" />
  <line x1="0" y1="420" x2="1200" y2="420" stroke="rgba(255,255,255,0.04)" stroke-width="1" />
  <line x1="240" y1="0" x2="240" y2="630" stroke="rgba(255,255,255,0.03)" stroke-width="1" />
  <line x1="480" y1="0" x2="480" y2="630" stroke="rgba(255,255,255,0.03)" stroke-width="1" />
  <line x1="720" y1="0" x2="720" y2="630" stroke="rgba(255,255,255,0.03)" stroke-width="1" />
  <line x1="960" y1="0" x2="960" y2="630" stroke="rgba(255,255,255,0.03)" stroke-width="1" />
  <circle cx="1050" cy="450" r="200" fill="rgba(36,150,237,0.06)" />
  <circle cx="1050" cy="450" r="140" fill="rgba(0,184,148,0.06)" />
  
  <ellipse cx="970" cy="320" rx="80" ry="45" fill="rgba(36,150,237,0.2)" stroke="#2496ed" stroke-width="2.5" opacity="0.85" />
  
  <path d="M1025 285 Q1035 260 1030 250" fill="none" stroke="#2496ed" stroke-width="3" opacity="0.6" />
  <ellipse cx="1028" cy="248" rx="8" ry="4" fill="rgba(36,150,237,0.4)" stroke="#2496ed" stroke-width="1.5" />
  
  <rect x="930" y="290" width="24" height="20" rx="2" fill="rgba(0,184,148,0.3)" stroke="#00b894" stroke-width="1.5" />
  <rect x="960" y="290" width="24" height="20" rx="2" fill="rgba(0,184,148,0.3)" stroke="#00b894" stroke-width="1.5" />
  <rect x="990" y="290" width="24" height="20" rx="2" fill="rgba(0,184,148,0.3)" stroke="#00b894" stroke-width="1.5" />
  
  
  <rect x="820" y="220" width="70" height="30" rx="4" fill="rgba(36,150,237,0.12)" stroke="rgba(36,150,237,0.4)" stroke-width="1.5" />
  <rect x="820" y="375" width="70" height="30" rx="4" fill="rgba(0,184,148,0.12)" stroke="rgba(0,184,148,0.4)" stroke-width="1.5" />
  <rect x="1080" y="220" width="70" height="30" rx="4" fill="rgba(36,150,237,0.12)" stroke="rgba(36,150,237,0.4)" stroke-width="1.5" />
  <rect x="1080" y="375" width="70" height="30" rx="4" fill="rgba(0,184,148,0.12)" stroke="rgba(0,184,148,0.4)" stroke-width="1.5" />
  <line x1="890" y1="235" x2="916" y2="295" stroke="rgba(36,150,237,0.25)" stroke-width="1" stroke-dasharray="4,3" />
  <line x1="890" y1="390" x2="916" y2="345" stroke="rgba(0,184,148,0.25)" stroke-width="1" stroke-dasharray="4,3" />
  <line x1="1080" y1="235" x2="1050" y2="295" stroke="rgba(36,150,237,0.25)" stroke-width="1" stroke-dasharray="4,3" />
  <line x1="1080" y1="390" x2="1050" y2="345" stroke="rgba(0,184,148,0.25)" stroke-width="1" stroke-dasharray="4,3" />
  <rect x="0" y="0" width="6" height="630" fill="url(#accent)" />
  <rect x="80" y="44" width="240" height="34" rx="17" fill="rgba(36,150,237,0.15)" stroke="rgba(36,150,237,0.4)" stroke-width="1" />
  <text x="200" y="66" font-family="Arial,sans-serif" font-size="13" fill="#2496ed" text-anchor="middle" letter-spacing="2">JANUARY 24, 2026</text>
  <text x="80" y="185" font-family="Arial,sans-serif" font-size="46" font-weight="700" fill="#ffffff">Docker Ecosystem</text>
  <text x="80" y="245" font-family="Arial,sans-serif" font-size="46" font-weight="700" fill="#ffffff">2026</text>
  <text x="80" y="300" font-family="Arial,sans-serif" font-size="20" fill="rgba(255,255,255,0.7)">BuildKit, Compose, Scout, Hub and container security tools</text>
  <rect x="80" y="320" width="120" height="3" rx="2" fill="url(#accent)" />
  <text x="80" y="370" font-family="Arial,sans-serif" font-size="15" fill="rgba(36,150,237,0.8)" letter-spacing="3">CONTAINER ECOSYSTEM</text>
  <rect x="80" y="400" width="75" height="28" rx="14" fill="rgba(36,150,237,0.15)" stroke="rgba(36,150,237,0.4)" stroke-width="1" />
  <text x="117" y="419" font-family="Arial,sans-serif" font-size="13" fill="#2496ed" text-anchor="middle">Docker</text>
  <rect x="167" y="400" width="100" height="28" rx="14" fill="rgba(0,184,148,0.15)" stroke="rgba(0,184,148,0.4)" stroke-width="1" />
  <text x="217" y="419" font-family="Arial,sans-serif" font-size="13" fill="#00b894" text-anchor="middle">Ecosystem</text>
  <rect x="279" y="400" width="60" height="28" rx="14" fill="rgba(255,255,255,0.08)" stroke="rgba(255,255,255,0.2)" stroke-width="1" />
  <text x="309" y="419" font-family="Arial,sans-serif" font-size="13" fill="rgba(255,255,255,0.7)" text-anchor="middle">2026</text>
  <rect x="0" y="590" width="1200" height="40" fill="rgba(0,0,0,0.3)" />
  <text x="80" y="615" font-family="Arial,sans-serif" font-size="13" fill="rgba(255,255,255,0.5)">tech.2twodragon.com</text>
  <text x="1120" y="615" font-family="Arial,sans-serif" font-size="13" fill="rgba(255,255,255,0.5)" text-anchor="end">DevSecOps</text>
</svg>