<?xml version="1.0" encoding="UTF-8"?>
<svg xmlns="http://www.w3.org/2000/svg" viewBox="0 0 1200 630" width="1200" height="630">
  <title>Tech Security Weekly Digest Security Ransomware Patch AI</title>
  <defs>
    
    <filter id="glassBlur" x="-20%" y="-20%" width="140%" height="140%">
      <feGaussianBlur in="SourceGraphic" stdDeviation="8" result="blur" />
      <feColorMatrix in="blur" type="matrix" values="1 0 0 0 0  0 1 0 0 0  0 0 1 0 0  0 0 0 0.6 0" />
    </filter>
    
    <filter id="glow">
      <feGaussianBlur stdDeviation="6" result="coloredBlur" />
      <feMerge>
        <feMergeNode in="coloredBlur" />
        <feMergeNode in="SourceGraphic" />
      </feMerge>
    </filter>
    
    <filter id="ambientGlow">
      <feGaussianBlur stdDeviation="40" />
    </filter>
    
    <filter id="cardGlow">
      <feGaussianBlur stdDeviation="3" result="blur" />
      <feMerge>
        <feMergeNode in="blur" />
        <feMergeNode in="SourceGraphic" />
      </feMerge>
    </filter>
    
    <linearGradient id="accentLine" x1="0" y1="0" x2="1" y2="0">
      <stop offset="0%" stop-color="#3b82f6" />
      <stop offset="100%" stop-color="#f43f5e" />
    </linearGradient>
    <linearGradient id="cardBorder1" x1="0" y1="0" x2="1" y2="1">
      <stop offset="0%" stop-color="#3b82f6" stop-opacity="0.6" />
      <stop offset="100%" stop-color="#f43f5e" stop-opacity="0.2" />
    </linearGradient>
    <linearGradient id="cardBorder2" x1="1" y1="0" x2="0" y2="1">
      <stop offset="0%" stop-color="#f43f5e" stop-opacity="0.5" />
      <stop offset="100%" stop-color="#3b82f6" stop-opacity="0.15" />
    </linearGradient>
    <linearGradient id="cardBorder3" x1="0.5" y1="0" x2="0.5" y2="1">
      <stop offset="0%" stop-color="#3b82f6" stop-opacity="0.4" />
      <stop offset="100%" stop-color="#8b5cf6" stop-opacity="0.3" />
    </linearGradient>
    <linearGradient id="shieldGrad" x1="0.5" y1="0" x2="0.5" y2="1">
      <stop offset="0%" stop-color="#3b82f6" />
      <stop offset="100%" stop-color="#2563eb" />
    </linearGradient>
    <linearGradient id="lockGrad" x1="0.5" y1="0" x2="0.5" y2="1">
      <stop offset="0%" stop-color="#f43f5e" />
      <stop offset="100%" stop-color="#dc2626" />
    </linearGradient>
    <radialGradient id="orbBlue" cx="50%" cy="50%" r="50%">
      <stop offset="0%" stop-color="#3b82f6" stop-opacity="0.3" />
      <stop offset="100%" stop-color="#3b82f6" stop-opacity="0" />
    </radialGradient>
    <radialGradient id="orbCoral" cx="50%" cy="50%" r="50%">
      <stop offset="0%" stop-color="#f43f5e" stop-opacity="0.25" />
      <stop offset="100%" stop-color="#f43f5e" stop-opacity="0" />
    </radialGradient>
    <radialGradient id="orbPurple" cx="50%" cy="50%" r="50%">
      <stop offset="0%" stop-color="#8b5cf6" stop-opacity="0.2" />
      <stop offset="100%" stop-color="#8b5cf6" stop-opacity="0" />
    </radialGradient>
    
    <pattern id="dotGrid" x="0" y="0" width="30" height="30" patternUnits="userSpaceOnUse">
      <circle cx="15" cy="15" r="0.8" fill="#334155" opacity="0.5" />
    </pattern>
    
    <linearGradient id="pillGrad" x1="0" y1="0" x2="1" y2="0">
      <stop offset="0%" stop-color="#3b82f6" stop-opacity="0.25" />
      <stop offset="100%" stop-color="#f43f5e" stop-opacity="0.25" />
    </linearGradient>
    
    <linearGradient id="tag1" x1="0" y1="0" x2="1" y2="0">
      <stop offset="0%" stop-color="#3b82f6" stop-opacity="0.2" />
      <stop offset="100%" stop-color="#3b82f6" stop-opacity="0.08" />
    </linearGradient>
    <linearGradient id="tag2" x1="0" y1="0" x2="1" y2="0">
      <stop offset="0%" stop-color="#f43f5e" stop-opacity="0.2" />
      <stop offset="100%" stop-color="#f43f5e" stop-opacity="0.08" />
    </linearGradient>
    <linearGradient id="tag3" x1="0" y1="0" x2="1" y2="0">
      <stop offset="0%" stop-color="#8b5cf6" stop-opacity="0.2" />
      <stop offset="100%" stop-color="#8b5cf6" stop-opacity="0.08" />
    </linearGradient>
  </defs>

  
  <rect width="1200" height="630" fill="#0f172a" />
  <rect width="1200" height="630" fill="url(#dotGrid)" />

  
  <ellipse cx="200" cy="150" rx="200" ry="180" fill="url(#orbBlue)" filter="url(#ambientGlow)" />
  <ellipse cx="950" cy="500" rx="250" ry="200" fill="url(#orbCoral)" filter="url(#ambientGlow)" />
  <ellipse cx="700" cy="100" rx="180" ry="150" fill="url(#orbPurple)" filter="url(#ambientGlow)" />
  <ellipse cx="500" cy="580" rx="160" ry="120" fill="url(#orbBlue)" filter="url(#ambientGlow)" opacity="0.5" />

  

  
  <g transform="translate(780, 60)">
    <rect x="0" y="0" width="340" height="200" rx="16" fill="#1e293b" fill-opacity="0.35" stroke="url(#cardBorder3)" stroke-width="1.5" filter="url(#cardGlow)" />
    <rect x="0" y="0" width="340" height="200" rx="16" fill="white" fill-opacity="0.04" />
    
    <g transform="translate(230, 90)">
      <polygon points="40,10 70,60 10,60" fill="none" stroke="#f59e0b" stroke-width="2" opacity="0.7" />
      </g>
    <text x="170" y="170" font-family="Arial, sans-serif" font-size="13" fill="#94a3b8" text-anchor="middle" opacity="0.6">THREAT DETECTION</text>
  </g>

  
  <g transform="translate(680, 140)">
    <rect x="0" y="0" width="380" height="260" rx="16" fill="#1e293b" fill-opacity="0.45" stroke="url(#cardBorder1)" stroke-width="1.5" filter="url(#cardGlow)" />
    <rect x="0" y="0" width="380" height="260" rx="16" fill="white" fill-opacity="0.05" />
    
    <g transform="translate(140, 35)">
      
      <rect x="20" y="65" width="60" height="50" rx="8" fill="url(#lockGrad)" opacity="0.9" />
      
      <path d="M30,65 L30,42 Q30,22 50,22 Q70,22 70,42 L70,65" fill="none" stroke="#f43f5e" stroke-width="6" stroke-linecap="round" opacity="0.85" />
      
      <circle cx="50" cy="85" r="6" fill="#0f172a" opacity="0.8" />
      <rect x="47" y="85" width="6" height="12" rx="2" fill="#0f172a" opacity="0.8" />
      
      <g opacity="0.7">
        <ellipse cx="8" cy="60" rx="12" ry="7" fill="none" stroke="#94a3b8" stroke-width="3" />
        <ellipse cx="-8" cy="72" rx="12" ry="7" fill="none" stroke="#94a3b8" stroke-width="3" />
        <ellipse cx="8" cy="84" rx="12" ry="7" fill="none" stroke="#94a3b8" stroke-width="3" />
        <ellipse cx="-8" cy="96" rx="12" ry="7" fill="none" stroke="#94a3b8" stroke-width="3" />
      </g>
      
      <g opacity="0.7">
        <ellipse cx="92" cy="60" rx="12" ry="7" fill="none" stroke="#94a3b8" stroke-width="3" />
        <ellipse cx="108" cy="72" rx="12" ry="7" fill="none" stroke="#94a3b8" stroke-width="3" />
        <ellipse cx="92" cy="84" rx="12" ry="7" fill="none" stroke="#94a3b8" stroke-width="3" />
        <ellipse cx="108" cy="96" rx="12" ry="7" fill="none" stroke="#94a3b8" stroke-width="3" />
      </g>
    </g>
    
    <text x="190" y="218" font-family="Arial, sans-serif" font-size="12" fill="#94a3b8" text-anchor="middle" letter-spacing="1">MALWARE PROTECTION</text>
    
    <line x1="30" y1="240" x2="350" y2="240" stroke="#334155" stroke-width="0.5" opacity="0.4" />
  </g>

  
  <g transform="translate(730, 340)">
    <rect x="0" y="0" width="400" height="250" rx="16" fill="#1e293b" fill-opacity="0.5" stroke="url(#cardBorder2)" stroke-width="1.5" filter="url(#cardGlow)" />
    <rect x="0" y="0" width="400" height="250" rx="16" fill="white" fill-opacity="0.06" />
    
    <g transform="translate(130, 25)">
      <path d="M70,10 L130,30 L130,85 Q130,130 70,155 Q10,130 10,85 L10,30 Z" fill="url(#shieldGrad)" opacity="0.85" />
      <path d="M70,10 L130,30 L130,85 Q130,130 70,155 Q10,130 10,85 L10,30 Z" fill="none" stroke="#60a5fa" stroke-width="2" opacity="0.6" />
      
      <path d="M70,25 L118,41 L118,83 Q118,120 70,142 Q22,120 22,83 L22,41 Z" fill="white" fill-opacity="0.08" />
      
      <polyline points="45,82 63,100 98,60" fill="none" stroke="white" stroke-width="6" stroke-linecap="round" stroke-linejoin="round" filter="url(#glow)" />
    </g>
    
    <text x="200" y="205" font-family="Arial, sans-serif" font-size="16" fill="#3b82f6" text-anchor="middle" font-weight="600" letter-spacing="2">SECURITY</text>
    </g>

  
  <circle cx="720" cy="200" r="2" fill="#3b82f6" opacity="0.6">
    <animate attributeName="opacity" values="0.6;0.2;0.6" dur="3s" repeatCount="indefinite" />
  </circle>
  <circle cx="770" cy="350" r="1.5" fill="#f43f5e" opacity="0.5">
    <animate attributeName="opacity" values="0.5;0.15;0.5" dur="4s" repeatCount="indefinite" />
  </circle>
  <circle cx="690" cy="450" r="2.5" fill="#8b5cf6" opacity="0.4">
    <animate attributeName="opacity" values="0.4;0.1;0.4" dur="3.5s" repeatCount="indefinite" />
  </circle>
  <circle cx="1100" cy="300" r="1.8" fill="#3b82f6" opacity="0.5">
    <animate attributeName="opacity" values="0.5;0.2;0.5" dur="2.8s" repeatCount="indefinite" />
  </circle>
  <circle cx="850" cy="130" r="1.5" fill="#f43f5e" opacity="0.4">
    <animate attributeName="opacity" values="0.4;0.1;0.4" dur="3.2s" repeatCount="indefinite" />
  </circle>
  <circle cx="1050" cy="500" r="2" fill="#60a5fa" opacity="0.35">
    <animate attributeName="opacity" values="0.35;0.1;0.35" dur="4.2s" repeatCount="indefinite" />
  </circle>
  <circle cx="680" cy="120" r="1.2" fill="#f43f5e" opacity="0.45" />
  <circle cx="1150" cy="180" r="1.8" fill="#8b5cf6" opacity="0.3" />
  <circle cx="750" cy="560" r="1.5" fill="#3b82f6" opacity="0.4" />

  

  
  <g transform="translate(60, 80)">
    <rect x="0" y="0" width="160" height="32" rx="16" fill="url(#pillGrad)" stroke="#3b82f6" stroke-width="0.8" stroke-opacity="0.4" />
    <text x="80" y="21" font-family="Arial, sans-serif" font-size="12" fill="#60a5fa" text-anchor="middle" font-weight="600" letter-spacing="1.5">CYBERSECURITY</text>
  </g>

  
  <text x="60" y="175" font-family="Arial, sans-serif" font-size="44" fill="white" font-weight="bold" letter-spacing="-0.5">Tech Security</text>
  <text x="60" y="228" font-family="Arial, sans-serif" font-size="44" fill="white" font-weight="bold" letter-spacing="-0.5">Weekly</text>
  <text x="60" y="295" font-family="Arial, sans-serif" font-size="36" fill="#94a3b8" font-weight="600" letter-spacing="-0.3">Digest Security</text>
  <text x="60" y="340" font-family="Arial, sans-serif" font-size="36" fill="#94a3b8" font-weight="600" letter-spacing="-0.3">Ransomware</text>

  
  <rect x="60" y="365" width="180" height="3" rx="1.5" fill="url(#accentLine)" />

  
  <g transform="translate(60, 390)">
    <rect x="0" y="0" width="110" height="30" rx="15" fill="url(#tag1)" stroke="#3b82f6" stroke-width="0.6" stroke-opacity="0.4" />
    <rect x="120" y="0" width="115" height="30" rx="15" fill="url(#tag2)" stroke="#f43f5e" stroke-width="0.6" stroke-opacity="0.4" />
    <rect x="245" y="0" width="95" height="30" rx="15" fill="url(#tag3)" stroke="#8b5cf6" stroke-width="0.6" stroke-opacity="0.4" />
    </g>

  
  <text x="60" y="470" font-family="Arial, sans-serif" font-size="13" fill="#64748b" font-weight="500" letter-spacing="2">FEBRUARY 11, 2026</text>

  
  <g transform="translate(60, 560)">
    <line x1="0" y1="0" x2="520" y2="0" stroke="#1e293b" stroke-width="1" />
    <text x="0" y="28" font-family="Arial, sans-serif" font-size="14" fill="#475569" font-weight="500" letter-spacing="0.5">tech.2twodragon.com</text>
    
    <circle cx="200" cy="22" r="2" fill="#3b82f6" opacity="0.4" />
    <circle cx="212" cy="22" r="2" fill="#f43f5e" opacity="0.4" />
    <circle cx="224" cy="22" r="2" fill="#8b5cf6" opacity="0.4" />
  </g>

  
  <line x1="0" y1="1" x2="1200" y2="1" stroke="url(#accentLine)" stroke-width="2" opacity="0.3" />
</svg>