<svg xmlns="http://www.w3.org/2000/svg" viewBox="0 0 1200 630">
  <defs>
    <linearGradient id="bg" x1="0%" y1="0%" x2="100%" y2="100%">
      <stop offset="0%" style="stop-color:#0f0a1a"/>
      <stop offset="100%" style="stop-color:#1a1530"/>
    </linearGradient>
    <linearGradient id="accent" x1="0%" y1="0%" x2="100%" y2="0%">
      <stop offset="0%" style="stop-color:#6c5ce7"/>
      <stop offset="100%" style="stop-color:#00b894"/>
    </linearGradient>
  </defs>
  <rect width="1200" height="630" fill="url(#bg)"/>
  <line x1="0" y1="105" x2="1200" y2="105" stroke="rgba(255,255,255,0.04)" stroke-width="1"/>
  <line x1="0" y1="210" x2="1200" y2="210" stroke="rgba(255,255,255,0.04)" stroke-width="1"/>
  <line x1="0" y1="315" x2="1200" y2="315" stroke="rgba(255,255,255,0.04)" stroke-width="1"/>
  <line x1="0" y1="420" x2="1200" y2="420" stroke="rgba(255,255,255,0.04)" stroke-width="1"/>
  <line x1="240" y1="0" x2="240" y2="630" stroke="rgba(255,255,255,0.03)" stroke-width="1"/>
  <line x1="480" y1="0" x2="480" y2="630" stroke="rgba(255,255,255,0.03)" stroke-width="1"/>
  <line x1="720" y1="0" x2="720" y2="630" stroke="rgba(255,255,255,0.03)" stroke-width="1"/>
  <line x1="960" y1="0" x2="960" y2="630" stroke="rgba(255,255,255,0.03)" stroke-width="1"/>
  <circle cx="1050" cy="450" r="200" fill="rgba(255,255,255,0.02)"/>
  <circle cx="1050" cy="450" r="140" fill="rgba(255,255,255,0.02)"/>
  <!-- Stepping stones path -->
  <ellipse cx="860" cy="460" rx="42" ry="18" fill="rgba(108,92,231,0.22)" stroke="rgba(108,92,231,0.55)" stroke-width="1.8"/>
  <ellipse cx="940" cy="420" rx="42" ry="18" fill="rgba(108,92,231,0.26)" stroke="rgba(108,92,231,0.58)" stroke-width="1.8"/>
  <ellipse cx="1020" cy="385" rx="42" ry="18" fill="rgba(0,184,148,0.22)" stroke="rgba(0,184,148,0.55)" stroke-width="1.8"/>
  <ellipse cx="1100" cy="350" rx="42" ry="18" fill="rgba(0,184,148,0.28)" stroke="rgba(0,184,148,0.6)" stroke-width="1.8"/>
  <!-- Path arrows between stones -->
  <line x1="900" y1="448" x2="904" y2="434" stroke="rgba(108,92,231,0.45)" stroke-width="1.5" stroke-dasharray="4,3"/>
  <line x1="980" y1="411" x2="984" y2="396" stroke="rgba(108,92,231,0.4)" stroke-width="1.5" stroke-dasharray="4,3"/>
  <line x1="1060" y1="376" x2="1064" y2="362" stroke="rgba(0,184,148,0.4)" stroke-width="1.5" stroke-dasharray="4,3"/>
  <!-- Skill badge circles on/above stones -->
  <circle cx="860" cy="440" r="16" fill="rgba(108,92,231,0.35)" stroke="rgba(108,92,231,0.7)" stroke-width="1.5"/>
  <circle cx="940" cy="400" r="16" fill="rgba(108,92,231,0.35)" stroke="rgba(108,92,231,0.7)" stroke-width="1.5"/>
  <circle cx="1020" cy="365" r="16" fill="rgba(0,184,148,0.32)" stroke="rgba(0,184,148,0.68)" stroke-width="1.5"/>
  <circle cx="1100" cy="330" r="16" fill="rgba(0,184,148,0.35)" stroke="rgba(0,184,148,0.7)" stroke-width="1.5"/>
  <!-- Stars in badges -->
  <polygon points="860,433 862,439 869,439 863,443 865,449 860,445 855,449 857,443 851,439 858,439" fill="rgba(108,92,231,0.9)"/>
  <polygon points="940,393 942,399 949,399 943,403 945,409 940,405 935,409 937,403 931,399 938,399" fill="rgba(108,92,231,0.9)"/>
  <polygon points="1020,358 1022,364 1029,364 1023,368 1025,374 1020,370 1015,374 1017,368 1011,364 1018,364" fill="rgba(0,184,148,0.9)"/>
  <polygon points="1100,323 1102,329 1109,329 1103,333 1105,339 1100,335 1095,339 1097,333 1091,329 1098,329" fill="rgba(0,184,148,0.9)"/>
  <rect x="0" y="0" width="6" height="630" fill="url(#accent)"/>
  <rect x="80" y="60" width="210" height="30" rx="4" fill="rgba(108,92,231,0.14)" stroke="rgba(108,92,231,0.38)" stroke-width="1"/>
  <text x="185" y="81" font-family="Arial,sans-serif" font-size="12" fill="rgba(255,255,255,0.72)" text-anchor="middle" letter-spacing="1">JANUARY 10, 2026</text>
  <text x="80" y="185" font-family="Arial,sans-serif" font-size="46" font-weight="700" fill="#ffffff">DevSecOps Learning</text>
  <text x="80" y="245" font-family="Arial,sans-serif" font-size="46" font-weight="700" fill="#ffffff">Path 2026</text>
  <text x="80" y="300" font-family="Arial,sans-serif" font-size="19" fill="rgba(255,255,255,0.65)">Structured skill progression for modern DevSecOps professionals</text>
  <rect x="80" y="325" width="420" height="3" fill="url(#accent)" rx="2"/>
  <text x="80" y="370" font-family="Arial,sans-serif" font-size="14" fill="rgba(255,255,255,0.5)" letter-spacing="2">DEVSECOPS ROADMAP</text>
  <rect x="80" y="402" width="125" height="36" rx="18" fill="rgba(108,92,231,0.14)" stroke="rgba(108,92,231,0.4)" stroke-width="1"/>
  <text x="142" y="425" font-family="Arial,sans-serif" font-size="13" fill="rgba(255,255,255,0.82)" text-anchor="middle">Learning Path</text>
  <rect x="220" y="402" width="115" height="36" rx="18" fill="rgba(0,184,148,0.14)" stroke="rgba(0,184,148,0.4)" stroke-width="1"/>
  <text x="277" y="425" font-family="Arial,sans-serif" font-size="13" fill="rgba(255,255,255,0.82)" text-anchor="middle">DevSecOps</text>
  <rect x="350" y="402" width="72" height="36" rx="18" fill="rgba(255,255,255,0.05)" stroke="rgba(255,255,255,0.2)" stroke-width="1"/>
  <text x="386" y="425" font-family="Arial,sans-serif" font-size="13" fill="rgba(255,255,255,0.82)" text-anchor="middle">2026</text>
  <rect x="0" y="520" width="1200" height="110" fill="rgba(0,0,0,0.3)"/>
  <text x="80" y="545" font-family="Arial,sans-serif" font-size="15" fill="rgba(255,255,255,0.5)">tech.2twodragon.com</text>
  <text x="1120" y="545" font-family="Arial,sans-serif" font-size="13" fill="rgba(255,255,255,0.4)" text-anchor="end">DevSecOps</text>
</svg>
