<svg xmlns="http://www.w3.org/2000/svg" viewBox="0 0 1200 630" width="1200" height="630" role="img" aria-label="Weekly digest cover 2026.03.28: AWS ECS Container Escape, AI Agent Priv Escalation, Harbor Registry Supply">
<!-- profile: high-quality-cover (L20 Hero+2-Card) -->
<title>Weekly digest 2026-03-28: AI agent priv esc, AWS ECS escape, Harbor</title>
<defs><linearGradient id="bgSpread" x1="0%" y1="0%" x2="100%" y2="100%"><stop offset="0%" stop-color="#0B1326"/><stop offset="55%" stop-color="#0D1530"/><stop offset="100%" stop-color="#141034"/></linearGradient><linearGradient id="heroPanel" x1="0%" y1="0%" x2="0%" y2="100%"><stop offset="0%" stop-color="#1A0A08"/><stop offset="100%" stop-color="#110608"/></linearGradient><linearGradient id="heroPanelBlue" x1="0%" y1="0%" x2="0%" y2="100%"><stop offset="0%" stop-color="#0A1A30"/><stop offset="100%" stop-color="#071426"/></linearGradient><linearGradient id="heroPanelAmber" x1="0%" y1="0%" x2="0%" y2="100%"><stop offset="0%" stop-color="#1A1208"/><stop offset="100%" stop-color="#120E06"/></linearGradient><linearGradient id="heroPanelGreen" x1="0%" y1="0%" x2="0%" y2="100%"><stop offset="0%" stop-color="#062012"/><stop offset="100%" stop-color="#04150B"/></linearGradient><linearGradient id="heroPanelPurple" x1="0%" y1="0%" x2="0%" y2="100%"><stop offset="0%" stop-color="#1B0E36"/><stop offset="100%" stop-color="#10081E"/></linearGradient><radialGradient id="hotRed" cx="50%" cy="50%" r="50%"><stop offset="0%" stop-color="#E63946" stop-opacity="0.6"/><stop offset="100%" stop-color="#E63946" stop-opacity="0"/></radialGradient><radialGradient id="hotBlue" cx="50%" cy="50%" r="50%"><stop offset="0%" stop-color="#3A86FF" stop-opacity="0.5"/><stop offset="100%" stop-color="#3A86FF" stop-opacity="0"/></radialGradient><radialGradient id="hotAmber" cx="50%" cy="50%" r="50%"><stop offset="0%" stop-color="#FFB703" stop-opacity="0.45"/><stop offset="100%" stop-color="#FFB703" stop-opacity="0"/></radialGradient><radialGradient id="hotGreen" cx="50%" cy="50%" r="50%"><stop offset="0%" stop-color="#4ADE80" stop-opacity="0.45"/><stop offset="100%" stop-color="#4ADE80" stop-opacity="0"/></radialGradient><radialGradient id="hotPurple" cx="50%" cy="50%" r="50%"><stop offset="0%" stop-color="#A78BFA" stop-opacity="0.45"/><stop offset="100%" stop-color="#A78BFA" stop-opacity="0"/></radialGradient><pattern id="envGrid" x="0" y="0" width="40" height="40" patternUnits="userSpaceOnUse"><circle cx="20" cy="20" r="0.8" fill="#2A3256" opacity="0.55"/></pattern><filter id="softShadow" x="-10%" y="-10%" width="130%" height="130%"><feGaussianBlur in="SourceAlpha" stdDeviation="3"/><feOffset dx="2" dy="4"/><feComponentTransfer><feFuncA type="linear" slope="0.55"/></feComponentTransfer><feMerge><feMergeNode/><feMergeNode in="SourceGraphic"/></feMerge></filter><filter id="textShadow" x="-10%" y="-10%" width="130%" height="130%"><feGaussianBlur in="SourceAlpha" stdDeviation="1.2"/><feOffset dx="1" dy="1.5"/><feComponentTransfer><feFuncA type="linear" slope="0.7"/></feComponentTransfer><feMerge><feMergeNode/><feMergeNode in="SourceGraphic"/></feMerge></filter></defs>
<rect width="1200" height="630" fill="url(#bgSpread)"/>
<rect width="1200" height="630" fill="url(#envGrid)"/>
<circle cx="310" cy="310" r="160" fill="url(#hotRed)"><animate attributeName="opacity" values="0.6;1;0.6" dur="5.8s" repeatCount="indefinite"/></circle><circle cx="950" cy="210" r="120" fill="url(#hotBlue)"><animate attributeName="opacity" values="0.45;0.85;0.45" dur="6.4s" repeatCount="indefinite"/></circle><circle cx="970" cy="480" r="110" fill="url(#hotAmber)"><animate attributeName="opacity" values="0.4;0.75;0.4" dur="7.1s" repeatCount="indefinite"/></circle><g fill="#8FB8FF"><circle cx="180" cy="70" r="1.2"><animate attributeName="opacity" values="0.2;1;0.2" dur="3.4s" repeatCount="indefinite"/></circle><circle cx="440" cy="62" r="1"><animate attributeName="opacity" values="0.2;0.9;0.2" dur="4.2s" repeatCount="indefinite"/></circle><circle cx="740" cy="68" r="1.3"><animate attributeName="opacity" values="0.25;1;0.25" dur="3.9s" repeatCount="indefinite"/></circle><circle cx="1060" cy="74" r="0.9"><animate attributeName="opacity" values="0.2;0.85;0.2" dur="5.1s" repeatCount="indefinite"/></circle><circle cx="90" cy="580" r="1"><animate attributeName="opacity" values="0.15;0.8;0.15" dur="4.7s" repeatCount="indefinite"/></circle><circle cx="550" cy="590" r="0.8"><animate attributeName="opacity" values="0.2;0.75;0.2" dur="3.6s" begin="0.5s" repeatCount="indefinite"/></circle></g>
<rect x="0" y="0" width="1200" height="56" fill="#050813" opacity="0.92"/>
<text x="36" y="36" font-family="Inter, Helvetica, Arial, sans-serif" font-size="18" font-weight="700" fill="#8FB8FF" letter-spacing="2.5">WEEKLY DIGEST</text>
<text x="1164" y="36" font-family="Inter, Helvetica, Arial, sans-serif" font-size="15" font-weight="600" fill="#7DA3D9" letter-spacing="1.5" text-anchor="end">2026.03.28</text>
<rect x="0" y="54" width="1200" height="2" fill="#E63946" opacity="0.85"><animate attributeName="opacity" values="0.4;1;0.4" dur="4.8s" repeatCount="indefinite"/></rect>
<rect x="32" y="80" width="600" height="510" rx="14" ry="14" fill="url(#heroPanel)" stroke="#E63946" stroke-width="1.8" opacity="0.98"/>
<rect x="32" y="80" width="600" height="4" fill="#E63946" opacity="0.85"><animate attributeName="opacity" values="0.5;1;0.5" dur="3.4s" repeatCount="indefinite"/></rect>
<g filter="url(#textShadow)">
<text x="54" y="112" font-family="Inter, Helvetica, Arial, sans-serif" font-size="13" font-weight="700" fill="#F87171" letter-spacing="3">ZERO-DAY  /  01</text>
<text x="54" y="146" font-family="Inter, Helvetica, Arial, sans-serif" font-size="31" font-weight="800" fill="#F8FAFC">AWS ECS Container Escape</text>
<text x="54" y="174" font-family="Inter, Helvetica, Arial, sans-serif" font-size="17" font-weight="500" fill="#FBB6BD">Task role assumed by sibling task via metadata race</text>
</g>
<g transform="translate(332,360)"><g filter="url(#softShadow)"><rect x="-95" y="-110" width="190" height="100" rx="10" fill="#0A1B2E" stroke="#2CCCE4" stroke-width="2"/><g transform="translate(-81,-96)" font-family="Inter, monospace" font-size="9" font-weight="800" fill="#0A1020"><rect x="0" y="48" width="162" height="22" rx="3" fill="#2CCCE4" opacity="0.9"/><rect x="0" y="24" width="162" height="20" rx="3" fill="#2CCCE4" opacity="0.72"/><rect x="0" y="0" width="162" height="20" rx="3" fill="#2CCCE4" opacity="0.55"/><text x="81" y="62" text-anchor="middle">APP LAYER</text><text x="81" y="37" text-anchor="middle">RUNTIME</text><text x="81" y="13" text-anchor="middle">CONTAINER</text></g><text x="0" y="-22" text-anchor="middle" font-family="Inter, monospace" font-size="10" font-weight="700" fill="#2CCCE4">container API</text></g><g transform="translate(-65,-126)" filter="url(#softShadow)"><rect x="0" y="0" width="130" height="16" rx="3" fill="#E63946"><animate attributeName="opacity" values="0.85;1;0.85" dur="1.5s" repeatCount="indefinite"/></rect><text x="65" y="11" text-anchor="middle" font-family="Inter, monospace" font-size="9" font-weight="900" fill="#FFFFFF">BYPASS AUTHZ</text></g><g transform="translate(0,-4)"><path d="M0 0 L0 44" stroke="#E63946" stroke-width="2.4" stroke-dasharray="4 3" fill="none"><animate attributeName="stroke-dashoffset" values="0;-14" dur="1.2s" repeatCount="indefinite"/></path><g fill="#F87171"><circle r="3.2"><animateMotion path="M0 -4 L0 46" dur="2.2s" repeatCount="indefinite"/></circle><circle r="2.4" opacity="0.7"><animateMotion path="M0 -4 L0 46" dur="2.2s" begin="0.7s" repeatCount="indefinite"/></circle></g></g><circle cx="0" cy="40" r="22" fill="#E63946" opacity="0.35"><animate attributeName="r" values="16;28;16" dur="2s" repeatCount="indefinite"/><animate attributeName="opacity" values="0.6;0.2;0.6" dur="2s" repeatCount="indefinite"/></circle><g transform="translate(-95,50)" filter="url(#softShadow)"><rect x="0" y="0" width="190" height="80" rx="10" fill="#1E0A0A" stroke="#E63946" stroke-width="2.2"/><path d="M62 0 L74 18 L86 0" stroke="#E63946" stroke-width="2" fill="none" stroke-linecap="round"><animate attributeName="opacity" values="0.5;1;0.5" dur="1.4s" repeatCount="indefinite"/></path><text x="95" y="32" text-anchor="middle" font-family="Inter, monospace" font-size="14" font-weight="900" fill="#F87171">HOST KERNEL</text><text x="95" y="50" text-anchor="middle" font-family="Inter, monospace" font-size="10" font-weight="700" fill="#FCA5A5">root access achieved</text><g transform="translate(56,58)" font-family="Inter, monospace" font-size="9" font-weight="900" fill="#FFF5F5"><rect x="0" y="0" width="78" height="18" rx="3" fill="#7A0000" stroke="#E63946" stroke-width="1.2"/><text x="39" y="13" text-anchor="middle">uid=0  PWNED</text></g></g></g>
<g transform="translate(54,548)">
<rect x="0" y="0" width="280" height="24" rx="3" fill="#E63946" opacity="0.95"/>
<text x="140" y="17" text-anchor="middle" font-family="Inter, Helvetica, Arial, sans-serif" font-size="12" font-weight="700" fill="#FFFFFF">ENABLE IMDSv2 ONLY</text>
</g>
<text x="350" y="566" font-family="Inter, Helvetica, Arial, sans-serif" font-size="13" font-weight="600" fill="#A5B4C4" font-style="italic">Weekly Digest  /  2026.03.28</text>
<rect x="652" y="80" width="516" height="248" rx="14" ry="14" fill="url(#heroPanelBlue)" stroke="#3A86FF" stroke-width="1.6" opacity="0.97"/>
<rect x="652" y="80" width="516" height="4" fill="#3A86FF" opacity="0.85"><animate attributeName="opacity" values="0.5;1;0.5" dur="4.2s" repeatCount="indefinite"/></rect>
<g filter="url(#textShadow)">
<text x="670" y="110" font-family="Inter, Helvetica, Arial, sans-serif" font-size="12" font-weight="700" fill="#7DA3D9" letter-spacing="3">AI RISK  /  02</text>
<text x="670" y="140" font-family="Inter, Helvetica, Arial, sans-serif" font-size="24" font-weight="800" fill="#F5F7FA">AI Agent Priv Escalation</text>
<text x="670" y="163" font-family="Inter, Helvetica, Arial, sans-serif" font-size="14" font-weight="500" fill="#BFC9D9">Framework tools chain into shell exec via crafted plan</text>
</g>
<g transform="translate(800,230)"><circle cx="-110" cy="0" r="30" fill="#1A1208" stroke="#3A86FF" stroke-width="1.8" filter="url(#softShadow)"><animate attributeName="opacity" values="0.85;1;0.85" dur="3s" repeatCount="indefinite"/></circle><text x="-110" y="-4" text-anchor="middle" font-family="Inter, monospace" font-size="11" font-weight="900" fill="#60A5FA">AI</text><text x="-110" y="10" text-anchor="middle" font-family="Inter, monospace" font-size="8" font-weight="700" fill="#3A86FF">AGENT</text><circle cx="-110" cy="0" r="38" fill="none" stroke="#3A86FF" stroke-width="1"><animate attributeName="r" values="32;46;32" dur="2.2s" repeatCount="indefinite"/><animate attributeName="opacity" values="0.8;0;0.8" dur="2.2s" repeatCount="indefinite"/></circle><g transform="translate(-50,-32)" font-family="Inter, monospace" font-size="8" font-weight="700"><rect x="0" y="0" width="68" height="20" rx="3" fill="#1A1208" stroke="#3A86FF" stroke-width="1"/><text x="34" y="14" text-anchor="middle" fill="#60A5FA">DARK APP</text><rect x="0" y="26" width="68" height="20" rx="3" fill="#1A1208" stroke="#3A86FF" stroke-width="1" opacity="0.85"/><text x="34" y="40" text-anchor="middle" fill="#60A5FA">SHADOW ID</text><rect x="0" y="52" width="68" height="20" rx="3" fill="#1A1208" stroke="#3A86FF" stroke-width="1" opacity="0.7"/><text x="34" y="66" text-anchor="middle" fill="#60A5FA">UNMANAGED</text><line x1="-50" y1="0" x2="0" y2="10" stroke="#3A86FF" stroke-width="0.8" stroke-dasharray="2 2" opacity="0.6"/><line x1="-50" y1="0" x2="0" y2="36" stroke="#3A86FF" stroke-width="0.8" stroke-dasharray="2 2" opacity="0.5"/><line x1="-50" y1="0" x2="0" y2="62" stroke="#3A86FF" stroke-width="0.8" stroke-dasharray="2 2" opacity="0.4"/></g><g transform="translate(60,-40)" filter="url(#softShadow)"><rect x="0" y="0" width="140" height="90" rx="6" fill="#0A0C16" stroke="#E63946" stroke-width="1.4"/><text x="70" y="18" text-anchor="middle" font-family="Inter, monospace" font-size="9" font-weight="800" fill="#F87171">EXPOSED FLEET</text><text x="70" y="32" text-anchor="middle" font-family="Inter, monospace" font-size="8" font-weight="600" fill="#FCA5A5">scaled abuse surface</text><g transform="translate(8,42)" fill="#3A86FF"><rect x="0" y="0" width="14" height="10" rx="2"/><rect x="18" y="0" width="14" height="10" rx="2" opacity="0.85"/><rect x="36" y="0" width="14" height="10" rx="2" opacity="0.7"/><rect x="54" y="0" width="14" height="10" rx="2" opacity="0.55"/><rect x="72" y="0" width="14" height="10" rx="2" opacity="0.4"><animate attributeName="opacity" values="0.2;0.6;0.2" dur="1.4s" repeatCount="indefinite"/></rect><rect x="90" y="0" width="14" height="10" rx="2" opacity="0.25"><animate attributeName="opacity" values="0.1;0.5;0.1" dur="1.8s" begin="0.3s" repeatCount="indefinite"/></rect><rect x="108" y="0" width="14" height="10" rx="2" opacity="0.2"><animate attributeName="opacity" values="0.1;0.4;0.1" dur="2s" begin="0.5s" repeatCount="indefinite"/></rect></g><text x="70" y="74" text-anchor="middle" font-family="Inter, monospace" font-size="8" font-weight="700" fill="#3A86FF">automated abuse vector</text></g></g>
<g transform="translate(1094,168)" filter="url(#softShadow)"><rect x="-68" y="-55" width="140" height="110" rx="10" fill="#071426" stroke="#3A86FF" stroke-width="2"/><text x="2" y="-28" text-anchor="middle" font-family="Inter, Helvetica, Arial, sans-serif" font-size="10" font-weight="700" letter-spacing="2" fill="#7DA3D9">FRAMEWORKS</text><text x="2" y="18" text-anchor="middle" font-family="Inter, Helvetica, Arial, sans-serif" font-size="28" font-weight="900" fill="#F5F7FA">3</text><text x="2" y="40" text-anchor="middle" font-family="Inter, Helvetica, Arial, sans-serif" font-size="10" font-weight="600" fill="#BFC9D9">popular AI libs</text></g>
<rect x="652" y="344" width="516" height="246" rx="14" ry="14" fill="url(#heroPanelAmber)" stroke="#FFB703" stroke-width="1.6" opacity="0.97"/>
<rect x="652" y="344" width="516" height="4" fill="#FFB703" opacity="0.85"><animate attributeName="opacity" values="0.5;1;0.5" dur="4.8s" repeatCount="indefinite"/></rect>
<g filter="url(#textShadow)">
<text x="670" y="374" font-family="Inter, Helvetica, Arial, sans-serif" font-size="12" font-weight="700" fill="#FFB703" letter-spacing="3">REGISTRY  /  03</text>
<text x="670" y="404" font-family="Inter, Helvetica, Arial, sans-serif" font-size="24" font-weight="800" fill="#F5F7FA">Harbor Registry Supply</text>
<text x="670" y="428" font-family="Inter, Helvetica, Arial, sans-serif" font-size="14" font-weight="500" fill="#FFD58A">Replication race lets unsigned image overwrite trusted tag</text>
</g>
<g transform="translate(800,490)" font-family="Inter, monospace" font-weight="800"><g transform="translate(-200,-30)"><rect x="0" y="0" width="80" height="60" rx="6" fill="#0A1628" stroke="#3A86FF" stroke-width="1.4"/><text x="40" y="22" text-anchor="middle" font-size="10" fill="#8FB8FF">SOURCE</text><text x="40" y="40" text-anchor="middle" font-size="8" font-weight="600" fill="#BFC9D9">git repo</text><text x="40" y="52" text-anchor="middle" font-size="8" font-weight="600" fill="#BFC9D9">commits</text></g><g transform="translate(-100,-30)"><rect x="0" y="0" width="80" height="60" rx="6" fill="#1E1805" stroke="#FFB703" stroke-width="2"><animate attributeName="stroke-opacity" values="0.6;1;0.6" dur="1.8s" repeatCount="indefinite"/></rect><text x="40" y="22" text-anchor="middle" font-size="10" fill="#FFD58A">CI / BUILD</text><text x="40" y="40" text-anchor="middle" font-size="8" font-weight="600" fill="#FFB703">poisoned step</text><circle cx="68" cy="12" r="5" fill="#E63946"><animate attributeName="opacity" values="0.4;1;0.4" dur="1.2s" repeatCount="indefinite"/></circle></g><g transform="translate(0,-30)"><rect x="0" y="0" width="80" height="60" rx="6" fill="#0A1B2E" stroke="#2CCCE4" stroke-width="1.4"/><text x="40" y="22" text-anchor="middle" font-size="10" fill="#2CCCE4">REGISTRY</text><text x="40" y="40" text-anchor="middle" font-size="8" font-weight="600" fill="#7ED4E5">images</text><text x="40" y="52" text-anchor="middle" font-size="8" font-weight="600" fill="#7ED4E5">artifacts</text></g><g transform="translate(100,-30)"><rect x="0" y="0" width="80" height="60" rx="6" fill="#062012" stroke="#4ADE80" stroke-width="1.4"/><text x="40" y="22" text-anchor="middle" font-size="10" fill="#4ADE80">DEPLOY</text><text x="40" y="40" text-anchor="middle" font-size="8" font-weight="600" fill="#86EFAC">prod cluster</text><text x="40" y="52" text-anchor="middle" font-size="8" font-weight="600" fill="#86EFAC">tainted</text></g><g stroke="#FFB703" stroke-width="2" fill="none" stroke-linecap="round"><path d="M-120 0 L-100 0" stroke-dasharray="3 2"><animate attributeName="stroke-dashoffset" values="0;-10" dur="1s" repeatCount="indefinite"/></path><path d="M-20 0 L0 0" stroke-dasharray="3 2"><animate attributeName="stroke-dashoffset" values="0;-10" dur="1s" repeatCount="indefinite"/></path><path d="M80 0 L100 0" stroke-dasharray="3 2"><animate attributeName="stroke-dashoffset" values="0;-10" dur="1s" repeatCount="indefinite"/></path></g><g fill="#FFD58A"><circle r="2.4"><animateMotion path="M-120 0 L100 0" dur="3.6s" repeatCount="indefinite"/></circle><circle r="2" opacity="0.7"><animateMotion path="M-120 0 L100 0" dur="3.6s" begin="1.2s" repeatCount="indefinite"/></circle></g><text x="0" y="56" text-anchor="middle" font-family="Inter, Helvetica, Arial, sans-serif" font-size="10" font-weight="700" fill="#FFB703" letter-spacing="2">SUPPLY-CHAIN POISON</text></g>
<g transform="translate(1094,452)" filter="url(#softShadow)"><rect x="-68" y="-55" width="140" height="110" rx="10" fill="#1A1208" stroke="#FFB703" stroke-width="2"/><text x="2" y="-28" text-anchor="middle" font-family="Inter, Helvetica, Arial, sans-serif" font-size="10" font-weight="700" letter-spacing="2" fill="#FFB703">VERSION</text><text x="2" y="18" text-anchor="middle" font-family="Inter, Helvetica, Arial, sans-serif" font-size="28" font-weight="900" fill="#F5F7FA">2.12</text><text x="2" y="40" text-anchor="middle" font-family="Inter, Helvetica, Arial, sans-serif" font-size="10" font-weight="600" fill="#FFD58A">patch released</text></g>
<g opacity="0.85"><g fill="#F87171"><circle cx="1104" cy="110" r="1.4"><animate attributeName="opacity" values="0.2;1;0.2" dur="1.8s" repeatCount="indefinite"/></circle><circle cx="1124" cy="110" r="1.4"><animate attributeName="opacity" values="0.2;1;0.2" dur="1.4s" begin="0.3s" repeatCount="indefinite"/></circle></g><g fill="#7DA3D9"><circle cx="1104" cy="218" r="1.2"><animate attributeName="opacity" values="0.2;1;0.2" dur="2s" repeatCount="indefinite"/></circle><circle cx="1124" cy="218" r="1.2"><animate attributeName="opacity" values="0.2;1;0.2" dur="1.6s" begin="0.4s" repeatCount="indefinite"/></circle></g><g fill="#FFD58A"><circle cx="1104" cy="374" r="1.4"><animate attributeName="opacity" values="0.2;1;0.2" dur="1.8s" repeatCount="indefinite"/></circle><circle cx="1124" cy="374" r="1.4"><animate attributeName="opacity" values="0.2;1;0.2" dur="1.6s" begin="0.3s" repeatCount="indefinite"/></circle></g><g stroke="#E63946" stroke-width="0.5" fill="none"><path d="M20 230 L28 230"><animate attributeName="stroke-opacity" values="0;0.7;0" dur="2s" repeatCount="indefinite"/></path><path d="M20 300 L28 300"><animate attributeName="stroke-opacity" values="0;0.7;0" dur="2.3s" begin="0.3s" repeatCount="indefinite"/></path><path d="M20 370 L28 370"><animate attributeName="stroke-opacity" values="0;0.7;0" dur="1.9s" begin="0.6s" repeatCount="indefinite"/></path><path d="M20 440 L28 440"><animate attributeName="stroke-opacity" values="0;0.7;0" dur="2.1s" begin="0.9s" repeatCount="indefinite"/></path></g></g>
<g transform="translate(1080,504)" filter="url(#softShadow)">
  <rect x="-8" y="-8" width="100" height="100" rx="6" fill="#FFFFFF"/>
  <path fill="#0A1020" d="M0.0 0.0h14.341v2.049h-14.341z M28.683 0.0h2.049v2.049h-2.049z M34.829 0.0h6.146v2.049h-6.146z M51.22 0.0h6.146v2.049h-6.146z M61.463 0.0h4.098v2.049h-4.098z M69.659 0.0h14.341v2.049h-14.341z M0.0 2.049h2.049v2.049h-2.049z M12.293 2.049h2.049v2.049h-2.049z M20.488 2.049h2.049v2.049h-2.049z M24.585 2.049h6.146v2.049h-6.146z M32.78 2.049h2.049v2.049h-2.049z M36.878 2.049h2.049v2.049h-2.049z M40.976 2.049h8.195v2.049h-8.195z M51.22 2.049h10.244v2.049h-10.244z M65.561 2.049h2.049v2.049h-2.049z M69.659 2.049h2.049v2.049h-2.049z M81.951 2.049h2.049v2.049h-2.049z M0.0 4.098h2.049v2.049h-2.049z M4.098 4.098h6.146v2.049h-6.146z M12.293 4.098h2.049v2.049h-2.049z M18.439 4.098h2.049v2.049h-2.049z M26.634 4.098h2.049v2.049h-2.049z M32.78 4.098h2.049v2.049h-2.049z M36.878 4.098h4.098v2.049h-4.098z M47.122 4.098h2.049v2.049h-2.049z M51.22 4.098h2.049v2.049h-2.049z M59.415 4.098h2.049v2.049h-2.049z M65.561 4.098h2.049v2.049h-2.049z M69.659 4.098h2.049v2.049h-2.049z M73.756 4.098h6.146v2.049h-6.146z M81.951 4.098h2.049v2.049h-2.049z M0.0 6.146h2.049v2.049h-2.049z M4.098 6.146h6.146v2.049h-6.146z M12.293 6.146h2.049v2.049h-2.049z M18.439 6.146h2.049v2.049h-2.049z M24.585 6.146h2.049v2.049h-2.049z M28.683 6.146h16.39v2.049h-16.39z M47.122 6.146h12.293v2.049h-12.293z M61.463 6.146h6.146v2.049h-6.146z M69.659 6.146h2.049v2.049h-2.049z M73.756 6.146h6.146v2.049h-6.146z M81.951 6.146h2.049v2.049h-2.049z M0.0 8.195h2.049v2.049h-2.049z M4.098 8.195h6.146v2.049h-6.146z M12.293 8.195h2.049v2.049h-2.049z M18.439 8.195h2.049v2.049h-2.049z M22.537 8.195h2.049v2.049h-2.049z M26.634 8.195h6.146v2.049h-6.146z M34.829 8.195h6.146v2.049h-6.146z M45.073 8.195h2.049v2.049h-2.049z M51.22 8.195h6.146v2.049h-6.146z M65.561 8.195h2.049v2.049h-2.049z M69.659 8.195h2.049v2.049h-2.049z M73.756 8.195h6.146v2.049h-6.146z M81.951 8.195h2.049v2.049h-2.049z M0.0 10.244h2.049v2.049h-2.049z M12.293 10.244h2.049v2.049h-2.049z M16.39 10.244h6.146v2.049h-6.146z M24.585 10.244h4.098v2.049h-4.098z M34.829 10.244h6.146v2.049h-6.146z M49.171 10.244h2.049v2.049h-2.049z M53.268 10.244h4.098v2.049h-4.098z M61.463 10.244h6.146v2.049h-6.146z M69.659 10.244h2.049v2.049h-2.049z M81.951 10.244h2.049v2.049h-2.049z M0.0 12.293h14.341v2.049h-14.341z M16.39 12.293h2.049v2.049h-2.049z M20.488 12.293h2.049v2.049h-2.049z M24.585 12.293h2.049v2.049h-2.049z M28.683 12.293h2.049v2.049h-2.049z M32.78 12.293h2.049v2.049h-2.049z M36.878 12.293h2.049v2.049h-2.049z M40.976 12.293h2.049v2.049h-2.049z M45.073 12.293h2.049v2.049h-2.049z M49.171 12.293h2.049v2.049h-2.049z M53.268 12.293h2.049v2.049h-2.049z M57.366 12.293h2.049v2.049h-2.049z M61.463 12.293h2.049v2.049h-2.049z M65.561 12.293h2.049v2.049h-2.049z M69.659 12.293h14.341v2.049h-14.341z M18.439 14.341h4.098v2.049h-4.098z M28.683 14.341h2.049v2.049h-2.049z M34.829 14.341h2.049v2.049h-2.049z M38.927 14.341h8.195v2.049h-8.195z M49.171 14.341h2.049v2.049h-2.049z M55.317 14.341h6.146v2.049h-6.146z M63.512 14.341h2.049v2.049h-2.049z M0.0 16.39h2.049v2.049h-2.049z M6.146 16.39h2.049v2.049h-2.049z M10.244 16.39h4.098v2.049h-4.098z M16.39 16.39h2.049v2.049h-2.049z M20.488 16.39h2.049v2.049h-2.049z M24.585 16.39h2.049v2.049h-2.049z M28.683 16.39h2.049v2.049h-2.049z M38.927 16.39h2.049v2.049h-2.049z M43.024 16.39h2.049v2.049h-2.049z M51.22 16.39h4.098v2.049h-4.098z M65.561 16.39h4.098v2.049h-4.098z M71.707 16.39h2.049v2.049h-2.049z M2.049 18.439h2.049v2.049h-2.049z M6.146 18.439h2.049v2.049h-2.049z M14.341 18.439h4.098v2.049h-4.098z M22.537 18.439h8.195v2.049h-8.195z M32.78 18.439h4.098v2.049h-4.098z M43.024 18.439h2.049v2.049h-2.049z M49.171 18.439h6.146v2.049h-6.146z M59.415 18.439h2.049v2.049h-2.049z M65.561 18.439h2.049v2.049h-2.049z M75.805 18.439h4.098v2.049h-4.098z M0.0 20.488h2.049v2.049h-2.049z M4.098 20.488h10.244v2.049h-10.244z M18.439 20.488h4.098v2.049h-4.098z M24.585 20.488h2.049v2.049h-2.049z M28.683 20.488h4.098v2.049h-4.098z M34.829 20.488h8.195v2.049h-8.195z M45.073 20.488h2.049v2.049h-2.049z M49.171 20.488h2.049v2.049h-2.049z M53.268 20.488h2.049v2.049h-2.049z M61.463 20.488h4.098v2.049h-4.098z M71.707 20.488h10.244v2.049h-10.244z M4.098 22.537h8.195v2.049h-8.195z M16.39 22.537h6.146v2.049h-6.146z M26.634 22.537h4.098v2.049h-4.098z M36.878 22.537h2.049v2.049h-2.049z M43.024 22.537h2.049v2.049h-2.049z M49.171 22.537h4.098v2.049h-4.098z M57.366 22.537h2.049v2.049h-2.049z M67.61 22.537h4.098v2.049h-4.098z M73.756 22.537h2.049v2.049h-2.049z M77.854 22.537h4.098v2.049h-4.098z M10.244 24.585h6.146v2.049h-6.146z M22.537 24.585h14.341v2.049h-14.341z M38.927 24.585h2.049v2.049h-2.049z M43.024 24.585h2.049v2.049h-2.049z M49.171 24.585h8.195v2.049h-8.195z M59.415 24.585h14.341v2.049h-14.341z M75.805 24.585h2.049v2.049h-2.049z M79.902 24.585h4.098v2.049h-4.098z M2.049 26.634h2.049v2.049h-2.049z M6.146 26.634h2.049v2.049h-2.049z M10.244 26.634h2.049v2.049h-2.049z M18.439 26.634h12.293v2.049h-12.293z M45.073 26.634h8.195v2.049h-8.195z M55.317 26.634h4.098v2.049h-4.098z M61.463 26.634h8.195v2.049h-8.195z M75.805 26.634h4.098v2.049h-4.098z M0.0 28.683h2.049v2.049h-2.049z M4.098 28.683h2.049v2.049h-2.049z M10.244 28.683h8.195v2.049h-8.195z M20.488 28.683h4.098v2.049h-4.098z M28.683 28.683h2.049v2.049h-2.049z M34.829 28.683h2.049v2.049h-2.049z M40.976 28.683h4.098v2.049h-4.098z M49.171 28.683h2.049v2.049h-2.049z M61.463 28.683h2.049v2.049h-2.049z M69.659 28.683h2.049v2.049h-2.049z M75.805 28.683h8.195v2.049h-8.195z M4.098 30.732h8.195v2.049h-8.195z M16.39 30.732h4.098v2.049h-4.098z M30.732 30.732h6.146v2.049h-6.146z M38.927 30.732h2.049v2.049h-2.049z M43.024 30.732h4.098v2.049h-4.098z M49.171 30.732h8.195v2.049h-8.195z M59.415 30.732h8.195v2.049h-8.195z M69.659 30.732h4.098v2.049h-4.098z M4.098 32.78h10.244v2.049h-10.244z M16.39 32.78h4.098v2.049h-4.098z M24.585 32.78h4.098v2.049h-4.098z M32.78 32.78h4.098v2.049h-4.098z M38.927 32.78h4.098v2.049h-4.098z M45.073 32.78h4.098v2.049h-4.098z M59.415 32.78h2.049v2.049h-2.049z M63.512 32.78h4.098v2.049h-4.098z M71.707 32.78h2.049v2.049h-2.049z M79.902 32.78h2.049v2.049h-2.049z M2.049 34.829h2.049v2.049h-2.049z M10.244 34.829h2.049v2.049h-2.049z M14.341 34.829h2.049v2.049h-2.049z M20.488 34.829h4.098v2.049h-4.098z M26.634 34.829h8.195v2.049h-8.195z M38.927 34.829h2.049v2.049h-2.049z M47.122 34.829h14.341v2.049h-14.341z M69.659 34.829h4.098v2.049h-4.098z M75.805 34.829h8.195v2.049h-8.195z M6.146 36.878h2.049v2.049h-2.049z M12.293 36.878h6.146v2.049h-6.146z M26.634 36.878h2.049v2.049h-2.049z M30.732 36.878h2.049v2.049h-2.049z M36.878 36.878h2.049v2.049h-2.049z M43.024 36.878h2.049v2.049h-2.049z M53.268 36.878h2.049v2.049h-2.049z M61.463 36.878h2.049v2.049h-2.049z M67.61 36.878h4.098v2.049h-4.098z M73.756 36.878h2.049v2.049h-2.049z M81.951 36.878h2.049v2.049h-2.049z M4.098 38.927h2.049v2.049h-2.049z M8.195 38.927h2.049v2.049h-2.049z M20.488 38.927h2.049v2.049h-2.049z M24.585 38.927h2.049v2.049h-2.049z M28.683 38.927h4.098v2.049h-4.098z M34.829 38.927h8.195v2.049h-8.195z M45.073 38.927h2.049v2.049h-2.049z M53.268 38.927h2.049v2.049h-2.049z M59.415 38.927h4.098v2.049h-4.098z M65.561 38.927h8.195v2.049h-8.195z M75.805 38.927h2.049v2.049h-2.049z M81.951 38.927h2.049v2.049h-2.049z M2.049 40.976h2.049v2.049h-2.049z M12.293 40.976h2.049v2.049h-2.049z M16.39 40.976h4.098v2.049h-4.098z M22.537 40.976h8.195v2.049h-8.195z M32.78 40.976h10.244v2.049h-10.244z M47.122 40.976h4.098v2.049h-4.098z M55.317 40.976h2.049v2.049h-2.049z M61.463 40.976h2.049v2.049h-2.049z M65.561 40.976h6.146v2.049h-6.146z M77.854 40.976h4.098v2.049h-4.098z M4.098 43.024h8.195v2.049h-8.195z M14.341 43.024h4.098v2.049h-4.098z M20.488 43.024h2.049v2.049h-2.049z M24.585 43.024h2.049v2.049h-2.049z M32.78 43.024h12.293v2.049h-12.293z M51.22 43.024h4.098v2.049h-4.098z M59.415 43.024h2.049v2.049h-2.049z M69.659 43.024h2.049v2.049h-2.049z M77.854 43.024h6.146v2.049h-6.146z M0.0 45.073h4.098v2.049h-4.098z M8.195 45.073h2.049v2.049h-2.049z M12.293 45.073h10.244v2.049h-10.244z M34.829 45.073h8.195v2.049h-8.195z M49.171 45.073h4.098v2.049h-4.098z M57.366 45.073h2.049v2.049h-2.049z M63.512 45.073h2.049v2.049h-2.049z M67.61 45.073h8.195v2.049h-8.195z M79.902 45.073h2.049v2.049h-2.049z M0.0 47.122h2.049v2.049h-2.049z M4.098 47.122h8.195v2.049h-8.195z M14.341 47.122h6.146v2.049h-6.146z M22.537 47.122h2.049v2.049h-2.049z M26.634 47.122h6.146v2.049h-6.146z M36.878 47.122h10.244v2.049h-10.244z M51.22 47.122h4.098v2.049h-4.098z M57.366 47.122h2.049v2.049h-2.049z M61.463 47.122h2.049v2.049h-2.049z M69.659 47.122h4.098v2.049h-4.098z M77.854 47.122h2.049v2.049h-2.049z M81.951 47.122h2.049v2.049h-2.049z M0.0 49.171h2.049v2.049h-2.049z M4.098 49.171h4.098v2.049h-4.098z M10.244 49.171h4.098v2.049h-4.098z M20.488 49.171h2.049v2.049h-2.049z M24.585 49.171h2.049v2.049h-2.049z M28.683 49.171h8.195v2.049h-8.195z M38.927 49.171h6.146v2.049h-6.146z M47.122 49.171h6.146v2.049h-6.146z M55.317 49.171h6.146v2.049h-6.146z M63.512 49.171h10.244v2.049h-10.244z M75.805 49.171h4.098v2.049h-4.098z M0.0 51.22h2.049v2.049h-2.049z M4.098 51.22h8.195v2.049h-8.195z M18.439 51.22h8.195v2.049h-8.195z M30.732 51.22h2.049v2.049h-2.049z M34.829 51.22h2.049v2.049h-2.049z M38.927 51.22h8.195v2.049h-8.195z M49.171 51.22h6.146v2.049h-6.146z M57.366 51.22h4.098v2.049h-4.098z M63.512 51.22h2.049v2.049h-2.049z M69.659 51.22h2.049v2.049h-2.049z M75.805 51.22h2.049v2.049h-2.049z M79.902 51.22h2.049v2.049h-2.049z M0.0 53.268h2.049v2.049h-2.049z M10.244 53.268h4.098v2.049h-4.098z M16.39 53.268h2.049v2.049h-2.049z M30.732 53.268h6.146v2.049h-6.146z M40.976 53.268h2.049v2.049h-2.049z M47.122 53.268h2.049v2.049h-2.049z M51.22 53.268h4.098v2.049h-4.098z M57.366 53.268h2.049v2.049h-2.049z M61.463 53.268h2.049v2.049h-2.049z M65.561 53.268h4.098v2.049h-4.098z M71.707 53.268h4.098v2.049h-4.098z M79.902 53.268h4.098v2.049h-4.098z M0.0 55.317h2.049v2.049h-2.049z M10.244 55.317h2.049v2.049h-2.049z M14.341 55.317h2.049v2.049h-2.049z M18.439 55.317h2.049v2.049h-2.049z M22.537 55.317h6.146v2.049h-6.146z M30.732 55.317h8.195v2.049h-8.195z M40.976 55.317h6.146v2.049h-6.146z M49.171 55.317h8.195v2.049h-8.195z M59.415 55.317h2.049v2.049h-2.049z M65.561 55.317h2.049v2.049h-2.049z M69.659 55.317h2.049v2.049h-2.049z M0.0 57.366h6.146v2.049h-6.146z M8.195 57.366h6.146v2.049h-6.146z M16.39 57.366h2.049v2.049h-2.049z M20.488 57.366h8.195v2.049h-8.195z M34.829 57.366h2.049v2.049h-2.049z M40.976 57.366h8.195v2.049h-8.195z M53.268 57.366h4.098v2.049h-4.098z M59.415 57.366h4.098v2.049h-4.098z M65.561 57.366h4.098v2.049h-4.098z M71.707 57.366h2.049v2.049h-2.049z M79.902 57.366h2.049v2.049h-2.049z M4.098 59.415h8.195v2.049h-8.195z M14.341 59.415h4.098v2.049h-4.098z M24.585 59.415h6.146v2.049h-6.146z M34.829 59.415h2.049v2.049h-2.049z M38.927 59.415h2.049v2.049h-2.049z M43.024 59.415h2.049v2.049h-2.049z M51.22 59.415h2.049v2.049h-2.049z M55.317 59.415h10.244v2.049h-10.244z M71.707 59.415h2.049v2.049h-2.049z M75.805 59.415h4.098v2.049h-4.098z M81.951 59.415h2.049v2.049h-2.049z M0.0 61.463h2.049v2.049h-2.049z M8.195 61.463h2.049v2.049h-2.049z M12.293 61.463h10.244v2.049h-10.244z M28.683 61.463h8.195v2.049h-8.195z M38.927 61.463h4.098v2.049h-4.098z M45.073 61.463h2.049v2.049h-2.049z M51.22 61.463h2.049v2.049h-2.049z M55.317 61.463h4.098v2.049h-4.098z M71.707 61.463h2.049v2.049h-2.049z M77.854 61.463h6.146v2.049h-6.146z M4.098 63.512h4.098v2.049h-4.098z M10.244 63.512h2.049v2.049h-2.049z M14.341 63.512h2.049v2.049h-2.049z M22.537 63.512h2.049v2.049h-2.049z M28.683 63.512h16.39v2.049h-16.39z M47.122 63.512h2.049v2.049h-2.049z M53.268 63.512h2.049v2.049h-2.049z M59.415 63.512h2.049v2.049h-2.049z M63.512 63.512h6.146v2.049h-6.146z M73.756 63.512h4.098v2.049h-4.098z M0.0 65.561h2.049v2.049h-2.049z M4.098 65.561h4.098v2.049h-4.098z M12.293 65.561h4.098v2.049h-4.098z M18.439 65.561h2.049v2.049h-2.049z M30.732 65.561h2.049v2.049h-2.049z M38.927 65.561h4.098v2.049h-4.098z M47.122 65.561h2.049v2.049h-2.049z M51.22 65.561h6.146v2.049h-6.146z M63.512 65.561h12.293v2.049h-12.293z M77.854 65.561h2.049v2.049h-2.049z M81.951 65.561h2.049v2.049h-2.049z M16.39 67.61h2.049v2.049h-2.049z M24.585 67.61h2.049v2.049h-2.049z M28.683 67.61h6.146v2.049h-6.146z M36.878 67.61h8.195v2.049h-8.195z M49.171 67.61h2.049v2.049h-2.049z M55.317 67.61h4.098v2.049h-4.098z M61.463 67.61h6.146v2.049h-6.146z M73.756 67.61h10.244v2.049h-10.244z M0.0 69.659h14.341v2.049h-14.341z M22.537 69.659h2.049v2.049h-2.049z M26.634 69.659h6.146v2.049h-6.146z M34.829 69.659h2.049v2.049h-2.049z M38.927 69.659h2.049v2.049h-2.049z M57.366 69.659h4.098v2.049h-4.098z M65.561 69.659h2.049v2.049h-2.049z M69.659 69.659h2.049v2.049h-2.049z M73.756 69.659h2.049v2.049h-2.049z M77.854 69.659h4.098v2.049h-4.098z M0.0 71.707h2.049v2.049h-2.049z M12.293 71.707h2.049v2.049h-2.049z M16.39 71.707h2.049v2.049h-2.049z M26.634 71.707h2.049v2.049h-2.049z M32.78 71.707h4.098v2.049h-4.098z M38.927 71.707h8.195v2.049h-8.195z M49.171 71.707h2.049v2.049h-2.049z M53.268 71.707h4.098v2.049h-4.098z M61.463 71.707h2.049v2.049h-2.049z M65.561 71.707h2.049v2.049h-2.049z M73.756 71.707h2.049v2.049h-2.049z M77.854 71.707h2.049v2.049h-2.049z M81.951 71.707h2.049v2.049h-2.049z M0.0 73.756h2.049v2.049h-2.049z M4.098 73.756h6.146v2.049h-6.146z M12.293 73.756h2.049v2.049h-2.049z M20.488 73.756h4.098v2.049h-4.098z M30.732 73.756h2.049v2.049h-2.049z M38.927 73.756h4.098v2.049h-4.098z M45.073 73.756h2.049v2.049h-2.049z M55.317 73.756h4.098v2.049h-4.098z M61.463 73.756h2.049v2.049h-2.049z M65.561 73.756h12.293v2.049h-12.293z M79.902 73.756h2.049v2.049h-2.049z M0.0 75.805h2.049v2.049h-2.049z M4.098 75.805h6.146v2.049h-6.146z M12.293 75.805h2.049v2.049h-2.049z M16.39 75.805h4.098v2.049h-4.098z M30.732 75.805h4.098v2.049h-4.098z M38.927 75.805h6.146v2.049h-6.146z M57.366 75.805h4.098v2.049h-4.098z M63.512 75.805h8.195v2.049h-8.195z M73.756 75.805h2.049v2.049h-2.049z M77.854 75.805h2.049v2.049h-2.049z M81.951 75.805h2.049v2.049h-2.049z M0.0 77.854h2.049v2.049h-2.049z M4.098 77.854h6.146v2.049h-6.146z M12.293 77.854h2.049v2.049h-2.049z M18.439 77.854h6.146v2.049h-6.146z M26.634 77.854h8.195v2.049h-8.195z M36.878 77.854h2.049v2.049h-2.049z M40.976 77.854h4.098v2.049h-4.098z M47.122 77.854h8.195v2.049h-8.195z M57.366 77.854h2.049v2.049h-2.049z M61.463 77.854h4.098v2.049h-4.098z M73.756 77.854h2.049v2.049h-2.049z M77.854 77.854h6.146v2.049h-6.146z M0.0 79.902h2.049v2.049h-2.049z M12.293 79.902h2.049v2.049h-2.049z M20.488 79.902h8.195v2.049h-8.195z M30.732 79.902h8.195v2.049h-8.195z M43.024 79.902h4.098v2.049h-4.098z M51.22 79.902h4.098v2.049h-4.098z M57.366 79.902h12.293v2.049h-12.293z M71.707 79.902h2.049v2.049h-2.049z M79.902 79.902h2.049v2.049h-2.049z M0.0 81.951h14.341v2.049h-14.341z M16.39 81.951h8.195v2.049h-8.195z M26.634 81.951h2.049v2.049h-2.049z M32.78 81.951h2.049v2.049h-2.049z M38.927 81.951h8.195v2.049h-8.195z M49.171 81.951h2.049v2.049h-2.049z M59.415 81.951h2.049v2.049h-2.049z M63.512 81.951h14.341v2.049h-14.341z M79.902 81.951h2.049v2.049h-2.049z"/>
</g>
<text x="1122" y="614" font-family="Inter, Helvetica, Arial, sans-serif" font-size="10" font-weight="700" fill="#F5F7FA" text-anchor="middle">scan / full post</text>
</svg>
