<svg xmlns="http://www.w3.org/2000/svg" viewBox="0 0 1200 630" width="1200" height="630">
  <title>Tech Security Weekly Digest</title>
  <defs>
    <linearGradient id="bg" x1="0%" y1="0%" x2="100%" y2="100%">
      <stop offset="0%" style="stop-color:#0d1520"/>
      <stop offset="100%" style="stop-color:#1a2d42"/>
    </linearGradient>
    <linearGradient id="accent" x1="0%" y1="0%" x2="100%" y2="0%">
      <stop offset="0%" style="stop-color:#2980b9"/>
      <stop offset="100%" style="stop-color:#e74c3c"/>
    </linearGradient>
  </defs>
  <rect width="1200" height="630" fill="url(#bg)"/>
  <line x1="0" y1="105" x2="1200" y2="105" stroke="rgba(255,255,255,0.04)" stroke-width="1"/>
  <line x1="0" y1="210" x2="1200" y2="210" stroke="rgba(255,255,255,0.04)" stroke-width="1"/>
  <line x1="0" y1="315" x2="1200" y2="315" stroke="rgba(255,255,255,0.04)" stroke-width="1"/>
  <line x1="0" y1="420" x2="1200" y2="420" stroke="rgba(255,255,255,0.04)" stroke-width="1"/>
  <line x1="240" y1="0" x2="240" y2="630" stroke="rgba(255,255,255,0.03)" stroke-width="1"/>
  <line x1="480" y1="0" x2="480" y2="630" stroke="rgba(255,255,255,0.03)" stroke-width="1"/>
  <line x1="720" y1="0" x2="720" y2="630" stroke="rgba(255,255,255,0.03)" stroke-width="1"/>
  <line x1="960" y1="0" x2="960" y2="630" stroke="rgba(255,255,255,0.03)" stroke-width="1"/>
  <circle cx="1050" cy="450" r="200" fill="rgba(41,128,185,0.06)"/>
  <circle cx="1050" cy="450" r="140" fill="rgba(231,76,60,0.06)"/>
  <!-- Phishing hook -->
  <path d="M900 220 Q900 290 940 310 Q960 320 970 340" fill="none" stroke="#e74c3c" stroke-width="3" opacity="0.75"/>
  <circle cx="900" cy="215" r="12" fill="none" stroke="#e74c3c" stroke-width="2.5" opacity="0.75"/>
  <path d="M906 222 L910 235" stroke="#e74c3c" stroke-width="2" opacity="0.6"/>
  <!-- Shield defense -->
  <path d="M1060 215 L1100 215 L1110 240 L1080 275 L1050 240 Z" fill="rgba(41,128,185,0.2)" stroke="#2980b9" stroke-width="2.5" opacity="0.8"/>
  <!-- Block arrow from hook to shield -->
  <line x1="982" y1="345" x2="1048" y2="250" stroke="rgba(41,128,185,0.4)" stroke-width="2" stroke-dasharray="6,3"/>
  <polygon points="1048,253 1054,243 1044,245" fill="rgba(41,128,185,0.4)"/>
  <!-- AI label -->
  <circle cx="1080" cy="350" r="25" fill="rgba(108,92,231,0.15)" stroke="#6c5ce7" stroke-width="2"/>
  <rect x="0" y="0" width="6" height="630" fill="url(#accent)"/>
  <rect x="80" y="44" width="240" height="34" rx="17" fill="rgba(41,128,185,0.15)" stroke="rgba(41,128,185,0.4)" stroke-width="1"/>
  <text x="200" y="66" font-family="Arial,sans-serif" font-size="13" fill="#2980b9" text-anchor="middle" letter-spacing="2">JANUARY 23, 2026</text>
  <text x="80" y="185" font-family="Arial,sans-serif" font-size="44" font-weight="700" fill="#ffffff">Microsoft AitM Phishing</text>
  <text x="80" y="245" font-family="Arial,sans-serif" font-size="44" font-weight="700" fill="#ffffff">and AI Zero Trust</text>
  <text x="80" y="300" font-family="Arial,sans-serif" font-size="20" fill="rgba(255,255,255,0.7)">Weekly digest: AitM campaigns and zero-trust for AI systems</text>
  <rect x="80" y="320" width="120" height="3" rx="2" fill="url(#accent)"/>
  <text x="80" y="370" font-family="Arial,sans-serif" font-size="15" fill="rgba(41,128,185,0.8)" letter-spacing="3">SECURITY WEEKLY DIGEST</text>
  <rect x="80" y="400" width="120" height="28" rx="14" fill="rgba(231,76,60,0.15)" stroke="rgba(231,76,60,0.4)" stroke-width="1"/>
  <text x="140" y="419" font-family="Arial,sans-serif" font-size="13" fill="#e74c3c" text-anchor="middle">AitM Phishing</text>
  <rect x="212" y="400" width="95" height="28" rx="14" fill="rgba(41,128,185,0.15)" stroke="rgba(41,128,185,0.4)" stroke-width="1"/>
  <text x="259" y="419" font-family="Arial,sans-serif" font-size="13" fill="#2980b9" text-anchor="middle">Zero Trust</text>
  <rect x="319" y="400" width="50" height="28" rx="14" fill="rgba(255,255,255,0.08)" stroke="rgba(255,255,255,0.2)" stroke-width="1"/>
  <text x="344" y="419" font-family="Arial,sans-serif" font-size="13" fill="rgba(255,255,255,0.7)" text-anchor="middle">AI</text>
  <rect x="0" y="590" width="1200" height="40" fill="rgba(0,0,0,0.3)"/>
  <text x="80" y="615" font-family="Arial,sans-serif" font-size="13" fill="rgba(255,255,255,0.5)">tech.2twodragon.com</text>
  <text x="1120" y="615" font-family="Arial,sans-serif" font-size="13" fill="rgba(255,255,255,0.5)" text-anchor="end">DevSecOps</text>
</svg>
