<svg xmlns="http://www.w3.org/2000/svg" width="1200" height="630" viewBox="0 0 1200 630">
  <title>Security Weekly Digest - April 07 2026</title>
  <defs>
    <linearGradient id="bg" x1="0%" y1="0%" x2="100%" y2="100%">
      <stop offset="0%" stop-color="#0a0e1a"/>
      <stop offset="60%" stop-color="#0f1628"/>
      <stop offset="100%" stop-color="#141b2d"/>
    </linearGradient>
    <linearGradient id="hg" x1="0%" y1="0%" x2="100%" y2="0%">
      <stop offset="0%" stop-color="#1e293b"/>
      <stop offset="100%" stop-color="#0f172a"/>
    </linearGradient>
    <filter id="glow" x="-50%" y="-50%" width="200%" height="200%">
      <feGaussianBlur stdDeviation="18"/>
    </filter>
    <filter id="sg" x="-30%" y="-30%" width="160%" height="160%">
      <feGaussianBlur stdDeviation="8"/>
    </filter>
    <marker id="ar" markerWidth="8" markerHeight="8" refX="4" refY="4" orient="auto">
      <path d="M0,0 L8,4 L0,8 Z" fill="#ef4444" opacity="0.7"/>
    </marker>
    <marker id="ab" markerWidth="8" markerHeight="8" refX="4" refY="4" orient="auto">
      <path d="M0,0 L8,4 L0,8 Z" fill="#f59e0b" opacity="0.7"/>
    </marker>
  </defs>

  <rect width="1200" height="630" fill="url(#bg)"/>

  <!-- Grid -->
  <g opacity="0.04" stroke="#94a3b8" stroke-width="0.5">
    <line x1="0" y1="105" x2="1200" y2="105"/><line x1="0" y1="210" x2="1200" y2="210"/>
    <line x1="0" y1="315" x2="1200" y2="315"/><line x1="0" y1="420" x2="1200" y2="420"/>
    <line x1="0" y1="525" x2="1200" y2="525"/>
    <line x1="240" y1="0" x2="240" y2="630"/><line x1="480" y1="0" x2="480" y2="630"/>
    <line x1="720" y1="0" x2="720" y2="630"/><line x1="960" y1="0" x2="960" y2="630"/>
  </g>

  <!-- Glow orbs -->
  <circle cx="180" cy="250" r="200" fill="#ef4444" opacity="0.06" filter="url(#glow)"/>
  <circle cx="1000" cy="400" r="180" fill="#3b82f6" opacity="0.06" filter="url(#glow)"/>
  <circle cx="600" cy="350" r="160" fill="#f59e0b" opacity="0.04" filter="url(#glow)"/>

  <!-- Header -->
  <rect x="0" y="0" width="1200" height="80" fill="url(#hg)" opacity="0.9"/>
  <rect x="0" y="78" width="1200" height="2" fill="#334155" opacity="0.8"/>
  <g transform="translate(48,40)">
    <path d="M0,-22 L18,-12 L18,3 C18,13 10,20 0,24 C-10,20 -18,13 -18,3 L-18,-12 Z" fill="#1e3a5f" stroke="#3b82f6" stroke-width="1.5"/>
    <path d="M-7,1 L-2,6 L8,-5" stroke="#3b82f6" stroke-width="2.5" fill="none" stroke-linecap="round"/>
  </g>
  <text x="80" y="44" font-family="Arial,sans-serif" font-size="28" font-weight="700" fill="#f1f5f9">Security Weekly Digest</text>
  <rect x="990" y="18" width="178" height="44" rx="6" fill="#1e293b" stroke="#334155" stroke-width="1"/>
  <text x="1079" y="48" font-family="Arial,sans-serif" font-size="15" font-weight="700" fill="#94a3b8" text-anchor="middle">April 07, 2026</text>

  <!-- Card 1: Iran -->
  <rect x="32" y="100" width="215" height="120" rx="8" fill="#1a0f0f" stroke="#ef4444" stroke-width="1.5"/>
  <circle cx="52" cy="120" r="6" fill="#ef4444"/><circle cx="142" cy="160" r="18" fill="none" stroke="#ef4444" stroke-width="1.5" opacity="0.5"/>
  <circle cx="142" cy="160" r="10" fill="none" stroke="#ef4444" stroke-width="1.5" opacity="0.7"/>
  <circle cx="142" cy="160" r="4" fill="#ef4444"/>
  <text x="142" y="195" font-family="Arial,sans-serif" font-size="15" font-weight="700" fill="#ef4444" text-anchor="middle">IRAN ATTACK</text>

  <!-- Card 2: DPRK -->
  <rect x="263" y="100" width="215" height="120" rx="8" fill="#1a0d0d" stroke="#dc2626" stroke-width="1.5"/>
  <circle cx="283" cy="120" r="6" fill="#dc2626"/>
  <rect x="338" y="142" width="44" height="32" rx="6" fill="#1a0f0f" stroke="#dc2626" stroke-width="1.5"/>
  <text x="360" y="163" font-family="Courier New" font-size="12" fill="#dc2626" text-anchor="middle">C2</text>
  <text x="370" y="195" font-family="Arial,sans-serif" font-size="15" font-weight="700" fill="#dc2626" text-anchor="middle">DPRK C2</text>

  <!-- Card 3: REvil -->
  <rect x="494" y="100" width="215" height="120" rx="8" fill="#1a1000" stroke="#f59e0b" stroke-width="1.5"/>
  <circle cx="514" cy="120" r="6" fill="#f59e0b"/>
  <circle cx="588" cy="155" r="12" fill="none" stroke="#f59e0b" stroke-width="2"/><circle cx="612" cy="155" r="12" fill="none" stroke="#f59e0b" stroke-width="2"/>
  <text x="601" y="195" font-family="Arial,sans-serif" font-size="15" font-weight="700" fill="#f59e0b" text-anchor="middle">REVIL IDENTIFIED</text>

  <!-- Card 4: Palantir -->
  <rect x="725" y="100" width="200" height="120" rx="8" fill="#0a1020" stroke="#3b82f6" stroke-width="1.5"/>
  <circle cx="745" cy="120" r="6" fill="#3b82f6"/>
  <rect x="805" y="140" width="24" height="36" rx="4" fill="#0f1f3d" stroke="#3b82f6" stroke-width="1.5"/>
  <text x="825" y="195" font-family="Arial,sans-serif" font-size="15" font-weight="700" fill="#3b82f6" text-anchor="middle">PALANTIR OSDK</text>

  <!-- Card 5: Ironwood -->
  <rect x="941" y="100" width="227" height="120" rx="8" fill="#071a10" stroke="#22c55e" stroke-width="1.5"/>
  <circle cx="961" cy="120" r="6" fill="#22c55e"/>
  <rect x="1032" y="138" width="36" height="36" rx="4" fill="#0a2010" stroke="#22c55e" stroke-width="1.5"/>
  <text x="1054" y="195" font-family="Arial,sans-serif" font-size="15" font-weight="700" fill="#22c55e" text-anchor="middle">IRONWOOD 3.7x</text>

  <!-- Threat map area -->
  <rect x="32" y="240" width="1136" height="220" rx="10" fill="#0c1220" stroke="#1e293b" stroke-width="1"/>

  <!-- World dots -->
  <g opacity="0.25">
    <circle cx="530" cy="320" r="2" fill="#94a3b8"/><circle cx="550" cy="315" r="2" fill="#94a3b8"/>
    <circle cx="565" cy="325" r="2" fill="#94a3b8"/><circle cx="580" cy="318" r="2" fill="#94a3b8"/>
    <circle cx="890" cy="310" r="2" fill="#94a3b8"/><circle cx="910" cy="320" r="2" fill="#94a3b8"/>
    <circle cx="925" cy="330" r="2" fill="#94a3b8"/><circle cx="220" cy="320" r="2" fill="#94a3b8"/>
    <circle cx="240" cy="330" r="2" fill="#94a3b8"/><circle cx="610" cy="305" r="2" fill="#94a3b8"/>
  </g>

  <!-- Node: Iran -->
  <circle cx="160" cy="330" r="22" fill="#1a0505" stroke="#ef4444" stroke-width="2"/>
  <circle cx="160" cy="330" r="7" fill="#ef4444"/>
  <circle cx="160" cy="330" r="22" fill="none" stroke="#ef4444" stroke-width="1" stroke-dasharray="4 3" opacity="0.4">
    <animateTransform attributeName="transform" type="rotate" from="0 160 330" to="360 160 330" dur="8s" repeatCount="indefinite"/>
  </circle>

  <!-- Node: Israel target -->
  <circle cx="440" cy="330" r="20" fill="#1a1000" stroke="#f59e0b" stroke-width="2"/>
  <text x="440" y="335" font-family="Arial,sans-serif" font-size="11" font-weight="700" fill="#f59e0b" text-anchor="middle">300+</text>

  <!-- Iran->Israel arrow -->
  <line x1="182" y1="330" x2="420" y2="330" stroke="#ef4444" stroke-width="2" stroke-dasharray="10 6" opacity="0.6" marker-end="url(#ar)"/>

  <!-- Node: DPRK -->
  <circle cx="850" cy="310" r="22" fill="#1a0505" stroke="#dc2626" stroke-width="2"/>
  <text x="850" y="315" font-family="Arial,sans-serif" font-size="10" font-weight="700" fill="#dc2626" text-anchor="middle">DPRK</text>

  <!-- Node: GitHub C2 -->
  <circle cx="720" cy="370" r="20" fill="#1a1000" stroke="#f59e0b" stroke-width="1.5"/>
  <text x="720" y="375" font-family="Courier New" font-size="10" fill="#f59e0b" text-anchor="middle">C2</text>

  <!-- DPRK->C2 arrow -->
  <line x1="830" y1="325" x2="740" y2="362" stroke="#dc2626" stroke-width="1.5" stroke-dasharray="7 5" opacity="0.6" marker-end="url(#ar)"/>

  <!-- Node: South Korea -->
  <circle cx="600" cy="400" r="18" fill="#1a1000" stroke="#f59e0b" stroke-width="1.5"/>
  <text x="600" y="405" font-family="Arial,sans-serif" font-size="9" fill="#f59e0b" text-anchor="middle">SK</text>
  <line x1="700" y1="380" x2="618" y2="396" stroke="#f59e0b" stroke-width="1.5" stroke-dasharray="6 4" opacity="0.5" marker-end="url(#ab)"/>

  <!-- Node: Germany REvil -->
  <circle cx="560" cy="340" r="20" fill="#1a1000" stroke="#f59e0b" stroke-width="1.5"/>
  <text x="560" y="345" font-family="Arial,sans-serif" font-size="9" fill="#fbbf24" text-anchor="middle">DE</text>

  <!-- Node: Ironwood -->
  <circle cx="1000" cy="360" r="22" fill="#071a10" stroke="#22c55e" stroke-width="2"/>
  <text x="1000" y="365" font-family="Courier New" font-size="10" fill="#22c55e" text-anchor="middle">TPU</text>

  <!-- Footer -->
  <rect x="0" y="472" width="1200" height="158" fill="#080c18" opacity="0.95"/>
  <rect x="0" y="472" width="1200" height="2" fill="#1e293b"/>

  <!-- Tags -->
  <rect x="32" y="490" width="120" height="24" rx="4" fill="#1a0505" stroke="#ef4444" stroke-width="1"/>
  <text x="92" y="506" font-family="Arial,sans-serif" font-size="10" font-weight="700" fill="#ef4444" text-anchor="middle">IRAN ATTACK</text>
  <rect x="164" y="490" width="100" height="24" rx="4" fill="#1a0505" stroke="#dc2626" stroke-width="1"/>
  <text x="214" y="506" font-family="Arial,sans-serif" font-size="10" font-weight="700" fill="#dc2626" text-anchor="middle">DPRK C2</text>
  <rect x="276" y="490" width="135" height="24" rx="4" fill="#1a1000" stroke="#f59e0b" stroke-width="1"/>
  <text x="343" y="506" font-family="Arial,sans-serif" font-size="10" font-weight="700" fill="#f59e0b" text-anchor="middle">REVIL IDENTIFIED</text>
  <rect x="423" y="490" width="100" height="24" rx="4" fill="#0a1020" stroke="#3b82f6" stroke-width="1"/>
  <text x="473" y="506" font-family="Arial,sans-serif" font-size="10" font-weight="700" fill="#3b82f6" text-anchor="middle">AI INFRA</text>

  <!-- Bottom bar -->
  <circle cx="32" cy="545" r="4" fill="#ef4444" opacity="0.6"/>
  <text x="46" y="550" font-family="Arial,sans-serif" font-size="12" fill="#475569">Security Weekly Digest | April 07, 2026</text>
  <text x="1168" y="550" font-family="Arial,sans-serif" font-size="12" fill="#475569" text-anchor="end">tech.2twodragon.com</text>
</svg>
