<svg xmlns="http://www.w3.org/2000/svg" viewBox="0 0 1200 630" width="1200" height="630" role="img" aria-label="Weekly digest cover: Gentlemen Ransomware, Zero Trust Visibility, EQST Threat Insight">
<title>Weekly Digest 2026-03-23: Gentlemen Ransomware / Zero Trust Visibility / EQST Threat Insight</title>
<!-- profile: high-quality-cover (L21 Metro Map, research-based, batch3b-locked) -->
<defs>
  <linearGradient id="bg" x1="0%" y1="0%" x2="100%" y2="100%"><stop offset="0%" stop-color="#07090F"/><stop offset="100%" stop-color="#0C1020"/></linearGradient>
  <filter id="sh"><feGaussianBlur in="SourceAlpha" stdDeviation="2.5"/><feOffset dx="1" dy="3"/><feComponentTransfer><feFuncA type="linear" slope="0.4"/></feComponentTransfer><feMerge><feMergeNode/><feMergeNode in="SourceGraphic"/></feMerge></filter>
</defs>
<rect width="1200" height="630" fill="url(#bg)"/>
<rect x="0" y="0" width="1200" height="42" fill="#0A1220" opacity="0.98"/>
<text x="40" y="27" font-family="Inter,Helvetica,Arial,sans-serif" font-size="11" font-weight="700" letter-spacing="3" fill="#E63946">TECH SECURITY WEEKLY DIGEST</text>
<text x="1160" y="27" text-anchor="end" font-family="Inter,Helvetica,Arial,sans-serif" font-size="11" fill="#4A6070">2026-03-23</text>
<!-- Metro lines -->
<path d="M120,180 Q300,180 360,290 Q420,400 600,400" fill="none" stroke="#E63946" stroke-width="6" stroke-linecap="round" opacity="0.6"/>
<path d="M120,290 L600,290" fill="none" stroke="#F5A623" stroke-width="6" stroke-linecap="round" opacity="0.6"/>
<path d="M120,400 Q300,400 360,290 Q420,180 600,180" fill="none" stroke="#4DE8D0" stroke-width="6" stroke-linecap="round" opacity="0.6"/>
<!-- Station 1 -->
<circle cx="120" cy="180" r="20" fill="#E63946" opacity="0.2" stroke="#E63946" stroke-width="2.5"/>
<circle cx="120" cy="180" r="10" fill="#E63946"/>
<rect x="150" y="110" width="320" height="130" rx="10" fill="#100A20" stroke="#E63946" stroke-width="1.5" filter="url(#sh)"/>
<text x="175" y="138" font-family="Inter,Helvetica,Arial,sans-serif" font-size="10" font-weight="700" letter-spacing="2.5" fill="#E63946">OT DOUBLE EXTORTION</text>
<text x="175" y="168" font-family="Inter,Helvetica,Arial,sans-serif" font-size="20" font-weight="800" fill="#F0F4FA">Gentlemen Ransomware</text>
<text x="175" y="192" font-family="Inter,Helvetica,Arial,sans-serif" font-size="12" font-weight="600" fill="#E63946">OT Double Extortion</text>
<text x="175" y="212" font-family="Inter,Helvetica,Arial,sans-serif" font-size="10" fill="#5A7080">Critical — immediate action required</text>
<!-- Station 2 -->
<circle cx="120" cy="290" r="20" fill="#F5A623" opacity="0.2" stroke="#F5A623" stroke-width="2.5"/>
<circle cx="120" cy="290" r="10" fill="#F5A623"/>
<rect x="150" y="228" width="320" height="120" rx="10" fill="#0A1428" stroke="#F5A623" stroke-width="1.5" filter="url(#sh)"/>
<text x="175" y="254" font-family="Inter,Helvetica,Arial,sans-serif" font-size="10" font-weight="700" letter-spacing="2.5" fill="#F5A623">NETWORK VISIBILITY</text>
<text x="175" y="282" font-family="Inter,Helvetica,Arial,sans-serif" font-size="20" font-weight="800" fill="#F0F4FA">Zero Trust Visibility</text>
<text x="175" y="306" font-family="Inter,Helvetica,Arial,sans-serif" font-size="12" font-weight="600" fill="#F5A623">Network Visibility</text>
<text x="175" y="326" font-family="Inter,Helvetica,Arial,sans-serif" font-size="10" fill="#5A7080">High priority — patch within 24h</text>
<!-- Station 3 -->
<circle cx="120" cy="400" r="20" fill="#4DE8D0" opacity="0.2" stroke="#4DE8D0" stroke-width="2.5"/>
<circle cx="120" cy="400" r="10" fill="#4DE8D0"/>
<rect x="150" y="340" width="320" height="120" rx="10" fill="#061814" stroke="#4DE8D0" stroke-width="1.5" filter="url(#sh)"/>
<text x="175" y="366" font-family="Inter,Helvetica,Arial,sans-serif" font-size="10" font-weight="700" letter-spacing="2.5" fill="#4DE8D0">SK SHIELDUS ANALYSIS</text>
<text x="175" y="394" font-family="Inter,Helvetica,Arial,sans-serif" font-size="20" font-weight="800" fill="#F0F4FA">EQST Threat Insight</text>
<text x="175" y="418" font-family="Inter,Helvetica,Arial,sans-serif" font-size="12" font-weight="600" fill="#4DE8D0">SK Shieldus Analysis</text>
<text x="175" y="438" font-family="Inter,Helvetica,Arial,sans-serif" font-size="10" fill="#5A7080">Monitor — implement defense</text>
<!-- Right summary panel -->
<rect x="660" y="60" width="510" height="530" rx="14" fill="#0B1020" stroke="#1E2840" stroke-width="1.5" filter="url(#sh)"/>
<text x="700" y="98" font-family="Inter,Helvetica,Arial,sans-serif" font-size="10" font-weight="700" letter-spacing="3" fill="#3A5070">WEEKLY SUMMARY</text>
<text x="700" y="145" font-family="Inter,Helvetica,Arial,sans-serif" font-size="28" font-weight="900" fill="#F0F4FA">3</text>
<text x="730" y="145" font-family="Inter,Helvetica,Arial,sans-serif" font-size="16" font-weight="600" fill="#4A6080"> key threats</text>
<text x="700" y="175" font-family="Inter,Helvetica,Arial,sans-serif" font-size="13" fill="#5A7090">2026-03-23 — Weekly Digest</text>
<line x1="700" y1="200" x2="1140" y2="200" stroke="#1E2840" stroke-width="1"/>
<circle cx="718" cy="240" r="6" fill="#E63946"/>
<text x="736" y="245" font-family="Inter,Helvetica,Arial,sans-serif" font-size="13" fill="#C0D0E0">Gentlemen Ransomware</text>
<circle cx="718" cy="275" r="6" fill="#F5A623"/>
<text x="736" y="280" font-family="Inter,Helvetica,Arial,sans-serif" font-size="13" fill="#C0D0E0">Zero Trust Visibility</text>
<circle cx="718" cy="310" r="6" fill="#4DE8D0"/>
<text x="736" y="315" font-family="Inter,Helvetica,Arial,sans-serif" font-size="13" fill="#C0D0E0">EQST Threat Insight</text>
<line x1="700" y1="340" x2="1140" y2="340" stroke="#1E2840" stroke-width="1"/>
<text x="700" y="375" font-family="Inter,Helvetica,Arial,sans-serif" font-size="11" fill="#4A6080">Threat intelligence by Twodragon</text>
<text x="700" y="397" font-family="Inter,Helvetica,Arial,sans-serif" font-size="11" fill="#4A6080">DevSecOps · Cloud Security · AI</text>
<!-- Footer -->
<rect x="0" y="610" width="1200" height="20" fill="#080E18" opacity="0.95"/>
<text x="40" y="623" font-family="Inter,Helvetica,Arial,sans-serif" font-size="9" fill="#3A4A5A">tech.2twodragon.com</text>
<text x="600" y="623" text-anchor="middle" font-family="Inter,Helvetica,Arial,sans-serif" font-size="9" fill="#3A4A5A">Security · AI · Cloud · 2026-03-23</text>
<text x="1160" y="623" text-anchor="end" font-family="Inter,Helvetica,Arial,sans-serif" font-size="9" fill="#3A4A5A">Twodragon</text>
<!-- cover-qr: https://tech.2twodragon.com/posts/2026/03/23/Tech_Security_Weekly_Digest_Ransomware/ : 37x37 -->
<g transform="translate(1080,490)">
  <rect x="-8" y="-8" width="100" height="100" rx="6" fill="#FFFFFF"/>
  <g transform="scale(2.270270)" fill="#0A1020">
    <path d="M0 0h7v1h-7zM9 0h2v1h-2zM13 0h5v1h-5zM19 0h3v1h-3zM23 0h1v1h-1zM26 0h3v1h-3zM30 0h7v1h-7zM0 1h1v1h-1zM6 1h1v1h-1zM9 1h7v1h-7zM17 1h1v1h-1zM24 1h5v1h-5zM30 1h1v1h-1zM36 1h1v1h-1zM0 2h1v1h-1zM2 2h3v1h-3zM6 2h1v1h-1zM8 2h3v1h-3zM15 2h2v1h-2zM19 2h4v1h-4zM26 2h2v1h-2zM30 2h1v1h-1zM32 2h3v1h-3zM36 2h1v1h-1zM0 3h1v1h-1zM2 3h3v1h-3zM6 3h1v1h-1zM8 3h1v1h-1zM11 3h9v1h-9zM22 3h1v1h-1zM24 3h3v1h-3zM28 3h1v1h-1zM30 3h1v1h-1zM32 3h3v1h-3zM36 3h1v1h-1zM0 4h1v1h-1zM2 4h3v1h-3zM6 4h1v1h-1zM8 4h2v1h-2zM11 4h2v1h-2zM19 4h1v1h-1zM23 4h1v1h-1zM25 4h1v1h-1zM28 4h1v1h-1zM30 4h1v1h-1zM32 4h3v1h-3zM36 4h1v1h-1zM0 5h1v1h-1zM6 5h1v1h-1zM8 5h1v1h-1zM13 5h1v1h-1zM15 5h4v1h-4zM20 5h2v1h-2zM24 5h4v1h-4zM30 5h1v1h-1zM36 5h1v1h-1zM0 6h7v1h-7zM8 6h1v1h-1zM10 6h1v1h-1zM12 6h1v1h-1zM14 6h1v1h-1zM16 6h1v1h-1zM18 6h1v1h-1zM20 6h1v1h-1zM22 6h1v1h-1zM24 6h1v1h-1zM26 6h1v1h-1zM28 6h1v1h-1zM30 6h7v1h-7zM8 7h1v1h-1zM11 7h2v1h-2zM14 7h3v1h-3zM19 7h1v1h-1zM21 7h3v1h-3zM26 7h3v1h-3zM0 8h1v1h-1zM2 8h5v1h-5zM9 8h1v1h-1zM11 8h4v1h-4zM17 8h1v1h-1zM22 8h3v1h-3zM26 8h3v1h-3zM30 8h5v1h-5zM2 9h1v1h-1zM4 9h1v1h-1zM11 9h3v1h-3zM15 9h1v1h-1zM18 9h3v1h-3zM25 9h2v1h-2zM28 9h1v1h-1zM31 9h1v1h-1zM34 9h2v1h-2zM1 10h3v1h-3zM5 10h3v1h-3zM9 10h1v1h-1zM12 10h2v1h-2zM15 10h4v1h-4zM20 10h1v1h-1zM22 10h1v1h-1zM25 10h3v1h-3zM29 10h4v1h-4zM34 10h3v1h-3zM0 11h1v1h-1zM3 11h2v1h-2zM7 11h1v1h-1zM9 11h1v1h-1zM12 11h2v1h-2zM16 11h1v1h-1zM18 11h1v1h-1zM21 11h3v1h-3zM26 11h3v1h-3zM30 11h1v1h-1zM36 11h1v1h-1zM1 12h2v1h-2zM4 12h1v1h-1zM6 12h1v1h-1zM8 12h1v1h-1zM10 12h1v1h-1zM13 12h2v1h-2zM17 12h2v1h-2zM20 12h1v1h-1zM22 12h11v1h-11zM35 12h2v1h-2zM2 13h2v1h-2zM9 13h1v1h-1zM11 13h3v1h-3zM17 13h1v1h-1zM19 13h3v1h-3zM23 13h2v1h-2zM28 13h1v1h-1zM31 13h1v1h-1zM2 14h1v1h-1zM4 14h1v1h-1zM6 14h1v1h-1zM8 14h1v1h-1zM11 14h1v1h-1zM13 14h1v1h-1zM15 14h3v1h-3zM22 14h1v1h-1zM24 14h4v1h-4zM29 14h5v1h-5zM36 14h1v1h-1zM1 15h1v1h-1zM5 15h1v1h-1zM7 15h2v1h-2zM10 15h1v1h-1zM13 15h1v1h-1zM20 15h4v1h-4zM26 15h1v1h-1zM29 15h4v1h-4zM35 15h1v1h-1zM0 16h1v1h-1zM2 16h1v1h-1zM6 16h2v1h-2zM9 16h1v1h-1zM12 16h1v1h-1zM14 16h2v1h-2zM17 16h1v1h-1zM22 16h2v1h-2zM25 16h7v1h-7zM34 16h1v1h-1zM36 16h1v1h-1zM7 17h4v1h-4zM12 17h1v1h-1zM18 17h3v1h-3zM28 17h1v1h-1zM31 17h1v1h-1zM35 17h1v1h-1zM3 18h1v1h-1zM6 18h1v1h-1zM8 18h2v1h-2zM14 18h3v1h-3zM18 18h1v1h-1zM21 18h2v1h-2zM26 18h8v1h-8zM35 18h2v1h-2zM1 19h2v1h-2zM10 19h4v1h-4zM15 19h2v1h-2zM18 19h2v1h-2zM21 19h2v1h-2zM24 19h1v1h-1zM27 19h1v1h-1zM29 19h4v1h-4zM36 19h1v1h-1zM2 20h1v1h-1zM5 20h3v1h-3zM11 20h1v1h-1zM13 20h1v1h-1zM15 20h4v1h-4zM20 20h1v1h-1zM23 20h4v1h-4zM28 20h3v1h-3zM32 20h3v1h-3zM0 21h1v1h-1zM5 21h1v1h-1zM7 21h1v1h-1zM10 21h3v1h-3zM14 21h1v1h-1zM17 21h1v1h-1zM19 21h3v1h-3zM23 21h1v1h-1zM26 21h1v1h-1zM33 21h1v1h-1zM35 21h1v1h-1zM0 22h1v1h-1zM3 22h4v1h-4zM8 22h1v1h-1zM11 22h3v1h-3zM15 22h1v1h-1zM20 22h3v1h-3zM26 22h2v1h-2zM30 22h4v1h-4zM36 22h1v1h-1zM1 23h1v1h-1zM4 23h2v1h-2zM13 23h1v1h-1zM15 23h1v1h-1zM19 23h1v1h-1zM21 23h3v1h-3zM26 23h1v1h-1zM28 23h2v1h-2zM31 23h2v1h-2zM0 24h1v1h-1zM2 24h2v1h-2zM5 24h2v1h-2zM9 24h2v1h-2zM14 24h2v1h-2zM17 24h1v1h-1zM20 24h1v1h-1zM22 24h2v1h-2zM25 24h2v1h-2zM29 24h3v1h-3zM34 24h1v1h-1zM36 24h1v1h-1zM0 25h2v1h-2zM3 25h2v1h-2zM7 25h1v1h-1zM9 25h1v1h-1zM11 25h2v1h-2zM14 25h1v1h-1zM16 25h1v1h-1zM20 25h1v1h-1zM22 25h2v1h-2zM28 25h2v1h-2zM31 25h1v1h-1zM0 26h1v1h-1zM6 26h1v1h-1zM10 26h1v1h-1zM13 26h1v1h-1zM15 26h1v1h-1zM17 26h2v1h-2zM20 26h1v1h-1zM22 26h1v1h-1zM24 26h2v1h-2zM27 26h1v1h-1zM30 26h1v1h-1zM35 26h2v1h-2zM0 27h1v1h-1zM2 27h1v1h-1zM4 27h2v1h-2zM8 27h2v1h-2zM12 27h1v1h-1zM18 27h5v1h-5zM29 27h1v1h-1zM32 27h1v1h-1zM36 27h1v1h-1zM0 28h1v1h-1zM2 28h2v1h-2zM6 28h1v1h-1zM10 28h3v1h-3zM14 28h7v1h-7zM22 28h15v1h-15zM8 29h2v1h-2zM11 29h1v1h-1zM13 29h2v1h-2zM19 29h5v1h-5zM27 29h2v1h-2zM32 29h2v1h-2zM35 29h1v1h-1zM0 30h7v1h-7zM9 30h5v1h-5zM15 30h3v1h-3zM20 30h1v1h-1zM26 30h1v1h-1zM28 30h1v1h-1zM30 30h1v1h-1zM32 30h1v1h-1zM34 30h1v1h-1zM36 30h1v1h-1zM0 31h1v1h-1zM6 31h1v1h-1zM8 31h1v1h-1zM10 31h3v1h-3zM14 31h1v1h-1zM16 31h1v1h-1zM19 31h5v1h-5zM26 31h3v1h-3zM32 31h2v1h-2zM35 31h1v1h-1zM0 32h1v1h-1zM2 32h3v1h-3zM6 32h1v1h-1zM8 32h3v1h-3zM12 32h1v1h-1zM16 32h2v1h-2zM19 32h2v1h-2zM22 32h1v1h-1zM24 32h9v1h-9zM34 32h2v1h-2zM0 33h1v1h-1zM2 33h3v1h-3zM6 33h1v1h-1zM8 33h1v1h-1zM11 33h1v1h-1zM13 33h2v1h-2zM16 33h1v1h-1zM18 33h1v1h-1zM20 33h4v1h-4zM27 33h1v1h-1zM29 33h2v1h-2zM32 33h2v1h-2zM35 33h2v1h-2zM0 34h1v1h-1zM2 34h3v1h-3zM6 34h1v1h-1zM8 34h2v1h-2zM12 34h6v1h-6zM21 34h1v1h-1zM27 34h2v1h-2zM34 34h3v1h-3zM0 35h1v1h-1zM6 35h1v1h-1zM10 35h6v1h-6zM18 35h1v1h-1zM20 35h2v1h-2zM23 35h2v1h-2zM26 35h1v1h-1zM28 35h3v1h-3zM32 35h1v1h-1zM36 35h1v1h-1zM0 36h7v1h-7zM8 36h1v1h-1zM10 36h1v1h-1zM14 36h2v1h-2zM17 36h2v1h-2zM22 36h5v1h-5zM29 36h2v1h-2zM32 36h5v1h-5z"/>
  </g>
</g>
<text x="1122" y="600" font-family="Inter,Helvetica,Arial,sans-serif" font-size="10" font-weight="700" fill="#F5F7FA" text-anchor="middle">scan / full post</text>
</svg>