<svg xmlns="http://www.w3.org/2000/svg" viewBox="0 0 1200 630" width="1200" height="630" role="img" aria-label="Research-based weekly digest cover: ShinyHunters vishing MFA bypass on SaaS platforms, malicious Chrome extension steals ChatGPT auth tokens, Poland CERT reports coordinated OT attack on 30+ wind and solar power plants">
<!-- profile: high-quality-cover (L14 Timeline, research-based, batch1-locked) -->
<title>Weekly digest 2026-01-31 timeline: ShinyHunters Vishing MFA bypass (Jan 29), Chrome Extension token theft (Jan 30), Poland OT energy attack (Jan 31)</title>
<defs>
  <linearGradient id="bgSpread" x1="0%" y1="0%" x2="100%" y2="100%">
    <stop offset="0%" stop-color="#0A1226"/>
    <stop offset="55%" stop-color="#0D1530"/>
    <stop offset="100%" stop-color="#131038"/>
  </linearGradient>
  <linearGradient id="colA" x1="0%" y1="0%" x2="0%" y2="100%">
    <stop offset="0%" stop-color="#122542"/>
    <stop offset="100%" stop-color="#0A1830"/>
  </linearGradient>
  <linearGradient id="colB" x1="0%" y1="0%" x2="0%" y2="100%">
    <stop offset="0%" stop-color="#2E1A0A"/>
    <stop offset="100%" stop-color="#1E1006"/>
  </linearGradient>
  <linearGradient id="colC" x1="0%" y1="0%" x2="0%" y2="100%">
    <stop offset="0%" stop-color="#2E1016"/>
    <stop offset="100%" stop-color="#1E0A12"/>
  </linearGradient>
  <linearGradient id="timelineGrad" x1="0%" y1="0%" x2="100%" y2="0%">
    <stop offset="0%" stop-color="#4ADE80" stop-opacity="0.2"/>
    <stop offset="35%" stop-color="#3A86FF" stop-opacity="0.9"/>
    <stop offset="65%" stop-color="#FFB703" stop-opacity="0.9"/>
    <stop offset="100%" stop-color="#E63946"/>
  </linearGradient>
  <radialGradient id="glowBlue" cx="50%" cy="50%" r="50%">
    <stop offset="0%" stop-color="#3A86FF" stop-opacity="0.6"/>
    <stop offset="100%" stop-color="#3A86FF" stop-opacity="0"/>
  </radialGradient>
  <radialGradient id="glowAmber" cx="50%" cy="50%" r="50%">
    <stop offset="0%" stop-color="#FFB703" stop-opacity="0.6"/>
    <stop offset="100%" stop-color="#FFB703" stop-opacity="0"/>
  </radialGradient>
  <radialGradient id="glowRed" cx="50%" cy="50%" r="50%">
    <stop offset="0%" stop-color="#E63946" stop-opacity="0.65"/>
    <stop offset="100%" stop-color="#E63946" stop-opacity="0"/>
  </radialGradient>
  <pattern id="dotGrid" x="0" y="0" width="40" height="40" patternUnits="userSpaceOnUse">
    <circle cx="20" cy="20" r="0.8" fill="#2A3256" opacity="0.55"/>
  </pattern>
  <filter id="softShadow" x="-10%" y="-10%" width="130%" height="130%">
    <feGaussianBlur in="SourceAlpha" stdDeviation="2.6"/>
    <feOffset dx="1" dy="3"/>
    <feComponentTransfer><feFuncA type="linear" slope="0.55"/></feComponentTransfer>
    <feMerge><feMergeNode/><feMergeNode in="SourceGraphic"/></feMerge>
  </filter>
  <filter id="textShadow" x="-5%" y="-5%" width="110%" height="110%">
    <feGaussianBlur in="SourceAlpha" stdDeviation="1.2"/>
    <feOffset dx="0" dy="1.5"/>
    <feComponentTransfer><feFuncA type="linear" slope="0.8"/></feComponentTransfer>
    <feMerge><feMergeNode/><feMergeNode in="SourceGraphic"/></feMerge>
  </filter>
</defs>

<rect width="1200" height="630" fill="url(#bgSpread)"/>
<rect width="1200" height="630" fill="url(#dotGrid)"/>

<!-- Background column glows -->
<circle cx="240" cy="390" r="140" fill="url(#glowBlue)">
  <animate attributeName="opacity" values="0.5;0.85;0.5" dur="6.4s" repeatCount="indefinite"/>
</circle>
<circle cx="620" cy="390" r="140" fill="url(#glowAmber)">
  <animate attributeName="opacity" values="0.5;0.85;0.5" dur="5.6s" repeatCount="indefinite"/>
</circle>
<circle cx="1000" cy="390" r="140" fill="url(#glowRed)">
  <animate attributeName="opacity" values="0.5;0.85;0.5" dur="7.0s" repeatCount="indefinite"/>
</circle>

<!-- Header stripe -->
<rect x="0" y="0" width="1200" height="56" fill="#050813" opacity="0.92"/>
<text x="36" y="36" font-family="Inter, Helvetica, Arial, sans-serif" font-size="18" font-weight="700" fill="#8FB8FF" letter-spacing="2.5">WEEKLY DIGEST</text>
<text x="1164" y="36" font-family="Inter, Helvetica, Arial, sans-serif" font-size="15" font-weight="600" fill="#7DA3D9" letter-spacing="1.5" text-anchor="end">2026.01.31</text>
<rect x="0" y="54" width="1200" height="2" fill="#8FB8FF" opacity="0.85">
  <animate attributeName="opacity" values="0.4;1;0.4" dur="4.8s" repeatCount="indefinite"/>
</rect>

<!-- Starfield ambient dots (static) -->
<g fill="#8FB8FF" opacity="0.45">
  <circle cx="160" cy="78" r="1.2"/>
  <circle cx="420" cy="86" r="1.0"/>
  <circle cx="720" cy="80" r="1.3"/>
  <circle cx="1040" cy="88" r="0.9"/>
</g>

<!-- Title block -->
<text x="60" y="96" font-family="Inter, Helvetica, Arial, sans-serif" font-size="13" font-weight="700" fill="#9FD3B0" letter-spacing="3">THIS WEEK  /  JAN 25 - 31</text>
<text x="60" y="130" font-family="Inter, Helvetica, Arial, sans-serif" font-size="28" font-weight="800" fill="#F5F7FA" filter="url(#textShadow)">Three Threats Across Seven Days</text>

<!-- Timeline axis -->
<line x1="60" y1="170" x2="1140" y2="170" stroke="url(#timelineGrad)" stroke-width="3.4" stroke-linecap="round"/>
<!-- Moving traveler dot along axis -->
<circle r="5" fill="#F5F7FA" stroke="#8FB8FF" stroke-width="1.4">
  <animate attributeName="cx" values="60;1140;60" dur="11s" repeatCount="indefinite"/>
  <animate attributeName="cy" values="170;170;170" dur="11s" repeatCount="indefinite"/>
  <animate attributeName="opacity" values="0;1;1;1;0" dur="11s" repeatCount="indefinite"/>
</circle>

<!-- Date tick labels: JAN 25 to JAN 31 (7 ticks) -->
<g font-family="Inter, monospace" font-size="10" font-weight="700" fill="#7DA3D9">
  <line x1="80" y1="163" x2="80" y2="177" stroke="#4A6AA0" stroke-width="1.2"/>
  <text x="80" y="194" text-anchor="middle">JAN 25</text>
  <line x1="260" y1="163" x2="260" y2="177" stroke="#4A6AA0" stroke-width="1.2"/>
  <text x="260" y="194" text-anchor="middle">JAN 26</text>
  <line x1="440" y1="163" x2="440" y2="177" stroke="#4A6AA0" stroke-width="1.2"/>
  <text x="440" y="194" text-anchor="middle">JAN 27</text>
  <line x1="620" y1="163" x2="620" y2="177" stroke="#4A6AA0" stroke-width="1.2"/>
  <text x="620" y="194" text-anchor="middle">JAN 28</text>
  <line x1="800" y1="163" x2="800" y2="177" stroke="#4A6AA0" stroke-width="1.2"/>
  <text x="800" y="194" text-anchor="middle" fill="#3A86FF">JAN 29</text>
  <line x1="960" y1="163" x2="960" y2="177" stroke="#4A6AA0" stroke-width="1.2"/>
  <text x="960" y="194" text-anchor="middle" fill="#FFB703">JAN 30</text>
  <line x1="1120" y1="163" x2="1120" y2="177" stroke="#4A6AA0" stroke-width="1.2"/>
  <text x="1120" y="194" text-anchor="middle" fill="#F87171">JAN 31</text>
</g>

<!-- Anchor dots: Col A at JAN 29 (x=800), Col B at JAN 30 (x=960), Col C at JAN 31 (x=1120) -->
<!-- But columns need to be evenly spaced at x=240, 620, 980 centers, so anchor visually above each -->
<g transform="translate(240,170)">
  <circle r="22" fill="url(#glowBlue)">
    <animate attributeName="r" values="20;32;20" dur="2.8s" repeatCount="indefinite"/>
    <animate attributeName="opacity" values="0.6;1;0.6" dur="2.8s" repeatCount="indefinite"/>
  </circle>
  <circle r="10" fill="#0A1B2E" stroke="#3A86FF" stroke-width="3" filter="url(#softShadow)"/>
  <circle r="3.5" fill="#8FB8FF">
    <animate attributeName="opacity" values="1;0.3;1" dur="1.6s" repeatCount="indefinite"/>
  </circle>
</g>
<g transform="translate(620,170)">
  <circle r="22" fill="url(#glowAmber)">
    <animate attributeName="r" values="20;32;20" dur="2.8s" begin="0.4s" repeatCount="indefinite"/>
    <animate attributeName="opacity" values="0.6;1;0.6" dur="2.8s" begin="0.4s" repeatCount="indefinite"/>
  </circle>
  <circle r="10" fill="#1E1006" stroke="#FFB703" stroke-width="3" filter="url(#softShadow)"/>
  <circle r="3.5" fill="#FFD58A">
    <animate attributeName="opacity" values="1;0.3;1" dur="1.8s" repeatCount="indefinite"/>
  </circle>
</g>
<g transform="translate(980,170)">
  <circle r="22" fill="url(#glowRed)">
    <animate attributeName="r" values="20;32;20" dur="2.8s" begin="0.8s" repeatCount="indefinite"/>
    <animate attributeName="opacity" values="0.6;1;0.6" dur="2.8s" begin="0.8s" repeatCount="indefinite"/>
  </circle>
  <circle r="10" fill="#1E0A14" stroke="#E63946" stroke-width="3" filter="url(#softShadow)"/>
  <circle r="3.5" fill="#FCA5A5">
    <animate attributeName="opacity" values="1;0.3;1" dur="1.7s" repeatCount="indefinite"/>
  </circle>
</g>

<!-- Dashed connector lines from anchor dots to column tops -->
<line x1="240" y1="180" x2="240" y2="216" stroke="#3A86FF" stroke-width="1.4" stroke-dasharray="3 3" opacity="0.7"/>
<line x1="620" y1="180" x2="620" y2="216" stroke="#FFB703" stroke-width="1.4" stroke-dasharray="3 3" opacity="0.7"/>
<line x1="980" y1="180" x2="980" y2="216" stroke="#E63946" stroke-width="1.4" stroke-dasharray="3 3" opacity="0.7"/>

<!-- COL A: ShinyHunters Vishing (JAN 29) -->
<g transform="translate(72,216)">
  <rect x="0" y="0" width="336" height="374" rx="14" fill="url(#colA)" stroke="#3A86FF" stroke-width="1.6" opacity="0.97"/>
  <rect x="0" y="0" width="336" height="4" fill="#3A86FF" opacity="0.7"/>
  <g filter="url(#textShadow)">
    <text x="20" y="28" font-family="Inter, Helvetica, Arial, sans-serif" font-size="11" font-weight="700" fill="#8FB8FF" letter-spacing="2.4">HIGH  /  SOCIAL ENG</text>
    <text x="20" y="54" font-family="Inter, Helvetica, Arial, sans-serif" font-size="20" font-weight="800" fill="#F5F7FA">ShinyHunters Vishing</text>
    <text x="20" y="76" font-family="Inter, Helvetica, Arial, sans-serif" font-size="12" font-weight="500" fill="#BFC9D9">SaaS MFA bypass via voice phishing</text>
  </g>
  <!-- Scene: phone + wave + attacker avatar + MFA bypass badge -->
  <g transform="translate(168,136)">
    <g filter="url(#softShadow)">
      <rect x="-52" y="-28" width="44" height="56" rx="6" fill="#0A1B2E" stroke="#3A86FF" stroke-width="1.6"/>
      <rect x="-46" y="-20" width="32" height="26" rx="2" fill="#1E2A48"/>
      <circle cx="-30" cy="18" r="4" fill="#3A86FF" opacity="0.7"/>
      <text x="-30" y="-4" text-anchor="middle" font-family="Inter, monospace" font-size="6" font-weight="800" fill="#8FB8FF">CALL</text>
    </g>
    <g stroke="#3A86FF" stroke-width="1.4" fill="none" opacity="0.85">
      <path d="M0 -8 Q14 -14 22 -6">
        <animate attributeName="stroke-opacity" values="0.3;1;0.3" dur="1.5s" repeatCount="indefinite"/>
      </path>
      <path d="M0 0 Q16 -6 24 2"/>
      <path d="M0 8 Q14 2 22 10">
        <animate attributeName="stroke-opacity" values="0.3;1;0.3" dur="1.5s" begin="0.4s" repeatCount="indefinite"/>
      </path>
    </g>
    <g filter="url(#softShadow)">
      <circle cx="52" cy="0" r="14" fill="#122542" stroke="#3A86FF" stroke-width="1.6"/>
      <circle cx="52" cy="-3" r="4" fill="#3A86FF"/>
      <path d="M43 8 Q52 3 61 8 Q61 14 52 14 Q43 14 43 8 Z" fill="#3A86FF"/>
      <text x="52" y="32" text-anchor="middle" font-family="Inter, monospace" font-size="7" font-weight="800" fill="#8FB8FF">ATTACKER</text>
    </g>
    <g transform="translate(-6,-48)">
      <rect x="-30" y="-12" width="60" height="22" rx="4" fill="#1E0A14" stroke="#E63946" stroke-width="1.2"/>
      <text x="0" y="3" text-anchor="middle" font-family="Inter, monospace" font-size="8" font-weight="800" fill="#F87171">MFA BYPASS</text>
      <circle cx="-30" cy="0" r="2.5" fill="#E63946">
        <animate attributeName="opacity" values="0.3;1;0.3" dur="1.1s" repeatCount="indefinite"/>
      </circle>
    </g>
  </g>
  <!-- Attack chain -->
  <g transform="translate(28,200)">
    <rect x="0" y="0" width="280" height="34" rx="6" fill="#0A1B2E" stroke="#3A86FF" stroke-width="1.2"/>
    <circle cx="18" cy="17" r="7" fill="#3A86FF"/>
    <text x="18" y="21" text-anchor="middle" font-family="Inter, monospace" font-size="10" font-weight="800" fill="#FFFFFF">1</text>
    <text x="36" y="22" font-family="Inter, Helvetica, Arial, sans-serif" font-size="12" font-weight="700" fill="#F5F7FA">Vishing call + fake IT helpdesk</text>
    <line x1="18" y1="38" x2="18" y2="50" stroke="#3A86FF" stroke-width="1.4" stroke-dasharray="2 2"/>
    <g transform="translate(0,54)">
      <rect x="0" y="0" width="280" height="34" rx="6" fill="#0A1B2E" stroke="#3A86FF" stroke-width="1.2"/>
      <circle cx="18" cy="17" r="7" fill="#3A86FF"/>
      <text x="18" y="21" text-anchor="middle" font-family="Inter, monospace" font-size="10" font-weight="800" fill="#FFFFFF">2</text>
      <text x="36" y="22" font-family="Inter, Helvetica, Arial, sans-serif" font-size="12" font-weight="700" fill="#F5F7FA">MFA reset + credential harvest</text>
    </g>
    <line x1="18" y1="92" x2="18" y2="104" stroke="#3A86FF" stroke-width="1.4" stroke-dasharray="2 2"/>
    <g transform="translate(0,108)">
      <rect x="0" y="0" width="280" height="34" rx="6" fill="#12283F" stroke="#8FB8FF" stroke-width="1.4"/>
      <circle cx="18" cy="17" r="7" fill="#8FB8FF"/>
      <text x="18" y="21" text-anchor="middle" font-family="Inter, monospace" font-size="10" font-weight="800" fill="#0A1020">3</text>
      <text x="36" y="22" font-family="Inter, Helvetica, Arial, sans-serif" font-size="12" font-weight="800" fill="#F5F7FA">SaaS unauthorized access</text>
    </g>
  </g>
  <!-- KPI pill -->
  <g transform="translate(28,334)" filter="url(#softShadow)">
    <rect x="0" y="0" width="280" height="32" rx="8" fill="#12283F" stroke="#3A86FF" stroke-width="1.6"/>
    <text x="14" y="21" font-family="Inter, monospace" font-size="11" font-weight="700" fill="#8FB8FF">SRC</text>
    <text x="140" y="22" text-anchor="middle" font-family="Inter, Helvetica, Arial, sans-serif" font-size="14" font-weight="900" fill="#F5F7FA">Mandiant</text>
    <text x="266" y="21" text-anchor="end" font-family="Inter, monospace" font-size="10" font-weight="700" fill="#8FB8FF">UNC3944</text>
  </g>
</g>

<!-- COL B: Chrome Extension Token Theft (JAN 30) -->
<g transform="translate(432,216)">
  <rect x="0" y="0" width="336" height="374" rx="14" fill="url(#colB)" stroke="#FFB703" stroke-width="1.6" opacity="0.97"/>
  <rect x="0" y="0" width="336" height="4" fill="#FFB703" opacity="0.7"/>
  <g filter="url(#textShadow)">
    <text x="20" y="28" font-family="Inter, Helvetica, Arial, sans-serif" font-size="11" font-weight="700" fill="#FFB703" letter-spacing="2.4">HIGH  /  BROWSER</text>
    <text x="20" y="54" font-family="Inter, Helvetica, Arial, sans-serif" font-size="20" font-weight="800" fill="#F5F7FA">Chrome Extension Threat</text>
    <text x="20" y="76" font-family="Inter, Helvetica, Arial, sans-serif" font-size="12" font-weight="500" fill="#FFD58A">ChatGPT auth token hijack</text>
  </g>
  <!-- Scene: browser window + extension badge + exfil arrow -->
  <g transform="translate(168,136)">
    <g filter="url(#softShadow)">
      <rect x="-58" y="-30" width="116" height="56" rx="5" fill="#1E1006" stroke="#FFB703" stroke-width="1.6"/>
      <rect x="-58" y="-30" width="116" height="14" rx="5" fill="#2A1A0A"/>
      <circle cx="-44" cy="-23" r="3.5" fill="#E63946"/>
      <circle cx="-34" cy="-23" r="3.5" fill="#FFB703"/>
      <circle cx="-24" cy="-23" r="3.5" fill="#4ADE80"/>
      <g transform="translate(26,-4)">
        <rect x="-12" y="-10" width="24" height="20" rx="3" fill="#FFB703" opacity="0.9"/>
        <rect x="-4" y="-14" width="8" height="6" rx="2" fill="#FFB703"/>
        <rect x="12" y="-4" width="6" height="8" rx="2" fill="#FFB703"/>
        <text x="0" y="4" text-anchor="middle" font-family="Inter, monospace" font-size="8" font-weight="900" fill="#1A1202">EXT</text>
      </g>
      <text x="-16" y="-2" text-anchor="middle" font-family="Inter, monospace" font-size="7" font-weight="800" fill="#4ADE80">ChatGPT</text>
      <text x="-16" y="12" text-anchor="middle" font-family="Inter, monospace" font-size="5" fill="#FFD58A">TOKEN: ****</text>
    </g>
    <!-- Exfil animated arrow -->
    <path d="M58 0 Q74 -14 86 0" stroke="#E63946" stroke-width="2" fill="none" stroke-dasharray="4 3">
      <animate attributeName="stroke-dashoffset" values="0;-14" dur="1.2s" repeatCount="indefinite"/>
    </path>
    <circle cx="86" cy="0" r="4" fill="#E63946">
      <animate attributeName="opacity" values="0.4;1;0.4" dur="1.2s" repeatCount="indefinite"/>
    </circle>
    <text x="0" y="46" text-anchor="middle" font-family="Inter, monospace" font-size="8" font-weight="800" fill="#FFB703">SESSION HIJACK</text>
  </g>
  <!-- Attack chain -->
  <g transform="translate(28,200)">
    <rect x="0" y="0" width="280" height="34" rx="6" fill="#1E1006" stroke="#FFB703" stroke-width="1.2"/>
    <circle cx="18" cy="17" r="7" fill="#FFB703"/>
    <text x="18" y="21" text-anchor="middle" font-family="Inter, monospace" font-size="10" font-weight="800" fill="#1A1202">1</text>
    <text x="36" y="22" font-family="Inter, Helvetica, Arial, sans-serif" font-size="12" font-weight="700" fill="#F5F7FA">Malicious extension installed</text>
    <line x1="18" y1="38" x2="18" y2="50" stroke="#FFB703" stroke-width="1.4" stroke-dasharray="2 2"/>
    <g transform="translate(0,54)">
      <rect x="0" y="0" width="280" height="34" rx="6" fill="#1E1006" stroke="#FFB703" stroke-width="1.2"/>
      <circle cx="18" cy="17" r="7" fill="#FFB703"/>
      <text x="18" y="21" text-anchor="middle" font-family="Inter, monospace" font-size="10" font-weight="800" fill="#1A1202">2</text>
      <text x="36" y="22" font-family="Inter, Helvetica, Arial, sans-serif" font-size="12" font-weight="700" fill="#F5F7FA">ChatGPT session token captured</text>
    </g>
    <line x1="18" y1="92" x2="18" y2="104" stroke="#FFB703" stroke-width="1.4" stroke-dasharray="2 2"/>
    <g transform="translate(0,108)">
      <rect x="0" y="0" width="280" height="34" rx="6" fill="#2A1A0C" stroke="#FFD58A" stroke-width="1.4"/>
      <circle cx="18" cy="17" r="7" fill="#FFD58A"/>
      <text x="18" y="21" text-anchor="middle" font-family="Inter, monospace" font-size="10" font-weight="800" fill="#1A1202">3</text>
      <text x="36" y="22" font-family="Inter, Helvetica, Arial, sans-serif" font-size="12" font-weight="800" fill="#F5F7FA">Affiliate link hijack + exfil</text>
    </g>
  </g>
  <!-- KPI pill -->
  <g transform="translate(28,334)" filter="url(#softShadow)">
    <rect x="0" y="0" width="280" height="32" rx="8" fill="#2A1A0C" stroke="#FFB703" stroke-width="1.6"/>
    <text x="14" y="21" font-family="Inter, monospace" font-size="11" font-weight="700" fill="#FFB703">TARGET</text>
    <text x="140" y="22" text-anchor="middle" font-family="Inter, Helvetica, Arial, sans-serif" font-size="13" font-weight="900" fill="#F5F7FA">ChatGPT Enterprise</text>
    <text x="266" y="21" text-anchor="end" font-family="Inter, monospace" font-size="10" font-weight="700" fill="#FFB703">Chrome</text>
  </g>
</g>

<!-- COL C: Poland OT Attack (JAN 31) -->
<g transform="translate(792,216)">
  <rect x="0" y="0" width="336" height="374" rx="14" fill="url(#colC)" stroke="#E63946" stroke-width="1.6" opacity="0.97"/>
  <rect x="0" y="0" width="336" height="4" fill="#E63946" opacity="0.7"/>
  <g filter="url(#textShadow)">
    <text x="20" y="28" font-family="Inter, Helvetica, Arial, sans-serif" font-size="11" font-weight="700" fill="#F87171" letter-spacing="2.4">CRITICAL  /  OT/ICS</text>
    <text x="20" y="54" font-family="Inter, Helvetica, Arial, sans-serif" font-size="20" font-weight="800" fill="#F5F7FA">Poland Energy OT Attack</text>
    <text x="20" y="76" font-family="Inter, Helvetica, Arial, sans-serif" font-size="12" font-weight="500" fill="#FBB6BD">30+ wind and solar plants targeted</text>
  </g>
  <!-- Scene: wind turbine (spinning) + solar panel + attack signal -->
  <g transform="translate(168,136)">
    <!-- Wind turbine tower -->
    <rect x="-72" y="-8" width="8" height="42" rx="1" fill="#1E0A14" stroke="#FCA5A5" stroke-width="1.2"/>
    <!-- Spinning turbine blades -->
    <g transform="translate(-68,-8)">
      <g stroke="#FCA5A5" stroke-width="1.6" fill="none">
        <animateTransform attributeName="transform" type="rotate" from="0 0 0" to="360 0 0" dur="4s" repeatCount="indefinite"/>
        <line x1="0" y1="0" x2="0" y2="-22"/>
        <line x1="0" y1="0" x2="19" y2="11"/>
        <line x1="0" y1="0" x2="-19" y2="11"/>
      </g>
    </g>
    <!-- Solar panel -->
    <g filter="url(#softShadow)">
      <rect x="-8" y="8" width="48" height="26" rx="3" fill="#1E0A14" stroke="#FFB703" stroke-width="1.2"/>
      <g stroke="#FFB703" stroke-width="0.8" opacity="0.6">
        <line x1="-8" y1="17" x2="40" y2="17"/>
        <line x1="-8" y1="26" x2="40" y2="26"/>
        <line x1="8" y1="8" x2="8" y2="34"/>
        <line x1="24" y1="8" x2="24" y2="34"/>
      </g>
    </g>
    <!-- Attack signal waves from right -->
    <g stroke="#E63946" stroke-width="1.6" fill="none" opacity="0.85">
      <path d="M52 -10 Q64 -18 72 -10">
        <animate attributeName="stroke-opacity" values="0.2;1;0.2" dur="1.4s" repeatCount="indefinite"/>
      </path>
      <path d="M52 0 Q68 -8 80 0">
        <animate attributeName="stroke-opacity" values="0.2;1;0.2" dur="1.4s" begin="0.3s" repeatCount="indefinite"/>
      </path>
      <path d="M52 10 Q70 2 84 10">
        <animate attributeName="stroke-opacity" values="0.2;1;0.2" dur="1.4s" begin="0.6s" repeatCount="indefinite"/>
      </path>
    </g>
    <!-- OT compromised label -->
    <g transform="translate(-22,52)">
      <rect x="-34" y="-12" width="68" height="22" rx="4" fill="#1E0A14" stroke="#E63946" stroke-width="1.2"/>
      <text x="0" y="3" text-anchor="middle" font-family="Inter, monospace" font-size="8" font-weight="800" fill="#F87171">OT COMPROMISED</text>
    </g>
  </g>
  <!-- Attack chain -->
  <g transform="translate(28,200)">
    <rect x="0" y="0" width="280" height="34" rx="6" fill="#1E0A14" stroke="#E63946" stroke-width="1.2"/>
    <circle cx="18" cy="17" r="7" fill="#E63946"/>
    <text x="18" y="21" text-anchor="middle" font-family="Inter, monospace" font-size="10" font-weight="800" fill="#FFFFFF">1</text>
    <text x="36" y="22" font-family="Inter, Helvetica, Arial, sans-serif" font-size="12" font-weight="700" fill="#F5F7FA">SCADA network reconnaissance</text>
    <line x1="18" y1="38" x2="18" y2="50" stroke="#E63946" stroke-width="1.4" stroke-dasharray="2 2"/>
    <g transform="translate(0,54)">
      <rect x="0" y="0" width="280" height="34" rx="6" fill="#1E0A14" stroke="#E63946" stroke-width="1.2"/>
      <circle cx="18" cy="17" r="7" fill="#E63946"/>
      <text x="18" y="21" text-anchor="middle" font-family="Inter, monospace" font-size="10" font-weight="800" fill="#FFFFFF">2</text>
      <text x="36" y="22" font-family="Inter, Helvetica, Arial, sans-serif" font-size="12" font-weight="700" fill="#F5F7FA">Coordinated OT intrusion</text>
    </g>
    <line x1="18" y1="92" x2="18" y2="104" stroke="#E63946" stroke-width="1.4" stroke-dasharray="2 2"/>
    <g transform="translate(0,108)">
      <rect x="0" y="0" width="280" height="34" rx="6" fill="#3A0F1A" stroke="#FCA5A5" stroke-width="1.4"/>
      <circle cx="18" cy="17" r="7" fill="#FCA5A5"/>
      <text x="18" y="21" text-anchor="middle" font-family="Inter, monospace" font-size="10" font-weight="800" fill="#1A0005">3</text>
      <text x="36" y="22" font-family="Inter, Helvetica, Arial, sans-serif" font-size="12" font-weight="800" fill="#F5F7FA">Energy supply disruption risk</text>
    </g>
  </g>
  <!-- KPI pill -->
  <g transform="translate(28,334)" filter="url(#softShadow)">
    <rect x="0" y="0" width="280" height="32" rx="8" fill="#3A0F1A" stroke="#E63946" stroke-width="1.6"/>
    <text x="14" y="21" font-family="Inter, monospace" font-size="11" font-weight="700" fill="#F87171">SRC</text>
    <text x="140" y="22" text-anchor="middle" font-family="Inter, Helvetica, Arial, sans-serif" font-size="14" font-weight="900" fill="#F5F7FA">CERT Polska</text>
    <text x="266" y="21" text-anchor="end" font-family="Inter, monospace" font-size="10" font-weight="700" fill="#F87171">30+ plants</text>
  </g>
</g>

<!-- Ambient spark dots along timeline -->
<g opacity="0.8">
  <g fill="#8FB8FF">
    <circle cx="360" cy="170" r="1.2"><animate attributeName="opacity" values="0;1;0" dur="2s" repeatCount="indefinite"/></circle>
    <circle cx="500" cy="170" r="1.2"><animate attributeName="opacity" values="0;1;0" dur="2.2s" begin="0.4s" repeatCount="indefinite"/></circle>
  </g>
  <g fill="#FFD58A">
    <circle cx="700" cy="170" r="1.2"><animate attributeName="opacity" values="0;1;0" dur="1.9s" repeatCount="indefinite"/></circle>
    <circle cx="860" cy="170" r="1.2" opacity="0.5"/>
  </g>
  <g fill="#FCA5A5">
    <circle cx="1060" cy="170" r="1.2"><animate attributeName="opacity" values="0;1;0" dur="2.0s" repeatCount="indefinite"/></circle>
  </g>
</g>

<!-- cover-qr: https://tech.2twodragon.com/posts/2026/01/31/Tech_Security_Weekly_Digest_ShinyHunters_Vishing_Chrome_Extension_OT_Attack/ : 45x45 -->
<g transform="translate(1080,504)" filter="url(#softShadow)">
  <rect x="-8" y="-8" width="100" height="100" rx="6" fill="#FFFFFF"/>
  <path fill="#0A1020" d="M0.0 0.0h13.067v1.867h-13.067z M14.933 0.0h3.733v1.867h-3.733z M22.4 0.0h1.867v1.867h-1.867z M33.6 0.0h1.867v1.867h-1.867z M37.333 0.0h7.467v1.867h-7.467z M48.533 0.0h3.733v1.867h-3.733z M56.0 0.0h3.733v1.867h-3.733z M67.2 0.0h1.867v1.867h-1.867z M70.933 0.0h13.067v1.867h-13.067z M0.0 1.867h1.867v1.867h-1.867z M11.2 1.867h1.867v1.867h-1.867z M14.933 1.867h1.867v1.867h-1.867z M22.4 1.867h7.467v1.867h-7.467z M41.067 1.867h5.6v1.867h-5.6z M50.4 1.867h5.6v1.867h-5.6z M57.867 1.867h5.6v1.867h-5.6z M65.333 1.867h1.867v1.867h-1.867z M70.933 1.867h1.867v1.867h-1.867z M82.133 1.867h1.867v1.867h-1.867z M0.0 3.733h1.867v1.867h-1.867z M3.733 3.733h5.6v1.867h-5.6z M11.2 3.733h1.867v1.867h-1.867z M14.933 3.733h1.867v1.867h-1.867z M18.667 3.733h7.467v1.867h-7.467z M28.0 3.733h3.733v1.867h-3.733z M33.6 3.733h1.867v1.867h-1.867z M37.333 3.733h1.867v1.867h-1.867z M41.067 3.733h1.867v1.867h-1.867z M48.533 3.733h1.867v1.867h-1.867z M52.267 3.733h3.733v1.867h-3.733z M59.733 3.733h3.733v1.867h-3.733z M65.333 3.733h1.867v1.867h-1.867z M70.933 3.733h1.867v1.867h-1.867z M74.667 3.733h5.6v1.867h-5.6z M82.133 3.733h1.867v1.867h-1.867z M0.0 5.6h1.867v1.867h-1.867z M3.733 5.6h5.6v1.867h-5.6z M11.2 5.6h1.867v1.867h-1.867z M16.8 5.6h3.733v1.867h-3.733z M22.4 5.6h1.867v1.867h-1.867z M28.0 5.6h9.333v1.867h-9.333z M42.933 5.6h1.867v1.867h-1.867z M46.667 5.6h1.867v1.867h-1.867z M50.4 5.6h5.6v1.867h-5.6z M57.867 5.6h5.6v1.867h-5.6z M65.333 5.6h3.733v1.867h-3.733z M70.933 5.6h1.867v1.867h-1.867z M74.667 5.6h5.6v1.867h-5.6z M82.133 5.6h1.867v1.867h-1.867z M0.0 7.467h1.867v1.867h-1.867z M3.733 7.467h5.6v1.867h-5.6z M11.2 7.467h1.867v1.867h-1.867z M14.933 7.467h1.867v1.867h-1.867z M18.667 7.467h1.867v1.867h-1.867z M22.4 7.467h3.733v1.867h-3.733z M31.733 7.467h1.867v1.867h-1.867z M35.467 7.467h14.933v1.867h-14.933z M52.267 7.467h1.867v1.867h-1.867z M56.0 7.467h1.867v1.867h-1.867z M61.6 7.467h7.467v1.867h-7.467z M70.933 7.467h1.867v1.867h-1.867z M74.667 7.467h5.6v1.867h-5.6z M82.133 7.467h1.867v1.867h-1.867z M0.0 9.333h1.867v1.867h-1.867z M11.2 9.333h1.867v1.867h-1.867z M18.667 9.333h1.867v1.867h-1.867z M22.4 9.333h3.733v1.867h-3.733z M37.333 9.333h1.867v1.867h-1.867z M44.8 9.333h3.733v1.867h-3.733z M50.4 9.333h1.867v1.867h-1.867z M56.0 9.333h5.6v1.867h-5.6z M70.933 9.333h1.867v1.867h-1.867z M82.133 9.333h1.867v1.867h-1.867z M0.0 11.2h13.067v1.867h-13.067z M14.933 11.2h1.867v1.867h-1.867z M18.667 11.2h1.867v1.867h-1.867z M22.4 11.2h1.867v1.867h-1.867z M26.133 11.2h1.867v1.867h-1.867z M29.867 11.2h1.867v1.867h-1.867z M33.6 11.2h1.867v1.867h-1.867z M37.333 11.2h1.867v1.867h-1.867z M41.067 11.2h1.867v1.867h-1.867z M44.8 11.2h1.867v1.867h-1.867z M48.533 11.2h1.867v1.867h-1.867z M52.267 11.2h1.867v1.867h-1.867z M56.0 11.2h1.867v1.867h-1.867z M59.733 11.2h1.867v1.867h-1.867z M63.467 11.2h1.867v1.867h-1.867z M67.2 11.2h1.867v1.867h-1.867z M70.933 11.2h13.067v1.867h-13.067z M16.8 13.067h7.467v1.867h-7.467z M26.133 13.067h3.733v1.867h-3.733z M31.733 13.067h1.867v1.867h-1.867z M37.333 13.067h1.867v1.867h-1.867z M44.8 13.067h5.6v1.867h-5.6z M52.267 13.067h1.867v1.867h-1.867z M57.867 13.067h1.867v1.867h-1.867z M61.6 13.067h1.867v1.867h-1.867z M65.333 13.067h1.867v1.867h-1.867z M0.0 14.933h1.867v1.867h-1.867z M5.6 14.933h13.067v1.867h-13.067z M20.533 14.933h5.6v1.867h-5.6z M28.0 14.933h3.733v1.867h-3.733z M33.6 14.933h1.867v1.867h-1.867z M37.333 14.933h9.333v1.867h-9.333z M52.267 14.933h5.6v1.867h-5.6z M61.6 14.933h5.6v1.867h-5.6z M69.067 14.933h1.867v1.867h-1.867z M74.667 14.933h1.867v1.867h-1.867z M78.4 14.933h5.6v1.867h-5.6z M0.0 16.8h5.6v1.867h-5.6z M9.333 16.8h1.867v1.867h-1.867z M14.933 16.8h3.733v1.867h-3.733z M22.4 16.8h1.867v1.867h-1.867z M33.6 16.8h3.733v1.867h-3.733z M39.2 16.8h1.867v1.867h-1.867z M42.933 16.8h1.867v1.867h-1.867z M46.667 16.8h3.733v1.867h-3.733z M54.133 16.8h3.733v1.867h-3.733z M59.733 16.8h9.333v1.867h-9.333z M70.933 16.8h3.733v1.867h-3.733z M76.533 16.8h5.6v1.867h-5.6z M3.733 18.667h9.333v1.867h-9.333z M14.933 18.667h1.867v1.867h-1.867z M22.4 18.667h1.867v1.867h-1.867z M26.133 18.667h9.333v1.867h-9.333z M41.067 18.667h1.867v1.867h-1.867z M44.8 18.667h1.867v1.867h-1.867z M50.4 18.667h1.867v1.867h-1.867z M54.133 18.667h1.867v1.867h-1.867z M61.6 18.667h3.733v1.867h-3.733z M67.2 18.667h3.733v1.867h-3.733z M72.8 18.667h1.867v1.867h-1.867z M76.533 18.667h7.467v1.867h-7.467z M0.0 20.533h1.867v1.867h-1.867z M7.467 20.533h3.733v1.867h-3.733z M14.933 20.533h3.733v1.867h-3.733z M26.133 20.533h1.867v1.867h-1.867z M31.733 20.533h3.733v1.867h-3.733z M39.2 20.533h7.467v1.867h-7.467z M52.267 20.533h5.6v1.867h-5.6z M59.733 20.533h1.867v1.867h-1.867z M63.467 20.533h1.867v1.867h-1.867z M67.2 20.533h1.867v1.867h-1.867z M78.4 20.533h1.867v1.867h-1.867z M3.733 22.4h1.867v1.867h-1.867z M7.467 22.4h13.067v1.867h-13.067z M22.4 22.4h1.867v1.867h-1.867z M26.133 22.4h1.867v1.867h-1.867z M33.6 22.4h1.867v1.867h-1.867z M41.067 22.4h1.867v1.867h-1.867z M44.8 22.4h1.867v1.867h-1.867z M52.267 22.4h1.867v1.867h-1.867z M57.867 22.4h7.467v1.867h-7.467z M69.067 22.4h3.733v1.867h-3.733z M74.667 22.4h1.867v1.867h-1.867z M80.267 22.4h1.867v1.867h-1.867z M0.0 24.267h1.867v1.867h-1.867z M3.733 24.267h5.6v1.867h-5.6z M13.067 24.267h5.6v1.867h-5.6z M20.533 24.267h3.733v1.867h-3.733z M35.467 24.267h1.867v1.867h-1.867z M39.2 24.267h1.867v1.867h-1.867z M42.933 24.267h3.733v1.867h-3.733z M48.533 24.267h9.333v1.867h-9.333z M59.733 24.267h1.867v1.867h-1.867z M67.2 24.267h5.6v1.867h-5.6z M74.667 24.267h1.867v1.867h-1.867z M82.133 24.267h1.867v1.867h-1.867z M5.6 26.133h7.467v1.867h-7.467z M14.933 26.133h1.867v1.867h-1.867z M18.667 26.133h31.733v1.867h-31.733z M57.867 26.133h1.867v1.867h-1.867z M65.333 26.133h1.867v1.867h-1.867z M70.933 26.133h7.467v1.867h-7.467z M0.0 28.0h11.2v1.867h-11.2z M14.933 28.0h1.867v1.867h-1.867z M18.667 28.0h1.867v1.867h-1.867z M22.4 28.0h3.733v1.867h-3.733z M31.733 28.0h1.867v1.867h-1.867z M35.467 28.0h9.333v1.867h-9.333z M46.667 28.0h3.733v1.867h-3.733z M54.133 28.0h5.6v1.867h-5.6z M63.467 28.0h3.733v1.867h-3.733z M69.067 28.0h3.733v1.867h-3.733z M74.667 28.0h7.467v1.867h-7.467z M0.0 29.867h1.867v1.867h-1.867z M5.6 29.867h3.733v1.867h-3.733z M11.2 29.867h1.867v1.867h-1.867z M14.933 29.867h5.6v1.867h-5.6z M22.4 29.867h1.867v1.867h-1.867z M28.0 29.867h3.733v1.867h-3.733z M33.6 29.867h3.733v1.867h-3.733z M39.2 29.867h7.467v1.867h-7.467z M48.533 29.867h1.867v1.867h-1.867z M54.133 29.867h3.733v1.867h-3.733z M59.733 29.867h1.867v1.867h-1.867z M63.467 29.867h1.867v1.867h-1.867z M70.933 29.867h1.867v1.867h-1.867z M76.533 29.867h1.867v1.867h-1.867z M80.267 29.867h3.733v1.867h-3.733z M0.0 31.733h5.6v1.867h-5.6z M20.533 31.733h7.467v1.867h-7.467z M29.867 31.733h3.733v1.867h-3.733z M41.067 31.733h1.867v1.867h-1.867z M46.667 31.733h1.867v1.867h-1.867z M50.4 31.733h3.733v1.867h-3.733z M56.0 31.733h1.867v1.867h-1.867z M59.733 31.733h5.6v1.867h-5.6z M67.2 31.733h3.733v1.867h-3.733z M72.8 31.733h1.867v1.867h-1.867z M82.133 31.733h1.867v1.867h-1.867z M0.0 33.6h1.867v1.867h-1.867z M3.733 33.6h1.867v1.867h-1.867z M11.2 33.6h3.733v1.867h-3.733z M16.8 33.6h1.867v1.867h-1.867z M22.4 33.6h1.867v1.867h-1.867z M28.0 33.6h5.6v1.867h-5.6z M37.333 33.6h1.867v1.867h-1.867z M44.8 33.6h3.733v1.867h-3.733z M52.267 33.6h1.867v1.867h-1.867z M69.067 33.6h1.867v1.867h-1.867z M82.133 33.6h1.867v1.867h-1.867z M0.0 35.467h1.867v1.867h-1.867z M3.733 35.467h3.733v1.867h-3.733z M16.8 35.467h1.867v1.867h-1.867z M26.133 35.467h1.867v1.867h-1.867z M29.867 35.467h5.6v1.867h-5.6z M37.333 35.467h3.733v1.867h-3.733z M42.933 35.467h3.733v1.867h-3.733z M48.533 35.467h3.733v1.867h-3.733z M54.133 35.467h5.6v1.867h-5.6z M61.6 35.467h1.867v1.867h-1.867z M65.333 35.467h1.867v1.867h-1.867z M72.8 35.467h7.467v1.867h-7.467z M82.133 35.467h1.867v1.867h-1.867z M0.0 37.333h16.8v1.867h-16.8z M18.667 37.333h5.6v1.867h-5.6z M29.867 37.333h5.6v1.867h-5.6z M37.333 37.333h11.2v1.867h-11.2z M52.267 37.333h1.867v1.867h-1.867z M56.0 37.333h1.867v1.867h-1.867z M63.467 37.333h13.067v1.867h-13.067z M78.4 37.333h1.867v1.867h-1.867z M0.0 39.2h5.6v1.867h-5.6z M7.467 39.2h1.867v1.867h-1.867z M14.933 39.2h1.867v1.867h-1.867z M24.267 39.2h5.6v1.867h-5.6z M37.333 39.2h1.867v1.867h-1.867z M44.8 39.2h5.6v1.867h-5.6z M52.267 39.2h13.067v1.867h-13.067z M67.2 39.2h1.867v1.867h-1.867z M74.667 39.2h7.467v1.867h-7.467z M1.867 41.067h1.867v1.867h-1.867z M5.6 41.067h3.733v1.867h-3.733z M11.2 41.067h1.867v1.867h-1.867z M14.933 41.067h1.867v1.867h-1.867z M18.667 41.067h1.867v1.867h-1.867z M24.267 41.067h3.733v1.867h-3.733z M29.867 41.067h1.867v1.867h-1.867z M37.333 41.067h1.867v1.867h-1.867z M41.067 41.067h1.867v1.867h-1.867z M44.8 41.067h11.2v1.867h-11.2z M57.867 41.067h3.733v1.867h-3.733z M63.467 41.067h1.867v1.867h-1.867z M67.2 41.067h1.867v1.867h-1.867z M70.933 41.067h1.867v1.867h-1.867z M74.667 41.067h9.333v1.867h-9.333z M0.0 42.933h1.867v1.867h-1.867z M7.467 42.933h1.867v1.867h-1.867z M14.933 42.933h1.867v1.867h-1.867z M22.4 42.933h5.6v1.867h-5.6z M29.867 42.933h3.733v1.867h-3.733z M35.467 42.933h3.733v1.867h-3.733z M44.8 42.933h3.733v1.867h-3.733z M50.4 42.933h1.867v1.867h-1.867z M59.733 42.933h9.333v1.867h-9.333z M74.667 42.933h1.867v1.867h-1.867z M78.4 42.933h5.6v1.867h-5.6z M0.0 44.8h1.867v1.867h-1.867z M3.733 44.8h1.867v1.867h-1.867z M7.467 44.8h14.933v1.867h-14.933z M24.267 44.8h1.867v1.867h-1.867z M28.0 44.8h1.867v1.867h-1.867z M35.467 44.8h11.2v1.867h-11.2z M52.267 44.8h3.733v1.867h-3.733z M59.733 44.8h1.867v1.867h-1.867z M63.467 44.8h1.867v1.867h-1.867z M67.2 44.8h9.333v1.867h-9.333z M80.267 44.8h3.733v1.867h-3.733z M5.6 46.667h5.6v1.867h-5.6z M13.067 46.667h11.2v1.867h-11.2z M33.6 46.667h1.867v1.867h-1.867z M37.333 46.667h1.867v1.867h-1.867z M41.067 46.667h5.6v1.867h-5.6z M48.533 46.667h1.867v1.867h-1.867z M54.133 46.667h3.733v1.867h-3.733z M61.6 46.667h1.867v1.867h-1.867z M78.4 46.667h3.733v1.867h-3.733z M1.867 48.533h5.6v1.867h-5.6z M9.333 48.533h5.6v1.867h-5.6z M20.533 48.533h5.6v1.867h-5.6z M35.467 48.533h5.6v1.867h-5.6z M46.667 48.533h3.733v1.867h-3.733z M52.267 48.533h3.733v1.867h-3.733z M57.867 48.533h1.867v1.867h-1.867z M61.6 48.533h1.867v1.867h-1.867z M67.2 48.533h1.867v1.867h-1.867z M72.8 48.533h1.867v1.867h-1.867z M76.533 48.533h1.867v1.867h-1.867z M0.0 50.4h1.867v1.867h-1.867z M3.733 50.4h5.6v1.867h-5.6z M13.067 50.4h5.6v1.867h-5.6z M31.733 50.4h3.733v1.867h-3.733z M39.2 50.4h3.733v1.867h-3.733z M44.8 50.4h9.333v1.867h-9.333z M57.867 50.4h1.867v1.867h-1.867z M63.467 50.4h3.733v1.867h-3.733z M74.667 50.4h1.867v1.867h-1.867z M78.4 50.4h5.6v1.867h-5.6z M0.0 52.267h3.733v1.867h-3.733z M7.467 52.267h1.867v1.867h-1.867z M11.2 52.267h3.733v1.867h-3.733z M16.8 52.267h3.733v1.867h-3.733z M22.4 52.267h3.733v1.867h-3.733z M28.0 52.267h3.733v1.867h-3.733z M35.467 52.267h3.733v1.867h-3.733z M42.933 52.267h1.867v1.867h-1.867z M46.667 52.267h3.733v1.867h-3.733z M56.0 52.267h1.867v1.867h-1.867z M59.733 52.267h1.867v1.867h-1.867z M65.333 52.267h1.867v1.867h-1.867z M74.667 52.267h3.733v1.867h-3.733z M3.733 54.133h5.6v1.867h-5.6z M16.8 54.133h5.6v1.867h-5.6z M24.267 54.133h1.867v1.867h-1.867z M29.867 54.133h1.867v1.867h-1.867z M35.467 54.133h5.6v1.867h-5.6z M46.667 54.133h1.867v1.867h-1.867z M56.0 54.133h5.6v1.867h-5.6z M63.467 54.133h1.867v1.867h-1.867z M70.933 54.133h5.6v1.867h-5.6z M82.133 54.133h1.867v1.867h-1.867z M0.0 56.0h1.867v1.867h-1.867z M7.467 56.0h7.467v1.867h-7.467z M18.667 56.0h1.867v1.867h-1.867z M22.4 56.0h7.467v1.867h-7.467z M31.733 56.0h5.6v1.867h-5.6z M41.067 56.0h1.867v1.867h-1.867z M46.667 56.0h1.867v1.867h-1.867z M54.133 56.0h1.867v1.867h-1.867z M57.867 56.0h5.6v1.867h-5.6z M65.333 56.0h14.933v1.867h-14.933z M82.133 56.0h1.867v1.867h-1.867z M0.0 57.867h1.867v1.867h-1.867z M13.067 57.867h3.733v1.867h-3.733z M28.0 57.867h7.467v1.867h-7.467z M37.333 57.867h1.867v1.867h-1.867z M41.067 57.867h5.6v1.867h-5.6z M48.533 57.867h11.2v1.867h-11.2z M61.6 57.867h1.867v1.867h-1.867z M65.333 57.867h5.6v1.867h-5.6z M76.533 57.867h5.6v1.867h-5.6z M0.0 59.733h3.733v1.867h-3.733z M5.6 59.733h1.867v1.867h-1.867z M9.333 59.733h3.733v1.867h-3.733z M16.8 59.733h1.867v1.867h-1.867z M22.4 59.733h1.867v1.867h-1.867z M26.133 59.733h7.467v1.867h-7.467z M35.467 59.733h3.733v1.867h-3.733z M41.067 59.733h5.6v1.867h-5.6z M52.267 59.733h3.733v1.867h-3.733z M57.867 59.733h1.867v1.867h-1.867z M61.6 59.733h3.733v1.867h-3.733z M67.2 59.733h3.733v1.867h-3.733z M76.533 59.733h1.867v1.867h-1.867z M82.133 59.733h1.867v1.867h-1.867z M22.4 61.6h7.467v1.867h-7.467z M35.467 61.6h1.867v1.867h-1.867z M44.8 61.6h5.6v1.867h-5.6z M52.267 61.6h5.6v1.867h-5.6z M59.733 61.6h7.467v1.867h-7.467z M72.8 61.6h3.733v1.867h-3.733z M78.4 61.6h1.867v1.867h-1.867z M7.467 63.467h1.867v1.867h-1.867z M11.2 63.467h3.733v1.867h-3.733z M16.8 63.467h5.6v1.867h-5.6z M24.267 63.467h1.867v1.867h-1.867z M33.6 63.467h1.867v1.867h-1.867z M39.2 63.467h1.867v1.867h-1.867z M46.667 63.467h1.867v1.867h-1.867z M50.4 63.467h5.6v1.867h-5.6z M65.333 63.467h3.733v1.867h-3.733z M70.933 63.467h3.733v1.867h-3.733z M80.267 63.467h3.733v1.867h-3.733z M1.867 65.333h7.467v1.867h-7.467z M13.067 65.333h3.733v1.867h-3.733z M18.667 65.333h5.6v1.867h-5.6z M26.133 65.333h5.6v1.867h-5.6z M33.6 65.333h1.867v1.867h-1.867z M39.2 65.333h3.733v1.867h-3.733z M44.8 65.333h5.6v1.867h-5.6z M56.0 65.333h1.867v1.867h-1.867z M59.733 65.333h1.867v1.867h-1.867z M67.2 65.333h5.6v1.867h-5.6z M78.4 65.333h3.733v1.867h-3.733z M0.0 67.2h1.867v1.867h-1.867z M5.6 67.2h3.733v1.867h-3.733z M11.2 67.2h1.867v1.867h-1.867z M14.933 67.2h1.867v1.867h-1.867z M18.667 67.2h7.467v1.867h-7.467z M28.0 67.2h5.6v1.867h-5.6z M37.333 67.2h9.333v1.867h-9.333z M52.267 67.2h1.867v1.867h-1.867z M56.0 67.2h1.867v1.867h-1.867z M59.733 67.2h18.667v1.867h-18.667z M82.133 67.2h1.867v1.867h-1.867z M14.933 69.067h7.467v1.867h-7.467z M29.867 69.067h5.6v1.867h-5.6z M37.333 69.067h1.867v1.867h-1.867z M44.8 69.067h1.867v1.867h-1.867z M48.533 69.067h14.933v1.867h-14.933z M65.333 69.067h3.733v1.867h-3.733z M74.667 69.067h5.6v1.867h-5.6z M0.0 70.933h13.067v1.867h-13.067z M14.933 70.933h3.733v1.867h-3.733z M20.533 70.933h9.333v1.867h-9.333z M37.333 70.933h1.867v1.867h-1.867z M41.067 70.933h1.867v1.867h-1.867z M44.8 70.933h3.733v1.867h-3.733z M50.4 70.933h3.733v1.867h-3.733z M65.333 70.933h3.733v1.867h-3.733z M70.933 70.933h1.867v1.867h-1.867z M74.667 70.933h1.867v1.867h-1.867z M78.4 70.933h1.867v1.867h-1.867z M0.0 72.8h1.867v1.867h-1.867z M11.2 72.8h1.867v1.867h-1.867z M14.933 72.8h1.867v1.867h-1.867z M18.667 72.8h5.6v1.867h-5.6z M31.733 72.8h7.467v1.867h-7.467z M44.8 72.8h3.733v1.867h-3.733z M57.867 72.8h3.733v1.867h-3.733z M63.467 72.8h5.6v1.867h-5.6z M74.667 72.8h7.467v1.867h-7.467z M0.0 74.667h1.867v1.867h-1.867z M3.733 74.667h5.6v1.867h-5.6z M11.2 74.667h1.867v1.867h-1.867z M14.933 74.667h1.867v1.867h-1.867z M18.667 74.667h1.867v1.867h-1.867z M22.4 74.667h5.6v1.867h-5.6z M31.733 74.667h3.733v1.867h-3.733z M37.333 74.667h11.2v1.867h-11.2z M56.0 74.667h5.6v1.867h-5.6z M63.467 74.667h1.867v1.867h-1.867z M67.2 74.667h9.333v1.867h-9.333z M80.267 74.667h1.867v1.867h-1.867z M0.0 76.533h1.867v1.867h-1.867z M3.733 76.533h5.6v1.867h-5.6z M11.2 76.533h1.867v1.867h-1.867z M14.933 76.533h5.6v1.867h-5.6z M24.267 76.533h3.733v1.867h-3.733z M31.733 76.533h1.867v1.867h-1.867z M39.2 76.533h5.6v1.867h-5.6z M46.667 76.533h1.867v1.867h-1.867z M50.4 76.533h1.867v1.867h-1.867z M56.0 76.533h11.2v1.867h-11.2z M70.933 76.533h5.6v1.867h-5.6z M80.267 76.533h3.733v1.867h-3.733z M0.0 78.4h1.867v1.867h-1.867z M3.733 78.4h5.6v1.867h-5.6z M11.2 78.4h1.867v1.867h-1.867z M37.333 78.4h3.733v1.867h-3.733z M42.933 78.4h5.6v1.867h-5.6z M54.133 78.4h3.733v1.867h-3.733z M61.6 78.4h1.867v1.867h-1.867z M67.2 78.4h1.867v1.867h-1.867z M70.933 78.4h1.867v1.867h-1.867z M74.667 78.4h1.867v1.867h-1.867z M82.133 78.4h1.867v1.867h-1.867z M0.0 80.267h1.867v1.867h-1.867z M11.2 80.267h1.867v1.867h-1.867z M16.8 80.267h7.467v1.867h-7.467z M26.133 80.267h3.733v1.867h-3.733z M31.733 80.267h5.6v1.867h-5.6z M39.2 80.267h5.6v1.867h-5.6z M46.667 80.267h3.733v1.867h-3.733z M52.267 80.267h3.733v1.867h-3.733z M61.6 80.267h7.467v1.867h-7.467z M70.933 80.267h3.733v1.867h-3.733z M78.4 80.267h5.6v1.867h-5.6z M0.0 82.133h13.067v1.867h-13.067z M14.933 82.133h3.733v1.867h-3.733z M20.533 82.133h3.733v1.867h-3.733z M29.867 82.133h1.867v1.867h-1.867z M33.6 82.133h1.867v1.867h-1.867z M42.933 82.133h3.733v1.867h-3.733z M48.533 82.133h1.867v1.867h-1.867z M52.267 82.133h3.733v1.867h-3.733z M57.867 82.133h1.867v1.867h-1.867z M65.333 82.133h1.867v1.867h-1.867z M69.067 82.133h5.6v1.867h-5.6z M76.533 82.133h1.867v1.867h-1.867z"/>
</g>
<text x="1122" y="614" font-family="Inter, Helvetica, Arial, sans-serif" font-size="10" font-weight="700" fill="#F5F7FA" text-anchor="middle">scan / full post</text>
</svg>
