<svg xmlns="http://www.w3.org/2000/svg" viewBox="0 0 1200 630" fill="none">
  <defs>
    <linearGradient id="bg" x1="0" y1="0" x2="1200" y2="630">
      <stop offset="0%" stop-color="#0f172a"/><stop offset="50%" stop-color="#1e293b"/><stop offset="100%" stop-color="#0f172a"/>
    </linearGradient>
    <linearGradient id="accent" x1="0" y1="0" x2="1" y2="1">
      <stop offset="0%" stop-color="#ec4899"/><stop offset="100%" stop-color="#db2777"/>
    </linearGradient>
  </defs>
  <rect width="1200" height="630" fill="url(#bg)"/>
  <g opacity="0.05" stroke="#94a3b8" stroke-width="1">
    <line x1="0" y1="100" x2="1200" y2="100"/><line x1="0" y1="200" x2="1200" y2="200"/>
    <line x1="0" y1="300" x2="1200" y2="300"/><line x1="0" y1="400" x2="1200" y2="400"/>
    <line x1="0" y1="500" x2="1200" y2="500"/><line x1="200" y1="0" x2="200" y2="630"/>
    <line x1="400" y1="0" x2="400" y2="630"/><line x1="600" y1="0" x2="600" y2="630"/>
    <line x1="800" y1="0" x2="800" y2="630"/><line x1="1000" y1="0" x2="1000" y2="630"/>
  </g>
  <!-- Workflow phases icon -->
  <g transform="translate(80, 180)">
    <rect x="0" y="0" width="120" height="120" rx="20" fill="url(#accent)" opacity="0.9"/>
    <!-- 5 connected circles for phases -->
    <circle cx="30" cy="35" r="10" fill="none" stroke="white" stroke-width="2"/>
    <text x="30" y="39" text-anchor="middle" fill="white" font-family="Arial, sans-serif" font-size="10" font-weight="bold">1</text>
    <circle cx="70" cy="25" r="10" fill="none" stroke="white" stroke-width="2"/>
    <text x="70" y="29" text-anchor="middle" fill="white" font-family="Arial, sans-serif" font-size="10" font-weight="bold">2</text>
    <circle cx="95" cy="55" r="10" fill="none" stroke="white" stroke-width="2"/>
    <text x="95" y="59" text-anchor="middle" fill="white" font-family="Arial, sans-serif" font-size="10" font-weight="bold">3</text>
    <circle cx="75" cy="85" r="10" fill="none" stroke="white" stroke-width="2"/>
    <text x="75" y="89" text-anchor="middle" fill="white" font-family="Arial, sans-serif" font-size="10" font-weight="bold">4</text>
    <circle cx="35" cy="80" r="10" fill="none" stroke="white" stroke-width="2"/>
    <text x="35" y="84" text-anchor="middle" fill="white" font-family="Arial, sans-serif" font-size="10" font-weight="bold">5</text>
    <line x1="40" y1="33" x2="60" y2="27" stroke="white" stroke-width="1.5"/>
    <line x1="78" y1="30" x2="90" y2="47" stroke="white" stroke-width="1.5"/>
    <line x1="90" y1="63" x2="82" y2="78" stroke="white" stroke-width="1.5"/>
    <line x1="65" y1="87" x2="45" y2="82" stroke="white" stroke-width="1.5"/>
  </g>
  <!-- Phase list -->
  <g transform="translate(80, 370)">
    <circle cx="12" cy="12" r="10" fill="#db2777" stroke="#f472b6" stroke-width="1.5"/>
    <text x="12" y="16" text-anchor="middle" fill="white" font-family="Arial, sans-serif" font-size="10" font-weight="bold">1</text>
    <text x="30" y="16" fill="#f472b6" font-family="Arial, sans-serif" font-size="11">Research</text>
    <circle cx="12" cy="40" r="10" fill="#7c3aed" stroke="#a78bfa" stroke-width="1.5"/>
    <text x="12" y="44" text-anchor="middle" fill="white" font-family="Arial, sans-serif" font-size="10" font-weight="bold">2</text>
    <text x="30" y="44" fill="#a78bfa" font-family="Arial, sans-serif" font-size="11">Design</text>
    <circle cx="12" cy="68" r="10" fill="#2563eb" stroke="#60a5fa" stroke-width="1.5"/>
    <text x="12" y="72" text-anchor="middle" fill="white" font-family="Arial, sans-serif" font-size="10" font-weight="bold">3</text>
    <text x="30" y="72" fill="#60a5fa" font-family="Arial, sans-serif" font-size="11">Develop</text>
    <circle cx="12" cy="96" r="10" fill="#059669" stroke="#34d399" stroke-width="1.5"/>
    <text x="12" y="100" text-anchor="middle" fill="white" font-family="Arial, sans-serif" font-size="10" font-weight="bold">4</text>
    <text x="30" y="100" fill="#34d399" font-family="Arial, sans-serif" font-size="11">Test</text>
    <circle cx="12" cy="124" r="10" fill="#d97706" stroke="#fbbf24" stroke-width="1.5"/>
    <text x="12" y="128" text-anchor="middle" fill="white" font-family="Arial, sans-serif" font-size="10" font-weight="bold">5</text>
    <text x="30" y="128" fill="#fbbf24" font-family="Arial, sans-serif" font-size="11">Deploy</text>
  </g>
  <g transform="translate(260, 100)">
    <text x="0" y="0" fill="#f8fafc" font-family="Arial, sans-serif" font-size="18" font-weight="bold" letter-spacing="4">AI WORKFLOW</text>
    <text x="0" y="60" fill="#f8fafc" font-family="Arial, sans-serif" font-size="42" font-weight="bold">AI Workflow 5 Phases</text>
    <text x="0" y="110" fill="#94a3b8" font-family="Arial, sans-serif" font-size="36" font-weight="300">Implementation Guide</text>
  </g>
  <rect x="260" y="240" width="200" height="36" rx="18" fill="url(#accent)" opacity="0.9"/>
  <text x="360" y="264" text-anchor="middle" fill="white" font-family="Arial, sans-serif" font-size="16" font-weight="bold">February 05, 2026</text>
  <g transform="translate(260, 310)">
    <rect x="0" y="0" width="200" height="90" rx="8" fill="#1e293b" stroke="#334155" stroke-width="1"/>
    <text x="20" y="30" fill="#f472b6" font-family="Arial, sans-serif" font-size="12" font-weight="bold">PHASES</text>
    <text x="20" y="65" fill="#f8fafc" font-family="Arial, sans-serif" font-size="32" font-weight="bold">5</text>
    <text x="48" y="65" fill="#64748b" font-family="Arial, sans-serif" font-size="14">core phases</text>
    <rect x="220" y="0" width="200" height="90" rx="8" fill="#1e293b" stroke="#334155" stroke-width="1"/>
    <text x="240" y="30" fill="#a78bfa" font-family="Arial, sans-serif" font-size="12" font-weight="bold">TASKS</text>
    <text x="240" y="65" fill="#f8fafc" font-family="Arial, sans-serif" font-size="32" font-weight="bold">25</text>
    <text x="290" y="65" fill="#64748b" font-family="Arial, sans-serif" font-size="14">sub-tasks</text>
    <rect x="440" y="0" width="200" height="90" rx="8" fill="#1e293b" stroke="#334155" stroke-width="1"/>
    <text x="460" y="30" fill="#34d399" font-family="Arial, sans-serif" font-size="12" font-weight="bold">EFFICIENCY</text>
    <text x="460" y="65" fill="#f8fafc" font-family="Arial, sans-serif" font-size="32" font-weight="bold">3x</text>
    <text x="510" y="65" fill="#64748b" font-family="Arial, sans-serif" font-size="14">faster</text>
  </g>
  <g transform="translate(260, 440)">
    <rect x="0" y="0" width="120" height="32" rx="16" fill="#831843" opacity="0.7"/>
    <text x="60" y="21" text-anchor="middle" fill="#f9a8d4" font-family="Arial, sans-serif" font-size="13">Research</text>
    <rect x="135" y="0" width="110" height="32" rx="16" fill="#4c1d95" opacity="0.7"/>
    <text x="190" y="21" text-anchor="middle" fill="#c4b5fd" font-family="Arial, sans-serif" font-size="13">Design</text>
    <rect x="260" y="0" width="110" height="32" rx="16" fill="#1e3a8a" opacity="0.7"/>
    <text x="315" y="21" text-anchor="middle" fill="#93c5fd" font-family="Arial, sans-serif" font-size="13">Develop</text>
    <rect x="385" y="0" width="100" height="32" rx="16" fill="#064e3b" opacity="0.7"/>
    <text x="435" y="21" text-anchor="middle" fill="#6ee7b7" font-family="Arial, sans-serif" font-size="13">Test</text>
    <rect x="500" y="0" width="110" height="32" rx="16" fill="#78350f" opacity="0.7"/>
    <text x="555" y="21" text-anchor="middle" fill="#fcd34d" font-family="Arial, sans-serif" font-size="13">Deploy</text>
  </g>
  <g transform="translate(900, 180)" opacity="0.4">
    <circle cx="50" cy="50" r="6" fill="#f472b6"/><circle cx="120" cy="30" r="4" fill="#a78bfa"/>
    <circle cx="150" cy="90" r="5" fill="#60a5fa"/><circle cx="80" cy="120" r="4" fill="#34d399"/>
    <circle cx="200" cy="60" r="3" fill="#fbbf24"/><circle cx="30" cy="150" r="5" fill="#f472b6"/>
    <circle cx="180" cy="140" r="4" fill="#a78bfa"/>
    <line x1="50" y1="50" x2="120" y2="30" stroke="#475569" stroke-width="1"/>
    <line x1="50" y1="50" x2="80" y2="120" stroke="#475569" stroke-width="1"/>
    <line x1="120" y1="30" x2="150" y2="90" stroke="#475569" stroke-width="1"/>
    <line x1="150" y1="90" x2="200" y2="60" stroke="#475569" stroke-width="1"/>
    <line x1="80" y1="120" x2="30" y2="150" stroke="#475569" stroke-width="1"/>
    <line x1="150" y1="90" x2="180" y2="140" stroke="#475569" stroke-width="1"/>
  </g>
  <rect x="0" y="510" width="1200" height="120" fill="#0f172a" opacity="0.8"/>
  <rect x="0" y="510" width="1200" height="2" fill="url(#accent)" opacity="0.5"/>
  <text x="80" y="560" fill="#94a3b8" font-family="Arial, sans-serif" font-size="16">tech.2twodragon.com</text>
  <text x="80" y="590" fill="#64748b" font-family="Arial, sans-serif" font-size="13">AI Workflow 5 Phases Implementation Guide</text>
  <text x="1120" y="560" text-anchor="end" fill="#64748b" font-family="Arial, sans-serif" font-size="14">AI Development Lifecycle</text>
  <text x="1120" y="590" text-anchor="end" fill="#64748b" font-family="Arial, sans-serif" font-size="13">AI | Workflow | Development | Ops</text>
</svg>