<svg xmlns="http://www.w3.org/2000/svg" width="1200" height="630" viewBox="0 0 1200 630">
  <title>Security Weekly Digest - April 11 2026</title>
  <defs>
    <linearGradient id="bg" x1="0%" y1="0%" x2="100%" y2="100%">
      <stop offset="0%" stop-color="#0a0e1a"/>
      <stop offset="60%" stop-color="#0f1628"/>
      <stop offset="100%" stop-color="#141b2d"/>
    </linearGradient>
    <linearGradient id="hg" x1="0%" y1="0%" x2="100%" y2="0%">
      <stop offset="0%" stop-color="#1e293b"/>
      <stop offset="100%" stop-color="#0f172a"/>
    </linearGradient>
    <filter id="glow" x="-50%" y="-50%" width="200%" height="200%">
      <feGaussianBlur stdDeviation="18"/>
    </filter>
    <marker id="ar" markerWidth="8" markerHeight="8" refX="4" refY="4" orient="auto">
      <path d="M0,0 L8,4 L0,8 Z" fill="#a855f7" opacity="0.7"/>
    </marker>
  </defs>

  <rect width="1200" height="630" fill="url(#bg)"/>

  <!-- Grid -->
  <g opacity="0.04" stroke="#94a3b8" stroke-width="0.5">
    <line x1="0" y1="105" x2="1200" y2="105"/><line x1="0" y1="210" x2="1200" y2="210"/>
    <line x1="0" y1="315" x2="1200" y2="315"/><line x1="0" y1="420" x2="1200" y2="420"/>
    <line x1="0" y1="525" x2="1200" y2="525"/>
    <line x1="240" y1="0" x2="240" y2="630"/><line x1="480" y1="0" x2="480" y2="630"/>
    <line x1="720" y1="0" x2="720" y2="630"/><line x1="960" y1="0" x2="960" y2="630"/>
  </g>

  <!-- Glow orbs -->
  <circle cx="200" cy="300" r="200" fill="#a855f7" opacity="0.07" filter="url(#glow)"/>
  <circle cx="600" cy="350" r="180" fill="#f59e0b" opacity="0.05" filter="url(#glow)"/>
  <circle cx="1000" cy="300" r="180" fill="#22d3ee" opacity="0.06" filter="url(#glow)"/>

  <!-- Header -->
  <rect x="0" y="0" width="1200" height="80" fill="url(#hg)" opacity="0.9"/>
  <rect x="0" y="78" width="1200" height="2" fill="#334155" opacity="0.8"/>
  <g transform="translate(48,40)">
    <path d="M0,-22 L18,-12 L18,3 C18,13 10,20 0,24 C-10,20 -18,13 -18,3 L-18,-12 Z" fill="#2a1e3f" stroke="#a855f7" stroke-width="1.5"/>
    <path d="M-7,1 L-2,6 L8,-5" stroke="#a855f7" stroke-width="2.5" fill="none" stroke-linecap="round"/>
  </g>
  <text x="80" y="44" font-family="Arial,sans-serif" font-size="28" font-weight="700" fill="#f1f5f9">Security Weekly Digest</text>
  <rect x="990" y="18" width="178" height="44" rx="6" fill="#1e293b" stroke="#334155" stroke-width="1"/>
  <text x="1079" y="48" font-family="Arial,sans-serif" font-size="15" font-weight="700" fill="#94a3b8" text-anchor="middle">April 11, 2026</text>

  <!-- Card 1: GlassWorm / Zig Dropper -->
  <rect x="32" y="100" width="220" height="120" rx="8" fill="#1a0f1d" stroke="#a855f7" stroke-width="1.5"/>
  <circle cx="52" cy="120" r="6" fill="#a855f7"/>
  <g transform="translate(142,150)">
    <rect x="-22" y="-16" width="44" height="32" rx="4" fill="#0f172a" stroke="#a855f7" stroke-width="1.5"/>
    <text x="0" y="4" font-family="Courier New" font-size="11" font-weight="700" fill="#a855f7" text-anchor="middle">&lt;/&gt;</text>
    <path d="M-22,12 L22,12" stroke="#a855f7" stroke-width="1" opacity="0.5"/>
    <circle cx="0" cy="22" r="4" fill="#a855f7" opacity="0.6"/>
  </g>
  <text x="142" y="195" font-family="Arial,sans-serif" font-size="13" font-weight="700" fill="#a855f7" text-anchor="middle">GLASSWORM / ZIG</text>

  <!-- Card 2: Browser Extension AI -->
  <rect x="268" y="100" width="220" height="120" rx="8" fill="#1a0d0d" stroke="#f59e0b" stroke-width="1.5"/>
  <circle cx="288" cy="120" r="6" fill="#f59e0b"/>
  <g transform="translate(378,150)">
    <rect x="-20" y="-16" width="40" height="32" rx="3" fill="#1a1000" stroke="#f59e0b" stroke-width="1.5"/>
    <rect x="-20" y="-16" width="40" height="8" fill="#f59e0b" opacity="0.3"/>
    <circle cx="-14" cy="-12" r="1.5" fill="#f59e0b"/>
    <circle cx="-9" cy="-12" r="1.5" fill="#f59e0b"/>
    <circle cx="-4" cy="-12" r="1.5" fill="#f59e0b"/>
    <path d="M-8,2 L0,-4 L8,2 L0,8 Z" fill="#f59e0b" opacity="0.5"/>
  </g>
  <text x="378" y="195" font-family="Arial,sans-serif" font-size="13" font-weight="700" fill="#f59e0b" text-anchor="middle">AI EXTENSIONS</text>

  <!-- Card 3: Chrome DBSC -->
  <rect x="504" y="100" width="220" height="120" rx="8" fill="#0a1020" stroke="#3b82f6" stroke-width="1.5"/>
  <circle cx="524" cy="120" r="6" fill="#3b82f6"/>
  <g transform="translate(614,150)">
    <circle r="20" fill="none" stroke="#3b82f6" stroke-width="2"/>
    <circle r="14" fill="none" stroke="#3b82f6" stroke-width="1" opacity="0.6"/>
    <rect x="-6" y="-2" width="12" height="10" rx="2" fill="#3b82f6" opacity="0.6"/>
    <path d="M-3,-2 L-3,-6 C-3,-9 3,-9 3,-6 L3,-2" stroke="#3b82f6" stroke-width="1.5" fill="none"/>
  </g>
  <text x="614" y="195" font-family="Arial,sans-serif" font-size="13" font-weight="700" fill="#3b82f6" text-anchor="middle">CHROME DBSC</text>

  <!-- Card 4: CVE-2026-39987 Marimo RCE -->
  <rect x="740" y="100" width="200" height="120" rx="8" fill="#1a0505" stroke="#ef4444" stroke-width="1.5"/>
  <circle cx="760" cy="120" r="6" fill="#ef4444"/>
  <g transform="translate(840,150)">
    <path d="M-18,-14 L18,-14 L18,14 L-18,14 Z" fill="none" stroke="#ef4444" stroke-width="1.5"/>
    <text x="0" y="-2" font-family="Courier New" font-size="9" font-weight="700" fill="#ef4444" text-anchor="middle">CVE</text>
    <text x="0" y="10" font-family="Courier New" font-size="8" fill="#ef4444" text-anchor="middle" opacity="0.8">39987</text>
  </g>
  <text x="840" y="195" font-family="Arial,sans-serif" font-size="13" font-weight="700" fill="#ef4444" text-anchor="middle">MARIMO RCE</text>

  <!-- Card 5: Copilot / AI Agents -->
  <rect x="956" y="100" width="212" height="120" rx="8" fill="#071a20" stroke="#22d3ee" stroke-width="1.5"/>
  <circle cx="976" cy="120" r="6" fill="#22d3ee"/>
  <g transform="translate(1062,150)">
    <rect x="-18" y="-14" width="36" height="28" rx="8" fill="none" stroke="#22d3ee" stroke-width="1.5"/>
    <circle cx="-7" cy="-2" r="2.5" fill="#22d3ee"/>
    <circle cx="7" cy="-2" r="2.5" fill="#22d3ee"/>
    <path d="M-6,6 L6,6" stroke="#22d3ee" stroke-width="1.5" stroke-linecap="round"/>
    <line x1="0" y1="-14" x2="0" y2="-20" stroke="#22d3ee" stroke-width="1.5"/>
    <circle cx="0" cy="-22" r="2" fill="#22d3ee"/>
  </g>
  <text x="1062" y="195" font-family="Arial,sans-serif" font-size="13" font-weight="700" fill="#22d3ee" text-anchor="middle">AGENTIC AI</text>

  <!-- Threat map area -->
  <rect x="32" y="240" width="1136" height="220" rx="10" fill="#0c1220" stroke="#1e293b" stroke-width="1"/>

  <!-- Ambient dots -->
  <g opacity="0.25">
    <circle cx="180" cy="330" r="2" fill="#94a3b8"/><circle cx="200" cy="340" r="2" fill="#94a3b8"/>
    <circle cx="550" cy="310" r="2" fill="#94a3b8"/><circle cx="570" cy="325" r="2" fill="#94a3b8"/>
    <circle cx="750" cy="320" r="2" fill="#94a3b8"/><circle cx="900" cy="330" r="2" fill="#94a3b8"/>
    <circle cx="350" cy="350" r="2" fill="#94a3b8"/><circle cx="1000" cy="340" r="2" fill="#94a3b8"/>
  </g>

  <!-- Node: GlassWorm (IDE supply chain) -->
  <circle cx="170" cy="340" r="22" fill="#1a0f1d" stroke="#a855f7" stroke-width="2"/>
  <text x="170" y="344" font-family="Arial,sans-serif" font-size="9" font-weight="700" fill="#a855f7" text-anchor="middle">IDE</text>

  <!-- Node: Open VSX -->
  <circle cx="400" cy="350" r="20" fill="#1a0f1d" stroke="#a855f7" stroke-width="1.5"/>
  <text x="400" y="354" font-family="Arial,sans-serif" font-size="9" fill="#a855f7" text-anchor="middle">VSX</text>

  <!-- GlassWorm -> VSX arrow -->
  <line x1="192" y1="342" x2="380" y2="350" stroke="#a855f7" stroke-width="1.5" stroke-dasharray="10 6" opacity="0.6" marker-end="url(#ar)"/>

  <!-- Node: Chrome -->
  <circle cx="600" cy="330" r="22" fill="#0a1020" stroke="#3b82f6" stroke-width="2"/>
  <text x="600" y="335" font-family="Arial,sans-serif" font-size="9" font-weight="700" fill="#3b82f6" text-anchor="middle">CHROME</text>

  <!-- Node: Session / Cookie -->
  <circle cx="780" cy="360" r="18" fill="#0a1020" stroke="#3b82f6" stroke-width="1.5"/>
  <text x="780" y="364" font-family="Arial,sans-serif" font-size="9" fill="#3b82f6" text-anchor="middle">DBSC</text>

  <!-- Chrome->DBSC arrow -->
  <line x1="622" y1="338" x2="762" y2="355" stroke="#3b82f6" stroke-width="1.5" stroke-dasharray="8 5" opacity="0.6" marker-end="url(#ar)"/>

  <!-- Node: Marimo CVE -->
  <circle cx="960" cy="340" r="22" fill="#1a0505" stroke="#ef4444" stroke-width="2"/>
  <text x="960" y="344" font-family="Arial,sans-serif" font-size="9" font-weight="700" fill="#ef4444" text-anchor="middle">RCE</text>

  <!-- Footer -->
  <rect x="0" y="472" width="1200" height="158" fill="#080c18" opacity="0.95"/>
  <rect x="0" y="472" width="1200" height="2" fill="#1e293b"/>

  <!-- Tags -->
  <rect x="32" y="490" width="140" height="24" rx="4" fill="#1a0f1d" stroke="#a855f7" stroke-width="1"/>
  <text x="102" y="506" font-family="Arial,sans-serif" font-size="10" font-weight="700" fill="#a855f7" text-anchor="middle">GLASSWORM ZIG</text>
  <rect x="184" y="490" width="135" height="24" rx="4" fill="#1a0d0d" stroke="#f59e0b" stroke-width="1"/>
  <text x="251" y="506" font-family="Arial,sans-serif" font-size="10" font-weight="700" fill="#f59e0b" text-anchor="middle">AI EXTENSIONS</text>
  <rect x="331" y="490" width="130" height="24" rx="4" fill="#0a1020" stroke="#3b82f6" stroke-width="1"/>
  <text x="396" y="506" font-family="Arial,sans-serif" font-size="10" font-weight="700" fill="#3b82f6" text-anchor="middle">CHROME DBSC</text>
  <rect x="473" y="490" width="120" height="24" rx="4" fill="#1a0505" stroke="#ef4444" stroke-width="1"/>
  <text x="533" y="506" font-family="Arial,sans-serif" font-size="10" font-weight="700" fill="#ef4444" text-anchor="middle">MARIMO RCE</text>
  <rect x="605" y="490" width="110" height="24" rx="4" fill="#071a20" stroke="#22d3ee" stroke-width="1"/>
  <text x="660" y="506" font-family="Arial,sans-serif" font-size="10" font-weight="700" fill="#22d3ee" text-anchor="middle">AGENTIC AI</text>

  <!-- Bottom bar -->
  <circle cx="32" cy="545" r="4" fill="#a855f7" opacity="0.6"/>
  <text x="46" y="550" font-family="Arial,sans-serif" font-size="12" fill="#475569">Security Weekly Digest | April 11, 2026</text>
  <text x="1168" y="550" font-family="Arial,sans-serif" font-size="12" fill="#475569" text-anchor="end">tech.2twodragon.com</text>
</svg>
