<svg xmlns="http://www.w3.org/2000/svg" width="1200" height="630" viewBox="0 0 1200 630">
  <title>Tech Security Weekly Digest: AI Security</title>
  <defs>
    <linearGradient id="bg" x1="0" y1="0" x2="1" y2="1">
      <stop offset="0%" stop-color="#08101d"/>
      <stop offset="100%" stop-color="#15132a"/>
    </linearGradient>
    <filter id="glow" x="-40%" y="-40%" width="180%" height="180%"><feGaussianBlur stdDeviation="20"/></filter>
  </defs>
  <rect width="1200" height="630" fill="url(#bg)"/>
  <circle cx="250" cy="150" r="170" fill="#22c55e" opacity="0.10" filter="url(#glow)"/>
  <circle cx="930" cy="470" r="180" fill="#8b5cf6" opacity="0.10" filter="url(#glow)"/>
  <text x="60" y="70" fill="#e2e8f0" font-size="34" font-family="Georgia, serif">AI Toolchain Risk</text>
  <text x="60" y="104" fill="#94a3b8" font-size="18" font-family="Georgia, serif">Mar 08</text>
  <line x1="300" y1="315" x2="520" y2="315" stroke="#22c55e" stroke-width="4" stroke-dasharray="10 10"/>
  <line x1="680" y1="315" x2="900" y2="315" stroke="#8b5cf6" stroke-width="4" stroke-dasharray="10 10"/>
  <g transform="translate(140,235)">
    <rect width="180" height="160" rx="24" fill="#0f172a" stroke="#22c55e" stroke-width="3"/>
    <rect x="45" y="42" width="90" height="60" rx="10" fill="none" stroke="#22c55e" stroke-width="3"/>
    <path d="M62 72 h24 l12 12 l18 -24" fill="none" stroke="#22c55e" stroke-width="3" stroke-linecap="round" stroke-linejoin="round"/>
  </g>
  <text x="230" y="430" text-anchor="middle" fill="#e2e8f0" font-size="18" font-family="Georgia, serif">Codex Scan</text>
  <g transform="translate(510,235)">
    <circle cx="90" cy="80" r="80" fill="#0f172a" stroke="#f97316" stroke-width="3"/>
    <path d="M56 58 h68 v44 h-68 z M70 118 h40" fill="none" stroke="#f97316" stroke-width="3" stroke-linecap="round"/>
  </g>
  <text x="600" y="430" text-anchor="middle" fill="#e2e8f0" font-size="18" font-family="Georgia, serif">Firefox Bug</text>
  <g transform="translate(880,235)">
    <path d="M90 18 L150 58 L126 142 L54 142 L30 58 Z" fill="#0f172a" stroke="#8b5cf6" stroke-width="3"/>
    <circle cx="90" cy="84" r="26" fill="none" stroke="#8b5cf6" stroke-width="3"/>
    <path d="M90 58 v52 M64 84 h52" stroke="#8b5cf6" stroke-width="3" stroke-linecap="round"/>
  </g>
  <text x="970" y="430" text-anchor="middle" fill="#e2e8f0" font-size="18" font-family="Georgia, serif">USDC Watch</text>
</svg>
