<svg xmlns="http://www.w3.org/2000/svg" viewBox="0 0 1200 630">
  <defs>
    <linearGradient id="bg" x1="0%" y1="0%" x2="100%" y2="100%">
      <stop offset="0%" style="stop-color:#0a0a1a"/><stop offset="100%" style="stop-color:#0a1a2a"/>
    </linearGradient>
    <filter id="glow"><feGaussianBlur stdDeviation="4" result="b"/><feMerge><feMergeNode in="b"/><feMergeNode in="SourceGraphic"/></feMerge></filter>
    <filter id="sg"><feGaussianBlur stdDeviation="25"/></filter>
  </defs>
  <rect width="1200" height="630" fill="url(#bg)"/>
  <circle cx="600" cy="270" r="250" fill="#8b5cf6" opacity="0.04" filter="url(#sg)"/>
  <!-- AI Agent Safehouse -->
  <g transform="translate(600,250)">
    <path d="M-120,-100 L0,-160 L120,-100 L120,60 L-120,60 Z" fill="#1e293b" stroke="#8b5cf6" stroke-width="2" opacity="0.6"/>
    <path d="M-130,-100 L0,-170 L130,-100" fill="none" stroke="#8b5cf6" stroke-width="2.5"/>
    <rect x="-25" y="0" width="50" height="60" rx="4" fill="#0f172a" stroke="#475569" stroke-width="1.5"/>
    <circle cx="15" cy="30" r="5" fill="#22d3ee"/>
    <rect x="-90" y="-60" width="40" height="35" rx="3" fill="#0f172a" stroke="#475569" stroke-width="1"/>
    <rect x="50" y="-60" width="40" height="35" rx="3" fill="#0f172a" stroke="#475569" stroke-width="1"/>
    <rect x="-88" y="-58" width="36" height="31" rx="2" fill="#8b5cf6" opacity="0.1"/>
    <rect x="52" y="-58" width="36" height="31" rx="2" fill="#22d3ee" opacity="0.1"/>
    <!-- AI eye -->
    <circle cx="-70" cy="-42" r="8" fill="none" stroke="#8b5cf6" stroke-width="1.5"/>
    <circle cx="-70" cy="-42" r="3" fill="#a78bfa"/>
    <!-- Shield -->
    <path d="M0,-200 L160,-155 L160,-40 C160,40 80,90 0,110 C-80,90 -160,40 -160,-40 L-160,-155 Z" fill="none" stroke="#22d3ee" stroke-width="1.5" opacity="0.25" stroke-dasharray="6,4"/>
  </g>
  <!-- Threat arrows -->
  <g opacity="0.4">
    <path d="M200,150 L420,200" fill="none" stroke="#ef4444" stroke-width="1.5" stroke-dasharray="4,4"/>
    <circle cx="200" cy="150" r="4" fill="#ef4444"/>
    <path d="M1000,160 L780,210" fill="none" stroke="#ef4444" stroke-width="1.5" stroke-dasharray="4,4"/>
    <circle cx="1000" cy="160" r="4" fill="#ef4444"/>
    <path d="M250,380 L430,330" fill="none" stroke="#ef4444" stroke-width="1" stroke-dasharray="3,4"/>
    <circle cx="250" cy="380" r="3" fill="#ef4444"/>
    <path d="M950,370 L770,320" fill="none" stroke="#ef4444" stroke-width="1" stroke-dasharray="3,4"/>
    <circle cx="950" cy="370" r="3" fill="#ef4444"/>
  </g>
  <text x="600" y="510" font-family="Arial,sans-serif" font-size="36" font-weight="bold" fill="white" text-anchor="middle" filter="url(#glow)">AI Agent Safehouse</text>
  <text x="600" y="548" font-family="Arial,sans-serif" font-size="16" fill="#94a3b8" text-anchor="middle">Agent Security | Bitcoin Accumulation | Go Security</text>
  <rect x="40" y="25" width="160" height="32" rx="16" fill="#8b5cf6" opacity="0.2" stroke="#8b5cf6" stroke-width="1"/>
  <text x="120" y="47" font-family="Arial,sans-serif" font-size="13" font-weight="bold" fill="#c4b5fd" text-anchor="middle">WEEKLY DIGEST</text>
  <rect x="1000" y="25" width="160" height="32" rx="16" fill="#3b82f6" opacity="0.2" stroke="#3b82f6" stroke-width="1"/>
  <text x="1080" y="47" font-family="Arial,sans-serif" font-size="13" font-weight="bold" fill="#93c5fd" text-anchor="middle">March 9, 2026</text>
  <text x="1160" y="615" font-family="Arial,sans-serif" font-size="13" fill="#475569" text-anchor="end">tech.2twodragon.com</text>
</svg>