<svg xmlns="http://www.w3.org/2000/svg" viewBox="0 0 1200 630" width="1200" height="630" role="img" aria-label="Research-based weekly digest cover: OpenAI Codex Security scanned 1.2M commits finding 10,561 vulnerabilities, Anthropic Claude found 22 Firefox vulns, USDC stablecoin surpassed 1.8T transfer volume">
<!-- profile: high-quality-cover (L14 Timeline, research-based, batch3a-locked) -->
<title>Weekly digest 2026-03-08 timeline: OpenAI Codex Security 10,561 vulns (Mar 05), Claude finds 22 Firefox CVEs (Mar 07), USDC surpasses 1.8T volume (Mar 08)</title>
<defs>
  <linearGradient id="bgSpread" x1="0%" y1="0%" x2="100%" y2="100%">
    <stop offset="0%" stop-color="#080E20"/>
    <stop offset="55%" stop-color="#0C1228"/>
    <stop offset="100%" stop-color="#0F0E2E"/>
  </linearGradient>
  <linearGradient id="colA" x1="0%" y1="0%" x2="0%" y2="100%">
    <stop offset="0%" stop-color="#0E2040"/>
    <stop offset="100%" stop-color="#081428"/>
  </linearGradient>
  <linearGradient id="colB" x1="0%" y1="0%" x2="0%" y2="100%">
    <stop offset="0%" stop-color="#1A1A06"/>
    <stop offset="100%" stop-color="#111106"/>
  </linearGradient>
  <linearGradient id="colC" x1="0%" y1="0%" x2="0%" y2="100%">
    <stop offset="0%" stop-color="#1C0A24"/>
    <stop offset="100%" stop-color="#110816"/>
  </linearGradient>
  <linearGradient id="timelineGrad" x1="0%" y1="0%" x2="100%" y2="0%">
    <stop offset="0%" stop-color="#3A86FF" stop-opacity="0.15"/>
    <stop offset="35%" stop-color="#3A86FF" stop-opacity="0.9"/>
    <stop offset="65%" stop-color="#F5C518" stop-opacity="0.9"/>
    <stop offset="100%" stop-color="#B44FE8"/>
  </linearGradient>
  <radialGradient id="glowBlue" cx="50%" cy="50%" r="50%">
    <stop offset="0%" stop-color="#3A86FF" stop-opacity="0.55"/>
    <stop offset="100%" stop-color="#3A86FF" stop-opacity="0"/>
  </radialGradient>
  <radialGradient id="glowAmber" cx="50%" cy="50%" r="50%">
    <stop offset="0%" stop-color="#F5C518" stop-opacity="0.5"/>
    <stop offset="100%" stop-color="#F5C518" stop-opacity="0"/>
  </radialGradient>
  <radialGradient id="glowPurple" cx="50%" cy="50%" r="50%">
    <stop offset="0%" stop-color="#B44FE8" stop-opacity="0.55"/>
    <stop offset="100%" stop-color="#B44FE8" stop-opacity="0"/>
  </radialGradient>
  <pattern id="dotGrid" x="0" y="0" width="36" height="36" patternUnits="userSpaceOnUse">
    <circle cx="18" cy="18" r="0.7" fill="#1E2A50" opacity="0.5"/>
  </pattern>
  <filter id="softShadow" x="-10%" y="-10%" width="130%" height="130%">
    <feGaussianBlur in="SourceAlpha" stdDeviation="2.5"/>
    <feOffset dx="1" dy="3"/>
    <feComponentTransfer><feFuncA type="linear" slope="0.5"/></feComponentTransfer>
    <feMerge><feMergeNode/><feMergeNode in="SourceGraphic"/></feMerge>
  </filter>
  <filter id="glowFilter">
    <feGaussianBlur in="SourceGraphic" stdDeviation="3" result="blur"/>
    <feMerge><feMergeNode in="blur"/><feMergeNode in="SourceGraphic"/></feMerge>
  </filter>
</defs>

<!-- Background -->
<rect width="1200" height="630" fill="url(#bgSpread)"/>
<rect width="1200" height="630" fill="url(#dotGrid)"/>

<!-- Ambient glows -->
<circle cx="220" cy="390" r="155" fill="url(#glowBlue)">
  <animate attributeName="opacity" values="0.45;0.8;0.45" dur="6.2s" repeatCount="indefinite"/>
</circle>
<circle cx="610" cy="390" r="150" fill="url(#glowAmber)">
  <animate attributeName="opacity" values="0.4;0.78;0.4" dur="5.4s" repeatCount="indefinite"/>
</circle>
<circle cx="1000" cy="390" r="155" fill="url(#glowPurple)">
  <animate attributeName="opacity" values="0.45;0.82;0.45" dur="7.0s" repeatCount="indefinite"/>
</circle>

<!-- Header bar -->
<rect x="0" y="0" width="1200" height="58" fill="#040810" opacity="0.94"/>
<text x="36" y="37" font-family="Inter, Helvetica, Arial, sans-serif" font-size="17" font-weight="700" fill="#8FB8FF" letter-spacing="2.8">WEEKLY DIGEST</text>
<text x="1168" y="37" font-family="Inter, Helvetica, Arial, sans-serif" font-size="14" font-weight="600" fill="#7DA3D9" letter-spacing="1.5" text-anchor="end">2026.03.08</text>
<!-- Header separator with pulse -->
<rect x="0" y="56" width="1200" height="2" fill="#8FB8FF" opacity="0.8">
  <animate attributeName="opacity" values="0.35;0.95;0.35" dur="4.6s" repeatCount="indefinite"/>
</rect>

<!-- Timeline horizontal axis y=170 -->
<line x1="60" y1="170" x2="1140" y2="170" stroke="url(#timelineGrad)" stroke-width="2.5" opacity="0.9"/>

<!-- Timeline tick marks: 03-02 to 03-08 (7 ticks) -->
<line x1="90" y1="163" x2="90" y2="177" stroke="#3A86FF" stroke-width="1.5" opacity="0.6"/>
<text x="90" y="196" font-family="Inter, Helvetica, Arial, sans-serif" font-size="10" fill="#6A8CC0" text-anchor="middle">03-02</text>
<line x1="250" y1="163" x2="250" y2="177" stroke="#3A86FF" stroke-width="1.5" opacity="0.6"/>
<text x="250" y="196" font-family="Inter, Helvetica, Arial, sans-serif" font-size="10" fill="#6A8CC0" text-anchor="middle">03-03</text>
<line x1="410" y1="163" x2="410" y2="177" stroke="#4CC0A0" stroke-width="1.5" opacity="0.6"/>
<text x="410" y="196" font-family="Inter, Helvetica, Arial, sans-serif" font-size="10" fill="#6A8CC0" text-anchor="middle">03-04</text>
<!-- Anchor tick 03-05 (OpenAI Codex) -->
<line x1="570" y1="155" x2="570" y2="185" stroke="#3A86FF" stroke-width="2.5"/>
<text x="570" y="196" font-family="Inter, Helvetica, Arial, sans-serif" font-size="10" font-weight="700" fill="#3A86FF" text-anchor="middle">03-05</text>
<line x1="730" y1="163" x2="730" y2="177" stroke="#8AB0D0" stroke-width="1.5" opacity="0.6"/>
<text x="730" y="196" font-family="Inter, Helvetica, Arial, sans-serif" font-size="10" fill="#6A8CC0" text-anchor="middle">03-06</text>
<!-- Anchor tick 03-07 (Firefox CVEs) -->
<line x1="850" y1="155" x2="850" y2="185" stroke="#F5C518" stroke-width="2.5"/>
<text x="850" y="196" font-family="Inter, Helvetica, Arial, sans-serif" font-size="10" font-weight="700" fill="#F5C518" text-anchor="middle">03-07</text>
<!-- Anchor tick 03-08 (USDC 1.8T) -->
<line x1="1050" y1="155" x2="1050" y2="185" stroke="#B44FE8" stroke-width="2.5"/>
<text x="1050" y="196" font-family="Inter, Helvetica, Arial, sans-serif" font-size="10" font-weight="700" fill="#B44FE8" text-anchor="middle">03-08</text>

<!-- Anchor dots on timeline -->
<circle cx="570" cy="170" r="7" fill="#3A86FF" filter="url(#glowFilter)">
  <animate attributeName="r" values="7;9;7" dur="3.2s" repeatCount="indefinite"/>
</circle>
<circle cx="570" cy="170" r="4" fill="#A0C8FF"/>
<circle cx="850" cy="170" r="7" fill="#F5C518" filter="url(#glowFilter)">
  <animate attributeName="r" values="7;9;7" dur="3.8s" repeatCount="indefinite"/>
</circle>
<circle cx="850" cy="170" r="4" fill="#FAEAA0"/>
<circle cx="1050" cy="170" r="7" fill="#B44FE8" filter="url(#glowFilter)">
  <animate attributeName="r" values="7;9;7" dur="4.5s" repeatCount="indefinite"/>
</circle>
<circle cx="1050" cy="170" r="4" fill="#DBA0F8"/>

<!-- Vertical connector lines from timeline to columns -->
<line x1="220" y1="185" x2="220" y2="215" stroke="#3A86FF" stroke-width="1.2" stroke-dasharray="4,3" opacity="0.6"/>
<line x1="610" y1="185" x2="610" y2="215" stroke="#F5C518" stroke-width="1.2" stroke-dasharray="4,3" opacity="0.6"/>
<line x1="990" y1="185" x2="990" y2="215" stroke="#B44FE8" stroke-width="1.2" stroke-dasharray="4,3" opacity="0.6"/>

<!-- ===================== COLUMN A: OpenAI Codex Security ===================== -->
<rect x="40" y="215" width="353" height="360" rx="10" fill="url(#colA)" opacity="0.9" filter="url(#softShadow)"/>
<rect x="40" y="215" width="353" height="3" rx="1.5" fill="#3A86FF"/>

<!-- Scene: AI shield scan icon -->
<g transform="translate(100,245)">
  <path d="M36 6 L66 18 L66 44 C66 60 51 72 36 78 C21 72 6 60 6 44 L6 18 Z" fill="none" stroke="#3A86FF" stroke-width="2.2" opacity="0.85"/>
  <path d="M36 14 L58 24 L58 44 C58 56 48 66 36 70 C24 66 14 56 14 44 L14 24 Z" fill="#0E2040" opacity="0.7"/>
  <circle cx="28" cy="38" r="4" fill="#3A86FF" opacity="0.9"/>
  <circle cx="44" cy="30" r="4" fill="#3A86FF" opacity="0.9"/>
  <circle cx="44" cy="48" r="4" fill="#3A86FF" opacity="0.9"/>
  <line x1="28" y1="38" x2="44" y2="30" stroke="#3A86FF" stroke-width="1.4" opacity="0.7"/>
  <line x1="28" y1="38" x2="44" y2="48" stroke="#3A86FF" stroke-width="1.4" opacity="0.7"/>
  <line x1="44" y1="30" x2="44" y2="48" stroke="#3A86FF" stroke-width="1.4" opacity="0.7"/>
  <line x1="14" y1="36" x2="58" y2="36" stroke="#5AAEEE" stroke-width="1" stroke-dasharray="3,2" opacity="0.5">
    <animate attributeName="y1" values="28;54;28" dur="3s" repeatCount="indefinite"/>
    <animate attributeName="y2" values="28;54;28" dur="3s" repeatCount="indefinite"/>
  </line>
</g>
<text x="216" y="265" font-family="Inter, Helvetica, Arial, sans-serif" font-size="11" font-weight="700" fill="#3A86FF" letter-spacing="1.5" text-anchor="middle">AI SECURITY SCAN</text>
<text x="216" y="285" font-family="Inter, Helvetica, Arial, sans-serif" font-size="18" font-weight="800" fill="#DDEEFF" text-anchor="middle">OpenAI Codex</text>
<text x="216" y="305" font-family="Inter, Helvetica, Arial, sans-serif" font-size="13" font-weight="600" fill="#A8D0FF" text-anchor="middle">Security Agent</text>

<!-- 3-step chain A -->
<rect x="60" y="322" width="313" height="34" rx="6" fill="#0A1830" opacity="0.9"/>
<text x="76" y="343" font-family="Inter, Helvetica, Arial, sans-serif" font-size="11" fill="#3A86FF" font-weight="700">01</text>
<text x="100" y="343" font-family="Inter, Helvetica, Arial, sans-serif" font-size="11" fill="#B8D8FF">Scanned 1.2M commits via LLM agent</text>
<rect x="60" y="362" width="313" height="34" rx="6" fill="#0A1830" opacity="0.9"/>
<text x="76" y="383" font-family="Inter, Helvetica, Arial, sans-serif" font-size="11" fill="#3A86FF" font-weight="700">02</text>
<text x="100" y="383" font-family="Inter, Helvetica, Arial, sans-serif" font-size="11" fill="#B8D8FF">Context-aware detection + auto-fix</text>
<rect x="60" y="402" width="313" height="34" rx="6" fill="#0A1830" opacity="0.9"/>
<text x="76" y="423" font-family="Inter, Helvetica, Arial, sans-serif" font-size="11" fill="#3A86FF" font-weight="700">03</text>
<text x="100" y="423" font-family="Inter, Helvetica, Arial, sans-serif" font-size="11" fill="#B8D8FF">Hybrid SAST + AI pipeline recommended</text>

<!-- KPI A -->
<rect x="60" y="448" width="313" height="50" rx="8" fill="#071020" stroke="#3A86FF" stroke-width="1.2" opacity="0.95"/>
<text x="216" y="467" font-family="Inter, Helvetica, Arial, sans-serif" font-size="10" fill="#7AAAD8" text-anchor="middle" letter-spacing="1">VULNERABILITIES FOUND</text>
<text x="216" y="489" font-family="Inter, Helvetica, Arial, sans-serif" font-size="22" font-weight="800" fill="#3A86FF" text-anchor="middle">10,561</text>
<text x="216" y="540" font-family="Inter, Helvetica, Arial, sans-serif" font-size="10" fill="#5A8CC0" text-anchor="middle" opacity="0.8">ChatGPT Pro / Enterprise free preview</text>

<!-- ===================== COLUMN B: Claude + Firefox CVEs ===================== -->
<rect x="423" y="215" width="353" height="360" rx="10" fill="url(#colB)" opacity="0.9" filter="url(#softShadow)"/>
<rect x="423" y="215" width="353" height="3" rx="1.5" fill="#F5C518"/>

<!-- Scene: Browser + bug -->
<g transform="translate(482,245)">
  <rect x="0" y="0" width="72" height="58" rx="6" fill="none" stroke="#F5C518" stroke-width="2" opacity="0.8"/>
  <rect x="0" y="0" width="72" height="14" rx="6" fill="#F5C518" opacity="0.2"/>
  <rect x="6" y="3" width="50" height="8" rx="2" fill="#F5C518" opacity="0.3"/>
  <circle cx="36" cy="40" r="11" fill="none" stroke="#F5C518" stroke-width="2" opacity="0.85"/>
  <line x1="36" y1="29" x2="36" y2="51" stroke="#F5C518" stroke-width="1.5" opacity="0.7"/>
  <line x1="25" y1="40" x2="47" y2="40" stroke="#F5C518" stroke-width="1.5" opacity="0.7"/>
  <line x1="27" y1="33" x2="45" y2="47" stroke="#F5C518" stroke-width="1" stroke-dasharray="2,2" opacity="0.5"/>
  <circle cx="58" cy="4" r="5" fill="#FF4444">
    <animate attributeName="r" values="5;7;5" dur="2.4s" repeatCount="indefinite"/>
  </circle>
  <text x="58" y="8" font-family="Arial" font-size="8" font-weight="900" fill="white" text-anchor="middle">!</text>
</g>
<text x="599" y="265" font-family="Inter, Helvetica, Arial, sans-serif" font-size="11" font-weight="700" fill="#F5C518" letter-spacing="1.5" text-anchor="middle">BROWSER SECURITY</text>
<text x="599" y="285" font-family="Inter, Helvetica, Arial, sans-serif" font-size="18" font-weight="800" fill="#FFFCE0" text-anchor="middle">Claude + Firefox</text>
<text x="599" y="305" font-family="Inter, Helvetica, Arial, sans-serif" font-size="13" font-weight="600" fill="#E0D080" text-anchor="middle">Vulnerability Hunt</text>

<!-- 3-step chain B -->
<rect x="443" y="322" width="313" height="34" rx="6" fill="#121200" opacity="0.9"/>
<text x="459" y="343" font-family="Inter, Helvetica, Arial, sans-serif" font-size="11" fill="#F5C518" font-weight="700">01</text>
<text x="483" y="343" font-family="Inter, Helvetica, Arial, sans-serif" font-size="11" fill="#E8E0A8">Anthropic deployed Claude Opus 4.6</text>
<rect x="443" y="362" width="313" height="34" rx="6" fill="#121200" opacity="0.9"/>
<text x="459" y="383" font-family="Inter, Helvetica, Arial, sans-serif" font-size="11" fill="#F5C518" font-weight="700">02</text>
<text x="483" y="383" font-family="Inter, Helvetica, Arial, sans-serif" font-size="11" fill="#E8E0A8">Autonomous agent found 22 CVEs</text>
<rect x="443" y="402" width="313" height="34" rx="6" fill="#121200" opacity="0.9"/>
<text x="459" y="423" font-family="Inter, Helvetica, Arial, sans-serif" font-size="11" fill="#F5C518" font-weight="700">03</text>
<text x="483" y="423" font-family="Inter, Helvetica, Arial, sans-serif" font-size="11" fill="#E8E0A8">Patch priority: client browser exposure</text>

<!-- KPI B -->
<rect x="443" y="448" width="313" height="50" rx="8" fill="#0C0C00" stroke="#F5C518" stroke-width="1.2" opacity="0.95"/>
<text x="599" y="467" font-family="Inter, Helvetica, Arial, sans-serif" font-size="10" fill="#C8B840" text-anchor="middle" letter-spacing="1">FIREFOX CVEs DISCOVERED</text>
<text x="599" y="489" font-family="Inter, Helvetica, Arial, sans-serif" font-size="22" font-weight="800" fill="#F5C518" text-anchor="middle">22 CVEs</text>
<text x="599" y="540" font-family="Inter, Helvetica, Arial, sans-serif" font-size="10" fill="#8A8040" text-anchor="middle" opacity="0.8">Severity: Medium -- patch review advised</text>

<!-- ===================== COLUMN C: USDC $1.8T ===================== -->
<rect x="806" y="215" width="353" height="360" rx="10" fill="url(#colC)" opacity="0.9" filter="url(#softShadow)"/>
<rect x="806" y="215" width="353" height="3" rx="1.5" fill="#B44FE8"/>

<!-- Scene: USDC coin + rising chart -->
<g transform="translate(866,245)">
  <circle cx="36" cy="32" r="28" fill="none" stroke="#B44FE8" stroke-width="2.2" opacity="0.85"/>
  <circle cx="36" cy="32" r="20" fill="#1C0A24" stroke="#B44FE8" stroke-width="1" opacity="0.6"/>
  <text x="36" y="40" font-family="Arial, sans-serif" font-size="22" font-weight="900" fill="#B44FE8" text-anchor="middle" opacity="0.95">$</text>
  <polyline points="10,56 20,44 30,48 48,28 62,18" fill="none" stroke="#E090FF" stroke-width="2" opacity="0.7"/>
  <polygon points="62,18 55,24 60,30" fill="#E090FF" opacity="0.8"/>
  <circle cx="36" cy="32" r="28" fill="none" stroke="#B44FE8" stroke-width="6" opacity="0.15">
    <animate attributeName="r" values="28;36;28" dur="4s" repeatCount="indefinite"/>
    <animate attributeName="opacity" values="0.15;0;0.15" dur="4s" repeatCount="indefinite"/>
  </circle>
</g>
<text x="982" y="265" font-family="Inter, Helvetica, Arial, sans-serif" font-size="11" font-weight="700" fill="#B44FE8" letter-spacing="1.5" text-anchor="middle">BLOCKCHAIN FINANCE</text>
<text x="982" y="285" font-family="Inter, Helvetica, Arial, sans-serif" font-size="18" font-weight="800" fill="#F0E0FF" text-anchor="middle">USDC Stablecoin</text>
<text x="982" y="305" font-family="Inter, Helvetica, Arial, sans-serif" font-size="13" font-weight="600" fill="#C898E8" text-anchor="middle">Record Transfer Volume</text>

<!-- 3-step chain C -->
<rect x="826" y="322" width="313" height="34" rx="6" fill="#100818" opacity="0.9"/>
<text x="842" y="343" font-family="Inter, Helvetica, Arial, sans-serif" font-size="11" fill="#B44FE8" font-weight="700">01</text>
<text x="866" y="343" font-family="Inter, Helvetica, Arial, sans-serif" font-size="11" fill="#E0C8F8">USDC surpassed Tether in transfer vol</text>
<rect x="826" y="362" width="313" height="34" rx="6" fill="#100818" opacity="0.9"/>
<text x="842" y="383" font-family="Inter, Helvetica, Arial, sans-serif" font-size="11" fill="#B44FE8" font-weight="700">02</text>
<text x="866" y="383" font-family="Inter, Helvetica, Arial, sans-serif" font-size="11" fill="#E0C8F8">$1.8T cumulative on-chain transfers</text>
<rect x="826" y="402" width="313" height="34" rx="6" fill="#100818" opacity="0.9"/>
<text x="842" y="423" font-family="Inter, Helvetica, Arial, sans-serif" font-size="11" fill="#B44FE8" font-weight="700">03</text>
<text x="866" y="423" font-family="Inter, Helvetica, Arial, sans-serif" font-size="11" fill="#E0C8F8">Regulatory + DeFi adoption signal</text>

<!-- KPI C -->
<rect x="826" y="448" width="313" height="50" rx="8" fill="#0A0612" stroke="#B44FE8" stroke-width="1.2" opacity="0.95"/>
<text x="982" y="467" font-family="Inter, Helvetica, Arial, sans-serif" font-size="10" fill="#9868C8" text-anchor="middle" letter-spacing="1">TRANSFER VOLUME MILESTONE</text>
<text x="982" y="489" font-family="Inter, Helvetica, Arial, sans-serif" font-size="22" font-weight="800" fill="#B44FE8" text-anchor="middle">$1.8T</text>
<text x="982" y="540" font-family="Inter, Helvetica, Arial, sans-serif" font-size="10" fill="#7848A8" text-anchor="middle" opacity="0.8">Overtook Tether as top stablecoin</text>

<!-- Bottom footer bar -->
<rect x="0" y="585" width="1200" height="45" fill="#030710" opacity="0.96"/>
<rect x="0" y="585" width="1200" height="1" fill="#3A86FF" opacity="0.4"/>
<text x="36" y="612" font-family="Inter, Helvetica, Arial, sans-serif" font-size="10" fill="#4A6A9A" letter-spacing="1.5">TECH SECURITY WEEKLY</text>
<text x="600" y="612" font-family="Inter, Helvetica, Arial, sans-serif" font-size="10" fill="#3A5070" text-anchor="middle">AI Security - Browser CVE - Stablecoin Finance</text>
<text x="1164" y="612" font-family="Inter, Helvetica, Arial, sans-serif" font-size="10" fill="#4A6A9A" text-anchor="end" letter-spacing="1">tech.2twodragon.com</text>

<!-- cover-qr: https://tech.2twodragon.com/posts/2026/03/08/Tech_Security_Weekly_Digest_AI_Security/ : 41x41 -->
<g transform="translate(1080,504)" filter="url(#softShadow)">
  <rect x="-8" y="-8" width="100" height="100" rx="6" fill="#FFFFFF"/>
  <path fill="#0A1020" d="M0.0 0.0h14.341v2.049h-14.341z M18.439 0.0h4.098v2.049h-4.098z M24.585 0.0h2.049v2.049h-2.049z M30.732 0.0h16.39v2.049h-16.39z M51.22 0.0h2.049v2.049h-2.049z M57.366 0.0h2.049v2.049h-2.049z M61.463 0.0h6.146v2.049h-6.146z M69.659 0.0h14.341v2.049h-14.341z M0.0 2.049h2.049v2.049h-2.049z M12.293 2.049h2.049v2.049h-2.049z M18.439 2.049h2.049v2.049h-2.049z M22.537 2.049h6.146v2.049h-6.146z M32.78 2.049h4.098v2.049h-4.098z M40.976 2.049h4.098v2.049h-4.098z M49.171 2.049h8.195v2.049h-8.195z M61.463 2.049h2.049v2.049h-2.049z M65.561 2.049h2.049v2.049h-2.049z M69.659 2.049h2.049v2.049h-2.049z M81.951 2.049h2.049v2.049h-2.049z M0.0 4.098h2.049v2.049h-2.049z M4.098 4.098h6.146v2.049h-6.146z M12.293 4.098h2.049v2.049h-2.049z M16.39 4.098h4.098v2.049h-4.098z M28.683 4.098h4.098v2.049h-4.098z M34.829 4.098h6.146v2.049h-6.146z M43.024 4.098h4.098v2.049h-4.098z M51.22 4.098h2.049v2.049h-2.049z M55.317 4.098h4.098v2.049h-4.098z M65.561 4.098h2.049v2.049h-2.049z M69.659 4.098h2.049v2.049h-2.049z M73.756 4.098h6.146v2.049h-6.146z M81.951 4.098h2.049v2.049h-2.049z M0.0 6.146h2.049v2.049h-2.049z M4.098 6.146h6.146v2.049h-6.146z M12.293 6.146h2.049v2.049h-2.049z M16.39 6.146h2.049v2.049h-2.049z M24.585 6.146h4.098v2.049h-4.098z M32.78 6.146h2.049v2.049h-2.049z M40.976 6.146h4.098v2.049h-4.098z M53.268 6.146h6.146v2.049h-6.146z M61.463 6.146h2.049v2.049h-2.049z M65.561 6.146h2.049v2.049h-2.049z M69.659 6.146h2.049v2.049h-2.049z M73.756 6.146h6.146v2.049h-6.146z M81.951 6.146h2.049v2.049h-2.049z M0.0 8.195h2.049v2.049h-2.049z M4.098 8.195h6.146v2.049h-6.146z M12.293 8.195h2.049v2.049h-2.049z M16.39 8.195h4.098v2.049h-4.098z M26.634 8.195h4.098v2.049h-4.098z M32.78 8.195h6.146v2.049h-6.146z M40.976 8.195h6.146v2.049h-6.146z M63.512 8.195h2.049v2.049h-2.049z M69.659 8.195h2.049v2.049h-2.049z M73.756 8.195h6.146v2.049h-6.146z M81.951 8.195h2.049v2.049h-2.049z M0.0 10.244h2.049v2.049h-2.049z M12.293 10.244h2.049v2.049h-2.049z M16.39 10.244h6.146v2.049h-6.146z M24.585 10.244h2.049v2.049h-2.049z M30.732 10.244h6.146v2.049h-6.146z M40.976 10.244h2.049v2.049h-2.049z M51.22 10.244h2.049v2.049h-2.049z M55.317 10.244h2.049v2.049h-2.049z M69.659 10.244h2.049v2.049h-2.049z M81.951 10.244h2.049v2.049h-2.049z M0.0 12.293h14.341v2.049h-14.341z M16.39 12.293h2.049v2.049h-2.049z M20.488 12.293h2.049v2.049h-2.049z M24.585 12.293h2.049v2.049h-2.049z M28.683 12.293h2.049v2.049h-2.049z M32.78 12.293h2.049v2.049h-2.049z M36.878 12.293h2.049v2.049h-2.049z M40.976 12.293h2.049v2.049h-2.049z M45.073 12.293h2.049v2.049h-2.049z M49.171 12.293h2.049v2.049h-2.049z M53.268 12.293h2.049v2.049h-2.049z M57.366 12.293h2.049v2.049h-2.049z M61.463 12.293h2.049v2.049h-2.049z M65.561 12.293h2.049v2.049h-2.049z M69.659 12.293h14.341v2.049h-14.341z M16.39 14.341h10.244v2.049h-10.244z M28.683 14.341h2.049v2.049h-2.049z M36.878 14.341h8.195v2.049h-8.195z M47.122 14.341h2.049v2.049h-2.049z M55.317 14.341h2.049v2.049h-2.049z M61.463 14.341h4.098v2.049h-4.098z M0.0 16.39h2.049v2.049h-2.049z M4.098 16.39h10.244v2.049h-10.244z M18.439 16.39h2.049v2.049h-2.049z M26.634 16.39h2.049v2.049h-2.049z M32.78 16.39h4.098v2.049h-4.098z M38.927 16.39h2.049v2.049h-2.049z M45.073 16.39h4.098v2.049h-4.098z M51.22 16.39h10.244v2.049h-10.244z M65.561 16.39h2.049v2.049h-2.049z M69.659 16.39h10.244v2.049h-10.244z M8.195 18.439h4.098v2.049h-4.098z M14.341 18.439h4.098v2.049h-4.098z M20.488 18.439h2.049v2.049h-2.049z M32.78 18.439h2.049v2.049h-2.049z M36.878 18.439h4.098v2.049h-4.098z M43.024 18.439h2.049v2.049h-2.049z M47.122 18.439h2.049v2.049h-2.049z M53.268 18.439h2.049v2.049h-2.049z M61.463 18.439h6.146v2.049h-6.146z M71.707 18.439h4.098v2.049h-4.098z M77.854 18.439h6.146v2.049h-6.146z M4.098 20.488h4.098v2.049h-4.098z M10.244 20.488h8.195v2.049h-8.195z M22.537 20.488h4.098v2.049h-4.098z M28.683 20.488h2.049v2.049h-2.049z M32.78 20.488h6.146v2.049h-6.146z M43.024 20.488h4.098v2.049h-4.098z M49.171 20.488h4.098v2.049h-4.098z M55.317 20.488h2.049v2.049h-2.049z M61.463 20.488h2.049v2.049h-2.049z M65.561 20.488h2.049v2.049h-2.049z M69.659 20.488h6.146v2.049h-6.146z M4.098 22.537h4.098v2.049h-4.098z M10.244 22.537h2.049v2.049h-2.049z M14.341 22.537h2.049v2.049h-2.049z M28.683 22.537h2.049v2.049h-2.049z M38.927 22.537h6.146v2.049h-6.146z M53.268 22.537h2.049v2.049h-2.049z M57.366 22.537h2.049v2.049h-2.049z M61.463 22.537h6.146v2.049h-6.146z M69.659 22.537h2.049v2.049h-2.049z M75.805 22.537h2.049v2.049h-2.049z M79.902 22.537h4.098v2.049h-4.098z M12.293 24.585h10.244v2.049h-10.244z M24.585 24.585h4.098v2.049h-4.098z M30.732 24.585h2.049v2.049h-2.049z M34.829 24.585h2.049v2.049h-2.049z M38.927 24.585h4.098v2.049h-4.098z M45.073 24.585h2.049v2.049h-2.049z M49.171 24.585h4.098v2.049h-4.098z M57.366 24.585h8.195v2.049h-8.195z M67.61 24.585h2.049v2.049h-2.049z M71.707 24.585h2.049v2.049h-2.049z M75.805 24.585h6.146v2.049h-6.146z M0.0 26.634h2.049v2.049h-2.049z M14.341 26.634h10.244v2.049h-10.244z M26.634 26.634h2.049v2.049h-2.049z M32.78 26.634h2.049v2.049h-2.049z M36.878 26.634h2.049v2.049h-2.049z M51.22 26.634h2.049v2.049h-2.049z M55.317 26.634h2.049v2.049h-2.049z M59.415 26.634h2.049v2.049h-2.049z M65.561 26.634h4.098v2.049h-4.098z M71.707 26.634h8.195v2.049h-8.195z M81.951 26.634h2.049v2.049h-2.049z M0.0 28.683h2.049v2.049h-2.049z M8.195 28.683h10.244v2.049h-10.244z M26.634 28.683h6.146v2.049h-6.146z M40.976 28.683h2.049v2.049h-2.049z M45.073 28.683h6.146v2.049h-6.146z M55.317 28.683h10.244v2.049h-10.244z M67.61 28.683h2.049v2.049h-2.049z M71.707 28.683h2.049v2.049h-2.049z M75.805 28.683h4.098v2.049h-4.098z M0.0 30.732h4.098v2.049h-4.098z M10.244 30.732h2.049v2.049h-2.049z M16.39 30.732h4.098v2.049h-4.098z M22.537 30.732h4.098v2.049h-4.098z M28.683 30.732h4.098v2.049h-4.098z M43.024 30.732h6.146v2.049h-6.146z M53.268 30.732h4.098v2.049h-4.098z M63.512 30.732h4.098v2.049h-4.098z M69.659 30.732h2.049v2.049h-2.049z M73.756 30.732h4.098v2.049h-4.098z M0.0 32.78h2.049v2.049h-2.049z M8.195 32.78h2.049v2.049h-2.049z M12.293 32.78h4.098v2.049h-4.098z M20.488 32.78h2.049v2.049h-2.049z M26.634 32.78h10.244v2.049h-10.244z M40.976 32.78h8.195v2.049h-8.195z M51.22 32.78h6.146v2.049h-6.146z M59.415 32.78h2.049v2.049h-2.049z M63.512 32.78h2.049v2.049h-2.049z M67.61 32.78h2.049v2.049h-2.049z M71.707 32.78h2.049v2.049h-2.049z M75.805 32.78h4.098v2.049h-4.098z M0.0 34.829h4.098v2.049h-4.098z M10.244 34.829h2.049v2.049h-2.049z M14.341 34.829h2.049v2.049h-2.049z M18.439 34.829h2.049v2.049h-2.049z M24.585 34.829h6.146v2.049h-6.146z M36.878 34.829h2.049v2.049h-2.049z M40.976 34.829h2.049v2.049h-2.049z M47.122 34.829h2.049v2.049h-2.049z M55.317 34.829h12.293v2.049h-12.293z M69.659 34.829h6.146v2.049h-6.146z M79.902 34.829h4.098v2.049h-4.098z M6.146 36.878h2.049v2.049h-2.049z M10.244 36.878h6.146v2.049h-6.146z M18.439 36.878h2.049v2.049h-2.049z M24.585 36.878h6.146v2.049h-6.146z M36.878 36.878h2.049v2.049h-2.049z M40.976 36.878h2.049v2.049h-2.049z M45.073 36.878h2.049v2.049h-2.049z M55.317 36.878h6.146v2.049h-6.146z M65.561 36.878h2.049v2.049h-2.049z M73.756 36.878h2.049v2.049h-2.049z M77.854 36.878h4.098v2.049h-4.098z M2.049 38.927h2.049v2.049h-2.049z M10.244 38.927h2.049v2.049h-2.049z M14.341 38.927h2.049v2.049h-2.049z M24.585 38.927h4.098v2.049h-4.098z M30.732 38.927h2.049v2.049h-2.049z M38.927 38.927h4.098v2.049h-4.098z M47.122 38.927h4.098v2.049h-4.098z M53.268 38.927h2.049v2.049h-2.049z M57.366 38.927h6.146v2.049h-6.146z M65.561 38.927h4.098v2.049h-4.098z M73.756 38.927h4.098v2.049h-4.098z M0.0 40.976h4.098v2.049h-4.098z M6.146 40.976h10.244v2.049h-10.244z M20.488 40.976h2.049v2.049h-2.049z M24.585 40.976h2.049v2.049h-2.049z M30.732 40.976h2.049v2.049h-2.049z M36.878 40.976h10.244v2.049h-10.244z M49.171 40.976h2.049v2.049h-2.049z M57.366 40.976h2.049v2.049h-2.049z M65.561 40.976h2.049v2.049h-2.049z M77.854 40.976h2.049v2.049h-2.049z M81.951 40.976h2.049v2.049h-2.049z M0.0 43.024h2.049v2.049h-2.049z M4.098 43.024h2.049v2.049h-2.049z M14.341 43.024h4.098v2.049h-4.098z M22.537 43.024h12.293v2.049h-12.293z M40.976 43.024h4.098v2.049h-4.098z M47.122 43.024h4.098v2.049h-4.098z M53.268 43.024h2.049v2.049h-2.049z M61.463 43.024h4.098v2.049h-4.098z M69.659 43.024h2.049v2.049h-2.049z M73.756 43.024h2.049v2.049h-2.049z M77.854 43.024h6.146v2.049h-6.146z M2.049 45.073h2.049v2.049h-2.049z M8.195 45.073h2.049v2.049h-2.049z M12.293 45.073h4.098v2.049h-4.098z M18.439 45.073h6.146v2.049h-6.146z M28.683 45.073h10.244v2.049h-10.244z M43.024 45.073h2.049v2.049h-2.049z M49.171 45.073h2.049v2.049h-2.049z M53.268 45.073h6.146v2.049h-6.146z M65.561 45.073h2.049v2.049h-2.049z M69.659 45.073h8.195v2.049h-8.195z M2.049 47.122h2.049v2.049h-2.049z M16.39 47.122h4.098v2.049h-4.098z M22.537 47.122h12.293v2.049h-12.293z M43.024 47.122h4.098v2.049h-4.098z M49.171 47.122h2.049v2.049h-2.049z M57.366 47.122h2.049v2.049h-2.049z M63.512 47.122h4.098v2.049h-4.098z M69.659 47.122h2.049v2.049h-2.049z M75.805 47.122h2.049v2.049h-2.049z M2.049 49.171h2.049v2.049h-2.049z M8.195 49.171h2.049v2.049h-2.049z M12.293 49.171h2.049v2.049h-2.049z M16.39 49.171h2.049v2.049h-2.049z M20.488 49.171h2.049v2.049h-2.049z M26.634 49.171h2.049v2.049h-2.049z M34.829 49.171h2.049v2.049h-2.049z M38.927 49.171h2.049v2.049h-2.049z M45.073 49.171h10.244v2.049h-10.244z M59.415 49.171h2.049v2.049h-2.049z M63.512 49.171h2.049v2.049h-2.049z M71.707 49.171h2.049v2.049h-2.049z M75.805 49.171h4.098v2.049h-4.098z M2.049 51.22h4.098v2.049h-4.098z M14.341 51.22h6.146v2.049h-6.146z M24.585 51.22h2.049v2.049h-2.049z M30.732 51.22h2.049v2.049h-2.049z M36.878 51.22h8.195v2.049h-8.195z M47.122 51.22h2.049v2.049h-2.049z M51.22 51.22h4.098v2.049h-4.098z M61.463 51.22h4.098v2.049h-4.098z M71.707 51.22h6.146v2.049h-6.146z M81.951 51.22h2.049v2.049h-2.049z M0.0 53.268h4.098v2.049h-4.098z M6.146 53.268h4.098v2.049h-4.098z M12.293 53.268h10.244v2.049h-10.244z M24.585 53.268h2.049v2.049h-2.049z M40.976 53.268h6.146v2.049h-6.146z M51.22 53.268h6.146v2.049h-6.146z M59.415 53.268h4.098v2.049h-4.098z M65.561 53.268h2.049v2.049h-2.049z M69.659 53.268h2.049v2.049h-2.049z M73.756 53.268h2.049v2.049h-2.049z M2.049 55.317h6.146v2.049h-6.146z M22.537 55.317h4.098v2.049h-4.098z M30.732 55.317h4.098v2.049h-4.098z M38.927 55.317h10.244v2.049h-10.244z M53.268 55.317h4.098v2.049h-4.098z M61.463 55.317h16.39v2.049h-16.39z M2.049 57.366h4.098v2.049h-4.098z M10.244 57.366h4.098v2.049h-4.098z M18.439 57.366h2.049v2.049h-2.049z M22.537 57.366h2.049v2.049h-2.049z M28.683 57.366h2.049v2.049h-2.049z M34.829 57.366h2.049v2.049h-2.049z M38.927 57.366h2.049v2.049h-2.049z M45.073 57.366h4.098v2.049h-4.098z M51.22 57.366h2.049v2.049h-2.049z M59.415 57.366h8.195v2.049h-8.195z M69.659 57.366h4.098v2.049h-4.098z M75.805 57.366h4.098v2.049h-4.098z M0.0 59.415h2.049v2.049h-2.049z M4.098 59.415h6.146v2.049h-6.146z M18.439 59.415h4.098v2.049h-4.098z M24.585 59.415h2.049v2.049h-2.049z M28.683 59.415h6.146v2.049h-6.146z M36.878 59.415h2.049v2.049h-2.049z M40.976 59.415h4.098v2.049h-4.098z M49.171 59.415h2.049v2.049h-2.049z M53.268 59.415h8.195v2.049h-8.195z M67.61 59.415h2.049v2.049h-2.049z M71.707 59.415h4.098v2.049h-4.098z M81.951 59.415h2.049v2.049h-2.049z M0.0 61.463h2.049v2.049h-2.049z M4.098 61.463h2.049v2.049h-2.049z M8.195 61.463h2.049v2.049h-2.049z M12.293 61.463h12.293v2.049h-12.293z M34.829 61.463h6.146v2.049h-6.146z M43.024 61.463h2.049v2.049h-2.049z M51.22 61.463h4.098v2.049h-4.098z M65.561 61.463h8.195v2.049h-8.195z M0.0 63.512h2.049v2.049h-2.049z M4.098 63.512h2.049v2.049h-2.049z M16.39 63.512h6.146v2.049h-6.146z M24.585 63.512h4.098v2.049h-4.098z M32.78 63.512h2.049v2.049h-2.049z M38.927 63.512h8.195v2.049h-8.195z M49.171 63.512h2.049v2.049h-2.049z M53.268 63.512h2.049v2.049h-2.049z M57.366 63.512h2.049v2.049h-2.049z M61.463 63.512h2.049v2.049h-2.049z M67.61 63.512h6.146v2.049h-6.146z M75.805 63.512h2.049v2.049h-2.049z M81.951 63.512h2.049v2.049h-2.049z M0.0 65.561h2.049v2.049h-2.049z M4.098 65.561h10.244v2.049h-10.244z M18.439 65.561h2.049v2.049h-2.049z M24.585 65.561h2.049v2.049h-2.049z M32.78 65.561h4.098v2.049h-4.098z M38.927 65.561h8.195v2.049h-8.195z M51.22 65.561h4.098v2.049h-4.098z M57.366 65.561h4.098v2.049h-4.098z M65.561 65.561h10.244v2.049h-10.244z M77.854 65.561h4.098v2.049h-4.098z M16.39 67.61h2.049v2.049h-2.049z M28.683 67.61h4.098v2.049h-4.098z M34.829 67.61h2.049v2.049h-2.049z M40.976 67.61h4.098v2.049h-4.098z M47.122 67.61h2.049v2.049h-2.049z M51.22 67.61h2.049v2.049h-2.049z M55.317 67.61h4.098v2.049h-4.098z M65.561 67.61h2.049v2.049h-2.049z M73.756 67.61h2.049v2.049h-2.049z M77.854 67.61h6.146v2.049h-6.146z M0.0 69.659h14.341v2.049h-14.341z M18.439 69.659h2.049v2.049h-2.049z M22.537 69.659h6.146v2.049h-6.146z M34.829 69.659h2.049v2.049h-2.049z M40.976 69.659h4.098v2.049h-4.098z M51.22 69.659h8.195v2.049h-8.195z M61.463 69.659h6.146v2.049h-6.146z M69.659 69.659h2.049v2.049h-2.049z M73.756 69.659h4.098v2.049h-4.098z M0.0 71.707h2.049v2.049h-2.049z M12.293 71.707h2.049v2.049h-2.049z M16.39 71.707h2.049v2.049h-2.049z M22.537 71.707h2.049v2.049h-2.049z M26.634 71.707h2.049v2.049h-2.049z M30.732 71.707h2.049v2.049h-2.049z M34.829 71.707h4.098v2.049h-4.098z M43.024 71.707h4.098v2.049h-4.098z M51.22 71.707h2.049v2.049h-2.049z M55.317 71.707h2.049v2.049h-2.049z M63.512 71.707h4.098v2.049h-4.098z M73.756 71.707h4.098v2.049h-4.098z M81.951 71.707h2.049v2.049h-2.049z M0.0 73.756h2.049v2.049h-2.049z M4.098 73.756h6.146v2.049h-6.146z M12.293 73.756h2.049v2.049h-2.049z M16.39 73.756h2.049v2.049h-2.049z M20.488 73.756h4.098v2.049h-4.098z M26.634 73.756h2.049v2.049h-2.049z M30.732 73.756h4.098v2.049h-4.098z M38.927 73.756h2.049v2.049h-2.049z M43.024 73.756h2.049v2.049h-2.049z M53.268 73.756h2.049v2.049h-2.049z M61.463 73.756h2.049v2.049h-2.049z M65.561 73.756h14.341v2.049h-14.341z M81.951 73.756h2.049v2.049h-2.049z M0.0 75.805h2.049v2.049h-2.049z M4.098 75.805h6.146v2.049h-6.146z M12.293 75.805h2.049v2.049h-2.049z M16.39 75.805h4.098v2.049h-4.098z M30.732 75.805h2.049v2.049h-2.049z M34.829 75.805h16.39v2.049h-16.39z M63.512 75.805h6.146v2.049h-6.146z M71.707 75.805h2.049v2.049h-2.049z M75.805 75.805h2.049v2.049h-2.049z M0.0 77.854h2.049v2.049h-2.049z M4.098 77.854h6.146v2.049h-6.146z M12.293 77.854h2.049v2.049h-2.049z M16.39 77.854h2.049v2.049h-2.049z M28.683 77.854h2.049v2.049h-2.049z M32.78 77.854h4.098v2.049h-4.098z M40.976 77.854h2.049v2.049h-2.049z M45.073 77.854h2.049v2.049h-2.049z M49.171 77.854h8.195v2.049h-8.195z M59.415 77.854h6.146v2.049h-6.146z M67.61 77.854h8.195v2.049h-8.195z M0.0 79.902h2.049v2.049h-2.049z M12.293 79.902h2.049v2.049h-2.049z M20.488 79.902h2.049v2.049h-2.049z M24.585 79.902h4.098v2.049h-4.098z M30.732 79.902h2.049v2.049h-2.049z M34.829 79.902h2.049v2.049h-2.049z M38.927 79.902h2.049v2.049h-2.049z M43.024 79.902h4.098v2.049h-4.098z M49.171 79.902h2.049v2.049h-2.049z M53.268 79.902h2.049v2.049h-2.049z M57.366 79.902h2.049v2.049h-2.049z M65.561 79.902h4.098v2.049h-4.098z M73.756 79.902h4.098v2.049h-4.098z M79.902 79.902h2.049v2.049h-2.049z M0.0 81.951h14.341v2.049h-14.341z M16.39 81.951h2.049v2.049h-2.049z M22.537 81.951h2.049v2.049h-2.049z M26.634 81.951h4.098v2.049h-4.098z M32.78 81.951h4.098v2.049h-4.098z M45.073 81.951h2.049v2.049h-2.049z M49.171 81.951h8.195v2.049h-8.195z M59.415 81.951h2.049v2.049h-2.049z M69.659 81.951h10.244v2.049h-10.244z"/>
</g>
<text x="1122" y="614" font-family="Inter, Helvetica, Arial, sans-serif" font-size="10" font-weight="700" fill="#F5F7FA" text-anchor="middle">scan / full post</text>
</svg>
