<svg xmlns="http://www.w3.org/2000/svg" viewBox="0 0 1200 630" width="1200" height="630" role="img" aria-label="Weekly digest cover 2026.03.18: Bedrock LangSmith DNS Leak, LeakNet ClickFix Deno, GKE Inference Gateway">
<!-- profile: high-quality-cover (L20 Hero+2-Card) -->
<title>Weekly digest 2026-03-18: Bedrock DNS leak, LeakNet ClickFix, GKE inference</title>
<defs><linearGradient id="bgSpread" x1="0%" y1="0%" x2="100%" y2="100%"><stop offset="0%" stop-color="#0B1326"/><stop offset="55%" stop-color="#0D1530"/><stop offset="100%" stop-color="#141034"/></linearGradient><linearGradient id="heroPanel" x1="0%" y1="0%" x2="0%" y2="100%"><stop offset="0%" stop-color="#1A0A08"/><stop offset="100%" stop-color="#110608"/></linearGradient><linearGradient id="heroPanelBlue" x1="0%" y1="0%" x2="0%" y2="100%"><stop offset="0%" stop-color="#0A1A30"/><stop offset="100%" stop-color="#071426"/></linearGradient><linearGradient id="heroPanelAmber" x1="0%" y1="0%" x2="0%" y2="100%"><stop offset="0%" stop-color="#1A1208"/><stop offset="100%" stop-color="#120E06"/></linearGradient><linearGradient id="heroPanelGreen" x1="0%" y1="0%" x2="0%" y2="100%"><stop offset="0%" stop-color="#08160E"/><stop offset="100%" stop-color="#04100A"/></linearGradient><linearGradient id="heroPanelPurple" x1="0%" y1="0%" x2="0%" y2="100%"><stop offset="0%" stop-color="#110629"/><stop offset="100%" stop-color="#0A0418"/></linearGradient><radialGradient id="hotRed" cx="50%" cy="50%" r="50%"><stop offset="0%" stop-color="#E63946" stop-opacity="0.6"/><stop offset="100%" stop-color="#E63946" stop-opacity="0"/></radialGradient><radialGradient id="hotBlue" cx="50%" cy="50%" r="50%"><stop offset="0%" stop-color="#3A86FF" stop-opacity="0.5"/><stop offset="100%" stop-color="#3A86FF" stop-opacity="0"/></radialGradient><radialGradient id="hotAmber" cx="50%" cy="50%" r="50%"><stop offset="0%" stop-color="#FFB703" stop-opacity="0.45"/><stop offset="100%" stop-color="#FFB703" stop-opacity="0"/></radialGradient><radialGradient id="hotGreen" cx="50%" cy="50%" r="50%"><stop offset="0%" stop-color="#4ADE80" stop-opacity="0.45"/><stop offset="100%" stop-color="#4ADE80" stop-opacity="0"/></radialGradient><radialGradient id="hotPurple" cx="50%" cy="50%" r="50%"><stop offset="0%" stop-color="#A78BFA" stop-opacity="0.45"/><stop offset="100%" stop-color="#A78BFA" stop-opacity="0"/></radialGradient><pattern id="envGrid" x="0" y="0" width="40" height="40" patternUnits="userSpaceOnUse"><circle cx="20" cy="20" r="0.8" fill="#2A3256" opacity="0.55"/></pattern><filter id="softShadow" x="-10%" y="-10%" width="130%" height="130%"><feGaussianBlur in="SourceAlpha" stdDeviation="3"/><feOffset dx="2" dy="4"/><feComponentTransfer><feFuncA type="linear" slope="0.55"/></feComponentTransfer><feMerge><feMergeNode/><feMergeNode in="SourceGraphic"/></feMerge></filter><filter id="textShadow" x="-10%" y="-10%" width="130%" height="130%"><feGaussianBlur in="SourceAlpha" stdDeviation="1.2"/><feOffset dx="1" dy="1.5"/><feComponentTransfer><feFuncA type="linear" slope="0.7"/></feComponentTransfer><feMerge><feMergeNode/><feMergeNode in="SourceGraphic"/></feMerge></filter></defs>
<rect width="1200" height="630" fill="url(#bgSpread)"/>
<rect width="1200" height="630" fill="url(#envGrid)"/>
<circle cx="310" cy="310" r="160" fill="url(#hotRed)"><animate attributeName="opacity" values="0.6;1;0.6" dur="5.8s" repeatCount="indefinite"/></circle><circle cx="950" cy="210" r="120" fill="url(#hotBlue)"><animate attributeName="opacity" values="0.45;0.85;0.45" dur="6.4s" repeatCount="indefinite"/></circle><circle cx="970" cy="480" r="110" fill="url(#hotAmber)"><animate attributeName="opacity" values="0.4;0.75;0.4" dur="7.1s" repeatCount="indefinite"/></circle><g fill="#8FB8FF"><circle cx="180" cy="70" r="1.2"><animate attributeName="opacity" values="0.2;1;0.2" dur="3.4s" repeatCount="indefinite"/></circle><circle cx="440" cy="62" r="1"><animate attributeName="opacity" values="0.2;0.9;0.2" dur="4.2s" repeatCount="indefinite"/></circle><circle cx="740" cy="68" r="1.3"><animate attributeName="opacity" values="0.25;1;0.25" dur="3.9s" repeatCount="indefinite"/></circle><circle cx="1060" cy="74" r="0.9"><animate attributeName="opacity" values="0.2;0.85;0.2" dur="5.1s" repeatCount="indefinite"/></circle><circle cx="90" cy="580" r="1"><animate attributeName="opacity" values="0.15;0.8;0.15" dur="4.7s" repeatCount="indefinite"/></circle><circle cx="550" cy="590" r="0.8"><animate attributeName="opacity" values="0.2;0.75;0.2" dur="3.6s" begin="0.5s" repeatCount="indefinite"/></circle></g>
<rect x="0" y="0" width="1200" height="56" fill="#050813" opacity="0.92"/>
<text x="36" y="36" font-family="Inter, Helvetica, Arial, sans-serif" font-size="18" font-weight="700" fill="#8FB8FF" letter-spacing="2.5">WEEKLY DIGEST</text>
<text x="1164" y="36" font-family="Inter, Helvetica, Arial, sans-serif" font-size="15" font-weight="600" fill="#7DA3D9" letter-spacing="1.5" text-anchor="end">2026.03.18</text>
<rect x="0" y="54" width="1200" height="2" fill="#E63946" opacity="0.85"><animate attributeName="opacity" values="0.4;1;0.4" dur="4.8s" repeatCount="indefinite"/></rect>
<rect x="32" y="80" width="600" height="510" rx="14" ry="14" fill="url(#heroPanel)" stroke="#E63946" stroke-width="1.8" opacity="0.98"/>
<circle cx="160" cy="300" r="240" fill="url(#hotRed)" opacity="0.28"/>
<rect x="32" y="80" width="600" height="4" fill="#E63946" opacity="0.85"><animate attributeName="opacity" values="0.5;1;0.5" dur="3.4s" repeatCount="indefinite"/></rect>
<g filter="url(#textShadow)">
<text x="54" y="112" font-family="Inter, Helvetica, Arial, sans-serif" font-size="13" font-weight="700" fill="#F87171" letter-spacing="3">DATA LEAK  /  01</text>
<text x="54" y="146" font-family="Inter, Helvetica, Arial, sans-serif" font-size="31" font-weight="800" fill="#F8FAFC">Bedrock LangSmith DNS Leak</text>
<text x="54" y="174" font-family="Inter, Helvetica, Arial, sans-serif" font-size="17" font-weight="500" fill="#FBB6BD">Inference traffic egresses outside VPC private DNS scope</text>
</g>
<g transform="translate(332,360)"><g transform="translate(-160,-50)" filter="url(#softShadow)"><ellipse cx="40" cy="6" rx="40" ry="8" fill="#0A1B2E" stroke="#2CCCE4" stroke-width="1.6"/><rect x="0" y="6" width="80" height="56" fill="#0A1B2E" stroke="#2CCCE4" stroke-width="1.6"/><ellipse cx="40" cy="62" rx="40" ry="8" fill="#0A1B2E" stroke="#2CCCE4" stroke-width="1.6"/><ellipse cx="40" cy="22" rx="40" ry="6" fill="none" stroke="#2CCCE4" stroke-width="0.8" opacity="0.6"/><ellipse cx="40" cy="40" rx="40" ry="6" fill="none" stroke="#2CCCE4" stroke-width="0.8" opacity="0.6"/><text x="40" y="84" text-anchor="middle" font-family="Inter, monospace" font-size="10" font-weight="800" fill="#2CCCE4">DB / S3</text><text x="40" y="98" text-anchor="middle" font-family="Inter, monospace" font-size="8" font-weight="600" fill="#7ED4E5">PII  /  secrets</text></g><g transform="translate(80,-50)" filter="url(#softShadow)"><rect x="0" y="0" width="80" height="80" rx="8" fill="#1E0A0A" stroke="#E63946" stroke-width="2"/><text x="40" y="22" text-anchor="middle" font-family="Inter, monospace" font-size="10" font-weight="900" fill="#F87171">ATTACKER</text><g transform="translate(20,32)" stroke="#F87171" stroke-width="1.6" fill="none"><circle cx="20" cy="10" r="8"/><path d="M6 32 Q20 22 34 32"/></g><text x="40" y="74" text-anchor="middle" font-family="Inter, monospace" font-size="8" font-weight="700" fill="#FCA5A5">offshore relay</text></g><g stroke="#E63946" stroke-width="1.4" stroke-dasharray="4 3" fill="none"><path d="M-80 -10 L80 -10"><animate attributeName="stroke-dashoffset" values="0;-14" dur="1.2s" repeatCount="indefinite"/></path><path d="M-80 0 L80 0"><animate attributeName="stroke-dashoffset" values="0;-14" dur="1.4s" begin="0.2s" repeatCount="indefinite"/></path><path d="M-80 10 L80 10"><animate attributeName="stroke-dashoffset" values="0;-14" dur="1s" begin="0.4s" repeatCount="indefinite"/></path></g><g fill="#F87171"><circle r="2.4"><animateMotion path="M-80 -10 L80 -10" dur="2s" repeatCount="indefinite"/></circle><circle r="2.4"><animateMotion path="M-80 0 L80 0" dur="2.2s" begin="0.4s" repeatCount="indefinite"/></circle><circle r="2.4"><animateMotion path="M-80 10 L80 10" dur="2.4s" begin="0.8s" repeatCount="indefinite"/></circle></g><text x="0" y="40" text-anchor="middle" font-family="Inter, Helvetica, Arial, sans-serif" font-size="10" font-weight="700" fill="#E63946" letter-spacing="2">DATA EXFILTRATION</text></g>
<g transform="translate(54,548)">
<rect x="0" y="0" width="280" height="24" rx="3" fill="#E63946" opacity="0.95"/>
<text x="140" y="17" text-anchor="middle" font-family="Inter, Helvetica, Arial, sans-serif" font-size="12" font-weight="700" fill="#FFFFFF">PATCH PRIVATE DNS NOW</text>
</g>
<text x="350" y="566" font-family="Inter, Helvetica, Arial, sans-serif" font-size="13" font-weight="600" fill="#A5B4C4" font-style="italic">Weekly Digest  /  2026.03.18</text>
<rect x="652" y="80" width="516" height="248" rx="14" ry="14" fill="url(#heroPanelBlue)" stroke="#3A86FF" stroke-width="1.6" opacity="0.97"/>
<rect x="652" y="80" width="516" height="4" fill="#3A86FF" opacity="0.85"><animate attributeName="opacity" values="0.5;1;0.5" dur="4.2s" repeatCount="indefinite"/></rect>
<g filter="url(#textShadow)">
<text x="670" y="110" font-family="Inter, Helvetica, Arial, sans-serif" font-size="12" font-weight="700" fill="#7DA3D9" letter-spacing="3">RANSOMWARE  /  02</text>
<text x="670" y="140" font-family="Inter, Helvetica, Arial, sans-serif" font-size="24" font-weight="800" fill="#F5F7FA">LeakNet ClickFix Deno</text>
<text x="670" y="163" font-family="Inter, Helvetica, Arial, sans-serif" font-size="14" font-weight="500" fill="#BFC9D9">ClickFix lure delivers Deno-based loader to Windows hosts</text>
</g>
<g transform="translate(800,230)"><g transform="translate(-100,-90)" filter="url(#softShadow)"><rect x="0" y="32" width="80" height="64" rx="8" fill="#3A86FF"/><path d="M14 32 L14 16 Q40 -6 66 16 L66 32" stroke="#3A86FF" stroke-width="6" fill="none" stroke-linecap="round"/><circle cx="40" cy="60" r="6" fill="#FFFFFF"/><rect x="38" y="62" width="4" height="14" fill="#FFFFFF"/><text x="40" y="116" text-anchor="middle" font-family="Inter, monospace" font-size="10" font-weight="900" fill="#60A5FA">LOCKED</text></g><g transform="translate(20,-90)" filter="url(#softShadow)"><rect x="0" y="0" width="180" height="180" rx="8" fill="#0A0C16" stroke="#3A86FF" stroke-width="1.4"/><text x="90" y="22" text-anchor="middle" font-family="Inter, monospace" font-size="11" font-weight="900" fill="#F87171">RANSOM NOTE</text><line x1="14" y1="32" x2="166" y2="32" stroke="#3A86FF" stroke-width="0.8" opacity="0.6"/><g font-family="Inter, monospace" font-size="9" font-weight="600" fill="#FCA5A5"><text x="14" y="50">Files encrypted: 100%</text><text x="14" y="68">AES-256 + RSA-4096</text><text x="14" y="86">Backups deleted</text><text x="14" y="104">Volume shadow wiped</text></g><rect x="14" y="118" width="152" height="22" rx="3" fill="#2A0808" stroke="#3A86FF" stroke-width="1.2"><animate attributeName="stroke-opacity" values="0.6;1;0.6" dur="1.6s" repeatCount="indefinite"/></rect><text x="90" y="133" text-anchor="middle" font-family="Inter, monospace" font-size="10" font-weight="900" fill="#FFFFFF">PAY OR LOSE DATA</text><g transform="translate(14,148)" font-family="Inter, monospace" font-size="8" font-weight="700" fill="#FFB703"><rect x="0" y="0" width="152" height="20" rx="3" fill="#1A1208" stroke="#FFB703" stroke-width="1"/><text x="76" y="14" text-anchor="middle">countdown  /  72h window</text></g></g></g>
<g transform="translate(1094,168)" filter="url(#softShadow)"><rect x="-68" y="-55" width="140" height="110" rx="10" fill="#071426" stroke="#3A86FF" stroke-width="2"/><text x="2" y="-28" text-anchor="middle" font-family="Inter, Helvetica, Arial, sans-serif" font-size="10" font-weight="700" letter-spacing="2" fill="#7DA3D9">LOADER</text><text x="2" y="18" text-anchor="middle" font-family="Inter, Helvetica, Arial, sans-serif" font-size="28" font-weight="900" fill="#F5F7FA">Deno</text><text x="2" y="40" text-anchor="middle" font-family="Inter, Helvetica, Arial, sans-serif" font-size="10" font-weight="600" fill="#BFC9D9">TS runtime abuse</text></g>
<rect x="652" y="344" width="516" height="246" rx="14" ry="14" fill="url(#heroPanelAmber)" stroke="#FFB703" stroke-width="1.6" opacity="0.97"/>
<rect x="652" y="344" width="516" height="4" fill="#FFB703" opacity="0.85"><animate attributeName="opacity" values="0.5;1;0.5" dur="4.8s" repeatCount="indefinite"/></rect>
<g filter="url(#textShadow)">
<text x="670" y="374" font-family="Inter, Helvetica, Arial, sans-serif" font-size="12" font-weight="700" fill="#FFB703" letter-spacing="3">INFRA  /  03</text>
<text x="670" y="404" font-family="Inter, Helvetica, Arial, sans-serif" font-size="24" font-weight="800" fill="#F5F7FA">GKE Inference Gateway</text>
<text x="670" y="428" font-family="Inter, Helvetica, Arial, sans-serif" font-size="14" font-weight="500" fill="#FFD58A">Multi-cluster inference gateway adds tenant key scoping</text>
</g>
<g transform="translate(800,490)" font-family="Inter, monospace" font-weight="800"><g transform="translate(-200,-30)"><rect x="0" y="0" width="80" height="60" rx="6" fill="#0A1628" stroke="#3A86FF" stroke-width="1.4"/><text x="40" y="22" text-anchor="middle" font-size="10" fill="#8FB8FF">SOURCE</text><text x="40" y="40" text-anchor="middle" font-size="8" font-weight="600" fill="#BFC9D9">git repo</text><text x="40" y="52" text-anchor="middle" font-size="8" font-weight="600" fill="#BFC9D9">commits</text></g><g transform="translate(-100,-30)"><rect x="0" y="0" width="80" height="60" rx="6" fill="#1E1805" stroke="#FFB703" stroke-width="2"><animate attributeName="stroke-opacity" values="0.6;1;0.6" dur="1.8s" repeatCount="indefinite"/></rect><text x="40" y="22" text-anchor="middle" font-size="10" fill="#FFD58A">CI / BUILD</text><text x="40" y="40" text-anchor="middle" font-size="8" font-weight="600" fill="#FFB703">poisoned step</text><circle cx="68" cy="12" r="5" fill="#E63946"><animate attributeName="opacity" values="0.4;1;0.4" dur="1.2s" repeatCount="indefinite"/></circle></g><g transform="translate(0,-30)"><rect x="0" y="0" width="80" height="60" rx="6" fill="#0A1B2E" stroke="#2CCCE4" stroke-width="1.4"/><text x="40" y="22" text-anchor="middle" font-size="10" fill="#2CCCE4">REGISTRY</text><text x="40" y="40" text-anchor="middle" font-size="8" font-weight="600" fill="#7ED4E5">images</text><text x="40" y="52" text-anchor="middle" font-size="8" font-weight="600" fill="#7ED4E5">artifacts</text></g><g transform="translate(100,-30)"><rect x="0" y="0" width="80" height="60" rx="6" fill="#062012" stroke="#4ADE80" stroke-width="1.4"/><text x="40" y="22" text-anchor="middle" font-size="10" fill="#4ADE80">DEPLOY</text><text x="40" y="40" text-anchor="middle" font-size="8" font-weight="600" fill="#86EFAC">prod cluster</text><text x="40" y="52" text-anchor="middle" font-size="8" font-weight="600" fill="#86EFAC">tainted</text></g><g stroke="#FFB703" stroke-width="2" fill="none" stroke-linecap="round"><path d="M-120 0 L-100 0" stroke-dasharray="3 2"><animate attributeName="stroke-dashoffset" values="0;-10" dur="1s" repeatCount="indefinite"/></path><path d="M-20 0 L0 0" stroke-dasharray="3 2"><animate attributeName="stroke-dashoffset" values="0;-10" dur="1s" repeatCount="indefinite"/></path><path d="M80 0 L100 0" stroke-dasharray="3 2"><animate attributeName="stroke-dashoffset" values="0;-10" dur="1s" repeatCount="indefinite"/></path></g><g fill="#FFD58A"><circle r="2.4"><animateMotion path="M-120 0 L100 0" dur="3.6s" repeatCount="indefinite"/></circle><circle r="2" opacity="0.7"><animateMotion path="M-120 0 L100 0" dur="3.6s" begin="1.2s" repeatCount="indefinite"/></circle></g><text x="0" y="56" text-anchor="middle" font-family="Inter, Helvetica, Arial, sans-serif" font-size="10" font-weight="700" fill="#FFB703" letter-spacing="2">SUPPLY-CHAIN POISON</text></g>
<g transform="translate(1094,452)" filter="url(#softShadow)"><rect x="-68" y="-55" width="140" height="110" rx="10" fill="#1A1208" stroke="#FFB703" stroke-width="2"/><text x="2" y="-28" text-anchor="middle" font-family="Inter, Helvetica, Arial, sans-serif" font-size="10" font-weight="700" letter-spacing="2" fill="#FFB703">STATUS</text><text x="2" y="18" text-anchor="middle" font-family="Inter, Helvetica, Arial, sans-serif" font-size="28" font-weight="900" fill="#F5F7FA">GA</text><text x="2" y="40" text-anchor="middle" font-family="Inter, Helvetica, Arial, sans-serif" font-size="10" font-weight="600" fill="#FFD58A">1.31+ clusters</text></g>
<g opacity="0.85"><g fill="#F87171"><circle cx="1104" cy="110" r="1.4"><animate attributeName="opacity" values="0.2;1;0.2" dur="1.8s" repeatCount="indefinite"/></circle><circle cx="1124" cy="110" r="1.4"><animate attributeName="opacity" values="0.2;1;0.2" dur="1.4s" begin="0.3s" repeatCount="indefinite"/></circle></g><g fill="#7DA3D9"><circle cx="1104" cy="218" r="1.2"><animate attributeName="opacity" values="0.2;1;0.2" dur="2s" repeatCount="indefinite"/></circle><circle cx="1124" cy="218" r="1.2"><animate attributeName="opacity" values="0.2;1;0.2" dur="1.6s" begin="0.4s" repeatCount="indefinite"/></circle></g><g fill="#FFD58A"><circle cx="1104" cy="374" r="1.4"><animate attributeName="opacity" values="0.2;1;0.2" dur="1.8s" repeatCount="indefinite"/></circle><circle cx="1124" cy="374" r="1.4"><animate attributeName="opacity" values="0.2;1;0.2" dur="1.6s" begin="0.3s" repeatCount="indefinite"/></circle></g><g stroke="#E63946" stroke-width="0.5" fill="none"><path d="M20 230 L28 230"><animate attributeName="stroke-opacity" values="0;0.7;0" dur="2s" repeatCount="indefinite"/></path><path d="M20 300 L28 300"><animate attributeName="stroke-opacity" values="0;0.7;0" dur="2.3s" begin="0.3s" repeatCount="indefinite"/></path><path d="M20 370 L28 370"><animate attributeName="stroke-opacity" values="0;0.7;0" dur="1.9s" begin="0.6s" repeatCount="indefinite"/></path><path d="M20 440 L28 440"><animate attributeName="stroke-opacity" values="0;0.7;0" dur="2.1s" begin="0.9s" repeatCount="indefinite"/></path></g></g>
<g transform="translate(1080,504)" filter="url(#softShadow)">
  <rect x="-8" y="-8" width="100" height="100" rx="6" fill="#FFFFFF"/>
  <path fill="#0A1020" d="M0.0 0.0h14.341v2.049h-14.341z M16.39 0.0h12.293v2.049h-12.293z M30.732 0.0h6.146v2.049h-6.146z M38.927 0.0h2.049v2.049h-2.049z M47.122 0.0h2.049v2.049h-2.049z M51.22 0.0h4.098v2.049h-4.098z M59.415 0.0h4.098v2.049h-4.098z M69.659 0.0h14.341v2.049h-14.341z M0.0 2.049h2.049v2.049h-2.049z M12.293 2.049h2.049v2.049h-2.049z M18.439 2.049h2.049v2.049h-2.049z M24.585 2.049h2.049v2.049h-2.049z M32.78 2.049h2.049v2.049h-2.049z M40.976 2.049h6.146v2.049h-6.146z M51.22 2.049h2.049v2.049h-2.049z M59.415 2.049h2.049v2.049h-2.049z M65.561 2.049h2.049v2.049h-2.049z M69.659 2.049h2.049v2.049h-2.049z M81.951 2.049h2.049v2.049h-2.049z M0.0 4.098h2.049v2.049h-2.049z M4.098 4.098h6.146v2.049h-6.146z M12.293 4.098h2.049v2.049h-2.049z M16.39 4.098h4.098v2.049h-4.098z M24.585 4.098h2.049v2.049h-2.049z M32.78 4.098h4.098v2.049h-4.098z M38.927 4.098h4.098v2.049h-4.098z M45.073 4.098h4.098v2.049h-4.098z M51.22 4.098h6.146v2.049h-6.146z M59.415 4.098h2.049v2.049h-2.049z M63.512 4.098h2.049v2.049h-2.049z M69.659 4.098h2.049v2.049h-2.049z M73.756 4.098h6.146v2.049h-6.146z M81.951 4.098h2.049v2.049h-2.049z M0.0 6.146h2.049v2.049h-2.049z M4.098 6.146h6.146v2.049h-6.146z M12.293 6.146h2.049v2.049h-2.049z M18.439 6.146h2.049v2.049h-2.049z M22.537 6.146h4.098v2.049h-4.098z M28.683 6.146h2.049v2.049h-2.049z M32.78 6.146h2.049v2.049h-2.049z M40.976 6.146h2.049v2.049h-2.049z M45.073 6.146h2.049v2.049h-2.049z M49.171 6.146h6.146v2.049h-6.146z M57.366 6.146h6.146v2.049h-6.146z M65.561 6.146h2.049v2.049h-2.049z M69.659 6.146h2.049v2.049h-2.049z M73.756 6.146h6.146v2.049h-6.146z M81.951 6.146h2.049v2.049h-2.049z M0.0 8.195h2.049v2.049h-2.049z M4.098 8.195h6.146v2.049h-6.146z M12.293 8.195h2.049v2.049h-2.049z M20.488 8.195h2.049v2.049h-2.049z M24.585 8.195h4.098v2.049h-4.098z M30.732 8.195h4.098v2.049h-4.098z M38.927 8.195h2.049v2.049h-2.049z M43.024 8.195h6.146v2.049h-6.146z M51.22 8.195h4.098v2.049h-4.098z M57.366 8.195h6.146v2.049h-6.146z M65.561 8.195h2.049v2.049h-2.049z M69.659 8.195h2.049v2.049h-2.049z M73.756 8.195h6.146v2.049h-6.146z M81.951 8.195h2.049v2.049h-2.049z M0.0 10.244h2.049v2.049h-2.049z M12.293 10.244h2.049v2.049h-2.049z M16.39 10.244h6.146v2.049h-6.146z M26.634 10.244h2.049v2.049h-2.049z M30.732 10.244h8.195v2.049h-8.195z M40.976 10.244h4.098v2.049h-4.098z M49.171 10.244h4.098v2.049h-4.098z M61.463 10.244h2.049v2.049h-2.049z M69.659 10.244h2.049v2.049h-2.049z M81.951 10.244h2.049v2.049h-2.049z M0.0 12.293h14.341v2.049h-14.341z M16.39 12.293h2.049v2.049h-2.049z M20.488 12.293h2.049v2.049h-2.049z M24.585 12.293h2.049v2.049h-2.049z M28.683 12.293h2.049v2.049h-2.049z M32.78 12.293h2.049v2.049h-2.049z M36.878 12.293h2.049v2.049h-2.049z M40.976 12.293h2.049v2.049h-2.049z M45.073 12.293h2.049v2.049h-2.049z M49.171 12.293h2.049v2.049h-2.049z M53.268 12.293h2.049v2.049h-2.049z M57.366 12.293h2.049v2.049h-2.049z M61.463 12.293h2.049v2.049h-2.049z M65.561 12.293h2.049v2.049h-2.049z M69.659 12.293h14.341v2.049h-14.341z M22.537 14.341h8.195v2.049h-8.195z M32.78 14.341h2.049v2.049h-2.049z M38.927 14.341h4.098v2.049h-4.098z M47.122 14.341h4.098v2.049h-4.098z M63.512 14.341h2.049v2.049h-2.049z M0.0 16.39h2.049v2.049h-2.049z M4.098 16.39h2.049v2.049h-2.049z M12.293 16.39h4.098v2.049h-4.098z M18.439 16.39h4.098v2.049h-4.098z M26.634 16.39h4.098v2.049h-4.098z M32.78 16.39h2.049v2.049h-2.049z M40.976 16.39h2.049v2.049h-2.049z M55.317 16.39h2.049v2.049h-2.049z M63.512 16.39h2.049v2.049h-2.049z M71.707 16.39h2.049v2.049h-2.049z M77.854 16.39h2.049v2.049h-2.049z M81.951 16.39h2.049v2.049h-2.049z M0.0 18.439h2.049v2.049h-2.049z M10.244 18.439h2.049v2.049h-2.049z M16.39 18.439h2.049v2.049h-2.049z M20.488 18.439h8.195v2.049h-8.195z M30.732 18.439h4.098v2.049h-4.098z M38.927 18.439h2.049v2.049h-2.049z M47.122 18.439h4.098v2.049h-4.098z M53.268 18.439h4.098v2.049h-4.098z M63.512 18.439h6.146v2.049h-6.146z M71.707 18.439h2.049v2.049h-2.049z M77.854 18.439h2.049v2.049h-2.049z M81.951 18.439h2.049v2.049h-2.049z M4.098 20.488h2.049v2.049h-2.049z M10.244 20.488h4.098v2.049h-4.098z M18.439 20.488h8.195v2.049h-8.195z M30.732 20.488h4.098v2.049h-4.098z M36.878 20.488h8.195v2.049h-8.195z M47.122 20.488h4.098v2.049h-4.098z M53.268 20.488h12.293v2.049h-12.293z M73.756 20.488h6.146v2.049h-6.146z M81.951 20.488h2.049v2.049h-2.049z M0.0 22.537h2.049v2.049h-2.049z M6.146 22.537h4.098v2.049h-4.098z M14.341 22.537h2.049v2.049h-2.049z M18.439 22.537h2.049v2.049h-2.049z M30.732 22.537h4.098v2.049h-4.098z M36.878 22.537h6.146v2.049h-6.146z M49.171 22.537h2.049v2.049h-2.049z M53.268 22.537h6.146v2.049h-6.146z M63.512 22.537h8.195v2.049h-8.195z M73.756 22.537h4.098v2.049h-4.098z M0.0 24.585h6.146v2.049h-6.146z M12.293 24.585h6.146v2.049h-6.146z M22.537 24.585h6.146v2.049h-6.146z M30.732 24.585h4.098v2.049h-4.098z M40.976 24.585h2.049v2.049h-2.049z M47.122 24.585h2.049v2.049h-2.049z M53.268 24.585h2.049v2.049h-2.049z M61.463 24.585h2.049v2.049h-2.049z M69.659 24.585h2.049v2.049h-2.049z M81.951 24.585h2.049v2.049h-2.049z M6.146 26.634h2.049v2.049h-2.049z M10.244 26.634h2.049v2.049h-2.049z M16.39 26.634h6.146v2.049h-6.146z M32.78 26.634h2.049v2.049h-2.049z M40.976 26.634h4.098v2.049h-4.098z M51.22 26.634h2.049v2.049h-2.049z M55.317 26.634h14.341v2.049h-14.341z M71.707 26.634h2.049v2.049h-2.049z M75.805 26.634h8.195v2.049h-8.195z M4.098 28.683h4.098v2.049h-4.098z M10.244 28.683h4.098v2.049h-4.098z M16.39 28.683h4.098v2.049h-4.098z M22.537 28.683h4.098v2.049h-4.098z M28.683 28.683h6.146v2.049h-6.146z M40.976 28.683h2.049v2.049h-2.049z M47.122 28.683h2.049v2.049h-2.049z M51.22 28.683h6.146v2.049h-6.146z M61.463 28.683h10.244v2.049h-10.244z M81.951 28.683h2.049v2.049h-2.049z M4.098 30.732h4.098v2.049h-4.098z M16.39 30.732h6.146v2.049h-6.146z M24.585 30.732h6.146v2.049h-6.146z M36.878 30.732h6.146v2.049h-6.146z M45.073 30.732h2.049v2.049h-2.049z M53.268 30.732h2.049v2.049h-2.049z M61.463 30.732h10.244v2.049h-10.244z M75.805 30.732h2.049v2.049h-2.049z M79.902 30.732h2.049v2.049h-2.049z M6.146 32.78h8.195v2.049h-8.195z M24.585 32.78h6.146v2.049h-6.146z M34.829 32.78h2.049v2.049h-2.049z M40.976 32.78h4.098v2.049h-4.098z M47.122 32.78h2.049v2.049h-2.049z M55.317 32.78h4.098v2.049h-4.098z M65.561 32.78h6.146v2.049h-6.146z M81.951 32.78h2.049v2.049h-2.049z M0.0 34.829h2.049v2.049h-2.049z M4.098 34.829h4.098v2.049h-4.098z M10.244 34.829h2.049v2.049h-2.049z M18.439 34.829h4.098v2.049h-4.098z M26.634 34.829h2.049v2.049h-2.049z M30.732 34.829h2.049v2.049h-2.049z M34.829 34.829h4.098v2.049h-4.098z M40.976 34.829h2.049v2.049h-2.049z M47.122 34.829h4.098v2.049h-4.098z M57.366 34.829h4.098v2.049h-4.098z M63.512 34.829h10.244v2.049h-10.244z M81.951 34.829h2.049v2.049h-2.049z M2.049 36.878h6.146v2.049h-6.146z M12.293 36.878h6.146v2.049h-6.146z M20.488 36.878h8.195v2.049h-8.195z M30.732 36.878h2.049v2.049h-2.049z M38.927 36.878h2.049v2.049h-2.049z M43.024 36.878h6.146v2.049h-6.146z M51.22 36.878h2.049v2.049h-2.049z M55.317 36.878h2.049v2.049h-2.049z M63.512 36.878h2.049v2.049h-2.049z M69.659 36.878h8.195v2.049h-8.195z M79.902 36.878h4.098v2.049h-4.098z M0.0 38.927h8.195v2.049h-8.195z M14.341 38.927h12.293v2.049h-12.293z M28.683 38.927h2.049v2.049h-2.049z M32.78 38.927h4.098v2.049h-4.098z M38.927 38.927h4.098v2.049h-4.098z M45.073 38.927h4.098v2.049h-4.098z M53.268 38.927h6.146v2.049h-6.146z M61.463 38.927h2.049v2.049h-2.049z M65.561 38.927h2.049v2.049h-2.049z M75.805 38.927h2.049v2.049h-2.049z M79.902 38.927h2.049v2.049h-2.049z M12.293 40.976h2.049v2.049h-2.049z M18.439 40.976h4.098v2.049h-4.098z M24.585 40.976h8.195v2.049h-8.195z M34.829 40.976h2.049v2.049h-2.049z M43.024 40.976h8.195v2.049h-8.195z M53.268 40.976h2.049v2.049h-2.049z M63.512 40.976h2.049v2.049h-2.049z M69.659 40.976h2.049v2.049h-2.049z M73.756 40.976h4.098v2.049h-4.098z M2.049 43.024h8.195v2.049h-8.195z M14.341 43.024h4.098v2.049h-4.098z M24.585 43.024h2.049v2.049h-2.049z M32.78 43.024h2.049v2.049h-2.049z M40.976 43.024h2.049v2.049h-2.049z M45.073 43.024h4.098v2.049h-4.098z M55.317 43.024h2.049v2.049h-2.049z M63.512 43.024h2.049v2.049h-2.049z M67.61 43.024h6.146v2.049h-6.146z M81.951 43.024h2.049v2.049h-2.049z M2.049 45.073h6.146v2.049h-6.146z M12.293 45.073h4.098v2.049h-4.098z M18.439 45.073h2.049v2.049h-2.049z M28.683 45.073h2.049v2.049h-2.049z M36.878 45.073h16.39v2.049h-16.39z M55.317 45.073h2.049v2.049h-2.049z M59.415 45.073h2.049v2.049h-2.049z M63.512 45.073h2.049v2.049h-2.049z M73.756 45.073h2.049v2.049h-2.049z M77.854 45.073h2.049v2.049h-2.049z M81.951 45.073h2.049v2.049h-2.049z M6.146 47.122h4.098v2.049h-4.098z M14.341 47.122h2.049v2.049h-2.049z M22.537 47.122h2.049v2.049h-2.049z M28.683 47.122h6.146v2.049h-6.146z M36.878 47.122h2.049v2.049h-2.049z M45.073 47.122h2.049v2.049h-2.049z M55.317 47.122h4.098v2.049h-4.098z M61.463 47.122h10.244v2.049h-10.244z M75.805 47.122h2.049v2.049h-2.049z M0.0 49.171h2.049v2.049h-2.049z M4.098 49.171h2.049v2.049h-2.049z M8.195 49.171h8.195v2.049h-8.195z M18.439 49.171h2.049v2.049h-2.049z M22.537 49.171h2.049v2.049h-2.049z M28.683 49.171h2.049v2.049h-2.049z M32.78 49.171h2.049v2.049h-2.049z M40.976 49.171h2.049v2.049h-2.049z M49.171 49.171h2.049v2.049h-2.049z M57.366 49.171h2.049v2.049h-2.049z M65.561 49.171h2.049v2.049h-2.049z M69.659 49.171h2.049v2.049h-2.049z M79.902 49.171h4.098v2.049h-4.098z M2.049 51.22h2.049v2.049h-2.049z M6.146 51.22h6.146v2.049h-6.146z M14.341 51.22h2.049v2.049h-2.049z M18.439 51.22h12.293v2.049h-12.293z M38.927 51.22h4.098v2.049h-4.098z M47.122 51.22h10.244v2.049h-10.244z M63.512 51.22h2.049v2.049h-2.049z M67.61 51.22h2.049v2.049h-2.049z M71.707 51.22h2.049v2.049h-2.049z M75.805 51.22h2.049v2.049h-2.049z M4.098 53.268h2.049v2.049h-2.049z M10.244 53.268h4.098v2.049h-4.098z M18.439 53.268h2.049v2.049h-2.049z M24.585 53.268h12.293v2.049h-12.293z M38.927 53.268h2.049v2.049h-2.049z M43.024 53.268h2.049v2.049h-2.049z M47.122 53.268h2.049v2.049h-2.049z M55.317 53.268h4.098v2.049h-4.098z M61.463 53.268h4.098v2.049h-4.098z M67.61 53.268h12.293v2.049h-12.293z M81.951 53.268h2.049v2.049h-2.049z M0.0 55.317h4.098v2.049h-4.098z M16.39 55.317h2.049v2.049h-2.049z M22.537 55.317h6.146v2.049h-6.146z M30.732 55.317h2.049v2.049h-2.049z M36.878 55.317h6.146v2.049h-6.146z M45.073 55.317h6.146v2.049h-6.146z M53.268 55.317h2.049v2.049h-2.049z M63.512 55.317h4.098v2.049h-4.098z M69.659 55.317h4.098v2.049h-4.098z M75.805 55.317h2.049v2.049h-2.049z M79.902 55.317h4.098v2.049h-4.098z M0.0 57.366h2.049v2.049h-2.049z M6.146 57.366h2.049v2.049h-2.049z M12.293 57.366h2.049v2.049h-2.049z M16.39 57.366h10.244v2.049h-10.244z M28.683 57.366h2.049v2.049h-2.049z M49.171 57.366h2.049v2.049h-2.049z M53.268 57.366h2.049v2.049h-2.049z M57.366 57.366h2.049v2.049h-2.049z M61.463 57.366h2.049v2.049h-2.049z M65.561 57.366h2.049v2.049h-2.049z M69.659 57.366h2.049v2.049h-2.049z M2.049 59.415h2.049v2.049h-2.049z M6.146 59.415h2.049v2.049h-2.049z M18.439 59.415h6.146v2.049h-6.146z M28.683 59.415h6.146v2.049h-6.146z M49.171 59.415h2.049v2.049h-2.049z M53.268 59.415h14.341v2.049h-14.341z M69.659 59.415h4.098v2.049h-4.098z M79.902 59.415h4.098v2.049h-4.098z M0.0 61.463h4.098v2.049h-4.098z M12.293 61.463h6.146v2.049h-6.146z M22.537 61.463h4.098v2.049h-4.098z M32.78 61.463h2.049v2.049h-2.049z M36.878 61.463h4.098v2.049h-4.098z M43.024 61.463h4.098v2.049h-4.098z M49.171 61.463h2.049v2.049h-2.049z M55.317 61.463h2.049v2.049h-2.049z M59.415 61.463h2.049v2.049h-2.049z M63.512 61.463h2.049v2.049h-2.049z M67.61 61.463h2.049v2.049h-2.049z M75.805 61.463h4.098v2.049h-4.098z M81.951 61.463h2.049v2.049h-2.049z M6.146 63.512h6.146v2.049h-6.146z M14.341 63.512h2.049v2.049h-2.049z M26.634 63.512h4.098v2.049h-4.098z M36.878 63.512h2.049v2.049h-2.049z M45.073 63.512h6.146v2.049h-6.146z M53.268 63.512h6.146v2.049h-6.146z M69.659 63.512h8.195v2.049h-8.195z M79.902 63.512h4.098v2.049h-4.098z M0.0 65.561h24.585v2.049h-24.585z M28.683 65.561h4.098v2.049h-4.098z M34.829 65.561h2.049v2.049h-2.049z M38.927 65.561h2.049v2.049h-2.049z M43.024 65.561h2.049v2.049h-2.049z M55.317 65.561h2.049v2.049h-2.049z M63.512 65.561h14.341v2.049h-14.341z M79.902 65.561h4.098v2.049h-4.098z M16.39 67.61h4.098v2.049h-4.098z M22.537 67.61h4.098v2.049h-4.098z M28.683 67.61h2.049v2.049h-2.049z M36.878 67.61h2.049v2.049h-2.049z M40.976 67.61h4.098v2.049h-4.098z M47.122 67.61h6.146v2.049h-6.146z M57.366 67.61h6.146v2.049h-6.146z M65.561 67.61h2.049v2.049h-2.049z M73.756 67.61h2.049v2.049h-2.049z M77.854 67.61h2.049v2.049h-2.049z M81.951 67.61h2.049v2.049h-2.049z M0.0 69.659h14.341v2.049h-14.341z M16.39 69.659h8.195v2.049h-8.195z M28.683 69.659h4.098v2.049h-4.098z M34.829 69.659h6.146v2.049h-6.146z M47.122 69.659h2.049v2.049h-2.049z M55.317 69.659h2.049v2.049h-2.049z M59.415 69.659h2.049v2.049h-2.049z M65.561 69.659h2.049v2.049h-2.049z M69.659 69.659h2.049v2.049h-2.049z M73.756 69.659h2.049v2.049h-2.049z M77.854 69.659h2.049v2.049h-2.049z M81.951 69.659h2.049v2.049h-2.049z M0.0 71.707h2.049v2.049h-2.049z M12.293 71.707h2.049v2.049h-2.049z M20.488 71.707h8.195v2.049h-8.195z M36.878 71.707h2.049v2.049h-2.049z M43.024 71.707h2.049v2.049h-2.049z M49.171 71.707h2.049v2.049h-2.049z M53.268 71.707h2.049v2.049h-2.049z M61.463 71.707h6.146v2.049h-6.146z M73.756 71.707h4.098v2.049h-4.098z M79.902 71.707h4.098v2.049h-4.098z M0.0 73.756h2.049v2.049h-2.049z M4.098 73.756h6.146v2.049h-6.146z M12.293 73.756h2.049v2.049h-2.049z M22.537 73.756h4.098v2.049h-4.098z M30.732 73.756h2.049v2.049h-2.049z M34.829 73.756h4.098v2.049h-4.098z M40.976 73.756h4.098v2.049h-4.098z M47.122 73.756h2.049v2.049h-2.049z M51.22 73.756h4.098v2.049h-4.098z M57.366 73.756h2.049v2.049h-2.049z M63.512 73.756h12.293v2.049h-12.293z M0.0 75.805h2.049v2.049h-2.049z M4.098 75.805h6.146v2.049h-6.146z M12.293 75.805h2.049v2.049h-2.049z M18.439 75.805h2.049v2.049h-2.049z M22.537 75.805h4.098v2.049h-4.098z M28.683 75.805h2.049v2.049h-2.049z M34.829 75.805h8.195v2.049h-8.195z M47.122 75.805h2.049v2.049h-2.049z M55.317 75.805h2.049v2.049h-2.049z M61.463 75.805h6.146v2.049h-6.146z M71.707 75.805h6.146v2.049h-6.146z M81.951 75.805h2.049v2.049h-2.049z M0.0 77.854h2.049v2.049h-2.049z M4.098 77.854h6.146v2.049h-6.146z M12.293 77.854h2.049v2.049h-2.049z M16.39 77.854h8.195v2.049h-8.195z M26.634 77.854h2.049v2.049h-2.049z M30.732 77.854h2.049v2.049h-2.049z M34.829 77.854h2.049v2.049h-2.049z M38.927 77.854h2.049v2.049h-2.049z M47.122 77.854h2.049v2.049h-2.049z M55.317 77.854h4.098v2.049h-4.098z M61.463 77.854h2.049v2.049h-2.049z M65.561 77.854h4.098v2.049h-4.098z M73.756 77.854h6.146v2.049h-6.146z M81.951 77.854h2.049v2.049h-2.049z M0.0 79.902h2.049v2.049h-2.049z M12.293 79.902h2.049v2.049h-2.049z M18.439 79.902h6.146v2.049h-6.146z M26.634 79.902h10.244v2.049h-10.244z M38.927 79.902h2.049v2.049h-2.049z M45.073 79.902h2.049v2.049h-2.049z M53.268 79.902h6.146v2.049h-6.146z M61.463 79.902h2.049v2.049h-2.049z M65.561 79.902h2.049v2.049h-2.049z M75.805 79.902h2.049v2.049h-2.049z M0.0 81.951h14.341v2.049h-14.341z M16.39 81.951h2.049v2.049h-2.049z M20.488 81.951h2.049v2.049h-2.049z M24.585 81.951h2.049v2.049h-2.049z M36.878 81.951h6.146v2.049h-6.146z M47.122 81.951h4.098v2.049h-4.098z M55.317 81.951h4.098v2.049h-4.098z M63.512 81.951h4.098v2.049h-4.098z M73.756 81.951h4.098v2.049h-4.098z M81.951 81.951h2.049v2.049h-2.049z"/>
</g>
<text x="1122" y="614" font-family="Inter, Helvetica, Arial, sans-serif" font-size="10" font-weight="700" fill="#F5F7FA" text-anchor="middle">scan / full post</text>
</svg>
