<svg xmlns="http://www.w3.org/2000/svg" viewBox="0 0 1200 630" width="1200" height="630" role="img" aria-label="FEBRUARY 2026 SECURITY DIGEST MONTHLY INDEX">
<title>FEBRUARY 2026 SECURITY DIGEST MONTHLY INDEX</title>
<!-- profile: high-quality-cover (2025 upgraded L25-single) -->
<defs>
    <linearGradient id="bgSpread2026-02-" x1="0%" y1="0%" x2="100%" y2="100%">
      <stop offset="0%" stop-color="#0b1120"/>
      <stop offset="52%" stop-color="#121a2f"/>
      <stop offset="100%" stop-color="#170f25"/>
    </linearGradient>
    <linearGradient id="heroPanel2026-02-" x1="0%" y1="0%" x2="100%" y2="100%">
      <stop offset="0%" stop-color="#0f172a" stop-opacity="0.96"/>
      <stop offset="100%" stop-color="#111827" stop-opacity="0.86"/>
    </linearGradient>
    <pattern id="microGrid2026-02-" x="0" y="0" width="36" height="36" patternUnits="userSpaceOnUse">
      <path d="M36 0H0V36" fill="none" stroke="#334155" stroke-width="1" opacity="0.25"/>
      <circle cx="18" cy="18" r="1.2" fill="#ef4444" opacity="0.18"/>
    </pattern>
    <filter id="sgBlur" x="-30%" y="-30%" width="160%" height="160%">
      <feGaussianBlur stdDeviation="36"/>
    </filter>
    <filter id="singleShadow" x="-30%" y="-30%" width="180%" height="180%">
      <feDropShadow dx="0" dy="14" stdDeviation="22" flood-color="#020617" flood-opacity="0.42"/>
    </filter>
    <marker id="sgArrow" viewBox="0 0 10 10" refX="8" refY="5" markerWidth="6" markerHeight="6" orient="auto">
      <path d="M0 0 L10 5 L0 10 z" fill="#38bdf8" opacity="0.85"/>
    </marker>
  </defs>
<rect width="1200" height="630" fill="url(#bgSpread2026-02-)"/>
<rect width="1200" height="630" fill="url(#microGrid2026-02-)"/>
<circle cx="202" cy="150" r="190" fill="#ef4444" opacity="0.08" filter="url(#sgBlur)"/>
  <circle cx="1020" cy="486" r="220" fill="#991b1b" opacity="0.08" filter="url(#sgBlur)"/>
  <circle cx="920" cy="160" r="140" fill="#38bdf8" opacity="0.05" filter="url(#sgBlur)"/>
  <path d="M0 96 C224 46 426 44 654 118 L654 630 L0 630 Z" fill="#020617" opacity="0.24"/>
  <path d="M0 526 C248 490 426 486 654 548" fill="none" stroke="#475569" stroke-width="1.2" opacity="0.22"/>
  <path d="M704 148 C792 118 892 122 980 176" fill="none" stroke="#38bdf8" stroke-width="1.3" opacity="0.24"/>
  <path d="M716 430 C804 462 914 458 1010 390" fill="none" stroke="#ef4444" stroke-width="1.2" opacity="0.22"/>
<rect x="720" y="132" width="388" height="292" rx="28" fill="url(#heroPanel2026-02-)" stroke="#ef4444" stroke-opacity="0.28" stroke-width="1.4" filter="url(#singleShadow)"/>
  <rect x="738" y="150" width="352" height="256" rx="22" fill="none" stroke="#334155" stroke-opacity="0.7" stroke-width="1"/>
  <rect x="742" y="152" width="108" height="12" rx="6" fill="#ef4444" opacity="0.28"/>
  <rect x="864" y="152" width="72" height="12" rx="6" fill="#334155" opacity="0.55"/>
  <rect x="948" y="152" width="48" height="12" rx="6" fill="#334155" opacity="0.35"/>
<g><rect x="742" y="156" width="6" height="6" fill="#ef4444" opacity="0.42"/><rect x="750" y="156" width="6" height="6" fill="#ef4444" opacity="0.42"/><rect x="758" y="156" width="6" height="6" fill="#ef4444" opacity="0.42"/><rect x="766" y="156" width="6" height="6" fill="#ef4444" opacity="0.42"/><rect x="782" y="156" width="6" height="6" fill="#ef4444" opacity="0.42"/><rect x="790" y="156" width="6" height="6" fill="#ef4444" opacity="0.42"/><rect x="798" y="156" width="6" height="6" fill="#ef4444" opacity="0.42"/><rect x="742" y="164" width="6" height="6" fill="#ef4444" opacity="0.42"/><rect x="774" y="164" width="6" height="6" fill="#ef4444" opacity="0.42"/><rect x="790" y="164" width="6" height="6" fill="#ef4444" opacity="0.42"/><rect x="798" y="164" width="6" height="6" fill="#ef4444" opacity="0.42"/><rect x="742" y="172" width="6" height="6" fill="#ef4444" opacity="0.42"/><rect x="758" y="172" width="6" height="6" fill="#ef4444" opacity="0.42"/><rect x="774" y="172" width="6" height="6" fill="#ef4444" opacity="0.42"/><rect x="790" y="172" width="6" height="6" fill="#ef4444" opacity="0.42"/><rect x="742" y="180" width="6" height="6" fill="#ef4444" opacity="0.42"/><rect x="774" y="180" width="6" height="6" fill="#ef4444" opacity="0.42"/><rect x="782" y="180" width="6" height="6" fill="#ef4444" opacity="0.42"/><rect x="790" y="180" width="6" height="6" fill="#ef4444" opacity="0.42"/><rect x="798" y="180" width="6" height="6" fill="#ef4444" opacity="0.42"/><rect x="742" y="188" width="6" height="6" fill="#ef4444" opacity="0.42"/><rect x="750" y="188" width="6" height="6" fill="#ef4444" opacity="0.42"/><rect x="758" y="188" width="6" height="6" fill="#ef4444" opacity="0.42"/><rect x="766" y="188" width="6" height="6" fill="#ef4444" opacity="0.42"/><rect x="790" y="188" width="6" height="6" fill="#ef4444" opacity="0.42"/><rect x="798" y="188" width="6" height="6" fill="#ef4444" opacity="0.42"/><rect x="758" y="196" width="6" height="6" fill="#ef4444" opacity="0.42"/><rect x="766" y="196" width="6" height="6" fill="#ef4444" opacity="0.42"/><rect x="774" y="196" width="6" height="6" fill="#ef4444" opacity="0.42"/><rect x="782" y="196" width="6" height="6" fill="#ef4444" opacity="0.42"/><rect x="790" y="196" width="6" height="6" fill="#ef4444" opacity="0.42"/><rect x="742" y="204" width="6" height="6" fill="#ef4444" opacity="0.42"/><rect x="750" y="204" width="6" height="6" fill="#ef4444" opacity="0.42"/><rect x="782" y="204" width="6" height="6" fill="#ef4444" opacity="0.42"/><rect x="790" y="204" width="6" height="6" fill="#ef4444" opacity="0.42"/><rect x="750" y="212" width="6" height="6" fill="#ef4444" opacity="0.42"/><rect x="758" y="212" width="6" height="6" fill="#ef4444" opacity="0.42"/><rect x="774" y="212" width="6" height="6" fill="#ef4444" opacity="0.42"/><rect x="790" y="212" width="6" height="6" fill="#ef4444" opacity="0.42"/><rect x="798" y="212" width="6" height="6" fill="#ef4444" opacity="0.42"/></g>
<circle cx="1010" cy="60" r="1.4" fill="#38bdf8" opacity="0.18"/>
  <circle cx="1024" cy="60" r="1.4" fill="#38bdf8" opacity="0.26"/>
  <circle cx="1038" cy="60" r="1.4" fill="#38bdf8" opacity="0.33999999999999997"/>
  <circle cx="1052" cy="60" r="1.4" fill="#38bdf8" opacity="0.18"/>
  <circle cx="1066" cy="60" r="1.4" fill="#38bdf8" opacity="0.26"/>
  <circle cx="1080" cy="60" r="1.4" fill="#38bdf8" opacity="0.33999999999999997"/>
  <circle cx="1094" cy="60" r="1.4" fill="#38bdf8" opacity="0.18"/>
  <circle cx="1108" cy="60" r="1.4" fill="#38bdf8" opacity="0.26"/>
  <circle cx="1010" cy="72" r="1.4" fill="#38bdf8" opacity="0.18"/>
  <circle cx="1024" cy="72" r="1.4" fill="#38bdf8" opacity="0.26"/>
  <circle cx="1038" cy="72" r="1.4" fill="#38bdf8" opacity="0.33999999999999997"/>
  <circle cx="1052" cy="72" r="1.4" fill="#38bdf8" opacity="0.18"/>
  <circle cx="1066" cy="72" r="1.4" fill="#38bdf8" opacity="0.26"/>
  <circle cx="1080" cy="72" r="1.4" fill="#38bdf8" opacity="0.33999999999999997"/>
  <circle cx="1094" cy="72" r="1.4" fill="#38bdf8" opacity="0.18"/>
  <circle cx="1108" cy="72" r="1.4" fill="#38bdf8" opacity="0.26"/>
  <circle cx="1010" cy="84" r="1.4" fill="#38bdf8" opacity="0.18"/>
  <circle cx="1024" cy="84" r="1.4" fill="#38bdf8" opacity="0.26"/>
  <circle cx="1038" cy="84" r="1.4" fill="#38bdf8" opacity="0.33999999999999997"/>
  <circle cx="1052" cy="84" r="1.4" fill="#38bdf8" opacity="0.18"/>
  <circle cx="1066" cy="84" r="1.4" fill="#38bdf8" opacity="0.26"/>
  <circle cx="1080" cy="84" r="1.4" fill="#38bdf8" opacity="0.33999999999999997"/>
  <circle cx="1094" cy="84" r="1.4" fill="#38bdf8" opacity="0.18"/>
  <circle cx="1108" cy="84" r="1.4" fill="#38bdf8" opacity="0.26"/>
  <circle cx="1010" cy="96" r="1.4" fill="#38bdf8" opacity="0.18"/>
  <circle cx="1024" cy="96" r="1.4" fill="#38bdf8" opacity="0.26"/>
  <circle cx="1038" cy="96" r="1.4" fill="#38bdf8" opacity="0.33999999999999997"/>
  <circle cx="1052" cy="96" r="1.4" fill="#38bdf8" opacity="0.18"/>
  <circle cx="1066" cy="96" r="1.4" fill="#38bdf8" opacity="0.26"/>
  <circle cx="1080" cy="96" r="1.4" fill="#38bdf8" opacity="0.33999999999999997"/>
  <circle cx="1094" cy="96" r="1.4" fill="#38bdf8" opacity="0.18"/>
  <circle cx="1108" cy="96" r="1.4" fill="#38bdf8" opacity="0.26"/>
  <circle cx="1010" cy="108" r="1.4" fill="#38bdf8" opacity="0.18"/>
  <circle cx="1024" cy="108" r="1.4" fill="#38bdf8" opacity="0.26"/>
  <circle cx="1038" cy="108" r="1.4" fill="#38bdf8" opacity="0.33999999999999997"/>
  <circle cx="1052" cy="108" r="1.4" fill="#38bdf8" opacity="0.18"/>
  <circle cx="1066" cy="108" r="1.4" fill="#38bdf8" opacity="0.26"/>
  <circle cx="1080" cy="108" r="1.4" fill="#38bdf8" opacity="0.33999999999999997"/>
  <circle cx="1094" cy="108" r="1.4" fill="#38bdf8" opacity="0.18"/>
  <circle cx="1108" cy="108" r="1.4" fill="#38bdf8" opacity="0.26"/>
  <circle cx="1010" cy="120" r="1.4" fill="#38bdf8" opacity="0.18"/>
  <circle cx="1024" cy="120" r="1.4" fill="#38bdf8" opacity="0.26"/>
  <circle cx="1038" cy="120" r="1.4" fill="#38bdf8" opacity="0.33999999999999997"/>
  <circle cx="1052" cy="120" r="1.4" fill="#38bdf8" opacity="0.18"/>
  <circle cx="1066" cy="120" r="1.4" fill="#38bdf8" opacity="0.26"/>
  <circle cx="1080" cy="120" r="1.4" fill="#38bdf8" opacity="0.33999999999999997"/>
  <circle cx="1094" cy="120" r="1.4" fill="#38bdf8" opacity="0.18"/>
  <circle cx="1108" cy="120" r="1.4" fill="#38bdf8" opacity="0.26"/>
<text x="740" y="162" font-family="Arial,sans-serif" font-size="9" font-weight="700" fill="#38bdf8" text-anchor="middle" opacity="0.55">01</text>
  <text x="1090" y="162" font-family="Arial,sans-serif" font-size="9" font-weight="700" fill="#38bdf8" text-anchor="middle" opacity="0.55">02</text>
  <text x="740" y="412" font-family="Arial,sans-serif" font-size="9" font-weight="700" fill="#38bdf8" text-anchor="middle" opacity="0.55">03</text>
  <text x="1090" y="412" font-family="Arial,sans-serif" font-size="9" font-weight="700" fill="#38bdf8" text-anchor="middle" opacity="0.55">04</text>
<text x="740" y="178" font-family="Arial,sans-serif" font-size="9" font-weight="700" fill="#94a3b8" opacity="0.7">STATUS</text>
  <text x="816" y="178" font-family="Arial,sans-serif" font-size="9" font-weight="700" fill="#94a3b8" opacity="0.7">OK</text>
  <text x="864" y="178" font-family="Arial,sans-serif" font-size="9" font-weight="700" fill="#94a3b8" opacity="0.7">VER</text>
  <text x="910" y="178" font-family="Arial,sans-serif" font-size="9" font-weight="700" fill="#94a3b8" opacity="0.7">v1.0</text>
  <text x="962" y="178" font-family="Arial,sans-serif" font-size="9" font-weight="700" fill="#94a3b8" opacity="0.7">BUILD</text>
  <text x="1024" y="178" font-family="Arial,sans-serif" font-size="9" font-weight="700" fill="#94a3b8" opacity="0.7">STAB</text>
<text x="40" y="380" font-family="Arial,sans-serif" font-size="8" font-weight="700" fill="#475569" opacity="0.7" text-anchor="middle">00</text>
  <text x="40" y="410" font-family="Arial,sans-serif" font-size="8" font-weight="700" fill="#475569" opacity="0.7" text-anchor="middle">01</text>
  <text x="40" y="440" font-family="Arial,sans-serif" font-size="8" font-weight="700" fill="#475569" opacity="0.7" text-anchor="middle">02</text>
  <text x="40" y="470" font-family="Arial,sans-serif" font-size="8" font-weight="700" fill="#475569" opacity="0.7" text-anchor="middle">03</text>
  <text x="40" y="500" font-family="Arial,sans-serif" font-size="8" font-weight="700" fill="#475569" opacity="0.7" text-anchor="middle">04</text>
  <text x="1160" y="380" font-family="Arial,sans-serif" font-size="8" font-weight="700" fill="#475569" opacity="0.7" text-anchor="middle">OK</text>
  <text x="1160" y="410" font-family="Arial,sans-serif" font-size="8" font-weight="700" fill="#475569" opacity="0.7" text-anchor="middle">RUN</text>
  <text x="1160" y="440" font-family="Arial,sans-serif" font-size="8" font-weight="700" fill="#475569" opacity="0.7" text-anchor="middle">OK</text>
  <text x="1160" y="470" font-family="Arial,sans-serif" font-size="8" font-weight="700" fill="#475569" opacity="0.7" text-anchor="middle">RUN</text>

<g transform="translate(914,278)" filter="url(#singleShadow)">
    <circle r="124" fill="none" stroke="#ef4444" stroke-opacity="0.18" stroke-width="1.2" stroke-dasharray="8 8"/>
    <rect x="-110" y="-72" width="220" height="162" rx="14" fill="#0f172a" stroke="#ef4444" stroke-width="2.2" opacity="0.94"/>
    <rect x="-104" y="-66" width="208" height="22" rx="6" fill="#ef4444" fill-opacity="0.22" stroke="#ef4444" stroke-width="1.2"/>
    <text x="-88" y="-51" font-family="Arial,sans-serif" font-size="10" font-weight="900" fill="#f8fafc" opacity="0.95">MONTHLY RECAP</text>
    <rect x="66" y="-66" width="38" height="22" rx="6" fill="#ef4444" fill-opacity="0.55"/>
    <text x="85" y="-51" text-anchor="middle" font-family="Arial,sans-serif" font-size="9" font-weight="900" fill="#0f172a">28</text>
    <rect x="-96" y="-8" width="24" height="16" rx="3" fill="#ef4444" opacity="0.90"/><text x="-84" y="4" text-anchor="middle" font-family="Arial,sans-serif" font-size="7" font-weight="700" fill="#f8fafc" opacity="0.9">5</text><rect x="-68" y="-8" width="24" height="16" rx="3" fill="#ef4444" opacity="0.70"/><text x="-56" y="4" text-anchor="middle" font-family="Arial,sans-serif" font-size="7" font-weight="700" fill="#f8fafc" opacity="0.9">3</text><rect x="-40" y="-8" width="24" height="16" rx="3" fill="#ef4444" opacity="0.80"/><text x="-28" y="4" text-anchor="middle" font-family="Arial,sans-serif" font-size="7" font-weight="700" fill="#f8fafc" opacity="0.9">4</text><rect x="-12" y="-8" width="24" height="16" rx="3" fill="#ef4444" opacity="0.90"/><text x="0" y="4" text-anchor="middle" font-family="Arial,sans-serif" font-size="7" font-weight="700" fill="#f8fafc" opacity="0.9">5</text><rect x="16" y="-8" width="24" height="16" rx="3" fill="#ef4444" opacity="0.60"/><text x="28" y="4" text-anchor="middle" font-family="Arial,sans-serif" font-size="7" font-weight="700" fill="#f8fafc" opacity="0.9">2</text><rect x="44" y="-8" width="24" height="16" rx="3" fill="#ef4444" opacity="0.80"/><text x="56" y="4" text-anchor="middle" font-family="Arial,sans-serif" font-size="7" font-weight="700" fill="#f8fafc" opacity="0.9">4</text><rect x="72" y="-8" width="24" height="16" rx="3" fill="#ef4444" opacity="0.70"/><text x="84" y="4" text-anchor="middle" font-family="Arial,sans-serif" font-size="7" font-weight="700" fill="#f8fafc" opacity="0.9">3</text><rect x="-96" y="12" width="24" height="16" rx="3" fill="#ef4444" opacity="0.80"/><text x="-84" y="24" text-anchor="middle" font-family="Arial,sans-serif" font-size="7" font-weight="700" fill="#f8fafc" opacity="0.9">4</text><rect x="-68" y="12" width="24" height="16" rx="3" fill="#ef4444" opacity="0.90"/><text x="-56" y="24" text-anchor="middle" font-family="Arial,sans-serif" font-size="7" font-weight="700" fill="#f8fafc" opacity="0.9">5</text><rect x="-40" y="12" width="24" height="16" rx="3" fill="#ef4444" opacity="0.70"/><text x="-28" y="24" text-anchor="middle" font-family="Arial,sans-serif" font-size="7" font-weight="700" fill="#f8fafc" opacity="0.9">3</text><rect x="-12" y="12" width="24" height="16" rx="3" fill="#ef4444" opacity="0.80"/><text x="0" y="24" text-anchor="middle" font-family="Arial,sans-serif" font-size="7" font-weight="700" fill="#f8fafc" opacity="0.9">4</text><rect x="16" y="12" width="24" height="16" rx="3" fill="#ef4444" opacity="0.70"/><text x="28" y="24" text-anchor="middle" font-family="Arial,sans-serif" font-size="7" font-weight="700" fill="#f8fafc" opacity="0.9">3</text><rect x="44" y="12" width="24" height="16" rx="3" fill="#ef4444" opacity="0.90"/><text x="56" y="24" text-anchor="middle" font-family="Arial,sans-serif" font-size="7" font-weight="700" fill="#f8fafc" opacity="0.9">5</text><rect x="72" y="12" width="24" height="16" rx="3" fill="#ef4444" opacity="0.60"/><text x="84" y="24" text-anchor="middle" font-family="Arial,sans-serif" font-size="7" font-weight="700" fill="#f8fafc" opacity="0.9">2</text><rect x="-96" y="32" width="24" height="16" rx="3" fill="#ef4444" opacity="0.70"/><text x="-84" y="44" text-anchor="middle" font-family="Arial,sans-serif" font-size="7" font-weight="700" fill="#f8fafc" opacity="0.9">3</text><rect x="-68" y="32" width="24" height="16" rx="3" fill="#ef4444" opacity="0.80"/><text x="-56" y="44" text-anchor="middle" font-family="Arial,sans-serif" font-size="7" font-weight="700" fill="#f8fafc" opacity="0.9">4</text><rect x="-40" y="32" width="24" height="16" rx="3" fill="#ef4444" opacity="0.90"/><text x="-28" y="44" text-anchor="middle" font-family="Arial,sans-serif" font-size="7" font-weight="700" fill="#f8fafc" opacity="0.9">5</text><rect x="-12" y="32" width="24" height="16" rx="3" fill="#ef4444" opacity="0.60"/><text x="0" y="44" text-anchor="middle" font-family="Arial,sans-serif" font-size="7" font-weight="700" fill="#f8fafc" opacity="0.9">2</text><rect x="16" y="32" width="24" height="16" rx="3" fill="#ef4444" opacity="0.80"/><text x="28" y="44" text-anchor="middle" font-family="Arial,sans-serif" font-size="7" font-weight="700" fill="#f8fafc" opacity="0.9">4</text><rect x="44" y="32" width="24" height="16" rx="3" fill="#ef4444" opacity="0.70"/><text x="56" y="44" text-anchor="middle" font-family="Arial,sans-serif" font-size="7" font-weight="700" fill="#f8fafc" opacity="0.9">3</text><rect x="72" y="32" width="24" height="16" rx="3" fill="#ef4444" opacity="0.90"/><text x="84" y="44" text-anchor="middle" font-family="Arial,sans-serif" font-size="7" font-weight="700" fill="#f8fafc" opacity="0.9">5</text><rect x="-96" y="52" width="24" height="16" rx="3" fill="#ef4444" opacity="0.90"/><text x="-84" y="64" text-anchor="middle" font-family="Arial,sans-serif" font-size="7" font-weight="700" fill="#f8fafc" opacity="0.9">5</text><rect x="-68" y="52" width="24" height="16" rx="3" fill="#ef4444" opacity="0.70"/><text x="-56" y="64" text-anchor="middle" font-family="Arial,sans-serif" font-size="7" font-weight="700" fill="#f8fafc" opacity="0.9">3</text><rect x="-40" y="52" width="24" height="16" rx="3" fill="#ef4444" opacity="0.80"/><text x="-28" y="64" text-anchor="middle" font-family="Arial,sans-serif" font-size="7" font-weight="700" fill="#f8fafc" opacity="0.9">4</text><rect x="-12" y="52" width="24" height="16" rx="3" fill="#ef4444" opacity="0.70"/><text x="0" y="64" text-anchor="middle" font-family="Arial,sans-serif" font-size="7" font-weight="700" fill="#f8fafc" opacity="0.9">3</text><rect x="16" y="52" width="24" height="16" rx="3" fill="#ef4444" opacity="0.90"/><text x="28" y="64" text-anchor="middle" font-family="Arial,sans-serif" font-size="7" font-weight="700" fill="#f8fafc" opacity="0.9">5</text><rect x="44" y="52" width="24" height="16" rx="3" fill="#ef4444" opacity="0.80"/><text x="56" y="64" text-anchor="middle" font-family="Arial,sans-serif" font-size="7" font-weight="700" fill="#f8fafc" opacity="0.9">4</text><rect x="72" y="52" width="24" height="16" rx="3" fill="#ef4444" opacity="0.70"/><text x="84" y="64" text-anchor="middle" font-family="Arial,sans-serif" font-size="7" font-weight="700" fill="#f8fafc" opacity="0.9">3</text>
    <text y="100" text-anchor="middle" font-family="Arial,sans-serif" font-size="11" font-weight="700" fill="#ef4444" opacity="0.85">ROLLUP INDEX</text>
    <text y="116" text-anchor="middle" font-family="Arial,sans-serif" font-size="10" fill="#38bdf8" opacity="0.7">4 weeks : 28 posts</text>
  </g>
<g transform="translate(84 66)">
    <rect width="160" height="36" rx="18" fill="#ef4444" opacity="0.22" stroke="#ef4444" stroke-width="1.2"/>
    <text x="80" y="23" font-family="Arial,sans-serif" font-size="13" font-weight="700" fill="#ef4444" text-anchor="middle">SECURITY</text>
  </g>
<text x="84" y="170" font-family="Arial,sans-serif" font-size="36" font-weight="700" fill="#f8fafc" letter-spacing="0.5">FEBRUARY 2026</text>
  <text x="84" y="214" font-family="Arial,sans-serif" font-size="36" font-weight="700" fill="#dbeafe" letter-spacing="0.5">SECURITY DIGEST MONTHLY INDEX</text>
<text x="84" y="270" font-family="Arial,sans-serif" font-size="18" fill="#cbd5e1">SECURITY / MONTHLY / INDEX</text>
  <rect x="84" y="296" width="520" height="1.5" fill="#334155" opacity="0.9"/>
  <text x="84" y="326" font-family="Arial,sans-serif" font-size="14" font-weight="700" fill="#94a3b8">VISUAL SYSTEM F33BA63D4B68</text>
  <text x="84" y="354" font-family="Arial,sans-serif" font-size="14" fill="#94a3b8">February 2026 security digest monthly index</text>
<g transform="translate(84 474)">
    <rect width="120" height="38" rx="19" fill="#ef4444" fill-opacity="0.16" stroke="#ef4444" stroke-width="1.2"/>
    <text x="60" y="24" font-family="Arial,sans-serif" font-size="13" font-weight="700" fill="#e2e8f0" text-anchor="middle">SECURITY</text>
  </g>
  <g transform="translate(218 474)">
    <rect width="110" height="38" rx="19" fill="#ef4444" fill-opacity="0.16" stroke="#ef4444" stroke-width="1.2"/>
    <text x="55" y="24" font-family="Arial,sans-serif" font-size="13" font-weight="700" fill="#e2e8f0" text-anchor="middle">MONTHLY</text>
  </g>
  <g transform="translate(342 474)">
    <rect width="110" height="38" rx="19" fill="#ef4444" fill-opacity="0.16" stroke="#ef4444" stroke-width="1.2"/>
    <text x="55" y="24" font-family="Arial,sans-serif" font-size="13" font-weight="700" fill="#e2e8f0" text-anchor="middle">INDEX</text>
  </g>
<g transform="translate(84 536)">
    <rect width="144" height="58" rx="16" fill="#111827" fill-opacity="0.78" stroke="#ef4444" stroke-opacity="0.4" stroke-width="1.2"/>
    <text x="18" y="24" font-family="Arial,sans-serif" font-size="11" font-weight="700" fill="#94a3b8">CATEGORY</text>
    <text x="18" y="43" font-family="Arial,sans-serif" font-size="16" font-weight="700" fill="#f8fafc">SECURITY</text>
  </g>
  <g transform="translate(246 536)">
    <rect width="144" height="58" rx="16" fill="#111827" fill-opacity="0.78" stroke="#ef4444" stroke-opacity="0.4" stroke-width="1.2"/>
    <text x="18" y="24" font-family="Arial,sans-serif" font-size="11" font-weight="700" fill="#94a3b8">SIGNALS</text>
    <text x="18" y="43" font-family="Arial,sans-serif" font-size="16" font-weight="700" fill="#f8fafc">06</text>
  </g>
  <g transform="translate(408 536)">
    <rect width="144" height="58" rx="16" fill="#111827" fill-opacity="0.78" stroke="#ef4444" stroke-opacity="0.4" stroke-width="1.2"/>
    <text x="18" y="24" font-family="Arial,sans-serif" font-size="11" font-weight="700" fill="#94a3b8">TAGS</text>
    <text x="18" y="43" font-family="Arial,sans-serif" font-size="16" font-weight="700" fill="#f8fafc">03</text>
  </g>
<g transform="translate(1030 74)">
    <rect width="130" height="34" rx="17" fill="#991b1b" opacity="0.22" stroke="#ef4444" stroke-width="1.2"/>
    <text x="65" y="22" font-family="Arial,sans-serif" font-size="12" font-weight="700" fill="#e2e8f0" text-anchor="middle">February 28, 2026</text>
  </g>
<line x1="50" y1="588" x2="1150" y2="588" stroke="#334155" stroke-width="1" opacity="0.5"/>
  <text x="1150" y="612" font-family="Arial,sans-serif" font-size="13" fill="#94a3b8" text-anchor="end">tech.2twodragon.com</text>
<g transform="translate(1080,504)" filter="url(#softShadow)">
  <rect x="-8" y="-8" width="100" height="100" rx="6" fill="#FFFFFF"/>
  <path fill="#0A1020" d="M0.0 0.0h14.341v2.049h-14.341z M30.732 0.0h2.049v2.049h-2.049z M36.878 0.0h2.049v2.049h-2.049z M43.024 0.0h2.049v2.049h-2.049z M53.268 0.0h2.049v2.049h-2.049z M57.366 0.0h2.049v2.049h-2.049z M69.659 0.0h14.341v2.049h-14.341z M0.0 2.049h2.049v2.049h-2.049z M12.293 2.049h2.049v2.049h-2.049z M16.39 2.049h2.049v2.049h-2.049z M20.488 2.049h2.049v2.049h-2.049z M24.585 2.049h2.049v2.049h-2.049z M34.829 2.049h2.049v2.049h-2.049z M40.976 2.049h2.049v2.049h-2.049z M51.22 2.049h4.098v2.049h-4.098z M57.366 2.049h4.098v2.049h-4.098z M65.561 2.049h2.049v2.049h-2.049z M69.659 2.049h2.049v2.049h-2.049z M81.951 2.049h2.049v2.049h-2.049z M0.0 4.098h2.049v2.049h-2.049z M4.098 4.098h6.146v2.049h-6.146z M12.293 4.098h2.049v2.049h-2.049z M16.39 4.098h2.049v2.049h-2.049z M24.585 4.098h2.049v2.049h-2.049z M30.732 4.098h16.39v2.049h-16.39z M51.22 4.098h2.049v2.049h-2.049z M55.317 4.098h2.049v2.049h-2.049z M63.512 4.098h2.049v2.049h-2.049z M69.659 4.098h2.049v2.049h-2.049z M73.756 4.098h6.146v2.049h-6.146z M81.951 4.098h2.049v2.049h-2.049z M0.0 6.146h2.049v2.049h-2.049z M4.098 6.146h6.146v2.049h-6.146z M12.293 6.146h2.049v2.049h-2.049z M16.39 6.146h2.049v2.049h-2.049z M20.488 6.146h8.195v2.049h-8.195z M32.78 6.146h2.049v2.049h-2.049z M38.927 6.146h4.098v2.049h-4.098z M45.073 6.146h2.049v2.049h-2.049z M49.171 6.146h2.049v2.049h-2.049z M55.317 6.146h2.049v2.049h-2.049z M61.463 6.146h2.049v2.049h-2.049z M69.659 6.146h2.049v2.049h-2.049z M73.756 6.146h6.146v2.049h-6.146z M81.951 6.146h2.049v2.049h-2.049z M0.0 8.195h2.049v2.049h-2.049z M4.098 8.195h6.146v2.049h-6.146z M12.293 8.195h2.049v2.049h-2.049z M18.439 8.195h2.049v2.049h-2.049z M26.634 8.195h20.488v2.049h-20.488z M61.463 8.195h4.098v2.049h-4.098z M69.659 8.195h2.049v2.049h-2.049z M73.756 8.195h6.146v2.049h-6.146z M81.951 8.195h2.049v2.049h-2.049z M0.0 10.244h2.049v2.049h-2.049z M12.293 10.244h2.049v2.049h-2.049z M20.488 10.244h4.098v2.049h-4.098z M26.634 10.244h2.049v2.049h-2.049z M32.78 10.244h4.098v2.049h-4.098z M40.976 10.244h4.098v2.049h-4.098z M51.22 10.244h2.049v2.049h-2.049z M69.659 10.244h2.049v2.049h-2.049z M81.951 10.244h2.049v2.049h-2.049z M0.0 12.293h14.341v2.049h-14.341z M16.39 12.293h2.049v2.049h-2.049z M20.488 12.293h2.049v2.049h-2.049z M24.585 12.293h2.049v2.049h-2.049z M28.683 12.293h2.049v2.049h-2.049z M32.78 12.293h2.049v2.049h-2.049z M36.878 12.293h2.049v2.049h-2.049z M40.976 12.293h2.049v2.049h-2.049z M45.073 12.293h2.049v2.049h-2.049z M49.171 12.293h2.049v2.049h-2.049z M53.268 12.293h2.049v2.049h-2.049z M57.366 12.293h2.049v2.049h-2.049z M61.463 12.293h2.049v2.049h-2.049z M65.561 12.293h2.049v2.049h-2.049z M69.659 12.293h14.341v2.049h-14.341z M16.39 14.341h4.098v2.049h-4.098z M24.585 14.341h4.098v2.049h-4.098z M30.732 14.341h4.098v2.049h-4.098z M36.878 14.341h2.049v2.049h-2.049z M40.976 14.341h2.049v2.049h-2.049z M47.122 14.341h2.049v2.049h-2.049z M61.463 14.341h4.098v2.049h-4.098z M0.0 16.39h2.049v2.049h-2.049z M12.293 16.39h2.049v2.049h-2.049z M16.39 16.39h2.049v2.049h-2.049z M22.537 16.39h2.049v2.049h-2.049z M26.634 16.39h2.049v2.049h-2.049z M30.732 16.39h6.146v2.049h-6.146z M45.073 16.39h4.098v2.049h-4.098z M51.22 16.39h10.244v2.049h-10.244z M65.561 16.39h6.146v2.049h-6.146z M75.805 16.39h6.146v2.049h-6.146z M2.049 18.439h4.098v2.049h-4.098z M10.244 18.439h2.049v2.049h-2.049z M18.439 18.439h4.098v2.049h-4.098z M24.585 18.439h8.195v2.049h-8.195z M36.878 18.439h6.146v2.049h-6.146z M45.073 18.439h4.098v2.049h-4.098z M55.317 18.439h4.098v2.049h-4.098z M61.463 18.439h4.098v2.049h-4.098z M73.756 18.439h2.049v2.049h-2.049z M79.902 18.439h2.049v2.049h-2.049z M4.098 20.488h10.244v2.049h-10.244z M16.39 20.488h2.049v2.049h-2.049z M22.537 20.488h2.049v2.049h-2.049z M26.634 20.488h4.098v2.049h-4.098z M32.78 20.488h2.049v2.049h-2.049z M36.878 20.488h2.049v2.049h-2.049z M45.073 20.488h2.049v2.049h-2.049z M49.171 20.488h4.098v2.049h-4.098z M55.317 20.488h2.049v2.049h-2.049z M61.463 20.488h2.049v2.049h-2.049z M65.561 20.488h2.049v2.049h-2.049z M69.659 20.488h2.049v2.049h-2.049z M0.0 22.537h4.098v2.049h-4.098z M6.146 22.537h6.146v2.049h-6.146z M14.341 22.537h4.098v2.049h-4.098z M20.488 22.537h4.098v2.049h-4.098z M26.634 22.537h4.098v2.049h-4.098z M38.927 22.537h4.098v2.049h-4.098z M55.317 22.537h4.098v2.049h-4.098z M61.463 22.537h6.146v2.049h-6.146z M69.659 22.537h8.195v2.049h-8.195z M0.0 24.585h4.098v2.049h-4.098z M12.293 24.585h6.146v2.049h-6.146z M22.537 24.585h2.049v2.049h-2.049z M28.683 24.585h2.049v2.049h-2.049z M47.122 24.585h4.098v2.049h-4.098z M53.268 24.585h2.049v2.049h-2.049z M61.463 24.585h2.049v2.049h-2.049z M65.561 24.585h2.049v2.049h-2.049z M69.659 24.585h2.049v2.049h-2.049z M0.0 26.634h2.049v2.049h-2.049z M4.098 26.634h2.049v2.049h-2.049z M10.244 26.634h2.049v2.049h-2.049z M16.39 26.634h6.146v2.049h-6.146z M26.634 26.634h2.049v2.049h-2.049z M30.732 26.634h6.146v2.049h-6.146z M51.22 26.634h2.049v2.049h-2.049z M63.512 26.634h2.049v2.049h-2.049z M69.659 26.634h14.341v2.049h-14.341z M0.0 28.683h2.049v2.049h-2.049z M4.098 28.683h2.049v2.049h-2.049z M10.244 28.683h8.195v2.049h-8.195z M20.488 28.683h2.049v2.049h-2.049z M24.585 28.683h2.049v2.049h-2.049z M28.683 28.683h2.049v2.049h-2.049z M32.78 28.683h4.098v2.049h-4.098z M40.976 28.683h2.049v2.049h-2.049z M47.122 28.683h4.098v2.049h-4.098z M53.268 28.683h6.146v2.049h-6.146z M67.61 28.683h2.049v2.049h-2.049z M71.707 28.683h2.049v2.049h-2.049z M75.805 28.683h6.146v2.049h-6.146z M0.0 30.732h4.098v2.049h-4.098z M8.195 30.732h4.098v2.049h-4.098z M14.341 30.732h2.049v2.049h-2.049z M18.439 30.732h2.049v2.049h-2.049z M22.537 30.732h2.049v2.049h-2.049z M26.634 30.732h2.049v2.049h-2.049z M30.732 30.732h2.049v2.049h-2.049z M36.878 30.732h2.049v2.049h-2.049z M40.976 30.732h2.049v2.049h-2.049z M47.122 30.732h2.049v2.049h-2.049z M57.366 30.732h2.049v2.049h-2.049z M65.561 30.732h4.098v2.049h-4.098z M73.756 30.732h10.244v2.049h-10.244z M2.049 32.78h6.146v2.049h-6.146z M10.244 32.78h6.146v2.049h-6.146z M18.439 32.78h2.049v2.049h-2.049z M22.537 32.78h2.049v2.049h-2.049z M26.634 32.78h2.049v2.049h-2.049z M30.732 32.78h6.146v2.049h-6.146z M45.073 32.78h6.146v2.049h-6.146z M53.268 32.78h8.195v2.049h-8.195z M63.512 32.78h2.049v2.049h-2.049z M67.61 32.78h2.049v2.049h-2.049z M71.707 32.78h2.049v2.049h-2.049z M75.805 32.78h4.098v2.049h-4.098z M81.951 32.78h2.049v2.049h-2.049z M0.0 34.829h12.293v2.049h-12.293z M14.341 34.829h4.098v2.049h-4.098z M24.585 34.829h4.098v2.049h-4.098z M38.927 34.829h10.244v2.049h-10.244z M55.317 34.829h6.146v2.049h-6.146z M63.512 34.829h12.293v2.049h-12.293z M81.951 34.829h2.049v2.049h-2.049z M12.293 36.878h4.098v2.049h-4.098z M18.439 36.878h8.195v2.049h-8.195z M28.683 36.878h2.049v2.049h-2.049z M32.78 36.878h8.195v2.049h-8.195z M47.122 36.878h2.049v2.049h-2.049z M51.22 36.878h8.195v2.049h-8.195z M63.512 36.878h2.049v2.049h-2.049z M69.659 36.878h8.195v2.049h-8.195z M79.902 36.878h4.098v2.049h-4.098z M0.0 38.927h4.098v2.049h-4.098z M8.195 38.927h2.049v2.049h-2.049z M14.341 38.927h2.049v2.049h-2.049z M18.439 38.927h2.049v2.049h-2.049z M22.537 38.927h2.049v2.049h-2.049z M28.683 38.927h4.098v2.049h-4.098z M40.976 38.927h4.098v2.049h-4.098z M47.122 38.927h2.049v2.049h-2.049z M53.268 38.927h2.049v2.049h-2.049z M57.366 38.927h6.146v2.049h-6.146z M65.561 38.927h2.049v2.049h-2.049z M73.756 38.927h2.049v2.049h-2.049z M79.902 38.927h2.049v2.049h-2.049z M0.0 40.976h4.098v2.049h-4.098z M6.146 40.976h8.195v2.049h-8.195z M26.634 40.976h2.049v2.049h-2.049z M36.878 40.976h10.244v2.049h-10.244z M49.171 40.976h2.049v2.049h-2.049z M55.317 40.976h4.098v2.049h-4.098z M65.561 40.976h2.049v2.049h-2.049z M75.805 40.976h4.098v2.049h-4.098z M81.951 40.976h2.049v2.049h-2.049z M6.146 43.024h2.049v2.049h-2.049z M18.439 43.024h12.293v2.049h-12.293z M32.78 43.024h2.049v2.049h-2.049z M38.927 43.024h2.049v2.049h-2.049z M45.073 43.024h6.146v2.049h-6.146z M55.317 43.024h4.098v2.049h-4.098z M61.463 43.024h8.195v2.049h-8.195z M71.707 43.024h4.098v2.049h-4.098z M4.098 45.073h16.39v2.049h-16.39z M22.537 45.073h4.098v2.049h-4.098z M34.829 45.073h4.098v2.049h-4.098z M43.024 45.073h2.049v2.049h-2.049z M49.171 45.073h2.049v2.049h-2.049z M53.268 45.073h6.146v2.049h-6.146z M65.561 45.073h2.049v2.049h-2.049z M69.659 45.073h8.195v2.049h-8.195z M0.0 47.122h4.098v2.049h-4.098z M8.195 47.122h4.098v2.049h-4.098z M22.537 47.122h4.098v2.049h-4.098z M32.78 47.122h2.049v2.049h-2.049z M38.927 47.122h2.049v2.049h-2.049z M45.073 47.122h2.049v2.049h-2.049z M49.171 47.122h2.049v2.049h-2.049z M55.317 47.122h4.098v2.049h-4.098z M63.512 47.122h6.146v2.049h-6.146z M79.902 47.122h2.049v2.049h-2.049z M4.098 49.171h4.098v2.049h-4.098z M10.244 49.171h4.098v2.049h-4.098z M18.439 49.171h2.049v2.049h-2.049z M22.537 49.171h2.049v2.049h-2.049z M26.634 49.171h4.098v2.049h-4.098z M38.927 49.171h4.098v2.049h-4.098z M49.171 49.171h2.049v2.049h-2.049z M57.366 49.171h2.049v2.049h-2.049z M65.561 49.171h2.049v2.049h-2.049z M69.659 49.171h2.049v2.049h-2.049z M75.805 49.171h2.049v2.049h-2.049z M79.902 49.171h2.049v2.049h-2.049z M2.049 51.22h2.049v2.049h-2.049z M6.146 51.22h2.049v2.049h-2.049z M10.244 51.22h2.049v2.049h-2.049z M16.39 51.22h2.049v2.049h-2.049z M20.488 51.22h2.049v2.049h-2.049z M28.683 51.22h2.049v2.049h-2.049z M36.878 51.22h6.146v2.049h-6.146z M47.122 51.22h2.049v2.049h-2.049z M51.22 51.22h6.146v2.049h-6.146z M61.463 51.22h4.098v2.049h-4.098z M67.61 51.22h2.049v2.049h-2.049z M73.756 51.22h4.098v2.049h-4.098z M81.951 51.22h2.049v2.049h-2.049z M6.146 53.268h2.049v2.049h-2.049z M10.244 53.268h4.098v2.049h-4.098z M20.488 53.268h4.098v2.049h-4.098z M28.683 53.268h4.098v2.049h-4.098z M34.829 53.268h4.098v2.049h-4.098z M40.976 53.268h6.146v2.049h-6.146z M51.22 53.268h6.146v2.049h-6.146z M59.415 53.268h4.098v2.049h-4.098z M65.561 53.268h2.049v2.049h-2.049z M0.0 55.317h2.049v2.049h-2.049z M4.098 55.317h2.049v2.049h-2.049z M8.195 55.317h4.098v2.049h-4.098z M14.341 55.317h2.049v2.049h-2.049z M18.439 55.317h4.098v2.049h-4.098z M24.585 55.317h2.049v2.049h-2.049z M36.878 55.317h4.098v2.049h-4.098z M47.122 55.317h2.049v2.049h-2.049z M57.366 55.317h2.049v2.049h-2.049z M61.463 55.317h4.098v2.049h-4.098z M69.659 55.317h2.049v2.049h-2.049z M73.756 55.317h6.146v2.049h-6.146z M81.951 55.317h2.049v2.049h-2.049z M0.0 57.366h2.049v2.049h-2.049z M4.098 57.366h4.098v2.049h-4.098z M10.244 57.366h4.098v2.049h-4.098z M16.39 57.366h2.049v2.049h-2.049z M20.488 57.366h2.049v2.049h-2.049z M26.634 57.366h2.049v2.049h-2.049z M32.78 57.366h4.098v2.049h-4.098z M38.927 57.366h2.049v2.049h-2.049z M45.073 57.366h4.098v2.049h-4.098z M51.22 57.366h2.049v2.049h-2.049z M59.415 57.366h8.195v2.049h-8.195z M71.707 57.366h2.049v2.049h-2.049z M75.805 57.366h8.195v2.049h-8.195z M0.0 59.415h4.098v2.049h-4.098z M10.244 59.415h2.049v2.049h-2.049z M16.39 59.415h8.195v2.049h-8.195z M32.78 59.415h2.049v2.049h-2.049z M40.976 59.415h2.049v2.049h-2.049z M49.171 59.415h2.049v2.049h-2.049z M53.268 59.415h2.049v2.049h-2.049z M57.366 59.415h2.049v2.049h-2.049z M63.512 59.415h4.098v2.049h-4.098z M69.659 59.415h6.146v2.049h-6.146z M81.951 59.415h2.049v2.049h-2.049z M0.0 61.463h4.098v2.049h-4.098z M6.146 61.463h4.098v2.049h-4.098z M12.293 61.463h4.098v2.049h-4.098z M20.488 61.463h2.049v2.049h-2.049z M24.585 61.463h2.049v2.049h-2.049z M30.732 61.463h6.146v2.049h-6.146z M40.976 61.463h4.098v2.049h-4.098z M47.122 61.463h2.049v2.049h-2.049z M51.22 61.463h2.049v2.049h-2.049z M57.366 61.463h2.049v2.049h-2.049z M61.463 61.463h4.098v2.049h-4.098z M67.61 61.463h2.049v2.049h-2.049z M75.805 61.463h8.195v2.049h-8.195z M0.0 63.512h2.049v2.049h-2.049z M6.146 63.512h2.049v2.049h-2.049z M10.244 63.512h2.049v2.049h-2.049z M14.341 63.512h2.049v2.049h-2.049z M26.634 63.512h2.049v2.049h-2.049z M32.78 63.512h2.049v2.049h-2.049z M36.878 63.512h6.146v2.049h-6.146z M49.171 63.512h2.049v2.049h-2.049z M55.317 63.512h4.098v2.049h-4.098z M61.463 63.512h2.049v2.049h-2.049z M65.561 63.512h2.049v2.049h-2.049z M69.659 63.512h4.098v2.049h-4.098z M75.805 63.512h2.049v2.049h-2.049z M79.902 63.512h2.049v2.049h-2.049z M0.0 65.561h2.049v2.049h-2.049z M4.098 65.561h6.146v2.049h-6.146z M12.293 65.561h4.098v2.049h-4.098z M18.439 65.561h2.049v2.049h-2.049z M22.537 65.561h2.049v2.049h-2.049z M32.78 65.561h4.098v2.049h-4.098z M38.927 65.561h2.049v2.049h-2.049z M49.171 65.561h6.146v2.049h-6.146z M57.366 65.561h4.098v2.049h-4.098z M65.561 65.561h10.244v2.049h-10.244z M77.854 65.561h6.146v2.049h-6.146z M16.39 67.61h2.049v2.049h-2.049z M20.488 67.61h4.098v2.049h-4.098z M26.634 67.61h2.049v2.049h-2.049z M30.732 67.61h8.195v2.049h-8.195z M45.073 67.61h4.098v2.049h-4.098z M51.22 67.61h6.146v2.049h-6.146z M61.463 67.61h2.049v2.049h-2.049z M65.561 67.61h2.049v2.049h-2.049z M73.756 67.61h2.049v2.049h-2.049z M77.854 67.61h2.049v2.049h-2.049z M0.0 69.659h14.341v2.049h-14.341z M24.585 69.659h2.049v2.049h-2.049z M30.732 69.659h2.049v2.049h-2.049z M34.829 69.659h2.049v2.049h-2.049z M40.976 69.659h4.098v2.049h-4.098z M51.22 69.659h8.195v2.049h-8.195z M61.463 69.659h6.146v2.049h-6.146z M69.659 69.659h2.049v2.049h-2.049z M73.756 69.659h2.049v2.049h-2.049z M0.0 71.707h2.049v2.049h-2.049z M12.293 71.707h2.049v2.049h-2.049z M20.488 71.707h2.049v2.049h-2.049z M24.585 71.707h2.049v2.049h-2.049z M30.732 71.707h8.195v2.049h-8.195z M40.976 71.707h2.049v2.049h-2.049z M45.073 71.707h2.049v2.049h-2.049z M49.171 71.707h4.098v2.049h-4.098z M63.512 71.707h4.098v2.049h-4.098z M73.756 71.707h2.049v2.049h-2.049z M79.902 71.707h4.098v2.049h-4.098z M0.0 73.756h2.049v2.049h-2.049z M4.098 73.756h6.146v2.049h-6.146z M12.293 73.756h2.049v2.049h-2.049z M18.439 73.756h2.049v2.049h-2.049z M22.537 73.756h4.098v2.049h-4.098z M28.683 73.756h4.098v2.049h-4.098z M34.829 73.756h2.049v2.049h-2.049z M43.024 73.756h4.098v2.049h-4.098z M51.22 73.756h2.049v2.049h-2.049z M57.366 73.756h18.439v2.049h-18.439z M0.0 75.805h2.049v2.049h-2.049z M4.098 75.805h6.146v2.049h-6.146z M12.293 75.805h2.049v2.049h-2.049z M18.439 75.805h2.049v2.049h-2.049z M22.537 75.805h2.049v2.049h-2.049z M32.78 75.805h10.244v2.049h-10.244z M45.073 75.805h6.146v2.049h-6.146z M55.317 75.805h2.049v2.049h-2.049z M63.512 75.805h4.098v2.049h-4.098z M71.707 75.805h2.049v2.049h-2.049z M75.805 75.805h6.146v2.049h-6.146z M0.0 77.854h2.049v2.049h-2.049z M4.098 77.854h6.146v2.049h-6.146z M12.293 77.854h2.049v2.049h-2.049z M20.488 77.854h4.098v2.049h-4.098z M26.634 77.854h8.195v2.049h-8.195z M45.073 77.854h2.049v2.049h-2.049z M49.171 77.854h8.195v2.049h-8.195z M59.415 77.854h4.098v2.049h-4.098z M67.61 77.854h10.244v2.049h-10.244z M0.0 79.902h2.049v2.049h-2.049z M12.293 79.902h2.049v2.049h-2.049z M18.439 79.902h6.146v2.049h-6.146z M26.634 79.902h6.146v2.049h-6.146z M36.878 79.902h6.146v2.049h-6.146z M47.122 79.902h4.098v2.049h-4.098z M55.317 79.902h2.049v2.049h-2.049z M69.659 79.902h2.049v2.049h-2.049z M73.756 79.902h6.146v2.049h-6.146z M81.951 79.902h2.049v2.049h-2.049z M0.0 81.951h14.341v2.049h-14.341z M16.39 81.951h6.146v2.049h-6.146z M26.634 81.951h2.049v2.049h-2.049z M30.732 81.951h2.049v2.049h-2.049z M45.073 81.951h2.049v2.049h-2.049z M49.171 81.951h8.195v2.049h-8.195z M59.415 81.951h2.049v2.049h-2.049z M69.659 81.951h6.146v2.049h-6.146z"/>
</g>
<text x="1122" y="614" font-family="Inter, Helvetica, Arial, sans-serif" font-size="10" font-weight="700" fill="#F5F7FA" text-anchor="middle">scan / full post</text>
</svg>