<svg xmlns="http://www.w3.org/2000/svg" viewBox="0 0 1200 630" width="1200" height="630">
<title>Tech Security Weekly Digest - April 08 2026</title>
<defs>
  <linearGradient id="a08_bgGrad" x1="0%" y1="0%" x2="100%" y2="100%">
    <stop offset="0%" style="stop-color:#0d1117"/>
    <stop offset="50%" style="stop-color:#0a1025"/>
    <stop offset="100%" style="stop-color:#070d1a"/>
  </linearGradient>
  <radialGradient id="a08_vignette" cx="50%" cy="50%" r="70%">
    <stop offset="0%" style="stop-color:transparent"/>
    <stop offset="100%" style="stop-color:#000000;stop-opacity:0.7"/>
  </radialGradient>
  <linearGradient id="a08_crackGrad" x1="0%" y1="0%" x2="100%" y2="0%">
    <stop offset="0%" style="stop-color:#ff0000;stop-opacity:0"/>
    <stop offset="30%" style="stop-color:#ef4444"/>
    <stop offset="50%" style="stop-color:#fb923c"/>
    <stop offset="70%" style="stop-color:#ef4444"/>
    <stop offset="100%" style="stop-color:#ff0000;stop-opacity:0"/>
  </linearGradient>
  <linearGradient id="a08_panelGrad" x1="0%" y1="0%" x2="100%" y2="100%">
    <stop offset="0%" style="stop-color:#0d1520"/>
    <stop offset="100%" style="stop-color:#081018"/>
  </linearGradient>
  <linearGradient id="a08_globeGrad" cx="40%" cy="40%" r="60%" fx="40%" fy="40%" gradientUnits="objectBoundingBox">
    <stop offset="0%" style="stop-color:#0a2a4a"/>
    <stop offset="100%" style="stop-color:#051020"/>
  </linearGradient>
  <filter id="a08_glow" x="-30%" y="-30%" width="160%" height="160%">
    <feGaussianBlur stdDeviation="3" result="coloredBlur"/>
    <feMerge><feMergeNode in="coloredBlur"/><feMergeNode in="SourceGraphic"/></feMerge>
  </filter>
  <filter id="a08_glowRed" x="-50%" y="-50%" width="200%" height="200%">
    <feGaussianBlur stdDeviation="5" result="coloredBlur"/>
    <feMerge><feMergeNode in="coloredBlur"/><feMergeNode in="SourceGraphic"/></feMerge>
  </filter>
  <filter id="a08_glowBlue" x="-50%" y="-50%" width="200%" height="200%">
    <feGaussianBlur stdDeviation="4" result="coloredBlur"/>
    <feMerge><feMergeNode in="coloredBlur"/><feMergeNode in="SourceGraphic"/></feMerge>
  </filter>
  <filter id="a08_glowCyan" x="-50%" y="-50%" width="200%" height="200%">
    <feGaussianBlur stdDeviation="4" result="coloredBlur"/>
    <feMerge><feMergeNode in="coloredBlur"/><feMergeNode in="SourceGraphic"/></feMerge>
  </filter>
  <filter id="a08_glowPurple" x="-50%" y="-50%" width="200%" height="200%">
    <feGaussianBlur stdDeviation="4" result="coloredBlur"/>
    <feMerge><feMergeNode in="coloredBlur"/><feMergeNode in="SourceGraphic"/></feMerge>
  </filter>
  <filter id="a08_panelShadow" x="-5%" y="-5%" width="110%" height="110%">
    <feDropShadow dx="2" dy="2" stdDeviation="4" flood-color="#000000" flood-opacity="0.6"/>
  </filter>
  <filter id="a08_crackGlow" x="-10%" y="-200%" width="120%" height="500%">
    <feGaussianBlur stdDeviation="3" result="blur"/>
    <feMerge><feMergeNode in="blur"/><feMergeNode in="SourceGraphic"/></feMerge>
  </filter>
  <pattern id="a08_dotGrid" x="0" y="0" width="24" height="24" patternUnits="userSpaceOnUse">
    <circle cx="12" cy="12" r="0.8" fill="#1e3a5f" opacity="0.5"/>
  </pattern>
  <pattern id="a08_hexGrid" x="0" y="0" width="30" height="52" patternUnits="userSpaceOnUse">
    <polygon points="15,0 30,8.5 30,25.5 15,34 0,25.5 0,8.5" fill="none" stroke="#1a2f4a" stroke-width="0.5" opacity="0.4"/>
    <polygon points="15,26 30,34.5 30,51.5 15,60 0,51.5 0,34.5" fill="none" stroke="#1a2f4a" stroke-width="0.5" opacity="0.4"/>
  </pattern>
  <pattern id="a08_scanLines" x="0" y="0" width="1200" height="4" patternUnits="userSpaceOnUse">
    <rect x="0" y="0" width="1200" height="1" fill="#ffffff" opacity="0.015"/>
  </pattern>
</defs>
<style>
  @keyframes a08_pulse { 0%,100%{opacity:0.6} 50%{opacity:1} }
  @keyframes a08_floatUp { 0%{transform:translateY(0);opacity:0.8} 50%{transform:translateY(-8px);opacity:1} 100%{transform:translateY(0);opacity:0.8} }
  @keyframes a08_floatDown { 0%{transform:translateY(0)} 50%{transform:translateY(6px)} 100%{transform:translateY(0)} }
  @keyframes a08_dash { to{stroke-dashoffset:-20} }
  @keyframes a08_pulseLarge { 0%,100%{opacity:0.3} 50%{opacity:0.7} }
  @keyframes a08_glimmer { 0%,100%{opacity:0.4} 50%{opacity:0.9} }
  @keyframes a08_crackFx { 0%,100%{opacity:0.7} 50%{opacity:1} }
  @keyframes a08_radar { from{transform:rotate(0deg)} to{transform:rotate(360deg)} }
  @keyframes a08_radarSweep { 0%{opacity:0.8} 50%{opacity:0.2} 100%{opacity:0.8} }
</style>
<!-- Background layers -->
<rect width="1200" height="630" fill="url(#a08_bgGrad)"/>
<rect width="1200" height="630" fill="url(#a08_dotGrid)"/>
<rect width="1200" height="630" fill="url(#a08_hexGrid)"/>
<rect width="1200" height="630" fill="url(#a08_scanLines)"/>
<rect width="1200" height="630" fill="url(#a08_vignette)"/>
<!-- LEFT PANEL -->
<rect x="0" y="0" width="290" height="630" fill="url(#a08_panelGrad)" filter="url(#a08_panelShadow)"/>
<rect x="0" y="0" width="290" height="630" fill="none" stroke="#1e3a5f" stroke-width="1" opacity="0.5"/>
<line x1="290" y1="0" x2="290" y2="630" stroke="#1e4a7f" stroke-width="1.5"/>
<rect x="10" y="10" width="270" height="36" rx="4" fill="#0a1a2e" stroke="#1e4a7f" stroke-width="1"/>
<text x="145" y="33" font-family="Arial" font-size="11" font-weight="bold" fill="#60a5fa" text-anchor="middle" letter-spacing="2">TECH SECURITY WEEKLY</text>
<text x="145" y="58" font-family="Courier New" font-size="9" fill="#475569" text-anchor="middle">APRIL 08, 2026 // THREAT INTELLIGENCE</text>
<line x1="15" y1="66" x2="275" y2="66" stroke="#1e3a5f" stroke-width="1"/>
<!-- Topic 1: APT28 Infra -->
<rect x="10" y="72" width="270" height="48" rx="3" fill="#0a1520" stroke="#ef4444" stroke-width="0.5" opacity="0.8"/>
<rect x="10" y="72" width="4" height="48" rx="2" fill="#ef4444"/>
<text x="22" y="88" font-family="Arial" font-size="10" font-weight="bold" fill="#ef4444">APT28 INFRA</text>
<rect x="22" y="93" width="160" height="6" rx="3" fill="#1a2030"/>
<rect x="22" y="93" width="144" height="6" rx="3" fill="#ef4444" opacity="0.8"/>
<text x="190" y="100" font-family="Courier New" font-size="8" fill="#ef4444">90%</text>
<rect x="22" y="103" width="50" height="12" rx="6" fill="#3f0f0f"/>
<text x="47" y="113" font-family="Arial" font-size="7" fill="#ef4444" text-anchor="middle">CRITICAL</text>
<!-- Topic 2: DNS Hijack -->
<rect x="10" y="126" width="270" height="48" rx="3" fill="#0a1520" stroke="#3b82f6" stroke-width="0.5" opacity="0.8"/>
<rect x="10" y="126" width="4" height="48" rx="2" fill="#3b82f6"/>
<text x="22" y="142" font-family="Arial" font-size="10" font-weight="bold" fill="#3b82f6">DNS HIJACK</text>
<rect x="22" y="147" width="160" height="6" rx="3" fill="#1a2030"/>
<rect x="22" y="147" width="120" height="6" rx="3" fill="#3b82f6" opacity="0.8"/>
<text x="190" y="154" font-family="Courier New" font-size="8" fill="#3b82f6">75%</text>
<rect x="22" y="157" width="40" height="12" rx="6" fill="#0f1f3f"/>
<text x="42" y="167" font-family="Arial" font-size="7" fill="#3b82f6" text-anchor="middle">HIGH</text>
<!-- Topic 3: Docker Escape -->
<rect x="10" y="180" width="270" height="48" rx="3" fill="#0a1520" stroke="#06b6d4" stroke-width="0.5" opacity="0.8"/>
<rect x="10" y="180" width="4" height="48" rx="2" fill="#06b6d4"/>
<text x="22" y="196" font-family="Arial" font-size="10" font-weight="bold" fill="#06b6d4">DOCKER ESCAPE</text>
<rect x="22" y="201" width="160" height="6" rx="3" fill="#1a2030"/>
<rect x="22" y="201" width="120" height="6" rx="3" fill="#06b6d4" opacity="0.8"/>
<text x="190" y="208" font-family="Courier New" font-size="8" fill="#06b6d4">75%</text>
<rect x="22" y="211" width="40" height="12" rx="6" fill="#001a1f"/>
<text x="42" y="221" font-family="Arial" font-size="7" fill="#06b6d4" text-anchor="middle">HIGH</text>
<!-- Topic 4: AI Defense -->
<rect x="10" y="234" width="270" height="48" rx="3" fill="#0a1520" stroke="#7c3aed" stroke-width="0.5" opacity="0.8"/>
<rect x="10" y="234" width="4" height="48" rx="2" fill="#7c3aed"/>
<text x="22" y="250" font-family="Arial" font-size="10" font-weight="bold" fill="#a78bfa">AI DEFENSE</text>
<rect x="22" y="255" width="160" height="6" rx="3" fill="#1a2030"/>
<rect x="22" y="255" width="80" height="6" rx="3" fill="#7c3aed" opacity="0.8"/>
<text x="190" y="262" font-family="Courier New" font-size="8" fill="#a78bfa">50%</text>
<rect x="22" y="265" width="40" height="12" rx="6" fill="#1a0f3f"/>
<text x="42" y="275" font-family="Arial" font-size="7" fill="#a78bfa" text-anchor="middle">INFO</text>
<!-- Topic 5: Botnet DDoS -->
<rect x="10" y="288" width="270" height="48" rx="3" fill="#0a1520" stroke="#f59e0b" stroke-width="0.5" opacity="0.8"/>
<rect x="10" y="288" width="4" height="48" rx="2" fill="#f59e0b"/>
<text x="22" y="304" font-family="Arial" font-size="10" font-weight="bold" fill="#f59e0b">BOTNET DDOS</text>
<rect x="22" y="309" width="160" height="6" rx="3" fill="#1a2030"/>
<rect x="22" y="309" width="136" height="6" rx="3" fill="#f59e0b" opacity="0.8"/>
<text x="190" y="316" font-family="Courier New" font-size="8" fill="#f59e0b">85%</text>
<rect x="22" y="319" width="40" height="12" rx="6" fill="#3f2a00"/>
<text x="42" y="329" font-family="Arial" font-size="7" fill="#f59e0b" text-anchor="middle">HIGH</text>
<!-- Severity matrix -->
<line x1="15" y1="342" x2="275" y2="342" stroke="#1e3a5f" stroke-width="1"/>
<text x="145" y="360" font-family="Arial" font-size="9" fill="#475569" text-anchor="middle">SEVERITY MATRIX</text>
<rect x="20" y="368" width="250" height="8" rx="4" fill="#1a2030"/>
<rect x="20" y="368" width="225" height="8" rx="4" fill="#ef4444" opacity="0.7"/>
<text x="20" y="390" font-family="Courier New" font-size="8" fill="#94a3b8">CRITICAL</text>
<text x="255" y="390" font-family="Courier New" font-size="8" fill="#ef4444" text-anchor="end">90%</text>
<rect x="20" y="394" width="250" height="8" rx="4" fill="#1a2030"/>
<rect x="20" y="394" width="187" height="8" rx="4" fill="#f59e0b" opacity="0.7"/>
<text x="20" y="416" font-family="Courier New" font-size="8" fill="#94a3b8">HIGH</text>
<text x="255" y="416" font-family="Courier New" font-size="8" fill="#f59e0b" text-anchor="end">75%</text>
<rect x="20" y="420" width="250" height="8" rx="4" fill="#1a2030"/>
<rect x="20" y="420" width="125" height="8" rx="4" fill="#22c55e" opacity="0.7"/>
<text x="20" y="442" font-family="Courier New" font-size="8" fill="#94a3b8">MEDIUM</text>
<text x="255" y="442" font-family="Courier New" font-size="8" fill="#22c55e" text-anchor="end">50%</text>
<line x1="15" y1="455" x2="275" y2="455" stroke="#1e3a5f" stroke-width="1"/>
<text x="145" y="474" font-family="Courier New" font-size="8" fill="#334155" text-anchor="middle">SOURCES: 52 FEEDS MONITORED</text>
<text x="145" y="488" font-family="Courier New" font-size="8" fill="#334155" text-anchor="middle">IOC COUNT: 2,381 INDICATORS</text>
<text x="145" y="502" font-family="Courier New" font-size="8" fill="#334155" text-anchor="middle">LAST UPDATE: 08-APR-2026 09:00 KST</text>
<!-- TOP HALF: APT28 C2 terminals + DNS hijack globe -->
<text x="745" y="35" font-family="Arial" font-size="13" font-weight="bold" fill="#60a5fa" text-anchor="middle" filter="url(#a08_glowBlue)">APT28 INFRASTRUCTURE ATTACK // DNS HIJACKING</text>
<!-- APT28 star badge -->
<polygon points="360,165 370,138 380,165 408,165 386,182 394,209 370,192 346,209 354,182 332,165" fill="#1a0000" stroke="#ef4444" stroke-width="2" filter="url(#a08_glowRed)"/>
<text x="370" y="168" font-family="Arial" font-size="8" font-weight="bold" fill="#ef4444" text-anchor="middle">APT28</text>
<circle cx="370" cy="165" r="50" fill="none" stroke="#ef4444" stroke-width="0.8" stroke-dasharray="4,4" opacity="0.4">
  <animateTransform attributeName="transform" type="rotate" from="0 370 165" to="360 370 165" dur="12s" repeatCount="indefinite"/>
</circle>
<!-- C2 server terminals -->
<rect x="430" y="90" width="90" height="60" rx="4" fill="#040c14" stroke="#ef4444" stroke-width="1.5"/>
<rect x="430" y="90" width="90" height="12" rx="4" fill="#1a0000"/>
<text x="475" y="101" font-family="Courier New" font-size="7" fill="#ef4444" text-anchor="middle">C2-SERVER-01</text>
<text x="434" y="116" font-family="Courier New" font-size="7" fill="#22c55e">$ ./implant.sh</text>
<text x="434" y="127" font-family="Courier New" font-size="7" fill="#ef4444">[!] ACTIVE</text>
<text x="434" y="138" font-family="Courier New" font-size="7" fill="#475569">IP: 185.x.x.x</text>
<line x1="430" y1="130" x2="390" y2="165" stroke="#ef4444" stroke-width="1" stroke-dasharray="3,3" opacity="0.7"/>
<rect x="435" y="175" width="90" height="60" rx="4" fill="#040c14" stroke="#f59e0b" stroke-width="1.5"/>
<rect x="435" y="175" width="90" height="12" rx="4" fill="#1a0800"/>
<text x="480" y="186" font-family="Courier New" font-size="7" fill="#f59e0b" text-anchor="middle">C2-SERVER-02</text>
<text x="439" y="201" font-family="Courier New" font-size="7" fill="#22c55e">$ exfil.py --run</text>
<text x="439" y="212" font-family="Courier New" font-size="7" fill="#f59e0b">[!] TUNNELING</text>
<text x="439" y="223" font-family="Courier New" font-size="7" fill="#475569">IP: 91.x.x.x</text>
<line x1="435" y1="205" x2="398" y2="175" stroke="#f59e0b" stroke-width="1" stroke-dasharray="3,3" opacity="0.7"/>
<!-- DNS Hijack Globe -->
<circle cx="610" cy="165" r="70" fill="#040f1c" stroke="#3b82f6" stroke-width="1.5" filter="url(#a08_glowBlue)"/>
<circle cx="610" cy="165" r="70" fill="none" stroke="#1e3a5f" stroke-width="0.5" opacity="0.5"/>
<!-- Globe latitude lines -->
<ellipse cx="610" cy="165" rx="70" ry="20" fill="none" stroke="#0e2a4a" stroke-width="0.8"/>
<ellipse cx="610" cy="165" rx="70" ry="42" fill="none" stroke="#0e2a4a" stroke-width="0.8"/>
<ellipse cx="610" cy="165" rx="50" ry="70" fill="none" stroke="#0e2a4a" stroke-width="0.8"/>
<ellipse cx="610" cy="165" rx="25" ry="70" fill="none" stroke="#0e2a4a" stroke-width="0.8"/>
<line x1="610" y1="95" x2="610" y2="235" stroke="#0e2a4a" stroke-width="0.8"/>
<!-- DNS redirect paths with X marks -->
<line x1="565" y1="140" x2="590" y2="155" stroke="#3b82f6" stroke-width="1.5" stroke-dasharray="4,2"/>
<line x1="590" y1="155" x2="575" y2="165" stroke="#ef4444" stroke-width="1.5"/>
<text x="572" y="162" font-family="Arial" font-size="10" fill="#ef4444" font-weight="bold">X</text>
<line x1="635" y1="145" x2="620" y2="160" stroke="#3b82f6" stroke-width="1.5" stroke-dasharray="4,2"/>
<line x1="620" y1="160" x2="640" y2="168" stroke="#ef4444" stroke-width="1.5"/>
<text x="637" y="167" font-family="Arial" font-size="10" fill="#ef4444" font-weight="bold">X</text>
<line x1="598" y1="185" x2="610" y2="175" stroke="#3b82f6" stroke-width="1.5" stroke-dasharray="4,2"/>
<line x1="610" y1="175" x2="596" y2="190" stroke="#ef4444" stroke-width="1.5"/>
<text x="593" y="188" font-family="Arial" font-size="10" fill="#ef4444" font-weight="bold">X</text>
<!-- DNS label -->
<text x="610" y="245" font-family="Arial" font-size="9" font-weight="bold" fill="#3b82f6" text-anchor="middle">DNS HIJACK</text>
<text x="610" y="257" font-family="Courier New" font-size="8" fill="#475569" text-anchor="middle">REROUTING TRAFFIC</text>
<!-- APT28 info box -->
<rect x="695" y="60" width="475" height="210" rx="6" fill="#080f1a" stroke="#1e3a5f" stroke-width="1" opacity="0.9"/>
<text x="932" y="82" font-family="Arial" font-size="11" font-weight="bold" fill="#ef4444" text-anchor="middle">APT28 // FANCY BEAR INFRASTRUCTURE</text>
<line x1="705" y1="90" x2="1160" y2="90" stroke="#1e3a5f" stroke-width="0.5"/>
<text x="709" y="108" font-family="Courier New" font-size="8" fill="#ef4444">ATTRIBUTION: RUSSIA GRU UNIT 26165</text>
<text x="709" y="122" font-family="Courier New" font-size="8" fill="#475569">TARGETS: NATO / EU GOV / DEFENSE CONTRACTORS</text>
<text x="709" y="136" font-family="Courier New" font-size="8" fill="#f59e0b">TECHNIQUE: SPEAR PHISHING + ZERO-DAY EXPLOIT</text>
<text x="709" y="150" font-family="Courier New" font-size="8" fill="#ef4444">CVE-2026-0847: CRITICAL RCE // CVSS 9.8</text>
<text x="709" y="164" font-family="Courier New" font-size="8" fill="#475569">C2 NODES: 47 ACTIVE // 12 DARK WEB SERVERS</text>
<text x="709" y="178" font-family="Courier New" font-size="8" fill="#60a5fa">DNS HIJACK: 89 DOMAINS REDIRECTED</text>
<text x="709" y="192" font-family="Courier New" font-size="8" fill="#475569">VICTIM COUNT: 312 ORGS // 28 COUNTRIES</text>
<text x="709" y="206" font-family="Courier New" font-size="8" fill="#ef4444">CAMPAIGN DURATION: 6 MONTHS ACTIVE</text>
<text x="709" y="220" font-family="Courier New" font-size="8" fill="#334155">INDICATORS: 2,381 IPs / DOMAINS / HASHES</text>
<text x="709" y="234" font-family="Courier New" font-size="8" fill="#475569">CONFIDENCE: HIGH (91%) // LAST SEEN: APR-08</text>
<text x="709" y="255" font-family="Courier New" font-size="8" fill="#ef4444">ACTIVE EXFIL: 4.7TB DATA // STILL ONGOING</text>
<!-- CRACK DIVIDER y=315 -->
<g filter="url(#a08_crackGlow)">
  <path d="M290,315 L340,308 L380,320 L430,310 L475,318 L525,306 L575,316 L625,308 L675,320 L725,310 L775,318 L825,308 L875,316 L925,309 L975,317 L1025,308 L1075,316 L1125,309 L1165,318 L1200,312" fill="none" stroke="url(#a08_crackGrad)" stroke-width="2.5">
    <animate attributeName="opacity" values="0.7;1;0.7" dur="2s" repeatCount="indefinite"/>
  </path>
  <path d="M290,318 L350,324 L400,312 L455,322 L505,312 L555,322 L605,312 L655,322 L705,312 L755,322 L805,312 L855,322 L905,312 L955,322 L1005,312 L1055,322 L1105,312 L1155,322 L1200,315" fill="none" stroke="url(#a08_crackGrad)" stroke-width="1" opacity="0.4"/>
  <circle cx="490" cy="311" r="2" fill="#fb923c" opacity="0.9"><animate attributeName="opacity" values="0.3;1;0.3" dur="0.8s" repeatCount="indefinite"/></circle>
  <circle cx="730" cy="310" r="2" fill="#ef4444" opacity="0.9"><animate attributeName="opacity" values="0.5;1;0.5" dur="1s" repeatCount="indefinite"/></circle>
  <circle cx="970" cy="309" r="2" fill="#fb923c" opacity="0.9"><animate attributeName="opacity" values="0.4;1;0.4" dur="0.7s" repeatCount="indefinite"/></circle>
</g>
<!-- BOTTOM HALF -->
<text x="750" y="345" font-family="Arial" font-size="12" font-weight="bold" fill="#06b6d4" text-anchor="middle" filter="url(#a08_glowCyan)">DOCKER ESCAPE // BOTNET DDoS // AI SHIELD DEFENSE</text>
<!-- Docker container escape -->
<rect x="310" y="360" width="340" height="180" rx="6" fill="#060e16" stroke="#06b6d4" stroke-width="1" opacity="0.9"/>
<text x="480" y="380" font-family="Arial" font-size="10" font-weight="bold" fill="#06b6d4" text-anchor="middle">DOCKER CONTAINER ESCAPE</text>
<line x1="320" y1="387" x2="640" y2="387" stroke="#1e3a5f" stroke-width="0.5"/>
<!-- Stack of containers -->
<rect x="330" y="398" width="110" height="32" rx="3" fill="#0a1a24" stroke="#06b6d4" stroke-width="1"/>
<text x="385" y="418" font-family="Courier New" font-size="8" fill="#06b6d4" text-anchor="middle">CONTAINER-01</text>
<rect x="330" y="434" width="110" height="32" rx="3" fill="#0a1a24" stroke="#06b6d4" stroke-width="1"/>
<text x="385" y="454" font-family="Courier New" font-size="8" fill="#06b6d4" text-anchor="middle">CONTAINER-02</text>
<rect x="330" y="470" width="110" height="32" rx="3" fill="#0a1a24" stroke="#06b6d4" stroke-width="1"/>
<text x="385" y="490" font-family="Courier New" font-size="8" fill="#06b6d4" text-anchor="middle">CONTAINER-03</text>
<!-- Escaping container -->
<rect x="455" y="395" width="110" height="40" rx="3" fill="#1a0a00" stroke="#ef4444" stroke-width="2" filter="url(#a08_glowRed)">
  <animateTransform attributeName="transform" type="translate" values="0,0;8,-10;0,0" dur="2s" repeatCount="indefinite"/>
</rect>
<text x="510" y="411" font-family="Courier New" font-size="8" fill="#ef4444" text-anchor="middle">ESCAPE!</text>
<text x="510" y="425" font-family="Courier New" font-size="7" fill="#ef4444" text-anchor="middle">CVE-2026-x</text>
<!-- Arrow escape -->
<path d="M510,435 L510,455 L560,455 L570,445" fill="none" stroke="#ef4444" stroke-width="1.5" stroke-dasharray="4,2" opacity="0.8"/>
<polygon points="567,438 574,445 561,448" fill="#ef4444"/>
<!-- Host label -->
<rect x="444" y="456" width="178" height="22" rx="3" fill="#1a0000" stroke="#ef4444" stroke-width="1"/>
<text x="533" y="471" font-family="Courier New" font-size="8" fill="#ef4444" text-anchor="middle">HOST SYSTEM BREACH</text>
<text x="480" y="512" font-family="Courier New" font-size="8" fill="#06b6d4" text-anchor="middle">runc VULNERABILITY</text>
<text x="480" y="524" font-family="Courier New" font-size="8" fill="#475569" text-anchor="middle">PRIVILEGE ESCALATION</text>
<text x="480" y="536" font-family="Courier New" font-size="8" fill="#ef4444" text-anchor="middle">ROOT ACCESS GAINED</text>
<!-- Botnet DDoS mesh -->
<rect x="665" y="360" width="245" height="180" rx="6" fill="#060e16" stroke="#f59e0b" stroke-width="1" opacity="0.9"/>
<text x="787" y="380" font-family="Arial" font-size="10" font-weight="bold" fill="#f59e0b" text-anchor="middle">BOTNET DDoS MESH</text>
<line x1="675" y1="387" x2="900" y2="387" stroke="#1e3a5f" stroke-width="0.5"/>
<!-- Central controller -->
<circle cx="787" cy="460" r="20" fill="#1a0800" stroke="#f59e0b" stroke-width="2" filter="url(#a08_glow)">
  <animate attributeName="r" values="18;22;18" dur="2s" repeatCount="indefinite"/>
</circle>
<text x="787" y="456" font-family="Arial" font-size="7" fill="#f59e0b" text-anchor="middle">C&amp;C</text>
<text x="787" y="467" font-family="Arial" font-size="7" fill="#f59e0b" text-anchor="middle">NODE</text>
<!-- Bot nodes around controller -->
<circle cx="730" cy="418" r="12" fill="#0a0a00" stroke="#f59e0b" stroke-width="1.5"/>
<text x="730" y="422" font-family="Courier New" font-size="6" fill="#f59e0b" text-anchor="middle">BOT</text>
<line x1="742" y1="425" x2="769" y2="443" stroke="#f59e0b" stroke-width="0.8" stroke-dasharray="3,2" opacity="0.6"/>
<circle cx="840" cy="415" r="12" fill="#0a0a00" stroke="#f59e0b" stroke-width="1.5"/>
<text x="840" y="419" font-family="Courier New" font-size="6" fill="#f59e0b" text-anchor="middle">BOT</text>
<line x1="830" y1="422" x2="804" y2="443" stroke="#f59e0b" stroke-width="0.8" stroke-dasharray="3,2" opacity="0.6"/>
<circle cx="870" cy="460" r="12" fill="#0a0a00" stroke="#f59e0b" stroke-width="1.5"/>
<text x="870" y="464" font-family="Courier New" font-size="6" fill="#f59e0b" text-anchor="middle">BOT</text>
<line x1="858" y1="460" x2="808" y2="460" stroke="#f59e0b" stroke-width="0.8" stroke-dasharray="3,2" opacity="0.6"/>
<circle cx="844" cy="503" r="12" fill="#0a0a00" stroke="#f59e0b" stroke-width="1.5"/>
<text x="844" y="507" font-family="Courier New" font-size="6" fill="#f59e0b" text-anchor="middle">BOT</text>
<line x1="834" y1="497" x2="802" y2="476" stroke="#f59e0b" stroke-width="0.8" stroke-dasharray="3,2" opacity="0.6"/>
<circle cx="735" cy="504" r="12" fill="#0a0a00" stroke="#f59e0b" stroke-width="1.5"/>
<text x="735" y="508" font-family="Courier New" font-size="6" fill="#f59e0b" text-anchor="middle">BOT</text>
<line x1="746" y1="497" x2="770" y2="476" stroke="#f59e0b" stroke-width="0.8" stroke-dasharray="3,2" opacity="0.6"/>
<circle cx="705" cy="460" r="12" fill="#0a0a00" stroke="#f59e0b" stroke-width="1.5"/>
<text x="705" y="464" font-family="Courier New" font-size="6" fill="#f59e0b" text-anchor="middle">BOT</text>
<line x1="717" y1="460" x2="767" y2="460" stroke="#f59e0b" stroke-width="0.8" stroke-dasharray="3,2" opacity="0.6"/>
<circle cx="720" cy="415" r="10" fill="#0a0a00" stroke="#ef4444" stroke-width="1"/>
<text x="720" y="419" font-family="Courier New" font-size="5" fill="#ef4444" text-anchor="middle">BOT</text>
<line x1="729" y1="420" x2="768" y2="443" stroke="#ef4444" stroke-width="0.6" opacity="0.5"/>
<text x="787" y="535" font-family="Courier New" font-size="7" fill="#f59e0b" text-anchor="middle">TRAFFIC: 847 Gbps PEAK</text>
<text x="787" y="547" font-family="Courier New" font-size="7" fill="#475569" text-anchor="middle">BOTS: 124,000 NODES</text>
<!-- AI Shield defense -->
<rect x="924" y="360" width="256" height="180" rx="6" fill="#060816" stroke="#7c3aed" stroke-width="1.5" filter="url(#a08_glowPurple)" opacity="0.95"/>
<text x="1052" y="380" font-family="Arial" font-size="10" font-weight="bold" fill="#a78bfa" text-anchor="middle">AI ENTERPRISE DEFENSE</text>
<line x1="934" y1="387" x2="1170" y2="387" stroke="#2a1a5f" stroke-width="0.5"/>
<!-- Radar sweep -->
<circle cx="1052" cy="450" r="55" fill="none" stroke="#7c3aed" stroke-width="0.8" opacity="0.4"/>
<circle cx="1052" cy="450" r="38" fill="none" stroke="#7c3aed" stroke-width="0.8" opacity="0.5"/>
<circle cx="1052" cy="450" r="22" fill="none" stroke="#7c3aed" stroke-width="1" opacity="0.6"/>
<!-- Cross hairs -->
<line x1="997" y1="450" x2="1107" y2="450" stroke="#7c3aed" stroke-width="0.5" opacity="0.4"/>
<line x1="1052" y1="395" x2="1052" y2="505" stroke="#7c3aed" stroke-width="0.5" opacity="0.4"/>
<!-- Radar sweep arm -->
<line x1="1052" y1="450" x2="1100" y2="412" stroke="#a78bfa" stroke-width="2" opacity="0.7">
  <animateTransform attributeName="transform" type="rotate" from="0 1052 450" to="360 1052 450" dur="3s" repeatCount="indefinite"/>
</line>
<!-- Detected blips -->
<circle cx="1030" cy="428" r="4" fill="#ef4444" opacity="0.9"><animate attributeName="opacity" values="0.3;1;0.3" dur="1.2s" repeatCount="indefinite"/></circle>
<circle cx="1075" cy="462" r="3" fill="#f59e0b" opacity="0.8"><animate attributeName="opacity" values="0.4;1;0.4" dur="0.9s" repeatCount="indefinite"/></circle>
<circle cx="1048" cy="473" r="3" fill="#ef4444" opacity="0.7"><animate attributeName="opacity" values="0.5;1;0.5" dur="1.4s" repeatCount="indefinite"/></circle>
<!-- AI Shield label -->
<text x="1052" y="522" font-family="Courier New" font-size="7" fill="#a78bfa" text-anchor="middle">AI THREAT DETECTION</text>
<text x="1052" y="533" font-family="Courier New" font-size="7" fill="#475569" text-anchor="middle">REAL-TIME ANALYSIS</text>
<!-- Particles -->
<circle cx="320" cy="80" r="2" fill="#ef4444" opacity="0.7"><animate attributeName="cy" values="80;72;80" dur="3s" repeatCount="indefinite"/></circle>
<circle cx="600" cy="50" r="1.5" fill="#3b82f6" opacity="0.6"><animate attributeName="cy" values="50;43;50" dur="2.5s" repeatCount="indefinite"/></circle>
<circle cx="850" cy="65" r="2" fill="#06b6d4" opacity="0.5"><animate attributeName="cy" values="65;58;65" dur="4s" repeatCount="indefinite"/></circle>
<circle cx="1100" cy="82" r="1.5" fill="#7c3aed" opacity="0.6"><animate attributeName="cy" values="82;75;82" dur="3.5s" repeatCount="indefinite"/></circle>
<circle cx="430" cy="280" r="1.5" fill="#ef4444" opacity="0.5"><animate attributeName="cx" values="430;437;430" dur="4s" repeatCount="indefinite"/></circle>
<circle cx="750" cy="270" r="2" fill="#f59e0b" opacity="0.4"><animate attributeName="cy" values="270;264;270" dur="3.2s" repeatCount="indefinite"/></circle>
<circle cx="1050" cy="255" r="1.5" fill="#3b82f6" opacity="0.5"><animate attributeName="cy" values="255;249;255" dur="2.8s" repeatCount="indefinite"/></circle>
<circle cx="550" cy="560" r="2" fill="#06b6d4" opacity="0.4"><animate attributeName="cy" values="560;554;560" dur="3.8s" repeatCount="indefinite"/></circle>
<circle cx="780" cy="575" r="1.5" fill="#a78bfa" opacity="0.5"><animate attributeName="cy" values="575;569;575" dur="2.6s" repeatCount="indefinite"/></circle>
<circle cx="1150" cy="565" r="2" fill="#22c55e" opacity="0.4"><animate attributeName="cy" values="565;559;565" dur="3.4s" repeatCount="indefinite"/></circle>
<circle cx="960" cy="580" r="1.5" fill="#f59e0b" opacity="0.4"><animate attributeName="cy" values="580;574;580" dur="4.2s" repeatCount="indefinite"/></circle>
<circle cx="380" cy="570" r="2" fill="#3b82f6" opacity="0.3"><animate attributeName="cy" values="570;564;570" dur="3.6s" repeatCount="indefinite"/></circle>
<!-- CRITICAL badge top-right -->
<rect x="1055" y="10" width="134" height="36" rx="4" fill="#200000" stroke="#ef4444" stroke-width="2" filter="url(#a08_glowRed)"/>
<text x="1122" y="25" font-family="Arial" font-size="9" font-weight="bold" fill="#ef4444" text-anchor="middle" letter-spacing="1">!! CRITICAL !!</text>
<text x="1122" y="39" font-family="Courier New" font-size="8" fill="#dc2626" text-anchor="middle">THREAT LEVEL 5/5</text>
<!-- Footer -->
<rect x="0" y="606" width="1200" height="24" fill="#040810" opacity="0.95"/>
<line x1="290" y1="606" x2="290" y2="630" stroke="#1e3a5f" stroke-width="0.5"/>
<line x1="0" y1="606" x2="1200" y2="606" stroke="#1e3a5f" stroke-width="1"/>
<text x="310" y="621" font-family="Courier New" font-size="8" fill="#334155">APT28 INFRA // DNS HIJACK // DOCKER ESCAPE // AI DEFENSE // BOTNET DDoS</text>
<text x="1190" y="621" font-family="Courier New" font-size="9" fill="#475569" text-anchor="end">tech.2twodragon.com</text>
</svg>
