<svg width="1200" height="630" viewBox="0 0 1200 630" xmlns="http://www.w3.org/2000/svg">
  <defs>
    <linearGradient id="bg28" x1="0" y1="0" x2="1" y2="1">
      <stop offset="0%" stop-color="#08101d"/>
      <stop offset="100%" stop-color="#16112a"/>
    </linearGradient>
    <linearGradient id="line28" x1="0" y1="0" x2="1" y2="0">
      <stop offset="0%" stop-color="#38bdf8"/>
      <stop offset="100%" stop-color="#f43f5e"/>
    </linearGradient>
  </defs>

  <rect width="1200" height="630" fill="url(#bg28)"/>
  <circle cx="940" cy="170" r="120" fill="#38bdf8" opacity="0.10"/>
  <circle cx="1040" cy="420" r="150" fill="#8b5cf6" opacity="0.10"/>
  <circle cx="260" cy="520" r="140" fill="#f43f5e" opacity="0.08"/>

  <text x="60" y="74" fill="#cbd5e1" font-size="28" font-family="Georgia, serif">Mar 28, 2026</text>
  <text x="60" y="180" fill="#ffffff" font-size="48" font-family="Arial, sans-serif" font-weight="700">AI Agent Security</text>
  <text x="60" y="238" fill="#e2e8f0" font-size="44" font-family="Arial, sans-serif" font-weight="700">Cloud Zero-Day</text>
  <rect x="60" y="260" width="210" height="4" rx="2" fill="url(#line28)"/>

  <rect x="60" y="308" width="110" height="34" rx="17" fill="#0f172a" stroke="#38bdf8" stroke-width="1.5"/>
  <text x="115" y="330" text-anchor="middle" fill="#7dd3fc" font-size="13" font-family="Arial, sans-serif" font-weight="700">AI</text>
  <rect x="184" y="308" width="130" height="34" rx="17" fill="#0f172a" stroke="#f43f5e" stroke-width="1.5"/>
  <text x="249" y="330" text-anchor="middle" fill="#fda4af" font-size="13" font-family="Arial, sans-serif" font-weight="700">ZERO-DAY</text>
  <rect x="328" y="308" width="130" height="34" rx="17" fill="#0f172a" stroke="#8b5cf6" stroke-width="1.5"/>
  <text x="393" y="330" text-anchor="middle" fill="#c4b5fd" font-size="13" font-family="Arial, sans-serif" font-weight="700">CLOUD</text>

  <g transform="translate(740,140)">
    <rect x="0" y="0" width="320" height="300" rx="24" fill="#0f172a" stroke="#334155" stroke-width="1.5"/>
    <path d="M86 170 C86 128 118 96 158 96 C190 96 216 114 226 142 C254 142 276 164 276 192 C276 219 255 240 226 240 H116 C84 240 60 217 60 190 C60 170 70 155 86 170 Z" fill="#38bdf8" opacity="0.88"/>
    <path d="M182 136 L198 120 L214 136" fill="none" stroke="#ffffff" stroke-width="4" stroke-linecap="round" stroke-linejoin="round"/>
    <line x1="198" y1="122" x2="198" y2="172" stroke="#ffffff" stroke-width="4" stroke-linecap="round"/>
    <path d="M118 188 L134 204 L164 172" fill="none" stroke="#0f172a" stroke-width="8" stroke-linecap="round" stroke-linejoin="round" opacity="0.35"/>
    <path d="M118 188 L134 204 L164 172" fill="none" stroke="#ffffff" stroke-width="5" stroke-linecap="round" stroke-linejoin="round"/>
    <rect x="92" y="42" width="136" height="26" rx="13" fill="#111827" stroke="#38bdf8" stroke-width="1.2"/>
    <rect x="92" y="250" width="136" height="26" rx="13" fill="#111827" stroke="#f43f5e" stroke-width="1.2"/>
  </g>

  <text x="60" y="578" fill="#64748b" font-size="14" font-family="Arial, sans-serif">tech.2twodragon.com</text>
</svg>
