<svg xmlns="http://www.w3.org/2000/svg" viewBox="0 0 1200 630">
  <defs>
    <linearGradient id="bg" x1="0%" y1="0%" x2="100%" y2="100%">
      <stop offset="0%" style="stop-color:#0a0a1a"/>
      <stop offset="100%" style="stop-color:#1a0808"/>
    </linearGradient>
    <linearGradient id="accentGrad" x1="0%" y1="0%" x2="100%" y2="100%">
      <stop offset="0%" style="stop-color:#ef4444"/>
      <stop offset="100%" style="stop-color:#f59e0b"/>
    </linearGradient>
    <filter id="glow">
      <feGaussianBlur stdDeviation="4" result="blur"/>
      <feMerge><feMergeNode in="blur"/><feMergeNode in="SourceGraphic"/></feMerge>
    </filter>
    <filter id="softglow">
      <feGaussianBlur stdDeviation="20" result="blur"/>
      <feMerge><feMergeNode in="blur"/><feMergeNode in="SourceGraphic"/></feMerge>
    </filter>
    <filter id="shadow">
      <feDropShadow dx="0" dy="4" stdDeviation="8" flood-color="#000" flood-opacity="0.3"/>
    </filter>
  </defs>

  <!-- Background -->
  <rect width="1200" height="630" fill="url(#bg)"/>

  <!-- Subtle grid -->
  <g opacity="0.04">
    <line x1="60" y1="0" x2="60" y2="630" stroke="#fff" stroke-width="1"/>
    <line x1="120" y1="0" x2="120" y2="630" stroke="#fff" stroke-width="1"/>
    <line x1="180" y1="0" x2="180" y2="630" stroke="#fff" stroke-width="1"/>
    <line x1="240" y1="0" x2="240" y2="630" stroke="#fff" stroke-width="1"/>
    <line x1="960" y1="0" x2="960" y2="630" stroke="#fff" stroke-width="1"/>
    <line x1="1020" y1="0" x2="1020" y2="630" stroke="#fff" stroke-width="1"/>
    <line x1="1080" y1="0" x2="1080" y2="630" stroke="#fff" stroke-width="1"/>
    <line x1="1140" y1="0" x2="1140" y2="630" stroke="#fff" stroke-width="1"/>
  </g>

  <!-- Ambient glow -->
  <circle cx="600" cy="280" r="250" fill="#ef4444" opacity="0.04" filter="url(#softglow)"/>
  <circle cx="300" cy="180" r="150" fill="#f59e0b" opacity="0.05" filter="url(#softglow)"/>
  <circle cx="900" cy="400" r="180" fill="#ef4444" opacity="0.03" filter="url(#softglow)"/>

  <!-- Central icon -->
  <g filter="url(#shadow)">

    <g transform="translate(600,230)">
      <path d="M0,-100 L0,-20 C0,10 -25,30 -25,30 C-25,30 0,50 25,30 C25,30 50,10 50,-20 L50,-35" fill="none" stroke="#ef4444" stroke-width="4" stroke-linecap="round"/>
      <circle cx="-25" cy="35" r="6" fill="#ef4444" opacity="0.6"/>
      <line x1="0" y1="-100" x2="0" y2="-140" stroke="#ef4444" stroke-width="2" opacity="0.3"/>
      <rect x="-50" y="60" width="100" height="65" rx="6" fill="#1e293b" stroke="#f59e0b" stroke-width="2"/>
      <line x1="-50" y1="65" x2="0" y2="95" stroke="#f59e0b" stroke-width="1.5" opacity="0.5"/>
      <line x1="50" y1="65" x2="0" y2="95" stroke="#f59e0b" stroke-width="1.5" opacity="0.5"/>
      <line x1="-30" y1="105" x2="30" y2="105" stroke="#f59e0b" stroke-width="1" opacity="0.3"/>
      <line x1="-25" y1="115" x2="25" y2="115" stroke="#f59e0b" stroke-width="1" opacity="0.3"/>
    </g>
  </g>

  <!-- Theme extras -->

    <g opacity="0.3">
      <text x="150" y="180" font-family="Courier New" font-size="10" fill="#ef4444">From: admin@...</text>
      <text x="900" y="200" font-family="Courier New" font-size="10" fill="#ef4444">Click here now</text>
      <text x="120" y="440" font-family="Courier New" font-size="10" fill="#ef4444">credential.steal</text>
      <text x="920" y="430" font-family="Courier New" font-size="10" fill="#ef4444">redirect(evil)</text>
    </g>

  <!-- Floating code fragments -->
  <g font-family="Courier New, monospace" font-size="11" opacity="0.12" fill="#ef4444">
    <text x="50" y="100">phish.send()</text>
    <text x="950" y="120">cred.capture()</text>
    <text x="70" y="480">vishing_call()</text>
    <text x="920" y="500">social_eng()</text>
  </g>

  <!-- Title -->
  <text x="600" y="510" font-family="Arial, sans-serif" font-size="36" font-weight="bold" fill="white" text-anchor="middle" filter="url(#glow)">Signal Phishing + Ransomware</text>
  <text x="600" y="548" font-family="Arial, sans-serif" font-size="16" fill="#94a3b8" text-anchor="middle">Weekly Digest | State-Sponsored Attack + BlackField</text>

  <!-- Top badges -->
  <rect x="40" y="25" width="160" height="32" rx="16" fill="#ef4444" opacity="0.2" stroke="#ef4444" stroke-width="1"/>
  <text x="120" y="47" font-family="Arial, sans-serif" font-size="13" font-weight="bold" fill="#ef4444" text-anchor="middle">WEEKLY DIGEST</text>

  <rect x="1000" y="25" width="160" height="32" rx="16" fill="#3b82f6" opacity="0.2" stroke="#3b82f6" stroke-width="1"/>
  <text x="1080" y="47" font-family="Arial, sans-serif" font-size="13" font-weight="bold" fill="#93c5fd" text-anchor="middle">Feb 8, 2026</text>

  <!-- Footer -->
  <text x="1160" y="615" font-family="Arial, sans-serif" font-size="13" fill="#475569" text-anchor="end">tech.2twodragon.com</text>
</svg>