<?xml version="1.0" encoding="UTF-8"?>
<svg xmlns="http://www.w3.org/2000/svg" viewBox="0 0 1200 630" width="1200" height="630">
  <title>Network Segmentation Architecture</title>
  <defs>
    <linearGradient id="bg" x1="0%" y1="0%" x2="100%" y2="100%">
      <stop offset="0%" style="stop-color:#0a1520" />
      <stop offset="100%" style="stop-color:#152535" />
    </linearGradient>
    <linearGradient id="accent" x1="0%" y1="0%" x2="100%" y2="0%">
      <stop offset="0%" style="stop-color:#06b6d4" />
      <stop offset="100%" style="stop-color:#1abc9c" />
    </linearGradient>
  </defs>
  <rect width="1200" height="630" fill="url(#bg)" />
  <line x1="0" y1="105" x2="1200" y2="105" stroke="rgba(255,255,255,0.04)" stroke-width="1" />
  <line x1="0" y1="210" x2="1200" y2="210" stroke="rgba(255,255,255,0.04)" stroke-width="1" />
  <line x1="0" y1="315" x2="1200" y2="315" stroke="rgba(255,255,255,0.04)" stroke-width="1" />
  <line x1="0" y1="420" x2="1200" y2="420" stroke="rgba(255,255,255,0.04)" stroke-width="1" />
  <line x1="240" y1="0" x2="240" y2="630" stroke="rgba(255,255,255,0.03)" stroke-width="1" />
  <line x1="480" y1="0" x2="480" y2="630" stroke="rgba(255,255,255,0.03)" stroke-width="1" />
  <line x1="720" y1="0" x2="720" y2="630" stroke="rgba(255,255,255,0.03)" stroke-width="1" />
  <line x1="960" y1="0" x2="960" y2="630" stroke="rgba(255,255,255,0.03)" stroke-width="1" />
  <circle cx="1050" cy="450" r="200" fill="rgba(41,128,185,0.06)" />
  <circle cx="1050" cy="450" r="140" fill="rgba(26,188,156,0.07)" />
  
  <rect x="800" y="185" width="120" height="70" rx="6" fill="rgba(231,76,60,0.1)" stroke="rgba(231,76,60,0.5)" stroke-width="2" />
  <text x="860" y="227" font-family="Arial,sans-serif" font-size="18" font-weight="700" fill="#F5F7FA" text-anchor="middle">DMZ</text>
  <rect x="918" y="198" width="24" height="44" rx="3" fill="rgba(255,200,0,0.15)" stroke="rgba(255,200,0,0.6)" stroke-width="2" />
  <text x="930" y="253" font-family="Arial,sans-serif" font-size="11" fill="rgba(255,200,0,0.85)" text-anchor="middle">Firewall</text>
  <line x1="926" y1="210" x2="934" y2="210" stroke="rgba(255,200,0,0.6)" stroke-width="1.5" />
  <line x1="926" y1="220" x2="934" y2="220" stroke="rgba(255,200,0,0.6)" stroke-width="1.5" />
  <line x1="926" y1="230" x2="934" y2="230" stroke="rgba(255,200,0,0.6)" stroke-width="1.5" />
  <rect x="942" y="185" width="120" height="70" rx="6" fill="rgba(41,128,185,0.1)" stroke="rgba(41,128,185,0.5)" stroke-width="2" />
  <text x="1002" y="227" font-family="Arial,sans-serif" font-size="18" font-weight="700" fill="#F5F7FA" text-anchor="middle">Internal Zone</text>
  <rect x="1060" y="198" width="24" height="44" rx="3" fill="rgba(255,200,0,0.15)" stroke="rgba(255,200,0,0.6)" stroke-width="2" />
  <text x="1072" y="253" font-family="Arial,sans-serif" font-size="11" fill="rgba(255,200,0,0.85)" text-anchor="middle">Firewall</text>
  <line x1="1068" y1="210" x2="1076" y2="210" stroke="rgba(255,200,0,0.6)" stroke-width="1.5" />
  <line x1="1068" y1="220" x2="1076" y2="220" stroke="rgba(255,200,0,0.6)" stroke-width="1.5" />
  <line x1="1068" y1="230" x2="1076" y2="230" stroke="rgba(255,200,0,0.6)" stroke-width="1.5" />
  <rect x="1084" y="185" width="90" height="70" rx="6" fill="rgba(26,188,156,0.1)" stroke="rgba(26,188,156,0.5)" stroke-width="2" />
  <text x="1129" y="227" font-family="Arial,sans-serif" font-size="18" font-weight="700" fill="#F5F7FA" text-anchor="middle">Secure Zone</text>
  <rect x="840" y="340" width="340" height="70" rx="6" fill="rgba(155,89,182,0.08)" stroke="rgba(155,89,182,0.35)" stroke-width="1.5" stroke-dasharray="6,3" />
  <text x="1010" y="381" font-family="Arial,sans-serif" font-size="12" font-weight="700" fill="rgba(155,89,182,0.9)" text-anchor="middle">Monitoring</text>
  <rect x="0" y="0" width="6" height="630" fill="url(#accent)" />
  <rect x="80" y="44" width="240" height="34" rx="17" fill="rgba(41,128,185,0.15)" stroke="rgba(41,128,185,0.4)" stroke-width="1" />
  <text x="200" y="66" font-family="Arial,sans-serif" font-size="13" fill="#06b6d4" text-anchor="middle" letter-spacing="2">JANUARY 22, 2026</text>
  <text x="80" y="185" font-family="Arial,sans-serif" font-size="46" font-weight="700" fill="#ffffff">Network Segmentation</text>
  <text x="80" y="245" font-family="Arial,sans-serif" font-size="46" font-weight="700" fill="#ffffff">Architecture</text>
  <text x="80" y="300" font-family="Arial,sans-serif" font-size="20" fill="rgba(255,255,255,0.7)">DMZ, internal and secure zones with firewall enforcement</text>
  <rect x="80" y="320" width="120" height="3" rx="2" fill="url(#accent)" />
  <text x="80" y="370" font-family="Arial,sans-serif" font-size="15" fill="rgba(41,128,185,0.8)" letter-spacing="3">NETWORK SECURITY</text>
  <rect x="80" y="400" width="110" height="28" rx="14" fill="rgba(41,128,185,0.15)" stroke="rgba(41,128,185,0.4)" stroke-width="1" />
  <text x="135" y="419" font-family="Arial,sans-serif" font-size="13" fill="#06b6d4" text-anchor="middle">Segmentation</text>
  <rect x="202" y="400" width="80" height="28" rx="14" fill="rgba(26,188,156,0.15)" stroke="rgba(26,188,156,0.4)" stroke-width="1" />
  <text x="242" y="419" font-family="Arial,sans-serif" font-size="13" fill="#1abc9c" text-anchor="middle">Network</text>
  <rect x="294" y="400" width="65" height="28" rx="14" fill="rgba(255,255,255,0.08)" stroke="rgba(255,255,255,0.2)" stroke-width="1" />
  <text x="326" y="419" font-family="Arial,sans-serif" font-size="13" fill="rgba(255,255,255,0.7)" text-anchor="middle">Zones</text>
  <rect x="0" y="590" width="1200" height="40" fill="rgba(0,0,0,0.3)" />
  <text x="80" y="615" font-family="Arial,sans-serif" font-size="13" fill="rgba(255,255,255,0.5)">tech.2twodragon.com</text>
  <text x="1120" y="615" font-family="Arial,sans-serif" font-size="13" fill="rgba(255,255,255,0.5)" text-anchor="end">DevSecOps</text>
</svg>