<svg xmlns="http://www.w3.org/2000/svg" viewBox="0 0 1200 630" width="1200" height="630">
  <title>Aeternum Blockchain C2 Botnet and AWS AI Audit</title>
  <defs>
    <linearGradient id="bg" x1="0%" y1="0%" x2="100%" y2="100%">
      <stop offset="0%" style="stop-color:#0f1a0a"/>
      <stop offset="100%" style="stop-color:#1a3015"/>
    </linearGradient>
    <linearGradient id="accent" x1="0%" y1="0%" x2="0%" y2="100%">
      <stop offset="0%" style="stop-color:#27ae60"/>
      <stop offset="100%" style="stop-color:#f1c40f"/>
    </linearGradient>
  </defs>
  <rect width="1200" height="630" fill="url(#bg)"/>
  <line x1="0" y1="105" x2="1200" y2="105" stroke="rgba(255,255,255,0.04)" stroke-width="1"/>
  <line x1="0" y1="210" x2="1200" y2="210" stroke="rgba(255,255,255,0.04)" stroke-width="1"/>
  <line x1="0" y1="315" x2="1200" y2="315" stroke="rgba(255,255,255,0.04)" stroke-width="1"/>
  <line x1="0" y1="420" x2="1200" y2="420" stroke="rgba(255,255,255,0.04)" stroke-width="1"/>
  <line x1="240" y1="0" x2="240" y2="630" stroke="rgba(255,255,255,0.03)" stroke-width="1"/>
  <line x1="480" y1="0" x2="480" y2="630" stroke="rgba(255,255,255,0.03)" stroke-width="1"/>
  <line x1="720" y1="0" x2="720" y2="630" stroke="rgba(255,255,255,0.03)" stroke-width="1"/>
  <line x1="960" y1="0" x2="960" y2="630" stroke="rgba(255,255,255,0.03)" stroke-width="1"/>
  <!-- Blockchain chain links -->
  <!-- Block 1 -->
  <rect x="840" y="145" width="70" height="55" rx="5" fill="rgba(39,174,96,0.3)" stroke="rgba(39,174,96,0.65)" stroke-width="2.5"/>
  <!-- Block 2 -->
  <rect x="940" y="145" width="70" height="55" rx="5" fill="rgba(39,174,96,0.3)" stroke="rgba(39,174,96,0.65)" stroke-width="2.5"/>
  <!-- Block 3 -->
  <rect x="1040" y="145" width="70" height="55" rx="5" fill="rgba(39,174,96,0.3)" stroke="rgba(39,174,96,0.65)" stroke-width="2.5"/>
  <!-- Chain connectors -->
  <line x1="910" y1="172" x2="940" y2="172" stroke="rgba(39,174,96,0.6)" stroke-width="3"/>
  <line x1="1010" y1="172" x2="1040" y2="172" stroke="rgba(39,174,96,0.6)" stroke-width="3"/>
  <!-- Hash marks in blocks -->
  <rect x="850" y="158" width="50" height="5" rx="2" fill="rgba(255,255,255,0.3)"/>
  <rect x="850" y="168" width="40" height="5" rx="2" fill="rgba(255,255,255,0.2)"/>
  <rect x="850" y="178" width="45" height="5" rx="2" fill="rgba(255,255,255,0.25)"/>
  <rect x="950" y="158" width="50" height="5" rx="2" fill="rgba(255,255,255,0.3)"/>
  <rect x="950" y="168" width="40" height="5" rx="2" fill="rgba(255,255,255,0.2)"/>
  <rect x="950" y="178" width="45" height="5" rx="2" fill="rgba(255,255,255,0.25)"/>
  <rect x="1050" y="158" width="50" height="5" rx="2" fill="rgba(241,196,15,0.5)"/>
  <rect x="1050" y="168" width="40" height="5" rx="2" fill="rgba(241,196,15,0.35)"/>
  <rect x="1050" y="178" width="45" height="5" rx="2" fill="rgba(241,196,15,0.4)"/>
  <!-- Bot nodes connected to blockchain -->
  <circle cx="860" cy="280" r="18" fill="rgba(231,76,60,0.35)" stroke="rgba(231,76,60,0.6)" stroke-width="2"/>
  <circle cx="960" cy="295" r="15" fill="rgba(231,76,60,0.3)" stroke="rgba(231,76,60,0.55)" stroke-width="2"/>
  <circle cx="1050" cy="280" r="18" fill="rgba(231,76,60,0.35)" stroke="rgba(231,76,60,0.6)" stroke-width="2"/>
  <circle cx="910" cy="355" r="14" fill="rgba(231,76,60,0.28)" stroke="rgba(231,76,60,0.5)" stroke-width="2"/>
  <circle cx="1000" cy="360" r="14" fill="rgba(231,76,60,0.28)" stroke="rgba(231,76,60,0.5)" stroke-width="2"/>
  <!-- Connections from blockchain to bots -->
  <line x1="875" y1="200" x2="860" y2="262" stroke="rgba(231,76,60,0.35)" stroke-width="1.5" stroke-dasharray="5,4"/>
  <line x1="975" y1="200" x2="960" y2="280" stroke="rgba(231,76,60,0.35)" stroke-width="1.5" stroke-dasharray="5,4"/>
  <line x1="1075" y1="200" x2="1050" y2="262" stroke="rgba(231,76,60,0.35)" stroke-width="1.5" stroke-dasharray="5,4"/>
  <!-- Bot-to-bot connections -->
  <line x1="878" y1="285" x2="945" y2="292" stroke="rgba(231,76,60,0.25)" stroke-width="1.5"/>
  <line x1="975" y1="295" x2="1032" y2="285" stroke="rgba(231,76,60,0.25)" stroke-width="1.5"/>
  <line x1="870" y1="298" x2="896" y2="348" stroke="rgba(231,76,60,0.2)" stroke-width="1.5"/>
  <line x1="975" y1="309" x2="986" y2="346" stroke="rgba(231,76,60,0.2)" stroke-width="1.5"/>
  <circle cx="1050" cy="450" r="200" fill="rgba(255,255,255,0.02)"/>
  <circle cx="1050" cy="450" r="140" fill="rgba(255,255,255,0.02)"/>
  <rect x="0" y="0" width="6" height="630" fill="url(#accent)"/>
  <rect x="80" y="60" width="200" height="32" rx="4" fill="rgba(39,174,96,0.2)"/>
  <text x="180" y="81" font-family="Arial" font-size="12" fill="rgba(255,255,255,0.8)" text-anchor="middle" letter-spacing="1">FEBRUARY 27, 2026</text>
  <text x="80" y="185" font-family="Arial" font-size="44" font-weight="700" fill="#ffffff">Aeternum Blockchain C2 Botnet</text>
  <text x="80" y="245" font-family="Arial" font-size="44" font-weight="700" fill="#ffffff">and AWS AI Audit</text>
  <text x="80" y="300" font-family="Arial" font-size="19" fill="rgba(175,225,190,0.85)">Blockchain-based C2 infrastructure and cloud AI governance</text>
  <rect x="80" y="325" width="420" height="3" fill="url(#accent)"/>
  <text x="80" y="370" font-family="Arial" font-size="14" fill="rgba(39,174,96,0.9)" letter-spacing="2">SECURITY WEEKLY DIGEST</text>
  <rect x="80" y="400" width="135" height="36" rx="18" fill="rgba(39,174,96,0.3)" stroke="rgba(39,174,96,0.5)" stroke-width="1"/>
  <text x="147" y="423" font-family="Arial" font-size="13" fill="rgba(255,255,255,0.9)" text-anchor="middle">Aeternum C2</text>
  <rect x="229" y="400" width="110" height="36" rx="18" fill="rgba(241,196,15,0.3)" stroke="rgba(241,196,15,0.5)" stroke-width="1"/>
  <text x="284" y="423" font-family="Arial" font-size="13" fill="rgba(255,255,255,0.9)" text-anchor="middle">AWS Audit</text>
  <rect x="353" y="400" width="115" height="36" rx="18" fill="rgba(52,73,94,0.5)" stroke="rgba(255,255,255,0.2)" stroke-width="1"/>
  <text x="410" y="423" font-family="Arial" font-size="13" fill="rgba(255,255,255,0.9)" text-anchor="middle">Blockchain</text>
  <rect x="0" y="520" width="1200" height="110" fill="rgba(0,0,0,0.35)"/>
  <text x="80" y="545" font-family="Arial" font-size="13" fill="rgba(255,255,255,0.55)">tech.2twodragon.com</text>
  <text x="1120" y="545" font-family="Arial" font-size="13" fill="rgba(255,255,255,0.45)" text-anchor="end">DevSecOps</text>
</svg>
