<svg xmlns="http://www.w3.org/2000/svg" viewBox="0 0 1200 630" width="1200" height="630">
  <title>Tech Security Weekly Digest AI Ransomware Data</title>
  <defs>
    <linearGradient id="bg" x1="0%" y1="0%" x2="100%" y2="100%">
      <stop offset="0%" stop-color="#150a1a"/>
      <stop offset="100%" stop-color="#2a1535"/>
    </linearGradient>
    <linearGradient id="accent" x1="0%" y1="0%" x2="100%" y2="0%">
      <stop offset="0%" stop-color="#8e44ad"/>
      <stop offset="100%" stop-color="#e74c3c"/>
    </linearGradient>
  </defs>
  <rect width="1200" height="630" fill="url(#bg)"/>
  <line x1="0" y1="105" x2="1200" y2="105" stroke="rgba(255,255,255,0.04)" stroke-width="1"/>
  <line x1="0" y1="210" x2="1200" y2="210" stroke="rgba(255,255,255,0.04)" stroke-width="1"/>
  <line x1="0" y1="315" x2="1200" y2="315" stroke="rgba(255,255,255,0.04)" stroke-width="1"/>
  <line x1="0" y1="420" x2="1200" y2="420" stroke="rgba(255,255,255,0.04)" stroke-width="1"/>
  <line x1="240" y1="0" x2="240" y2="630" stroke="rgba(255,255,255,0.03)" stroke-width="1"/>
  <line x1="480" y1="0" x2="480" y2="630" stroke="rgba(255,255,255,0.03)" stroke-width="1"/>
  <line x1="720" y1="0" x2="720" y2="630" stroke="rgba(255,255,255,0.03)" stroke-width="1"/>
  <line x1="960" y1="0" x2="960" y2="630" stroke="rgba(255,255,255,0.03)" stroke-width="1"/>
  <circle cx="1050" cy="450" r="200" fill="rgba(255,255,255,0.02)"/>
  <circle cx="1050" cy="450" r="140" fill="rgba(255,255,255,0.02)"/>
  <!-- Encrypted file -->
  <rect x="965" y="345" width="95" height="120" rx="6" fill="rgba(142,68,173,0.15)" stroke="rgba(142,68,173,0.5)" stroke-width="2"/>
  <polygon points="1040,345 1060,365 1040,365" fill="rgba(142,68,173,0.4)"/>
  <!-- File lines -->
  <line x1="985" y1="380" x2="1040" y2="380" stroke="rgba(142,68,173,0.3)" stroke-width="2"/>
  <line x1="985" y1="393" x2="1030" y2="393" stroke="rgba(142,68,173,0.3)" stroke-width="2"/>
  <!-- Lock on file -->
  <rect x="993" y="405" width="38" height="30" rx="4" fill="rgba(231,76,60,0.3)" stroke="rgba(231,76,60,0.6)" stroke-width="2"/>
  <path d="M999 405 Q999 390 1012 390 Q1025 390 1025 405" fill="none" stroke="rgba(231,76,60,0.6)" stroke-width="3"/>
  <circle cx="1012" cy="419" r="4" fill="rgba(231,76,60,0.8)"/>
  <!-- Skull circle -->
  <circle cx="1105" cy="365" r="30" fill="rgba(231,76,60,0.15)" stroke="rgba(231,76,60,0.4)" stroke-width="2"/>
  <circle cx="1097" cy="360" r="5" fill="rgba(231,76,60,0.7)"/>
  <circle cx="1113" cy="360" r="5" fill="rgba(231,76,60,0.7)"/>
  <path d="M1101 370 L1105 374 L1109 370" fill="rgba(231,76,60,0.5)"/>
  <rect x="1094" y="377" width="6" height="7" rx="1" fill="rgba(231,76,60,0.6)"/>
  <rect x="1102" y="377" width="6" height="7" rx="1" fill="rgba(231,76,60,0.6)"/>
  <rect x="1110" y="377" width="6" height="7" rx="1" fill="rgba(231,76,60,0.6)"/>
  <rect x="0" y="0" width="6" height="630" fill="url(#accent)"/>
  <rect x="80" y="60" width="200" height="32" rx="4" fill="rgba(142,68,173,0.2)" stroke="rgba(142,68,173,0.4)" stroke-width="1"/>
  <text x="180" y="81" font-family="system-ui,sans-serif" font-size="14" fill="rgba(255,255,255,0.8)" text-anchor="middle" letter-spacing="1">FEBRUARY 8, 2026</text>
  <text x="80" y="185" font-family="system-ui,sans-serif" font-size="46" font-weight="700" fill="white" letter-spacing="-1">Ransomware &amp; Signal</text>
  <text x="80" y="245" font-family="system-ui,sans-serif" font-size="46" font-weight="700" fill="white" letter-spacing="-1">Phishing Attack</text>
  <text x="80" y="300" font-family="system-ui,sans-serif" font-size="19" fill="rgba(255,255,255,0.6)">Signal Phishing State Attack, BlackField Ransomware, Data Security</text>
  <rect x="80" y="325" width="420" height="3" rx="1" fill="url(#accent)"/>
  <text x="80" y="370" font-family="system-ui,sans-serif" font-size="14" fill="rgba(255,255,255,0.4)" letter-spacing="2">SECURITY WEEKLY DIGEST</text>
  <rect x="80" y="400" width="130" height="30" rx="15" fill="rgba(142,68,173,0.15)" stroke="rgba(142,68,173,0.4)" stroke-width="1"/>
  <text x="145" y="420" font-family="system-ui,sans-serif" font-size="13" fill="rgba(255,255,255,0.8)" text-anchor="middle">Signal Phishing</text>
  <rect x="225" y="400" width="120" height="30" rx="15" fill="rgba(231,76,60,0.15)" stroke="rgba(231,76,60,0.4)" stroke-width="1"/>
  <text x="285" y="420" font-family="system-ui,sans-serif" font-size="13" fill="rgba(255,255,255,0.8)" text-anchor="middle">Ransomware</text>
  <rect x="360" y="400" width="120" height="30" rx="15" fill="rgba(142,68,173,0.15)" stroke="rgba(142,68,173,0.4)" stroke-width="1"/>
  <text x="420" y="420" font-family="system-ui,sans-serif" font-size="13" fill="rgba(255,255,255,0.8)" text-anchor="middle">Data Security</text>
  <rect x="80" y="520" width="1040" height="1" fill="rgba(255,255,255,0.08)"/>
  <text x="80" y="545" font-family="system-ui,sans-serif" font-size="13" fill="rgba(255,255,255,0.3)" letter-spacing="1">tech.2twodragon.com</text>
  <text x="1120" y="545" font-family="system-ui,sans-serif" font-size="13" fill="rgba(255,255,255,0.3)" text-anchor="end">DevSecOps</text>
</svg>
