<svg xmlns="http://www.w3.org/2000/svg" viewBox="0 0 1200 630">
  <defs>
    <linearGradient id="bg" x1="0%" y1="0%" x2="100%" y2="100%">
      <stop offset="0%" style="stop-color:#0a0a1a"/>
      <stop offset="50%" style="stop-color:#1a0808"/>
      <stop offset="100%" style="stop-color:#0a0a1a"/>
    </linearGradient>
    <linearGradient id="docGrad" x1="0%" y1="0%" x2="100%" y2="100%">
      <stop offset="0%" style="stop-color:#ef4444;stop-opacity:0.9"/>
      <stop offset="100%" style="stop-color:#991b1b;stop-opacity:0.9"/>
    </linearGradient>
    <linearGradient id="chainGrad" x1="0%" y1="0%" x2="100%" y2="0%">
      <stop offset="0%" style="stop-color:#ef4444"/>
      <stop offset="100%" style="stop-color:#f59e0b"/>
    </linearGradient>
    <filter id="glow25">
      <feGaussianBlur stdDeviation="25" result="blur"/>
      <feMerge><feMergeNode in="blur"/><feMergeNode in="SourceGraphic"/></feMerge>
    </filter>
    <filter id="glow8">
      <feGaussianBlur stdDeviation="8" result="blur"/>
      <feMerge><feMergeNode in="blur"/><feMergeNode in="SourceGraphic"/></feMerge>
    </filter>
    <filter id="textGlow">
      <feGaussianBlur stdDeviation="4" result="blur"/>
      <feMerge><feMergeNode in="blur"/><feMergeNode in="SourceGraphic"/></feMerge>
    </filter>
  </defs>

  <!-- Background -->
  <rect width="1200" height="630" fill="url(#bg)"/>

  <!-- Ambient glow circles -->
  <circle cx="200" cy="150" r="200" fill="#ef4444" opacity="0.06" filter="url(#glow25)"/>
  <circle cx="1000" cy="480" r="220" fill="#f59e0b" opacity="0.07" filter="url(#glow25)"/>
  <circle cx="600" cy="315" r="280" fill="#ef4444" opacity="0.04" filter="url(#glow25)"/>
  <circle cx="900" cy="120" r="160" fill="#f59e0b" opacity="0.05" filter="url(#glow25)"/>

  <!-- Floating code fragments -->
  <text x="60" y="200" font-family="monospace" font-size="13" fill="#ef4444" opacity="0.12">exploit.chain(office_doc)</text>
  <text x="900" y="90" font-family="monospace" font-size="13" fill="#f59e0b" opacity="0.12">ctem.assess(surface)</text>
  <text x="80" y="520" font-family="monospace" font-size="13" fill="#ef4444" opacity="0.10">grist.rce.payload()</text>
  <text x="870" y="548" font-family="monospace" font-size="13" fill="#f59e0b" opacity="0.11">patch.verify(cve)</text>
  <text x="420" y="578" font-family="monospace" font-size="11" fill="#ef4444" opacity="0.10">0day.trigger(macro)</text>

  <!-- ===== CENTRAL ILLUSTRATION ===== -->

  <!-- Main document body (large, ~60% canvas height) -->
  <rect x="410" y="85" width="280" height="360" rx="14" fill="#1e1e2e" stroke="#ef4444" stroke-width="2.5"/>
  <!-- Document header tab -->
  <rect x="410" y="85" width="280" height="46" rx="14" fill="#ef4444" opacity="0.88"/>
  <rect x="410" y="117" width="280" height="14" fill="#ef4444" opacity="0.88"/>
  <!-- W icon + label -->
  <text x="432" y="118" font-family="Arial Black,sans-serif" font-size="24" font-weight="900" fill="white">W</text>
  <text x="462" y="118" font-family="Arial,sans-serif" font-size="13" fill="white" opacity="0.9">MS Office Document</text>

  <!-- Document content lines -->
  <rect x="434" y="146" width="200" height="9" rx="4" fill="#374151" opacity="0.7"/>
  <rect x="434" y="164" width="160" height="9" rx="4" fill="#374151" opacity="0.5"/>
  <rect x="434" y="182" width="180" height="9" rx="4" fill="#374151" opacity="0.5"/>
  <rect x="434" y="200" width="130" height="9" rx="4" fill="#374151" opacity="0.4"/>
  <rect x="434" y="218" width="170" height="9" rx="4" fill="#374151" opacity="0.35"/>
  <rect x="434" y="236" width="140" height="9" rx="4" fill="#374151" opacity="0.3"/>

  <!-- Warning tint overlay on document -->
  <rect x="410" y="85" width="280" height="360" rx="14" fill="#ef4444" opacity="0.06"/>

  <!-- CRACK main diagonal -->
  <polyline points="528,85 498,155 535,215 500,275 520,340 545,445"
    stroke="#ef4444" stroke-width="3.5" fill="none" stroke-linecap="round" opacity="0.95"/>
  <!-- Crack glow -->
  <polyline points="528,85 498,155 535,215 500,275 520,340 545,445"
    stroke="#ef4444" stroke-width="12" fill="none" opacity="0.10" stroke-linecap="round"/>
  <!-- Branch cracks -->
  <line x1="498" y1="155" x2="446" y2="182" stroke="#f59e0b" stroke-width="2" opacity="0.8"/>
  <line x1="535" y1="215" x2="585" y2="236" stroke="#f59e0b" stroke-width="2" opacity="0.8"/>
  <line x1="500" y1="275" x2="452" y2="300" stroke="#ef4444" stroke-width="1.5" opacity="0.7"/>
  <line x1="520" y1="340" x2="572" y2="358" stroke="#ef4444" stroke-width="1.5" opacity="0.7"/>

  <!-- Warning triangle on document -->
  <polygon points="555,250 532,292 578,292" fill="none" stroke="#f59e0b" stroke-width="2.5" opacity="0.9"/>
  <text x="552" y="287" font-family="Arial,sans-serif" font-size="15" font-weight="bold" fill="#f59e0b" opacity="0.9">!</text>

  <!-- Chain to EMAIL (upper-left) -->
  <line x1="418" y1="190" x2="220" y2="165" stroke="url(#chainGrad)" stroke-width="2.2" stroke-dasharray="8,4" opacity="0.85"/>
  <circle cx="356" cy="177" r="5" fill="#ef4444" opacity="0.85"/>
  <circle cx="290" cy="171" r="5" fill="#f59e0b" opacity="0.85"/>
  <text x="298" y="162" font-family="monospace" font-size="10" fill="#f59e0b" opacity="0.9">phishing</text>
  <!-- Email icon -->
  <rect x="158" y="144" width="62" height="46" rx="7" fill="#1e1e2e" stroke="#ef4444" stroke-width="2"/>
  <polyline points="158,148 189,175 220,148" fill="none" stroke="#ef4444" stroke-width="1.8"/>
  <text x="169" y="204" font-family="monospace" font-size="10" fill="#94a3b8">Email</text>

  <!-- Chain to BROWSER (mid-left) -->
  <line x1="413" y1="285" x2="200" y2="305" stroke="url(#chainGrad)" stroke-width="2.2" stroke-dasharray="8,4" opacity="0.85"/>
  <circle cx="340" cy="294" r="5" fill="#ef4444" opacity="0.85"/>
  <circle cx="272" cy="300" r="5" fill="#f59e0b" opacity="0.85"/>
  <text x="265" y="289" font-family="monospace" font-size="10" fill="#f59e0b" opacity="0.9">macro.exec</text>
  <!-- Browser icon -->
  <circle cx="170" cy="308" r="30" fill="#1e1e2e" stroke="#ef4444" stroke-width="2"/>
  <circle cx="170" cy="308" r="15" fill="none" stroke="#ef4444" stroke-width="1.5"/>
  <line x1="154" y1="308" x2="186" y2="308" stroke="#ef4444" stroke-width="1.5"/>
  <line x1="170" y1="278" x2="170" y2="338" stroke="#ef4444" stroke-width="1.5"/>
  <text x="148" y="354" font-family="monospace" font-size="10" fill="#94a3b8">Browser</text>

  <!-- Chain to SERVER (lower-left) -->
  <line x1="420" y1="380" x2="215" y2="420" stroke="url(#chainGrad)" stroke-width="2.2" stroke-dasharray="8,4" opacity="0.85"/>
  <circle cx="352" cy="397" r="5" fill="#ef4444" opacity="0.85"/>
  <circle cx="285" cy="410" r="5" fill="#f59e0b" opacity="0.85"/>
  <text x="278" y="402" font-family="monospace" font-size="10" fill="#f59e0b" opacity="0.9">RCE</text>
  <!-- Server icon -->
  <rect x="165" y="400" width="60" height="48" rx="6" fill="#1e1e2e" stroke="#ef4444" stroke-width="2"/>
  <rect x="173" y="408" width="44" height="11" rx="3" fill="#374151"/>
  <rect x="173" y="424" width="44" height="11" rx="3" fill="#374151"/>
  <circle cx="211" cy="413" r="3" fill="#ef4444"/>
  <circle cx="211" cy="429" r="3" fill="#f59e0b"/>
  <text x="163" y="462" font-family="monospace" font-size="10" fill="#94a3b8">Server</text>

  <!-- CTEM Framework panel (right) -->
  <rect x="750" y="100" width="215" height="310" rx="10" fill="#0f172a" stroke="#f59e0b" stroke-width="1.5" opacity="0.95"/>
  <rect x="750" y="100" width="215" height="36" rx="10" fill="#f59e0b" opacity="0.18"/>
  <text x="768" y="123" font-family="Arial,sans-serif" font-size="13" font-weight="bold" fill="#f59e0b">CTEM Framework</text>

  <rect x="768" y="150" width="180" height="24" rx="5" fill="#1e293b"/>
  <text x="780" y="166" font-family="monospace" font-size="11" fill="#94a3b8">1. Scoping</text>
  <circle cx="932" cy="162" r="5" fill="#22c55e"/>

  <rect x="768" y="182" width="180" height="24" rx="5" fill="#1e293b"/>
  <text x="780" y="198" font-family="monospace" font-size="11" fill="#94a3b8">2. Discovery</text>
  <circle cx="932" cy="194" r="5" fill="#22c55e"/>

  <rect x="768" y="214" width="180" height="24" rx="5" fill="#1e293b"/>
  <text x="780" y="230" font-family="monospace" font-size="11" fill="#f59e0b">3. Prioritization</text>
  <circle cx="932" cy="226" r="5" fill="#f59e0b"/>

  <rect x="768" y="246" width="180" height="24" rx="5" fill="#1e293b"/>
  <text x="780" y="262" font-family="monospace" font-size="11" fill="#ef4444">4. Validation</text>
  <circle cx="932" cy="258" r="5" fill="#ef4444"/>

  <rect x="768" y="278" width="180" height="24" rx="5" fill="#1e293b"/>
  <text x="780" y="294" font-family="monospace" font-size="11" fill="#ef4444">5. Mobilization</text>
  <circle cx="932" cy="290" r="5" fill="#ef4444"/>

  <!-- CVE badge -->
  <rect x="768" y="318" width="180" height="76" rx="6" fill="#1a0808" stroke="#ef4444" stroke-width="1.5"/>
  <text x="780" y="337" font-family="monospace" font-size="11" fill="#ef4444" font-weight="bold">CVE-2026-XXXX</text>
  <text x="780" y="354" font-family="monospace" font-size="10" fill="#94a3b8">CVSS: 9.8 CRITICAL</text>
  <text x="780" y="370" font-family="monospace" font-size="10" fill="#94a3b8">Vector: RCE / Network</text>
  <text x="780" y="386" font-family="monospace" font-size="10" fill="#f59e0b">Patch: Pending</text>

  <!-- ===== END CENTRAL ILLUSTRATION ===== -->

  <!-- Top badge pill -->
  <rect x="40" y="34" width="272" height="34" rx="17" fill="#1e1e2e" stroke="#ef4444" stroke-width="1.5"/>
  <rect x="40" y="34" width="128" height="34" rx="17" fill="#ef4444" opacity="0.92"/>
  <text x="104" y="56" font-family="Arial,sans-serif" font-size="12" font-weight="bold" fill="white" text-anchor="middle">WEEKLY DIGEST</text>
  <text x="240" y="56" font-family="Arial,sans-serif" font-size="12" fill="#94a3b8" text-anchor="middle">January 28, 2026</text>

  <!-- Title -->
  <text x="40" y="508" font-family="Arial Black,sans-serif" font-size="36" font-weight="900" fill="white" filter="url(#textGlow)">MS Office Zero-Day Chain</text>

  <!-- Subtitle -->
  <text x="40" y="540" font-family="Arial,sans-serif" font-size="16" fill="#94a3b8">CTEM Framework  |  Grist Core RCE  |  Exploit Chain Analysis</text>

  <!-- Footer separator -->
  <line x1="40" y1="585" x2="1160" y2="585" stroke="#1e293b" stroke-width="1.5"/>

  <!-- Footer counts -->
  <text x="40" y="610" font-family="monospace" font-size="12" fill="#64748b">21 News</text>
  <text x="132" y="610" font-family="monospace" font-size="12" fill="#ef4444">6 Security</text>
  <text x="244" y="610" font-family="monospace" font-size="12" fill="#8b5cf6">3 AI/ML</text>
  <text x="336" y="610" font-family="monospace" font-size="12" fill="#06b6d4">2 Cloud</text>
  <text x="418" y="610" font-family="monospace" font-size="12" fill="#22c55e">4 DevOps</text>

  <!-- Site URL -->
  <text x="1160" y="610" font-family="monospace" font-size="12" fill="#475569" text-anchor="end">tech.2twodragon.com</text>
</svg>
