<svg xmlns="http://www.w3.org/2000/svg" viewBox="0 0 1200 630" width="1200" height="630" role="img" aria-label="Research-based weekly digest cover: Apple phishing envelope, NIST CVE overflow, Palantir manifesto wall">
<defs>
  <linearGradient id="bgSpread" x1="0%" y1="0%" x2="100%" y2="100%">
    <stop offset="0%" stop-color="#0B1326"/>
    <stop offset="55%" stop-color="#0D1530"/>
    <stop offset="100%" stop-color="#141034"/>
  </linearGradient>
  <linearGradient id="heroPanel" x1="0%" y1="0%" x2="0%" y2="100%">
    <stop offset="0%" stop-color="#12213E"/>
    <stop offset="100%" stop-color="#0E1A33"/>
  </linearGradient>
  <linearGradient id="appleMail" x1="0%" y1="0%" x2="0%" y2="100%">
    <stop offset="0%" stop-color="#F5F7FA"/>
    <stop offset="100%" stop-color="#DCE2EB"/>
  </linearGradient>
  <linearGradient id="phishMail" x1="0%" y1="0%" x2="0%" y2="100%">
    <stop offset="0%" stop-color="#FFF3B5"/>
    <stop offset="100%" stop-color="#F6C945"/>
  </linearGradient>
  <linearGradient id="funnelGrad" x1="0%" y1="0%" x2="0%" y2="100%">
    <stop offset="0%" stop-color="#FFB703" stop-opacity="0.9"/>
    <stop offset="100%" stop-color="#FB8500" stop-opacity="0.75"/>
  </linearGradient>
  <linearGradient id="paperGrad" x1="0%" y1="0%" x2="0%" y2="100%">
    <stop offset="0%" stop-color="#EEE8D5"/>
    <stop offset="100%" stop-color="#D9D1BB"/>
  </linearGradient>
  <radialGradient id="hotRed" cx="50%" cy="50%" r="50%">
    <stop offset="0%" stop-color="#E63946" stop-opacity="0.55"/>
    <stop offset="100%" stop-color="#E63946" stop-opacity="0"/>
  </radialGradient>
  <radialGradient id="hotBlue" cx="50%" cy="50%" r="50%">
    <stop offset="0%" stop-color="#3A86FF" stop-opacity="0.5"/>
    <stop offset="100%" stop-color="#3A86FF" stop-opacity="0"/>
  </radialGradient>
  <radialGradient id="hotAmber" cx="50%" cy="50%" r="50%">
    <stop offset="0%" stop-color="#FFB703" stop-opacity="0.5"/>
    <stop offset="100%" stop-color="#FFB703" stop-opacity="0"/>
  </radialGradient>
  <pattern id="paperWeave" x="0" y="0" width="6" height="6" patternUnits="userSpaceOnUse">
    <rect width="6" height="6" fill="transparent"/>
    <path d="M0 3 L6 3" stroke="#B8AF92" stroke-width="0.35" opacity="0.45"/>
  </pattern>
  <pattern id="envGrid" x="0" y="0" width="40" height="40" patternUnits="userSpaceOnUse">
    <circle cx="20" cy="20" r="0.8" fill="#2A3256" opacity="0.6"/>
  </pattern>
  <filter id="softShadow" x="-10%" y="-10%" width="130%" height="130%">
    <feGaussianBlur in="SourceAlpha" stdDeviation="3"/>
    <feOffset dx="2" dy="4"/>
    <feComponentTransfer><feFuncA type="linear" slope="0.55"/></feComponentTransfer>
    <feMerge><feMergeNode/><feMergeNode in="SourceGraphic"/></feMerge>
  </filter>
  <filter id="textShadow" x="-10%" y="-10%" width="130%" height="130%">
    <feGaussianBlur in="SourceAlpha" stdDeviation="1.2"/>
    <feOffset dx="1" dy="1.5"/>
    <feComponentTransfer><feFuncA type="linear" slope="0.7"/></feComponentTransfer>
    <feMerge><feMergeNode/><feMergeNode in="SourceGraphic"/></feMerge>
  </filter>
  <clipPath id="envMask">
    <rect x="60" y="130" width="540" height="380" rx="10" ry="10"/>
  </clipPath>
</defs>

<!-- Background -->
<rect width="1200" height="630" fill="url(#bgSpread)"/>
<rect width="1200" height="630" fill="url(#envGrid)"/>

<!-- Ambient glows -->
<circle cx="300" cy="180" r="140" fill="url(#hotBlue)">
  <animate attributeName="opacity" values="0.55;0.9;0.55" dur="6.4s" repeatCount="indefinite"/>
  <animate attributeName="r" values="140;155;140" dur="8.2s" repeatCount="indefinite"/>
</circle>
<circle cx="950" cy="200" r="110" fill="url(#hotAmber)">
  <animate attributeName="opacity" values="0.45;0.85;0.45" dur="5.8s" repeatCount="indefinite"/>
  <animate attributeName="r" values="110;128;110" dur="7.6s" repeatCount="indefinite"/>
</circle>
<circle cx="980" cy="520" r="110" fill="url(#hotRed)">
  <animate attributeName="opacity" values="0.4;0.75;0.4" dur="7.2s" repeatCount="indefinite"/>
  <animate attributeName="r" values="110;124;110" dur="9.1s" repeatCount="indefinite"/>
</circle>

<!-- Starfield ambient dots (12 twinkles) -->
<g fill="#8FB8FF">
  <circle cx="160" cy="62" r="1.2"><animate attributeName="opacity" values="0.2;1;0.2" dur="3.1s" repeatCount="indefinite"/></circle>
  <circle cx="420" cy="70" r="1.0"><animate attributeName="opacity" values="0.2;0.9;0.2" dur="4.4s" repeatCount="indefinite"/></circle>
  <circle cx="720" cy="64" r="1.3"><animate attributeName="opacity" values="0.25;1;0.25" dur="3.7s" repeatCount="indefinite"/></circle>
  <circle cx="1040" cy="72" r="0.9"><animate attributeName="opacity" values="0.2;0.85;0.2" dur="5.2s" repeatCount="indefinite"/></circle>
  <circle cx="80" cy="340" r="1.1"><animate attributeName="opacity" values="0.15;0.8;0.15" dur="4.8s" repeatCount="indefinite"/></circle>
  <circle cx="640" cy="310" r="1.2"><animate attributeName="opacity" values="0.2;0.95;0.2" dur="3.3s" repeatCount="indefinite"/></circle>
  <circle cx="1160" cy="316" r="1.0"><animate attributeName="opacity" values="0.2;0.85;0.2" dur="4.1s" repeatCount="indefinite"/></circle>
  <circle cx="18" cy="500" r="0.9"><animate attributeName="opacity" values="0.18;0.8;0.18" dur="5.4s" repeatCount="indefinite"/></circle>
  <circle cx="620" cy="516" r="1.3"><animate attributeName="opacity" values="0.22;1;0.22" dur="3.9s" repeatCount="indefinite"/></circle>
  <circle cx="1180" cy="508" r="1.0"><animate attributeName="opacity" values="0.2;0.9;0.2" dur="4.7s" repeatCount="indefinite"/></circle>
  <circle cx="240" cy="596" r="1.2"><animate attributeName="opacity" values="0.15;0.85;0.15" dur="5.6s" repeatCount="indefinite"/></circle>
  <circle cx="1100" cy="586" r="1.1"><animate attributeName="opacity" values="0.2;0.9;0.2" dur="4.2s" repeatCount="indefinite"/></circle>
</g>

<!-- Top header stripe -->
<rect x="0" y="0" width="1200" height="56" fill="#050813" opacity="0.92"/>
<text x="36" y="36" font-family="Helvetica, Arial, sans-serif" font-size="18" font-weight="700" fill="#8FB8FF" letter-spacing="2.5">WEEKLY DIGEST</text>
<text x="1160" y="36" font-family="Helvetica, Arial, sans-serif" font-size="15" font-weight="600" fill="#7DA3D9" letter-spacing="1.5" text-anchor="end">2026.04.20</text>
<rect x="0" y="54" width="1200" height="2" fill="#3A86FF" opacity="0.85">
  <animate attributeName="opacity" values="0.4;1;0.4" dur="4.8s" repeatCount="indefinite"/>
</rect>

<!-- ================== LEFT PANEL: Apple phishing (hero 60%) ================== -->
<rect x="32" y="80" width="600" height="510" rx="14" ry="14" fill="url(#heroPanel)" stroke="#3A86FF" stroke-width="1.6" opacity="0.98"/>
<rect x="32" y="80" width="600" height="4" fill="#3A86FF" opacity="0.85">
  <animate attributeName="opacity" values="0.5;1;0.5" dur="3.8s" repeatCount="indefinite"/>
</rect>

<!-- Hero label -->
<text x="54" y="112" font-family="Helvetica, Arial, sans-serif" font-size="13" font-weight="700" fill="#7DA3D9" letter-spacing="3">HIGH SEVERITY  /  01</text>
<text x="54" y="144" font-family="Helvetica, Arial, sans-serif" font-size="34" font-weight="800" fill="#F8FAFC" filter="url(#textShadow)">Apple Servers Weaponized</text>
<text x="54" y="174" font-family="Helvetica, Arial, sans-serif" font-size="20" font-weight="500" fill="#CBD5E1">Real alerts carry fake $899 lure</text>

<!-- Inner scene: Apple envelope (real) with phishing letter (fake) inside -->
<!-- Outer Apple envelope, slightly tilted -->
<g transform="translate(60,200) rotate(-3 270 170)" filter="url(#softShadow)">
  <rect x="0" y="0" width="540" height="340" rx="10" ry="10" fill="url(#appleMail)" stroke="#B8C2CF" stroke-width="1.4"/>
  <!-- Envelope fold triangle -->
  <path d="M0 0 L270 160 L540 0 Z" fill="#E8EDF4" stroke="#B8C2CF" stroke-width="1"/>
  <!-- From line (Apple) -->
  <text x="24" y="28" font-family="Helvetica, Arial, sans-serif" font-size="13" font-weight="600" fill="#4A5568">From: apple.com</text>
  <text x="24" y="46" font-family="Helvetica, Arial, sans-serif" font-size="11" fill="#6B7280">SPF / DKIM / DMARC: PASS</text>

  <!-- Apple logo simplified -->
  <g transform="translate(480,20)">
    <path d="M18 6 C14 2 8 2 6 8 C4 14 8 22 14 22 C20 22 24 14 22 8 C21 5 20 3 18 6 Z M15 2 C16 0 18 0 18 2 C18 4 16 4 15 2 Z"
          fill="#1D1D1F"/>
  </g>

  <!-- Real alert banner -->
  <rect x="24" y="62" width="492" height="28" fill="#F0F3F7" stroke="#D1D8E0" stroke-width="1" rx="4"/>
  <text x="36" y="81" font-family="Helvetica, Arial, sans-serif" font-size="13" font-weight="700" fill="#1D1D1F">Account information updated</text>

  <!-- Hidden phishing slip sliding out -->
  <g transform="translate(56,110)">
    <rect x="0" y="0" width="430" height="180" rx="6" ry="6" fill="url(#phishMail)" stroke="#E63946" stroke-width="2.2" filter="url(#softShadow)">
      <animate attributeName="y" values="0;-6;0" dur="3.4s" repeatCount="indefinite"/>
    </rect>
    <!-- tape -->
    <rect x="180" y="-8" width="70" height="16" fill="#F8FAFC" opacity="0.75" transform="rotate(-4 215 0)"/>

    <text x="20" y="34" font-family="Helvetica, Arial, sans-serif" font-size="20" font-weight="800" fill="#7A1D00">Dear User  -  899 USD iPhone</text>
    <text x="20" y="58" font-family="Helvetica, Arial, sans-serif" font-size="16" font-weight="700" fill="#7A1D00">Via Pay-Pal. To Cancel:</text>
    <!-- fake call number -->
    <rect x="20" y="72" width="250" height="34" rx="4" fill="#E63946" stroke="#7A1D00" stroke-width="1.5">
      <animate attributeName="opacity" values="0.85;1;0.85" dur="1.6s" repeatCount="indefinite"/>
    </rect>
    <text x="36" y="96" font-family="Helvetica, Arial, sans-serif" font-size="18" font-weight="800" fill="#FFF5F5">CALL 1-802-353-0761</text>
    <text x="20" y="132" font-family="Helvetica, Arial, sans-serif" font-size="11" fill="#7A1D00" font-weight="600">injected via name fields</text>
  </g>

  <!-- Arrow: legit shell -> malicious content -->
  <path d="M500 200 Q520 240 500 280" stroke="#E63946" stroke-width="2.2" fill="none" stroke-dasharray="4 4">
    <animate attributeName="stroke-dashoffset" values="0;-16" dur="1.2s" repeatCount="indefinite"/>
    <animate attributeName="stroke-width" values="2.2;3.2;2.2" dur="2.4s" repeatCount="indefinite"/>
  </path>
  <text x="436" y="314" font-family="Helvetica, Arial, sans-serif" font-size="10" fill="#E63946" font-weight="700">hybrid phishing
    <animate attributeName="opacity" values="0.6;1;0.6" dur="2.2s" repeatCount="indefinite"/>
  </text>
  <!-- Alert spark marks around phishing letter (8 marks) -->
  <g fill="#E63946">
    <circle cx="18" cy="108" r="2.5"><animate attributeName="opacity" values="0;1;0" dur="1.9s" repeatCount="indefinite"/></circle>
    <circle cx="500" cy="108" r="2.5"><animate attributeName="opacity" values="0;1;0" dur="2.1s" repeatCount="indefinite"/></circle>
    <circle cx="18" cy="292" r="2.5"><animate attributeName="opacity" values="0;1;0" dur="2.3s" repeatCount="indefinite"/></circle>
    <circle cx="500" cy="292" r="2.5"><animate attributeName="opacity" values="0;1;0" dur="1.7s" repeatCount="indefinite"/></circle>
    <circle cx="60" cy="100" r="1.5"><animate attributeName="opacity" values="0;0.9;0" dur="2.8s" repeatCount="indefinite"/></circle>
    <circle cx="460" cy="100" r="1.5"><animate attributeName="opacity" values="0;0.9;0" dur="3.1s" repeatCount="indefinite"/></circle>
    <circle cx="58" cy="298" r="1.5"><animate attributeName="opacity" values="0;0.9;0" dur="2.6s" repeatCount="indefinite"/></circle>
    <circle cx="458" cy="298" r="1.5"><animate attributeName="opacity" values="0;0.9;0" dur="3.3s" repeatCount="indefinite"/></circle>
  </g>
</g>

<!-- Key insight tag -->
<g transform="translate(54,560)">
  <rect x="0" y="0" width="210" height="24" rx="3" fill="#E63946" opacity="0.95"/>
  <text x="10" y="17" font-family="Helvetica, Arial, sans-serif" font-size="12" font-weight="700" fill="#FFF5F5">TRUSTED CHANNEL ABUSED</text>
</g>
<text x="280" y="577" font-family="Helvetica, Arial, sans-serif" font-size="14" fill="#A5B4C4" font-style="italic">Bleeping  /  Apr 18</text>

<!-- ================== TOP RIGHT: NIST CVE overflow ================== -->
<rect x="652" y="80" width="516" height="248" rx="14" ry="14" fill="#1C2541" stroke="#FFB703" stroke-width="1.6" opacity="0.97"/>
<rect x="652" y="80" width="516" height="4" fill="#FFB703" opacity="0.85">
  <animate attributeName="opacity" values="0.5;1;0.5" dur="4.2s" repeatCount="indefinite"/>
</rect>

<text x="670" y="110" font-family="Helvetica, Arial, sans-serif" font-size="12" font-weight="700" fill="#FFC13B" letter-spacing="3">MEDIUM  /  02</text>
<text x="670" y="138" font-family="Helvetica, Arial, sans-serif" font-size="26" font-weight="800" fill="#F8FAFC" filter="url(#textShadow)">NIST Halts Low-Priority CVEs</text>
<text x="670" y="162" font-family="Helvetica, Arial, sans-serif" font-size="15" fill="#CBD5E1">Only KEV and EO 14028 get scored</text>

<!-- Funnel with flood -->
<g transform="translate(680,178)">
  <!-- Input CVE tags pouring in (decorative, 3 only) -->
  <g font-family="Monaco, monospace" font-size="11" fill="#FFB703">
    <text x="0" y="0" opacity="0.85">CVE-2026-1337<animate attributeName="y" values="-20;120" dur="3.6s" repeatCount="indefinite"/></text>
    <text x="70" y="-6" opacity="0.7">CVE-2026-9021<animate attributeName="y" values="-26;120" dur="4.2s" repeatCount="indefinite"/></text>
    <text x="140" y="-10" opacity="0.8">CVE-2026-4412<animate attributeName="y" values="-30;120" dur="3.2s" repeatCount="indefinite"/></text>
  </g>

  <!-- Funnel shape -->
  <path d="M10 50 L230 50 L160 110 L80 110 Z" fill="url(#funnelGrad)" opacity="0.55" stroke="#FFB703" stroke-width="1.5">
    <animate attributeName="opacity" values="0.4;0.7;0.4" dur="3.6s" repeatCount="indefinite"/>
  </path>
  <path d="M80 110 L80 130 L160 130 L160 110 Z" fill="#FB8500" opacity="0.7" stroke="#FB8500" stroke-width="1">
    <animate attributeName="opacity" values="0.55;0.9;0.55" dur="2.4s" repeatCount="indefinite"/>
  </path>

  <!-- Funnel flow particles (10 droplets streaming) -->
  <g fill="#FFB703">
    <circle cx="60" cy="55" r="1.6"><animate attributeName="cy" values="52;112;112" dur="1.4s" repeatCount="indefinite"/><animate attributeName="opacity" values="1;1;0" dur="1.4s" repeatCount="indefinite"/></circle>
    <circle cx="100" cy="55" r="1.6"><animate attributeName="cy" values="52;112;112" dur="1.7s" repeatCount="indefinite"/><animate attributeName="opacity" values="1;1;0" dur="1.7s" repeatCount="indefinite"/></circle>
    <circle cx="140" cy="55" r="1.6"><animate attributeName="cy" values="52;112;112" dur="1.2s" repeatCount="indefinite"/><animate attributeName="opacity" values="1;1;0" dur="1.2s" repeatCount="indefinite"/></circle>
    <circle cx="180" cy="55" r="1.6"><animate attributeName="cy" values="52;112;112" dur="1.9s" repeatCount="indefinite"/><animate attributeName="opacity" values="1;1;0" dur="1.9s" repeatCount="indefinite"/></circle>
    <circle cx="40" cy="55" r="1.4"><animate attributeName="cy" values="52;112;112" dur="1.5s" repeatCount="indefinite"/><animate attributeName="opacity" values="0.9;0.9;0" dur="1.5s" repeatCount="indefinite"/></circle>
    <circle cx="200" cy="55" r="1.4"><animate attributeName="cy" values="52;112;112" dur="1.8s" repeatCount="indefinite"/><animate attributeName="opacity" values="0.9;0.9;0" dur="1.8s" repeatCount="indefinite"/></circle>
    <circle cx="80" cy="55" r="1.2"><animate attributeName="cy" values="52;112;112" dur="1.3s" repeatCount="indefinite"/><animate attributeName="opacity" values="0.85;0.85;0" dur="1.3s" repeatCount="indefinite"/></circle>
    <circle cx="120" cy="55" r="1.2"><animate attributeName="cy" values="52;112;112" dur="1.6s" repeatCount="indefinite"/><animate attributeName="opacity" values="0.85;0.85;0" dur="1.6s" repeatCount="indefinite"/></circle>
    <circle cx="160" cy="55" r="1.2"><animate attributeName="cy" values="52;112;112" dur="2.0s" repeatCount="indefinite"/><animate attributeName="opacity" values="0.85;0.85;0" dur="2.0s" repeatCount="indefinite"/></circle>
    <circle cx="220" cy="55" r="1.2"><animate attributeName="cy" values="52;112;112" dur="1.1s" repeatCount="indefinite"/><animate attributeName="opacity" values="0.85;0.85;0" dur="1.1s" repeatCount="indefinite"/></circle>
  </g>

  <!-- Gate (priority filter) with scan -->
  <rect x="75" y="116" width="90" height="6" fill="#E63946">
    <animate attributeName="opacity" values="0.6;1;0.6" dur="1.1s" repeatCount="indefinite"/>
    <animate attributeName="width" values="90;94;90" dur="2.4s" repeatCount="indefinite"/>
  </rect>
  <text x="90" y="148" font-family="Helvetica, Arial, sans-serif" font-size="9" font-weight="700" fill="#E63946">KEV GATE
    <animate attributeName="opacity" values="0.7;1;0.7" dur="1.8s" repeatCount="indefinite"/>
  </text>

  <!-- KEV only escapes -->
  <text x="100" y="176" font-family="Monaco, monospace" font-size="10" fill="#F8FAFC" font-weight="600">CVE-KEV-0xA1<animate attributeName="opacity" values="0;1;1;0" dur="2.5s" repeatCount="indefinite"/></text>
  <!-- Rejected X marks on backlog pile (4 pulses) -->
  <g stroke="#E63946" stroke-width="1.5" fill="none">
    <path d="M260 90 L275 105 M275 90 L260 105"><animate attributeName="opacity" values="0;1;0" dur="2.1s" repeatCount="indefinite"/></path>
    <path d="M260 106 L275 121 M275 106 L260 121"><animate attributeName="opacity" values="0;1;0" dur="2.4s" repeatCount="indefinite"/></path>
    <path d="M260 122 L275 137 M275 122 L260 137"><animate attributeName="opacity" values="0;1;0" dur="2.7s" repeatCount="indefinite"/></path>
    <path d="M260 138 L275 153 M275 138 L260 153"><animate attributeName="opacity" values="0;1;0" dur="3.0s" repeatCount="indefinite"/></path>
  </g>

  <!-- Rejected pile (grey) -->
  <g transform="translate(250,40)">
    <rect x="0" y="0" width="160" height="120" fill="#2A3256" stroke="#5A6784" stroke-width="1" stroke-dasharray="3 3"/>
    <text x="10" y="22" font-family="Helvetica, Arial, sans-serif" font-size="11" font-weight="700" fill="#8FB8FF">NOT SCHEDULED</text>
    <text x="10" y="38" font-family="Monaco, monospace" font-size="9" fill="#7DA3D9" opacity="0.75">before Mar 1, 2026</text>
    <!-- stacked cards (visual-only, no text) -->
    <g fill="#1C2541">
      <rect x="10" y="48" width="140" height="12" opacity="0.85">
        <animate attributeName="opacity" values="0.7;0.95;0.7" dur="3.2s" repeatCount="indefinite"/>
      </rect>
      <rect x="10" y="64" width="140" height="12" opacity="0.75">
        <animate attributeName="opacity" values="0.6;0.85;0.6" dur="3.7s" repeatCount="indefinite"/>
      </rect>
      <rect x="10" y="80" width="140" height="12" opacity="0.65">
        <animate attributeName="opacity" values="0.5;0.8;0.5" dur="4.1s" repeatCount="indefinite"/>
      </rect>
      <rect x="10" y="96" width="140" height="12" opacity="0.55">
        <animate attributeName="opacity" values="0.4;0.7;0.4" dur="4.6s" repeatCount="indefinite"/>
      </rect>
    </g>
    <!-- CVE id streaks on stack -->
    <g fill="#7DA3D9" opacity="0.45">
      <rect x="16" y="54" width="60" height="1.5"/>
      <rect x="16" y="70" width="80" height="1.5"/>
      <rect x="16" y="86" width="72" height="1.5"/>
      <rect x="16" y="102" width="90" height="1.5"/>
    </g>
  </g>
</g>

<!-- Right-side stat -->
<g transform="translate(1060,186)">
  <text x="0" y="0" font-family="Helvetica, Arial, sans-serif" font-size="42" font-weight="800" fill="#FFB703" filter="url(#textShadow)" text-anchor="end">+263%
    <animate attributeName="opacity" values="0.75;1;0.75" dur="3.2s" repeatCount="indefinite"/>
  </text>
  <text x="0" y="18" font-family="Helvetica, Arial, sans-serif" font-size="11" fill="#CBD5E1" text-anchor="end">CVEs since 2020</text>
  <text x="0" y="56" font-family="Helvetica, Arial, sans-serif" font-size="22" font-weight="700" fill="#F8FAFC" text-anchor="end">42k enriched
    <animate attributeName="opacity" values="0.8;1;0.8" dur="4.1s" repeatCount="indefinite"/>
  </text>
  <text x="0" y="72" font-family="Helvetica, Arial, sans-serif" font-size="10" fill="#A5B4C4" text-anchor="end">in 2025 - not enough</text>
  <text x="0" y="100" font-family="Helvetica, Arial, sans-serif" font-size="10" fill="#FFB703" text-anchor="end">NIST  /  Apr 15</text>
  <!-- Stat underline pulse -->
  <rect x="-100" y="6" width="100" height="2" fill="#FFB703" opacity="0.6">
    <animate attributeName="opacity" values="0.3;0.9;0.3" dur="2.6s" repeatCount="indefinite"/>
    <animate attributeName="width" values="100;110;100" dur="3.4s" repeatCount="indefinite"/>
  </rect>
</g>

<!-- ================== BOTTOM RIGHT: Palantir manifesto ================== -->
<rect x="652" y="342" width="516" height="248" rx="14" ry="14" fill="#1C2541" stroke="#E63946" stroke-width="1.6" opacity="0.97"/>
<rect x="652" y="342" width="516" height="4" fill="#E63946" opacity="0.85">
  <animate attributeName="opacity" values="0.5;1;0.5" dur="4.6s" repeatCount="indefinite"/>
</rect>

<text x="670" y="372" font-family="Helvetica, Arial, sans-serif" font-size="12" font-weight="700" fill="#FF8A95" letter-spacing="3">MEDIUM  /  03</text>
<text x="670" y="400" font-family="Helvetica, Arial, sans-serif" font-size="26" font-weight="800" fill="#F8FAFC" filter="url(#textShadow)">Palantir 22-Point Manifesto</text>
<text x="670" y="424" font-family="Helvetica, Arial, sans-serif" font-size="15" fill="#CBD5E1">Anti-pluralism  -  PLTR slides</text>

<!-- Pinned manifesto document -->
<g transform="translate(680,438) rotate(-2 125 72)" filter="url(#softShadow)">
  <rect x="0" y="0" width="250" height="138" fill="url(#paperGrad)" stroke="#8C8470" stroke-width="1.2"/>
  <rect x="0" y="0" width="250" height="138" fill="url(#paperWeave)"/>
  <!-- red pin -->
  <circle cx="125" cy="6" r="5" fill="#E63946" stroke="#7A1D00" stroke-width="1">
    <animate attributeName="r" values="5;6;5" dur="2.8s" repeatCount="indefinite"/>
  </circle>
  <!-- Title -->
  <text x="14" y="26" font-family="Georgia, serif" font-size="13" font-weight="700" fill="#3D2E00">THE TECHNOLOGICAL REPUBLIC</text>
  <text x="14" y="42" font-family="Georgia, serif" font-size="9" font-style="italic" fill="#6B5A1A">Mini-Manifesto  //  22 points</text>
  <!-- Lines of text, with highlighted "regressive" phrases -->
  <g font-family="Georgia, serif" font-size="10" fill="#3D2E00">
    <text x="14" y="68">Silicon Valley owes a moral debt</text>
    <text x="14" y="86" fill="#7A1D00" font-weight="700">Vacant pluralism  -  regressive
      <animate attributeName="opacity" values="0.7;1;0.7" dur="2.4s" repeatCount="indefinite"/>
    </text>
    <text x="14" y="104" fill="#7A1D00" font-weight="700">subcultures are harmful
      <animate attributeName="opacity" values="0.7;1;0.7" dur="2.8s" repeatCount="indefinite"/>
    </text>
    <text x="14" y="124" font-size="8" fill="#6B5A1A">Karp &amp; Zamiska  //  Apr 19, 2026</text>
  </g>
  <!-- Highlighter swipe under "regressive" -->
  <rect x="12" y="99" width="240" height="12" fill="#E63946" opacity="0.18">
    <animate attributeName="opacity" values="0.1;0.3;0.1" dur="3.2s" repeatCount="indefinite"/>
    <animate attributeName="width" values="0;240;240" dur="3.2s" repeatCount="indefinite"/>
  </rect>
  <!-- Edge curl corner shadow -->
  <path d="M240 128 L250 134 L250 138 L238 138 Z" fill="#B8AF92" opacity="0.55">
    <animate attributeName="opacity" values="0.4;0.7;0.4" dur="4.1s" repeatCount="indefinite"/>
  </path>
</g>
<!-- Criticism badge from Bellingcat reaction -->
<g transform="translate(946,438)">
  <rect x="0" y="0" width="10" height="68" fill="#E63946" opacity="0.85">
    <animate attributeName="opacity" values="0.55;0.95;0.55" dur="2.2s" repeatCount="indefinite"/>
  </rect>
</g>

<!-- Share price tumble chart -->
<g transform="translate(960,450)">
  <text x="0" y="0" font-family="Helvetica, Arial, sans-serif" font-size="11" font-weight="700" fill="#8FB8FF" letter-spacing="2">PLTR  SHARES</text>
  <rect x="0" y="10" width="180" height="92" fill="#0A1020" stroke="#2A3256" stroke-width="1" rx="4"/>
  <!-- grid -->
  <g stroke="#2A3256" stroke-width="0.6" opacity="0.6">
    <line x1="0" y1="33" x2="180" y2="33"/>
    <line x1="0" y1="56" x2="180" y2="56"/>
    <line x1="0" y1="79" x2="180" y2="79"/>
  </g>
  <!-- Downward line -->
  <polyline points="6,30 30,36 56,40 84,48 112,62 140,74 172,90" fill="none" stroke="#E63946" stroke-width="2.2">
    <animate attributeName="stroke-dasharray" values="0 400;400 0" dur="3.8s" repeatCount="indefinite"/>
    <animate attributeName="stroke-width" values="2.2;2.8;2.2" dur="2.6s" repeatCount="indefinite"/>
  </polyline>
  <!-- drop marker -->
  <circle cx="172" cy="90" r="4" fill="#E63946">
    <animate attributeName="r" values="4;5.5;4" dur="1.6s" repeatCount="indefinite"/>
    <animate attributeName="opacity" values="0.8;1;0.8" dur="1.6s" repeatCount="indefinite"/>
  </circle>
  <!-- Candle markers (6 red ticks) -->
  <g fill="#E63946" opacity="0.75">
    <rect x="28" y="34" width="3" height="6"><animate attributeName="opacity" values="0.4;0.9;0.4" dur="2.1s" repeatCount="indefinite"/></rect>
    <rect x="54" y="38" width="3" height="6"><animate attributeName="opacity" values="0.4;0.9;0.4" dur="2.4s" repeatCount="indefinite"/></rect>
    <rect x="82" y="46" width="3" height="8"><animate attributeName="opacity" values="0.4;0.9;0.4" dur="2.7s" repeatCount="indefinite"/></rect>
    <rect x="110" y="60" width="3" height="9"><animate attributeName="opacity" values="0.4;0.9;0.4" dur="3.0s" repeatCount="indefinite"/></rect>
    <rect x="138" y="72" width="3" height="9"><animate attributeName="opacity" values="0.4;0.9;0.4" dur="3.3s" repeatCount="indefinite"/></rect>
    <rect x="168" y="88" width="3" height="10"><animate attributeName="opacity" values="0.4;0.95;0.4" dur="3.6s" repeatCount="indefinite"/></rect>
  </g>
  <text x="172" y="108" font-family="Helvetica, Arial, sans-serif" font-size="10" font-weight="700" fill="#E63946" text-anchor="end">SLIDE
    <animate attributeName="opacity" values="0.6;1;0.6" dur="1.8s" repeatCount="indefinite"/>
  </text>
  <text x="0" y="120" font-family="Helvetica, Arial, sans-serif" font-size="9" fill="#A5B4C4">TechCrunch  /  Apr 19</text>
</g>

<!-- ================== Footer strip ================== -->
<rect x="0" y="596" width="1200" height="34" fill="#050813" opacity="0.92"/>
<rect x="0" y="594" width="1200" height="2" fill="#3A86FF" opacity="0.7">
  <animate attributeName="opacity" values="0.35;0.85;0.35" dur="5.2s" repeatCount="indefinite"/>
</rect>
<text x="36" y="618" font-family="Helvetica, Arial, sans-serif" font-size="12" font-weight="700" fill="#7DA3D9" letter-spacing="2">tech.2twodragon.com</text>
<text x="760" y="618" font-family="Helvetica, Arial, sans-serif" font-size="11" fill="#A5B4C4" letter-spacing="1">Bleeping / NIST / TechCrunch</text>

<!-- QR code (bottom-right, 100x100 with quiet zone) -->
<g transform="translate(1075,496)">
  <rect x="-6" y="-6" width="102" height="102" fill="#FFFFFF" rx="6" ry="6" opacity="0.98"/>
  <g transform="scale(2.244)" fill="#0B1326">
    <path d="M0 0h7v1h-7zM10 0h1v1h-1zM13 0h1v1h-1zM15 0h3v1h-3zM19 0h3v1h-3zM23 0h2v1h-2zM28 0h5v1h-5zM34 0h7v1h-7zM0 1h1v1h-1zM6 1h1v1h-1zM11 1h2v1h-2zM15 1h3v1h-3zM20 1h2v1h-2zM24 1h2v1h-2zM27 1h1v1h-1zM32 1h1v1h-1zM34 1h1v1h-1zM40 1h1v1h-1zM0 2h1v1h-1zM2 2h3v1h-3zM6 2h1v1h-1zM8 2h3v1h-3zM12 2h2v1h-2zM17 2h2v1h-2zM21 2h2v1h-2zM27 2h2v1h-2zM30 2h1v1h-1zM32 2h1v1h-1zM34 2h1v1h-1zM36 2h3v1h-3zM40 2h1v1h-1zM0 3h1v1h-1zM2 3h3v1h-3zM6 3h1v1h-1zM8 3h1v1h-1zM10 3h1v1h-1zM13 3h4v1h-4zM20 3h2v1h-2zM25 3h1v1h-1zM27 3h3v1h-3zM32 3h1v1h-1zM34 3h1v1h-1zM36 3h3v1h-3zM40 3h1v1h-1zM0 4h1v1h-1zM2 4h3v1h-3zM6 4h1v1h-1zM8 4h1v1h-1zM12 4h2v1h-2zM17 4h7v1h-7zM30 4h2v1h-2zM34 4h1v1h-1zM36 4h3v1h-3zM40 4h1v1h-1zM0 5h1v1h-1zM6 5h1v1h-1zM8 5h4v1h-4zM13 5h1v1h-1zM15 5h1v1h-1zM17 5h1v1h-1zM20 5h1v1h-1zM25 5h1v1h-1zM27 5h1v1h-1zM34 5h1v1h-1zM40 5h1v1h-1zM0 6h7v1h-7zM8 6h1v1h-1zM10 6h1v1h-1zM12 6h1v1h-1zM14 6h1v1h-1zM16 6h1v1h-1zM18 6h1v1h-1zM20 6h1v1h-1zM22 6h1v1h-1zM24 6h1v1h-1zM26 6h1v1h-1zM28 6h1v1h-1zM30 6h1v1h-1zM32 6h1v1h-1zM34 6h7v1h-7zM8 7h1v1h-1zM11 7h2v1h-2zM14 7h2v1h-2zM18 7h1v1h-1zM20 7h2v1h-2zM23 7h1v1h-1zM27 7h1v1h-1zM30 7h2v1h-2zM0 8h1v1h-1zM2 8h5v1h-5zM9 8h1v1h-1zM11 8h1v1h-1zM13 8h5v1h-5zM19 8h1v1h-1zM22 8h2v1h-2zM25 8h5v1h-5zM32 8h1v1h-1zM34 8h5v1h-5zM0 9h3v1h-3zM4 9h1v1h-1zM8 9h1v1h-1zM10 9h3v1h-3zM16 9h1v1h-1zM18 9h2v1h-2zM21 9h1v1h-1zM23 9h1v1h-1zM26 9h1v1h-1zM30 9h5v1h-5zM36 9h1v1h-1zM38 9h3v1h-3zM1 10h3v1h-3zM6 10h1v1h-1zM12 10h3v1h-3zM17 10h2v1h-2zM21 10h2v1h-2zM24 10h1v1h-1zM26 10h2v1h-2zM30 10h1v1h-1zM32 10h2v1h-2zM35 10h2v1h-2zM39 10h1v1h-1zM0 11h5v1h-5zM7 11h2v1h-2zM11 11h1v1h-1zM15 11h2v1h-2zM19 11h3v1h-3zM28 11h1v1h-1zM30 11h3v1h-3zM34 11h1v1h-1zM37 11h1v1h-1zM6 12h2v1h-2zM12 12h1v1h-1zM16 12h2v1h-2zM19 12h2v1h-2zM22 12h1v1h-1zM24 12h2v1h-2zM28 12h4v1h-4zM33 12h1v1h-1zM35 12h1v1h-1zM37 12h2v1h-2zM0 13h3v1h-3zM7 13h4v1h-4zM12 13h3v1h-3zM16 13h1v1h-1zM18 13h1v1h-1zM25 13h1v1h-1zM28 13h2v1h-2zM31 13h8v1h-8zM40 13h1v1h-1zM0 14h1v1h-1zM5 14h5v1h-5zM13 14h2v1h-2zM16 14h1v1h-1zM18 14h1v1h-1zM20 14h5v1h-5zM27 14h4v1h-4zM32 14h2v1h-2zM35 14h1v1h-1zM37 14h2v1h-2zM0 15h2v1h-2zM3 15h1v1h-1zM9 15h1v1h-1zM12 15h1v1h-1zM16 15h1v1h-1zM18 15h1v1h-1zM21 15h3v1h-3zM26 15h2v1h-2zM34 15h1v1h-1zM36 15h2v1h-2zM0 16h3v1h-3zM4 16h4v1h-4zM13 16h1v1h-1zM17 16h1v1h-1zM22 16h2v1h-2zM25 16h2v1h-2zM29 16h1v1h-1zM33 16h1v1h-1zM35 16h1v1h-1zM37 16h2v1h-2zM0 17h1v1h-1zM4 17h1v1h-1zM9 17h1v1h-1zM14 17h2v1h-2zM19 17h2v1h-2zM23 17h1v1h-1zM25 17h1v1h-1zM28 17h1v1h-1zM30 17h3v1h-3zM34 17h3v1h-3zM39 17h2v1h-2zM0 18h1v1h-1zM2 18h1v1h-1zM5 18h7v1h-7zM13 18h3v1h-3zM18 18h1v1h-1zM20 18h1v1h-1zM22 18h1v1h-1zM25 18h4v1h-4zM30 18h1v1h-1zM32 18h1v1h-1zM36 18h1v1h-1zM38 18h2v1h-2zM0 19h1v1h-1zM2 19h4v1h-4zM7 19h2v1h-2zM11 19h2v1h-2zM15 19h2v1h-2zM20 19h1v1h-1zM23 19h2v1h-2zM26 19h3v1h-3zM32 19h2v1h-2zM36 19h2v1h-2zM2 20h5v1h-5zM8 20h4v1h-4zM15 20h2v1h-2zM18 20h2v1h-2zM21 20h2v1h-2zM24 20h1v1h-1zM28 20h2v1h-2zM32 20h1v1h-1zM35 20h1v1h-1zM38 20h1v1h-1zM40 20h1v1h-1zM2 21h1v1h-1zM4 21h1v1h-1zM7 21h1v1h-1zM9 21h1v1h-1zM16 21h1v1h-1zM19 21h1v1h-1zM21 21h1v1h-1zM23 21h2v1h-2zM30 21h2v1h-2zM34 21h7v1h-7zM0 22h3v1h-3zM4 22h1v1h-1zM6 22h1v1h-1zM8 22h1v1h-1zM11 22h3v1h-3zM15 22h1v1h-1zM17 22h2v1h-2zM21 22h1v1h-1zM24 22h1v1h-1zM26 22h3v1h-3zM32 22h1v1h-1zM34 22h2v1h-2zM37 22h1v1h-1zM0 23h1v1h-1zM2 23h2v1h-2zM7 23h2v1h-2zM11 23h1v1h-1zM16 23h1v1h-1zM21 23h2v1h-2zM24 23h1v1h-1zM28 23h1v1h-1zM31 23h2v1h-2zM35 23h3v1h-3zM40 23h1v1h-1zM2 24h1v1h-1zM4 24h5v1h-5zM11 24h1v1h-1zM13 24h1v1h-1zM16 24h2v1h-2zM19 24h1v1h-1zM22 24h1v1h-1zM24 24h3v1h-3zM29 24h1v1h-1zM31 24h1v1h-1zM35 24h1v1h-1zM38 24h1v1h-1zM40 24h1v1h-1zM5 25h1v1h-1zM7 25h2v1h-2zM11 25h3v1h-3zM18 25h4v1h-4zM23 25h1v1h-1zM25 25h2v1h-2zM30 25h2v1h-2zM34 25h4v1h-4zM39 25h2v1h-2zM3 26h4v1h-4zM9 26h1v1h-1zM12 26h2v1h-2zM20 26h3v1h-3zM25 26h3v1h-3zM29 26h2v1h-2zM32 26h1v1h-1zM34 26h1v1h-1zM36 26h1v1h-1zM0 27h1v1h-1zM5 27h1v1h-1zM7 27h1v1h-1zM10 27h1v1h-1zM14 27h3v1h-3zM19 27h5v1h-5zM26 27h2v1h-2zM30 27h3v1h-3zM35 27h3v1h-3zM39 27h1v1h-1zM3 28h2v1h-2zM6 28h1v1h-1zM9 28h1v1h-1zM13 28h3v1h-3zM17 28h1v1h-1zM19 28h1v1h-1zM22 28h2v1h-2zM25 28h1v1h-1zM29 28h3v1h-3zM35 28h1v1h-1zM37 28h2v1h-2zM40 28h1v1h-1zM0 29h2v1h-2zM5 29h1v1h-1zM8 29h2v1h-2zM12 29h1v1h-1zM16 29h1v1h-1zM18 29h1v1h-1zM20 29h2v1h-2zM24 29h1v1h-1zM26 29h1v1h-1zM28 29h2v1h-2zM31 29h2v1h-2zM34 29h3v1h-3zM40 29h1v1h-1zM0 30h1v1h-1zM4 30h1v1h-1zM6 30h3v1h-3zM10 30h3v1h-3zM15 30h1v1h-1zM18 30h2v1h-2zM21 30h1v1h-1zM25 30h3v1h-3zM33 30h3v1h-3zM0 31h1v1h-1zM2 31h3v1h-3zM7 31h2v1h-2zM10 31h2v1h-2zM13 31h1v1h-1zM15 31h2v1h-2zM18 31h5v1h-5zM24 31h1v1h-1zM26 31h3v1h-3zM30 31h1v1h-1zM33 31h3v1h-3zM37 31h1v1h-1zM40 31h1v1h-1zM0 32h1v1h-1zM3 32h1v1h-1zM6 32h3v1h-3zM12 32h2v1h-2zM17 32h1v1h-1zM19 32h1v1h-1zM22 32h1v1h-1zM25 32h3v1h-3zM29 32h1v1h-1zM32 32h5v1h-5zM38 32h2v1h-2zM8 33h1v1h-1zM11 33h1v1h-1zM14 33h2v1h-2zM17 33h3v1h-3zM21 33h1v1h-1zM23 33h1v1h-1zM25 33h1v1h-1zM29 33h1v1h-1zM32 33h1v1h-1zM36 33h1v1h-1zM38 33h3v1h-3zM0 34h7v1h-7zM9 34h1v1h-1zM14 34h1v1h-1zM17 34h1v1h-1zM20 34h2v1h-2zM25 34h5v1h-5zM31 34h2v1h-2zM34 34h1v1h-1zM36 34h2v1h-2zM0 35h1v1h-1zM6 35h1v1h-1zM8 35h3v1h-3zM12 35h1v1h-1zM14 35h2v1h-2zM17 35h2v1h-2zM21 35h2v1h-2zM25 35h1v1h-1zM27 35h1v1h-1zM30 35h3v1h-3zM36 35h2v1h-2zM40 35h1v1h-1zM0 36h1v1h-1zM2 36h3v1h-3zM6 36h1v1h-1zM8 36h1v1h-1zM10 36h1v1h-1zM13 36h3v1h-3zM19 36h1v1h-1zM21 36h1v1h-1zM26 36h1v1h-1zM29 36h1v1h-1zM32 36h7v1h-7zM40 36h1v1h-1zM0 37h1v1h-1zM2 37h3v1h-3zM6 37h1v1h-1zM8 37h1v1h-1zM11 37h1v1h-1zM15 37h1v1h-1zM18 37h7v1h-7zM31 37h3v1h-3zM35 37h1v1h-1zM0 38h1v1h-1zM2 38h3v1h-3zM6 38h1v1h-1zM8 38h2v1h-2zM12 38h3v1h-3zM16 38h1v1h-1zM20 38h1v1h-1zM22 38h1v1h-1zM24 38h4v1h-4zM29 38h3v1h-3zM33 38h5v1h-5zM0 39h1v1h-1zM6 39h1v1h-1zM9 39h1v1h-1zM12 39h3v1h-3zM19 39h1v1h-1zM21 39h4v1h-4zM26 39h1v1h-1zM28 39h1v1h-1zM32 39h2v1h-2zM36 39h2v1h-2zM39 39h1v1h-1zM0 40h7v1h-7zM8 40h1v1h-1zM10 40h2v1h-2zM16 40h2v1h-2zM22 40h1v1h-1zM24 40h4v1h-4zM29 40h1v1h-1zM34 40h5v1h-5z"/>
  </g>
</g>
<text x="1125" y="610" font-family="Helvetica, Arial, sans-serif" font-size="9" fill="#7DA3D9" text-anchor="middle">scan  /  full post</text>

</svg>
