<svg xmlns="http://www.w3.org/2000/svg" viewBox="0 0 1200 630" width="1200" height="630" role="img" aria-label="AI alignment research, EKS Flyte ML workflow, Docker security, Cloud Native">
<title>2026-02-20: AI alignment, EKS Flyte, Docker security, Cloud Native</title>
<defs>
<linearGradient id="bgSpreadFB20" x1="0%" y1="0%" x2="100%" y2="100%"><stop offset="0%" stop-color="#0A1226"/><stop offset="50%" stop-color="#0C1430"/><stop offset="100%" stop-color="#131038"/></linearGradient>
<linearGradient id="bandAFB20" x1="0%" y1="0%" x2="100%" y2="0%"><stop offset="0%" stop-color="#1E0A3A"/><stop offset="100%" stop-color="#2A0E4A"/></linearGradient>
<linearGradient id="bandBFB20" x1="0%" y1="0%" x2="100%" y2="0%"><stop offset="0%" stop-color="#0E2038"/><stop offset="100%" stop-color="#12283F"/></linearGradient>
<linearGradient id="bandCFB20" x1="0%" y1="0%" x2="100%" y2="0%"><stop offset="0%" stop-color="#2A1A0C"/><stop offset="100%" stop-color="#1E1F0A"/></linearGradient>
<linearGradient id="streakAFB20" x1="0%" y1="0%" x2="100%" y2="0%"><stop offset="0%" stop-color="#A78BFA" stop-opacity="0"/><stop offset="50%" stop-color="#A78BFA" stop-opacity="0.85"/><stop offset="100%" stop-color="#A78BFA" stop-opacity="0"/></linearGradient>
<linearGradient id="streakBFB20" x1="0%" y1="0%" x2="100%" y2="0%"><stop offset="0%" stop-color="#4ADE80" stop-opacity="0"/><stop offset="50%" stop-color="#4ADE80" stop-opacity="0.85"/><stop offset="100%" stop-color="#4ADE80" stop-opacity="0"/></linearGradient>
<linearGradient id="streakCFB20" x1="0%" y1="0%" x2="100%" y2="0%"><stop offset="0%" stop-color="#FFB703" stop-opacity="0"/><stop offset="50%" stop-color="#FFB703" stop-opacity="0.85"/><stop offset="100%" stop-color="#FFB703" stop-opacity="0"/></linearGradient>
<radialGradient id="glowAFB20" cx="50%" cy="50%" r="50%"><stop offset="0%" stop-color="#A78BFA" stop-opacity="0.55"/><stop offset="100%" stop-color="#A78BFA" stop-opacity="0"/></radialGradient>
<radialGradient id="glowBFB20" cx="50%" cy="50%" r="50%"><stop offset="0%" stop-color="#4ADE80" stop-opacity="0.55"/><stop offset="100%" stop-color="#4ADE80" stop-opacity="0"/></radialGradient>
<radialGradient id="glowCFB20" cx="50%" cy="50%" r="50%"><stop offset="0%" stop-color="#FFB703" stop-opacity="0.55"/><stop offset="100%" stop-color="#FFB703" stop-opacity="0"/></radialGradient>
<filter id="softShadow" x="-10%" y="-10%" width="130%" height="130%"><feGaussianBlur in="SourceAlpha" stdDeviation="2.5"/><feOffset dx="1" dy="3"/><feComponentTransfer><feFuncA type="linear" slope="0.55"/></feComponentTransfer><feMerge><feMergeNode/><feMergeNode in="SourceGraphic"/></feMerge></filter>
<filter id="textShadow" x="-5%" y="-5%" width="110%" height="110%"><feGaussianBlur in="SourceAlpha" stdDeviation="1.2"/><feOffset dx="0" dy="1.5"/><feComponentTransfer><feFuncA type="linear" slope="0.85"/></feComponentTransfer><feMerge><feMergeNode/><feMergeNode in="SourceGraphic"/></feMerge></filter>
<pattern id="ledgerGrid" x="0" y="0" width="40" height="20" patternUnits="userSpaceOnUse"><path d="M0 20 L40 20" stroke="#2A3A56" stroke-width="0.4" opacity="0.5"/><path d="M40 0 L40 20" stroke="#2A3A56" stroke-width="0.4" opacity="0.5"/></pattern>
<pattern id="circuitDot" x="0" y="0" width="18" height="18" patternUnits="userSpaceOnUse"><circle cx="9" cy="9" r="0.8" fill="#3A2A4E" opacity="0.55"/></pattern>
<pattern id="hexGridFB20" x="0" y="0" width="28" height="32" patternUnits="userSpaceOnUse"><path d="M14 0 L28 8 L28 24 L14 32 L0 24 L0 8 Z" fill="none" stroke="#2A3A56" stroke-width="0.3" opacity="0.4"/></pattern>
<pattern id="radarRippleFB20" x="0" y="0" width="60" height="60" patternUnits="userSpaceOnUse"><circle cx="30" cy="30" r="14" fill="none" stroke="#2A3A56" stroke-width="0.3" opacity="0.4"/></pattern>
</defs>
<rect width="1200" height="630" fill="url(#bgSpreadFB20)"/>
<g>
  <rect x="0" y="0" width="1200" height="210" fill="url(#bandAFB20)"/>
  <rect x="0" y="0" width="1200" height="210" fill="url(#circuitDot)" opacity="0.6"/>
  <rect x="0" y="0" width="8" height="210" fill="#A78BFA"/>
  <g filter="url(#textShadow)">
    <text x="30" y="44" font-family="Inter, Helvetica, Arial, sans-serif" font-size="18" font-weight="700" letter-spacing="2.4" fill="#C4B5FD">AI ALIGNMENT</text>
    <text x="30" y="86" font-family="Inter, Helvetica, Arial, sans-serif" font-size="36" font-weight="800" fill="#F5F7FA">Latest Research Wave</text>
    <text x="30" y="118" font-family="Inter, Helvetica, Arial, sans-serif" font-size="20" font-weight="600" fill="#DDD6FE">Constitutional + RLHF</text>
    <text x="30" y="146" font-family="Inter, Helvetica, Arial, sans-serif" font-size="15" font-weight="500" fill="#D0CCE5">Constitutional AI updates : safety-first RLHF : open-eval benchmarks</text>
  </g>
  <g transform="translate(640,105)">
    <rect x="-92" y="-56" width="184" height="116" rx="8" fill="#A78BFA" fill-opacity="0.05" stroke="#A78BFA" stroke-width="1.2" stroke-opacity="0.5"/>
    <g stroke="#A78BFA" stroke-width="2" opacity="0.85">
      <line x1="-80" y1="-40" x2="-30" y2="-40"/><line x1="-25" y1="-40" x2="40" y2="-40"/>
      <line x1="-80" y1="-20" x2="-10" y2="-20"/><line x1="-5" y1="-20" x2="55" y2="-20"/>
      <line x1="-80" y1="0" x2="-40" y2="0"/><line x1="-35" y1="0" x2="60" y2="0"/>
      <line x1="-80" y1="20" x2="-20" y2="20"/><line x1="-15" y1="20" x2="30" y2="20"/>
      <line x1="-80" y1="40" x2="-50" y2="40"/><line x1="-45" y1="40" x2="50" y2="40"/>
    </g>
    <rect x="-86" y="-50" width="4" height="104" fill="#A78BFA" opacity="0.6"/>
    <g fill="#C4B5FD">
      <circle cx="74" cy="-40" r="3"><animate attributeName="opacity" values="0.3;1;0.3" dur="1.6s" repeatCount="indefinite"/></circle>
      <circle cx="74" cy="-20" r="3"><animate attributeName="opacity" values="0.3;1;0.3" dur="1.8s" repeatCount="indefinite"/></circle>
      <circle cx="74" cy="0" r="3"><animate attributeName="opacity" values="0.3;1;0.3" dur="2.1s" repeatCount="indefinite"/></circle>
      <circle cx="74" cy="20" r="3"><animate attributeName="opacity" values="0.3;1;0.3" dur="1.7s" repeatCount="indefinite"/></circle>
      <circle cx="74" cy="40" r="3"><animate attributeName="opacity" values="0.3;1;0.3" dur="1.9s" repeatCount="indefinite"/></circle>
    </g>
    <rect x="-86" y="-50" width="178" height="3" fill="#A78BFA" opacity="0.4">
      <animate attributeName="y" values="-50;46;-50" dur="3.2s" repeatCount="indefinite"/>
    </rect>
    <text y="68" text-anchor="middle" font-family="Inter, monospace" font-size="10" font-weight="800" fill="#A78BFA">ALIGN</text>
  </g>
  <g transform="translate(870,105)" filter="url(#softShadow)">
    <rect x="-50" y="-48" width="100" height="96" rx="10" fill="#160629" stroke="#A78BFA" stroke-width="1.6" stroke-opacity="0.75"/>
    <text x="0" y="-26" text-anchor="middle" font-family="Inter, Helvetica, Arial, sans-serif" font-size="10" font-weight="700" letter-spacing="1.4" fill="#C4B5FD">METHOD</text>
    <text x="0" y="14" text-anchor="middle" font-family="Inter, Helvetica, Arial, sans-serif" font-size="34" font-weight="900" fill="#F5F7FA">RLHF</text>
    <text x="0" y="34" text-anchor="middle" font-family="Inter, Helvetica, Arial, sans-serif" font-size="10" font-weight="600" fill="#DDD6FE">safety-first</text>
  </g>
  <g transform="translate(990,105)" filter="url(#softShadow)">
    <rect x="-80" y="-65" width="180" height="125" rx="14" fill="#160629" stroke="#A78BFA" stroke-width="2.2"/>
    <text x="10" y="-38" text-anchor="middle" font-family="Inter, Helvetica, Arial, sans-serif" font-size="13" font-weight="700" letter-spacing="2" fill="#C4B5FD">ALIGN</text>
    <text x="10" y="22" text-anchor="middle" font-family="Inter, Helvetica, Arial, sans-serif" font-size="72" font-weight="900" fill="#F5F7FA">CAI</text>
    <text x="10" y="44" text-anchor="middle" font-family="Inter, Helvetica, Arial, sans-serif" font-size="11" font-weight="600" fill="#DDD6FE">2026 wave</text>
    <line x1="-58" y1="50" x2="78" y2="50" stroke="#A78BFA" stroke-width="0.8" stroke-opacity="0.5"/>
    
  </g>
  <g transform="translate(990,105)">
    <circle cx="10" cy="-50" r="3" fill="#A78BFA"><animate attributeName="opacity" values="0.2;1;0.2" dur="1.8s" repeatCount="indefinite"/></circle>
    <circle cx="-58" cy="-50" r="2" fill="#C4B5FD"><animate attributeName="opacity" values="0.8;0.2;0.8" dur="2.2s" repeatCount="indefinite"/></circle>
    <circle cx="78" cy="-50" r="2" fill="#C4B5FD"><animate attributeName="opacity" values="0.2;0.9;0.2" dur="2.4s" repeatCount="indefinite"/></circle>
  </g>
</g>
<g>
  <rect x="0" y="210" width="1200" height="210" fill="url(#bandBFB20)"/>
  <rect x="0" y="210" width="1200" height="210" fill="url(#ledgerGrid)" opacity="0.6"/>
  <rect x="0" y="210" width="8" height="210" fill="#4ADE80"/>
  <g filter="url(#textShadow)">
    <text x="30" y="254" font-family="Inter, Helvetica, Arial, sans-serif" font-size="18" font-weight="700" letter-spacing="2.4" fill="#4ADE80">EKS + FLYTE</text>
    <text x="30" y="296" font-family="Inter, Helvetica, Arial, sans-serif" font-size="36" font-weight="800" fill="#F5F7FA">ML Workflow on K8s</text>
    <text x="30" y="328" font-family="Inter, Helvetica, Arial, sans-serif" font-size="20" font-weight="600" fill="#9FD3B0">Flyte 1.13 + EKS</text>
    <text x="30" y="356" font-family="Inter, Helvetica, Arial, sans-serif" font-size="15" font-weight="500" fill="#BFC9D9">Flyte 1.13 typed workflows : EKS GPU pool : data lineage : MLOps maturity</text>
  </g>
  <g transform="translate(640,315)">
    <circle r="80" fill="#4ADE80" fill-opacity="0.06"><animate attributeName="r" values="64;86;64" dur="3.4s" repeatCount="indefinite"/></circle>
    <path d="M-60 0 Q-70 -25 -45 -30 Q-40 -50 -10 -45 Q10 -60 30 -45 Q55 -50 60 -20 Q80 -15 70 10 Q65 25 40 25 L-40 25 Q-70 25 -60 0 Z" fill="#4ADE80" fill-opacity="0.12" stroke="#4ADE80" stroke-width="1.8"/>
    <g fill="#4ADE80" stroke="#86EFAC" stroke-width="1.2">
      <polygon points="-30,-10 -18,-17 -6,-10 -6,4 -18,11 -30,4"/>
      <polygon points="0,-10 12,-17 24,-10 24,4 12,11 0,4"/>
      <polygon points="-15,10 -3,3 9,10 9,24 -3,31 -15,24"/>
    </g>
    <g fill="#86EFAC">
      <circle cx="-18" cy="-3" r="2.4"><animate attributeName="opacity" values="0.4;1;0.4" dur="1.8s" repeatCount="indefinite"/></circle>
      <circle cx="12" cy="-3" r="2.4"><animate attributeName="opacity" values="0.4;1;0.4" dur="2.0s" repeatCount="indefinite"/></circle>
      <circle cx="-3" cy="17" r="2.4"><animate attributeName="opacity" values="0.4;1;0.4" dur="2.2s" repeatCount="indefinite"/></circle>
    </g>
    <g fill="#FFF">
      <circle r="1.6"><animateMotion path="M-18 -3 L12 -3" dur="2.4s" repeatCount="indefinite"/></circle>
      <circle r="1.6"><animateMotion path="M12 -3 L-3 17" dur="2.2s" repeatCount="indefinite"/></circle>
      <circle r="1.6"><animateMotion path="M-3 17 L-18 -3" dur="2.6s" repeatCount="indefinite"/></circle>
    </g>
    <g fill="#86EFAC" opacity="0.6">
      <circle cx="-50" cy="-38" r="1.8"><animate attributeName="opacity" values="0.3;1;0.3" dur="1.6s" repeatCount="indefinite"/></circle>
      <circle cx="50" cy="-38" r="1.8"><animate attributeName="opacity" values="0.3;1;0.3" dur="2.0s" repeatCount="indefinite"/></circle>
    </g>
    <text y="60" text-anchor="middle" font-family="Inter, monospace" font-size="10" font-weight="800" fill="#4ADE80">K8s CLOUD</text>
  </g>
  <g transform="translate(870,315)" filter="url(#softShadow)">
    <rect x="-50" y="-48" width="100" height="96" rx="10" fill="#0A1B2E" stroke="#4ADE80" stroke-width="1.6" stroke-opacity="0.75"/>
    <text x="0" y="-26" text-anchor="middle" font-family="Inter, Helvetica, Arial, sans-serif" font-size="10" font-weight="700" letter-spacing="1.4" fill="#4ADE80">POOL</text>
    <text x="0" y="14" text-anchor="middle" font-family="Inter, Helvetica, Arial, sans-serif" font-size="34" font-weight="900" fill="#F5F7FA">GPU</text>
    <text x="0" y="34" text-anchor="middle" font-family="Inter, Helvetica, Arial, sans-serif" font-size="10" font-weight="600" fill="#9FD3B0">EKS managed</text>
  </g>
  <g transform="translate(990,315)" filter="url(#softShadow)">
    <rect x="-80" y="-65" width="180" height="125" rx="14" fill="#0A1B2E" stroke="#4ADE80" stroke-width="2.2"/>
    <text x="10" y="-38" text-anchor="middle" font-family="Inter, Helvetica, Arial, sans-serif" font-size="13" font-weight="700" letter-spacing="2" fill="#4ADE80">FLYTE</text>
    <text x="10" y="22" text-anchor="middle" font-family="Inter, Helvetica, Arial, sans-serif" font-size="60" font-weight="900" fill="#F5F7FA">1.13</text>
    <text x="10" y="44" text-anchor="middle" font-family="Inter, Helvetica, Arial, sans-serif" font-size="11" font-weight="600" fill="#9FD3B0">EKS</text>
    <line x1="-58" y1="50" x2="78" y2="50" stroke="#4ADE80" stroke-width="0.8" stroke-opacity="0.5"/>
    
  </g>
  <g transform="translate(990,315)">
    <circle cx="10" cy="-50" r="3" fill="#4ADE80"><animate attributeName="opacity" values="0.2;1;0.2" dur="1.8s" repeatCount="indefinite"/></circle>
    <circle cx="-58" cy="-50" r="2" fill="#86EFAC"><animate attributeName="opacity" values="0.8;0.2;0.8" dur="2.2s" repeatCount="indefinite"/></circle>
    <circle cx="78" cy="-50" r="2" fill="#86EFAC"><animate attributeName="opacity" values="0.2;0.9;0.2" dur="2.4s" repeatCount="indefinite"/></circle>
  </g>
</g>
<g>
  <rect x="0" y="420" width="1200" height="210" fill="url(#bandCFB20)"/>
  <rect x="0" y="420" width="1200" height="210" fill="url(#ledgerGrid)" opacity="0.6"/>
  <rect x="0" y="420" width="8" height="210" fill="#FFB703"/>
  <g filter="url(#textShadow)">
    <text x="30" y="464" font-family="Inter, Helvetica, Arial, sans-serif" font-size="18" font-weight="700" letter-spacing="2.4" fill="#FFB703">DOCKER + CN</text>
    <text x="30" y="506" font-family="Inter, Helvetica, Arial, sans-serif" font-size="36" font-weight="800" fill="#F5F7FA">Hardening + Trends</text>
    <text x="30" y="538" font-family="Inter, Helvetica, Arial, sans-serif" font-size="20" font-weight="600" fill="#FFD58A">Distroless + supply chain</text>
    <text x="30" y="566" font-family="Inter, Helvetica, Arial, sans-serif" font-size="15" font-weight="500" fill="#E0D5B6">Docker BuildKit hardening : distroless base : Cloud Native 2026 outlook</text>
  </g>
  <g transform="translate(640,525)">
    <circle r="78" fill="#FFB703" fill-opacity="0.05"><animate attributeName="r" values="68;84;68" dur="3.4s" repeatCount="indefinite"/></circle>
    <path d="M0 -60 L55 -40 L50 25 Q40 55 0 65 Q-40 55 -50 25 L-55 -40 Z" fill="#FFB703" fill-opacity="0.15" stroke="#FFB703" stroke-width="2.4" filter="url(#softShadow)"/>
    <path d="M0 -50 L45 -33 L40 22 Q32 46 0 55 Q-32 46 -40 22 L-45 -33 Z" fill="none" stroke="#FCD34D" stroke-width="1" opacity="0.7"/>
    <path d="M0 -40 L35 -26 L31 18 Q24 38 0 45 Q-24 38 -31 18 L-35 -26 Z" fill="none" stroke="#FCD34D" stroke-width="0.6" opacity="0.5"/>
    <g transform="translate(0,-5)" stroke="#FCD34D" stroke-width="3" fill="none">
      <path d="M-18 5 L-4 20 L22 -12"><animate attributeName="stroke-dasharray" values="0 80;80 0" dur="2.4s" repeatCount="indefinite"/></path>
    </g>
    <g fill="#FCD34D" opacity="0.7">
      <circle cx="-40" cy="-30" r="2"><animate attributeName="opacity" values="0.3;1;0.3" dur="1.8s" repeatCount="indefinite"/></circle>
      <circle cx="40" cy="-30" r="2"><animate attributeName="opacity" values="0.3;1;0.3" dur="2.0s" begin="0.3s" repeatCount="indefinite"/></circle>
      <circle cx="-30" cy="35" r="2"><animate attributeName="opacity" values="0.3;1;0.3" dur="2.2s" begin="0.6s" repeatCount="indefinite"/></circle>
      <circle cx="30" cy="35" r="2"><animate attributeName="opacity" values="0.3;1;0.3" dur="1.9s" begin="0.9s" repeatCount="indefinite"/></circle>
    </g>
    <text y="84" text-anchor="middle" font-family="Inter, monospace" font-size="10" font-weight="800" fill="#FFB703">DOCKER</text>
  </g>
  <g transform="translate(870,525)" filter="url(#softShadow)">
    <rect x="-50" y="-48" width="100" height="96" rx="10" fill="#1E1805" stroke="#FFB703" stroke-width="1.6" stroke-opacity="0.75"/>
    <text x="0" y="-26" text-anchor="middle" font-family="Inter, Helvetica, Arial, sans-serif" font-size="10" font-weight="700" letter-spacing="1.4" fill="#FFB703">BASE</text>
    <text x="0" y="14" text-anchor="middle" font-family="Inter, Helvetica, Arial, sans-serif" font-size="24" font-weight="900" fill="#F5F7FA">distro</text>
    <text x="0" y="34" text-anchor="middle" font-family="Inter, Helvetica, Arial, sans-serif" font-size="10" font-weight="600" fill="#FFD58A">distroless</text>
  </g>
  <g transform="translate(990,525)" filter="url(#softShadow)">
    <rect x="-80" y="-65" width="180" height="125" rx="14" fill="#1E1805" stroke="#FFB703" stroke-width="2.2"/>
    <text x="10" y="-38" text-anchor="middle" font-family="Inter, Helvetica, Arial, sans-serif" font-size="13" font-weight="700" letter-spacing="2" fill="#FFB703">DOCKER</text>
    <text x="10" y="22" text-anchor="middle" font-family="Inter, Helvetica, Arial, sans-serif" font-size="72" font-weight="900" fill="#F5F7FA">BK</text>
    <text x="10" y="44" text-anchor="middle" font-family="Inter, Helvetica, Arial, sans-serif" font-size="11" font-weight="600" fill="#FFD58A">BuildKit</text>
    <line x1="-58" y1="50" x2="78" y2="50" stroke="#FFB703" stroke-width="0.8" stroke-opacity="0.5"/>
    
  </g>
  <g transform="translate(990,525)">
    <circle cx="10" cy="-50" r="3" fill="#FFB703"><animate attributeName="opacity" values="0.2;1;0.2" dur="1.8s" repeatCount="indefinite"/></circle>
    <circle cx="-58" cy="-50" r="2" fill="#FCD34D"><animate attributeName="opacity" values="0.8;0.2;0.8" dur="2.2s" repeatCount="indefinite"/></circle>
    <circle cx="78" cy="-50" r="2" fill="#FCD34D"><animate attributeName="opacity" values="0.2;0.9;0.2" dur="2.4s" repeatCount="indefinite"/></circle>
  </g>
</g>
<g opacity="0.9">
  <g fill="#A78BFA">
    <circle cx="240" cy="63" r="1.5"><animate attributeName="opacity" values="0;1;0" dur="1.8s" repeatCount="indefinite"/></circle>
    <circle cx="290" cy="63" r="1.5"><animate attributeName="opacity" values="0;1;0" dur="1.6s" begin="0.2s" repeatCount="indefinite"/></circle>
    <circle cx="340" cy="63" r="1.5"><animate attributeName="opacity" values="0;1;0" dur="2.0s" begin="0.4s" repeatCount="indefinite"/></circle>
    <circle cx="390" cy="63" r="1.5"><animate attributeName="opacity" values="0;1;0" dur="1.7s" begin="0.6s" repeatCount="indefinite"/></circle>
    <circle cx="440" cy="63" r="1.5"><animate attributeName="opacity" values="0;1;0" dur="1.9s" begin="0.8s" repeatCount="indefinite"/></circle>
    <circle cx="780" cy="55" r="1.4"><animate attributeName="opacity" values="0;1;0" dur="1.6s" repeatCount="indefinite"/></circle>
    <circle cx="820" cy="55" r="1.4"><animate attributeName="opacity" values="0;1;0" dur="2.0s" begin="0.3s" repeatCount="indefinite"/></circle>
    <circle cx="860" cy="55" r="1.4"><animate attributeName="opacity" values="0;1;0" dur="1.8s" begin="0.6s" repeatCount="indefinite"/></circle>
    <circle cx="240" cy="147" r="1.3"><animate attributeName="opacity" values="0;1;0" dur="1.7s" begin="0.4s" repeatCount="indefinite"/></circle>
    <circle cx="320" cy="147" r="1.3"><animate attributeName="opacity" values="0;1;0" dur="1.9s" begin="0.7s" repeatCount="indefinite"/></circle>
  </g>
  <g fill="#A78BFA" opacity="0.6">
    <rect x="780" y="27" width="6" height="2"><animate attributeName="opacity" values="0.2;1;0.2" dur="1.4s" repeatCount="indefinite"/></rect>
    <rect x="800" y="27" width="6" height="2"><animate attributeName="opacity" values="0.2;1;0.2" dur="1.2s" begin="0.3s" repeatCount="indefinite"/></rect>
    <rect x="820" y="27" width="6" height="2"><animate attributeName="opacity" values="0.2;1;0.2" dur="1.6s" begin="0.6s" repeatCount="indefinite"/></rect>
    <rect x="840" y="27" width="6" height="2"><animate attributeName="opacity" values="0.2;1;0.2" dur="1.3s" begin="0.9s" repeatCount="indefinite"/></rect>
  </g>
  <g fill="#C4B5FD" opacity="0.85">
    <rect x="730" y="165" width="3" height="3" rx="0.6"><animate attributeName="opacity" values="0.3;1;0.3" dur="1.4s" repeatCount="indefinite"/></rect>
    <rect x="746" y="165" width="3" height="3" rx="0.6"><animate attributeName="opacity" values="0.3;1;0.3" dur="1.2s" begin="0.3s" repeatCount="indefinite"/></rect>
    <rect x="762" y="165" width="3" height="3" rx="0.6"><animate attributeName="opacity" values="0.3;1;0.3" dur="1.6s" begin="0.6s" repeatCount="indefinite"/></rect>
  </g>
  <g stroke="#A78BFA" stroke-width="0.5" stroke-opacity="0.35" fill="none">
    <path d="M20 95 L28 95"><animate attributeName="stroke-opacity" values="0;0.7;0" dur="2s" repeatCount="indefinite"/></path>
    <path d="M20 125 L28 125"><animate attributeName="stroke-opacity" values="0;0.7;0" dur="2.2s" begin="0.3s" repeatCount="indefinite"/></path>
    <path d="M20 155 L28 155"><animate attributeName="stroke-opacity" values="0;0.7;0" dur="1.8s" begin="0.6s" repeatCount="indefinite"/></path>
  </g>
  <g stroke="#C4B5FD" stroke-width="0.6" stroke-opacity="0.3" fill="none">
    <circle cx="500" cy="105" r="100"><animate attributeName="r" values="80;120;80" dur="4s" repeatCount="indefinite"/><animate attributeName="stroke-opacity" values="0.4;0;0.4" dur="4s" repeatCount="indefinite"/></circle>
  </g>
  <g fill="#4ADE80">
    <circle cx="240" cy="273" r="1.5"><animate attributeName="opacity" values="0;1;0" dur="1.8s" repeatCount="indefinite"/></circle>
    <circle cx="290" cy="273" r="1.5"><animate attributeName="opacity" values="0;1;0" dur="1.6s" begin="0.2s" repeatCount="indefinite"/></circle>
    <circle cx="340" cy="273" r="1.5"><animate attributeName="opacity" values="0;1;0" dur="2.0s" begin="0.4s" repeatCount="indefinite"/></circle>
    <circle cx="390" cy="273" r="1.5"><animate attributeName="opacity" values="0;1;0" dur="1.7s" begin="0.6s" repeatCount="indefinite"/></circle>
    <circle cx="440" cy="273" r="1.5"><animate attributeName="opacity" values="0;1;0" dur="1.9s" begin="0.8s" repeatCount="indefinite"/></circle>
    <circle cx="780" cy="265" r="1.4"><animate attributeName="opacity" values="0;1;0" dur="1.6s" repeatCount="indefinite"/></circle>
    <circle cx="820" cy="265" r="1.4"><animate attributeName="opacity" values="0;1;0" dur="2.0s" begin="0.3s" repeatCount="indefinite"/></circle>
    <circle cx="860" cy="265" r="1.4"><animate attributeName="opacity" values="0;1;0" dur="1.8s" begin="0.6s" repeatCount="indefinite"/></circle>
    <circle cx="240" cy="357" r="1.3"><animate attributeName="opacity" values="0;1;0" dur="1.7s" begin="0.4s" repeatCount="indefinite"/></circle>
    <circle cx="320" cy="357" r="1.3"><animate attributeName="opacity" values="0;1;0" dur="1.9s" begin="0.7s" repeatCount="indefinite"/></circle>
  </g>
  <g fill="#4ADE80" opacity="0.6">
    <rect x="780" y="237" width="6" height="2"><animate attributeName="opacity" values="0.2;1;0.2" dur="1.4s" repeatCount="indefinite"/></rect>
    <rect x="800" y="237" width="6" height="2"><animate attributeName="opacity" values="0.2;1;0.2" dur="1.2s" begin="0.3s" repeatCount="indefinite"/></rect>
    <rect x="820" y="237" width="6" height="2"><animate attributeName="opacity" values="0.2;1;0.2" dur="1.6s" begin="0.6s" repeatCount="indefinite"/></rect>
    <rect x="840" y="237" width="6" height="2"><animate attributeName="opacity" values="0.2;1;0.2" dur="1.3s" begin="0.9s" repeatCount="indefinite"/></rect>
  </g>
  <g fill="#86EFAC" opacity="0.85">
    <rect x="730" y="375" width="3" height="3" rx="0.6"><animate attributeName="opacity" values="0.3;1;0.3" dur="1.4s" repeatCount="indefinite"/></rect>
    <rect x="746" y="375" width="3" height="3" rx="0.6"><animate attributeName="opacity" values="0.3;1;0.3" dur="1.2s" begin="0.3s" repeatCount="indefinite"/></rect>
    <rect x="762" y="375" width="3" height="3" rx="0.6"><animate attributeName="opacity" values="0.3;1;0.3" dur="1.6s" begin="0.6s" repeatCount="indefinite"/></rect>
  </g>
  <g stroke="#4ADE80" stroke-width="0.5" stroke-opacity="0.35" fill="none">
    <path d="M20 305 L28 305"><animate attributeName="stroke-opacity" values="0;0.7;0" dur="2s" repeatCount="indefinite"/></path>
    <path d="M20 335 L28 335"><animate attributeName="stroke-opacity" values="0;0.7;0" dur="2.2s" begin="0.3s" repeatCount="indefinite"/></path>
    <path d="M20 365 L28 365"><animate attributeName="stroke-opacity" values="0;0.7;0" dur="1.8s" begin="0.6s" repeatCount="indefinite"/></path>
  </g>
  <g stroke="#86EFAC" stroke-width="0.6" stroke-opacity="0.3" fill="none">
    <circle cx="500" cy="315" r="100"><animate attributeName="r" values="80;120;80" dur="4s" repeatCount="indefinite"/><animate attributeName="stroke-opacity" values="0.4;0;0.4" dur="4s" repeatCount="indefinite"/></circle>
  </g>
  <g fill="#FFB703">
    <circle cx="240" cy="483" r="1.5"><animate attributeName="opacity" values="0;1;0" dur="1.8s" repeatCount="indefinite"/></circle>
    <circle cx="290" cy="483" r="1.5"><animate attributeName="opacity" values="0;1;0" dur="1.6s" begin="0.2s" repeatCount="indefinite"/></circle>
    <circle cx="340" cy="483" r="1.5"><animate attributeName="opacity" values="0;1;0" dur="2.0s" begin="0.4s" repeatCount="indefinite"/></circle>
    <circle cx="390" cy="483" r="1.5"><animate attributeName="opacity" values="0;1;0" dur="1.7s" begin="0.6s" repeatCount="indefinite"/></circle>
    <circle cx="440" cy="483" r="1.5"><animate attributeName="opacity" values="0;1;0" dur="1.9s" begin="0.8s" repeatCount="indefinite"/></circle>
    <circle cx="780" cy="475" r="1.4"><animate attributeName="opacity" values="0;1;0" dur="1.6s" repeatCount="indefinite"/></circle>
    <circle cx="820" cy="475" r="1.4"><animate attributeName="opacity" values="0;1;0" dur="2.0s" begin="0.3s" repeatCount="indefinite"/></circle>
    <circle cx="860" cy="475" r="1.4"><animate attributeName="opacity" values="0;1;0" dur="1.8s" begin="0.6s" repeatCount="indefinite"/></circle>
    <circle cx="240" cy="567" r="1.3"><animate attributeName="opacity" values="0;1;0" dur="1.7s" begin="0.4s" repeatCount="indefinite"/></circle>
    <circle cx="320" cy="567" r="1.3"><animate attributeName="opacity" values="0;1;0" dur="1.9s" begin="0.7s" repeatCount="indefinite"/></circle>
  </g>
  <g fill="#FFB703" opacity="0.6">
    <rect x="780" y="447" width="6" height="2"><animate attributeName="opacity" values="0.2;1;0.2" dur="1.4s" repeatCount="indefinite"/></rect>
    <rect x="800" y="447" width="6" height="2"><animate attributeName="opacity" values="0.2;1;0.2" dur="1.2s" begin="0.3s" repeatCount="indefinite"/></rect>
    <rect x="820" y="447" width="6" height="2"><animate attributeName="opacity" values="0.2;1;0.2" dur="1.6s" begin="0.6s" repeatCount="indefinite"/></rect>
    <rect x="840" y="447" width="6" height="2"><animate attributeName="opacity" values="0.2;1;0.2" dur="1.3s" begin="0.9s" repeatCount="indefinite"/></rect>
  </g>
  <g fill="#FCD34D" opacity="0.85">
    <rect x="730" y="585" width="3" height="3" rx="0.6"><animate attributeName="opacity" values="0.3;1;0.3" dur="1.4s" repeatCount="indefinite"/></rect>
    <rect x="746" y="585" width="3" height="3" rx="0.6"><animate attributeName="opacity" values="0.3;1;0.3" dur="1.2s" begin="0.3s" repeatCount="indefinite"/></rect>
    <rect x="762" y="585" width="3" height="3" rx="0.6"><animate attributeName="opacity" values="0.3;1;0.3" dur="1.6s" begin="0.6s" repeatCount="indefinite"/></rect>
  </g>
  <g stroke="#FFB703" stroke-width="0.5" stroke-opacity="0.35" fill="none">
    <path d="M20 515 L28 515"><animate attributeName="stroke-opacity" values="0;0.7;0" dur="2s" repeatCount="indefinite"/></path>
    <path d="M20 545 L28 545"><animate attributeName="stroke-opacity" values="0;0.7;0" dur="2.2s" begin="0.3s" repeatCount="indefinite"/></path>
    <path d="M20 575 L28 575"><animate attributeName="stroke-opacity" values="0;0.7;0" dur="1.8s" begin="0.6s" repeatCount="indefinite"/></path>
  </g>
  <g stroke="#FCD34D" stroke-width="0.6" stroke-opacity="0.3" fill="none">
    <circle cx="500" cy="525" r="100"><animate attributeName="r" values="80;120;80" dur="4s" repeatCount="indefinite"/><animate attributeName="stroke-opacity" values="0.4;0;0.4" dur="4s" repeatCount="indefinite"/></circle>
  </g>
</g>
<g transform="translate(1080,504)" filter="url(#softShadow)">
  <rect x="-8" y="-8" width="100" height="100" rx="6" fill="#FFFFFF"/>
  <path fill="#0A1020" d="M0.0 0.0h15.892v2.27h-15.892z M22.703 0.0h2.27v2.27h-2.27z M36.324 0.0h2.27v2.27h-2.27z M43.135 0.0h2.27v2.27h-2.27z M47.676 0.0h2.27v2.27h-2.27z M56.757 0.0h4.541v2.27h-4.541z M68.108 0.0h15.892v2.27h-15.892z M0.0 2.27h2.27v2.27h-2.27z M13.622 2.27h2.27v2.27h-2.27z M18.162 2.27h4.541v2.27h-4.541z M34.054 2.27h2.27v2.27h-2.27z M38.595 2.27h2.27v2.27h-2.27z M45.405 2.27h4.541v2.27h-4.541z M56.757 2.27h4.541v2.27h-4.541z M63.568 2.27h2.27v2.27h-2.27z M68.108 2.27h2.27v2.27h-2.27z M81.73 2.27h2.27v2.27h-2.27z M0.0 4.541h2.27v2.27h-2.27z M4.541 4.541h6.811v2.27h-6.811z M13.622 4.541h2.27v2.27h-2.27z M18.162 4.541h4.541v2.27h-4.541z M24.973 4.541h9.081v2.27h-9.081z M47.676 4.541h9.081v2.27h-9.081z M59.027 4.541h6.811v2.27h-6.811z M68.108 4.541h2.27v2.27h-2.27z M72.649 4.541h6.811v2.27h-6.811z M81.73 4.541h2.27v2.27h-2.27z M0.0 6.811h2.27v2.27h-2.27z M4.541 6.811h6.811v2.27h-6.811z M13.622 6.811h2.27v2.27h-2.27z M18.162 6.811h2.27v2.27h-2.27z M22.703 6.811h4.541v2.27h-4.541z M29.514 6.811h4.541v2.27h-4.541z M38.595 6.811h4.541v2.27h-4.541z M45.405 6.811h4.541v2.27h-4.541z M54.486 6.811h4.541v2.27h-4.541z M68.108 6.811h2.27v2.27h-2.27z M72.649 6.811h6.811v2.27h-6.811z M81.73 6.811h2.27v2.27h-2.27z M0.0 9.081h2.27v2.27h-2.27z M4.541 9.081h6.811v2.27h-6.811z M13.622 9.081h2.27v2.27h-2.27z M24.973 9.081h2.27v2.27h-2.27z M31.784 9.081h2.27v2.27h-2.27z M38.595 9.081h2.27v2.27h-2.27z M43.135 9.081h2.27v2.27h-2.27z M47.676 9.081h2.27v2.27h-2.27z M52.216 9.081h2.27v2.27h-2.27z M56.757 9.081h2.27v2.27h-2.27z M63.568 9.081h2.27v2.27h-2.27z M68.108 9.081h2.27v2.27h-2.27z M72.649 9.081h6.811v2.27h-6.811z M81.73 9.081h2.27v2.27h-2.27z M0.0 11.351h2.27v2.27h-2.27z M13.622 11.351h2.27v2.27h-2.27z M34.054 11.351h2.27v2.27h-2.27z M38.595 11.351h2.27v2.27h-2.27z M45.405 11.351h2.27v2.27h-2.27z M49.946 11.351h2.27v2.27h-2.27z M54.486 11.351h4.541v2.27h-4.541z M68.108 11.351h2.27v2.27h-2.27z M81.73 11.351h2.27v2.27h-2.27z M0.0 13.622h15.892v2.27h-15.892z M18.162 13.622h2.27v2.27h-2.27z M22.703 13.622h2.27v2.27h-2.27z M27.243 13.622h2.27v2.27h-2.27z M31.784 13.622h2.27v2.27h-2.27z M36.324 13.622h2.27v2.27h-2.27z M40.865 13.622h2.27v2.27h-2.27z M45.405 13.622h2.27v2.27h-2.27z M49.946 13.622h2.27v2.27h-2.27z M54.486 13.622h2.27v2.27h-2.27z M59.027 13.622h2.27v2.27h-2.27z M63.568 13.622h2.27v2.27h-2.27z M68.108 13.622h15.892v2.27h-15.892z M18.162 15.892h2.27v2.27h-2.27z M43.135 15.892h2.27v2.27h-2.27z M52.216 15.892h2.27v2.27h-2.27z M59.027 15.892h2.27v2.27h-2.27z M63.568 15.892h2.27v2.27h-2.27z M0.0 18.162h2.27v2.27h-2.27z M13.622 18.162h2.27v2.27h-2.27z M18.162 18.162h6.811v2.27h-6.811z M31.784 18.162h4.541v2.27h-4.541z M47.676 18.162h6.811v2.27h-6.811z M56.757 18.162h6.811v2.27h-6.811z M65.838 18.162h4.541v2.27h-4.541z M74.919 18.162h6.811v2.27h-6.811z M6.811 20.432h2.27v2.27h-2.27z M11.351 20.432h2.27v2.27h-2.27z M15.892 20.432h2.27v2.27h-2.27z M20.432 20.432h6.811v2.27h-6.811z M31.784 20.432h2.27v2.27h-2.27z M40.865 20.432h4.541v2.27h-4.541z M47.676 20.432h2.27v2.27h-2.27z M52.216 20.432h2.27v2.27h-2.27z M56.757 20.432h6.811v2.27h-6.811z M70.378 20.432h6.811v2.27h-6.811z M79.459 20.432h2.27v2.27h-2.27z M0.0 22.703h4.541v2.27h-4.541z M6.811 22.703h9.081v2.27h-9.081z M20.432 22.703h2.27v2.27h-2.27z M24.973 22.703h6.811v2.27h-6.811z M38.595 22.703h4.541v2.27h-4.541z M49.946 22.703h2.27v2.27h-2.27z M56.757 22.703h13.622v2.27h-13.622z M72.649 22.703h2.27v2.27h-2.27z M77.189 22.703h6.811v2.27h-6.811z M0.0 24.973h2.27v2.27h-2.27z M11.351 24.973h2.27v2.27h-2.27z M20.432 24.973h9.081v2.27h-9.081z M34.054 24.973h4.541v2.27h-4.541z M40.865 24.973h2.27v2.27h-2.27z M45.405 24.973h2.27v2.27h-2.27z M49.946 24.973h2.27v2.27h-2.27z M59.027 24.973h2.27v2.27h-2.27z M63.568 24.973h2.27v2.27h-2.27z M68.108 24.973h2.27v2.27h-2.27z M74.919 24.973h2.27v2.27h-2.27z M81.73 24.973h2.27v2.27h-2.27z M0.0 27.243h15.892v2.27h-15.892z M18.162 27.243h2.27v2.27h-2.27z M22.703 27.243h11.351v2.27h-11.351z M36.324 27.243h2.27v2.27h-2.27z M40.865 27.243h4.541v2.27h-4.541z M52.216 27.243h4.541v2.27h-4.541z M61.297 27.243h2.27v2.27h-2.27z M68.108 27.243h2.27v2.27h-2.27z M77.189 27.243h2.27v2.27h-2.27z M81.73 27.243h2.27v2.27h-2.27z M0.0 29.514h2.27v2.27h-2.27z M4.541 29.514h2.27v2.27h-2.27z M9.081 29.514h2.27v2.27h-2.27z M20.432 29.514h2.27v2.27h-2.27z M27.243 29.514h4.541v2.27h-4.541z M34.054 29.514h2.27v2.27h-2.27z M43.135 29.514h6.811v2.27h-6.811z M52.216 29.514h6.811v2.27h-6.811z M61.297 29.514h4.541v2.27h-4.541z M70.378 29.514h2.27v2.27h-2.27z M74.919 29.514h2.27v2.27h-2.27z M4.541 31.784h4.541v2.27h-4.541z M11.351 31.784h4.541v2.27h-4.541z M18.162 31.784h2.27v2.27h-2.27z M22.703 31.784h4.541v2.27h-4.541z M29.514 31.784h2.27v2.27h-2.27z M34.054 31.784h2.27v2.27h-2.27z M38.595 31.784h4.541v2.27h-4.541z M49.946 31.784h2.27v2.27h-2.27z M54.486 31.784h2.27v2.27h-2.27z M59.027 31.784h4.541v2.27h-4.541z M65.838 31.784h2.27v2.27h-2.27z M70.378 31.784h6.811v2.27h-6.811z M81.73 31.784h2.27v2.27h-2.27z M0.0 34.054h2.27v2.27h-2.27z M6.811 34.054h2.27v2.27h-2.27z M20.432 34.054h2.27v2.27h-2.27z M24.973 34.054h2.27v2.27h-2.27z M34.054 34.054h4.541v2.27h-4.541z M52.216 34.054h2.27v2.27h-2.27z M59.027 34.054h6.811v2.27h-6.811z M68.108 34.054h4.541v2.27h-4.541z M74.919 34.054h4.541v2.27h-4.541z M81.73 34.054h2.27v2.27h-2.27z M4.541 36.324h2.27v2.27h-2.27z M13.622 36.324h6.811v2.27h-6.811z M22.703 36.324h2.27v2.27h-2.27z M27.243 36.324h2.27v2.27h-2.27z M34.054 36.324h2.27v2.27h-2.27z M38.595 36.324h2.27v2.27h-2.27z M45.405 36.324h18.162v2.27h-18.162z M65.838 36.324h4.541v2.27h-4.541z M77.189 36.324h2.27v2.27h-2.27z M81.73 36.324h2.27v2.27h-2.27z M0.0 38.595h2.27v2.27h-2.27z M11.351 38.595h2.27v2.27h-2.27z M15.892 38.595h2.27v2.27h-2.27z M22.703 38.595h6.811v2.27h-6.811z M40.865 38.595h9.081v2.27h-9.081z M52.216 38.595h2.27v2.27h-2.27z M59.027 38.595h6.811v2.27h-6.811z M70.378 38.595h2.27v2.27h-2.27z M74.919 38.595h2.27v2.27h-2.27z M79.459 38.595h2.27v2.27h-2.27z M0.0 40.865h6.811v2.27h-6.811z M9.081 40.865h18.162v2.27h-18.162z M34.054 40.865h2.27v2.27h-2.27z M38.595 40.865h6.811v2.27h-6.811z M47.676 40.865h2.27v2.27h-2.27z M52.216 40.865h2.27v2.27h-2.27z M56.757 40.865h2.27v2.27h-2.27z M61.297 40.865h2.27v2.27h-2.27z M68.108 40.865h2.27v2.27h-2.27z M74.919 40.865h4.541v2.27h-4.541z M81.73 40.865h2.27v2.27h-2.27z M0.0 43.135h4.541v2.27h-4.541z M9.081 43.135h4.541v2.27h-4.541z M18.162 43.135h2.27v2.27h-2.27z M22.703 43.135h2.27v2.27h-2.27z M27.243 43.135h11.351v2.27h-11.351z M40.865 43.135h2.27v2.27h-2.27z M49.946 43.135h4.541v2.27h-4.541z M61.297 43.135h15.892v2.27h-15.892z M81.73 43.135h2.27v2.27h-2.27z M2.27 45.405h4.541v2.27h-4.541z M11.351 45.405h6.811v2.27h-6.811z M20.432 45.405h2.27v2.27h-2.27z M27.243 45.405h2.27v2.27h-2.27z M31.784 45.405h2.27v2.27h-2.27z M36.324 45.405h6.811v2.27h-6.811z M45.405 45.405h2.27v2.27h-2.27z M54.486 45.405h15.892v2.27h-15.892z M72.649 45.405h6.811v2.27h-6.811z M4.541 47.676h2.27v2.27h-2.27z M9.081 47.676h2.27v2.27h-2.27z M15.892 47.676h6.811v2.27h-6.811z M24.973 47.676h4.541v2.27h-4.541z M34.054 47.676h6.811v2.27h-6.811z M43.135 47.676h2.27v2.27h-2.27z M49.946 47.676h4.541v2.27h-4.541z M56.757 47.676h2.27v2.27h-2.27z M61.297 47.676h4.541v2.27h-4.541z M72.649 47.676h2.27v2.27h-2.27z M77.189 47.676h4.541v2.27h-4.541z M2.27 49.946h6.811v2.27h-6.811z M13.622 49.946h2.27v2.27h-2.27z M20.432 49.946h2.27v2.27h-2.27z M24.973 49.946h2.27v2.27h-2.27z M29.514 49.946h2.27v2.27h-2.27z M34.054 49.946h2.27v2.27h-2.27z M45.405 49.946h4.541v2.27h-4.541z M61.297 49.946h2.27v2.27h-2.27z M65.838 49.946h2.27v2.27h-2.27z M70.378 49.946h6.811v2.27h-6.811z M81.73 49.946h2.27v2.27h-2.27z M0.0 52.216h2.27v2.27h-2.27z M4.541 52.216h2.27v2.27h-2.27z M11.351 52.216h2.27v2.27h-2.27z M15.892 52.216h2.27v2.27h-2.27z M22.703 52.216h4.541v2.27h-4.541z M29.514 52.216h2.27v2.27h-2.27z M40.865 52.216h4.541v2.27h-4.541z M49.946 52.216h4.541v2.27h-4.541z M59.027 52.216h9.081v2.27h-9.081z M70.378 52.216h6.811v2.27h-6.811z M0.0 54.486h4.541v2.27h-4.541z M11.351 54.486h4.541v2.27h-4.541z M18.162 54.486h2.27v2.27h-2.27z M24.973 54.486h4.541v2.27h-4.541z M31.784 54.486h6.811v2.27h-6.811z M43.135 54.486h6.811v2.27h-6.811z M54.486 54.486h4.541v2.27h-4.541z M68.108 54.486h2.27v2.27h-2.27z M72.649 54.486h2.27v2.27h-2.27z M79.459 54.486h4.541v2.27h-4.541z M0.0 56.757h9.081v2.27h-9.081z M15.892 56.757h2.27v2.27h-2.27z M22.703 56.757h6.811v2.27h-6.811z M34.054 56.757h2.27v2.27h-2.27z M40.865 56.757h9.081v2.27h-9.081z M52.216 56.757h2.27v2.27h-2.27z M59.027 56.757h2.27v2.27h-2.27z M63.568 56.757h2.27v2.27h-2.27z M70.378 56.757h2.27v2.27h-2.27z M74.919 56.757h2.27v2.27h-2.27z M0.0 59.027h2.27v2.27h-2.27z M9.081 59.027h2.27v2.27h-2.27z M13.622 59.027h2.27v2.27h-2.27z M22.703 59.027h6.811v2.27h-6.811z M34.054 59.027h2.27v2.27h-2.27z M38.595 59.027h4.541v2.27h-4.541z M49.946 59.027h2.27v2.27h-2.27z M56.757 59.027h2.27v2.27h-2.27z M61.297 59.027h4.541v2.27h-4.541z M68.108 59.027h2.27v2.27h-2.27z M79.459 59.027h4.541v2.27h-4.541z M0.0 61.297h2.27v2.27h-2.27z M4.541 61.297h2.27v2.27h-2.27z M9.081 61.297h4.541v2.27h-4.541z M15.892 61.297h2.27v2.27h-2.27z M20.432 61.297h4.541v2.27h-4.541z M27.243 61.297h2.27v2.27h-2.27z M31.784 61.297h2.27v2.27h-2.27z M40.865 61.297h2.27v2.27h-2.27z M54.486 61.297h2.27v2.27h-2.27z M59.027 61.297h4.541v2.27h-4.541z M65.838 61.297h2.27v2.27h-2.27z M74.919 61.297h6.811v2.27h-6.811z M0.0 63.568h2.27v2.27h-2.27z M6.811 63.568h9.081v2.27h-9.081z M18.162 63.568h2.27v2.27h-2.27z M24.973 63.568h6.811v2.27h-6.811z M34.054 63.568h9.081v2.27h-9.081z M45.405 63.568h2.27v2.27h-2.27z M49.946 63.568h11.351v2.27h-11.351z M63.568 63.568h15.892v2.27h-15.892z M81.73 63.568h2.27v2.27h-2.27z M18.162 65.838h4.541v2.27h-4.541z M24.973 65.838h2.27v2.27h-2.27z M34.054 65.838h2.27v2.27h-2.27z M38.595 65.838h2.27v2.27h-2.27z M43.135 65.838h11.351v2.27h-11.351z M56.757 65.838h2.27v2.27h-2.27z M63.568 65.838h2.27v2.27h-2.27z M72.649 65.838h2.27v2.27h-2.27z M79.459 65.838h2.27v2.27h-2.27z M0.0 68.108h15.892v2.27h-15.892z M34.054 68.108h2.27v2.27h-2.27z M43.135 68.108h2.27v2.27h-2.27z M47.676 68.108h6.811v2.27h-6.811z M63.568 68.108h2.27v2.27h-2.27z M68.108 68.108h2.27v2.27h-2.27z M72.649 68.108h2.27v2.27h-2.27z M79.459 68.108h4.541v2.27h-4.541z M0.0 70.378h2.27v2.27h-2.27z M13.622 70.378h2.27v2.27h-2.27z M20.432 70.378h4.541v2.27h-4.541z M29.514 70.378h2.27v2.27h-2.27z M34.054 70.378h4.541v2.27h-4.541z M43.135 70.378h4.541v2.27h-4.541z M49.946 70.378h4.541v2.27h-4.541z M59.027 70.378h2.27v2.27h-2.27z M63.568 70.378h2.27v2.27h-2.27z M72.649 70.378h2.27v2.27h-2.27z M79.459 70.378h2.27v2.27h-2.27z M0.0 72.649h2.27v2.27h-2.27z M4.541 72.649h6.811v2.27h-6.811z M13.622 72.649h2.27v2.27h-2.27z M20.432 72.649h4.541v2.27h-4.541z M29.514 72.649h4.541v2.27h-4.541z M38.595 72.649h2.27v2.27h-2.27z M43.135 72.649h2.27v2.27h-2.27z M47.676 72.649h4.541v2.27h-4.541z M54.486 72.649h2.27v2.27h-2.27z M59.027 72.649h15.892v2.27h-15.892z M77.189 72.649h4.541v2.27h-4.541z M0.0 74.919h2.27v2.27h-2.27z M4.541 74.919h6.811v2.27h-6.811z M13.622 74.919h2.27v2.27h-2.27z M24.973 74.919h2.27v2.27h-2.27z M29.514 74.919h2.27v2.27h-2.27z M34.054 74.919h2.27v2.27h-2.27z M52.216 74.919h2.27v2.27h-2.27z M59.027 74.919h2.27v2.27h-2.27z M63.568 74.919h6.811v2.27h-6.811z M77.189 74.919h6.811v2.27h-6.811z M0.0 77.189h2.27v2.27h-2.27z M4.541 77.189h6.811v2.27h-6.811z M13.622 77.189h2.27v2.27h-2.27z M20.432 77.189h9.081v2.27h-9.081z M31.784 77.189h9.081v2.27h-9.081z M45.405 77.189h4.541v2.27h-4.541z M54.486 77.189h2.27v2.27h-2.27z M61.297 77.189h4.541v2.27h-4.541z M77.189 77.189h6.811v2.27h-6.811z M0.0 79.459h2.27v2.27h-2.27z M13.622 79.459h2.27v2.27h-2.27z M22.703 79.459h2.27v2.27h-2.27z M27.243 79.459h4.541v2.27h-4.541z M36.324 79.459h2.27v2.27h-2.27z M40.865 79.459h6.811v2.27h-6.811z M59.027 79.459h4.541v2.27h-4.541z M65.838 79.459h4.541v2.27h-4.541z M72.649 79.459h4.541v2.27h-4.541z M81.73 79.459h2.27v2.27h-2.27z M0.0 81.73h15.892v2.27h-15.892z M18.162 81.73h2.27v2.27h-2.27z M24.973 81.73h4.541v2.27h-4.541z M31.784 81.73h6.811v2.27h-6.811z M40.865 81.73h2.27v2.27h-2.27z M45.405 81.73h2.27v2.27h-2.27z M52.216 81.73h4.541v2.27h-4.541z M63.568 81.73h2.27v2.27h-2.27z M70.378 81.73h2.27v2.27h-2.27z M74.919 81.73h2.27v2.27h-2.27z M81.73 81.73h2.27v2.27h-2.27z"/>
</g>
<text x="1122" y="614" font-family="Inter, Helvetica, Arial, sans-serif" font-size="10" font-weight="700" fill="#F5F7FA" text-anchor="middle">scan / full post</text>
</svg>