<svg xmlns="http://www.w3.org/2000/svg" width="1200" height="630" viewBox="0 0 1200 630">
  <defs>
    <linearGradient id="bg" x1="0%" y1="0%" x2="100%" y2="100%">
      <stop offset="0%" stop-color="#0a0e1a"/>
      <stop offset="60%" stop-color="#0f1628"/>
      <stop offset="100%" stop-color="#141b2d"/>
    </linearGradient>
    <linearGradient id="hg" x1="0%" y1="0%" x2="100%" y2="0%">
      <stop offset="0%" stop-color="#1e293b"/>
      <stop offset="100%" stop-color="#0f172a"/>
    </linearGradient>
    <filter id="glow" x="-50%" y="-50%" width="200%" height="200%">
      <feGaussianBlur stdDeviation="18"/>
    </filter>
  </defs>
  <rect width="1200" height="630" fill="url(#bg)"/>
  <g opacity="0.04" stroke="#94a3b8" stroke-width="0.5">
    <line x1="0" y1="105" x2="1200" y2="105"/><line x1="0" y1="210" x2="1200" y2="210"/>
    <line x1="0" y1="315" x2="1200" y2="315"/><line x1="0" y1="420" x2="1200" y2="420"/>
    <line x1="0" y1="525" x2="1200" y2="525"/>
    <line x1="240" y1="0" x2="240" y2="630"/><line x1="480" y1="0" x2="480" y2="630"/>
    <line x1="720" y1="0" x2="720" y2="630"/><line x1="960" y1="0" x2="960" y2="630"/>
  </g>
  <circle cx="600" cy="320" r="260" fill="#a855f7" opacity="0.05" filter="url(#glow)"/>

  <!-- Shared header frame -->
  <rect x="0" y="0" width="1200" height="80" fill="url(#hg)" opacity="0.9"/>
  <rect x="0" y="78" width="1200" height="2" fill="#334155" opacity="0.8"/>
  <g transform="translate(48,40)">
    <path d="M0,-22 L18,-12 L18,3 C18,13 10,20 0,24 C-10,20 -18,13 -18,3 L-18,-12 Z" fill="#1e3a5f" stroke="#a855f7" stroke-width="1.5"/>
    <path d="M-7,1 L-2,6 L8,-5" stroke="#a855f7" stroke-width="2.5" fill="none" stroke-linecap="round"/>
  </g>
  <text x="80" y="42" font-family="Arial,sans-serif" font-size="26" font-weight="700" fill="#f1f5f9">Roadmap</text>
  <text x="80" y="62" font-family="Arial,sans-serif" font-size="13" fill="#94a3b8">Maturity progression plan</text>
  <rect x="990" y="18" width="178" height="44" rx="6" fill="#1e293b" stroke="#334155" stroke-width="1"/>
  <text x="1079" y="48" font-family="Arial,sans-serif" font-size="15" font-weight="700" fill="#94a3b8" text-anchor="middle">January 10, 2026</text>

  <!-- S-curve spine -->
  <path d="M 80 460 C 280 460, 360 320, 600 300 S 900 200, 1120 160"
        fill="none" stroke="#a855f7" stroke-width="3" opacity="0.85"/>
  <path d="M 80 460 C 280 460, 360 320, 600 300 S 900 200, 1120 160"
        fill="none" stroke="#a855f7" stroke-width="10" opacity="0.12"/>

  <!-- Milestone 1: SEC OPS -->
  <circle cx="180" cy="448" r="16" fill="#1a0f1d" stroke="#c084fc" stroke-width="3"/>
  <circle cx="180" cy="448" r="10" fill="#c084fc" opacity="0.3"/>
  <text x="180" y="452" font-family="Arial,sans-serif" font-size="11" font-weight="700" fill="#c084fc" text-anchor="middle">Q1</text>
  <text x="180" y="406" font-family="Arial,sans-serif" font-size="13" font-weight="700" fill="#c084fc" text-anchor="middle">SEC OPS</text>
  <!-- Milestone 2: THREAT INT -->
  <circle cx="380" cy="380" r="18" fill="#1a0f1d" stroke="#a855f7" stroke-width="3"/>
  <circle cx="380" cy="380" r="12" fill="#a855f7" opacity="0.3"/>
  <text x="380" y="384" font-family="Arial,sans-serif" font-size="11" font-weight="700" fill="#a855f7" text-anchor="middle">Q2</text>
  <text x="380" y="422" font-family="Arial,sans-serif" font-size="13" font-weight="700" fill="#a855f7" text-anchor="middle">THREAT INT</text>
  <!-- Milestone 3: CLOUD SEC -->
  <circle cx="600" cy="300" r="22" fill="#1a0f1d" stroke="#9333ea" stroke-width="3"/>
  <circle cx="600" cy="300" r="16" fill="#9333ea" opacity="0.3"/>
  <text x="600" y="304" font-family="Arial,sans-serif" font-size="11" font-weight="700" fill="#9333ea" text-anchor="middle">Q3</text>
  <text x="600" y="258" font-family="Arial,sans-serif" font-size="13" font-weight="700" fill="#9333ea" text-anchor="middle">CLOUD SEC</text>
  <!-- Milestone 4: AI AGENT -->
  <circle cx="820" cy="240" r="18" fill="#1a0f1d" stroke="#7e22ce" stroke-width="3"/>
  <circle cx="820" cy="240" r="12" fill="#7e22ce" opacity="0.3"/>
  <text x="820" y="244" font-family="Arial,sans-serif" font-size="11" font-weight="700" fill="#7e22ce" text-anchor="middle">Q4</text>
  <text x="820" y="282" font-family="Arial,sans-serif" font-size="13" font-weight="700" fill="#7e22ce" text-anchor="middle">AI AGENT</text>
  <!-- Milestone 5: PATCH MGT -->
  <circle cx="1050" cy="170" r="16" fill="#1a0f1d" stroke="#6b21a8" stroke-width="3"/>
  <circle cx="1050" cy="170" r="10" fill="#6b21a8" opacity="0.3"/>
  <text x="1050" y="174" font-family="Arial,sans-serif" font-size="11" font-weight="700" fill="#6b21a8" text-anchor="middle">Q5</text>
  <text x="1050" y="128" font-family="Arial,sans-serif" font-size="13" font-weight="700" fill="#6b21a8" text-anchor="middle">PATCH MGT</text>
  <!-- Shared footer frame -->
  <rect x="0" y="540" width="1200" height="90" fill="#080c18" opacity="0.95"/>
  <rect x="0" y="540" width="1200" height="2" fill="#1e293b"/>
  <circle cx="32" cy="580" r="4" fill="#a855f7" opacity="0.6"/>
  <text x="46" y="585" font-family="Arial,sans-serif" font-size="12" fill="#475569">Roadmap | January 10, 2026</text>
  <text x="1168" y="585" font-family="Arial,sans-serif" font-size="12" fill="#475569" text-anchor="end">tech.2twodragon.com</text>
</svg>