<?xml version="1.0" encoding="UTF-8"?>
<svg xmlns="http://www.w3.org/2000/svg" viewBox="0 0 1200 630" width="1200" height="630">
  <title>AI-Tools-Ecosystem</title>
  <defs>
    <linearGradient id="bg" x1="0%" y1="0%" x2="100%" y2="100%">
      <stop offset="0%" style="stop-color:#0a0f1a" />
      <stop offset="100%" style="stop-color:#151a30" />
    </linearGradient>
    <linearGradient id="accent" x1="0%" y1="0%" x2="100%" y2="0%">
      <stop offset="0%" style="stop-color:#00cec9" />
      <stop offset="100%" style="stop-color:#6c5ce7" />
    </linearGradient>
  </defs>
  <rect width="1200" height="630" fill="url(#bg)" />
  <line x1="0" y1="105" x2="1200" y2="105" stroke="rgba(255,255,255,0.04)" stroke-width="1" />
  <line x1="0" y1="210" x2="1200" y2="210" stroke="rgba(255,255,255,0.04)" stroke-width="1" />
  <line x1="0" y1="315" x2="1200" y2="315" stroke="rgba(255,255,255,0.04)" stroke-width="1" />
  <line x1="0" y1="420" x2="1200" y2="420" stroke="rgba(255,255,255,0.04)" stroke-width="1" />
  <line x1="240" y1="0" x2="240" y2="630" stroke="rgba(255,255,255,0.03)" stroke-width="1" />
  <line x1="480" y1="0" x2="480" y2="630" stroke="rgba(255,255,255,0.03)" stroke-width="1" />
  <line x1="720" y1="0" x2="720" y2="630" stroke="rgba(255,255,255,0.03)" stroke-width="1" />
  <line x1="960" y1="0" x2="960" y2="630" stroke="rgba(255,255,255,0.03)" stroke-width="1" />
  <circle cx="1050" cy="450" r="200" fill="rgba(255,255,255,0.02)" />
  <circle cx="1050" cy="450" r="140" fill="rgba(255,255,255,0.02)" />
  
  <circle cx="960" cy="280" r="45" fill="rgba(0,206,201,0.18)" stroke="#00cec9" stroke-width="2.5" />
  <circle cx="960" cy="280" r="28" fill="rgba(0,206,201,0.25)" />
  <circle cx="960" cy="160" r="26" fill="rgba(0,206,201,0.15)" stroke="#00cec9" stroke-width="1.5" />
  <line x1="960" y1="235" x2="960" y2="186" stroke="rgba(0,206,201,0.45)" stroke-width="1.5" />
  
  <circle cx="1055" cy="192" r="24" fill="rgba(108,92,231,0.15)" stroke="#6c5ce7" stroke-width="1.5" />
  <line x1="992" y1="252" x2="1038" y2="211" stroke="rgba(108,92,231,0.45)" stroke-width="1.5" />
  
  <circle cx="1090" cy="280" r="24" fill="rgba(253,203,110,0.15)" stroke="#fdcb6e" stroke-width="1.5" />
  <line x1="1005" y1="280" x2="1066" y2="280" stroke="rgba(253,203,110,0.45)" stroke-width="1.5" />
  
  <circle cx="1055" cy="370" r="24" fill="rgba(0,206,201,0.12)" stroke="#00cec9" stroke-width="1.5" />
  <line x1="993" y1="309" x2="1038" y2="352" stroke="rgba(0,206,201,0.4)" stroke-width="1.5" />
  
  <circle cx="960" cy="400" r="24" fill="rgba(108,92,231,0.15)" stroke="#6c5ce7" stroke-width="1.5" />
  <line x1="960" y1="325" x2="960" y2="376" stroke="rgba(108,92,231,0.45)" stroke-width="1.5" />
  
  <circle cx="865" cy="370" r="24" fill="rgba(253,203,110,0.12)" stroke="#fdcb6e" stroke-width="1.5" />
  <line x1="927" y1="309" x2="882" y2="352" stroke="rgba(253,203,110,0.4)" stroke-width="1.5" />
  
  <circle cx="832" cy="280" r="24" fill="rgba(0,206,201,0.12)" stroke="#00cec9" stroke-width="1.5" />
  <line x1="915" y1="280" x2="856" y2="280" stroke="rgba(0,206,201,0.4)" stroke-width="1.5" />
  
  <rect x="0" y="0" width="6" height="630" fill="url(#accent)" />
  
  <rect x="80" y="60" width="240" height="32" rx="6" fill="rgba(0,206,201,0.2)" stroke="rgba(0,206,201,0.4)" stroke-width="1" />
  <text x="200" y="81" font-size="13" fill="rgba(255,255,255,0.85)" font-family="sans-serif" text-anchor="middle" letter-spacing="1">FEBRUARY 5, 2026</text>
  
  <text x="80" y="185" font-size="46" font-weight="700" fill="white" font-family="sans-serif">AI Tools Ecosystem</text>
  <text x="80" y="245" font-size="46" font-weight="700" fill="white" font-family="sans-serif">2026</text>
  
  <text x="80" y="300" font-size="19" fill="rgba(255,255,255,0.65)" font-family="sans-serif">Comprehensive landscape of AI tools: LLMs, code gen, agents and reasoning</text>
  
  <rect x="80" y="325" width="420" height="3" fill="url(#accent)" rx="2" />
  
  <text x="80" y="370" font-size="14" fill="rgba(255,255,255,0.5)" font-family="sans-serif" letter-spacing="2">AI TOOLS LANDSCAPE</text>
  
  <rect x="80" y="402" width="100" height="36" rx="18" fill="rgba(0,206,201,0.2)" stroke="rgba(0,206,201,0.45)" stroke-width="1" />
  <text x="130" y="425" font-size="13" fill="rgba(255,255,255,0.85)" font-family="sans-serif" text-anchor="middle">AI Tools</text>
  <rect x="196" y="402" width="110" height="36" rx="18" fill="rgba(108,92,231,0.2)" stroke="rgba(108,92,231,0.45)" stroke-width="1" />
  <text x="251" y="425" font-size="13" fill="rgba(255,255,255,0.85)" font-family="sans-serif" text-anchor="middle">Ecosystem</text>
  <rect x="322" y="402" width="70" height="36" rx="18" fill="rgba(0,206,201,0.15)" stroke="rgba(0,206,201,0.4)" stroke-width="1" />
  <text x="357" y="425" font-size="13" fill="rgba(255,255,255,0.85)" font-family="sans-serif" text-anchor="middle">2026</text>
  
  <rect x="0" y="520" width="1200" height="110" fill="rgba(0,0,0,0.3)" />
  <text x="80" y="545" font-size="15" fill="rgba(255,255,255,0.5)" font-family="sans-serif">tech.2twodragon.com</text>
  <text x="1120" y="545" font-size="13" fill="rgba(255,255,255,0.4)" font-family="sans-serif" text-anchor="end">DevSecOps</text>
</svg>