<svg xmlns="http://www.w3.org/2000/svg" viewBox="0 0 1200 630" width="1200" height="630">
  <title>KARA Ransomware Trends Report 2025 Q3 Analysis - ...</title>
  <defs>
    <linearGradient id="bg" x1="0%" y1="0%" x2="100%" y2="100%">
      <stop offset="0%" stop-color="#0b0e1a"/>
      <stop offset="50%" stop-color="#111827"/>
      <stop offset="100%" stop-color="#0f0a1e"/>
    </linearGradient>
    <linearGradient id="accent" x1="0%" y1="0%" x2="100%" y2="100%">
      <stop offset="0%" stop-color="#dc2626"/>
      <stop offset="100%" stop-color="#f59e0b"/>
    </linearGradient>
    <filter id="glow"><feGaussianBlur stdDeviation="4" result="b"/><feMerge><feMergeNode in="b"/><feMergeNode in="SourceGraphic"/></feMerge></filter>
    <filter id="sg"><feGaussianBlur stdDeviation="30"/></filter>
    <filter id="shadow"><feDropShadow dx="0" dy="6" stdDeviation="12" flood-color="#000" flood-opacity="0.4"/></filter>
  </defs>
  <rect width="1200" height="630" fill="url(#bg)"/>
  <circle cx="200" cy="200" r="250" fill="#dc2626" opacity="0.06" filter="url(#sg)"/>
  <circle cx="900" cy="400" r="200" fill="#f59e0b" opacity="0.05" filter="url(#sg)"/>
  <g transform="translate(600,250)">
    <!-- Giant padlock -->
    <rect x="-60" y="-10" width="120" height="90" rx="14" fill="#1e293b" stroke="#dc2626" stroke-width="3" filter="url(#shadow)"/>
    <path d="M-35,-10 v-40 c0,-50 70,-50 70,0 v40" stroke="#dc2626" stroke-width="5" fill="none" stroke-linecap="round"/>
    <circle cx="0" cy="35" r="14" fill="#dc2626"/>
    <rect x="-4" y="40" width="8" height="20" rx="4" fill="#dc2626"/>

    <!-- Encrypted file icons -->
    <g transform="translate(-200,-30)" opacity="0.6">
      <rect x="-25" y="-30" width="50" height="60" rx="6" fill="#0f172a" stroke="#f59e0b" stroke-width="1.5"/>
      <text x="0" y="-5" font-family="Courier New" font-size="16" fill="#fbbf24" text-anchor="middle">.enc</text>
      <text x="0" y="15" font-family="Courier New" font-size="8" fill="#64748b" text-anchor="middle">LOCKED</text>
    </g>
    <g transform="translate(200,-30)" opacity="0.6">
      <rect x="-25" y="-30" width="50" height="60" rx="6" fill="#0f172a" stroke="#f59e0b" stroke-width="1.5"/>
      <text x="0" y="-5" font-family="Courier New" font-size="16" fill="#fbbf24" text-anchor="middle">.enc</text>
      <text x="0" y="15" font-family="Courier New" font-size="8" fill="#64748b" text-anchor="middle">LOCKED</text>
    </g>

    <!-- Ransom demand -->
    <g transform="translate(0,140)" opacity="0.7">
      <rect x="-120" y="-18" width="240" height="36" rx="8" fill="#dc2626" opacity="0.15" stroke="#dc2626" stroke-width="1.5"/>
      <text x="0" y="4" font-family="Courier New" font-size="12" font-weight="bold" fill="#f87171" text-anchor="middle">THREAT DETECTED - RESPOND NOW</text>
    </g>
  </g>

  <text x="600" y="490" font-family="Arial,sans-serif" font-size="28" font-weight="bold" fill="white" text-anchor="middle" filter="url(#glow)">KARA Ransomware Trends 2025 Q3</text>
  <text x="600" y="555" font-family="Arial,sans-serif" font-size="15" fill="#94a3b8" text-anchor="middle">Ransomware | KARA | SK-Shieldus | LockBit</text>
  <rect x="40" y="22" width="140" height="32" rx="16" fill="#dc2626" opacity="0.25" stroke="#dc2626" stroke-width="1"/>
  <text x="110" y="44" font-family="Arial,sans-serif" font-size="13" font-weight="bold" fill="#dc2626" text-anchor="middle">SECURITY</text>
  <rect x="1020" y="22" width="140" height="32" rx="16" fill="#3b82f6" opacity="0.2" stroke="#3b82f6" stroke-width="1"/>
  <text x="1090" y="44" font-family="Arial,sans-serif" font-size="13" font-weight="bold" fill="#93c5fd" text-anchor="middle">January 22, 2026</text>
  <line x1="50" y1="588" x2="1150" y2="588" stroke="#334155" stroke-width="1" opacity="0.5"/>
  <text x="1150" y="612" font-family="Arial,sans-serif" font-size="13" fill="#94a3b8" text-anchor="end">tech.2twodragon.com</text>
</svg>