<svg xmlns="http://www.w3.org/2000/svg" viewBox="0 0 1200 630" width="1200" height="630" role="img" aria-label="Tech Security Weekly Digest: Aeternum Blockchain C2 Botnet, AWS AI Audit, Go Supply Chain Security — February 27 2026">
<!-- profile: high-quality-cover (L20 Hero+2-Card, research-based, batch2-locked) -->
<title>Aeternum Blockchain C2 Botnet, AWS AI Audit, Go Supply Chain — 2026.02.27</title>
<defs>
  <linearGradient id="bgMain" x1="0%" y1="0%" x2="100%" y2="100%">
    <stop offset="0%" stop-color="#080E1E"/>
    <stop offset="50%" stop-color="#0A1228"/>
    <stop offset="100%" stop-color="#0D1530"/>
  </linearGradient>
  <linearGradient id="heroGrad" x1="0%" y1="0%" x2="0%" y2="100%">
    <stop offset="0%" stop-color="#111B35"/>
    <stop offset="100%" stop-color="#0D1830"/>
  </linearGradient>
  <linearGradient id="card1Grad" x1="0%" y1="0%" x2="0%" y2="100%">
    <stop offset="0%" stop-color="#0E1F38"/>
    <stop offset="100%" stop-color="#091629"/>
  </linearGradient>
  <linearGradient id="card2Grad" x1="0%" y1="0%" x2="0%" y2="100%">
    <stop offset="0%" stop-color="#0B1E2A"/>
    <stop offset="100%" stop-color="#071422"/>
  </linearGradient>
  <linearGradient id="chainLink" x1="0%" y1="50%" x2="100%" y2="50%">
    <stop offset="0%" stop-color="#8B5CF6" stop-opacity="0"/>
    <stop offset="50%" stop-color="#8B5CF6" stop-opacity="0.9"/>
    <stop offset="100%" stop-color="#8B5CF6" stop-opacity="0"/>
  </linearGradient>
  <radialGradient id="threatGlow" cx="50%" cy="50%" r="50%">
    <stop offset="0%" stop-color="#E63946" stop-opacity="0.7"/>
    <stop offset="100%" stop-color="#E63946" stop-opacity="0"/>
  </radialGradient>
  <radialGradient id="polyGlow" cx="50%" cy="50%" r="50%">
    <stop offset="0%" stop-color="#8B5CF6" stop-opacity="0.6"/>
    <stop offset="100%" stop-color="#8B5CF6" stop-opacity="0"/>
  </radialGradient>
  <radialGradient id="awsGlow" cx="50%" cy="50%" r="50%">
    <stop offset="0%" stop-color="#F59E0B" stop-opacity="0.5"/>
    <stop offset="100%" stop-color="#F59E0B" stop-opacity="0"/>
  </radialGradient>
  <radialGradient id="goGlow" cx="50%" cy="50%" r="50%">
    <stop offset="0%" stop-color="#00ADD8" stop-opacity="0.5"/>
    <stop offset="100%" stop-color="#00ADD8" stop-opacity="0"/>
  </radialGradient>
  <pattern id="dotGrid" x="0" y="0" width="28" height="28" patternUnits="userSpaceOnUse">
    <circle cx="14" cy="14" r="0.7" fill="#2A3A5E" opacity="0.5"/>
  </pattern>
  <pattern id="hexPat" x="0" y="0" width="20" height="17.32" patternUnits="userSpaceOnUse">
    <path d="M10 0 L20 5.77 L20 11.55 L10 17.32 L0 11.55 L0 5.77 Z" fill="none" stroke="#1E2E50" stroke-width="0.4" opacity="0.5"/>
  </pattern>
  <filter id="panelShadow" x="-5%" y="-5%" width="115%" height="120%">
    <feGaussianBlur in="SourceAlpha" stdDeviation="4"/>
    <feOffset dx="0" dy="4"/>
    <feComponentTransfer><feFuncA type="linear" slope="0.5"/></feComponentTransfer>
    <feMerge><feMergeNode/><feMergeNode in="SourceGraphic"/></feMerge>
  </filter>
  <clipPath id="heroClip">
    <rect x="32" y="80" width="600" height="510" rx="8"/>
  </clipPath>
<filter id="softShadow" x="-10%" y="-10%" width="130%" height="130%"><feGaussianBlur in="SourceAlpha" stdDeviation="2.5"/><feOffset dx="1" dy="3"/><feComponentTransfer><feFuncA type="linear" slope="0.55"/></feComponentTransfer><feMerge><feMergeNode/><feMergeNode in="SourceGraphic"/></feMerge></filter></defs>

<!-- GLOBAL BACKGROUND -->
<rect width="1200" height="630" fill="url(#bgMain)"/>
<rect width="1200" height="630" fill="url(#dotGrid)" opacity="0.6"/>
<circle cx="0" cy="630" r="280" fill="#0D3060" opacity="0.15"/>
<circle cx="1200" cy="0" r="220" fill="#1A0A3A" opacity="0.2"/>

<!-- HERO PANEL (LEFT 600x510 at 32,80) -->
<g filter="url(#panelShadow)">
  <rect x="32" y="80" width="600" height="510" rx="8" fill="url(#heroGrad)" stroke="#1E3060" stroke-width="1"/>
</g>
<rect x="32" y="80" width="600" height="510" rx="8" fill="url(#hexPat)" opacity="0.8" clip-path="url(#heroClip)"/>
<rect x="32" y="80" width="600" height="4" rx="2" fill="#E63946"/>

<!-- Ambient glows in hero -->
<circle cx="332" cy="350" r="200" fill="url(#threatGlow)" opacity="0.35">
  <animate attributeName="opacity" values="0.25;0.45;0.25" dur="5.5s" repeatCount="indefinite"/>
  <animate attributeName="r" values="200;220;200" dur="7s" repeatCount="indefinite"/>
</circle>
<circle cx="332" cy="260" r="130" fill="url(#polyGlow)" opacity="0.3">
  <animate attributeName="opacity" values="0.2;0.45;0.2" dur="6s" repeatCount="indefinite"/>
</circle>

<!-- Blockchain Network Visualization -->
<!-- Pulsing outer rings on central hub -->
<circle cx="332" cy="290" r="56" fill="none" stroke="#8B5CF6" stroke-width="1.5" opacity="0.5">
  <animate attributeName="r" values="56;70;56" dur="3.2s" repeatCount="indefinite"/>
  <animate attributeName="opacity" values="0.5;0.1;0.5" dur="3.2s" repeatCount="indefinite"/>
</circle>
<circle cx="332" cy="290" r="42" fill="none" stroke="#8B5CF6" stroke-width="1" opacity="0.6">
  <animate attributeName="r" values="42;52;42" dur="2.8s" repeatCount="indefinite"/>
  <animate attributeName="opacity" values="0.6;0.2;0.6" dur="2.8s" repeatCount="indefinite"/>
</circle>
<!-- Central Polygon C2 node -->
<polygon points="332,261 356,275 356,305 332,319 308,305 308,275" fill="#1A0E3A" stroke="#8B5CF6" stroke-width="2"/>
<text x="332" y="287" font-family="monospace" font-size="10" fill="#C4B5FD" text-anchor="middle" font-weight="bold">POLYGON</text>
<text x="332" y="300" font-family="monospace" font-size="9" fill="#A78BFA" text-anchor="middle">BLOCKCHAIN</text>
<text x="332" y="312" font-family="monospace" font-size="8" fill="#7C3AED" text-anchor="middle">C2 NODE</text>

<!-- Bot node 1 top-left -->
<line x1="308" y1="275" x2="192" y2="210" stroke="#8B5CF6" stroke-width="1" stroke-dasharray="4,3" opacity="0.6">
  <animate attributeName="stroke-dashoffset" values="0;-14" dur="1.5s" repeatCount="indefinite"/>
</line>
<circle cx="188" cy="207" r="18" fill="#0F1830" stroke="#8B5CF6" stroke-width="1.5"/>
<text x="188" y="203" font-family="monospace" font-size="7" fill="#C4B5FD" text-anchor="middle">BOT</text>
<text x="188" y="213" font-family="monospace" font-size="7" fill="#C4B5FD" text-anchor="middle">0x4A</text>

<!-- Bot node 2 top-right -->
<line x1="356" y1="275" x2="472" y2="210" stroke="#8B5CF6" stroke-width="1" stroke-dasharray="4,3" opacity="0.6">
  <animate attributeName="stroke-dashoffset" values="0;-14" dur="1.8s" repeatCount="indefinite"/>
</line>
<circle cx="476" cy="207" r="18" fill="#0F1830" stroke="#8B5CF6" stroke-width="1.5"/>
<text x="476" y="203" font-family="monospace" font-size="7" fill="#C4B5FD" text-anchor="middle">BOT</text>
<text x="476" y="213" font-family="monospace" font-size="7" fill="#C4B5FD" text-anchor="middle">0x7B</text>

<!-- Bot node 3 bottom-left (red = active threat) -->
<line x1="308" y1="305" x2="168" y2="375" stroke="#E63946" stroke-width="1" stroke-dasharray="4,3" opacity="0.5">
  <animate attributeName="stroke-dashoffset" values="0;-14" dur="2.1s" repeatCount="indefinite"/>
</line>
<circle cx="164" cy="378" r="18" fill="#1A0A12" stroke="#E63946" stroke-width="1.5"/>
<text x="164" y="374" font-family="monospace" font-size="7" fill="#FCA5A5" text-anchor="middle">BOT</text>
<text x="164" y="384" font-family="monospace" font-size="7" fill="#FCA5A5" text-anchor="middle">0x3F</text>

<!-- Bot node 4 bottom-right -->
<line x1="356" y1="305" x2="496" y2="375" stroke="#E63946" stroke-width="1" stroke-dasharray="4,3" opacity="0.5">
  <animate attributeName="stroke-dashoffset" values="0;-14" dur="1.9s" repeatCount="indefinite"/>
</line>
<circle cx="500" cy="378" r="18" fill="#1A0A12" stroke="#E63946" stroke-width="1.5"/>
<text x="500" y="374" font-family="monospace" font-size="7" fill="#FCA5A5" text-anchor="middle">BOT</text>
<text x="500" y="384" font-family="monospace" font-size="7" fill="#FCA5A5" text-anchor="middle">0x91</text>

<!-- Bot node 5 bottom-center (amber) -->
<line x1="332" y1="319" x2="332" y2="415" stroke="#F59E0B" stroke-width="1" stroke-dasharray="4,3" opacity="0.5">
  <animate attributeName="stroke-dashoffset" values="0;-14" dur="2.4s" repeatCount="indefinite"/>
</line>
<circle cx="332" cy="430" r="18" fill="#1A1200" stroke="#F59E0B" stroke-width="1.5"/>
<text x="332" y="426" font-family="monospace" font-size="7" fill="#FDE68A" text-anchor="middle">BOT</text>
<text x="332" y="436" font-family="monospace" font-size="7" fill="#FDE68A" text-anchor="middle">0xC2</text>

<!-- Encrypted command packet floating -->
<rect x="290" y="325" width="36" height="12" rx="2" fill="#4C1D95" opacity="0.85">
  <animate attributeName="y" values="325;345;325" dur="3.5s" repeatCount="indefinite"/>
  <animate attributeName="opacity" values="0.85;0.4;0.85" dur="3.5s" repeatCount="indefinite"/>
</rect>
<text x="308" y="334" font-family="monospace" font-size="7" fill="#DDD6FE" text-anchor="middle">
  <animate attributeName="y" values="334;354;334" dur="3.5s" repeatCount="indefinite"/>
  enc_cmd
</text>

<!-- Cross-link immutability chain -->
<path d="M188 225 Q332 240 476 225" fill="none" stroke="url(#chainLink)" stroke-width="1.5" opacity="0.7">
  <animate attributeName="opacity" values="0.7;0.3;0.7" dur="4s" repeatCount="indefinite"/>
</path>

<!-- Hero eyebrow -->
<text x="52" y="112" font-family="Arial, sans-serif" font-size="11" fill="#E63946" font-weight="700" letter-spacing="2">CRITICAL THREAT</text>
<rect x="52" y="116" width="48" height="2" fill="#E63946" opacity="0.8"/>

<!-- Hero title -->
<text x="52" y="145" font-family="Arial, sans-serif" font-size="22" fill="#FFFFFF" font-weight="800" letter-spacing="0.3">Aeternum C2 Botnet</text>

<!-- Hero subtitle -->
<text x="52" y="170" font-family="Arial, sans-serif" font-size="13" fill="#C4B5FD">Polygon Blockchain-Powered C2 Infrastructure</text>
<text x="52" y="188" font-family="Arial, sans-serif" font-size="11.5" fill="#94A3B8">Encrypted commands stored on-chain -- takedown-resistant</text>

<!-- Hero divider -->
<line x1="52" y1="200" x2="605" y2="200" stroke="#1E3060" stroke-width="1" opacity="0.8"/>

<!-- Hero KPI Cards -->
<rect x="52" y="465" width="124" height="62" rx="6" fill="#1A0A12" stroke="#E63946" stroke-width="1.2" opacity="0.95"/>
<text x="114" y="482" font-family="Arial, sans-serif" font-size="9" fill="#F87171" text-anchor="middle" letter-spacing="1">SEVERITY</text>
<text x="114" y="503" font-family="Arial, sans-serif" font-size="16" fill="#E63946" font-weight="800" text-anchor="middle">CRITICAL</text>
<text x="114" y="519" font-family="Arial, sans-serif" font-size="8.5" fill="#94A3B8" text-anchor="middle">P1 -- 7d remediation</text>

<rect x="192" y="465" width="124" height="62" rx="6" fill="#0D1A35" stroke="#8B5CF6" stroke-width="1.2" opacity="0.95"/>
<text x="254" y="482" font-family="Arial, sans-serif" font-size="9" fill="#A78BFA" text-anchor="middle" letter-spacing="1">VECTOR</text>
<text x="254" y="503" font-family="Arial, sans-serif" font-size="14" fill="#C4B5FD" font-weight="800" text-anchor="middle">Blockchain</text>
<text x="254" y="519" font-family="Arial, sans-serif" font-size="8.5" fill="#94A3B8" text-anchor="middle">RPC eth_call / eth_getLogs</text>

<rect x="332" y="465" width="124" height="62" rx="6" fill="#0D1A1E" stroke="#06B6D4" stroke-width="1.2" opacity="0.95"/>
<text x="394" y="482" font-family="Arial, sans-serif" font-size="9" fill="#67E8F9" text-anchor="middle" letter-spacing="1">SOURCE</text>
<text x="394" y="503" font-family="Arial, sans-serif" font-size="14" fill="#22D3EE" font-weight="800" text-anchor="middle">Qrator Labs</text>
<text x="394" y="519" font-family="Arial, sans-serif" font-size="8.5" fill="#94A3B8" text-anchor="middle">The Hacker News</text>

<rect x="472" y="465" width="140" height="62" rx="6" fill="#0D1A0E" stroke="#22C55E" stroke-width="1.2" opacity="0.95"/>
<text x="542" y="482" font-family="Arial, sans-serif" font-size="9" fill="#86EFAC" text-anchor="middle" letter-spacing="1">IMPACT</text>
<text x="542" y="499" font-family="Arial, sans-serif" font-size="12" fill="#4ADE80" font-weight="800" text-anchor="middle">C2 Infra</text>
<text x="542" y="513" font-family="Arial, sans-serif" font-size="9" fill="#4ADE80" text-anchor="middle">Takedown-Proof</text>
<text x="542" y="523" font-family="Arial, sans-serif" font-size="7.5" fill="#94A3B8" text-anchor="middle">SIEM + RPC monitoring req.</text>

<!-- Hero bottom tags -->
<rect x="52" y="540" width="188" height="22" rx="4" fill="#4C1D95" opacity="0.75"/>
<text x="146" y="555" font-family="monospace" font-size="9" fill="#DDD6FE" text-anchor="middle" letter-spacing="1">IMMUTABLE BLOCKCHAIN C2</text>

<rect x="252" y="540" width="108" height="22" rx="4" fill="#1A0A12" opacity="0.75"/>
<text x="306" y="555" font-family="monospace" font-size="9" fill="#F87171" text-anchor="middle" letter-spacing="1">30 NEWS -- FEB 27</text>

<rect x="372" y="540" width="240" height="22" rx="4" fill="#0A1228" opacity="0.75"/>
<text x="492" y="555" font-family="monospace" font-size="9" fill="#94A3B8" text-anchor="middle">Smart Contract C2 Storage -- No Takedown</text>

<!-- TOP-RIGHT PANEL (AWS AI Audit 516x248 at 652,80) -->
<g filter="url(#panelShadow)">
  <rect x="652" y="80" width="516" height="248" rx="8" fill="url(#card1Grad)" stroke="#1E3A5A" stroke-width="1"/>
</g>
<rect x="652" y="80" width="516" height="4" rx="2" fill="#F59E0B"/>

<!-- AWS glow -->
<circle cx="1120" cy="140" r="100" fill="url(#awsGlow)" opacity="0.3">
  <animate attributeName="opacity" values="0.2;0.4;0.2" dur="6.5s" repeatCount="indefinite"/>
</circle>

<!-- ISO shield illustration -->
<path d="M940 105 L975 120 L975 162 Q975 192 940 207 Q905 192 905 162 L905 120 Z" fill="#0E1F38" stroke="#F59E0B" stroke-width="2"/>
<path d="M940 115 L965 127 L965 161 Q965 185 940 197 Q915 185 915 161 L915 127 Z" fill="#1A2E4A" stroke="#FDE68A" stroke-width="1"/>
<polyline points="928,156 937,165 955,145" fill="none" stroke="#22C55E" stroke-width="3" stroke-linecap="round" stroke-linejoin="round"/>
<text x="940" y="178" font-family="Arial, sans-serif" font-size="8" fill="#FDE68A" text-anchor="middle" font-weight="700">ISO 42001</text>

<!-- AWS badge -->
<rect x="665" y="100" width="68" height="18" rx="3" fill="#F59E0B" opacity="0.9"/>
<text x="699" y="113" font-family="Arial, sans-serif" font-size="9" fill="#0A0A00" font-weight="800" text-anchor="middle">AWS CLOUD</text>

<!-- Card 1 content -->
<text x="665" y="137" font-family="Arial, sans-serif" font-size="10" fill="#F59E0B" font-weight="700" letter-spacing="2">AI GOVERNANCE</text>
<text x="665" y="158" font-family="Arial, sans-serif" font-size="16" fill="#FFFFFF" font-weight="800">AWS ISO 42001 AI Audit</text>
<text x="665" y="177" font-family="Arial, sans-serif" font-size="11" fill="#94A3B8">First surveillance audit passed -- AI management system</text>
<text x="665" y="195" font-family="Arial, sans-serif" font-size="10.5" fill="#FDE68A">Formal AI risk compliance framework validated by ISO</text>
<line x1="665" y1="205" x2="1155" y2="205" stroke="#1E3A5A" stroke-width="1"/>

<!-- Card 1 KPI row -->
<rect x="665" y="213" width="110" height="44" rx="5" fill="#0A1628" stroke="#F59E0B" stroke-width="1"/>
<text x="720" y="227" font-family="Arial, sans-serif" font-size="8.5" fill="#FDE68A" text-anchor="middle">STANDARD</text>
<text x="720" y="244" font-family="Arial, sans-serif" font-size="13" fill="#F59E0B" font-weight="800" text-anchor="middle">ISO 42001</text>
<text x="720" y="253" font-family="Arial, sans-serif" font-size="7.5" fill="#64748B" text-anchor="middle">AI Mgmt System</text>

<rect x="787" y="213" width="110" height="44" rx="5" fill="#0A1628" stroke="#22C55E" stroke-width="1"/>
<text x="842" y="227" font-family="Arial, sans-serif" font-size="8.5" fill="#86EFAC" text-anchor="middle">STATUS</text>
<text x="842" y="244" font-family="Arial, sans-serif" font-size="13" fill="#4ADE80" font-weight="800" text-anchor="middle">PASSED</text>
<text x="842" y="253" font-family="Arial, sans-serif" font-size="7.5" fill="#64748B" text-anchor="middle">Surveillance Audit</text>

<rect x="909" y="213" width="120" height="44" rx="5" fill="#0A1628" stroke="#06B6D4" stroke-width="1"/>
<text x="969" y="227" font-family="Arial, sans-serif" font-size="8.5" fill="#67E8F9" text-anchor="middle">RISK LEVEL</text>
<text x="969" y="244" font-family="Arial, sans-serif" font-size="13" fill="#22D3EE" font-weight="800" text-anchor="middle">MEDIUM</text>
<text x="969" y="253" font-family="Arial, sans-serif" font-size="7.5" fill="#64748B" text-anchor="middle">AWS Security Blog</text>

<!-- BOTTOM-RIGHT PANEL (Go Supply Chain 516x246 at 652,344) -->
<g filter="url(#panelShadow)">
  <rect x="652" y="344" width="516" height="246" rx="8" fill="url(#card2Grad)" stroke="#0F2A2A" stroke-width="1"/>
</g>
<rect x="652" y="344" width="516" height="4" rx="2" fill="#00ADD8"/>

<!-- Go glow -->
<circle cx="660" cy="500" r="90" fill="url(#goGlow)" opacity="0.25">
  <animate attributeName="opacity" values="0.2;0.4;0.2" dur="7s" repeatCount="indefinite"/>
</circle>

<!-- Supply chain graphic (right side of card) -->
<rect x="930" y="365" width="44" height="38" rx="4" fill="#0A1E1E" stroke="#00ADD8" stroke-width="1.5"/>
<text x="952" y="381" font-family="monospace" font-size="8" fill="#00ADD8" text-anchor="middle">go.mod</text>
<text x="952" y="393" font-family="monospace" font-size="7" fill="#67E8F9" text-anchor="middle">v1.2.3</text>
<line x1="974" y1="384" x2="992" y2="384" stroke="#22D3EE" stroke-width="1.5"/>
<rect x="994" y="365" width="48" height="38" rx="4" fill="#1A0A00" stroke="#F59E0B" stroke-width="1.5"/>
<text x="1018" y="379" font-family="monospace" font-size="7" fill="#FDE68A" text-anchor="middle">pkg_malicious</text>
<text x="1018" y="391" font-family="monospace" font-size="7" fill="#F87171" text-anchor="middle">POISONED</text>
<!-- Warning triangle -->
<path d="M1044 352 L1052 365 L1036 365 Z" fill="#E63946" opacity="0.9">
  <animate attributeName="opacity" values="0.9;0.3;0.9" dur="1.8s" repeatCount="indefinite"/>
</path>
<text x="1044" y="363" font-family="Arial, sans-serif" font-size="8" fill="#FFFFFF" text-anchor="middle" font-weight="bold">!</text>

<!-- Card 2 content -->
<text x="665" y="375" font-family="Arial, sans-serif" font-size="10" fill="#00ADD8" font-weight="700" letter-spacing="2">SUPPLY CHAIN SECURITY</text>
<rect x="842" y="360" width="36" height="16" rx="3" fill="#00ADD8" opacity="0.9"/>
<text x="860" y="372" font-family="Arial, sans-serif" font-size="9" fill="#FFFFFF" font-weight="800" text-anchor="middle">Go</text>
<text x="665" y="398" font-family="Arial, sans-serif" font-size="16" fill="#FFFFFF" font-weight="800">Go Supply Chain Security</text>
<text x="665" y="417" font-family="Arial, sans-serif" font-size="11" fill="#94A3B8">Module poisoning and dependency confusion in Go ecosystem</text>
<text x="665" y="435" font-family="Arial, sans-serif" font-size="10.5" fill="#67E8F9">go.sum verify + GONOSUMCHECK + private proxy enforcement</text>
<line x1="665" y1="445" x2="1155" y2="445" stroke="#0F2A2A" stroke-width="1"/>

<!-- Card 2 KPI row -->
<rect x="665" y="453" width="110" height="44" rx="5" fill="#081818" stroke="#00ADD8" stroke-width="1"/>
<text x="720" y="467" font-family="Arial, sans-serif" font-size="8.5" fill="#67E8F9" text-anchor="middle">LANGUAGE</text>
<text x="720" y="484" font-family="Arial, sans-serif" font-size="15" fill="#00ADD8" font-weight="800" text-anchor="middle">Go 1.22</text>
<text x="720" y="493" font-family="Arial, sans-serif" font-size="7.5" fill="#64748B" text-anchor="middle">Module Security</text>

<rect x="787" y="453" width="110" height="44" rx="5" fill="#081818" stroke="#F59E0B" stroke-width="1"/>
<text x="842" y="467" font-family="Arial, sans-serif" font-size="8.5" fill="#FDE68A" text-anchor="middle">RISK</text>
<text x="842" y="484" font-family="Arial, sans-serif" font-size="13" fill="#F59E0B" font-weight="800" text-anchor="middle">HIGH</text>
<text x="842" y="493" font-family="Arial, sans-serif" font-size="7.5" fill="#64748B" text-anchor="middle">Dependency Confusion</text>

<rect x="909" y="453" width="120" height="44" rx="5" fill="#081818" stroke="#22C55E" stroke-width="1"/>
<text x="969" y="467" font-family="Arial, sans-serif" font-size="8.5" fill="#86EFAC" text-anchor="middle">MITIGATION</text>
<text x="969" y="480" font-family="Arial, sans-serif" font-size="9.5" fill="#4ADE80" font-weight="800" text-anchor="middle">go.sum + GONOSUMCHECK</text>
<text x="969" y="493" font-family="Arial, sans-serif" font-size="7.5" fill="#64748B" text-anchor="middle">Private Proxy Required</text>

<!-- HEADER BAR -->
<rect x="0" y="0" width="1200" height="72" fill="#050B18" opacity="0.92"/>
<line x1="0" y1="72" x2="1200" y2="72" stroke="#1E3060" stroke-width="1"/>
<text x="28" y="28" font-family="Arial, sans-serif" font-size="12" fill="#3B82F6" font-weight="700" letter-spacing="1.5">TECH SECURITY WEEKLY</text>
<rect x="28" y="36" width="130" height="22" rx="4" fill="#0D1F3A"/>
<text x="93" y="51" font-family="Arial, sans-serif" font-size="12" fill="#60A5FA" text-anchor="middle" font-weight="600">2026.02.27</text>
<text x="175" y="51" font-family="Arial, sans-serif" font-size="11" fill="#475569">Weekly Digest -- DevSecOps -- 30 Stories</text>

<!-- Header threat pills -->
<rect x="750" y="22" width="76" height="18" rx="9" fill="#E63946" opacity="0.15"/>
<rect x="751" y="23" width="74" height="16" rx="8" fill="none" stroke="#E63946" stroke-width="1" opacity="0.7"/>
<text x="788" y="35" font-family="Arial, sans-serif" font-size="9" fill="#E63946" text-anchor="middle" font-weight="700">AI BOTNET</text>

<rect x="838" y="22" width="82" height="18" rx="9" fill="#8B5CF6" opacity="0.15"/>
<rect x="839" y="23" width="80" height="16" rx="8" fill="none" stroke="#8B5CF6" stroke-width="1" opacity="0.7"/>
<text x="879" y="35" font-family="Arial, sans-serif" font-size="9" fill="#C4B5FD" text-anchor="middle" font-weight="700">BLOCKCHAIN</text>

<rect x="932" y="22" width="66" height="18" rx="9" fill="#F59E0B" opacity="0.15"/>
<rect x="933" y="23" width="64" height="16" rx="8" fill="none" stroke="#F59E0B" stroke-width="1" opacity="0.7"/>
<text x="965" y="35" font-family="Arial, sans-serif" font-size="9" fill="#FDE68A" text-anchor="middle" font-weight="700">ISO 42001</text>

<rect x="1010" y="22" width="56" height="18" rx="9" fill="#00ADD8" opacity="0.15"/>
<rect x="1011" y="23" width="54" height="16" rx="8" fill="none" stroke="#00ADD8" stroke-width="1" opacity="0.7"/>
<text x="1038" y="35" font-family="Arial, sans-serif" font-size="9" fill="#67E8F9" text-anchor="middle" font-weight="700">Go SEC</text>

<!-- QR code (header right) -->
<rect x="1078" y="10" width="52" height="52" rx="4" fill="#0D1F3A" stroke="#1E3060" stroke-width="1"/>
<!-- QR finder pattern TL -->
<rect x="1082" y="14" width="14" height="14" rx="1" fill="none" stroke="#3B82F6" stroke-width="1.5"/>
<rect x="1084" y="16" width="10" height="10" rx="0.5" fill="#3B82F6" opacity="0.35"/>
<rect x="1084" y="16" width="4" height="4" fill="#3B82F6"/>
<rect x="1090" y="16" width="4" height="4" fill="#3B82F6"/>
<rect x="1084" y="22" width="4" height="4" fill="#3B82F6"/>
<rect x="1090" y="22" width="4" height="4" fill="#3B82F6"/>
<!-- QR finder pattern TR -->
<rect x="1104" y="14" width="14" height="14" rx="1" fill="none" stroke="#3B82F6" stroke-width="1.5"/>
<rect x="1106" y="16" width="10" height="10" rx="0.5" fill="#3B82F6" opacity="0.35"/>
<rect x="1106" y="16" width="4" height="4" fill="#3B82F6"/>
<rect x="1112" y="16" width="4" height="4" fill="#3B82F6"/>
<rect x="1112" y="22" width="4" height="4" fill="#3B82F6"/>
<!-- QR data dots middle -->
<rect x="1082" y="32" width="4" height="4" fill="#3B82F6"/>
<rect x="1088" y="32" width="4" height="4" fill="#3B82F6"/>
<rect x="1094" y="32" width="4" height="4" fill="#3B82F6"/>
<rect x="1082" y="38" width="4" height="4" fill="#3B82F6"/>
<rect x="1094" y="38" width="4" height="4" fill="#3B82F6"/>
<rect x="1100" y="32" width="4" height="4" fill="#3B82F6"/>
<rect x="1108" y="34" width="4" height="4" fill="#3B82F6"/>
<rect x="1114" y="34" width="4" height="4" fill="#3B82F6"/>
<!-- QR finder pattern BL -->
<rect x="1082" y="44" width="14" height="14" rx="1" fill="none" stroke="#3B82F6" stroke-width="1.5"/>
<rect x="1084" y="46" width="10" height="10" rx="0.5" fill="#3B82F6" opacity="0.35"/>
<rect x="1084" y="46" width="4" height="4" fill="#3B82F6"/>
<rect x="1090" y="46" width="4" height="4" fill="#3B82F6"/>
<rect x="1084" y="52" width="4" height="4" fill="#3B82F6"/>
<rect x="1090" y="52" width="4" height="4" fill="#3B82F6"/>
<!-- QR data BR -->
<rect x="1100" y="44" width="4" height="4" fill="#3B82F6"/>
<rect x="1106" y="46" width="4" height="4" fill="#3B82F6"/>
<rect x="1112" y="44" width="4" height="4" fill="#3B82F6"/>
<rect x="1106" y="52" width="4" height="4" fill="#3B82F6"/>
<rect x="1112" y="52" width="4" height="4" fill="#3B82F6"/>
<text x="1104" y="66" font-family="Arial, sans-serif" font-size="6" fill="#475569" text-anchor="middle">scan</text>

<!-- FOOTER -->
<rect x="0" y="608" width="1200" height="22" fill="#050B18" opacity="0.9"/>
<text x="16" y="622" font-family="monospace" font-size="8.5" fill="#1E3A5A">tech.2twodragon.com</text>
<text x="600" y="622" font-family="monospace" font-size="8.5" fill="#1E3A5A" text-anchor="middle">Security -- DevSecOps -- Cloud -- AI -- Blockchain</text>
<text x="1184" y="622" font-family="monospace" font-size="8.5" fill="#1E3A5A" text-anchor="end">@Twodragon</text>

<!-- Column separator gap -->
<rect x="644" y="80" width="8" height="510" fill="#080E1E"/>
<!-- Row gap between right panels -->
<rect x="652" y="334" width="516" height="10" fill="#080E1E"/>

<!-- cover-qr: https://tech.2twodragon.com/posts/2026/02/27/Tech_Security_Weekly_Digest_AI_Botnet_Blockchain_Go/ : 41x41 -->
<g transform="translate(1080,504)" filter="url(#softShadow)">
  <rect x="-8" y="-8" width="100" height="100" rx="6" fill="#FFFFFF"/>
  <g transform="scale(2.048780)" fill="#0A1020">
    <path d="M0 0h7v1h-7zM9 0h3v1h-3zM13 0h7v1h-7zM25 0h3v1h-3zM30 0h2v1h-2zM34 0h7v1h-7zM0 1h1v1h-1zM6 1h1v1h-1zM9 1h2v1h-2zM14 1h1v1h-1zM16 1h1v1h-1zM18 1h1v1h-1zM21 1h3v1h-3zM25 1h4v1h-4zM32 1h1v1h-1zM34 1h1v1h-1zM40 1h1v1h-1zM0 2h1v1h-1zM2 2h3v1h-3zM6 2h1v1h-1zM10 2h2v1h-2zM13 2h3v1h-3zM18 2h2v1h-2zM23 2h1v1h-1zM26 2h1v1h-1zM29 2h1v1h-1zM32 2h1v1h-1zM34 2h1v1h-1zM36 2h3v1h-3zM40 2h1v1h-1zM0 3h1v1h-1zM2 3h3v1h-3zM6 3h1v1h-1zM9 3h1v1h-1zM13 3h1v1h-1zM17 3h5v1h-5zM23 3h6v1h-6zM30 3h3v1h-3zM34 3h1v1h-1zM36 3h3v1h-3zM40 3h1v1h-1zM0 4h1v1h-1zM2 4h3v1h-3zM6 4h1v1h-1zM9 4h1v1h-1zM11 4h2v1h-2zM14 4h1v1h-1zM17 4h3v1h-3zM22 4h1v1h-1zM25 4h3v1h-3zM30 4h1v1h-1zM32 4h1v1h-1zM34 4h1v1h-1zM36 4h3v1h-3zM40 4h1v1h-1zM0 5h1v1h-1zM6 5h1v1h-1zM8 5h1v1h-1zM12 5h2v1h-2zM16 5h4v1h-4zM24 5h1v1h-1zM26 5h2v1h-2zM30 5h3v1h-3zM34 5h1v1h-1zM40 5h1v1h-1zM0 6h7v1h-7zM8 6h1v1h-1zM10 6h1v1h-1zM12 6h1v1h-1zM14 6h1v1h-1zM16 6h1v1h-1zM18 6h1v1h-1zM20 6h1v1h-1zM22 6h1v1h-1zM24 6h1v1h-1zM26 6h1v1h-1zM28 6h1v1h-1zM30 6h1v1h-1zM32 6h1v1h-1zM34 6h7v1h-7zM9 7h2v1h-2zM12 7h2v1h-2zM15 7h1v1h-1zM17 7h1v1h-1zM19 7h4v1h-4zM24 7h1v1h-1zM27 7h3v1h-3zM31 7h1v1h-1zM0 8h1v1h-1zM3 8h1v1h-1zM5 8h2v1h-2zM8 8h1v1h-1zM11 8h1v1h-1zM15 8h2v1h-2zM19 8h1v1h-1zM21 8h1v1h-1zM25 8h2v1h-2zM32 8h2v1h-2zM35 8h1v1h-1zM4 9h1v1h-1zM12 9h3v1h-3zM16 9h2v1h-2zM21 9h1v1h-1zM24 9h3v1h-3zM29 9h1v1h-1zM32 9h1v1h-1zM37 9h2v1h-2zM40 9h1v1h-1zM0 10h1v1h-1zM2 10h1v1h-1zM4 10h4v1h-4zM9 10h2v1h-2zM13 10h1v1h-1zM15 10h6v1h-6zM22 10h1v1h-1zM24 10h1v1h-1zM26 10h1v1h-1zM30 10h2v1h-2zM33 10h7v1h-7zM4 11h2v1h-2zM7 11h1v1h-1zM11 11h3v1h-3zM16 11h1v1h-1zM18 11h1v1h-1zM21 11h1v1h-1zM24 11h3v1h-3zM28 11h1v1h-1zM33 11h1v1h-1zM36 11h1v1h-1zM38 11h1v1h-1zM0 12h3v1h-3zM5 12h3v1h-3zM9 12h1v1h-1zM11 12h1v1h-1zM13 12h1v1h-1zM16 12h2v1h-2zM19 12h1v1h-1zM21 12h1v1h-1zM24 12h4v1h-4zM29 12h7v1h-7zM37 12h1v1h-1zM39 12h2v1h-2zM0 13h3v1h-3zM4 13h1v1h-1zM9 13h1v1h-1zM13 13h4v1h-4zM22 13h4v1h-4zM27 13h1v1h-1zM30 13h4v1h-4zM37 13h2v1h-2zM1 14h2v1h-2zM4 14h1v1h-1zM6 14h2v1h-2zM11 14h2v1h-2zM14 14h2v1h-2zM20 14h2v1h-2zM24 14h1v1h-1zM28 14h1v1h-1zM30 14h1v1h-1zM32 14h1v1h-1zM34 14h1v1h-1zM37 14h4v1h-4zM0 15h2v1h-2zM4 15h1v1h-1zM7 15h1v1h-1zM11 15h3v1h-3zM16 15h4v1h-4zM21 15h2v1h-2zM24 15h3v1h-3zM28 15h3v1h-3zM34 15h2v1h-2zM0 16h2v1h-2zM5 16h2v1h-2zM8 16h2v1h-2zM11 16h1v1h-1zM14 16h1v1h-1zM17 16h1v1h-1zM19 16h2v1h-2zM22 16h2v1h-2zM27 16h1v1h-1zM29 16h1v1h-1zM32 16h1v1h-1zM35 16h1v1h-1zM39 16h1v1h-1zM1 17h4v1h-4zM7 17h1v1h-1zM10 17h1v1h-1zM15 17h2v1h-2zM18 17h2v1h-2zM23 17h7v1h-7zM34 17h2v1h-2zM37 17h4v1h-4zM0 18h1v1h-1zM3 18h1v1h-1zM6 18h2v1h-2zM9 18h2v1h-2zM16 18h1v1h-1zM18 18h1v1h-1zM21 18h1v1h-1zM25 18h1v1h-1zM30 18h1v1h-1zM33 18h2v1h-2zM36 18h1v1h-1zM40 18h1v1h-1zM1 19h1v1h-1zM4 19h1v1h-1zM7 19h3v1h-3zM16 19h5v1h-5zM22 19h1v1h-1zM26 19h1v1h-1zM29 19h1v1h-1zM32 19h4v1h-4zM37 19h1v1h-1zM40 19h1v1h-1zM0 20h2v1h-2zM3 20h5v1h-5zM12 20h4v1h-4zM17 20h4v1h-4zM23 20h5v1h-5zM32 20h4v1h-4zM38 20h2v1h-2zM0 21h2v1h-2zM4 21h2v1h-2zM8 21h1v1h-1zM11 21h1v1h-1zM16 21h6v1h-6zM25 21h1v1h-1zM29 21h1v1h-1zM34 21h1v1h-1zM39 21h2v1h-2zM2 22h1v1h-1zM5 22h6v1h-6zM12 22h4v1h-4zM17 22h4v1h-4zM25 22h1v1h-1zM28 22h1v1h-1zM31 22h1v1h-1zM33 22h2v1h-2zM37 22h3v1h-3zM3 23h2v1h-2zM10 23h1v1h-1zM14 23h1v1h-1zM18 23h9v1h-9zM28 23h1v1h-1zM30 23h1v1h-1zM34 23h1v1h-1zM38 23h1v1h-1zM0 24h4v1h-4zM6 24h2v1h-2zM10 24h2v1h-2zM15 24h3v1h-3zM19 24h3v1h-3zM24 24h2v1h-2zM27 24h3v1h-3zM31 24h5v1h-5zM37 24h2v1h-2zM40 24h1v1h-1zM0 25h1v1h-1zM2 25h1v1h-1zM8 25h1v1h-1zM11 25h1v1h-1zM13 25h5v1h-5zM19 25h4v1h-4zM24 25h3v1h-3zM28 25h2v1h-2zM31 25h1v1h-1zM34 25h1v1h-1zM37 25h1v1h-1zM39 25h1v1h-1zM0 26h1v1h-1zM6 26h2v1h-2zM9 26h4v1h-4zM15 26h3v1h-3zM20 26h1v1h-1zM23 26h1v1h-1zM25 26h2v1h-2zM28 26h1v1h-1zM30 26h1v1h-1zM32 26h2v1h-2zM35 26h2v1h-2zM39 26h2v1h-2zM1 27h1v1h-1zM4 27h1v1h-1zM9 27h1v1h-1zM11 27h1v1h-1zM14 27h1v1h-1zM16 27h3v1h-3zM20 27h3v1h-3zM24 27h4v1h-4zM29 27h1v1h-1zM32 27h1v1h-1zM34 27h1v1h-1zM39 27h2v1h-2zM1 28h1v1h-1zM3 28h5v1h-5zM10 28h3v1h-3zM14 28h1v1h-1zM17 28h1v1h-1zM20 28h5v1h-5zM26 28h2v1h-2zM29 28h2v1h-2zM32 28h2v1h-2zM35 28h1v1h-1zM39 28h2v1h-2zM3 29h2v1h-2zM7 29h2v1h-2zM10 29h3v1h-3zM19 29h1v1h-1zM21 29h1v1h-1zM25 29h1v1h-1zM28 29h3v1h-3zM33 29h3v1h-3zM37 29h2v1h-2zM40 29h1v1h-1zM0 30h1v1h-1zM2 30h1v1h-1zM4 30h1v1h-1zM6 30h1v1h-1zM8 30h1v1h-1zM12 30h2v1h-2zM15 30h2v1h-2zM19 30h2v1h-2zM22 30h1v1h-1zM25 30h1v1h-1zM35 30h1v1h-1zM38 30h3v1h-3zM3 31h1v1h-1zM8 31h2v1h-2zM13 31h3v1h-3zM17 31h1v1h-1zM19 31h3v1h-3zM24 31h1v1h-1zM26 31h4v1h-4zM31 31h1v1h-1zM33 31h1v1h-1zM36 31h2v1h-2zM0 32h1v1h-1zM2 32h1v1h-1zM4 32h6v1h-6zM12 32h5v1h-5zM19 32h2v1h-2zM25 32h3v1h-3zM32 32h5v1h-5zM38 32h1v1h-1zM40 32h1v1h-1zM8 33h5v1h-5zM19 33h3v1h-3zM24 33h1v1h-1zM27 33h6v1h-6zM36 33h5v1h-5zM0 34h7v1h-7zM12 34h2v1h-2zM16 34h2v1h-2zM19 34h1v1h-1zM28 34h1v1h-1zM30 34h1v1h-1zM32 34h1v1h-1zM34 34h1v1h-1zM36 34h1v1h-1zM38 34h2v1h-2zM0 35h1v1h-1zM6 35h1v1h-1zM8 35h6v1h-6zM15 35h1v1h-1zM17 35h1v1h-1zM19 35h4v1h-4zM24 35h2v1h-2zM27 35h1v1h-1zM30 35h1v1h-1zM32 35h1v1h-1zM36 35h1v1h-1zM38 35h1v1h-1zM40 35h1v1h-1zM0 36h1v1h-1zM2 36h3v1h-3zM6 36h1v1h-1zM10 36h1v1h-1zM12 36h2v1h-2zM15 36h1v1h-1zM19 36h2v1h-2zM22 36h1v1h-1zM25 36h5v1h-5zM32 36h6v1h-6zM39 36h1v1h-1zM0 37h1v1h-1zM2 37h3v1h-3zM6 37h1v1h-1zM8 37h1v1h-1zM10 37h2v1h-2zM16 37h2v1h-2zM19 37h3v1h-3zM28 37h2v1h-2zM31 37h4v1h-4zM36 37h4v1h-4zM0 38h1v1h-1zM2 38h3v1h-3zM6 38h1v1h-1zM9 38h1v1h-1zM11 38h1v1h-1zM14 38h1v1h-1zM20 38h2v1h-2zM23 38h4v1h-4zM28 38h1v1h-1zM30 38h2v1h-2zM36 38h5v1h-5zM0 39h1v1h-1zM6 39h1v1h-1zM9 39h3v1h-3zM14 39h1v1h-1zM16 39h1v1h-1zM18 39h1v1h-1zM21 39h2v1h-2zM25 39h2v1h-2zM28 39h6v1h-6zM35 39h1v1h-1zM39 39h1v1h-1zM0 40h7v1h-7zM8 40h2v1h-2zM11 40h1v1h-1zM13 40h2v1h-2zM16 40h1v1h-1zM19 40h4v1h-4zM24 40h1v1h-1zM29 40h1v1h-1zM31 40h9v1h-9z"/>
  </g>
</g>
<text x="1122" y="614" font-family="Inter, Helvetica, Arial, sans-serif" font-size="10" font-weight="700" fill="#F5F7FA" text-anchor="middle">scan / full post</text>
</svg>
