<svg xmlns="http://www.w3.org/2000/svg" width="1200" height="630" viewBox="0 0 1200 630" fill="none">
  <title>2026-02-10-DevOps_Blockchain_Digest_CNCF_Chainalysis_Bitcoin</title>
  <defs>
    <linearGradient id="bg" x1="0" y1="0" x2="1200" y2="630" gradientUnits="userSpaceOnUse">
      <stop offset="0%" stop-color="#0f172a"/>
      <stop offset="50%" stop-color="#1e293b"/>
      <stop offset="100%" stop-color="#0f172a"/>
    </linearGradient>
    <linearGradient id="accent" x1="0" y1="0" x2="1" y2="1">
      <stop offset="0%" stop-color="#6366f1"/>
      <stop offset="100%" stop-color="#4f46e5"/>
    </linearGradient>
    <linearGradient id="accent2" x1="0" y1="0" x2="1" y2="1">
      <stop offset="0%" stop-color="#10b981"/>
      <stop offset="100%" stop-color="#059669"/>
    </linearGradient>
    <radialGradient id="glow1" cx="50%" cy="50%" r="50%">
      <stop offset="0%" stop-color="#6366f1" stop-opacity="0.18"/>
      <stop offset="100%" stop-color="#6366f1" stop-opacity="0"/>
    </radialGradient>
    <radialGradient id="glow2" cx="50%" cy="50%" r="50%">
      <stop offset="0%" stop-color="#10b981" stop-opacity="0.14"/>
      <stop offset="100%" stop-color="#10b981" stop-opacity="0"/>
    </radialGradient>
    <filter id="glow-filter" x="-20%" y="-20%" width="140%" height="140%">
      <feGaussianBlur in="SourceGraphic" stdDeviation="6" result="blur"/>
      <feMerge>
        <feMergeNode in="blur"/>
        <feMergeNode in="SourceGraphic"/>
      </feMerge>
    </filter>
    <pattern id="dots" x="0" y="0" width="40" height="40" patternUnits="userSpaceOnUse">
      <circle cx="20" cy="20" r="1" fill="#94a3b8" opacity="0.08"/>
    </pattern>
  </defs>

  <!-- Background -->
  <rect width="1200" height="630" fill="url(#bg)"/>

  <!-- Dot pattern overlay -->
  <rect width="1200" height="630" fill="url(#dots)"/>

  <!-- Ambient glow blobs -->
  <ellipse cx="200" cy="315" rx="260" ry="260" fill="url(#glow1)"/>
  <ellipse cx="1000" cy="315" rx="220" ry="220" fill="url(#glow2)"/>

  <!-- Grid pattern -->
  <g opacity="0.03" stroke="#94a3b8" stroke-width="1">
    <line x1="0" y1="100" x2="1200" y2="100"/>
    <line x1="0" y1="200" x2="1200" y2="200"/>
    <line x1="0" y1="300" x2="1200" y2="300"/>
    <line x1="0" y1="400" x2="1200" y2="400"/>
    <line x1="0" y1="500" x2="1200" y2="500"/>
    <line x1="200" y1="0" x2="200" y2="630"/>
    <line x1="400" y1="0" x2="400" y2="630"/>
    <line x1="600" y1="0" x2="600" y2="630"/>
    <line x1="800" y1="0" x2="800" y2="630"/>
    <line x1="1000" y1="0" x2="1000" y2="630"/>
  </g>

  <!-- Corner bracket decorations -->
  <polyline points="20,20 20,60 60,60" fill="none" stroke="#6366f1" stroke-width="2" opacity="0.5"/>
  <polyline points="1180,20 1180,60 1140,60" fill="none" stroke="#6366f1" stroke-width="2" opacity="0.5"/>
  <polyline points="20,610 20,570 60,570" fill="none" stroke="#10b981" stroke-width="2" opacity="0.5"/>
  <polyline points="1180,610 1180,570 1140,570" fill="none" stroke="#10b981" stroke-width="2" opacity="0.5"/>

  <!-- Badge at top -->
  <rect x="260" y="30" width="182" height="28" rx="4" fill="#1e1b4b" stroke="#818cf8" stroke-width="1" opacity="0.9"/>
  <text x="351" y="49" text-anchor="middle" fill="#818cf8" font-family="Courier New, monospace" font-size="12" font-weight="bold" letter-spacing="2">AI INTELLIGENCE</text>

  <!-- Primary icon -->
  <g transform="translate(80, 180)" filter="url(#glow-filter)">
    <circle cx="60" cy="70" r="45" fill="url(#accent)" opacity="0.15"/>
    <circle cx="60" cy="70" r="45" fill="none" stroke="#6366f1" stroke-width="2.5"/>
    <path d="M40 55 Q50 35 60 50 Q70 35 80 55" fill="none" stroke="#c7d2fe" stroke-width="2"/>
    <path d="M35 75 Q45 60 55 75 Q65 60 75 75 Q85 60 90 75" fill="none" stroke="#c7d2fe" stroke-width="2"/>
    <text x="60" y="105" text-anchor="middle" fill="#6366f1" font-family="monospace" font-size="14" font-weight="bold">AI</text>
  </g>

  <!-- Secondary icon -->
  <g transform="translate(80, 380)">
    <rect x="10" y="30" width="100" height="90" rx="6" fill="url(#accent)" opacity="0.2"/>
    <rect x="10" y="30" width="100" height="90" rx="6" fill="none" stroke="#10b981" stroke-width="2.5"/>
    <line x1="10" y1="55" x2="110" y2="55" stroke="#10b981" stroke-width="1.5"/>
    <circle cx="25" cy="43" r="4" fill="#94a3b8"/>
    <circle cx="38" cy="43" r="4" fill="#94a3b8"/>
    <circle cx="51" cy="43" r="4" fill="#94a3b8"/>
    <rect x="20" y="65" width="80" height="8" rx="3" fill="#10b981" opacity="0.4"/>
    <rect x="20" y="80" width="60" height="8" rx="3" fill="#10b981" opacity="0.3"/>
    <rect x="20" y="95" width="70" height="8" rx="3" fill="#10b981" opacity="0.35"/>
  </g>

  <!-- Main title area -->
  <g transform="translate(260, 100)">
    <text x="0" y="0" fill="#f8fafc" font-family="Arial, sans-serif" font-size="18" font-weight="bold" letter-spacing="4">TECH SECURITY WEEKLY DIGEST</text>
    <text x="0" y="60" fill="#f8fafc" font-family="Arial, sans-serif" font-size="42" font-weight="bold">DevOps Blockchain Digest</text>
    <text x="0" y="110" fill="#94a3b8" font-family="Arial, sans-serif" font-size="36" font-weight="300">CNCF Chainalysis Bitcoin</text>
  </g>

  <!-- Date badge -->
  <rect x="260" y="240" width="200" height="36" rx="18" fill="url(#accent)" opacity="0.9"/>
  <text x="360" y="264" text-anchor="middle" fill="white" font-family="Courier New, monospace" font-size="15" font-weight="bold">February 10, 2026</text>

  <!-- Stats cards -->
  <g transform="translate(260, 310)">
    <rect x="0" y="0" width="200" height="90" rx="8" fill="#1e293b" stroke="#334155" stroke-width="1"/>
    <text x="20" y="30" fill="#818cf8" font-family="Arial, sans-serif" font-size="12" font-weight="bold">AI/ML</text>
    <text x="20" y="65" fill="#f8fafc" font-family="Arial, sans-serif" font-size="28" font-weight="bold">AI/ML</text>
    <text x="20" y="80" fill="#64748b" font-family="Arial, sans-serif" font-size="13">analysis</text>
    <rect x="220" y="0" width="200" height="90" rx="8" fill="#1e293b" stroke="#334155" stroke-width="1"/>
    <text x="240" y="30" fill="#326ce5" font-family="Arial, sans-serif" font-size="12" font-weight="bold">KUBERNETES</text>
    <text x="240" y="65" fill="#f8fafc" font-family="Arial, sans-serif" font-size="28" font-weight="bold">Kubernetes</text>
    <text x="240" y="80" fill="#64748b" font-family="Arial, sans-serif" font-size="13">analysis</text>
    <rect x="440" y="0" width="200" height="90" rx="8" fill="#1e293b" stroke="#334155" stroke-width="1"/>
    <text x="460" y="30" fill="#f59e0b" font-family="Arial, sans-serif" font-size="12" font-weight="bold">BLOCKCHAIN</text>
    <text x="460" y="65" fill="#f8fafc" font-family="Arial, sans-serif" font-size="28" font-weight="bold">Blockchain</text>
    <text x="460" y="80" fill="#64748b" font-family="Arial, sans-serif" font-size="13">analysis</text>
  </g>

  <!-- Key topics -->
  <g transform="translate(260, 440)">
    <rect x="0" y="0" width="75" height="32" rx="16" fill="#991b1b" opacity="0.7"/>
    <text x="37" y="21" text-anchor="middle" fill="#fca5a5" font-family="Arial, sans-serif" font-size="13">AI/ML</text>
    <rect x="90" y="0" width="120" height="32" rx="16" fill="#7c2d12" opacity="0.7"/>
    <text x="150" y="21" text-anchor="middle" fill="#fdba74" font-family="Arial, sans-serif" font-size="13">Kubernetes</text>
    <rect x="225" y="0" width="120" height="32" rx="16" fill="#312e81" opacity="0.7"/>
    <text x="285" y="21" text-anchor="middle" fill="#a5b4fc" font-family="Arial, sans-serif" font-size="13">Blockchain</text>
    <rect x="360" y="0" width="93" height="32" rx="16" fill="#064e3b" opacity="0.7"/>
    <text x="406" y="21" text-anchor="middle" fill="#6ee7b7" font-family="Arial, sans-serif" font-size="13">Bitcoin</text>
  </g>

  <!-- Network visualization with dashed orbital rings -->
  <g transform="translate(900, 180)" opacity="0.35">
    <!-- Dashed orbital rings -->
    <circle cx="120" cy="120" r="90" fill="none" stroke="#6366f1" stroke-width="1" stroke-dasharray="6,4" opacity="0.3"/>
    <circle cx="120" cy="120" r="60" fill="none" stroke="#10b981" stroke-width="1" stroke-dasharray="4,6" opacity="0.25"/>
    <circle cx="120" cy="120" r="30" fill="none" stroke="#6366f1" stroke-width="1" stroke-dasharray="3,5" opacity="0.2"/>
    <circle cx="47" cy="138" r="3" fill="#f87171"/>
    <circle cx="207" cy="207" r="4" fill="#fb923c"/>
    <circle cx="177" cy="124" r="5" fill="#818cf8"/>
    <circle cx="223" cy="203" r="6" fill="#34d399"/>
    <circle cx="54" cy="223" r="3" fill="#fbbf24"/>
    <circle cx="33" cy="78" r="4" fill="#f87171"/>
    <circle cx="55" cy="42" r="5" fill="#fb923c"/>
    <circle cx="33" cy="33" r="6" fill="#818cf8"/>
    <circle cx="130" cy="80" r="3" fill="#34d399"/>
    <circle cx="42" cy="42" r="4" fill="#fbbf24"/>
    <line x1="47" y1="138" x2="207" y2="207" stroke="#475569" stroke-width="1"/>
    <line x1="207" y1="207" x2="177" y2="124" stroke="#475569" stroke-width="1"/>
    <line x1="177" y1="124" x2="223" y2="203" stroke="#475569" stroke-width="1"/>
    <line x1="223" y1="203" x2="54" y2="223" stroke="#475569" stroke-width="1"/>
    <line x1="54" y1="223" x2="33" y2="78" stroke="#475569" stroke-width="1"/>
    <line x1="33" y1="78" x2="55" y2="42" stroke="#475569" stroke-width="1"/>
    <line x1="55" y1="42" x2="33" y2="33" stroke="#475569" stroke-width="1"/>
    <line x1="33" y1="33" x2="130" y2="80" stroke="#475569" stroke-width="1"/>
  </g>

  <!-- Bottom separator line -->
  <rect x="0" y="508" width="1200" height="1" fill="#6366f1" opacity="0.4"/>

  <!-- Bottom bar -->
  <rect x="0" y="509" width="1200" height="121" fill="#0f172a" opacity="0.9"/>
  <rect x="0" y="509" width="1200" height="2" fill="url(#accent)" opacity="0.6"/>

  <!-- Bottom left: site info -->
  <text x="80" y="548" fill="#94a3b8" font-family="Courier New, monospace" font-size="15" font-weight="bold">tech.2twodragon.com</text>
  <text x="80" y="572" fill="#64748b" font-family="Arial, sans-serif" font-size="12">DevSecOps Weekly Security Intelligence</text>
  <text x="80" y="592" fill="#475569" font-family="Courier New, monospace" font-size="11">tech.2twodragon.com/digest</text>

  <!-- Bottom right: stats -->
  <text x="1120" y="548" text-anchor="end" fill="#6366f1" font-family="Courier New, monospace" font-size="14" font-weight="bold">10 curated articles</text>
  <text x="1120" y="572" text-anchor="end" fill="#64748b" font-family="Arial, sans-serif" font-size="12">AI/ML | Kubernetes | Blockchain | Bitcoin</text>
  <text x="1120" y="592" text-anchor="end" fill="#475569" font-family="Courier New, monospace" font-size="11">tech.2twodragon.com</text>
</svg>
