<svg xmlns="http://www.w3.org/2000/svg" viewBox="0 0 1200 630" width="1200" height="630">
  <title>2026-02-10 AI &amp;amp</title>
  <defs>
    <linearGradient id="bg" x1="0%" y1="0%" x2="100%" y2="100%">
      <stop offset="0%" stop-color="#0b0e1a"/>
      <stop offset="50%" stop-color="#111827"/>
      <stop offset="100%" stop-color="#0f0a1e"/>
    </linearGradient>
    <filter id="glow"><feGaussianBlur stdDeviation="4" result="b"/><feMerge><feMergeNode in="b"/><feMergeNode in="SourceGraphic"/></feMerge></filter>
    <filter id="sg"><feGaussianBlur stdDeviation="30"/></filter>
    <filter id="shadow"><feDropShadow dx="0" dy="6" stdDeviation="12" flood-color="#000" flood-opacity="0.4"/></filter>
  </defs>
  <rect width="1200" height="630" fill="url(#bg)"/>
  <circle cx="250" cy="250" r="220" fill="#a78bfa" opacity="0.06" filter="url(#sg)"/>
  <circle cx="950" cy="400" r="200" fill="#6d28d9" opacity="0.04" filter="url(#sg)"/>

  <!-- Central illustration -->
  <g transform="translate(600,280)" filter="url(#shadow)">
    <circle r="80" fill="#0f172a" stroke="#a78bfa" stroke-width="2.5" opacity="0.8"/>

    <circle cx="-60" cy="0" r="22" fill="none" stroke="#a78bfa" stroke-width="2.5"/>
    <circle cx="0" cy="0" r="22" fill="none" stroke="#a78bfa" stroke-width="2.5"/>
    <circle cx="60" cy="0" r="22" fill="none" stroke="#a78bfa" stroke-width="2.5"/>
    <line x1="-38" y1="0" x2="-22" y2="0" stroke="#a78bfa" stroke-width="2"/>
    <line x1="22" y1="0" x2="38" y2="0" stroke="#a78bfa" stroke-width="2"/>
    <polygon points="-25,-4 -18,0 -25,4" fill="#a78bfa"/>
    <polygon points="35,-4 42,0 35,4" fill="#a78bfa"/>
    <path d="M-8,-35 L0,-25 L8,-35" fill="none" stroke="#a78bfa" stroke-width="2" opacity="0.5"/>
    <path d="M-8,35 L0,25 L8,35" fill="none" stroke="#a78bfa" stroke-width="2" opacity="0.5"/>
  </g>

  <text x="600" y="480" font-family="Arial,sans-serif" font-size="30" font-weight="bold" fill="white" text-anchor="middle" filter="url(#glow)">2026-02-10 AI &amp;</text>
  <text x="600" y="515" font-family="Arial,sans-serif" font-size="15" fill="#94a3b8" text-anchor="middle">AI | AWS</text>
  <text x="110" y="44" font-family="Arial,sans-serif" font-size="13" font-weight="bold" fill="#a78bfa" text-anchor="middle">DEVSECOPS</text>
  <rect x="40" y="22" width="140" height="32" rx="16" fill="#a78bfa" opacity="0.25" stroke="#a78bfa" stroke-width="1"/>
  <text x="1090" y="44" font-family="Arial,sans-serif" font-size="13" font-weight="bold" fill="#93c5fd" text-anchor="middle">March 26, 2026</text>
  <rect x="1020" y="22" width="140" height="32" rx="16" fill="#3b82f6" opacity="0.2" stroke="#3b82f6" stroke-width="1"/>
  <line x1="50" y1="588" x2="1150" y2="588" stroke="#334155" stroke-width="1" opacity="0.5"/>
  <text x="1150" y="612" font-family="Arial,sans-serif" font-size="13" fill="#94a3b8" text-anchor="end">tech.2twodragon.com</text>
</svg>