<svg xmlns="http://www.w3.org/2000/svg" viewBox="0 0 1200 630" width="1200" height="630" role="img" aria-label="Research-based weekly digest cover: AWS SOC 1 compliance ledger, SystemBC C2 botnet tunnel, BRIDGE BREAK serial to IP converter flaws">
<title>Weekly digest 2026-04-22: AWS SOC 1 (184 svc), SystemBC C2 (1570 victims), BRIDGE:BREAK (22 CVEs)</title>
<defs>
  <linearGradient id="bgSpread" x1="0%" y1="0%" x2="100%" y2="100%">
    <stop offset="0%" stop-color="#0A1226"/>
    <stop offset="50%" stop-color="#0C1430"/>
    <stop offset="100%" stop-color="#131038"/>
  </linearGradient>
  <linearGradient id="bandA" x1="0%" y1="0%" x2="100%" y2="0%">
    <stop offset="0%" stop-color="#0E2038"/>
    <stop offset="100%" stop-color="#12283F"/>
  </linearGradient>
  <linearGradient id="bandB" x1="0%" y1="0%" x2="100%" y2="0%">
    <stop offset="0%" stop-color="#1A0E2E"/>
    <stop offset="100%" stop-color="#24122F"/>
  </linearGradient>
  <linearGradient id="bandC" x1="0%" y1="0%" x2="100%" y2="0%">
    <stop offset="0%" stop-color="#2A1A0C"/>
    <stop offset="100%" stop-color="#1E1F0A"/>
  </linearGradient>
  <linearGradient id="badgeCert" x1="0%" y1="0%" x2="0%" y2="100%">
    <stop offset="0%" stop-color="#4ADE80"/>
    <stop offset="100%" stop-color="#16A34A"/>
  </linearGradient>
  <linearGradient id="ipStream" x1="0%" y1="0%" x2="100%" y2="0%">
    <stop offset="0%" stop-color="#FFB703" stop-opacity="0"/>
    <stop offset="50%" stop-color="#FFB703" stop-opacity="0.9"/>
    <stop offset="100%" stop-color="#FB8500" stop-opacity="0"/>
  </linearGradient>
  <radialGradient id="c2Glow" cx="50%" cy="50%" r="50%">
    <stop offset="0%" stop-color="#E63946" stop-opacity="0.7"/>
    <stop offset="100%" stop-color="#E63946" stop-opacity="0"/>
  </radialGradient>
  <filter id="softShadow" x="-10%" y="-10%" width="130%" height="130%">
    <feGaussianBlur in="SourceAlpha" stdDeviation="2.5"/>
    <feOffset dx="1" dy="3"/>
    <feComponentTransfer><feFuncA type="linear" slope="0.55"/></feComponentTransfer>
    <feMerge><feMergeNode/><feMergeNode in="SourceGraphic"/></feMerge>
  </filter>
  <filter id="textShadow" x="-5%" y="-5%" width="110%" height="110%">
    <feGaussianBlur in="SourceAlpha" stdDeviation="1.2"/>
    <feOffset dx="0" dy="1.5"/>
    <feComponentTransfer><feFuncA type="linear" slope="0.85"/></feComponentTransfer>
    <feMerge><feMergeNode/><feMergeNode in="SourceGraphic"/></feMerge>
  </filter>
  <pattern id="ledgerGrid" x="0" y="0" width="40" height="20" patternUnits="userSpaceOnUse">
    <path d="M0 20 L40 20" stroke="#2A3A56" stroke-width="0.4" opacity="0.5"/>
    <path d="M40 0 L40 20" stroke="#2A3A56" stroke-width="0.4" opacity="0.5"/>
  </pattern>
  <pattern id="circuitDot" x="0" y="0" width="18" height="18" patternUnits="userSpaceOnUse">
    <circle cx="9" cy="9" r="0.8" fill="#3A2A4E" opacity="0.55"/>
  </pattern>
</defs>

<rect width="1200" height="630" fill="url(#bgSpread)"/>

<g>
  <rect x="0" y="0" width="1200" height="210" fill="url(#bandA)"/>
  <rect x="0" y="0" width="1200" height="210" fill="url(#ledgerGrid)" opacity="0.6"/>
  <rect x="0" y="0" width="8" height="210" fill="#4ADE80"/>

  <g filter="url(#textShadow)">
    <text x="30" y="44" font-family="Inter, Helvetica, Arial, sans-serif" font-size="18" font-weight="700" letter-spacing="2.4" fill="#4ADE80">AWS COMPLIANCE</text>
    <text x="30" y="86" font-family="Inter, Helvetica, Arial, sans-serif" font-size="36" font-weight="800" fill="#F5F7FA">Winter 2025 SOC 1</text>
    <text x="30" y="118" font-family="Inter, Helvetica, Arial, sans-serif" font-size="20" font-weight="600" fill="#9FD3B0">184 services in scope</text>
    <text x="30" y="146" font-family="Inter, Helvetica, Arial, sans-serif" font-size="15" font-weight="500" fill="#BFC9D9">12 months : Jan 1 - Dec 31, 2025 : Ernst and Young LLP</text>
  </g>

  <g transform="translate(990,105)" filter="url(#softShadow)">
    <rect x="-80" y="-65" width="180" height="125" rx="14" fill="#0A1B2E" stroke="#4ADE80" stroke-width="2.2"/>
    <text x="10" y="-30" text-anchor="middle" font-family="Inter, Helvetica, Arial, sans-serif" font-size="13" font-weight="700" letter-spacing="2" fill="#4ADE80">SERVICES</text>
    <text x="10" y="28" text-anchor="middle" font-family="Inter, Helvetica, Arial, sans-serif" font-size="72" font-weight="900" fill="#F5F7FA">184</text>
    <text x="10" y="52" text-anchor="middle" font-family="Inter, Helvetica, Arial, sans-serif" font-size="12" font-weight="600" fill="#9FD3B0">+1 vs Winter 2024</text>
  </g>

  <g transform="translate(400,152)">
    <g opacity="0.95">
      <rect x="0" y="0" width="42" height="32" rx="5" fill="url(#badgeCert)" opacity="0.9"/>
      <rect x="48" y="0" width="42" height="32" rx="5" fill="url(#badgeCert)" opacity="0.85"/>
      <rect x="96" y="0" width="42" height="32" rx="5" fill="url(#badgeCert)" opacity="0.8"/>
      <rect x="144" y="0" width="42" height="32" rx="5" fill="url(#badgeCert)" opacity="0.72"/>
      <rect x="192" y="0" width="42" height="32" rx="5" fill="url(#badgeCert)" opacity="0.62"/>
      <rect x="240" y="0" width="42" height="32" rx="5" fill="url(#badgeCert)" opacity="0.5"/>
      <rect x="288" y="0" width="42" height="32" rx="5" fill="url(#badgeCert)" opacity="0.35"/>
      <rect x="336" y="0" width="42" height="32" rx="5" fill="url(#badgeCert)" opacity="0.2"/>
      <text x="21" y="21" text-anchor="middle" font-family="Inter, monospace" font-size="12" font-weight="800" fill="#0A1B2E">S3</text>
      <text x="69" y="21" text-anchor="middle" font-family="Inter, monospace" font-size="12" font-weight="800" fill="#0A1B2E">EC2</text>
      <text x="117" y="21" text-anchor="middle" font-family="Inter, monospace" font-size="12" font-weight="800" fill="#0A1B2E">RDS</text>
      <text x="165" y="21" text-anchor="middle" font-family="Inter, monospace" font-size="12" font-weight="800" fill="#0A1B2E">IAM</text>
      <text x="213" y="21" text-anchor="middle" font-family="Inter, monospace" font-size="12" font-weight="800" fill="#0A1B2E">KMS</text>
      <text x="261" y="21" text-anchor="middle" font-family="Inter, monospace" font-size="11" font-weight="800" fill="#0A1B2E">EKS</text>
    </g>
    <rect x="-10" y="-4" width="30" height="40" fill="#4ADE80" opacity="0.35">
      <animate attributeName="x" values="-10;400;-10" dur="6s" repeatCount="indefinite"/>
    </rect>
  </g>

  <g transform="translate(990,105)">
    <circle cx="10" cy="-50" r="3" fill="#4ADE80">
      <animate attributeName="opacity" values="0.2;1;0.2" dur="1.8s" repeatCount="indefinite"/>
    </circle>
  </g>
</g>

<g>
  <rect x="0" y="210" width="1200" height="210" fill="url(#bandB)"/>
  <rect x="0" y="210" width="1200" height="210" fill="url(#circuitDot)" opacity="0.7"/>
  <rect x="0" y="210" width="8" height="210" fill="#E63946"/>

  <g filter="url(#textShadow)">
    <text x="30" y="254" font-family="Inter, Helvetica, Arial, sans-serif" font-size="18" font-weight="700" letter-spacing="2.4" fill="#F87171">C2 BOTNET INFRA</text>
    <text x="30" y="296" font-family="Inter, Helvetica, Arial, sans-serif" font-size="36" font-weight="800" fill="#F5F7FA">SystemBC : The Gentlemen</text>
    <text x="30" y="328" font-family="Inter, Helvetica, Arial, sans-serif" font-size="20" font-weight="600" fill="#FBB6BD">1,570+ victims : SOCKS5 tunnel</text>
    <text x="30" y="356" font-family="Inter, Helvetica, Arial, sans-serif" font-size="15" font-weight="500" fill="#D9C9CE">RaaS since Jul 2025 : 320+ leaks : Q1 2026 top 3</text>
  </g>

  <g transform="translate(760,315)">
    <circle cx="0" cy="0" r="80" fill="url(#c2Glow)">
      <animate attributeName="r" values="60;90;60" dur="3.2s" repeatCount="indefinite"/>
      <animate attributeName="opacity" values="0.5;1;0.5" dur="3.2s" repeatCount="indefinite"/>
    </circle>
    <circle cx="0" cy="0" r="32" fill="#E63946" stroke="#FCA5A5" stroke-width="2" filter="url(#softShadow)"/>
    <text x="0" y="-2" text-anchor="middle" font-family="Inter, monospace" font-size="12" font-weight="800" fill="#FFF">C2</text>
    <text x="0" y="12" text-anchor="middle" font-family="Inter, monospace" font-size="10" font-weight="700" fill="#FFE4E6">SOCKS5</text>

    <g stroke="#E63946" stroke-width="1.2" stroke-opacity="0.55" stroke-dasharray="3 4" fill="none">
      <line x1="0" y1="0" x2="120" y2="-70"/>
      <line x1="0" y1="0" x2="155" y2="-30"/>
      <line x1="0" y1="0" x2="160" y2="20"/>
      <line x1="0" y1="0" x2="130" y2="70"/>
      <line x1="0" y1="0" x2="70" y2="95"/>
      <line x1="0" y1="0" x2="-70" y2="95"/>
      <line x1="0" y1="0" x2="-130" y2="70"/>
      <line x1="0" y1="0" x2="-160" y2="20"/>
      <line x1="0" y1="0" x2="-155" y2="-30"/>
      <line x1="0" y1="0" x2="-120" y2="-70"/>
      <line x1="0" y1="0" x2="-60" y2="-95"/>
      <line x1="0" y1="0" x2="60" y2="-95"/>
    </g>

    <g>
      <circle cx="120" cy="-70" r="5" fill="#F87171"><animate attributeName="opacity" values="0.3;1;0.3" dur="2.1s" repeatCount="indefinite"/></circle>
      <circle cx="155" cy="-30" r="5" fill="#F87171"><animate attributeName="opacity" values="0.3;1;0.3" dur="1.9s" repeatCount="indefinite"/></circle>
      <circle cx="160" cy="20" r="5" fill="#F87171"><animate attributeName="opacity" values="0.3;1;0.3" dur="2.4s" repeatCount="indefinite"/></circle>
      <circle cx="130" cy="70" r="5" fill="#F87171"><animate attributeName="opacity" values="0.3;1;0.3" dur="2.2s" repeatCount="indefinite"/></circle>
      <circle cx="70" cy="95" r="5" fill="#F87171"><animate attributeName="opacity" values="0.3;1;0.3" dur="2.0s" repeatCount="indefinite"/></circle>
      <circle cx="-70" cy="95" r="5" fill="#F87171"><animate attributeName="opacity" values="0.3;1;0.3" dur="2.3s" repeatCount="indefinite"/></circle>
      <circle cx="-130" cy="70" r="5" fill="#F87171"><animate attributeName="opacity" values="0.3;1;0.3" dur="2.5s" repeatCount="indefinite"/></circle>
      <circle cx="-160" cy="20" r="5" fill="#F87171"><animate attributeName="opacity" values="0.3;1;0.3" dur="1.7s" repeatCount="indefinite"/></circle>
      <circle cx="-155" cy="-30" r="5" fill="#F87171"><animate attributeName="opacity" values="0.3;1;0.3" dur="2.6s" repeatCount="indefinite"/></circle>
      <circle cx="-120" cy="-70" r="5" fill="#F87171"><animate attributeName="opacity" values="0.3;1;0.3" dur="1.8s" repeatCount="indefinite"/></circle>
      <circle cx="-60" cy="-95" r="5" fill="#F87171"><animate attributeName="opacity" values="0.3;1;0.3" dur="2.1s" repeatCount="indefinite"/></circle>
      <circle cx="60" cy="-95" r="5" fill="#F87171"><animate attributeName="opacity" values="0.3;1;0.3" dur="2.7s" repeatCount="indefinite"/></circle>
    </g>

    <g fill="#FECACA">
      <circle r="2.4"><animateMotion path="M0 0 L120 -70" dur="1.8s" repeatCount="indefinite"/></circle>
      <circle r="2.4"><animateMotion path="M0 0 L155 -30" dur="2.0s" repeatCount="indefinite"/></circle>
      <circle r="2.4"><animateMotion path="M0 0 L160 20" dur="2.2s" repeatCount="indefinite"/></circle>
      <circle r="2.4"><animateMotion path="M0 0 L130 70" dur="1.9s" repeatCount="indefinite"/></circle>
      <circle r="2.4"><animateMotion path="M0 0 L70 95" dur="2.1s" repeatCount="indefinite"/></circle>
      <circle r="2.4"><animateMotion path="M0 0 L-70 95" dur="2.3s" repeatCount="indefinite"/></circle>
      <circle r="2.4"><animateMotion path="M0 0 L-130 70" dur="1.7s" repeatCount="indefinite"/></circle>
      <circle r="2.4"><animateMotion path="M0 0 L-160 20" dur="2.4s" repeatCount="indefinite"/></circle>
      <circle r="2.4"><animateMotion path="M0 0 L-155 -30" dur="2.0s" repeatCount="indefinite"/></circle>
      <circle r="2.4"><animateMotion path="M0 0 L-120 -70" dur="1.8s" repeatCount="indefinite"/></circle>
      <circle r="2.4"><animateMotion path="M0 0 L-60 -95" dur="2.1s" repeatCount="indefinite"/></circle>
      <circle r="2.4"><animateMotion path="M0 0 L60 -95" dur="2.2s" repeatCount="indefinite"/></circle>
    </g>
  </g>

  <g transform="translate(990,315)" filter="url(#softShadow)">
    <rect x="-80" y="-65" width="180" height="125" rx="14" fill="#1E0A14" stroke="#E63946" stroke-width="2.2"/>
    <text x="10" y="-30" text-anchor="middle" font-family="Inter, Helvetica, Arial, sans-serif" font-size="13" font-weight="700" letter-spacing="2" fill="#F87171">VICTIMS</text>
    <text x="10" y="28" text-anchor="middle" font-family="Inter, Helvetica, Arial, sans-serif" font-size="60" font-weight="900" fill="#F5F7FA">1,570</text>
    <text x="10" y="52" text-anchor="middle" font-family="Inter, Helvetica, Arial, sans-serif" font-size="12" font-weight="600" fill="#FBB6BD">US : UK : DE : AU : RO</text>
  </g>
</g>

<g>
  <rect x="0" y="420" width="1200" height="210" fill="url(#bandC)"/>
  <rect x="0" y="420" width="8" height="210" fill="#FFB703"/>

  <g filter="url(#textShadow)">
    <text x="30" y="464" font-family="Inter, Helvetica, Arial, sans-serif" font-size="18" font-weight="700" letter-spacing="2.4" fill="#FFB703">OT + HEALTHCARE RCE</text>
    <text x="30" y="506" font-family="Inter, Helvetica, Arial, sans-serif" font-size="36" font-weight="800" fill="#F5F7FA">BRIDGE : BREAK</text>
    <text x="30" y="538" font-family="Inter, Helvetica, Arial, sans-serif" font-size="20" font-weight="600" fill="#FFD58A">22 CVEs : ~20,000 exposed</text>
    <text x="30" y="566" font-family="Inter, Helvetica, Arial, sans-serif" font-size="15" font-weight="500" fill="#E0D5B6">Lantronix EDS3000PS / EDS5000 : Silex SD330-AC : Forescout</text>
  </g>

  <g transform="translate(520,525)">
    <g filter="url(#softShadow)">
      <rect x="-70" y="-30" width="60" height="60" rx="6" fill="#3A3220" stroke="#FFB703" stroke-width="1.6"/>
      <g fill="#FFB703">
        <circle cx="-55" cy="-15" r="2.5"/>
        <circle cx="-40" cy="-15" r="2.5"/>
        <circle cx="-25" cy="-15" r="2.5"/>
        <circle cx="-55" cy="0" r="2.5"/>
        <circle cx="-40" cy="0" r="2.5"/>
        <circle cx="-25" cy="0" r="2.5"/>
        <circle cx="-55" cy="15" r="2.5"/>
        <circle cx="-40" cy="15" r="2.5"/>
        <circle cx="-25" cy="15" r="2.5"/>
      </g>
      <text x="-40" y="46" text-anchor="middle" font-family="Inter, monospace" font-size="11" font-weight="800" fill="#FFB703">SERIAL</text>
    </g>

    <g filter="url(#softShadow)">
      <rect x="-5" y="-38" width="90" height="76" rx="8" fill="#2A1A0C" stroke="#E63946" stroke-width="2"/>
      <path d="M-5 -10 L20 -5 L35 -18 L55 -2 L85 8" stroke="#E63946" stroke-width="2" fill="none">
        <animate attributeName="stroke-dasharray" values="0 200;200 0" dur="3.5s" repeatCount="indefinite"/>
      </path>
      <text x="40" y="-18" text-anchor="middle" font-family="Inter, monospace" font-size="10" font-weight="800" fill="#FCA5A5">BREAK</text>
      <text x="40" y="28" text-anchor="middle" font-family="Inter, monospace" font-size="10" font-weight="700" fill="#FFD58A">BRIDGE</text>
      <circle cx="12" cy="16" r="2.5" fill="#E63946"><animate attributeName="opacity" values="0.3;1;0.3" dur="1.2s" repeatCount="indefinite"/></circle>
      <circle cx="22" cy="16" r="2.5" fill="#FFB703" opacity="0.8"/>
      <circle cx="32" cy="16" r="2.5" fill="#E63946"><animate attributeName="opacity" values="0.3;1;0.3" dur="1.6s" repeatCount="indefinite"/></circle>
    </g>

    <g transform="translate(120,0)">
      <rect x="-10" y="-4" width="230" height="8" fill="url(#ipStream)" opacity="0.35"/>
      <g fill="#FFB703">
        <rect x="10" y="-6" width="22" height="12" rx="2">
          <animate attributeName="x" values="0;220;0" dur="2.8s" repeatCount="indefinite"/>
        </rect>
        <rect x="50" y="-6" width="22" height="12" rx="2">
          <animate attributeName="x" values="40;220;40" dur="3.2s" repeatCount="indefinite"/>
        </rect>
        <rect x="90" y="-6" width="22" height="12" rx="2" opacity="0.7">
          <animate attributeName="x" values="80;220;80" dur="2.5s" repeatCount="indefinite"/>
        </rect>
      </g>
      <text x="110" y="30" text-anchor="middle" font-family="Inter, monospace" font-size="11" font-weight="800" fill="#FFB703">IP NETWORK</text>
    </g>
  </g>

  <g transform="translate(990,525)" filter="url(#softShadow)">
    <rect x="-80" y="-65" width="180" height="125" rx="14" fill="#1E1805" stroke="#FFB703" stroke-width="2.2"/>
    <text x="10" y="-30" text-anchor="middle" font-family="Inter, Helvetica, Arial, sans-serif" font-size="13" font-weight="700" letter-spacing="2" fill="#FFB703">CVEs</text>
    <text x="10" y="28" text-anchor="middle" font-family="Inter, Helvetica, Arial, sans-serif" font-size="72" font-weight="900" fill="#F5F7FA">22</text>
    <text x="10" y="52" text-anchor="middle" font-family="Inter, Helvetica, Arial, sans-serif" font-size="12" font-weight="600" fill="#FFD58A">14 Silex : 8 Lantronix</text>
  </g>
</g>

<g transform="translate(24,480)" filter="url(#softShadow)">
  <rect x="-8" y="-8" width="100" height="100" rx="6" fill="#FFFFFF"/>
  <g transform="scale(2.0488)" fill="#0A1020">
    <path d="M0 0h7v1h-7zM9 0h1v1h-1zM12 0h2v1h-2zM18 0h2v1h-2zM21 0h1v1h-1zM25 0h3v1h-3zM30 0h2v1h-2zM34 0h7v1h-7zM0 1h1v1h-1zM6 1h1v1h-1zM10 1h1v1h-1zM12 1h3v1h-3zM16 1h2v1h-2zM23 1h1v1h-1zM25 1h4v1h-4zM30 1h1v1h-1zM32 1h1v1h-1zM34 1h1v1h-1zM40 1h1v1h-1zM0 2h1v1h-1zM2 2h3v1h-3zM6 2h1v1h-1zM10 2h1v1h-1zM13 2h1v1h-1zM16 2h2v1h-2zM19 2h1v1h-1zM21 2h3v1h-3zM26 2h1v1h-1zM29 2h1v1h-1zM32 2h1v1h-1zM34 2h1v1h-1zM36 2h3v1h-3zM40 2h1v1h-1zM0 3h1v1h-1zM2 3h3v1h-3zM6 3h1v1h-1zM10 3h1v1h-1zM12 3h2v1h-2zM15 3h3v1h-3zM19 3h7v1h-7zM27 3h6v1h-6zM34 3h1v1h-1zM36 3h3v1h-3zM40 3h1v1h-1zM0 4h1v1h-1zM2 4h3v1h-3zM6 4h1v1h-1zM9 4h1v1h-1zM11 4h1v1h-1zM13 4h2v1h-2zM17 4h1v1h-1zM19 4h1v1h-1zM25 4h3v1h-3zM32 4h1v1h-1zM34 4h1v1h-1zM36 4h3v1h-3zM40 4h1v1h-1zM0 5h1v1h-1zM6 5h1v1h-1zM8 5h2v1h-2zM11 5h1v1h-1zM13 5h1v1h-1zM16 5h4v1h-4zM24 5h1v1h-1zM26 5h2v1h-2zM30 5h3v1h-3zM34 5h1v1h-1zM40 5h1v1h-1zM0 6h7v1h-7zM8 6h1v1h-1zM10 6h1v1h-1zM12 6h1v1h-1zM14 6h1v1h-1zM16 6h1v1h-1zM18 6h1v1h-1zM20 6h1v1h-1zM22 6h1v1h-1zM24 6h1v1h-1zM26 6h1v1h-1zM28 6h1v1h-1zM30 6h1v1h-1zM32 6h1v1h-1zM34 6h7v1h-7zM10 7h3v1h-3zM17 7h1v1h-1zM19 7h4v1h-4zM24 7h1v1h-1zM27 7h3v1h-3zM31 7h1v1h-1zM0 8h1v1h-1zM3 8h1v1h-1zM5 8h2v1h-2zM8 8h1v1h-1zM13 8h3v1h-3zM19 8h1v1h-1zM21 8h1v1h-1zM25 8h2v1h-2zM32 8h2v1h-2zM35 8h1v1h-1zM0 9h2v1h-2zM3 9h1v1h-1zM5 9h1v1h-1zM9 9h1v1h-1zM14 9h1v1h-1zM16 9h2v1h-2zM21 9h1v1h-1zM24 9h3v1h-3zM29 9h1v1h-1zM32 9h1v1h-1zM37 9h4v1h-4zM2 10h5v1h-5zM8 10h3v1h-3zM16 10h5v1h-5zM22 10h1v1h-1zM24 10h2v1h-2zM30 10h2v1h-2zM35 10h5v1h-5zM1 11h3v1h-3zM7 11h1v1h-1zM10 11h1v1h-1zM14 11h3v1h-3zM18 11h1v1h-1zM21 11h1v1h-1zM24 11h3v1h-3zM28 11h1v1h-1zM33 11h2v1h-2zM36 11h1v1h-1zM38 11h1v1h-1zM40 11h1v1h-1zM1 12h1v1h-1zM3 12h6v1h-6zM11 12h2v1h-2zM14 12h4v1h-4zM19 12h3v1h-3zM25 12h7v1h-7zM33 12h3v1h-3zM37 12h1v1h-1zM39 12h1v1h-1zM0 13h2v1h-2zM4 13h2v1h-2zM7 13h2v1h-2zM10 13h3v1h-3zM14 13h1v1h-1zM16 13h2v1h-2zM20 13h1v1h-1zM22 13h2v1h-2zM25 13h1v1h-1zM28 13h1v1h-1zM30 13h1v1h-1zM32 13h2v1h-2zM37 13h2v1h-2zM0 14h1v1h-1zM2 14h1v1h-1zM5 14h3v1h-3zM11 14h1v1h-1zM14 14h2v1h-2zM17 14h3v1h-3zM21 14h1v1h-1zM23 14h1v1h-1zM30 14h1v1h-1zM32 14h1v1h-1zM34 14h1v1h-1zM37 14h4v1h-4zM0 15h1v1h-1zM2 15h3v1h-3zM8 15h1v1h-1zM10 15h1v1h-1zM13 15h3v1h-3zM17 15h2v1h-2zM20 15h4v1h-4zM25 15h2v1h-2zM28 15h4v1h-4zM34 15h2v1h-2zM1 16h4v1h-4zM6 16h2v1h-2zM9 16h2v1h-2zM17 16h1v1h-1zM22 16h1v1h-1zM27 16h1v1h-1zM29 16h1v1h-1zM31 16h2v1h-2zM35 16h1v1h-1zM39 16h1v1h-1zM1 17h1v1h-1zM3 17h1v1h-1zM5 17h1v1h-1zM7 17h1v1h-1zM9 17h1v1h-1zM11 17h1v1h-1zM13 17h5v1h-5zM19 17h1v1h-1zM21 17h1v1h-1zM23 17h2v1h-2zM26 17h3v1h-3zM34 17h2v1h-2zM37 17h4v1h-4zM2 18h1v1h-1zM6 18h1v1h-1zM8 18h4v1h-4zM15 18h1v1h-1zM17 18h1v1h-1zM22 18h1v1h-1zM25 18h1v1h-1zM29 18h2v1h-2zM33 18h2v1h-2zM36 18h1v1h-1zM40 18h1v1h-1zM3 19h1v1h-1zM5 19h1v1h-1zM7 19h3v1h-3zM11 19h3v1h-3zM16 19h1v1h-1zM19 19h3v1h-3zM25 19h1v1h-1zM29 19h2v1h-2zM32 19h4v1h-4zM37 19h1v1h-1zM40 19h1v1h-1zM0 20h2v1h-2zM4 20h3v1h-3zM13 20h5v1h-5zM19 20h2v1h-2zM22 20h3v1h-3zM26 20h2v1h-2zM29 20h1v1h-1zM32 20h3v1h-3zM38 20h2v1h-2zM1 21h2v1h-2zM12 21h1v1h-1zM14 21h1v1h-1zM16 21h2v1h-2zM19 21h4v1h-4zM25 21h1v1h-1zM29 21h2v1h-2zM34 21h1v1h-1zM38 21h3v1h-3zM0 22h3v1h-3zM4 22h5v1h-5zM11 22h10v1h-10zM24 22h2v1h-2zM28 22h1v1h-1zM31 22h1v1h-1zM33 22h4v1h-4zM38 22h2v1h-2zM0 23h2v1h-2zM4 23h2v1h-2zM9 23h2v1h-2zM15 23h2v1h-2zM18 23h6v1h-6zM25 23h2v1h-2zM28 23h1v1h-1zM30 23h1v1h-1zM34 23h1v1h-1zM38 23h3v1h-3zM0 24h3v1h-3zM5 24h5v1h-5zM11 24h1v1h-1zM15 24h1v1h-1zM17 24h1v1h-1zM19 24h3v1h-3zM24 24h2v1h-2zM27 24h3v1h-3zM31 24h5v1h-5zM37 24h1v1h-1zM39 24h1v1h-1zM0 25h3v1h-3zM4 25h2v1h-2zM10 25h4v1h-4zM16 25h2v1h-2zM19 25h4v1h-4zM24 25h3v1h-3zM28 25h2v1h-2zM31 25h1v1h-1zM34 25h1v1h-1zM37 25h1v1h-1zM39 25h1v1h-1zM0 26h3v1h-3zM6 26h5v1h-5zM12 26h1v1h-1zM16 26h2v1h-2zM20 26h1v1h-1zM23 26h1v1h-1zM25 26h2v1h-2zM28 26h1v1h-1zM30 26h1v1h-1zM32 26h5v1h-5zM39 26h2v1h-2zM0 27h1v1h-1zM4 27h1v1h-1zM8 27h3v1h-3zM15 27h1v1h-1zM17 27h2v1h-2zM20 27h3v1h-3zM24 27h4v1h-4zM29 27h1v1h-1zM32 27h1v1h-1zM40 27h1v1h-1zM4 28h1v1h-1zM6 28h3v1h-3zM11 28h2v1h-2zM14 28h4v1h-4zM21 28h4v1h-4zM26 28h2v1h-2zM29 28h2v1h-2zM32 28h2v1h-2zM35 28h1v1h-1zM1 29h4v1h-4zM7 29h1v1h-1zM9 29h2v1h-2zM12 29h2v1h-2zM15 29h1v1h-1zM17 29h1v1h-1zM19 29h3v1h-3zM24 29h2v1h-2zM28 29h4v1h-4zM35 29h1v1h-1zM37 29h2v1h-2zM40 29h1v1h-1zM0 30h1v1h-1zM3 30h5v1h-5zM9 30h2v1h-2zM13 30h1v1h-1zM15 30h3v1h-3zM22 30h4v1h-4zM35 30h1v1h-1zM38 30h3v1h-3zM5 31h1v1h-1zM7 31h1v1h-1zM9 31h1v1h-1zM11 31h1v1h-1zM14 31h1v1h-1zM16 31h2v1h-2zM21 31h1v1h-1zM24 31h1v1h-1zM26 31h1v1h-1zM29 31h1v1h-1zM31 31h3v1h-3zM36 31h2v1h-2zM0 32h1v1h-1zM2 32h1v1h-1zM4 32h3v1h-3zM10 32h1v1h-1zM14 32h2v1h-2zM20 32h1v1h-1zM25 32h2v1h-2zM31 32h6v1h-6zM38 32h1v1h-1zM40 32h1v1h-1zM8 33h2v1h-2zM16 33h5v1h-5zM24 33h2v1h-2zM27 33h2v1h-2zM30 33h3v1h-3zM36 33h5v1h-5zM0 34h7v1h-7zM10 34h3v1h-3zM15 34h1v1h-1zM18 34h2v1h-2zM21 34h2v1h-2zM25 34h2v1h-2zM28 34h2v1h-2zM32 34h1v1h-1zM34 34h1v1h-1zM36 34h1v1h-1zM38 34h2v1h-2zM0 35h1v1h-1zM6 35h1v1h-1zM8 35h6v1h-6zM16 35h1v1h-1zM18 35h3v1h-3zM24 35h2v1h-2zM27 35h1v1h-1zM30 35h1v1h-1zM32 35h1v1h-1zM36 35h1v1h-1zM38 35h1v1h-1zM40 35h1v1h-1zM0 36h1v1h-1zM2 36h3v1h-3zM6 36h1v1h-1zM9 36h1v1h-1zM12 36h2v1h-2zM15 36h1v1h-1zM18 36h3v1h-3zM26 36h3v1h-3zM32 36h6v1h-6zM39 36h1v1h-1zM0 37h1v1h-1zM2 37h3v1h-3zM6 37h1v1h-1zM8 37h1v1h-1zM10 37h1v1h-1zM14 37h3v1h-3zM18 37h5v1h-5zM26 37h1v1h-1zM28 37h2v1h-2zM31 37h4v1h-4zM36 37h2v1h-2zM40 37h1v1h-1zM0 38h1v1h-1zM2 38h3v1h-3zM6 38h1v1h-1zM9 38h1v1h-1zM13 38h4v1h-4zM20 38h2v1h-2zM23 38h4v1h-4zM28 38h1v1h-1zM30 38h2v1h-2zM36 38h5v1h-5zM0 39h1v1h-1zM6 39h1v1h-1zM11 39h1v1h-1zM14 39h2v1h-2zM17 39h1v1h-1zM21 39h2v1h-2zM25 39h2v1h-2zM28 39h6v1h-6zM35 39h1v1h-1zM39 39h1v1h-1zM0 40h7v1h-7zM8 40h3v1h-3zM12 40h1v1h-1zM16 40h1v1h-1zM18 40h5v1h-5zM24 40h1v1h-1zM29 40h1v1h-1zM31 40h7v1h-7zM39 40h1v1h-1z"/>
  </g>
</g>
<text x="132" y="502" font-family="Inter, Helvetica, Arial, sans-serif" font-size="13" font-weight="700" fill="#F5F7FA">scan / 2026-04-22 digest</text>
<text x="132" y="522" font-family="Inter, Helvetica, Arial, sans-serif" font-size="11" font-weight="500" fill="#9FB3C8">tech.2twodragon.com</text>

<g opacity="0.9">
  <g fill="#4ADE80">
    <circle cx="240" cy="168" r="1.5"><animate attributeName="opacity" values="0;1;0" dur="1.8s" repeatCount="indefinite"/></circle>
    <circle cx="310" cy="168" r="1.5"><animate attributeName="opacity" values="0;1;0" dur="1.6s" begin="0.2s" repeatCount="indefinite"/></circle>
    <circle cx="380" cy="168" r="1.5"><animate attributeName="opacity" values="0;1;0" dur="2.0s" begin="0.4s" repeatCount="indefinite"/></circle>
    <circle cx="820" cy="168" r="1.5"><animate attributeName="opacity" values="0;1;0" dur="1.9s" repeatCount="indefinite"/></circle>
    <circle cx="880" cy="168" r="1.5"><animate attributeName="opacity" values="0;1;0" dur="2.1s" begin="0.3s" repeatCount="indefinite"/></circle>
  </g>
  <g fill="#4ADE80" opacity="0.6">
    <rect x="780" y="30" width="6" height="2"><animate attributeName="opacity" values="0.2;1;0.2" dur="1.4s" repeatCount="indefinite"/></rect>
    <rect x="800" y="30" width="6" height="2"><animate attributeName="opacity" values="0.2;1;0.2" dur="1.2s" begin="0.3s" repeatCount="indefinite"/></rect>
    <rect x="820" y="30" width="6" height="2"><animate attributeName="opacity" values="0.2;1;0.2" dur="1.6s" begin="0.6s" repeatCount="indefinite"/></rect>
    <rect x="840" y="30" width="6" height="2"><animate attributeName="opacity" values="0.2;1;0.2" dur="1.3s" begin="0.9s" repeatCount="indefinite"/></rect>
  </g>
  <g fill="#F87171">
    <circle cx="560" cy="260" r="1.2"><animate attributeName="opacity" values="0;1;0" dur="1.8s" repeatCount="indefinite"/></circle>
    <circle cx="580" cy="265" r="1.2"><animate attributeName="opacity" values="0;1;0" dur="1.6s" begin="0.2s" repeatCount="indefinite"/></circle>
    <circle cx="600" cy="268" r="1.2"><animate attributeName="opacity" values="0;1;0" dur="2.0s" begin="0.4s" repeatCount="indefinite"/></circle>
    <circle cx="620" cy="272" r="1.2"><animate attributeName="opacity" values="0;1;0" dur="1.7s" begin="0.6s" repeatCount="indefinite"/></circle>
    <circle cx="640" cy="268" r="1.2"><animate attributeName="opacity" values="0;1;0" dur="1.9s" begin="0.8s" repeatCount="indefinite"/></circle>
    <circle cx="560" cy="370" r="1.2"><animate attributeName="opacity" values="0;1;0" dur="1.8s" repeatCount="indefinite"/></circle>
    <circle cx="580" cy="375" r="1.2"><animate attributeName="opacity" values="0;1;0" dur="1.6s" begin="0.2s" repeatCount="indefinite"/></circle>
    <circle cx="600" cy="378" r="1.2"><animate attributeName="opacity" values="0;1;0" dur="2.0s" begin="0.4s" repeatCount="indefinite"/></circle>
    <circle cx="620" cy="372" r="1.2"><animate attributeName="opacity" values="0;1;0" dur="1.7s" begin="0.6s" repeatCount="indefinite"/></circle>
    <circle cx="640" cy="368" r="1.2"><animate attributeName="opacity" values="0;1;0" dur="1.9s" begin="0.8s" repeatCount="indefinite"/></circle>
  </g>
  <g fill="#FCA5A5" opacity="0.7">
    <circle cx="760" cy="315" r="42" fill="none" stroke="#FCA5A5" stroke-width="0.8">
      <animate attributeName="r" values="35;60;35" dur="2.8s" repeatCount="indefinite"/>
      <animate attributeName="opacity" values="0.8;0;0.8" dur="2.8s" repeatCount="indefinite"/>
    </circle>
    <circle cx="760" cy="315" r="50" fill="none" stroke="#FCA5A5" stroke-width="0.6">
      <animate attributeName="r" values="45;75;45" dur="3.4s" repeatCount="indefinite"/>
      <animate attributeName="opacity" values="0.6;0;0.6" dur="3.4s" repeatCount="indefinite"/>
    </circle>
  </g>
  <g fill="#FFB703">
    <circle cx="260" cy="442" r="1.5"><animate attributeName="opacity" values="0;1;0" dur="1.5s" repeatCount="indefinite"/></circle>
    <circle cx="330" cy="442" r="1.5"><animate attributeName="opacity" values="0;1;0" dur="1.7s" begin="0.2s" repeatCount="indefinite"/></circle>
    <circle cx="400" cy="442" r="1.5"><animate attributeName="opacity" values="0;1;0" dur="1.9s" begin="0.4s" repeatCount="indefinite"/></circle>
    <circle cx="470" cy="442" r="1.5"><animate attributeName="opacity" values="0;1;0" dur="1.6s" begin="0.6s" repeatCount="indefinite"/></circle>
  </g>
  <g fill="#FFD58A" opacity="0.9">
    <rect x="770" y="440" width="4" height="4" rx="1"><animate attributeName="opacity" values="0.3;1;0.3" dur="1.4s" repeatCount="indefinite"/></rect>
    <rect x="790" y="440" width="4" height="4" rx="1"><animate attributeName="opacity" values="0.3;1;0.3" dur="1.2s" begin="0.3s" repeatCount="indefinite"/></rect>
    <rect x="810" y="440" width="4" height="4" rx="1"><animate attributeName="opacity" values="0.3;1;0.3" dur="1.6s" begin="0.6s" repeatCount="indefinite"/></rect>
    <rect x="830" y="440" width="4" height="4" rx="1"><animate attributeName="opacity" values="0.3;1;0.3" dur="1.3s" begin="0.9s" repeatCount="indefinite"/></rect>
    <rect x="850" y="440" width="4" height="4" rx="1"><animate attributeName="opacity" values="0.3;1;0.3" dur="1.5s" begin="1.2s" repeatCount="indefinite"/></rect>
  </g>
  <g fill="#F87171" opacity="0.5">
    <rect x="620" y="530" width="3" height="3" rx="0.5"><animate attributeName="opacity" values="0.2;0.9;0.2" dur="1.1s" repeatCount="indefinite"/></rect>
    <rect x="640" y="540" width="3" height="3" rx="0.5"><animate attributeName="opacity" values="0.2;0.9;0.2" dur="1.3s" begin="0.2s" repeatCount="indefinite"/></rect>
    <rect x="660" y="530" width="3" height="3" rx="0.5"><animate attributeName="opacity" values="0.2;0.9;0.2" dur="1.5s" begin="0.4s" repeatCount="indefinite"/></rect>
    <rect x="680" y="540" width="3" height="3" rx="0.5"><animate attributeName="opacity" values="0.2;0.9;0.2" dur="1.7s" begin="0.6s" repeatCount="indefinite"/></rect>
    <rect x="700" y="530" width="3" height="3" rx="0.5"><animate attributeName="opacity" values="0.2;0.9;0.2" dur="1.9s" begin="0.8s" repeatCount="indefinite"/></rect>
  </g>
  <g stroke="#4ADE80" stroke-width="0.5" stroke-opacity="0.35" fill="none">
    <path d="M20 95 L28 95"><animate attributeName="stroke-opacity" values="0;0.7;0" dur="2s" repeatCount="indefinite"/></path>
    <path d="M20 125 L28 125"><animate attributeName="stroke-opacity" values="0;0.7;0" dur="2.2s" begin="0.3s" repeatCount="indefinite"/></path>
    <path d="M20 155 L28 155"><animate attributeName="stroke-opacity" values="0;0.7;0" dur="1.8s" begin="0.6s" repeatCount="indefinite"/></path>
  </g>
  <g stroke="#E63946" stroke-width="0.5" stroke-opacity="0.35" fill="none">
    <path d="M20 305 L28 305"><animate attributeName="stroke-opacity" values="0;0.7;0" dur="2s" repeatCount="indefinite"/></path>
    <path d="M20 335 L28 335"><animate attributeName="stroke-opacity" values="0;0.7;0" dur="2.2s" begin="0.3s" repeatCount="indefinite"/></path>
    <path d="M20 365 L28 365"><animate attributeName="stroke-opacity" values="0;0.7;0" dur="1.8s" begin="0.6s" repeatCount="indefinite"/></path>
  </g>
  <g stroke="#FFB703" stroke-width="0.5" stroke-opacity="0.35" fill="none">
    <path d="M20 515 L28 515"><animate attributeName="stroke-opacity" values="0;0.7;0" dur="2s" repeatCount="indefinite"/></path>
    <path d="M20 545 L28 545"><animate attributeName="stroke-opacity" values="0;0.7;0" dur="2.2s" begin="0.3s" repeatCount="indefinite"/></path>
    <path d="M20 575 L28 575"><animate attributeName="stroke-opacity" values="0;0.7;0" dur="1.8s" begin="0.6s" repeatCount="indefinite"/></path>
  </g>
</g>

</svg>
