<svg xmlns="http://www.w3.org/2000/svg" viewBox="0 0 1200 630">
  <defs>
    <linearGradient id="bg" x1="0%" y1="0%" x2="100%" y2="100%">
      <stop offset="0%" style="stop-color:#0a0a1a"/><stop offset="100%" style="stop-color:#0a1a0a"/>
    </linearGradient>
    <filter id="glow"><feGaussianBlur stdDeviation="4" result="b"/><feMerge><feMergeNode in="b"/><feMergeNode in="SourceGraphic"/></feMerge></filter>
    <filter id="sg"><feGaussianBlur stdDeviation="30"/></filter>
    <filter id="shadow"><feDropShadow dx="0" dy="4" stdDeviation="8" flood-color="#000" flood-opacity="0.3"/></filter>
  </defs>
  <rect width="1200" height="630" fill="url(#bg)"/>
  <circle cx="600" cy="250" r="280" fill="#22c55e" opacity="0.03" filter="url(#sg)"/>
  <g transform="translate(600,225)">
    <!-- ISMS-P certification seal -->
    <g filter="url(#shadow)">
      <circle cx="0" cy="0" r="90" fill="#1e293b" stroke="#22c55e" stroke-width="3"/>
      <circle cx="0" cy="0" r="78" fill="none" stroke="#22c55e" stroke-width="1.5" stroke-dasharray="6,3"/>
      <circle cx="0" cy="0" r="65" fill="#0f172a" stroke="#22c55e" stroke-width="1"/>
      <!-- Star pattern -->
      <g opacity="0.2">
        <polygon points="0,-55 5,-45 15,-45 7,-38 10,-28 0,-35 -10,-28 -7,-38 -15,-45 -5,-45" fill="#22c55e"/>
      </g>
      <!-- ISMS-P text -->
      <text x="0" y="-10" font-family="Arial,sans-serif" font-size="26" font-weight="bold" fill="#22c55e" text-anchor="middle">ISMS-P</text>
      <!-- Checkmark -->
      <path d="M-15,15 L-5,28 L20,2" fill="none" stroke="#86efac" stroke-width="4" stroke-linecap="round"/>
      <!-- Ribbon tails -->
      <path d="M-60,75 L-40,85 L-60,95" fill="#22c55e" opacity="0.2"/>
      <path d="M60,75 L40,85 L60,95" fill="#22c55e" opacity="0.2"/>
      <rect x="-60" y="70" width="120" height="20" rx="3" fill="#22c55e" opacity="0.15"/>
      <text x="0" y="84" font-family="Courier New" font-size="9" fill="#86efac" text-anchor="middle">CERTIFIED 2025</text>
    </g>
    <!-- AWS cloud connection -->
    <g transform="translate(-170,0)" opacity="0.5">
      <path d="M-15,-20 C-30,-20 -40,-12 -40,0 C-50,0 -55,8 -55,15 C-55,25 -48,30 -38,30 L20,30 C30,30 35,25 35,15 C35,8 30,0 20,0 C20,-12 10,-20 -5,-20 Z" fill="#1e293b" stroke="#f97316" stroke-width="1.5"/>
      <text x="-10" y="12" font-family="Arial,sans-serif" font-size="12" font-weight="bold" fill="#fdba74" text-anchor="middle">AWS</text>
    </g>
    <line x1="-100" y1="0" x2="-95" y2="0" stroke="#94a3b8" stroke-width="1.5" stroke-dasharray="4,3" opacity="0.3"/>
    <!-- Protection measures -->
    <g transform="translate(170,0)" opacity="0.5">
      <path d="M0,-30 L30,-18 L30,12 C30,25 16,33 0,38 C-16,33 -30,25 -30,12 L-30,-18 Z" fill="#1e293b" stroke="#3b82f6" stroke-width="2"/>
      <rect x="-12" y="-5" width="24" height="16" rx="3" fill="#3b82f6" opacity="0.3"/>
      <path d="M-7,-5 L-7,-10 C-7,-15 -4,-18 0,-18 C4,-18 7,-15 7,-10 L7,-5" fill="none" stroke="#3b82f6" stroke-width="1.5"/>
    </g>
  </g>
  <text x="600" y="500" font-family="Arial,sans-serif" font-size="36" font-weight="bold" fill="white" text-anchor="middle" filter="url(#glow)">ISMS-P Certification</text>
  <text x="600" y="538" font-family="Arial,sans-serif" font-size="16" fill="#94a3b8" text-anchor="middle">AWS Environment | Management System | Protection Measures</text>
  <rect x="40" y="25" width="160" height="32" rx="16" fill="#22c55e" opacity="0.2" stroke="#22c55e" stroke-width="1"/>
  <text x="120" y="47" font-family="Arial,sans-serif" font-size="13" font-weight="bold" fill="#86efac" text-anchor="middle">COMPLIANCE</text>
  <rect x="1000" y="25" width="160" height="32" rx="16" fill="#3b82f6" opacity="0.2" stroke="#3b82f6" stroke-width="1"/>
  <text x="1080" y="47" font-family="Arial,sans-serif" font-size="13" font-weight="bold" fill="#93c5fd" text-anchor="middle">Jan 14, 2026</text>
  <text x="1160" y="615" font-family="Arial,sans-serif" font-size="13" fill="#475569" text-anchor="end">tech.2twodragon.com</text>
</svg>