<svg xmlns="http://www.w3.org/2000/svg" viewBox="0 0 1200 630" width="1200" height="630" role="img" aria-label="Notepad++ supply chain, SK Shieldus report, HashiCorp Boundary 0.21">
<title>2026-02-02: Notepad++ T1195, SK Shieldus, HashiCorp Boundary 0.21</title>
<defs>
<linearGradient id="bgSpreadFB02A" x1="0%" y1="0%" x2="100%" y2="100%"><stop offset="0%" stop-color="#0A1226"/><stop offset="50%" stop-color="#0C1430"/><stop offset="100%" stop-color="#131038"/></linearGradient>
<linearGradient id="bandAFB02A" x1="0%" y1="0%" x2="100%" y2="0%"><stop offset="0%" stop-color="#1A0E2E"/><stop offset="100%" stop-color="#24122F"/></linearGradient>
<linearGradient id="bandBFB02A" x1="0%" y1="0%" x2="100%" y2="0%"><stop offset="0%" stop-color="#2A1A0C"/><stop offset="100%" stop-color="#1E1F0A"/></linearGradient>
<linearGradient id="bandCFB02A" x1="0%" y1="0%" x2="100%" y2="0%"><stop offset="0%" stop-color="#0E2038"/><stop offset="100%" stop-color="#12283F"/></linearGradient>
<linearGradient id="streakAFB02A" x1="0%" y1="0%" x2="100%" y2="0%"><stop offset="0%" stop-color="#E63946" stop-opacity="0"/><stop offset="50%" stop-color="#E63946" stop-opacity="0.85"/><stop offset="100%" stop-color="#E63946" stop-opacity="0"/></linearGradient>
<linearGradient id="streakBFB02A" x1="0%" y1="0%" x2="100%" y2="0%"><stop offset="0%" stop-color="#FFB703" stop-opacity="0"/><stop offset="50%" stop-color="#FFB703" stop-opacity="0.85"/><stop offset="100%" stop-color="#FFB703" stop-opacity="0"/></linearGradient>
<linearGradient id="streakCFB02A" x1="0%" y1="0%" x2="100%" y2="0%"><stop offset="0%" stop-color="#4ADE80" stop-opacity="0"/><stop offset="50%" stop-color="#4ADE80" stop-opacity="0.85"/><stop offset="100%" stop-color="#4ADE80" stop-opacity="0"/></linearGradient>
<radialGradient id="glowAFB02A" cx="50%" cy="50%" r="50%"><stop offset="0%" stop-color="#E63946" stop-opacity="0.55"/><stop offset="100%" stop-color="#E63946" stop-opacity="0"/></radialGradient>
<radialGradient id="glowBFB02A" cx="50%" cy="50%" r="50%"><stop offset="0%" stop-color="#FFB703" stop-opacity="0.55"/><stop offset="100%" stop-color="#FFB703" stop-opacity="0"/></radialGradient>
<radialGradient id="glowCFB02A" cx="50%" cy="50%" r="50%"><stop offset="0%" stop-color="#4ADE80" stop-opacity="0.55"/><stop offset="100%" stop-color="#4ADE80" stop-opacity="0"/></radialGradient>
<filter id="softShadow" x="-10%" y="-10%" width="130%" height="130%"><feGaussianBlur in="SourceAlpha" stdDeviation="2.5"/><feOffset dx="1" dy="3"/><feComponentTransfer><feFuncA type="linear" slope="0.55"/></feComponentTransfer><feMerge><feMergeNode/><feMergeNode in="SourceGraphic"/></feMerge></filter>
<filter id="textShadow" x="-5%" y="-5%" width="110%" height="110%"><feGaussianBlur in="SourceAlpha" stdDeviation="1.2"/><feOffset dx="0" dy="1.5"/><feComponentTransfer><feFuncA type="linear" slope="0.85"/></feComponentTransfer><feMerge><feMergeNode/><feMergeNode in="SourceGraphic"/></feMerge></filter>
<pattern id="ledgerGrid" x="0" y="0" width="40" height="20" patternUnits="userSpaceOnUse"><path d="M0 20 L40 20" stroke="#2A3A56" stroke-width="0.4" opacity="0.5"/><path d="M40 0 L40 20" stroke="#2A3A56" stroke-width="0.4" opacity="0.5"/></pattern>
<pattern id="circuitDot" x="0" y="0" width="18" height="18" patternUnits="userSpaceOnUse"><circle cx="9" cy="9" r="0.8" fill="#3A2A4E" opacity="0.55"/></pattern>
<pattern id="hexGridFB02A" x="0" y="0" width="28" height="32" patternUnits="userSpaceOnUse"><path d="M14 0 L28 8 L28 24 L14 32 L0 24 L0 8 Z" fill="none" stroke="#2A3A56" stroke-width="0.3" opacity="0.4"/></pattern>
<pattern id="radarRippleFB02A" x="0" y="0" width="60" height="60" patternUnits="userSpaceOnUse"><circle cx="30" cy="30" r="14" fill="none" stroke="#2A3A56" stroke-width="0.3" opacity="0.4"/></pattern>
</defs>
<rect width="1200" height="630" fill="url(#bgSpreadFB02A)"/>
<g>
  <rect x="0" y="0" width="1200" height="210" fill="url(#bandAFB02A)"/>
  <rect x="0" y="0" width="1200" height="210" fill="url(#circuitDot)" opacity="0.6"/>
  <rect x="0" y="0" width="8" height="210" fill="#E63946"/>
  <g filter="url(#textShadow)">
    <text x="30" y="44" font-family="Inter, Helvetica, Arial, sans-serif" font-size="18" font-weight="700" letter-spacing="2.4" fill="#F87171">SUPPLY CHAIN T1195</text>
    <text x="30" y="86" font-family="Inter, Helvetica, Arial, sans-serif" font-size="36" font-weight="800" fill="#F5F7FA">Notepad++ Compromised</text>
    <text x="30" y="118" font-family="Inter, Helvetica, Arial, sans-serif" font-size="20" font-weight="600" fill="#FBB6BD">Nation-state attribution</text>
    <text x="30" y="146" font-family="Inter, Helvetica, Arial, sans-serif" font-size="15" font-weight="500" fill="#D9C9CE">Trojanized installer : signed binary abuse : MITRE T1195.002 supply-chain</text>
  </g>
  <g transform="translate(640,105)">
    <rect x="-92" y="-56" width="184" height="116" rx="8" fill="#E63946" fill-opacity="0.05" stroke="#E63946" stroke-width="1.2" stroke-opacity="0.5"/>
    <g stroke="#E63946" stroke-width="2" opacity="0.85">
      <line x1="-80" y1="-40" x2="-30" y2="-40"/><line x1="-25" y1="-40" x2="40" y2="-40"/>
      <line x1="-80" y1="-20" x2="-10" y2="-20"/><line x1="-5" y1="-20" x2="55" y2="-20"/>
      <line x1="-80" y1="0" x2="-40" y2="0"/><line x1="-35" y1="0" x2="60" y2="0"/>
      <line x1="-80" y1="20" x2="-20" y2="20"/><line x1="-15" y1="20" x2="30" y2="20"/>
      <line x1="-80" y1="40" x2="-50" y2="40"/><line x1="-45" y1="40" x2="50" y2="40"/>
    </g>
    <rect x="-86" y="-50" width="4" height="104" fill="#E63946" opacity="0.6"/>
    <g fill="#FCA5A5">
      <circle cx="74" cy="-40" r="3"><animate attributeName="opacity" values="0.3;1;0.3" dur="1.6s" repeatCount="indefinite"/></circle>
      <circle cx="74" cy="-20" r="3"><animate attributeName="opacity" values="0.3;1;0.3" dur="1.8s" repeatCount="indefinite"/></circle>
      <circle cx="74" cy="0" r="3"><animate attributeName="opacity" values="0.3;1;0.3" dur="2.1s" repeatCount="indefinite"/></circle>
      <circle cx="74" cy="20" r="3"><animate attributeName="opacity" values="0.3;1;0.3" dur="1.7s" repeatCount="indefinite"/></circle>
      <circle cx="74" cy="40" r="3"><animate attributeName="opacity" values="0.3;1;0.3" dur="1.9s" repeatCount="indefinite"/></circle>
    </g>
    <rect x="-86" y="-50" width="178" height="3" fill="#E63946" opacity="0.4">
      <animate attributeName="y" values="-50;46;-50" dur="3.2s" repeatCount="indefinite"/>
    </rect>
    <text y="68" text-anchor="middle" font-family="Inter, monospace" font-size="10" font-weight="800" fill="#E63946">NPP</text>
  </g>
  <g transform="translate(870,105)" filter="url(#softShadow)">
    <rect x="-50" y="-48" width="100" height="96" rx="10" fill="#1E0A14" stroke="#E63946" stroke-width="1.6" stroke-opacity="0.75"/>
    <text x="0" y="-26" text-anchor="middle" font-family="Inter, Helvetica, Arial, sans-serif" font-size="10" font-weight="700" letter-spacing="1.4" fill="#F87171">ATTRIB</text>
    <text x="0" y="14" text-anchor="middle" font-family="Inter, Helvetica, Arial, sans-serif" font-size="34" font-weight="900" fill="#F5F7FA">NS</text>
    <text x="0" y="34" text-anchor="middle" font-family="Inter, Helvetica, Arial, sans-serif" font-size="10" font-weight="600" fill="#FBB6BD">nation-state</text>
  </g>
  <g transform="translate(990,105)" filter="url(#softShadow)">
    <rect x="-80" y="-65" width="180" height="125" rx="14" fill="#1E0A14" stroke="#E63946" stroke-width="2.2"/>
    <text x="10" y="-38" text-anchor="middle" font-family="Inter, Helvetica, Arial, sans-serif" font-size="13" font-weight="700" letter-spacing="2" fill="#F87171">MITRE</text>
    <text x="10" y="22" text-anchor="middle" font-family="Inter, Helvetica, Arial, sans-serif" font-size="60" font-weight="900" fill="#F5F7FA">T1195</text>
    <text x="10" y="44" text-anchor="middle" font-family="Inter, Helvetica, Arial, sans-serif" font-size="11" font-weight="600" fill="#FBB6BD">supply chain</text>
    <line x1="-58" y1="50" x2="78" y2="50" stroke="#E63946" stroke-width="0.8" stroke-opacity="0.5"/>
    
  </g>
  <g transform="translate(990,105)">
    <circle cx="10" cy="-50" r="3" fill="#E63946"><animate attributeName="opacity" values="0.2;1;0.2" dur="1.8s" repeatCount="indefinite"/></circle>
    <circle cx="-58" cy="-50" r="2" fill="#FCA5A5"><animate attributeName="opacity" values="0.8;0.2;0.8" dur="2.2s" repeatCount="indefinite"/></circle>
    <circle cx="78" cy="-50" r="2" fill="#FCA5A5"><animate attributeName="opacity" values="0.2;0.9;0.2" dur="2.4s" repeatCount="indefinite"/></circle>
  </g>
</g>
<g>
  <rect x="0" y="210" width="1200" height="210" fill="url(#bandBFB02A)"/>
  <rect x="0" y="210" width="1200" height="210" fill="url(#ledgerGrid)" opacity="0.6"/>
  <rect x="0" y="210" width="8" height="210" fill="#FFB703"/>
  <g filter="url(#textShadow)">
    <text x="30" y="254" font-family="Inter, Helvetica, Arial, sans-serif" font-size="18" font-weight="700" letter-spacing="2.4" fill="#FFB703">SK SHIELDUS</text>
    <text x="30" y="296" font-family="Inter, Helvetica, Arial, sans-serif" font-size="36" font-weight="800" fill="#F5F7FA">11-1 Quarterly Report</text>
    <text x="30" y="328" font-family="Inter, Helvetica, Arial, sans-serif" font-size="20" font-weight="600" fill="#FFD58A">Vertical AI + 3 RW groups</text>
    <text x="30" y="356" font-family="Inter, Helvetica, Arial, sans-serif" font-size="15" font-weight="500" fill="#E0D5B6">BlackField + Sinobi + Gentlemen RaaS : Zero Trust : JWT key leak findings</text>
  </g>
  <g transform="translate(640,315)">
    <circle r="80" fill="#FFB703" fill-opacity="0.08"><animate attributeName="r" values="60;90;60" dur="3.2s" repeatCount="indefinite"/><animate attributeName="opacity" values="0.5;1;0.5" dur="3.2s" repeatCount="indefinite"/></circle>
    <circle r="32" fill="#FFB703" stroke="#FCD34D" stroke-width="2" filter="url(#softShadow)"/>
    <text y="-2" text-anchor="middle" font-family="Inter, monospace" font-size="11" font-weight="800" fill="#FFF">EQST</text>
    <text y="12" text-anchor="middle" font-family="Inter, monospace" font-size="9" font-weight="700" fill="#FCD34D">C2 HUB</text>
    <g stroke="#FFB703" stroke-width="1.2" stroke-opacity="0.55" stroke-dasharray="3 4" fill="none">
      <line x1="0" y1="0" x2="80" y2="-50"/><line x1="0" y1="0" x2="95" y2="-10"/><line x1="0" y1="0" x2="85" y2="30"/>
      <line x1="0" y1="0" x2="60" y2="60"/><line x1="0" y1="0" x2="-60" y2="60"/><line x1="0" y1="0" x2="-85" y2="30"/>
      <line x1="0" y1="0" x2="-95" y2="-10"/><line x1="0" y1="0" x2="-80" y2="-50"/>
      <line x1="0" y1="0" x2="-30" y2="-72"/><line x1="0" y1="0" x2="30" y2="-72"/>
    </g>
    <g fill="#FCD34D">
      <circle cx="80" cy="-50" r="5"><animate attributeName="opacity" values="0.3;1;0.3" dur="2.1s" repeatCount="indefinite"/></circle>
      <circle cx="95" cy="-10" r="5"><animate attributeName="opacity" values="0.3;1;0.3" dur="1.9s" repeatCount="indefinite"/></circle>
      <circle cx="85" cy="30" r="5"><animate attributeName="opacity" values="0.3;1;0.3" dur="2.4s" repeatCount="indefinite"/></circle>
      <circle cx="60" cy="60" r="5"><animate attributeName="opacity" values="0.3;1;0.3" dur="2.0s" repeatCount="indefinite"/></circle>
      <circle cx="-60" cy="60" r="5"><animate attributeName="opacity" values="0.3;1;0.3" dur="2.3s" repeatCount="indefinite"/></circle>
      <circle cx="-85" cy="30" r="5"><animate attributeName="opacity" values="0.3;1;0.3" dur="2.5s" repeatCount="indefinite"/></circle>
      <circle cx="-95" cy="-10" r="5"><animate attributeName="opacity" values="0.3;1;0.3" dur="1.7s" repeatCount="indefinite"/></circle>
      <circle cx="-80" cy="-50" r="5"><animate attributeName="opacity" values="0.3;1;0.3" dur="2.6s" repeatCount="indefinite"/></circle>
      <circle cx="-30" cy="-72" r="5"><animate attributeName="opacity" values="0.3;1;0.3" dur="1.8s" repeatCount="indefinite"/></circle>
      <circle cx="30" cy="-72" r="5"><animate attributeName="opacity" values="0.3;1;0.3" dur="2.7s" repeatCount="indefinite"/></circle>
    </g>
    <g fill="#FFF">
      <circle r="2"><animateMotion path="M0 0 L80 -50" dur="1.9s" repeatCount="indefinite"/></circle>
      <circle r="2"><animateMotion path="M0 0 L95 -10" dur="2.0s" repeatCount="indefinite"/></circle>
      <circle r="2"><animateMotion path="M0 0 L85 30" dur="2.2s" repeatCount="indefinite"/></circle>
      <circle r="2"><animateMotion path="M0 0 L-60 60" dur="2.3s" repeatCount="indefinite"/></circle>
      <circle r="2"><animateMotion path="M0 0 L-95 -10" dur="2.4s" repeatCount="indefinite"/></circle>
      <circle r="2"><animateMotion path="M0 0 L30 -72" dur="2.1s" repeatCount="indefinite"/></circle>
    </g>
  </g>
  <g transform="translate(870,315)" filter="url(#softShadow)">
    <rect x="-50" y="-48" width="100" height="96" rx="10" fill="#1E1805" stroke="#FFB703" stroke-width="1.6" stroke-opacity="0.75"/>
    <text x="0" y="-26" text-anchor="middle" font-family="Inter, Helvetica, Arial, sans-serif" font-size="10" font-weight="700" letter-spacing="1.4" fill="#FFB703">LEAK</text>
    <text x="0" y="14" text-anchor="middle" font-family="Inter, Helvetica, Arial, sans-serif" font-size="34" font-weight="900" fill="#F5F7FA">JWT</text>
    <text x="0" y="34" text-anchor="middle" font-family="Inter, Helvetica, Arial, sans-serif" font-size="10" font-weight="600" fill="#FFD58A">signing key</text>
  </g>
  <g transform="translate(990,315)" filter="url(#softShadow)">
    <rect x="-80" y="-65" width="180" height="125" rx="14" fill="#1E1805" stroke="#FFB703" stroke-width="2.2"/>
    <text x="10" y="-38" text-anchor="middle" font-family="Inter, Helvetica, Arial, sans-serif" font-size="13" font-weight="700" letter-spacing="2" fill="#FFB703">RW GROUPS</text>
    <text x="10" y="22" text-anchor="middle" font-family="Inter, Helvetica, Arial, sans-serif" font-size="72" font-weight="900" fill="#F5F7FA">3</text>
    <text x="10" y="44" text-anchor="middle" font-family="Inter, Helvetica, Arial, sans-serif" font-size="11" font-weight="600" fill="#FFD58A">11-1 report</text>
    <line x1="-58" y1="50" x2="78" y2="50" stroke="#FFB703" stroke-width="0.8" stroke-opacity="0.5"/>
    
  </g>
  <g transform="translate(990,315)">
    <circle cx="10" cy="-50" r="3" fill="#FFB703"><animate attributeName="opacity" values="0.2;1;0.2" dur="1.8s" repeatCount="indefinite"/></circle>
    <circle cx="-58" cy="-50" r="2" fill="#FCD34D"><animate attributeName="opacity" values="0.8;0.2;0.8" dur="2.2s" repeatCount="indefinite"/></circle>
    <circle cx="78" cy="-50" r="2" fill="#FCD34D"><animate attributeName="opacity" values="0.2;0.9;0.2" dur="2.4s" repeatCount="indefinite"/></circle>
  </g>
</g>
<g>
  <rect x="0" y="420" width="1200" height="210" fill="url(#bandCFB02A)"/>
  <rect x="0" y="420" width="1200" height="210" fill="url(#ledgerGrid)" opacity="0.6"/>
  <rect x="0" y="420" width="8" height="210" fill="#4ADE80"/>
  <g filter="url(#textShadow)">
    <text x="30" y="464" font-family="Inter, Helvetica, Arial, sans-serif" font-size="18" font-weight="700" letter-spacing="2.4" fill="#4ADE80">HASHICORP</text>
    <text x="30" y="506" font-family="Inter, Helvetica, Arial, sans-serif" font-size="36" font-weight="800" fill="#F5F7FA">Boundary 0.21</text>
    <text x="30" y="538" font-family="Inter, Helvetica, Arial, sans-serif" font-size="20" font-weight="600" fill="#9FD3B0">Passwordless RDP</text>
    <text x="30" y="566" font-family="Inter, Helvetica, Arial, sans-serif" font-size="15" font-weight="500" fill="#BFC9D9">Just-in-Time credentials : OIDC broker : session recording : least privilege</text>
  </g>
  <g transform="translate(640,525)">
    <circle r="78" fill="#4ADE80" fill-opacity="0.05"><animate attributeName="r" values="68;84;68" dur="3.4s" repeatCount="indefinite"/></circle>
    <path d="M0 -60 L55 -40 L50 25 Q40 55 0 65 Q-40 55 -50 25 L-55 -40 Z" fill="#4ADE80" fill-opacity="0.15" stroke="#4ADE80" stroke-width="2.4" filter="url(#softShadow)"/>
    <path d="M0 -50 L45 -33 L40 22 Q32 46 0 55 Q-32 46 -40 22 L-45 -33 Z" fill="none" stroke="#86EFAC" stroke-width="1" opacity="0.7"/>
    <path d="M0 -40 L35 -26 L31 18 Q24 38 0 45 Q-24 38 -31 18 L-35 -26 Z" fill="none" stroke="#86EFAC" stroke-width="0.6" opacity="0.5"/>
    <g transform="translate(0,-5)" stroke="#86EFAC" stroke-width="3" fill="none">
      <path d="M-18 5 L-4 20 L22 -12"><animate attributeName="stroke-dasharray" values="0 80;80 0" dur="2.4s" repeatCount="indefinite"/></path>
    </g>
    <g fill="#86EFAC" opacity="0.7">
      <circle cx="-40" cy="-30" r="2"><animate attributeName="opacity" values="0.3;1;0.3" dur="1.8s" repeatCount="indefinite"/></circle>
      <circle cx="40" cy="-30" r="2"><animate attributeName="opacity" values="0.3;1;0.3" dur="2.0s" begin="0.3s" repeatCount="indefinite"/></circle>
      <circle cx="-30" cy="35" r="2"><animate attributeName="opacity" values="0.3;1;0.3" dur="2.2s" begin="0.6s" repeatCount="indefinite"/></circle>
      <circle cx="30" cy="35" r="2"><animate attributeName="opacity" values="0.3;1;0.3" dur="1.9s" begin="0.9s" repeatCount="indefinite"/></circle>
    </g>
    <text y="84" text-anchor="middle" font-family="Inter, monospace" font-size="10" font-weight="800" fill="#4ADE80">BOUND</text>
  </g>
  <g transform="translate(870,525)" filter="url(#softShadow)">
    <rect x="-50" y="-48" width="100" height="96" rx="10" fill="#0A1B2E" stroke="#4ADE80" stroke-width="1.6" stroke-opacity="0.75"/>
    <text x="0" y="-26" text-anchor="middle" font-family="Inter, Helvetica, Arial, sans-serif" font-size="10" font-weight="700" letter-spacing="1.4" fill="#4ADE80">CREDS</text>
    <text x="0" y="14" text-anchor="middle" font-family="Inter, Helvetica, Arial, sans-serif" font-size="34" font-weight="900" fill="#F5F7FA">JIT</text>
    <text x="0" y="34" text-anchor="middle" font-family="Inter, Helvetica, Arial, sans-serif" font-size="10" font-weight="600" fill="#9FD3B0">OIDC broker</text>
  </g>
  <g transform="translate(990,525)" filter="url(#softShadow)">
    <rect x="-80" y="-65" width="180" height="125" rx="14" fill="#0A1B2E" stroke="#4ADE80" stroke-width="2.2"/>
    <text x="10" y="-38" text-anchor="middle" font-family="Inter, Helvetica, Arial, sans-serif" font-size="13" font-weight="700" letter-spacing="2" fill="#4ADE80">BOUNDARY</text>
    <text x="10" y="22" text-anchor="middle" font-family="Inter, Helvetica, Arial, sans-serif" font-size="60" font-weight="900" fill="#F5F7FA">0.21</text>
    <text x="10" y="44" text-anchor="middle" font-family="Inter, Helvetica, Arial, sans-serif" font-size="11" font-weight="600" fill="#9FD3B0">passwordless</text>
    <line x1="-58" y1="50" x2="78" y2="50" stroke="#4ADE80" stroke-width="0.8" stroke-opacity="0.5"/>
    
  </g>
  <g transform="translate(990,525)">
    <circle cx="10" cy="-50" r="3" fill="#4ADE80"><animate attributeName="opacity" values="0.2;1;0.2" dur="1.8s" repeatCount="indefinite"/></circle>
    <circle cx="-58" cy="-50" r="2" fill="#86EFAC"><animate attributeName="opacity" values="0.8;0.2;0.8" dur="2.2s" repeatCount="indefinite"/></circle>
    <circle cx="78" cy="-50" r="2" fill="#86EFAC"><animate attributeName="opacity" values="0.2;0.9;0.2" dur="2.4s" repeatCount="indefinite"/></circle>
  </g>
</g>
<g opacity="0.9">
  <g fill="#E63946">
    <circle cx="240" cy="63" r="1.5"><animate attributeName="opacity" values="0;1;0" dur="1.8s" repeatCount="indefinite"/></circle>
    <circle cx="290" cy="63" r="1.5"><animate attributeName="opacity" values="0;1;0" dur="1.6s" begin="0.2s" repeatCount="indefinite"/></circle>
    <circle cx="340" cy="63" r="1.5"><animate attributeName="opacity" values="0;1;0" dur="2.0s" begin="0.4s" repeatCount="indefinite"/></circle>
    <circle cx="390" cy="63" r="1.5"><animate attributeName="opacity" values="0;1;0" dur="1.7s" begin="0.6s" repeatCount="indefinite"/></circle>
    <circle cx="440" cy="63" r="1.5"><animate attributeName="opacity" values="0;1;0" dur="1.9s" begin="0.8s" repeatCount="indefinite"/></circle>
    <circle cx="780" cy="55" r="1.4"><animate attributeName="opacity" values="0;1;0" dur="1.6s" repeatCount="indefinite"/></circle>
    <circle cx="820" cy="55" r="1.4"><animate attributeName="opacity" values="0;1;0" dur="2.0s" begin="0.3s" repeatCount="indefinite"/></circle>
    <circle cx="860" cy="55" r="1.4"><animate attributeName="opacity" values="0;1;0" dur="1.8s" begin="0.6s" repeatCount="indefinite"/></circle>
    <circle cx="240" cy="147" r="1.3"><animate attributeName="opacity" values="0;1;0" dur="1.7s" begin="0.4s" repeatCount="indefinite"/></circle>
    <circle cx="320" cy="147" r="1.3"><animate attributeName="opacity" values="0;1;0" dur="1.9s" begin="0.7s" repeatCount="indefinite"/></circle>
  </g>
  <g fill="#E63946" opacity="0.6">
    <rect x="780" y="27" width="6" height="2"><animate attributeName="opacity" values="0.2;1;0.2" dur="1.4s" repeatCount="indefinite"/></rect>
    <rect x="800" y="27" width="6" height="2"><animate attributeName="opacity" values="0.2;1;0.2" dur="1.2s" begin="0.3s" repeatCount="indefinite"/></rect>
    <rect x="820" y="27" width="6" height="2"><animate attributeName="opacity" values="0.2;1;0.2" dur="1.6s" begin="0.6s" repeatCount="indefinite"/></rect>
    <rect x="840" y="27" width="6" height="2"><animate attributeName="opacity" values="0.2;1;0.2" dur="1.3s" begin="0.9s" repeatCount="indefinite"/></rect>
  </g>
  <g fill="#FCA5A5" opacity="0.85">
    <rect x="730" y="165" width="3" height="3" rx="0.6"><animate attributeName="opacity" values="0.3;1;0.3" dur="1.4s" repeatCount="indefinite"/></rect>
    <rect x="746" y="165" width="3" height="3" rx="0.6"><animate attributeName="opacity" values="0.3;1;0.3" dur="1.2s" begin="0.3s" repeatCount="indefinite"/></rect>
    <rect x="762" y="165" width="3" height="3" rx="0.6"><animate attributeName="opacity" values="0.3;1;0.3" dur="1.6s" begin="0.6s" repeatCount="indefinite"/></rect>
  </g>
  <g stroke="#E63946" stroke-width="0.5" stroke-opacity="0.35" fill="none">
    <path d="M20 95 L28 95"><animate attributeName="stroke-opacity" values="0;0.7;0" dur="2s" repeatCount="indefinite"/></path>
    <path d="M20 125 L28 125"><animate attributeName="stroke-opacity" values="0;0.7;0" dur="2.2s" begin="0.3s" repeatCount="indefinite"/></path>
    <path d="M20 155 L28 155"><animate attributeName="stroke-opacity" values="0;0.7;0" dur="1.8s" begin="0.6s" repeatCount="indefinite"/></path>
  </g>
  <g stroke="#FCA5A5" stroke-width="0.6" stroke-opacity="0.3" fill="none">
    <circle cx="500" cy="105" r="100"><animate attributeName="r" values="80;120;80" dur="4s" repeatCount="indefinite"/><animate attributeName="stroke-opacity" values="0.4;0;0.4" dur="4s" repeatCount="indefinite"/></circle>
  </g>
  <g fill="#FFB703">
    <circle cx="240" cy="273" r="1.5"><animate attributeName="opacity" values="0;1;0" dur="1.8s" repeatCount="indefinite"/></circle>
    <circle cx="290" cy="273" r="1.5"><animate attributeName="opacity" values="0;1;0" dur="1.6s" begin="0.2s" repeatCount="indefinite"/></circle>
    <circle cx="340" cy="273" r="1.5"><animate attributeName="opacity" values="0;1;0" dur="2.0s" begin="0.4s" repeatCount="indefinite"/></circle>
    <circle cx="390" cy="273" r="1.5"><animate attributeName="opacity" values="0;1;0" dur="1.7s" begin="0.6s" repeatCount="indefinite"/></circle>
    <circle cx="440" cy="273" r="1.5"><animate attributeName="opacity" values="0;1;0" dur="1.9s" begin="0.8s" repeatCount="indefinite"/></circle>
    <circle cx="780" cy="265" r="1.4"><animate attributeName="opacity" values="0;1;0" dur="1.6s" repeatCount="indefinite"/></circle>
    <circle cx="820" cy="265" r="1.4"><animate attributeName="opacity" values="0;1;0" dur="2.0s" begin="0.3s" repeatCount="indefinite"/></circle>
    <circle cx="860" cy="265" r="1.4"><animate attributeName="opacity" values="0;1;0" dur="1.8s" begin="0.6s" repeatCount="indefinite"/></circle>
    <circle cx="240" cy="357" r="1.3"><animate attributeName="opacity" values="0;1;0" dur="1.7s" begin="0.4s" repeatCount="indefinite"/></circle>
    <circle cx="320" cy="357" r="1.3"><animate attributeName="opacity" values="0;1;0" dur="1.9s" begin="0.7s" repeatCount="indefinite"/></circle>
  </g>
  <g fill="#FFB703" opacity="0.6">
    <rect x="780" y="237" width="6" height="2"><animate attributeName="opacity" values="0.2;1;0.2" dur="1.4s" repeatCount="indefinite"/></rect>
    <rect x="800" y="237" width="6" height="2"><animate attributeName="opacity" values="0.2;1;0.2" dur="1.2s" begin="0.3s" repeatCount="indefinite"/></rect>
    <rect x="820" y="237" width="6" height="2"><animate attributeName="opacity" values="0.2;1;0.2" dur="1.6s" begin="0.6s" repeatCount="indefinite"/></rect>
    <rect x="840" y="237" width="6" height="2"><animate attributeName="opacity" values="0.2;1;0.2" dur="1.3s" begin="0.9s" repeatCount="indefinite"/></rect>
  </g>
  <g fill="#FCD34D" opacity="0.85">
    <rect x="730" y="375" width="3" height="3" rx="0.6"><animate attributeName="opacity" values="0.3;1;0.3" dur="1.4s" repeatCount="indefinite"/></rect>
    <rect x="746" y="375" width="3" height="3" rx="0.6"><animate attributeName="opacity" values="0.3;1;0.3" dur="1.2s" begin="0.3s" repeatCount="indefinite"/></rect>
    <rect x="762" y="375" width="3" height="3" rx="0.6"><animate attributeName="opacity" values="0.3;1;0.3" dur="1.6s" begin="0.6s" repeatCount="indefinite"/></rect>
  </g>
  <g stroke="#FFB703" stroke-width="0.5" stroke-opacity="0.35" fill="none">
    <path d="M20 305 L28 305"><animate attributeName="stroke-opacity" values="0;0.7;0" dur="2s" repeatCount="indefinite"/></path>
    <path d="M20 335 L28 335"><animate attributeName="stroke-opacity" values="0;0.7;0" dur="2.2s" begin="0.3s" repeatCount="indefinite"/></path>
    <path d="M20 365 L28 365"><animate attributeName="stroke-opacity" values="0;0.7;0" dur="1.8s" begin="0.6s" repeatCount="indefinite"/></path>
  </g>
  <g stroke="#FCD34D" stroke-width="0.6" stroke-opacity="0.3" fill="none">
    <circle cx="500" cy="315" r="100"><animate attributeName="r" values="80;120;80" dur="4s" repeatCount="indefinite"/><animate attributeName="stroke-opacity" values="0.4;0;0.4" dur="4s" repeatCount="indefinite"/></circle>
  </g>
  <g fill="#4ADE80">
    <circle cx="240" cy="483" r="1.5"><animate attributeName="opacity" values="0;1;0" dur="1.8s" repeatCount="indefinite"/></circle>
    <circle cx="290" cy="483" r="1.5"><animate attributeName="opacity" values="0;1;0" dur="1.6s" begin="0.2s" repeatCount="indefinite"/></circle>
    <circle cx="340" cy="483" r="1.5"><animate attributeName="opacity" values="0;1;0" dur="2.0s" begin="0.4s" repeatCount="indefinite"/></circle>
    <circle cx="390" cy="483" r="1.5"><animate attributeName="opacity" values="0;1;0" dur="1.7s" begin="0.6s" repeatCount="indefinite"/></circle>
    <circle cx="440" cy="483" r="1.5"><animate attributeName="opacity" values="0;1;0" dur="1.9s" begin="0.8s" repeatCount="indefinite"/></circle>
    <circle cx="780" cy="475" r="1.4"><animate attributeName="opacity" values="0;1;0" dur="1.6s" repeatCount="indefinite"/></circle>
    <circle cx="820" cy="475" r="1.4"><animate attributeName="opacity" values="0;1;0" dur="2.0s" begin="0.3s" repeatCount="indefinite"/></circle>
    <circle cx="860" cy="475" r="1.4"><animate attributeName="opacity" values="0;1;0" dur="1.8s" begin="0.6s" repeatCount="indefinite"/></circle>
    <circle cx="240" cy="567" r="1.3"><animate attributeName="opacity" values="0;1;0" dur="1.7s" begin="0.4s" repeatCount="indefinite"/></circle>
    <circle cx="320" cy="567" r="1.3"><animate attributeName="opacity" values="0;1;0" dur="1.9s" begin="0.7s" repeatCount="indefinite"/></circle>
  </g>
  <g fill="#4ADE80" opacity="0.6">
    <rect x="780" y="447" width="6" height="2"><animate attributeName="opacity" values="0.2;1;0.2" dur="1.4s" repeatCount="indefinite"/></rect>
    <rect x="800" y="447" width="6" height="2"><animate attributeName="opacity" values="0.2;1;0.2" dur="1.2s" begin="0.3s" repeatCount="indefinite"/></rect>
    <rect x="820" y="447" width="6" height="2"><animate attributeName="opacity" values="0.2;1;0.2" dur="1.6s" begin="0.6s" repeatCount="indefinite"/></rect>
    <rect x="840" y="447" width="6" height="2"><animate attributeName="opacity" values="0.2;1;0.2" dur="1.3s" begin="0.9s" repeatCount="indefinite"/></rect>
  </g>
  <g fill="#86EFAC" opacity="0.85">
    <rect x="730" y="585" width="3" height="3" rx="0.6"><animate attributeName="opacity" values="0.3;1;0.3" dur="1.4s" repeatCount="indefinite"/></rect>
    <rect x="746" y="585" width="3" height="3" rx="0.6"><animate attributeName="opacity" values="0.3;1;0.3" dur="1.2s" begin="0.3s" repeatCount="indefinite"/></rect>
    <rect x="762" y="585" width="3" height="3" rx="0.6"><animate attributeName="opacity" values="0.3;1;0.3" dur="1.6s" begin="0.6s" repeatCount="indefinite"/></rect>
  </g>
  <g stroke="#4ADE80" stroke-width="0.5" stroke-opacity="0.35" fill="none">
    <path d="M20 515 L28 515"><animate attributeName="stroke-opacity" values="0;0.7;0" dur="2s" repeatCount="indefinite"/></path>
    <path d="M20 545 L28 545"><animate attributeName="stroke-opacity" values="0;0.7;0" dur="2.2s" begin="0.3s" repeatCount="indefinite"/></path>
    <path d="M20 575 L28 575"><animate attributeName="stroke-opacity" values="0;0.7;0" dur="1.8s" begin="0.6s" repeatCount="indefinite"/></path>
  </g>
  <g stroke="#86EFAC" stroke-width="0.6" stroke-opacity="0.3" fill="none">
    <circle cx="500" cy="525" r="100"><animate attributeName="r" values="80;120;80" dur="4s" repeatCount="indefinite"/><animate attributeName="stroke-opacity" values="0.4;0;0.4" dur="4s" repeatCount="indefinite"/></circle>
  </g>
</g>
<g transform="translate(1080,504)" filter="url(#softShadow)">
  <rect x="-8" y="-8" width="100" height="100" rx="6" fill="#FFFFFF"/>
  <path fill="#0A1020" d="M0.0 0.0h14.341v2.049h-14.341z M18.439 0.0h4.098v2.049h-4.098z M24.585 0.0h2.049v2.049h-2.049z M32.78 0.0h2.049v2.049h-2.049z M36.878 0.0h6.146v2.049h-6.146z M47.122 0.0h2.049v2.049h-2.049z M59.415 0.0h8.195v2.049h-8.195z M69.659 0.0h14.341v2.049h-14.341z M0.0 2.049h2.049v2.049h-2.049z M12.293 2.049h2.049v2.049h-2.049z M24.585 2.049h4.098v2.049h-4.098z M30.732 2.049h2.049v2.049h-2.049z M36.878 2.049h2.049v2.049h-2.049z M40.976 2.049h2.049v2.049h-2.049z M45.073 2.049h2.049v2.049h-2.049z M55.317 2.049h2.049v2.049h-2.049z M59.415 2.049h2.049v2.049h-2.049z M69.659 2.049h2.049v2.049h-2.049z M81.951 2.049h2.049v2.049h-2.049z M0.0 4.098h2.049v2.049h-2.049z M4.098 4.098h6.146v2.049h-6.146z M12.293 4.098h2.049v2.049h-2.049z M16.39 4.098h4.098v2.049h-4.098z M22.537 4.098h4.098v2.049h-4.098z M40.976 4.098h2.049v2.049h-2.049z M53.268 4.098h10.244v2.049h-10.244z M65.561 4.098h2.049v2.049h-2.049z M69.659 4.098h2.049v2.049h-2.049z M73.756 4.098h6.146v2.049h-6.146z M81.951 4.098h2.049v2.049h-2.049z M0.0 6.146h2.049v2.049h-2.049z M4.098 6.146h6.146v2.049h-6.146z M12.293 6.146h2.049v2.049h-2.049z M16.39 6.146h2.049v2.049h-2.049z M20.488 6.146h2.049v2.049h-2.049z M30.732 6.146h2.049v2.049h-2.049z M36.878 6.146h2.049v2.049h-2.049z M40.976 6.146h6.146v2.049h-6.146z M55.317 6.146h4.098v2.049h-4.098z M65.561 6.146h2.049v2.049h-2.049z M69.659 6.146h2.049v2.049h-2.049z M73.756 6.146h6.146v2.049h-6.146z M81.951 6.146h2.049v2.049h-2.049z M0.0 8.195h2.049v2.049h-2.049z M4.098 8.195h6.146v2.049h-6.146z M12.293 8.195h2.049v2.049h-2.049z M16.39 8.195h4.098v2.049h-4.098z M28.683 8.195h4.098v2.049h-4.098z M34.829 8.195h2.049v2.049h-2.049z M38.927 8.195h6.146v2.049h-6.146z M53.268 8.195h2.049v2.049h-2.049z M61.463 8.195h4.098v2.049h-4.098z M69.659 8.195h2.049v2.049h-2.049z M73.756 8.195h6.146v2.049h-6.146z M81.951 8.195h2.049v2.049h-2.049z M0.0 10.244h2.049v2.049h-2.049z M12.293 10.244h2.049v2.049h-2.049z M16.39 10.244h4.098v2.049h-4.098z M22.537 10.244h4.098v2.049h-4.098z M28.683 10.244h4.098v2.049h-4.098z M34.829 10.244h2.049v2.049h-2.049z M51.22 10.244h2.049v2.049h-2.049z M55.317 10.244h2.049v2.049h-2.049z M69.659 10.244h2.049v2.049h-2.049z M81.951 10.244h2.049v2.049h-2.049z M0.0 12.293h14.341v2.049h-14.341z M16.39 12.293h2.049v2.049h-2.049z M20.488 12.293h2.049v2.049h-2.049z M24.585 12.293h2.049v2.049h-2.049z M28.683 12.293h2.049v2.049h-2.049z M32.78 12.293h2.049v2.049h-2.049z M36.878 12.293h2.049v2.049h-2.049z M40.976 12.293h2.049v2.049h-2.049z M45.073 12.293h2.049v2.049h-2.049z M49.171 12.293h2.049v2.049h-2.049z M53.268 12.293h2.049v2.049h-2.049z M57.366 12.293h2.049v2.049h-2.049z M61.463 12.293h2.049v2.049h-2.049z M65.561 12.293h2.049v2.049h-2.049z M69.659 12.293h14.341v2.049h-14.341z M16.39 14.341h2.049v2.049h-2.049z M24.585 14.341h10.244v2.049h-10.244z M36.878 14.341h2.049v2.049h-2.049z M40.976 14.341h4.098v2.049h-4.098z M47.122 14.341h2.049v2.049h-2.049z M55.317 14.341h2.049v2.049h-2.049z M61.463 14.341h4.098v2.049h-4.098z M0.0 16.39h2.049v2.049h-2.049z M4.098 16.39h10.244v2.049h-10.244z M20.488 16.39h4.098v2.049h-4.098z M26.634 16.39h2.049v2.049h-2.049z M30.732 16.39h6.146v2.049h-6.146z M38.927 16.39h2.049v2.049h-2.049z M45.073 16.39h4.098v2.049h-4.098z M51.22 16.39h10.244v2.049h-10.244z M65.561 16.39h2.049v2.049h-2.049z M69.659 16.39h10.244v2.049h-10.244z M0.0 18.439h2.049v2.049h-2.049z M6.146 18.439h2.049v2.049h-2.049z M14.341 18.439h2.049v2.049h-2.049z M20.488 18.439h2.049v2.049h-2.049z M24.585 18.439h2.049v2.049h-2.049z M28.683 18.439h2.049v2.049h-2.049z M32.78 18.439h8.195v2.049h-8.195z M43.024 18.439h2.049v2.049h-2.049z M47.122 18.439h2.049v2.049h-2.049z M53.268 18.439h2.049v2.049h-2.049z M61.463 18.439h6.146v2.049h-6.146z M69.659 18.439h6.146v2.049h-6.146z M77.854 18.439h4.098v2.049h-4.098z M0.0 20.488h4.098v2.049h-4.098z M6.146 20.488h4.098v2.049h-4.098z M12.293 20.488h2.049v2.049h-2.049z M18.439 20.488h8.195v2.049h-8.195z M30.732 20.488h2.049v2.049h-2.049z M36.878 20.488h2.049v2.049h-2.049z M45.073 20.488h2.049v2.049h-2.049z M49.171 20.488h4.098v2.049h-4.098z M55.317 20.488h2.049v2.049h-2.049z M61.463 20.488h2.049v2.049h-2.049z M65.561 20.488h2.049v2.049h-2.049z M71.707 20.488h4.098v2.049h-4.098z M2.049 22.537h2.049v2.049h-2.049z M8.195 22.537h2.049v2.049h-2.049z M14.341 22.537h2.049v2.049h-2.049z M18.439 22.537h2.049v2.049h-2.049z M24.585 22.537h2.049v2.049h-2.049z M30.732 22.537h2.049v2.049h-2.049z M38.927 22.537h8.195v2.049h-8.195z M57.366 22.537h2.049v2.049h-2.049z M61.463 22.537h6.146v2.049h-6.146z M75.805 22.537h2.049v2.049h-2.049z M0.0 24.585h2.049v2.049h-2.049z M4.098 24.585h4.098v2.049h-4.098z M12.293 24.585h4.098v2.049h-4.098z M20.488 24.585h4.098v2.049h-4.098z M26.634 24.585h2.049v2.049h-2.049z M34.829 24.585h6.146v2.049h-6.146z M45.073 24.585h2.049v2.049h-2.049z M51.22 24.585h2.049v2.049h-2.049z M59.415 24.585h6.146v2.049h-6.146z M71.707 24.585h2.049v2.049h-2.049z M75.805 24.585h4.098v2.049h-4.098z M81.951 24.585h2.049v2.049h-2.049z M4.098 26.634h4.098v2.049h-4.098z M14.341 26.634h2.049v2.049h-2.049z M20.488 26.634h2.049v2.049h-2.049z M24.585 26.634h8.195v2.049h-8.195z M34.829 26.634h4.098v2.049h-4.098z M40.976 26.634h2.049v2.049h-2.049z M49.171 26.634h4.098v2.049h-4.098z M55.317 26.634h6.146v2.049h-6.146z M69.659 26.634h14.341v2.049h-14.341z M0.0 28.683h2.049v2.049h-2.049z M8.195 28.683h2.049v2.049h-2.049z M12.293 28.683h6.146v2.049h-6.146z M20.488 28.683h2.049v2.049h-2.049z M24.585 28.683h2.049v2.049h-2.049z M30.732 28.683h2.049v2.049h-2.049z M34.829 28.683h2.049v2.049h-2.049z M38.927 28.683h2.049v2.049h-2.049z M43.024 28.683h4.098v2.049h-4.098z M53.268 28.683h2.049v2.049h-2.049z M61.463 28.683h2.049v2.049h-2.049z M65.561 28.683h4.098v2.049h-4.098z M71.707 28.683h2.049v2.049h-2.049z M75.805 28.683h4.098v2.049h-4.098z M2.049 30.732h4.098v2.049h-4.098z M8.195 30.732h2.049v2.049h-2.049z M14.341 30.732h4.098v2.049h-4.098z M20.488 30.732h2.049v2.049h-2.049z M28.683 30.732h6.146v2.049h-6.146z M36.878 30.732h8.195v2.049h-8.195z M49.171 30.732h2.049v2.049h-2.049z M53.268 30.732h2.049v2.049h-2.049z M57.366 30.732h2.049v2.049h-2.049z M61.463 30.732h6.146v2.049h-6.146z M69.659 30.732h2.049v2.049h-2.049z M73.756 30.732h4.098v2.049h-4.098z M0.0 32.78h2.049v2.049h-2.049z M4.098 32.78h4.098v2.049h-4.098z M12.293 32.78h6.146v2.049h-6.146z M24.585 32.78h2.049v2.049h-2.049z M28.683 32.78h8.195v2.049h-8.195z M38.927 32.78h2.049v2.049h-2.049z M45.073 32.78h2.049v2.049h-2.049z M49.171 32.78h2.049v2.049h-2.049z M53.268 32.78h2.049v2.049h-2.049z M57.366 32.78h4.098v2.049h-4.098z M63.512 32.78h6.146v2.049h-6.146z M71.707 32.78h2.049v2.049h-2.049z M75.805 32.78h4.098v2.049h-4.098z M0.0 34.829h4.098v2.049h-4.098z M6.146 34.829h4.098v2.049h-4.098z M14.341 34.829h2.049v2.049h-2.049z M18.439 34.829h4.098v2.049h-4.098z M24.585 34.829h2.049v2.049h-2.049z M28.683 34.829h4.098v2.049h-4.098z M34.829 34.829h10.244v2.049h-10.244z M47.122 34.829h2.049v2.049h-2.049z M51.22 34.829h2.049v2.049h-2.049z M57.366 34.829h2.049v2.049h-2.049z M65.561 34.829h2.049v2.049h-2.049z M69.659 34.829h6.146v2.049h-6.146z M79.902 34.829h4.098v2.049h-4.098z M0.0 36.878h2.049v2.049h-2.049z M6.146 36.878h2.049v2.049h-2.049z M12.293 36.878h4.098v2.049h-4.098z M18.439 36.878h2.049v2.049h-2.049z M24.585 36.878h4.098v2.049h-4.098z M30.732 36.878h2.049v2.049h-2.049z M34.829 36.878h2.049v2.049h-2.049z M40.976 36.878h4.098v2.049h-4.098z M49.171 36.878h10.244v2.049h-10.244z M61.463 36.878h2.049v2.049h-2.049z M65.561 36.878h2.049v2.049h-2.049z M73.756 36.878h8.195v2.049h-8.195z M2.049 38.927h10.244v2.049h-10.244z M14.341 38.927h2.049v2.049h-2.049z M20.488 38.927h4.098v2.049h-4.098z M26.634 38.927h2.049v2.049h-2.049z M30.732 38.927h2.049v2.049h-2.049z M34.829 38.927h12.293v2.049h-12.293z M51.22 38.927h2.049v2.049h-2.049z M55.317 38.927h2.049v2.049h-2.049z M65.561 38.927h4.098v2.049h-4.098z M73.756 38.927h4.098v2.049h-4.098z M0.0 40.976h2.049v2.049h-2.049z M4.098 40.976h2.049v2.049h-2.049z M10.244 40.976h4.098v2.049h-4.098z M18.439 40.976h2.049v2.049h-2.049z M22.537 40.976h2.049v2.049h-2.049z M28.683 40.976h2.049v2.049h-2.049z M32.78 40.976h2.049v2.049h-2.049z M43.024 40.976h2.049v2.049h-2.049z M49.171 40.976h2.049v2.049h-2.049z M53.268 40.976h6.146v2.049h-6.146z M61.463 40.976h6.146v2.049h-6.146z M75.805 40.976h4.098v2.049h-4.098z M81.951 40.976h2.049v2.049h-2.049z M4.098 43.024h2.049v2.049h-2.049z M8.195 43.024h2.049v2.049h-2.049z M16.39 43.024h4.098v2.049h-4.098z M24.585 43.024h2.049v2.049h-2.049z M30.732 43.024h2.049v2.049h-2.049z M36.878 43.024h14.341v2.049h-14.341z M63.512 43.024h2.049v2.049h-2.049z M69.659 43.024h8.195v2.049h-8.195z M79.902 43.024h4.098v2.049h-4.098z M0.0 45.073h2.049v2.049h-2.049z M8.195 45.073h6.146v2.049h-6.146z M16.39 45.073h2.049v2.049h-2.049z M22.537 45.073h2.049v2.049h-2.049z M26.634 45.073h2.049v2.049h-2.049z M32.78 45.073h6.146v2.049h-6.146z M40.976 45.073h4.098v2.049h-4.098z M49.171 45.073h2.049v2.049h-2.049z M53.268 45.073h6.146v2.049h-6.146z M65.561 45.073h2.049v2.049h-2.049z M71.707 45.073h2.049v2.049h-2.049z M0.0 47.122h2.049v2.049h-2.049z M10.244 47.122h2.049v2.049h-2.049z M20.488 47.122h2.049v2.049h-2.049z M24.585 47.122h6.146v2.049h-6.146z M32.78 47.122h2.049v2.049h-2.049z M38.927 47.122h2.049v2.049h-2.049z M43.024 47.122h8.195v2.049h-8.195z M57.366 47.122h2.049v2.049h-2.049z M63.512 47.122h6.146v2.049h-6.146z M71.707 47.122h6.146v2.049h-6.146z M79.902 47.122h2.049v2.049h-2.049z M8.195 49.171h12.293v2.049h-12.293z M26.634 49.171h4.098v2.049h-4.098z M32.78 49.171h4.098v2.049h-4.098z M38.927 49.171h2.049v2.049h-2.049z M45.073 49.171h2.049v2.049h-2.049z M49.171 49.171h6.146v2.049h-6.146z M59.415 49.171h2.049v2.049h-2.049z M63.512 49.171h2.049v2.049h-2.049z M77.854 49.171h6.146v2.049h-6.146z M0.0 51.22h2.049v2.049h-2.049z M4.098 51.22h4.098v2.049h-4.098z M14.341 51.22h4.098v2.049h-4.098z M20.488 51.22h6.146v2.049h-6.146z M28.683 51.22h4.098v2.049h-4.098z M34.829 51.22h10.244v2.049h-10.244z M47.122 51.22h2.049v2.049h-2.049z M51.22 51.22h4.098v2.049h-4.098z M61.463 51.22h4.098v2.049h-4.098z M69.659 51.22h8.195v2.049h-8.195z M79.902 51.22h4.098v2.049h-4.098z M0.0 53.268h4.098v2.049h-4.098z M6.146 53.268h4.098v2.049h-4.098z M12.293 53.268h4.098v2.049h-4.098z M18.439 53.268h4.098v2.049h-4.098z M40.976 53.268h6.146v2.049h-6.146z M51.22 53.268h6.146v2.049h-6.146z M59.415 53.268h4.098v2.049h-4.098z M65.561 53.268h4.098v2.049h-4.098z M79.902 53.268h2.049v2.049h-2.049z M2.049 55.317h2.049v2.049h-2.049z M6.146 55.317h6.146v2.049h-6.146z M16.39 55.317h2.049v2.049h-2.049z M20.488 55.317h4.098v2.049h-4.098z M26.634 55.317h2.049v2.049h-2.049z M30.732 55.317h2.049v2.049h-2.049z M38.927 55.317h10.244v2.049h-10.244z M53.268 55.317h4.098v2.049h-4.098z M61.463 55.317h6.146v2.049h-6.146z M69.659 55.317h2.049v2.049h-2.049z M73.756 55.317h4.098v2.049h-4.098z M0.0 57.366h4.098v2.049h-4.098z M8.195 57.366h2.049v2.049h-2.049z M12.293 57.366h8.195v2.049h-8.195z M22.537 57.366h10.244v2.049h-10.244z M38.927 57.366h4.098v2.049h-4.098z M45.073 57.366h8.195v2.049h-8.195z M57.366 57.366h8.195v2.049h-8.195z M71.707 57.366h2.049v2.049h-2.049z M75.805 57.366h4.098v2.049h-4.098z M0.0 59.415h6.146v2.049h-6.146z M8.195 59.415h2.049v2.049h-2.049z M20.488 59.415h4.098v2.049h-4.098z M28.683 59.415h6.146v2.049h-6.146z M51.22 59.415h6.146v2.049h-6.146z M63.512 59.415h2.049v2.049h-2.049z M69.659 59.415h6.146v2.049h-6.146z M79.902 59.415h4.098v2.049h-4.098z M0.0 61.463h2.049v2.049h-2.049z M6.146 61.463h4.098v2.049h-4.098z M12.293 61.463h2.049v2.049h-2.049z M16.39 61.463h2.049v2.049h-2.049z M22.537 61.463h6.146v2.049h-6.146z M34.829 61.463h4.098v2.049h-4.098z M40.976 61.463h10.244v2.049h-10.244z M55.317 61.463h8.195v2.049h-8.195z M67.61 61.463h6.146v2.049h-6.146z M0.0 63.512h2.049v2.049h-2.049z M4.098 63.512h4.098v2.049h-4.098z M10.244 63.512h2.049v2.049h-2.049z M18.439 63.512h4.098v2.049h-4.098z M24.585 63.512h4.098v2.049h-4.098z M32.78 63.512h2.049v2.049h-2.049z M43.024 63.512h2.049v2.049h-2.049z M47.122 63.512h2.049v2.049h-2.049z M53.268 63.512h4.098v2.049h-4.098z M61.463 63.512h2.049v2.049h-2.049z M65.561 63.512h8.195v2.049h-8.195z M75.805 63.512h2.049v2.049h-2.049z M81.951 63.512h2.049v2.049h-2.049z M0.0 65.561h2.049v2.049h-2.049z M6.146 65.561h4.098v2.049h-4.098z M12.293 65.561h6.146v2.049h-6.146z M22.537 65.561h6.146v2.049h-6.146z M32.78 65.561h4.098v2.049h-4.098z M45.073 65.561h4.098v2.049h-4.098z M51.22 65.561h6.146v2.049h-6.146z M59.415 65.561h2.049v2.049h-2.049z M65.561 65.561h10.244v2.049h-10.244z M77.854 65.561h4.098v2.049h-4.098z M16.39 67.61h2.049v2.049h-2.049z M28.683 67.61h4.098v2.049h-4.098z M36.878 67.61h6.146v2.049h-6.146z M47.122 67.61h2.049v2.049h-2.049z M57.366 67.61h6.146v2.049h-6.146z M65.561 67.61h2.049v2.049h-2.049z M73.756 67.61h4.098v2.049h-4.098z M79.902 67.61h4.098v2.049h-4.098z M0.0 69.659h14.341v2.049h-14.341z M18.439 69.659h2.049v2.049h-2.049z M22.537 69.659h2.049v2.049h-2.049z M30.732 69.659h4.098v2.049h-4.098z M36.878 69.659h2.049v2.049h-2.049z M40.976 69.659h2.049v2.049h-2.049z M45.073 69.659h2.049v2.049h-2.049z M49.171 69.659h2.049v2.049h-2.049z M55.317 69.659h6.146v2.049h-6.146z M63.512 69.659h4.098v2.049h-4.098z M69.659 69.659h2.049v2.049h-2.049z M73.756 69.659h4.098v2.049h-4.098z M0.0 71.707h2.049v2.049h-2.049z M12.293 71.707h2.049v2.049h-2.049z M16.39 71.707h6.146v2.049h-6.146z M26.634 71.707h6.146v2.049h-6.146z M47.122 71.707h2.049v2.049h-2.049z M53.268 71.707h10.244v2.049h-10.244z M65.561 71.707h2.049v2.049h-2.049z M73.756 71.707h4.098v2.049h-4.098z M81.951 71.707h2.049v2.049h-2.049z M0.0 73.756h2.049v2.049h-2.049z M4.098 73.756h6.146v2.049h-6.146z M12.293 73.756h2.049v2.049h-2.049z M16.39 73.756h2.049v2.049h-2.049z M20.488 73.756h6.146v2.049h-6.146z M28.683 73.756h4.098v2.049h-4.098z M36.878 73.756h4.098v2.049h-4.098z M43.024 73.756h6.146v2.049h-6.146z M55.317 73.756h2.049v2.049h-2.049z M65.561 73.756h14.341v2.049h-14.341z M81.951 73.756h2.049v2.049h-2.049z M0.0 75.805h2.049v2.049h-2.049z M4.098 75.805h6.146v2.049h-6.146z M12.293 75.805h2.049v2.049h-2.049z M16.39 75.805h2.049v2.049h-2.049z M22.537 75.805h4.098v2.049h-4.098z M28.683 75.805h4.098v2.049h-4.098z M38.927 75.805h6.146v2.049h-6.146z M47.122 75.805h4.098v2.049h-4.098z M53.268 75.805h2.049v2.049h-2.049z M61.463 75.805h4.098v2.049h-4.098z M67.61 75.805h2.049v2.049h-2.049z M71.707 75.805h2.049v2.049h-2.049z M77.854 75.805h2.049v2.049h-2.049z M0.0 77.854h2.049v2.049h-2.049z M4.098 77.854h6.146v2.049h-6.146z M12.293 77.854h2.049v2.049h-2.049z M16.39 77.854h4.098v2.049h-4.098z M24.585 77.854h8.195v2.049h-8.195z M34.829 77.854h2.049v2.049h-2.049z M40.976 77.854h2.049v2.049h-2.049z M45.073 77.854h2.049v2.049h-2.049z M49.171 77.854h8.195v2.049h-8.195z M59.415 77.854h4.098v2.049h-4.098z M65.561 77.854h12.293v2.049h-12.293z M0.0 79.902h2.049v2.049h-2.049z M12.293 79.902h2.049v2.049h-2.049z M18.439 79.902h2.049v2.049h-2.049z M26.634 79.902h2.049v2.049h-2.049z M30.732 79.902h2.049v2.049h-2.049z M40.976 79.902h6.146v2.049h-6.146z M49.171 79.902h2.049v2.049h-2.049z M53.268 79.902h2.049v2.049h-2.049z M57.366 79.902h2.049v2.049h-2.049z M65.561 79.902h4.098v2.049h-4.098z M73.756 79.902h4.098v2.049h-4.098z M79.902 79.902h2.049v2.049h-2.049z M0.0 81.951h14.341v2.049h-14.341z M16.39 81.951h10.244v2.049h-10.244z M28.683 81.951h2.049v2.049h-2.049z M34.829 81.951h4.098v2.049h-4.098z M45.073 81.951h2.049v2.049h-2.049z M49.171 81.951h8.195v2.049h-8.195z M59.415 81.951h2.049v2.049h-2.049z M69.659 81.951h6.146v2.049h-6.146z M77.854 81.951h2.049v2.049h-2.049z"/>
</g>
<text x="1122" y="614" font-family="Inter, Helvetica, Arial, sans-serif" font-size="10" font-weight="700" fill="#F5F7FA" text-anchor="middle">scan / full post</text>
</svg>