<?xml version="1.0" encoding="UTF-8"?>
<svg xmlns="http://www.w3.org/2000/svg" viewBox="0 0 1200 630" width="1200" height="630">
  <title>EC2 G7e GPU Architecture</title>
  <defs>
    <linearGradient id="bg" x1="0%" y1="0%" x2="100%" y2="100%">
      <stop offset="0%" style="stop-color:#0d1b2a" />
      <stop offset="100%" style="stop-color:#1a3050" />
    </linearGradient>
    <linearGradient id="accent" x1="0%" y1="0%" x2="100%" y2="0%">
      <stop offset="0%" style="stop-color:#06b6d4" />
      <stop offset="100%" style="stop-color:#f59e0b" />
    </linearGradient>
  </defs>
  <rect width="1200" height="630" fill="url(#bg)" />
  <line x1="0" y1="105" x2="1200" y2="105" stroke="rgba(255,255,255,0.04)" stroke-width="1" />
  <line x1="0" y1="210" x2="1200" y2="210" stroke="rgba(255,255,255,0.04)" stroke-width="1" />
  <line x1="0" y1="315" x2="1200" y2="315" stroke="rgba(255,255,255,0.04)" stroke-width="1" />
  <line x1="0" y1="420" x2="1200" y2="420" stroke="rgba(255,255,255,0.04)" stroke-width="1" />
  <line x1="240" y1="0" x2="240" y2="630" stroke="rgba(255,255,255,0.03)" stroke-width="1" />
  <line x1="480" y1="0" x2="480" y2="630" stroke="rgba(255,255,255,0.03)" stroke-width="1" />
  <line x1="720" y1="0" x2="720" y2="630" stroke="rgba(255,255,255,0.03)" stroke-width="1" />
  <line x1="960" y1="0" x2="960" y2="630" stroke="rgba(255,255,255,0.03)" stroke-width="1" />
  <circle cx="1050" cy="450" r="200" fill="rgba(255,153,0,0.05)" />
  <circle cx="1050" cy="450" r="140" fill="rgba(118,185,0,0.07)" />
  
  <rect x="820" y="185" width="300" height="240" rx="10" fill="rgba(255,153,0,0.06)" stroke="#ff9900" stroke-width="2.5" opacity="0.75" />
  
  <rect x="840" y="205" width="42" height="42" rx="3" fill="rgba(255,153,0,0.2)" stroke="rgba(255,153,0,0.5)" stroke-width="1.5" />
  <rect x="892" y="205" width="42" height="42" rx="3" fill="rgba(255,153,0,0.2)" stroke="rgba(255,153,0,0.5)" stroke-width="1.5" />
  <rect x="944" y="205" width="42" height="42" rx="3" fill="rgba(118,185,0,0.2)" stroke="rgba(118,185,0,0.5)" stroke-width="1.5" />
  <rect x="996" y="205" width="42" height="42" rx="3" fill="rgba(118,185,0,0.2)" stroke="rgba(118,185,0,0.5)" stroke-width="1.5" />
  <rect x="1048" y="205" width="42" height="42" rx="3" fill="rgba(255,153,0,0.2)" stroke="rgba(255,153,0,0.5)" stroke-width="1.5" />
  <rect x="840" y="257" width="42" height="42" rx="3" fill="rgba(118,185,0,0.2)" stroke="rgba(118,185,0,0.5)" stroke-width="1.5" />
  <rect x="892" y="257" width="42" height="42" rx="3" fill="rgba(255,153,0,0.2)" stroke="rgba(255,153,0,0.5)" stroke-width="1.5" />
  <rect x="944" y="257" width="42" height="42" rx="3" fill="rgba(255,153,0,0.2)" stroke="rgba(255,153,0,0.5)" stroke-width="1.5" />
  <rect x="996" y="257" width="42" height="42" rx="3" fill="rgba(118,185,0,0.2)" stroke="rgba(118,185,0,0.5)" stroke-width="1.5" />
  <rect x="1048" y="257" width="42" height="42" rx="3" fill="rgba(118,185,0,0.2)" stroke="rgba(118,185,0,0.5)" stroke-width="1.5" />
  <rect x="840" y="309" width="42" height="42" rx="3" fill="rgba(255,153,0,0.15)" stroke="rgba(255,153,0,0.4)" stroke-width="1.5" />
  <rect x="892" y="309" width="42" height="42" rx="3" fill="rgba(118,185,0,0.15)" stroke="rgba(118,185,0,0.4)" stroke-width="1.5" />
  <rect x="944" y="309" width="42" height="42" rx="3" fill="rgba(255,153,0,0.15)" stroke="rgba(255,153,0,0.4)" stroke-width="1.5" />
  <rect x="996" y="309" width="42" height="42" rx="3" fill="rgba(118,185,0,0.15)" stroke="rgba(118,185,0,0.4)" stroke-width="1.5" />
  <rect x="1048" y="309" width="42" height="42" rx="3" fill="rgba(255,153,0,0.15)" stroke="rgba(255,153,0,0.4)" stroke-width="1.5" />
  
  <rect x="840" y="365" width="250" height="28" rx="4" fill="rgba(255,255,255,0.06)" stroke="rgba(255,255,255,0.3)" stroke-width="1.5" />
  <text x="970" y="435" font-family="Arial,sans-serif" font-size="16" font-weight="700" fill="#ff9900" text-anchor="middle" opacity="0.8">G7e GPU Chip</text>
  <rect x="0" y="0" width="6" height="630" fill="url(#accent)" />
  <rect x="80" y="44" width="240" height="34" rx="17" fill="rgba(255,153,0,0.15)" stroke="rgba(255,153,0,0.4)" stroke-width="1" />
  <text x="200" y="66" font-family="Arial,sans-serif" font-size="13" fill="#ff9900" text-anchor="middle" letter-spacing="2">JANUARY 22, 2026</text>
  <text x="80" y="185" font-family="Arial,sans-serif" font-size="46" font-weight="700" fill="#ffffff">EC2 G7e GPU</text>
  <text x="80" y="245" font-family="Arial,sans-serif" font-size="46" font-weight="700" fill="#ffffff">Instance Architecture</text>
  <text x="80" y="300" font-family="Arial,sans-serif" font-size="20" fill="rgba(255,255,255,0.7)">NVIDIA GH200 Grace Hopper Superchip on AWS EC2</text>
  <rect x="80" y="320" width="120" height="3" rx="2" fill="url(#accent)" />
  <text x="80" y="370" font-family="Arial,sans-serif" font-size="15" fill="rgba(255,153,0,0.8)" letter-spacing="3">AWS ARCHITECTURE</text>
  <rect x="80" y="400" width="80" height="28" rx="14" fill="rgba(255,153,0,0.15)" stroke="rgba(255,153,0,0.4)" stroke-width="1" />
  <rect x="172" y="400" width="55" height="28" rx="14" fill="rgba(118,185,0,0.15)" stroke="rgba(118,185,0,0.4)" stroke-width="1" />
  <text x="199" y="419" font-family="Arial,sans-serif" font-size="13" fill="#76b900" text-anchor="middle">GPU</text>
  <rect x="239" y="400" width="110" height="28" rx="14" fill="rgba(255,255,255,0.08)" stroke="rgba(255,255,255,0.2)" stroke-width="1" />
  <text x="294" y="419" font-family="Arial,sans-serif" font-size="13" fill="rgba(255,255,255,0.7)" text-anchor="middle">Architecture</text>
  <rect x="0" y="590" width="1200" height="40" fill="rgba(0,0,0,0.3)" />
  <text x="80" y="615" font-family="Arial,sans-serif" font-size="13" fill="rgba(255,255,255,0.5)">tech.2twodragon.com</text>
  <text x="1120" y="615" font-family="Arial,sans-serif" font-size="13" fill="rgba(255,255,255,0.5)" text-anchor="end">DevSecOps</text>
</svg>