<svg xmlns="http://www.w3.org/2000/svg" viewBox="0 0 1200 630" width="1200" height="630" role="img" aria-label="Weekly digest cover 2026.03.15: GlassWorm Open VSX, AI Agent Prompt Injection, DNS Exfil Campaigns">
<!-- profile: high-quality-cover (L20 Hero+2-Card) -->
<title>Weekly digest 2026-03-15: GlassWorm Open VSX 72 extensions, prompt injection, DNS exfil</title>
<defs><linearGradient id="bgSpread" x1="0%" y1="0%" x2="100%" y2="100%"><stop offset="0%" stop-color="#0B1326"/><stop offset="55%" stop-color="#0D1530"/><stop offset="100%" stop-color="#141034"/></linearGradient><linearGradient id="heroPanel" x1="0%" y1="0%" x2="0%" y2="100%"><stop offset="0%" stop-color="#1A0A08"/><stop offset="100%" stop-color="#110608"/></linearGradient><linearGradient id="heroPanelBlue" x1="0%" y1="0%" x2="0%" y2="100%"><stop offset="0%" stop-color="#0A1A30"/><stop offset="100%" stop-color="#071426"/></linearGradient><linearGradient id="heroPanelAmber" x1="0%" y1="0%" x2="0%" y2="100%"><stop offset="0%" stop-color="#1A1208"/><stop offset="100%" stop-color="#120E06"/></linearGradient><linearGradient id="heroPanelGreen" x1="0%" y1="0%" x2="0%" y2="100%"><stop offset="0%" stop-color="#08160E"/><stop offset="100%" stop-color="#04100A"/></linearGradient><linearGradient id="heroPanelPurple" x1="0%" y1="0%" x2="0%" y2="100%"><stop offset="0%" stop-color="#110629"/><stop offset="100%" stop-color="#0A0418"/></linearGradient><radialGradient id="hotRed" cx="50%" cy="50%" r="50%"><stop offset="0%" stop-color="#E63946" stop-opacity="0.6"/><stop offset="100%" stop-color="#E63946" stop-opacity="0"/></radialGradient><radialGradient id="hotBlue" cx="50%" cy="50%" r="50%"><stop offset="0%" stop-color="#3A86FF" stop-opacity="0.5"/><stop offset="100%" stop-color="#3A86FF" stop-opacity="0"/></radialGradient><radialGradient id="hotAmber" cx="50%" cy="50%" r="50%"><stop offset="0%" stop-color="#FFB703" stop-opacity="0.45"/><stop offset="100%" stop-color="#FFB703" stop-opacity="0"/></radialGradient><radialGradient id="hotGreen" cx="50%" cy="50%" r="50%"><stop offset="0%" stop-color="#4ADE80" stop-opacity="0.45"/><stop offset="100%" stop-color="#4ADE80" stop-opacity="0"/></radialGradient><radialGradient id="hotPurple" cx="50%" cy="50%" r="50%"><stop offset="0%" stop-color="#A78BFA" stop-opacity="0.45"/><stop offset="100%" stop-color="#A78BFA" stop-opacity="0"/></radialGradient><pattern id="envGrid" x="0" y="0" width="40" height="40" patternUnits="userSpaceOnUse"><circle cx="20" cy="20" r="0.8" fill="#2A3256" opacity="0.55"/></pattern><filter id="softShadow" x="-10%" y="-10%" width="130%" height="130%"><feGaussianBlur in="SourceAlpha" stdDeviation="3"/><feOffset dx="2" dy="4"/><feComponentTransfer><feFuncA type="linear" slope="0.55"/></feComponentTransfer><feMerge><feMergeNode/><feMergeNode in="SourceGraphic"/></feMerge></filter><filter id="textShadow" x="-10%" y="-10%" width="130%" height="130%"><feGaussianBlur in="SourceAlpha" stdDeviation="1.2"/><feOffset dx="1" dy="1.5"/><feComponentTransfer><feFuncA type="linear" slope="0.7"/></feComponentTransfer><feMerge><feMergeNode/><feMergeNode in="SourceGraphic"/></feMerge></filter></defs>
<rect width="1200" height="630" fill="url(#bgSpread)"/>
<rect width="1200" height="630" fill="url(#envGrid)"/>
<circle cx="310" cy="310" r="160" fill="url(#hotRed)"><animate attributeName="opacity" values="0.6;1;0.6" dur="5.8s" repeatCount="indefinite"/></circle><circle cx="950" cy="210" r="120" fill="url(#hotBlue)"><animate attributeName="opacity" values="0.45;0.85;0.45" dur="6.4s" repeatCount="indefinite"/></circle><circle cx="970" cy="480" r="110" fill="url(#hotAmber)"><animate attributeName="opacity" values="0.4;0.75;0.4" dur="7.1s" repeatCount="indefinite"/></circle><g fill="#8FB8FF"><circle cx="180" cy="70" r="1.2"><animate attributeName="opacity" values="0.2;1;0.2" dur="3.4s" repeatCount="indefinite"/></circle><circle cx="440" cy="62" r="1"><animate attributeName="opacity" values="0.2;0.9;0.2" dur="4.2s" repeatCount="indefinite"/></circle><circle cx="740" cy="68" r="1.3"><animate attributeName="opacity" values="0.25;1;0.25" dur="3.9s" repeatCount="indefinite"/></circle><circle cx="1060" cy="74" r="0.9"><animate attributeName="opacity" values="0.2;0.85;0.2" dur="5.1s" repeatCount="indefinite"/></circle><circle cx="90" cy="580" r="1"><animate attributeName="opacity" values="0.15;0.8;0.15" dur="4.7s" repeatCount="indefinite"/></circle><circle cx="550" cy="590" r="0.8"><animate attributeName="opacity" values="0.2;0.75;0.2" dur="3.6s" begin="0.5s" repeatCount="indefinite"/></circle></g>
<g fill="#7DA3D9" opacity="0.85"><circle cx="252" cy="58" r="0.8"><animate attributeName="opacity" values="0.15;0.7;0.15" dur="4.3s" repeatCount="indefinite"/></circle><circle cx="368" cy="74" r="0.9"><animate attributeName="opacity" values="0.2;0.85;0.2" dur="3.8s" begin="0.4s" repeatCount="indefinite"/></circle><circle cx="624" cy="60" r="1.1"><animate attributeName="opacity" values="0.25;0.95;0.25" dur="4.5s" repeatCount="indefinite"/></circle><circle cx="858" cy="68" r="0.9"><animate attributeName="opacity" values="0.2;0.8;0.2" dur="3.6s" begin="0.6s" repeatCount="indefinite"/></circle><circle cx="996" cy="62" r="1.0"><animate attributeName="opacity" values="0.2;0.9;0.2" dur="4.0s" begin="0.2s" repeatCount="indefinite"/></circle><circle cx="1138" cy="76" r="0.8"><animate attributeName="opacity" values="0.15;0.7;0.15" dur="5.2s" begin="0.5s" repeatCount="indefinite"/></circle><circle cx="218" cy="596" r="0.9"><animate attributeName="opacity" values="0.18;0.75;0.18" dur="4.6s" begin="0.3s" repeatCount="indefinite"/></circle><circle cx="380" cy="608" r="1.0"><animate attributeName="opacity" values="0.2;0.85;0.2" dur="3.9s" begin="0.7s" repeatCount="indefinite"/></circle><circle cx="704" cy="600" r="0.8"><animate attributeName="opacity" values="0.18;0.7;0.18" dur="4.2s" begin="0.4s" repeatCount="indefinite"/></circle><circle cx="892" cy="608" r="1.1"><animate attributeName="opacity" values="0.22;0.9;0.22" dur="4.7s" begin="0.6s" repeatCount="indefinite"/></circle><circle cx="1078" cy="600" r="0.9"><animate attributeName="opacity" values="0.2;0.85;0.2" dur="3.6s" begin="0.8s" repeatCount="indefinite"/></circle></g>
<rect x="0" y="0" width="1200" height="56" fill="#050813" opacity="0.92"/>
<text x="36" y="36" font-family="Inter, Helvetica, Arial, sans-serif" font-size="18" font-weight="700" fill="#8FB8FF" letter-spacing="2.5">WEEKLY DIGEST</text>
<text x="1164" y="36" font-family="Inter, Helvetica, Arial, sans-serif" font-size="15" font-weight="600" fill="#7DA3D9" letter-spacing="1.5" text-anchor="end">2026.03.15</text>
<rect x="0" y="54" width="1200" height="2" fill="#E63946" opacity="0.85"><animate attributeName="opacity" values="0.4;1;0.4" dur="4.8s" repeatCount="indefinite"/></rect>
<rect x="32" y="80" width="600" height="510" rx="14" ry="14" fill="url(#heroPanel)" stroke="#E63946" stroke-width="1.8" opacity="0.98"/>
<circle cx="160" cy="300" r="240" fill="url(#hotRed)" opacity="0.28"/>
<rect x="32" y="80" width="600" height="4" fill="#E63946" opacity="0.85"><animate attributeName="opacity" values="0.5;1;0.5" dur="3.4s" repeatCount="indefinite"/></rect>
<g filter="url(#textShadow)">
<text x="54" y="112" font-family="Inter, Helvetica, Arial, sans-serif" font-size="13" font-weight="700" fill="#F87171" letter-spacing="3">OPEN VSX  /  01</text>
<text x="54" y="146" font-family="Inter, Helvetica, Arial, sans-serif" font-size="31" font-weight="800" fill="#F8FAFC">GlassWorm Open VSX</text>
<text x="54" y="174" font-family="Inter, Helvetica, Arial, sans-serif" font-size="17" font-weight="500" fill="#FBB6BD">GlassWorm campaign backdoors 72 Open VSX extensions hitting</text>
</g>
<g transform="translate(332,360)" opacity="0.32"><circle r="180" fill="none" stroke="#E63946" stroke-width="0.6" stroke-dasharray="2 4"/><circle r="140" fill="none" stroke="#E63946" stroke-width="0.6" stroke-dasharray="2 4" opacity="0.7"/><circle r="100" fill="none" stroke="#E63946" stroke-width="0.6" stroke-dasharray="2 4" opacity="0.5"/><g><path d="M0 0 L180 0 A180 180 0 0 1 127 127 Z" fill="#E63946" opacity="0.10"/><animateTransform attributeName="transform" type="rotate" from="0" to="360" dur="14s" repeatCount="indefinite"/></g></g>
<g stroke="#E63946" stroke-width="1.4" fill="none" opacity="0.7"><path d="M36 96 L36 84 L48 84"/><path d="M616 84 L628 84 L628 96"/><path d="M36 574 L36 586 L48 586"/><path d="M616 586 L628 586 L628 574"/></g>
<g><rect x="54" y="526" width="280" height="1" fill="#E63946" opacity="0.35"/><rect x="54" y="528" width="1" height="4" fill="#E63946" opacity="0.55"/><rect x="68" y="528" width="1" height="2" fill="#E63946" opacity="0.55"/><rect x="82" y="528" width="1" height="2" fill="#E63946" opacity="0.55"/><rect x="96" y="528" width="1" height="4" fill="#E63946" opacity="0.55"/><rect x="110" y="528" width="1" height="2" fill="#E63946" opacity="0.55"/><rect x="124" y="528" width="1" height="2" fill="#E63946" opacity="0.55"/><rect x="138" y="528" width="1" height="4" fill="#E63946" opacity="0.55"/><rect x="152" y="528" width="1" height="2" fill="#E63946" opacity="0.55"/><rect x="166" y="528" width="1" height="2" fill="#E63946" opacity="0.55"/><rect x="180" y="528" width="1" height="4" fill="#E63946" opacity="0.55"/><rect x="194" y="528" width="1" height="2" fill="#E63946" opacity="0.55"/><rect x="208" y="528" width="1" height="2" fill="#E63946" opacity="0.55"/><rect x="222" y="528" width="1" height="4" fill="#E63946" opacity="0.55"/><rect x="236" y="528" width="1" height="2" fill="#E63946" opacity="0.55"/><rect x="250" y="528" width="1" height="2" fill="#E63946" opacity="0.55"/><rect x="264" y="528" width="1" height="4" fill="#E63946" opacity="0.55"/><rect x="278" y="528" width="1" height="2" fill="#E63946" opacity="0.55"/><rect x="292" y="528" width="1" height="2" fill="#E63946" opacity="0.55"/><rect x="306" y="528" width="1" height="4" fill="#E63946" opacity="0.55"/><rect x="320" y="528" width="1" height="2" fill="#E63946" opacity="0.55"/><rect x="284" y="527" width="50" height="6" fill="#E63946" opacity="0.45"><animate attributeName="x" values="54;284;54" dur="6.4s" repeatCount="indefinite"/><animate attributeName="opacity" values="0.2;0.7;0.2" dur="6.4s" repeatCount="indefinite"/></rect></g>
<g transform="translate(332,360)" font-family="Inter, monospace" font-weight="800"><g transform="translate(-200,-30)"><rect x="0" y="0" width="80" height="60" rx="6" fill="#0A1628" stroke="#3A86FF" stroke-width="1.4"/><text x="40" y="22" text-anchor="middle" font-size="10" fill="#8FB8FF">SOURCE</text><text x="40" y="40" text-anchor="middle" font-size="8" font-weight="600" fill="#BFC9D9">git repo</text><text x="40" y="52" text-anchor="middle" font-size="8" font-weight="600" fill="#BFC9D9">commits</text></g><g transform="translate(-100,-30)"><rect x="0" y="0" width="80" height="60" rx="6" fill="#1E1805" stroke="#E63946" stroke-width="2"><animate attributeName="stroke-opacity" values="0.6;1;0.6" dur="1.8s" repeatCount="indefinite"/></rect><text x="40" y="22" text-anchor="middle" font-size="10" fill="#F87171">CI / BUILD</text><text x="40" y="40" text-anchor="middle" font-size="8" font-weight="600" fill="#E63946">poisoned step</text><circle cx="68" cy="12" r="5" fill="#E63946"><animate attributeName="opacity" values="0.4;1;0.4" dur="1.2s" repeatCount="indefinite"/></circle></g><g transform="translate(0,-30)"><rect x="0" y="0" width="80" height="60" rx="6" fill="#0A1B2E" stroke="#2CCCE4" stroke-width="1.4"/><text x="40" y="22" text-anchor="middle" font-size="10" fill="#2CCCE4">REGISTRY</text><text x="40" y="40" text-anchor="middle" font-size="8" font-weight="600" fill="#7ED4E5">images</text><text x="40" y="52" text-anchor="middle" font-size="8" font-weight="600" fill="#7ED4E5">artifacts</text></g><g transform="translate(100,-30)"><rect x="0" y="0" width="80" height="60" rx="6" fill="#062012" stroke="#4ADE80" stroke-width="1.4"/><text x="40" y="22" text-anchor="middle" font-size="10" fill="#4ADE80">DEPLOY</text><text x="40" y="40" text-anchor="middle" font-size="8" font-weight="600" fill="#86EFAC">prod cluster</text><text x="40" y="52" text-anchor="middle" font-size="8" font-weight="600" fill="#86EFAC">tainted</text></g><g stroke="#E63946" stroke-width="2" fill="none" stroke-linecap="round"><path d="M-120 0 L-100 0" stroke-dasharray="3 2"><animate attributeName="stroke-dashoffset" values="0;-10" dur="1s" repeatCount="indefinite"/></path><path d="M-20 0 L0 0" stroke-dasharray="3 2"><animate attributeName="stroke-dashoffset" values="0;-10" dur="1s" repeatCount="indefinite"/></path><path d="M80 0 L100 0" stroke-dasharray="3 2"><animate attributeName="stroke-dashoffset" values="0;-10" dur="1s" repeatCount="indefinite"/></path></g><g fill="#F87171"><circle r="2.4"><animateMotion path="M-120 0 L100 0" dur="3.6s" repeatCount="indefinite"/></circle><circle r="2" opacity="0.7"><animateMotion path="M-120 0 L100 0" dur="3.6s" begin="1.2s" repeatCount="indefinite"/></circle></g><text x="0" y="56" text-anchor="middle" font-family="Inter, Helvetica, Arial, sans-serif" font-size="10" font-weight="700" fill="#E63946" letter-spacing="2">SUPPLY-CHAIN POISON</text></g>
<g transform="translate(54,548)">
<rect x="0" y="0" width="280" height="24" rx="3" fill="#E63946" opacity="0.95"/>
<text x="140" y="17" text-anchor="middle" font-family="Inter, Helvetica, Arial, sans-serif" font-size="12" font-weight="700" fill="#FFFFFF">UNINSTALL FLAGGED EXT + ROTATE PAT</text>
</g>
<text x="350" y="566" font-family="Inter, Helvetica, Arial, sans-serif" font-size="13" font-weight="600" fill="#A5B4C4" font-style="italic">Weekly Digest  /  2026.03.15</text>
<rect x="652" y="80" width="516" height="248" rx="14" ry="14" fill="url(#heroPanelAmber)" stroke="#FFB703" stroke-width="1.6" opacity="0.97"/>
<rect x="652" y="80" width="516" height="4" fill="#FFB703" opacity="0.85"><animate attributeName="opacity" values="0.5;1;0.5" dur="4.2s" repeatCount="indefinite"/></rect>
<g filter="url(#textShadow)">
<text x="670" y="110" font-family="Inter, Helvetica, Arial, sans-serif" font-size="12" font-weight="700" fill="#FFB703" letter-spacing="3">PROMPT INJECT  /  02</text>
<text x="670" y="140" font-family="Inter, Helvetica, Arial, sans-serif" font-size="24" font-weight="800" fill="#F5F7FA">AI Agent Prompt Injection</text>
<text x="670" y="163" font-family="Inter, Helvetica, Arial, sans-serif" font-size="14" font-weight="500" fill="#FFD58A">AI agent vulnerabilities surface new prompt</text>
</g>
<g stroke="#FFB703" stroke-width="1.4" fill="none" opacity="0.7"><path d="M656 93 L656 84 L665 84"/><path d="M1155 84 L1164 84 L1164 93"/><path d="M656 315 L656 324 L665 324"/><path d="M1155 324 L1164 324 L1164 315"/></g>
<g transform="translate(800,230)"><circle cx="-110" cy="0" r="30" fill="#1A1208" stroke="#FFB703" stroke-width="1.8" filter="url(#softShadow)"><animate attributeName="opacity" values="0.85;1;0.85" dur="3s" repeatCount="indefinite"/></circle><text x="-110" y="-4" text-anchor="middle" font-family="Inter, monospace" font-size="11" font-weight="900" fill="#FFD58A">AI</text><text x="-110" y="10" text-anchor="middle" font-family="Inter, monospace" font-size="8" font-weight="700" fill="#FFB703">AGENT</text><circle cx="-110" cy="0" r="38" fill="none" stroke="#FFB703" stroke-width="1"><animate attributeName="r" values="32;46;32" dur="2.2s" repeatCount="indefinite"/><animate attributeName="opacity" values="0.8;0;0.8" dur="2.2s" repeatCount="indefinite"/></circle><g transform="translate(-50,-32)" font-family="Inter, monospace" font-size="8" font-weight="700"><rect x="0" y="0" width="68" height="20" rx="3" fill="#1A1208" stroke="#FFB703" stroke-width="1"/><text x="34" y="14" text-anchor="middle" fill="#FFD58A">DARK APP</text><rect x="0" y="26" width="68" height="20" rx="3" fill="#1A1208" stroke="#FFB703" stroke-width="1" opacity="0.85"/><text x="34" y="40" text-anchor="middle" fill="#FFD58A">SHADOW ID</text><rect x="0" y="52" width="68" height="20" rx="3" fill="#1A1208" stroke="#FFB703" stroke-width="1" opacity="0.7"/><text x="34" y="66" text-anchor="middle" fill="#FFD58A">UNMANAGED</text><line x1="-50" y1="0" x2="0" y2="10" stroke="#FFB703" stroke-width="0.8" stroke-dasharray="2 2" opacity="0.6"/><line x1="-50" y1="0" x2="0" y2="36" stroke="#FFB703" stroke-width="0.8" stroke-dasharray="2 2" opacity="0.5"/><line x1="-50" y1="0" x2="0" y2="62" stroke="#FFB703" stroke-width="0.8" stroke-dasharray="2 2" opacity="0.4"/></g><g transform="translate(60,-40)" filter="url(#softShadow)"><rect x="0" y="0" width="140" height="90" rx="6" fill="#0A0C16" stroke="#E63946" stroke-width="1.4"/><text x="70" y="18" text-anchor="middle" font-family="Inter, monospace" font-size="9" font-weight="800" fill="#F87171">EXPOSED FLEET</text><text x="70" y="32" text-anchor="middle" font-family="Inter, monospace" font-size="8" font-weight="600" fill="#FCA5A5">scaled abuse surface</text><g transform="translate(8,42)" fill="#FFB703"><rect x="0" y="0" width="14" height="10" rx="2"/><rect x="18" y="0" width="14" height="10" rx="2" opacity="0.85"/><rect x="36" y="0" width="14" height="10" rx="2" opacity="0.7"/><rect x="54" y="0" width="14" height="10" rx="2" opacity="0.55"/><rect x="72" y="0" width="14" height="10" rx="2" opacity="0.4"><animate attributeName="opacity" values="0.2;0.6;0.2" dur="1.4s" repeatCount="indefinite"/></rect><rect x="90" y="0" width="14" height="10" rx="2" opacity="0.25"><animate attributeName="opacity" values="0.1;0.5;0.1" dur="1.8s" begin="0.3s" repeatCount="indefinite"/></rect><rect x="108" y="0" width="14" height="10" rx="2" opacity="0.2"><animate attributeName="opacity" values="0.1;0.4;0.1" dur="2s" begin="0.5s" repeatCount="indefinite"/></rect></g><text x="70" y="74" text-anchor="middle" font-family="Inter, monospace" font-size="8" font-weight="700" fill="#FFB703">automated abuse vector</text></g></g>
<g transform="translate(1094,168)" filter="url(#softShadow)"><rect x="-68" y="-55" width="140" height="110" rx="10" fill="#1A1208" stroke="#FFB703" stroke-width="2"/><text x="2" y="-28" text-anchor="middle" font-family="Inter, Helvetica, Arial, sans-serif" font-size="10" font-weight="700" letter-spacing="2" fill="#FFB703">AGENT</text><text x="2" y="18" text-anchor="middle" font-family="Inter, Helvetica, Arial, sans-serif" font-size="28" font-weight="900" fill="#F5F7FA">PI</text><text x="2" y="40" text-anchor="middle" font-family="Inter, Helvetica, Arial, sans-serif" font-size="10" font-weight="600" fill="#FFD58A">exec</text></g>
<rect x="652" y="344" width="516" height="246" rx="14" ry="14" fill="url(#heroPanelBlue)" stroke="#3A86FF" stroke-width="1.6" opacity="0.97"/>
<rect x="652" y="344" width="516" height="4" fill="#3A86FF" opacity="0.85"><animate attributeName="opacity" values="0.5;1;0.5" dur="4.8s" repeatCount="indefinite"/></rect>
<g filter="url(#textShadow)">
<text x="670" y="374" font-family="Inter, Helvetica, Arial, sans-serif" font-size="12" font-weight="700" fill="#7DA3D9" letter-spacing="3">DNS EXFIL  /  03</text>
<text x="670" y="404" font-family="Inter, Helvetica, Arial, sans-serif" font-size="24" font-weight="800" fill="#F5F7FA">DNS Exfil Campaigns</text>
<text x="670" y="428" font-family="Inter, Helvetica, Arial, sans-serif" font-size="14" font-weight="500" fill="#BFC9D9">DNS-based data exfiltration tooling adopted across</text>
</g>
<g stroke="#3A86FF" stroke-width="1.4" fill="none" opacity="0.7"><path d="M656 357 L656 348 L665 348"/><path d="M1155 348 L1164 348 L1164 357"/><path d="M656 577 L656 586 L665 586"/><path d="M1155 586 L1164 586 L1164 577"/></g>
<g transform="translate(800,490)"><g transform="translate(-160,-50)" filter="url(#softShadow)"><ellipse cx="40" cy="6" rx="40" ry="8" fill="#0A1B2E" stroke="#2CCCE4" stroke-width="1.6"/><rect x="0" y="6" width="80" height="56" fill="#0A1B2E" stroke="#2CCCE4" stroke-width="1.6"/><ellipse cx="40" cy="62" rx="40" ry="8" fill="#0A1B2E" stroke="#2CCCE4" stroke-width="1.6"/><ellipse cx="40" cy="22" rx="40" ry="6" fill="none" stroke="#2CCCE4" stroke-width="0.8" opacity="0.6"/><ellipse cx="40" cy="40" rx="40" ry="6" fill="none" stroke="#2CCCE4" stroke-width="0.8" opacity="0.6"/><text x="40" y="84" text-anchor="middle" font-family="Inter, monospace" font-size="10" font-weight="800" fill="#2CCCE4">DB / S3</text><text x="40" y="98" text-anchor="middle" font-family="Inter, monospace" font-size="8" font-weight="600" fill="#7ED4E5">PII  /  secrets</text></g><g transform="translate(80,-50)" filter="url(#softShadow)"><rect x="0" y="0" width="80" height="80" rx="8" fill="#1E0A0A" stroke="#3A86FF" stroke-width="2"/><text x="40" y="22" text-anchor="middle" font-family="Inter, monospace" font-size="10" font-weight="900" fill="#60A5FA">ATTACKER</text><g transform="translate(20,32)" stroke="#60A5FA" stroke-width="1.6" fill="none"><circle cx="20" cy="10" r="8"/><path d="M6 32 Q20 22 34 32"/></g><text x="40" y="74" text-anchor="middle" font-family="Inter, monospace" font-size="8" font-weight="700" fill="#FCA5A5">offshore relay</text></g><g stroke="#3A86FF" stroke-width="1.4" stroke-dasharray="4 3" fill="none"><path d="M-80 -10 L80 -10"><animate attributeName="stroke-dashoffset" values="0;-14" dur="1.2s" repeatCount="indefinite"/></path><path d="M-80 0 L80 0"><animate attributeName="stroke-dashoffset" values="0;-14" dur="1.4s" begin="0.2s" repeatCount="indefinite"/></path><path d="M-80 10 L80 10"><animate attributeName="stroke-dashoffset" values="0;-14" dur="1s" begin="0.4s" repeatCount="indefinite"/></path></g><g fill="#60A5FA"><circle r="2.4"><animateMotion path="M-80 -10 L80 -10" dur="2s" repeatCount="indefinite"/></circle><circle r="2.4"><animateMotion path="M-80 0 L80 0" dur="2.2s" begin="0.4s" repeatCount="indefinite"/></circle><circle r="2.4"><animateMotion path="M-80 10 L80 10" dur="2.4s" begin="0.8s" repeatCount="indefinite"/></circle></g><text x="0" y="40" text-anchor="middle" font-family="Inter, Helvetica, Arial, sans-serif" font-size="10" font-weight="700" fill="#3A86FF" letter-spacing="2">DATA EXFILTRATION</text></g>
<g transform="translate(1094,452)" filter="url(#softShadow)"><rect x="-68" y="-55" width="140" height="110" rx="10" fill="#071426" stroke="#3A86FF" stroke-width="2"/><text x="2" y="-28" text-anchor="middle" font-family="Inter, Helvetica, Arial, sans-serif" font-size="10" font-weight="700" letter-spacing="2" fill="#7DA3D9">EXF</text><text x="2" y="18" text-anchor="middle" font-family="Inter, Helvetica, Arial, sans-serif" font-size="28" font-weight="900" fill="#F5F7FA">DNS</text><text x="2" y="40" text-anchor="middle" font-family="Inter, Helvetica, Arial, sans-serif" font-size="10" font-weight="600" fill="#BFC9D9">cloud</text></g>
<g opacity="0.85"><g fill="#F87171"><circle cx="1104" cy="110" r="1.4"><animate attributeName="opacity" values="0.2;1;0.2" dur="1.8s" repeatCount="indefinite"/></circle><circle cx="1124" cy="110" r="1.4"><animate attributeName="opacity" values="0.2;1;0.2" dur="1.4s" begin="0.3s" repeatCount="indefinite"/></circle></g><g fill="#7DA3D9"><circle cx="1104" cy="218" r="1.2"><animate attributeName="opacity" values="0.2;1;0.2" dur="2s" repeatCount="indefinite"/></circle><circle cx="1124" cy="218" r="1.2"><animate attributeName="opacity" values="0.2;1;0.2" dur="1.6s" begin="0.4s" repeatCount="indefinite"/></circle></g><g fill="#FFD58A"><circle cx="1104" cy="374" r="1.4"><animate attributeName="opacity" values="0.2;1;0.2" dur="1.8s" repeatCount="indefinite"/></circle><circle cx="1124" cy="374" r="1.4"><animate attributeName="opacity" values="0.2;1;0.2" dur="1.6s" begin="0.3s" repeatCount="indefinite"/></circle></g><g stroke="#E63946" stroke-width="0.5" fill="none"><path d="M20 230 L28 230"><animate attributeName="stroke-opacity" values="0;0.7;0" dur="2s" repeatCount="indefinite"/></path><path d="M20 300 L28 300"><animate attributeName="stroke-opacity" values="0;0.7;0" dur="2.3s" begin="0.3s" repeatCount="indefinite"/></path><path d="M20 370 L28 370"><animate attributeName="stroke-opacity" values="0;0.7;0" dur="1.9s" begin="0.6s" repeatCount="indefinite"/></path><path d="M20 440 L28 440"><animate attributeName="stroke-opacity" values="0;0.7;0" dur="2.1s" begin="0.9s" repeatCount="indefinite"/></path></g></g>
<g transform="translate(1080,504)" filter="url(#softShadow)">
  <rect x="-8" y="-8" width="100" height="100" rx="6" fill="#FFFFFF"/>
  <path fill="#0A1020" d="M0.0 0.0h14.341v2.049h-14.341z M20.488 0.0h8.195v2.049h-8.195z M30.732 0.0h4.098v2.049h-4.098z M36.878 0.0h2.049v2.049h-2.049z M43.024 0.0h2.049v2.049h-2.049z M53.268 0.0h4.098v2.049h-4.098z M59.415 0.0h6.146v2.049h-6.146z M69.659 0.0h14.341v2.049h-14.341z M0.0 2.049h2.049v2.049h-2.049z M12.293 2.049h2.049v2.049h-2.049z M24.585 2.049h8.195v2.049h-8.195z M34.829 2.049h2.049v2.049h-2.049z M40.976 2.049h2.049v2.049h-2.049z M47.122 2.049h2.049v2.049h-2.049z M55.317 2.049h4.098v2.049h-4.098z M61.463 2.049h2.049v2.049h-2.049z M65.561 2.049h2.049v2.049h-2.049z M69.659 2.049h2.049v2.049h-2.049z M81.951 2.049h2.049v2.049h-2.049z M0.0 4.098h2.049v2.049h-2.049z M4.098 4.098h6.146v2.049h-6.146z M12.293 4.098h2.049v2.049h-2.049z M20.488 4.098h4.098v2.049h-4.098z M28.683 4.098h4.098v2.049h-4.098z M34.829 4.098h2.049v2.049h-2.049z M38.927 4.098h10.244v2.049h-10.244z M53.268 4.098h2.049v2.049h-2.049z M61.463 4.098h2.049v2.049h-2.049z M65.561 4.098h2.049v2.049h-2.049z M69.659 4.098h2.049v2.049h-2.049z M73.756 4.098h6.146v2.049h-6.146z M81.951 4.098h2.049v2.049h-2.049z M0.0 6.146h2.049v2.049h-2.049z M4.098 6.146h6.146v2.049h-6.146z M12.293 6.146h2.049v2.049h-2.049z M18.439 6.146h8.195v2.049h-8.195z M28.683 6.146h2.049v2.049h-2.049z M34.829 6.146h2.049v2.049h-2.049z M40.976 6.146h12.293v2.049h-12.293z M55.317 6.146h12.293v2.049h-12.293z M69.659 6.146h2.049v2.049h-2.049z M73.756 6.146h6.146v2.049h-6.146z M81.951 6.146h2.049v2.049h-2.049z M0.0 8.195h2.049v2.049h-2.049z M4.098 8.195h6.146v2.049h-6.146z M12.293 8.195h2.049v2.049h-2.049z M20.488 8.195h2.049v2.049h-2.049z M24.585 8.195h4.098v2.049h-4.098z M32.78 8.195h4.098v2.049h-4.098z M38.927 8.195h2.049v2.049h-2.049z M51.22 8.195h2.049v2.049h-2.049z M55.317 8.195h2.049v2.049h-2.049z M61.463 8.195h2.049v2.049h-2.049z M65.561 8.195h2.049v2.049h-2.049z M69.659 8.195h2.049v2.049h-2.049z M73.756 8.195h6.146v2.049h-6.146z M81.951 8.195h2.049v2.049h-2.049z M0.0 10.244h2.049v2.049h-2.049z M12.293 10.244h2.049v2.049h-2.049z M16.39 10.244h4.098v2.049h-4.098z M22.537 10.244h6.146v2.049h-6.146z M32.78 10.244h8.195v2.049h-8.195z M49.171 10.244h2.049v2.049h-2.049z M53.268 10.244h4.098v2.049h-4.098z M61.463 10.244h6.146v2.049h-6.146z M69.659 10.244h2.049v2.049h-2.049z M81.951 10.244h2.049v2.049h-2.049z M0.0 12.293h14.341v2.049h-14.341z M16.39 12.293h2.049v2.049h-2.049z M20.488 12.293h2.049v2.049h-2.049z M24.585 12.293h2.049v2.049h-2.049z M28.683 12.293h2.049v2.049h-2.049z M32.78 12.293h2.049v2.049h-2.049z M36.878 12.293h2.049v2.049h-2.049z M40.976 12.293h2.049v2.049h-2.049z M45.073 12.293h2.049v2.049h-2.049z M49.171 12.293h2.049v2.049h-2.049z M53.268 12.293h2.049v2.049h-2.049z M57.366 12.293h2.049v2.049h-2.049z M61.463 12.293h2.049v2.049h-2.049z M65.561 12.293h2.049v2.049h-2.049z M69.659 12.293h14.341v2.049h-14.341z M20.488 14.341h10.244v2.049h-10.244z M34.829 14.341h2.049v2.049h-2.049z M38.927 14.341h8.195v2.049h-8.195z M49.171 14.341h2.049v2.049h-2.049z M55.317 14.341h6.146v2.049h-6.146z M63.512 14.341h2.049v2.049h-2.049z M0.0 16.39h2.049v2.049h-2.049z M6.146 16.39h2.049v2.049h-2.049z M10.244 16.39h4.098v2.049h-4.098z M16.39 16.39h4.098v2.049h-4.098z M26.634 16.39h2.049v2.049h-2.049z M30.732 16.39h2.049v2.049h-2.049z M38.927 16.39h2.049v2.049h-2.049z M43.024 16.39h2.049v2.049h-2.049z M51.22 16.39h4.098v2.049h-4.098z M65.561 16.39h4.098v2.049h-4.098z M71.707 16.39h2.049v2.049h-2.049z M0.0 18.439h2.049v2.049h-2.049z M4.098 18.439h4.098v2.049h-4.098z M14.341 18.439h2.049v2.049h-2.049z M18.439 18.439h6.146v2.049h-6.146z M28.683 18.439h2.049v2.049h-2.049z M32.78 18.439h4.098v2.049h-4.098z M43.024 18.439h2.049v2.049h-2.049z M49.171 18.439h6.146v2.049h-6.146z M59.415 18.439h2.049v2.049h-2.049z M65.561 18.439h2.049v2.049h-2.049z M75.805 18.439h8.195v2.049h-8.195z M2.049 20.488h4.098v2.049h-4.098z M8.195 20.488h6.146v2.049h-6.146z M16.39 20.488h12.293v2.049h-12.293z M34.829 20.488h8.195v2.049h-8.195z M45.073 20.488h2.049v2.049h-2.049z M49.171 20.488h2.049v2.049h-2.049z M53.268 20.488h2.049v2.049h-2.049z M61.463 20.488h4.098v2.049h-4.098z M67.61 20.488h14.341v2.049h-14.341z M2.049 22.537h4.098v2.049h-4.098z M10.244 22.537h2.049v2.049h-2.049z M20.488 22.537h2.049v2.049h-2.049z M26.634 22.537h6.146v2.049h-6.146z M36.878 22.537h2.049v2.049h-2.049z M43.024 22.537h2.049v2.049h-2.049z M49.171 22.537h4.098v2.049h-4.098z M57.366 22.537h2.049v2.049h-2.049z M69.659 22.537h2.049v2.049h-2.049z M73.756 22.537h2.049v2.049h-2.049z M77.854 22.537h6.146v2.049h-6.146z M4.098 24.585h2.049v2.049h-2.049z M8.195 24.585h2.049v2.049h-2.049z M12.293 24.585h4.098v2.049h-4.098z M18.439 24.585h2.049v2.049h-2.049z M22.537 24.585h2.049v2.049h-2.049z M26.634 24.585h6.146v2.049h-6.146z M34.829 24.585h2.049v2.049h-2.049z M38.927 24.585h6.146v2.049h-6.146z M51.22 24.585h22.537v2.049h-22.537z M75.805 24.585h2.049v2.049h-2.049z M81.951 24.585h2.049v2.049h-2.049z M0.0 26.634h10.244v2.049h-10.244z M14.341 26.634h2.049v2.049h-2.049z M20.488 26.634h2.049v2.049h-2.049z M28.683 26.634h4.098v2.049h-4.098z M34.829 26.634h2.049v2.049h-2.049z M40.976 26.634h2.049v2.049h-2.049z M45.073 26.634h4.098v2.049h-4.098z M51.22 26.634h2.049v2.049h-2.049z M55.317 26.634h2.049v2.049h-2.049z M61.463 26.634h2.049v2.049h-2.049z M67.61 26.634h2.049v2.049h-2.049z M75.805 26.634h4.098v2.049h-4.098z M0.0 28.683h2.049v2.049h-2.049z M10.244 28.683h6.146v2.049h-6.146z M26.634 28.683h6.146v2.049h-6.146z M34.829 28.683h6.146v2.049h-6.146z M43.024 28.683h2.049v2.049h-2.049z M47.122 28.683h2.049v2.049h-2.049z M55.317 28.683h4.098v2.049h-4.098z M61.463 28.683h2.049v2.049h-2.049z M65.561 28.683h2.049v2.049h-2.049z M69.659 28.683h2.049v2.049h-2.049z M75.805 28.683h8.195v2.049h-8.195z M0.0 30.732h2.049v2.049h-2.049z M4.098 30.732h2.049v2.049h-2.049z M8.195 30.732h4.098v2.049h-4.098z M16.39 30.732h4.098v2.049h-4.098z M24.585 30.732h4.098v2.049h-4.098z M34.829 30.732h4.098v2.049h-4.098z M40.976 30.732h8.195v2.049h-8.195z M51.22 30.732h4.098v2.049h-4.098z M57.366 30.732h6.146v2.049h-6.146z M65.561 30.732h2.049v2.049h-2.049z M69.659 30.732h4.098v2.049h-4.098z M0.0 32.78h6.146v2.049h-6.146z M12.293 32.78h4.098v2.049h-4.098z M18.439 32.78h2.049v2.049h-2.049z M30.732 32.78h2.049v2.049h-2.049z M45.073 32.78h2.049v2.049h-2.049z M55.317 32.78h2.049v2.049h-2.049z M59.415 32.78h2.049v2.049h-2.049z M65.561 32.78h2.049v2.049h-2.049z M71.707 32.78h2.049v2.049h-2.049z M79.902 32.78h2.049v2.049h-2.049z M4.098 34.829h6.146v2.049h-6.146z M16.39 34.829h2.049v2.049h-2.049z M20.488 34.829h2.049v2.049h-2.049z M26.634 34.829h10.244v2.049h-10.244z M38.927 34.829h2.049v2.049h-2.049z M43.024 34.829h2.049v2.049h-2.049z M47.122 34.829h4.098v2.049h-4.098z M53.268 34.829h6.146v2.049h-6.146z M69.659 34.829h4.098v2.049h-4.098z M75.805 34.829h8.195v2.049h-8.195z M4.098 36.878h2.049v2.049h-2.049z M10.244 36.878h12.293v2.049h-12.293z M34.829 36.878h2.049v2.049h-2.049z M45.073 36.878h2.049v2.049h-2.049z M51.22 36.878h2.049v2.049h-2.049z M61.463 36.878h2.049v2.049h-2.049z M67.61 36.878h4.098v2.049h-4.098z M73.756 36.878h2.049v2.049h-2.049z M81.951 36.878h2.049v2.049h-2.049z M4.098 38.927h4.098v2.049h-4.098z M10.244 38.927h2.049v2.049h-2.049z M14.341 38.927h2.049v2.049h-2.049z M20.488 38.927h2.049v2.049h-2.049z M26.634 38.927h2.049v2.049h-2.049z M38.927 38.927h2.049v2.049h-2.049z M43.024 38.927h2.049v2.049h-2.049z M51.22 38.927h2.049v2.049h-2.049z M59.415 38.927h4.098v2.049h-4.098z M65.561 38.927h8.195v2.049h-8.195z M75.805 38.927h2.049v2.049h-2.049z M81.951 38.927h2.049v2.049h-2.049z M0.0 40.976h10.244v2.049h-10.244z M12.293 40.976h2.049v2.049h-2.049z M18.439 40.976h18.439v2.049h-18.439z M40.976 40.976h2.049v2.049h-2.049z M45.073 40.976h6.146v2.049h-6.146z M53.268 40.976h4.098v2.049h-4.098z M59.415 40.976h4.098v2.049h-4.098z M65.561 40.976h8.195v2.049h-8.195z M77.854 40.976h4.098v2.049h-4.098z M2.049 43.024h4.098v2.049h-4.098z M10.244 43.024h2.049v2.049h-2.049z M16.39 43.024h8.195v2.049h-8.195z M26.634 43.024h4.098v2.049h-4.098z M32.78 43.024h4.098v2.049h-4.098z M38.927 43.024h8.195v2.049h-8.195z M51.22 43.024h2.049v2.049h-2.049z M59.415 43.024h4.098v2.049h-4.098z M69.659 43.024h2.049v2.049h-2.049z M75.805 43.024h8.195v2.049h-8.195z M8.195 45.073h2.049v2.049h-2.049z M12.293 45.073h8.195v2.049h-8.195z M22.537 45.073h4.098v2.049h-4.098z M28.683 45.073h2.049v2.049h-2.049z M32.78 45.073h10.244v2.049h-10.244z M51.22 45.073h2.049v2.049h-2.049z M57.366 45.073h2.049v2.049h-2.049z M63.512 45.073h2.049v2.049h-2.049z M67.61 45.073h6.146v2.049h-6.146z M77.854 45.073h4.098v2.049h-4.098z M0.0 47.122h8.195v2.049h-8.195z M14.341 47.122h4.098v2.049h-4.098z M20.488 47.122h2.049v2.049h-2.049z M30.732 47.122h2.049v2.049h-2.049z M36.878 47.122h10.244v2.049h-10.244z M49.171 47.122h6.146v2.049h-6.146z M57.366 47.122h2.049v2.049h-2.049z M61.463 47.122h2.049v2.049h-2.049z M69.659 47.122h2.049v2.049h-2.049z M77.854 47.122h4.098v2.049h-4.098z M0.0 49.171h2.049v2.049h-2.049z M12.293 49.171h2.049v2.049h-2.049z M20.488 49.171h2.049v2.049h-2.049z M26.634 49.171h2.049v2.049h-2.049z M30.732 49.171h2.049v2.049h-2.049z M34.829 49.171h2.049v2.049h-2.049z M38.927 49.171h6.146v2.049h-6.146z M49.171 49.171h4.098v2.049h-4.098z M55.317 49.171h6.146v2.049h-6.146z M63.512 49.171h10.244v2.049h-10.244z M75.805 49.171h2.049v2.049h-2.049z M0.0 51.22h4.098v2.049h-4.098z M10.244 51.22h2.049v2.049h-2.049z M18.439 51.22h2.049v2.049h-2.049z M26.634 51.22h10.244v2.049h-10.244z M38.927 51.22h8.195v2.049h-8.195z M49.171 51.22h6.146v2.049h-6.146z M57.366 51.22h4.098v2.049h-4.098z M63.512 51.22h2.049v2.049h-2.049z M69.659 51.22h2.049v2.049h-2.049z M75.805 51.22h2.049v2.049h-2.049z M79.902 51.22h4.098v2.049h-4.098z M0.0 53.268h4.098v2.049h-4.098z M6.146 53.268h8.195v2.049h-8.195z M18.439 53.268h2.049v2.049h-2.049z M22.537 53.268h2.049v2.049h-2.049z M28.683 53.268h8.195v2.049h-8.195z M40.976 53.268h2.049v2.049h-2.049z M47.122 53.268h2.049v2.049h-2.049z M51.22 53.268h4.098v2.049h-4.098z M57.366 53.268h2.049v2.049h-2.049z M61.463 53.268h2.049v2.049h-2.049z M65.561 53.268h2.049v2.049h-2.049z M71.707 53.268h4.098v2.049h-4.098z M79.902 53.268h4.098v2.049h-4.098z M4.098 55.317h4.098v2.049h-4.098z M10.244 55.317h2.049v2.049h-2.049z M24.585 55.317h8.195v2.049h-8.195z M34.829 55.317h4.098v2.049h-4.098z M40.976 55.317h6.146v2.049h-6.146z M49.171 55.317h8.195v2.049h-8.195z M59.415 55.317h2.049v2.049h-2.049z M65.561 55.317h2.049v2.049h-2.049z M81.951 55.317h2.049v2.049h-2.049z M0.0 57.366h2.049v2.049h-2.049z M12.293 57.366h8.195v2.049h-8.195z M22.537 57.366h8.195v2.049h-8.195z M32.78 57.366h4.098v2.049h-4.098z M43.024 57.366h8.195v2.049h-8.195z M53.268 57.366h10.244v2.049h-10.244z M65.561 57.366h4.098v2.049h-4.098z M71.707 57.366h2.049v2.049h-2.049z M79.902 57.366h4.098v2.049h-4.098z M2.049 59.415h2.049v2.049h-2.049z M8.195 59.415h2.049v2.049h-2.049z M14.341 59.415h6.146v2.049h-6.146z M28.683 59.415h2.049v2.049h-2.049z M34.829 59.415h2.049v2.049h-2.049z M38.927 59.415h6.146v2.049h-6.146z M49.171 59.415h4.098v2.049h-4.098z M55.317 59.415h2.049v2.049h-2.049z M59.415 59.415h4.098v2.049h-4.098z M65.561 59.415h8.195v2.049h-8.195z M75.805 59.415h4.098v2.049h-4.098z M81.951 59.415h2.049v2.049h-2.049z M0.0 61.463h2.049v2.049h-2.049z M4.098 61.463h2.049v2.049h-2.049z M12.293 61.463h4.098v2.049h-4.098z M22.537 61.463h4.098v2.049h-4.098z M28.683 61.463h6.146v2.049h-6.146z M36.878 61.463h2.049v2.049h-2.049z M45.073 61.463h8.195v2.049h-8.195z M65.561 61.463h2.049v2.049h-2.049z M71.707 61.463h2.049v2.049h-2.049z M77.854 61.463h6.146v2.049h-6.146z M6.146 63.512h4.098v2.049h-4.098z M14.341 63.512h6.146v2.049h-6.146z M26.634 63.512h2.049v2.049h-2.049z M30.732 63.512h2.049v2.049h-2.049z M34.829 63.512h4.098v2.049h-4.098z M43.024 63.512h2.049v2.049h-2.049z M49.171 63.512h2.049v2.049h-2.049z M53.268 63.512h8.195v2.049h-8.195z M63.512 63.512h6.146v2.049h-6.146z M73.756 63.512h4.098v2.049h-4.098z M0.0 65.561h2.049v2.049h-2.049z M4.098 65.561h2.049v2.049h-2.049z M10.244 65.561h8.195v2.049h-8.195z M20.488 65.561h2.049v2.049h-2.049z M24.585 65.561h2.049v2.049h-2.049z M30.732 65.561h6.146v2.049h-6.146z M40.976 65.561h2.049v2.049h-2.049z M51.22 65.561h4.098v2.049h-4.098z M63.512 65.561h12.293v2.049h-12.293z M77.854 65.561h2.049v2.049h-2.049z M81.951 65.561h2.049v2.049h-2.049z M16.39 67.61h14.341v2.049h-14.341z M32.78 67.61h10.244v2.049h-10.244z M45.073 67.61h2.049v2.049h-2.049z M49.171 67.61h4.098v2.049h-4.098z M55.317 67.61h4.098v2.049h-4.098z M61.463 67.61h6.146v2.049h-6.146z M73.756 67.61h10.244v2.049h-10.244z M0.0 69.659h14.341v2.049h-14.341z M32.78 69.659h2.049v2.049h-2.049z M36.878 69.659h4.098v2.049h-4.098z M43.024 69.659h4.098v2.049h-4.098z M51.22 69.659h4.098v2.049h-4.098z M57.366 69.659h4.098v2.049h-4.098z M65.561 69.659h2.049v2.049h-2.049z M69.659 69.659h2.049v2.049h-2.049z M73.756 69.659h2.049v2.049h-2.049z M77.854 69.659h4.098v2.049h-4.098z M0.0 71.707h2.049v2.049h-2.049z M12.293 71.707h2.049v2.049h-2.049z M16.39 71.707h4.098v2.049h-4.098z M24.585 71.707h6.146v2.049h-6.146z M32.78 71.707h2.049v2.049h-2.049z M36.878 71.707h2.049v2.049h-2.049z M49.171 71.707h4.098v2.049h-4.098z M55.317 71.707h2.049v2.049h-2.049z M59.415 71.707h2.049v2.049h-2.049z M65.561 71.707h2.049v2.049h-2.049z M73.756 71.707h2.049v2.049h-2.049z M77.854 71.707h2.049v2.049h-2.049z M81.951 71.707h2.049v2.049h-2.049z M0.0 73.756h2.049v2.049h-2.049z M4.098 73.756h6.146v2.049h-6.146z M12.293 73.756h2.049v2.049h-2.049z M18.439 73.756h4.098v2.049h-4.098z M24.585 73.756h2.049v2.049h-2.049z M30.732 73.756h4.098v2.049h-4.098z M36.878 73.756h2.049v2.049h-2.049z M40.976 73.756h2.049v2.049h-2.049z M53.268 73.756h6.146v2.049h-6.146z M65.561 73.756h12.293v2.049h-12.293z M79.902 73.756h2.049v2.049h-2.049z M0.0 75.805h2.049v2.049h-2.049z M4.098 75.805h6.146v2.049h-6.146z M12.293 75.805h2.049v2.049h-2.049z M16.39 75.805h2.049v2.049h-2.049z M20.488 75.805h2.049v2.049h-2.049z M24.585 75.805h2.049v2.049h-2.049z M30.732 75.805h2.049v2.049h-2.049z M34.829 75.805h12.293v2.049h-12.293z M53.268 75.805h2.049v2.049h-2.049z M57.366 75.805h4.098v2.049h-4.098z M63.512 75.805h8.195v2.049h-8.195z M73.756 75.805h4.098v2.049h-4.098z M81.951 75.805h2.049v2.049h-2.049z M0.0 77.854h2.049v2.049h-2.049z M4.098 77.854h6.146v2.049h-6.146z M12.293 77.854h2.049v2.049h-2.049z M20.488 77.854h10.244v2.049h-10.244z M32.78 77.854h2.049v2.049h-2.049z M40.976 77.854h4.098v2.049h-4.098z M47.122 77.854h2.049v2.049h-2.049z M51.22 77.854h4.098v2.049h-4.098z M57.366 77.854h2.049v2.049h-2.049z M61.463 77.854h4.098v2.049h-4.098z M73.756 77.854h2.049v2.049h-2.049z M79.902 77.854h4.098v2.049h-4.098z M0.0 79.902h2.049v2.049h-2.049z M12.293 79.902h2.049v2.049h-2.049z M18.439 79.902h2.049v2.049h-2.049z M22.537 79.902h4.098v2.049h-4.098z M30.732 79.902h2.049v2.049h-2.049z M34.829 79.902h4.098v2.049h-4.098z M43.024 79.902h6.146v2.049h-6.146z M51.22 79.902h4.098v2.049h-4.098z M57.366 79.902h12.293v2.049h-12.293z M71.707 79.902h2.049v2.049h-2.049z M79.902 79.902h2.049v2.049h-2.049z M0.0 81.951h14.341v2.049h-14.341z M16.39 81.951h2.049v2.049h-2.049z M20.488 81.951h2.049v2.049h-2.049z M24.585 81.951h4.098v2.049h-4.098z M34.829 81.951h12.293v2.049h-12.293z M49.171 81.951h2.049v2.049h-2.049z M59.415 81.951h2.049v2.049h-2.049z M63.512 81.951h14.341v2.049h-14.341z M79.902 81.951h2.049v2.049h-2.049z"/>
</g>
<text x="1122" y="614" font-family="Inter, Helvetica, Arial, sans-serif" font-size="10" font-weight="700" fill="#F5F7FA" text-anchor="middle">scan / full post</text>
</svg>
