<svg xmlns="http://www.w3.org/2000/svg" viewBox="0 0 1200 630" width="1200" height="630" role="img" aria-label="Weekly digest three-card infographic: APT C2, phishing targets, compliance posture">
<defs>
  <linearGradient id="bg" x1="0%" y1="0%" x2="0%" y2="100%">
    <stop offset="0%" stop-color="#0B132B"/>
    <stop offset="100%" stop-color="#0A1020"/>
  </linearGradient>
  <linearGradient id="stripeBlue" x1="0%" y1="0%" x2="100%" y2="0%">
    <stop offset="0%" stop-color="#3A86FF" stop-opacity="0"/>
    <stop offset="50%" stop-color="#3A86FF" stop-opacity="0.9"/>
    <stop offset="100%" stop-color="#3A86FF" stop-opacity="0"/>
  </linearGradient>
  <linearGradient id="stripeAmber" x1="0%" y1="0%" x2="100%" y2="0%">
    <stop offset="0%" stop-color="#FFB703" stop-opacity="0"/>
    <stop offset="50%" stop-color="#FFB703" stop-opacity="0.9"/>
    <stop offset="100%" stop-color="#FFB703" stop-opacity="0"/>
  </linearGradient>
  <linearGradient id="stripeRed" x1="0%" y1="0%" x2="100%" y2="0%">
    <stop offset="0%" stop-color="#E63946" stop-opacity="0"/>
    <stop offset="50%" stop-color="#E63946" stop-opacity="0.9"/>
    <stop offset="100%" stop-color="#E63946" stop-opacity="0"/>
  </linearGradient>
  <pattern id="dotGrid" x="0" y="0" width="32" height="32" patternUnits="userSpaceOnUse">
    <circle cx="16" cy="16" r="0.9" fill="#2A3256" opacity="0.5"/>
  </pattern>
  <radialGradient id="glowBlue" cx="50%" cy="50%" r="50%">
    <stop offset="0%" stop-color="#3A86FF" stop-opacity="0.55"/>
    <stop offset="100%" stop-color="#3A86FF" stop-opacity="0"/>
  </radialGradient>
  <radialGradient id="glowAmber" cx="50%" cy="50%" r="50%">
    <stop offset="0%" stop-color="#FFB703" stop-opacity="0.55"/>
    <stop offset="100%" stop-color="#FFB703" stop-opacity="0"/>
  </radialGradient>
  <radialGradient id="glowRed" cx="50%" cy="50%" r="50%">
    <stop offset="0%" stop-color="#E63946" stop-opacity="0.55"/>
    <stop offset="100%" stop-color="#E63946" stop-opacity="0"/>
  </radialGradient>
</defs>
<rect width="1200" height="630" fill="url(#bg)"/>
<rect width="1200" height="630" fill="url(#dotGrid)"/>
<rect x="0" y="56" width="1200" height="2" fill="url(#stripeBlue)" opacity="0.85">
  <animate attributeName="opacity" values="0.4;1;0.4" dur="5.2s" repeatCount="indefinite"/>
</rect>
<rect x="0" y="598" width="1200" height="2" fill="url(#stripeAmber)" opacity="0.7">
  <animate attributeName="opacity" values="0.35;0.85;0.35" dur="6.1s" repeatCount="indefinite"/>
</rect>
<circle cx="170" cy="80" r="60" fill="url(#glowBlue)" opacity="0.55">
  <animate attributeName="opacity" values="0.3;0.7;0.3" dur="4.4s" repeatCount="indefinite"/>
</circle>
<circle cx="1030" cy="550" r="70" fill="url(#glowRed)" opacity="0.4">
  <animate attributeName="opacity" values="0.2;0.55;0.2" dur="5.8s" repeatCount="indefinite"/>
</circle>
<rect x="48" y="96" width="336" height="482" rx="18" ry="18" fill="#1C2541" stroke="#3A86FF" stroke-width="1.6" opacity="0.96"/>
<rect x="66" y="114" width="56" height="3" fill="#3A86FF" rx="1.5">
  <animate attributeName="width" values="56;92;56" dur="3.8s" repeatCount="indefinite"/>
</rect>
<rect x="48" y="94" width="336" height="2" fill="url(#stripeBlue)" opacity="0.7">
  <animate attributeName="opacity" values="0.35;0.85;0.35" dur="4.2s" repeatCount="indefinite"/>
</rect>
<rect x="408" y="96" width="336" height="482" rx="18" ry="18" fill="#1C2541" stroke="#FFB703" stroke-width="1.6" opacity="0.96"/>
<rect x="426" y="114" width="56" height="3" fill="#FFB703" rx="1.5">
  <animate attributeName="width" values="56;92;56" dur="3.6s" repeatCount="indefinite"/>
</rect>
<rect x="408" y="94" width="336" height="2" fill="url(#stripeAmber)" opacity="0.7">
  <animate attributeName="opacity" values="0.35;0.85;0.35" dur="4.6s" repeatCount="indefinite"/>
</rect>
<rect x="768" y="96" width="336" height="482" rx="18" ry="18" fill="#1C2541" stroke="#E63946" stroke-width="1.6" opacity="0.96"/>
<rect x="786" y="114" width="56" height="3" fill="#E63946" rx="1.5">
  <animate attributeName="width" values="56;92;56" dur="3.4s" repeatCount="indefinite"/>
</rect>
<rect x="768" y="94" width="336" height="2" fill="url(#stripeRed)" opacity="0.7">
  <animate attributeName="opacity" values="0.35;0.85;0.35" dur="5.0s" repeatCount="indefinite"/>
</rect>
<!-- Card footer accent dots (pulse) -->
<circle cx="102" cy="562" r="3" fill="#3A86FF" opacity="0.7">
  <animate attributeName="opacity" values="0.4;1;0.4" dur="2.4s" repeatCount="indefinite"/>
</circle>
<circle cx="118" cy="562" r="3" fill="#3A86FF" opacity="0.55">
  <animate attributeName="opacity" values="0.3;0.8;0.3" dur="2.8s" repeatCount="indefinite"/>
</circle>
<circle cx="134" cy="562" r="3" fill="#3A86FF" opacity="0.4">
  <animate attributeName="opacity" values="0.25;0.65;0.25" dur="3.2s" repeatCount="indefinite"/>
</circle>
<circle cx="462" cy="562" r="3" fill="#FFB703" opacity="0.7">
  <animate attributeName="opacity" values="0.4;1;0.4" dur="2.4s" repeatCount="indefinite"/>
</circle>
<circle cx="478" cy="562" r="3" fill="#FFB703" opacity="0.55">
  <animate attributeName="opacity" values="0.3;0.8;0.3" dur="2.6s" repeatCount="indefinite"/>
</circle>
<circle cx="494" cy="562" r="3" fill="#FFB703" opacity="0.4">
  <animate attributeName="opacity" values="0.25;0.65;0.25" dur="3.0s" repeatCount="indefinite"/>
</circle>
<circle cx="822" cy="562" r="3" fill="#E63946" opacity="0.7">
  <animate attributeName="opacity" values="0.4;1;0.4" dur="2.4s" repeatCount="indefinite"/>
</circle>
<circle cx="838" cy="562" r="3" fill="#E63946" opacity="0.55">
  <animate attributeName="opacity" values="0.3;0.8;0.3" dur="2.7s" repeatCount="indefinite"/>
</circle>
<circle cx="854" cy="562" r="3" fill="#E63946" opacity="0.4">
  <animate attributeName="opacity" values="0.25;0.65;0.25" dur="3.1s" repeatCount="indefinite"/>
</circle>
<g transform="translate(216,330)">
  <!-- Central C2 server -->
  <g transform="translate(0,-20)">
    <rect x="-22" y="-30" width="44" height="60" rx="4" fill="#0B132B" stroke="#FFB703" stroke-width="2.4"/>
    <!-- server slots -->
    <rect x="-16" y="-22" width="32" height="5" rx="1" fill="#FFB703" opacity="0.7">
      <animate attributeName="opacity" values="0.4;0.9;0.4" dur="1.4s" repeatCount="indefinite"/>
    </rect>
    <rect x="-16" y="-12" width="32" height="5" rx="1" fill="#FFB703" opacity="0.6">
      <animate attributeName="opacity" values="0.3;0.8;0.3" dur="1.6s" repeatCount="indefinite"/>
    </rect>
    <rect x="-16" y="-2" width="32" height="5" rx="1" fill="#FFB703" opacity="0.7">
      <animate attributeName="opacity" values="0.4;0.9;0.4" dur="1.5s" repeatCount="indefinite"/>
    </rect>
    <rect x="-16" y="8" width="32" height="5" rx="1" fill="#FFB703" opacity="0.6">
      <animate attributeName="opacity" values="0.3;0.8;0.3" dur="1.8s" repeatCount="indefinite"/>
    </rect>
    <rect x="-16" y="18" width="32" height="5" rx="1" fill="#E63946" opacity="0.9">
      <animate attributeName="opacity" values="0.5;1;0.5" dur="1.1s" repeatCount="indefinite"/>
    </rect>
    <!-- antenna -->
    <line x1="0" y1="-30" x2="0" y2="-46" stroke="#FFB703" stroke-width="2"/>
    <circle cx="0" cy="-48" r="3" fill="#FFB703">
      <animate attributeName="r" values="3;5;3" dur="1.2s" repeatCount="indefinite"/>
    </circle>
  </g>
  <!-- Radiating waves -->
  <circle cx="0" cy="-20" r="40" fill="none" stroke="#FFB703" stroke-width="1.6" opacity="0">
    <animate attributeName="r" values="40;120" dur="3s" repeatCount="indefinite"/>
    <animate attributeName="opacity" values="0.8;0" dur="3s" repeatCount="indefinite"/>
  </circle>
  <circle cx="0" cy="-20" r="40" fill="none" stroke="#FFB703" stroke-width="1.6" opacity="0">
    <animate attributeName="r" values="40;120" dur="3s" begin="1s" repeatCount="indefinite"/>
    <animate attributeName="opacity" values="0.8;0" dur="3s" begin="1s" repeatCount="indefinite"/>
  </circle>
  <circle cx="0" cy="-20" r="40" fill="none" stroke="#FFB703" stroke-width="1.6" opacity="0">
    <animate attributeName="r" values="40;120" dur="3s" begin="2s" repeatCount="indefinite"/>
    <animate attributeName="opacity" values="0.8;0" dur="3s" begin="2s" repeatCount="indefinite"/>
  </circle>
  <!-- Victim nodes around -->
  <g>
    <circle cx="-110" cy="-60" r="6" fill="#E63946" stroke="#E63946" stroke-width="1.6">
      <animate attributeName="opacity" values="0.6;1;0.6" dur="2.2s" repeatCount="indefinite"/>
    </circle>
    <circle cx="110" cy="-60" r="6" fill="#E63946">
      <animate attributeName="opacity" values="0.6;1;0.6" dur="2.4s" repeatCount="indefinite"/>
    </circle>
    <circle cx="-120" cy="0" r="6" fill="#E63946">
      <animate attributeName="opacity" values="0.6;1;0.6" dur="2.6s" repeatCount="indefinite"/>
    </circle>
    <circle cx="120" cy="0" r="6" fill="#E63946">
      <animate attributeName="opacity" values="0.6;1;0.6" dur="2.0s" repeatCount="indefinite"/>
    </circle>
    <circle cx="-100" cy="60" r="6" fill="#E63946">
      <animate attributeName="opacity" values="0.6;1;0.6" dur="2.8s" repeatCount="indefinite"/>
    </circle>
    <circle cx="100" cy="60" r="6" fill="#E63946">
      <animate attributeName="opacity" values="0.6;1;0.6" dur="2.2s" repeatCount="indefinite"/>
    </circle>
    <circle cx="-60" cy="90" r="5" fill="#E63946">
      <animate attributeName="opacity" values="0.6;1;0.6" dur="2.4s" repeatCount="indefinite"/>
    </circle>
    <circle cx="60" cy="90" r="5" fill="#E63946">
      <animate attributeName="opacity" values="0.6;1;0.6" dur="2.6s" repeatCount="indefinite"/>
    </circle>
  </g>
  <!-- Connection lines (dashed, flowing) -->
  <line x1="0" y1="-20" x2="-110" y2="-60" stroke="#FFB703" stroke-width="1.4" stroke-dasharray="4 3" opacity="0.55">
    <animate attributeName="stroke-dashoffset" values="0;-14" dur="1.4s" repeatCount="indefinite"/>
  </line>
  <line x1="0" y1="-20" x2="110" y2="-60" stroke="#FFB703" stroke-width="1.4" stroke-dasharray="4 3" opacity="0.55">
    <animate attributeName="stroke-dashoffset" values="0;-14" dur="1.6s" repeatCount="indefinite"/>
  </line>
  <line x1="0" y1="-20" x2="-120" y2="0" stroke="#FFB703" stroke-width="1.4" stroke-dasharray="4 3" opacity="0.55">
    <animate attributeName="stroke-dashoffset" values="0;-14" dur="1.5s" repeatCount="indefinite"/>
  </line>
  <line x1="0" y1="-20" x2="120" y2="0" stroke="#FFB703" stroke-width="1.4" stroke-dasharray="4 3" opacity="0.55">
    <animate attributeName="stroke-dashoffset" values="0;-14" dur="1.7s" repeatCount="indefinite"/>
  </line>
  <line x1="0" y1="-20" x2="-100" y2="60" stroke="#FFB703" stroke-width="1.4" stroke-dasharray="4 3" opacity="0.55">
    <animate attributeName="stroke-dashoffset" values="0;-14" dur="1.8s" repeatCount="indefinite"/>
  </line>
  <line x1="0" y1="-20" x2="100" y2="60" stroke="#FFB703" stroke-width="1.4" stroke-dasharray="4 3" opacity="0.55">
    <animate attributeName="stroke-dashoffset" values="0;-14" dur="1.9s" repeatCount="indefinite"/>
  </line>
  <line x1="0" y1="-20" x2="-60" y2="90" stroke="#FFB703" stroke-width="1.4" stroke-dasharray="4 3" opacity="0.55">
    <animate attributeName="stroke-dashoffset" values="0;-14" dur="2.0s" repeatCount="indefinite"/>
  </line>
  <line x1="0" y1="-20" x2="60" y2="90" stroke="#FFB703" stroke-width="1.4" stroke-dasharray="4 3" opacity="0.55">
    <animate attributeName="stroke-dashoffset" values="0;-14" dur="2.1s" repeatCount="indefinite"/>
  </line>
  <text x="0" y="170" font-family="Inter,Segoe UI,Arial,sans-serif"
        font-size="14" font-weight="800" fill="#E7ECF4"
        text-anchor="middle" letter-spacing="2">PLUGX</text>
</g>
<g transform="translate(216,330)">
  <circle cx="0" cy="190" r="90" fill="url(#glowBlue)" opacity="0.16">
    <animate attributeName="opacity" values="0.1;0.22;0.1" dur="4.2s" repeatCount="indefinite"/>
  </circle>
  <circle cx="-70" cy="192" r="2" fill="#3A86FF" opacity="0.45">
    <animate attributeName="opacity" values="0.2;0.75;0.2" dur="2.6s" repeatCount="indefinite"/>
  </circle>
  <circle cx="-60" cy="196" r="1.6" fill="#3A86FF" opacity="0.55">
    <animate attributeName="opacity" values="0.25;0.8;0.25" dur="2.8s" repeatCount="indefinite"/>
  </circle>
  <circle cx="60" cy="196" r="1.6" fill="#3A86FF" opacity="0.55">
    <animate attributeName="opacity" values="0.25;0.8;0.25" dur="3.0s" repeatCount="indefinite"/>
  </circle>
  <circle cx="70" cy="192" r="2" fill="#3A86FF" opacity="0.45">
    <animate attributeName="opacity" values="0.2;0.75;0.2" dur="2.4s" repeatCount="indefinite"/>
  </circle>
  <line x1="-52" y1="204" x2="-28" y2="204" stroke="#3A86FF" stroke-width="1.2" opacity="0.6"/>
  <line x1="28" y1="204" x2="52" y2="204" stroke="#3A86FF" stroke-width="1.2" opacity="0.6"/>
  <line x1="-48" y1="210" x2="-34" y2="210" stroke="#3A86FF" stroke-width="0.9" opacity="0.4"/>
  <line x1="34" y1="210" x2="48" y2="210" stroke="#3A86FF" stroke-width="0.9" opacity="0.4"/>
</g>
<text x="216" y="520" font-family="Inter,Segoe UI,Arial,sans-serif" font-size="11" font-weight="500" fill="#E7ECF4" text-anchor="middle" letter-spacing="0.3">China-linked actor targets European governments</text>
<g transform="translate(576,330)">
  <!-- Device frame (phone outline) -->
  <rect x="-70" y="-130" width="140" height="220" rx="18" ry="18"
        fill="#0B132B" stroke="#3A86FF" stroke-width="2.4" opacity="0.95"/>
  <rect x="-70" y="-130" width="140" height="220" rx="18" ry="18"
        fill="url(#glowBlue)" opacity="0.28">
    <animate attributeName="opacity" values="0.18;0.42;0.18" dur="3.6s" repeatCount="indefinite"/>
  </rect>
  <rect x="-20" y="-126" width="40" height="6" rx="3" fill="#2A3256"/>
  <!-- Notification stack (3 mini rows appearing) -->
  <g transform="translate(-54,-92)">
    <rect x="0" y="0" width="108" height="22" rx="5" ry="5" fill="#1C2541" stroke="#3A86FF" stroke-width="1.4" opacity="0">
      <animate attributeName="opacity" values="0;0.95;0.95;0" dur="6s" begin="0s" repeatCount="indefinite"/>
    </rect>
    <circle cx="12" cy="11" r="5" fill="#E63946" opacity="0">
      <animate attributeName="opacity" values="0;1;1;0" dur="6s" begin="0s" repeatCount="indefinite"/>
      <animate attributeName="r" values="5;6.4;5" dur="2.2s" repeatCount="indefinite"/>
    </circle>
    <rect x="24" y="6" width="70" height="3" rx="1.5" fill="#E7ECF4" opacity="0">
      <animate attributeName="opacity" values="0;0.85;0.85;0" dur="6s" begin="0s" repeatCount="indefinite"/>
    </rect>
    <rect x="24" y="14" width="54" height="3" rx="1.5" fill="#8B94A8" opacity="0">
      <animate attributeName="opacity" values="0;0.65;0.65;0" dur="6s" begin="0s" repeatCount="indefinite"/>
    </rect>
  </g>
  <g transform="translate(-54,-62)">
    <rect x="0" y="0" width="108" height="22" rx="5" ry="5" fill="#1C2541" stroke="#3A86FF" stroke-width="1.4" opacity="0">
      <animate attributeName="opacity" values="0;0.95;0.95;0" dur="6s" begin="2s" repeatCount="indefinite"/>
    </rect>
    <circle cx="12" cy="11" r="5" fill="#E63946" opacity="0">
      <animate attributeName="opacity" values="0;1;1;0" dur="6s" begin="2s" repeatCount="indefinite"/>
    </circle>
    <rect x="24" y="6" width="70" height="3" rx="1.5" fill="#E7ECF4" opacity="0">
      <animate attributeName="opacity" values="0;0.85;0.85;0" dur="6s" begin="2s" repeatCount="indefinite"/>
    </rect>
    <rect x="24" y="14" width="48" height="3" rx="1.5" fill="#8B94A8" opacity="0">
      <animate attributeName="opacity" values="0;0.65;0.65;0" dur="6s" begin="2s" repeatCount="indefinite"/>
    </rect>
  </g>
  <g transform="translate(-54,-32)">
    <rect x="0" y="0" width="108" height="22" rx="5" ry="5" fill="#1C2541" stroke="#3A86FF" stroke-width="1.4" opacity="0">
      <animate attributeName="opacity" values="0;0.95;0.95;0" dur="6s" begin="4s" repeatCount="indefinite"/>
    </rect>
    <circle cx="12" cy="11" r="5" fill="#E63946" opacity="0">
      <animate attributeName="opacity" values="0;1;1;0" dur="6s" begin="4s" repeatCount="indefinite"/>
    </circle>
    <rect x="24" y="6" width="70" height="3" rx="1.5" fill="#E7ECF4" opacity="0">
      <animate attributeName="opacity" values="0;0.85;0.85;0" dur="6s" begin="4s" repeatCount="indefinite"/>
    </rect>
    <rect x="24" y="14" width="58" height="3" rx="1.5" fill="#8B94A8" opacity="0">
      <animate attributeName="opacity" values="0;0.65;0.65;0" dur="6s" begin="4s" repeatCount="indefinite"/>
    </rect>
  </g>
  <!-- Bell (top right of phone) pulsing -->
  <g transform="translate(46,-104)">
    <path d="M -10 6 Q -10 -8 0 -8 Q 10 -8 10 6 L 12 10 L -12 10 Z"
          fill="#FFB703" opacity="0.95"/>
    <circle cx="0" cy="-10" r="2.2" fill="#FFB703"/>
    <path d="M -3 12 Q 0 16 3 12" fill="none" stroke="#FFB703" stroke-width="1.5"/>
    <animateTransform attributeName="transform" type="rotate"
                      values="-12 0 -8; 12 0 -8; -12 0 -8"
                      dur="1.6s" repeatCount="indefinite" additive="sum"/>
  </g>
  <!-- Fishhook swinging below phone -->
  <g transform="translate(0,108)">
    <animateTransform attributeName="transform" type="rotate"
                      values="-10 0 -40; 10 0 -40; -10 0 -40"
                      dur="3.2s" repeatCount="indefinite" additive="sum"/>
    <line x1="0" y1="-40" x2="0" y2="6" stroke="#FFB703" stroke-width="2.4"/>
    <path d="M 0 6 Q 0 22 -12 22 Q -22 22 -22 12" fill="none"
          stroke="#FFB703" stroke-width="2.6" stroke-linecap="round"/>
    <circle cx="-22" cy="12" r="2.6" fill="#FFB703"/>
    <path d="M -22 12 L -18 18 L -26 18 Z" fill="#FFB703"/>
  </g>
  <!-- Phishing particles flying toward hook -->
  <circle cx="-90" cy="40" r="3" fill="#E63946">
    <animate attributeName="cx" values="-90;-22" dur="2.8s" repeatCount="indefinite"/>
    <animate attributeName="cy" values="40;100" dur="2.8s" repeatCount="indefinite"/>
    <animate attributeName="opacity" values="0.9;0" dur="2.8s" repeatCount="indefinite"/>
  </circle>
  <circle cx="-100" cy="10" r="2.4" fill="#FFB703">
    <animate attributeName="cx" values="-100;-22" dur="3.4s" begin="0.5s" repeatCount="indefinite"/>
    <animate attributeName="cy" values="10;100" dur="3.4s" begin="0.5s" repeatCount="indefinite"/>
    <animate attributeName="opacity" values="0.9;0" dur="3.4s" begin="0.5s" repeatCount="indefinite"/>
  </circle>
  <circle cx="-88" cy="70" r="2.8" fill="#E63946">
    <animate attributeName="cx" values="-88;-22" dur="3.0s" begin="1.2s" repeatCount="indefinite"/>
    <animate attributeName="cy" values="70;100" dur="3.0s" begin="1.2s" repeatCount="indefinite"/>
    <animate attributeName="opacity" values="0.9;0" dur="3.0s" begin="1.2s" repeatCount="indefinite"/>
  </circle>
  <!-- brand noun at bottom -->
  <text x="0" y="164" font-family="Inter,Segoe UI,Arial,sans-serif"
        font-size="16" font-weight="800" fill="#E7ECF4"
        text-anchor="middle" letter-spacing="3">LINKEDIN</text>
</g>
<g transform="translate(576,330)">
  <circle cx="0" cy="190" r="90" fill="url(#glowAmber)" opacity="0.16">
    <animate attributeName="opacity" values="0.1;0.22;0.1" dur="4.2s" repeatCount="indefinite"/>
  </circle>
  <circle cx="-70" cy="192" r="2" fill="#FFB703" opacity="0.45">
    <animate attributeName="opacity" values="0.2;0.75;0.2" dur="2.6s" repeatCount="indefinite"/>
  </circle>
  <circle cx="-60" cy="196" r="1.6" fill="#FFB703" opacity="0.55">
    <animate attributeName="opacity" values="0.25;0.8;0.25" dur="2.8s" repeatCount="indefinite"/>
  </circle>
  <circle cx="60" cy="196" r="1.6" fill="#FFB703" opacity="0.55">
    <animate attributeName="opacity" values="0.25;0.8;0.25" dur="3.0s" repeatCount="indefinite"/>
  </circle>
  <circle cx="70" cy="192" r="2" fill="#FFB703" opacity="0.45">
    <animate attributeName="opacity" values="0.2;0.75;0.2" dur="2.4s" repeatCount="indefinite"/>
  </circle>
  <line x1="-52" y1="204" x2="-28" y2="204" stroke="#FFB703" stroke-width="1.2" opacity="0.6"/>
  <line x1="28" y1="204" x2="52" y2="204" stroke="#FFB703" stroke-width="1.2" opacity="0.6"/>
  <line x1="-48" y1="210" x2="-34" y2="210" stroke="#FFB703" stroke-width="0.9" opacity="0.4"/>
  <line x1="34" y1="210" x2="48" y2="210" stroke="#FFB703" stroke-width="0.9" opacity="0.4"/>
</g>
<text x="576" y="520" font-family="Inter,Segoe UI,Arial,sans-serif" font-size="11" font-weight="500" fill="#E7ECF4" text-anchor="middle" letter-spacing="0.3">Thousands of executive accounts impersonated</text>
<g transform="translate(936,330)">
  <!-- Shield silhouette -->
  <g transform="translate(-70,-100)">
    <path d="M 0 0 L 60 0 L 60 60 Q 60 100 30 120 Q 0 100 0 60 Z"
          fill="#0B132B" stroke="#3A86FF" stroke-width="2.4">
      <animate attributeName="opacity" values="0.9;1;0.9" dur="3.2s" repeatCount="indefinite"/>
    </path>
    <!-- inner pulse -->
    <path d="M 10 10 L 50 10 L 50 58 Q 50 92 30 108 Q 10 92 10 58 Z"
          fill="url(#glowBlue)" opacity="0.35">
      <animate attributeName="opacity" values="0.2;0.55;0.2" dur="2.6s" repeatCount="indefinite"/>
    </path>
    <!-- big checkmark inside -->
    <path d="M 14 58 L 26 74 L 48 40" fill="none" stroke="#3A86FF" stroke-width="4" stroke-linecap="round" stroke-linejoin="round">
      <animate attributeName="stroke-dasharray" values="0 80;80 0" dur="2.4s" repeatCount="indefinite"/>
    </path>
  </g>
  <!-- Clipboard (right) -->
  <g transform="translate(10,-90)">
    <rect x="0" y="0" width="90" height="120" rx="6" fill="#1C2541" stroke="#3A86FF" stroke-width="2.2"/>
    <!-- clip -->
    <rect x="32" y="-8" width="26" height="14" rx="3" fill="#3A86FF"/>
    <!-- checklist rows appearing -->
    <g>
      <circle cx="14" cy="24" r="4" fill="none" stroke="#3A86FF" stroke-width="1.6"/>
      <path d="M 11 24 L 13 26 L 17 22" fill="none" stroke="#3A86FF" stroke-width="1.8" stroke-dasharray="0 10">
        <animate attributeName="stroke-dasharray" values="0 10;10 0;10 0;0 10" dur="8s" repeatCount="indefinite"/>
      </path>
      <rect x="24" y="22" width="54" height="3" rx="1.5" fill="#E7ECF4" opacity="0.75"/>
      <rect x="24" y="28" width="42" height="2.5" rx="1.25" fill="#8B94A8" opacity="0.6"/>
    </g>
    <g>
      <circle cx="14" cy="44" r="4" fill="none" stroke="#3A86FF" stroke-width="1.6"/>
      <path d="M 11 44 L 13 46 L 17 42" fill="none" stroke="#3A86FF" stroke-width="1.8" stroke-dasharray="0 10">
        <animate attributeName="stroke-dasharray" values="0 10;10 0;10 0;0 10" dur="8s" begin="1s" repeatCount="indefinite"/>
      </path>
      <rect x="24" y="42" width="58" height="3" rx="1.5" fill="#E7ECF4" opacity="0.75"/>
      <rect x="24" y="48" width="46" height="2.5" rx="1.25" fill="#8B94A8" opacity="0.6"/>
    </g>
    <g>
      <circle cx="14" cy="64" r="4" fill="none" stroke="#3A86FF" stroke-width="1.6"/>
      <path d="M 11 64 L 13 66 L 17 62" fill="none" stroke="#3A86FF" stroke-width="1.8" stroke-dasharray="0 10">
        <animate attributeName="stroke-dasharray" values="0 10;10 0;10 0;0 10" dur="8s" begin="2s" repeatCount="indefinite"/>
      </path>
      <rect x="24" y="62" width="50" height="3" rx="1.5" fill="#E7ECF4" opacity="0.75"/>
      <rect x="24" y="68" width="38" height="2.5" rx="1.25" fill="#8B94A8" opacity="0.6"/>
    </g>
    <g>
      <circle cx="14" cy="84" r="4" fill="none" stroke="#3A86FF" stroke-width="1.6"/>
      <path d="M 11 84 L 13 86 L 17 82" fill="none" stroke="#3A86FF" stroke-width="1.8" stroke-dasharray="0 10">
        <animate attributeName="stroke-dasharray" values="0 10;10 0;10 0;0 10" dur="8s" begin="3s" repeatCount="indefinite"/>
      </path>
      <rect x="24" y="82" width="54" height="3" rx="1.5" fill="#E7ECF4" opacity="0.75"/>
      <rect x="24" y="88" width="44" height="2.5" rx="1.25" fill="#8B94A8" opacity="0.6"/>
    </g>
    <g>
      <circle cx="14" cy="104" r="4" fill="none" stroke="#3A86FF" stroke-width="1.6"/>
      <path d="M 11 104 L 13 106 L 17 102" fill="none" stroke="#3A86FF" stroke-width="1.8" stroke-dasharray="0 10">
        <animate attributeName="stroke-dasharray" values="0 10;10 0;10 0;0 10" dur="8s" begin="4s" repeatCount="indefinite"/>
      </path>
      <rect x="24" y="102" width="60" height="3" rx="1.5" fill="#E7ECF4" opacity="0.75"/>
      <rect x="24" y="108" width="48" height="2.5" rx="1.25" fill="#8B94A8" opacity="0.6"/>
    </g>
  </g>
  <!-- Growing service nodes around shield -->
  <circle cx="-90" cy="40" r="3" fill="#3A86FF" opacity="0">
    <animate attributeName="opacity" values="0;0.9;0.9;0" dur="5s" repeatCount="indefinite"/>
    <animate attributeName="cy" values="60;40;40;20" dur="5s" repeatCount="indefinite"/>
  </circle>
  <circle cx="-100" cy="60" r="3" fill="#3A86FF" opacity="0">
    <animate attributeName="opacity" values="0;0.9;0.9;0" dur="5s" begin="1s" repeatCount="indefinite"/>
    <animate attributeName="cy" values="80;60;60;40" dur="5s" begin="1s" repeatCount="indefinite"/>
  </circle>
  <circle cx="-70" cy="60" r="3" fill="#3A86FF" opacity="0">
    <animate attributeName="opacity" values="0;0.9;0.9;0" dur="5s" begin="2s" repeatCount="indefinite"/>
    <animate attributeName="cy" values="80;60;60;40" dur="5s" begin="2s" repeatCount="indefinite"/>
  </circle>
  <!-- progress bar bottom -->
  <rect x="-60" y="56" width="120" height="6" rx="3" fill="#2A3256"/>
  <rect x="-60" y="56" width="20" height="6" rx="3" fill="#3A86FF">
    <animate attributeName="width" values="20;120;20" dur="6s" repeatCount="indefinite"/>
  </rect>
  <text x="0" y="170" font-family="Inter,Segoe UI,Arial,sans-serif"
        font-size="16" font-weight="800" fill="#E7ECF4"
        text-anchor="middle" letter-spacing="3">WEBSHELL</text>
</g>
<g transform="translate(936,330)">
  <circle cx="0" cy="190" r="90" fill="url(#glowRed)" opacity="0.16">
    <animate attributeName="opacity" values="0.1;0.22;0.1" dur="4.2s" repeatCount="indefinite"/>
  </circle>
  <circle cx="-70" cy="192" r="2" fill="#E63946" opacity="0.45">
    <animate attributeName="opacity" values="0.2;0.75;0.2" dur="2.6s" repeatCount="indefinite"/>
  </circle>
  <circle cx="-60" cy="196" r="1.6" fill="#E63946" opacity="0.55">
    <animate attributeName="opacity" values="0.25;0.8;0.25" dur="2.8s" repeatCount="indefinite"/>
  </circle>
  <circle cx="60" cy="196" r="1.6" fill="#E63946" opacity="0.55">
    <animate attributeName="opacity" values="0.25;0.8;0.25" dur="3.0s" repeatCount="indefinite"/>
  </circle>
  <circle cx="70" cy="192" r="2" fill="#E63946" opacity="0.45">
    <animate attributeName="opacity" values="0.2;0.75;0.2" dur="2.4s" repeatCount="indefinite"/>
  </circle>
  <line x1="-52" y1="204" x2="-28" y2="204" stroke="#E63946" stroke-width="1.2" opacity="0.6"/>
  <line x1="28" y1="204" x2="52" y2="204" stroke="#E63946" stroke-width="1.2" opacity="0.6"/>
  <line x1="-48" y1="210" x2="-34" y2="210" stroke="#E63946" stroke-width="0.9" opacity="0.4"/>
  <line x1="34" y1="210" x2="48" y2="210" stroke="#E63946" stroke-width="0.9" opacity="0.4"/>
</g>
<text x="936" y="520" font-family="Inter,Segoe UI,Arial,sans-serif" font-size="12" font-weight="500" fill="#E7ECF4" text-anchor="middle" letter-spacing="0.3">Persistent Linux web shell detailed</text>
<g transform="translate(1080,510)">
  <rect x="-6" y="-6" width="112" height="112" rx="8" fill="#E7ECF4" opacity="0.96"/>
  <rect x="-2" y="-2" width="104" height="104" rx="6" fill="#FFFFFF"/>
  <g transform="scale(5.555556)" fill="#0B132B">
    <path d="M0.8,0.8H1.2V1.2H0.8zM1.2,0.8H1.6V1.2H1.2zM1.6,0.8H2V1.2H1.6zM2,0.8H2.4V1.2H2zM2.4,0.8H2.8V1.2H2.4zM2.8,0.8H3.2V1.2H2.8zM3.2,0.8H3.6V1.2H3.2zM4,0.8H4.4V1.2H4zM4.4,0.8H4.8V1.2H4.4zM5.2,0.8H5.6V1.2H5.2zM6.4,0.8H6.8V1.2H6.4zM6.8,0.8H7.2V1.2H6.8zM7.2,0.8H7.6V1.2H7.2zM8,0.8H8.4V1.2H8zM9.2,0.8H9.6V1.2H9.2zM9.6,0.8H10V1.2H9.6zM10.4,0.8H10.8V1.2H10.4zM11.2,0.8H11.6V1.2H11.2zM12.4,0.8H12.8V1.2H12.4zM12.8,0.8H13.2V1.2H12.8zM14.4,0.8H14.8V1.2H14.4zM14.8,0.8H15.2V1.2H14.8zM15.2,0.8H15.6V1.2H15.2zM15.6,0.8H16V1.2H15.6zM16,0.8H16.4V1.2H16zM16.4,0.8H16.8V1.2H16.4zM16.8,0.8H17.2V1.2H16.8zM0.8,1.2H1.2V1.6H0.8zM3.2,1.2H3.6V1.6H3.2zM5.6,1.2H6V1.6H5.6zM6,1.2H6.4V1.6H6zM6.4,1.2H6.8V1.6H6.4zM6.8,1.2H7.2V1.6H6.8zM7.6,1.2H8V1.6H7.6zM8,1.2H8.4V1.6H8zM8.8,1.2H9.2V1.6H8.8zM10.8,1.2H11.2V1.6H10.8zM11.2,1.2H11.6V1.6H11.2zM12.4,1.2H12.8V1.6H12.4zM13.6,1.2H14V1.6H13.6zM14.4,1.2H14.8V1.6H14.4zM16.8,1.2H17.2V1.6H16.8zM0.8,1.6H1.2V2H0.8zM1.6,1.6H2V2H1.6zM2,1.6H2.4V2H2zM2.4,1.6H2.8V2H2.4zM3.2,1.6H3.6V2H3.2zM4,1.6H4.4V2H4zM5.2,1.6H5.6V2H5.2zM6.4,1.6H6.8V2H6.4zM7.2,1.6H7.6V2H7.2zM8,1.6H8.4V2H8zM8.4,1.6H8.8V2H8.4zM8.8,1.6H9.2V2H8.8zM9.2,1.6H9.6V2H9.2zM10,1.6H10.4V2H10zM11.2,1.6H11.6V2H11.2zM11.6,1.6H12V2H11.6zM12.4,1.6H12.8V2H12.4zM12.8,1.6H13.2V2H12.8zM13.2,1.6H13.6V2H13.2zM14.4,1.6H14.8V2H14.4zM15.2,1.6H15.6V2H15.2zM15.6,1.6H16V2H15.6zM16,1.6H16.4V2H16zM16.8,1.6H17.2V2H16.8zM0.8,2H1.2V2.4H0.8zM1.6,2H2V2.4H1.6zM2,2H2.4V2.4H2zM2.4,2H2.8V2.4H2.4zM3.2,2H3.6V2.4H3.2zM4.8,2H5.2V2.4H4.8zM5.2,2H5.6V2.4H5.2zM5.6,2H6V2.4H5.6zM6,2H6.4V2.4H6zM8,2H8.4V2.4H8zM8.8,2H9.2V2.4H8.8zM10.4,2H10.8V2.4H10.4zM11.2,2H11.6V2.4H11.2zM12,2H12.4V2.4H12zM12.4,2H12.8V2.4H12.4zM12.8,2H13.2V2.4H12.8zM13.6,2H14V2.4H13.6zM14.4,2H14.8V2.4H14.4zM15.2,2H15.6V2.4H15.2zM15.6,2H16V2.4H15.6zM16,2H16.4V2.4H16zM16.8,2H17.2V2.4H16.8zM0.8,2.4H1.2V2.8H0.8zM1.6,2.4H2V2.8H1.6zM2,2.4H2.4V2.8H2zM2.4,2.4H2.8V2.8H2.4zM3.2,2.4H3.6V2.8H3.2zM4.4,2.4H4.8V2.8H4.4zM4.8,2.4H5.2V2.8H4.8zM5.2,2.4H5.6V2.8H5.2zM6,2.4H6.4V2.8H6zM6.4,2.4H6.8V2.8H6.4zM6.8,2.4H7.2V2.8H6.8zM7.2,2.4H7.6V2.8H7.2zM8,2.4H8.4V2.8H8zM9.2,2.4H9.6V2.8H9.2zM10.8,2.4H11.2V2.8H10.8zM11.2,2.4H11.6V2.8H11.2zM12,2.4H12.4V2.8H12zM12.4,2.4H12.8V2.8H12.4zM12.8,2.4H13.2V2.8H12.8zM13.6,2.4H14V2.8H13.6zM14.4,2.4H14.8V2.8H14.4zM15.2,2.4H15.6V2.8H15.2zM15.6,2.4H16V2.8H15.6zM16,2.4H16.4V2.8H16zM16.8,2.4H17.2V2.8H16.8zM0.8,2.8H1.2V3.2H0.8zM3.2,2.8H3.6V3.2H3.2zM4,2.8H4.4V3.2H4zM4.8,2.8H5.2V3.2H4.8zM5.6,2.8H6V3.2H5.6zM6.4,2.8H6.8V3.2H6.4zM6.8,2.8H7.2V3.2H6.8zM7.6,2.8H8V3.2H7.6zM8,2.8H8.4V3.2H8zM8.8,2.8H9.2V3.2H8.8zM9.2,2.8H9.6V3.2H9.2zM10.4,2.8H10.8V3.2H10.4zM10.8,2.8H11.2V3.2H10.8zM12.8,2.8H13.2V3.2H12.8zM14.4,2.8H14.8V3.2H14.4zM16.8,2.8H17.2V3.2H16.8zM0.8,3.2H1.2V3.6H0.8zM1.2,3.2H1.6V3.6H1.2zM1.6,3.2H2V3.6H1.6zM2,3.2H2.4V3.6H2zM2.4,3.2H2.8V3.6H2.4zM2.8,3.2H3.2V3.6H2.8zM3.2,3.2H3.6V3.6H3.2zM4,3.2H4.4V3.6H4zM4.8,3.2H5.2V3.6H4.8zM5.6,3.2H6V3.6H5.6zM6.4,3.2H6.8V3.6H6.4zM7.2,3.2H7.6V3.6H7.2zM8,3.2H8.4V3.6H8zM8.8,3.2H9.2V3.6H8.8zM9.6,3.2H10V3.6H9.6zM10.4,3.2H10.8V3.6H10.4zM11.2,3.2H11.6V3.6H11.2zM12,3.2H12.4V3.6H12zM12.8,3.2H13.2V3.6H12.8zM13.6,3.2H14V3.6H13.6zM14.4,3.2H14.8V3.6H14.4zM14.8,3.2H15.2V3.6H14.8zM15.2,3.2H15.6V3.6H15.2zM15.6,3.2H16V3.6H15.6zM16,3.2H16.4V3.6H16zM16.4,3.2H16.8V3.6H16.4zM16.8,3.2H17.2V3.6H16.8zM6,3.6H6.4V4H6zM8.8,3.6H9.2V4H8.8zM10,3.6H10.4V4H10zM10.4,3.6H10.8V4H10.4zM13.2,3.6H13.6V4H13.2zM0.8,4H1.2V4.4H0.8zM1.6,4H2V4.4H1.6zM3.2,4H3.6V4.4H3.2zM3.6,4H4V4.4H3.6zM4.8,4H5.2V4.4H4.8zM5.6,4H6V4.4H5.6zM6,4H6.4V4.4H6zM6.4,4H6.8V4.4H6.4zM8.8,4H9.2V4.4H8.8zM11.6,4H12V4.4H11.6zM13.2,4H13.6V4.4H13.2zM14.8,4H15.2V4.4H14.8zM16,4H16.4V4.4H16zM16.8,4H17.2V4.4H16.8zM0.8,4.4H1.2V4.8H0.8zM1.6,4.4H2V4.8H1.6zM2,4.4H2.4V4.8H2zM2.8,4.4H3.2V4.8H2.8zM3.6,4.4H4V4.8H3.6zM4.8,4.4H5.2V4.8H4.8zM5.2,4.4H5.6V4.8H5.2zM5.6,4.4H6V4.8H5.6zM6.4,4.4H6.8V4.8H6.4zM6.8,4.4H7.2V4.8H6.8zM7.2,4.4H7.6V4.8H7.2zM8.4,4.4H8.8V4.8H8.4zM10,4.4H10.4V4.8H10zM10.4,4.4H10.8V4.8H10.4zM11.2,4.4H11.6V4.8H11.2zM11.6,4.4H12V4.8H11.6zM13.2,4.4H13.6V4.8H13.2zM13.6,4.4H14V4.8H13.6zM14.4,4.4H14.8V4.8H14.4zM16,4.4H16.4V4.8H16zM16.4,4.4H16.8V4.8H16.4zM16.8,4.4H17.2V4.8H16.8zM0.8,4.8H1.2V5.2H0.8zM1.2,4.8H1.6V5.2H1.2zM2,4.8H2.4V5.2H2zM2.4,4.8H2.8V5.2H2.4zM2.8,4.8H3.2V5.2H2.8zM3.2,4.8H3.6V5.2H3.2zM8,4.8H8.4V5.2H8zM8.4,4.8H8.8V5.2H8.4zM8.8,4.8H9.2V5.2H8.8zM9.2,4.8H9.6V5.2H9.2zM10,4.8H10.4V5.2H10zM10.4,4.8H10.8V5.2H10.4zM10.8,4.8H11.2V5.2H10.8zM11.6,4.8H12V5.2H11.6zM12,4.8H12.4V5.2H12zM12.4,4.8H12.8V5.2H12.4zM12.8,4.8H13.2V5.2H12.8zM13.2,4.8H13.6V5.2H13.2zM14,4.8H14.4V5.2H14zM14.4,4.8H14.8V5.2H14.4zM15.2,4.8H15.6V5.2H15.2zM15.6,4.8H16V5.2H15.6zM16,4.8H16.4V5.2H16zM16.8,4.8H17.2V5.2H16.8zM0.8,5.2H1.2V5.6H0.8zM1.2,5.2H1.6V5.6H1.2zM1.6,5.2H2V5.6H1.6zM2,5.2H2.4V5.6H2zM2.4,5.2H2.8V5.6H2.4zM2.8,5.2H3.2V5.6H2.8zM3.6,5.2H4V5.6H3.6zM4.8,5.2H5.2V5.6H4.8zM6,5.2H6.4V5.6H6zM6.4,5.2H6.8V5.6H6.4zM6.8,5.2H7.2V5.6H6.8zM7.2,5.2H7.6V5.6H7.2zM8,5.2H8.4V5.6H8zM8.4,5.2H8.8V5.6H8.4zM8.8,5.2H9.2V5.6H8.8zM10.4,5.2H10.8V5.6H10.4zM11.6,5.2H12V5.6H11.6zM12,5.2H12.4V5.6H12zM13.2,5.2H13.6V5.6H13.2zM13.6,5.2H14V5.6H13.6zM14,5.2H14.4V5.6H14zM14.4,5.2H14.8V5.6H14.4zM15.2,5.2H15.6V5.6H15.2zM15.6,5.2H16V5.6H15.6zM16.4,5.2H16.8V5.6H16.4zM0.8,5.6H1.2V6H0.8zM1.2,5.6H1.6V6H1.2zM3.2,5.6H3.6V6H3.2zM3.6,5.6H4V6H3.6zM4,5.6H4.4V6H4zM4.4,5.6H4.8V6H4.4zM4.8,5.6H5.2V6H4.8zM5.6,5.6H6V6H5.6zM10,5.6H10.4V6H10zM10.4,5.6H10.8V6H10.4zM11.2,5.6H11.6V6H11.2zM12,5.6H12.4V6H12zM12.8,5.6H13.2V6H12.8zM14.4,5.6H14.8V6H14.4zM16.4,5.6H16.8V6H16.4zM16.8,5.6H17.2V6H16.8zM2,6H2.4V6.4H2zM2.4,6H2.8V6.4H2.4zM2.8,6H3.2V6.4H2.8zM4.8,6H5.2V6.4H4.8zM5.6,6H6V6.4H5.6zM6,6H6.4V6.4H6zM7.6,6H8V6.4H7.6zM9.2,6H9.6V6.4H9.2zM10.4,6H10.8V6.4H10.4zM10.8,6H11.2V6.4H10.8zM12.4,6H12.8V6.4H12.4zM12.8,6H13.2V6.4H12.8zM13.2,6H13.6V6.4H13.2zM13.6,6H14V6.4H13.6zM14.4,6H14.8V6.4H14.4zM14.8,6H15.2V6.4H14.8zM15.6,6H16V6.4H15.6zM16,6H16.4V6.4H16zM16.4,6H16.8V6.4H16.4zM16.8,6H17.2V6.4H16.8zM0.8,6.4H1.2V6.8H0.8zM1.2,6.4H1.6V6.8H1.2zM1.6,6.4H2V6.8H1.6zM2.8,6.4H3.2V6.8H2.8zM3.2,6.4H3.6V6.8H3.2zM3.6,6.4H4V6.8H3.6zM6.8,6.4H7.2V6.8H6.8zM7.2,6.4H7.6V6.8H7.2zM7.6,6.4H8V6.8H7.6zM8,6.4H8.4V6.8H8zM8.4,6.4H8.8V6.8H8.4zM9.2,6.4H9.6V6.8H9.2zM10.4,6.4H10.8V6.8H10.4zM10.8,6.4H11.2V6.8H10.8zM11.2,6.4H11.6V6.8H11.2zM11.6,6.4H12V6.8H11.6zM12.8,6.4H13.2V6.8H12.8zM13.2,6.4H13.6V6.8H13.2zM14,6.4H14.4V6.8H14zM14.4,6.4H14.8V6.8H14.4zM16.8,6.4H17.2V6.8H16.8zM1.2,6.8H1.6V7.2H1.2zM2,6.8H2.4V7.2H2zM2.4,6.8H2.8V7.2H2.4zM2.8,6.8H3.2V7.2H2.8zM3.6,6.8H4V7.2H3.6zM4.8,6.8H5.2V7.2H4.8zM6.4,6.8H6.8V7.2H6.4zM7.2,6.8H7.6V7.2H7.2zM8,6.8H8.4V7.2H8zM9.6,6.8H10V7.2H9.6zM10,6.8H10.4V7.2H10zM10.4,6.8H10.8V7.2H10.4zM11.2,6.8H11.6V7.2H11.2zM11.6,6.8H12V7.2H11.6zM12,6.8H12.4V7.2H12zM12.8,6.8H13.2V7.2H12.8zM13.6,6.8H14V7.2H13.6zM14,6.8H14.4V7.2H14zM14.4,6.8H14.8V7.2H14.4zM15.6,6.8H16V7.2H15.6zM16.4,6.8H16.8V7.2H16.4zM0.8,7.2H1.2V7.6H0.8zM2,7.2H2.4V7.6H2zM2.4,7.2H2.8V7.6H2.4zM3.2,7.2H3.6V7.6H3.2zM3.6,7.2H4V7.6H3.6zM4,7.2H4.4V7.6H4zM5.6,7.2H6V7.6H5.6zM6,7.2H6.4V7.6H6zM6.4,7.2H6.8V7.6H6.4zM7.2,7.2H7.6V7.6H7.2zM8,7.2H8.4V7.6H8zM8.4,7.2H8.8V7.6H8.4zM8.8,7.2H9.2V7.6H8.8zM12,7.2H12.4V7.6H12zM13.2,7.2H13.6V7.6H13.2zM13.6,7.2H14V7.6H13.6zM14,7.2H14.4V7.6H14zM14.4,7.2H14.8V7.6H14.4zM16.8,7.2H17.2V7.6H16.8zM1.2,7.6H1.6V8H1.2zM2,7.6H2.4V8H2zM2.4,7.6H2.8V8H2.4zM3.6,7.6H4V8H3.6zM4.4,7.6H4.8V8H4.4zM6,7.6H6.4V8H6zM7.2,7.6H7.6V8H7.2zM8.4,7.6H8.8V8H8.4zM8.8,7.6H9.2V8H8.8zM9.2,7.6H9.6V8H9.2zM10,7.6H10.4V8H10zM10.4,7.6H10.8V8H10.4zM11.6,7.6H12V8H11.6zM12,7.6H12.4V8H12zM12.4,7.6H12.8V8H12.4zM13.2,7.6H13.6V8H13.2zM13.6,7.6H14V8H13.6zM14,7.6H14.4V8H14zM14.4,7.6H14.8V8H14.4zM14.8,7.6H15.2V8H14.8zM16.8,7.6H17.2V8H16.8zM2.4,8H2.8V8.4H2.4zM2.8,8H3.2V8.4H2.8zM3.2,8H3.6V8.4H3.2zM3.6,8H4V8.4H3.6zM4,8H4.4V8.4H4zM4.4,8H4.8V8.4H4.4zM4.8,8H5.2V8.4H4.8zM5.2,8H5.6V8.4H5.2zM5.6,8H6V8.4H5.6zM6.4,8H6.8V8.4H6.4zM6.8,8H7.2V8.4H6.8zM7.2,8H7.6V8.4H7.2zM7.6,8H8V8.4H7.6zM8,8H8.4V8.4H8zM8.4,8H8.8V8.4H8.4zM10,8H10.4V8.4H10zM10.8,8H11.2V8.4H10.8zM11.2,8H11.6V8.4H11.2zM11.6,8H12V8.4H11.6zM12.4,8H12.8V8.4H12.4zM12.8,8H13.2V8.4H12.8zM13.2,8H13.6V8.4H13.2zM14.4,8H14.8V8.4H14.4zM14.8,8H15.2V8.4H14.8zM15.2,8H15.6V8.4H15.2zM15.6,8H16V8.4H15.6zM16.4,8H16.8V8.4H16.4zM16.8,8H17.2V8.4H16.8zM2,8.4H2.4V8.8H2zM4,8.4H4.4V8.8H4zM4.4,8.4H4.8V8.8H4.4zM5.6,8.4H6V8.8H5.6zM6,8.4H6.4V8.8H6zM6.4,8.4H6.8V8.8H6.4zM6.8,8.4H7.2V8.8H6.8zM8,8.4H8.4V8.8H8zM8.8,8.4H9.2V8.8H8.8zM9.2,8.4H9.6V8.8H9.2zM10,8.4H10.4V8.8H10zM11.2,8.4H11.6V8.8H11.2zM12,8.4H12.4V8.8H12zM12.8,8.4H13.2V8.8H12.8zM13.6,8.4H14V8.8H13.6zM15.6,8.4H16V8.8H15.6zM16.4,8.4H16.8V8.8H16.4zM0.8,8.8H1.2V9.2H0.8zM2.4,8.8H2.8V9.2H2.4zM3.2,8.8H3.6V9.2H3.2zM3.6,8.8H4V9.2H3.6zM4,8.8H4.4V9.2H4zM5.2,8.8H5.6V9.2H5.2zM6.8,8.8H7.2V9.2H6.8zM7.2,8.8H7.6V9.2H7.2zM7.6,8.8H8V9.2H7.6zM8,8.8H8.4V9.2H8zM8.8,8.8H9.2V9.2H8.8zM9.2,8.8H9.6V9.2H9.2zM10,8.8H10.4V9.2H10zM10.4,8.8H10.8V9.2H10.4zM10.8,8.8H11.2V9.2H10.8zM11.2,8.8H11.6V9.2H11.2zM13.2,8.8H13.6V9.2H13.2zM14.4,8.8H14.8V9.2H14.4zM15.6,8.8H16V9.2H15.6zM0.8,9.2H1.2V9.6H0.8zM1.2,9.2H1.6V9.6H1.2zM2,9.2H2.4V9.6H2zM2.8,9.2H3.2V9.6H2.8zM3.6,9.2H4V9.6H3.6zM4,9.2H4.4V9.6H4zM4.8,9.2H5.2V9.6H4.8zM6.4,9.2H6.8V9.6H6.4zM6.8,9.2H7.2V9.6H6.8zM7.2,9.2H7.6V9.6H7.2zM8,9.2H8.4V9.6H8zM8.4,9.2H8.8V9.6H8.4zM10,9.2H10.4V9.6H10zM11.2,9.2H11.6V9.6H11.2zM11.6,9.2H12V9.6H11.6zM12.8,9.2H13.2V9.6H12.8zM13.2,9.2H13.6V9.6H13.2zM14,9.2H14.4V9.6H14zM14.4,9.2H14.8V9.6H14.4zM14.8,9.2H15.2V9.6H14.8zM15.6,9.2H16V9.6H15.6zM16.8,9.2H17.2V9.6H16.8zM0.8,9.6H1.2V10H0.8zM1.2,9.6H1.6V10H1.2zM2,9.6H2.4V10H2zM3.2,9.6H3.6V10H3.2zM4.4,9.6H4.8V10H4.4zM5.2,9.6H5.6V10H5.2zM6,9.6H6.4V10H6zM8,9.6H8.4V10H8zM8.4,9.6H8.8V10H8.4zM8.8,9.6H9.2V10H8.8zM9.2,9.6H9.6V10H9.2zM9.6,9.6H10V10H9.6zM10,9.6H10.4V10H10zM10.4,9.6H10.8V10H10.4zM10.8,9.6H11.2V10H10.8zM11.6,9.6H12V10H11.6zM12.4,9.6H12.8V10H12.4zM13.2,9.6H13.6V10H13.2zM15.2,9.6H15.6V10H15.2zM15.6,9.6H16V10H15.6zM16,9.6H16.4V10H16zM16.8,9.6H17.2V10H16.8zM0.8,10H1.2V10.4H0.8zM1.2,10H1.6V10.4H1.2zM2,10H2.4V10.4H2zM2.4,10H2.8V10.4H2.4zM4.4,10H4.8V10.4H4.4zM5.2,10H5.6V10.4H5.2zM5.6,10H6V10.4H5.6zM6.8,10H7.2V10.4H6.8zM8,10H8.4V10.4H8zM9.6,10H10V10.4H9.6zM10.4,10H10.8V10.4H10.4zM11.6,10H12V10.4H11.6zM12,10H12.4V10.4H12zM12.8,10H13.2V10.4H12.8zM13.2,10H13.6V10.4H13.2zM13.6,10H14V10.4H13.6zM14,10H14.4V10.4H14zM14.8,10H15.2V10.4H14.8zM15.2,10H15.6V10.4H15.2zM15.6,10H16V10.4H15.6zM16.4,10H16.8V10.4H16.4zM1.6,10.4H2V10.8H1.6zM3.2,10.4H3.6V10.8H3.2zM3.6,10.4H4V10.8H3.6zM5.6,10.4H6V10.8H5.6zM6.4,10.4H6.8V10.8H6.4zM6.8,10.4H7.2V10.8H6.8zM7.2,10.4H7.6V10.8H7.2zM8.8,10.4H9.2V10.8H8.8zM10,10.4H10.4V10.8H10zM10.4,10.4H10.8V10.8H10.4zM12,10.4H12.4V10.8H12zM13.6,10.4H14V10.8H13.6zM14.4,10.4H14.8V10.8H14.4zM15.6,10.4H16V10.8H15.6zM0.8,10.8H1.2V11.2H0.8zM1.2,10.8H1.6V11.2H1.2zM1.6,10.8H2V11.2H1.6zM2,10.8H2.4V11.2H2zM2.4,10.8H2.8V11.2H2.4zM3.6,10.8H4V11.2H3.6zM4.4,10.8H4.8V11.2H4.4zM4.8,10.8H5.2V11.2H4.8zM5.2,10.8H5.6V11.2H5.2zM6.4,10.8H6.8V11.2H6.4zM6.8,10.8H7.2V11.2H6.8zM7.2,10.8H7.6V11.2H7.2zM8.4,10.8H8.8V11.2H8.4zM8.8,10.8H9.2V11.2H8.8zM10,10.8H10.4V11.2H10zM10.4,10.8H10.8V11.2H10.4zM10.8,10.8H11.2V11.2H10.8zM11.2,10.8H11.6V11.2H11.2zM11.6,10.8H12V11.2H11.6zM13.2,10.8H13.6V11.2H13.2zM14,10.8H14.4V11.2H14zM14.4,10.8H14.8V11.2H14.4zM14.8,10.8H15.2V11.2H14.8zM15.6,10.8H16V11.2H15.6zM16.8,10.8H17.2V11.2H16.8zM1.2,11.2H1.6V11.6H1.2zM2,11.2H2.4V11.6H2zM2.8,11.2H3.2V11.6H2.8zM3.2,11.2H3.6V11.6H3.2zM3.6,11.2H4V11.6H3.6zM4.4,11.2H4.8V11.6H4.4zM4.8,11.2H5.2V11.6H4.8zM5.2,11.2H5.6V11.6H5.2zM5.6,11.2H6V11.6H5.6zM6,11.2H6.4V11.6H6zM6.8,11.2H7.2V11.6H6.8zM7.2,11.2H7.6V11.6H7.2zM7.6,11.2H8V11.6H7.6zM8.4,11.2H8.8V11.6H8.4zM9.2,11.2H9.6V11.6H9.2zM10,11.2H10.4V11.6H10zM11.6,11.2H12V11.6H11.6zM12,11.2H12.4V11.6H12zM12.8,11.2H13.2V11.6H12.8zM13.2,11.2H13.6V11.6H13.2zM14.4,11.2H14.8V11.6H14.4zM14.8,11.2H15.2V11.6H14.8zM15.2,11.2H15.6V11.6H15.2zM15.6,11.2H16V11.6H15.6zM16,11.2H16.4V11.6H16zM16.8,11.2H17.2V11.6H16.8zM0.8,11.6H1.2V12H0.8zM1.2,11.6H1.6V12H1.2zM2,11.6H2.4V12H2zM4,11.6H4.4V12H4zM4.4,11.6H4.8V12H4.4zM6,11.6H6.4V12H6zM6.4,11.6H6.8V12H6.4zM7.2,11.6H7.6V12H7.2zM8,11.6H8.4V12H8zM8.4,11.6H8.8V12H8.4zM8.8,11.6H9.2V12H8.8zM9.6,11.6H10V12H9.6zM10,11.6H10.4V12H10zM10.4,11.6H10.8V12H10.4zM11.2,11.6H11.6V12H11.2zM13.2,11.6H13.6V12H13.2zM13.6,11.6H14V12H13.6zM14,11.6H14.4V12H14zM14.8,11.6H15.2V12H14.8zM15.6,11.6H16V12H15.6zM2,12H2.4V12.4H2zM2.4,12H2.8V12.4H2.4zM3.2,12H3.6V12.4H3.2zM3.6,12H4V12.4H3.6zM4,12H4.4V12.4H4zM4.8,12H5.2V12.4H4.8zM5.6,12H6V12.4H5.6zM7.2,12H7.6V12.4H7.2zM8.8,12H9.2V12.4H8.8zM11.2,12H11.6V12.4H11.2zM12,12H12.4V12.4H12zM12.8,12H13.2V12.4H12.8zM14.4,12H14.8V12.4H14.4zM16.8,12H17.2V12.4H16.8zM1.2,12.4H1.6V12.8H1.2zM1.6,12.4H2V12.8H1.6zM2.4,12.4H2.8V12.8H2.4zM2.8,12.4H3.2V12.8H2.8zM4.4,12.4H4.8V12.8H4.4zM4.8,12.4H5.2V12.8H4.8zM5.2,12.4H5.6V12.8H5.2zM6,12.4H6.4V12.8H6zM7.2,12.4H7.6V12.8H7.2zM7.6,12.4H8V12.8H7.6zM8.8,12.4H9.2V12.8H8.8zM11.2,12.4H11.6V12.8H11.2zM11.6,12.4H12V12.8H11.6zM12.4,12.4H12.8V12.8H12.4zM12.8,12.4H13.2V12.8H12.8zM13.2,12.4H13.6V12.8H13.2zM13.6,12.4H14V12.8H13.6zM14.4,12.4H14.8V12.8H14.4zM14.8,12.4H15.2V12.8H14.8zM16.4,12.4H16.8V12.8H16.4zM16.8,12.4H17.2V12.8H16.8zM0.8,12.8H1.2V13.2H0.8zM1.2,12.8H1.6V13.2H1.2zM3.2,12.8H3.6V13.2H3.2zM4,12.8H4.4V13.2H4zM5.6,12.8H6V13.2H5.6zM6.4,12.8H6.8V13.2H6.4zM7.6,12.8H8V13.2H7.6zM8.8,12.8H9.2V13.2H8.8zM10,12.8H10.4V13.2H10zM11.6,12.8H12V13.2H11.6zM12.4,12.8H12.8V13.2H12.4zM13.2,12.8H13.6V13.2H13.2zM14,12.8H14.4V13.2H14zM15.6,12.8H16V13.2H15.6zM16,12.8H16.4V13.2H16zM16.8,12.8H17.2V13.2H16.8zM1.6,13.2H2V13.6H1.6zM2,13.2H2.4V13.6H2zM2.8,13.2H3.2V13.6H2.8zM3.6,13.2H4V13.6H3.6zM4.4,13.2H4.8V13.6H4.4zM5.2,13.2H5.6V13.6H5.2zM5.6,13.2H6V13.6H5.6zM6.4,13.2H6.8V13.6H6.4zM6.8,13.2H7.2V13.6H6.8zM8,13.2H8.4V13.6H8zM8.4,13.2H8.8V13.6H8.4zM8.8,13.2H9.2V13.6H8.8zM9.6,13.2H10V13.6H9.6zM11.2,13.2H11.6V13.6H11.2zM13.2,13.2H13.6V13.6H13.2zM14.4,13.2H14.8V13.6H14.4zM14.8,13.2H15.2V13.6H14.8zM15.2,13.2H15.6V13.6H15.2zM15.6,13.2H16V13.6H15.6zM16.4,13.2H16.8V13.6H16.4zM16.8,13.2H17.2V13.6H16.8zM0.8,13.6H1.2V14H0.8zM1.2,13.6H1.6V14H1.2zM2.4,13.6H2.8V14H2.4zM3.2,13.6H3.6V14H3.2zM4.8,13.6H5.2V14H4.8zM5.2,13.6H5.6V14H5.2zM6,13.6H6.4V14H6zM6.4,13.6H6.8V14H6.4zM7.2,13.6H7.6V14H7.2zM8.8,13.6H9.2V14H8.8zM10,13.6H10.4V14H10zM12,13.6H12.4V14H12zM13.2,13.6H13.6V14H13.2zM13.6,13.6H14V14H13.6zM14,13.6H14.4V14H14zM14.4,13.6H14.8V14H14.4zM14.8,13.6H15.2V14H14.8zM15.2,13.6H15.6V14H15.2zM15.6,13.6H16V14H15.6zM16.4,13.6H16.8V14H16.4zM16.8,13.6H17.2V14H16.8zM4,14H4.4V14.4H4zM4.4,14H4.8V14.4H4.4zM5.2,14H5.6V14.4H5.2zM5.6,14H6V14.4H5.6zM6,14H6.4V14.4H6zM7.6,14H8V14.4H7.6zM8.4,14H8.8V14.4H8.4zM10,14H10.4V14.4H10zM10.4,14H10.8V14.4H10.4zM10.8,14H11.2V14.4H10.8zM11.6,14H12V14.4H11.6zM12.8,14H13.2V14.4H12.8zM13.6,14H14V14.4H13.6zM15.2,14H15.6V14.4H15.2zM16,14H16.4V14.4H16zM16.8,14H17.2V14.4H16.8zM0.8,14.4H1.2V14.8H0.8zM1.2,14.4H1.6V14.8H1.2zM1.6,14.4H2V14.8H1.6zM2,14.4H2.4V14.8H2zM2.4,14.4H2.8V14.8H2.4zM2.8,14.4H3.2V14.8H2.8zM3.2,14.4H3.6V14.8H3.2zM4,14.4H4.4V14.8H4zM4.4,14.4H4.8V14.8H4.4zM4.8,14.4H5.2V14.8H4.8zM5.6,14.4H6V14.8H5.6zM6.4,14.4H6.8V14.8H6.4zM6.8,14.4H7.2V14.8H6.8zM8.4,14.4H8.8V14.8H8.4zM9.2,14.4H9.6V14.8H9.2zM9.6,14.4H10V14.8H9.6zM10,14.4H10.4V14.8H10zM11.6,14.4H12V14.8H11.6zM12.4,14.4H12.8V14.8H12.4zM13.6,14.4H14V14.8H13.6zM14.4,14.4H14.8V14.8H14.4zM15.2,14.4H15.6V14.8H15.2zM16,14.4H16.4V14.8H16zM16.8,14.4H17.2V14.8H16.8zM0.8,14.8H1.2V15.2H0.8zM3.2,14.8H3.6V15.2H3.2zM4.4,14.8H4.8V15.2H4.4zM4.8,14.8H5.2V15.2H4.8zM5.2,14.8H5.6V15.2H5.2zM6.4,14.8H6.8V15.2H6.4zM7.6,14.8H8V15.2H7.6zM8.4,14.8H8.8V15.2H8.4zM8.8,14.8H9.2V15.2H8.8zM9.6,14.8H10V15.2H9.6zM10.4,14.8H10.8V15.2H10.4zM10.8,14.8H11.2V15.2H10.8zM13.2,14.8H13.6V15.2H13.2zM13.6,14.8H14V15.2H13.6zM15.2,14.8H15.6V15.2H15.2zM15.6,14.8H16V15.2H15.6zM16.4,14.8H16.8V15.2H16.4zM16.8,14.8H17.2V15.2H16.8zM0.8,15.2H1.2V15.6H0.8zM1.6,15.2H2V15.6H1.6zM2,15.2H2.4V15.6H2zM2.4,15.2H2.8V15.6H2.4zM3.2,15.2H3.6V15.6H3.2zM4.4,15.2H4.8V15.6H4.4zM5.2,15.2H5.6V15.6H5.2zM5.6,15.2H6V15.6H5.6zM6,15.2H6.4V15.6H6zM6.8,15.2H7.2V15.6H6.8zM7.6,15.2H8V15.6H7.6zM8.8,15.2H9.2V15.6H8.8zM9.2,15.2H9.6V15.6H9.2zM9.6,15.2H10V15.6H9.6zM10,15.2H10.4V15.6H10zM10.8,15.2H11.2V15.6H10.8zM12,15.2H12.4V15.6H12zM13.2,15.2H13.6V15.6H13.2zM13.6,15.2H14V15.6H13.6zM14,15.2H14.4V15.6H14zM14.4,15.2H14.8V15.6H14.4zM14.8,15.2H15.2V15.6H14.8zM15.2,15.2H15.6V15.6H15.2zM0.8,15.6H1.2V16H0.8zM1.6,15.6H2V16H1.6zM2,15.6H2.4V16H2zM2.4,15.6H2.8V16H2.4zM3.2,15.6H3.6V16H3.2zM4.8,15.6H5.2V16H4.8zM5.2,15.6H5.6V16H5.2zM5.6,15.6H6V16H5.6zM6.8,15.6H7.2V16H6.8zM7.2,15.6H7.6V16H7.2zM8.4,15.6H8.8V16H8.4zM8.8,15.6H9.2V16H8.8zM9.6,15.6H10V16H9.6zM10,15.6H10.4V16H10zM11.6,15.6H12V16H11.6zM12.8,15.6H13.2V16H12.8zM13.2,15.6H13.6V16H13.2zM13.6,15.6H14V16H13.6zM14.8,15.6H15.2V16H14.8zM15.2,15.6H15.6V16H15.2zM16.4,15.6H16.8V16H16.4zM0.8,16H1.2V16.4H0.8zM1.6,16H2V16.4H1.6zM2,16H2.4V16.4H2zM2.4,16H2.8V16.4H2.4zM3.2,16H3.6V16.4H3.2zM4,16H4.4V16.4H4zM4.4,16H4.8V16.4H4.4zM5.2,16H5.6V16.4H5.2zM8,16H8.4V16.4H8zM8.4,16H8.8V16.4H8.4zM10,16H10.4V16.4H10zM10.4,16H10.8V16.4H10.4zM11.6,16H12V16.4H11.6zM12,16H12.4V16.4H12zM12.8,16H13.2V16.4H12.8zM13.6,16H14V16.4H13.6zM14,16H14.4V16.4H14zM15.2,16H15.6V16.4H15.2zM16,16H16.4V16.4H16zM16.8,16H17.2V16.4H16.8zM0.8,16.4H1.2V16.8H0.8zM3.2,16.4H3.6V16.8H3.2zM4.8,16.4H5.2V16.8H4.8zM5.2,16.4H5.6V16.8H5.2zM6.4,16.4H6.8V16.8H6.4zM6.8,16.4H7.2V16.8H6.8zM7.2,16.4H7.6V16.8H7.2zM8.4,16.4H8.8V16.8H8.4zM9.6,16.4H10V16.8H9.6zM11.2,16.4H11.6V16.8H11.2zM11.6,16.4H12V16.8H11.6zM12,16.4H12.4V16.8H12zM12.8,16.4H13.2V16.8H12.8zM13.6,16.4H14V16.8H13.6zM0.8,16.8H1.2V17.2H0.8zM1.2,16.8H1.6V17.2H1.2zM1.6,16.8H2V17.2H1.6zM2,16.8H2.4V17.2H2zM2.4,16.8H2.8V17.2H2.4zM2.8,16.8H3.2V17.2H2.8zM3.2,16.8H3.6V17.2H3.2zM4,16.8H4.4V17.2H4zM4.4,16.8H4.8V17.2H4.4zM5.2,16.8H5.6V17.2H5.2zM6.8,16.8H7.2V17.2H6.8zM7.2,16.8H7.6V17.2H7.2zM8.4,16.8H8.8V17.2H8.4zM8.8,16.8H9.2V17.2H8.8zM10,16.8H10.4V17.2H10zM10.4,16.8H10.8V17.2H10.4zM11.6,16.8H12V17.2H11.6zM12,16.8H12.4V17.2H12zM13.2,16.8H13.6V17.2H13.2zM13.6,16.8H14V17.2H13.6zM15.2,16.8H15.6V17.2H15.2zM15.6,16.8H16V17.2H15.6zM16.8,16.8H17.2V17.2H16.8z"/>
  </g>
</g>
</svg>
