<svg xmlns="http://www.w3.org/2000/svg" viewBox="0 0 1200 630" width="1200" height="630" role="img" aria-label="Tech Security Weekly Digest March 06 2026: Cisco SD-WAN CVE-2026-20122 active exploit, Tycoon 2FA PhaaS takedown, GPT-5.4 launch">
<!-- profile: high-quality-cover (L20 Hero+2-Card, research-based, batch3a-locked) -->
<title>Cisco SD-WAN CVE, Tycoon 2FA takedown, GPT-5.4</title>
<defs>
  <linearGradient id="bgMain" x1="0%" y1="0%" x2="100%" y2="100%">
    <stop offset="0%" stop-color="#080E1C"/>
    <stop offset="50%" stop-color="#0A1220"/>
    <stop offset="100%" stop-color="#0E1528"/>
  </linearGradient>
  <linearGradient id="heroBg" x1="0%" y1="0%" x2="0%" y2="100%">
    <stop offset="0%" stop-color="#12213E"/>
    <stop offset="100%" stop-color="#0E1A33"/>
  </linearGradient>
  <linearGradient id="heroStripe" x1="0%" y1="0%" x2="100%" y2="0%">
    <stop offset="0%" stop-color="#E63946"/>
    <stop offset="100%" stop-color="#C1121F"/>
  </linearGradient>
  <linearGradient id="card1Bg" x1="0%" y1="0%" x2="0%" y2="100%">
    <stop offset="0%" stop-color="#1A1A2E"/>
    <stop offset="100%" stop-color="#16213E"/>
  </linearGradient>
  <linearGradient id="card1Stripe" x1="0%" y1="0%" x2="100%" y2="0%">
    <stop offset="0%" stop-color="#FF9500"/>
    <stop offset="100%" stop-color="#E07B00"/>
  </linearGradient>
  <linearGradient id="card2Bg" x1="0%" y1="0%" x2="0%" y2="100%">
    <stop offset="0%" stop-color="#0F1F35"/>
    <stop offset="100%" stop-color="#0C1929"/>
  </linearGradient>
  <linearGradient id="card2Stripe" x1="0%" y1="0%" x2="100%" y2="0%">
    <stop offset="0%" stop-color="#00C2FF"/>
    <stop offset="100%" stop-color="#0080E0"/>
  </linearGradient>
  <linearGradient id="shieldGrad" x1="0%" y1="0%" x2="0%" y2="100%">
    <stop offset="0%" stop-color="#1C3A6E"/>
    <stop offset="100%" stop-color="#0E2050"/>
  </linearGradient>
  <linearGradient id="kpiHero" x1="0%" y1="0%" x2="100%" y2="0%">
    <stop offset="0%" stop-color="#E63946" stop-opacity="0.25"/>
    <stop offset="100%" stop-color="#E63946" stop-opacity="0.08"/>
  </linearGradient>
  <linearGradient id="kpiCard1" x1="0%" y1="0%" x2="100%" y2="0%">
    <stop offset="0%" stop-color="#FF9500" stop-opacity="0.25"/>
    <stop offset="100%" stop-color="#FF9500" stop-opacity="0.08"/>
  </linearGradient>
  <linearGradient id="kpiCard2" x1="0%" y1="0%" x2="100%" y2="0%">
    <stop offset="0%" stop-color="#00C2FF" stop-opacity="0.25"/>
    <stop offset="100%" stop-color="#00C2FF" stop-opacity="0.08"/>
  </linearGradient>
  <radialGradient id="glowRed" cx="50%" cy="50%" r="50%">
    <stop offset="0%" stop-color="#E63946" stop-opacity="0.45"/>
    <stop offset="100%" stop-color="#E63946" stop-opacity="0"/>
  </radialGradient>
  <radialGradient id="glowAmber" cx="50%" cy="50%" r="50%">
    <stop offset="0%" stop-color="#FF9500" stop-opacity="0.35"/>
    <stop offset="100%" stop-color="#FF9500" stop-opacity="0"/>
  </radialGradient>
  <radialGradient id="glowCyan" cx="50%" cy="50%" r="50%">
    <stop offset="0%" stop-color="#00C2FF" stop-opacity="0.3"/>
    <stop offset="100%" stop-color="#00C2FF" stop-opacity="0"/>
  </radialGradient>
  <pattern id="dotGrid" x="0" y="0" width="32" height="32" patternUnits="userSpaceOnUse">
    <circle cx="16" cy="16" r="0.7" fill="#2A3A5C" opacity="0.5"/>
  </pattern>
  <clipPath id="heroClip">
    <rect x="32" y="80" width="600" height="510" rx="10"/>
  </clipPath>
  <clipPath id="card1Clip">
    <rect x="652" y="80" width="516" height="248" rx="10"/>
  </clipPath>
  <clipPath id="card2Clip">
    <rect x="652" y="344" width="516" height="246" rx="10"/>
  </clipPath>
  <filter id="iconGlow" x="-20%" y="-20%" width="140%" height="140%">
    <feGaussianBlur in="SourceGraphic" stdDeviation="2.5" result="blur"/>
    <feMerge><feMergeNode in="blur"/><feMergeNode in="SourceGraphic"/></feMerge>
  </filter>
  <marker id="arrowRed" markerWidth="8" markerHeight="8" refX="6" refY="3" orient="auto">
    <path d="M0,0 L0,6 L8,3 z" fill="#E63946"/>
  </marker>
<filter id="softShadow" x="-10%" y="-10%" width="130%" height="130%"><feGaussianBlur in="SourceAlpha" stdDeviation="2.5"/><feOffset dx="1" dy="3"/><feComponentTransfer><feFuncA type="linear" slope="0.55"/></feComponentTransfer><feMerge><feMergeNode/><feMergeNode in="SourceGraphic"/></feMerge></filter></defs>

<!-- GLOBAL BACKGROUND -->
<rect width="1200" height="630" fill="url(#bgMain)"/>
<rect width="1200" height="630" fill="url(#dotGrid)" opacity="0.6"/>

<!-- Header bar -->
<rect x="0" y="0" width="1200" height="68" fill="#080E1C" opacity="0.9"/>
<rect x="0" y="0" width="1200" height="2" fill="#E63946"/>
<text x="32" y="22" font-family="Helvetica Neue,Arial,sans-serif" font-size="10" font-weight="700" letter-spacing="3" fill="#E63946">TECH SECURITY WEEKLY DIGEST</text>
<text x="32" y="48" font-family="Helvetica Neue,Arial,sans-serif" font-size="22" font-weight="800" letter-spacing="1" fill="#FFFFFF">2026.03.06</text>
<text x="1168" y="42" font-family="Helvetica Neue,Arial,sans-serif" font-size="11" font-weight="600" letter-spacing="1.5" fill="#8899BB" text-anchor="end">SECURITY  /  AI  /  CLOUD</text>
<line x1="32" y1="68" x2="1168" y2="68" stroke="#1E2F4E" stroke-width="1"/>

<!-- ========================================= -->
<!-- HERO PANEL: Cisco SD-WAN CVE-2026-20122  -->
<!-- LEFT 600x510 at (32,80)                  -->
<!-- ========================================= -->
<g clip-path="url(#heroClip)">
  <rect x="32" y="80" width="600" height="510" rx="10" fill="url(#heroBg)"/>
  <rect x="32" y="80" width="600" height="4" fill="url(#heroStripe)"/>
  <ellipse cx="232" cy="350" rx="200" ry="160" fill="url(#glowRed)" opacity="0.45">
    <animate attributeName="opacity" values="0.35;0.65;0.35" dur="5.5s" repeatCount="indefinite"/>
  </ellipse>
  <!-- Grid lines -->
  <line x1="32" y1="210" x2="632" y2="210" stroke="#1A2D4E" stroke-width="0.5" opacity="0.4"/>
  <line x1="32" y1="330" x2="632" y2="330" stroke="#1A2D4E" stroke-width="0.5" opacity="0.4"/>
  <line x1="32" y1="450" x2="632" y2="450" stroke="#1A2D4E" stroke-width="0.5" opacity="0.4"/>
  <line x1="220" y1="80" x2="220" y2="590" stroke="#1A2D4E" stroke-width="0.5" opacity="0.4"/>
  <line x1="420" y1="80" x2="420" y2="590" stroke="#1A2D4E" stroke-width="0.5" opacity="0.4"/>
</g>

<!-- Hero text -->
<text x="52" y="112" font-family="Helvetica Neue,Arial,sans-serif" font-size="10" font-weight="700" letter-spacing="2.5" fill="#E63946">CRITICAL EXPLOIT  /  ACTIVELY EXPLOITED</text>
<text x="52" y="138" font-family="Helvetica Neue,Arial,sans-serif" font-size="23" font-weight="800" fill="#FFFFFF">Cisco SD-WAN CVE-2026-20122</text>
<text x="52" y="160" font-family="Helvetica Neue,Arial,sans-serif" font-size="14" font-weight="400" fill="#8CAAD4">Catalyst SD-WAN Manager -- arbitrary file overwrite</text>

<!-- HERO ILLUSTRATION -->
<!-- Router body -->
<g filter="url(#iconGlow)">
  <rect x="120" y="228" width="200" height="82" rx="8" fill="#1C3A6E" stroke="#2A5090" stroke-width="1.5"/>
  <rect x="120" y="228" width="200" height="9" rx="8" fill="#2A5A9A" opacity="0.5"/>
  <!-- LEDs -->
  <circle cx="148" cy="252" r="4.5" fill="#E63946">
    <animate attributeName="fill" values="#E63946;#FF6878;#E63946" dur="1.1s" repeatCount="indefinite"/>
  </circle>
  <circle cx="168" cy="252" r="4.5" fill="#E63946">
    <animate attributeName="fill" values="#E63946;#FF6878;#E63946" dur="1.4s" repeatCount="indefinite"/>
  </circle>
  <circle cx="188" cy="252" r="4.5" fill="#FF9500">
    <animate attributeName="fill" values="#FF9500;#FFB040;#FF9500" dur="0.9s" repeatCount="indefinite"/>
  </circle>
  <circle cx="208" cy="252" r="4.5" fill="#34D058">
    <animate attributeName="fill" values="#34D058;#5AE07A;#34D058" dur="2.1s" repeatCount="indefinite"/>
  </circle>
  <text x="220" y="276" font-family="Helvetica Neue,Arial,sans-serif" font-size="8.5" font-weight="700" fill="#6A8ABE" text-anchor="middle">CATALYST SD-WAN MANAGER</text>
  <!-- Ports -->
  <rect x="135" y="284" width="13" height="7" rx="1.5" fill="#0E2050"/>
  <rect x="153" y="284" width="13" height="7" rx="1.5" fill="#0E2050"/>
  <rect x="171" y="284" width="13" height="7" rx="1.5" fill="#0E2050"/>
  <rect x="189" y="284" width="13" height="7" rx="1.5" fill="#0E2050"/>
  <rect x="207" y="284" width="13" height="7" rx="1.5" fill="#0E2050"/>
  <!-- Antennas -->
  <line x1="148" y1="228" x2="136" y2="200" stroke="#2A5090" stroke-width="2"/>
  <circle cx="136" cy="198" r="3.5" fill="#3A70C0"/>
  <line x1="292" y1="228" x2="304" y2="200" stroke="#2A5090" stroke-width="2"/>
  <circle cx="304" cy="198" r="3.5" fill="#3A70C0"/>
</g>

<!-- Router glow halo -->
<ellipse cx="220" cy="270" rx="130" ry="65" fill="url(#glowRed)" opacity="0.35">
  <animate attributeName="opacity" values="0.25;0.55;0.25" dur="3s" repeatCount="indefinite"/>
</ellipse>

<!-- Attack arrow -->
<path d="M62,270 L116,270" stroke="#E63946" stroke-width="2.2" fill="none" stroke-dasharray="6,3" marker-end="url(#arrowRed)">
  <animate attributeName="stroke-dashoffset" values="18;0" dur="0.9s" repeatCount="indefinite"/>
</path>
<text x="62" y="262" font-family="Helvetica Neue,Arial,sans-serif" font-size="8.5" fill="#E63946" font-weight="700">REMOTE</text>
<text x="62" y="282" font-family="Helvetica Neue,Arial,sans-serif" font-size="8.5" fill="#E63946" font-weight="700">ATTACK</text>

<!-- Broken shield -->
<g transform="translate(358,218)">
  <path d="M55,8 L100,26 L100,74 Q100,110 55,128 Q10,110 10,74 L10,26 Z" fill="url(#shieldGrad)" stroke="#2A5090" stroke-width="1.5"/>
  <path d="M55,28 L45,68 L60,73 L50,110" stroke="#E63946" stroke-width="3" fill="none" stroke-linecap="round">
    <animate attributeName="opacity" values="0.5;1;0.5" dur="2s" repeatCount="indefinite"/>
  </path>
  <line x1="38" y1="55" x2="72" y2="89" stroke="#E63946" stroke-width="2.2" opacity="0.8"/>
  <line x1="72" y1="55" x2="38" y2="89" stroke="#E63946" stroke-width="2.2" opacity="0.8"/>
  <text x="55" y="148" font-family="Helvetica Neue,Arial,sans-serif" font-size="8" font-weight="700" fill="#E63946" text-anchor="middle" letter-spacing="1">BREACHED</text>
</g>

<!-- File overwrite illustration -->
<g transform="translate(52,348)">
  <rect x="8" y="8" width="72" height="90" rx="4" fill="#0E1E36" stroke="#1E3A60" stroke-width="1"/>
  <rect x="4" y="4" width="72" height="90" rx="4" fill="#12243E" stroke="#1E3A60" stroke-width="1"/>
  <rect x="0" y="0" width="72" height="90" rx="4" fill="#162840" stroke="#2A4A78" stroke-width="1.5"/>
  <path d="M52,0 L72,20 L52,20 Z" fill="#0E1E36"/>
  <line x1="10" y1="32" x2="62" y2="32" stroke="#2A4A78" stroke-width="1.2"/>
  <line x1="10" y1="44" x2="62" y2="44" stroke="#2A4A78" stroke-width="1.2"/>
  <line x1="10" y1="56" x2="48" y2="56" stroke="#2A4A78" stroke-width="1.2"/>
  <rect x="0" y="0" width="72" height="90" rx="4" fill="#E63946" opacity="0.12">
    <animate attributeName="opacity" values="0.08;0.22;0.08" dur="2.5s" repeatCount="indefinite"/>
  </rect>
  <text x="36" y="76" font-family="Helvetica Neue,Arial,sans-serif" font-size="9" font-weight="700" fill="#E63946" text-anchor="middle">OVERWRITE</text>
  <text x="36" y="104" font-family="Helvetica Neue,Arial,sans-serif" font-size="8" fill="#6A8ABE" text-anchor="middle">Arbitrary File</text>
</g>

<!-- Network lateral movement dots -->
<circle cx="200" cy="420" r="5" fill="#2A5090" opacity="0.5"/>
<circle cx="260" cy="455" r="5" fill="#2A5090" opacity="0.5"/>
<circle cx="330" cy="415" r="5" fill="#2A5090" opacity="0.5"/>
<line x1="200" y1="420" x2="260" y2="455" stroke="#2A5090" stroke-width="1" opacity="0.4"/>
<line x1="260" y1="455" x2="330" y2="415" stroke="#2A5090" stroke-width="1" opacity="0.4"/>
<line x1="330" y1="415" x2="370" y2="310" stroke="#E63946" stroke-width="1" stroke-dasharray="4,3" opacity="0.5"/>
<text x="170" y="465" font-family="Helvetica Neue,Arial,sans-serif" font-size="8" fill="#6A8ABE" opacity="0.7">WAN fabric -- lateral movement risk</text>

<!-- Hero description -->
<text x="52" y="492" font-family="Helvetica Neue,Arial,sans-serif" font-size="11" fill="#8CAAD4">Authenticated attacker overwrites arbitrary files across</text>
<text x="52" y="508" font-family="Helvetica Neue,Arial,sans-serif" font-size="11" fill="#8CAAD4">entire SD-WAN fabric. Emergency patch required.</text>

<!-- Hero KPI bar -->
<rect x="52" y="524" width="562" height="50" rx="6" fill="url(#kpiHero)" stroke="#E63946" stroke-width="0.8" stroke-opacity="0.4"/>
<text x="72" y="540" font-family="Helvetica Neue,Arial,sans-serif" font-size="8.5" font-weight="700" letter-spacing="1.5" fill="#E63946">CVSS</text>
<text x="72" y="561" font-family="Helvetica Neue,Arial,sans-serif" font-size="18" font-weight="800" fill="#FFFFFF">7.1</text>
<line x1="128" y1="528" x2="128" y2="570" stroke="#E63946" stroke-width="0.5" opacity="0.35"/>
<text x="142" y="540" font-family="Helvetica Neue,Arial,sans-serif" font-size="8.5" font-weight="700" letter-spacing="1.5" fill="#E63946">VECTOR</text>
<text x="142" y="561" font-family="Helvetica Neue,Arial,sans-serif" font-size="13" font-weight="700" fill="#FFFFFF">Network (Auth)</text>
<line x1="318" y1="528" x2="318" y2="570" stroke="#E63946" stroke-width="0.5" opacity="0.35"/>
<text x="332" y="540" font-family="Helvetica Neue,Arial,sans-serif" font-size="8.5" font-weight="700" letter-spacing="1.5" fill="#E63946">STATUS</text>
<text x="332" y="561" font-family="Helvetica Neue,Arial,sans-serif" font-size="13" font-weight="700" fill="#E63946">ACTIVELY EXPLOITED</text>

<!-- Hero panel border -->
<rect x="32" y="80" width="600" height="510" rx="10" fill="none" stroke="#1E3060" stroke-width="1"/>

<!-- ========================================= -->
<!-- CARD 1: Tycoon 2FA PhaaS Takedown        -->
<!-- TOP RIGHT 516x248 at (652,80)            -->
<!-- ========================================= -->
<g clip-path="url(#card1Clip)">
  <rect x="652" y="80" width="516" height="248" rx="10" fill="url(#card1Bg)"/>
  <rect x="652" y="80" width="516" height="4" fill="url(#card1Stripe)"/>
  <ellipse cx="910" cy="200" rx="145" ry="85" fill="url(#glowAmber)" opacity="0.3">
    <animate attributeName="opacity" values="0.2;0.48;0.2" dur="6.2s" repeatCount="indefinite"/>
  </ellipse>
</g>

<text x="672" y="109" font-family="Helvetica Neue,Arial,sans-serif" font-size="9" font-weight="700" letter-spacing="2.5" fill="#FF9500">PHISHING PLATFORM TAKEDOWN</text>
<text x="672" y="130" font-family="Helvetica Neue,Arial,sans-serif" font-size="17" font-weight="800" fill="#FFFFFF">Tycoon 2FA PhaaS Dismantled</text>
<text x="672" y="149" font-family="Helvetica Neue,Arial,sans-serif" font-size="11" font-weight="400" fill="#AABBD4">Europol-led op -- AitM bypasses MFA at scale</text>

<!-- Card 1 illustration: phishing hook + 2FA token + chain -->
<g transform="translate(672,158)">
  <!-- Hook line -->
  <line x1="40" y1="0" x2="40" y2="45" stroke="#FF9500" stroke-width="2.5" stroke-linecap="round"/>
  <!-- Hook curve -->
  <path d="M40,45 Q40,72 65,72 Q88,72 88,54 Q88,40 75,40" stroke="#FF9500" stroke-width="2.5" fill="none" stroke-linecap="round">
    <animate attributeName="stroke-opacity" values="0.6;1;0.6" dur="3s" repeatCount="indefinite"/>
  </path>
  <!-- Hook barb -->
  <path d="M75,40 L85,34 M75,40 L82,52" stroke="#FF9500" stroke-width="2" stroke-linecap="round" fill="none"/>
  <!-- 2FA token dangling -->
  <rect x="24" y="0" width="32" height="17" rx="3" fill="#1A2E4E" stroke="#FF9500" stroke-width="1.8"/>
  <text x="40" y="12" font-family="Helvetica Neue,Arial,sans-serif" font-size="9" font-weight="800" fill="#FF9500" text-anchor="middle">2FA</text>
  <!-- Chain links -->
  <ellipse cx="108" cy="44" rx="10" ry="5" fill="none" stroke="#FF9500" stroke-width="1.5" transform="rotate(35,108,44)" opacity="0.6"/>
  <ellipse cx="126" cy="50" rx="10" ry="5" fill="none" stroke="#FF9500" stroke-width="1.5" transform="rotate(35,126,50)" opacity="0.5"/>
  <ellipse cx="144" cy="44" rx="10" ry="5" fill="none" stroke="#FF9500" stroke-width="1.5" transform="rotate(60,144,44)" opacity="0.4"/>
  <!-- Slash X (operation shutdown) -->
  <line x1="98" y1="22" x2="158" y2="74" stroke="#E63946" stroke-width="3" stroke-linecap="round" opacity="0.9"/>
  <line x1="158" y1="22" x2="98" y2="74" stroke="#E63946" stroke-width="3" stroke-linecap="round" opacity="0.9"/>
  <text x="128" y="92" font-family="Helvetica Neue,Arial,sans-serif" font-size="8.5" font-weight="700" fill="#E63946" text-anchor="middle" letter-spacing="1">SHUTDOWN</text>
  <!-- Stats -->
  <text x="192" y="18" font-family="Helvetica Neue,Arial,sans-serif" font-size="8" font-weight="700" fill="#FF9500" letter-spacing="1">APT28 / UKRAINE</text>
  <text x="195" y="34" font-family="Helvetica Neue,Arial,sans-serif" font-size="8" fill="#8CAAD4">BadPaw + MeowMeow</text>
  <text x="195" y="48" font-family="Helvetica Neue,Arial,sans-serif" font-size="8" fill="#8CAAD4">malware campaign</text>
  <text x="195" y="64" font-family="Helvetica Neue,Arial,sans-serif" font-size="8" fill="#8CAAD4">Dust Specter Iraq</text>
</g>

<!-- Card 1 KPI bar -->
<rect x="652" y="284" width="516" height="36" rx="5" fill="url(#kpiCard1)" stroke="#FF9500" stroke-width="0.8" stroke-opacity="0.4"/>
<text x="672" y="297" font-family="Helvetica Neue,Arial,sans-serif" font-size="8" font-weight="700" letter-spacing="1.5" fill="#FF9500">ATTACKS BLOCKED</text>
<text x="672" y="313" font-family="Helvetica Neue,Arial,sans-serif" font-size="14" font-weight="800" fill="#FFFFFF">64,000 AitM</text>
<line x1="768" y1="287" x2="768" y2="317" stroke="#FF9500" stroke-width="0.5" opacity="0.35"/>
<text x="782" y="297" font-family="Helvetica Neue,Arial,sans-serif" font-size="8" font-weight="700" letter-spacing="1.5" fill="#FF9500">PLATFORM</text>
<text x="782" y="313" font-family="Helvetica Neue,Arial,sans-serif" font-size="13" font-weight="700" fill="#FFFFFF">Tycoon 2FA PhaaS</text>
<line x1="992" y1="287" x2="992" y2="317" stroke="#FF9500" stroke-width="0.5" opacity="0.35"/>
<text x="1006" y="297" font-family="Helvetica Neue,Arial,sans-serif" font-size="8" font-weight="700" letter-spacing="1.5" fill="#FF9500">LED BY</text>
<text x="1006" y="313" font-family="Helvetica Neue,Arial,sans-serif" font-size="13" font-weight="700" fill="#FFFFFF">Europol</text>

<!-- Card 1 border -->
<rect x="652" y="80" width="516" height="248" rx="10" fill="none" stroke="#1E304E" stroke-width="1"/>

<!-- Gap divider -->
<line x1="652" y1="335" x2="1168" y2="335" stroke="#1A2840" stroke-width="1"/>

<!-- ========================================= -->
<!-- CARD 2: GPT-5.4 Released                 -->
<!-- BOTTOM RIGHT 516x246 at (652,344)        -->
<!-- ========================================= -->
<g clip-path="url(#card2Clip)">
  <rect x="652" y="344" width="516" height="246" rx="10" fill="url(#card2Bg)"/>
  <rect x="652" y="344" width="516" height="4" fill="url(#card2Stripe)"/>
  <ellipse cx="860" cy="462" rx="125" ry="72" fill="url(#glowCyan)" opacity="0.28">
    <animate attributeName="opacity" values="0.18;0.42;0.18" dur="7.1s" repeatCount="indefinite"/>
  </ellipse>
</g>

<text x="672" y="373" font-family="Helvetica Neue,Arial,sans-serif" font-size="9" font-weight="700" letter-spacing="2.5" fill="#00C2FF">AI FRONTIER  /  OPENAI</text>
<text x="672" y="394" font-family="Helvetica Neue,Arial,sans-serif" font-size="17" font-weight="800" fill="#FFFFFF">GPT-5.4 Released</text>
<text x="672" y="413" font-family="Helvetica Neue,Arial,sans-serif" font-size="11" font-weight="400" fill="#AABBD4">Native computer use - 1M token context window</text>

<!-- Card 2 illustration: neural network nodes -->
<g transform="translate(668,424)">
  <!-- Central GPT node -->
  <circle cx="82" cy="42" r="20" fill="#0A1D30" stroke="#00C2FF" stroke-width="2">
    <animate attributeName="r" values="20;22;20" dur="3.2s" repeatCount="indefinite"/>
  </circle>
  <text x="82" y="38" font-family="Helvetica Neue,Arial,sans-serif" font-size="9" font-weight="800" fill="#00C2FF" text-anchor="middle">GPT</text>
  <text x="82" y="50" font-family="Helvetica Neue,Arial,sans-serif" font-size="9" font-weight="800" fill="#00C2FF" text-anchor="middle">5.4</text>
  <!-- Satellite nodes -->
  <circle cx="28" cy="14" r="11" fill="#0A1D30" stroke="#00C2FF" stroke-width="1.2" opacity="0.8"/>
  <text x="28" y="18" font-family="Helvetica Neue,Arial,sans-serif" font-size="7.5" font-weight="700" fill="#00C2FF" text-anchor="middle">1M</text>
  <circle cx="140" cy="14" r="11" fill="#0A1D30" stroke="#00C2FF" stroke-width="1.2" opacity="0.8"/>
  <text x="140" y="18" font-family="Helvetica Neue,Arial,sans-serif" font-size="7" font-weight="700" fill="#00C2FF" text-anchor="middle">CUA</text>
  <circle cx="28" cy="70" r="11" fill="#0A1D30" stroke="#00C2FF" stroke-width="1.2" opacity="0.7"/>
  <text x="28" y="74" font-family="Helvetica Neue,Arial,sans-serif" font-size="7" font-weight="700" fill="#00C2FF" text-anchor="middle">API</text>
  <circle cx="140" cy="70" r="11" fill="#0A1D30" stroke="#00C2FF" stroke-width="1.2" opacity="0.7"/>
  <text x="140" y="74" font-family="Helvetica Neue,Arial,sans-serif" font-size="7" font-weight="700" fill="#00C2FF" text-anchor="middle">Tools</text>
  <!-- Connection lines -->
  <line x1="63" y1="28" x2="37" y2="21" stroke="#00C2FF" stroke-width="1.2" opacity="0.5">
    <animate attributeName="opacity" values="0.25;0.8;0.25" dur="2s" repeatCount="indefinite"/>
  </line>
  <line x1="101" y1="28" x2="131" y2="21" stroke="#00C2FF" stroke-width="1.2" opacity="0.5">
    <animate attributeName="opacity" values="0.25;0.8;0.25" dur="2.6s" repeatCount="indefinite"/>
  </line>
  <line x1="63" y1="56" x2="37" y2="63" stroke="#00C2FF" stroke-width="1.2" opacity="0.5">
    <animate attributeName="opacity" values="0.25;0.8;0.25" dur="3.1s" repeatCount="indefinite"/>
  </line>
  <line x1="101" y1="56" x2="131" y2="63" stroke="#00C2FF" stroke-width="1.2" opacity="0.5">
    <animate attributeName="opacity" values="0.25;0.8;0.25" dur="1.9s" repeatCount="indefinite"/>
  </line>
  <!-- Google Cloud info panel -->
  <text x="178" y="12" font-family="Helvetica Neue,Arial,sans-serif" font-size="8" font-weight="700" fill="#6ACFEE" letter-spacing="1">ALSO THIS WEEK</text>
  <text x="181" y="28" font-family="Helvetica Neue,Arial,sans-serif" font-size="8" fill="#8CAAD4">Google Cloud security checklist</text>
  <text x="181" y="42" font-family="Helvetica Neue,Arial,sans-serif" font-size="8" fill="#8CAAD4">GTIG: 90 zero-days tracked 2025</text>
  <text x="181" y="56" font-family="Helvetica Neue,Arial,sans-serif" font-size="8" fill="#8CAAD4">GKE custom metrics autoscaling</text>
  <text x="181" y="70" font-family="Helvetica Neue,Arial,sans-serif" font-size="8" fill="#8CAAD4">MFA credential abuse analysis</text>
</g>

<!-- Card 2 KPI bar -->
<rect x="652" y="546" width="516" height="36" rx="5" fill="url(#kpiCard2)" stroke="#00C2FF" stroke-width="0.8" stroke-opacity="0.4"/>
<text x="672" y="559" font-family="Helvetica Neue,Arial,sans-serif" font-size="8" font-weight="700" letter-spacing="1.5" fill="#00C2FF">CONTEXT</text>
<text x="672" y="575" font-family="Helvetica Neue,Arial,sans-serif" font-size="14" font-weight="800" fill="#FFFFFF">1M tokens</text>
<line x1="756" y1="549" x2="756" y2="579" stroke="#00C2FF" stroke-width="0.5" opacity="0.35"/>
<text x="770" y="559" font-family="Helvetica Neue,Arial,sans-serif" font-size="8" font-weight="700" letter-spacing="1.5" fill="#00C2FF">CAPABILITY</text>
<text x="770" y="575" font-family="Helvetica Neue,Arial,sans-serif" font-size="13" font-weight="700" fill="#FFFFFF">Native Computer Use</text>
<line x1="992" y1="549" x2="992" y2="579" stroke="#00C2FF" stroke-width="0.5" opacity="0.35"/>
<text x="1006" y="559" font-family="Helvetica Neue,Arial,sans-serif" font-size="8" font-weight="700" letter-spacing="1.5" fill="#00C2FF">BY</text>
<text x="1006" y="575" font-family="Helvetica Neue,Arial,sans-serif" font-size="13" font-weight="700" fill="#FFFFFF">OpenAI</text>

<!-- Card 2 border -->
<rect x="652" y="344" width="516" height="246" rx="10" fill="none" stroke="#1E304E" stroke-width="1"/>

<!-- FOOTER -->
<rect x="0" y="596" width="1200" height="34" fill="#050B15" opacity="0.85"/>
<text x="32" y="617" font-family="Helvetica Neue,Arial,sans-serif" font-size="9" fill="#3A5070">tech.2twodragon.com  /  Weekly Security Digest  /  2026-03-06</text>
<text x="1168" y="617" font-family="Helvetica Neue,Arial,sans-serif" font-size="9" fill="#3A5070" text-anchor="end">CVE-2026-20122  /  Tycoon 2FA  /  GPT-5.4</text>
<!-- cover-qr: https://tech.2twodragon.com/posts/2026/03/06/Tech_Security_Weekly_Digest_Security_Threat_AI_AWS/ : 41x41 -->
<g transform="translate(1080,504)" filter="url(#softShadow)">
  <rect x="-8" y="-8" width="100" height="100" rx="6" fill="#FFFFFF"/>
  <path fill="#0A1020" d="M0.0 0.0h14.341v2.049h-14.341z M18.439 0.0h2.049v2.049h-2.049z M26.634 0.0h2.049v2.049h-2.049z M30.732 0.0h4.098v2.049h-4.098z M38.927 0.0h2.049v2.049h-2.049z M43.024 0.0h2.049v2.049h-2.049z M53.268 0.0h4.098v2.049h-4.098z M59.415 0.0h6.146v2.049h-6.146z M69.659 0.0h14.341v2.049h-14.341z M0.0 2.049h2.049v2.049h-2.049z M12.293 2.049h2.049v2.049h-2.049z M18.439 2.049h4.098v2.049h-4.098z M26.634 2.049h2.049v2.049h-2.049z M34.829 2.049h2.049v2.049h-2.049z M40.976 2.049h2.049v2.049h-2.049z M47.122 2.049h2.049v2.049h-2.049z M51.22 2.049h8.195v2.049h-8.195z M61.463 2.049h2.049v2.049h-2.049z M65.561 2.049h2.049v2.049h-2.049z M69.659 2.049h2.049v2.049h-2.049z M81.951 2.049h2.049v2.049h-2.049z M0.0 4.098h2.049v2.049h-2.049z M4.098 4.098h6.146v2.049h-6.146z M12.293 4.098h2.049v2.049h-2.049z M18.439 4.098h6.146v2.049h-6.146z M28.683 4.098h2.049v2.049h-2.049z M32.78 4.098h4.098v2.049h-4.098z M40.976 4.098h8.195v2.049h-8.195z M53.268 4.098h2.049v2.049h-2.049z M59.415 4.098h2.049v2.049h-2.049z M65.561 4.098h2.049v2.049h-2.049z M69.659 4.098h2.049v2.049h-2.049z M73.756 4.098h6.146v2.049h-6.146z M81.951 4.098h2.049v2.049h-2.049z M0.0 6.146h2.049v2.049h-2.049z M4.098 6.146h6.146v2.049h-6.146z M12.293 6.146h2.049v2.049h-2.049z M20.488 6.146h2.049v2.049h-2.049z M24.585 6.146h2.049v2.049h-2.049z M32.78 6.146h4.098v2.049h-4.098z M38.927 6.146h28.683v2.049h-28.683z M69.659 6.146h2.049v2.049h-2.049z M73.756 6.146h6.146v2.049h-6.146z M81.951 6.146h2.049v2.049h-2.049z M0.0 8.195h2.049v2.049h-2.049z M4.098 8.195h6.146v2.049h-6.146z M12.293 8.195h2.049v2.049h-2.049z M18.439 8.195h2.049v2.049h-2.049z M24.585 8.195h4.098v2.049h-4.098z M30.732 8.195h2.049v2.049h-2.049z M34.829 8.195h2.049v2.049h-2.049z M38.927 8.195h2.049v2.049h-2.049z M51.22 8.195h2.049v2.049h-2.049z M55.317 8.195h2.049v2.049h-2.049z M61.463 8.195h2.049v2.049h-2.049z M65.561 8.195h2.049v2.049h-2.049z M69.659 8.195h2.049v2.049h-2.049z M73.756 8.195h6.146v2.049h-6.146z M81.951 8.195h2.049v2.049h-2.049z M0.0 10.244h2.049v2.049h-2.049z M12.293 10.244h2.049v2.049h-2.049z M16.39 10.244h2.049v2.049h-2.049z M20.488 10.244h4.098v2.049h-4.098z M28.683 10.244h2.049v2.049h-2.049z M34.829 10.244h6.146v2.049h-6.146z M49.171 10.244h2.049v2.049h-2.049z M53.268 10.244h4.098v2.049h-4.098z M61.463 10.244h6.146v2.049h-6.146z M69.659 10.244h2.049v2.049h-2.049z M81.951 10.244h2.049v2.049h-2.049z M0.0 12.293h14.341v2.049h-14.341z M16.39 12.293h2.049v2.049h-2.049z M20.488 12.293h2.049v2.049h-2.049z M24.585 12.293h2.049v2.049h-2.049z M28.683 12.293h2.049v2.049h-2.049z M32.78 12.293h2.049v2.049h-2.049z M36.878 12.293h2.049v2.049h-2.049z M40.976 12.293h2.049v2.049h-2.049z M45.073 12.293h2.049v2.049h-2.049z M49.171 12.293h2.049v2.049h-2.049z M53.268 12.293h2.049v2.049h-2.049z M57.366 12.293h2.049v2.049h-2.049z M61.463 12.293h2.049v2.049h-2.049z M65.561 12.293h2.049v2.049h-2.049z M69.659 12.293h14.341v2.049h-14.341z M18.439 14.341h4.098v2.049h-4.098z M26.634 14.341h4.098v2.049h-4.098z M34.829 14.341h2.049v2.049h-2.049z M38.927 14.341h8.195v2.049h-8.195z M49.171 14.341h2.049v2.049h-2.049z M55.317 14.341h6.146v2.049h-6.146z M63.512 14.341h2.049v2.049h-2.049z M0.0 16.39h2.049v2.049h-2.049z M6.146 16.39h2.049v2.049h-2.049z M10.244 16.39h4.098v2.049h-4.098z M16.39 16.39h2.049v2.049h-2.049z M20.488 16.39h4.098v2.049h-4.098z M30.732 16.39h4.098v2.049h-4.098z M38.927 16.39h2.049v2.049h-2.049z M43.024 16.39h2.049v2.049h-2.049z M51.22 16.39h4.098v2.049h-4.098z M65.561 16.39h4.098v2.049h-4.098z M71.707 16.39h2.049v2.049h-2.049z M0.0 18.439h2.049v2.049h-2.049z M6.146 18.439h2.049v2.049h-2.049z M20.488 18.439h2.049v2.049h-2.049z M24.585 18.439h2.049v2.049h-2.049z M32.78 18.439h4.098v2.049h-4.098z M43.024 18.439h2.049v2.049h-2.049z M49.171 18.439h6.146v2.049h-6.146z M59.415 18.439h2.049v2.049h-2.049z M65.561 18.439h2.049v2.049h-2.049z M75.805 18.439h4.098v2.049h-4.098z M0.0 20.488h2.049v2.049h-2.049z M4.098 20.488h4.098v2.049h-4.098z M12.293 20.488h4.098v2.049h-4.098z M18.439 20.488h4.098v2.049h-4.098z M24.585 20.488h4.098v2.049h-4.098z M34.829 20.488h8.195v2.049h-8.195z M45.073 20.488h2.049v2.049h-2.049z M49.171 20.488h2.049v2.049h-2.049z M53.268 20.488h2.049v2.049h-2.049z M61.463 20.488h4.098v2.049h-4.098z M71.707 20.488h10.244v2.049h-10.244z M4.098 22.537h6.146v2.049h-6.146z M14.341 22.537h4.098v2.049h-4.098z M20.488 22.537h2.049v2.049h-2.049z M26.634 22.537h2.049v2.049h-2.049z M32.78 22.537h2.049v2.049h-2.049z M36.878 22.537h2.049v2.049h-2.049z M43.024 22.537h2.049v2.049h-2.049z M49.171 22.537h4.098v2.049h-4.098z M57.366 22.537h2.049v2.049h-2.049z M67.61 22.537h4.098v2.049h-4.098z M73.756 22.537h2.049v2.049h-2.049z M77.854 22.537h2.049v2.049h-2.049z M0.0 24.585h2.049v2.049h-2.049z M6.146 24.585h2.049v2.049h-2.049z M10.244 24.585h4.098v2.049h-4.098z M16.39 24.585h6.146v2.049h-6.146z M26.634 24.585h2.049v2.049h-2.049z M32.78 24.585h4.098v2.049h-4.098z M38.927 24.585h6.146v2.049h-6.146z M51.22 24.585h6.146v2.049h-6.146z M59.415 24.585h6.146v2.049h-6.146z M67.61 24.585h6.146v2.049h-6.146z M75.805 24.585h2.049v2.049h-2.049z M8.195 26.634h2.049v2.049h-2.049z M14.341 26.634h4.098v2.049h-4.098z M20.488 26.634h4.098v2.049h-4.098z M28.683 26.634h2.049v2.049h-2.049z M32.78 26.634h4.098v2.049h-4.098z M40.976 26.634h2.049v2.049h-2.049z M45.073 26.634h4.098v2.049h-4.098z M51.22 26.634h2.049v2.049h-2.049z M55.317 26.634h2.049v2.049h-2.049z M61.463 26.634h2.049v2.049h-2.049z M65.561 26.634h4.098v2.049h-4.098z M75.805 26.634h4.098v2.049h-4.098z M2.049 28.683h2.049v2.049h-2.049z M10.244 28.683h8.195v2.049h-8.195z M22.537 28.683h4.098v2.049h-4.098z M30.732 28.683h4.098v2.049h-4.098z M36.878 28.683h4.098v2.049h-4.098z M43.024 28.683h2.049v2.049h-2.049z M47.122 28.683h2.049v2.049h-2.049z M61.463 28.683h2.049v2.049h-2.049z M69.659 28.683h2.049v2.049h-2.049z M75.805 28.683h8.195v2.049h-8.195z M2.049 30.732h2.049v2.049h-2.049z M6.146 30.732h2.049v2.049h-2.049z M10.244 30.732h2.049v2.049h-2.049z M14.341 30.732h2.049v2.049h-2.049z M18.439 30.732h2.049v2.049h-2.049z M22.537 30.732h2.049v2.049h-2.049z M28.683 30.732h2.049v2.049h-2.049z M34.829 30.732h2.049v2.049h-2.049z M40.976 30.732h8.195v2.049h-8.195z M51.22 30.732h6.146v2.049h-6.146z M59.415 30.732h8.195v2.049h-8.195z M69.659 30.732h4.098v2.049h-4.098z M12.293 32.78h4.098v2.049h-4.098z M20.488 32.78h8.195v2.049h-8.195z M30.732 32.78h6.146v2.049h-6.146z M45.073 32.78h2.049v2.049h-2.049z M59.415 32.78h2.049v2.049h-2.049z M63.512 32.78h4.098v2.049h-4.098z M71.707 32.78h2.049v2.049h-2.049z M79.902 32.78h2.049v2.049h-2.049z M0.0 34.829h4.098v2.049h-4.098z M8.195 34.829h4.098v2.049h-4.098z M14.341 34.829h8.195v2.049h-8.195z M24.585 34.829h4.098v2.049h-4.098z M30.732 34.829h2.049v2.049h-2.049z M34.829 34.829h2.049v2.049h-2.049z M43.024 34.829h16.39v2.049h-16.39z M69.659 34.829h4.098v2.049h-4.098z M75.805 34.829h8.195v2.049h-8.195z M0.0 36.878h2.049v2.049h-2.049z M4.098 36.878h2.049v2.049h-2.049z M8.195 36.878h2.049v2.049h-2.049z M12.293 36.878h2.049v2.049h-2.049z M16.39 36.878h2.049v2.049h-2.049z M22.537 36.878h2.049v2.049h-2.049z M26.634 36.878h4.098v2.049h-4.098z M34.829 36.878h2.049v2.049h-2.049z M45.073 36.878h2.049v2.049h-2.049z M51.22 36.878h4.098v2.049h-4.098z M61.463 36.878h2.049v2.049h-2.049z M67.61 36.878h4.098v2.049h-4.098z M73.756 36.878h2.049v2.049h-2.049z M81.951 36.878h2.049v2.049h-2.049z M4.098 38.927h2.049v2.049h-2.049z M10.244 38.927h2.049v2.049h-2.049z M14.341 38.927h4.098v2.049h-4.098z M20.488 38.927h6.146v2.049h-6.146z M28.683 38.927h4.098v2.049h-4.098z M38.927 38.927h2.049v2.049h-2.049z M43.024 38.927h2.049v2.049h-2.049z M53.268 38.927h2.049v2.049h-2.049z M59.415 38.927h4.098v2.049h-4.098z M65.561 38.927h8.195v2.049h-8.195z M75.805 38.927h2.049v2.049h-2.049z M81.951 38.927h2.049v2.049h-2.049z M2.049 40.976h4.098v2.049h-4.098z M8.195 40.976h8.195v2.049h-8.195z M18.439 40.976h4.098v2.049h-4.098z M24.585 40.976h8.195v2.049h-8.195z M34.829 40.976h2.049v2.049h-2.049z M40.976 40.976h2.049v2.049h-2.049z M45.073 40.976h8.195v2.049h-8.195z M55.317 40.976h2.049v2.049h-2.049z M59.415 40.976h2.049v2.049h-2.049z M65.561 40.976h6.146v2.049h-6.146z M77.854 40.976h4.098v2.049h-4.098z M2.049 43.024h2.049v2.049h-2.049z M6.146 43.024h2.049v2.049h-2.049z M10.244 43.024h2.049v2.049h-2.049z M16.39 43.024h6.146v2.049h-6.146z M26.634 43.024h4.098v2.049h-4.098z M32.78 43.024h4.098v2.049h-4.098z M38.927 43.024h8.195v2.049h-8.195z M51.22 43.024h2.049v2.049h-2.049z M59.415 43.024h2.049v2.049h-2.049z M69.659 43.024h2.049v2.049h-2.049z M77.854 43.024h6.146v2.049h-6.146z M0.0 45.073h2.049v2.049h-2.049z M4.098 45.073h6.146v2.049h-6.146z M12.293 45.073h4.098v2.049h-4.098z M20.488 45.073h2.049v2.049h-2.049z M24.585 45.073h2.049v2.049h-2.049z M28.683 45.073h14.341v2.049h-14.341z M49.171 45.073h4.098v2.049h-4.098z M57.366 45.073h2.049v2.049h-2.049z M63.512 45.073h2.049v2.049h-2.049z M67.61 45.073h4.098v2.049h-4.098z M73.756 45.073h2.049v2.049h-2.049z M79.902 45.073h2.049v2.049h-2.049z M2.049 47.122h2.049v2.049h-2.049z M6.146 47.122h2.049v2.049h-2.049z M16.39 47.122h4.098v2.049h-4.098z M26.634 47.122h2.049v2.049h-2.049z M30.732 47.122h2.049v2.049h-2.049z M36.878 47.122h18.439v2.049h-18.439z M57.366 47.122h2.049v2.049h-2.049z M61.463 47.122h2.049v2.049h-2.049z M69.659 47.122h2.049v2.049h-2.049z M73.756 47.122h2.049v2.049h-2.049z M77.854 47.122h4.098v2.049h-4.098z M0.0 49.171h2.049v2.049h-2.049z M6.146 49.171h2.049v2.049h-2.049z M12.293 49.171h4.098v2.049h-4.098z M26.634 49.171h10.244v2.049h-10.244z M38.927 49.171h6.146v2.049h-6.146z M49.171 49.171h4.098v2.049h-4.098z M55.317 49.171h6.146v2.049h-6.146z M63.512 49.171h10.244v2.049h-10.244z M75.805 49.171h4.098v2.049h-4.098z M81.951 49.171h2.049v2.049h-2.049z M0.0 51.22h2.049v2.049h-2.049z M4.098 51.22h6.146v2.049h-6.146z M18.439 51.22h2.049v2.049h-2.049z M24.585 51.22h12.293v2.049h-12.293z M38.927 51.22h8.195v2.049h-8.195z M49.171 51.22h6.146v2.049h-6.146z M57.366 51.22h4.098v2.049h-4.098z M63.512 51.22h2.049v2.049h-2.049z M69.659 51.22h2.049v2.049h-2.049z M75.805 51.22h2.049v2.049h-2.049z M0.0 53.268h4.098v2.049h-4.098z M6.146 53.268h2.049v2.049h-2.049z M10.244 53.268h10.244v2.049h-10.244z M24.585 53.268h2.049v2.049h-2.049z M28.683 53.268h2.049v2.049h-2.049z M32.78 53.268h4.098v2.049h-4.098z M40.976 53.268h2.049v2.049h-2.049z M47.122 53.268h2.049v2.049h-2.049z M51.22 53.268h4.098v2.049h-4.098z M57.366 53.268h2.049v2.049h-2.049z M61.463 53.268h2.049v2.049h-2.049z M65.561 53.268h10.244v2.049h-10.244z M79.902 53.268h4.098v2.049h-4.098z M2.049 55.317h2.049v2.049h-2.049z M6.146 55.317h4.098v2.049h-4.098z M14.341 55.317h6.146v2.049h-6.146z M24.585 55.317h2.049v2.049h-2.049z M28.683 55.317h2.049v2.049h-2.049z M34.829 55.317h4.098v2.049h-4.098z M40.976 55.317h6.146v2.049h-6.146z M49.171 55.317h8.195v2.049h-8.195z M59.415 55.317h2.049v2.049h-2.049z M65.561 55.317h2.049v2.049h-2.049z M79.902 55.317h2.049v2.049h-2.049z M0.0 57.366h2.049v2.049h-2.049z M6.146 57.366h4.098v2.049h-4.098z M12.293 57.366h2.049v2.049h-2.049z M20.488 57.366h2.049v2.049h-2.049z M26.634 57.366h10.244v2.049h-10.244z M43.024 57.366h8.195v2.049h-8.195z M53.268 57.366h4.098v2.049h-4.098z M59.415 57.366h4.098v2.049h-4.098z M67.61 57.366h2.049v2.049h-2.049z M71.707 57.366h2.049v2.049h-2.049z M79.902 57.366h2.049v2.049h-2.049z M2.049 59.415h6.146v2.049h-6.146z M10.244 59.415h2.049v2.049h-2.049z M16.39 59.415h4.098v2.049h-4.098z M22.537 59.415h4.098v2.049h-4.098z M30.732 59.415h6.146v2.049h-6.146z M38.927 59.415h6.146v2.049h-6.146z M49.171 59.415h4.098v2.049h-4.098z M55.317 59.415h8.195v2.049h-8.195z M67.61 59.415h6.146v2.049h-6.146z M75.805 59.415h4.098v2.049h-4.098z M81.951 59.415h2.049v2.049h-2.049z M0.0 61.463h2.049v2.049h-2.049z M4.098 61.463h2.049v2.049h-2.049z M10.244 61.463h6.146v2.049h-6.146z M18.439 61.463h6.146v2.049h-6.146z M28.683 61.463h4.098v2.049h-4.098z M36.878 61.463h2.049v2.049h-2.049z M43.024 61.463h10.244v2.049h-10.244z M71.707 61.463h2.049v2.049h-2.049z M77.854 61.463h6.146v2.049h-6.146z M6.146 63.512h2.049v2.049h-2.049z M14.341 63.512h8.195v2.049h-8.195z M24.585 63.512h2.049v2.049h-2.049z M28.683 63.512h2.049v2.049h-2.049z M34.829 63.512h4.098v2.049h-4.098z M43.024 63.512h2.049v2.049h-2.049z M49.171 63.512h2.049v2.049h-2.049z M53.268 63.512h2.049v2.049h-2.049z M59.415 63.512h2.049v2.049h-2.049z M67.61 63.512h2.049v2.049h-2.049z M73.756 63.512h4.098v2.049h-4.098z M0.0 65.561h2.049v2.049h-2.049z M4.098 65.561h2.049v2.049h-2.049z M8.195 65.561h8.195v2.049h-8.195z M18.439 65.561h8.195v2.049h-8.195z M30.732 65.561h4.098v2.049h-4.098z M43.024 65.561h2.049v2.049h-2.049z M51.22 65.561h6.146v2.049h-6.146z M65.561 65.561h10.244v2.049h-10.244z M77.854 65.561h2.049v2.049h-2.049z M81.951 65.561h2.049v2.049h-2.049z M16.39 67.61h2.049v2.049h-2.049z M24.585 67.61h6.146v2.049h-6.146z M34.829 67.61h4.098v2.049h-4.098z M40.976 67.61h2.049v2.049h-2.049z M49.171 67.61h2.049v2.049h-2.049z M55.317 67.61h4.098v2.049h-4.098z M61.463 67.61h6.146v2.049h-6.146z M73.756 67.61h10.244v2.049h-10.244z M0.0 69.659h14.341v2.049h-14.341z M18.439 69.659h2.049v2.049h-2.049z M22.537 69.659h4.098v2.049h-4.098z M36.878 69.659h4.098v2.049h-4.098z M43.024 69.659h4.098v2.049h-4.098z M57.366 69.659h2.049v2.049h-2.049z M61.463 69.659h2.049v2.049h-2.049z M65.561 69.659h2.049v2.049h-2.049z M69.659 69.659h2.049v2.049h-2.049z M73.756 69.659h2.049v2.049h-2.049z M77.854 69.659h4.098v2.049h-4.098z M0.0 71.707h2.049v2.049h-2.049z M12.293 71.707h2.049v2.049h-2.049z M16.39 71.707h2.049v2.049h-2.049z M24.585 71.707h2.049v2.049h-2.049z M30.732 71.707h2.049v2.049h-2.049z M36.878 71.707h4.098v2.049h-4.098z M49.171 71.707h4.098v2.049h-4.098z M55.317 71.707h2.049v2.049h-2.049z M61.463 71.707h2.049v2.049h-2.049z M65.561 71.707h2.049v2.049h-2.049z M73.756 71.707h2.049v2.049h-2.049z M77.854 71.707h2.049v2.049h-2.049z M81.951 71.707h2.049v2.049h-2.049z M0.0 73.756h2.049v2.049h-2.049z M4.098 73.756h6.146v2.049h-6.146z M12.293 73.756h2.049v2.049h-2.049z M22.537 73.756h4.098v2.049h-4.098z M28.683 73.756h2.049v2.049h-2.049z M36.878 73.756h2.049v2.049h-2.049z M40.976 73.756h2.049v2.049h-2.049z M53.268 73.756h6.146v2.049h-6.146z M65.561 73.756h12.293v2.049h-12.293z M79.902 73.756h2.049v2.049h-2.049z M0.0 75.805h2.049v2.049h-2.049z M4.098 75.805h6.146v2.049h-6.146z M12.293 75.805h2.049v2.049h-2.049z M16.39 75.805h2.049v2.049h-2.049z M20.488 75.805h6.146v2.049h-6.146z M30.732 75.805h2.049v2.049h-2.049z M36.878 75.805h10.244v2.049h-10.244z M57.366 75.805h14.341v2.049h-14.341z M73.756 75.805h4.098v2.049h-4.098z M79.902 75.805h2.049v2.049h-2.049z M0.0 77.854h2.049v2.049h-2.049z M4.098 77.854h6.146v2.049h-6.146z M12.293 77.854h2.049v2.049h-2.049z M20.488 77.854h6.146v2.049h-6.146z M28.683 77.854h2.049v2.049h-2.049z M32.78 77.854h4.098v2.049h-4.098z M40.976 77.854h4.098v2.049h-4.098z M47.122 77.854h8.195v2.049h-8.195z M57.366 77.854h2.049v2.049h-2.049z M61.463 77.854h4.098v2.049h-4.098z M73.756 77.854h2.049v2.049h-2.049z M79.902 77.854h4.098v2.049h-4.098z M0.0 79.902h2.049v2.049h-2.049z M12.293 79.902h2.049v2.049h-2.049z M20.488 79.902h2.049v2.049h-2.049z M24.585 79.902h2.049v2.049h-2.049z M28.683 79.902h2.049v2.049h-2.049z M43.024 79.902h6.146v2.049h-6.146z M51.22 79.902h4.098v2.049h-4.098z M57.366 79.902h12.293v2.049h-12.293z M71.707 79.902h2.049v2.049h-2.049z M79.902 79.902h2.049v2.049h-2.049z M0.0 81.951h14.341v2.049h-14.341z M16.39 81.951h4.098v2.049h-4.098z M24.585 81.951h2.049v2.049h-2.049z M32.78 81.951h14.341v2.049h-14.341z M49.171 81.951h2.049v2.049h-2.049z M59.415 81.951h2.049v2.049h-2.049z M63.512 81.951h14.341v2.049h-14.341z M79.902 81.951h2.049v2.049h-2.049z"/>
</g>
<text x="1122" y="614" font-family="Inter, Helvetica, Arial, sans-serif" font-size="10" font-weight="700" fill="#F5F7FA" text-anchor="middle">scan / full post</text>
</svg>
