<svg xmlns="http://www.w3.org/2000/svg" viewBox="0 0 1200 630" width="1200" height="630" role="img" aria-label="Research-based weekly digest cover: Mirai variant Nexcorium exploits CVE-2024-3721 on TBK DVR for DDoS botnet, Microsoft cross-tenant helpdesk impersonation to data exfiltration playbook, Grinex exchange 13.74M hack shutdown after intel agency claim">
<!-- profile: high-quality-cover (L14 Timeline v2, research-based) -->
<title>Weekly digest 2026-04-19 timeline: Mirai Nexcorium (Apr 14), Helpdesk impersonation (Apr 16), Grinex 13.74M hack (Apr 18)</title>
<defs>
  <linearGradient id="bgSpread" x1="0%" y1="0%" x2="100%" y2="100%">
    <stop offset="0%" stop-color="#0A1226"/>
    <stop offset="55%" stop-color="#0D1530"/>
    <stop offset="100%" stop-color="#131038"/>
  </linearGradient>
  <linearGradient id="colA" x1="0%" y1="0%" x2="0%" y2="100%">
    <stop offset="0%" stop-color="#122542"/>
    <stop offset="100%" stop-color="#0A1830"/>
  </linearGradient>
  <linearGradient id="colB" x1="0%" y1="0%" x2="0%" y2="100%">
    <stop offset="0%" stop-color="#2E1A0A"/>
    <stop offset="100%" stop-color="#1E1006"/>
  </linearGradient>
  <linearGradient id="colC" x1="0%" y1="0%" x2="0%" y2="100%">
    <stop offset="0%" stop-color="#2E1016"/>
    <stop offset="100%" stop-color="#1E0A12"/>
  </linearGradient>
  <linearGradient id="timelineGrad" x1="0%" y1="0%" x2="100%" y2="0%">
    <stop offset="0%" stop-color="#4ADE80" stop-opacity="0.2"/>
    <stop offset="35%" stop-color="#3A86FF" stop-opacity="0.9"/>
    <stop offset="65%" stop-color="#FFB703" stop-opacity="0.9"/>
    <stop offset="100%" stop-color="#E63946"/>
  </linearGradient>
  <linearGradient id="vaultGrad" x1="0%" y1="0%" x2="0%" y2="100%">
    <stop offset="0%" stop-color="#3A0F1A"/>
    <stop offset="100%" stop-color="#1E0A14"/>
  </linearGradient>
  <radialGradient id="glowBlue" cx="50%" cy="50%" r="50%">
    <stop offset="0%" stop-color="#3A86FF" stop-opacity="0.6"/>
    <stop offset="100%" stop-color="#3A86FF" stop-opacity="0"/>
  </radialGradient>
  <radialGradient id="glowAmber" cx="50%" cy="50%" r="50%">
    <stop offset="0%" stop-color="#FFB703" stop-opacity="0.6"/>
    <stop offset="100%" stop-color="#FFB703" stop-opacity="0"/>
  </radialGradient>
  <radialGradient id="glowRed" cx="50%" cy="50%" r="50%">
    <stop offset="0%" stop-color="#E63946" stop-opacity="0.65"/>
    <stop offset="100%" stop-color="#E63946" stop-opacity="0"/>
  </radialGradient>
  <pattern id="dotGrid" x="0" y="0" width="40" height="40" patternUnits="userSpaceOnUse">
    <circle cx="20" cy="20" r="0.8" fill="#2A3256" opacity="0.55"/>
  </pattern>
  <filter id="softShadow" x="-10%" y="-10%" width="130%" height="130%">
    <feGaussianBlur in="SourceAlpha" stdDeviation="2.6"/>
    <feOffset dx="1" dy="3"/>
    <feComponentTransfer><feFuncA type="linear" slope="0.55"/></feComponentTransfer>
    <feMerge><feMergeNode/><feMergeNode in="SourceGraphic"/></feMerge>
  </filter>
  <filter id="textShadow" x="-5%" y="-5%" width="110%" height="110%">
    <feGaussianBlur in="SourceAlpha" stdDeviation="1.2"/>
    <feOffset dx="0" dy="1.5"/>
    <feComponentTransfer><feFuncA type="linear" slope="0.8"/></feComponentTransfer>
    <feMerge><feMergeNode/><feMergeNode in="SourceGraphic"/></feMerge>
  </filter>
</defs>

<rect width="1200" height="630" fill="url(#bgSpread)"/>
<rect width="1200" height="630" fill="url(#dotGrid)"/>

<circle cx="240" cy="380" r="140" fill="url(#glowBlue)">
  <animate attributeName="opacity" values="0.5;0.85;0.5" dur="6.4s" repeatCount="indefinite"/>
</circle>
<circle cx="620" cy="380" r="140" fill="url(#glowAmber)">
  <animate attributeName="opacity" values="0.5;0.85;0.5" dur="5.6s" repeatCount="indefinite"/>
</circle>
<circle cx="1000" cy="380" r="140" fill="url(#glowRed)">
  <animate attributeName="opacity" values="0.5;0.85;0.5" dur="7.0s" repeatCount="indefinite"/>
</circle>

<rect x="0" y="0" width="1200" height="56" fill="#050813" opacity="0.92"/>
<text x="36" y="36" font-family="Inter, Helvetica, Arial, sans-serif" font-size="18" font-weight="700" fill="#8FB8FF" letter-spacing="2.5">WEEKLY DIGEST</text>
<text x="1164" y="36" font-family="Inter, Helvetica, Arial, sans-serif" font-size="15" font-weight="600" fill="#7DA3D9" letter-spacing="1.5" text-anchor="end">2026.04.19</text>
<rect x="0" y="54" width="1200" height="2" fill="#8FB8FF" opacity="0.85">
  <animate attributeName="opacity" values="0.4;1;0.4" dur="4.8s" repeatCount="indefinite"/>
</rect>

<!-- Starfield ambient dots (8 twinkles, upper area) -->
<g fill="#8FB8FF">
  <circle cx="160" cy="78" r="1.2"><animate attributeName="opacity" values="0.2;1;0.2" dur="3.1s" repeatCount="indefinite"/></circle>
  <circle cx="420" cy="86" r="1.0"><animate attributeName="opacity" values="0.2;0.9;0.2" dur="4.4s" repeatCount="indefinite"/></circle>
  <circle cx="720" cy="80" r="1.3"><animate attributeName="opacity" values="0.25;1;0.25" dur="3.7s" repeatCount="indefinite"/></circle>
  <circle cx="1040" cy="88" r="0.9"><animate attributeName="opacity" values="0.2;0.85;0.2" dur="5.2s" repeatCount="indefinite"/></circle>
</g>

<g>
  <text x="60" y="96" font-family="Inter, Helvetica, Arial, sans-serif" font-size="13" font-weight="700" fill="#9FD3B0" letter-spacing="3">THIS WEEK  /  APR 13 - 19</text>
  <text x="60" y="130" font-family="Inter, Helvetica, Arial, sans-serif" font-size="28" font-weight="800" fill="#F5F7FA" filter="url(#textShadow)">Three Incidents Across Seven Days</text>
</g>

<!-- Timeline axis with gradient -->
<line x1="60" y1="170" x2="1140" y2="170" stroke="url(#timelineGrad)" stroke-width="3.4" stroke-linecap="round"/>
<!-- Moving traveler along axis -->
<circle r="5" fill="#F5F7FA" stroke="#8FB8FF" stroke-width="1.4">
  <animate attributeName="cx" values="60;1140;60" dur="11s" repeatCount="indefinite"/>
  <animate attributeName="cy" values="170;170;170" dur="11s" repeatCount="indefinite"/>
  <animate attributeName="opacity" values="0;1;1;1;0" dur="11s" repeatCount="indefinite"/>
</circle>

<g font-family="Inter, monospace" font-size="10" font-weight="700" fill="#7DA3D9">
  <line x1="80" y1="163" x2="80" y2="177" stroke="#4A6AA0" stroke-width="1.2"/>
  <text x="80" y="194" text-anchor="middle">APR 13</text>
  <line x1="240" y1="163" x2="240" y2="177" stroke="#4A6AA0" stroke-width="1.2"/>
  <text x="240" y="194" text-anchor="middle" fill="#8FB8FF">APR 14</text>
  <line x1="400" y1="163" x2="400" y2="177" stroke="#4A6AA0" stroke-width="1.2"/>
  <text x="400" y="194" text-anchor="middle">APR 15</text>
  <line x1="600" y1="163" x2="600" y2="177" stroke="#4A6AA0" stroke-width="1.2"/>
  <text x="600" y="194" text-anchor="middle" fill="#FFB703">APR 16</text>
  <line x1="800" y1="163" x2="800" y2="177" stroke="#4A6AA0" stroke-width="1.2"/>
  <text x="800" y="194" text-anchor="middle">APR 17</text>
  <line x1="980" y1="163" x2="980" y2="177" stroke="#4A6AA0" stroke-width="1.2"/>
  <text x="980" y="194" text-anchor="middle" fill="#F87171">APR 18</text>
  <line x1="1120" y1="163" x2="1120" y2="177" stroke="#4A6AA0" stroke-width="1.2"/>
  <text x="1120" y="194" text-anchor="middle">APR 19</text>
</g>

<!-- Event anchor dots -->
<g>
  <g transform="translate(240,170)">
    <circle r="22" fill="url(#glowBlue)">
      <animate attributeName="r" values="20;32;20" dur="2.8s" repeatCount="indefinite"/>
      <animate attributeName="opacity" values="0.6;1;0.6" dur="2.8s" repeatCount="indefinite"/>
    </circle>
    <circle r="10" fill="#0A1B2E" stroke="#3A86FF" stroke-width="3" filter="url(#softShadow)"/>
    <circle r="3.5" fill="#8FB8FF">
      <animate attributeName="opacity" values="1;0.3;1" dur="1.6s" repeatCount="indefinite"/>
    </circle>
  </g>
  <g transform="translate(600,170)">
    <circle r="22" fill="url(#glowAmber)">
      <animate attributeName="r" values="20;32;20" dur="2.8s" begin="0.4s" repeatCount="indefinite"/>
      <animate attributeName="opacity" values="0.6;1;0.6" dur="2.8s" begin="0.4s" repeatCount="indefinite"/>
    </circle>
    <circle r="10" fill="#1E1006" stroke="#FFB703" stroke-width="3" filter="url(#softShadow)"/>
    <circle r="3.5" fill="#FFD58A">
      <animate attributeName="opacity" values="1;0.3;1" dur="1.8s" repeatCount="indefinite"/>
    </circle>
  </g>
  <g transform="translate(980,170)">
    <circle r="22" fill="url(#glowRed)">
      <animate attributeName="r" values="20;32;20" dur="2.8s" begin="0.8s" repeatCount="indefinite"/>
      <animate attributeName="opacity" values="0.6;1;0.6" dur="2.8s" begin="0.8s" repeatCount="indefinite"/>
    </circle>
    <circle r="10" fill="#1E0A14" stroke="#E63946" stroke-width="3" filter="url(#softShadow)"/>
    <circle r="3.5" fill="#FCA5A5">
      <animate attributeName="opacity" values="1;0.3;1" dur="1.7s" repeatCount="indefinite"/>
    </circle>
  </g>
</g>

<line x1="240" y1="180" x2="240" y2="216" stroke="#3A86FF" stroke-width="1.4" stroke-dasharray="3 3" opacity="0.7"/>
<line x1="600" y1="180" x2="600" y2="216" stroke="#FFB703" stroke-width="1.4" stroke-dasharray="3 3" opacity="0.7"/>
<line x1="980" y1="180" x2="980" y2="216" stroke="#E63946" stroke-width="1.4" stroke-dasharray="3 3" opacity="0.7"/>

<!-- COL A: Mirai Nexcorium (Apr 14) with DVR camera scene -->
<g transform="translate(72,216)">
  <rect x="0" y="0" width="336" height="390" rx="14" fill="url(#colA)" stroke="#3A86FF" stroke-width="1.6" opacity="0.97"/>
  <rect x="0" y="0" width="336" height="4" fill="#3A86FF" opacity="0.7"/>
  <g filter="url(#textShadow)">
    <text x="20" y="28" font-family="Inter, Helvetica, Arial, sans-serif" font-size="11" font-weight="700" fill="#8FB8FF" letter-spacing="2.4">HIGH  /  IoT BOTNET</text>
    <text x="20" y="56" font-family="Inter, Helvetica, Arial, sans-serif" font-size="22" font-weight="800" fill="#F5F7FA">Mirai Nexcorium</text>
    <text x="20" y="80" font-family="Inter, Helvetica, Arial, sans-serif" font-size="13" font-weight="500" fill="#BFC9D9">TBK DVR takeover - DDoS botnet</text>
  </g>
  <!-- Scene: DVR camera icon + botnet spokes -->
  <g transform="translate(168,140)">
    <!-- DVR box -->
    <g filter="url(#softShadow)">
      <rect x="-42" y="-24" width="84" height="40" rx="4" fill="#0A1B2E" stroke="#3A86FF" stroke-width="1.6"/>
      <circle cx="-28" cy="-12" r="3" fill="#E63946">
        <animate attributeName="opacity" values="0.3;1;0.3" dur="1.2s" repeatCount="indefinite"/>
      </circle>
      <circle cx="-18" cy="-12" r="3" fill="#FFB703"/>
      <rect x="-8" y="-6" width="44" height="12" rx="2" fill="#1E2A48"/>
      <text x="14" y="2" text-anchor="middle" font-family="Inter, monospace" font-size="6" font-weight="800" fill="#8FB8FF">TBK-DVR</text>
      <text x="0" y="30" text-anchor="middle" font-family="Inter, monospace" font-size="9" font-weight="800" fill="#8FB8FF">CAMERA DVR</text>
    </g>
    <!-- Botnet spokes (4 dots around) -->
    <g stroke="#3A86FF" stroke-width="1" stroke-dasharray="3 3" fill="none" opacity="0.7">
      <line x1="-42" y1="0" x2="-68" y2="-24"/>
      <line x1="42" y1="0" x2="68" y2="-24"/>
      <line x1="-42" y1="10" x2="-68" y2="24"/>
      <line x1="42" y1="10" x2="68" y2="24"/>
    </g>
    <g fill="#8FB8FF">
      <circle cx="-68" cy="-24" r="3.5"><animate attributeName="opacity" values="0.3;1;0.3" dur="1.7s" repeatCount="indefinite"/></circle>
      <circle cx="68" cy="-24" r="3.5"><animate attributeName="opacity" values="0.3;1;0.3" dur="2.0s" begin="0.3s" repeatCount="indefinite"/></circle>
      <circle cx="-68" cy="24" r="3.5"><animate attributeName="opacity" values="0.3;1;0.3" dur="1.9s" begin="0.5s" repeatCount="indefinite"/></circle>
      <circle cx="68" cy="24" r="3.5"><animate attributeName="opacity" values="0.3;1;0.3" dur="2.1s" begin="0.7s" repeatCount="indefinite"/></circle>
    </g>
  </g>
  <!-- Attack chain (3 steps instead of 4, tighter) -->
  <g transform="translate(28,208)">
    <g>
      <rect x="0" y="0" width="280" height="34" rx="6" fill="#0A1B2E" stroke="#3A86FF" stroke-width="1.2"/>
      <circle cx="18" cy="17" r="7" fill="#3A86FF"/>
      <text x="18" y="21" text-anchor="middle" font-family="Inter, monospace" font-size="10" font-weight="800" fill="#FFFFFF">1</text>
      <text x="36" y="22" font-family="Inter, Helvetica, Arial, sans-serif" font-size="12" font-weight="700" fill="#F5F7FA">CVE-2024-3721 auth bypass</text>
    </g>
    <line x1="18" y1="38" x2="18" y2="50" stroke="#3A86FF" stroke-width="1.4" stroke-dasharray="2 2"/>
    <g transform="translate(0,54)">
      <rect x="0" y="0" width="280" height="34" rx="6" fill="#0A1B2E" stroke="#3A86FF" stroke-width="1.2"/>
      <circle cx="18" cy="17" r="7" fill="#3A86FF"/>
      <text x="18" y="21" text-anchor="middle" font-family="Inter, monospace" font-size="10" font-weight="800" fill="#FFFFFF">2</text>
      <text x="36" y="22" font-family="Inter, Helvetica, Arial, sans-serif" font-size="12" font-weight="700" fill="#F5F7FA">Mirai drop + C2 register</text>
    </g>
    <line x1="18" y1="92" x2="18" y2="104" stroke="#3A86FF" stroke-width="1.4" stroke-dasharray="2 2"/>
    <g transform="translate(0,108)">
      <rect x="0" y="0" width="280" height="34" rx="6" fill="#12283F" stroke="#8FB8FF" stroke-width="1.4"/>
      <circle cx="18" cy="17" r="7" fill="#8FB8FF"/>
      <text x="18" y="21" text-anchor="middle" font-family="Inter, monospace" font-size="10" font-weight="800" fill="#0A1020">3</text>
      <text x="36" y="22" font-family="Inter, Helvetica, Arial, sans-serif" font-size="12" font-weight="800" fill="#F5F7FA">DDoS botnet launch</text>
    </g>
  </g>
  <!-- KPI pill -->
  <g transform="translate(28,348)" filter="url(#softShadow)">
    <rect x="0" y="0" width="280" height="32" rx="8" fill="#12283F" stroke="#3A86FF" stroke-width="1.6"/>
    <text x="14" y="21" font-family="Inter, monospace" font-size="11" font-weight="700" fill="#8FB8FF">CVE</text>
    <text x="140" y="22" text-anchor="middle" font-family="Inter, Helvetica, Arial, sans-serif" font-size="16" font-weight="900" fill="#F5F7FA">2024-3721</text>
    <text x="266" y="21" text-anchor="end" font-family="Inter, monospace" font-size="10" font-weight="700" fill="#8FB8FF">TBK DVR</text>
  </g>
</g>

<!-- COL B: Helpdesk impersonation (Apr 16) with phone call scene -->
<g transform="translate(432,216)">
  <rect x="0" y="0" width="336" height="390" rx="14" fill="url(#colB)" stroke="#FFB703" stroke-width="1.6" opacity="0.97"/>
  <rect x="0" y="0" width="336" height="4" fill="#FFB703" opacity="0.7"/>
  <g filter="url(#textShadow)">
    <text x="20" y="28" font-family="Inter, Helvetica, Arial, sans-serif" font-size="11" font-weight="700" fill="#FFB703" letter-spacing="2.4">HIGH  /  SOCIAL ENG</text>
    <text x="20" y="56" font-family="Inter, Helvetica, Arial, sans-serif" font-size="22" font-weight="800" fill="#F5F7FA">Helpdesk Impersonation</text>
    <text x="20" y="80" font-family="Inter, Helvetica, Arial, sans-serif" font-size="13" font-weight="500" fill="#FFD58A">Cross-tenant to data exfiltration</text>
  </g>
  <!-- Scene: phone handset + impersonator user + target user + MFA prompt -->
  <g transform="translate(168,140)">
    <!-- impersonator avatar (left, dark) -->
    <g filter="url(#softShadow)">
      <circle cx="-56" cy="0" r="14" fill="#2E1A0A" stroke="#FFB703" stroke-width="1.6"/>
      <circle cx="-56" cy="-3" r="4" fill="#FFB703"/>
      <path d="M-65 8 Q-56 3 -47 8 Q-47 14 -56 14 Q-65 14 -65 8 Z" fill="#FFB703"/>
      <text x="-56" y="32" text-anchor="middle" font-family="Inter, monospace" font-size="7" font-weight="800" fill="#FFD58A">IMPOSTOR</text>
    </g>
    <!-- phone wave -->
    <g stroke="#FFB703" stroke-width="1.4" fill="none" opacity="0.85">
      <path d="M-36 -4 Q-20 -8 -4 -4">
        <animate attributeName="stroke-opacity" values="0.3;1;0.3" dur="1.6s" repeatCount="indefinite"/>
      </path>
      <path d="M-36 0 Q-20 -4 -4 0"/>
      <path d="M-36 4 Q-20 0 -4 4">
        <animate attributeName="stroke-opacity" values="0.3;1;0.3" dur="1.6s" begin="0.4s" repeatCount="indefinite"/>
      </path>
    </g>
    <!-- helpdesk / target user (right) -->
    <g filter="url(#softShadow)">
      <circle cx="56" cy="0" r="14" fill="#0F2538" stroke="#FFD58A" stroke-width="1.6"/>
      <circle cx="56" cy="-3" r="4" fill="#FFD58A"/>
      <path d="M47 8 Q56 3 65 8 Q65 14 56 14 Q47 14 47 8 Z" fill="#FFD58A"/>
      <text x="56" y="32" text-anchor="middle" font-family="Inter, monospace" font-size="7" font-weight="800" fill="#FFD58A">HELPDESK</text>
    </g>
    <!-- MFA prompt floating above -->
    <g transform="translate(0,-36)">
      <rect x="-26" y="-12" width="52" height="22" rx="4" fill="#1E1006" stroke="#FFB703" stroke-width="1.2"/>
      <text x="0" y="3" text-anchor="middle" font-family="Inter, monospace" font-size="9" font-weight="800" fill="#FFB703">MFA RESET</text>
      <circle cx="-26" cy="0" r="2.5" fill="#E63946">
        <animate attributeName="opacity" values="0.3;1;0.3" dur="1.2s" repeatCount="indefinite"/>
      </circle>
    </g>
  </g>
  <!-- Attack chain (3 steps) -->
  <g transform="translate(28,208)">
    <g>
      <rect x="0" y="0" width="280" height="34" rx="6" fill="#1E1006" stroke="#FFB703" stroke-width="1.2"/>
      <circle cx="18" cy="17" r="7" fill="#FFB703"/>
      <text x="18" y="21" text-anchor="middle" font-family="Inter, monospace" font-size="10" font-weight="800" fill="#1A1202">1</text>
      <text x="36" y="22" font-family="Inter, Helvetica, Arial, sans-serif" font-size="12" font-weight="700" fill="#F5F7FA">Helpdesk call + MFA reset</text>
    </g>
    <line x1="18" y1="38" x2="18" y2="50" stroke="#FFB703" stroke-width="1.4" stroke-dasharray="2 2"/>
    <g transform="translate(0,54)">
      <rect x="0" y="0" width="280" height="34" rx="6" fill="#1E1006" stroke="#FFB703" stroke-width="1.2"/>
      <circle cx="18" cy="17" r="7" fill="#FFB703"/>
      <text x="18" y="21" text-anchor="middle" font-family="Inter, monospace" font-size="10" font-weight="800" fill="#1A1202">2</text>
      <text x="36" y="22" font-family="Inter, Helvetica, Arial, sans-serif" font-size="12" font-weight="700" fill="#F5F7FA">Cross-tenant pivot</text>
    </g>
    <line x1="18" y1="92" x2="18" y2="104" stroke="#FFB703" stroke-width="1.4" stroke-dasharray="2 2"/>
    <g transform="translate(0,108)">
      <rect x="0" y="0" width="280" height="34" rx="6" fill="#2A1A0C" stroke="#FFD58A" stroke-width="1.4"/>
      <circle cx="18" cy="17" r="7" fill="#FFD58A"/>
      <text x="18" y="21" text-anchor="middle" font-family="Inter, monospace" font-size="10" font-weight="800" fill="#1A1202">3</text>
      <text x="36" y="22" font-family="Inter, Helvetica, Arial, sans-serif" font-size="12" font-weight="800" fill="#F5F7FA">Data exfiltration</text>
    </g>
  </g>
  <!-- KPI pill -->
  <g transform="translate(28,348)" filter="url(#softShadow)">
    <rect x="0" y="0" width="280" height="32" rx="8" fill="#2A1A0C" stroke="#FFB703" stroke-width="1.6"/>
    <text x="14" y="21" font-family="Inter, monospace" font-size="11" font-weight="700" fill="#FFB703">VECTOR</text>
    <text x="140" y="22" text-anchor="middle" font-family="Inter, Helvetica, Arial, sans-serif" font-size="14" font-weight="900" fill="#F5F7FA">Human Ops</text>
    <text x="266" y="21" text-anchor="end" font-family="Inter, monospace" font-size="10" font-weight="700" fill="#FFB703">MSFT</text>
  </g>
</g>

<!-- COL C: Grinex hack (Apr 18) with vault scene -->
<g transform="translate(792,216)">
  <rect x="0" y="0" width="336" height="390" rx="14" fill="url(#colC)" stroke="#E63946" stroke-width="1.6" opacity="0.97"/>
  <rect x="0" y="0" width="336" height="4" fill="#E63946" opacity="0.7"/>
  <g filter="url(#textShadow)">
    <text x="20" y="28" font-family="Inter, Helvetica, Arial, sans-serif" font-size="11" font-weight="700" fill="#F87171" letter-spacing="2.4">HIGH  /  EXCHANGE</text>
    <text x="20" y="56" font-family="Inter, Helvetica, Arial, sans-serif" font-size="22" font-weight="800" fill="#F5F7FA">Grinex Exchange Shutdown</text>
    <text x="20" y="80" font-family="Inter, Helvetica, Arial, sans-serif" font-size="13" font-weight="500" fill="#FBB6BD">13.74M drained, intel agency claim</text>
  </g>
  <!-- Scene: vault door ajar + coins escaping -->
  <g transform="translate(168,140)">
    <!-- vault frame -->
    <g filter="url(#softShadow)">
      <rect x="-50" y="-32" width="100" height="64" rx="4" fill="url(#vaultGrad)" stroke="#E63946" stroke-width="2"/>
      <circle cx="-26" cy="0" r="12" fill="#1E0A14" stroke="#FCA5A5" stroke-width="1.4"/>
      <!-- vault handle -->
      <g stroke="#FCA5A5" stroke-width="1.6" fill="none">
        <line x1="-26" y1="-8" x2="-26" y2="8"/>
        <line x1="-34" y1="0" x2="-18" y2="0"/>
        <line x1="-32" y1="-6" x2="-20" y2="6"/>
        <line x1="-32" y1="6" x2="-20" y2="-6"/>
      </g>
      <!-- vault door partly open, showing inside -->
      <rect x="2" y="-22" width="44" height="44" rx="2" fill="#3A0F1A" stroke="#FCA5A5" stroke-width="1" stroke-dasharray="2 2"/>
      <text x="24" y="5" text-anchor="middle" font-family="Inter, monospace" font-size="8" font-weight="800" fill="#FCA5A5">EMPTY</text>
    </g>
    <!-- 3 coins escaping -->
    <g>
      <circle cx="56" cy="0" r="5" fill="#FFB703" stroke="#FB8500" stroke-width="1">
        <animate attributeName="cx" values="50;76;50" dur="2.4s" repeatCount="indefinite"/>
        <animate attributeName="opacity" values="1;0;1" dur="2.4s" repeatCount="indefinite"/>
      </circle>
      <circle cx="60" cy="-8" r="4" fill="#FFB703" stroke="#FB8500" stroke-width="1">
        <animate attributeName="cx" values="52;78;52" dur="2.8s" begin="0.4s" repeatCount="indefinite"/>
        <animate attributeName="opacity" values="1;0;1" dur="2.8s" begin="0.4s" repeatCount="indefinite"/>
      </circle>
      <circle cx="58" cy="10" r="4" fill="#FFB703" stroke="#FB8500" stroke-width="1">
        <animate attributeName="cx" values="52;80;52" dur="3.2s" begin="0.8s" repeatCount="indefinite"/>
        <animate attributeName="opacity" values="1;0;1" dur="3.2s" begin="0.8s" repeatCount="indefinite"/>
      </circle>
    </g>
    <text x="0" y="48" text-anchor="middle" font-family="Inter, monospace" font-size="9" font-weight="800" fill="#FCA5A5">VAULT DRAINED</text>
  </g>
  <!-- Attack chain (3 steps) -->
  <g transform="translate(28,208)">
    <g>
      <rect x="0" y="0" width="280" height="34" rx="6" fill="#1E0A14" stroke="#E63946" stroke-width="1.2"/>
      <circle cx="18" cy="17" r="7" fill="#E63946"/>
      <text x="18" y="21" text-anchor="middle" font-family="Inter, monospace" font-size="10" font-weight="800" fill="#FFFFFF">1</text>
      <text x="36" y="22" font-family="Inter, Helvetica, Arial, sans-serif" font-size="12" font-weight="700" fill="#F5F7FA">Post-sanctions nation-state breach</text>
    </g>
    <line x1="18" y1="38" x2="18" y2="50" stroke="#E63946" stroke-width="1.4" stroke-dasharray="2 2"/>
    <g transform="translate(0,54)">
      <rect x="0" y="0" width="280" height="34" rx="6" fill="#1E0A14" stroke="#E63946" stroke-width="1.2"/>
      <circle cx="18" cy="17" r="7" fill="#E63946"/>
      <text x="18" y="21" text-anchor="middle" font-family="Inter, monospace" font-size="10" font-weight="800" fill="#FFFFFF">2</text>
      <text x="36" y="22" font-family="Inter, Helvetica, Arial, sans-serif" font-size="12" font-weight="700" fill="#F5F7FA">13.74M USD drained</text>
    </g>
    <line x1="18" y1="92" x2="18" y2="104" stroke="#E63946" stroke-width="1.4" stroke-dasharray="2 2"/>
    <g transform="translate(0,108)">
      <rect x="0" y="0" width="280" height="34" rx="6" fill="#3A0F1A" stroke="#FCA5A5" stroke-width="1.4"/>
      <circle cx="18" cy="17" r="7" fill="#FCA5A5"/>
      <text x="18" y="21" text-anchor="middle" font-family="Inter, monospace" font-size="10" font-weight="800" fill="#1A0005">3</text>
      <text x="36" y="22" font-family="Inter, Helvetica, Arial, sans-serif" font-size="12" font-weight="800" fill="#F5F7FA">Exchange shutdown</text>
    </g>
  </g>
  <!-- KPI pill -->
  <g transform="translate(28,348)" filter="url(#softShadow)">
    <rect x="0" y="0" width="280" height="32" rx="8" fill="#3A0F1A" stroke="#E63946" stroke-width="1.6"/>
    <text x="14" y="21" font-family="Inter, monospace" font-size="11" font-weight="700" fill="#F87171">LOSS</text>
    <text x="140" y="22" text-anchor="middle" font-family="Inter, Helvetica, Arial, sans-serif" font-size="16" font-weight="900" fill="#F5F7FA">$13.74M</text>
    <text x="266" y="21" text-anchor="end" font-family="Inter, monospace" font-size="10" font-weight="700" fill="#F87171">GRINEX</text>
  </g>
</g>

<!-- Ambient spark dots along timeline -->
<g opacity="0.8">
  <g fill="#8FB8FF">
    <circle cx="340" cy="170" r="1.2"><animate attributeName="opacity" values="0;1;0" dur="2s" repeatCount="indefinite"/></circle>
    <circle cx="420" cy="170" r="1.2"><animate attributeName="opacity" values="0;1;0" dur="2.2s" begin="0.4s" repeatCount="indefinite"/></circle>
  </g>
  <g fill="#FFD58A">
    <circle cx="700" cy="170" r="1.2"><animate attributeName="opacity" values="0;1;0" dur="1.9s" repeatCount="indefinite"/></circle>
    <circle cx="780" cy="170" r="1.2"><animate attributeName="opacity" values="0;1;0" dur="2.1s" begin="0.4s" repeatCount="indefinite"/></circle>
  </g>
  <g fill="#FCA5A5">
    <circle cx="1060" cy="170" r="1.2"><animate attributeName="opacity" values="0;1;0" dur="2s" repeatCount="indefinite"/></circle>
  </g>
</g>

<!-- cover-qr: https://tech.2twodragon.com/posts/2026/04/19/Tech_Security_Weekly_Digest_AI_Data_CVE_Botnet/ : 41x41 -->
<g transform="translate(1080,504)" filter="url(#softShadow)">
  <rect x="-8" y="-8" width="100" height="100" rx="6" fill="#FFFFFF"/>
  <g transform="scale(2.048780)" fill="#0A1020">
    <path d="M0 0h7v1h-7zM8 0h1v1h-1zM10 0h1v1h-1zM12 0h3v1h-3zM18 0h3v1h-3zM22 0h1v1h-1zM28 0h5v1h-5zM34 0h7v1h-7zM0 1h1v1h-1zM6 1h1v1h-1zM8 1h1v1h-1zM14 1h1v1h-1zM16 1h2v1h-2zM20 1h4v1h-4zM26 1h1v1h-1zM30 1h1v1h-1zM34 1h1v1h-1zM40 1h1v1h-1zM0 2h1v1h-1zM2 2h3v1h-3zM6 2h1v1h-1zM9 2h1v1h-1zM11 2h3v1h-3zM15 2h2v1h-2zM18 2h5v1h-5zM24 2h3v1h-3zM31 2h2v1h-2zM34 2h1v1h-1zM36 2h3v1h-3zM40 2h1v1h-1zM0 3h1v1h-1zM2 3h3v1h-3zM6 3h1v1h-1zM8 3h2v1h-2zM11 3h1v1h-1zM14 3h1v1h-1zM18 3h1v1h-1zM20 3h3v1h-3zM27 3h3v1h-3zM32 3h1v1h-1zM34 3h1v1h-1zM36 3h3v1h-3zM40 3h1v1h-1zM0 4h1v1h-1zM2 4h3v1h-3zM6 4h1v1h-1zM10 4h1v1h-1zM12 4h3v1h-3zM16 4h1v1h-1zM18 4h1v1h-1zM23 4h2v1h-2zM27 4h1v1h-1zM29 4h1v1h-1zM31 4h2v1h-2zM34 4h1v1h-1zM36 4h3v1h-3zM40 4h1v1h-1zM0 5h1v1h-1zM6 5h1v1h-1zM10 5h2v1h-2zM15 5h1v1h-1zM17 5h6v1h-6zM24 5h1v1h-1zM28 5h1v1h-1zM30 5h2v1h-2zM34 5h1v1h-1zM40 5h1v1h-1zM0 6h7v1h-7zM8 6h1v1h-1zM10 6h1v1h-1zM12 6h1v1h-1zM14 6h1v1h-1zM16 6h1v1h-1zM18 6h1v1h-1zM20 6h1v1h-1zM22 6h1v1h-1zM24 6h1v1h-1zM26 6h1v1h-1zM28 6h1v1h-1zM30 6h1v1h-1zM32 6h1v1h-1zM34 6h7v1h-7zM8 7h1v1h-1zM11 7h3v1h-3zM17 7h1v1h-1zM19 7h1v1h-1zM24 7h1v1h-1zM26 7h1v1h-1zM29 7h1v1h-1zM31 7h2v1h-2zM0 8h1v1h-1zM2 8h2v1h-2zM5 8h3v1h-3zM9 8h1v1h-1zM11 8h1v1h-1zM13 8h1v1h-1zM15 8h1v1h-1zM17 8h2v1h-2zM21 8h1v1h-1zM23 8h2v1h-2zM26 8h1v1h-1zM29 8h4v1h-4zM34 8h1v1h-1zM37 8h1v1h-1zM39 8h2v1h-2zM0 9h3v1h-3zM5 9h1v1h-1zM7 9h1v1h-1zM11 9h1v1h-1zM16 9h1v1h-1zM18 9h2v1h-2zM21 9h1v1h-1zM23 9h1v1h-1zM26 9h1v1h-1zM30 9h3v1h-3zM35 9h2v1h-2zM38 9h2v1h-2zM0 10h1v1h-1zM4 10h6v1h-6zM20 10h1v1h-1zM22 10h2v1h-2zM29 10h1v1h-1zM33 10h2v1h-2zM38 10h2v1h-2zM0 11h1v1h-1zM2 11h3v1h-3zM7 11h1v1h-1zM9 11h1v1h-1zM11 11h5v1h-5zM18 11h1v1h-1zM20 11h1v1h-1zM22 11h1v1h-1zM24 11h2v1h-2zM27 11h1v1h-1zM32 11h2v1h-2zM36 11h1v1h-1zM39 11h1v1h-1zM5 12h3v1h-3zM17 12h1v1h-1zM19 12h1v1h-1zM22 12h1v1h-1zM25 12h1v1h-1zM29 12h3v1h-3zM35 12h1v1h-1zM37 12h2v1h-2zM40 12h1v1h-1zM0 13h1v1h-1zM2 13h1v1h-1zM4 13h2v1h-2zM8 13h1v1h-1zM14 13h4v1h-4zM21 13h1v1h-1zM23 13h1v1h-1zM25 13h2v1h-2zM28 13h1v1h-1zM30 13h2v1h-2zM37 13h1v1h-1zM39 13h2v1h-2zM1 14h2v1h-2zM4 14h5v1h-5zM10 14h1v1h-1zM12 14h2v1h-2zM15 14h1v1h-1zM21 14h1v1h-1zM24 14h2v1h-2zM27 14h3v1h-3zM31 14h1v1h-1zM34 14h3v1h-3zM38 14h3v1h-3zM1 15h1v1h-1zM7 15h1v1h-1zM9 15h1v1h-1zM13 15h3v1h-3zM19 15h4v1h-4zM24 15h1v1h-1zM26 15h1v1h-1zM28 15h1v1h-1zM32 15h1v1h-1zM34 15h1v1h-1zM36 15h2v1h-2zM0 16h1v1h-1zM5 16h2v1h-2zM13 16h2v1h-2zM16 16h1v1h-1zM18 16h3v1h-3zM22 16h4v1h-4zM27 16h1v1h-1zM30 16h1v1h-1zM32 16h1v1h-1zM36 16h2v1h-2zM39 16h1v1h-1zM2 17h1v1h-1zM4 17h2v1h-2zM8 17h1v1h-1zM10 17h1v1h-1zM12 17h1v1h-1zM14 17h1v1h-1zM16 17h5v1h-5zM22 17h3v1h-3zM32 17h2v1h-2zM35 17h1v1h-1zM37 17h1v1h-1zM1 18h1v1h-1zM3 18h1v1h-1zM5 18h4v1h-4zM13 18h1v1h-1zM15 18h1v1h-1zM17 18h1v1h-1zM20 18h2v1h-2zM25 18h4v1h-4zM32 18h1v1h-1zM36 18h1v1h-1zM38 18h2v1h-2zM3 19h2v1h-2zM9 19h1v1h-1zM11 19h3v1h-3zM15 19h1v1h-1zM19 19h1v1h-1zM22 19h1v1h-1zM25 19h6v1h-6zM35 19h1v1h-1zM37 19h3v1h-3zM6 20h3v1h-3zM12 20h5v1h-5zM18 20h1v1h-1zM20 20h1v1h-1zM22 20h1v1h-1zM25 20h3v1h-3zM29 20h7v1h-7zM37 20h3v1h-3zM0 21h2v1h-2zM3 21h3v1h-3zM8 21h1v1h-1zM10 21h1v1h-1zM12 21h2v1h-2zM16 21h1v1h-1zM18 21h1v1h-1zM20 21h5v1h-5zM31 21h1v1h-1zM34 21h3v1h-3zM39 21h2v1h-2zM0 22h4v1h-4zM5 22h3v1h-3zM9 22h2v1h-2zM13 22h1v1h-1zM15 22h1v1h-1zM20 22h1v1h-1zM23 22h2v1h-2zM28 22h3v1h-3zM33 22h2v1h-2zM37 22h1v1h-1zM39 22h1v1h-1zM2 23h2v1h-2zM11 23h1v1h-1zM14 23h1v1h-1zM16 23h1v1h-1zM18 23h2v1h-2zM25 23h1v1h-1zM27 23h1v1h-1zM30 23h1v1h-1zM32 23h2v1h-2zM35 23h1v1h-1zM40 23h1v1h-1zM1 24h1v1h-1zM4 24h3v1h-3zM11 24h2v1h-2zM14 24h1v1h-1zM17 24h1v1h-1zM19 24h1v1h-1zM22 24h5v1h-5zM29 24h1v1h-1zM31 24h1v1h-1zM35 24h1v1h-1zM37 24h1v1h-1zM40 24h1v1h-1zM0 25h1v1h-1zM3 25h2v1h-2zM8 25h5v1h-5zM15 25h3v1h-3zM19 25h1v1h-1zM24 25h2v1h-2zM27 25h1v1h-1zM29 25h1v1h-1zM31 25h3v1h-3zM37 25h3v1h-3zM0 26h2v1h-2zM3 26h1v1h-1zM5 26h4v1h-4zM10 26h2v1h-2zM13 26h4v1h-4zM18 26h3v1h-3zM24 26h1v1h-1zM26 26h1v1h-1zM28 26h2v1h-2zM31 26h2v1h-2zM34 26h1v1h-1zM37 26h1v1h-1zM39 26h2v1h-2zM1 27h3v1h-3zM5 27h1v1h-1zM7 27h1v1h-1zM11 27h1v1h-1zM13 27h1v1h-1zM15 27h1v1h-1zM19 27h5v1h-5zM26 27h2v1h-2zM30 27h8v1h-8zM0 28h2v1h-2zM3 28h2v1h-2zM6 28h7v1h-7zM16 28h1v1h-1zM18 28h2v1h-2zM21 28h2v1h-2zM25 28h3v1h-3zM31 28h1v1h-1zM33 28h1v1h-1zM36 28h2v1h-2zM2 29h1v1h-1zM4 29h1v1h-1zM9 29h3v1h-3zM15 29h1v1h-1zM19 29h1v1h-1zM22 29h1v1h-1zM24 29h3v1h-3zM28 29h3v1h-3zM32 29h1v1h-1zM35 29h1v1h-1zM37 29h1v1h-1zM39 29h1v1h-1zM0 30h1v1h-1zM2 30h2v1h-2zM6 30h4v1h-4zM12 30h1v1h-1zM14 30h1v1h-1zM20 30h2v1h-2zM23 30h6v1h-6zM32 30h4v1h-4zM8 31h1v1h-1zM10 31h4v1h-4zM16 31h2v1h-2zM20 31h1v1h-1zM22 31h1v1h-1zM24 31h1v1h-1zM27 31h3v1h-3zM31 31h1v1h-1zM34 31h1v1h-1zM36 31h5v1h-5zM1 32h6v1h-6zM9 32h2v1h-2zM12 32h1v1h-1zM16 32h5v1h-5zM23 32h2v1h-2zM26 32h2v1h-2zM29 32h2v1h-2zM32 32h7v1h-7zM40 32h1v1h-1zM8 33h1v1h-1zM10 33h2v1h-2zM13 33h4v1h-4zM18 33h1v1h-1zM20 33h1v1h-1zM23 33h1v1h-1zM27 33h2v1h-2zM32 33h1v1h-1zM36 33h1v1h-1zM38 33h3v1h-3zM0 34h7v1h-7zM8 34h2v1h-2zM11 34h2v1h-2zM14 34h1v1h-1zM16 34h2v1h-2zM21 34h4v1h-4zM26 34h1v1h-1zM28 34h5v1h-5zM34 34h1v1h-1zM36 34h4v1h-4zM0 35h1v1h-1zM6 35h1v1h-1zM8 35h6v1h-6zM16 35h1v1h-1zM18 35h2v1h-2zM21 35h2v1h-2zM24 35h3v1h-3zM28 35h1v1h-1zM32 35h1v1h-1zM36 35h1v1h-1zM39 35h1v1h-1zM0 36h1v1h-1zM2 36h3v1h-3zM6 36h1v1h-1zM9 36h1v1h-1zM13 36h3v1h-3zM18 36h2v1h-2zM21 36h2v1h-2zM29 36h2v1h-2zM32 36h7v1h-7zM40 36h1v1h-1zM0 37h1v1h-1zM2 37h3v1h-3zM6 37h1v1h-1zM8 37h1v1h-1zM10 37h3v1h-3zM14 37h3v1h-3zM18 37h2v1h-2zM27 37h1v1h-1zM29 37h1v1h-1zM31 37h1v1h-1zM36 37h4v1h-4zM0 38h1v1h-1zM2 38h3v1h-3zM6 38h1v1h-1zM8 38h4v1h-4zM14 38h1v1h-1zM19 38h3v1h-3zM24 38h1v1h-1zM26 38h1v1h-1zM28 38h2v1h-2zM35 38h1v1h-1zM37 38h4v1h-4zM0 39h1v1h-1zM6 39h1v1h-1zM10 39h1v1h-1zM12 39h1v1h-1zM14 39h3v1h-3zM19 39h1v1h-1zM21 39h2v1h-2zM24 39h1v1h-1zM26 39h1v1h-1zM28 39h1v1h-1zM32 39h2v1h-2zM36 39h2v1h-2zM39 39h1v1h-1zM0 40h7v1h-7zM8 40h1v1h-1zM10 40h1v1h-1zM14 40h2v1h-2zM17 40h1v1h-1zM20 40h4v1h-4zM25 40h1v1h-1zM30 40h1v1h-1zM32 40h3v1h-3zM38 40h2v1h-2z"/>
  </g>
</g>
<text x="1122" y="614" font-family="Inter, Helvetica, Arial, sans-serif" font-size="10" font-weight="700" fill="#F5F7FA" text-anchor="middle">scan / full post</text>
</svg>
