<svg xmlns="http://www.w3.org/2000/svg" viewBox="0 0 1200 630">
  <defs>
    <linearGradient id="bg" x1="0%" y1="0%" x2="100%" y2="100%">
      <stop offset="0%" style="stop-color:#0a0a1a"/><stop offset="100%" style="stop-color:#1a0a0a"/>
    </linearGradient>
    <filter id="glow"><feGaussianBlur stdDeviation="4" result="b"/><feMerge><feMergeNode in="b"/><feMergeNode in="SourceGraphic"/></feMerge></filter>
    <filter id="sg"><feGaussianBlur stdDeviation="30"/></filter>
    <filter id="shadow"><feDropShadow dx="0" dy="4" stdDeviation="8" flood-color="#000" flood-opacity="0.3"/></filter>
  </defs>
  <rect width="1200" height="630" fill="url(#bg)"/>
  <circle cx="600" cy="250" r="280" fill="#ef4444" opacity="0.03" filter="url(#sg)"/>
  <g transform="translate(600,225)">
    <!-- Giant padlock (locked/ransomed) -->
    <g filter="url(#shadow)">
      <rect x="-50" y="-10" width="100" height="80" rx="12" fill="#1e293b" stroke="#ef4444" stroke-width="3"/>
      <path d="M-30,-10 L-30,-40 C-30,-65 -15,-80 0,-80 C15,-80 30,-65 30,-40 L30,-10" fill="none" stroke="#ef4444" stroke-width="4"/>
      <!-- Keyhole -->
      <circle cx="0" cy="30" r="12" fill="#ef4444" opacity="0.3"/>
      <rect x="-4" y="35" width="8" height="18" rx="2" fill="#ef4444" opacity="0.3"/>
      <!-- Ransomware $ overlay -->
      <text x="0" y="35" font-family="Arial,sans-serif" font-size="20" font-weight="bold" fill="#ef4444" text-anchor="middle" opacity="0.6">$</text>
    </g>
    <!-- Q3 2025 badge -->
    <g transform="translate(110,-30)">
      <rect x="-30" y="-15" width="60" height="30" rx="8" fill="#1e293b" stroke="#f59e0b" stroke-width="1.5"/>
      <text x="0" y="-2" font-family="Arial,sans-serif" font-size="10" font-weight="bold" fill="#fde68a" text-anchor="middle">Q3</text>
      <text x="0" y="10" font-family="Courier New" font-size="8" fill="#fde68a" text-anchor="middle">2025</text>
    </g>
    <!-- Trend bar chart -->
    <g transform="translate(0,105)">
      <rect x="-80" y="-30" width="20" height="30" rx="2" fill="#ef4444" opacity="0.3"/>
      <rect x="-50" y="-45" width="20" height="45" rx="2" fill="#ef4444" opacity="0.4"/>
      <rect x="-20" y="-55" width="20" height="55" rx="2" fill="#ef4444" opacity="0.5"/>
      <rect x="10" y="-40" width="20" height="40" rx="2" fill="#f59e0b" opacity="0.4"/>
      <rect x="40" y="-60" width="20" height="60" rx="2" fill="#ef4444" opacity="0.6"/>
      <rect x="70" y="-50" width="20" height="50" rx="2" fill="#ef4444" opacity="0.5"/>
      <text x="0" y="15" font-family="Courier New" font-size="8" fill="#94a3b8" text-anchor="middle">Monthly Incidents</text>
    </g>
    <!-- KARA label -->
    <g transform="translate(-110,-30)">
      <rect x="-35" y="-15" width="70" height="30" rx="8" fill="#1e293b" stroke="#ef4444" stroke-width="1.5"/>
      <text x="0" y="5" font-family="Arial,sans-serif" font-size="12" font-weight="bold" fill="#fca5a5" text-anchor="middle">KARA</text>
    </g>
  </g>
  <text x="600" y="505" font-family="Arial,sans-serif" font-size="36" font-weight="bold" fill="white" text-anchor="middle" filter="url(#glow)">Ransomware Trends</text>
  <text x="600" y="543" font-family="Arial,sans-serif" font-size="16" fill="#94a3b8" text-anchor="middle">KARA Report | 2025 Q3 | SK Shieldus EQST Analysis</text>
  <rect x="40" y="25" width="160" height="32" rx="16" fill="#ef4444" opacity="0.2" stroke="#ef4444" stroke-width="1"/>
  <text x="120" y="47" font-family="Arial,sans-serif" font-size="13" font-weight="bold" fill="#fca5a5" text-anchor="middle">RANSOMWARE</text>
  <rect x="1000" y="25" width="160" height="32" rx="16" fill="#3b82f6" opacity="0.2" stroke="#3b82f6" stroke-width="1"/>
  <text x="1080" y="47" font-family="Arial,sans-serif" font-size="13" font-weight="bold" fill="#93c5fd" text-anchor="middle">Jan 22, 2026</text>
  <text x="1160" y="615" font-family="Arial,sans-serif" font-size="13" fill="#475569" text-anchor="end">tech.2twodragon.com</text>
</svg>