<svg xmlns="http://www.w3.org/2000/svg" width="1200" height="630" viewBox="0 0 1200 630">
  <title>Security Weekly Digest - 2026-03-16</title>
  <defs>
    <linearGradient id="bg" x1="0" y1="0" x2="1" y2="1">
      <stop offset="0" stop-color="#0a0e27"/>
      <stop offset="1" stop-color="#1a1f3a"/>
    </linearGradient>
    <linearGradient id="accentRed" x1="0" y1="0" x2="1" y2="0">
      <stop offset="0" stop-color="#ff3e6c"/>
      <stop offset="1" stop-color="#ff7a4a"/>
    </linearGradient>
    <linearGradient id="accentBlue" x1="0" y1="0" x2="1" y2="0">
      <stop offset="0" stop-color="#5ba3ff"/>
      <stop offset="1" stop-color="#9d6fff"/>
    </linearGradient>
    <linearGradient id="accentGreen" x1="0" y1="0" x2="1" y2="0">
      <stop offset="0" stop-color="#00ff88"/>
      <stop offset="1" stop-color="#00d4b2"/>
    </linearGradient>
    <radialGradient id="glow" cx="0.5" cy="0.5" r="0.5">
      <stop offset="0" stop-color="#5ba3ff" stop-opacity="0.25"/>
      <stop offset="1" stop-color="#5ba3ff" stop-opacity="0"/>
    </radialGradient>
  </defs>

  <rect width="1200" height="630" fill="url(#bg)"/>
  <circle cx="200" cy="150" r="300" fill="url(#glow)"/>
  <circle cx="1000" cy="500" r="260" fill="url(#glow)" opacity="0.6"/>

  <g opacity="0.08" stroke="#ffffff" stroke-width="1">
    <line x1="60" y1="95" x2="1140" y2="95"/>
    <line x1="60" y1="555" x2="1140" y2="555"/>
  </g>

  <text x="60" y="55" font-family="system-ui, -apple-system, sans-serif" font-size="17" font-weight="700" fill="#00ff88" letter-spacing="4">TECH SECURITY WEEKLY DIGEST</text>
  <text x="1140" y="55" text-anchor="end" font-family="system-ui, -apple-system, sans-serif" font-size="17" font-weight="500" fill="#8b95b0" letter-spacing="2">2026-03-16</text>

  <g transform="translate(60, 125)">
    <rect width="345" height="410" rx="18" fill="rgba(255,255,255,0.04)" stroke="rgba(255,62,108,0.35)" stroke-width="1.5"/>
    <g transform="translate(172, 92)" fill="none" stroke="url(#accentRed)" stroke-width="2.5">
      <rect x="-52" y="12" width="32" height="32" rx="3"/>
      <rect x="-16" y="-8" width="32" height="32" rx="3"/>
      <rect x="20" y="12" width="32" height="32" rx="3" stroke="#ff3e6c" stroke-dasharray="4 3"/>
      <path d="M-34,12 L-34,-16 L34,-16" stroke-opacity="0.5"/>
      <polyline points="30,-20 36,-14 30,-8" stroke-opacity="0.5"/>
    </g>
    <rect x="132" y="210" width="80" height="24" rx="12" fill="rgba(255,62,108,0.18)"/>
    <text x="172" y="227" text-anchor="middle" font-family="system-ui, sans-serif" font-size="11" font-weight="700" fill="#ff3e6c" letter-spacing="3">FRAUD</text>
    <text x="172" y="272" text-anchor="middle" font-family="system-ui, sans-serif" font-size="23" font-weight="700" fill="#f0f4f8">Libra Token</text>
    <text x="172" y="300" text-anchor="middle" font-family="system-ui, sans-serif" font-size="23" font-weight="700" fill="#f0f4f8">5M USD Trail</text>
    <text x="172" y="335" text-anchor="middle" font-family="system-ui, sans-serif" font-size="14" font-weight="600" fill="#ff7a4a" letter-spacing="1">Argentina probe</text>
    <text x="172" y="365" text-anchor="middle" font-family="system-ui, sans-serif" font-size="13" fill="#8b95b0">Forensics exposes</text>
    <text x="172" y="384" text-anchor="middle" font-family="system-ui, sans-serif" font-size="13" fill="#8b95b0">pump-and-dump ring</text>
  </g>
  <g transform="translate(427, 125)">
    <rect width="346" height="410" rx="18" fill="rgba(255,255,255,0.04)" stroke="rgba(91,163,255,0.35)" stroke-width="1.5"/>
    <g transform="translate(173, 92)" fill="none" stroke="url(#accentBlue)" stroke-width="2.5">
      <circle cx="0" cy="0" r="36"/>
      <ellipse cx="0" cy="0" rx="14" ry="36"/>
      <line x1="-36" y1="0" x2="36" y2="0"/>
      <line x1="-32" y1="-18" x2="32" y2="-18"/>
      <line x1="-32" y1="18" x2="32" y2="18"/>
    </g>
    <rect x="133" y="210" width="80" height="24" rx="12" fill="rgba(91,163,255,0.18)"/>
    <text x="173" y="227" text-anchor="middle" font-family="system-ui, sans-serif" font-size="11" font-weight="700" fill="#5ba3ff" letter-spacing="3">POLICY</text>
    <text x="173" y="272" text-anchor="middle" font-family="system-ui, sans-serif" font-size="23" font-weight="700" fill="#f0f4f8">Stablecoin Rule</text>
    <text x="173" y="300" text-anchor="middle" font-family="system-ui, sans-serif" font-size="23" font-weight="700" fill="#f0f4f8">Hits Banks Hard</text>
    <text x="173" y="335" text-anchor="middle" font-family="system-ui, sans-serif" font-size="14" font-weight="600" fill="#9d6fff" letter-spacing="1">Regulatory limbo</text>
    <text x="173" y="365" text-anchor="middle" font-family="system-ui, sans-serif" font-size="13" fill="#8b95b0">Lenders feel it</text>
    <text x="173" y="384" text-anchor="middle" font-family="system-ui, sans-serif" font-size="13" fill="#8b95b0">more than crypto</text>
  </g>
  <g transform="translate(795, 125)">
    <rect width="345" height="410" rx="18" fill="rgba(255,255,255,0.04)" stroke="rgba(0,255,136,0.35)" stroke-width="1.5"/>
    <g transform="translate(172, 92)" fill="none" stroke="url(#accentGreen)" stroke-width="2.5" stroke-linecap="round" stroke-linejoin="round">
      <polyline points="-14,-24 -40,0 -14,24"/>
      <polyline points="14,-24 40,0 14,24"/>
      <line x1="-4" y1="30" x2="4" y2="-30" stroke-width="2"/>
    </g>
    <rect x="128" y="210" width="88" height="24" rx="12" fill="rgba(0,255,136,0.18)"/>
    <text x="172" y="227" text-anchor="middle" font-family="system-ui, sans-serif" font-size="11" font-weight="700" fill="#00ff88" letter-spacing="3">TOOLING</text>
    <text x="172" y="272" text-anchor="middle" font-family="system-ui, sans-serif" font-size="23" font-weight="700" fill="#f0f4f8">MCP Revived</text>
    <text x="172" y="300" text-anchor="middle" font-family="system-ui, sans-serif" font-size="23" font-weight="700" fill="#f0f4f8">For AI Eng</text>
    <text x="172" y="335" text-anchor="middle" font-family="system-ui, sans-serif" font-size="14" font-weight="600" fill="#00d4b2" letter-spacing="1">CLI trend reset</text>
    <text x="172" y="365" text-anchor="middle" font-family="system-ui, sans-serif" font-size="13" fill="#8b95b0">Model Context</text>
    <text x="172" y="384" text-anchor="middle" font-family="system-ui, sans-serif" font-size="13" fill="#8b95b0">returns to org stacks</text>
  </g>

  <text x="60" y="595" font-family="system-ui, sans-serif" font-size="14" font-weight="600" fill="#5ba3ff">tech.2twodragon.com</text>

  <g transform="translate(950, 578)">
    <rect x="0" y="0" width="82" height="26" rx="13" fill="rgba(0,255,136,0.14)" stroke="rgba(0,255,136,0.4)"/>
    <text x="41" y="18" text-anchor="middle" font-family="system-ui, sans-serif" font-size="11" font-weight="700" fill="#00ff88" letter-spacing="2">SECURITY</text>
    <rect x="92" y="0" width="96" height="26" rx="13" fill="rgba(91,163,255,0.14)" stroke="rgba(91,163,255,0.4)"/>
    <text x="140" y="18" text-anchor="middle" font-family="system-ui, sans-serif" font-size="11" font-weight="700" fill="#5ba3ff" letter-spacing="2">DEVSECOPS</text>
  </g>
</svg>
