<svg xmlns="http://www.w3.org/2000/svg" viewBox="0 0 1200 630" width="1200" height="630" role="img" aria-label="Research-based weekly digest cover: ShinyHunters vishing MFA bypass on SaaS platforms, malicious Chrome extension steals ChatGPT auth tokens, Poland CERT reports coordinated OT attack on 30+ wind and solar power plants">
<!-- profile: high-quality-cover (L14 Timeline, research-based, batch1-locked) -->
<title>Weekly digest 2026-01-31 timeline: ShinyHunters Vishing MFA bypass (Jan 29), Chrome Extension token theft (Jan 30), Poland OT energy attack (Jan 31)</title>
<defs>
  <linearGradient id="bgSpread" x1="0%" y1="0%" x2="100%" y2="100%">
    <stop offset="0%" stop-color="#0A1226"/>
    <stop offset="55%" stop-color="#0D1530"/>
    <stop offset="100%" stop-color="#131038"/>
  </linearGradient>
  <linearGradient id="colA" x1="0%" y1="0%" x2="0%" y2="100%">
    <stop offset="0%" stop-color="#122542"/>
    <stop offset="100%" stop-color="#0A1830"/>
  </linearGradient>
  <linearGradient id="colB" x1="0%" y1="0%" x2="0%" y2="100%">
    <stop offset="0%" stop-color="#2E1A0A"/>
    <stop offset="100%" stop-color="#1E1006"/>
  </linearGradient>
  <linearGradient id="colC" x1="0%" y1="0%" x2="0%" y2="100%">
    <stop offset="0%" stop-color="#2E1016"/>
    <stop offset="100%" stop-color="#1E0A12"/>
  </linearGradient>
  <linearGradient id="timelineGrad" x1="0%" y1="0%" x2="100%" y2="0%">
    <stop offset="0%" stop-color="#4ADE80" stop-opacity="0.2"/>
    <stop offset="35%" stop-color="#3A86FF" stop-opacity="0.9"/>
    <stop offset="65%" stop-color="#FFB703" stop-opacity="0.9"/>
    <stop offset="100%" stop-color="#E63946"/>
  </linearGradient>
  <radialGradient id="glowBlue" cx="50%" cy="50%" r="50%">
    <stop offset="0%" stop-color="#3A86FF" stop-opacity="0.6"/>
    <stop offset="100%" stop-color="#3A86FF" stop-opacity="0"/>
  </radialGradient>
  <radialGradient id="glowAmber" cx="50%" cy="50%" r="50%">
    <stop offset="0%" stop-color="#FFB703" stop-opacity="0.6"/>
    <stop offset="100%" stop-color="#FFB703" stop-opacity="0"/>
  </radialGradient>
  <radialGradient id="glowRed" cx="50%" cy="50%" r="50%">
    <stop offset="0%" stop-color="#E63946" stop-opacity="0.65"/>
    <stop offset="100%" stop-color="#E63946" stop-opacity="0"/>
  </radialGradient>
  <pattern id="dotGrid" x="0" y="0" width="40" height="40" patternUnits="userSpaceOnUse">
    <circle cx="20" cy="20" r="0.8" fill="#2A3256" opacity="0.55"/>
  </pattern>
  <filter id="softShadow" x="-10%" y="-10%" width="130%" height="130%">
    <feGaussianBlur in="SourceAlpha" stdDeviation="2.6"/>
    <feOffset dx="1" dy="3"/>
    <feComponentTransfer><feFuncA type="linear" slope="0.55"/></feComponentTransfer>
    <feMerge><feMergeNode/><feMergeNode in="SourceGraphic"/></feMerge>
  </filter>
  <filter id="textShadow" x="-5%" y="-5%" width="110%" height="110%">
    <feGaussianBlur in="SourceAlpha" stdDeviation="1.2"/>
    <feOffset dx="0" dy="1.5"/>
    <feComponentTransfer><feFuncA type="linear" slope="0.8"/></feComponentTransfer>
    <feMerge><feMergeNode/><feMergeNode in="SourceGraphic"/></feMerge>
  </filter>
</defs>

<rect width="1200" height="630" fill="url(#bgSpread)"/>
<rect width="1200" height="630" fill="url(#dotGrid)"/>

<!-- Background column glows -->
<circle cx="240" cy="390" r="140" fill="url(#glowBlue)">
  <animate attributeName="opacity" values="0.5;0.85;0.5" dur="6.4s" repeatCount="indefinite"/>
</circle>
<circle cx="620" cy="390" r="140" fill="url(#glowAmber)">
  <animate attributeName="opacity" values="0.5;0.85;0.5" dur="5.6s" repeatCount="indefinite"/>
</circle>
<circle cx="1000" cy="390" r="140" fill="url(#glowRed)">
  <animate attributeName="opacity" values="0.5;0.85;0.5" dur="7.0s" repeatCount="indefinite"/>
</circle>

<!-- Header stripe -->
<rect x="0" y="0" width="1200" height="56" fill="#050813" opacity="0.92"/>
<text x="36" y="36" font-family="Inter, Helvetica, Arial, sans-serif" font-size="18" font-weight="700" fill="#8FB8FF" letter-spacing="2.5">WEEKLY DIGEST</text>
<text x="1164" y="36" font-family="Inter, Helvetica, Arial, sans-serif" font-size="15" font-weight="600" fill="#7DA3D9" letter-spacing="1.5" text-anchor="end">2026.01.31</text>
<rect x="0" y="54" width="1200" height="2" fill="#8FB8FF" opacity="0.85">
  <animate attributeName="opacity" values="0.4;1;0.4" dur="4.8s" repeatCount="indefinite"/>
</rect>

<!-- Starfield ambient dots (static) -->
<g fill="#8FB8FF" opacity="0.45">
  <circle cx="160" cy="78" r="1.2"/>
  <circle cx="420" cy="86" r="1.0"/>
  <circle cx="720" cy="80" r="1.3"/>
  <circle cx="1040" cy="88" r="0.9"/>
</g>

<!-- Title block -->
<text x="60" y="96" font-family="Inter, Helvetica, Arial, sans-serif" font-size="13" font-weight="700" fill="#9FD3B0" letter-spacing="3">THIS WEEK  /  JAN 25 - 31</text>
<text x="60" y="130" font-family="Inter, Helvetica, Arial, sans-serif" font-size="28" font-weight="800" fill="#F5F7FA" filter="url(#textShadow)">Three Threats Across Seven Days</text>

<!-- Timeline axis -->
<line x1="60" y1="170" x2="1140" y2="170" stroke="url(#timelineGrad)" stroke-width="3.4" stroke-linecap="round"/>
<!-- Moving traveler dot along axis -->
<circle r="5" fill="#F5F7FA" stroke="#8FB8FF" stroke-width="1.4">
  <animate attributeName="cx" values="60;1140;60" dur="11s" repeatCount="indefinite"/>
  <animate attributeName="cy" values="170;170;170" dur="11s" repeatCount="indefinite"/>
  <animate attributeName="opacity" values="0;1;1;1;0" dur="11s" repeatCount="indefinite"/>
</circle>

<!-- Date tick labels: JAN 25 to JAN 31 (7 ticks) -->
<g font-family="Inter, monospace" font-size="10" font-weight="700" fill="#7DA3D9">
  <line x1="80" y1="163" x2="80" y2="177" stroke="#4A6AA0" stroke-width="1.2"/>
  <text x="80" y="194" text-anchor="middle">JAN 25</text>
  <line x1="260" y1="163" x2="260" y2="177" stroke="#4A6AA0" stroke-width="1.2"/>
  <text x="260" y="194" text-anchor="middle">JAN 26</text>
  <line x1="440" y1="163" x2="440" y2="177" stroke="#4A6AA0" stroke-width="1.2"/>
  <text x="440" y="194" text-anchor="middle">JAN 27</text>
  <line x1="620" y1="163" x2="620" y2="177" stroke="#4A6AA0" stroke-width="1.2"/>
  <text x="620" y="194" text-anchor="middle">JAN 28</text>
  <line x1="800" y1="163" x2="800" y2="177" stroke="#4A6AA0" stroke-width="1.2"/>
  <text x="800" y="194" text-anchor="middle" fill="#3A86FF">JAN 29</text>
  <line x1="960" y1="163" x2="960" y2="177" stroke="#4A6AA0" stroke-width="1.2"/>
  <text x="960" y="194" text-anchor="middle" fill="#FFB703">JAN 30</text>
  <line x1="1120" y1="163" x2="1120" y2="177" stroke="#4A6AA0" stroke-width="1.2"/>
  <text x="1120" y="194" text-anchor="middle" fill="#F87171">JAN 31</text>
</g>

<!-- Anchor dots: Col A at JAN 29 (x=800), Col B at JAN 30 (x=960), Col C at JAN 31 (x=1120) -->
<!-- But columns need to be evenly spaced at x=240, 620, 980 centers, so anchor visually above each -->
<g transform="translate(240,170)">
  <circle r="22" fill="url(#glowBlue)">
    <animate attributeName="r" values="20;32;20" dur="2.8s" repeatCount="indefinite"/>
    <animate attributeName="opacity" values="0.6;1;0.6" dur="2.8s" repeatCount="indefinite"/>
  </circle>
  <circle r="10" fill="#0A1B2E" stroke="#3A86FF" stroke-width="3" filter="url(#softShadow)"/>
  <circle r="3.5" fill="#8FB8FF">
    <animate attributeName="opacity" values="1;0.3;1" dur="1.6s" repeatCount="indefinite"/>
  </circle>
</g>
<g transform="translate(620,170)">
  <circle r="22" fill="url(#glowAmber)">
    <animate attributeName="r" values="20;32;20" dur="2.8s" begin="0.4s" repeatCount="indefinite"/>
    <animate attributeName="opacity" values="0.6;1;0.6" dur="2.8s" begin="0.4s" repeatCount="indefinite"/>
  </circle>
  <circle r="10" fill="#1E1006" stroke="#FFB703" stroke-width="3" filter="url(#softShadow)"/>
  <circle r="3.5" fill="#FFD58A">
    <animate attributeName="opacity" values="1;0.3;1" dur="1.8s" repeatCount="indefinite"/>
  </circle>
</g>
<g transform="translate(980,170)">
  <circle r="22" fill="url(#glowRed)">
    <animate attributeName="r" values="20;32;20" dur="2.8s" begin="0.8s" repeatCount="indefinite"/>
    <animate attributeName="opacity" values="0.6;1;0.6" dur="2.8s" begin="0.8s" repeatCount="indefinite"/>
  </circle>
  <circle r="10" fill="#1E0A14" stroke="#E63946" stroke-width="3" filter="url(#softShadow)"/>
  <circle r="3.5" fill="#FCA5A5">
    <animate attributeName="opacity" values="1;0.3;1" dur="1.7s" repeatCount="indefinite"/>
  </circle>
</g>

<!-- Dashed connector lines from anchor dots to column tops -->
<line x1="240" y1="180" x2="240" y2="216" stroke="#3A86FF" stroke-width="1.4" stroke-dasharray="3 3" opacity="0.7"/>
<line x1="620" y1="180" x2="620" y2="216" stroke="#FFB703" stroke-width="1.4" stroke-dasharray="3 3" opacity="0.7"/>
<line x1="980" y1="180" x2="980" y2="216" stroke="#E63946" stroke-width="1.4" stroke-dasharray="3 3" opacity="0.7"/>

<!-- COL A: ShinyHunters Vishing (JAN 29) -->
<g transform="translate(72,216)">
  <rect x="0" y="0" width="336" height="374" rx="14" fill="url(#colA)" stroke="#3A86FF" stroke-width="1.6" opacity="0.97"/>
  <rect x="0" y="0" width="336" height="4" fill="#3A86FF" opacity="0.7"/>
  <g filter="url(#textShadow)">
    <text x="20" y="28" font-family="Inter, Helvetica, Arial, sans-serif" font-size="11" font-weight="700" fill="#8FB8FF" letter-spacing="2.4">HIGH  /  SOCIAL ENG</text>
    <text x="20" y="54" font-family="Inter, Helvetica, Arial, sans-serif" font-size="20" font-weight="800" fill="#F5F7FA">ShinyHunters Vishing</text>
    <text x="20" y="76" font-family="Inter, Helvetica, Arial, sans-serif" font-size="12" font-weight="500" fill="#BFC9D9">SaaS MFA bypass via voice phishing</text>
  </g>
  <!-- Scene: phone + wave + attacker avatar + MFA bypass badge -->
  <g transform="translate(168,136)">
    <g filter="url(#softShadow)">
      <rect x="-52" y="-28" width="44" height="56" rx="6" fill="#0A1B2E" stroke="#3A86FF" stroke-width="1.6"/>
      <rect x="-46" y="-20" width="32" height="26" rx="2" fill="#1E2A48"/>
      <circle cx="-30" cy="18" r="4" fill="#3A86FF" opacity="0.7"/>
      <text x="-30" y="-4" text-anchor="middle" font-family="Inter, monospace" font-size="6" font-weight="800" fill="#8FB8FF">CALL</text>
    </g>
    <g stroke="#3A86FF" stroke-width="1.4" fill="none" opacity="0.85">
      <path d="M0 -8 Q14 -14 22 -6">
        <animate attributeName="stroke-opacity" values="0.3;1;0.3" dur="1.5s" repeatCount="indefinite"/>
      </path>
      <path d="M0 0 Q16 -6 24 2"/>
      <path d="M0 8 Q14 2 22 10">
        <animate attributeName="stroke-opacity" values="0.3;1;0.3" dur="1.5s" begin="0.4s" repeatCount="indefinite"/>
      </path>
    </g>
    <g filter="url(#softShadow)">
      <circle cx="52" cy="0" r="14" fill="#122542" stroke="#3A86FF" stroke-width="1.6"/>
      <circle cx="52" cy="-3" r="4" fill="#3A86FF"/>
      <path d="M43 8 Q52 3 61 8 Q61 14 52 14 Q43 14 43 8 Z" fill="#3A86FF"/>
      <text x="52" y="32" text-anchor="middle" font-family="Inter, monospace" font-size="7" font-weight="800" fill="#8FB8FF">ATTACKER</text>
    </g>
    <g transform="translate(-6,-48)">
      <rect x="-30" y="-12" width="60" height="22" rx="4" fill="#1E0A14" stroke="#E63946" stroke-width="1.2"/>
      <text x="0" y="3" text-anchor="middle" font-family="Inter, monospace" font-size="8" font-weight="800" fill="#F87171">MFA BYPASS</text>
      <circle cx="-30" cy="0" r="2.5" fill="#E63946">
        <animate attributeName="opacity" values="0.3;1;0.3" dur="1.1s" repeatCount="indefinite"/>
      </circle>
    </g>
  </g>
  <!-- Attack chain -->
  <g transform="translate(28,200)">
    <rect x="0" y="0" width="280" height="34" rx="6" fill="#0A1B2E" stroke="#3A86FF" stroke-width="1.2"/>
    <circle cx="18" cy="17" r="7" fill="#3A86FF"/>
    <text x="18" y="21" text-anchor="middle" font-family="Inter, monospace" font-size="10" font-weight="800" fill="#FFFFFF">1</text>
    <text x="36" y="22" font-family="Inter, Helvetica, Arial, sans-serif" font-size="12" font-weight="700" fill="#F5F7FA">Vishing call + fake IT helpdesk</text>
    <line x1="18" y1="38" x2="18" y2="50" stroke="#3A86FF" stroke-width="1.4" stroke-dasharray="2 2"/>
    <g transform="translate(0,54)">
      <rect x="0" y="0" width="280" height="34" rx="6" fill="#0A1B2E" stroke="#3A86FF" stroke-width="1.2"/>
      <circle cx="18" cy="17" r="7" fill="#3A86FF"/>
      <text x="18" y="21" text-anchor="middle" font-family="Inter, monospace" font-size="10" font-weight="800" fill="#FFFFFF">2</text>
      <text x="36" y="22" font-family="Inter, Helvetica, Arial, sans-serif" font-size="12" font-weight="700" fill="#F5F7FA">MFA reset + credential harvest</text>
    </g>
    <line x1="18" y1="92" x2="18" y2="104" stroke="#3A86FF" stroke-width="1.4" stroke-dasharray="2 2"/>
    <g transform="translate(0,108)">
      <rect x="0" y="0" width="280" height="34" rx="6" fill="#12283F" stroke="#8FB8FF" stroke-width="1.4"/>
      <circle cx="18" cy="17" r="7" fill="#8FB8FF"/>
      <text x="18" y="21" text-anchor="middle" font-family="Inter, monospace" font-size="10" font-weight="800" fill="#0A1020">3</text>
      <text x="36" y="22" font-family="Inter, Helvetica, Arial, sans-serif" font-size="12" font-weight="800" fill="#F5F7FA">SaaS unauthorized access</text>
    </g>
  </g>
  <!-- KPI pill -->
  <g transform="translate(28,334)" filter="url(#softShadow)">
    <rect x="0" y="0" width="280" height="32" rx="8" fill="#12283F" stroke="#3A86FF" stroke-width="1.6"/>
    <text x="14" y="21" font-family="Inter, monospace" font-size="11" font-weight="700" fill="#8FB8FF">SRC</text>
    <text x="140" y="22" text-anchor="middle" font-family="Inter, Helvetica, Arial, sans-serif" font-size="14" font-weight="900" fill="#F5F7FA">Mandiant</text>
    <text x="266" y="21" text-anchor="end" font-family="Inter, monospace" font-size="10" font-weight="700" fill="#8FB8FF">UNC3944</text>
  </g>
</g>

<!-- COL B: Chrome Extension Token Theft (JAN 30) -->
<g transform="translate(432,216)">
  <rect x="0" y="0" width="336" height="374" rx="14" fill="url(#colB)" stroke="#FFB703" stroke-width="1.6" opacity="0.97"/>
  <rect x="0" y="0" width="336" height="4" fill="#FFB703" opacity="0.7"/>
  <g filter="url(#textShadow)">
    <text x="20" y="28" font-family="Inter, Helvetica, Arial, sans-serif" font-size="11" font-weight="700" fill="#FFB703" letter-spacing="2.4">HIGH  /  BROWSER</text>
    <text x="20" y="54" font-family="Inter, Helvetica, Arial, sans-serif" font-size="20" font-weight="800" fill="#F5F7FA">Chrome Extension Threat</text>
    <text x="20" y="76" font-family="Inter, Helvetica, Arial, sans-serif" font-size="12" font-weight="500" fill="#FFD58A">ChatGPT auth token hijack</text>
  </g>
  <!-- Scene: browser window + extension badge + exfil arrow -->
  <g transform="translate(168,136)">
    <g filter="url(#softShadow)">
      <rect x="-58" y="-30" width="116" height="56" rx="5" fill="#1E1006" stroke="#FFB703" stroke-width="1.6"/>
      <rect x="-58" y="-30" width="116" height="14" rx="5" fill="#2A1A0A"/>
      <circle cx="-44" cy="-23" r="3.5" fill="#E63946"/>
      <circle cx="-34" cy="-23" r="3.5" fill="#FFB703"/>
      <circle cx="-24" cy="-23" r="3.5" fill="#4ADE80"/>
      <g transform="translate(26,-4)">
        <rect x="-12" y="-10" width="24" height="20" rx="3" fill="#FFB703" opacity="0.9"/>
        <rect x="-4" y="-14" width="8" height="6" rx="2" fill="#FFB703"/>
        <rect x="12" y="-4" width="6" height="8" rx="2" fill="#FFB703"/>
        <text x="0" y="4" text-anchor="middle" font-family="Inter, monospace" font-size="8" font-weight="900" fill="#1A1202">EXT</text>
      </g>
      <text x="-16" y="-2" text-anchor="middle" font-family="Inter, monospace" font-size="7" font-weight="800" fill="#4ADE80">ChatGPT</text>
      <text x="-16" y="12" text-anchor="middle" font-family="Inter, monospace" font-size="5" fill="#FFD58A">TOKEN: ****</text>
    </g>
    <!-- Exfil animated arrow -->
    <path d="M58 0 Q74 -14 86 0" stroke="#E63946" stroke-width="2" fill="none" stroke-dasharray="4 3">
      <animate attributeName="stroke-dashoffset" values="0;-14" dur="1.2s" repeatCount="indefinite"/>
    </path>
    <circle cx="86" cy="0" r="4" fill="#E63946">
      <animate attributeName="opacity" values="0.4;1;0.4" dur="1.2s" repeatCount="indefinite"/>
    </circle>
    <text x="0" y="46" text-anchor="middle" font-family="Inter, monospace" font-size="8" font-weight="800" fill="#FFB703">SESSION HIJACK</text>
  </g>
  <!-- Attack chain -->
  <g transform="translate(28,200)">
    <rect x="0" y="0" width="280" height="34" rx="6" fill="#1E1006" stroke="#FFB703" stroke-width="1.2"/>
    <circle cx="18" cy="17" r="7" fill="#FFB703"/>
    <text x="18" y="21" text-anchor="middle" font-family="Inter, monospace" font-size="10" font-weight="800" fill="#1A1202">1</text>
    <text x="36" y="22" font-family="Inter, Helvetica, Arial, sans-serif" font-size="12" font-weight="700" fill="#F5F7FA">Malicious extension installed</text>
    <line x1="18" y1="38" x2="18" y2="50" stroke="#FFB703" stroke-width="1.4" stroke-dasharray="2 2"/>
    <g transform="translate(0,54)">
      <rect x="0" y="0" width="280" height="34" rx="6" fill="#1E1006" stroke="#FFB703" stroke-width="1.2"/>
      <circle cx="18" cy="17" r="7" fill="#FFB703"/>
      <text x="18" y="21" text-anchor="middle" font-family="Inter, monospace" font-size="10" font-weight="800" fill="#1A1202">2</text>
      <text x="36" y="22" font-family="Inter, Helvetica, Arial, sans-serif" font-size="12" font-weight="700" fill="#F5F7FA">ChatGPT session token captured</text>
    </g>
    <line x1="18" y1="92" x2="18" y2="104" stroke="#FFB703" stroke-width="1.4" stroke-dasharray="2 2"/>
    <g transform="translate(0,108)">
      <rect x="0" y="0" width="280" height="34" rx="6" fill="#2A1A0C" stroke="#FFD58A" stroke-width="1.4"/>
      <circle cx="18" cy="17" r="7" fill="#FFD58A"/>
      <text x="18" y="21" text-anchor="middle" font-family="Inter, monospace" font-size="10" font-weight="800" fill="#1A1202">3</text>
      <text x="36" y="22" font-family="Inter, Helvetica, Arial, sans-serif" font-size="12" font-weight="800" fill="#F5F7FA">Affiliate link hijack + exfil</text>
    </g>
  </g>
  <!-- KPI pill -->
  <g transform="translate(28,334)" filter="url(#softShadow)">
    <rect x="0" y="0" width="280" height="32" rx="8" fill="#2A1A0C" stroke="#FFB703" stroke-width="1.6"/>
    <text x="14" y="21" font-family="Inter, monospace" font-size="11" font-weight="700" fill="#FFB703">TARGET</text>
    <text x="140" y="22" text-anchor="middle" font-family="Inter, Helvetica, Arial, sans-serif" font-size="13" font-weight="900" fill="#F5F7FA">ChatGPT Enterprise</text>
    <text x="266" y="21" text-anchor="end" font-family="Inter, monospace" font-size="10" font-weight="700" fill="#FFB703">Chrome</text>
  </g>
</g>

<!-- COL C: Poland OT Attack (JAN 31) -->
<g transform="translate(792,216)">
  <rect x="0" y="0" width="336" height="374" rx="14" fill="url(#colC)" stroke="#E63946" stroke-width="1.6" opacity="0.97"/>
  <rect x="0" y="0" width="336" height="4" fill="#E63946" opacity="0.7"/>
  <g filter="url(#textShadow)">
    <text x="20" y="28" font-family="Inter, Helvetica, Arial, sans-serif" font-size="11" font-weight="700" fill="#F87171" letter-spacing="2.4">CRITICAL  /  OT/ICS</text>
    <text x="20" y="54" font-family="Inter, Helvetica, Arial, sans-serif" font-size="20" font-weight="800" fill="#F5F7FA">Poland Energy OT Attack</text>
    <text x="20" y="76" font-family="Inter, Helvetica, Arial, sans-serif" font-size="12" font-weight="500" fill="#FBB6BD">30+ wind and solar plants targeted</text>
  </g>
  <!-- Scene: wind turbine (spinning) + solar panel + attack signal -->
  <g transform="translate(168,136)">
    <!-- Wind turbine tower -->
    <rect x="-72" y="-8" width="8" height="42" rx="1" fill="#1E0A14" stroke="#FCA5A5" stroke-width="1.2"/>
    <!-- Spinning turbine blades -->
    <g transform="translate(-68,-8)">
      <g stroke="#FCA5A5" stroke-width="1.6" fill="none">
        <animateTransform attributeName="transform" type="rotate" from="0 0 0" to="360 0 0" dur="4s" repeatCount="indefinite"/>
        <line x1="0" y1="0" x2="0" y2="-22"/>
        <line x1="0" y1="0" x2="19" y2="11"/>
        <line x1="0" y1="0" x2="-19" y2="11"/>
      </g>
    </g>
    <!-- Solar panel -->
    <g filter="url(#softShadow)">
      <rect x="-8" y="8" width="48" height="26" rx="3" fill="#1E0A14" stroke="#FFB703" stroke-width="1.2"/>
      <g stroke="#FFB703" stroke-width="0.8" opacity="0.6">
        <line x1="-8" y1="17" x2="40" y2="17"/>
        <line x1="-8" y1="26" x2="40" y2="26"/>
        <line x1="8" y1="8" x2="8" y2="34"/>
        <line x1="24" y1="8" x2="24" y2="34"/>
      </g>
    </g>
    <!-- Attack signal waves from right -->
    <g stroke="#E63946" stroke-width="1.6" fill="none" opacity="0.85">
      <path d="M52 -10 Q64 -18 72 -10">
        <animate attributeName="stroke-opacity" values="0.2;1;0.2" dur="1.4s" repeatCount="indefinite"/>
      </path>
      <path d="M52 0 Q68 -8 80 0">
        <animate attributeName="stroke-opacity" values="0.2;1;0.2" dur="1.4s" begin="0.3s" repeatCount="indefinite"/>
      </path>
      <path d="M52 10 Q70 2 84 10">
        <animate attributeName="stroke-opacity" values="0.2;1;0.2" dur="1.4s" begin="0.6s" repeatCount="indefinite"/>
      </path>
    </g>
    <!-- OT compromised label -->
    <g transform="translate(-22,52)">
      <rect x="-34" y="-12" width="68" height="22" rx="4" fill="#1E0A14" stroke="#E63946" stroke-width="1.2"/>
      <text x="0" y="3" text-anchor="middle" font-family="Inter, monospace" font-size="8" font-weight="800" fill="#F87171">OT COMPROMISED</text>
    </g>
  </g>
  <!-- Attack chain -->
  <g transform="translate(28,200)">
    <rect x="0" y="0" width="280" height="34" rx="6" fill="#1E0A14" stroke="#E63946" stroke-width="1.2"/>
    <circle cx="18" cy="17" r="7" fill="#E63946"/>
    <text x="18" y="21" text-anchor="middle" font-family="Inter, monospace" font-size="10" font-weight="800" fill="#FFFFFF">1</text>
    <text x="36" y="22" font-family="Inter, Helvetica, Arial, sans-serif" font-size="12" font-weight="700" fill="#F5F7FA">SCADA network reconnaissance</text>
    <line x1="18" y1="38" x2="18" y2="50" stroke="#E63946" stroke-width="1.4" stroke-dasharray="2 2"/>
    <g transform="translate(0,54)">
      <rect x="0" y="0" width="280" height="34" rx="6" fill="#1E0A14" stroke="#E63946" stroke-width="1.2"/>
      <circle cx="18" cy="17" r="7" fill="#E63946"/>
      <text x="18" y="21" text-anchor="middle" font-family="Inter, monospace" font-size="10" font-weight="800" fill="#FFFFFF">2</text>
      <text x="36" y="22" font-family="Inter, Helvetica, Arial, sans-serif" font-size="12" font-weight="700" fill="#F5F7FA">Coordinated OT intrusion</text>
    </g>
    <line x1="18" y1="92" x2="18" y2="104" stroke="#E63946" stroke-width="1.4" stroke-dasharray="2 2"/>
    <g transform="translate(0,108)">
      <rect x="0" y="0" width="280" height="34" rx="6" fill="#3A0F1A" stroke="#FCA5A5" stroke-width="1.4"/>
      <circle cx="18" cy="17" r="7" fill="#FCA5A5"/>
      <text x="18" y="21" text-anchor="middle" font-family="Inter, monospace" font-size="10" font-weight="800" fill="#1A0005">3</text>
      <text x="36" y="22" font-family="Inter, Helvetica, Arial, sans-serif" font-size="12" font-weight="800" fill="#F5F7FA">Energy supply disruption risk</text>
    </g>
  </g>
  <!-- KPI pill -->
  <g transform="translate(28,334)" filter="url(#softShadow)">
    <rect x="0" y="0" width="280" height="32" rx="8" fill="#3A0F1A" stroke="#E63946" stroke-width="1.6"/>
    <text x="14" y="21" font-family="Inter, monospace" font-size="11" font-weight="700" fill="#F87171">SRC</text>
    <text x="140" y="22" text-anchor="middle" font-family="Inter, Helvetica, Arial, sans-serif" font-size="14" font-weight="900" fill="#F5F7FA">CERT Polska</text>
    <text x="266" y="21" text-anchor="end" font-family="Inter, monospace" font-size="10" font-weight="700" fill="#F87171">30+ plants</text>
  </g>
</g>

<!-- Ambient spark dots along timeline -->
<g opacity="0.8">
  <g fill="#8FB8FF">
    <circle cx="360" cy="170" r="1.2"><animate attributeName="opacity" values="0;1;0" dur="2s" repeatCount="indefinite"/></circle>
    <circle cx="500" cy="170" r="1.2"><animate attributeName="opacity" values="0;1;0" dur="2.2s" begin="0.4s" repeatCount="indefinite"/></circle>
  </g>
  <g fill="#FFD58A">
    <circle cx="700" cy="170" r="1.2"><animate attributeName="opacity" values="0;1;0" dur="1.9s" repeatCount="indefinite"/></circle>
    <circle cx="860" cy="170" r="1.2" opacity="0.5"/>
  </g>
  <g fill="#FCA5A5">
    <circle cx="1060" cy="170" r="1.2"><animate attributeName="opacity" values="0;1;0" dur="2.0s" repeatCount="indefinite"/></circle>
  </g>
</g>

<!-- cover-qr: https://tech.2twodragon.com/posts/2026/01/31/Tech_Security_Weekly_Digest_ShinyHunters_Vishing_Chrome_Extension_OT_Attack/ : 45x45 -->
<g transform="translate(1080,504)" filter="url(#softShadow)">
  <rect x="-8" y="-8" width="100" height="100" rx="6" fill="#FFFFFF"/>
  <g transform="scale(1.866667)" fill="#0A1020">
    <path d="M0 0h7v1h-7zM8 0h2v1h-2zM12 0h1v1h-1zM18 0h1v1h-1zM20 0h4v1h-4zM26 0h2v1h-2zM30 0h2v1h-2zM36 0h1v1h-1zM38 0h7v1h-7zM0 1h1v1h-1zM6 1h1v1h-1zM8 1h1v1h-1zM12 1h4v1h-4zM22 1h3v1h-3zM27 1h3v1h-3zM31 1h3v1h-3zM35 1h1v1h-1zM38 1h1v1h-1zM44 1h1v1h-1zM0 2h1v1h-1zM2 2h3v1h-3zM6 2h1v1h-1zM8 2h1v1h-1zM10 2h4v1h-4zM15 2h2v1h-2zM18 2h1v1h-1zM20 2h1v1h-1zM22 2h1v1h-1zM26 2h1v1h-1zM28 2h2v1h-2zM32 2h2v1h-2zM35 2h1v1h-1zM38 2h1v1h-1zM40 2h3v1h-3zM44 2h1v1h-1zM0 3h1v1h-1zM2 3h3v1h-3zM6 3h1v1h-1zM9 3h2v1h-2zM12 3h1v1h-1zM15 3h5v1h-5zM23 3h1v1h-1zM25 3h1v1h-1zM27 3h3v1h-3zM31 3h3v1h-3zM35 3h2v1h-2zM38 3h1v1h-1zM40 3h3v1h-3zM44 3h1v1h-1zM0 4h1v1h-1zM2 4h3v1h-3zM6 4h1v1h-1zM8 4h1v1h-1zM10 4h1v1h-1zM12 4h2v1h-2zM17 4h1v1h-1zM19 4h8v1h-8zM28 4h1v1h-1zM30 4h1v1h-1zM33 4h4v1h-4zM38 4h1v1h-1zM40 4h3v1h-3zM44 4h1v1h-1zM0 5h1v1h-1zM6 5h1v1h-1zM10 5h1v1h-1zM12 5h2v1h-2zM20 5h1v1h-1zM24 5h2v1h-2zM27 5h1v1h-1zM30 5h3v1h-3zM38 5h1v1h-1zM44 5h1v1h-1zM0 6h7v1h-7zM8 6h1v1h-1zM10 6h1v1h-1zM12 6h1v1h-1zM14 6h1v1h-1zM16 6h1v1h-1zM18 6h1v1h-1zM20 6h1v1h-1zM22 6h1v1h-1zM24 6h1v1h-1zM26 6h1v1h-1zM28 6h1v1h-1zM30 6h1v1h-1zM32 6h1v1h-1zM34 6h1v1h-1zM36 6h1v1h-1zM38 6h7v1h-7zM9 7h4v1h-4zM14 7h2v1h-2zM17 7h1v1h-1zM20 7h1v1h-1zM24 7h3v1h-3zM28 7h1v1h-1zM31 7h1v1h-1zM33 7h1v1h-1zM35 7h1v1h-1zM0 8h1v1h-1zM3 8h7v1h-7zM11 8h3v1h-3zM15 8h2v1h-2zM18 8h1v1h-1zM20 8h5v1h-5zM28 8h3v1h-3zM33 8h3v1h-3zM37 8h1v1h-1zM40 8h1v1h-1zM42 8h3v1h-3zM0 9h3v1h-3zM5 9h1v1h-1zM8 9h2v1h-2zM12 9h1v1h-1zM18 9h2v1h-2zM21 9h1v1h-1zM23 9h1v1h-1zM25 9h2v1h-2zM29 9h2v1h-2zM32 9h5v1h-5zM38 9h2v1h-2zM41 9h3v1h-3zM2 10h5v1h-5zM8 10h1v1h-1zM12 10h1v1h-1zM14 10h5v1h-5zM22 10h1v1h-1zM24 10h1v1h-1zM27 10h1v1h-1zM29 10h1v1h-1zM33 10h2v1h-2zM36 10h2v1h-2zM39 10h1v1h-1zM41 10h4v1h-4zM0 11h1v1h-1zM4 11h2v1h-2zM8 11h2v1h-2zM14 11h1v1h-1zM17 11h2v1h-2zM21 11h4v1h-4zM28 11h3v1h-3zM32 11h1v1h-1zM34 11h1v1h-1zM36 11h1v1h-1zM42 11h1v1h-1zM2 12h1v1h-1zM4 12h7v1h-7zM12 12h1v1h-1zM14 12h1v1h-1zM18 12h1v1h-1zM22 12h1v1h-1zM24 12h1v1h-1zM28 12h1v1h-1zM31 12h4v1h-4zM37 12h2v1h-2zM40 12h1v1h-1zM43 12h1v1h-1zM0 13h1v1h-1zM2 13h3v1h-3zM7 13h3v1h-3zM11 13h2v1h-2zM19 13h1v1h-1zM21 13h1v1h-1zM23 13h2v1h-2zM26 13h5v1h-5zM32 13h1v1h-1zM36 13h3v1h-3zM40 13h1v1h-1zM44 13h1v1h-1zM3 14h4v1h-4zM8 14h1v1h-1zM10 14h17v1h-17zM31 14h1v1h-1zM35 14h1v1h-1zM38 14h4v1h-4zM0 15h6v1h-6zM8 15h1v1h-1zM10 15h1v1h-1zM12 15h2v1h-2zM17 15h1v1h-1zM19 15h5v1h-5zM25 15h2v1h-2zM29 15h3v1h-3zM34 15h2v1h-2zM37 15h2v1h-2zM40 15h4v1h-4zM0 16h1v1h-1zM3 16h2v1h-2zM6 16h1v1h-1zM8 16h3v1h-3zM12 16h1v1h-1zM15 16h2v1h-2zM18 16h2v1h-2zM21 16h4v1h-4zM26 16h1v1h-1zM29 16h2v1h-2zM32 16h1v1h-1zM34 16h1v1h-1zM38 16h1v1h-1zM41 16h1v1h-1zM43 16h2v1h-2zM0 17h3v1h-3zM11 17h4v1h-4zM16 17h2v1h-2zM22 17h1v1h-1zM25 17h1v1h-1zM27 17h2v1h-2zM30 17h1v1h-1zM32 17h3v1h-3zM36 17h2v1h-2zM39 17h1v1h-1zM44 17h1v1h-1zM0 18h1v1h-1zM2 18h1v1h-1zM6 18h2v1h-2zM9 18h1v1h-1zM12 18h1v1h-1zM15 18h3v1h-3zM20 18h1v1h-1zM24 18h2v1h-2zM28 18h1v1h-1zM37 18h1v1h-1zM44 18h1v1h-1zM0 19h1v1h-1zM2 19h2v1h-2zM9 19h1v1h-1zM14 19h1v1h-1zM16 19h3v1h-3zM20 19h2v1h-2zM23 19h2v1h-2zM26 19h2v1h-2zM29 19h3v1h-3zM33 19h1v1h-1zM35 19h1v1h-1zM39 19h4v1h-4zM44 19h1v1h-1zM0 20h9v1h-9zM10 20h3v1h-3zM16 20h3v1h-3zM20 20h6v1h-6zM28 20h1v1h-1zM30 20h1v1h-1zM34 20h7v1h-7zM42 20h1v1h-1zM0 21h3v1h-3zM4 21h1v1h-1zM8 21h1v1h-1zM13 21h3v1h-3zM20 21h1v1h-1zM24 21h3v1h-3zM28 21h7v1h-7zM36 21h1v1h-1zM40 21h4v1h-4zM1 22h1v1h-1zM3 22h2v1h-2zM6 22h1v1h-1zM8 22h1v1h-1zM10 22h1v1h-1zM13 22h2v1h-2zM16 22h1v1h-1zM20 22h1v1h-1zM22 22h1v1h-1zM24 22h6v1h-6zM31 22h2v1h-2zM34 22h1v1h-1zM36 22h1v1h-1zM38 22h1v1h-1zM40 22h5v1h-5zM0 23h1v1h-1zM4 23h1v1h-1zM8 23h1v1h-1zM12 23h3v1h-3zM16 23h2v1h-2zM19 23h2v1h-2zM24 23h2v1h-2zM27 23h1v1h-1zM32 23h5v1h-5zM40 23h1v1h-1zM42 23h3v1h-3zM0 24h1v1h-1zM2 24h1v1h-1zM4 24h8v1h-8zM13 24h1v1h-1zM15 24h1v1h-1zM19 24h6v1h-6zM28 24h2v1h-2zM32 24h1v1h-1zM34 24h1v1h-1zM36 24h5v1h-5zM43 24h2v1h-2zM3 25h3v1h-3zM7 25h6v1h-6zM18 25h1v1h-1zM20 25h1v1h-1zM22 25h3v1h-3zM26 25h1v1h-1zM29 25h2v1h-2zM33 25h1v1h-1zM42 25h2v1h-2zM1 26h3v1h-3zM5 26h3v1h-3zM11 26h3v1h-3zM19 26h3v1h-3zM25 26h2v1h-2zM28 26h2v1h-2zM31 26h1v1h-1zM33 26h1v1h-1zM36 26h1v1h-1zM39 26h1v1h-1zM41 26h1v1h-1zM0 27h1v1h-1zM2 27h3v1h-3zM7 27h3v1h-3zM17 27h2v1h-2zM21 27h2v1h-2zM24 27h5v1h-5zM31 27h1v1h-1zM34 27h2v1h-2zM40 27h1v1h-1zM42 27h3v1h-3zM0 28h2v1h-2zM4 28h1v1h-1zM6 28h2v1h-2zM9 28h2v1h-2zM12 28h2v1h-2zM15 28h2v1h-2zM19 28h2v1h-2zM23 28h1v1h-1zM25 28h2v1h-2zM30 28h1v1h-1zM32 28h1v1h-1zM35 28h1v1h-1zM40 28h2v1h-2zM2 29h3v1h-3zM9 29h3v1h-3zM13 29h1v1h-1zM16 29h1v1h-1zM19 29h3v1h-3zM25 29h1v1h-1zM30 29h3v1h-3zM34 29h1v1h-1zM38 29h3v1h-3zM44 29h1v1h-1zM0 30h1v1h-1zM4 30h4v1h-4zM10 30h1v1h-1zM12 30h4v1h-4zM17 30h3v1h-3zM22 30h1v1h-1zM25 30h1v1h-1zM29 30h1v1h-1zM31 30h3v1h-3zM35 30h8v1h-8zM44 30h1v1h-1zM0 31h1v1h-1zM7 31h2v1h-2zM15 31h4v1h-4zM20 31h1v1h-1zM22 31h3v1h-3zM26 31h6v1h-6zM33 31h1v1h-1zM35 31h3v1h-3zM41 31h3v1h-3zM0 32h2v1h-2zM3 32h1v1h-1zM5 32h2v1h-2zM9 32h1v1h-1zM12 32h1v1h-1zM14 32h4v1h-4zM19 32h2v1h-2zM22 32h3v1h-3zM28 32h2v1h-2zM31 32h1v1h-1zM33 32h2v1h-2zM36 32h2v1h-2zM41 32h1v1h-1zM44 32h1v1h-1zM12 33h4v1h-4zM19 33h1v1h-1zM24 33h3v1h-3zM28 33h3v1h-3zM32 33h4v1h-4zM39 33h2v1h-2zM42 33h1v1h-1zM4 34h1v1h-1zM6 34h2v1h-2zM9 34h3v1h-3zM13 34h1v1h-1zM18 34h1v1h-1zM21 34h1v1h-1zM25 34h1v1h-1zM27 34h3v1h-3zM35 34h2v1h-2zM38 34h2v1h-2zM43 34h2v1h-2zM1 35h4v1h-4zM7 35h2v1h-2zM10 35h3v1h-3zM14 35h3v1h-3zM18 35h1v1h-1zM21 35h2v1h-2zM24 35h3v1h-3zM30 35h1v1h-1zM32 35h1v1h-1zM36 35h3v1h-3zM42 35h2v1h-2zM0 36h1v1h-1zM3 36h2v1h-2zM6 36h1v1h-1zM8 36h1v1h-1zM10 36h4v1h-4zM15 36h3v1h-3zM20 36h5v1h-5zM28 36h1v1h-1zM30 36h1v1h-1zM32 36h10v1h-10zM44 36h1v1h-1zM8 37h4v1h-4zM16 37h3v1h-3zM20 37h1v1h-1zM24 37h1v1h-1zM26 37h8v1h-8zM35 37h2v1h-2zM40 37h3v1h-3zM0 38h7v1h-7zM8 38h2v1h-2zM11 38h5v1h-5zM20 38h1v1h-1zM22 38h1v1h-1zM24 38h2v1h-2zM27 38h2v1h-2zM35 38h2v1h-2zM38 38h1v1h-1zM40 38h1v1h-1zM42 38h1v1h-1zM0 39h1v1h-1zM6 39h1v1h-1zM8 39h1v1h-1zM10 39h3v1h-3zM17 39h4v1h-4zM24 39h2v1h-2zM31 39h2v1h-2zM34 39h3v1h-3zM40 39h4v1h-4zM0 40h1v1h-1zM2 40h3v1h-3zM6 40h1v1h-1zM8 40h1v1h-1zM10 40h1v1h-1zM12 40h3v1h-3zM17 40h2v1h-2zM20 40h6v1h-6zM30 40h3v1h-3zM34 40h1v1h-1zM36 40h5v1h-5zM43 40h1v1h-1zM0 41h1v1h-1zM2 41h3v1h-3zM6 41h1v1h-1zM8 41h3v1h-3zM13 41h2v1h-2zM17 41h1v1h-1zM21 41h3v1h-3zM25 41h1v1h-1zM27 41h1v1h-1zM30 41h6v1h-6zM38 41h3v1h-3zM43 41h2v1h-2zM0 42h1v1h-1zM2 42h3v1h-3zM6 42h1v1h-1zM20 42h2v1h-2zM23 42h3v1h-3zM29 42h2v1h-2zM33 42h1v1h-1zM36 42h1v1h-1zM38 42h1v1h-1zM40 42h1v1h-1zM44 42h1v1h-1zM0 43h1v1h-1zM6 43h1v1h-1zM9 43h4v1h-4zM14 43h2v1h-2zM17 43h3v1h-3zM21 43h3v1h-3zM25 43h2v1h-2zM28 43h2v1h-2zM33 43h4v1h-4zM38 43h2v1h-2zM42 43h3v1h-3zM0 44h7v1h-7zM8 44h2v1h-2zM11 44h2v1h-2zM16 44h1v1h-1zM18 44h1v1h-1zM23 44h2v1h-2zM26 44h1v1h-1zM28 44h2v1h-2zM31 44h1v1h-1zM35 44h1v1h-1zM37 44h3v1h-3zM41 44h1v1h-1z"/>
  </g>
</g>
<text x="1122" y="614" font-family="Inter, Helvetica, Arial, sans-serif" font-size="10" font-weight="700" fill="#F5F7FA" text-anchor="middle">scan / full post</text>
</svg>
