<svg xmlns="http://www.w3.org/2000/svg" viewBox="0 0 1200 630" width="1200" height="630" role="img" aria-label="Weekly digest cover 2026.03.04: JWT AI, JWT, AI">
<!-- profile: high-quality-cover (L20 Hero+2-Card) -->
<title>Weekly Security Digest - 2026.03.04</title>
<defs><linearGradient id="bgSpread" x1="0%" y1="0%" x2="100%" y2="100%"><stop offset="0%" stop-color="#0B1326"/><stop offset="55%" stop-color="#0D1530"/><stop offset="100%" stop-color="#141034"/></linearGradient><linearGradient id="heroPanel" x1="0%" y1="0%" x2="0%" y2="100%"><stop offset="0%" stop-color="#1A0A08"/><stop offset="100%" stop-color="#110608"/></linearGradient><linearGradient id="heroPanelBlue" x1="0%" y1="0%" x2="0%" y2="100%"><stop offset="0%" stop-color="#0A1A30"/><stop offset="100%" stop-color="#071426"/></linearGradient><linearGradient id="heroPanelAmber" x1="0%" y1="0%" x2="0%" y2="100%"><stop offset="0%" stop-color="#1A1208"/><stop offset="100%" stop-color="#120E06"/></linearGradient><linearGradient id="heroPanelGreen" x1="0%" y1="0%" x2="0%" y2="100%"><stop offset="0%" stop-color="#08160E"/><stop offset="100%" stop-color="#04100A"/></linearGradient><linearGradient id="heroPanelPurple" x1="0%" y1="0%" x2="0%" y2="100%"><stop offset="0%" stop-color="#110629"/><stop offset="100%" stop-color="#0A0418"/></linearGradient><radialGradient id="hotRed" cx="50%" cy="50%" r="50%"><stop offset="0%" stop-color="#E63946" stop-opacity="0.6"/><stop offset="100%" stop-color="#E63946" stop-opacity="0"/></radialGradient><radialGradient id="hotBlue" cx="50%" cy="50%" r="50%"><stop offset="0%" stop-color="#3A86FF" stop-opacity="0.5"/><stop offset="100%" stop-color="#3A86FF" stop-opacity="0"/></radialGradient><radialGradient id="hotAmber" cx="50%" cy="50%" r="50%"><stop offset="0%" stop-color="#FFB703" stop-opacity="0.45"/><stop offset="100%" stop-color="#FFB703" stop-opacity="0"/></radialGradient><radialGradient id="hotGreen" cx="50%" cy="50%" r="50%"><stop offset="0%" stop-color="#4ADE80" stop-opacity="0.45"/><stop offset="100%" stop-color="#4ADE80" stop-opacity="0"/></radialGradient><radialGradient id="hotPurple" cx="50%" cy="50%" r="50%"><stop offset="0%" stop-color="#A78BFA" stop-opacity="0.45"/><stop offset="100%" stop-color="#A78BFA" stop-opacity="0"/></radialGradient><pattern id="envGrid" x="0" y="0" width="40" height="40" patternUnits="userSpaceOnUse"><circle cx="20" cy="20" r="0.8" fill="#2A3256" opacity="0.55"/></pattern><filter id="softShadow" x="-10%" y="-10%" width="130%" height="130%"><feGaussianBlur in="SourceAlpha" stdDeviation="3"/><feOffset dx="2" dy="4"/><feComponentTransfer><feFuncA type="linear" slope="0.55"/></feComponentTransfer><feMerge><feMergeNode/><feMergeNode in="SourceGraphic"/></feMerge></filter><filter id="textShadow" x="-10%" y="-10%" width="130%" height="130%"><feGaussianBlur in="SourceAlpha" stdDeviation="1.2"/><feOffset dx="1" dy="1.5"/><feComponentTransfer><feFuncA type="linear" slope="0.7"/></feComponentTransfer><feMerge><feMergeNode/><feMergeNode in="SourceGraphic"/></feMerge></filter></defs>
<rect width="1200" height="630" fill="url(#bgSpread)"/>
<rect width="1200" height="630" fill="url(#envGrid)"/>
<circle cx="310" cy="310" r="160" fill="url(#hotRed)"><animate attributeName="opacity" values="0.6;1;0.6" dur="5.8s" repeatCount="indefinite"/></circle><circle cx="950" cy="210" r="120" fill="url(#hotBlue)"><animate attributeName="opacity" values="0.45;0.85;0.45" dur="6.4s" repeatCount="indefinite"/></circle><circle cx="970" cy="480" r="110" fill="url(#hotAmber)"><animate attributeName="opacity" values="0.4;0.75;0.4" dur="7.1s" repeatCount="indefinite"/></circle><g fill="#8FB8FF"><circle cx="180" cy="70" r="1.2"><animate attributeName="opacity" values="0.2;1;0.2" dur="3.4s" repeatCount="indefinite"/></circle><circle cx="440" cy="62" r="1"><animate attributeName="opacity" values="0.2;0.9;0.2" dur="4.2s" repeatCount="indefinite"/></circle><circle cx="740" cy="68" r="1.3"><animate attributeName="opacity" values="0.25;1;0.25" dur="3.9s" repeatCount="indefinite"/></circle><circle cx="1060" cy="74" r="0.9"><animate attributeName="opacity" values="0.2;0.85;0.2" dur="5.1s" repeatCount="indefinite"/></circle><circle cx="90" cy="580" r="1"><animate attributeName="opacity" values="0.15;0.8;0.15" dur="4.7s" repeatCount="indefinite"/></circle><circle cx="550" cy="590" r="0.8"><animate attributeName="opacity" values="0.2;0.75;0.2" dur="3.6s" begin="0.5s" repeatCount="indefinite"/></circle></g>
<g fill="#7DA3D9" opacity="0.85"><circle cx="252" cy="58" r="0.8"><animate attributeName="opacity" values="0.15;0.7;0.15" dur="4.3s" repeatCount="indefinite"/></circle><circle cx="368" cy="74" r="0.9"><animate attributeName="opacity" values="0.2;0.85;0.2" dur="3.8s" begin="0.4s" repeatCount="indefinite"/></circle><circle cx="624" cy="60" r="1.1"><animate attributeName="opacity" values="0.25;0.95;0.25" dur="4.5s" repeatCount="indefinite"/></circle><circle cx="858" cy="68" r="0.9"><animate attributeName="opacity" values="0.2;0.8;0.2" dur="3.6s" begin="0.6s" repeatCount="indefinite"/></circle><circle cx="996" cy="62" r="1.0"><animate attributeName="opacity" values="0.2;0.9;0.2" dur="4.0s" begin="0.2s" repeatCount="indefinite"/></circle><circle cx="1138" cy="76" r="0.8"><animate attributeName="opacity" values="0.15;0.7;0.15" dur="5.2s" begin="0.5s" repeatCount="indefinite"/></circle><circle cx="218" cy="596" r="0.9"><animate attributeName="opacity" values="0.18;0.75;0.18" dur="4.6s" begin="0.3s" repeatCount="indefinite"/></circle><circle cx="380" cy="608" r="1.0"><animate attributeName="opacity" values="0.2;0.85;0.2" dur="3.9s" begin="0.7s" repeatCount="indefinite"/></circle><circle cx="704" cy="600" r="0.8"><animate attributeName="opacity" values="0.18;0.7;0.18" dur="4.2s" begin="0.4s" repeatCount="indefinite"/></circle><circle cx="892" cy="608" r="1.1"><animate attributeName="opacity" values="0.22;0.9;0.22" dur="4.7s" begin="0.6s" repeatCount="indefinite"/></circle><circle cx="1078" cy="600" r="0.9"><animate attributeName="opacity" values="0.2;0.85;0.2" dur="3.6s" begin="0.8s" repeatCount="indefinite"/></circle></g>
<rect x="0" y="0" width="1200" height="56" fill="#050813" opacity="0.92"/>
<text x="36" y="36" font-family="Inter, Helvetica, Arial, sans-serif" font-size="18" font-weight="700" fill="#8FB8FF" letter-spacing="2.5">WEEKLY DIGEST</text>
<text x="1164" y="36" font-family="Inter, Helvetica, Arial, sans-serif" font-size="15" font-weight="600" fill="#7DA3D9" letter-spacing="1.5" text-anchor="end">2026.03.04</text>
<rect x="0" y="54" width="1200" height="2" fill="#E63946" opacity="0.85"><animate attributeName="opacity" values="0.4;1;0.4" dur="4.8s" repeatCount="indefinite"/></rect>
<rect x="32" y="80" width="600" height="510" rx="14" ry="14" fill="url(#heroPanelBlue)" stroke="#3A86FF" stroke-width="1.8" opacity="0.98"/>
<circle cx="160" cy="300" r="240" fill="url(#hotBlue)" opacity="0.28"/>
<rect x="32" y="80" width="600" height="4" fill="#3A86FF" opacity="0.85"><animate attributeName="opacity" values="0.5;1;0.5" dur="3.4s" repeatCount="indefinite"/></rect>
<g filter="url(#textShadow)">
<text x="54" y="112" font-family="Inter, Helvetica, Arial, sans-serif" font-size="13" font-weight="700" fill="#60A5FA" letter-spacing="3">HIGH  /  01</text>
<text x="54" y="146" font-family="Inter, Helvetica, Arial, sans-serif" font-size="31" font-weight="800" fill="#F8FAFC">JWT AI</text>
<text x="54" y="174" font-family="Inter, Helvetica, Arial, sans-serif" font-size="17" font-weight="500" fill="#BFC9D9">Security advisory</text>
</g>
<g transform="translate(332,360)" opacity="0.32"><circle r="180" fill="none" stroke="#3A86FF" stroke-width="0.6" stroke-dasharray="2 4"/><circle r="140" fill="none" stroke="#3A86FF" stroke-width="0.6" stroke-dasharray="2 4" opacity="0.7"/><circle r="100" fill="none" stroke="#3A86FF" stroke-width="0.6" stroke-dasharray="2 4" opacity="0.5"/><g><path d="M0 0 L180 0 A180 180 0 0 1 127 127 Z" fill="#3A86FF" opacity="0.10"/><animateTransform attributeName="transform" type="rotate" from="0" to="360" dur="14s" repeatCount="indefinite"/></g></g>
<g stroke="#3A86FF" stroke-width="1.4" fill="none" opacity="0.7"><path d="M36 96 L36 84 L48 84"/><path d="M616 84 L628 84 L628 96"/><path d="M36 574 L36 586 L48 586"/><path d="M616 586 L628 586 L628 574"/></g>
<g><rect x="54" y="526" width="280" height="1" fill="#3A86FF" opacity="0.35"/><rect x="54" y="528" width="1" height="4" fill="#3A86FF" opacity="0.55"/><rect x="68" y="528" width="1" height="2" fill="#3A86FF" opacity="0.55"/><rect x="82" y="528" width="1" height="2" fill="#3A86FF" opacity="0.55"/><rect x="96" y="528" width="1" height="4" fill="#3A86FF" opacity="0.55"/><rect x="110" y="528" width="1" height="2" fill="#3A86FF" opacity="0.55"/><rect x="124" y="528" width="1" height="2" fill="#3A86FF" opacity="0.55"/><rect x="138" y="528" width="1" height="4" fill="#3A86FF" opacity="0.55"/><rect x="152" y="528" width="1" height="2" fill="#3A86FF" opacity="0.55"/><rect x="166" y="528" width="1" height="2" fill="#3A86FF" opacity="0.55"/><rect x="180" y="528" width="1" height="4" fill="#3A86FF" opacity="0.55"/><rect x="194" y="528" width="1" height="2" fill="#3A86FF" opacity="0.55"/><rect x="208" y="528" width="1" height="2" fill="#3A86FF" opacity="0.55"/><rect x="222" y="528" width="1" height="4" fill="#3A86FF" opacity="0.55"/><rect x="236" y="528" width="1" height="2" fill="#3A86FF" opacity="0.55"/><rect x="250" y="528" width="1" height="2" fill="#3A86FF" opacity="0.55"/><rect x="264" y="528" width="1" height="4" fill="#3A86FF" opacity="0.55"/><rect x="278" y="528" width="1" height="2" fill="#3A86FF" opacity="0.55"/><rect x="292" y="528" width="1" height="2" fill="#3A86FF" opacity="0.55"/><rect x="306" y="528" width="1" height="4" fill="#3A86FF" opacity="0.55"/><rect x="320" y="528" width="1" height="2" fill="#3A86FF" opacity="0.55"/><rect x="284" y="527" width="50" height="6" fill="#3A86FF" opacity="0.45"><animate attributeName="x" values="54;284;54" dur="6.4s" repeatCount="indefinite"/><animate attributeName="opacity" values="0.2;0.7;0.2" dur="6.4s" repeatCount="indefinite"/></rect></g>
<g transform="translate(332,360)"><g font-family="Inter, monospace" font-size="8" font-weight="800"><g transform="translate(-150,-40)"><rect x="0" y="0" width="76" height="24" rx="4" fill="#0E1426" stroke="#3A86FF" stroke-width="1.2"/><text x="38" y="15" text-anchor="middle" fill="#60A5FA">DIGEST</text></g><g transform="translate(-150,-6)"><rect x="0" y="0" width="76" height="24" rx="4" fill="#0E1426" stroke="#3A86FF" stroke-width="1.2" opacity="0.88"/><text x="38" y="15" text-anchor="middle" fill="#60A5FA">ECOSYSTEM</text></g><g transform="translate(-150,28)"><rect x="0" y="0" width="76" height="24" rx="4" fill="#0E1426" stroke="#3A86FF" stroke-width="1.2" opacity="0.76"/><text x="38" y="15" text-anchor="middle" fill="#60A5FA">RELEASE</text></g></g><g stroke="#3A86FF" stroke-width="1" stroke-dasharray="3 2" fill="none" opacity="0.6"><line x1="-74" y1="-28" x2="-8" y2="0"/><line x1="-74" y1="6" x2="-8" y2="2"/><line x1="-74" y1="40" x2="-8" y2="4"/></g><g fill="#60A5FA"><circle r="2"><animateMotion path="M-74 -28 L-8 0" dur="2.2s" repeatCount="indefinite"/></circle><circle r="2"><animateMotion path="M-74 6 L-8 2" dur="2s" begin="0.4s" repeatCount="indefinite"/></circle><circle r="2"><animateMotion path="M-74 40 L-8 4" dur="2.4s" begin="0.8s" repeatCount="indefinite"/></circle></g><circle cx="0" cy="2" r="30" fill="#0A1326" stroke="#3A86FF" stroke-width="2" filter="url(#softShadow)"><animate attributeName="r" values="28;33;28" dur="3.4s" repeatCount="indefinite"/></circle><text x="0" y="-1" text-anchor="middle" font-family="Inter, monospace" font-size="11" font-weight="900" fill="#60A5FA">UPDATE</text><text x="0" y="13" text-anchor="middle" font-family="Inter, monospace" font-size="8" font-weight="700" fill="#4ADE80">RELEASE</text><g transform="translate(56,-44)" filter="url(#softShadow)"><rect x="0" y="0" width="120" height="92" rx="6" fill="#0A0F1E" stroke="#3A86FF" stroke-width="1.2"/><text x="60" y="16" text-anchor="middle" font-family="Inter, monospace" font-size="9" font-weight="800" fill="#60A5FA">ACTIVITY</text><polyline points="12,72 30,60 46,64 62,48 80,52 98,34 108,30" fill="none" stroke="#3A86FF" stroke-width="2" stroke-linecap="round" stroke-linejoin="round"/><circle cx="108" cy="30" r="3" fill="#60A5FA"><animate attributeName="opacity" values="0.5;1;0.5" dur="2s" repeatCount="indefinite"/></circle><g stroke="#3A86FF" stroke-width="0.6" opacity="0.3"><line x1="12" y1="46" x2="108" y2="46"/><line x1="12" y1="62" x2="108" y2="62"/></g><text x="60" y="86" text-anchor="middle" font-family="Inter, monospace" font-size="8" font-weight="600" fill="#3A86FF">trend overview</text></g></g>
<g transform="translate(54,548)">
<rect x="0" y="0" width="280" height="24" rx="3" fill="#3A86FF" opacity="0.95"/>
<text x="140" y="17" text-anchor="middle" font-family="Inter, Helvetica, Arial, sans-serif" font-size="12" font-weight="700" fill="#FFFFFF">READ THE FULL DIGEST</text>
</g>
<text x="350" y="566" font-family="Inter, Helvetica, Arial, sans-serif" font-size="13" font-weight="600" fill="#A5B4C4" font-style="italic">Weekly Digest  /  2026.03.04</text>
<rect x="652" y="80" width="516" height="248" rx="14" ry="14" fill="url(#heroPanel)" stroke="#E63946" stroke-width="1.6" opacity="0.97"/>
<rect x="652" y="80" width="516" height="4" fill="#E63946" opacity="0.85"><animate attributeName="opacity" values="0.5;1;0.5" dur="4.2s" repeatCount="indefinite"/></rect>
<g filter="url(#textShadow)">
<text x="670" y="110" font-family="Inter, Helvetica, Arial, sans-serif" font-size="12" font-weight="700" fill="#F87171" letter-spacing="3">HIGH  /  02</text>
<text x="670" y="140" font-family="Inter, Helvetica, Arial, sans-serif" font-size="24" font-weight="800" fill="#F5F7FA">JWT</text>
<text x="670" y="163" font-family="Inter, Helvetica, Arial, sans-serif" font-size="14" font-weight="500" fill="#FBB6BD">Security advisory</text>
</g>
<g stroke="#E63946" stroke-width="1.4" fill="none" opacity="0.7"><path d="M656 93 L656 84 L665 84"/><path d="M1155 84 L1164 84 L1164 93"/><path d="M656 315 L656 324 L665 324"/><path d="M1155 324 L1164 324 L1164 315"/></g>
<g transform="translate(800,230)"><g transform="translate(-100,-90)" filter="url(#softShadow)"><rect x="0" y="32" width="80" height="64" rx="8" fill="#E63946"/><path d="M14 32 L14 16 Q40 -6 66 16 L66 32" stroke="#E63946" stroke-width="6" fill="none" stroke-linecap="round"/><circle cx="40" cy="60" r="6" fill="#FFFFFF"/><rect x="38" y="62" width="4" height="14" fill="#FFFFFF"/><text x="40" y="116" text-anchor="middle" font-family="Inter, monospace" font-size="10" font-weight="900" fill="#F87171">LOCKED</text></g><g transform="translate(20,-90)" filter="url(#softShadow)"><rect x="0" y="0" width="180" height="180" rx="8" fill="#0A0C16" stroke="#E63946" stroke-width="1.4"/><text x="90" y="22" text-anchor="middle" font-family="Inter, monospace" font-size="11" font-weight="900" fill="#F87171">RANSOM NOTE</text><line x1="14" y1="32" x2="166" y2="32" stroke="#E63946" stroke-width="0.8" opacity="0.6"/><g font-family="Inter, monospace" font-size="9" font-weight="600" fill="#FCA5A5"><text x="14" y="50">Files encrypted: 100%</text><text x="14" y="68">AES-256 + RSA-4096</text><text x="14" y="86">Backups deleted</text><text x="14" y="104">Volume shadow wiped</text></g><rect x="14" y="118" width="152" height="22" rx="3" fill="#2A0808" stroke="#E63946" stroke-width="1.2"><animate attributeName="stroke-opacity" values="0.6;1;0.6" dur="1.6s" repeatCount="indefinite"/></rect><text x="90" y="133" text-anchor="middle" font-family="Inter, monospace" font-size="10" font-weight="900" fill="#FFFFFF">PAY OR LOSE DATA</text><g transform="translate(14,148)" font-family="Inter, monospace" font-size="8" font-weight="700" fill="#FFB703"><rect x="0" y="0" width="152" height="20" rx="3" fill="#1A1208" stroke="#FFB703" stroke-width="1"/><text x="76" y="14" text-anchor="middle">countdown  /  72h window</text></g></g></g>
<g transform="translate(1094,168)" filter="url(#softShadow)"><rect x="-68" y="-55" width="140" height="110" rx="10" fill="#1E0A0A" stroke="#E63946" stroke-width="2"/><text x="2" y="-28" text-anchor="middle" font-family="Inter, Helvetica, Arial, sans-serif" font-size="10" font-weight="700" letter-spacing="2" fill="#F87171">ITEMS</text><text x="2" y="18" text-anchor="middle" font-family="Inter, Helvetica, Arial, sans-serif" font-size="28" font-weight="900" fill="#F5F7FA">15</text><text x="2" y="40" text-anchor="middle" font-family="Inter, Helvetica, Arial, sans-serif" font-size="10" font-weight="600" fill="#FBB6BD">24h feed</text></g>
<rect x="652" y="344" width="516" height="246" rx="14" ry="14" fill="url(#heroPanelAmber)" stroke="#FFB703" stroke-width="1.6" opacity="0.97"/>
<rect x="652" y="344" width="516" height="4" fill="#FFB703" opacity="0.85"><animate attributeName="opacity" values="0.5;1;0.5" dur="4.8s" repeatCount="indefinite"/></rect>
<g filter="url(#textShadow)">
<text x="670" y="374" font-family="Inter, Helvetica, Arial, sans-serif" font-size="12" font-weight="700" fill="#FFB703" letter-spacing="3">MEDIUM  /  03</text>
<text x="670" y="404" font-family="Inter, Helvetica, Arial, sans-serif" font-size="24" font-weight="800" fill="#F5F7FA">AI</text>
<text x="670" y="428" font-family="Inter, Helvetica, Arial, sans-serif" font-size="14" font-weight="500" fill="#FFD58A">Security advisory</text>
</g>
<g stroke="#FFB703" stroke-width="1.4" fill="none" opacity="0.7"><path d="M656 357 L656 348 L665 348"/><path d="M1155 348 L1164 348 L1164 357"/><path d="M656 577 L656 586 L665 586"/><path d="M1155 586 L1164 586 L1164 577"/></g>
<g transform="translate(800,490)"><g filter="url(#softShadow)"><rect x="-160" y="-66" width="290" height="132" rx="8" fill="#0A0F1E" stroke="#FFB703" stroke-width="1.4"/></g><text x="-148" y="-46" font-family="Inter, monospace" font-size="10" font-weight="800" fill="#FFD58A" letter-spacing="1">MARKET</text><text x="118" y="-46" text-anchor="end" font-family="Inter, monospace" font-size="9" font-weight="700" fill="#FFB703">PRICE</text><g stroke="#FFB703" stroke-width="0.6" opacity="0.25"><line x1="-148" y1="-24" x2="118" y2="-24"/><line x1="-148" y1="4" x2="118" y2="4"/><line x1="-148" y1="32" x2="118" y2="32"/></g><g stroke-width="1"><line x1="-128" y1="-6" x2="-128" y2="40" stroke="#F87171"/><rect x="-133" y="6" width="10" height="22" fill="#F87171"/><line x1="-104" y1="-2" x2="-104" y2="44" stroke="#4ADE80"/><rect x="-109" y="2" width="10" height="26" fill="#4ADE80"/><line x1="-80" y1="-14" x2="-80" y2="30" stroke="#4ADE80"/><rect x="-85" y="-10" width="10" height="24" fill="#4ADE80"/><line x1="-56" y1="-8" x2="-56" y2="34" stroke="#F87171"/><rect x="-61" y="0" width="10" height="20" fill="#F87171"/><line x1="-32" y1="-20" x2="-32" y2="22" stroke="#4ADE80"/><rect x="-37" y="-16" width="10" height="26" fill="#4ADE80"/><line x1="-8" y1="-30" x2="-8" y2="14" stroke="#4ADE80"/><rect x="-13" y="-26" width="10" height="26" fill="#4ADE80"/><line x1="16" y1="-24" x2="16" y2="18" stroke="#F87171"/><rect x="11" y="-20" width="10" height="18" fill="#F87171"/><line x1="40" y1="-40" x2="40" y2="6" stroke="#4ADE80"/><rect x="35" y="-36" width="10" height="26" fill="#4ADE80"/><line x1="64" y1="-48" x2="64" y2="-4" stroke="#4ADE80"/><rect x="59" y="-44" width="10" height="24" fill="#4ADE80"/></g><polyline points="-128,18 -104,16 -80,2 -56,8 -32,-2 -8,-14 16,-8 40,-24 64,-34" fill="none" stroke="#FFB703" stroke-width="2" stroke-linecap="round" stroke-linejoin="round" opacity="0.9"/><g transform="translate(64,-34)" stroke="#FFB703" stroke-width="2" fill="none" stroke-linecap="round"><path d="M0 0 L10 -8 M10 -8 L2 -8 M10 -8 L10 0"><animate attributeName="stroke-opacity" values="0.5;1;0.5" dur="1.8s" repeatCount="indefinite"/></path></g><circle cx="64" cy="-34" r="3.4" fill="#FFD58A"><animate attributeName="r" values="3;5;3" dur="2s" repeatCount="indefinite"/></circle><text x="-15" y="60" text-anchor="middle" font-family="Inter, Helvetica, Arial, sans-serif" font-size="10" font-weight="700" fill="#FFB703" letter-spacing="2">TREND OVERVIEW</text></g>
<g transform="translate(1094,414)" filter="url(#softShadow)"><rect x="-68" y="-55" width="140" height="110" rx="10" fill="#1A1208" stroke="#FFB703" stroke-width="2"/><text x="2" y="-28" text-anchor="middle" font-family="Inter, Helvetica, Arial, sans-serif" font-size="10" font-weight="700" letter-spacing="2" fill="#FFB703">STATUS</text><text x="2" y="18" text-anchor="middle" font-family="Inter, Helvetica, Arial, sans-serif" font-size="28" font-weight="900" fill="#F5F7FA">TBD</text><text x="2" y="40" text-anchor="middle" font-family="Inter, Helvetica, Arial, sans-serif" font-size="10" font-weight="600" fill="#FFD58A">NEW</text></g>
<g opacity="0.85"><g fill="#F87171"><circle cx="1104" cy="110" r="1.4"><animate attributeName="opacity" values="0.2;1;0.2" dur="1.8s" repeatCount="indefinite"/></circle><circle cx="1124" cy="110" r="1.4"><animate attributeName="opacity" values="0.2;1;0.2" dur="1.4s" begin="0.3s" repeatCount="indefinite"/></circle></g><g fill="#7DA3D9"><circle cx="1104" cy="218" r="1.2"><animate attributeName="opacity" values="0.2;1;0.2" dur="2s" repeatCount="indefinite"/></circle><circle cx="1124" cy="218" r="1.2"><animate attributeName="opacity" values="0.2;1;0.2" dur="1.6s" begin="0.4s" repeatCount="indefinite"/></circle></g><g fill="#FFD58A"><circle cx="1104" cy="374" r="1.4"><animate attributeName="opacity" values="0.2;1;0.2" dur="1.8s" repeatCount="indefinite"/></circle><circle cx="1124" cy="374" r="1.4"><animate attributeName="opacity" values="0.2;1;0.2" dur="1.6s" begin="0.3s" repeatCount="indefinite"/></circle></g><g stroke="#E63946" stroke-width="0.5" fill="none"><path d="M20 230 L28 230"><animate attributeName="stroke-opacity" values="0;0.7;0" dur="2s" repeatCount="indefinite"/></path><path d="M20 300 L28 300"><animate attributeName="stroke-opacity" values="0;0.7;0" dur="2.3s" begin="0.3s" repeatCount="indefinite"/></path><path d="M20 370 L28 370"><animate attributeName="stroke-opacity" values="0;0.7;0" dur="1.9s" begin="0.6s" repeatCount="indefinite"/></path><path d="M20 440 L28 440"><animate attributeName="stroke-opacity" values="0;0.7;0" dur="2.1s" begin="0.9s" repeatCount="indefinite"/></path></g></g>
<g transform="translate(1080,504)" filter="url(#softShadow)">
  <rect x="-12" y="-12" width="132" height="132" rx="8" fill="#FFFFFF"/>
  <path fill="#0A1020" d="M0.0 0.0h18.439v2.634h-18.439z M21.073 0.0h2.634v2.634h-2.634z M28.976 0.0h5.268v2.634h-5.268z M39.512 0.0h2.634v2.634h-2.634z M47.415 0.0h2.634v2.634h-2.634z M55.317 0.0h2.634v2.634h-2.634z M60.585 0.0h2.634v2.634h-2.634z M68.488 0.0h2.634v2.634h-2.634z M79.024 0.0h2.634v2.634h-2.634z M89.561 0.0h18.439v2.634h-18.439z M0.0 2.634h2.634v2.634h-2.634z M15.805 2.634h2.634v2.634h-2.634z M21.073 2.634h2.634v2.634h-2.634z M26.341 2.634h5.268v2.634h-5.268z M34.244 2.634h7.902v2.634h-7.902z M44.78 2.634h2.634v2.634h-2.634z M50.049 2.634h5.268v2.634h-5.268z M63.22 2.634h2.634v2.634h-2.634z M79.024 2.634h5.268v2.634h-5.268z M89.561 2.634h2.634v2.634h-2.634z M105.366 2.634h2.634v2.634h-2.634z M0.0 5.268h2.634v2.634h-2.634z M5.268 5.268h7.902v2.634h-7.902z M15.805 5.268h2.634v2.634h-2.634z M21.073 5.268h10.537v2.634h-10.537z M34.244 5.268h15.805v2.634h-15.805z M55.317 5.268h2.634v2.634h-2.634z M65.854 5.268h2.634v2.634h-2.634z M71.122 5.268h2.634v2.634h-2.634z M81.659 5.268h5.268v2.634h-5.268z M89.561 5.268h2.634v2.634h-2.634z M94.829 5.268h7.902v2.634h-7.902z M105.366 5.268h2.634v2.634h-2.634z M0.0 7.902h2.634v2.634h-2.634z M5.268 7.902h7.902v2.634h-7.902z M15.805 7.902h2.634v2.634h-2.634z M28.976 7.902h5.268v2.634h-5.268z M42.146 7.902h2.634v2.634h-2.634z M57.951 7.902h2.634v2.634h-2.634z M65.854 7.902h5.268v2.634h-5.268z M76.39 7.902h2.634v2.634h-2.634z M89.561 7.902h2.634v2.634h-2.634z M94.829 7.902h7.902v2.634h-7.902z M105.366 7.902h2.634v2.634h-2.634z M0.0 10.537h2.634v2.634h-2.634z M5.268 10.537h7.902v2.634h-7.902z M15.805 10.537h2.634v2.634h-2.634z M21.073 10.537h2.634v2.634h-2.634z M28.976 10.537h7.902v2.634h-7.902z M42.146 10.537h2.634v2.634h-2.634z M47.415 10.537h2.634v2.634h-2.634z M55.317 10.537h7.902v2.634h-7.902z M68.488 10.537h2.634v2.634h-2.634z M76.39 10.537h2.634v2.634h-2.634z M81.659 10.537h5.268v2.634h-5.268z M89.561 10.537h2.634v2.634h-2.634z M94.829 10.537h7.902v2.634h-7.902z M105.366 10.537h2.634v2.634h-2.634z M0.0 13.171h2.634v2.634h-2.634z M15.805 13.171h2.634v2.634h-2.634z M34.244 13.171h2.634v2.634h-2.634z M39.512 13.171h5.268v2.634h-5.268z M52.683 13.171h10.537v2.634h-10.537z M65.854 13.171h2.634v2.634h-2.634z M73.756 13.171h5.268v2.634h-5.268z M89.561 13.171h2.634v2.634h-2.634z M105.366 13.171h2.634v2.634h-2.634z M0.0 15.805h18.439v2.634h-18.439z M21.073 15.805h2.634v2.634h-2.634z M26.341 15.805h2.634v2.634h-2.634z M31.61 15.805h2.634v2.634h-2.634z M36.878 15.805h2.634v2.634h-2.634z M42.146 15.805h2.634v2.634h-2.634z M47.415 15.805h2.634v2.634h-2.634z M52.683 15.805h2.634v2.634h-2.634z M57.951 15.805h2.634v2.634h-2.634z M63.22 15.805h2.634v2.634h-2.634z M68.488 15.805h2.634v2.634h-2.634z M73.756 15.805h2.634v2.634h-2.634z M79.024 15.805h2.634v2.634h-2.634z M84.293 15.805h2.634v2.634h-2.634z M89.561 15.805h18.439v2.634h-18.439z M23.707 18.439h2.634v2.634h-2.634z M28.976 18.439h2.634v2.634h-2.634z M34.244 18.439h2.634v2.634h-2.634z M42.146 18.439h2.634v2.634h-2.634z M47.415 18.439h2.634v2.634h-2.634z M60.585 18.439h2.634v2.634h-2.634z M65.854 18.439h5.268v2.634h-5.268z M79.024 18.439h2.634v2.634h-2.634z M84.293 18.439h2.634v2.634h-2.634z M0.0 21.073h2.634v2.634h-2.634z M7.902 21.073h23.707v2.634h-23.707z M36.878 21.073h5.268v2.634h-5.268z M44.78 21.073h2.634v2.634h-2.634z M60.585 21.073h2.634v2.634h-2.634z M68.488 21.073h5.268v2.634h-5.268z M76.39 21.073h2.634v2.634h-2.634z M81.659 21.073h7.902v2.634h-7.902z M94.829 21.073h2.634v2.634h-2.634z M100.098 21.073h7.902v2.634h-7.902z M0.0 23.707h2.634v2.634h-2.634z M5.268 23.707h2.634v2.634h-2.634z M10.537 23.707h2.634v2.634h-2.634z M18.439 23.707h5.268v2.634h-5.268z M28.976 23.707h13.171v2.634h-13.171z M47.415 23.707h7.902v2.634h-7.902z M57.951 23.707h5.268v2.634h-5.268z M71.122 23.707h5.268v2.634h-5.268z M79.024 23.707h5.268v2.634h-5.268z M86.927 23.707h10.537v2.634h-10.537z M2.634 26.341h5.268v2.634h-5.268z M10.537 26.341h2.634v2.634h-2.634z M15.805 26.341h7.902v2.634h-7.902z M28.976 26.341h7.902v2.634h-7.902z M47.415 26.341h2.634v2.634h-2.634z M52.683 26.341h21.073v2.634h-21.073z M76.39 26.341h5.268v2.634h-5.268z M86.927 26.341h2.634v2.634h-2.634z M94.829 26.341h2.634v2.634h-2.634z M100.098 26.341h2.634v2.634h-2.634z M0.0 28.976h5.268v2.634h-5.268z M13.171 28.976h2.634v2.634h-2.634z M21.073 28.976h2.634v2.634h-2.634z M44.78 28.976h2.634v2.634h-2.634z M50.049 28.976h5.268v2.634h-5.268z M57.951 28.976h5.268v2.634h-5.268z M68.488 28.976h5.268v2.634h-5.268z M76.39 28.976h10.537v2.634h-10.537z M92.195 28.976h2.634v2.634h-2.634z M97.463 28.976h2.634v2.634h-2.634z M102.732 28.976h2.634v2.634h-2.634z M0.0 31.61h5.268v2.634h-5.268z M7.902 31.61h5.268v2.634h-5.268z M15.805 31.61h2.634v2.634h-2.634z M21.073 31.61h5.268v2.634h-5.268z M28.976 31.61h2.634v2.634h-2.634z M34.244 31.61h5.268v2.634h-5.268z M42.146 31.61h2.634v2.634h-2.634z M60.585 31.61h5.268v2.634h-5.268z M68.488 31.61h2.634v2.634h-2.634z M73.756 31.61h2.634v2.634h-2.634z M79.024 31.61h2.634v2.634h-2.634z M84.293 31.61h2.634v2.634h-2.634z M89.561 31.61h2.634v2.634h-2.634z M0.0 34.244h2.634v2.634h-2.634z M5.268 34.244h5.268v2.634h-5.268z M21.073 34.244h18.439v2.634h-18.439z M42.146 34.244h2.634v2.634h-2.634z M47.415 34.244h10.537v2.634h-10.537z M68.488 34.244h10.537v2.634h-10.537z M89.561 34.244h7.902v2.634h-7.902z M102.732 34.244h5.268v2.634h-5.268z M0.0 36.878h5.268v2.634h-5.268z M10.537 36.878h7.902v2.634h-7.902z M21.073 36.878h5.268v2.634h-5.268z M28.976 36.878h2.634v2.634h-2.634z M34.244 36.878h7.902v2.634h-7.902z M47.415 36.878h7.902v2.634h-7.902z M60.585 36.878h7.902v2.634h-7.902z M71.122 36.878h2.634v2.634h-2.634z M76.39 36.878h7.902v2.634h-7.902z M86.927 36.878h7.902v2.634h-7.902z M100.098 36.878h2.634v2.634h-2.634z M105.366 36.878h2.634v2.634h-2.634z M0.0 39.512h7.902v2.634h-7.902z M10.537 39.512h2.634v2.634h-2.634z M23.707 39.512h2.634v2.634h-2.634z M28.976 39.512h5.268v2.634h-5.268z M39.512 39.512h5.268v2.634h-5.268z M52.683 39.512h2.634v2.634h-2.634z M60.585 39.512h2.634v2.634h-2.634z M73.756 39.512h2.634v2.634h-2.634z M81.659 39.512h7.902v2.634h-7.902z M94.829 39.512h13.171v2.634h-13.171z M0.0 42.146h7.902v2.634h-7.902z M10.537 42.146h2.634v2.634h-2.634z M15.805 42.146h2.634v2.634h-2.634z M21.073 42.146h2.634v2.634h-2.634z M26.341 42.146h5.268v2.634h-5.268z M34.244 42.146h2.634v2.634h-2.634z M55.317 42.146h5.268v2.634h-5.268z M65.854 42.146h2.634v2.634h-2.634z M84.293 42.146h5.268v2.634h-5.268z M97.463 42.146h2.634v2.634h-2.634z M7.902 44.78h7.902v2.634h-7.902z M26.341 44.78h2.634v2.634h-2.634z M31.61 44.78h5.268v2.634h-5.268z M44.78 44.78h5.268v2.634h-5.268z M52.683 44.78h7.902v2.634h-7.902z M65.854 44.78h2.634v2.634h-2.634z M76.39 44.78h13.171v2.634h-13.171z M94.829 44.78h2.634v2.634h-2.634z M2.634 47.415h2.634v2.634h-2.634z M10.537 47.415h7.902v2.634h-7.902z M23.707 47.415h2.634v2.634h-2.634z M34.244 47.415h5.268v2.634h-5.268z M44.78 47.415h7.902v2.634h-7.902z M60.585 47.415h2.634v2.634h-2.634z M71.122 47.415h2.634v2.634h-2.634z M76.39 47.415h2.634v2.634h-2.634z M81.659 47.415h2.634v2.634h-2.634z M89.561 47.415h10.537v2.634h-10.537z M102.732 47.415h5.268v2.634h-5.268z M10.537 50.049h5.268v2.634h-5.268z M23.707 50.049h5.268v2.634h-5.268z M34.244 50.049h2.634v2.634h-2.634z M39.512 50.049h2.634v2.634h-2.634z M55.317 50.049h2.634v2.634h-2.634z M60.585 50.049h7.902v2.634h-7.902z M71.122 50.049h5.268v2.634h-5.268z M79.024 50.049h5.268v2.634h-5.268z M94.829 50.049h2.634v2.634h-2.634z M100.098 50.049h5.268v2.634h-5.268z M0.0 52.683h10.537v2.634h-10.537z M15.805 52.683h5.268v2.634h-5.268z M28.976 52.683h5.268v2.634h-5.268z M36.878 52.683h2.634v2.634h-2.634z M42.146 52.683h2.634v2.634h-2.634z M47.415 52.683h2.634v2.634h-2.634z M52.683 52.683h5.268v2.634h-5.268z M63.22 52.683h5.268v2.634h-5.268z M76.39 52.683h2.634v2.634h-2.634z M81.659 52.683h5.268v2.634h-5.268z M89.561 52.683h5.268v2.634h-5.268z M97.463 52.683h5.268v2.634h-5.268z M0.0 55.317h2.634v2.634h-2.634z M5.268 55.317h10.537v2.634h-10.537z M21.073 55.317h2.634v2.634h-2.634z M26.341 55.317h7.902v2.634h-7.902z M57.951 55.317h7.902v2.634h-7.902z M68.488 55.317h7.902v2.634h-7.902z M79.024 55.317h10.537v2.634h-10.537z M92.195 55.317h7.902v2.634h-7.902z M0.0 57.951h2.634v2.634h-2.634z M10.537 57.951h2.634v2.634h-2.634z M15.805 57.951h7.902v2.634h-7.902z M31.61 57.951h13.171v2.634h-13.171z M47.415 57.951h2.634v2.634h-2.634z M52.683 57.951h5.268v2.634h-5.268z M60.585 57.951h5.268v2.634h-5.268z M71.122 57.951h7.902v2.634h-7.902z M89.561 57.951h2.634v2.634h-2.634z M94.829 57.951h7.902v2.634h-7.902z M21.073 60.585h13.171v2.634h-13.171z M44.78 60.585h2.634v2.634h-2.634z M60.585 60.585h2.634v2.634h-2.634z M71.122 60.585h2.634v2.634h-2.634z M76.39 60.585h2.634v2.634h-2.634z M81.659 60.585h7.902v2.634h-7.902z M92.195 60.585h7.902v2.634h-7.902z M102.732 60.585h2.634v2.634h-2.634z M0.0 63.22h2.634v2.634h-2.634z M5.268 63.22h5.268v2.634h-5.268z M15.805 63.22h2.634v2.634h-2.634z M21.073 63.22h2.634v2.634h-2.634z M26.341 63.22h5.268v2.634h-5.268z M36.878 63.22h5.268v2.634h-5.268z M52.683 63.22h2.634v2.634h-2.634z M60.585 63.22h5.268v2.634h-5.268z M73.756 63.22h2.634v2.634h-2.634z M84.293 63.22h2.634v2.634h-2.634z M89.561 63.22h2.634v2.634h-2.634z M0.0 65.854h2.634v2.634h-2.634z M7.902 65.854h2.634v2.634h-2.634z M18.439 65.854h5.268v2.634h-5.268z M28.976 65.854h13.171v2.634h-13.171z M47.415 65.854h2.634v2.634h-2.634z M60.585 65.854h2.634v2.634h-2.634z M71.122 65.854h2.634v2.634h-2.634z M79.024 65.854h2.634v2.634h-2.634z M84.293 65.854h5.268v2.634h-5.268z M92.195 65.854h5.268v2.634h-5.268z M100.098 65.854h2.634v2.634h-2.634z M105.366 65.854h2.634v2.634h-2.634z M2.634 68.488h7.902v2.634h-7.902z M13.171 68.488h5.268v2.634h-5.268z M21.073 68.488h2.634v2.634h-2.634z M31.61 68.488h2.634v2.634h-2.634z M42.146 68.488h2.634v2.634h-2.634z M50.049 68.488h7.902v2.634h-7.902z M68.488 68.488h18.439v2.634h-18.439z M89.561 68.488h2.634v2.634h-2.634z M94.829 68.488h5.268v2.634h-5.268z M105.366 68.488h2.634v2.634h-2.634z M5.268 71.122h10.537v2.634h-10.537z M18.439 71.122h2.634v2.634h-2.634z M23.707 71.122h5.268v2.634h-5.268z M36.878 71.122h2.634v2.634h-2.634z M50.049 71.122h2.634v2.634h-2.634z M60.585 71.122h2.634v2.634h-2.634z M73.756 71.122h2.634v2.634h-2.634z M79.024 71.122h5.268v2.634h-5.268z M86.927 71.122h18.439v2.634h-18.439z M0.0 73.756h2.634v2.634h-2.634z M10.537 73.756h2.634v2.634h-2.634z M15.805 73.756h2.634v2.634h-2.634z M28.976 73.756h2.634v2.634h-2.634z M34.244 73.756h7.902v2.634h-7.902z M50.049 73.756h5.268v2.634h-5.268z M57.951 73.756h2.634v2.634h-2.634z M65.854 73.756h5.268v2.634h-5.268z M79.024 73.756h7.902v2.634h-7.902z M97.463 73.756h2.634v2.634h-2.634z M102.732 73.756h2.634v2.634h-2.634z M0.0 76.39h2.634v2.634h-2.634z M10.537 76.39h2.634v2.634h-2.634z M36.878 76.39h2.634v2.634h-2.634z M47.415 76.39h2.634v2.634h-2.634z M52.683 76.39h2.634v2.634h-2.634z M57.951 76.39h7.902v2.634h-7.902z M68.488 76.39h5.268v2.634h-5.268z M84.293 76.39h7.902v2.634h-7.902z M94.829 76.39h2.634v2.634h-2.634z M102.732 76.39h2.634v2.634h-2.634z M0.0 79.024h10.537v2.634h-10.537z M13.171 79.024h5.268v2.634h-5.268z M21.073 79.024h2.634v2.634h-2.634z M26.341 79.024h5.268v2.634h-5.268z M39.512 79.024h5.268v2.634h-5.268z M52.683 79.024h10.537v2.634h-10.537z M71.122 79.024h2.634v2.634h-2.634z M76.39 79.024h2.634v2.634h-2.634z M81.659 79.024h2.634v2.634h-2.634z M86.927 79.024h2.634v2.634h-2.634z M97.463 79.024h5.268v2.634h-5.268z M105.366 79.024h2.634v2.634h-2.634z M0.0 81.659h13.171v2.634h-13.171z M21.073 81.659h2.634v2.634h-2.634z M26.341 81.659h2.634v2.634h-2.634z M34.244 81.659h2.634v2.634h-2.634z M39.512 81.659h5.268v2.634h-5.268z M47.415 81.659h2.634v2.634h-2.634z M57.951 81.659h2.634v2.634h-2.634z M63.22 81.659h5.268v2.634h-5.268z M71.122 81.659h5.268v2.634h-5.268z M79.024 81.659h2.634v2.634h-2.634z M89.561 81.659h5.268v2.634h-5.268z M100.098 81.659h7.902v2.634h-7.902z M0.0 84.293h5.268v2.634h-5.268z M7.902 84.293h5.268v2.634h-5.268z M15.805 84.293h2.634v2.634h-2.634z M21.073 84.293h7.902v2.634h-7.902z M34.244 84.293h5.268v2.634h-5.268z M44.78 84.293h2.634v2.634h-2.634z M52.683 84.293h5.268v2.634h-5.268z M68.488 84.293h2.634v2.634h-2.634z M76.39 84.293h2.634v2.634h-2.634z M84.293 84.293h23.707v2.634h-23.707z M21.073 86.927h2.634v2.634h-2.634z M26.341 86.927h7.902v2.634h-7.902z M36.878 86.927h5.268v2.634h-5.268z M44.78 86.927h2.634v2.634h-2.634z M57.951 86.927h5.268v2.634h-5.268z M65.854 86.927h5.268v2.634h-5.268z M84.293 86.927h2.634v2.634h-2.634z M94.829 86.927h2.634v2.634h-2.634z M0.0 89.561h18.439v2.634h-18.439z M21.073 89.561h7.902v2.634h-7.902z M31.61 89.561h7.902v2.634h-7.902z M55.317 89.561h2.634v2.634h-2.634z M60.585 89.561h2.634v2.634h-2.634z M65.854 89.561h2.634v2.634h-2.634z M71.122 89.561h5.268v2.634h-5.268z M79.024 89.561h7.902v2.634h-7.902z M89.561 89.561h2.634v2.634h-2.634z M94.829 89.561h7.902v2.634h-7.902z M0.0 92.195h2.634v2.634h-2.634z M15.805 92.195h2.634v2.634h-2.634z M21.073 92.195h2.634v2.634h-2.634z M36.878 92.195h5.268v2.634h-5.268z M47.415 92.195h2.634v2.634h-2.634z M60.585 92.195h2.634v2.634h-2.634z M65.854 92.195h2.634v2.634h-2.634z M73.756 92.195h5.268v2.634h-5.268z M81.659 92.195h5.268v2.634h-5.268z M94.829 92.195h5.268v2.634h-5.268z M102.732 92.195h2.634v2.634h-2.634z M0.0 94.829h2.634v2.634h-2.634z M5.268 94.829h7.902v2.634h-7.902z M15.805 94.829h2.634v2.634h-2.634z M21.073 94.829h2.634v2.634h-2.634z M26.341 94.829h5.268v2.634h-5.268z M36.878 94.829h2.634v2.634h-2.634z M42.146 94.829h5.268v2.634h-5.268z M52.683 94.829h10.537v2.634h-10.537z M65.854 94.829h2.634v2.634h-2.634z M73.756 94.829h2.634v2.634h-2.634z M81.659 94.829h15.805v2.634h-15.805z M0.0 97.463h2.634v2.634h-2.634z M5.268 97.463h7.902v2.634h-7.902z M15.805 97.463h2.634v2.634h-2.634z M21.073 97.463h7.902v2.634h-7.902z M31.61 97.463h7.902v2.634h-7.902z M47.415 97.463h2.634v2.634h-2.634z M57.951 97.463h15.805v2.634h-15.805z M79.024 97.463h2.634v2.634h-2.634z M92.195 97.463h2.634v2.634h-2.634z M100.098 97.463h5.268v2.634h-5.268z M0.0 100.098h2.634v2.634h-2.634z M5.268 100.098h7.902v2.634h-7.902z M15.805 100.098h2.634v2.634h-2.634z M23.707 100.098h5.268v2.634h-5.268z M36.878 100.098h7.902v2.634h-7.902z M50.049 100.098h5.268v2.634h-5.268z M63.22 100.098h2.634v2.634h-2.634z M68.488 100.098h13.171v2.634h-13.171z M86.927 100.098h2.634v2.634h-2.634z M92.195 100.098h5.268v2.634h-5.268z M100.098 100.098h2.634v2.634h-2.634z M105.366 100.098h2.634v2.634h-2.634z M0.0 102.732h2.634v2.634h-2.634z M15.805 102.732h2.634v2.634h-2.634z M26.341 102.732h2.634v2.634h-2.634z M31.61 102.732h5.268v2.634h-5.268z M39.512 102.732h5.268v2.634h-5.268z M50.049 102.732h5.268v2.634h-5.268z M63.22 102.732h2.634v2.634h-2.634z M71.122 102.732h2.634v2.634h-2.634z M89.561 102.732h2.634v2.634h-2.634z M94.829 102.732h7.902v2.634h-7.902z M105.366 102.732h2.634v2.634h-2.634z M0.0 105.366h18.439v2.634h-18.439z M21.073 105.366h2.634v2.634h-2.634z M26.341 105.366h2.634v2.634h-2.634z M36.878 105.366h2.634v2.634h-2.634z M42.146 105.366h2.634v2.634h-2.634z M52.683 105.366h2.634v2.634h-2.634z M57.951 105.366h10.537v2.634h-10.537z M71.122 105.366h2.634v2.634h-2.634z M84.293 105.366h2.634v2.634h-2.634z M89.561 105.366h2.634v2.634h-2.634z M94.829 105.366h2.634v2.634h-2.634z"/>
</g>
<text x="1134" y="486" font-family="Inter, Helvetica, Arial, sans-serif" font-size="10" font-weight="700" fill="#F5F7FA" text-anchor="middle">scan / full post</text>
</svg>
