<svg xmlns="http://www.w3.org/2000/svg" viewBox="0 0 1200 630" width="1200" height="630" role="img" aria-label="AWS IAM Zero Trust, GCP Workload Identity Federation, FinOps Spot 72%">
<title>2026-03-27: AWS IAM ZT, GCP WIF, FinOps Spot 72% savings</title>
<defs>
<linearGradient id="bgSpreadMA13" x1="0%" y1="0%" x2="100%" y2="100%"><stop offset="0%" stop-color="#0A1226"/><stop offset="50%" stop-color="#0C1430"/><stop offset="100%" stop-color="#131038"/></linearGradient>
<linearGradient id="bandAMA13" x1="0%" y1="0%" x2="100%" y2="0%"><stop offset="0%" stop-color="#0A1B35"/><stop offset="100%" stop-color="#0D2040"/></linearGradient>
<linearGradient id="bandBMA13" x1="0%" y1="0%" x2="100%" y2="0%"><stop offset="0%" stop-color="#0E2038"/><stop offset="100%" stop-color="#12283F"/></linearGradient>
<linearGradient id="bandCMA13" x1="0%" y1="0%" x2="100%" y2="0%"><stop offset="0%" stop-color="#2A1A0C"/><stop offset="100%" stop-color="#1E1F0A"/></linearGradient>
<linearGradient id="streakAMA13" x1="0%" y1="0%" x2="100%" y2="0%"><stop offset="0%" stop-color="#60A5FA" stop-opacity="0"/><stop offset="50%" stop-color="#60A5FA" stop-opacity="0.85"/><stop offset="100%" stop-color="#60A5FA" stop-opacity="0"/></linearGradient>
<linearGradient id="streakBMA13" x1="0%" y1="0%" x2="100%" y2="0%"><stop offset="0%" stop-color="#4ADE80" stop-opacity="0"/><stop offset="50%" stop-color="#4ADE80" stop-opacity="0.85"/><stop offset="100%" stop-color="#4ADE80" stop-opacity="0"/></linearGradient>
<linearGradient id="streakCMA13" x1="0%" y1="0%" x2="100%" y2="0%"><stop offset="0%" stop-color="#FFB703" stop-opacity="0"/><stop offset="50%" stop-color="#FFB703" stop-opacity="0.85"/><stop offset="100%" stop-color="#FFB703" stop-opacity="0"/></linearGradient>
<radialGradient id="glowAMA13" cx="50%" cy="50%" r="50%"><stop offset="0%" stop-color="#60A5FA" stop-opacity="0.55"/><stop offset="100%" stop-color="#60A5FA" stop-opacity="0"/></radialGradient>
<radialGradient id="glowBMA13" cx="50%" cy="50%" r="50%"><stop offset="0%" stop-color="#4ADE80" stop-opacity="0.55"/><stop offset="100%" stop-color="#4ADE80" stop-opacity="0"/></radialGradient>
<radialGradient id="glowCMA13" cx="50%" cy="50%" r="50%"><stop offset="0%" stop-color="#FFB703" stop-opacity="0.55"/><stop offset="100%" stop-color="#FFB703" stop-opacity="0"/></radialGradient>
<filter id="softShadow" x="-10%" y="-10%" width="130%" height="130%"><feGaussianBlur in="SourceAlpha" stdDeviation="2.5"/><feOffset dx="1" dy="3"/><feComponentTransfer><feFuncA type="linear" slope="0.55"/></feComponentTransfer><feMerge><feMergeNode/><feMergeNode in="SourceGraphic"/></feMerge></filter>
<filter id="textShadow" x="-5%" y="-5%" width="110%" height="110%"><feGaussianBlur in="SourceAlpha" stdDeviation="1.2"/><feOffset dx="0" dy="1.5"/><feComponentTransfer><feFuncA type="linear" slope="0.85"/></feComponentTransfer><feMerge><feMergeNode/><feMergeNode in="SourceGraphic"/></feMerge></filter>
<pattern id="ledgerGrid" x="0" y="0" width="40" height="20" patternUnits="userSpaceOnUse"><path d="M0 20 L40 20" stroke="#2A3A56" stroke-width="0.4" opacity="0.5"/><path d="M40 0 L40 20" stroke="#2A3A56" stroke-width="0.4" opacity="0.5"/></pattern>
<pattern id="circuitDot" x="0" y="0" width="18" height="18" patternUnits="userSpaceOnUse"><circle cx="9" cy="9" r="0.8" fill="#3A2A4E" opacity="0.55"/></pattern>
<pattern id="hexGridMA13" x="0" y="0" width="28" height="32" patternUnits="userSpaceOnUse"><path d="M14 0 L28 8 L28 24 L14 32 L0 24 L0 8 Z" fill="none" stroke="#2A3A56" stroke-width="0.3" opacity="0.4"/></pattern>
<pattern id="radarRippleMA13" x="0" y="0" width="60" height="60" patternUnits="userSpaceOnUse"><circle cx="30" cy="30" r="14" fill="none" stroke="#2A3A56" stroke-width="0.3" opacity="0.4"/></pattern>
</defs>
<rect width="1200" height="630" fill="url(#bgSpreadMA13)"/>
<g>
  <rect x="0" y="0" width="1200" height="210" fill="url(#bandAMA13)"/>
  <rect x="0" y="0" width="1200" height="210" fill="url(#ledgerGrid)" opacity="0.6"/>
  <rect x="0" y="0" width="8" height="210" fill="#60A5FA"/>
  <g filter="url(#textShadow)">
    <text x="30" y="44" font-family="Inter, Helvetica, Arial, sans-serif" font-size="18" font-weight="700" letter-spacing="2.4" fill="#93C5FD">AWS ZERO TRUST</text>
    <text x="30" y="86" font-family="Inter, Helvetica, Arial, sans-serif" font-size="36" font-weight="800" fill="#F5F7FA">Identity Center + SCP</text>
    <text x="30" y="118" font-family="Inter, Helvetica, Arial, sans-serif" font-size="20" font-weight="600" fill="#BFDBFE">Org-wide policy mesh</text>
    <text x="30" y="146" font-family="Inter, Helvetica, Arial, sans-serif" font-size="15" font-weight="500" fill="#D0DCF0">SCP guardrails : permission boundaries : ABAC tagging : IdC SSO baseline</text>
  </g>
  <g transform="translate(640,105)">
    <circle r="80" fill="#60A5FA" fill-opacity="0.08"><animate attributeName="r" values="60;90;60" dur="3.2s" repeatCount="indefinite"/><animate attributeName="opacity" values="0.5;1;0.5" dur="3.2s" repeatCount="indefinite"/></circle>
    <circle r="32" fill="#60A5FA" stroke="#93C5FD" stroke-width="2" filter="url(#softShadow)"/>
    <text y="-2" text-anchor="middle" font-family="Inter, monospace" font-size="11" font-weight="800" fill="#FFF">AWS</text>
    <text y="12" text-anchor="middle" font-family="Inter, monospace" font-size="9" font-weight="700" fill="#93C5FD">C2 HUB</text>
    <g stroke="#60A5FA" stroke-width="1.2" stroke-opacity="0.55" stroke-dasharray="3 4" fill="none">
      <line x1="0" y1="0" x2="80" y2="-50"/><line x1="0" y1="0" x2="95" y2="-10"/><line x1="0" y1="0" x2="85" y2="30"/>
      <line x1="0" y1="0" x2="60" y2="60"/><line x1="0" y1="0" x2="-60" y2="60"/><line x1="0" y1="0" x2="-85" y2="30"/>
      <line x1="0" y1="0" x2="-95" y2="-10"/><line x1="0" y1="0" x2="-80" y2="-50"/>
      <line x1="0" y1="0" x2="-30" y2="-72"/><line x1="0" y1="0" x2="30" y2="-72"/>
    </g>
    <g fill="#93C5FD">
      <circle cx="80" cy="-50" r="5"><animate attributeName="opacity" values="0.3;1;0.3" dur="2.1s" repeatCount="indefinite"/></circle>
      <circle cx="95" cy="-10" r="5"><animate attributeName="opacity" values="0.3;1;0.3" dur="1.9s" repeatCount="indefinite"/></circle>
      <circle cx="85" cy="30" r="5"><animate attributeName="opacity" values="0.3;1;0.3" dur="2.4s" repeatCount="indefinite"/></circle>
      <circle cx="60" cy="60" r="5"><animate attributeName="opacity" values="0.3;1;0.3" dur="2.0s" repeatCount="indefinite"/></circle>
      <circle cx="-60" cy="60" r="5"><animate attributeName="opacity" values="0.3;1;0.3" dur="2.3s" repeatCount="indefinite"/></circle>
      <circle cx="-85" cy="30" r="5"><animate attributeName="opacity" values="0.3;1;0.3" dur="2.5s" repeatCount="indefinite"/></circle>
      <circle cx="-95" cy="-10" r="5"><animate attributeName="opacity" values="0.3;1;0.3" dur="1.7s" repeatCount="indefinite"/></circle>
      <circle cx="-80" cy="-50" r="5"><animate attributeName="opacity" values="0.3;1;0.3" dur="2.6s" repeatCount="indefinite"/></circle>
      <circle cx="-30" cy="-72" r="5"><animate attributeName="opacity" values="0.3;1;0.3" dur="1.8s" repeatCount="indefinite"/></circle>
      <circle cx="30" cy="-72" r="5"><animate attributeName="opacity" values="0.3;1;0.3" dur="2.7s" repeatCount="indefinite"/></circle>
    </g>
    <g fill="#FFF">
      <circle r="2"><animateMotion path="M0 0 L80 -50" dur="1.9s" repeatCount="indefinite"/></circle>
      <circle r="2"><animateMotion path="M0 0 L95 -10" dur="2.0s" repeatCount="indefinite"/></circle>
      <circle r="2"><animateMotion path="M0 0 L85 30" dur="2.2s" repeatCount="indefinite"/></circle>
      <circle r="2"><animateMotion path="M0 0 L-60 60" dur="2.3s" repeatCount="indefinite"/></circle>
      <circle r="2"><animateMotion path="M0 0 L-95 -10" dur="2.4s" repeatCount="indefinite"/></circle>
      <circle r="2"><animateMotion path="M0 0 L30 -72" dur="2.1s" repeatCount="indefinite"/></circle>
    </g>
  </g>
  <g transform="translate(870,105)" filter="url(#softShadow)">
    <rect x="-50" y="-48" width="100" height="96" rx="10" fill="#0A1628" stroke="#60A5FA" stroke-width="1.6" stroke-opacity="0.75"/>
    <text x="0" y="-26" text-anchor="middle" font-family="Inter, Helvetica, Arial, sans-serif" font-size="10" font-weight="700" letter-spacing="1.4" fill="#93C5FD">MODEL</text>
    <text x="0" y="14" text-anchor="middle" font-family="Inter, Helvetica, Arial, sans-serif" font-size="34" font-weight="900" fill="#F5F7FA">ABAC</text>
    <text x="0" y="34" text-anchor="middle" font-family="Inter, Helvetica, Arial, sans-serif" font-size="10" font-weight="600" fill="#BFDBFE">tag-based</text>
  </g>
  <g transform="translate(990,105)" filter="url(#softShadow)">
    <rect x="-80" y="-65" width="180" height="125" rx="14" fill="#0A1628" stroke="#60A5FA" stroke-width="2.2"/>
    <text x="10" y="-38" text-anchor="middle" font-family="Inter, Helvetica, Arial, sans-serif" font-size="13" font-weight="700" letter-spacing="2" fill="#93C5FD">MESH</text>
    <text x="10" y="22" text-anchor="middle" font-family="Inter, Helvetica, Arial, sans-serif" font-size="72" font-weight="900" fill="#F5F7FA">SCP</text>
    <text x="10" y="44" text-anchor="middle" font-family="Inter, Helvetica, Arial, sans-serif" font-size="11" font-weight="600" fill="#BFDBFE">org-wide</text>
    <line x1="-58" y1="50" x2="78" y2="50" stroke="#60A5FA" stroke-width="0.8" stroke-opacity="0.5"/>
    
  </g>
  <g transform="translate(990,105)">
    <circle cx="10" cy="-50" r="3" fill="#60A5FA"><animate attributeName="opacity" values="0.2;1;0.2" dur="1.8s" repeatCount="indefinite"/></circle>
    <circle cx="-58" cy="-50" r="2" fill="#93C5FD"><animate attributeName="opacity" values="0.8;0.2;0.8" dur="2.2s" repeatCount="indefinite"/></circle>
    <circle cx="78" cy="-50" r="2" fill="#93C5FD"><animate attributeName="opacity" values="0.2;0.9;0.2" dur="2.4s" repeatCount="indefinite"/></circle>
  </g>
</g>
<g>
  <rect x="0" y="210" width="1200" height="210" fill="url(#bandBMA13)"/>
  <rect x="0" y="210" width="1200" height="210" fill="url(#ledgerGrid)" opacity="0.6"/>
  <rect x="0" y="210" width="8" height="210" fill="#4ADE80"/>
  <g filter="url(#textShadow)">
    <text x="30" y="254" font-family="Inter, Helvetica, Arial, sans-serif" font-size="18" font-weight="700" letter-spacing="2.4" fill="#4ADE80">GCP IDENTITY FED</text>
    <text x="30" y="296" font-family="Inter, Helvetica, Arial, sans-serif" font-size="36" font-weight="800" fill="#F5F7FA">Workload Identity Fed</text>
    <text x="30" y="328" font-family="Inter, Helvetica, Arial, sans-serif" font-size="20" font-weight="600" fill="#9FD3B0">Cross-cloud IAM</text>
    <text x="30" y="356" font-family="Inter, Helvetica, Arial, sans-serif" font-size="15" font-weight="500" fill="#BFC9D9">STS exchange : OIDC trust : GitHub Actions to GCP : keyless deploy</text>
  </g>
  <g transform="translate(640,315)">
    <circle r="80" fill="#4ADE80" fill-opacity="0.06"><animate attributeName="r" values="64;86;64" dur="3.4s" repeatCount="indefinite"/></circle>
    <path d="M-60 0 Q-70 -25 -45 -30 Q-40 -50 -10 -45 Q10 -60 30 -45 Q55 -50 60 -20 Q80 -15 70 10 Q65 25 40 25 L-40 25 Q-70 25 -60 0 Z" fill="#4ADE80" fill-opacity="0.12" stroke="#4ADE80" stroke-width="1.8"/>
    <g fill="#4ADE80" stroke="#86EFAC" stroke-width="1.2">
      <polygon points="-30,-10 -18,-17 -6,-10 -6,4 -18,11 -30,4"/>
      <polygon points="0,-10 12,-17 24,-10 24,4 12,11 0,4"/>
      <polygon points="-15,10 -3,3 9,10 9,24 -3,31 -15,24"/>
    </g>
    <g fill="#86EFAC">
      <circle cx="-18" cy="-3" r="2.4"><animate attributeName="opacity" values="0.4;1;0.4" dur="1.8s" repeatCount="indefinite"/></circle>
      <circle cx="12" cy="-3" r="2.4"><animate attributeName="opacity" values="0.4;1;0.4" dur="2.0s" repeatCount="indefinite"/></circle>
      <circle cx="-3" cy="17" r="2.4"><animate attributeName="opacity" values="0.4;1;0.4" dur="2.2s" repeatCount="indefinite"/></circle>
    </g>
    <g fill="#FFF">
      <circle r="1.6"><animateMotion path="M-18 -3 L12 -3" dur="2.4s" repeatCount="indefinite"/></circle>
      <circle r="1.6"><animateMotion path="M12 -3 L-3 17" dur="2.2s" repeatCount="indefinite"/></circle>
      <circle r="1.6"><animateMotion path="M-3 17 L-18 -3" dur="2.6s" repeatCount="indefinite"/></circle>
    </g>
    <g fill="#86EFAC" opacity="0.6">
      <circle cx="-50" cy="-38" r="1.8"><animate attributeName="opacity" values="0.3;1;0.3" dur="1.6s" repeatCount="indefinite"/></circle>
      <circle cx="50" cy="-38" r="1.8"><animate attributeName="opacity" values="0.3;1;0.3" dur="2.0s" repeatCount="indefinite"/></circle>
    </g>
    <text y="60" text-anchor="middle" font-family="Inter, monospace" font-size="10" font-weight="800" fill="#4ADE80">K8s CLOUD</text>
  </g>
  <g transform="translate(870,315)" filter="url(#softShadow)">
    <rect x="-50" y="-48" width="100" height="96" rx="10" fill="#0A1B2E" stroke="#4ADE80" stroke-width="1.6" stroke-opacity="0.75"/>
    <text x="0" y="-26" text-anchor="middle" font-family="Inter, Helvetica, Arial, sans-serif" font-size="10" font-weight="700" letter-spacing="1.4" fill="#4ADE80">TRUST</text>
    <text x="0" y="14" text-anchor="middle" font-family="Inter, Helvetica, Arial, sans-serif" font-size="34" font-weight="900" fill="#F5F7FA">OIDC</text>
    <text x="0" y="34" text-anchor="middle" font-family="Inter, Helvetica, Arial, sans-serif" font-size="10" font-weight="600" fill="#9FD3B0">STS exchange</text>
  </g>
  <g transform="translate(990,315)" filter="url(#softShadow)">
    <rect x="-80" y="-65" width="180" height="125" rx="14" fill="#0A1B2E" stroke="#4ADE80" stroke-width="2.2"/>
    <text x="10" y="-38" text-anchor="middle" font-family="Inter, Helvetica, Arial, sans-serif" font-size="13" font-weight="700" letter-spacing="2" fill="#4ADE80">GCP</text>
    <text x="10" y="22" text-anchor="middle" font-family="Inter, Helvetica, Arial, sans-serif" font-size="72" font-weight="900" fill="#F5F7FA">WIF</text>
    <text x="10" y="44" text-anchor="middle" font-family="Inter, Helvetica, Arial, sans-serif" font-size="11" font-weight="600" fill="#9FD3B0">federated</text>
    <line x1="-58" y1="50" x2="78" y2="50" stroke="#4ADE80" stroke-width="0.8" stroke-opacity="0.5"/>
    
  </g>
  <g transform="translate(990,315)">
    <circle cx="10" cy="-50" r="3" fill="#4ADE80"><animate attributeName="opacity" values="0.2;1;0.2" dur="1.8s" repeatCount="indefinite"/></circle>
    <circle cx="-58" cy="-50" r="2" fill="#86EFAC"><animate attributeName="opacity" values="0.8;0.2;0.8" dur="2.2s" repeatCount="indefinite"/></circle>
    <circle cx="78" cy="-50" r="2" fill="#86EFAC"><animate attributeName="opacity" values="0.2;0.9;0.2" dur="2.4s" repeatCount="indefinite"/></circle>
  </g>
</g>
<g>
  <rect x="0" y="420" width="1200" height="210" fill="url(#bandCMA13)"/>
  <rect x="0" y="420" width="1200" height="210" fill="url(#ledgerGrid)" opacity="0.6"/>
  <rect x="0" y="420" width="8" height="210" fill="#FFB703"/>
  <g filter="url(#textShadow)">
    <text x="30" y="464" font-family="Inter, Helvetica, Arial, sans-serif" font-size="18" font-weight="700" letter-spacing="2.4" fill="#FFB703">FINOPS + IaC</text>
    <text x="30" y="506" font-family="Inter, Helvetica, Arial, sans-serif" font-size="36" font-weight="800" fill="#F5F7FA">Spot Save + SAST</text>
    <text x="30" y="538" font-family="Inter, Helvetica, Arial, sans-serif" font-size="20" font-weight="600" fill="#FFD58A">72% cost cut + IaC scan</text>
    <text x="30" y="566" font-family="Inter, Helvetica, Arial, sans-serif" font-size="15" font-weight="500" fill="#E0D5B6">Karpenter + Spot : 72% off OnDemand : Checkov / tfsec gate in CI</text>
  </g>
  <g transform="translate(640,525)">
    <g stroke="#FFB703" stroke-width="0.4" stroke-opacity="0.3">
      <line x1="-90" y1="-50" x2="100" y2="-50"/><line x1="-90" y1="-25" x2="100" y2="-25"/>
      <line x1="-90" y1="0" x2="100" y2="0"/><line x1="-90" y1="20" x2="100" y2="20"/>
    </g>
    <line x1="-85" y1="40" x2="100" y2="40" stroke="#FFB703" stroke-width="1" opacity="0.6"/>
    <rect x="-75" y="10" width="20" height="30" rx="2" fill="#FFB703" opacity="0.5"><animate attributeName="height" values="20;30;20" dur="1.6s" repeatCount="indefinite"/><animate attributeName="y" values="20;10;20" dur="1.6s" repeatCount="indefinite"/></rect><rect x="-47" y="-15" width="20" height="55" rx="2" fill="#FFB703" opacity="0.58"><animate attributeName="height" values="45;55;45" dur="1.8s" repeatCount="indefinite"/><animate attributeName="y" values="-5;-15;-5" dur="1.8s" repeatCount="indefinite"/></rect><rect x="-19" y="0" width="20" height="40" rx="2" fill="#FFB703" opacity="0.66"><animate attributeName="height" values="30;40;30" dur="2.0s" repeatCount="indefinite"/><animate attributeName="y" values="10;0;10" dur="2.0s" repeatCount="indefinite"/></rect><rect x="9" y="-30" width="20" height="70" rx="2" fill="#FFB703" opacity="0.74"><animate attributeName="height" values="60;70;60" dur="2.2s" repeatCount="indefinite"/><animate attributeName="y" values="-20;-30;-20" dur="2.2s" repeatCount="indefinite"/></rect><rect x="37" y="-45" width="20" height="85" rx="2" fill="#FFB703" opacity="0.8200000000000001"><animate attributeName="height" values="75;85;75" dur="2.4000000000000004s" repeatCount="indefinite"/><animate attributeName="y" values="-35;-45;-35" dur="2.4000000000000004s" repeatCount="indefinite"/></rect><rect x="65" y="-22" width="20" height="62" rx="2" fill="#FFB703" opacity="0.9"><animate attributeName="height" values="52;62;52" dur="2.6s" repeatCount="indefinite"/><animate attributeName="y" values="-12;-22;-12" dur="2.6s" repeatCount="indefinite"/></rect>
    <path d="M-78 -8 L-50 -22 L-22 -18 L6 -38 L34 -52 L62 -64" stroke="#FCD34D" stroke-width="1.6" fill="none" stroke-opacity="0.7" stroke-dasharray="3 3">
      <animate attributeName="stroke-dashoffset" values="0;-12" dur="1.6s" repeatCount="indefinite"/>
    </path>
    <polygon points="62,-64 70,-58 64,-50" fill="#FCD34D"/>
    <g fill="#FCD34D" opacity="0.75">
      <circle cx="-90" cy="-50" r="1.5"/><circle cx="-90" cy="-25" r="1.5"/><circle cx="-90" cy="0" r="1.5"/>
    </g>
    <text y="58" text-anchor="middle" font-family="Inter, monospace" font-size="10" font-weight="800" fill="#FCD34D">SPOT</text>
  </g>
  <g transform="translate(870,525)" filter="url(#softShadow)">
    <rect x="-50" y="-48" width="100" height="96" rx="10" fill="#1E1805" stroke="#FFB703" stroke-width="1.6" stroke-opacity="0.75"/>
    <text x="0" y="-26" text-anchor="middle" font-family="Inter, Helvetica, Arial, sans-serif" font-size="10" font-weight="700" letter-spacing="1.4" fill="#FFB703">GATE</text>
    <text x="0" y="14" text-anchor="middle" font-family="Inter, Helvetica, Arial, sans-serif" font-size="34" font-weight="900" fill="#F5F7FA">CI</text>
    <text x="0" y="34" text-anchor="middle" font-family="Inter, Helvetica, Arial, sans-serif" font-size="10" font-weight="600" fill="#FFD58A">Checkov + tfsec</text>
  </g>
  <g transform="translate(990,525)" filter="url(#softShadow)">
    <rect x="-80" y="-65" width="180" height="125" rx="14" fill="#1E1805" stroke="#FFB703" stroke-width="2.2"/>
    <text x="10" y="-38" text-anchor="middle" font-family="Inter, Helvetica, Arial, sans-serif" font-size="13" font-weight="700" letter-spacing="2" fill="#FFB703">SPOT</text>
    <text x="10" y="22" text-anchor="middle" font-family="Inter, Helvetica, Arial, sans-serif" font-size="72" font-weight="900" fill="#F5F7FA">72%</text>
    <text x="10" y="44" text-anchor="middle" font-family="Inter, Helvetica, Arial, sans-serif" font-size="11" font-weight="600" fill="#FFD58A">savings</text>
    <line x1="-58" y1="50" x2="78" y2="50" stroke="#FFB703" stroke-width="0.8" stroke-opacity="0.5"/>
    
  </g>
  <g transform="translate(990,525)">
    <circle cx="10" cy="-50" r="3" fill="#FFB703"><animate attributeName="opacity" values="0.2;1;0.2" dur="1.8s" repeatCount="indefinite"/></circle>
    <circle cx="-58" cy="-50" r="2" fill="#FCD34D"><animate attributeName="opacity" values="0.8;0.2;0.8" dur="2.2s" repeatCount="indefinite"/></circle>
    <circle cx="78" cy="-50" r="2" fill="#FCD34D"><animate attributeName="opacity" values="0.2;0.9;0.2" dur="2.4s" repeatCount="indefinite"/></circle>
  </g>
</g>
<g opacity="0.9">
  <g fill="#60A5FA">
    <circle cx="240" cy="63" r="1.5"><animate attributeName="opacity" values="0;1;0" dur="1.8s" repeatCount="indefinite"/></circle>
    <circle cx="290" cy="63" r="1.5"><animate attributeName="opacity" values="0;1;0" dur="1.6s" begin="0.2s" repeatCount="indefinite"/></circle>
    <circle cx="340" cy="63" r="1.5"><animate attributeName="opacity" values="0;1;0" dur="2.0s" begin="0.4s" repeatCount="indefinite"/></circle>
    <circle cx="390" cy="63" r="1.5"><animate attributeName="opacity" values="0;1;0" dur="1.7s" begin="0.6s" repeatCount="indefinite"/></circle>
    <circle cx="440" cy="63" r="1.5"><animate attributeName="opacity" values="0;1;0" dur="1.9s" begin="0.8s" repeatCount="indefinite"/></circle>
    <circle cx="780" cy="55" r="1.4"><animate attributeName="opacity" values="0;1;0" dur="1.6s" repeatCount="indefinite"/></circle>
    <circle cx="820" cy="55" r="1.4"><animate attributeName="opacity" values="0;1;0" dur="2.0s" begin="0.3s" repeatCount="indefinite"/></circle>
    <circle cx="860" cy="55" r="1.4"><animate attributeName="opacity" values="0;1;0" dur="1.8s" begin="0.6s" repeatCount="indefinite"/></circle>
    <circle cx="240" cy="147" r="1.3"><animate attributeName="opacity" values="0;1;0" dur="1.7s" begin="0.4s" repeatCount="indefinite"/></circle>
    <circle cx="320" cy="147" r="1.3"><animate attributeName="opacity" values="0;1;0" dur="1.9s" begin="0.7s" repeatCount="indefinite"/></circle>
  </g>
  <g fill="#60A5FA" opacity="0.6">
    <rect x="780" y="27" width="6" height="2"><animate attributeName="opacity" values="0.2;1;0.2" dur="1.4s" repeatCount="indefinite"/></rect>
    <rect x="800" y="27" width="6" height="2"><animate attributeName="opacity" values="0.2;1;0.2" dur="1.2s" begin="0.3s" repeatCount="indefinite"/></rect>
    <rect x="820" y="27" width="6" height="2"><animate attributeName="opacity" values="0.2;1;0.2" dur="1.6s" begin="0.6s" repeatCount="indefinite"/></rect>
    <rect x="840" y="27" width="6" height="2"><animate attributeName="opacity" values="0.2;1;0.2" dur="1.3s" begin="0.9s" repeatCount="indefinite"/></rect>
  </g>
  <g fill="#93C5FD" opacity="0.85">
    <rect x="730" y="165" width="3" height="3" rx="0.6"><animate attributeName="opacity" values="0.3;1;0.3" dur="1.4s" repeatCount="indefinite"/></rect>
    <rect x="746" y="165" width="3" height="3" rx="0.6"><animate attributeName="opacity" values="0.3;1;0.3" dur="1.2s" begin="0.3s" repeatCount="indefinite"/></rect>
    <rect x="762" y="165" width="3" height="3" rx="0.6"><animate attributeName="opacity" values="0.3;1;0.3" dur="1.6s" begin="0.6s" repeatCount="indefinite"/></rect>
  </g>
  <g stroke="#60A5FA" stroke-width="0.5" stroke-opacity="0.35" fill="none">
    <path d="M20 95 L28 95"><animate attributeName="stroke-opacity" values="0;0.7;0" dur="2s" repeatCount="indefinite"/></path>
    <path d="M20 125 L28 125"><animate attributeName="stroke-opacity" values="0;0.7;0" dur="2.2s" begin="0.3s" repeatCount="indefinite"/></path>
    <path d="M20 155 L28 155"><animate attributeName="stroke-opacity" values="0;0.7;0" dur="1.8s" begin="0.6s" repeatCount="indefinite"/></path>
  </g>
  <g stroke="#93C5FD" stroke-width="0.6" stroke-opacity="0.3" fill="none">
    <circle cx="500" cy="105" r="100"><animate attributeName="r" values="80;120;80" dur="4s" repeatCount="indefinite"/><animate attributeName="stroke-opacity" values="0.4;0;0.4" dur="4s" repeatCount="indefinite"/></circle>
  </g>
  <g fill="#4ADE80">
    <circle cx="240" cy="273" r="1.5"><animate attributeName="opacity" values="0;1;0" dur="1.8s" repeatCount="indefinite"/></circle>
    <circle cx="290" cy="273" r="1.5"><animate attributeName="opacity" values="0;1;0" dur="1.6s" begin="0.2s" repeatCount="indefinite"/></circle>
    <circle cx="340" cy="273" r="1.5"><animate attributeName="opacity" values="0;1;0" dur="2.0s" begin="0.4s" repeatCount="indefinite"/></circle>
    <circle cx="390" cy="273" r="1.5"><animate attributeName="opacity" values="0;1;0" dur="1.7s" begin="0.6s" repeatCount="indefinite"/></circle>
    <circle cx="440" cy="273" r="1.5"><animate attributeName="opacity" values="0;1;0" dur="1.9s" begin="0.8s" repeatCount="indefinite"/></circle>
    <circle cx="780" cy="265" r="1.4"><animate attributeName="opacity" values="0;1;0" dur="1.6s" repeatCount="indefinite"/></circle>
    <circle cx="820" cy="265" r="1.4"><animate attributeName="opacity" values="0;1;0" dur="2.0s" begin="0.3s" repeatCount="indefinite"/></circle>
    <circle cx="860" cy="265" r="1.4"><animate attributeName="opacity" values="0;1;0" dur="1.8s" begin="0.6s" repeatCount="indefinite"/></circle>
    <circle cx="240" cy="357" r="1.3"><animate attributeName="opacity" values="0;1;0" dur="1.7s" begin="0.4s" repeatCount="indefinite"/></circle>
    <circle cx="320" cy="357" r="1.3"><animate attributeName="opacity" values="0;1;0" dur="1.9s" begin="0.7s" repeatCount="indefinite"/></circle>
  </g>
  <g fill="#4ADE80" opacity="0.6">
    <rect x="780" y="237" width="6" height="2"><animate attributeName="opacity" values="0.2;1;0.2" dur="1.4s" repeatCount="indefinite"/></rect>
    <rect x="800" y="237" width="6" height="2"><animate attributeName="opacity" values="0.2;1;0.2" dur="1.2s" begin="0.3s" repeatCount="indefinite"/></rect>
    <rect x="820" y="237" width="6" height="2"><animate attributeName="opacity" values="0.2;1;0.2" dur="1.6s" begin="0.6s" repeatCount="indefinite"/></rect>
    <rect x="840" y="237" width="6" height="2"><animate attributeName="opacity" values="0.2;1;0.2" dur="1.3s" begin="0.9s" repeatCount="indefinite"/></rect>
  </g>
  <g fill="#86EFAC" opacity="0.85">
    <rect x="730" y="375" width="3" height="3" rx="0.6"><animate attributeName="opacity" values="0.3;1;0.3" dur="1.4s" repeatCount="indefinite"/></rect>
    <rect x="746" y="375" width="3" height="3" rx="0.6"><animate attributeName="opacity" values="0.3;1;0.3" dur="1.2s" begin="0.3s" repeatCount="indefinite"/></rect>
    <rect x="762" y="375" width="3" height="3" rx="0.6"><animate attributeName="opacity" values="0.3;1;0.3" dur="1.6s" begin="0.6s" repeatCount="indefinite"/></rect>
  </g>
  <g stroke="#4ADE80" stroke-width="0.5" stroke-opacity="0.35" fill="none">
    <path d="M20 305 L28 305"><animate attributeName="stroke-opacity" values="0;0.7;0" dur="2s" repeatCount="indefinite"/></path>
    <path d="M20 335 L28 335"><animate attributeName="stroke-opacity" values="0;0.7;0" dur="2.2s" begin="0.3s" repeatCount="indefinite"/></path>
    <path d="M20 365 L28 365"><animate attributeName="stroke-opacity" values="0;0.7;0" dur="1.8s" begin="0.6s" repeatCount="indefinite"/></path>
  </g>
  <g stroke="#86EFAC" stroke-width="0.6" stroke-opacity="0.3" fill="none">
    <circle cx="500" cy="315" r="100"><animate attributeName="r" values="80;120;80" dur="4s" repeatCount="indefinite"/><animate attributeName="stroke-opacity" values="0.4;0;0.4" dur="4s" repeatCount="indefinite"/></circle>
  </g>
  <g fill="#FFB703">
    <circle cx="240" cy="483" r="1.5"><animate attributeName="opacity" values="0;1;0" dur="1.8s" repeatCount="indefinite"/></circle>
    <circle cx="290" cy="483" r="1.5"><animate attributeName="opacity" values="0;1;0" dur="1.6s" begin="0.2s" repeatCount="indefinite"/></circle>
    <circle cx="340" cy="483" r="1.5"><animate attributeName="opacity" values="0;1;0" dur="2.0s" begin="0.4s" repeatCount="indefinite"/></circle>
    <circle cx="390" cy="483" r="1.5"><animate attributeName="opacity" values="0;1;0" dur="1.7s" begin="0.6s" repeatCount="indefinite"/></circle>
    <circle cx="440" cy="483" r="1.5"><animate attributeName="opacity" values="0;1;0" dur="1.9s" begin="0.8s" repeatCount="indefinite"/></circle>
    <circle cx="780" cy="475" r="1.4"><animate attributeName="opacity" values="0;1;0" dur="1.6s" repeatCount="indefinite"/></circle>
    <circle cx="820" cy="475" r="1.4"><animate attributeName="opacity" values="0;1;0" dur="2.0s" begin="0.3s" repeatCount="indefinite"/></circle>
    <circle cx="860" cy="475" r="1.4"><animate attributeName="opacity" values="0;1;0" dur="1.8s" begin="0.6s" repeatCount="indefinite"/></circle>
    <circle cx="240" cy="567" r="1.3"><animate attributeName="opacity" values="0;1;0" dur="1.7s" begin="0.4s" repeatCount="indefinite"/></circle>
    <circle cx="320" cy="567" r="1.3"><animate attributeName="opacity" values="0;1;0" dur="1.9s" begin="0.7s" repeatCount="indefinite"/></circle>
  </g>
  <g fill="#FFB703" opacity="0.6">
    <rect x="780" y="447" width="6" height="2"><animate attributeName="opacity" values="0.2;1;0.2" dur="1.4s" repeatCount="indefinite"/></rect>
    <rect x="800" y="447" width="6" height="2"><animate attributeName="opacity" values="0.2;1;0.2" dur="1.2s" begin="0.3s" repeatCount="indefinite"/></rect>
    <rect x="820" y="447" width="6" height="2"><animate attributeName="opacity" values="0.2;1;0.2" dur="1.6s" begin="0.6s" repeatCount="indefinite"/></rect>
    <rect x="840" y="447" width="6" height="2"><animate attributeName="opacity" values="0.2;1;0.2" dur="1.3s" begin="0.9s" repeatCount="indefinite"/></rect>
  </g>
  <g fill="#FCD34D" opacity="0.85">
    <rect x="730" y="585" width="3" height="3" rx="0.6"><animate attributeName="opacity" values="0.3;1;0.3" dur="1.4s" repeatCount="indefinite"/></rect>
    <rect x="746" y="585" width="3" height="3" rx="0.6"><animate attributeName="opacity" values="0.3;1;0.3" dur="1.2s" begin="0.3s" repeatCount="indefinite"/></rect>
    <rect x="762" y="585" width="3" height="3" rx="0.6"><animate attributeName="opacity" values="0.3;1;0.3" dur="1.6s" begin="0.6s" repeatCount="indefinite"/></rect>
  </g>
  <g stroke="#FFB703" stroke-width="0.5" stroke-opacity="0.35" fill="none">
    <path d="M20 515 L28 515"><animate attributeName="stroke-opacity" values="0;0.7;0" dur="2s" repeatCount="indefinite"/></path>
    <path d="M20 545 L28 545"><animate attributeName="stroke-opacity" values="0;0.7;0" dur="2.2s" begin="0.3s" repeatCount="indefinite"/></path>
    <path d="M20 575 L28 575"><animate attributeName="stroke-opacity" values="0;0.7;0" dur="1.8s" begin="0.6s" repeatCount="indefinite"/></path>
  </g>
  <g stroke="#FCD34D" stroke-width="0.6" stroke-opacity="0.3" fill="none">
    <circle cx="500" cy="525" r="100"><animate attributeName="r" values="80;120;80" dur="4s" repeatCount="indefinite"/><animate attributeName="stroke-opacity" values="0.4;0;0.4" dur="4s" repeatCount="indefinite"/></circle>
  </g>
</g>
<g transform="translate(1080,504)" filter="url(#softShadow)">
  <rect x="-8" y="-8" width="100" height="100" rx="6" fill="#FFFFFF"/>
  <path fill="#0A1020" d="M0.0 0.0h14.341v2.049h-14.341z M20.488 0.0h4.098v2.049h-4.098z M26.634 0.0h2.049v2.049h-2.049z M30.732 0.0h12.293v2.049h-12.293z M45.073 0.0h12.293v2.049h-12.293z M61.463 0.0h4.098v2.049h-4.098z M69.659 0.0h14.341v2.049h-14.341z M0.0 2.049h2.049v2.049h-2.049z M12.293 2.049h2.049v2.049h-2.049z M20.488 2.049h2.049v2.049h-2.049z M26.634 2.049h4.098v2.049h-4.098z M32.78 2.049h2.049v2.049h-2.049z M36.878 2.049h2.049v2.049h-2.049z M40.976 2.049h8.195v2.049h-8.195z M51.22 2.049h12.293v2.049h-12.293z M65.561 2.049h2.049v2.049h-2.049z M69.659 2.049h2.049v2.049h-2.049z M81.951 2.049h2.049v2.049h-2.049z M0.0 4.098h2.049v2.049h-2.049z M4.098 4.098h6.146v2.049h-6.146z M12.293 4.098h2.049v2.049h-2.049z M20.488 4.098h2.049v2.049h-2.049z M28.683 4.098h6.146v2.049h-6.146z M36.878 4.098h6.146v2.049h-6.146z M47.122 4.098h2.049v2.049h-2.049z M53.268 4.098h2.049v2.049h-2.049z M59.415 4.098h4.098v2.049h-4.098z M65.561 4.098h2.049v2.049h-2.049z M69.659 4.098h2.049v2.049h-2.049z M73.756 4.098h6.146v2.049h-6.146z M81.951 4.098h2.049v2.049h-2.049z M0.0 6.146h2.049v2.049h-2.049z M4.098 6.146h6.146v2.049h-6.146z M12.293 6.146h2.049v2.049h-2.049z M18.439 6.146h2.049v2.049h-2.049z M22.537 6.146h4.098v2.049h-4.098z M28.683 6.146h2.049v2.049h-2.049z M32.78 6.146h6.146v2.049h-6.146z M40.976 6.146h4.098v2.049h-4.098z M47.122 6.146h4.098v2.049h-4.098z M53.268 6.146h6.146v2.049h-6.146z M63.512 6.146h4.098v2.049h-4.098z M69.659 6.146h2.049v2.049h-2.049z M73.756 6.146h6.146v2.049h-6.146z M81.951 6.146h2.049v2.049h-2.049z M0.0 8.195h2.049v2.049h-2.049z M4.098 8.195h6.146v2.049h-6.146z M12.293 8.195h2.049v2.049h-2.049z M18.439 8.195h2.049v2.049h-2.049z M34.829 8.195h6.146v2.049h-6.146z M45.073 8.195h2.049v2.049h-2.049z M51.22 8.195h2.049v2.049h-2.049z M55.317 8.195h2.049v2.049h-2.049z M61.463 8.195h2.049v2.049h-2.049z M65.561 8.195h2.049v2.049h-2.049z M69.659 8.195h2.049v2.049h-2.049z M73.756 8.195h6.146v2.049h-6.146z M81.951 8.195h2.049v2.049h-2.049z M0.0 10.244h2.049v2.049h-2.049z M12.293 10.244h2.049v2.049h-2.049z M16.39 10.244h2.049v2.049h-2.049z M26.634 10.244h2.049v2.049h-2.049z M30.732 10.244h2.049v2.049h-2.049z M34.829 10.244h6.146v2.049h-6.146z M49.171 10.244h2.049v2.049h-2.049z M53.268 10.244h4.098v2.049h-4.098z M61.463 10.244h6.146v2.049h-6.146z M69.659 10.244h2.049v2.049h-2.049z M81.951 10.244h2.049v2.049h-2.049z M0.0 12.293h14.341v2.049h-14.341z M16.39 12.293h2.049v2.049h-2.049z M20.488 12.293h2.049v2.049h-2.049z M24.585 12.293h2.049v2.049h-2.049z M28.683 12.293h2.049v2.049h-2.049z M32.78 12.293h2.049v2.049h-2.049z M36.878 12.293h2.049v2.049h-2.049z M40.976 12.293h2.049v2.049h-2.049z M45.073 12.293h2.049v2.049h-2.049z M49.171 12.293h2.049v2.049h-2.049z M53.268 12.293h2.049v2.049h-2.049z M57.366 12.293h2.049v2.049h-2.049z M61.463 12.293h2.049v2.049h-2.049z M65.561 12.293h2.049v2.049h-2.049z M69.659 12.293h14.341v2.049h-14.341z M18.439 14.341h10.244v2.049h-10.244z M30.732 14.341h6.146v2.049h-6.146z M40.976 14.341h6.146v2.049h-6.146z M49.171 14.341h2.049v2.049h-2.049z M55.317 14.341h6.146v2.049h-6.146z M63.512 14.341h2.049v2.049h-2.049z M0.0 16.39h2.049v2.049h-2.049z M6.146 16.39h2.049v2.049h-2.049z M10.244 16.39h4.098v2.049h-4.098z M16.39 16.39h2.049v2.049h-2.049z M30.732 16.39h4.098v2.049h-4.098z M38.927 16.39h2.049v2.049h-2.049z M43.024 16.39h2.049v2.049h-2.049z M51.22 16.39h4.098v2.049h-4.098z M65.561 16.39h4.098v2.049h-4.098z M71.707 16.39h2.049v2.049h-2.049z M4.098 18.439h2.049v2.049h-2.049z M10.244 18.439h2.049v2.049h-2.049z M14.341 18.439h4.098v2.049h-4.098z M24.585 18.439h6.146v2.049h-6.146z M32.78 18.439h4.098v2.049h-4.098z M43.024 18.439h2.049v2.049h-2.049z M49.171 18.439h6.146v2.049h-6.146z M59.415 18.439h2.049v2.049h-2.049z M65.561 18.439h8.195v2.049h-8.195z M75.805 18.439h4.098v2.049h-4.098z M81.951 18.439h2.049v2.049h-2.049z M6.146 20.488h4.098v2.049h-4.098z M12.293 20.488h2.049v2.049h-2.049z M16.39 20.488h2.049v2.049h-2.049z M26.634 20.488h16.39v2.049h-16.39z M45.073 20.488h2.049v2.049h-2.049z M49.171 20.488h2.049v2.049h-2.049z M53.268 20.488h2.049v2.049h-2.049z M61.463 20.488h4.098v2.049h-4.098z M71.707 20.488h10.244v2.049h-10.244z M2.049 22.537h2.049v2.049h-2.049z M6.146 22.537h2.049v2.049h-2.049z M10.244 22.537h2.049v2.049h-2.049z M14.341 22.537h2.049v2.049h-2.049z M18.439 22.537h2.049v2.049h-2.049z M22.537 22.537h4.098v2.049h-4.098z M32.78 22.537h2.049v2.049h-2.049z M36.878 22.537h2.049v2.049h-2.049z M43.024 22.537h2.049v2.049h-2.049z M49.171 22.537h4.098v2.049h-4.098z M57.366 22.537h2.049v2.049h-2.049z M69.659 22.537h2.049v2.049h-2.049z M73.756 22.537h2.049v2.049h-2.049z M77.854 22.537h2.049v2.049h-2.049z M0.0 24.585h2.049v2.049h-2.049z M6.146 24.585h4.098v2.049h-4.098z M12.293 24.585h2.049v2.049h-2.049z M16.39 24.585h2.049v2.049h-2.049z M20.488 24.585h10.244v2.049h-10.244z M34.829 24.585h2.049v2.049h-2.049z M38.927 24.585h2.049v2.049h-2.049z M43.024 24.585h2.049v2.049h-2.049z M49.171 24.585h24.585v2.049h-24.585z M75.805 24.585h2.049v2.049h-2.049z M79.902 24.585h4.098v2.049h-4.098z M0.0 26.634h4.098v2.049h-4.098z M6.146 26.634h6.146v2.049h-6.146z M14.341 26.634h2.049v2.049h-2.049z M18.439 26.634h4.098v2.049h-4.098z M28.683 26.634h6.146v2.049h-6.146z M45.073 26.634h8.195v2.049h-8.195z M55.317 26.634h2.049v2.049h-2.049z M61.463 26.634h8.195v2.049h-8.195z M75.805 26.634h4.098v2.049h-4.098z M2.049 28.683h4.098v2.049h-4.098z M8.195 28.683h2.049v2.049h-2.049z M12.293 28.683h2.049v2.049h-2.049z M16.39 28.683h4.098v2.049h-4.098z M24.585 28.683h6.146v2.049h-6.146z M34.829 28.683h2.049v2.049h-2.049z M40.976 28.683h2.049v2.049h-2.049z M49.171 28.683h2.049v2.049h-2.049z M57.366 28.683h2.049v2.049h-2.049z M61.463 28.683h2.049v2.049h-2.049z M65.561 28.683h2.049v2.049h-2.049z M69.659 28.683h2.049v2.049h-2.049z M75.805 28.683h8.195v2.049h-8.195z M0.0 30.732h6.146v2.049h-6.146z M8.195 30.732h2.049v2.049h-2.049z M14.341 30.732h2.049v2.049h-2.049z M20.488 30.732h2.049v2.049h-2.049z M24.585 30.732h16.39v2.049h-16.39z M43.024 30.732h4.098v2.049h-4.098z M49.171 30.732h6.146v2.049h-6.146z M57.366 30.732h10.244v2.049h-10.244z M69.659 30.732h4.098v2.049h-4.098z M0.0 32.78h6.146v2.049h-6.146z M10.244 32.78h4.098v2.049h-4.098z M16.39 32.78h2.049v2.049h-2.049z M22.537 32.78h6.146v2.049h-6.146z M38.927 32.78h4.098v2.049h-4.098z M45.073 32.78h4.098v2.049h-4.098z M55.317 32.78h2.049v2.049h-2.049z M59.415 32.78h2.049v2.049h-2.049z M63.512 32.78h4.098v2.049h-4.098z M71.707 32.78h2.049v2.049h-2.049z M79.902 32.78h2.049v2.049h-2.049z M0.0 34.829h10.244v2.049h-10.244z M14.341 34.829h2.049v2.049h-2.049z M18.439 34.829h4.098v2.049h-4.098z M24.585 34.829h2.049v2.049h-2.049z M28.683 34.829h2.049v2.049h-2.049z M32.78 34.829h2.049v2.049h-2.049z M36.878 34.829h2.049v2.049h-2.049z M45.073 34.829h16.39v2.049h-16.39z M69.659 34.829h4.098v2.049h-4.098z M75.805 34.829h8.195v2.049h-8.195z M6.146 36.878h2.049v2.049h-2.049z M10.244 36.878h6.146v2.049h-6.146z M22.537 36.878h2.049v2.049h-2.049z M30.732 36.878h2.049v2.049h-2.049z M36.878 36.878h2.049v2.049h-2.049z M40.976 36.878h4.098v2.049h-4.098z M53.268 36.878h2.049v2.049h-2.049z M67.61 36.878h4.098v2.049h-4.098z M73.756 36.878h2.049v2.049h-2.049z M81.951 36.878h2.049v2.049h-2.049z M2.049 38.927h2.049v2.049h-2.049z M10.244 38.927h2.049v2.049h-2.049z M14.341 38.927h10.244v2.049h-10.244z M26.634 38.927h14.341v2.049h-14.341z M45.073 38.927h2.049v2.049h-2.049z M55.317 38.927h2.049v2.049h-2.049z M59.415 38.927h4.098v2.049h-4.098z M65.561 38.927h8.195v2.049h-8.195z M75.805 38.927h2.049v2.049h-2.049z M81.951 38.927h2.049v2.049h-2.049z M0.0 40.976h4.098v2.049h-4.098z M10.244 40.976h14.341v2.049h-14.341z M28.683 40.976h4.098v2.049h-4.098z M34.829 40.976h4.098v2.049h-4.098z M47.122 40.976h10.244v2.049h-10.244z M59.415 40.976h2.049v2.049h-2.049z M65.561 40.976h10.244v2.049h-10.244z M77.854 40.976h4.098v2.049h-4.098z M2.049 43.024h4.098v2.049h-4.098z M8.195 43.024h2.049v2.049h-2.049z M20.488 43.024h4.098v2.049h-4.098z M28.683 43.024h2.049v2.049h-2.049z M34.829 43.024h4.098v2.049h-4.098z M43.024 43.024h2.049v2.049h-2.049z M51.22 43.024h4.098v2.049h-4.098z M59.415 43.024h2.049v2.049h-2.049z M69.659 43.024h2.049v2.049h-2.049z M75.805 43.024h2.049v2.049h-2.049z M79.902 43.024h4.098v2.049h-4.098z M0.0 45.073h2.049v2.049h-2.049z M6.146 45.073h2.049v2.049h-2.049z M12.293 45.073h2.049v2.049h-2.049z M16.39 45.073h8.195v2.049h-8.195z M26.634 45.073h4.098v2.049h-4.098z M34.829 45.073h8.195v2.049h-8.195z M51.22 45.073h2.049v2.049h-2.049z M57.366 45.073h2.049v2.049h-2.049z M63.512 45.073h2.049v2.049h-2.049z M67.61 45.073h8.195v2.049h-8.195z M79.902 45.073h2.049v2.049h-2.049z M0.0 47.122h8.195v2.049h-8.195z M14.341 47.122h4.098v2.049h-4.098z M20.488 47.122h6.146v2.049h-6.146z M28.683 47.122h4.098v2.049h-4.098z M36.878 47.122h18.439v2.049h-18.439z M57.366 47.122h2.049v2.049h-2.049z M61.463 47.122h2.049v2.049h-2.049z M71.707 47.122h4.098v2.049h-4.098z M77.854 47.122h2.049v2.049h-2.049z M12.293 49.171h6.146v2.049h-6.146z M20.488 49.171h2.049v2.049h-2.049z M32.78 49.171h4.098v2.049h-4.098z M38.927 49.171h6.146v2.049h-6.146z M49.171 49.171h4.098v2.049h-4.098z M55.317 49.171h6.146v2.049h-6.146z M63.512 49.171h10.244v2.049h-10.244z M75.805 49.171h2.049v2.049h-2.049z M81.951 49.171h2.049v2.049h-2.049z M0.0 51.22h2.049v2.049h-2.049z M8.195 51.22h4.098v2.049h-4.098z M16.39 51.22h2.049v2.049h-2.049z M22.537 51.22h2.049v2.049h-2.049z M26.634 51.22h10.244v2.049h-10.244z M38.927 51.22h8.195v2.049h-8.195z M49.171 51.22h6.146v2.049h-6.146z M57.366 51.22h4.098v2.049h-4.098z M63.512 51.22h2.049v2.049h-2.049z M69.659 51.22h2.049v2.049h-2.049z M75.805 51.22h2.049v2.049h-2.049z M0.0 53.268h2.049v2.049h-2.049z M8.195 53.268h2.049v2.049h-2.049z M12.293 53.268h2.049v2.049h-2.049z M16.39 53.268h2.049v2.049h-2.049z M22.537 53.268h6.146v2.049h-6.146z M30.732 53.268h6.146v2.049h-6.146z M40.976 53.268h2.049v2.049h-2.049z M47.122 53.268h2.049v2.049h-2.049z M51.22 53.268h4.098v2.049h-4.098z M57.366 53.268h2.049v2.049h-2.049z M61.463 53.268h2.049v2.049h-2.049z M65.561 53.268h4.098v2.049h-4.098z M71.707 53.268h4.098v2.049h-4.098z M79.902 53.268h4.098v2.049h-4.098z M2.049 55.317h2.049v2.049h-2.049z M6.146 55.317h6.146v2.049h-6.146z M16.39 55.317h2.049v2.049h-2.049z M22.537 55.317h2.049v2.049h-2.049z M28.683 55.317h2.049v2.049h-2.049z M32.78 55.317h6.146v2.049h-6.146z M40.976 55.317h6.146v2.049h-6.146z M49.171 55.317h8.195v2.049h-8.195z M59.415 55.317h2.049v2.049h-2.049z M65.561 55.317h4.098v2.049h-4.098z M79.902 55.317h4.098v2.049h-4.098z M4.098 57.366h2.049v2.049h-2.049z M8.195 57.366h8.195v2.049h-8.195z M18.439 57.366h6.146v2.049h-6.146z M26.634 57.366h2.049v2.049h-2.049z M32.78 57.366h4.098v2.049h-4.098z M40.976 57.366h10.244v2.049h-10.244z M53.268 57.366h4.098v2.049h-4.098z M59.415 57.366h4.098v2.049h-4.098z M67.61 57.366h2.049v2.049h-2.049z M71.707 57.366h2.049v2.049h-2.049z M4.098 59.415h2.049v2.049h-2.049z M8.195 59.415h2.049v2.049h-2.049z M14.341 59.415h2.049v2.049h-2.049z M30.732 59.415h4.098v2.049h-4.098z M38.927 59.415h2.049v2.049h-2.049z M51.22 59.415h2.049v2.049h-2.049z M57.366 59.415h6.146v2.049h-6.146z M67.61 59.415h6.146v2.049h-6.146z M75.805 59.415h4.098v2.049h-4.098z M81.951 59.415h2.049v2.049h-2.049z M0.0 61.463h2.049v2.049h-2.049z M4.098 61.463h6.146v2.049h-6.146z M12.293 61.463h2.049v2.049h-2.049z M16.39 61.463h2.049v2.049h-2.049z M22.537 61.463h4.098v2.049h-4.098z M28.683 61.463h2.049v2.049h-2.049z M38.927 61.463h8.195v2.049h-8.195z M51.22 61.463h2.049v2.049h-2.049z M71.707 61.463h2.049v2.049h-2.049z M77.854 61.463h6.146v2.049h-6.146z M4.098 63.512h4.098v2.049h-4.098z M14.341 63.512h2.049v2.049h-2.049z M20.488 63.512h4.098v2.049h-4.098z M32.78 63.512h4.098v2.049h-4.098z M38.927 63.512h8.195v2.049h-8.195z M49.171 63.512h2.049v2.049h-2.049z M53.268 63.512h8.195v2.049h-8.195z M63.512 63.512h6.146v2.049h-6.146z M73.756 63.512h4.098v2.049h-4.098z M0.0 65.561h2.049v2.049h-2.049z M8.195 65.561h10.244v2.049h-10.244z M24.585 65.561h6.146v2.049h-6.146z M32.78 65.561h2.049v2.049h-2.049z M38.927 65.561h6.146v2.049h-6.146z M51.22 65.561h8.195v2.049h-8.195z M63.512 65.561h12.293v2.049h-12.293z M77.854 65.561h2.049v2.049h-2.049z M81.951 65.561h2.049v2.049h-2.049z M16.39 67.61h4.098v2.049h-4.098z M26.634 67.61h4.098v2.049h-4.098z M32.78 67.61h2.049v2.049h-2.049z M36.878 67.61h2.049v2.049h-2.049z M40.976 67.61h4.098v2.049h-4.098z M49.171 67.61h4.098v2.049h-4.098z M59.415 67.61h8.195v2.049h-8.195z M73.756 67.61h10.244v2.049h-10.244z M0.0 69.659h14.341v2.049h-14.341z M20.488 69.659h2.049v2.049h-2.049z M26.634 69.659h2.049v2.049h-2.049z M30.732 69.659h2.049v2.049h-2.049z M34.829 69.659h2.049v2.049h-2.049z M38.927 69.659h2.049v2.049h-2.049z M53.268 69.659h2.049v2.049h-2.049z M57.366 69.659h4.098v2.049h-4.098z M65.561 69.659h2.049v2.049h-2.049z M69.659 69.659h2.049v2.049h-2.049z M73.756 69.659h2.049v2.049h-2.049z M77.854 69.659h4.098v2.049h-4.098z M0.0 71.707h2.049v2.049h-2.049z M12.293 71.707h2.049v2.049h-2.049z M16.39 71.707h2.049v2.049h-2.049z M20.488 71.707h4.098v2.049h-4.098z M26.634 71.707h6.146v2.049h-6.146z M34.829 71.707h2.049v2.049h-2.049z M38.927 71.707h2.049v2.049h-2.049z M43.024 71.707h4.098v2.049h-4.098z M49.171 71.707h4.098v2.049h-4.098z M55.317 71.707h2.049v2.049h-2.049z M65.561 71.707h2.049v2.049h-2.049z M73.756 71.707h2.049v2.049h-2.049z M77.854 71.707h2.049v2.049h-2.049z M81.951 71.707h2.049v2.049h-2.049z M0.0 73.756h2.049v2.049h-2.049z M4.098 73.756h6.146v2.049h-6.146z M12.293 73.756h2.049v2.049h-2.049z M20.488 73.756h2.049v2.049h-2.049z M26.634 73.756h2.049v2.049h-2.049z M32.78 73.756h2.049v2.049h-2.049z M40.976 73.756h2.049v2.049h-2.049z M45.073 73.756h2.049v2.049h-2.049z M51.22 73.756h10.244v2.049h-10.244z M65.561 73.756h12.293v2.049h-12.293z M79.902 73.756h2.049v2.049h-2.049z M0.0 75.805h2.049v2.049h-2.049z M4.098 75.805h6.146v2.049h-6.146z M12.293 75.805h2.049v2.049h-2.049z M16.39 75.805h2.049v2.049h-2.049z M22.537 75.805h4.098v2.049h-4.098z M30.732 75.805h6.146v2.049h-6.146z M38.927 75.805h6.146v2.049h-6.146z M57.366 75.805h4.098v2.049h-4.098z M63.512 75.805h8.195v2.049h-8.195z M73.756 75.805h4.098v2.049h-4.098z M79.902 75.805h2.049v2.049h-2.049z M0.0 77.854h2.049v2.049h-2.049z M4.098 77.854h6.146v2.049h-6.146z M12.293 77.854h2.049v2.049h-2.049z M18.439 77.854h2.049v2.049h-2.049z M22.537 77.854h2.049v2.049h-2.049z M28.683 77.854h2.049v2.049h-2.049z M32.78 77.854h2.049v2.049h-2.049z M40.976 77.854h4.098v2.049h-4.098z M47.122 77.854h8.195v2.049h-8.195z M57.366 77.854h2.049v2.049h-2.049z M61.463 77.854h4.098v2.049h-4.098z M73.756 77.854h2.049v2.049h-2.049z M79.902 77.854h4.098v2.049h-4.098z M0.0 79.902h2.049v2.049h-2.049z M12.293 79.902h2.049v2.049h-2.049z M18.439 79.902h6.146v2.049h-6.146z M28.683 79.902h4.098v2.049h-4.098z M36.878 79.902h2.049v2.049h-2.049z M43.024 79.902h4.098v2.049h-4.098z M51.22 79.902h4.098v2.049h-4.098z M57.366 79.902h12.293v2.049h-12.293z M71.707 79.902h2.049v2.049h-2.049z M75.805 79.902h2.049v2.049h-2.049z M79.902 79.902h2.049v2.049h-2.049z M0.0 81.951h14.341v2.049h-14.341z M16.39 81.951h4.098v2.049h-4.098z M22.537 81.951h2.049v2.049h-2.049z M26.634 81.951h4.098v2.049h-4.098z M32.78 81.951h2.049v2.049h-2.049z M38.927 81.951h8.195v2.049h-8.195z M49.171 81.951h2.049v2.049h-2.049z M59.415 81.951h2.049v2.049h-2.049z M63.512 81.951h14.341v2.049h-14.341z M79.902 81.951h2.049v2.049h-2.049z"/>
</g>
<text x="1122" y="614" font-family="Inter, Helvetica, Arial, sans-serif" font-size="10" font-weight="700" fill="#F5F7FA" text-anchor="middle">scan / full post</text>
</svg>