<svg xmlns="http://www.w3.org/2000/svg" viewBox="0 0 1200 630" width="1200" height="630" role="img" aria-label="Weekly digest cover 2026.01.22: G7e Blackwell GPU, GCP Bangkok Region, EU Sovereign Cloud">
<!-- profile: high-quality-cover (L20 Hero+2-Card) -->
<title>AWS GCP Jan 2026: EC2 G7e Blackwell, X8i SAP, Bangkok, Sovereign Cloud, Gemini 3</title>
<defs><linearGradient id="bgSpread" x1="0%" y1="0%" x2="100%" y2="100%"><stop offset="0%" stop-color="#0B1326"/><stop offset="55%" stop-color="#0D1530"/><stop offset="100%" stop-color="#141034"/></linearGradient><linearGradient id="heroPanel" x1="0%" y1="0%" x2="0%" y2="100%"><stop offset="0%" stop-color="#1A0A08"/><stop offset="100%" stop-color="#110608"/></linearGradient><linearGradient id="heroPanelBlue" x1="0%" y1="0%" x2="0%" y2="100%"><stop offset="0%" stop-color="#0A1A30"/><stop offset="100%" stop-color="#071426"/></linearGradient><linearGradient id="heroPanelAmber" x1="0%" y1="0%" x2="0%" y2="100%"><stop offset="0%" stop-color="#1A1208"/><stop offset="100%" stop-color="#120E06"/></linearGradient><linearGradient id="heroPanelGreen" x1="0%" y1="0%" x2="0%" y2="100%"><stop offset="0%" stop-color="#08160E"/><stop offset="100%" stop-color="#04100A"/></linearGradient><linearGradient id="heroPanelPurple" x1="0%" y1="0%" x2="0%" y2="100%"><stop offset="0%" stop-color="#110629"/><stop offset="100%" stop-color="#0A0418"/></linearGradient><radialGradient id="hotRed" cx="50%" cy="50%" r="50%"><stop offset="0%" stop-color="#E63946" stop-opacity="0.6"/><stop offset="100%" stop-color="#E63946" stop-opacity="0"/></radialGradient><radialGradient id="hotBlue" cx="50%" cy="50%" r="50%"><stop offset="0%" stop-color="#3A86FF" stop-opacity="0.5"/><stop offset="100%" stop-color="#3A86FF" stop-opacity="0"/></radialGradient><radialGradient id="hotAmber" cx="50%" cy="50%" r="50%"><stop offset="0%" stop-color="#FFB703" stop-opacity="0.45"/><stop offset="100%" stop-color="#FFB703" stop-opacity="0"/></radialGradient><radialGradient id="hotGreen" cx="50%" cy="50%" r="50%"><stop offset="0%" stop-color="#4ADE80" stop-opacity="0.45"/><stop offset="100%" stop-color="#4ADE80" stop-opacity="0"/></radialGradient><radialGradient id="hotPurple" cx="50%" cy="50%" r="50%"><stop offset="0%" stop-color="#A78BFA" stop-opacity="0.45"/><stop offset="100%" stop-color="#A78BFA" stop-opacity="0"/></radialGradient><pattern id="envGrid" x="0" y="0" width="40" height="40" patternUnits="userSpaceOnUse"><circle cx="20" cy="20" r="0.8" fill="#2A3256" opacity="0.55"/></pattern><filter id="softShadow" x="-10%" y="-10%" width="130%" height="130%"><feGaussianBlur in="SourceAlpha" stdDeviation="3"/><feOffset dx="2" dy="4"/><feComponentTransfer><feFuncA type="linear" slope="0.55"/></feComponentTransfer><feMerge><feMergeNode/><feMergeNode in="SourceGraphic"/></feMerge></filter><filter id="textShadow" x="-10%" y="-10%" width="130%" height="130%"><feGaussianBlur in="SourceAlpha" stdDeviation="1.2"/><feOffset dx="1" dy="1.5"/><feComponentTransfer><feFuncA type="linear" slope="0.7"/></feComponentTransfer><feMerge><feMergeNode/><feMergeNode in="SourceGraphic"/></feMerge></filter></defs>
<rect width="1200" height="630" fill="url(#bgSpread)"/>
<rect width="1200" height="630" fill="url(#envGrid)"/>
<circle cx="310" cy="310" r="160" fill="url(#hotRed)"><animate attributeName="opacity" values="0.6;1;0.6" dur="5.8s" repeatCount="indefinite"/></circle><circle cx="950" cy="210" r="120" fill="url(#hotBlue)"><animate attributeName="opacity" values="0.45;0.85;0.45" dur="6.4s" repeatCount="indefinite"/></circle><circle cx="970" cy="480" r="110" fill="url(#hotAmber)"><animate attributeName="opacity" values="0.4;0.75;0.4" dur="7.1s" repeatCount="indefinite"/></circle><g fill="#8FB8FF"><circle cx="180" cy="70" r="1.2"><animate attributeName="opacity" values="0.2;1;0.2" dur="3.4s" repeatCount="indefinite"/></circle><circle cx="440" cy="62" r="1"><animate attributeName="opacity" values="0.2;0.9;0.2" dur="4.2s" repeatCount="indefinite"/></circle><circle cx="740" cy="68" r="1.3"><animate attributeName="opacity" values="0.25;1;0.25" dur="3.9s" repeatCount="indefinite"/></circle><circle cx="1060" cy="74" r="0.9"><animate attributeName="opacity" values="0.2;0.85;0.2" dur="5.1s" repeatCount="indefinite"/></circle><circle cx="90" cy="580" r="1"><animate attributeName="opacity" values="0.15;0.8;0.15" dur="4.7s" repeatCount="indefinite"/></circle><circle cx="550" cy="590" r="0.8"><animate attributeName="opacity" values="0.2;0.75;0.2" dur="3.6s" begin="0.5s" repeatCount="indefinite"/></circle></g>
<g fill="#7DA3D9" opacity="0.85"><circle cx="252" cy="58" r="0.8"><animate attributeName="opacity" values="0.15;0.7;0.15" dur="4.3s" repeatCount="indefinite"/></circle><circle cx="368" cy="74" r="0.9"><animate attributeName="opacity" values="0.2;0.85;0.2" dur="3.8s" begin="0.4s" repeatCount="indefinite"/></circle><circle cx="624" cy="60" r="1.1"><animate attributeName="opacity" values="0.25;0.95;0.25" dur="4.5s" repeatCount="indefinite"/></circle><circle cx="858" cy="68" r="0.9"><animate attributeName="opacity" values="0.2;0.8;0.2" dur="3.6s" begin="0.6s" repeatCount="indefinite"/></circle><circle cx="996" cy="62" r="1.0"><animate attributeName="opacity" values="0.2;0.9;0.2" dur="4.0s" begin="0.2s" repeatCount="indefinite"/></circle><circle cx="1138" cy="76" r="0.8"><animate attributeName="opacity" values="0.15;0.7;0.15" dur="5.2s" begin="0.5s" repeatCount="indefinite"/></circle><circle cx="218" cy="596" r="0.9"><animate attributeName="opacity" values="0.18;0.75;0.18" dur="4.6s" begin="0.3s" repeatCount="indefinite"/></circle><circle cx="380" cy="608" r="1.0"><animate attributeName="opacity" values="0.2;0.85;0.2" dur="3.9s" begin="0.7s" repeatCount="indefinite"/></circle><circle cx="704" cy="600" r="0.8"><animate attributeName="opacity" values="0.18;0.7;0.18" dur="4.2s" begin="0.4s" repeatCount="indefinite"/></circle><circle cx="892" cy="608" r="1.1"><animate attributeName="opacity" values="0.22;0.9;0.22" dur="4.7s" begin="0.6s" repeatCount="indefinite"/></circle><circle cx="1078" cy="600" r="0.9"><animate attributeName="opacity" values="0.2;0.85;0.2" dur="3.6s" begin="0.8s" repeatCount="indefinite"/></circle></g>
<rect x="0" y="0" width="1200" height="56" fill="#050813" opacity="0.92"/>
<text x="36" y="36" font-family="Inter, Helvetica, Arial, sans-serif" font-size="18" font-weight="700" fill="#8FB8FF" letter-spacing="2.5">WEEKLY DIGEST</text>
<text x="1164" y="36" font-family="Inter, Helvetica, Arial, sans-serif" font-size="15" font-weight="600" fill="#7DA3D9" letter-spacing="1.5" text-anchor="end">2026.01.22</text>
<rect x="0" y="54" width="1200" height="2" fill="#E63946" opacity="0.85"><animate attributeName="opacity" values="0.4;1;0.4" dur="4.8s" repeatCount="indefinite"/></rect>
<rect x="32" y="80" width="600" height="510" rx="14" ry="14" fill="url(#heroPanel)" stroke="#E63946" stroke-width="1.8" opacity="0.98"/>
<circle cx="160" cy="300" r="240" fill="url(#hotRed)" opacity="0.28"/>
<rect x="32" y="80" width="600" height="4" fill="#E63946" opacity="0.85"><animate attributeName="opacity" values="0.5;1;0.5" dur="3.4s" repeatCount="indefinite"/></rect>
<g filter="url(#textShadow)">
<text x="54" y="112" font-family="Inter, Helvetica, Arial, sans-serif" font-size="13" font-weight="700" fill="#F87171" letter-spacing="3">EC2 G7e  /  01</text>
<text x="54" y="146" font-family="Inter, Helvetica, Arial, sans-serif" font-size="31" font-weight="800" fill="#F8FAFC">G7e Blackwell GPU</text>
<text x="54" y="174" font-family="Inter, Helvetica, Arial, sans-serif" font-size="17" font-weight="500" fill="#FBB6BD">AWS EC2 G7e launches NVIDIA Blackwell GPU acceleration tier</text>
</g>
<g transform="translate(332,360)" opacity="0.32"><circle r="180" fill="none" stroke="#E63946" stroke-width="0.6" stroke-dasharray="2 4"/><circle r="140" fill="none" stroke="#E63946" stroke-width="0.6" stroke-dasharray="2 4" opacity="0.7"/><circle r="100" fill="none" stroke="#E63946" stroke-width="0.6" stroke-dasharray="2 4" opacity="0.5"/><g><path d="M0 0 L180 0 A180 180 0 0 1 127 127 Z" fill="#E63946" opacity="0.10"/><animateTransform attributeName="transform" type="rotate" from="0" to="360" dur="14s" repeatCount="indefinite"/></g></g>
<g stroke="#E63946" stroke-width="1.4" fill="none" opacity="0.7"><path d="M36 96 L36 84 L48 84"/><path d="M616 84 L628 84 L628 96"/><path d="M36 574 L36 586 L48 586"/><path d="M616 586 L628 586 L628 574"/></g>
<g><rect x="54" y="526" width="280" height="1" fill="#E63946" opacity="0.35"/><rect x="54" y="528" width="1" height="4" fill="#E63946" opacity="0.55"/><rect x="68" y="528" width="1" height="2" fill="#E63946" opacity="0.55"/><rect x="82" y="528" width="1" height="2" fill="#E63946" opacity="0.55"/><rect x="96" y="528" width="1" height="4" fill="#E63946" opacity="0.55"/><rect x="110" y="528" width="1" height="2" fill="#E63946" opacity="0.55"/><rect x="124" y="528" width="1" height="2" fill="#E63946" opacity="0.55"/><rect x="138" y="528" width="1" height="4" fill="#E63946" opacity="0.55"/><rect x="152" y="528" width="1" height="2" fill="#E63946" opacity="0.55"/><rect x="166" y="528" width="1" height="2" fill="#E63946" opacity="0.55"/><rect x="180" y="528" width="1" height="4" fill="#E63946" opacity="0.55"/><rect x="194" y="528" width="1" height="2" fill="#E63946" opacity="0.55"/><rect x="208" y="528" width="1" height="2" fill="#E63946" opacity="0.55"/><rect x="222" y="528" width="1" height="4" fill="#E63946" opacity="0.55"/><rect x="236" y="528" width="1" height="2" fill="#E63946" opacity="0.55"/><rect x="250" y="528" width="1" height="2" fill="#E63946" opacity="0.55"/><rect x="264" y="528" width="1" height="4" fill="#E63946" opacity="0.55"/><rect x="278" y="528" width="1" height="2" fill="#E63946" opacity="0.55"/><rect x="292" y="528" width="1" height="2" fill="#E63946" opacity="0.55"/><rect x="306" y="528" width="1" height="4" fill="#E63946" opacity="0.55"/><rect x="320" y="528" width="1" height="2" fill="#E63946" opacity="0.55"/><rect x="284" y="527" width="50" height="6" fill="#E63946" opacity="0.45"><animate attributeName="x" values="54;284;54" dur="6.4s" repeatCount="indefinite"/><animate attributeName="opacity" values="0.2;0.7;0.2" dur="6.4s" repeatCount="indefinite"/></rect></g>
<g transform="translate(332,360)"><circle cx="0" cy="0" r="30" fill="#0A1540" stroke="#E63946" stroke-width="2" filter="url(#softShadow)"><animate attributeName="r" values="28;34;28" dur="3.2s" repeatCount="indefinite"/></circle><text x="0" y="2" text-anchor="middle" font-family="Inter, monospace" font-size="11" font-weight="900" fill="#F87171">GPU</text><text x="0" y="16" text-anchor="middle" font-family="Inter, monospace" font-size="8" font-weight="700" fill="#E63946">HUB</text><g stroke="#E63946" stroke-width="1" stroke-dasharray="3 2" fill="none" opacity="0.6"><line x1="0" y1="0" x2="90" y2="-55"/><line x1="0" y1="0" x2="108" y2="0"/><line x1="0" y1="0" x2="90" y2="55"/><line x1="0" y1="0" x2="-90" y2="55"/><line x1="0" y1="0" x2="-108" y2="0"/><line x1="0" y1="0" x2="-90" y2="-55"/></g><g font-family="Inter, monospace" font-size="7" font-weight="800"><g transform="translate(92,-58)"><rect x="-24" y="-12" width="48" height="24" rx="4" fill="#0A2040" stroke="#E63946" stroke-width="1.2"/><g transform="translate(-18,-8)" stroke="#F87171" stroke-width="0.9" fill="none"><rect x="0" y="0" width="9" height="5" rx="1"/><circle cx="2" cy="2.5" r="0.6" fill="#E63946"/><circle cx="5" cy="2.5" r="0.6" fill="#E63946"/></g><text x="3" y="2" text-anchor="middle" fill="#F87171">EDGE-1</text><circle cx="20" cy="-8" r="4" fill="#E63946"><animate attributeName="opacity" values="0.4;1;0.4" dur="1.6s" repeatCount="indefinite"/></circle></g><g transform="translate(112,0)"><rect x="-24" y="-12" width="48" height="24" rx="4" fill="#0A2040" stroke="#E63946" stroke-width="1.2"/><g transform="translate(-18,-8)" stroke="#F87171" stroke-width="0.9" fill="none"><rect x="0" y="0" width="9" height="5" rx="1"/><circle cx="2" cy="2.5" r="0.6" fill="#E63946"/><circle cx="5" cy="2.5" r="0.6" fill="#E63946"/></g><text x="3" y="2" text-anchor="middle" fill="#F87171">EDGE-2</text><circle cx="20" cy="-8" r="4" fill="#E63946"><animate attributeName="opacity" values="0.4;1;0.4" dur="2s" begin="0.3s" repeatCount="indefinite"/></circle></g><g transform="translate(92,58)"><rect x="-24" y="-12" width="48" height="24" rx="4" fill="#0A2040" stroke="#FFB703" stroke-width="1.2"/><g transform="translate(-18,-4)" stroke="#FFD58A" stroke-width="0.9" fill="none"><path d="M2 4 L0 0 M2 4 L4 0 M2 4 L2 8"/></g><text x="4" y="2" text-anchor="middle" fill="#FFD58A">RELAY</text></g><g transform="translate(-92,58)"><rect x="-24" y="-12" width="48" height="24" rx="4" fill="#0A2040" stroke="#FFB703" stroke-width="1.2"/><g transform="translate(-19,-3)" stroke="#FFD58A" stroke-width="0.9" fill="none"><path d="M0 3 L4 0 L4 6 Z" fill="#FFD58A"/></g><text x="4" y="2" text-anchor="middle" fill="#FFD58A">PROXY</text></g><g transform="translate(-112,0)"><rect x="-24" y="-12" width="48" height="24" rx="4" fill="#0A2040" stroke="#4ADE80" stroke-width="1.2"/><g transform="translate(-19,-6)" stroke="#4ADE80" stroke-width="0.9" fill="none"><rect x="0" y="0" width="8" height="5" rx="0.6"/><path d="M-1 7 L9 7"/></g><text x="4" y="2" text-anchor="middle" fill="#4ADE80">VICTIM</text></g><g transform="translate(-92,-58)"><rect x="-24" y="-12" width="48" height="24" rx="4" fill="#0A2040" stroke="#4ADE80" stroke-width="1.2"/><g transform="translate(-19,-4)" stroke="#4ADE80" stroke-width="0.9" fill="none"><circle cx="2" cy="3" r="1.6"/><path d="M3.5 3 L9 3 M7 3 L7 5"/></g><text x="4" y="2" text-anchor="middle" fill="#4ADE80">CREDS</text></g></g><g fill="#F87171"><circle r="2.2"><animateMotion path="M0 0 L90 -55" dur="2s" repeatCount="indefinite"/></circle><circle r="2.2"><animateMotion path="M0 0 L108 0" dur="1.8s" begin="0.3s" repeatCount="indefinite"/></circle><circle r="2.2"><animateMotion path="M0 0 L90 55" dur="2.2s" begin="0.6s" repeatCount="indefinite"/></circle><circle r="2.2"><animateMotion path="M0 0 L-90 55" dur="2.4s" begin="0.9s" repeatCount="indefinite"/></circle><circle r="2.2"><animateMotion path="M0 0 L-108 0" dur="1.9s" begin="1.2s" repeatCount="indefinite"/></circle><circle r="2.2"><animateMotion path="M0 0 L-90 -55" dur="2.1s" begin="1.5s" repeatCount="indefinite"/></circle></g></g>
<g transform="translate(54,548)">
<rect x="0" y="0" width="280" height="24" rx="3" fill="#E63946" opacity="0.95"/>
<text x="140" y="17" text-anchor="middle" font-family="Inter, Helvetica, Arial, sans-serif" font-size="12" font-weight="700" fill="#FFFFFF">BUDGET + CAPACITY RESERVE</text>
</g>
<text x="350" y="566" font-family="Inter, Helvetica, Arial, sans-serif" font-size="13" font-weight="600" fill="#A5B4C4" font-style="italic">Weekly Digest  /  2026.01.22</text>
<rect x="652" y="80" width="516" height="248" rx="14" ry="14" fill="url(#heroPanelAmber)" stroke="#FFB703" stroke-width="1.6" opacity="0.97"/>
<rect x="652" y="80" width="516" height="4" fill="#FFB703" opacity="0.85"><animate attributeName="opacity" values="0.5;1;0.5" dur="4.2s" repeatCount="indefinite"/></rect>
<g filter="url(#textShadow)">
<text x="670" y="110" font-family="Inter, Helvetica, Arial, sans-serif" font-size="12" font-weight="700" fill="#FFB703" letter-spacing="3">BANGKOK  /  02</text>
<text x="670" y="140" font-family="Inter, Helvetica, Arial, sans-serif" font-size="24" font-weight="800" fill="#F5F7FA">GCP Bangkok Region</text>
<text x="670" y="163" font-family="Inter, Helvetica, Arial, sans-serif" font-size="14" font-weight="500" fill="#FFD58A">GCP opens Bangkok region adding ASEAN data-residency</text>
</g>
<g stroke="#FFB703" stroke-width="1.4" fill="none" opacity="0.7"><path d="M656 93 L656 84 L665 84"/><path d="M1155 84 L1164 84 L1164 93"/><path d="M656 315 L656 324 L665 324"/><path d="M1155 324 L1164 324 L1164 315"/></g>
<g transform="translate(800,230)"><g transform="translate(-160,-50)" filter="url(#softShadow)"><ellipse cx="40" cy="6" rx="40" ry="8" fill="#0A1B2E" stroke="#2CCCE4" stroke-width="1.6"/><rect x="0" y="6" width="80" height="56" fill="#0A1B2E" stroke="#2CCCE4" stroke-width="1.6"/><ellipse cx="40" cy="62" rx="40" ry="8" fill="#0A1B2E" stroke="#2CCCE4" stroke-width="1.6"/><ellipse cx="40" cy="22" rx="40" ry="6" fill="none" stroke="#2CCCE4" stroke-width="0.8" opacity="0.6"/><ellipse cx="40" cy="40" rx="40" ry="6" fill="none" stroke="#2CCCE4" stroke-width="0.8" opacity="0.6"/><text x="40" y="84" text-anchor="middle" font-family="Inter, monospace" font-size="10" font-weight="800" fill="#2CCCE4">DB / S3</text><text x="40" y="98" text-anchor="middle" font-family="Inter, monospace" font-size="8" font-weight="600" fill="#7ED4E5">PII  /  secrets</text></g><g transform="translate(80,-50)" filter="url(#softShadow)"><rect x="0" y="0" width="80" height="80" rx="8" fill="#1E0A0A" stroke="#FFB703" stroke-width="2"/><text x="40" y="22" text-anchor="middle" font-family="Inter, monospace" font-size="10" font-weight="900" fill="#FFD58A">ATTACKER</text><g transform="translate(20,32)" stroke="#FFD58A" stroke-width="1.6" fill="none"><circle cx="20" cy="10" r="8"/><path d="M6 32 Q20 22 34 32"/></g><text x="40" y="74" text-anchor="middle" font-family="Inter, monospace" font-size="8" font-weight="700" fill="#FCA5A5">offshore relay</text></g><g stroke="#FFB703" stroke-width="1.4" stroke-dasharray="4 3" fill="none"><path d="M-80 -10 L80 -10"><animate attributeName="stroke-dashoffset" values="0;-14" dur="1.2s" repeatCount="indefinite"/></path><path d="M-80 0 L80 0"><animate attributeName="stroke-dashoffset" values="0;-14" dur="1.4s" begin="0.2s" repeatCount="indefinite"/></path><path d="M-80 10 L80 10"><animate attributeName="stroke-dashoffset" values="0;-14" dur="1s" begin="0.4s" repeatCount="indefinite"/></path></g><g fill="#FFD58A"><circle r="2.4"><animateMotion path="M-80 -10 L80 -10" dur="2s" repeatCount="indefinite"/></circle><circle r="2.4"><animateMotion path="M-80 0 L80 0" dur="2.2s" begin="0.4s" repeatCount="indefinite"/></circle><circle r="2.4"><animateMotion path="M-80 10 L80 10" dur="2.4s" begin="0.8s" repeatCount="indefinite"/></circle></g><text x="0" y="40" text-anchor="middle" font-family="Inter, Helvetica, Arial, sans-serif" font-size="10" font-weight="700" fill="#FFB703" letter-spacing="2">DATA EXFILTRATION</text></g>
<g transform="translate(1094,168)" filter="url(#softShadow)"><rect x="-68" y="-55" width="140" height="110" rx="10" fill="#1A1208" stroke="#FFB703" stroke-width="2"/><text x="2" y="-28" text-anchor="middle" font-family="Inter, Helvetica, Arial, sans-serif" font-size="10" font-weight="700" letter-spacing="2" fill="#FFB703">BKK</text><text x="2" y="18" text-anchor="middle" font-family="Inter, Helvetica, Arial, sans-serif" font-size="28" font-weight="900" fill="#F5F7FA">GCP</text><text x="2" y="40" text-anchor="middle" font-family="Inter, Helvetica, Arial, sans-serif" font-size="10" font-weight="600" fill="#FFD58A">asean</text></g>
<rect x="652" y="344" width="516" height="246" rx="14" ry="14" fill="url(#heroPanelBlue)" stroke="#3A86FF" stroke-width="1.6" opacity="0.97"/>
<rect x="652" y="344" width="516" height="4" fill="#3A86FF" opacity="0.85"><animate attributeName="opacity" values="0.5;1;0.5" dur="4.8s" repeatCount="indefinite"/></rect>
<g filter="url(#textShadow)">
<text x="670" y="374" font-family="Inter, Helvetica, Arial, sans-serif" font-size="12" font-weight="700" fill="#7DA3D9" letter-spacing="3">SOVEREIGN  /  03</text>
<text x="670" y="404" font-family="Inter, Helvetica, Arial, sans-serif" font-size="24" font-weight="800" fill="#F5F7FA">EU Sovereign Cloud</text>
<text x="670" y="428" font-family="Inter, Helvetica, Arial, sans-serif" font-size="14" font-weight="500" fill="#BFC9D9">European sovereign cloud lifts data-sovereignty</text>
</g>
<g stroke="#3A86FF" stroke-width="1.4" fill="none" opacity="0.7"><path d="M656 357 L656 348 L665 348"/><path d="M1155 348 L1164 348 L1164 357"/><path d="M656 577 L656 586 L665 586"/><path d="M1155 586 L1164 586 L1164 577"/></g>
<g transform="translate(800,490)" font-family="Inter, monospace" font-weight="800"><g transform="translate(-200,-30)"><rect x="0" y="0" width="80" height="60" rx="6" fill="#0A1628" stroke="#3A86FF" stroke-width="1.4"/><text x="40" y="22" text-anchor="middle" font-size="10" fill="#8FB8FF">SOURCE</text><text x="40" y="40" text-anchor="middle" font-size="8" font-weight="600" fill="#BFC9D9">git repo</text><text x="40" y="52" text-anchor="middle" font-size="8" font-weight="600" fill="#BFC9D9">commits</text></g><g transform="translate(-100,-30)"><rect x="0" y="0" width="80" height="60" rx="6" fill="#1E1805" stroke="#3A86FF" stroke-width="2"><animate attributeName="stroke-opacity" values="0.6;1;0.6" dur="1.8s" repeatCount="indefinite"/></rect><text x="40" y="22" text-anchor="middle" font-size="10" fill="#60A5FA">CI / BUILD</text><text x="40" y="40" text-anchor="middle" font-size="8" font-weight="600" fill="#3A86FF">poisoned step</text><circle cx="68" cy="12" r="5" fill="#E63946"><animate attributeName="opacity" values="0.4;1;0.4" dur="1.2s" repeatCount="indefinite"/></circle></g><g transform="translate(0,-30)"><rect x="0" y="0" width="80" height="60" rx="6" fill="#0A1B2E" stroke="#2CCCE4" stroke-width="1.4"/><text x="40" y="22" text-anchor="middle" font-size="10" fill="#2CCCE4">REGISTRY</text><text x="40" y="40" text-anchor="middle" font-size="8" font-weight="600" fill="#7ED4E5">images</text><text x="40" y="52" text-anchor="middle" font-size="8" font-weight="600" fill="#7ED4E5">artifacts</text></g><g transform="translate(100,-30)"><rect x="0" y="0" width="80" height="60" rx="6" fill="#062012" stroke="#4ADE80" stroke-width="1.4"/><text x="40" y="22" text-anchor="middle" font-size="10" fill="#4ADE80">DEPLOY</text><text x="40" y="40" text-anchor="middle" font-size="8" font-weight="600" fill="#86EFAC">prod cluster</text><text x="40" y="52" text-anchor="middle" font-size="8" font-weight="600" fill="#86EFAC">tainted</text></g><g stroke="#3A86FF" stroke-width="2" fill="none" stroke-linecap="round"><path d="M-120 0 L-100 0" stroke-dasharray="3 2"><animate attributeName="stroke-dashoffset" values="0;-10" dur="1s" repeatCount="indefinite"/></path><path d="M-20 0 L0 0" stroke-dasharray="3 2"><animate attributeName="stroke-dashoffset" values="0;-10" dur="1s" repeatCount="indefinite"/></path><path d="M80 0 L100 0" stroke-dasharray="3 2"><animate attributeName="stroke-dashoffset" values="0;-10" dur="1s" repeatCount="indefinite"/></path></g><g fill="#60A5FA"><circle r="2.4"><animateMotion path="M-120 0 L100 0" dur="3.6s" repeatCount="indefinite"/></circle><circle r="2" opacity="0.7"><animateMotion path="M-120 0 L100 0" dur="3.6s" begin="1.2s" repeatCount="indefinite"/></circle></g><text x="0" y="56" text-anchor="middle" font-family="Inter, Helvetica, Arial, sans-serif" font-size="10" font-weight="700" fill="#3A86FF" letter-spacing="2">SUPPLY-CHAIN POISON</text></g>
<g transform="translate(1094,414)" filter="url(#softShadow)"><rect x="-68" y="-55" width="140" height="110" rx="10" fill="#071426" stroke="#3A86FF" stroke-width="2"/><text x="2" y="-28" text-anchor="middle" font-family="Inter, Helvetica, Arial, sans-serif" font-size="10" font-weight="700" letter-spacing="2" fill="#7DA3D9">SOV</text><text x="2" y="18" text-anchor="middle" font-family="Inter, Helvetica, Arial, sans-serif" font-size="28" font-weight="900" fill="#F5F7FA">EU</text><text x="2" y="40" text-anchor="middle" font-family="Inter, Helvetica, Arial, sans-serif" font-size="10" font-weight="600" fill="#BFC9D9">data</text></g>
<g opacity="0.85"><g fill="#F87171"><circle cx="1104" cy="110" r="1.4"><animate attributeName="opacity" values="0.2;1;0.2" dur="1.8s" repeatCount="indefinite"/></circle><circle cx="1124" cy="110" r="1.4"><animate attributeName="opacity" values="0.2;1;0.2" dur="1.4s" begin="0.3s" repeatCount="indefinite"/></circle></g><g fill="#7DA3D9"><circle cx="1104" cy="218" r="1.2"><animate attributeName="opacity" values="0.2;1;0.2" dur="2s" repeatCount="indefinite"/></circle><circle cx="1124" cy="218" r="1.2"><animate attributeName="opacity" values="0.2;1;0.2" dur="1.6s" begin="0.4s" repeatCount="indefinite"/></circle></g><g fill="#FFD58A"><circle cx="1104" cy="374" r="1.4"><animate attributeName="opacity" values="0.2;1;0.2" dur="1.8s" repeatCount="indefinite"/></circle><circle cx="1124" cy="374" r="1.4"><animate attributeName="opacity" values="0.2;1;0.2" dur="1.6s" begin="0.3s" repeatCount="indefinite"/></circle></g><g stroke="#E63946" stroke-width="0.5" fill="none"><path d="M20 230 L28 230"><animate attributeName="stroke-opacity" values="0;0.7;0" dur="2s" repeatCount="indefinite"/></path><path d="M20 300 L28 300"><animate attributeName="stroke-opacity" values="0;0.7;0" dur="2.3s" begin="0.3s" repeatCount="indefinite"/></path><path d="M20 370 L28 370"><animate attributeName="stroke-opacity" values="0;0.7;0" dur="1.9s" begin="0.6s" repeatCount="indefinite"/></path><path d="M20 440 L28 440"><animate attributeName="stroke-opacity" values="0;0.7;0" dur="2.1s" begin="0.9s" repeatCount="indefinite"/></path></g></g>
<g transform="translate(1080,504)" filter="url(#softShadow)">
  <rect x="-12" y="-12" width="132" height="132" rx="8" fill="#FFFFFF"/>
  <path fill="#0A1020" d="M0.0 0.0h15.429v2.204h-15.429z M17.633 0.0h2.204v2.204h-2.204z M22.041 0.0h4.408v2.204h-4.408z M28.653 0.0h2.204v2.204h-2.204z M33.061 0.0h6.612v2.204h-6.612z M44.082 0.0h4.408v2.204h-4.408z M52.898 0.0h8.816v2.204h-8.816z M66.122 0.0h2.204v2.204h-2.204z M70.531 0.0h4.408v2.204h-4.408z M77.143 0.0h6.612v2.204h-6.612z M88.163 0.0h2.204v2.204h-2.204z M92.571 0.0h15.429v2.204h-15.429z M0.0 2.204h2.204v2.204h-2.204z M13.224 2.204h2.204v2.204h-2.204z M22.041 2.204h8.816v2.204h-8.816z M41.878 2.204h2.204v2.204h-2.204z M46.286 2.204h8.816v2.204h-8.816z M57.306 2.204h2.204v2.204h-2.204z M63.918 2.204h8.816v2.204h-8.816z M74.939 2.204h6.612v2.204h-6.612z M83.755 2.204h6.612v2.204h-6.612z M92.571 2.204h2.204v2.204h-2.204z M105.796 2.204h2.204v2.204h-2.204z M0.0 4.408h2.204v2.204h-2.204z M4.408 4.408h6.612v2.204h-6.612z M13.224 4.408h2.204v2.204h-2.204z M19.837 4.408h6.612v2.204h-6.612z M28.653 4.408h6.612v2.204h-6.612z M44.082 4.408h2.204v2.204h-2.204z M55.102 4.408h6.612v2.204h-6.612z M66.122 4.408h2.204v2.204h-2.204z M70.531 4.408h2.204v2.204h-2.204z M74.939 4.408h2.204v2.204h-2.204z M85.959 4.408h4.408v2.204h-4.408z M92.571 4.408h2.204v2.204h-2.204z M96.98 4.408h6.612v2.204h-6.612z M105.796 4.408h2.204v2.204h-2.204z M0.0 6.612h2.204v2.204h-2.204z M4.408 6.612h6.612v2.204h-6.612z M13.224 6.612h2.204v2.204h-2.204z M17.633 6.612h2.204v2.204h-2.204z M26.449 6.612h4.408v2.204h-4.408z M35.265 6.612h2.204v2.204h-2.204z M39.673 6.612h4.408v2.204h-4.408z M46.286 6.612h2.204v2.204h-2.204z M50.694 6.612h2.204v2.204h-2.204z M55.102 6.612h4.408v2.204h-4.408z M61.714 6.612h2.204v2.204h-2.204z M66.122 6.612h4.408v2.204h-4.408z M81.551 6.612h2.204v2.204h-2.204z M85.959 6.612h2.204v2.204h-2.204z M92.571 6.612h2.204v2.204h-2.204z M96.98 6.612h6.612v2.204h-6.612z M105.796 6.612h2.204v2.204h-2.204z M0.0 8.816h2.204v2.204h-2.204z M4.408 8.816h6.612v2.204h-6.612z M13.224 8.816h2.204v2.204h-2.204z M17.633 8.816h4.408v2.204h-4.408z M26.449 8.816h4.408v2.204h-4.408z M35.265 8.816h2.204v2.204h-2.204z M41.878 8.816h4.408v2.204h-4.408z M48.49 8.816h19.837v2.204h-19.837z M72.735 8.816h2.204v2.204h-2.204z M77.143 8.816h4.408v2.204h-4.408z M92.571 8.816h2.204v2.204h-2.204z M96.98 8.816h6.612v2.204h-6.612z M105.796 8.816h2.204v2.204h-2.204z M0.0 11.02h2.204v2.204h-2.204z M13.224 11.02h2.204v2.204h-2.204z M17.633 11.02h2.204v2.204h-2.204z M30.857 11.02h2.204v2.204h-2.204z M35.265 11.02h2.204v2.204h-2.204z M39.673 11.02h2.204v2.204h-2.204z M44.082 11.02h6.612v2.204h-6.612z M57.306 11.02h4.408v2.204h-4.408z M68.327 11.02h2.204v2.204h-2.204z M74.939 11.02h2.204v2.204h-2.204z M81.551 11.02h4.408v2.204h-4.408z M92.571 11.02h2.204v2.204h-2.204z M105.796 11.02h2.204v2.204h-2.204z M0.0 13.224h15.429v2.204h-15.429z M17.633 13.224h2.204v2.204h-2.204z M22.041 13.224h2.204v2.204h-2.204z M26.449 13.224h2.204v2.204h-2.204z M30.857 13.224h2.204v2.204h-2.204z M35.265 13.224h2.204v2.204h-2.204z M39.673 13.224h2.204v2.204h-2.204z M44.082 13.224h2.204v2.204h-2.204z M48.49 13.224h2.204v2.204h-2.204z M52.898 13.224h2.204v2.204h-2.204z M57.306 13.224h2.204v2.204h-2.204z M61.714 13.224h2.204v2.204h-2.204z M66.122 13.224h2.204v2.204h-2.204z M70.531 13.224h2.204v2.204h-2.204z M74.939 13.224h2.204v2.204h-2.204z M79.347 13.224h2.204v2.204h-2.204z M83.755 13.224h2.204v2.204h-2.204z M88.163 13.224h2.204v2.204h-2.204z M92.571 13.224h15.429v2.204h-15.429z M17.633 15.429h6.612v2.204h-6.612z M26.449 15.429h2.204v2.204h-2.204z M30.857 15.429h4.408v2.204h-4.408z M39.673 15.429h2.204v2.204h-2.204z M48.49 15.429h2.204v2.204h-2.204z M57.306 15.429h2.204v2.204h-2.204z M68.327 15.429h2.204v2.204h-2.204z M72.735 15.429h6.612v2.204h-6.612z M88.163 15.429h2.204v2.204h-2.204z M0.0 17.633h2.204v2.204h-2.204z M8.816 17.633h2.204v2.204h-2.204z M13.224 17.633h8.816v2.204h-8.816z M24.245 17.633h4.408v2.204h-4.408z M35.265 17.633h8.816v2.204h-8.816z M46.286 17.633h15.429v2.204h-15.429z M63.918 17.633h4.408v2.204h-4.408z M70.531 17.633h11.02v2.204h-11.02z M88.163 17.633h13.224v2.204h-13.224z M105.796 17.633h2.204v2.204h-2.204z M2.204 19.837h2.204v2.204h-2.204z M8.816 19.837h4.408v2.204h-4.408z M15.429 19.837h2.204v2.204h-2.204z M24.245 19.837h2.204v2.204h-2.204z M28.653 19.837h13.224v2.204h-13.224z M44.082 19.837h4.408v2.204h-4.408z M50.694 19.837h4.408v2.204h-4.408z M57.306 19.837h4.408v2.204h-4.408z M63.918 19.837h4.408v2.204h-4.408z M72.735 19.837h2.204v2.204h-2.204z M77.143 19.837h2.204v2.204h-2.204z M83.755 19.837h4.408v2.204h-4.408z M90.367 19.837h4.408v2.204h-4.408z M96.98 19.837h2.204v2.204h-2.204z M103.592 19.837h2.204v2.204h-2.204z M0.0 22.041h15.429v2.204h-15.429z M17.633 22.041h2.204v2.204h-2.204z M22.041 22.041h2.204v2.204h-2.204z M26.449 22.041h2.204v2.204h-2.204z M35.265 22.041h4.408v2.204h-4.408z M41.878 22.041h2.204v2.204h-2.204z M48.49 22.041h4.408v2.204h-4.408z M55.102 22.041h4.408v2.204h-4.408z M61.714 22.041h2.204v2.204h-2.204z M66.122 22.041h8.816v2.204h-8.816z M79.347 22.041h4.408v2.204h-4.408z M92.571 22.041h4.408v2.204h-4.408z M99.184 22.041h6.612v2.204h-6.612z M0.0 24.245h2.204v2.204h-2.204z M33.061 24.245h6.612v2.204h-6.612z M41.878 24.245h2.204v2.204h-2.204z M48.49 24.245h4.408v2.204h-4.408z M59.51 24.245h2.204v2.204h-2.204z M66.122 24.245h2.204v2.204h-2.204z M70.531 24.245h2.204v2.204h-2.204z M79.347 24.245h4.408v2.204h-4.408z M88.163 24.245h6.612v2.204h-6.612z M99.184 24.245h4.408v2.204h-4.408z M105.796 24.245h2.204v2.204h-2.204z M2.204 26.449h2.204v2.204h-2.204z M8.816 26.449h2.204v2.204h-2.204z M13.224 26.449h2.204v2.204h-2.204z M19.837 26.449h4.408v2.204h-4.408z M26.449 26.449h2.204v2.204h-2.204z M30.857 26.449h2.204v2.204h-2.204z M37.469 26.449h17.633v2.204h-17.633z M63.918 26.449h2.204v2.204h-2.204z M70.531 26.449h11.02v2.204h-11.02z M85.959 26.449h4.408v2.204h-4.408z M96.98 26.449h8.816v2.204h-8.816z M0.0 28.653h4.408v2.204h-4.408z M15.429 28.653h2.204v2.204h-2.204z M19.837 28.653h2.204v2.204h-2.204z M30.857 28.653h2.204v2.204h-2.204z M35.265 28.653h2.204v2.204h-2.204z M46.286 28.653h6.612v2.204h-6.612z M57.306 28.653h4.408v2.204h-4.408z M63.918 28.653h4.408v2.204h-4.408z M72.735 28.653h2.204v2.204h-2.204z M79.347 28.653h2.204v2.204h-2.204z M83.755 28.653h2.204v2.204h-2.204z M92.571 28.653h2.204v2.204h-2.204z M96.98 28.653h8.816v2.204h-8.816z M4.408 30.857h4.408v2.204h-4.408z M11.02 30.857h4.408v2.204h-4.408z M17.633 30.857h2.204v2.204h-2.204z M22.041 30.857h2.204v2.204h-2.204z M28.653 30.857h2.204v2.204h-2.204z M39.673 30.857h2.204v2.204h-2.204z M44.082 30.857h4.408v2.204h-4.408z M52.898 30.857h4.408v2.204h-4.408z M63.918 30.857h6.612v2.204h-6.612z M72.735 30.857h4.408v2.204h-4.408z M83.755 30.857h2.204v2.204h-2.204z M90.367 30.857h6.612v2.204h-6.612z M0.0 33.061h4.408v2.204h-4.408z M6.612 33.061h6.612v2.204h-6.612z M15.429 33.061h4.408v2.204h-4.408z M24.245 33.061h2.204v2.204h-2.204z M28.653 33.061h8.816v2.204h-8.816z M39.673 33.061h6.612v2.204h-6.612z M50.694 33.061h4.408v2.204h-4.408z M57.306 33.061h6.612v2.204h-6.612z M66.122 33.061h2.204v2.204h-2.204z M74.939 33.061h2.204v2.204h-2.204z M79.347 33.061h6.612v2.204h-6.612z M88.163 33.061h4.408v2.204h-4.408z M94.776 33.061h4.408v2.204h-4.408z M101.388 33.061h4.408v2.204h-4.408z M0.0 35.265h4.408v2.204h-4.408z M6.612 35.265h2.204v2.204h-2.204z M11.02 35.265h8.816v2.204h-8.816z M22.041 35.265h4.408v2.204h-4.408z M28.653 35.265h2.204v2.204h-2.204z M35.265 35.265h4.408v2.204h-4.408z M41.878 35.265h2.204v2.204h-2.204z M50.694 35.265h4.408v2.204h-4.408z M57.306 35.265h6.612v2.204h-6.612z M77.143 35.265h6.612v2.204h-6.612z M85.959 35.265h2.204v2.204h-2.204z M94.776 35.265h6.612v2.204h-6.612z M0.0 37.469h4.408v2.204h-4.408z M6.612 37.469h2.204v2.204h-2.204z M11.02 37.469h2.204v2.204h-2.204z M22.041 37.469h4.408v2.204h-4.408z M33.061 37.469h4.408v2.204h-4.408z M39.673 37.469h2.204v2.204h-2.204z M44.082 37.469h2.204v2.204h-2.204z M50.694 37.469h4.408v2.204h-4.408z M57.306 37.469h2.204v2.204h-2.204z M61.714 37.469h4.408v2.204h-4.408z M68.327 37.469h2.204v2.204h-2.204z M77.143 37.469h2.204v2.204h-2.204z M83.755 37.469h4.408v2.204h-4.408z M92.571 37.469h4.408v2.204h-4.408z M99.184 37.469h2.204v2.204h-2.204z M103.592 37.469h4.408v2.204h-4.408z M2.204 39.673h2.204v2.204h-2.204z M6.612 39.673h2.204v2.204h-2.204z M13.224 39.673h2.204v2.204h-2.204z M30.857 39.673h2.204v2.204h-2.204z M35.265 39.673h6.612v2.204h-6.612z M50.694 39.673h2.204v2.204h-2.204z M57.306 39.673h2.204v2.204h-2.204z M63.918 39.673h2.204v2.204h-2.204z M68.327 39.673h6.612v2.204h-6.612z M79.347 39.673h4.408v2.204h-4.408z M90.367 39.673h4.408v2.204h-4.408z M99.184 39.673h4.408v2.204h-4.408z M0.0 41.878h2.204v2.204h-2.204z M4.408 41.878h6.612v2.204h-6.612z M19.837 41.878h2.204v2.204h-2.204z M24.245 41.878h2.204v2.204h-2.204z M30.857 41.878h2.204v2.204h-2.204z M46.286 41.878h4.408v2.204h-4.408z M52.898 41.878h8.816v2.204h-8.816z M66.122 41.878h2.204v2.204h-2.204z M70.531 41.878h2.204v2.204h-2.204z M77.143 41.878h4.408v2.204h-4.408z M88.163 41.878h4.408v2.204h-4.408z M94.776 41.878h4.408v2.204h-4.408z M101.388 41.878h6.612v2.204h-6.612z M2.204 44.082h8.816v2.204h-8.816z M13.224 44.082h6.612v2.204h-6.612z M30.857 44.082h2.204v2.204h-2.204z M35.265 44.082h6.612v2.204h-6.612z M44.082 44.082h2.204v2.204h-2.204z M48.49 44.082h8.816v2.204h-8.816z M59.51 44.082h2.204v2.204h-2.204z M70.531 44.082h11.02v2.204h-11.02z M88.163 44.082h4.408v2.204h-4.408z M94.776 44.082h11.02v2.204h-11.02z M2.204 46.286h2.204v2.204h-2.204z M8.816 46.286h4.408v2.204h-4.408z M19.837 46.286h4.408v2.204h-4.408z M26.449 46.286h2.204v2.204h-2.204z M33.061 46.286h4.408v2.204h-4.408z M44.082 46.286h4.408v2.204h-4.408z M50.694 46.286h2.204v2.204h-2.204z M59.51 46.286h2.204v2.204h-2.204z M66.122 46.286h2.204v2.204h-2.204z M72.735 46.286h2.204v2.204h-2.204z M79.347 46.286h2.204v2.204h-2.204z M83.755 46.286h4.408v2.204h-4.408z M92.571 46.286h2.204v2.204h-2.204z M103.592 46.286h2.204v2.204h-2.204z M0.0 48.49h4.408v2.204h-4.408z M8.816 48.49h11.02v2.204h-11.02z M28.653 48.49h2.204v2.204h-2.204z M33.061 48.49h6.612v2.204h-6.612z M41.878 48.49h2.204v2.204h-2.204z M46.286 48.49h13.224v2.204h-13.224z M61.714 48.49h8.816v2.204h-8.816z M72.735 48.49h2.204v2.204h-2.204z M77.143 48.49h4.408v2.204h-4.408z M83.755 48.49h22.041v2.204h-22.041z M0.0 50.694h2.204v2.204h-2.204z M4.408 50.694h2.204v2.204h-2.204z M8.816 50.694h2.204v2.204h-2.204z M17.633 50.694h6.612v2.204h-6.612z M28.653 50.694h2.204v2.204h-2.204z M35.265 50.694h4.408v2.204h-4.408z M44.082 50.694h2.204v2.204h-2.204z M48.49 50.694h2.204v2.204h-2.204z M57.306 50.694h4.408v2.204h-4.408z M63.918 50.694h2.204v2.204h-2.204z M68.327 50.694h2.204v2.204h-2.204z M81.551 50.694h8.816v2.204h-8.816z M96.98 50.694h11.02v2.204h-11.02z M0.0 52.898h4.408v2.204h-4.408z M6.612 52.898h4.408v2.204h-4.408z M13.224 52.898h2.204v2.204h-2.204z M17.633 52.898h2.204v2.204h-2.204z M28.653 52.898h2.204v2.204h-2.204z M35.265 52.898h6.612v2.204h-6.612z M48.49 52.898h2.204v2.204h-2.204z M52.898 52.898h2.204v2.204h-2.204z M57.306 52.898h4.408v2.204h-4.408z M66.122 52.898h2.204v2.204h-2.204z M70.531 52.898h2.204v2.204h-2.204z M77.143 52.898h4.408v2.204h-4.408z M85.959 52.898h4.408v2.204h-4.408z M92.571 52.898h2.204v2.204h-2.204z M96.98 52.898h6.612v2.204h-6.612z M105.796 52.898h2.204v2.204h-2.204z M2.204 55.102h2.204v2.204h-2.204z M8.816 55.102h2.204v2.204h-2.204z M17.633 55.102h4.408v2.204h-4.408z M24.245 55.102h4.408v2.204h-4.408z M33.061 55.102h2.204v2.204h-2.204z M39.673 55.102h11.02v2.204h-11.02z M57.306 55.102h2.204v2.204h-2.204z M63.918 55.102h11.02v2.204h-11.02z M79.347 55.102h2.204v2.204h-2.204z M83.755 55.102h2.204v2.204h-2.204z M88.163 55.102h2.204v2.204h-2.204z M96.98 55.102h2.204v2.204h-2.204z M0.0 57.306h2.204v2.204h-2.204z M4.408 57.306h15.429v2.204h-15.429z M22.041 57.306h2.204v2.204h-2.204z M33.061 57.306h4.408v2.204h-4.408z M48.49 57.306h11.02v2.204h-11.02z M61.714 57.306h8.816v2.204h-8.816z M72.735 57.306h2.204v2.204h-2.204z M77.143 57.306h2.204v2.204h-2.204z M85.959 57.306h15.429v2.204h-15.429z M103.592 57.306h2.204v2.204h-2.204z M2.204 59.51h4.408v2.204h-4.408z M8.816 59.51h4.408v2.204h-4.408z M15.429 59.51h2.204v2.204h-2.204z M19.837 59.51h4.408v2.204h-4.408z M26.449 59.51h2.204v2.204h-2.204z M30.857 59.51h2.204v2.204h-2.204z M35.265 59.51h4.408v2.204h-4.408z M46.286 59.51h6.612v2.204h-6.612z M59.51 59.51h2.204v2.204h-2.204z M63.918 59.51h4.408v2.204h-4.408z M70.531 59.51h6.612v2.204h-6.612z M79.347 59.51h4.408v2.204h-4.408z M92.571 59.51h2.204v2.204h-2.204z M99.184 59.51h8.816v2.204h-8.816z M0.0 61.714h2.204v2.204h-2.204z M4.408 61.714h4.408v2.204h-4.408z M13.224 61.714h4.408v2.204h-4.408z M19.837 61.714h2.204v2.204h-2.204z M24.245 61.714h2.204v2.204h-2.204z M30.857 61.714h2.204v2.204h-2.204z M44.082 61.714h2.204v2.204h-2.204z M48.49 61.714h2.204v2.204h-2.204z M52.898 61.714h8.816v2.204h-8.816z M63.918 61.714h2.204v2.204h-2.204z M70.531 61.714h2.204v2.204h-2.204z M74.939 61.714h6.612v2.204h-6.612z M83.755 61.714h2.204v2.204h-2.204z M88.163 61.714h2.204v2.204h-2.204z M92.571 61.714h4.408v2.204h-4.408z M99.184 61.714h8.816v2.204h-8.816z M4.408 63.918h4.408v2.204h-4.408z M11.02 63.918h2.204v2.204h-2.204z M17.633 63.918h2.204v2.204h-2.204z M24.245 63.918h4.408v2.204h-4.408z M30.857 63.918h4.408v2.204h-4.408z M39.673 63.918h6.612v2.204h-6.612z M48.49 63.918h4.408v2.204h-4.408z M55.102 63.918h13.224v2.204h-13.224z M70.531 63.918h4.408v2.204h-4.408z M83.755 63.918h2.204v2.204h-2.204z M96.98 63.918h2.204v2.204h-2.204z M0.0 66.122h2.204v2.204h-2.204z M6.612 66.122h4.408v2.204h-4.408z M13.224 66.122h2.204v2.204h-2.204z M19.837 66.122h2.204v2.204h-2.204z M24.245 66.122h8.816v2.204h-8.816z M37.469 66.122h2.204v2.204h-2.204z M41.878 66.122h2.204v2.204h-2.204z M50.694 66.122h6.612v2.204h-6.612z M72.735 66.122h2.204v2.204h-2.204z M77.143 66.122h2.204v2.204h-2.204z M81.551 66.122h2.204v2.204h-2.204z M88.163 66.122h2.204v2.204h-2.204z M96.98 66.122h2.204v2.204h-2.204z M6.612 68.327h4.408v2.204h-4.408z M15.429 68.327h2.204v2.204h-2.204z M22.041 68.327h2.204v2.204h-2.204z M30.857 68.327h4.408v2.204h-4.408z M46.286 68.327h2.204v2.204h-2.204z M52.898 68.327h2.204v2.204h-2.204z M57.306 68.327h2.204v2.204h-2.204z M61.714 68.327h4.408v2.204h-4.408z M68.327 68.327h2.204v2.204h-2.204z M77.143 68.327h11.02v2.204h-11.02z M90.367 68.327h6.612v2.204h-6.612z M101.388 68.327h4.408v2.204h-4.408z M8.816 70.531h6.612v2.204h-6.612z M33.061 70.531h2.204v2.204h-2.204z M37.469 70.531h2.204v2.204h-2.204z M50.694 70.531h4.408v2.204h-4.408z M63.918 70.531h17.633v2.204h-17.633z M88.163 70.531h4.408v2.204h-4.408z M94.776 70.531h4.408v2.204h-4.408z M101.388 70.531h6.612v2.204h-6.612z M4.408 72.735h2.204v2.204h-2.204z M11.02 72.735h2.204v2.204h-2.204z M19.837 72.735h2.204v2.204h-2.204z M24.245 72.735h11.02v2.204h-11.02z M37.469 72.735h4.408v2.204h-4.408z M44.082 72.735h2.204v2.204h-2.204z M48.49 72.735h6.612v2.204h-6.612z M59.51 72.735h2.204v2.204h-2.204z M66.122 72.735h2.204v2.204h-2.204z M70.531 72.735h2.204v2.204h-2.204z M79.347 72.735h2.204v2.204h-2.204z M83.755 72.735h8.816v2.204h-8.816z M96.98 72.735h4.408v2.204h-4.408z M0.0 74.939h11.02v2.204h-11.02z M13.224 74.939h4.408v2.204h-4.408z M22.041 74.939h2.204v2.204h-2.204z M26.449 74.939h13.224v2.204h-13.224z M41.878 74.939h15.429v2.204h-15.429z M59.51 74.939h4.408v2.204h-4.408z M72.735 74.939h4.408v2.204h-4.408z M79.347 74.939h2.204v2.204h-2.204z M90.367 74.939h2.204v2.204h-2.204z M94.776 74.939h8.816v2.204h-8.816z M8.816 77.143h4.408v2.204h-4.408z M15.429 77.143h8.816v2.204h-8.816z M26.449 77.143h4.408v2.204h-4.408z M33.061 77.143h13.224v2.204h-13.224z M52.898 77.143h2.204v2.204h-2.204z M59.51 77.143h2.204v2.204h-2.204z M66.122 77.143h2.204v2.204h-2.204z M70.531 77.143h2.204v2.204h-2.204z M74.939 77.143h2.204v2.204h-2.204z M79.347 77.143h2.204v2.204h-2.204z M83.755 77.143h4.408v2.204h-4.408z M90.367 77.143h8.816v2.204h-8.816z M101.388 77.143h2.204v2.204h-2.204z M2.204 79.347h8.816v2.204h-8.816z M13.224 79.347h2.204v2.204h-2.204z M17.633 79.347h2.204v2.204h-2.204z M22.041 79.347h4.408v2.204h-4.408z M28.653 79.347h13.224v2.204h-13.224z M46.286 79.347h4.408v2.204h-4.408z M59.51 79.347h2.204v2.204h-2.204z M70.531 79.347h2.204v2.204h-2.204z M79.347 79.347h6.612v2.204h-6.612z M88.163 79.347h4.408v2.204h-4.408z M99.184 79.347h4.408v2.204h-4.408z M105.796 79.347h2.204v2.204h-2.204z M0.0 81.551h4.408v2.204h-4.408z M11.02 81.551h2.204v2.204h-2.204z M17.633 81.551h17.633v2.204h-17.633z M37.469 81.551h2.204v2.204h-2.204z M44.082 81.551h2.204v2.204h-2.204z M48.49 81.551h6.612v2.204h-6.612z M61.714 81.551h8.816v2.204h-8.816z M72.735 81.551h2.204v2.204h-2.204z M79.347 81.551h6.612v2.204h-6.612z M90.367 81.551h2.204v2.204h-2.204z M94.776 81.551h4.408v2.204h-4.408z M103.592 81.551h2.204v2.204h-2.204z M2.204 83.755h2.204v2.204h-2.204z M11.02 83.755h4.408v2.204h-4.408z M17.633 83.755h2.204v2.204h-2.204z M22.041 83.755h4.408v2.204h-4.408z M30.857 83.755h2.204v2.204h-2.204z M35.265 83.755h2.204v2.204h-2.204z M39.673 83.755h2.204v2.204h-2.204z M44.082 83.755h2.204v2.204h-2.204z M48.49 83.755h8.816v2.204h-8.816z M59.51 83.755h13.224v2.204h-13.224z M77.143 83.755h4.408v2.204h-4.408z M83.755 83.755h4.408v2.204h-4.408z M94.776 83.755h4.408v2.204h-4.408z M101.388 83.755h4.408v2.204h-4.408z M2.204 85.959h6.612v2.204h-6.612z M15.429 85.959h13.224v2.204h-13.224z M30.857 85.959h4.408v2.204h-4.408z M46.286 85.959h2.204v2.204h-2.204z M50.694 85.959h4.408v2.204h-4.408z M57.306 85.959h2.204v2.204h-2.204z M70.531 85.959h2.204v2.204h-2.204z M81.551 85.959h2.204v2.204h-2.204z M90.367 85.959h2.204v2.204h-2.204z M94.776 85.959h8.816v2.204h-8.816z M105.796 85.959h2.204v2.204h-2.204z M0.0 88.163h6.612v2.204h-6.612z M13.224 88.163h2.204v2.204h-2.204z M19.837 88.163h8.816v2.204h-8.816z M30.857 88.163h6.612v2.204h-6.612z M48.49 88.163h13.224v2.204h-13.224z M66.122 88.163h2.204v2.204h-2.204z M70.531 88.163h11.02v2.204h-11.02z M88.163 88.163h11.02v2.204h-11.02z M101.388 88.163h4.408v2.204h-4.408z M17.633 90.367h4.408v2.204h-4.408z M30.857 90.367h4.408v2.204h-4.408z M39.673 90.367h6.612v2.204h-6.612z M48.49 90.367h2.204v2.204h-2.204z M57.306 90.367h4.408v2.204h-4.408z M63.918 90.367h4.408v2.204h-4.408z M70.531 90.367h4.408v2.204h-4.408z M77.143 90.367h2.204v2.204h-2.204z M83.755 90.367h6.612v2.204h-6.612z M96.98 90.367h4.408v2.204h-4.408z M103.592 90.367h2.204v2.204h-2.204z M0.0 92.571h15.429v2.204h-15.429z M17.633 92.571h4.408v2.204h-4.408z M35.265 92.571h6.612v2.204h-6.612z M44.082 92.571h2.204v2.204h-2.204z M48.49 92.571h2.204v2.204h-2.204z M52.898 92.571h2.204v2.204h-2.204z M57.306 92.571h13.224v2.204h-13.224z M77.143 92.571h2.204v2.204h-2.204z M88.163 92.571h2.204v2.204h-2.204z M92.571 92.571h2.204v2.204h-2.204z M96.98 92.571h4.408v2.204h-4.408z M103.592 92.571h2.204v2.204h-2.204z M0.0 94.776h2.204v2.204h-2.204z M13.224 94.776h2.204v2.204h-2.204z M19.837 94.776h11.02v2.204h-11.02z M33.061 94.776h2.204v2.204h-2.204z M46.286 94.776h4.408v2.204h-4.408z M57.306 94.776h4.408v2.204h-4.408z M66.122 94.776h2.204v2.204h-2.204z M70.531 94.776h6.612v2.204h-6.612z M79.347 94.776h6.612v2.204h-6.612z M88.163 94.776h2.204v2.204h-2.204z M96.98 94.776h2.204v2.204h-2.204z M101.388 94.776h6.612v2.204h-6.612z M0.0 96.98h2.204v2.204h-2.204z M4.408 96.98h6.612v2.204h-6.612z M13.224 96.98h2.204v2.204h-2.204z M17.633 96.98h4.408v2.204h-4.408z M24.245 96.98h4.408v2.204h-4.408z M35.265 96.98h2.204v2.204h-2.204z M39.673 96.98h22.041v2.204h-22.041z M63.918 96.98h2.204v2.204h-2.204z M70.531 96.98h4.408v2.204h-4.408z M79.347 96.98h2.204v2.204h-2.204z M85.959 96.98h15.429v2.204h-15.429z M105.796 96.98h2.204v2.204h-2.204z M0.0 99.184h2.204v2.204h-2.204z M4.408 99.184h6.612v2.204h-6.612z M13.224 99.184h2.204v2.204h-2.204z M22.041 99.184h2.204v2.204h-2.204z M28.653 99.184h4.408v2.204h-4.408z M37.469 99.184h4.408v2.204h-4.408z M46.286 99.184h6.612v2.204h-6.612z M55.102 99.184h15.429v2.204h-15.429z M72.735 99.184h2.204v2.204h-2.204z M83.755 99.184h2.204v2.204h-2.204z M88.163 99.184h2.204v2.204h-2.204z M92.571 99.184h2.204v2.204h-2.204z M99.184 99.184h4.408v2.204h-4.408z M105.796 99.184h2.204v2.204h-2.204z M0.0 101.388h2.204v2.204h-2.204z M4.408 101.388h6.612v2.204h-6.612z M13.224 101.388h2.204v2.204h-2.204z M19.837 101.388h6.612v2.204h-6.612z M35.265 101.388h6.612v2.204h-6.612z M44.082 101.388h6.612v2.204h-6.612z M55.102 101.388h2.204v2.204h-2.204z M59.51 101.388h4.408v2.204h-4.408z M72.735 101.388h2.204v2.204h-2.204z M79.347 101.388h4.408v2.204h-4.408z M88.163 101.388h8.816v2.204h-8.816z M103.592 101.388h4.408v2.204h-4.408z M0.0 103.592h2.204v2.204h-2.204z M13.224 103.592h2.204v2.204h-2.204z M26.449 103.592h13.224v2.204h-13.224z M41.878 103.592h6.612v2.204h-6.612z M52.898 103.592h2.204v2.204h-2.204z M59.51 103.592h4.408v2.204h-4.408z M66.122 103.592h2.204v2.204h-2.204z M77.143 103.592h4.408v2.204h-4.408z M88.163 103.592h2.204v2.204h-2.204z M101.388 103.592h4.408v2.204h-4.408z M0.0 105.796h15.429v2.204h-15.429z M17.633 105.796h6.612v2.204h-6.612z M26.449 105.796h6.612v2.204h-6.612z M35.265 105.796h8.816v2.204h-8.816z M46.286 105.796h2.204v2.204h-2.204z M50.694 105.796h2.204v2.204h-2.204z M57.306 105.796h6.612v2.204h-6.612z M74.939 105.796h6.612v2.204h-6.612z M85.959 105.796h2.204v2.204h-2.204z M90.367 105.796h17.633v2.204h-17.633z"/>
</g>
<text x="1134" y="486" font-family="Inter, Helvetica, Arial, sans-serif" font-size="10" font-weight="700" fill="#F5F7FA" text-anchor="middle">scan / full post</text>
</svg>
