<svg xmlns="http://www.w3.org/2000/svg" viewBox="0 0 1200 630" width="1200" height="630" role="img" aria-label="Research-based weekly digest cover: Android 129 CVEs Qualcomm Zero-Day, VMware Aria KEV, DevSecOps 87pct vulnerable orgs">
<title>Weekly digest 2026-03-07: Android 129 CVEs (CVE-2026-21385), VMware Aria KEV (CVE-2026-22719), DevSecOps 87% vulnerable</title>
<!-- profile: high-quality-cover (L22 Stacked Bands, research-based, batch3a-locked) -->
<defs>
  <linearGradient id="bgBase" x1="0%" y1="0%" x2="100%" y2="100%">
    <stop offset="0%" stop-color="#0A1226"/>
    <stop offset="50%" stop-color="#0C1430"/>
    <stop offset="100%" stop-color="#131038"/>
  </linearGradient>
  <linearGradient id="bandA" x1="0%" y1="0%" x2="100%" y2="0%">
    <stop offset="0%" stop-color="#0B1C2E"/>
    <stop offset="100%" stop-color="#0F2338"/>
  </linearGradient>
  <linearGradient id="bandB" x1="0%" y1="0%" x2="100%" y2="0%">
    <stop offset="0%" stop-color="#1A0C2E"/>
    <stop offset="100%" stop-color="#220F38"/>
  </linearGradient>
  <linearGradient id="bandC" x1="0%" y1="0%" x2="100%" y2="0%">
    <stop offset="0%" stop-color="#1C1008"/>
    <stop offset="100%" stop-color="#241810"/>
  </linearGradient>
  <linearGradient id="barA" x1="0%" y1="0%" x2="0%" y2="100%">
    <stop offset="0%" stop-color="#22D3EE"/>
    <stop offset="100%" stop-color="#0EA5E9"/>
  </linearGradient>
  <linearGradient id="barB" x1="0%" y1="0%" x2="0%" y2="100%">
    <stop offset="0%" stop-color="#E63946"/>
    <stop offset="100%" stop-color="#C1121F"/>
  </linearGradient>
  <linearGradient id="barC" x1="0%" y1="0%" x2="0%" y2="100%">
    <stop offset="0%" stop-color="#F97316"/>
    <stop offset="100%" stop-color="#EA580C"/>
  </linearGradient>
  <linearGradient id="kpiA" x1="0%" y1="0%" x2="0%" y2="100%">
    <stop offset="0%" stop-color="#0E2A40"/>
    <stop offset="100%" stop-color="#0A1B2E"/>
  </linearGradient>
  <linearGradient id="kpiB" x1="0%" y1="0%" x2="0%" y2="100%">
    <stop offset="0%" stop-color="#220E3A"/>
    <stop offset="100%" stop-color="#160924"/>
  </linearGradient>
  <linearGradient id="kpiC" x1="0%" y1="0%" x2="0%" y2="100%">
    <stop offset="0%" stop-color="#2A1608"/>
    <stop offset="100%" stop-color="#1C0E04"/>
  </linearGradient>
  <radialGradient id="glowA" cx="50%" cy="50%" r="50%">
    <stop offset="0%" stop-color="#22D3EE" stop-opacity="0.18"/>
    <stop offset="100%" stop-color="#22D3EE" stop-opacity="0"/>
  </radialGradient>
  <radialGradient id="glowB" cx="50%" cy="50%" r="50%">
    <stop offset="0%" stop-color="#E63946" stop-opacity="0.18"/>
    <stop offset="100%" stop-color="#E63946" stop-opacity="0"/>
  </radialGradient>
  <radialGradient id="glowC" cx="50%" cy="50%" r="50%">
    <stop offset="0%" stop-color="#F97316" stop-opacity="0.18"/>
    <stop offset="100%" stop-color="#F97316" stop-opacity="0"/>
  </radialGradient>
  <filter id="softShadow" x="-10%" y="-10%" width="130%" height="130%">
    <feGaussianBlur in="SourceAlpha" stdDeviation="2.5"/>
    <feOffset dx="1" dy="3"/>
    <feComponentTransfer><feFuncA type="linear" slope="0.5"/></feComponentTransfer>
    <feMerge><feMergeNode/><feMergeNode in="SourceGraphic"/></feMerge>
  </filter>
  <filter id="textGlow" x="-5%" y="-5%" width="110%" height="120%">
    <feGaussianBlur in="SourceAlpha" stdDeviation="1.5"/>
    <feOffset dx="0" dy="1"/>
    <feComponentTransfer><feFuncA type="linear" slope="0.8"/></feComponentTransfer>
    <feMerge><feMergeNode/><feMergeNode in="SourceGraphic"/></feMerge>
  </filter>
  <pattern id="dotGrid" x="0" y="0" width="20" height="20" patternUnits="userSpaceOnUse">
    <circle cx="10" cy="10" r="0.7" fill="#3A4A60" opacity="0.4"/>
  </pattern>
  <pattern id="lineGrid" x="0" y="0" width="40" height="16" patternUnits="userSpaceOnUse">
    <path d="M0 16 L40 16" stroke="#2A3A4E" stroke-width="0.4" opacity="0.5"/>
  </pattern>
</defs>

<!-- Background -->
<rect width="1200" height="630" fill="url(#bgBase)"/>

<!-- ===== BAND A (y=0-210): Android Zero-Day ===== -->
<rect x="0" y="0" width="1200" height="210" fill="url(#bandA)"/>
<rect x="0" y="0" width="1200" height="210" fill="url(#dotGrid)" opacity="0.5"/>
<rect x="1140" y="0" width="60" height="210" fill="url(#glowA)" opacity="0.6"/>
<rect x="0" y="0" width="8" height="210" fill="url(#barA)"/>

<!-- Illustration: Android shield -->
<g transform="translate(762,108)" filter="url(#softShadow)">
  <path d="M0,-72 L52,-52 L52,10 C52,42 28,64 0,72 C-28,64 -52,42 -52,10 L-52,-52 Z" fill="none" stroke="#22D3EE" stroke-width="2.5" opacity="0.2"/>
  <path d="M0,-58 L40,-42 L40,8 C40,34 22,52 0,60 C-22,52 -40,34 -40,8 L-40,-42 Z" fill="#22D3EE" fill-opacity="0.07" stroke="#22D3EE" stroke-width="1.5" opacity="0.55"/>
  <rect x="-22" y="-28" width="44" height="34" rx="8" fill="#22D3EE" opacity="0.82"/>
  <circle cx="-10" cy="-16" r="4" fill="#0B1C2E"/>
  <circle cx="10" cy="-16" r="4" fill="#0B1C2E"/>
  <rect x="-16" y="-2" width="32" height="4" rx="2" fill="#0B1C2E" opacity="0.65"/>
  <line x1="-10" y1="-28" x2="-16" y2="-42" stroke="#22D3EE" stroke-width="2" stroke-linecap="round" opacity="0.9"/>
  <line x1="10" y1="-28" x2="16" y2="-42" stroke="#22D3EE" stroke-width="2" stroke-linecap="round" opacity="0.9"/>
  <circle cx="-16" cy="-44" r="2.5" fill="#22D3EE" opacity="0.9"/>
  <circle cx="16" cy="-44" r="2.5" fill="#22D3EE" opacity="0.9"/>
  <circle cx="38" cy="-50" r="16" fill="#E63946" opacity="0.95"/>
  <text x="38" y="-44" text-anchor="middle" font-family="Inter, Helvetica, Arial, sans-serif" font-size="9" font-weight="900" fill="#FFF">CVE</text>
  <text x="38" y="-33" text-anchor="middle" font-family="Inter, Helvetica, Arial, sans-serif" font-size="9" font-weight="700" fill="#FFF">!</text>
  <circle cx="0" cy="0" r="76" fill="none" stroke="#22D3EE" stroke-width="0.8" opacity="0.14">
    <animate attributeName="r" from="76" to="100" dur="3s" repeatCount="indefinite"/>
    <animate attributeName="opacity" from="0.14" to="0" dur="3s" repeatCount="indefinite"/>
  </circle>
  <circle cx="0" cy="0" r="76" fill="none" stroke="#22D3EE" stroke-width="0.8" opacity="0.1">
    <animate attributeName="r" from="76" to="100" dur="3s" begin="1.5s" repeatCount="indefinite"/>
    <animate attributeName="opacity" from="0.1" to="0" dur="3s" begin="1.5s" repeatCount="indefinite"/>
  </circle>
</g>

<!-- Band A text -->
<g filter="url(#textGlow)">
  <text x="30" y="42" font-family="Inter, Helvetica, Arial, sans-serif" font-size="16" font-weight="700" letter-spacing="2.5" fill="#22D3EE">ANDROID SECURITY</text>
  <text x="30" y="84" font-family="Inter, Helvetica, Arial, sans-serif" font-size="38" font-weight="800" fill="#F0F6FF">129 CVEs Patched</text>
  <text x="30" y="116" font-family="Inter, Helvetica, Arial, sans-serif" font-size="18" font-weight="600" fill="#7DD3FC">Qualcomm Zero-Day CVE-2026-21385 Active Exploitation</text>
  <text x="30" y="144" font-family="Inter, Helvetica, Arial, sans-serif" font-size="14" font-weight="500" fill="#94A3B8">Memory corruption in display driver - 234 chipsets affected - Commercial spyware targeting</text>
  <text x="30" y="168" font-family="Inter, Helvetica, Arial, sans-serif" font-size="12" font-weight="500" fill="#64748B">CVSS 7.8 - Patch level 2026-03-05 required - MDM policy enforcement recommended</text>
</g>

<!-- Band A KPI card -->
<g transform="translate(993,106)" filter="url(#softShadow)">
  <rect x="-83" y="-63" width="178" height="122" rx="12" fill="url(#kpiA)" stroke="#22D3EE" stroke-width="1.8"/>
  <text x="6" y="-32" text-anchor="middle" font-family="Inter, Helvetica, Arial, sans-serif" font-size="11" font-weight="700" letter-spacing="2" fill="#22D3EE">VULNS PATCHED</text>
  <text x="6" y="28" text-anchor="middle" font-family="Inter, Helvetica, Arial, sans-serif" font-size="66" font-weight="900" fill="#F0F6FF">129</text>
  <text x="6" y="50" text-anchor="middle" font-family="Inter, Helvetica, Arial, sans-serif" font-size="11" font-weight="600" fill="#7DD3FC">10 Critical severity</text>
</g>

<line x1="0" y1="210" x2="1200" y2="210" stroke="#22D3EE" stroke-width="0.6" opacity="0.28"/>

<!-- ===== BAND B (y=210-420): VMware KEV ===== -->
<rect x="0" y="210" width="1200" height="210" fill="url(#bandB)"/>
<rect x="0" y="210" width="1200" height="210" fill="url(#lineGrid)" opacity="0.5"/>
<rect x="1140" y="210" width="60" height="210" fill="url(#glowB)" opacity="0.5"/>
<rect x="0" y="210" width="8" height="210" fill="url(#barB)"/>

<!-- Illustration: Server/exploit -->
<g transform="translate(762,316)" filter="url(#softShadow)">
  <rect x="-52" y="-56" width="104" height="16" rx="3" fill="#2A1028" stroke="#E63946" stroke-width="1.5" opacity="0.9"/>
  <rect x="-52" y="-35" width="104" height="16" rx="3" fill="#2A1028" stroke="#E63946" stroke-width="1.4" opacity="0.85"/>
  <rect x="-52" y="-14" width="104" height="16" rx="3" fill="#2A1028" stroke="#E63946" stroke-width="1.2" opacity="0.75"/>
  <rect x="-52" y="7" width="104" height="16" rx="3" fill="#2A1028" stroke="#E63946" stroke-width="1" opacity="0.6"/>
  <circle cx="-40" cy="-48" r="3" fill="#E63946">
    <animate attributeName="opacity" values="1;0.3;1" dur="1.2s" repeatCount="indefinite"/>
  </circle>
  <circle cx="-40" cy="-27" r="3" fill="#E63946">
    <animate attributeName="opacity" values="0.3;1;0.3" dur="1.2s" repeatCount="indefinite"/>
  </circle>
  <circle cx="-40" cy="-6" r="3" fill="#F97316" opacity="0.85"/>
  <circle cx="-40" cy="15" r="3" fill="#4ADE80" opacity="0.75"/>
  <path d="M57,-32 L72,-32 L72,32 L57,32" fill="none" stroke="#E63946" stroke-width="2" opacity="0.6"/>
  <polygon points="53,-32 63,-40 63,-24" fill="#E63946" opacity="0.85"/>
  <text x="72" y="-38" text-anchor="middle" font-family="Inter, Helvetica, Arial, sans-serif" font-size="9" font-weight="700" fill="#E63946">RCE</text>
  <rect x="-18" y="36" width="46" height="20" rx="4" fill="#E63946" opacity="0.95"/>
  <text x="5" y="50" text-anchor="middle" font-family="Inter, Helvetica, Arial, sans-serif" font-size="10" font-weight="900" fill="#FFF">KEV</text>
  <ellipse cx="0" cy="0" rx="80" ry="60" fill="none" stroke="#E63946" stroke-width="0.7" opacity="0.12">
    <animate attributeName="rx" from="80" to="105" dur="2.5s" repeatCount="indefinite"/>
    <animate attributeName="ry" from="60" to="82" dur="2.5s" repeatCount="indefinite"/>
    <animate attributeName="opacity" from="0.12" to="0" dur="2.5s" repeatCount="indefinite"/>
  </ellipse>
</g>

<!-- Band B text -->
<g filter="url(#textGlow)">
  <text x="30" y="252" font-family="Inter, Helvetica, Arial, sans-serif" font-size="16" font-weight="700" letter-spacing="2.5" fill="#E63946">VMWARE ACTIVE EXPLOITATION</text>
  <text x="30" y="294" font-family="Inter, Helvetica, Arial, sans-serif" font-size="38" font-weight="800" fill="#F0F6FF">Aria Operations KEV</text>
  <text x="30" y="326" font-family="Inter, Helvetica, Arial, sans-serif" font-size="18" font-weight="600" fill="#FCA5A5">CVE-2026-22719 CISA KEV Listed Unauthenticated RCE</text>
  <text x="30" y="354" font-family="Inter, Helvetica, Arial, sans-serif" font-size="14" font-weight="500" fill="#94A3B8">Arbitrary command execution without authentication - Virtualization infrastructure at risk</text>
  <text x="30" y="378" font-family="Inter, Helvetica, Arial, sans-serif" font-size="12" font-weight="500" fill="#64748B">Patch immediately - Restrict network access - Audit privilege escalation paths</text>
</g>

<!-- Band B KPI card -->
<g transform="translate(993,316)" filter="url(#softShadow)">
  <rect x="-83" y="-63" width="178" height="122" rx="12" fill="url(#kpiB)" stroke="#E63946" stroke-width="1.8"/>
  <text x="6" y="-32" text-anchor="middle" font-family="Inter, Helvetica, Arial, sans-serif" font-size="11" font-weight="700" letter-spacing="2" fill="#E63946">THREAT LEVEL</text>
  <text x="6" y="22" text-anchor="middle" font-family="Inter, Helvetica, Arial, sans-serif" font-size="44" font-weight="900" fill="#F0F6FF">CRIT</text>
  <text x="6" y="50" text-anchor="middle" font-family="Inter, Helvetica, Arial, sans-serif" font-size="11" font-weight="600" fill="#FCA5A5">KEV Active Exploit</text>
</g>

<line x1="0" y1="420" x2="1200" y2="420" stroke="#E63946" stroke-width="0.6" opacity="0.28"/>

<!-- ===== BAND C (y=420-630): DevSecOps ===== -->
<rect x="0" y="420" width="1200" height="210" fill="url(#bandC)"/>
<rect x="0" y="420" width="1200" height="210" fill="url(#dotGrid)" opacity="0.4"/>
<rect x="1140" y="420" width="60" height="210" fill="url(#glowC)" opacity="0.5"/>
<rect x="0" y="420" width="8" height="210" fill="url(#barC)"/>

<!-- Illustration: Pipeline/chart -->
<g transform="translate(762,526)" filter="url(#softShadow)">
  <rect x="-64" y="-40" width="16" height="55" rx="3" fill="#F97316" opacity="0.82"/>
  <rect x="-43" y="-56" width="16" height="71" rx="3" fill="#F97316" opacity="0.72"/>
  <rect x="-22" y="-30" width="16" height="45" rx="3" fill="#F97316" opacity="0.62"/>
  <rect x="-1" y="-66" width="16" height="81" rx="3" fill="#E63946" opacity="0.78"/>
  <rect x="20" y="-48" width="16" height="63" rx="3" fill="#F97316" opacity="0.68"/>
  <rect x="41" y="-38" width="16" height="53" rx="3" fill="#F97316" opacity="0.72"/>
  <line x1="-68" y1="-58" x2="62" y2="-58" stroke="#E63946" stroke-width="1.5" stroke-dasharray="4,3" opacity="0.75"/>
  <text x="-72" y="-62" font-family="Inter, Helvetica, Arial, sans-serif" font-size="9" font-weight="700" fill="#E63946">87%</text>
  <line x1="-68" y1="18" x2="68" y2="18" stroke="#F97316" stroke-width="1" opacity="0.38"/>
  <polygon points="0,36 -16,58 16,58" fill="#F97316" opacity="0.88"/>
  <text x="0" y="54" text-anchor="middle" font-family="Inter, Helvetica, Arial, sans-serif" font-size="12" font-weight="900" fill="#FFF">!</text>
  <line x1="-68" y1="-66" x2="-68" y2="20" stroke="#F97316" stroke-width="1.5" opacity="0">
    <animate attributeName="x1" from="-68" to="68" dur="2.8s" repeatCount="indefinite"/>
    <animate attributeName="x2" from="-68" to="68" dur="2.8s" repeatCount="indefinite"/>
    <animate attributeName="opacity" values="0;0.7;0" dur="2.8s" repeatCount="indefinite"/>
  </line>
</g>

<!-- Band C text -->
<g filter="url(#textGlow)">
  <text x="30" y="462" font-family="Inter, Helvetica, Arial, sans-serif" font-size="16" font-weight="700" letter-spacing="2.5" fill="#F97316">DEVSECOPS REPORT 2026</text>
  <text x="30" y="504" font-family="Inter, Helvetica, Arial, sans-serif" font-size="38" font-weight="800" fill="#F0F6FF">87% Orgs Exposed</text>
  <text x="30" y="536" font-family="Inter, Helvetica, Arial, sans-serif" font-size="18" font-weight="600" fill="#FDBA74">Datadog Report - Production Vulns - 278-Day Dependency Lag</text>
  <text x="30" y="564" font-family="Inter, Helvetica, Arial, sans-serif" font-size="14" font-weight="500" fill="#94A3B8">87% orgs have exploitable vulns in prod - VoidLink K8s malware - CI/CD token leaks</text>
  <text x="30" y="588" font-family="Inter, Helvetica, Arial, sans-serif" font-size="12" font-weight="500" fill="#64748B">Shorten patch SLA - Automate vuln scanning - Harden container runtime detection</text>
</g>

<!-- Band C KPI card -->
<g transform="translate(993,526)" filter="url(#softShadow)">
  <rect x="-83" y="-63" width="178" height="122" rx="12" fill="url(#kpiC)" stroke="#F97316" stroke-width="1.8"/>
  <text x="6" y="-32" text-anchor="middle" font-family="Inter, Helvetica, Arial, sans-serif" font-size="11" font-weight="700" letter-spacing="2" fill="#F97316">EXPOSED ORGS</text>
  <text x="6" y="28" text-anchor="middle" font-family="Inter, Helvetica, Arial, sans-serif" font-size="66" font-weight="900" fill="#F0F6FF">87%</text>
  <text x="6" y="50" text-anchor="middle" font-family="Inter, Helvetica, Arial, sans-serif" font-size="11" font-weight="600" fill="#FDBA74">Prod vulns exploitable</text>
</g>

<!-- ===== HEADER OVERLAY ===== -->
<rect x="8" y="0" width="1192" height="34" fill="#000" fill-opacity="0.35"/>
<text x="20" y="23" font-family="Inter, Helvetica, Arial, sans-serif" font-size="12" font-weight="700" letter-spacing="2" fill="#94A3B8">TECH SECURITY WEEKLY DIGEST</text>
<text x="1180" y="23" text-anchor="end" font-family="Inter, Helvetica, Arial, sans-serif" font-size="12" font-weight="700" letter-spacing="1.5" fill="#94A3B8">2026.03.07</text>

<!-- ===== FOOTER ===== -->
<rect x="8" y="608" width="1192" height="22" fill="#000" fill-opacity="0.4"/>
<text x="20" y="623" font-family="Inter, Helvetica, Arial, sans-serif" font-size="11" font-weight="500" letter-spacing="1" fill="#475569">tech.2twodragon.com</text>
<text x="1180" y="623" text-anchor="end" font-family="Inter, Helvetica, Arial, sans-serif" font-size="11" font-weight="500" letter-spacing="1" fill="#475569">Android - VMware KEV - DevSecOps</text>

<!-- cover-qr: https://tech.2twodragon.com/posts/2026/03/07/Tech_Security_Weekly_Digest_Android_Zero_Day_DevSecOps/ : 41x41 -->
<g transform="translate(1080,504)" filter="url(#softShadow)">
  <rect x="-8" y="-8" width="100" height="100" rx="6" fill="#FFFFFF"/>
  <path fill="#0A1020" d="M0.0 0.0h14.341v2.049h-14.341z M20.488 0.0h2.049v2.049h-2.049z M24.585 0.0h2.049v2.049h-2.049z M28.683 0.0h4.098v2.049h-4.098z M36.878 0.0h10.244v2.049h-10.244z M57.366 0.0h10.244v2.049h-10.244z M69.659 0.0h14.341v2.049h-14.341z M0.0 2.049h2.049v2.049h-2.049z M12.293 2.049h2.049v2.049h-2.049z M20.488 2.049h6.146v2.049h-6.146z M30.732 2.049h2.049v2.049h-2.049z M36.878 2.049h2.049v2.049h-2.049z M49.171 2.049h4.098v2.049h-4.098z M55.317 2.049h2.049v2.049h-2.049z M61.463 2.049h2.049v2.049h-2.049z M65.561 2.049h2.049v2.049h-2.049z M69.659 2.049h2.049v2.049h-2.049z M81.951 2.049h2.049v2.049h-2.049z M0.0 4.098h2.049v2.049h-2.049z M4.098 4.098h6.146v2.049h-6.146z M12.293 4.098h2.049v2.049h-2.049z M16.39 4.098h2.049v2.049h-2.049z M20.488 4.098h4.098v2.049h-4.098z M26.634 4.098h2.049v2.049h-2.049z M32.78 4.098h2.049v2.049h-2.049z M38.927 4.098h2.049v2.049h-2.049z M43.024 4.098h4.098v2.049h-4.098z M53.268 4.098h6.146v2.049h-6.146z M65.561 4.098h2.049v2.049h-2.049z M69.659 4.098h2.049v2.049h-2.049z M73.756 4.098h6.146v2.049h-6.146z M81.951 4.098h2.049v2.049h-2.049z M0.0 6.146h2.049v2.049h-2.049z M4.098 6.146h6.146v2.049h-6.146z M12.293 6.146h2.049v2.049h-2.049z M16.39 6.146h6.146v2.049h-6.146z M26.634 6.146h4.098v2.049h-4.098z M32.78 6.146h2.049v2.049h-2.049z M36.878 6.146h2.049v2.049h-2.049z M40.976 6.146h2.049v2.049h-2.049z M51.22 6.146h8.195v2.049h-8.195z M65.561 6.146h2.049v2.049h-2.049z M69.659 6.146h2.049v2.049h-2.049z M73.756 6.146h6.146v2.049h-6.146z M81.951 6.146h2.049v2.049h-2.049z M0.0 8.195h2.049v2.049h-2.049z M4.098 8.195h6.146v2.049h-6.146z M12.293 8.195h2.049v2.049h-2.049z M16.39 8.195h2.049v2.049h-2.049z M22.537 8.195h2.049v2.049h-2.049z M26.634 8.195h4.098v2.049h-4.098z M32.78 8.195h4.098v2.049h-4.098z M40.976 8.195h4.098v2.049h-4.098z M63.512 8.195h2.049v2.049h-2.049z M69.659 8.195h2.049v2.049h-2.049z M73.756 8.195h6.146v2.049h-6.146z M81.951 8.195h2.049v2.049h-2.049z M0.0 10.244h2.049v2.049h-2.049z M12.293 10.244h2.049v2.049h-2.049z M16.39 10.244h2.049v2.049h-2.049z M20.488 10.244h6.146v2.049h-6.146z M28.683 10.244h8.195v2.049h-8.195z M40.976 10.244h2.049v2.049h-2.049z M51.22 10.244h2.049v2.049h-2.049z M55.317 10.244h2.049v2.049h-2.049z M69.659 10.244h2.049v2.049h-2.049z M81.951 10.244h2.049v2.049h-2.049z M0.0 12.293h14.341v2.049h-14.341z M16.39 12.293h2.049v2.049h-2.049z M20.488 12.293h2.049v2.049h-2.049z M24.585 12.293h2.049v2.049h-2.049z M28.683 12.293h2.049v2.049h-2.049z M32.78 12.293h2.049v2.049h-2.049z M36.878 12.293h2.049v2.049h-2.049z M40.976 12.293h2.049v2.049h-2.049z M45.073 12.293h2.049v2.049h-2.049z M49.171 12.293h2.049v2.049h-2.049z M53.268 12.293h2.049v2.049h-2.049z M57.366 12.293h2.049v2.049h-2.049z M61.463 12.293h2.049v2.049h-2.049z M65.561 12.293h2.049v2.049h-2.049z M69.659 12.293h14.341v2.049h-14.341z M16.39 14.341h2.049v2.049h-2.049z M26.634 14.341h4.098v2.049h-4.098z M36.878 14.341h8.195v2.049h-8.195z M47.122 14.341h2.049v2.049h-2.049z M55.317 14.341h2.049v2.049h-2.049z M61.463 14.341h4.098v2.049h-4.098z M0.0 16.39h2.049v2.049h-2.049z M4.098 16.39h10.244v2.049h-10.244z M18.439 16.39h2.049v2.049h-2.049z M22.537 16.39h6.146v2.049h-6.146z M30.732 16.39h2.049v2.049h-2.049z M34.829 16.39h2.049v2.049h-2.049z M38.927 16.39h2.049v2.049h-2.049z M45.073 16.39h4.098v2.049h-4.098z M51.22 16.39h10.244v2.049h-10.244z M65.561 16.39h2.049v2.049h-2.049z M69.659 16.39h10.244v2.049h-10.244z M0.0 18.439h6.146v2.049h-6.146z M8.195 18.439h2.049v2.049h-2.049z M18.439 18.439h2.049v2.049h-2.049z M24.585 18.439h2.049v2.049h-2.049z M28.683 18.439h2.049v2.049h-2.049z M32.78 18.439h2.049v2.049h-2.049z M36.878 18.439h4.098v2.049h-4.098z M43.024 18.439h2.049v2.049h-2.049z M47.122 18.439h2.049v2.049h-2.049z M53.268 18.439h2.049v2.049h-2.049z M61.463 18.439h6.146v2.049h-6.146z M71.707 18.439h4.098v2.049h-4.098z M77.854 18.439h2.049v2.049h-2.049z M4.098 20.488h6.146v2.049h-6.146z M12.293 20.488h8.195v2.049h-8.195z M24.585 20.488h2.049v2.049h-2.049z M28.683 20.488h4.098v2.049h-4.098z M34.829 20.488h4.098v2.049h-4.098z M43.024 20.488h4.098v2.049h-4.098z M49.171 20.488h4.098v2.049h-4.098z M55.317 20.488h2.049v2.049h-2.049z M61.463 20.488h2.049v2.049h-2.049z M65.561 20.488h2.049v2.049h-2.049z M69.659 20.488h6.146v2.049h-6.146z M2.049 22.537h2.049v2.049h-2.049z M6.146 22.537h2.049v2.049h-2.049z M10.244 22.537h2.049v2.049h-2.049z M16.39 22.537h8.195v2.049h-8.195z M30.732 22.537h2.049v2.049h-2.049z M38.927 22.537h6.146v2.049h-6.146z M53.268 22.537h2.049v2.049h-2.049z M57.366 22.537h2.049v2.049h-2.049z M61.463 22.537h6.146v2.049h-6.146z M69.659 22.537h2.049v2.049h-2.049z M75.805 22.537h2.049v2.049h-2.049z M81.951 22.537h2.049v2.049h-2.049z M0.0 24.585h6.146v2.049h-6.146z M8.195 24.585h8.195v2.049h-8.195z M22.537 24.585h6.146v2.049h-6.146z M30.732 24.585h6.146v2.049h-6.146z M38.927 24.585h2.049v2.049h-2.049z M45.073 24.585h2.049v2.049h-2.049z M51.22 24.585h2.049v2.049h-2.049z M57.366 24.585h10.244v2.049h-10.244z M71.707 24.585h2.049v2.049h-2.049z M75.805 24.585h4.098v2.049h-4.098z M81.951 24.585h2.049v2.049h-2.049z M0.0 26.634h2.049v2.049h-2.049z M4.098 26.634h6.146v2.049h-6.146z M16.39 26.634h8.195v2.049h-8.195z M32.78 26.634h6.146v2.049h-6.146z M40.976 26.634h2.049v2.049h-2.049z M47.122 26.634h2.049v2.049h-2.049z M51.22 26.634h2.049v2.049h-2.049z M55.317 26.634h6.146v2.049h-6.146z M63.512 26.634h4.098v2.049h-4.098z M71.707 26.634h8.195v2.049h-8.195z M81.951 26.634h2.049v2.049h-2.049z M2.049 28.683h2.049v2.049h-2.049z M6.146 28.683h2.049v2.049h-2.049z M10.244 28.683h8.195v2.049h-8.195z M22.537 28.683h2.049v2.049h-2.049z M26.634 28.683h2.049v2.049h-2.049z M32.78 28.683h4.098v2.049h-4.098z M38.927 28.683h2.049v2.049h-2.049z M45.073 28.683h2.049v2.049h-2.049z M49.171 28.683h2.049v2.049h-2.049z M55.317 28.683h2.049v2.049h-2.049z M59.415 28.683h4.098v2.049h-4.098z M65.561 28.683h4.098v2.049h-4.098z M71.707 28.683h2.049v2.049h-2.049z M75.805 28.683h4.098v2.049h-4.098z M0.0 30.732h2.049v2.049h-2.049z M8.195 30.732h2.049v2.049h-2.049z M14.341 30.732h2.049v2.049h-2.049z M20.488 30.732h6.146v2.049h-6.146z M38.927 30.732h8.195v2.049h-8.195z M49.171 30.732h2.049v2.049h-2.049z M53.268 30.732h2.049v2.049h-2.049z M57.366 30.732h2.049v2.049h-2.049z M69.659 30.732h2.049v2.049h-2.049z M73.756 30.732h4.098v2.049h-4.098z M0.0 32.78h4.098v2.049h-4.098z M6.146 32.78h2.049v2.049h-2.049z M12.293 32.78h2.049v2.049h-2.049z M16.39 32.78h4.098v2.049h-4.098z M24.585 32.78h4.098v2.049h-4.098z M30.732 32.78h6.146v2.049h-6.146z M38.927 32.78h8.195v2.049h-8.195z M51.22 32.78h6.146v2.049h-6.146z M59.415 32.78h2.049v2.049h-2.049z M67.61 32.78h2.049v2.049h-2.049z M71.707 32.78h2.049v2.049h-2.049z M75.805 32.78h4.098v2.049h-4.098z M16.39 34.829h2.049v2.049h-2.049z M22.537 34.829h8.195v2.049h-8.195z M32.78 34.829h10.244v2.049h-10.244z M47.122 34.829h2.049v2.049h-2.049z M55.317 34.829h12.293v2.049h-12.293z M69.659 34.829h6.146v2.049h-6.146z M79.902 34.829h4.098v2.049h-4.098z M0.0 36.878h2.049v2.049h-2.049z M6.146 36.878h2.049v2.049h-2.049z M10.244 36.878h4.098v2.049h-4.098z M16.39 36.878h8.195v2.049h-8.195z M26.634 36.878h2.049v2.049h-2.049z M34.829 36.878h2.049v2.049h-2.049z M45.073 36.878h2.049v2.049h-2.049z M53.268 36.878h8.195v2.049h-8.195z M65.561 36.878h2.049v2.049h-2.049z M73.756 36.878h2.049v2.049h-2.049z M77.854 36.878h4.098v2.049h-4.098z M2.049 38.927h8.195v2.049h-8.195z M22.537 38.927h4.098v2.049h-4.098z M28.683 38.927h2.049v2.049h-2.049z M34.829 38.927h4.098v2.049h-4.098z M40.976 38.927h10.244v2.049h-10.244z M53.268 38.927h2.049v2.049h-2.049z M57.366 38.927h2.049v2.049h-2.049z M65.561 38.927h4.098v2.049h-4.098z M73.756 38.927h4.098v2.049h-4.098z M0.0 40.976h2.049v2.049h-2.049z M8.195 40.976h8.195v2.049h-8.195z M20.488 40.976h12.293v2.049h-12.293z M40.976 40.976h4.098v2.049h-4.098z M49.171 40.976h6.146v2.049h-6.146z M57.366 40.976h2.049v2.049h-2.049z M65.561 40.976h2.049v2.049h-2.049z M77.854 40.976h2.049v2.049h-2.049z M81.951 40.976h2.049v2.049h-2.049z M0.0 43.024h8.195v2.049h-8.195z M10.244 43.024h2.049v2.049h-2.049z M16.39 43.024h2.049v2.049h-2.049z M22.537 43.024h2.049v2.049h-2.049z M26.634 43.024h8.195v2.049h-8.195z M36.878 43.024h2.049v2.049h-2.049z M40.976 43.024h4.098v2.049h-4.098z M47.122 43.024h4.098v2.049h-4.098z M61.463 43.024h4.098v2.049h-4.098z M69.659 43.024h6.146v2.049h-6.146z M77.854 43.024h6.146v2.049h-6.146z M2.049 45.073h2.049v2.049h-2.049z M10.244 45.073h4.098v2.049h-4.098z M18.439 45.073h2.049v2.049h-2.049z M24.585 45.073h14.341v2.049h-14.341z M43.024 45.073h2.049v2.049h-2.049z M53.268 45.073h6.146v2.049h-6.146z M65.561 45.073h2.049v2.049h-2.049z M69.659 45.073h2.049v2.049h-2.049z M77.854 45.073h2.049v2.049h-2.049z M6.146 47.122h6.146v2.049h-6.146z M16.39 47.122h2.049v2.049h-2.049z M24.585 47.122h2.049v2.049h-2.049z M28.683 47.122h2.049v2.049h-2.049z M32.78 47.122h2.049v2.049h-2.049z M43.024 47.122h6.146v2.049h-6.146z M57.366 47.122h2.049v2.049h-2.049z M63.512 47.122h4.098v2.049h-4.098z M69.659 47.122h2.049v2.049h-2.049z M73.756 47.122h4.098v2.049h-4.098z M79.902 47.122h2.049v2.049h-2.049z M0.0 49.171h8.195v2.049h-8.195z M10.244 49.171h4.098v2.049h-4.098z M20.488 49.171h2.049v2.049h-2.049z M24.585 49.171h2.049v2.049h-2.049z M30.732 49.171h6.146v2.049h-6.146z M38.927 49.171h2.049v2.049h-2.049z M45.073 49.171h2.049v2.049h-2.049z M49.171 49.171h6.146v2.049h-6.146z M59.415 49.171h2.049v2.049h-2.049z M63.512 49.171h2.049v2.049h-2.049z M71.707 49.171h2.049v2.049h-2.049z M77.854 49.171h2.049v2.049h-2.049z M0.0 51.22h2.049v2.049h-2.049z M4.098 51.22h2.049v2.049h-2.049z M8.195 51.22h2.049v2.049h-2.049z M20.488 51.22h2.049v2.049h-2.049z M24.585 51.22h6.146v2.049h-6.146z M32.78 51.22h2.049v2.049h-2.049z M36.878 51.22h8.195v2.049h-8.195z M47.122 51.22h2.049v2.049h-2.049z M51.22 51.22h4.098v2.049h-4.098z M61.463 51.22h4.098v2.049h-4.098z M71.707 51.22h6.146v2.049h-6.146z M0.0 53.268h2.049v2.049h-2.049z M8.195 53.268h2.049v2.049h-2.049z M12.293 53.268h6.146v2.049h-6.146z M20.488 53.268h2.049v2.049h-2.049z M26.634 53.268h2.049v2.049h-2.049z M30.732 53.268h2.049v2.049h-2.049z M40.976 53.268h6.146v2.049h-6.146z M51.22 53.268h6.146v2.049h-6.146z M59.415 53.268h4.098v2.049h-4.098z M65.561 53.268h2.049v2.049h-2.049z M69.659 53.268h2.049v2.049h-2.049z M73.756 53.268h2.049v2.049h-2.049z M6.146 55.317h2.049v2.049h-2.049z M14.341 55.317h2.049v2.049h-2.049z M22.537 55.317h2.049v2.049h-2.049z M38.927 55.317h10.244v2.049h-10.244z M53.268 55.317h4.098v2.049h-4.098z M61.463 55.317h6.146v2.049h-6.146z M69.659 55.317h8.195v2.049h-8.195z M79.902 55.317h2.049v2.049h-2.049z M0.0 57.366h4.098v2.049h-4.098z M8.195 57.366h2.049v2.049h-2.049z M12.293 57.366h4.098v2.049h-4.098z M18.439 57.366h8.195v2.049h-8.195z M28.683 57.366h2.049v2.049h-2.049z M32.78 57.366h4.098v2.049h-4.098z M38.927 57.366h4.098v2.049h-4.098z M45.073 57.366h4.098v2.049h-4.098z M51.22 57.366h2.049v2.049h-2.049z M57.366 57.366h8.195v2.049h-8.195z M71.707 57.366h2.049v2.049h-2.049z M75.805 57.366h4.098v2.049h-4.098z M0.0 59.415h4.098v2.049h-4.098z M6.146 59.415h6.146v2.049h-6.146z M14.341 59.415h2.049v2.049h-2.049z M20.488 59.415h6.146v2.049h-6.146z M30.732 59.415h8.195v2.049h-8.195z M43.024 59.415h2.049v2.049h-2.049z M47.122 59.415h2.049v2.049h-2.049z M53.268 59.415h2.049v2.049h-2.049z M57.366 59.415h4.098v2.049h-4.098z M63.512 59.415h6.146v2.049h-6.146z M71.707 59.415h4.098v2.049h-4.098z M81.951 59.415h2.049v2.049h-2.049z M0.0 61.463h2.049v2.049h-2.049z M6.146 61.463h2.049v2.049h-2.049z M10.244 61.463h4.098v2.049h-4.098z M16.39 61.463h4.098v2.049h-4.098z M24.585 61.463h2.049v2.049h-2.049z M28.683 61.463h2.049v2.049h-2.049z M32.78 61.463h2.049v2.049h-2.049z M36.878 61.463h2.049v2.049h-2.049z M40.976 61.463h4.098v2.049h-4.098z M51.22 61.463h8.195v2.049h-8.195z M67.61 61.463h6.146v2.049h-6.146z M0.0 63.512h2.049v2.049h-2.049z M4.098 63.512h2.049v2.049h-2.049z M8.195 63.512h4.098v2.049h-4.098z M16.39 63.512h2.049v2.049h-2.049z M22.537 63.512h4.098v2.049h-4.098z M43.024 63.512h6.146v2.049h-6.146z M53.268 63.512h6.146v2.049h-6.146z M61.463 63.512h2.049v2.049h-2.049z M65.561 63.512h8.195v2.049h-8.195z M75.805 63.512h2.049v2.049h-2.049z M81.951 63.512h2.049v2.049h-2.049z M0.0 65.561h2.049v2.049h-2.049z M4.098 65.561h2.049v2.049h-2.049z M8.195 65.561h12.293v2.049h-12.293z M26.634 65.561h2.049v2.049h-2.049z M30.732 65.561h2.049v2.049h-2.049z M34.829 65.561h2.049v2.049h-2.049z M45.073 65.561h4.098v2.049h-4.098z M51.22 65.561h10.244v2.049h-10.244z M65.561 65.561h10.244v2.049h-10.244z M77.854 65.561h4.098v2.049h-4.098z M16.39 67.61h16.39v2.049h-16.39z M36.878 67.61h6.146v2.049h-6.146z M47.122 67.61h2.049v2.049h-2.049z M55.317 67.61h4.098v2.049h-4.098z M65.561 67.61h2.049v2.049h-2.049z M73.756 67.61h2.049v2.049h-2.049z M77.854 67.61h6.146v2.049h-6.146z M0.0 69.659h14.341v2.049h-14.341z M18.439 69.659h2.049v2.049h-2.049z M24.585 69.659h2.049v2.049h-2.049z M28.683 69.659h6.146v2.049h-6.146z M36.878 69.659h2.049v2.049h-2.049z M45.073 69.659h2.049v2.049h-2.049z M51.22 69.659h2.049v2.049h-2.049z M55.317 69.659h4.098v2.049h-4.098z M63.512 69.659h4.098v2.049h-4.098z M69.659 69.659h2.049v2.049h-2.049z M73.756 69.659h4.098v2.049h-4.098z M0.0 71.707h2.049v2.049h-2.049z M12.293 71.707h2.049v2.049h-2.049z M16.39 71.707h2.049v2.049h-2.049z M20.488 71.707h2.049v2.049h-2.049z M24.585 71.707h2.049v2.049h-2.049z M30.732 71.707h2.049v2.049h-2.049z M38.927 71.707h4.098v2.049h-4.098z M53.268 71.707h4.098v2.049h-4.098z M61.463 71.707h6.146v2.049h-6.146z M73.756 71.707h4.098v2.049h-4.098z M81.951 71.707h2.049v2.049h-2.049z M0.0 73.756h2.049v2.049h-2.049z M4.098 73.756h6.146v2.049h-6.146z M12.293 73.756h2.049v2.049h-2.049z M16.39 73.756h2.049v2.049h-2.049z M20.488 73.756h2.049v2.049h-2.049z M24.585 73.756h2.049v2.049h-2.049z M30.732 73.756h4.098v2.049h-4.098z M36.878 73.756h4.098v2.049h-4.098z M43.024 73.756h4.098v2.049h-4.098z M53.268 73.756h2.049v2.049h-2.049z M59.415 73.756h2.049v2.049h-2.049z M65.561 73.756h14.341v2.049h-14.341z M81.951 73.756h2.049v2.049h-2.049z M0.0 75.805h2.049v2.049h-2.049z M4.098 75.805h6.146v2.049h-6.146z M12.293 75.805h2.049v2.049h-2.049z M16.39 75.805h6.146v2.049h-6.146z M24.585 75.805h2.049v2.049h-2.049z M28.683 75.805h4.098v2.049h-4.098z M38.927 75.805h6.146v2.049h-6.146z M47.122 75.805h4.098v2.049h-4.098z M61.463 75.805h8.195v2.049h-8.195z M71.707 75.805h2.049v2.049h-2.049z M75.805 75.805h2.049v2.049h-2.049z M79.902 75.805h4.098v2.049h-4.098z M0.0 77.854h2.049v2.049h-2.049z M4.098 77.854h6.146v2.049h-6.146z M12.293 77.854h2.049v2.049h-2.049z M16.39 77.854h2.049v2.049h-2.049z M28.683 77.854h2.049v2.049h-2.049z M34.829 77.854h4.098v2.049h-4.098z M40.976 77.854h2.049v2.049h-2.049z M45.073 77.854h2.049v2.049h-2.049z M49.171 77.854h8.195v2.049h-8.195z M59.415 77.854h6.146v2.049h-6.146z M67.61 77.854h10.244v2.049h-10.244z M0.0 79.902h2.049v2.049h-2.049z M12.293 79.902h2.049v2.049h-2.049z M18.439 79.902h2.049v2.049h-2.049z M24.585 79.902h2.049v2.049h-2.049z M32.78 79.902h8.195v2.049h-8.195z M43.024 79.902h4.098v2.049h-4.098z M49.171 79.902h2.049v2.049h-2.049z M53.268 79.902h2.049v2.049h-2.049z M57.366 79.902h2.049v2.049h-2.049z M65.561 79.902h4.098v2.049h-4.098z M73.756 79.902h4.098v2.049h-4.098z M79.902 79.902h2.049v2.049h-2.049z M0.0 81.951h14.341v2.049h-14.341z M16.39 81.951h2.049v2.049h-2.049z M22.537 81.951h6.146v2.049h-6.146z M32.78 81.951h2.049v2.049h-2.049z M36.878 81.951h2.049v2.049h-2.049z M45.073 81.951h2.049v2.049h-2.049z M49.171 81.951h8.195v2.049h-8.195z M59.415 81.951h2.049v2.049h-2.049z M69.659 81.951h10.244v2.049h-10.244z"/>
</g>
<text x="1122" y="614" font-family="Inter, Helvetica, Arial, sans-serif" font-size="10" font-weight="700" fill="#F5F7FA" text-anchor="middle">scan / full post</text>
</svg>
