<svg xmlns="http://www.w3.org/2000/svg" viewBox="0 0 1200 630">
  <defs>
    <linearGradient id="bg" x1="0%" y1="0%" x2="100%" y2="100%">
      <stop offset="0%" style="stop-color:#0a0a1a"/><stop offset="100%" style="stop-color:#1a0a1a"/>
    </linearGradient>
    <filter id="glow"><feGaussianBlur stdDeviation="4" result="b"/><feMerge><feMergeNode in="b"/><feMergeNode in="SourceGraphic"/></feMerge></filter>
    <filter id="sg"><feGaussianBlur stdDeviation="30"/></filter>
    <filter id="shadow"><feDropShadow dx="0" dy="4" stdDeviation="8" flood-color="#000" flood-opacity="0.3"/></filter>
  </defs>
  <rect width="1200" height="630" fill="url(#bg)"/>
  <circle cx="600" cy="250" r="280" fill="#10b981" opacity="0.03" filter="url(#sg)"/>
  <g transform="translate(600,225)">
    <g filter="url(#shadow)">
      <path d="M-70,0 C-70,-45 -25,-45 0,-20 C25,-45 70,-45 70,0 C70,45 25,45 0,20 C-25,45 -70,45 -70,0 Z" fill="none" stroke="#10b981" stroke-width="4"/>
      <circle cx="-50" cy="-18" r="10" fill="#1e293b" stroke="#3b82f6" stroke-width="1.5"/>
      <text x="-50" y="-14" font-family="Courier New" font-size="6" fill="#93c5fd" text-anchor="middle">Dev</text>
      <circle cx="0" cy="-30" r="10" fill="#1e293b" stroke="#ef4444" stroke-width="1.5"/>
      <text x="0" y="-26" font-family="Courier New" font-size="6" fill="#fca5a5" text-anchor="middle">Sec</text>
      <circle cx="50" cy="-18" r="10" fill="#1e293b" stroke="#10b981" stroke-width="1.5"/>
      <text x="50" y="-14" font-family="Courier New" font-size="6" fill="#86efac" text-anchor="middle">Ops</text>
    </g>
  </g>
  <text x="600" y="500" font-family="Arial,sans-serif" font-size="36" font-weight="bold" fill="white" text-anchor="middle" filter="url(#glow)">Security DevOps</text>
  <text x="600" y="538" font-family="Arial,sans-serif" font-size="16" fill="#94a3b8" text-anchor="middle">Weekly Digest | DevSecOps Intelligence</text>
  <rect x="40" y="25" width="160" height="32" rx="16" fill="#10b981" opacity="0.2" stroke="#10b981" stroke-width="1"/>
  <text x="120" y="47" font-family="Arial,sans-serif" font-size="13" font-weight="bold" fill="#10b981" text-anchor="middle">WEEKLY</text>
  <rect x="1000" y="25" width="160" height="32" rx="16" fill="#3b82f6" opacity="0.2" stroke="#3b82f6" stroke-width="1"/>
  <text x="1080" y="47" font-family="Arial,sans-serif" font-size="13" font-weight="bold" fill="#93c5fd" text-anchor="middle">Feb 3, 2026</text>
  <text x="1160" y="615" font-family="Arial,sans-serif" font-size="13" fill="#475569" text-anchor="end">tech.2twodragon.com</text>
</svg>