<svg xmlns="http://www.w3.org/2000/svg" viewBox="0 0 1200 630">
  <defs>
    <linearGradient id="bg" x1="0%" y1="0%" x2="100%" y2="100%">
      <stop offset="0%" style="stop-color:#0a0a1a"/><stop offset="100%" style="stop-color:#0a0a2a"/>
    </linearGradient>
    <filter id="glow"><feGaussianBlur stdDeviation="4" result="b"/><feMerge><feMergeNode in="b"/><feMergeNode in="SourceGraphic"/></feMerge></filter>
    <filter id="sg"><feGaussianBlur stdDeviation="30"/></filter>
    <filter id="shadow"><feDropShadow dx="0" dy="4" stdDeviation="8" flood-color="#000" flood-opacity="0.3"/></filter>
  </defs>
  <rect width="1200" height="630" fill="url(#bg)"/>
  <circle cx="600" cy="250" r="280" fill="#6366f1" opacity="0.03" filter="url(#sg)"/>
  <g transform="translate(600,225)">
    <!-- Open book/blog shape -->
    <g filter="url(#shadow)">
      <path d="M0,-60 L-150,-40 L-150,60 L0,80 Z" fill="#1e293b" stroke="#6366f1" stroke-width="2"/>
      <path d="M0,-60 L150,-40 L150,60 L0,80 Z" fill="#1e293b" stroke="#6366f1" stroke-width="2"/>
      <!-- Spine -->
      <line x1="0" y1="-60" x2="0" y2="80" stroke="#6366f1" stroke-width="2"/>
      <!-- Text lines (left page) -->
      <g opacity="0.3">
        <rect x="-130" y="-25" width="100" height="4" rx="1" fill="#6366f1"/>
        <rect x="-130" y="-15" width="80" height="4" rx="1" fill="#6366f1"/>
        <rect x="-130" y="-5" width="90" height="4" rx="1" fill="#ef4444"/>
        <rect x="-130" y="5" width="70" height="4" rx="1" fill="#6366f1"/>
        <rect x="-130" y="15" width="85" height="4" rx="1" fill="#6366f1"/>
        <rect x="-130" y="25" width="60" height="4" rx="1" fill="#f59e0b"/>
        <rect x="-130" y="35" width="95" height="4" rx="1" fill="#6366f1"/>
        <rect x="-130" y="45" width="75" height="4" rx="1" fill="#6366f1"/>
      </g>
      <!-- Text lines (right page) -->
      <g opacity="0.3">
        <rect x="30" y="-25" width="95" height="4" rx="1" fill="#6366f1"/>
        <rect x="30" y="-15" width="70" height="4" rx="1" fill="#22c55e"/>
        <rect x="30" y="-5" width="85" height="4" rx="1" fill="#6366f1"/>
        <rect x="30" y="5" width="100" height="4" rx="1" fill="#6366f1"/>
        <rect x="30" y="15" width="65" height="4" rx="1" fill="#ef4444"/>
        <rect x="30" y="25" width="80" height="4" rx="1" fill="#6366f1"/>
        <rect x="30" y="35" width="90" height="4" rx="1" fill="#6366f1"/>
        <rect x="30" y="45" width="55" height="4" rx="1" fill="#f59e0b"/>
      </g>
    </g>
    <!-- Vendor logos floating -->
    <g transform="translate(0,-85)" opacity="0.4">
      <circle cx="-60" cy="0" r="12" fill="#1e293b" stroke="#ef4444" stroke-width="1.5"/>
      <circle cx="-20" cy="0" r="12" fill="#1e293b" stroke="#22c55e" stroke-width="1.5"/>
      <circle cx="20" cy="0" r="12" fill="#1e293b" stroke="#3b82f6" stroke-width="1.5"/>
      <circle cx="60" cy="0" r="12" fill="#1e293b" stroke="#f59e0b" stroke-width="1.5"/>
    </g>
  </g>
  <text x="600" y="505" font-family="Arial,sans-serif" font-size="36" font-weight="bold" fill="white" text-anchor="middle" filter="url(#glow)">Vendor Blog Review</text>
  <text x="600" y="543" font-family="Arial,sans-serif" font-size="16" fill="#94a3b8" text-anchor="middle">Security Vendor Weekly | Threat Intelligence Roundup</text>
  <rect x="40" y="25" width="160" height="32" rx="16" fill="#6366f1" opacity="0.2" stroke="#6366f1" stroke-width="1"/>
  <text x="120" y="47" font-family="Arial,sans-serif" font-size="13" font-weight="bold" fill="#a5b4fc" text-anchor="middle">WEEKLY</text>
  <rect x="1000" y="25" width="160" height="32" rx="16" fill="#3b82f6" opacity="0.2" stroke="#3b82f6" stroke-width="1"/>
  <text x="1080" y="47" font-family="Arial,sans-serif" font-size="13" font-weight="bold" fill="#93c5fd" text-anchor="middle">Jan 22, 2026</text>
  <text x="1160" y="615" font-family="Arial,sans-serif" font-size="13" fill="#475569" text-anchor="end">tech.2twodragon.com</text>
</svg>