<svg xmlns="http://www.w3.org/2000/svg" viewBox="0 0 1200 630" width="1200" height="630" role="img" aria-label="Research-based weekly digest cover: Apple phishing envelope, NIST CVE overflow, Palantir manifesto wall">
<title>Apple phishing, NIST CVE halt, Palantir manifesto</title>
<defs>
  <linearGradient id="bgSpread" x1="0%" y1="0%" x2="100%" y2="100%">
    <stop offset="0%" stop-color="#0B1326"/>
    <stop offset="55%" stop-color="#0D1530"/>
    <stop offset="100%" stop-color="#141034"/>
  </linearGradient>
  <linearGradient id="heroPanel" x1="0%" y1="0%" x2="0%" y2="100%">
    <stop offset="0%" stop-color="#12213E"/>
    <stop offset="100%" stop-color="#0E1A33"/>
  </linearGradient>
  <linearGradient id="appleMail" x1="0%" y1="0%" x2="0%" y2="100%">
    <stop offset="0%" stop-color="#F5F7FA"/>
    <stop offset="100%" stop-color="#DCE2EB"/>
  </linearGradient>
  <linearGradient id="phishMail" x1="0%" y1="0%" x2="0%" y2="100%">
    <stop offset="0%" stop-color="#FFF3B5"/>
    <stop offset="100%" stop-color="#F6C945"/>
  </linearGradient>
  <linearGradient id="funnelGrad" x1="0%" y1="0%" x2="0%" y2="100%">
    <stop offset="0%" stop-color="#FFB703" stop-opacity="0.9"/>
    <stop offset="100%" stop-color="#FB8500" stop-opacity="0.75"/>
  </linearGradient>
  <linearGradient id="paperGrad" x1="0%" y1="0%" x2="0%" y2="100%">
    <stop offset="0%" stop-color="#EEE8D5"/>
    <stop offset="100%" stop-color="#D9D1BB"/>
  </linearGradient>
  <radialGradient id="hotRed" cx="50%" cy="50%" r="50%">
    <stop offset="0%" stop-color="#E63946" stop-opacity="0.55"/>
    <stop offset="100%" stop-color="#E63946" stop-opacity="0"/>
  </radialGradient>
  <radialGradient id="hotBlue" cx="50%" cy="50%" r="50%">
    <stop offset="0%" stop-color="#3A86FF" stop-opacity="0.5"/>
    <stop offset="100%" stop-color="#3A86FF" stop-opacity="0"/>
  </radialGradient>
  <radialGradient id="hotAmber" cx="50%" cy="50%" r="50%">
    <stop offset="0%" stop-color="#FFB703" stop-opacity="0.5"/>
    <stop offset="100%" stop-color="#FFB703" stop-opacity="0"/>
  </radialGradient>
  <pattern id="paperWeave" x="0" y="0" width="6" height="6" patternUnits="userSpaceOnUse">
    <rect width="6" height="6" fill="transparent"/>
    <path d="M0 3 L6 3" stroke="#B8AF92" stroke-width="0.35" opacity="0.45"/>
  </pattern>
  <pattern id="envGrid" x="0" y="0" width="40" height="40" patternUnits="userSpaceOnUse">
    <circle cx="20" cy="20" r="0.8" fill="#2A3256" opacity="0.6"/>
  </pattern>
  <filter id="softShadow" x="-10%" y="-10%" width="130%" height="130%">
    <feGaussianBlur in="SourceAlpha" stdDeviation="3"/>
    <feOffset dx="2" dy="4"/>
    <feComponentTransfer><feFuncA type="linear" slope="0.55"/></feComponentTransfer>
    <feMerge><feMergeNode/><feMergeNode in="SourceGraphic"/></feMerge>
  </filter>
  <filter id="textShadow" x="-10%" y="-10%" width="130%" height="130%">
    <feGaussianBlur in="SourceAlpha" stdDeviation="1.2"/>
    <feOffset dx="1" dy="1.5"/>
    <feComponentTransfer><feFuncA type="linear" slope="0.7"/></feComponentTransfer>
    <feMerge><feMergeNode/><feMergeNode in="SourceGraphic"/></feMerge>
  </filter>
  <clipPath id="envMask">
    <rect x="60" y="130" width="540" height="380" rx="10" ry="10"/>
  </clipPath>
</defs>

<!-- Background -->
<rect width="1200" height="630" fill="url(#bgSpread)"/>
<rect width="1200" height="630" fill="url(#envGrid)"/>

<!-- Ambient glows -->
<circle cx="300" cy="180" r="140" fill="url(#hotBlue)">
  <animate attributeName="opacity" values="0.55;0.9;0.55" dur="6.4s" repeatCount="indefinite"/>
  <animate attributeName="r" values="140;155;140" dur="8.2s" repeatCount="indefinite"/>
</circle>
<circle cx="950" cy="200" r="110" fill="url(#hotAmber)">
  <animate attributeName="opacity" values="0.45;0.85;0.45" dur="5.8s" repeatCount="indefinite"/>
  <animate attributeName="r" values="110;128;110" dur="7.6s" repeatCount="indefinite"/>
</circle>
<circle cx="980" cy="520" r="110" fill="url(#hotRed)">
  <animate attributeName="opacity" values="0.4;0.75;0.4" dur="7.2s" repeatCount="indefinite"/>
  <animate attributeName="r" values="110;124;110" dur="9.1s" repeatCount="indefinite"/>
</circle>

<!-- Starfield ambient dots (12 twinkles) -->
<g fill="#8FB8FF">
  <circle cx="160" cy="62" r="1.2"><animate attributeName="opacity" values="0.2;1;0.2" dur="3.1s" repeatCount="indefinite"/></circle>
  <circle cx="420" cy="70" r="1.0"><animate attributeName="opacity" values="0.2;0.9;0.2" dur="4.4s" repeatCount="indefinite"/></circle>
  <circle cx="720" cy="64" r="1.3"><animate attributeName="opacity" values="0.25;1;0.25" dur="3.7s" repeatCount="indefinite"/></circle>
  <circle cx="1040" cy="72" r="0.9"><animate attributeName="opacity" values="0.2;0.85;0.2" dur="5.2s" repeatCount="indefinite"/></circle>
  <circle cx="80" cy="340" r="1.1"><animate attributeName="opacity" values="0.15;0.8;0.15" dur="4.8s" repeatCount="indefinite"/></circle>
  <circle cx="640" cy="310" r="1.2"><animate attributeName="opacity" values="0.2;0.95;0.2" dur="3.3s" repeatCount="indefinite"/></circle>
  <circle cx="1160" cy="316" r="1.0"><animate attributeName="opacity" values="0.2;0.85;0.2" dur="4.1s" repeatCount="indefinite"/></circle>
  <circle cx="18" cy="500" r="0.9"><animate attributeName="opacity" values="0.18;0.8;0.18" dur="5.4s" repeatCount="indefinite"/></circle>
  <circle cx="620" cy="516" r="1.3"><animate attributeName="opacity" values="0.22;1;0.22" dur="3.9s" repeatCount="indefinite"/></circle>
  <circle cx="1180" cy="508" r="1.0"><animate attributeName="opacity" values="0.2;0.9;0.2" dur="4.7s" repeatCount="indefinite"/></circle>
  <circle cx="240" cy="596" r="1.2"><animate attributeName="opacity" values="0.15;0.85;0.15" dur="5.6s" repeatCount="indefinite"/></circle>
  <circle cx="1100" cy="586" r="1.1"><animate attributeName="opacity" values="0.2;0.9;0.2" dur="4.2s" repeatCount="indefinite"/></circle>
</g>

<!-- Top header stripe -->
<rect x="0" y="0" width="1200" height="56" fill="#050813" opacity="0.92"/>
<text x="36" y="36" font-family="Helvetica, Arial, sans-serif" font-size="18" font-weight="700" fill="#8FB8FF" letter-spacing="2.5">WEEKLY DIGEST</text>
<text x="1160" y="36" font-family="Helvetica, Arial, sans-serif" font-size="15" font-weight="600" fill="#7DA3D9" letter-spacing="1.5" text-anchor="end">2026.04.20</text>
<rect x="0" y="54" width="1200" height="2" fill="#3A86FF" opacity="0.85">
  <animate attributeName="opacity" values="0.4;1;0.4" dur="4.8s" repeatCount="indefinite"/>
</rect>

<!-- ================== LEFT PANEL: Apple phishing (hero 60%) ================== -->
<rect x="32" y="80" width="600" height="510" rx="14" ry="14" fill="url(#heroPanel)" stroke="#3A86FF" stroke-width="1.6" opacity="0.98"/>
<rect x="32" y="80" width="600" height="4" fill="#3A86FF" opacity="0.85">
  <animate attributeName="opacity" values="0.5;1;0.5" dur="3.8s" repeatCount="indefinite"/>
</rect>

<!-- Hero label -->
<text x="54" y="112" font-family="Helvetica, Arial, sans-serif" font-size="13" font-weight="700" fill="#7DA3D9" letter-spacing="3">HIGH SEVERITY  /  01</text>
<text x="54" y="144" font-family="Helvetica, Arial, sans-serif" font-size="34" font-weight="800" fill="#F8FAFC" filter="url(#textShadow)">Apple Servers Weaponized</text>
<text x="54" y="174" font-family="Helvetica, Arial, sans-serif" font-size="20" font-weight="500" fill="#CBD5E1">Real alerts carry fake $899 lure</text>

<!-- Inner scene: Apple envelope (real) with phishing letter (fake) inside -->
<!-- Outer Apple envelope, slightly tilted -->
<g transform="translate(60,200) rotate(-3 270 170)" filter="url(#softShadow)">
  <rect x="0" y="0" width="540" height="340" rx="10" ry="10" fill="url(#appleMail)" stroke="#B8C2CF" stroke-width="1.4"/>
  <!-- Envelope fold triangle -->
  <path d="M0 0 L270 160 L540 0 Z" fill="#E8EDF4" stroke="#B8C2CF" stroke-width="1"/>
  <!-- From line (Apple) -->
  <text x="24" y="28" font-family="Helvetica, Arial, sans-serif" font-size="13" font-weight="600" fill="#4A5568">From: apple.com</text>
  <text x="24" y="46" font-family="Helvetica, Arial, sans-serif" font-size="11" fill="#6B7280">SPF / DKIM / DMARC: PASS</text>

  <!-- Apple logo simplified -->
  <g transform="translate(480,20)">
    <path d="M18 6 C14 2 8 2 6 8 C4 14 8 22 14 22 C20 22 24 14 22 8 C21 5 20 3 18 6 Z M15 2 C16 0 18 0 18 2 C18 4 16 4 15 2 Z"
          fill="#1D1D1F"/>
  </g>

  <!-- Real alert banner -->
  <rect x="24" y="62" width="492" height="28" fill="#F0F3F7" stroke="#D1D8E0" stroke-width="1" rx="4"/>
  <text x="36" y="81" font-family="Helvetica, Arial, sans-serif" font-size="13" font-weight="700" fill="#1D1D1F">Account information updated</text>

  <!-- Hidden phishing slip sliding out -->
  <g transform="translate(56,110)">
    <rect x="0" y="0" width="430" height="180" rx="6" ry="6" fill="url(#phishMail)" stroke="#E63946" stroke-width="2.2" filter="url(#softShadow)">
      <animate attributeName="y" values="0;-6;0" dur="3.4s" repeatCount="indefinite"/>
    </rect>
    <!-- tape -->
    <rect x="180" y="-8" width="70" height="16" fill="#F8FAFC" opacity="0.75" transform="rotate(-4 215 0)"/>

    <text x="20" y="34" font-family="Helvetica, Arial, sans-serif" font-size="20" font-weight="800" fill="#7A1D00">Dear User  -  899 USD iPhone</text>
    <text x="20" y="58" font-family="Helvetica, Arial, sans-serif" font-size="16" font-weight="700" fill="#7A1D00">Via Pay-Pal. To Cancel:</text>
    <!-- fake call number -->
    <rect x="20" y="72" width="250" height="34" rx="4" fill="#E63946" stroke="#7A1D00" stroke-width="1.5">
      <animate attributeName="opacity" values="0.85;1;0.85" dur="1.6s" repeatCount="indefinite"/>
    </rect>
    <text x="36" y="96" font-family="Helvetica, Arial, sans-serif" font-size="18" font-weight="800" fill="#FFF5F5">CALL 1-802-353-0761</text>
    <text x="20" y="132" font-family="Helvetica, Arial, sans-serif" font-size="11" fill="#7A1D00" font-weight="600">injected via name fields</text>
  </g>

  <!-- Arrow: legit shell -> malicious content -->
  <path d="M500 200 Q520 240 500 280" stroke="#E63946" stroke-width="2.2" fill="none" stroke-dasharray="4 4">
    <animate attributeName="stroke-dashoffset" values="0;-16" dur="1.2s" repeatCount="indefinite"/>
    <animate attributeName="stroke-width" values="2.2;3.2;2.2" dur="2.4s" repeatCount="indefinite"/>
  </path>
  <text x="436" y="314" font-family="Helvetica, Arial, sans-serif" font-size="10" fill="#E63946" font-weight="700">hybrid phishing
    <animate attributeName="opacity" values="0.6;1;0.6" dur="2.2s" repeatCount="indefinite"/>
  </text>
  <!-- Alert spark marks around phishing letter (8 marks) -->
  <g fill="#E63946">
    <circle cx="18" cy="108" r="2.5"><animate attributeName="opacity" values="0;1;0" dur="1.9s" repeatCount="indefinite"/></circle>
    <circle cx="500" cy="108" r="2.5"><animate attributeName="opacity" values="0;1;0" dur="2.1s" repeatCount="indefinite"/></circle>
    <circle cx="18" cy="292" r="2.5"><animate attributeName="opacity" values="0;1;0" dur="2.3s" repeatCount="indefinite"/></circle>
    <circle cx="500" cy="292" r="2.5"><animate attributeName="opacity" values="0;1;0" dur="1.7s" repeatCount="indefinite"/></circle>
    <circle cx="60" cy="100" r="1.5"><animate attributeName="opacity" values="0;0.9;0" dur="2.8s" repeatCount="indefinite"/></circle>
    <circle cx="460" cy="100" r="1.5"><animate attributeName="opacity" values="0;0.9;0" dur="3.1s" repeatCount="indefinite"/></circle>
    <circle cx="58" cy="298" r="1.5"><animate attributeName="opacity" values="0;0.9;0" dur="2.6s" repeatCount="indefinite"/></circle>
    <circle cx="458" cy="298" r="1.5"><animate attributeName="opacity" values="0;0.9;0" dur="3.3s" repeatCount="indefinite"/></circle>
  </g>
</g>

<!-- Key insight tag -->
<g transform="translate(54,560)">
  <rect x="0" y="0" width="210" height="24" rx="3" fill="#E63946" opacity="0.95"/>
  <text x="10" y="17" font-family="Helvetica, Arial, sans-serif" font-size="12" font-weight="700" fill="#FFF5F5">TRUSTED CHANNEL ABUSED</text>
</g>
<text x="280" y="577" font-family="Helvetica, Arial, sans-serif" font-size="14" fill="#A5B4C4" font-style="italic">Bleeping  /  Apr 18</text>

<!-- ================== TOP RIGHT: NIST CVE overflow ================== -->
<rect x="652" y="80" width="516" height="248" rx="14" ry="14" fill="#1C2541" stroke="#FFB703" stroke-width="1.6" opacity="0.97"/>
<rect x="652" y="80" width="516" height="4" fill="#FFB703" opacity="0.85">
  <animate attributeName="opacity" values="0.5;1;0.5" dur="4.2s" repeatCount="indefinite"/>
</rect>

<text x="670" y="110" font-family="Helvetica, Arial, sans-serif" font-size="12" font-weight="700" fill="#FFC13B" letter-spacing="3">MEDIUM  /  02</text>
<text x="670" y="138" font-family="Helvetica, Arial, sans-serif" font-size="26" font-weight="800" fill="#F8FAFC" filter="url(#textShadow)">NIST Halts Low-Priority CVEs</text>
<text x="670" y="162" font-family="Helvetica, Arial, sans-serif" font-size="15" fill="#CBD5E1">Only KEV and EO 14028 get scored</text>

<!-- Funnel with flood -->
<g transform="translate(680,178)">
  <!-- Input CVE tags pouring in (decorative, 3 only) -->
  <g font-family="Monaco, monospace" font-size="11" fill="#FFB703">
    <text x="0" y="0" opacity="0.85">CVE-2026-1337<animate attributeName="y" values="-20;120" dur="3.6s" repeatCount="indefinite"/></text>
    <text x="70" y="-6" opacity="0.7">CVE-2026-9021<animate attributeName="y" values="-26;120" dur="4.2s" repeatCount="indefinite"/></text>
    <text x="140" y="-10" opacity="0.8">CVE-2026-4412<animate attributeName="y" values="-30;120" dur="3.2s" repeatCount="indefinite"/></text>
  </g>

  <!-- Funnel shape -->
  <path d="M10 50 L230 50 L160 110 L80 110 Z" fill="url(#funnelGrad)" opacity="0.55" stroke="#FFB703" stroke-width="1.5">
    <animate attributeName="opacity" values="0.4;0.7;0.4" dur="3.6s" repeatCount="indefinite"/>
  </path>
  <path d="M80 110 L80 130 L160 130 L160 110 Z" fill="#FB8500" opacity="0.7" stroke="#FB8500" stroke-width="1">
    <animate attributeName="opacity" values="0.55;0.9;0.55" dur="2.4s" repeatCount="indefinite"/>
  </path>

  <!-- Funnel flow particles (10 droplets streaming) -->
  <g fill="#FFB703">
    <circle cx="60" cy="55" r="1.6"><animate attributeName="cy" values="52;112;112" dur="1.4s" repeatCount="indefinite"/><animate attributeName="opacity" values="1;1;0" dur="1.4s" repeatCount="indefinite"/></circle>
    <circle cx="100" cy="55" r="1.6"><animate attributeName="cy" values="52;112;112" dur="1.7s" repeatCount="indefinite"/><animate attributeName="opacity" values="1;1;0" dur="1.7s" repeatCount="indefinite"/></circle>
    <circle cx="140" cy="55" r="1.6"><animate attributeName="cy" values="52;112;112" dur="1.2s" repeatCount="indefinite"/><animate attributeName="opacity" values="1;1;0" dur="1.2s" repeatCount="indefinite"/></circle>
    <circle cx="180" cy="55" r="1.6"><animate attributeName="cy" values="52;112;112" dur="1.9s" repeatCount="indefinite"/><animate attributeName="opacity" values="1;1;0" dur="1.9s" repeatCount="indefinite"/></circle>
    <circle cx="40" cy="55" r="1.4"><animate attributeName="cy" values="52;112;112" dur="1.5s" repeatCount="indefinite"/><animate attributeName="opacity" values="0.9;0.9;0" dur="1.5s" repeatCount="indefinite"/></circle>
    <circle cx="200" cy="55" r="1.4"><animate attributeName="cy" values="52;112;112" dur="1.8s" repeatCount="indefinite"/><animate attributeName="opacity" values="0.9;0.9;0" dur="1.8s" repeatCount="indefinite"/></circle>
    <circle cx="80" cy="55" r="1.2"><animate attributeName="cy" values="52;112;112" dur="1.3s" repeatCount="indefinite"/><animate attributeName="opacity" values="0.85;0.85;0" dur="1.3s" repeatCount="indefinite"/></circle>
    <circle cx="120" cy="55" r="1.2"><animate attributeName="cy" values="52;112;112" dur="1.6s" repeatCount="indefinite"/><animate attributeName="opacity" values="0.85;0.85;0" dur="1.6s" repeatCount="indefinite"/></circle>
    <circle cx="160" cy="55" r="1.2"><animate attributeName="cy" values="52;112;112" dur="2.0s" repeatCount="indefinite"/><animate attributeName="opacity" values="0.85;0.85;0" dur="2.0s" repeatCount="indefinite"/></circle>
    <circle cx="220" cy="55" r="1.2"><animate attributeName="cy" values="52;112;112" dur="1.1s" repeatCount="indefinite"/><animate attributeName="opacity" values="0.85;0.85;0" dur="1.1s" repeatCount="indefinite"/></circle>
  </g>

  <!-- Gate (priority filter) with scan -->
  <rect x="75" y="116" width="90" height="6" fill="#E63946">
    <animate attributeName="opacity" values="0.6;1;0.6" dur="1.1s" repeatCount="indefinite"/>
    <animate attributeName="width" values="90;94;90" dur="2.4s" repeatCount="indefinite"/>
  </rect>
  <text x="90" y="148" font-family="Helvetica, Arial, sans-serif" font-size="14" font-weight="800" fill="#FF5F6E" filter="url(#textShadow)" letter-spacing="1">KEV GATE
    <animate attributeName="opacity" values="0.8;1;0.8" dur="1.8s" repeatCount="indefinite"/>
  </text>

  <!-- KEV only escapes -->
  <text x="100" y="180" font-family="Monaco, monospace" font-size="13" fill="#FFFFFF" font-weight="700" filter="url(#textShadow)">CVE-KEV-0xA1<animate attributeName="opacity" values="0.4;1;1;0.4" dur="2.5s" repeatCount="indefinite"/></text>
  <!-- Rejected X marks on backlog pile (4 pulses) -->
  <g stroke="#E63946" stroke-width="1.5" fill="none">
    <path d="M260 90 L275 105 M275 90 L260 105"><animate attributeName="opacity" values="0;1;0" dur="2.1s" repeatCount="indefinite"/></path>
    <path d="M260 106 L275 121 M275 106 L260 121"><animate attributeName="opacity" values="0;1;0" dur="2.4s" repeatCount="indefinite"/></path>
    <path d="M260 122 L275 137 M275 122 L260 137"><animate attributeName="opacity" values="0;1;0" dur="2.7s" repeatCount="indefinite"/></path>
    <path d="M260 138 L275 153 M275 138 L260 153"><animate attributeName="opacity" values="0;1;0" dur="3.0s" repeatCount="indefinite"/></path>
  </g>

  <!-- Rejected pile (grey) -->
  <g transform="translate(250,40)">
    <rect x="0" y="0" width="160" height="120" fill="#2A3256" stroke="#5A6784" stroke-width="1" stroke-dasharray="3 3"/>
    <text x="10" y="22" font-family="Helvetica, Arial, sans-serif" font-size="11" font-weight="700" fill="#8FB8FF">NOT SCHEDULED</text>
    <text x="10" y="38" font-family="Monaco, monospace" font-size="9" fill="#7DA3D9" opacity="0.75">before Mar 1, 2026</text>
    <!-- stacked cards (visual-only, no text) -->
    <g fill="#1C2541">
      <rect x="10" y="48" width="140" height="12" opacity="0.85">
        <animate attributeName="opacity" values="0.7;0.95;0.7" dur="3.2s" repeatCount="indefinite"/>
      </rect>
      <rect x="10" y="64" width="140" height="12" opacity="0.75">
        <animate attributeName="opacity" values="0.6;0.85;0.6" dur="3.7s" repeatCount="indefinite"/>
      </rect>
      <rect x="10" y="80" width="140" height="12" opacity="0.65">
        <animate attributeName="opacity" values="0.5;0.8;0.5" dur="4.1s" repeatCount="indefinite"/>
      </rect>
      <rect x="10" y="96" width="140" height="12" opacity="0.55">
        <animate attributeName="opacity" values="0.4;0.7;0.4" dur="4.6s" repeatCount="indefinite"/>
      </rect>
    </g>
    <!-- CVE id streaks on stack -->
    <g fill="#7DA3D9" opacity="0.45">
      <rect x="16" y="54" width="60" height="1.5"/>
      <rect x="16" y="70" width="80" height="1.5"/>
      <rect x="16" y="86" width="72" height="1.5"/>
      <rect x="16" y="102" width="90" height="1.5"/>
    </g>
  </g>
</g>

<!-- Right-side stat -->
<g transform="translate(1060,186)">
  <text x="0" y="0" font-family="Helvetica, Arial, sans-serif" font-size="34" font-weight="800" fill="#FFB703" filter="url(#textShadow)" text-anchor="end">+263%
    <animate attributeName="opacity" values="0.75;1;0.75" dur="3.2s" repeatCount="indefinite"/>
  </text>
  <text x="0" y="18" font-family="Helvetica, Arial, sans-serif" font-size="11" fill="#CBD5E1" text-anchor="end">CVEs since 2020</text>
  <text x="0" y="56" font-family="Helvetica, Arial, sans-serif" font-size="22" font-weight="700" fill="#F8FAFC" text-anchor="end">42k enriched
    <animate attributeName="opacity" values="0.8;1;0.8" dur="4.1s" repeatCount="indefinite"/>
  </text>
  <text x="0" y="72" font-family="Helvetica, Arial, sans-serif" font-size="10" fill="#A5B4C4" text-anchor="end">in 2025 - not enough</text>
  <text x="0" y="100" font-family="Helvetica, Arial, sans-serif" font-size="10" fill="#FFB703" text-anchor="end">NIST  /  Apr 15</text>
  <!-- Stat underline pulse -->
  <rect x="-100" y="6" width="100" height="2" fill="#FFB703" opacity="0.6">
    <animate attributeName="opacity" values="0.3;0.9;0.3" dur="2.6s" repeatCount="indefinite"/>
    <animate attributeName="width" values="100;110;100" dur="3.4s" repeatCount="indefinite"/>
  </rect>
</g>

<!-- ================== BOTTOM RIGHT: Palantir manifesto ================== -->
<rect x="652" y="342" width="516" height="248" rx="14" ry="14" fill="#1C2541" stroke="#E63946" stroke-width="1.6" opacity="0.97"/>
<rect x="652" y="342" width="516" height="4" fill="#E63946" opacity="0.85">
  <animate attributeName="opacity" values="0.5;1;0.5" dur="4.6s" repeatCount="indefinite"/>
</rect>

<text x="670" y="372" font-family="Helvetica, Arial, sans-serif" font-size="12" font-weight="700" fill="#FF8A95" letter-spacing="3">MEDIUM  /  03</text>
<text x="670" y="400" font-family="Helvetica, Arial, sans-serif" font-size="26" font-weight="800" fill="#F8FAFC" filter="url(#textShadow)">Palantir 22-Point Manifesto</text>
<text x="670" y="424" font-family="Helvetica, Arial, sans-serif" font-size="15" fill="#CBD5E1">Anti-pluralism  -  PLTR slides</text>

<!-- Pinned manifesto document -->
<g transform="translate(680,438) rotate(-2 125 72)" filter="url(#softShadow)">
  <rect x="0" y="0" width="250" height="138" fill="url(#paperGrad)" stroke="#8C8470" stroke-width="1.2"/>
  <rect x="0" y="0" width="250" height="138" fill="url(#paperWeave)"/>
  <!-- red pin -->
  <circle cx="125" cy="6" r="5" fill="#E63946" stroke="#7A1D00" stroke-width="1">
    <animate attributeName="r" values="5;6;5" dur="2.8s" repeatCount="indefinite"/>
  </circle>
  <!-- Title -->
  <text x="14" y="26" font-family="Georgia, serif" font-size="13" font-weight="700" fill="#3D2E00">THE TECHNOLOGICAL REPUBLIC</text>
  <text x="14" y="42" font-family="Georgia, serif" font-size="9" font-style="italic" fill="#6B5A1A">Mini-Manifesto  //  22 points</text>
  <!-- Lines of text, with highlighted "regressive" phrases -->
  <g font-family="Georgia, serif" font-size="10" fill="#3D2E00">
    <text x="14" y="68">Silicon Valley owes a moral debt</text>
    <text x="14" y="86" fill="#7A1D00" font-weight="700">Vacant pluralism  -  regressive
      <animate attributeName="opacity" values="0.7;1;0.7" dur="2.4s" repeatCount="indefinite"/>
    </text>
    <text x="14" y="104" fill="#7A1D00" font-weight="700">subcultures are harmful
      <animate attributeName="opacity" values="0.7;1;0.7" dur="2.8s" repeatCount="indefinite"/>
    </text>
    <text x="14" y="124" font-size="8" fill="#6B5A1A">Karp &amp; Zamiska  //  Apr 19, 2026</text>
  </g>
  <!-- Highlighter swipe under "regressive" -->
  <rect x="12" y="99" width="240" height="12" fill="#E63946" opacity="0.18">
    <animate attributeName="opacity" values="0.1;0.3;0.1" dur="3.2s" repeatCount="indefinite"/>
    <animate attributeName="width" values="0;240;240" dur="3.2s" repeatCount="indefinite"/>
  </rect>
  <!-- Edge curl corner shadow -->
  <path d="M240 128 L250 134 L250 138 L238 138 Z" fill="#B8AF92" opacity="0.55">
    <animate attributeName="opacity" values="0.4;0.7;0.4" dur="4.1s" repeatCount="indefinite"/>
  </path>
</g>
<!-- Criticism badge from Bellingcat reaction -->
<g transform="translate(946,438)">
  <rect x="0" y="0" width="10" height="68" fill="#E63946" opacity="0.85">
    <animate attributeName="opacity" values="0.55;0.95;0.55" dur="2.2s" repeatCount="indefinite"/>
  </rect>
</g>

<!-- Share price tumble chart -->
<g transform="translate(960,450)">
  <text x="0" y="0" font-family="Helvetica, Arial, sans-serif" font-size="11" font-weight="700" fill="#8FB8FF" letter-spacing="2">PLTR  SHARES</text>
  <rect x="0" y="10" width="180" height="92" fill="#0A1020" stroke="#2A3256" stroke-width="1" rx="4"/>
  <!-- grid -->
  <g stroke="#2A3256" stroke-width="0.6" opacity="0.6">
    <line x1="0" y1="33" x2="180" y2="33"/>
    <line x1="0" y1="56" x2="180" y2="56"/>
    <line x1="0" y1="79" x2="180" y2="79"/>
  </g>
  <!-- Downward line -->
  <polyline points="6,30 30,36 56,40 84,48 112,62 140,74 172,90" fill="none" stroke="#E63946" stroke-width="2.2">
    <animate attributeName="stroke-dasharray" values="0 400;400 0" dur="3.8s" repeatCount="indefinite"/>
    <animate attributeName="stroke-width" values="2.2;2.8;2.2" dur="2.6s" repeatCount="indefinite"/>
  </polyline>
  <!-- drop marker -->
  <circle cx="172" cy="90" r="4" fill="#E63946">
    <animate attributeName="r" values="4;5.5;4" dur="1.6s" repeatCount="indefinite"/>
    <animate attributeName="opacity" values="0.8;1;0.8" dur="1.6s" repeatCount="indefinite"/>
  </circle>
  <!-- Candle markers (6 red ticks) -->
  <g fill="#E63946" opacity="0.75">
    <rect x="28" y="34" width="3" height="6"><animate attributeName="opacity" values="0.4;0.9;0.4" dur="2.1s" repeatCount="indefinite"/></rect>
    <rect x="54" y="38" width="3" height="6"><animate attributeName="opacity" values="0.4;0.9;0.4" dur="2.4s" repeatCount="indefinite"/></rect>
    <rect x="82" y="46" width="3" height="8"><animate attributeName="opacity" values="0.4;0.9;0.4" dur="2.7s" repeatCount="indefinite"/></rect>
    <rect x="110" y="60" width="3" height="9"><animate attributeName="opacity" values="0.4;0.9;0.4" dur="3.0s" repeatCount="indefinite"/></rect>
    <rect x="138" y="72" width="3" height="9"><animate attributeName="opacity" values="0.4;0.9;0.4" dur="3.3s" repeatCount="indefinite"/></rect>
    <rect x="168" y="88" width="3" height="10"><animate attributeName="opacity" values="0.4;0.95;0.4" dur="3.6s" repeatCount="indefinite"/></rect>
  </g>
  <text x="172" y="108" font-family="Helvetica, Arial, sans-serif" font-size="10" font-weight="700" fill="#E63946" text-anchor="end">SLIDE
    <animate attributeName="opacity" values="0.6;1;0.6" dur="1.8s" repeatCount="indefinite"/>
  </text>
  <text x="0" y="120" font-family="Helvetica, Arial, sans-serif" font-size="9" fill="#A5B4C4">TechCrunch  /  Apr 19</text>
</g>

<!-- ================== Footer strip ================== -->
<rect x="0" y="596" width="1200" height="34" fill="#050813" opacity="0.92"/>
<rect x="0" y="594" width="1200" height="2" fill="#3A86FF" opacity="0.7">
  <animate attributeName="opacity" values="0.35;0.85;0.35" dur="5.2s" repeatCount="indefinite"/>
</rect>
<text x="36" y="618" font-family="Helvetica, Arial, sans-serif" font-size="12" font-weight="700" fill="#7DA3D9" letter-spacing="2">tech.2twodragon.com</text>
<text x="760" y="618" font-family="Helvetica, Arial, sans-serif" font-size="11" fill="#A5B4C4" letter-spacing="1">Bleeping / NIST / TechCrunch</text>

<!-- QR code (bottom-right, 100x100 with quiet zone) -->
<g transform="translate(1075,496)">
  <rect x="-6" y="-6" width="120" height="120" fill="#FFFFFF" rx="6" ry="6" opacity="0.98"/>
  <g transform="scale(6.0)" fill="#0B1326">
    <path d="M0.8,0.8H1.2V1.2H0.8zM1.2,0.8H1.6V1.2H1.2zM1.6,0.8H2V1.2H1.6zM2,0.8H2.4V1.2H2zM2.4,0.8H2.8V1.2H2.4zM2.8,0.8H3.2V1.2H2.8zM3.2,0.8H3.6V1.2H3.2zM4,0.8H4.4V1.2H4zM5.2,0.8H5.6V1.2H5.2zM5.6,0.8H6V1.2H5.6zM6,0.8H6.4V1.2H6zM6.4,0.8H6.8V1.2H6.4zM7.6,0.8H8V1.2H7.6zM8.4,0.8H8.8V1.2H8.4zM8.8,0.8H9.2V1.2H8.8zM9.2,0.8H9.6V1.2H9.2zM9.6,0.8H10V1.2H9.6zM12,0.8H12.4V1.2H12zM12.4,0.8H12.8V1.2H12.4zM12.8,0.8H13.2V1.2H12.8zM13.2,0.8H13.6V1.2H13.2zM13.6,0.8H14V1.2H13.6zM14.4,0.8H14.8V1.2H14.4zM14.8,0.8H15.2V1.2H14.8zM15.2,0.8H15.6V1.2H15.2zM15.6,0.8H16V1.2H15.6zM16,0.8H16.4V1.2H16zM16.4,0.8H16.8V1.2H16.4zM16.8,0.8H17.2V1.2H16.8zM0.8,1.2H1.2V1.6H0.8zM3.2,1.2H3.6V1.6H3.2zM4,1.2H4.4V1.6H4zM4.4,1.2H4.8V1.6H4.4zM5.2,1.2H5.6V1.6H5.2zM6,1.2H6.4V1.6H6zM8,1.2H8.4V1.6H8zM10,1.2H10.4V1.6H10zM10.8,1.2H11.2V1.6H10.8zM11.2,1.2H11.6V1.6H11.2zM12.4,1.2H12.8V1.6H12.4zM12.8,1.2H13.2V1.6H12.8zM14.4,1.2H14.8V1.6H14.4zM16.8,1.2H17.2V1.6H16.8zM0.8,1.6H1.2V2H0.8zM1.6,1.6H2V2H1.6zM2,1.6H2.4V2H2zM2.4,1.6H2.8V2H2.4zM3.2,1.6H3.6V2H3.2zM4.8,1.6H5.2V2H4.8zM5.2,1.6H5.6V2H5.2zM5.6,1.6H6V2H5.6zM6.4,1.6H6.8V2H6.4zM7.2,1.6H7.6V2H7.2zM7.6,1.6H8V2H7.6zM8.4,1.6H8.8V2H8.4zM10.4,1.6H10.8V2H10.4zM10.8,1.6H11.2V2H10.8zM13.2,1.6H13.6V2H13.2zM13.6,1.6H14V2H13.6zM14.4,1.6H14.8V2H14.4zM15.2,1.6H15.6V2H15.2zM15.6,1.6H16V2H15.6zM16,1.6H16.4V2H16zM16.8,1.6H17.2V2H16.8zM0.8,2H1.2V2.4H0.8zM1.6,2H2V2.4H1.6zM2,2H2.4V2.4H2zM2.4,2H2.8V2.4H2.4zM3.2,2H3.6V2.4H3.2zM4,2H4.4V2.4H4zM5.2,2H5.6V2.4H5.2zM5.6,2H6V2.4H5.6zM6.4,2H6.8V2.4H6.4zM8.8,2H9.2V2.4H8.8zM9.2,2H9.6V2.4H9.2zM10.8,2H11.2V2.4H10.8zM11.6,2H12V2.4H11.6zM12,2H12.4V2.4H12zM12.4,2H12.8V2.4H12.4zM13.6,2H14V2.4H13.6zM14.4,2H14.8V2.4H14.4zM15.2,2H15.6V2.4H15.2zM15.6,2H16V2.4H15.6zM16,2H16.4V2.4H16zM16.8,2H17.2V2.4H16.8zM0.8,2.4H1.2V2.8H0.8zM1.6,2.4H2V2.8H1.6zM2,2.4H2.4V2.8H2zM2.4,2.4H2.8V2.8H2.4zM3.2,2.4H3.6V2.8H3.2zM4.4,2.4H4.8V2.8H4.4zM5.6,2.4H6V2.8H5.6zM6,2.4H6.4V2.8H6zM7.2,2.4H7.6V2.8H7.2zM9.6,2.4H10V2.8H9.6zM10,2.4H10.4V2.8H10zM10.4,2.4H10.8V2.8H10.4zM11.2,2.4H11.6V2.8H11.2zM11.6,2.4H12V2.8H11.6zM12.4,2.4H12.8V2.8H12.4zM13.2,2.4H13.6V2.8H13.2zM13.6,2.4H14V2.8H13.6zM14.4,2.4H14.8V2.8H14.4zM15.2,2.4H15.6V2.8H15.2zM15.6,2.4H16V2.8H15.6zM16,2.4H16.4V2.8H16zM16.8,2.4H17.2V2.8H16.8zM0.8,2.8H1.2V3.2H0.8zM3.2,2.8H3.6V3.2H3.2zM5.2,2.8H5.6V3.2H5.2zM5.6,2.8H6V3.2H5.6zM6.8,2.8H7.2V3.2H6.8zM7.6,2.8H8V3.2H7.6zM8,2.8H8.4V3.2H8zM8.4,2.8H8.8V3.2H8.4zM8.8,2.8H9.2V3.2H8.8zM9.2,2.8H9.6V3.2H9.2zM9.6,2.8H10V3.2H9.6zM10.4,2.8H10.8V3.2H10.4zM12,2.8H12.4V3.2H12zM12.8,2.8H13.2V3.2H12.8zM13.2,2.8H13.6V3.2H13.2zM14.4,2.8H14.8V3.2H14.4zM16.8,2.8H17.2V3.2H16.8zM0.8,3.2H1.2V3.6H0.8zM1.2,3.2H1.6V3.6H1.2zM1.6,3.2H2V3.6H1.6zM2,3.2H2.4V3.6H2zM2.4,3.2H2.8V3.6H2.4zM2.8,3.2H3.2V3.6H2.8zM3.2,3.2H3.6V3.6H3.2zM4,3.2H4.4V3.6H4zM4.8,3.2H5.2V3.6H4.8zM5.6,3.2H6V3.6H5.6zM6.4,3.2H6.8V3.6H6.4zM7.2,3.2H7.6V3.6H7.2zM8,3.2H8.4V3.6H8zM8.8,3.2H9.2V3.6H8.8zM9.6,3.2H10V3.6H9.6zM10.4,3.2H10.8V3.6H10.4zM11.2,3.2H11.6V3.6H11.2zM12,3.2H12.4V3.6H12zM12.8,3.2H13.2V3.6H12.8zM13.6,3.2H14V3.6H13.6zM14.4,3.2H14.8V3.6H14.4zM14.8,3.2H15.2V3.6H14.8zM15.2,3.2H15.6V3.6H15.2zM15.6,3.2H16V3.6H15.6zM16,3.2H16.4V3.6H16zM16.4,3.2H16.8V3.6H16.4zM16.8,3.2H17.2V3.6H16.8zM4,3.6H4.4V4H4zM4.4,3.6H4.8V4H4.4zM5.2,3.6H5.6V4H5.2zM7.2,3.6H7.6V4H7.2zM7.6,3.6H8V4H7.6zM8.4,3.6H8.8V4H8.4zM10.4,3.6H10.8V4H10.4zM11.2,3.6H11.6V4H11.2zM12.4,3.6H12.8V4H12.4zM13.2,3.6H13.6V4H13.2zM13.6,3.6H14V4H13.6zM0.8,4H1.2V4.4H0.8zM1.6,4H2V4.4H1.6zM2,4H2.4V4.4H2zM2.8,4H3.2V4.4H2.8zM3.2,4H3.6V4.4H3.2zM3.6,4H4V4.4H3.6zM4.8,4H5.2V4.4H4.8zM5.6,4H6V4.4H5.6zM6.4,4H6.8V4.4H6.4zM7.6,4H8V4.4H7.6zM8,4H8.4V4.4H8zM9.2,4H9.6V4.4H9.2zM10,4H10.4V4.4H10zM10.4,4H10.8V4.4H10.4zM11.2,4H11.6V4.4H11.2zM12.4,4H12.8V4.4H12.4zM12.8,4H13.2V4.4H12.8zM13.2,4H13.6V4.4H13.2zM13.6,4H14V4.4H13.6zM14.4,4H14.8V4.4H14.4zM15.6,4H16V4.4H15.6zM16.4,4H16.8V4.4H16.4zM16.8,4H17.2V4.4H16.8zM0.8,4.4H1.2V4.8H0.8zM1.6,4.4H2V4.8H1.6zM2,4.4H2.4V4.8H2zM3.6,4.4H4V4.8H3.6zM4,4.4H4.4V4.8H4zM4.8,4.4H5.2V4.8H4.8zM5.2,4.4H5.6V4.8H5.2zM5.6,4.4H6V4.8H5.6zM6,4.4H6.4V4.8H6zM7.2,4.4H7.6V4.8H7.2zM8,4.4H8.4V4.8H8zM8.4,4.4H8.8V4.8H8.4zM9.2,4.4H9.6V4.8H9.2zM10,4.4H10.4V4.8H10zM11.2,4.4H11.6V4.8H11.2zM12.8,4.4H13.2V4.8H12.8zM13.2,4.4H13.6V4.8H13.2zM13.6,4.4H14V4.8H13.6zM14.8,4.4H15.2V4.8H14.8zM15.2,4.4H15.6V4.8H15.2zM16,4.4H16.4V4.8H16zM2.4,4.8H2.8V5.2H2.4zM2.8,4.8H3.2V5.2H2.8zM3.2,4.8H3.6V5.2H3.2zM4,4.8H4.4V5.2H4zM4.4,4.8H4.8V5.2H4.4zM5.2,4.8H5.6V5.2H5.2zM6.8,4.8H7.2V5.2H6.8zM8.8,4.8H9.2V5.2H8.8zM9.6,4.8H10V5.2H9.6zM10,4.8H10.4V5.2H10zM12.4,4.8H12.8V5.2H12.4zM16,4.8H16.4V5.2H16zM16.4,4.8H16.8V5.2H16.4zM0.8,5.2H1.2V5.6H0.8zM1.2,5.2H1.6V5.6H1.2zM2.8,5.2H3.2V5.6H2.8zM3.6,5.2H4V5.6H3.6zM5.2,5.2H5.6V5.6H5.2zM5.6,5.2H6V5.6H5.6zM6.4,5.2H6.8V5.6H6.4zM8,5.2H8.4V5.6H8zM8.8,5.2H9.2V5.6H8.8zM9.6,5.2H10V5.6H9.6zM10.4,5.2H10.8V5.6H10.4zM10.8,5.2H11.2V5.6H10.8zM11.6,5.2H12V5.6H11.6zM13.6,5.2H14V5.6H13.6zM14,5.2H14.4V5.6H14zM15.2,5.2H15.6V5.6H15.2zM16.4,5.2H16.8V5.6H16.4zM16.8,5.2H17.2V5.6H16.8zM0.8,5.6H1.2V6H0.8zM1.2,5.6H1.6V6H1.2zM2,5.6H2.4V6H2zM2.4,5.6H2.8V6H2.4zM3.2,5.6H3.6V6H3.2zM3.6,5.6H4V6H3.6zM5.6,5.6H6V6H5.6zM6,5.6H6.4V6H6zM6.4,5.6H6.8V6H6.4zM7.2,5.6H7.6V6H7.2zM7.6,5.6H8V6H7.6zM8.4,5.6H8.8V6H8.4zM8.8,5.6H9.2V6H8.8zM9.6,5.6H10V6H9.6zM10.4,5.6H10.8V6H10.4zM10.8,5.6H11.2V6H10.8zM12,5.6H12.4V6H12zM12.4,5.6H12.8V6H12.4zM12.8,5.6H13.2V6H12.8zM13.2,5.6H13.6V6H13.2zM14.8,5.6H15.2V6H14.8zM15.6,5.6H16V6H15.6zM16,5.6H16.4V6H16zM1.2,6H1.6V6.4H1.2zM1.6,6H2V6.4H1.6zM2,6H2.4V6.4H2zM2.8,6H3.2V6.4H2.8zM3.6,6H4V6.4H3.6zM4,6H4.4V6.4H4zM4.8,6H5.2V6.4H4.8zM5.2,6H5.6V6.4H5.2zM5.6,6H6V6.4H5.6zM6.4,6H6.8V6.4H6.4zM7.2,6H7.6V6.4H7.2zM7.6,6H8V6.4H7.6zM8.8,6H9.2V6.4H8.8zM9.2,6H9.6V6.4H9.2zM10,6H10.4V6.4H10zM10.4,6H10.8V6.4H10.4zM10.8,6H11.2V6.4H10.8zM11.2,6H11.6V6.4H11.2zM11.6,6H12V6.4H11.6zM12,6H12.4V6.4H12zM12.8,6H13.2V6.4H12.8zM13.2,6H13.6V6.4H13.2zM14,6H14.4V6.4H14zM15.6,6H16V6.4H15.6zM16.4,6H16.8V6.4H16.4zM16.8,6H17.2V6.4H16.8zM1.2,6.4H1.6V6.8H1.2zM1.6,6.4H2V6.8H1.6zM2,6.4H2.4V6.8H2zM2.4,6.4H2.8V6.8H2.4zM2.8,6.4H3.2V6.8H2.8zM3.2,6.4H3.6V6.8H3.2zM4.4,6.4H4.8V6.8H4.4zM5.2,6.4H5.6V6.8H5.2zM6.4,6.4H6.8V6.8H6.4zM6.8,6.4H7.2V6.8H6.8zM8.4,6.4H8.8V6.8H8.4zM8.8,6.4H9.2V6.8H8.8zM9.2,6.4H9.6V6.8H9.2zM10,6.4H10.4V6.8H10zM10.8,6.4H11.2V6.8H10.8zM12.4,6.4H12.8V6.8H12.4zM13.2,6.4H13.6V6.8H13.2zM13.6,6.4H14V6.8H13.6zM14.4,6.4H14.8V6.8H14.4zM14.8,6.4H15.2V6.8H14.8zM15.2,6.4H15.6V6.8H15.2zM16,6.4H16.4V6.8H16zM16.4,6.4H16.8V6.8H16.4zM16.8,6.4H17.2V6.8H16.8zM0.8,6.8H1.2V7.2H0.8zM1.2,6.8H1.6V7.2H1.2zM1.6,6.8H2V7.2H1.6zM2,6.8H2.4V7.2H2zM3.6,6.8H4V7.2H3.6zM5.2,6.8H5.6V7.2H5.2zM6,6.8H6.4V7.2H6zM6.4,6.8H6.8V7.2H6.4zM7.2,6.8H7.6V7.2H7.2zM8,6.8H8.4V7.2H8zM9.2,6.8H9.6V7.2H9.2zM9.6,6.8H10V7.2H9.6zM10,6.8H10.4V7.2H10zM11.2,6.8H11.6V7.2H11.2zM11.6,6.8H12V7.2H11.6zM14.4,6.8H14.8V7.2H14.4zM15.2,6.8H15.6V7.2H15.2zM15.6,6.8H16V7.2H15.6zM1.2,7.2H1.6V7.6H1.2zM2,7.2H2.4V7.6H2zM2.4,7.2H2.8V7.6H2.4zM3.2,7.2H3.6V7.6H3.2zM4,7.2H4.4V7.6H4zM4.8,7.2H5.2V7.6H4.8zM5.2,7.2H5.6V7.6H5.2zM5.6,7.2H6V7.6H5.6zM6.8,7.2H7.2V7.6H6.8zM7.2,7.2H7.6V7.6H7.2zM8,7.2H8.4V7.6H8zM8.8,7.2H9.2V7.6H8.8zM9.6,7.2H10V7.6H9.6zM10.4,7.2H10.8V7.6H10.4zM10.8,7.2H11.2V7.6H10.8zM11.6,7.2H12V7.6H11.6zM12.8,7.2H13.2V7.6H12.8zM13.6,7.2H14V7.6H13.6zM15.2,7.2H15.6V7.6H15.2zM15.6,7.2H16V7.6H15.6zM16.4,7.2H16.8V7.6H16.4zM1.2,7.6H1.6V8H1.2zM2,7.6H2.4V8H2zM3.6,7.6H4V8H3.6zM5.6,7.6H6V8H5.6zM6.4,7.6H6.8V8H6.4zM7.2,7.6H7.6V8H7.2zM8,7.6H8.4V8H8zM8.4,7.6H8.8V8H8.4zM8.8,7.6H9.2V8H8.8zM9.2,7.6H9.6V8H9.2zM9.6,7.6H10V8H9.6zM10,7.6H10.4V8H10zM10.4,7.6H10.8V8H10.4zM13.6,7.6H14V8H13.6zM14,7.6H14.4V8H14zM14.8,7.6H15.2V8H14.8zM15.6,7.6H16V8H15.6zM0.8,8H1.2V8.4H0.8zM1.6,8H2V8.4H1.6zM2.4,8H2.8V8.4H2.4zM3.2,8H3.6V8.4H3.2zM3.6,8H4V8.4H3.6zM4,8H4.4V8.4H4zM4.4,8H4.8V8.4H4.4zM4.8,8H5.2V8.4H4.8zM6,8H6.4V8.4H6zM6.4,8H6.8V8.4H6.4zM7.2,8H7.6V8.4H7.2zM8,8H8.4V8.4H8zM8.8,8H9.2V8.4H8.8zM9.6,8H10V8.4H9.6zM10.8,8H11.2V8.4H10.8zM11.2,8H11.6V8.4H11.2zM11.6,8H12V8.4H11.6zM12,8H12.4V8.4H12zM12.8,8H13.2V8.4H12.8zM13.6,8H14V8.4H13.6zM15.2,8H15.6V8.4H15.2zM16,8H16.4V8.4H16zM16.4,8H16.8V8.4H16.4zM0.8,8.4H1.2V8.8H0.8zM1.2,8.4H1.6V8.8H1.2zM2.4,8.4H2.8V8.8H2.4zM3.6,8.4H4V8.8H3.6zM5.2,8.4H5.6V8.8H5.2zM7.6,8.4H8V8.8H7.6zM8,8.4H8.4V8.8H8zM8.4,8.4H8.8V8.8H8.4zM9.2,8.4H9.6V8.8H9.2zM11.6,8.4H12V8.8H11.6zM12,8.4H12.4V8.8H12zM12.4,8.4H12.8V8.8H12.4zM12.8,8.4H13.2V8.8H12.8zM14.8,8.4H15.2V8.8H14.8zM15.6,8.4H16V8.8H15.6zM16,8.4H16.4V8.8H16zM16.4,8.4H16.8V8.8H16.4zM0.8,8.8H1.2V9.2H0.8zM1.2,8.8H1.6V9.2H1.2zM1.6,8.8H2V9.2H1.6zM2,8.8H2.4V9.2H2zM3.2,8.8H3.6V9.2H3.2zM3.6,8.8H4V9.2H3.6zM4,8.8H4.4V9.2H4zM4.4,8.8H4.8V9.2H4.4zM4.8,8.8H5.2V9.2H4.8zM5.2,8.8H5.6V9.2H5.2zM5.6,8.8H6V9.2H5.6zM8.8,8.8H9.2V9.2H8.8zM10.8,8.8H11.2V9.2H10.8zM11.6,8.8H12V9.2H11.6zM12.4,8.8H12.8V9.2H12.4zM12.8,8.8H13.2V9.2H12.8zM13.2,8.8H13.6V9.2H13.2zM13.6,8.8H14V9.2H13.6zM14,8.8H14.4V9.2H14zM14.4,8.8H14.8V9.2H14.4zM14.8,8.8H15.2V9.2H14.8zM15.6,8.8H16V9.2H15.6zM16,8.8H16.4V9.2H16zM16.4,8.8H16.8V9.2H16.4zM0.8,9.2H1.2V9.6H0.8zM3.6,9.2H4V9.6H3.6zM4.4,9.2H4.8V9.6H4.4zM4.8,9.2H5.2V9.6H4.8zM5.2,9.2H5.6V9.6H5.2zM6.4,9.2H6.8V9.6H6.4zM6.8,9.2H7.2V9.6H6.8zM7.2,9.2H7.6V9.6H7.2zM8.8,9.2H9.2V9.6H8.8zM9.2,9.2H9.6V9.6H9.2zM10,9.2H10.4V9.6H10zM10.4,9.2H10.8V9.6H10.4zM12.8,9.2H13.2V9.6H12.8zM13.2,9.2H13.6V9.6H13.2zM14.4,9.2H14.8V9.6H14.4zM14.8,9.2H15.2V9.6H14.8zM15.2,9.2H15.6V9.6H15.2zM15.6,9.2H16V9.6H15.6zM16,9.2H16.4V9.6H16zM16.4,9.2H16.8V9.6H16.4zM16.8,9.2H17.2V9.6H16.8zM1.2,9.6H1.6V10H1.2zM2.4,9.6H2.8V10H2.4zM3.2,9.6H3.6V10H3.2zM3.6,9.6H4V10H3.6zM4,9.6H4.4V10H4zM4.4,9.6H4.8V10H4.4zM5.2,9.6H5.6V10H5.2zM6,9.6H6.4V10H6zM6.4,9.6H6.8V10H6.4zM7.2,9.6H7.6V10H7.2zM8.8,9.6H9.2V10H8.8zM10,9.6H10.4V10H10zM12,9.6H12.4V10H12zM12.4,9.6H12.8V10H12.4zM12.8,9.6H13.2V10H12.8zM14,9.6H14.4V10H14zM14.4,9.6H14.8V10H14.4zM15.2,9.6H15.6V10H15.2zM15.6,9.6H16V10H15.6zM16.4,9.6H16.8V10H16.4zM0.8,10H1.2V10.4H0.8zM1.6,10H2V10.4H1.6zM3.6,10H4V10.4H3.6zM4,10H4.4V10.4H4zM4.4,10H4.8V10.4H4.4zM4.8,10H5.2V10.4H4.8zM6,10H6.4V10.4H6zM7.2,10H7.6V10.4H7.2zM8,10H8.4V10.4H8zM8.4,10H8.8V10.4H8.4zM10.8,10H11.2V10.4H10.8zM11.6,10H12V10.4H11.6zM12.8,10H13.2V10.4H12.8zM13.6,10H14V10.4H13.6zM14,10H14.4V10.4H14zM14.8,10H15.2V10.4H14.8zM16.4,10H16.8V10.4H16.4zM0.8,10.4H1.2V10.8H0.8zM2.8,10.4H3.2V10.8H2.8zM3.2,10.4H3.6V10.8H3.2zM5.2,10.4H5.6V10.8H5.2zM6,10.4H6.4V10.8H6zM6.8,10.4H7.2V10.8H6.8zM7.2,10.4H7.6V10.8H7.2zM7.6,10.4H8V10.8H7.6zM8.4,10.4H8.8V10.8H8.4zM9.6,10.4H10V10.8H9.6zM10.4,10.4H10.8V10.8H10.4zM10.8,10.4H11.2V10.8H10.8zM11.2,10.4H11.6V10.8H11.2zM12.4,10.4H12.8V10.8H12.4zM13.2,10.4H13.6V10.8H13.2zM14.8,10.4H15.2V10.8H14.8zM16.8,10.4H17.2V10.8H16.8zM1.6,10.8H2V11.2H1.6zM2,10.8H2.4V11.2H2zM2.4,10.8H2.8V11.2H2.4zM2.8,10.8H3.2V11.2H2.8zM3.6,10.8H4V11.2H3.6zM4,10.8H4.4V11.2H4zM4.4,10.8H4.8V11.2H4.4zM6.4,10.8H6.8V11.2H6.4zM6.8,10.8H7.2V11.2H6.8zM7.6,10.8H8V11.2H7.6zM8.4,10.8H8.8V11.2H8.4zM10.4,10.8H10.8V11.2H10.4zM10.8,10.8H11.2V11.2H10.8zM11.6,10.8H12V11.2H11.6zM12.4,10.8H12.8V11.2H12.4zM13.2,10.8H13.6V11.2H13.2zM13.6,10.8H14V11.2H13.6zM14,10.8H14.4V11.2H14zM15.6,10.8H16V11.2H15.6zM16,10.8H16.4V11.2H16zM16.8,10.8H17.2V11.2H16.8zM0.8,11.2H1.2V11.6H0.8zM1.2,11.2H1.6V11.6H1.2zM1.6,11.2H2V11.6H1.6zM2.8,11.2H3.2V11.6H2.8zM3.2,11.2H3.6V11.6H3.2zM4.4,11.2H4.8V11.6H4.4zM4.8,11.2H5.2V11.6H4.8zM6.4,11.2H6.8V11.6H6.4zM6.8,11.2H7.2V11.6H6.8zM7.2,11.2H7.6V11.6H7.2zM8,11.2H8.4V11.6H8zM8.4,11.2H8.8V11.6H8.4zM8.8,11.2H9.2V11.6H8.8zM10.4,11.2H10.8V11.6H10.4zM11.2,11.2H11.6V11.6H11.2zM12,11.2H12.4V11.6H12zM12.4,11.2H12.8V11.6H12.4zM13.2,11.2H13.6V11.6H13.2zM13.6,11.2H14V11.6H13.6zM14,11.2H14.4V11.6H14zM15.6,11.2H16V11.6H15.6zM16.4,11.2H16.8V11.6H16.4zM16.8,11.2H17.2V11.6H16.8zM0.8,11.6H1.2V12H0.8zM1.2,11.6H1.6V12H1.2zM1.6,11.6H2V12H1.6zM2,11.6H2.4V12H2zM2.4,11.6H2.8V12H2.4zM4.8,11.6H5.2V12H4.8zM6.4,11.6H6.8V12H6.4zM6.8,11.6H7.2V12H6.8zM7.2,11.6H7.6V12H7.2zM8.4,11.6H8.8V12H8.4zM8.8,11.6H9.2V12H8.8zM9.2,11.6H9.6V12H9.2zM9.6,11.6H10V12H9.6zM10,11.6H10.4V12H10zM11.2,11.6H11.6V12H11.2zM11.6,11.6H12V12H11.6zM12.8,11.6H13.2V12H12.8zM13.2,11.6H13.6V12H13.2zM13.6,11.6H14V12H13.6zM14.4,11.6H14.8V12H14.4zM14.8,11.6H15.2V12H14.8zM15.2,11.6H15.6V12H15.2zM15.6,11.6H16V12H15.6zM16.4,11.6H16.8V12H16.4zM0.8,12H1.2V12.4H0.8zM1.2,12H1.6V12.4H1.2zM2.4,12H2.8V12.4H2.4zM3.2,12H3.6V12.4H3.2zM3.6,12H4V12.4H3.6zM4,12H4.4V12.4H4zM4.4,12H4.8V12.4H4.4zM4.8,12H5.2V12.4H4.8zM5.2,12H5.6V12.4H5.2zM6.4,12H6.8V12.4H6.4zM8,12H8.4V12.4H8zM8.4,12H8.8V12.4H8.4zM8.8,12H9.2V12.4H8.8zM9.2,12H9.6V12.4H9.2zM9.6,12H10V12.4H9.6zM10.4,12H10.8V12.4H10.4zM10.8,12H11.2V12.4H10.8zM11.2,12H11.6V12.4H11.2zM11.6,12H12V12.4H11.6zM13.2,12H13.6V12.4H13.2zM13.6,12H14V12.4H13.6zM14,12H14.4V12.4H14zM15.2,12H15.6V12.4H15.2zM15.6,12H16V12.4H15.6zM16.4,12H16.8V12.4H16.4zM16.8,12H17.2V12.4H16.8zM2.4,12.4H2.8V12.8H2.4zM4,12.4H4.4V12.8H4zM4.8,12.4H5.2V12.8H4.8zM5.2,12.4H5.6V12.8H5.2zM5.6,12.4H6V12.8H5.6zM6,12.4H6.4V12.8H6zM6.4,12.4H6.8V12.8H6.4zM7.2,12.4H7.6V12.8H7.2zM8.4,12.4H8.8V12.8H8.4zM8.8,12.4H9.2V12.8H8.8zM9.6,12.4H10V12.8H9.6zM10.8,12.4H11.2V12.8H10.8zM11.2,12.4H11.6V12.8H11.2zM11.6,12.4H12V12.8H11.6zM12.4,12.4H12.8V12.8H12.4zM12.8,12.4H13.2V12.8H12.8zM13.6,12.4H14V12.8H13.6zM14,12.4H14.4V12.8H14zM14.4,12.4H14.8V12.8H14.4zM14.8,12.4H15.2V12.8H14.8zM15.6,12.4H16V12.8H15.6zM16.4,12.4H16.8V12.8H16.4zM0.8,12.8H1.2V13.2H0.8zM1.6,12.8H2V13.2H1.6zM2.4,12.8H2.8V13.2H2.4zM3.2,12.8H3.6V13.2H3.2zM3.6,12.8H4V13.2H3.6zM4.4,12.8H4.8V13.2H4.4zM4.8,12.8H5.2V13.2H4.8zM5.6,12.8H6V13.2H5.6zM8,12.8H8.4V13.2H8zM8.4,12.8H8.8V13.2H8.4zM9.2,12.8H9.6V13.2H9.2zM10.8,12.8H11.2V13.2H10.8zM11.2,12.8H11.6V13.2H11.2zM11.6,12.8H12V13.2H11.6zM14,12.8H14.4V13.2H14zM14.4,12.8H14.8V13.2H14.4zM14.8,12.8H15.2V13.2H14.8zM1.6,13.2H2V13.6H1.6zM2.4,13.2H2.8V13.6H2.4zM2.8,13.2H3.2V13.6H2.8zM3.6,13.2H4V13.6H3.6zM6.4,13.2H6.8V13.6H6.4zM7.2,13.2H7.6V13.6H7.2zM7.6,13.2H8V13.6H7.6zM8.4,13.2H8.8V13.6H8.4zM9.6,13.2H10V13.6H9.6zM10,13.2H10.4V13.6H10zM12,13.2H12.4V13.6H12zM12.4,13.2H12.8V13.6H12.4zM13.6,13.2H14V13.6H13.6zM14.4,13.2H14.8V13.6H14.4zM15.2,13.2H15.6V13.6H15.2zM15.6,13.2H16V13.6H15.6zM16,13.2H16.4V13.6H16zM16.4,13.2H16.8V13.6H16.4zM16.8,13.2H17.2V13.6H16.8zM1.2,13.6H1.6V14H1.2zM2.4,13.6H2.8V14H2.4zM3.2,13.6H3.6V14H3.2zM3.6,13.6H4V14H3.6zM4,13.6H4.4V14H4zM4.8,13.6H5.2V14H4.8zM5.6,13.6H6V14H5.6zM6,13.6H6.4V14H6zM6.8,13.6H7.2V14H6.8zM7.2,13.6H7.6V14H7.2zM7.6,13.6H8V14H7.6zM8,13.6H8.4V14H8zM8.8,13.6H9.2V14H8.8zM10.4,13.6H10.8V14H10.4zM11.2,13.6H11.6V14H11.2zM12.4,13.6H12.8V14H12.4zM12.8,13.6H13.2V14H12.8zM13.2,13.6H13.6V14H13.2zM13.6,13.6H14V14H13.6zM14,13.6H14.4V14H14zM14.4,13.6H14.8V14H14.4zM14.8,13.6H15.2V14H14.8zM15.2,13.6H15.6V14H15.2zM15.6,13.6H16V14H15.6zM16,13.6H16.4V14H16zM16.8,13.6H17.2V14H16.8zM4,14H4.4V14.4H4zM4.8,14H5.2V14.4H4.8zM5.2,14H5.6V14.4H5.2zM6.8,14H7.2V14.4H6.8zM7.6,14H8V14.4H7.6zM8,14H8.4V14.4H8zM8.8,14H9.2V14.4H8.8zM9.2,14H9.6V14.4H9.2zM10,14H10.4V14.4H10zM10.8,14H11.2V14.4H10.8zM11.6,14H12V14.4H11.6zM12,14H12.4V14.4H12zM12.4,14H12.8V14.4H12.4zM13.6,14H14V14.4H13.6zM15.2,14H15.6V14.4H15.2zM16,14H16.4V14.4H16zM16.4,14H16.8V14.4H16.4zM16.8,14H17.2V14.4H16.8zM0.8,14.4H1.2V14.8H0.8zM1.2,14.4H1.6V14.8H1.2zM1.6,14.4H2V14.8H1.6zM2,14.4H2.4V14.8H2zM2.4,14.4H2.8V14.8H2.4zM2.8,14.4H3.2V14.8H2.8zM3.2,14.4H3.6V14.8H3.2zM4,14.4H4.4V14.8H4zM6,14.4H6.4V14.8H6zM6.8,14.4H7.2V14.8H6.8zM8,14.4H8.4V14.8H8zM10,14.4H10.4V14.8H10zM10.4,14.4H10.8V14.8H10.4zM10.8,14.4H11.2V14.8H10.8zM12,14.4H12.4V14.8H12zM12.8,14.4H13.2V14.8H12.8zM13.2,14.4H13.6V14.8H13.2zM13.6,14.4H14V14.8H13.6zM14.4,14.4H14.8V14.8H14.4zM15.2,14.4H15.6V14.8H15.2zM15.6,14.4H16V14.8H15.6zM16,14.4H16.4V14.8H16zM16.4,14.4H16.8V14.8H16.4zM0.8,14.8H1.2V15.2H0.8zM3.2,14.8H3.6V15.2H3.2zM4,14.8H4.4V15.2H4zM5.2,14.8H5.6V15.2H5.2zM6.4,14.8H6.8V15.2H6.4zM7.2,14.8H7.6V15.2H7.2zM7.6,14.8H8V15.2H7.6zM8.4,14.8H8.8V15.2H8.4zM10.4,14.8H10.8V15.2H10.4zM12,14.8H12.4V15.2H12zM13.6,14.8H14V15.2H13.6zM15.2,14.8H15.6V15.2H15.2zM16.4,14.8H16.8V15.2H16.4zM0.8,15.2H1.2V15.6H0.8zM1.6,15.2H2V15.6H1.6zM2,15.2H2.4V15.6H2zM2.4,15.2H2.8V15.6H2.4zM3.2,15.2H3.6V15.6H3.2zM4.4,15.2H4.8V15.6H4.4zM6,15.2H6.4V15.6H6zM8.4,15.2H8.8V15.6H8.4zM9.2,15.2H9.6V15.6H9.2zM11.2,15.2H11.6V15.6H11.2zM12.4,15.2H12.8V15.6H12.4zM13.6,15.2H14V15.6H13.6zM14,15.2H14.4V15.6H14zM14.4,15.2H14.8V15.6H14.4zM14.8,15.2H15.2V15.6H14.8zM15.2,15.2H15.6V15.6H15.2zM15.6,15.2H16V15.6H15.6zM16,15.2H16.4V15.6H16zM16.8,15.2H17.2V15.6H16.8zM0.8,15.6H1.2V16H0.8zM1.6,15.6H2V16H1.6zM2,15.6H2.4V16H2zM2.4,15.6H2.8V16H2.4zM3.2,15.6H3.6V16H3.2zM4,15.6H4.4V16H4zM4.4,15.6H4.8V16H4.4zM5.6,15.6H6V16H5.6zM6.4,15.6H6.8V16H6.4zM7.2,15.6H7.6V16H7.2zM7.6,15.6H8V16H7.6zM8.4,15.6H8.8V16H8.4zM9.6,15.6H10V16H9.6zM11.2,15.6H11.6V16H11.2zM11.6,15.6H12V16H11.6zM12.4,15.6H12.8V16H12.4zM12.8,15.6H13.2V16H12.8zM13.2,15.6H13.6V16H13.2zM15.2,15.6H15.6V16H15.2zM16,15.6H16.4V16H16zM16.4,15.6H16.8V16H16.4zM0.8,16H1.2V16.4H0.8zM1.6,16H2V16.4H1.6zM2,16H2.4V16.4H2zM2.4,16H2.8V16.4H2.4zM3.2,16H3.6V16.4H3.2zM4,16H4.4V16.4H4zM4.8,16H5.2V16.4H4.8zM5.2,16H5.6V16.4H5.2zM6.4,16H6.8V16.4H6.4zM6.8,16H7.2V16.4H6.8zM7.2,16H7.6V16.4H7.2zM8,16H8.4V16.4H8zM8.4,16H8.8V16.4H8.4zM8.8,16H9.2V16.4H8.8zM9.2,16H9.6V16.4H9.2zM11.2,16H11.6V16.4H11.2zM12,16H12.4V16.4H12zM12.4,16H12.8V16.4H12.4zM14.8,16H15.2V16.4H14.8zM16.4,16H16.8V16.4H16.4zM16.8,16H17.2V16.4H16.8zM0.8,16.4H1.2V16.8H0.8zM3.2,16.4H3.6V16.8H3.2zM4.4,16.4H4.8V16.8H4.4zM5.2,16.4H5.6V16.8H5.2zM6,16.4H6.4V16.8H6zM6.4,16.4H6.8V16.8H6.4zM6.8,16.4H7.2V16.8H6.8zM8.4,16.4H8.8V16.8H8.4zM9.2,16.4H9.6V16.8H9.2zM9.6,16.4H10V16.8H9.6zM10,16.4H10.4V16.8H10zM10.4,16.4H10.8V16.8H10.4zM11.2,16.4H11.6V16.8H11.2zM12,16.4H12.4V16.8H12zM13.6,16.4H14V16.8H13.6zM14,16.4H14.4V16.8H14zM15.2,16.4H15.6V16.8H15.2zM15.6,16.4H16V16.8H15.6zM16.4,16.4H16.8V16.8H16.4zM0.8,16.8H1.2V17.2H0.8zM1.2,16.8H1.6V17.2H1.2zM1.6,16.8H2V17.2H1.6zM2,16.8H2.4V17.2H2zM2.4,16.8H2.8V17.2H2.4zM2.8,16.8H3.2V17.2H2.8zM3.2,16.8H3.6V17.2H3.2zM4,16.8H4.4V17.2H4zM4.4,16.8H4.8V17.2H4.4zM4.8,16.8H5.2V17.2H4.8zM5.6,16.8H6V17.2H5.6zM6.4,16.8H6.8V17.2H6.4zM6.8,16.8H7.2V17.2H6.8zM7.2,16.8H7.6V17.2H7.2zM8,16.8H8.4V17.2H8zM8.8,16.8H9.2V17.2H8.8zM9.2,16.8H9.6V17.2H9.2zM9.6,16.8H10V17.2H9.6zM10,16.8H10.4V17.2H10zM10.8,16.8H11.2V17.2H10.8zM12.8,16.8H13.2V17.2H12.8zM13.6,16.8H14V17.2H13.6zM14,16.8H14.4V17.2H14zM14.4,16.8H14.8V17.2H14.4zM15.6,16.8H16V17.2H15.6zM16,16.8H16.4V17.2H16zM16.4,16.8H16.8V17.2H16.4z"/>
  </g>
</g>
<text x="1128" y="612" font-family="Helvetica, Arial, sans-serif" font-size="9" fill="#A5B4C4" text-anchor="middle" letter-spacing="1">scan  /  full post</text>

</svg>
