<svg xmlns="http://www.w3.org/2000/svg" viewBox="0 0 1200 630" width="1200" height="630">
  <title>AI Cloud Digest Meta Prometheus Google OTLP AWS</title>
  <defs>
    <linearGradient id="bg" x1="0%" y1="0%" x2="100%" y2="100%">
      <stop offset="0%" stop-color="#0a0f1a"/>
      <stop offset="100%" stop-color="#152040"/>
    </linearGradient>
    <linearGradient id="accent" x1="0%" y1="0%" x2="100%" y2="0%">
      <stop offset="0%" stop-color="#3498db"/>
      <stop offset="100%" stop-color="#9b59b6"/>
    </linearGradient>
  </defs>
  <rect width="1200" height="630" fill="url(#bg)"/>
  <line x1="0" y1="105" x2="1200" y2="105" stroke="rgba(255,255,255,0.04)" stroke-width="1"/>
  <line x1="0" y1="210" x2="1200" y2="210" stroke="rgba(255,255,255,0.04)" stroke-width="1"/>
  <line x1="0" y1="315" x2="1200" y2="315" stroke="rgba(255,255,255,0.04)" stroke-width="1"/>
  <line x1="0" y1="420" x2="1200" y2="420" stroke="rgba(255,255,255,0.04)" stroke-width="1"/>
  <line x1="240" y1="0" x2="240" y2="630" stroke="rgba(255,255,255,0.03)" stroke-width="1"/>
  <line x1="480" y1="0" x2="480" y2="630" stroke="rgba(255,255,255,0.03)" stroke-width="1"/>
  <line x1="720" y1="0" x2="720" y2="630" stroke="rgba(255,255,255,0.03)" stroke-width="1"/>
  <line x1="960" y1="0" x2="960" y2="630" stroke="rgba(255,255,255,0.03)" stroke-width="1"/>
  <circle cx="1050" cy="420" r="200" fill="rgba(255,255,255,0.02)"/>
  <circle cx="1050" cy="420" r="140" fill="rgba(255,255,255,0.02)"/>
  <!-- Cloud node 1 top-left -->
  <ellipse cx="940" cy="305" rx="62" ry="36" fill="rgba(52,152,219,0.15)" stroke="rgba(52,152,219,0.45)" stroke-width="2"/>
  <ellipse cx="900" cy="317" rx="36" ry="26" fill="rgba(52,152,219,0.10)" stroke="rgba(52,152,219,0.3)" stroke-width="1.5"/>
  <ellipse cx="978" cy="317" rx="34" ry="24" fill="rgba(52,152,219,0.10)" stroke="rgba(52,152,219,0.3)" stroke-width="1.5"/>
  <rect x="866" y="317" width="146" height="26" fill="rgba(52,152,219,0.08)"/>
  <!-- Cloud node 2 top-right -->
  <ellipse cx="1112" cy="305" rx="62" ry="36" fill="rgba(155,89,182,0.15)" stroke="rgba(155,89,182,0.45)" stroke-width="2"/>
  <ellipse cx="1072" cy="317" rx="36" ry="26" fill="rgba(155,89,182,0.10)" stroke="rgba(155,89,182,0.3)" stroke-width="1.5"/>
  <ellipse cx="1150" cy="317" rx="34" ry="24" fill="rgba(155,89,182,0.10)" stroke="rgba(155,89,182,0.3)" stroke-width="1.5"/>
  <rect x="1038" y="317" width="146" height="26" fill="rgba(155,89,182,0.08)"/>
  <!-- Cloud node 3 bottom-center -->
  <ellipse cx="1026" cy="435" rx="68" ry="40" fill="rgba(52,152,219,0.15)" stroke="rgba(52,152,219,0.45)" stroke-width="2"/>
  <ellipse cx="980" cy="449" rx="40" ry="29" fill="rgba(52,152,219,0.10)" stroke="rgba(52,152,219,0.3)" stroke-width="1.5"/>
  <ellipse cx="1070" cy="449" rx="38" ry="27" fill="rgba(52,152,219,0.10)" stroke="rgba(52,152,219,0.3)" stroke-width="1.5"/>
  <rect x="942" y="449" width="168" height="29" fill="rgba(52,152,219,0.08)"/>
  <!-- Connection lines -->
  <line x1="982" y1="335" x2="1040" y2="335" stroke="rgba(52,152,219,0.4)" stroke-width="2" stroke-dasharray="5,3"/>
  <line x1="940" y1="343" x2="988" y2="422" stroke="rgba(52,152,219,0.35)" stroke-width="2" stroke-dasharray="5,3"/>
  <line x1="1112" y1="343" x2="1063" y2="422" stroke="rgba(155,89,182,0.35)" stroke-width="2" stroke-dasharray="5,3"/>
  <!-- Connection dots -->
  <circle cx="1011" cy="335" r="4" fill="rgba(52,152,219,0.6)"/>
  <circle cx="964" cy="383" r="4" fill="rgba(52,152,219,0.5)"/>
  <circle cx="1088" cy="383" r="4" fill="rgba(155,89,182,0.5)"/>
  <rect x="0" y="0" width="6" height="630" fill="url(#accent)"/>
  <rect x="80" y="60" width="200" height="32" rx="4" fill="rgba(52,152,219,0.2)" stroke="rgba(52,152,219,0.4)" stroke-width="1"/>
  <text x="180" y="81" font-family="system-ui,sans-serif" font-size="14" fill="rgba(255,255,255,0.8)" text-anchor="middle" letter-spacing="1">FEBRUARY 10, 2026</text>
  <text x="80" y="185" font-family="system-ui,sans-serif" font-size="46" font-weight="700" fill="white" letter-spacing="-1">Meta Prometheus</text>
  <text x="80" y="245" font-family="system-ui,sans-serif" font-size="46" font-weight="700" fill="white" letter-spacing="-1">Google OTLP &amp; AWS</text>
  <text x="80" y="300" font-family="system-ui,sans-serif" font-size="19" fill="rgba(255,255,255,0.6)">Meta Prometheus, Google OTLP, AWS Updates</text>
  <rect x="80" y="325" width="420" height="3" rx="1" fill="url(#accent)"/>
  <text x="80" y="370" font-family="system-ui,sans-serif" font-size="14" fill="rgba(255,255,255,0.4)" letter-spacing="2">AI CLOUD DIGEST</text>
  <rect x="80" y="400" width="115" height="30" rx="15" fill="rgba(52,152,219,0.15)" stroke="rgba(52,152,219,0.4)" stroke-width="1"/>
  <text x="137" y="420" font-family="system-ui,sans-serif" font-size="13" fill="rgba(255,255,255,0.8)" text-anchor="middle">Prometheus</text>
  <rect x="210" y="400" width="120" height="30" rx="15" fill="rgba(155,89,182,0.15)" stroke="rgba(155,89,182,0.4)" stroke-width="1"/>
  <text x="270" y="420" font-family="system-ui,sans-serif" font-size="13" fill="rgba(255,255,255,0.8)" text-anchor="middle">Google OTLP</text>
  <rect x="345" y="400" width="80" height="30" rx="15" fill="rgba(52,152,219,0.15)" stroke="rgba(52,152,219,0.4)" stroke-width="1"/>
  <text x="385" y="420" font-family="system-ui,sans-serif" font-size="13" fill="rgba(255,255,255,0.8)" text-anchor="middle">AWS</text>
  <rect x="80" y="520" width="1040" height="1" fill="rgba(255,255,255,0.08)"/>
  <text x="80" y="545" font-family="system-ui,sans-serif" font-size="13" fill="rgba(255,255,255,0.3)" letter-spacing="1">tech.2twodragon.com</text>
  <text x="1120" y="545" font-family="system-ui,sans-serif" font-size="13" fill="rgba(255,255,255,0.3)" text-anchor="end">DevSecOps</text>
</svg>
