<svg xmlns="http://www.w3.org/2000/svg" viewBox="0 0 1200 630" width="1200" height="630" role="img" aria-label="Weekly tech AI blockchain digest: DeepSeek R2 release, Solana TPS record, ETH L2 fee collapse">
<title>Weekly tech AI blockchain digest 2026-02-02: DeepSeek R2, Solana TPS record, ETH L2 fees</title>
<defs>
<linearGradient id="bgSpreadJA07" x1="0%" y1="0%" x2="100%" y2="100%"><stop offset="0%" stop-color="#0A1226"/><stop offset="50%" stop-color="#0C1430"/><stop offset="100%" stop-color="#131038"/></linearGradient>
<linearGradient id="bandAJA07" x1="0%" y1="0%" x2="100%" y2="0%"><stop offset="0%" stop-color="#1E0A3A"/><stop offset="100%" stop-color="#2A0E4A"/></linearGradient>
<linearGradient id="bandBJA07" x1="0%" y1="0%" x2="100%" y2="0%"><stop offset="0%" stop-color="#0E2038"/><stop offset="100%" stop-color="#12283F"/></linearGradient>
<linearGradient id="bandCJA07" x1="0%" y1="0%" x2="100%" y2="0%"><stop offset="0%" stop-color="#0A1B35"/><stop offset="100%" stop-color="#0D2040"/></linearGradient>
<filter id="softShadow" x="-10%" y="-10%" width="130%" height="130%"><feGaussianBlur in="SourceAlpha" stdDeviation="2.5"/><feOffset dx="1" dy="3"/><feComponentTransfer><feFuncA type="linear" slope="0.55"/></feComponentTransfer><feMerge><feMergeNode/><feMergeNode in="SourceGraphic"/></feMerge></filter>
<filter id="textShadow" x="-5%" y="-5%" width="110%" height="110%"><feGaussianBlur in="SourceAlpha" stdDeviation="1.2"/><feOffset dx="0" dy="1.5"/><feComponentTransfer><feFuncA type="linear" slope="0.85"/></feComponentTransfer><feMerge><feMergeNode/><feMergeNode in="SourceGraphic"/></feMerge></filter>
<pattern id="ledgerGrid" x="0" y="0" width="40" height="20" patternUnits="userSpaceOnUse"><path d="M0 20 L40 20" stroke="#2A3A56" stroke-width="0.4" opacity="0.5"/><path d="M40 0 L40 20" stroke="#2A3A56" stroke-width="0.4" opacity="0.5"/></pattern>
<pattern id="circuitDot" x="0" y="0" width="18" height="18" patternUnits="userSpaceOnUse"><circle cx="9" cy="9" r="0.8" fill="#3A2A4E" opacity="0.55"/></pattern>
</defs>
<rect width="1200" height="630" fill="url(#bgSpreadJA07)"/>
<g>
  <rect x="0" y="0" width="1200" height="210" fill="url(#bandAJA07)"/>
  <rect x="0" y="0" width="1200" height="210" fill="url(#circuitDot)" opacity="0.6"/>
  <rect x="0" y="0" width="8" height="210" fill="#A78BFA"/>
  <g filter="url(#textShadow)">
    <text x="30" y="44" font-family="Inter, Helvetica, Arial, sans-serif" font-size="18" font-weight="700" letter-spacing="2.4" fill="#C4B5FD">LLM RELEASE</text>
    <text x="30" y="86" font-family="Inter, Helvetica, Arial, sans-serif" font-size="36" font-weight="800" fill="#F5F7FA">DeepSeek R2</text>
    <text x="30" y="118" font-family="Inter, Helvetica, Arial, sans-serif" font-size="20" font-weight="600" fill="#DDD6FE">MoE 671B : reasoning model</text>
    <text x="30" y="146" font-family="Inter, Helvetica, Arial, sans-serif" font-size="15" font-weight="500" fill="#D0CCE5">Open weights MIT : math + code SOTA : inference 11x cheaper than o3 : MLA optimization</text>
  </g>
  <g transform="translate(500,105)">
    <g stroke="#A78BFA" stroke-width="2" opacity="0.85">
      <line x1="-80" y1="-40" x2="-30" y2="-40"/><line x1="-25" y1="-40" x2="40" y2="-40"/>
      <line x1="-80" y1="-20" x2="-10" y2="-20"/><line x1="-5" y1="-20" x2="55" y2="-20"/>
      <line x1="-80" y1="0" x2="-40" y2="0"/><line x1="-35" y1="0" x2="60" y2="0"/>
      <line x1="-80" y1="20" x2="-20" y2="20"/><line x1="-15" y1="20" x2="30" y2="20"/>
      <line x1="-80" y1="40" x2="-50" y2="40"/><line x1="-45" y1="40" x2="50" y2="40"/>
    </g>
    <rect x="-82" y="-50" width="4" height="110" fill="#A78BFA" opacity="0.6"/>
    <g fill="#C4B5FD">
      <circle cx="70" cy="-40" r="3"><animate attributeName="opacity" values="0.3;1;0.3" dur="1.6s" repeatCount="indefinite"/></circle>
      <circle cx="70" cy="0" r="3"><animate attributeName="opacity" values="0.3;1;0.3" dur="2.1s" repeatCount="indefinite"/></circle>
      <circle cx="70" cy="40" r="3"><animate attributeName="opacity" values="0.3;1;0.3" dur="1.9s" repeatCount="indefinite"/></circle>
    </g>
    <text y="62" text-anchor="middle" font-family="Inter, monospace" font-size="10" font-weight="800" fill="#A78BFA">DEEPSEEK</text>
  </g>
  <g transform="translate(990,105)" filter="url(#softShadow)">
    <rect x="-80" y="-65" width="180" height="125" rx="14" fill="#160629" stroke="#A78BFA" stroke-width="2.2"/>
    <text x="10" y="-30" text-anchor="middle" font-family="Inter, Helvetica, Arial, sans-serif" font-size="13" font-weight="700" letter-spacing="2" fill="#C4B5FD">PARAMS</text>
    <text x="10" y="28" text-anchor="middle" font-family="Inter, Helvetica, Arial, sans-serif" font-size="60" font-weight="900" fill="#F5F7FA">671B</text>
    <text x="10" y="52" text-anchor="middle" font-family="Inter, Helvetica, Arial, sans-serif" font-size="12" font-weight="600" fill="#DDD6FE">MoE model</text>
  </g>
  <g transform="translate(990,105)"><circle cx="10" cy="-50" r="3" fill="#A78BFA"><animate attributeName="opacity" values="0.2;1;0.2" dur="1.8s" repeatCount="indefinite"/></circle></g>
</g>
<g>
  <rect x="0" y="210" width="1200" height="210" fill="url(#bandBJA07)"/>
  <rect x="0" y="210" width="1200" height="210" fill="url(#ledgerGrid)" opacity="0.6"/>
  <rect x="0" y="210" width="8" height="210" fill="#4ADE80"/>
  <g filter="url(#textShadow)">
    <text x="30" y="254" font-family="Inter, Helvetica, Arial, sans-serif" font-size="18" font-weight="700" letter-spacing="2.4" fill="#4ADE80">SOLANA THROUGHPUT</text>
    <text x="30" y="296" font-family="Inter, Helvetica, Arial, sans-serif" font-size="36" font-weight="800" fill="#F5F7FA">TPS Record</text>
    <text x="30" y="328" font-family="Inter, Helvetica, Arial, sans-serif" font-size="20" font-weight="600" fill="#9FD3B0">65,000 TPS sustained</text>
    <text x="30" y="356" font-family="Inter, Helvetica, Arial, sans-serif" font-size="15" font-weight="500" fill="#BFC9D9">Firedancer v1.1 : parallel execution : Agave validator : mainnet stress test</text>
  </g>
  <g transform="translate(500,315)">
    <line x1="-85" y1="40" x2="95" y2="40" stroke="#4ADE80" stroke-width="1" opacity="0.5"/>
    <rect x="-75" y="10" width="20" height="30" rx="2" fill="#4ADE80" opacity="0.5"><animate attributeName="height" values="20;30;20" dur="1.6s" repeatCount="indefinite"/><animate attributeName="y" values="20;10;20" dur="1.6s" repeatCount="indefinite"/></rect><rect x="-47" y="-15" width="20" height="55" rx="2" fill="#4ADE80" opacity="0.58"><animate attributeName="height" values="45;55;45" dur="1.8s" repeatCount="indefinite"/><animate attributeName="y" values="-5;-15;-5" dur="1.8s" repeatCount="indefinite"/></rect><rect x="-19" y="0" width="20" height="40" rx="2" fill="#4ADE80" opacity="0.66"><animate attributeName="height" values="30;40;30" dur="2.0s" repeatCount="indefinite"/><animate attributeName="y" values="10;0;10" dur="2.0s" repeatCount="indefinite"/></rect><rect x="9" y="-30" width="20" height="70" rx="2" fill="#4ADE80" opacity="0.74"><animate attributeName="height" values="60;70;60" dur="2.2s" repeatCount="indefinite"/><animate attributeName="y" values="-20;-30;-20" dur="2.2s" repeatCount="indefinite"/></rect><rect x="37" y="-45" width="20" height="85" rx="2" fill="#4ADE80" opacity="0.8200000000000001"><animate attributeName="height" values="75;85;75" dur="2.4000000000000004s" repeatCount="indefinite"/><animate attributeName="y" values="-35;-45;-35" dur="2.4000000000000004s" repeatCount="indefinite"/></rect><rect x="65" y="-22" width="20" height="62" rx="2" fill="#4ADE80" opacity="0.9"><animate attributeName="height" values="52;62;52" dur="2.6s" repeatCount="indefinite"/><animate attributeName="y" values="-12;-22;-12" dur="2.6s" repeatCount="indefinite"/></rect>
    <text y="58" text-anchor="middle" font-family="Inter, monospace" font-size="10" font-weight="800" fill="#86EFAC">TPS</text>
  </g>
  <g transform="translate(990,315)" filter="url(#softShadow)">
    <rect x="-80" y="-65" width="180" height="125" rx="14" fill="#0A1B2E" stroke="#4ADE80" stroke-width="2.2"/>
    <text x="10" y="-30" text-anchor="middle" font-family="Inter, Helvetica, Arial, sans-serif" font-size="13" font-weight="700" letter-spacing="2" fill="#4ADE80">TPS</text>
    <text x="10" y="28" text-anchor="middle" font-family="Inter, Helvetica, Arial, sans-serif" font-size="72" font-weight="900" fill="#F5F7FA">65K</text>
    <text x="10" y="52" text-anchor="middle" font-family="Inter, Helvetica, Arial, sans-serif" font-size="12" font-weight="600" fill="#9FD3B0">mainnet peak</text>
  </g>
  <g transform="translate(990,315)"><circle cx="10" cy="-50" r="3" fill="#4ADE80"><animate attributeName="opacity" values="0.2;1;0.2" dur="1.8s" repeatCount="indefinite"/></circle></g>
</g>
<g>
  <rect x="0" y="420" width="1200" height="210" fill="url(#bandCJA07)"/>
  <rect x="0" y="420" width="1200" height="210" fill="url(#ledgerGrid)" opacity="0.6"/>
  <rect x="0" y="420" width="8" height="210" fill="#60A5FA"/>
  <g filter="url(#textShadow)">
    <text x="30" y="464" font-family="Inter, Helvetica, Arial, sans-serif" font-size="18" font-weight="700" letter-spacing="2.4" fill="#93C5FD">ETH LAYER 2</text>
    <text x="30" y="506" font-family="Inter, Helvetica, Arial, sans-serif" font-size="36" font-weight="800" fill="#F5F7FA">L2 Fee Collapse</text>
    <text x="30" y="538" font-family="Inter, Helvetica, Arial, sans-serif" font-size="20" font-weight="600" fill="#BFDBFE">Base + Arbitrum &lt; $0.01</text>
    <text x="30" y="566" font-family="Inter, Helvetica, Arial, sans-serif" font-size="15" font-weight="500" fill="#D0DCF0">Blob capacity doubled : EIP-7623 calldata cost : rollup fee median $0.004</text>
  </g>
  <g transform="translate(500,525)">
    <g stroke="#60A5FA" stroke-width="0.4" opacity="0.3">
      <line x1="-90" y1="-40" x2="90" y2="-40"/><line x1="-90" y1="-15" x2="90" y2="-15"/>
      <line x1="-90" y1="10" x2="90" y2="10"/><line x1="-90" y1="35" x2="90" y2="35"/>
    </g>
    <path d="M-90 -30 L-60 -20 L-30 -25 L0 -5 L30 5 L60 20 L90 35" stroke="#60A5FA" stroke-width="2.5" fill="none">
      <animate attributeName="stroke-dasharray" values="0 400;400 0" dur="3.2s" repeatCount="indefinite"/>
    </path>
    <path d="M-90 -30 L-60 -20 L-30 -25 L0 -5 L30 5 L60 20 L90 35 L90 40 L-90 40 Z" fill="#60A5FA" fill-opacity="0.12"/>
    <g fill="#93C5FD">
      <circle cx="-90" cy="-30" r="3"/><circle cx="-60" cy="-20" r="3"/><circle cx="-30" cy="-25" r="3"/>
      <circle cx="0" cy="-5" r="3"/><circle cx="30" cy="5" r="3"/><circle cx="60" cy="20" r="3"/>
      <circle cx="90" cy="35" r="4"><animate attributeName="r" values="3;6;3" dur="1.8s" repeatCount="indefinite"/></circle>
    </g>
    <text x="90" y="50" text-anchor="middle" font-family="Inter, monospace" font-size="10" font-weight="800" fill="#60A5FA">-12.3%</text>
  </g>
  <g transform="translate(990,525)" filter="url(#softShadow)">
    <rect x="-80" y="-65" width="180" height="125" rx="14" fill="#0A1628" stroke="#60A5FA" stroke-width="2.2"/>
    <text x="10" y="-30" text-anchor="middle" font-family="Inter, Helvetica, Arial, sans-serif" font-size="13" font-weight="700" letter-spacing="2" fill="#93C5FD">USD MEDIAN</text>
    <text x="10" y="28" text-anchor="middle" font-family="Inter, Helvetica, Arial, sans-serif" font-size="60" font-weight="900" fill="#F5F7FA">0.4c</text>
    <text x="10" y="52" text-anchor="middle" font-family="Inter, Helvetica, Arial, sans-serif" font-size="12" font-weight="600" fill="#BFDBFE">L2 tx fee</text>
  </g>
  <g transform="translate(990,525)"><circle cx="10" cy="-50" r="3" fill="#60A5FA"><animate attributeName="opacity" values="0.2;1;0.2" dur="1.8s" repeatCount="indefinite"/></circle></g>
</g>
<g opacity="0.9">
  <g fill="#A78BFA">
    <circle cx="240" cy="168" r="1.5"><animate attributeName="opacity" values="0;1;0" dur="1.8s" repeatCount="indefinite"/></circle>
    <circle cx="310" cy="168" r="1.5"><animate attributeName="opacity" values="0;1;0" dur="1.6s" begin="0.2s" repeatCount="indefinite"/></circle>
    <circle cx="380" cy="168" r="1.5"><animate attributeName="opacity" values="0;1;0" dur="2.0s" begin="0.4s" repeatCount="indefinite"/></circle>
    <circle cx="820" cy="168" r="1.5"><animate attributeName="opacity" values="0;1;0" dur="1.9s" repeatCount="indefinite"/></circle>
    <circle cx="880" cy="168" r="1.5"><animate attributeName="opacity" values="0;1;0" dur="2.1s" begin="0.3s" repeatCount="indefinite"/></circle>
  </g>
  <g fill="#A78BFA" opacity="0.6">
    <rect x="780" y="30" width="6" height="2"><animate attributeName="opacity" values="0.2;1;0.2" dur="1.4s" repeatCount="indefinite"/></rect>
    <rect x="800" y="30" width="6" height="2"><animate attributeName="opacity" values="0.2;1;0.2" dur="1.2s" begin="0.3s" repeatCount="indefinite"/></rect>
    <rect x="820" y="30" width="6" height="2"><animate attributeName="opacity" values="0.2;1;0.2" dur="1.6s" begin="0.6s" repeatCount="indefinite"/></rect>
  </g>
  <g fill="#4ADE80">
    <circle cx="560" cy="260" r="1.2"><animate attributeName="opacity" values="0;1;0" dur="1.8s" repeatCount="indefinite"/></circle>
    <circle cx="580" cy="265" r="1.2"><animate attributeName="opacity" values="0;1;0" dur="1.6s" begin="0.2s" repeatCount="indefinite"/></circle>
    <circle cx="600" cy="268" r="1.2"><animate attributeName="opacity" values="0;1;0" dur="2.0s" begin="0.4s" repeatCount="indefinite"/></circle>
    <circle cx="620" cy="272" r="1.2"><animate attributeName="opacity" values="0;1;0" dur="1.7s" begin="0.6s" repeatCount="indefinite"/></circle>
    <circle cx="640" cy="268" r="1.2"><animate attributeName="opacity" values="0;1;0" dur="1.9s" begin="0.8s" repeatCount="indefinite"/></circle>
    <circle cx="560" cy="370" r="1.2"><animate attributeName="opacity" values="0;1;0" dur="1.8s" repeatCount="indefinite"/></circle>
    <circle cx="580" cy="375" r="1.2"><animate attributeName="opacity" values="0;1;0" dur="1.6s" begin="0.2s" repeatCount="indefinite"/></circle>
    <circle cx="600" cy="378" r="1.2"><animate attributeName="opacity" values="0;1;0" dur="2.0s" begin="0.4s" repeatCount="indefinite"/></circle>
  </g>
  <g fill="#60A5FA">
    <circle cx="260" cy="442" r="1.5"><animate attributeName="opacity" values="0;1;0" dur="1.5s" repeatCount="indefinite"/></circle>
    <circle cx="330" cy="442" r="1.5"><animate attributeName="opacity" values="0;1;0" dur="1.7s" begin="0.2s" repeatCount="indefinite"/></circle>
    <circle cx="400" cy="442" r="1.5"><animate attributeName="opacity" values="0;1;0" dur="1.9s" begin="0.4s" repeatCount="indefinite"/></circle>
    <circle cx="470" cy="442" r="1.5"><animate attributeName="opacity" values="0;1;0" dur="1.6s" begin="0.6s" repeatCount="indefinite"/></circle>
  </g>
  <g fill="#BFDBFE" opacity="0.9">
    <rect x="770" y="440" width="4" height="4" rx="1"><animate attributeName="opacity" values="0.3;1;0.3" dur="1.4s" repeatCount="indefinite"/></rect>
    <rect x="790" y="440" width="4" height="4" rx="1"><animate attributeName="opacity" values="0.3;1;0.3" dur="1.2s" begin="0.3s" repeatCount="indefinite"/></rect>
    <rect x="810" y="440" width="4" height="4" rx="1"><animate attributeName="opacity" values="0.3;1;0.3" dur="1.6s" begin="0.6s" repeatCount="indefinite"/></rect>
    <rect x="830" y="440" width="4" height="4" rx="1"><animate attributeName="opacity" values="0.3;1;0.3" dur="1.3s" begin="0.9s" repeatCount="indefinite"/></rect>
  </g>
  <g stroke="#A78BFA" stroke-width="0.5" stroke-opacity="0.35" fill="none">
    <path d="M20 95 L28 95"><animate attributeName="stroke-opacity" values="0;0.7;0" dur="2s" repeatCount="indefinite"/></path>
    <path d="M20 125 L28 125"><animate attributeName="stroke-opacity" values="0;0.7;0" dur="2.2s" begin="0.3s" repeatCount="indefinite"/></path>
  </g>
  <g stroke="#4ADE80" stroke-width="0.5" stroke-opacity="0.35" fill="none">
    <path d="M20 305 L28 305"><animate attributeName="stroke-opacity" values="0;0.7;0" dur="2s" repeatCount="indefinite"/></path>
    <path d="M20 335 L28 335"><animate attributeName="stroke-opacity" values="0;0.7;0" dur="2.2s" begin="0.3s" repeatCount="indefinite"/></path>
  </g>
  <g stroke="#60A5FA" stroke-width="0.5" stroke-opacity="0.35" fill="none">
    <path d="M20 515 L28 515"><animate attributeName="stroke-opacity" values="0;0.7;0" dur="2s" repeatCount="indefinite"/></path>
    <path d="M20 545 L28 545"><animate attributeName="stroke-opacity" values="0;0.7;0" dur="2.2s" begin="0.3s" repeatCount="indefinite"/></path>
  </g>
</g>
<g transform="translate(1080,504)" filter="url(#softShadow)">
  <rect x="-8" y="-8" width="100" height="100" rx="6" fill="#FFFFFF"/>
  <path fill="#0A1020" d="M0.0 0.0h15.892v2.27h-15.892z M18.162 0.0h2.27v2.27h-2.27z M24.973 0.0h4.541v2.27h-4.541z M34.054 0.0h2.27v2.27h-2.27z M38.595 0.0h2.27v2.27h-2.27z M52.216 0.0h2.27v2.27h-2.27z M56.757 0.0h4.541v2.27h-4.541z M63.568 0.0h2.27v2.27h-2.27z M68.108 0.0h15.892v2.27h-15.892z M0.0 2.27h2.27v2.27h-2.27z M13.622 2.27h2.27v2.27h-2.27z M34.054 2.27h2.27v2.27h-2.27z M38.595 2.27h2.27v2.27h-2.27z M43.135 2.27h2.27v2.27h-2.27z M47.676 2.27h2.27v2.27h-2.27z M54.486 2.27h2.27v2.27h-2.27z M63.568 2.27h2.27v2.27h-2.27z M68.108 2.27h2.27v2.27h-2.27z M81.73 2.27h2.27v2.27h-2.27z M0.0 4.541h2.27v2.27h-2.27z M4.541 4.541h6.811v2.27h-6.811z M13.622 4.541h2.27v2.27h-2.27z M20.432 4.541h2.27v2.27h-2.27z M24.973 4.541h2.27v2.27h-2.27z M31.784 4.541h13.622v2.27h-13.622z M47.676 4.541h2.27v2.27h-2.27z M52.216 4.541h2.27v2.27h-2.27z M59.027 4.541h6.811v2.27h-6.811z M68.108 4.541h2.27v2.27h-2.27z M72.649 4.541h6.811v2.27h-6.811z M81.73 4.541h2.27v2.27h-2.27z M0.0 6.811h2.27v2.27h-2.27z M4.541 6.811h6.811v2.27h-6.811z M13.622 6.811h2.27v2.27h-2.27z M18.162 6.811h15.892v2.27h-15.892z M36.324 6.811h2.27v2.27h-2.27z M56.757 6.811h6.811v2.27h-6.811z M68.108 6.811h2.27v2.27h-2.27z M72.649 6.811h6.811v2.27h-6.811z M81.73 6.811h2.27v2.27h-2.27z M0.0 9.081h2.27v2.27h-2.27z M4.541 9.081h6.811v2.27h-6.811z M13.622 9.081h2.27v2.27h-2.27z M18.162 9.081h9.081v2.27h-9.081z M29.514 9.081h2.27v2.27h-2.27z M34.054 9.081h2.27v2.27h-2.27z M45.405 9.081h2.27v2.27h-2.27z M52.216 9.081h2.27v2.27h-2.27z M59.027 9.081h6.811v2.27h-6.811z M68.108 9.081h2.27v2.27h-2.27z M72.649 9.081h6.811v2.27h-6.811z M81.73 9.081h2.27v2.27h-2.27z M0.0 11.351h2.27v2.27h-2.27z M13.622 11.351h2.27v2.27h-2.27z M18.162 11.351h2.27v2.27h-2.27z M24.973 11.351h4.541v2.27h-4.541z M34.054 11.351h2.27v2.27h-2.27z M43.135 11.351h2.27v2.27h-2.27z M54.486 11.351h6.811v2.27h-6.811z M68.108 11.351h2.27v2.27h-2.27z M81.73 11.351h2.27v2.27h-2.27z M0.0 13.622h15.892v2.27h-15.892z M18.162 13.622h2.27v2.27h-2.27z M22.703 13.622h2.27v2.27h-2.27z M27.243 13.622h2.27v2.27h-2.27z M31.784 13.622h2.27v2.27h-2.27z M36.324 13.622h2.27v2.27h-2.27z M40.865 13.622h2.27v2.27h-2.27z M45.405 13.622h2.27v2.27h-2.27z M49.946 13.622h2.27v2.27h-2.27z M54.486 13.622h2.27v2.27h-2.27z M59.027 13.622h2.27v2.27h-2.27z M63.568 13.622h2.27v2.27h-2.27z M68.108 13.622h15.892v2.27h-15.892z M18.162 15.892h4.541v2.27h-4.541z M27.243 15.892h13.622v2.27h-13.622z M43.135 15.892h2.27v2.27h-2.27z M47.676 15.892h2.27v2.27h-2.27z M54.486 15.892h2.27v2.27h-2.27z M59.027 15.892h4.541v2.27h-4.541z M0.0 18.162h2.27v2.27h-2.27z M9.081 18.162h2.27v2.27h-2.27z M13.622 18.162h13.622v2.27h-13.622z M36.324 18.162h9.081v2.27h-9.081z M47.676 18.162h9.081v2.27h-9.081z M59.027 18.162h2.27v2.27h-2.27z M65.838 18.162h11.351v2.27h-11.351z M81.73 18.162h2.27v2.27h-2.27z M2.27 20.432h2.27v2.27h-2.27z M6.811 20.432h4.541v2.27h-4.541z M15.892 20.432h2.27v2.27h-2.27z M20.432 20.432h4.541v2.27h-4.541z M31.784 20.432h2.27v2.27h-2.27z M40.865 20.432h2.27v2.27h-2.27z M47.676 20.432h2.27v2.27h-2.27z M52.216 20.432h2.27v2.27h-2.27z M59.027 20.432h2.27v2.27h-2.27z M63.568 20.432h2.27v2.27h-2.27z M70.378 20.432h11.351v2.27h-11.351z M6.811 22.703h4.541v2.27h-4.541z M13.622 22.703h2.27v2.27h-2.27z M18.162 22.703h2.27v2.27h-2.27z M22.703 22.703h4.541v2.27h-4.541z M34.054 22.703h2.27v2.27h-2.27z M45.405 22.703h2.27v2.27h-2.27z M52.216 22.703h11.351v2.27h-11.351z M70.378 22.703h2.27v2.27h-2.27z M2.27 24.973h2.27v2.27h-2.27z M9.081 24.973h4.541v2.27h-4.541z M15.892 24.973h6.811v2.27h-6.811z M27.243 24.973h2.27v2.27h-2.27z M31.784 24.973h9.081v2.27h-9.081z M45.405 24.973h4.541v2.27h-4.541z M59.027 24.973h4.541v2.27h-4.541z M65.838 24.973h2.27v2.27h-2.27z M72.649 24.973h2.27v2.27h-2.27z M77.189 24.973h4.541v2.27h-4.541z M0.0 27.243h2.27v2.27h-2.27z M4.541 27.243h4.541v2.27h-4.541z M11.351 27.243h4.541v2.27h-4.541z M20.432 27.243h4.541v2.27h-4.541z M27.243 27.243h4.541v2.27h-4.541z M38.595 27.243h6.811v2.27h-6.811z M47.676 27.243h4.541v2.27h-4.541z M54.486 27.243h2.27v2.27h-2.27z M61.297 27.243h9.081v2.27h-9.081z M74.919 27.243h2.27v2.27h-2.27z M79.459 27.243h4.541v2.27h-4.541z M0.0 29.514h2.27v2.27h-2.27z M4.541 29.514h4.541v2.27h-4.541z M18.162 29.514h2.27v2.27h-2.27z M22.703 29.514h2.27v2.27h-2.27z M27.243 29.514h2.27v2.27h-2.27z M31.784 29.514h4.541v2.27h-4.541z M38.595 29.514h2.27v2.27h-2.27z M47.676 29.514h2.27v2.27h-2.27z M52.216 29.514h4.541v2.27h-4.541z M59.027 29.514h6.811v2.27h-6.811z M72.649 29.514h4.541v2.27h-4.541z M4.541 31.784h2.27v2.27h-2.27z M13.622 31.784h2.27v2.27h-2.27z M20.432 31.784h4.541v2.27h-4.541z M27.243 31.784h2.27v2.27h-2.27z M31.784 31.784h6.811v2.27h-6.811z M40.865 31.784h2.27v2.27h-2.27z M47.676 31.784h6.811v2.27h-6.811z M59.027 31.784h6.811v2.27h-6.811z M68.108 31.784h13.622v2.27h-13.622z M0.0 34.054h2.27v2.27h-2.27z M4.541 34.054h2.27v2.27h-2.27z M9.081 34.054h2.27v2.27h-2.27z M15.892 34.054h4.541v2.27h-4.541z M27.243 34.054h2.27v2.27h-2.27z M31.784 34.054h2.27v2.27h-2.27z M36.324 34.054h6.811v2.27h-6.811z M45.405 34.054h4.541v2.27h-4.541z M54.486 34.054h2.27v2.27h-2.27z M59.027 34.054h2.27v2.27h-2.27z M63.568 34.054h2.27v2.27h-2.27z M70.378 34.054h4.541v2.27h-4.541z M77.189 34.054h6.811v2.27h-6.811z M6.811 36.324h2.27v2.27h-2.27z M11.351 36.324h4.541v2.27h-4.541z M24.973 36.324h4.541v2.27h-4.541z M31.784 36.324h2.27v2.27h-2.27z M40.865 36.324h18.162v2.27h-18.162z M65.838 36.324h4.541v2.27h-4.541z M74.919 36.324h4.541v2.27h-4.541z M81.73 36.324h2.27v2.27h-2.27z M0.0 38.595h6.811v2.27h-6.811z M9.081 38.595h4.541v2.27h-4.541z M15.892 38.595h2.27v2.27h-2.27z M20.432 38.595h4.541v2.27h-4.541z M31.784 38.595h2.27v2.27h-2.27z M36.324 38.595h2.27v2.27h-2.27z M40.865 38.595h2.27v2.27h-2.27z M47.676 38.595h2.27v2.27h-2.27z M52.216 38.595h2.27v2.27h-2.27z M56.757 38.595h6.811v2.27h-6.811z M65.838 38.595h4.541v2.27h-4.541z M72.649 38.595h4.541v2.27h-4.541z M79.459 38.595h2.27v2.27h-2.27z M2.27 40.865h9.081v2.27h-9.081z M13.622 40.865h4.541v2.27h-4.541z M20.432 40.865h6.811v2.27h-6.811z M36.324 40.865h4.541v2.27h-4.541z M45.405 40.865h4.541v2.27h-4.541z M52.216 40.865h4.541v2.27h-4.541z M59.027 40.865h6.811v2.27h-6.811z M2.27 43.135h4.541v2.27h-4.541z M11.351 43.135h2.27v2.27h-2.27z M18.162 43.135h2.27v2.27h-2.27z M24.973 43.135h2.27v2.27h-2.27z M31.784 43.135h2.27v2.27h-2.27z M38.595 43.135h2.27v2.27h-2.27z M43.135 43.135h6.811v2.27h-6.811z M61.297 43.135h4.541v2.27h-4.541z M70.378 43.135h4.541v2.27h-4.541z M77.189 43.135h4.541v2.27h-4.541z M0.0 45.405h2.27v2.27h-2.27z M4.541 45.405h4.541v2.27h-4.541z M13.622 45.405h4.541v2.27h-4.541z M24.973 45.405h6.811v2.27h-6.811z M34.054 45.405h11.351v2.27h-11.351z M47.676 45.405h2.27v2.27h-2.27z M52.216 45.405h4.541v2.27h-4.541z M61.297 45.405h11.351v2.27h-11.351z M77.189 45.405h2.27v2.27h-2.27z M2.27 47.676h4.541v2.27h-4.541z M18.162 47.676h2.27v2.27h-2.27z M27.243 47.676h2.27v2.27h-2.27z M31.784 47.676h4.541v2.27h-4.541z M38.595 47.676h2.27v2.27h-2.27z M47.676 47.676h2.27v2.27h-2.27z M52.216 47.676h2.27v2.27h-2.27z M56.757 47.676h2.27v2.27h-2.27z M61.297 47.676h2.27v2.27h-2.27z M70.378 47.676h4.541v2.27h-4.541z M79.459 47.676h2.27v2.27h-2.27z M2.27 49.946h2.27v2.27h-2.27z M6.811 49.946h4.541v2.27h-4.541z M13.622 49.946h2.27v2.27h-2.27z M18.162 49.946h2.27v2.27h-2.27z M22.703 49.946h2.27v2.27h-2.27z M27.243 49.946h2.27v2.27h-2.27z M31.784 49.946h6.811v2.27h-6.811z M40.865 49.946h2.27v2.27h-2.27z M45.405 49.946h2.27v2.27h-2.27z M52.216 49.946h6.811v2.27h-6.811z M61.297 49.946h4.541v2.27h-4.541z M70.378 49.946h11.351v2.27h-11.351z M0.0 52.216h2.27v2.27h-2.27z M6.811 52.216h4.541v2.27h-4.541z M15.892 52.216h2.27v2.27h-2.27z M20.432 52.216h18.162v2.27h-18.162z M43.135 52.216h2.27v2.27h-2.27z M47.676 52.216h4.541v2.27h-4.541z M54.486 52.216h2.27v2.27h-2.27z M65.838 52.216h2.27v2.27h-2.27z M70.378 52.216h4.541v2.27h-4.541z M77.189 52.216h4.541v2.27h-4.541z M0.0 54.486h6.811v2.27h-6.811z M13.622 54.486h4.541v2.27h-4.541z M24.973 54.486h2.27v2.27h-2.27z M31.784 54.486h2.27v2.27h-2.27z M36.324 54.486h2.27v2.27h-2.27z M43.135 54.486h6.811v2.27h-6.811z M52.216 54.486h4.541v2.27h-4.541z M61.297 54.486h2.27v2.27h-2.27z M65.838 54.486h6.811v2.27h-6.811z M74.919 54.486h4.541v2.27h-4.541z M81.73 54.486h2.27v2.27h-2.27z M0.0 56.757h2.27v2.27h-2.27z M4.541 56.757h4.541v2.27h-4.541z M18.162 56.757h2.27v2.27h-2.27z M27.243 56.757h4.541v2.27h-4.541z M40.865 56.757h2.27v2.27h-2.27z M47.676 56.757h2.27v2.27h-2.27z M52.216 56.757h2.27v2.27h-2.27z M56.757 56.757h9.081v2.27h-9.081z M72.649 56.757h4.541v2.27h-4.541z M4.541 59.027h2.27v2.27h-2.27z M11.351 59.027h6.811v2.27h-6.811z M20.432 59.027h2.27v2.27h-2.27z M29.514 59.027h2.27v2.27h-2.27z M34.054 59.027h2.27v2.27h-2.27z M45.405 59.027h2.27v2.27h-2.27z M52.216 59.027h6.811v2.27h-6.811z M61.297 59.027h2.27v2.27h-2.27z M65.838 59.027h2.27v2.27h-2.27z M70.378 59.027h4.541v2.27h-4.541z M77.189 59.027h2.27v2.27h-2.27z M4.541 61.297h2.27v2.27h-2.27z M9.081 61.297h2.27v2.27h-2.27z M22.703 61.297h2.27v2.27h-2.27z M29.514 61.297h2.27v2.27h-2.27z M34.054 61.297h6.811v2.27h-6.811z M47.676 61.297h2.27v2.27h-2.27z M63.568 61.297h2.27v2.27h-2.27z M68.108 61.297h2.27v2.27h-2.27z M72.649 61.297h2.27v2.27h-2.27z M77.189 61.297h6.811v2.27h-6.811z M0.0 63.568h6.811v2.27h-6.811z M13.622 63.568h2.27v2.27h-2.27z M20.432 63.568h6.811v2.27h-6.811z M29.514 63.568h2.27v2.27h-2.27z M36.324 63.568h6.811v2.27h-6.811z M47.676 63.568h4.541v2.27h-4.541z M54.486 63.568h2.27v2.27h-2.27z M63.568 63.568h11.351v2.27h-11.351z M77.189 63.568h4.541v2.27h-4.541z M18.162 65.838h4.541v2.27h-4.541z M31.784 65.838h4.541v2.27h-4.541z M47.676 65.838h6.811v2.27h-6.811z M59.027 65.838h2.27v2.27h-2.27z M63.568 65.838h2.27v2.27h-2.27z M72.649 65.838h2.27v2.27h-2.27z M79.459 65.838h2.27v2.27h-2.27z M0.0 68.108h15.892v2.27h-15.892z M18.162 68.108h6.811v2.27h-6.811z M31.784 68.108h4.541v2.27h-4.541z M38.595 68.108h2.27v2.27h-2.27z M45.405 68.108h4.541v2.27h-4.541z M52.216 68.108h4.541v2.27h-4.541z M59.027 68.108h2.27v2.27h-2.27z M63.568 68.108h2.27v2.27h-2.27z M68.108 68.108h2.27v2.27h-2.27z M72.649 68.108h2.27v2.27h-2.27z M79.459 68.108h2.27v2.27h-2.27z M0.0 70.378h2.27v2.27h-2.27z M13.622 70.378h2.27v2.27h-2.27z M20.432 70.378h2.27v2.27h-2.27z M29.514 70.378h4.541v2.27h-4.541z M38.595 70.378h11.351v2.27h-11.351z M54.486 70.378h2.27v2.27h-2.27z M61.297 70.378h4.541v2.27h-4.541z M72.649 70.378h6.811v2.27h-6.811z M81.73 70.378h2.27v2.27h-2.27z M0.0 72.649h2.27v2.27h-2.27z M4.541 72.649h6.811v2.27h-6.811z M13.622 72.649h2.27v2.27h-2.27z M18.162 72.649h2.27v2.27h-2.27z M22.703 72.649h4.541v2.27h-4.541z M31.784 72.649h4.541v2.27h-4.541z M40.865 72.649h2.27v2.27h-2.27z M45.405 72.649h2.27v2.27h-2.27z M49.946 72.649h2.27v2.27h-2.27z M54.486 72.649h2.27v2.27h-2.27z M63.568 72.649h18.162v2.27h-18.162z M0.0 74.919h2.27v2.27h-2.27z M4.541 74.919h6.811v2.27h-6.811z M13.622 74.919h2.27v2.27h-2.27z M20.432 74.919h2.27v2.27h-2.27z M27.243 74.919h6.811v2.27h-6.811z M36.324 74.919h2.27v2.27h-2.27z M52.216 74.919h2.27v2.27h-2.27z M56.757 74.919h4.541v2.27h-4.541z M65.838 74.919h6.811v2.27h-6.811z M74.919 74.919h2.27v2.27h-2.27z M81.73 74.919h2.27v2.27h-2.27z M0.0 77.189h2.27v2.27h-2.27z M4.541 77.189h6.811v2.27h-6.811z M13.622 77.189h2.27v2.27h-2.27z M20.432 77.189h2.27v2.27h-2.27z M27.243 77.189h4.541v2.27h-4.541z M36.324 77.189h2.27v2.27h-2.27z M40.865 77.189h2.27v2.27h-2.27z M47.676 77.189h9.081v2.27h-9.081z M61.297 77.189h2.27v2.27h-2.27z M65.838 77.189h4.541v2.27h-4.541z M77.189 77.189h2.27v2.27h-2.27z M0.0 79.459h2.27v2.27h-2.27z M13.622 79.459h2.27v2.27h-2.27z M20.432 79.459h6.811v2.27h-6.811z M38.595 79.459h2.27v2.27h-2.27z M45.405 79.459h6.811v2.27h-6.811z M54.486 79.459h2.27v2.27h-2.27z M59.027 79.459h4.541v2.27h-4.541z M72.649 79.459h2.27v2.27h-2.27z M77.189 79.459h4.541v2.27h-4.541z M0.0 81.73h15.892v2.27h-15.892z M18.162 81.73h9.081v2.27h-9.081z M29.514 81.73h6.811v2.27h-6.811z M38.595 81.73h18.162v2.27h-18.162z M61.297 81.73h2.27v2.27h-2.27z M65.838 81.73h6.811v2.27h-6.811z M77.189 81.73h6.811v2.27h-6.811z"/>
</g>
<text x="1122" y="614" font-family="Inter, Helvetica, Arial, sans-serif" font-size="10" font-weight="700" fill="#F5F7FA" text-anchor="middle">scan / full post</text>
</svg>