<svg xmlns="http://www.w3.org/2000/svg" width="1200" height="630" viewBox="0 0 1200 630">
<defs>
<linearGradient id="bgMain" x1="0" y1="0" x2="1" y2="1">
<stop offset="0" stop-color="#0a0f1e"/>
<stop offset="1" stop-color="#0d1117"/>
</linearGradient>
<linearGradient id="bgTL" x1="0" y1="0" x2="1" y2="1">
<stop offset="0" stop-color="#1a0f14"/>
<stop offset="1" stop-color="#0a0f1e"/>
</linearGradient>
<linearGradient id="bgTR" x1="0" y1="0" x2="1" y2="1">
<stop offset="0" stop-color="#1a1408"/>
<stop offset="1" stop-color="#0a0f1e"/>
</linearGradient>
<linearGradient id="bgBL" x1="0" y1="0" x2="1" y2="1">
<stop offset="0" stop-color="#0a1020"/>
<stop offset="1" stop-color="#0d1117"/>
</linearGradient>
<linearGradient id="bgBR" x1="0" y1="0" x2="1" y2="1">
<stop offset="0" stop-color="#081822"/>
<stop offset="1" stop-color="#0a0f1e"/>
</linearGradient>
<linearGradient id="gCoin" x1="0" y1="0" x2="0" y2="1">
<stop offset="0" stop-color="#fbbf24"/>
<stop offset="1" stop-color="#b45309"/>
</linearGradient>
<linearGradient id="gShield" x1="0" y1="0" x2="0" y2="1">
<stop offset="0" stop-color="#f87171"/>
<stop offset="1" stop-color="#7f1d1d"/>
</linearGradient>
<linearGradient id="gPhone" x1="0" y1="0" x2="0" y2="1">
<stop offset="0" stop-color="#fde68a"/>
<stop offset="1" stop-color="#92400e"/>
</linearGradient>
<linearGradient id="gHook" x1="0" y1="0" x2="1" y2="0">
<stop offset="0" stop-color="#fbbf24"/>
<stop offset="1" stop-color="#ef4444"/>
</linearGradient>
<linearGradient id="gServer" x1="0" y1="0" x2="0" y2="1">
<stop offset="0" stop-color="#60a5fa"/>
<stop offset="1" stop-color="#1e3a8a"/>
</linearGradient>
<linearGradient id="gBug" x1="0" y1="0" x2="0" y2="1">
<stop offset="0" stop-color="#67e8f9"/>
<stop offset="1" stop-color="#0e7490"/>
</linearGradient>
<linearGradient id="gGauge" x1="0" y1="0" x2="1" y2="0">
<stop offset="0" stop-color="#22d3ee"/>
<stop offset="0.6" stop-color="#f59e0b"/>
<stop offset="1" stop-color="#ef4444"/>
</linearGradient>
<linearGradient id="gBurn" x1="0" y1="1" x2="1" y2="0">
<stop offset="0" stop-color="#22d3ee"/>
<stop offset="1" stop-color="#3b82f6"/>
</linearGradient>
<radialGradient id="haloTL" cx="0.5" cy="0.5" r="0.5">
<stop offset="0" stop-color="#ef4444" stop-opacity="0.55"/>
<stop offset="1" stop-color="#ef4444" stop-opacity="0"/>
</radialGradient>
<radialGradient id="haloTR" cx="0.5" cy="0.5" r="0.5">
<stop offset="0" stop-color="#f59e0b" stop-opacity="0.55"/>
<stop offset="1" stop-color="#f59e0b" stop-opacity="0"/>
</radialGradient>
<radialGradient id="haloBL" cx="0.5" cy="0.5" r="0.5">
<stop offset="0" stop-color="#3b82f6" stop-opacity="0.55"/>
<stop offset="1" stop-color="#3b82f6" stop-opacity="0"/>
</radialGradient>
<radialGradient id="haloBR" cx="0.5" cy="0.5" r="0.5">
<stop offset="0" stop-color="#22d3ee" stop-opacity="0.55"/>
<stop offset="1" stop-color="#22d3ee" stop-opacity="0"/>
</radialGradient>
<filter id="glowRed" x="-50%" y="-50%" width="200%" height="200%">
<feGaussianBlur stdDeviation="3" result="b"/>
<feMerge><feMergeNode in="b"/><feMergeNode in="SourceGraphic"/></feMerge>
</filter>
<filter id="glowAmber" x="-50%" y="-50%" width="200%" height="200%">
<feGaussianBlur stdDeviation="3" result="b"/>
<feMerge><feMergeNode in="b"/><feMergeNode in="SourceGraphic"/></feMerge>
</filter>
<filter id="glowBlue" x="-50%" y="-50%" width="200%" height="200%">
<feGaussianBlur stdDeviation="3" result="b"/>
<feMerge><feMergeNode in="b"/><feMergeNode in="SourceGraphic"/></feMerge>
</filter>
<filter id="glowCyan" x="-50%" y="-50%" width="200%" height="200%">
<feGaussianBlur stdDeviation="3" result="b"/>
<feMerge><feMergeNode in="b"/><feMergeNode in="SourceGraphic"/></feMerge>
</filter>
<pattern id="dotGrid" x="0" y="0" width="24" height="24" patternUnits="userSpaceOnUse">
<circle cx="1" cy="1" r="1" fill="#1f2937" opacity="0.45"/>
</pattern>
<pattern id="hexGrid" x="0" y="0" width="32" height="28" patternUnits="userSpaceOnUse">
<path d="M16 0 L32 8 L32 20 L16 28 L0 20 L0 8 Z" fill="none" stroke="#1e293b" stroke-width="0.5" opacity="0.5"/>
</pattern>
<pattern id="scanlines" x="0" y="0" width="4" height="4" patternUnits="userSpaceOnUse">
<rect width="4" height="1" fill="#ffffff" opacity="0.025"/>
</pattern>
<clipPath id="clipTL"><rect x="0" y="0" width="600" height="315"/></clipPath>
<clipPath id="clipTR"><rect x="600" y="0" width="600" height="315"/></clipPath>
<clipPath id="clipBL"><rect x="0" y="315" width="600" height="315"/></clipPath>
<clipPath id="clipBR"><rect x="600" y="315" width="600" height="315"/></clipPath>
<path id="flowTL" d="M100 240 Q 300 120 500 240"/>
<path id="flowTR" d="M700 240 Q 900 120 1100 240"/>
<path id="flowBL" d="M100 550 Q 300 430 500 550"/>
<path id="flowBR" d="M700 550 Q 900 430 1100 550"/>
</defs>

<rect width="1200" height="630" fill="url(#bgMain)"/>
<rect width="1200" height="630" fill="url(#dotGrid)"/>

<g clip-path="url(#clipTL)">
<rect x="0" y="0" width="600" height="315" fill="url(#bgTL)"/>
<rect x="0" y="0" width="600" height="315" fill="url(#hexGrid)"/>
<ellipse cx="300" cy="150" rx="260" ry="140" fill="url(#haloTL)">
<animate attributeName="opacity" values="0.4;0.9;0.4" dur="4s" repeatCount="indefinite"/>
</ellipse>
<rect x="0" y="0" width="600" height="2" fill="#ef4444" opacity="0.5">
<animate attributeName="y" values="0;315;0" dur="6s" repeatCount="indefinite"/>
<animate attributeName="opacity" values="0.1;0.6;0.1" dur="6s" repeatCount="indefinite"/>
</rect>
<g filter="url(#glowRed)">
<g transform="translate(220,150)">
<circle r="52" fill="url(#gCoin)" stroke="#fbbf24" stroke-width="1.5">
<animate attributeName="r" values="50;54;50" dur="2.8s" repeatCount="indefinite"/>
</circle>
<path d="M-24 -30 L8 -4 L-10 12 L18 34" stroke="#0a0f1e" stroke-width="3" fill="none" stroke-linecap="round">
<animate attributeName="stroke-opacity" values="0.6;1;0.6" dur="1.8s" repeatCount="indefinite"/>
</path>
<text x="0" y="6" font-family="monospace" font-size="20" font-weight="700" fill="#0a0f1e" text-anchor="middle">SOL</text>
</g>
<g transform="translate(370,120)">
<path d="M0 -40 L32 -26 L32 8 Q32 32 0 46 Q-32 32 -32 8 L-32 -26 Z" fill="url(#gShield)" stroke="#fca5a5" stroke-width="1.2">
<animate attributeName="opacity" values="0.8;1;0.8" dur="2.2s" repeatCount="indefinite"/>
</path>
<path d="M-10 -20 L10 20 M10 -20 L-10 20" stroke="#0a0f1e" stroke-width="3" stroke-linecap="round"/>
<path d="M-4 -34 L6 -14 L-2 -8 L4 12" stroke="#fecaca" stroke-width="1" fill="none" opacity="0.8">
<animate attributeName="stroke-dashoffset" values="0;40" dur="3s" repeatCount="indefinite"/>
</path>
</g>
<g transform="translate(450,220)">
<circle r="28" fill="none" stroke="#ef4444" stroke-width="1.5">
<animate attributeName="r" values="24;32;24" dur="2s" repeatCount="indefinite"/>
</circle>
<circle r="18" fill="none" stroke="#ef4444" stroke-width="1"/>
<circle r="4" fill="#ef4444">
<animate attributeName="opacity" values="0.5;1;0.5" dur="1.2s" repeatCount="indefinite"/>
</circle>
<line x1="-32" y1="0" x2="32" y2="0" stroke="#ef4444" stroke-width="0.8"/>
<line x1="0" y1="-32" x2="0" y2="32" stroke="#ef4444" stroke-width="0.8"/>
</g>
</g>
<circle r="2.5" fill="#f87171">
<animateMotion dur="5s" repeatCount="indefinite"><mpath href="#flowTL"/></animateMotion>
<animate attributeName="opacity" values="0;1;0" dur="5s" repeatCount="indefinite"/>
</circle>
<circle r="2" fill="#fbbf24">
<animateMotion dur="5s" repeatCount="indefinite" begin="1.5s"><mpath href="#flowTL"/></animateMotion>
<animate attributeName="opacity" values="0;1;0" dur="5s" repeatCount="indefinite" begin="1.5s"/>
</circle>
<circle r="1.8" fill="#ef4444">
<animateMotion dur="5s" repeatCount="indefinite" begin="3s"><mpath href="#flowTL"/></animateMotion>
</circle>
<g transform="translate(100,90)">
<circle r="1.5" fill="#fca5a5">
<animate attributeName="cy" values="0;20;0" dur="3s" repeatCount="indefinite"/>
<animate attributeName="opacity" values="0.3;1;0.3" dur="3s" repeatCount="indefinite"/>
</circle>
</g>
<g transform="translate(520,80)">
<circle r="1.5" fill="#fbbf24">
<animate attributeName="opacity" values="0.2;1;0.2" dur="2.4s" repeatCount="indefinite"/>
</circle>
</g>
<g transform="translate(540,260)">
<circle r="1.2" fill="#f87171">
<animate attributeName="r" values="1;2.5;1" dur="1.8s" repeatCount="indefinite"/>
</circle>
</g>
<line x1="40" y1="280" x2="160" y2="280" stroke="#ef4444" stroke-width="2" stroke-linecap="round">
<animate attributeName="stroke-opacity" values="0.4;1;0.4" dur="2s" repeatCount="indefinite"/>
</line>
<text x="40" y="268" font-family="monospace" font-size="18" font-weight="700" fill="#e2e8f0" letter-spacing="2">HEIST</text>
</g>

<g clip-path="url(#clipTR)">
<rect x="600" y="0" width="600" height="315" fill="url(#bgTR)"/>
<rect x="600" y="0" width="600" height="315" fill="url(#hexGrid)"/>
<ellipse cx="900" cy="150" rx="260" ry="140" fill="url(#haloTR)">
<animate attributeName="opacity" values="0.4;0.9;0.4" dur="4.4s" repeatCount="indefinite"/>
</ellipse>
<rect x="600" y="0" width="600" height="2" fill="#f59e0b" opacity="0.5">
<animate attributeName="y" values="0;315;0" dur="7s" repeatCount="indefinite"/>
</rect>
<g filter="url(#glowAmber)">
<g transform="translate(820,160)">
<rect x="-48" y="-82" width="96" height="164" rx="14" fill="url(#gPhone)" stroke="#fde68a" stroke-width="1.5">
<animate attributeName="opacity" values="0.85;1;0.85" dur="3s" repeatCount="indefinite"/>
</rect>
<rect x="-38" y="-68" width="76" height="120" fill="#0a0f1e"/>
<g transform="translate(0,-8)">
<rect x="-24" y="-24" width="48" height="48" fill="#f59e0b">
<animate attributeName="opacity" values="0.6;1;0.6" dur="1.6s" repeatCount="indefinite"/>
</rect>
<g fill="#0a0f1e">
<rect x="-20" y="-20" width="6" height="6"/>
<rect x="-10" y="-20" width="4" height="4"/>
<rect x="-2" y="-20" width="6" height="6"/>
<rect x="8" y="-20" width="4" height="6"/>
<rect x="14" y="-20" width="6" height="6"/>
<rect x="-20" y="-10" width="4" height="4"/>
<rect x="-10" y="-12" width="6" height="4"/>
<rect x="-2" y="-10" width="4" height="4"/>
<rect x="6" y="-10" width="6" height="4"/>
<rect x="14" y="-10" width="6" height="4"/>
<rect x="-20" y="-2" width="6" height="6"/>
<rect x="-10" y="-2" width="4" height="4"/>
<rect x="-2" y="-2" width="6" height="4"/>
<rect x="8" y="0" width="4" height="4"/>
<rect x="14" y="-2" width="6" height="6"/>
<rect x="-20" y="8" width="4" height="6"/>
<rect x="-12" y="8" width="6" height="4"/>
<rect x="-2" y="10" width="4" height="4"/>
<rect x="6" y="8" width="6" height="6"/>
<rect x="14" y="8" width="6" height="4"/>
</g>
<rect x="-24" y="-24" width="48" height="4" fill="#fde68a" opacity="0.7">
<animate attributeName="y" values="-24;24;-24" dur="2.4s" repeatCount="indefinite"/>
<animate attributeName="opacity" values="0;0.9;0" dur="2.4s" repeatCount="indefinite"/>
</rect>
</g>
<circle cx="0" cy="68" r="3" fill="#0a0f1e"/>
</g>
<g transform="translate(960,110)" stroke="url(#gHook)" stroke-width="3" fill="none" stroke-linecap="round">
<path d="M0 -40 L0 20 Q0 44 -20 44 Q-36 44 -36 28">
<animate attributeName="stroke-opacity" values="0.6;1;0.6" dur="2.2s" repeatCount="indefinite"/>
</path>
<circle cx="0" cy="-44" r="4" fill="#f59e0b"/>
<path d="M-36 28 L-42 22 M-36 28 L-30 22" stroke-width="2"/>
</g>
<g transform="translate(700,230)">
<path d="M0 0 Q 20 -20 40 0 Q 60 20 80 0" stroke="#f59e0b" stroke-width="2" fill="none" stroke-dasharray="4 4">
<animate attributeName="stroke-dashoffset" values="0;-40" dur="2s" repeatCount="indefinite"/>
</path>
</g>
</g>
<circle r="2.2" fill="#fbbf24">
<animateMotion dur="5.4s" repeatCount="indefinite"><mpath href="#flowTR"/></animateMotion>
<animate attributeName="opacity" values="0;1;0" dur="5.4s" repeatCount="indefinite"/>
</circle>
<circle r="2" fill="#f59e0b">
<animateMotion dur="5.4s" repeatCount="indefinite" begin="1.8s"><mpath href="#flowTR"/></animateMotion>
</circle>
<circle r="1.6" fill="#fde68a">
<animateMotion dur="5.4s" repeatCount="indefinite" begin="3.2s"><mpath href="#flowTR"/></animateMotion>
</circle>
<g transform="translate(720,70)">
<circle r="1.5" fill="#fde68a">
<animate attributeName="opacity" values="0.2;1;0.2" dur="2.2s" repeatCount="indefinite"/>
</circle>
</g>
<g transform="translate(1120,90)">
<circle r="1.5" fill="#f59e0b">
<animate attributeName="r" values="1;2.5;1" dur="2s" repeatCount="indefinite"/>
</circle>
</g>
<g transform="translate(1080,260)">
<circle r="1.2" fill="#fbbf24">
<animate attributeName="opacity" values="0.3;1;0.3" dur="1.6s" repeatCount="indefinite"/>
</circle>
</g>
<line x1="640" y1="280" x2="760" y2="280" stroke="#f59e0b" stroke-width="2" stroke-linecap="round">
<animate attributeName="stroke-opacity" values="0.4;1;0.4" dur="2.2s" repeatCount="indefinite"/>
</line>
<text x="640" y="268" font-family="monospace" font-size="18" font-weight="700" fill="#e2e8f0" letter-spacing="2">QUISHING</text>
</g>

<g clip-path="url(#clipBL)">
<rect x="0" y="315" width="600" height="315" fill="url(#bgBL)"/>
<rect x="0" y="315" width="600" height="315" fill="url(#hexGrid)"/>
<ellipse cx="300" cy="472" rx="260" ry="140" fill="url(#haloBL)">
<animate attributeName="opacity" values="0.4;0.9;0.4" dur="4.6s" repeatCount="indefinite"/>
</ellipse>
<rect x="0" y="315" width="600" height="2" fill="#3b82f6" opacity="0.5">
<animate attributeName="y" values="315;630;315" dur="6.5s" repeatCount="indefinite"/>
</rect>
<g filter="url(#glowBlue)">
<g transform="translate(180,470)">
<rect x="-50" y="-70" width="100" height="140" rx="6" fill="url(#gServer)" stroke="#93c5fd" stroke-width="1.5"/>
<g stroke="#0a0f1e" stroke-width="1">
<rect x="-42" y="-58" width="84" height="16" fill="#1e3a8a"/>
<rect x="-42" y="-38" width="84" height="16" fill="#1e3a8a"/>
<rect x="-42" y="-18" width="84" height="16" fill="#1e3a8a"/>
<rect x="-42" y="2" width="84" height="16" fill="#1e3a8a"/>
<rect x="-42" y="22" width="84" height="16" fill="#1e3a8a"/>
<rect x="-42" y="42" width="84" height="16" fill="#1e3a8a"/>
</g>
<circle cx="-34" cy="-50" r="2" fill="#22d3ee">
<animate attributeName="opacity" values="0.3;1;0.3" dur="1.2s" repeatCount="indefinite"/>
</circle>
<circle cx="-34" cy="-30" r="2" fill="#f59e0b">
<animate attributeName="opacity" values="0.3;1;0.3" dur="1.4s" repeatCount="indefinite"/>
</circle>
<circle cx="-34" cy="-10" r="2" fill="#ef4444">
<animate attributeName="opacity" values="0.3;1;0.3" dur="1s" repeatCount="indefinite"/>
</circle>
<circle cx="-34" cy="10" r="2" fill="#22d3ee">
<animate attributeName="opacity" values="0.3;1;0.3" dur="1.6s" repeatCount="indefinite"/>
</circle>
<circle cx="-34" cy="30" r="2" fill="#22d3ee">
<animate attributeName="opacity" values="0.3;1;0.3" dur="1.8s" repeatCount="indefinite"/>
</circle>
<circle cx="-34" cy="50" r="2" fill="#ef4444">
<animate attributeName="opacity" values="0.3;1;0.3" dur="1.3s" repeatCount="indefinite"/>
</circle>
</g>
<g transform="translate(300,400)">
<circle r="14" fill="#ef4444">
<animate attributeName="r" values="12;16;12" dur="1.2s" repeatCount="indefinite"/>
<animate attributeName="fill" values="#ef4444;#fbbf24;#ef4444" dur="1.2s" repeatCount="indefinite"/>
</circle>
<circle r="22" fill="none" stroke="#ef4444" stroke-width="1.5">
<animate attributeName="r" values="18;30;18" dur="1.8s" repeatCount="indefinite"/>
<animate attributeName="opacity" values="1;0;1" dur="1.8s" repeatCount="indefinite"/>
</circle>
<rect x="-6" y="14" width="12" height="22" fill="#1e293b"/>
</g>
<g transform="translate(360,500)">
<ellipse cx="0" cy="0" rx="26" ry="20" fill="url(#gBug)" stroke="#67e8f9" stroke-width="1.2">
<animate attributeName="ry" values="18;22;18" dur="2s" repeatCount="indefinite"/>
</ellipse>
<line x1="-26" y1="-6" x2="-40" y2="-16" stroke="#67e8f9" stroke-width="1.5">
<animate attributeName="y2" values="-16;-20;-16" dur="1.4s" repeatCount="indefinite"/>
</line>
<line x1="26" y1="-6" x2="40" y2="-16" stroke="#67e8f9" stroke-width="1.5">
<animate attributeName="y2" values="-16;-20;-16" dur="1.4s" repeatCount="indefinite" begin="0.2s"/>
</line>
<line x1="-26" y1="6" x2="-40" y2="10" stroke="#67e8f9" stroke-width="1.5"/>
<line x1="26" y1="6" x2="40" y2="10" stroke="#67e8f9" stroke-width="1.5"/>
<circle cx="-8" cy="-4" r="2" fill="#0a0f1e"/>
<circle cx="8" cy="-4" r="2" fill="#0a0f1e"/>
</g>
<g transform="translate(480,440)">
<path d="M0 -26 L22 -18 L22 4 Q22 22 0 32 Q-22 22 -22 4 L-22 -18 Z" fill="none" stroke="#3b82f6" stroke-width="2">
<animate attributeName="stroke-opacity" values="0.5;1;0.5" dur="2s" repeatCount="indefinite"/>
</path>
<path d="M-4 -10 L6 -2 L-2 4 L4 14" stroke="#fbbf24" stroke-width="2" fill="none" stroke-linecap="round">
<animate attributeName="stroke-opacity" values="0.6;1;0.6" dur="1s" repeatCount="indefinite"/>
</path>
</g>
</g>
<circle r="2.2" fill="#60a5fa">
<animateMotion dur="5.6s" repeatCount="indefinite"><mpath href="#flowBL"/></animateMotion>
<animate attributeName="opacity" values="0;1;0" dur="5.6s" repeatCount="indefinite"/>
</circle>
<circle r="1.8" fill="#22d3ee">
<animateMotion dur="5.6s" repeatCount="indefinite" begin="1.9s"><mpath href="#flowBL"/></animateMotion>
</circle>
<circle r="1.6" fill="#3b82f6">
<animateMotion dur="5.6s" repeatCount="indefinite" begin="3.4s"><mpath href="#flowBL"/></animateMotion>
</circle>
<g transform="translate(90,380)">
<circle r="1.5" fill="#60a5fa">
<animate attributeName="opacity" values="0.2;1;0.2" dur="2.6s" repeatCount="indefinite"/>
</circle>
</g>
<g transform="translate(540,360)">
<circle r="1.5" fill="#22d3ee">
<animate attributeName="r" values="1;2.5;1" dur="1.8s" repeatCount="indefinite"/>
</circle>
</g>
<g transform="translate(560,580)">
<circle r="1.2" fill="#3b82f6">
<animate attributeName="opacity" values="0.3;1;0.3" dur="2s" repeatCount="indefinite"/>
</circle>
</g>
<line x1="40" y1="595" x2="160" y2="595" stroke="#22d3ee" stroke-width="2" stroke-linecap="round">
<animate attributeName="stroke-opacity" values="0.4;1;0.4" dur="2.4s" repeatCount="indefinite"/>
</line>
<text x="40" y="583" font-family="monospace" font-size="18" font-weight="700" fill="#e2e8f0" letter-spacing="2">EXPLOIT</text>
</g>

<g clip-path="url(#clipBR)">
<rect x="600" y="315" width="600" height="315" fill="url(#bgBR)"/>
<rect x="600" y="315" width="600" height="315" fill="url(#hexGrid)"/>
<ellipse cx="900" cy="472" rx="260" ry="140" fill="url(#haloBR)">
<animate attributeName="opacity" values="0.4;0.9;0.4" dur="5s" repeatCount="indefinite"/>
</ellipse>
<rect x="600" y="315" width="600" height="2" fill="#22d3ee" opacity="0.5">
<animate attributeName="y" values="315;630;315" dur="7.5s" repeatCount="indefinite"/>
</rect>
<g filter="url(#glowCyan)">
<g transform="translate(800,470)">
<path d="M-70 30 A70 70 0 0 1 70 30" fill="none" stroke="url(#gGauge)" stroke-width="10"/>
<g stroke="#e2e8f0" stroke-width="1.5" stroke-linecap="round">
<line x1="-62" y1="18" x2="-54" y2="16"/>
<line x1="-44" y1="-8" x2="-38" y2="-4"/>
<line x1="-12" y1="-28" x2="-10" y2="-20"/>
<line x1="20" y1="-26" x2="16" y2="-18"/>
<line x1="48" y1="-6" x2="42" y2="-2"/>
<line x1="62" y1="18" x2="54" y2="16"/>
</g>
<g transform="rotate(-20)">
<animateTransform attributeName="transform" type="rotate" values="-60;50;-60" dur="4s" repeatCount="indefinite"/>
<line x1="0" y1="0" x2="0" y2="-54" stroke="#ef4444" stroke-width="3" stroke-linecap="round"/>
</g>
<circle r="6" fill="#e2e8f0"/>
<circle r="3" fill="#0a0f1e"/>
</g>
<g transform="translate(950,390)">
<animateTransform attributeName="transform" type="rotate" values="0 950 390;360 950 390" dur="10s" repeatCount="indefinite" additive="sum"/>
<g transform="translate(40,0)">
<path d="M-8 -20 Q-16 -20 -16 -12 Q-16 -4 -8 -4 L-8 16 Q-8 20 -4 20 L4 20 Q8 20 8 16 L8 -4 Q16 -4 16 -12 Q16 -20 8 -20 Z" fill="#22d3ee" stroke="#67e8f9" stroke-width="1">
<animate attributeName="opacity" values="0.7;1;0.7" dur="2s" repeatCount="indefinite"/>
</path>
</g>
</g>
<g transform="translate(1060,460)" stroke="#67e8f9" stroke-width="1.2">
<line x1="-30" y1="0" x2="30" y2="0"/>
<line x1="-30" y1="-6" x2="-30" y2="6"/>
<line x1="-15" y1="-4" x2="-15" y2="4"/>
<line x1="0" y1="-6" x2="0" y2="6"/>
<line x1="15" y1="-4" x2="15" y2="4"/>
<line x1="30" y1="-6" x2="30" y2="6"/>
<circle cx="-30" cy="0" r="3" fill="#22d3ee">
<animate attributeName="cx" values="-30;30;-30" dur="3s" repeatCount="indefinite"/>
</circle>
</g>
<g transform="translate(1020,540)">
<polyline points="-40,20 -24,6 -10,10 6,-8 20,-18 36,-30" fill="none" stroke="url(#gBurn)" stroke-width="2.2">
<animate attributeName="stroke-dashoffset" values="0;-40" dur="3s" repeatCount="indefinite"/>
</polyline>
<line x1="-44" y1="22" x2="44" y2="22" stroke="#475569" stroke-width="1"/>
<line x1="-44" y1="22" x2="-44" y2="-36" stroke="#475569" stroke-width="1"/>
<circle cx="36" cy="-30" r="3" fill="#22d3ee">
<animate attributeName="r" values="2;4;2" dur="1.6s" repeatCount="indefinite"/>
</circle>
</g>
</g>
<circle r="2.2" fill="#67e8f9">
<animateMotion dur="5.8s" repeatCount="indefinite"><mpath href="#flowBR"/></animateMotion>
<animate attributeName="opacity" values="0;1;0" dur="5.8s" repeatCount="indefinite"/>
</circle>
<circle r="1.8" fill="#22d3ee">
<animateMotion dur="5.8s" repeatCount="indefinite" begin="2s"><mpath href="#flowBR"/></animateMotion>
</circle>
<circle r="1.6" fill="#3b82f6">
<animateMotion dur="5.8s" repeatCount="indefinite" begin="3.6s"><mpath href="#flowBR"/></animateMotion>
</circle>
<g transform="translate(700,380)">
<circle r="1.5" fill="#67e8f9">
<animate attributeName="opacity" values="0.2;1;0.2" dur="2.2s" repeatCount="indefinite"/>
</circle>
</g>
<g transform="translate(1140,360)">
<circle r="1.5" fill="#22d3ee">
<animate attributeName="r" values="1;2.5;1" dur="1.9s" repeatCount="indefinite"/>
</circle>
</g>
<g transform="translate(1150,580)">
<circle r="1.2" fill="#3b82f6">
<animate attributeName="opacity" values="0.3;1;0.3" dur="1.7s" repeatCount="indefinite"/>
</circle>
</g>
<line x1="640" y1="595" x2="760" y2="595" stroke="#22d3ee" stroke-width="2" stroke-linecap="round">
<animate attributeName="stroke-opacity" values="0.4;1;0.4" dur="2.6s" repeatCount="indefinite"/>
</line>
<text x="640" y="583" font-family="monospace" font-size="18" font-weight="700" fill="#e2e8f0" letter-spacing="2">TRIAGE</text>
</g>

<line x1="600" y1="0" x2="600" y2="630" stroke="#1e293b" stroke-width="1" opacity="0.7"/>
<line x1="0" y1="315" x2="1200" y2="315" stroke="#1e293b" stroke-width="1" opacity="0.7"/>
<circle cx="600" cy="315" r="5" fill="#22d3ee">
<animate attributeName="fill" values="#ef4444;#f59e0b;#3b82f6;#22d3ee;#ef4444" dur="6s" repeatCount="indefinite"/>
<animate attributeName="r" values="4;7;4" dur="2.4s" repeatCount="indefinite"/>
</circle>
<circle cx="600" cy="315" r="10" fill="none" stroke="#22d3ee" stroke-width="0.8">
<animate attributeName="r" values="6;14;6" dur="2.4s" repeatCount="indefinite"/>
<animate attributeName="opacity" values="1;0;1" dur="2.4s" repeatCount="indefinite"/>
</circle>

<g transform="translate(40,600)">
<rect x="0" y="-16" width="140" height="22" rx="11" fill="#0d1117" stroke="#1e293b"/>
<circle cx="14" cy="-5" r="4" fill="#22c55e">
<animate attributeName="opacity" values="0.4;1;0.4" dur="1.4s" repeatCount="indefinite"/>
<animate attributeName="r" values="3;5;3" dur="1.4s" repeatCount="indefinite"/>
</circle>
<text x="28" y="-1" font-family="monospace" font-size="11" font-weight="700" fill="#e2e8f0" letter-spacing="1.5">APR 06 2026</text>
</g>
<g transform="translate(960,600)">
<rect x="0" y="-16" width="200" height="22" rx="11" fill="#0d1117" stroke="#1e293b"/>
<text x="100" y="-1" font-family="monospace" font-size="11" font-weight="700" fill="#94a3b8" letter-spacing="1.5" text-anchor="middle">DEVSECOPS / SRE / CLOUD</text>
</g>

<rect width="1200" height="630" fill="url(#scanlines)" pointer-events="none"/>
</svg>