<svg xmlns="http://www.w3.org/2000/svg" viewBox="0 0 1200 630" fill="none">
  <defs>
    <linearGradient id="bg" x1="0" y1="0" x2="1200" y2="630">
      <stop offset="0%" stop-color="#0f172a"/>
      <stop offset="50%" stop-color="#1e293b"/>
      <stop offset="100%" stop-color="#0f172a"/>
    </linearGradient>
    <linearGradient id="accent" x1="0" y1="0" x2="1" y2="1">
      <stop offset="0%" stop-color="#ef4444"/>
      <stop offset="100%" stop-color="#dc2626"/>
    </linearGradient>
    <linearGradient id="accent2" x1="0" y1="0" x2="1" y2="1">
      <stop offset="0%" stop-color="#6366f1"/>
      <stop offset="100%" stop-color="#4f46e5"/>
    </linearGradient>
  </defs>

  <!-- Background -->
  <rect width="1200" height="630" fill="url(#bg)"/>

  <!-- Grid pattern -->
  <g opacity="0.05" stroke="#94a3b8" stroke-width="1">
    <line x1="0" y1="100" x2="1200" y2="100"/>
    <line x1="0" y1="200" x2="1200" y2="200"/>
    <line x1="0" y1="300" x2="1200" y2="300"/>
    <line x1="0" y1="400" x2="1200" y2="400"/>
    <line x1="0" y1="500" x2="1200" y2="500"/>
    <line x1="200" y1="0" x2="200" y2="630"/>
    <line x1="400" y1="0" x2="400" y2="630"/>
    <line x1="600" y1="0" x2="600" y2="630"/>
    <line x1="800" y1="0" x2="800" y2="630"/>
    <line x1="1000" y1="0" x2="1000" y2="630"/>
  </g>

  <!-- Primary icon -->
  <g transform="translate(80, 180)">
    <path d="M60 5 L115 120 L5 120 Z" fill="url(#accent)" opacity="0.9"/>
    <path d="M60 20 L105 115 L15 115 Z" fill="none" stroke="#fca5a5" stroke-width="2"/>
    <text x="60" y="85" text-anchor="middle" fill="white" font-family="Arial, sans-serif" font-size="40" font-weight="bold">!</text>
    <circle cx="60" cy="100" r="4" fill="white"/>
  </g>

  <!-- Secondary icon -->
  <g transform="translate(80, 380)">
    <circle cx="60" cy="70" r="45" fill="url(#accent)" opacity="0.15"/>
    <circle cx="60" cy="70" r="45" fill="none" stroke="#6366f1" stroke-width="2.5"/>
    <path d="M40 55 Q50 35 60 50 Q70 35 80 55" fill="none" stroke="#94a3b8" stroke-width="2"/>
    <path d="M35 75 Q45 60 55 75 Q65 60 75 75 Q85 60 90 75" fill="none" stroke="#94a3b8" stroke-width="2"/>
    <text x="60" y="105" text-anchor="middle" fill="#6366f1" font-family="monospace" font-size="14" font-weight="bold">AI</text>
  </g>

  <!-- Main title area -->
  <g transform="translate(260, 100)">
    <text x="0" y="0" fill="#f8fafc" font-family="Arial, sans-serif" font-size="18" font-weight="bold" letter-spacing="4">TECH SECURITY WEEKLY DIGEST</text>
    <text x="0" y="60" fill="#f8fafc" font-family="Arial, sans-serif" font-size="42" font-weight="bold">Tech Security Weekly Digest</text>
    <text x="0" y="110" fill="#94a3b8" font-family="Arial, sans-serif" font-size="36" font-weight="300">AI Docker Data Go</text>
  </g>

  <!-- Date badge -->
  <rect x="260" y="240" width="200" height="36" rx="18" fill="url(#accent)" opacity="0.9"/>
  <text x="360" y="264" text-anchor="middle" fill="white" font-family="Arial, sans-serif" font-size="16" font-weight="bold">February 04, 2026</text>

  <!-- Stats cards -->
  <g transform="translate(260, 310)">
    <rect x="0" y="0" width="200" height="90" rx="8" fill="#1e293b" stroke="#334155" stroke-width="1"/>
    <text x="20" y="30" fill="#ef4444" font-family="Arial, sans-serif" font-size="12" font-weight="bold">CVE ALERT</text>
    <text x="20" y="65" fill="#f8fafc" font-family="Arial, sans-serif" font-size="28" font-weight="bold">CVE Alert</text>
    <text x="20" y="80" fill="#64748b" font-family="Arial, sans-serif" font-size="13">analysis</text>
    <rect x="220" y="0" width="200" height="90" rx="8" fill="#1e293b" stroke="#334155" stroke-width="1"/>
    <text x="240" y="30" fill="#818cf8" font-family="Arial, sans-serif" font-size="12" font-weight="bold">AI/ML</text>
    <text x="240" y="65" fill="#f8fafc" font-family="Arial, sans-serif" font-size="28" font-weight="bold">AI/ML</text>
    <text x="240" y="80" fill="#64748b" font-family="Arial, sans-serif" font-size="13">analysis</text>
    <rect x="440" y="0" width="200" height="90" rx="8" fill="#1e293b" stroke="#334155" stroke-width="1"/>
    <text x="460" y="30" fill="#2496ed" font-family="Arial, sans-serif" font-size="12" font-weight="bold">DOCKER</text>
    <text x="460" y="65" fill="#f8fafc" font-family="Arial, sans-serif" font-size="28" font-weight="bold">Docker</text>
    <text x="460" y="80" fill="#64748b" font-family="Arial, sans-serif" font-size="13">analysis</text>
  </g>

  <!-- Key topics -->
  <g transform="translate(260, 440)">
    <rect x="0" y="0" width="111" height="32" rx="16" fill="#991b1b" opacity="0.7"/>
    <text x="55" y="21" text-anchor="middle" fill="#fca5a5" font-family="Arial, sans-serif" font-size="13">CVE Alert</text>
    <rect x="126" y="0" width="75" height="32" rx="16" fill="#7c2d12" opacity="0.7"/>
    <text x="163" y="21" text-anchor="middle" fill="#fdba74" font-family="Arial, sans-serif" font-size="13">AI/ML</text>
    <rect x="216" y="0" width="84" height="32" rx="16" fill="#312e81" opacity="0.7"/>
    <text x="258" y="21" text-anchor="middle" fill="#a5b4fc" font-family="Arial, sans-serif" font-size="13">Docker</text>
    <rect x="315" y="0" width="75" height="32" rx="16" fill="#064e3b" opacity="0.7"/>
    <text x="352" y="21" text-anchor="middle" fill="#6ee7b7" font-family="Arial, sans-serif" font-size="13">Cloud</text>
  </g>

  <!-- Network visualization -->
  <g transform="translate(900, 180)" opacity="0.4">
    <circle cx="203" cy="216" r="3" fill="#f87171"/>
    <circle cx="76" cy="76" r="4" fill="#fb923c"/>
    <circle cx="35" cy="41" r="5" fill="#818cf8"/>
    <circle cx="30" cy="32" r="6" fill="#34d399"/>
    <circle cx="130" cy="30" r="3" fill="#fbbf24"/>
    <circle cx="192" cy="30" r="4" fill="#f87171"/>
    <circle cx="125" cy="80" r="5" fill="#fb923c"/>
    <circle cx="66" cy="192" r="6" fill="#818cf8"/>
    <circle cx="84" cy="220" r="3" fill="#34d399"/>
    <circle cx="36" cy="177" r="4" fill="#fbbf24"/>
    <line x1="203" y1="216" x2="76" y2="76" stroke="#475569" stroke-width="1"/>
    <line x1="76" y1="76" x2="35" y2="41" stroke="#475569" stroke-width="1"/>
    <line x1="35" y1="41" x2="30" y2="32" stroke="#475569" stroke-width="1"/>
    <line x1="30" y1="32" x2="130" y2="30" stroke="#475569" stroke-width="1"/>
    <line x1="130" y1="30" x2="192" y2="30" stroke="#475569" stroke-width="1"/>
    <line x1="192" y1="30" x2="125" y2="80" stroke="#475569" stroke-width="1"/>
    <line x1="125" y1="80" x2="66" y2="192" stroke="#475569" stroke-width="1"/>
    <line x1="66" y1="192" x2="84" y2="220" stroke="#475569" stroke-width="1"/>
  </g>

  <!-- Bottom bar -->
  <rect x="0" y="510" width="1200" height="120" fill="#0f172a" opacity="0.8"/>
  <rect x="0" y="510" width="1200" height="2" fill="url(#accent)" opacity="0.5"/>

  <!-- Bottom text -->
  <text x="80" y="560" fill="#94a3b8" font-family="Arial, sans-serif" font-size="16">tech.2twodragon.com</text>
  <text x="80" y="590" fill="#64748b" font-family="Arial, sans-serif" font-size="13">DevSecOps Weekly Security Intelligence</text>

  <!-- Bottom right -->
  <text x="1120" y="560" text-anchor="end" fill="#64748b" font-family="Arial, sans-serif" font-size="14">10 curated articles</text>
  <text x="1120" y="590" text-anchor="end" fill="#64748b" font-family="Arial, sans-serif" font-size="13">CVE Alert | AI/ML | Docker | Cloud</text>
</svg>
