<svg width="1200" height="630" viewBox="0 0 1200 630" xmlns="http://www.w3.org/2000/svg">
  <title>2026 03 19 Tech Security Weekly Digest Zero Day CVE Ransomware Patch</title>
  <defs>
    <linearGradient id="bg19" x1="0" y1="0" x2="1" y2="1">
      <stop offset="0%" stop-color="#0a0f18"/>
      <stop offset="100%" stop-color="#121a2c"/>
    </linearGradient>
  </defs>

  <rect width="1200" height="630" fill="url(#bg19)"/>

  <text x="60" y="72" fill="#e2e8f0" font-size="32" font-family="Georgia, serif">Control Plane Under Pressure</text>
  <text x="60" y="106" fill="#94a3b8" font-size="18" font-family="Georgia, serif">Mar 19</text>

  <line x1="300" y1="315" x2="540" y2="315" stroke="#f59e0b" stroke-width="4" stroke-dasharray="10 8"/>
  <line x1="660" y1="315" x2="900" y2="315" stroke="#8b5cf6" stroke-width="4" stroke-dasharray="10 8"/>

  <g transform="translate(140,220)">
    <rect x="0" y="0" width="180" height="190" rx="22" fill="#0f172a" stroke="#f59e0b" stroke-width="3"/>
    <path d="M90 34 L132 52 L132 96 C132 124 112 146 90 156 C68 146 48 124 48 96 L48 52 Z" fill="none" stroke="#f59e0b" stroke-width="2.5"/>
    <line x1="90" y1="60" x2="90" y2="102" stroke="#f59e0b" stroke-width="2.5"/>
    <line x1="72" y1="82" x2="108" y2="82" stroke="#f59e0b" stroke-width="2.5"/>
    <text x="90" y="166" text-anchor="middle" fill="#f59e0b" font-size="16" font-family="Arial, sans-serif" font-weight="700">CISCO FMC</text>
    <text x="90" y="188" text-anchor="middle" fill="#cbd5e1" font-size="13" font-family="Arial, sans-serif">Zero-day access</text>
  </g>

  <g transform="translate(510,205)">
    <circle cx="90" cy="110" r="96" fill="#0f172a" stroke="#ef4444" stroke-width="3"/>
    <rect x="42" y="74" width="96" height="62" rx="10" fill="none" stroke="#ef4444" stroke-width="2.5"/>
    <path d="M58 106 L76 106 L68 97 M76 106 L68 115" fill="none" stroke="#ef4444" stroke-width="2.5" stroke-linecap="round" stroke-linejoin="round"/>
    <line x1="88" y1="113" x2="120" y2="113" stroke="#ef4444" stroke-width="2.5"/>
    <text x="90" y="226" text-anchor="middle" fill="#ef4444" font-size="17" font-family="Arial, sans-serif" font-weight="700">TELNETD RCE</text>
    <text x="90" y="248" text-anchor="middle" fill="#cbd5e1" font-size="13" font-family="Arial, sans-serif">Unauth root path</text>
  </g>

  <g transform="translate(880,220)">
    <rect x="0" y="0" width="180" height="190" rx="22" fill="#0f172a" stroke="#8b5cf6" stroke-width="3"/>
    <line x1="90" y1="46" x2="90" y2="108" stroke="#8b5cf6" stroke-width="2.5"/>
    <line x1="56" y1="56" x2="124" y2="56" stroke="#8b5cf6" stroke-width="2.5"/>
    <path d="M56 56 L44 82 L68 82 Z" fill="none" stroke="#8b5cf6" stroke-width="2.5"/>
    <path d="M124 56 L112 82 L136 82 Z" fill="none" stroke="#8b5cf6" stroke-width="2.5"/>
    <text x="90" y="166" text-anchor="middle" fill="#8b5cf6" font-size="16" font-family="Arial, sans-serif" font-weight="700">DPRK SANCTIONS</text>
    <text x="90" y="188" text-anchor="middle" fill="#cbd5e1" font-size="13" font-family="Arial, sans-serif">Remote worker risk</text>
  </g>
</svg>
