<svg xmlns="http://www.w3.org/2000/svg" viewBox="0 0 1200 630" width="1200" height="630">
  <title>Tech Security Weekly Digest MS Office Zero Day CTEM Grist Core RCE</title>
  <defs>
    <linearGradient id="bg" x1="0%" y1="0%" x2="100%" y2="100%">
      <stop offset="0%" style="stop-color:#1a0a0a"/>
      <stop offset="100%" style="stop-color:#2d1212"/>
    </linearGradient>
    <linearGradient id="accent" x1="0%" y1="0%" x2="100%" y2="0%">
      <stop offset="0%" style="stop-color:#c0392b"/>
      <stop offset="100%" style="stop-color:#d35400"/>
    </linearGradient>
  </defs>
  <rect width="1200" height="630" fill="url(#bg)"/>
  <line x1="0" y1="105" x2="1200" y2="105" stroke="rgba(255,255,255,0.04)" stroke-width="1"/>
  <line x1="0" y1="210" x2="1200" y2="210" stroke="rgba(255,255,255,0.04)" stroke-width="1"/>
  <line x1="0" y1="315" x2="1200" y2="315" stroke="rgba(255,255,255,0.04)" stroke-width="1"/>
  <line x1="0" y1="420" x2="1200" y2="420" stroke="rgba(255,255,255,0.04)" stroke-width="1"/>
  <line x1="240" y1="0" x2="240" y2="630" stroke="rgba(255,255,255,0.03)" stroke-width="1"/>
  <line x1="480" y1="0" x2="480" y2="630" stroke="rgba(255,255,255,0.03)" stroke-width="1"/>
  <line x1="720" y1="0" x2="720" y2="630" stroke="rgba(255,255,255,0.03)" stroke-width="1"/>
  <line x1="960" y1="0" x2="960" y2="630" stroke="rgba(255,255,255,0.03)" stroke-width="1"/>
  <circle cx="1050" cy="450" r="200" fill="rgba(192,57,43,0.07)"/>
  <circle cx="1050" cy="450" r="140" fill="rgba(211,84,0,0.06)"/>
  <!-- Zero-day calendar -->
  <rect x="820" y="195" width="120" height="120" rx="8" fill="rgba(192,57,43,0.12)" stroke="#c0392b" stroke-width="2.5"/>
  <rect x="820" y="195" width="120" height="30" rx="8" fill="rgba(192,57,43,0.3)" stroke="#c0392b" stroke-width="2.5"/>
  <!-- RCE explosion icon -->
  <circle cx="1040" cy="280" r="35" fill="rgba(211,84,0,0.15)" stroke="#d35400" stroke-width="2.5"/>
  <!-- Explosion spikes -->
  <path d="M1040 245 L1035 258 L1025 250 L1032 262 L1020 260 L1033 268 L1025 278 L1038 272 L1036 288 L1043 275 L1050 285 L1048 272 L1060 278 L1052 265 L1062 263 L1050 257 L1055 247 L1043 256 Z" fill="rgba(211,84,0,0.4)" stroke="#d35400" stroke-width="1"/>
  <!-- CTEM cycle ring -->
  <circle cx="1090" cy="380" r="45" fill="none" stroke="rgba(255,153,0,0.4)" stroke-width="2" stroke-dasharray="6,3"/>
  <!-- Grist label -->
  <rect x="825" y="360" width="100" height="30" rx="4" fill="rgba(211,84,0,0.12)" stroke="rgba(211,84,0,0.4)" stroke-width="1.5"/>
  <rect x="0" y="0" width="6" height="630" fill="url(#accent)"/>
  <rect x="80" y="44" width="240" height="34" rx="17" fill="rgba(192,57,43,0.15)" stroke="rgba(192,57,43,0.4)" stroke-width="1"/>
  <text x="200" y="66" font-family="Arial,sans-serif" font-size="13" fill="#c0392b" text-anchor="middle" letter-spacing="2">JANUARY 28, 2026</text>
  <text x="80" y="185" font-family="Arial,sans-serif" font-size="42" font-weight="700" fill="#ffffff">MS Office Zero-Day,</text>
  <text x="80" y="245" font-family="Arial,sans-serif" font-size="42" font-weight="700" fill="#ffffff">CTEM and Grist Core RCE</text>
  <text x="80" y="300" font-family="Arial,sans-serif" font-size="20" fill="rgba(255,255,255,0.7)">Weekly digest: critical exploits, exposure management and RCE</text>
  <rect x="80" y="320" width="120" height="3" rx="2" fill="url(#accent)"/>
  <text x="80" y="370" font-family="Arial,sans-serif" font-size="15" fill="rgba(192,57,43,0.8)" letter-spacing="3">SECURITY WEEKLY DIGEST</text>
  <rect x="80" y="400" width="90" height="28" rx="14" fill="rgba(192,57,43,0.15)" stroke="rgba(192,57,43,0.4)" stroke-width="1"/>
  <text x="125" y="419" font-family="Arial,sans-serif" font-size="13" fill="#c0392b" text-anchor="middle">Zero-Day</text>
  <rect x="182" y="400" width="65" height="28" rx="14" fill="rgba(255,153,0,0.15)" stroke="rgba(255,153,0,0.4)" stroke-width="1"/>
  <text x="214" y="419" font-family="Arial,sans-serif" font-size="13" fill="#f39c12" text-anchor="middle">CTEM</text>
  <rect x="259" y="400" width="95" height="28" rx="14" fill="rgba(255,255,255,0.08)" stroke="rgba(255,255,255,0.2)" stroke-width="1"/>
  <text x="306" y="419" font-family="Arial,sans-serif" font-size="13" fill="rgba(255,255,255,0.7)" text-anchor="middle">Grist RCE</text>
  <rect x="0" y="590" width="1200" height="40" fill="rgba(0,0,0,0.3)"/>
  <text x="80" y="615" font-family="Arial,sans-serif" font-size="13" fill="rgba(255,255,255,0.5)">tech.2twodragon.com</text>
  <text x="1120" y="615" font-family="Arial,sans-serif" font-size="13" fill="rgba(255,255,255,0.5)" text-anchor="end">DevSecOps</text>
</svg>
