<svg width="1200" height="630" viewBox="0 0 1200 630" xmlns="http://www.w3.org/2000/svg">
  <defs><linearGradient id="bg0203" x1="0" y1="0" x2="1" y2="1"><stop offset="0%" stop-color="#0a0f18"/><stop offset="100%" stop-color="#141c2e"/></linearGradient></defs>
  <rect width="1200" height="630" fill="url(#bg0203)"/>
  <text x="60" y="72" fill="#e2e8f0" font-size="32" font-family="Georgia, serif">Agent RCE and Device Control</text>
  <text x="60" y="106" fill="#94a3b8" font-size="18" font-family="Georgia, serif">Feb 03</text>
  <line x1="300" y1="315" x2="540" y2="315" stroke="#ef4444" stroke-width="4" stroke-dasharray="10 8"/><line x1="660" y1="315" x2="900" y2="315" stroke="#22c55e" stroke-width="4" stroke-dasharray="10 8"/>
  <g transform="translate(140,220)"><rect width="180" height="190" rx="22" fill="#0f172a" stroke="#ef4444" stroke-width="3"/><rect x="48" y="72" width="84" height="52" rx="8" fill="none" stroke="#ef4444" stroke-width="2.5"/><text x="90" y="165" text-anchor="middle" fill="#ef4444" font-size="16" font-family="Arial" font-weight="700">AI AGENT RCE</text><text x="90" y="186" text-anchor="middle" fill="#cbd5e1" font-size="13" font-family="Arial">One click path</text></g>
  <g transform="translate(510,205)"><circle cx="90" cy="110" r="96" fill="#0f172a" stroke="#38bdf8" stroke-width="3"/><rect x="56" y="68" width="68" height="84" rx="10" fill="none" stroke="#38bdf8" stroke-width="2.5"/><circle cx="90" cy="128" r="8" fill="none" stroke="#38bdf8" stroke-width="2.5"/><text x="90" y="226" text-anchor="middle" fill="#38bdf8" font-size="17" font-family="Arial" font-weight="700">MDM CONTROL</text><text x="90" y="248" text-anchor="middle" fill="#cbd5e1" font-size="13" font-family="Arial">Device policy drift</text></g>
  <g transform="translate(880,220)"><rect width="180" height="190" rx="22" fill="#0f172a" stroke="#22c55e" stroke-width="3"/><path d="M58 132 L90 58 L122 132" fill="none" stroke="#22c55e" stroke-width="2.5"/><path d="M70 102 H110" stroke="#22c55e" stroke-width="2.5"/><text x="90" y="165" text-anchor="middle" fill="#22c55e" font-size="16" font-family="Arial" font-weight="700">DEVOPS</text><text x="90" y="186" text-anchor="middle" fill="#cbd5e1" font-size="13" font-family="Arial">Operational review</text></g>
</svg>
