<svg xmlns="http://www.w3.org/2000/svg" viewBox="0 0 1200 630" width="1200" height="630" role="img" aria-label="Weekly digest cover: NK IT Worker Sanctions, Cisco FMC CVE-2026, Telnetd Root RCE">
<title>Weekly Digest 2026-03-19: NK IT Worker Sanctions / Cisco FMC CVE-2026 / Telnetd Root RCE</title>
<!-- profile: high-quality-cover (L22 Stacked Bands, research-based, batch3b-locked) -->
<defs>
  <linearGradient id="bg" x1="0%" y1="0%" x2="100%" y2="100%"><stop offset="0%" stop-color="#0A1220"/><stop offset="100%" stop-color="#111830"/></linearGradient>
  <linearGradient id="bA" x1="0%" y1="0%" x2="100%" y2="0%"><stop offset="0%" stop-color="#1C0A0A"/><stop offset="100%" stop-color="#200E14"/></linearGradient>
  <linearGradient id="bB" x1="0%" y1="0%" x2="100%" y2="0%"><stop offset="0%" stop-color="#081828"/><stop offset="100%" stop-color="#0C2038"/></linearGradient>
  <linearGradient id="bC" x1="0%" y1="0%" x2="100%" y2="0%"><stop offset="0%" stop-color="#071A18"/><stop offset="100%" stop-color="#0A2020"/></linearGradient>
  <linearGradient id="kA" x1="0%" y1="0%" x2="0%" y2="100%"><stop offset="0%" stop-color="#2A0A0A"/><stop offset="100%" stop-color="#1A0606"/></linearGradient>
  <linearGradient id="kB" x1="0%" y1="0%" x2="0%" y2="100%"><stop offset="0%" stop-color="#0A1A30"/><stop offset="100%" stop-color="#061020"/></linearGradient>
  <linearGradient id="kC" x1="0%" y1="0%" x2="0%" y2="100%"><stop offset="0%" stop-color="#062018"/><stop offset="100%" stop-color="#041412"/></linearGradient>
  <filter id="sh"><feGaussianBlur in="SourceAlpha" stdDeviation="2.5"/><feOffset dx="1" dy="3"/><feComponentTransfer><feFuncA type="linear" slope="0.5"/></feComponentTransfer><feMerge><feMergeNode/><feMergeNode in="SourceGraphic"/></feMerge></filter>
</defs>
<rect width="1200" height="630" fill="url(#bg)"/>
<!-- Header -->
<rect x="0" y="0" width="1200" height="42" fill="#0B1525" opacity="0.95"/>
<text x="40" y="27" font-family="Inter,Helvetica,Arial,sans-serif" font-size="11" font-weight="700" letter-spacing="3" fill="#E63946">TECH SECURITY WEEKLY DIGEST</text>
<text x="1160" y="27" text-anchor="end" font-family="Inter,Helvetica,Arial,sans-serif" font-size="11" fill="#4A6070">2026-03-19</text>
<!-- Band A -->
<rect x="0" y="42" width="1200" height="196" fill="url(#bA)"/>
<rect x="40" y="70" width="540" height="140" rx="10" fill="url(#kA)" stroke="#E63946" stroke-width="1.5" filter="url(#sh)"/>
<text x="68" y="98" font-family="Inter,Helvetica,Arial,sans-serif" font-size="10" font-weight="700" letter-spacing="2.5" fill="#E63946">US/EU SANCTIONS</text>
<text x="68" y="128" font-family="Inter,Helvetica,Arial,sans-serif" font-size="22" font-weight="800" fill="#F5F7FA">NK IT Worker Sanctions</text>
<text x="68" y="152" font-family="Inter,Helvetica,Arial,sans-serif" font-size="13" font-weight="600" fill="#E63946">US/EU Sanctions</text>
<text x="68" y="172" font-family="Inter,Helvetica,Arial,sans-serif" font-size="11" fill="#5A7080">Critical severity — immediate action required</text>
<rect x="620" y="58" width="184" height="160" rx="10" fill="url(#kA)" stroke="#E63946" stroke-width="1.5" filter="url(#sh)"/>
<text x="712" y="88" text-anchor="middle" font-family="Inter,Helvetica,Arial,sans-serif" font-size="10" font-weight="700" letter-spacing="2" fill="#E63946">THREAT LEVEL</text>
<text x="712" y="140" text-anchor="middle" font-family="Inter,Helvetica,Arial,sans-serif" font-size="52" font-weight="900" fill="#F5F7FA">HI</text>
<line x1="634" y1="156" x2="798" y2="156" stroke="#1C0808" stroke-width="1"/>
<text x="712" y="174" text-anchor="middle" font-family="Inter,Helvetica,Arial,sans-serif" font-size="10" font-weight="600" fill="#E63946">Active Exploitation</text>
<!-- Band B -->
<rect x="0" y="238" width="1200" height="196" fill="url(#bB)"/>
<rect x="40" y="258" width="540" height="140" rx="10" fill="url(#kB)" stroke="#F5A623" stroke-width="1.5" filter="url(#sh)"/>
<text x="68" y="286" font-family="Inter,Helvetica,Arial,sans-serif" font-size="10" font-weight="700" letter-spacing="2.5" fill="#F5A623">ZERO-DAY FIREWALL</text>
<text x="68" y="316" font-family="Inter,Helvetica,Arial,sans-serif" font-size="22" font-weight="800" fill="#F5F7FA">Cisco FMC CVE-2026</text>
<text x="68" y="340" font-family="Inter,Helvetica,Arial,sans-serif" font-size="13" font-weight="600" fill="#F5A623">Zero-Day Firewall</text>
<text x="68" y="360" font-family="Inter,Helvetica,Arial,sans-serif" font-size="11" fill="#5A7080">High impact — review and patch within 24h</text>
<rect x="620" y="246" width="184" height="160" rx="10" fill="url(#kB)" stroke="#F5A623" stroke-width="1.5" filter="url(#sh)"/>
<text x="712" y="276" text-anchor="middle" font-family="Inter,Helvetica,Arial,sans-serif" font-size="10" font-weight="700" letter-spacing="2" fill="#F5A623">PRIORITY</text>
<text x="712" y="328" text-anchor="middle" font-family="Inter,Helvetica,Arial,sans-serif" font-size="52" font-weight="900" fill="#F5F7FA">MED</text>
<line x1="634" y1="344" x2="798" y2="344" stroke="#061020" stroke-width="1"/>
<text x="712" y="362" text-anchor="middle" font-family="Inter,Helvetica,Arial,sans-serif" font-size="10" font-weight="600" fill="#F5A623">Remediation Needed</text>
<!-- Band C -->
<rect x="0" y="434" width="1200" height="176" fill="url(#bC)"/>
<rect x="40" y="452" width="540" height="130" rx="10" fill="url(#kC)" stroke="#4DE8D0" stroke-width="1.5" filter="url(#sh)"/>
<text x="68" y="478" font-family="Inter,Helvetica,Arial,sans-serif" font-size="10" font-weight="700" letter-spacing="2.5" fill="#4DE8D0">UNAUTHENTICATED RCE</text>
<text x="68" y="506" font-family="Inter,Helvetica,Arial,sans-serif" font-size="22" font-weight="800" fill="#F5F7FA">Telnetd Root RCE</text>
<text x="68" y="528" font-family="Inter,Helvetica,Arial,sans-serif" font-size="13" font-weight="600" fill="#4DE8D0">Unauthenticated RCE</text>
<text x="68" y="546" font-family="Inter,Helvetica,Arial,sans-serif" font-size="11" fill="#5A7080">Monitor and implement best practices</text>
<rect x="620" y="440" width="184" height="150" rx="10" fill="url(#kC)" stroke="#4DE8D0" stroke-width="1.5" filter="url(#sh)"/>
<text x="712" y="468" text-anchor="middle" font-family="Inter,Helvetica,Arial,sans-serif" font-size="10" font-weight="700" letter-spacing="2" fill="#4DE8D0">STATUS</text>
<text x="712" y="520" text-anchor="middle" font-family="Inter,Helvetica,Arial,sans-serif" font-size="52" font-weight="900" fill="#F5F7FA">LOW</text>
<line x1="634" y1="534" x2="798" y2="534" stroke="#041412" stroke-width="1"/>
<text x="712" y="550" text-anchor="middle" font-family="Inter,Helvetica,Arial,sans-serif" font-size="10" font-weight="600" fill="#4DE8D0">Awareness Level</text>
<!-- Footer -->
<rect x="0" y="610" width="1200" height="20" fill="#080E18" opacity="0.95"/>
<text x="40" y="623" font-family="Inter,Helvetica,Arial,sans-serif" font-size="9" fill="#3A4A5A">tech.2twodragon.com</text>
<text x="600" y="623" text-anchor="middle" font-family="Inter,Helvetica,Arial,sans-serif" font-size="9" fill="#3A4A5A">Security · AI · Cloud · 2026-03-19</text>
<text x="1160" y="623" text-anchor="end" font-family="Inter,Helvetica,Arial,sans-serif" font-size="9" fill="#3A4A5A">Twodragon</text>
<!-- cover-qr: https://tech.2twodragon.com/posts/2026/03/19/Tech_Security_Weekly_Digest_Zero-Day_CVE_Ransomware_Patch/ : 41x41 -->
<g transform="translate(1080,504)">
  <rect x="-8" y="-8" width="100" height="100" rx="6" fill="#FFFFFF"/>
  <g transform="scale(2.048780)" fill="#0A1020">
    <path d="M0 0h7v1h-7zM9 0h1v1h-1zM12 0h8v1h-8zM21 0h2v1h-2zM28 0h5v1h-5zM34 0h7v1h-7zM0 1h1v1h-1zM6 1h1v1h-1zM9 1h5v1h-5zM16 1h2v1h-2zM20 1h2v1h-2zM24 1h1v1h-1zM27 1h1v1h-1zM29 1h1v1h-1zM32 1h1v1h-1zM34 1h1v1h-1zM40 1h1v1h-1zM0 2h1v1h-1zM2 2h3v1h-3zM6 2h1v1h-1zM8 2h1v1h-1zM10 2h1v1h-1zM12 2h3v1h-3zM16 2h7v1h-7zM26 2h3v1h-3zM30 2h1v1h-1zM32 2h1v1h-1zM34 2h1v1h-1zM36 2h3v1h-3zM40 2h1v1h-1zM0 3h1v1h-1zM2 3h3v1h-3zM6 3h1v1h-1zM8 3h1v1h-1zM10 3h2v1h-2zM13 3h1v1h-1zM15 3h2v1h-2zM19 3h2v1h-2zM22 3h1v1h-1zM25 3h5v1h-5zM32 3h1v1h-1zM34 3h1v1h-1zM36 3h3v1h-3zM40 3h1v1h-1zM0 4h1v1h-1zM2 4h3v1h-3zM6 4h1v1h-1zM8 4h2v1h-2zM13 4h1v1h-1zM15 4h4v1h-4zM20 4h3v1h-3zM26 4h1v1h-1zM31 4h1v1h-1zM34 4h1v1h-1zM36 4h3v1h-3zM40 4h1v1h-1zM0 5h1v1h-1zM6 5h1v1h-1zM8 5h1v1h-1zM12 5h1v1h-1zM14 5h2v1h-2zM17 5h1v1h-1zM20 5h1v1h-1zM25 5h1v1h-1zM27 5h1v1h-1zM34 5h1v1h-1zM40 5h1v1h-1zM0 6h7v1h-7zM8 6h1v1h-1zM10 6h1v1h-1zM12 6h1v1h-1zM14 6h1v1h-1zM16 6h1v1h-1zM18 6h1v1h-1zM20 6h1v1h-1zM22 6h1v1h-1zM24 6h1v1h-1zM26 6h1v1h-1zM28 6h1v1h-1zM30 6h1v1h-1zM32 6h1v1h-1zM34 6h7v1h-7zM8 7h2v1h-2zM12 7h1v1h-1zM14 7h2v1h-2zM18 7h4v1h-4zM23 7h1v1h-1zM27 7h1v1h-1zM30 7h2v1h-2zM0 8h1v1h-1zM2 8h5v1h-5zM10 8h1v1h-1zM14 8h2v1h-2zM17 8h1v1h-1zM19 8h1v1h-1zM22 8h2v1h-2zM25 8h5v1h-5zM32 8h1v1h-1zM34 8h5v1h-5zM1 9h1v1h-1zM3 9h3v1h-3zM8 9h1v1h-1zM10 9h1v1h-1zM14 9h1v1h-1zM16 9h1v1h-1zM18 9h2v1h-2zM21 9h1v1h-1zM23 9h1v1h-1zM26 9h1v1h-1zM30 9h3v1h-3zM35 9h2v1h-2zM38 9h1v1h-1zM2 10h5v1h-5zM8 10h1v1h-1zM10 10h5v1h-5zM17 10h2v1h-2zM21 10h2v1h-2zM24 10h2v1h-2zM27 10h1v1h-1zM30 10h1v1h-1zM32 10h1v1h-1zM35 10h2v1h-2zM0 11h1v1h-1zM2 11h4v1h-4zM8 11h2v1h-2zM11 11h1v1h-1zM14 11h1v1h-1zM19 11h3v1h-3zM26 11h1v1h-1zM28 11h1v1h-1zM30 11h3v1h-3zM37 11h1v1h-1zM1 12h1v1h-1zM6 12h2v1h-2zM10 12h2v1h-2zM15 12h1v1h-1zM17 12h1v1h-1zM19 12h1v1h-1zM22 12h1v1h-1zM24 12h2v1h-2zM29 12h3v1h-3zM35 12h1v1h-1zM37 12h4v1h-4zM2 13h2v1h-2zM7 13h2v1h-2zM12 13h3v1h-3zM17 13h2v1h-2zM23 13h1v1h-1zM25 13h1v1h-1zM28 13h2v1h-2zM31 13h2v1h-2zM35 13h4v1h-4zM40 13h1v1h-1zM1 14h1v1h-1zM3 14h1v1h-1zM5 14h3v1h-3zM9 14h1v1h-1zM12 14h5v1h-5zM20 14h1v1h-1zM22 14h1v1h-1zM24 14h1v1h-1zM27 14h4v1h-4zM32 14h2v1h-2zM35 14h1v1h-1zM37 14h2v1h-2zM2 15h3v1h-3zM7 15h2v1h-2zM10 15h1v1h-1zM12 15h3v1h-3zM16 15h1v1h-1zM19 15h4v1h-4zM24 15h1v1h-1zM26 15h1v1h-1zM28 15h1v1h-1zM34 15h1v1h-1zM36 15h2v1h-2zM4 16h4v1h-4zM11 16h1v1h-1zM13 16h1v1h-1zM16 16h1v1h-1zM19 16h1v1h-1zM21 16h2v1h-2zM25 16h3v1h-3zM29 16h1v1h-1zM33 16h1v1h-1zM35 16h1v1h-1zM37 16h2v1h-2zM1 17h5v1h-5zM7 17h1v1h-1zM10 17h1v1h-1zM13 17h1v1h-1zM15 17h1v1h-1zM18 17h6v1h-6zM27 17h2v1h-2zM30 17h3v1h-3zM34 17h3v1h-3zM39 17h2v1h-2zM2 18h1v1h-1zM4 18h1v1h-1zM6 18h1v1h-1zM8 18h1v1h-1zM10 18h1v1h-1zM12 18h2v1h-2zM18 18h1v1h-1zM21 18h2v1h-2zM25 18h1v1h-1zM27 18h4v1h-4zM32 18h1v1h-1zM36 18h1v1h-1zM38 18h2v1h-2zM0 19h1v1h-1zM2 19h1v1h-1zM7 19h1v1h-1zM9 19h2v1h-2zM12 19h1v1h-1zM15 19h2v1h-2zM19 19h1v1h-1zM21 19h1v1h-1zM23 19h2v1h-2zM28 19h1v1h-1zM32 19h2v1h-2zM36 19h2v1h-2zM0 20h1v1h-1zM2 20h1v1h-1zM6 20h3v1h-3zM12 20h1v1h-1zM14 20h2v1h-2zM18 20h1v1h-1zM20 20h1v1h-1zM22 20h1v1h-1zM24 20h3v1h-3zM28 20h2v1h-2zM32 20h1v1h-1zM36 20h1v1h-1zM38 20h1v1h-1zM40 20h1v1h-1zM2 21h1v1h-1zM4 21h2v1h-2zM8 21h3v1h-3zM12 21h1v1h-1zM14 21h1v1h-1zM16 21h1v1h-1zM20 21h2v1h-2zM23 21h2v1h-2zM30 21h2v1h-2zM34 21h7v1h-7zM3 22h4v1h-4zM8 22h4v1h-4zM13 22h1v1h-1zM15 22h4v1h-4zM21 22h1v1h-1zM26 22h3v1h-3zM32 22h1v1h-1zM34 22h1v1h-1zM37 22h2v1h-2zM0 23h1v1h-1zM2 23h3v1h-3zM9 23h5v1h-5zM15 23h1v1h-1zM21 23h2v1h-2zM24 23h1v1h-1zM28 23h1v1h-1zM31 23h2v1h-2zM34 23h4v1h-4zM40 23h1v1h-1zM2 24h1v1h-1zM5 24h4v1h-4zM10 24h1v1h-1zM13 24h3v1h-3zM17 24h1v1h-1zM19 24h1v1h-1zM22 24h5v1h-5zM29 24h1v1h-1zM31 24h1v1h-1zM35 24h1v1h-1zM0 25h1v1h-1zM4 25h2v1h-2zM7 25h1v1h-1zM9 25h1v1h-1zM11 25h1v1h-1zM13 25h1v1h-1zM18 25h4v1h-4zM23 25h1v1h-1zM25 25h2v1h-2zM30 25h2v1h-2zM35 25h3v1h-3zM40 25h1v1h-1zM1 26h4v1h-4zM6 26h1v1h-1zM9 26h3v1h-3zM13 26h3v1h-3zM20 26h3v1h-3zM25 26h3v1h-3zM29 26h2v1h-2zM32 26h1v1h-1zM34 26h1v1h-1zM36 26h1v1h-1zM0 27h2v1h-2zM3 27h1v1h-1zM8 27h1v1h-1zM14 27h1v1h-1zM16 27h1v1h-1zM19 27h5v1h-5zM26 27h2v1h-2zM30 27h3v1h-3zM34 27h4v1h-4zM0 28h4v1h-4zM5 28h2v1h-2zM8 28h2v1h-2zM11 28h4v1h-4zM16 28h2v1h-2zM19 28h1v1h-1zM22 28h2v1h-2zM25 28h1v1h-1zM28 28h4v1h-4zM35 28h1v1h-1zM37 28h3v1h-3zM0 29h2v1h-2zM4 29h2v1h-2zM13 29h1v1h-1zM15 29h1v1h-1zM18 29h2v1h-2zM26 29h1v1h-1zM28 29h2v1h-2zM31 29h2v1h-2zM35 29h2v1h-2zM40 29h1v1h-1zM0 30h1v1h-1zM2 30h1v1h-1zM4 30h4v1h-4zM11 30h3v1h-3zM15 30h2v1h-2zM25 30h4v1h-4zM33 30h3v1h-3zM0 31h1v1h-1zM2 31h2v1h-2zM10 31h2v1h-2zM15 31h1v1h-1zM18 31h1v1h-1zM21 31h1v1h-1zM23 31h1v1h-1zM26 31h3v1h-3zM30 31h2v1h-2zM33 31h3v1h-3zM37 31h1v1h-1zM40 31h1v1h-1zM0 32h1v1h-1zM3 32h2v1h-2zM6 32h1v1h-1zM11 32h1v1h-1zM13 32h1v1h-1zM16 32h2v1h-2zM19 32h2v1h-2zM22 32h2v1h-2zM25 32h2v1h-2zM28 32h2v1h-2zM32 32h5v1h-5zM38 32h2v1h-2zM8 33h1v1h-1zM12 33h1v1h-1zM15 33h7v1h-7zM23 33h1v1h-1zM27 33h3v1h-3zM32 33h1v1h-1zM36 33h1v1h-1zM38 33h3v1h-3zM0 34h7v1h-7zM9 34h1v1h-1zM11 34h3v1h-3zM15 34h1v1h-1zM17 34h1v1h-1zM20 34h1v1h-1zM26 34h4v1h-4zM31 34h2v1h-2zM34 34h1v1h-1zM36 34h2v1h-2zM0 35h1v1h-1zM6 35h1v1h-1zM8 35h4v1h-4zM14 35h2v1h-2zM17 35h2v1h-2zM20 35h3v1h-3zM26 35h2v1h-2zM31 35h2v1h-2zM36 35h2v1h-2zM40 35h1v1h-1zM0 36h1v1h-1zM2 36h3v1h-3zM6 36h1v1h-1zM8 36h1v1h-1zM11 36h2v1h-2zM15 36h2v1h-2zM22 36h1v1h-1zM26 36h1v1h-1zM29 36h1v1h-1zM32 36h7v1h-7zM40 36h1v1h-1zM0 37h1v1h-1zM2 37h3v1h-3zM6 37h1v1h-1zM8 37h1v1h-1zM11 37h2v1h-2zM15 37h7v1h-7zM23 37h2v1h-2zM26 37h1v1h-1zM30 37h4v1h-4zM35 37h1v1h-1zM39 37h2v1h-2zM0 38h1v1h-1zM2 38h3v1h-3zM6 38h1v1h-1zM8 38h2v1h-2zM12 38h1v1h-1zM14 38h1v1h-1zM16 38h2v1h-2zM20 38h1v1h-1zM22 38h1v1h-1zM25 38h3v1h-3zM29 38h3v1h-3zM33 38h6v1h-6zM0 39h1v1h-1zM6 39h1v1h-1zM10 39h1v1h-1zM13 39h1v1h-1zM17 39h3v1h-3zM21 39h2v1h-2zM24 39h1v1h-1zM26 39h1v1h-1zM28 39h1v1h-1zM32 39h2v1h-2zM36 39h2v1h-2zM39 39h1v1h-1zM0 40h7v1h-7zM8 40h2v1h-2zM13 40h1v1h-1zM15 40h1v1h-1zM17 40h1v1h-1zM22 40h1v1h-1zM24 40h4v1h-4zM29 40h1v1h-1zM34 40h4v1h-4z"/>
  </g>
</g>
<text x="1122" y="614" font-family="Inter,Helvetica,Arial,sans-serif" font-size="10" font-weight="700" fill="#F5F7FA" text-anchor="middle">scan / full post</text>
</svg>