<svg xmlns="http://www.w3.org/2000/svg" width="1200" height="630" viewBox="0 0 1200 630">
  <title>Security Weekly Digest - February 16, 2026</title>
  <defs>
    <linearGradient id="bg" x1="0%" y1="0%" x2="100%" y2="100%">
      <stop offset="0%" stop-color="#0a0e1a"/>
      <stop offset="60%" stop-color="#0f1628"/>
      <stop offset="100%" stop-color="#141b2d"/>
    </linearGradient>
    <linearGradient id="hg" x1="0%" y1="0%" x2="100%" y2="0%">
      <stop offset="0%" stop-color="#1e293b"/>
      <stop offset="100%" stop-color="#0f172a"/>
    </linearGradient>
    <filter id="glow" x="-50%" y="-50%" width="200%" height="200%">
      <feGaussianBlur stdDeviation="18"/>
    </filter>
    <marker id="ar" markerWidth="8" markerHeight="8" refX="4" refY="4" orient="auto">
      <path d="M0,0 L8,4 L0,8 Z" fill="#ef4444" opacity="0.7"/>
    </marker>
  </defs>

  <rect width="1200" height="630" fill="url(#bg)"/>

  <!-- Grid -->
  <g opacity="0.04" stroke="#94a3b8" stroke-width="0.5">
    <line x1="0" y1="105" x2="1200" y2="105"/><line x1="0" y1="210" x2="1200" y2="210"/>
    <line x1="0" y1="315" x2="1200" y2="315"/><line x1="0" y1="420" x2="1200" y2="420"/>
    <line x1="0" y1="525" x2="1200" y2="525"/>
    <line x1="240" y1="0" x2="240" y2="630"/><line x1="480" y1="0" x2="480" y2="630"/>
    <line x1="720" y1="0" x2="720" y2="630"/><line x1="960" y1="0" x2="960" y2="630"/>
  </g>

  <!-- Glow orbs -->
  <circle cx="200" cy="300" r="200" fill="#ef4444" opacity="0.06" filter="url(#glow)"/>
  <circle cx="600" cy="350" r="180" fill="#f59e0b" opacity="0.05" filter="url(#glow)"/>
  <circle cx="1000" cy="300" r="180" fill="#3b82f6" opacity="0.06" filter="url(#glow)"/>

  <!-- Header -->
  <rect x="0" y="0" width="1200" height="80" fill="url(#hg)" opacity="0.9"/>
  <rect x="0" y="78" width="1200" height="2" fill="#334155" opacity="0.8"/>
  <g transform="translate(48,40)">
    <path d="M0,-22 L18,-12 L18,3 C18,13 10,20 0,24 C-10,20 -18,13 -18,3 L-18,-12 Z" fill="#1e3a5f" stroke="#3b82f6" stroke-width="1.5"/>
    <path d="M-7,1 L-2,6 L8,-5" stroke="#3b82f6" stroke-width="2.5" fill="none" stroke-linecap="round"/>
  </g>
  <text x="80" y="44" font-family="Arial,sans-serif" font-size="28" font-weight="700" fill="#f1f5f9">Security Weekly Digest</text>
  <rect x="990" y="18" width="178" height="44" rx="6" fill="#1e293b" stroke="#334155" stroke-width="1"/>
  <text x="1079" y="48" font-family="Arial,sans-serif" font-size="15" font-weight="700" fill="#94a3b8" text-anchor="middle">February 16, 2026</text>

  <!-- Card 1: AI AGENT -->
  <rect x="32" y="100" width="220" height="120" rx="8" fill="#1a0505" stroke="#ef4444" stroke-width="1.5"/>
  <circle cx="52" cy="120" r="6" fill="#ef4444"/>
  <g transform="translate(142,148)">
    <circle cx="-12" cy="-8" r="4" fill="none" stroke="#ef4444" stroke-width="1.5"/><circle cx="12" cy="-8" r="4" fill="none" stroke="#ef4444" stroke-width="1.5"/><circle cx="0" cy="8" r="5" fill="none" stroke="#ef4444" stroke-width="1.8"/><line x1="-8" y1="-6" x2="-2" y2="6" stroke="#ef4444" stroke-width="1.2" opacity="0.7"/><line x1="8" y1="-6" x2="2" y2="6" stroke="#ef4444" stroke-width="1.2" opacity="0.7"/><line x1="-8" y1="-8" x2="8" y2="-8" stroke="#ef4444" stroke-width="1.2" opacity="0.5"/>
  </g>
  <text x="142" y="197" font-family="Arial,sans-serif" font-size="13" font-weight="700" fill="#ef4444" text-anchor="middle">AI AGENT</text>
  <!-- Card 2: LLM SEC -->
  <rect x="268" y="100" width="220" height="120" rx="8" fill="#1a0d0d" stroke="#f59e0b" stroke-width="1.5"/>
  <circle cx="288" cy="120" r="6" fill="#f59e0b"/>
  <g transform="translate(378,148)">
    <circle cx="-12" cy="-8" r="4" fill="none" stroke="#f59e0b" stroke-width="1.5"/><circle cx="12" cy="-8" r="4" fill="none" stroke="#f59e0b" stroke-width="1.5"/><circle cx="0" cy="8" r="5" fill="none" stroke="#f59e0b" stroke-width="1.8"/><line x1="-8" y1="-6" x2="-2" y2="6" stroke="#f59e0b" stroke-width="1.2" opacity="0.7"/><line x1="8" y1="-6" x2="2" y2="6" stroke="#f59e0b" stroke-width="1.2" opacity="0.7"/><line x1="-8" y1="-8" x2="8" y2="-8" stroke="#f59e0b" stroke-width="1.2" opacity="0.5"/>
  </g>
  <text x="378" y="197" font-family="Arial,sans-serif" font-size="13" font-weight="700" fill="#f59e0b" text-anchor="middle">LLM SEC</text>
  <!-- Card 3: SEC OPS -->
  <rect x="504" y="100" width="220" height="120" rx="8" fill="#0a1020" stroke="#3b82f6" stroke-width="1.5"/>
  <circle cx="524" cy="120" r="6" fill="#3b82f6"/>
  <g transform="translate(614,148)">
    <path d="M0,-16 L14,-8 L14,4 C14,12 8,16 0,20 C-8,16 -14,12 -14,4 L-14,-8 Z" fill="none" stroke="#3b82f6" stroke-width="1.8"/>
  </g>
  <text x="614" y="197" font-family="Arial,sans-serif" font-size="13" font-weight="700" fill="#3b82f6" text-anchor="middle">SEC OPS</text>
  <!-- Card 4: THREAT INT -->
  <rect x="740" y="100" width="200" height="120" rx="8" fill="#071a10" stroke="#22c55e" stroke-width="1.5"/>
  <circle cx="760" cy="120" r="6" fill="#22c55e"/>
  <g transform="translate(840,148)">
    <path d="M0,-16 L14,-8 L14,4 C14,12 8,16 0,20 C-8,16 -14,12 -14,4 L-14,-8 Z" fill="none" stroke="#22c55e" stroke-width="1.8"/>
  </g>
  <text x="840" y="197" font-family="Arial,sans-serif" font-size="13" font-weight="700" fill="#22c55e" text-anchor="middle">THREAT INT</text>
  <!-- Card 5: CLOUD SEC -->
  <rect x="956" y="100" width="212" height="120" rx="8" fill="#071a20" stroke="#22d3ee" stroke-width="1.5"/>
  <circle cx="976" cy="120" r="6" fill="#22d3ee"/>
  <g transform="translate(1062,148)">
    <path d="M-16,8 C-24,8 -26,-2 -20,-8 C-18,-18 -6,-22 4,-18 C8,-26 20,-26 24,-16 C30,-16 32,-8 28,0 C26,8 16,8 8,8 Z" fill="none" stroke="#22d3ee" stroke-width="1.8" transform="scale(0.65)"/>
  </g>
  <text x="1062" y="197" font-family="Arial,sans-serif" font-size="13" font-weight="700" fill="#22d3ee" text-anchor="middle">CLOUD SEC</text>

  <!-- Threat map area -->
  <rect x="32" y="240" width="1136" height="220" rx="10" fill="#0c1220" stroke="#1e293b" stroke-width="1"/>

  <!-- Ambient dots -->
  <g opacity="0.25">
    <circle cx="180" cy="330" r="2" fill="#94a3b8"/><circle cx="200" cy="340" r="2" fill="#94a3b8"/>
    <circle cx="550" cy="310" r="2" fill="#94a3b8"/><circle cx="570" cy="325" r="2" fill="#94a3b8"/>
    <circle cx="750" cy="320" r="2" fill="#94a3b8"/><circle cx="900" cy="330" r="2" fill="#94a3b8"/>
    <circle cx="350" cy="350" r="2" fill="#94a3b8"/><circle cx="1000" cy="340" r="2" fill="#94a3b8"/>
  </g>
  <!-- Node: AI AGENT -->
  <circle cx="170" cy="340" r="22" fill="#1a0505" stroke="#ef4444" stroke-width="2"/>
  <text x="170" y="344" font-family="Arial,sans-serif" font-size="9" font-weight="700" fill="#ef4444" text-anchor="middle">AI</text>
  <!-- Node: LLM SEC -->
  <circle cx="370" cy="350" r="20" fill="#1a0d0d" stroke="#f59e0b" stroke-width="2"/>
  <text x="370" y="354" font-family="Arial,sans-serif" font-size="9" font-weight="700" fill="#f59e0b" text-anchor="middle">LLM</text>
  <!-- Node: SEC OPS -->
  <circle cx="580" cy="330" r="22" fill="#0a1020" stroke="#3b82f6" stroke-width="2"/>
  <text x="580" y="334" font-family="Arial,sans-serif" font-size="9" font-weight="700" fill="#3b82f6" text-anchor="middle">SEC</text>
  <!-- Node: THREAT INT -->
  <circle cx="780" cy="355" r="18" fill="#071a10" stroke="#22c55e" stroke-width="2"/>
  <text x="780" y="359" font-family="Arial,sans-serif" font-size="9" font-weight="700" fill="#22c55e" text-anchor="middle">THRE</text>
  <!-- Node: CLOUD SEC -->
  <circle cx="980" cy="340" r="22" fill="#071a20" stroke="#22d3ee" stroke-width="2"/>
  <text x="980" y="344" font-family="Arial,sans-serif" font-size="9" font-weight="700" fill="#22d3ee" text-anchor="middle">CLOU</text>
  <line x1="192" y1="340" x2="350" y2="350" stroke="#ef4444" stroke-width="1.5" stroke-dasharray="10 6" opacity="0.6" marker-end="url(#ar)"/>
  <line x1="390" y1="350" x2="558" y2="330" stroke="#f59e0b" stroke-width="1.5" stroke-dasharray="10 6" opacity="0.6" marker-end="url(#ar)"/>
  <line x1="602" y1="330" x2="762" y2="355" stroke="#3b82f6" stroke-width="1.5" stroke-dasharray="10 6" opacity="0.6" marker-end="url(#ar)"/>
  <line x1="798" y1="355" x2="958" y2="340" stroke="#22c55e" stroke-width="1.5" stroke-dasharray="10 6" opacity="0.6" marker-end="url(#ar)"/>

  <!-- Footer -->
  <rect x="0" y="472" width="1200" height="158" fill="#080c18" opacity="0.95"/>
  <rect x="0" y="472" width="1200" height="2" fill="#1e293b"/>

  <!-- Tags -->
  <rect x="32" y="490" width="92" height="24" rx="4" fill="#1a0505" stroke="#ef4444" stroke-width="1"/>
  <text x="78" y="506" font-family="Arial,sans-serif" font-size="10" font-weight="700" fill="#ef4444" text-anchor="middle">AI AGENT</text>
  <rect x="136" y="490" width="83" height="24" rx="4" fill="#1a0d0d" stroke="#f59e0b" stroke-width="1"/>
  <text x="177" y="506" font-family="Arial,sans-serif" font-size="10" font-weight="700" fill="#f59e0b" text-anchor="middle">LLM SEC</text>
  <rect x="231" y="490" width="83" height="24" rx="4" fill="#0a1020" stroke="#3b82f6" stroke-width="1"/>
  <text x="272" y="506" font-family="Arial,sans-serif" font-size="10" font-weight="700" fill="#3b82f6" text-anchor="middle">SEC OPS</text>
  <rect x="326" y="490" width="110" height="24" rx="4" fill="#071a10" stroke="#22c55e" stroke-width="1"/>
  <text x="381" y="506" font-family="Arial,sans-serif" font-size="10" font-weight="700" fill="#22c55e" text-anchor="middle">THREAT INT</text>
  <rect x="448" y="490" width="101" height="24" rx="4" fill="#071a20" stroke="#22d3ee" stroke-width="1"/>
  <text x="498" y="506" font-family="Arial,sans-serif" font-size="10" font-weight="700" fill="#22d3ee" text-anchor="middle">CLOUD SEC</text>

  <!-- Bottom bar -->
  <circle cx="32" cy="545" r="4" fill="#ef4444" opacity="0.6"/>
  <text x="46" y="550" font-family="Arial,sans-serif" font-size="12" fill="#475569">Security Weekly Digest | February 16, 2026</text>
  <text x="1168" y="550" font-family="Arial,sans-serif" font-size="12" fill="#475569" text-anchor="end">tech.2twodragon.com</text>
<!-- cover-qr: https://tech.2twodragon.com/posts/2026/02/16/Daily_Tech_Digest_RSS_Roundup/ : 37x37 -->
<g transform="translate(1080,504)">
  <rect x="-8" y="-8" width="100" height="100" rx="6" fill="#FFFFFF"/>
  <g transform="scale(2.270270)" fill="#0A1020">
    <path d="M0 0h7v1h-7zM10 0h1v1h-1zM15 0h1v1h-1zM18 0h2v1h-2zM21 0h1v1h-1zM23 0h1v1h-1zM25 0h2v1h-2zM30 0h7v1h-7zM0 1h1v1h-1zM6 1h1v1h-1zM8 1h2v1h-2zM11 1h1v1h-1zM13 1h2v1h-2zM16 1h2v1h-2zM19 1h1v1h-1zM21 1h1v1h-1zM25 1h2v1h-2zM28 1h1v1h-1zM30 1h1v1h-1zM36 1h1v1h-1zM0 2h1v1h-1zM2 2h3v1h-3zM6 2h1v1h-1zM8 2h1v1h-1zM11 2h1v1h-1zM15 2h1v1h-1zM19 2h5v1h-5zM26 2h2v1h-2zM30 2h1v1h-1zM32 2h3v1h-3zM36 2h1v1h-1zM0 3h1v1h-1zM2 3h3v1h-3zM6 3h1v1h-1zM8 3h1v1h-1zM13 3h2v1h-2zM16 3h6v1h-6zM23 3h3v1h-3zM27 3h1v1h-1zM30 3h1v1h-1zM32 3h3v1h-3zM36 3h1v1h-1zM0 4h1v1h-1zM2 4h3v1h-3zM6 4h1v1h-1zM9 4h1v1h-1zM11 4h1v1h-1zM15 4h2v1h-2zM19 4h1v1h-1zM21 4h1v1h-1zM23 4h1v1h-1zM28 4h1v1h-1zM30 4h1v1h-1zM32 4h3v1h-3zM36 4h1v1h-1zM0 5h1v1h-1zM6 5h1v1h-1zM9 5h3v1h-3zM13 5h2v1h-2zM16 5h1v1h-1zM18 5h1v1h-1zM20 5h2v1h-2zM24 5h3v1h-3zM30 5h1v1h-1zM36 5h1v1h-1zM0 6h7v1h-7zM8 6h1v1h-1zM10 6h1v1h-1zM12 6h1v1h-1zM14 6h1v1h-1zM16 6h1v1h-1zM18 6h1v1h-1zM20 6h1v1h-1zM22 6h1v1h-1zM24 6h1v1h-1zM26 6h1v1h-1zM28 6h1v1h-1zM30 6h7v1h-7zM8 7h5v1h-5zM14 7h1v1h-1zM16 7h1v1h-1zM19 7h1v1h-1zM23 7h1v1h-1zM26 7h1v1h-1zM28 7h1v1h-1zM0 8h1v1h-1zM6 8h1v1h-1zM8 8h1v1h-1zM10 8h3v1h-3zM15 8h1v1h-1zM18 8h1v1h-1zM22 8h2v1h-2zM25 8h3v1h-3zM29 8h2v1h-2zM33 8h3v1h-3zM1 9h2v1h-2zM5 9h1v1h-1zM7 9h3v1h-3zM12 9h1v1h-1zM20 9h3v1h-3zM25 9h3v1h-3zM29 9h5v1h-5zM35 9h1v1h-1zM0 10h2v1h-2zM3 10h5v1h-5zM11 10h4v1h-4zM17 10h2v1h-2zM20 10h1v1h-1zM22 10h1v1h-1zM25 10h3v1h-3zM29 10h4v1h-4zM34 10h3v1h-3zM0 11h1v1h-1zM5 11h1v1h-1zM9 11h5v1h-5zM15 11h2v1h-2zM18 11h3v1h-3zM22 11h3v1h-3zM26 11h1v1h-1zM28 11h1v1h-1zM30 11h4v1h-4zM36 11h1v1h-1zM1 12h1v1h-1zM3 12h1v1h-1zM5 12h2v1h-2zM8 12h1v1h-1zM11 12h1v1h-1zM16 12h1v1h-1zM18 12h1v1h-1zM23 12h2v1h-2zM27 12h1v1h-1zM30 12h1v1h-1zM33 12h2v1h-2zM36 12h1v1h-1zM3 13h2v1h-2zM11 13h1v1h-1zM14 13h2v1h-2zM17 13h1v1h-1zM19 13h3v1h-3zM23 13h2v1h-2zM27 13h2v1h-2zM31 13h1v1h-1zM33 13h1v1h-1zM0 14h1v1h-1zM2 14h1v1h-1zM4 14h1v1h-1zM6 14h1v1h-1zM10 14h1v1h-1zM12 14h1v1h-1zM14 14h2v1h-2zM17 14h1v1h-1zM22 14h1v1h-1zM24 14h1v1h-1zM26 14h2v1h-2zM29 14h5v1h-5zM36 14h1v1h-1zM0 15h1v1h-1zM3 15h1v1h-1zM8 15h2v1h-2zM11 15h1v1h-1zM13 15h1v1h-1zM15 15h4v1h-4zM23 15h1v1h-1zM27 15h2v1h-2zM30 15h2v1h-2zM33 15h2v1h-2zM3 16h1v1h-1zM6 16h2v1h-2zM9 16h4v1h-4zM14 16h3v1h-3zM22 16h2v1h-2zM25 16h3v1h-3zM29 16h3v1h-3zM34 16h3v1h-3zM2 17h2v1h-2zM11 17h1v1h-1zM13 17h2v1h-2zM18 17h2v1h-2zM21 17h2v1h-2zM26 17h1v1h-1zM28 17h1v1h-1zM31 17h1v1h-1zM33 17h1v1h-1zM35 17h1v1h-1zM0 18h2v1h-2zM3 18h1v1h-1zM5 18h4v1h-4zM12 18h2v1h-2zM15 18h1v1h-1zM17 18h5v1h-5zM23 18h1v1h-1zM25 18h1v1h-1zM27 18h1v1h-1zM30 18h1v1h-1zM32 18h3v1h-3zM36 18h1v1h-1zM3 19h1v1h-1zM5 19h1v1h-1zM7 19h3v1h-3zM11 19h2v1h-2zM18 19h1v1h-1zM22 19h3v1h-3zM27 19h4v1h-4zM32 19h2v1h-2zM36 19h1v1h-1zM0 20h1v1h-1zM3 20h1v1h-1zM5 20h2v1h-2zM8 20h2v1h-2zM11 20h2v1h-2zM14 20h5v1h-5zM20 20h1v1h-1zM24 20h3v1h-3zM28 20h3v1h-3zM32 20h3v1h-3zM1 21h1v1h-1zM7 21h3v1h-3zM13 21h1v1h-1zM15 21h2v1h-2zM19 21h1v1h-1zM22 21h2v1h-2zM27 21h2v1h-2zM32 21h1v1h-1zM34 21h2v1h-2zM1 22h1v1h-1zM3 22h1v1h-1zM6 22h2v1h-2zM9 22h1v1h-1zM14 22h2v1h-2zM18 22h1v1h-1zM20 22h3v1h-3zM25 22h1v1h-1zM27 22h1v1h-1zM29 22h5v1h-5zM36 22h1v1h-1zM3 23h3v1h-3zM8 23h1v1h-1zM10 23h2v1h-2zM14 23h1v1h-1zM19 23h1v1h-1zM22 23h2v1h-2zM26 23h8v1h-8zM35 23h2v1h-2zM0 24h1v1h-1zM2 24h1v1h-1zM4 24h3v1h-3zM8 24h1v1h-1zM10 24h4v1h-4zM15 24h5v1h-5zM30 24h1v1h-1zM35 24h2v1h-2zM0 25h4v1h-4zM8 25h1v1h-1zM16 25h1v1h-1zM19 25h3v1h-3zM26 25h1v1h-1zM28 25h1v1h-1zM31 25h1v1h-1zM0 26h1v1h-1zM2 26h1v1h-1zM4 26h7v1h-7zM13 26h2v1h-2zM17 26h2v1h-2zM20 26h1v1h-1zM22 26h1v1h-1zM24 26h2v1h-2zM27 26h1v1h-1zM30 26h1v1h-1zM35 26h2v1h-2zM0 27h1v1h-1zM2 27h2v1h-2zM5 27h1v1h-1zM7 27h1v1h-1zM10 27h1v1h-1zM12 27h4v1h-4zM18 27h1v1h-1zM23 27h2v1h-2zM26 27h1v1h-1zM28 27h2v1h-2zM31 27h1v1h-1zM33 27h3v1h-3zM0 28h1v1h-1zM2 28h1v1h-1zM4 28h1v1h-1zM6 28h1v1h-1zM10 28h1v1h-1zM13 28h1v1h-1zM16 28h3v1h-3zM20 28h1v1h-1zM22 28h1v1h-1zM24 28h3v1h-3zM28 28h7v1h-7zM8 29h3v1h-3zM13 29h1v1h-1zM15 29h1v1h-1zM17 29h1v1h-1zM19 29h5v1h-5zM28 29h1v1h-1zM32 29h1v1h-1zM35 29h1v1h-1zM0 30h7v1h-7zM11 30h1v1h-1zM13 30h1v1h-1zM15 30h1v1h-1zM19 30h1v1h-1zM23 30h1v1h-1zM25 30h1v1h-1zM28 30h1v1h-1zM30 30h1v1h-1zM32 30h1v1h-1zM35 30h2v1h-2zM0 31h1v1h-1zM6 31h1v1h-1zM10 31h1v1h-1zM12 31h1v1h-1zM14 31h7v1h-7zM23 31h1v1h-1zM28 31h1v1h-1zM32 31h1v1h-1zM35 31h1v1h-1zM0 32h1v1h-1zM2 32h3v1h-3zM6 32h1v1h-1zM11 32h1v1h-1zM16 32h1v1h-1zM19 32h2v1h-2zM22 32h1v1h-1zM26 32h7v1h-7zM34 32h2v1h-2zM0 33h1v1h-1zM2 33h3v1h-3zM6 33h1v1h-1zM9 33h4v1h-4zM14 33h1v1h-1zM16 33h1v1h-1zM18 33h2v1h-2zM22 33h1v1h-1zM28 33h3v1h-3zM36 33h1v1h-1zM0 34h1v1h-1zM2 34h3v1h-3zM6 34h1v1h-1zM9 34h1v1h-1zM12 34h1v1h-1zM14 34h4v1h-4zM21 34h1v1h-1zM27 34h2v1h-2zM35 34h2v1h-2zM0 35h1v1h-1zM6 35h1v1h-1zM11 35h1v1h-1zM14 35h1v1h-1zM18 35h1v1h-1zM20 35h1v1h-1zM23 35h1v1h-1zM26 35h1v1h-1zM28 35h1v1h-1zM30 35h1v1h-1zM32 35h2v1h-2zM36 35h1v1h-1zM0 36h7v1h-7zM8 36h1v1h-1zM10 36h1v1h-1zM12 36h1v1h-1zM15 36h2v1h-2zM18 36h3v1h-3zM24 36h1v1h-1zM28 36h1v1h-1zM31 36h1v1h-1zM33 36h1v1h-1zM36 36h1v1h-1z"/>
  </g>
</g>
<text x="1122" y="614" font-family="Inter,Helvetica,Arial,sans-serif" font-size="10" font-weight="700" fill="#F5F7FA" text-anchor="middle">scan / full post</text>
</svg>