<svg xmlns="http://www.w3.org/2000/svg" viewBox="0 0 1200 630" width="1200" height="630">
  <title>2026 DevSecOps Roadmap Complete Guide: roadmap.sh...</title>
  <defs>
    <linearGradient id="bg" x1="0%" y1="0%" x2="100%" y2="100%">
      <stop offset="0%" stop-color="#0b0e1a"/>
      <stop offset="50%" stop-color="#111827"/>
      <stop offset="100%" stop-color="#0f0a1e"/>
    </linearGradient>
    <linearGradient id="accent" x1="0%" y1="0%" x2="100%" y2="100%">
      <stop offset="0%" stop-color="#8b5cf6"/>
      <stop offset="100%" stop-color="#22c55e"/>
    </linearGradient>
    <filter id="glow"><feGaussianBlur stdDeviation="4" result="b"/><feMerge><feMergeNode in="b"/><feMergeNode in="SourceGraphic"/></feMerge></filter>
    <filter id="sg"><feGaussianBlur stdDeviation="30"/></filter>
    <filter id="shadow"><feDropShadow dx="0" dy="6" stdDeviation="12" flood-color="#000" flood-opacity="0.4"/></filter>
  </defs>
  <rect width="1200" height="630" fill="url(#bg)"/>
  <circle cx="200" cy="200" r="250" fill="#8b5cf6" opacity="0.06" filter="url(#sg)"/>
  <circle cx="900" cy="400" r="200" fill="#22c55e" opacity="0.05" filter="url(#sg)"/>
  <g transform="translate(600,260)">
    <!-- Winding path -->
    <path d="M-300,80 C-200,80 -180,-20 -80,-20 C20,-20 20,80 120,80 C220,80 220,-20 300,-20"
          fill="none" stroke="#334155" stroke-width="4" opacity="0.4"/>
    <path d="M-300,80 C-200,80 -180,-20 -80,-20 C20,-20 20,80 120,80 C220,80 220,-20 300,-20"
          fill="none" stroke="url(#accent)" stroke-width="2" stroke-dasharray="10,6" opacity="0.6"/>

    <!-- Milestones -->
    <g transform="translate(-240,80)">
      <circle r="18" fill="#0f172a" stroke="#3b82f6" stroke-width="2.5"/>
    </g>
    <g transform="translate(-80,-20)">
      <circle r="18" fill="#0f172a" stroke="#8b5cf6" stroke-width="2.5"/>
    </g>
    <g transform="translate(120,80)">
      <circle r="18" fill="#0f172a" stroke="#f59e0b" stroke-width="2.5"/>
    </g>
    <g transform="translate(300,-20)">
      <circle r="22" fill="#0f172a" stroke="#22c55e" stroke-width="3"/>
    </g>

    <!-- Floating icons -->
  </g>

  <text x="600" y="490" font-family="Arial,sans-serif" font-size="30" font-weight="bold" fill="white" text-anchor="middle" filter="url(#glow)">2026 DevSecOps Roadmap Complete Guide: roadmap.sh...</text>
  <text x="600" y="555" font-family="Arial,sans-serif" font-size="15" fill="#94a3b8" text-anchor="middle">DevSecOps | | -</text>
  <rect x="40" y="22" width="140" height="32" rx="16" fill="#8b5cf6" opacity="0.25" stroke="#8b5cf6" stroke-width="1"/>
  <text x="110" y="44" font-family="Arial,sans-serif" font-size="13" font-weight="bold" fill="#8b5cf6" text-anchor="middle">DEVSECOPS</text>
  <rect x="1020" y="22" width="140" height="32" rx="16" fill="#3b82f6" opacity="0.2" stroke="#3b82f6" stroke-width="1"/>
  <text x="1090" y="44" font-family="Arial,sans-serif" font-size="13" font-weight="bold" fill="#93c5fd" text-anchor="middle">January 10, 2026</text>
  <line x1="50" y1="588" x2="1150" y2="588" stroke="#334155" stroke-width="1" opacity="0.5"/>
  <text x="1150" y="612" font-family="Arial,sans-serif" font-size="13" fill="#94a3b8" text-anchor="end">tech.2twodragon.com</text>
</svg>