<svg xmlns="http://www.w3.org/2000/svg" viewBox="0 0 1200 630" width="1200" height="630" role="img" aria-label="Weekly digest cover: AWS IAM Zero Trust, GCP Workload Identity, FinOps Spot Savings">
<title>Weekly Digest 2026-03-27: AWS IAM Zero Trust / GCP Workload Identity / FinOps Spot Savings</title>
<!-- profile: high-quality-cover (L20 Hero+2-Card, research-based, batch3b-locked) -->
<defs>
  <linearGradient id="bg" x1="0%" y1="0%" x2="100%" y2="100%"><stop offset="0%" stop-color="#080C18"/><stop offset="100%" stop-color="#0D1226"/></linearGradient>
  <linearGradient id="hg" x1="0%" y1="0%" x2="100%" y2="100%"><stop offset="0%" stop-color="#E63946" stop-opacity="0.1"/><stop offset="100%" stop-color="#E63946" stop-opacity="0.02"/></linearGradient>
  <filter id="sh"><feGaussianBlur in="SourceAlpha" stdDeviation="2.5"/><feOffset dx="1" dy="3"/><feComponentTransfer><feFuncA type="linear" slope="0.4"/></feComponentTransfer><feMerge><feMergeNode/><feMergeNode in="SourceGraphic"/></feMerge></filter>
</defs>
<rect width="1200" height="630" fill="url(#bg)"/>
<rect x="0" y="0" width="1200" height="42" fill="#0A1220" opacity="0.98"/>
<text x="40" y="27" font-family="Inter,Helvetica,Arial,sans-serif" font-size="11" font-weight="700" letter-spacing="3" fill="#E63946">TECH SECURITY WEEKLY DIGEST</text>
<text x="1160" y="27" text-anchor="end" font-family="Inter,Helvetica,Arial,sans-serif" font-size="11" fill="#4A6070">2026-03-27</text>
<!-- Hero left -->
<rect x="30" y="60" width="680" height="530" rx="14" fill="url(#hg)" stroke="#E63946" stroke-width="1.5" filter="url(#sh)"/>
<circle cx="200" cy="220" r="100" fill="#E63946" opacity="0.06"/>
<circle cx="200" cy="220" r="60" fill="none" stroke="#E63946" stroke-width="1.5" opacity="0.3"/>
<circle cx="200" cy="220" r="35" fill="none" stroke="#E63946" stroke-width="1" opacity="0.5"/>
<circle cx="200" cy="220" r="12" fill="#E63946" opacity="0.6"/>
<text x="68" y="112" font-family="Inter,Helvetica,Arial,sans-serif" font-size="10" font-weight="700" letter-spacing="3" fill="#E63946">LEAD THREAT</text>
<text x="68" y="158" font-family="Inter,Helvetica,Arial,sans-serif" font-size="34" font-weight="900" fill="#F0F4FA">AWS IAM Zero Trust</text>
<text x="68" y="186" font-family="Inter,Helvetica,Arial,sans-serif" font-size="16" font-weight="600" fill="#E63946">SCP + Identity Center</text>
<line x1="68" y1="210" x2="420" y2="210" stroke="#E63946" stroke-width="0.8" opacity="0.4"/>
<text x="68" y="340" font-family="Inter,Helvetica,Arial,sans-serif" font-size="13" fill="#5A7080">Attack surface: SCP + Identity Center</text>
<text x="68" y="362" font-family="Inter,Helvetica,Arial,sans-serif" font-size="13" fill="#5A7080">Severity: Critical — patch immediately</text>
<text x="68" y="384" font-family="Inter,Helvetica,Arial,sans-serif" font-size="13" fill="#5A7080">CVSS score: 9.8 — active in the wild</text>
<rect x="68" y="430" width="160" height="36" rx="18" fill="#E63946" opacity="0.2" stroke="#E63946" stroke-width="1"/>
<text x="148" y="453" text-anchor="middle" font-family="Inter,Helvetica,Arial,sans-serif" font-size="11" font-weight="700" fill="#E63946">CRITICAL</text>
<rect x="248" y="430" width="160" height="36" rx="18" fill="#76C8FF" opacity="0.15" stroke="#76C8FF" stroke-width="1"/>
<text x="328" y="453" text-anchor="middle" font-family="Inter,Helvetica,Arial,sans-serif" font-size="11" font-weight="700" fill="#76C8FF">ZERO-DAY</text>
<!-- Card 2 -->
<rect x="730" y="60" width="440" height="255" rx="12" fill="#0A1420" stroke="#76C8FF" stroke-width="1.5" filter="url(#sh)"/>
<text x="758" y="92" font-family="Inter,Helvetica,Arial,sans-serif" font-size="10" font-weight="700" letter-spacing="2.5" fill="#76C8FF">FEDERATION SECURITY</text>
<text x="758" y="130" font-family="Inter,Helvetica,Arial,sans-serif" font-size="22" font-weight="800" fill="#F0F4FA">GCP Workload Identity</text>
<text x="758" y="156" font-family="Inter,Helvetica,Arial,sans-serif" font-size="13" font-weight="600" fill="#76C8FF">Federation Security</text>
<line x1="758" y1="176" x2="1140" y2="176" stroke="#76C8FF" stroke-width="0.5" opacity="0.3"/>
<text x="758" y="198" font-family="Inter,Helvetica,Arial,sans-serif" font-size="11" fill="#5A7080">High priority — immediate review</text>
<text x="758" y="218" font-family="Inter,Helvetica,Arial,sans-serif" font-size="11" fill="#5A7080">and remediation within 48h</text>
<!-- Card 3 -->
<rect x="730" y="335" width="440" height="255" rx="12" fill="#061816" stroke="#4DE8D0" stroke-width="1.5" filter="url(#sh)"/>
<text x="758" y="367" font-family="Inter,Helvetica,Arial,sans-serif" font-size="10" font-weight="700" letter-spacing="2.5" fill="#4DE8D0">COST OPTIMIZATION</text>
<text x="758" y="405" font-family="Inter,Helvetica,Arial,sans-serif" font-size="22" font-weight="800" fill="#F0F4FA">FinOps Spot Savings</text>
<text x="758" y="431" font-family="Inter,Helvetica,Arial,sans-serif" font-size="13" font-weight="600" fill="#4DE8D0">Cost Optimization</text>
<line x1="758" y1="451" x2="1140" y2="451" stroke="#4DE8D0" stroke-width="0.5" opacity="0.3"/>
<text x="758" y="473" font-family="Inter,Helvetica,Arial,sans-serif" font-size="11" fill="#5A7080">Monitor and implement best</text>
<text x="758" y="493" font-family="Inter,Helvetica,Arial,sans-serif" font-size="11" fill="#5A7080">practice defense strategies</text>
<!-- Footer -->
<rect x="0" y="610" width="1200" height="20" fill="#080E18" opacity="0.95"/>
<text x="40" y="623" font-family="Inter,Helvetica,Arial,sans-serif" font-size="9" fill="#3A4A5A">tech.2twodragon.com</text>
<text x="600" y="623" text-anchor="middle" font-family="Inter,Helvetica,Arial,sans-serif" font-size="9" fill="#3A4A5A">Security · AI · Cloud · 2026-03-27</text>
<text x="1160" y="623" text-anchor="end" font-family="Inter,Helvetica,Arial,sans-serif" font-size="9" fill="#3A4A5A">Twodragon</text>
<!-- cover-qr: https://tech.2twodragon.com/posts/2026/03/27/Tech_Security_Weekly_Digest_Zero_Trust_Cloud_FinOps/ : 41x41 -->
<g transform="translate(1080,490)">
  <rect x="-8" y="-8" width="100" height="100" rx="6" fill="#FFFFFF"/>
  <g transform="scale(2.048780)" fill="#0A1020">
    <path d="M0 0h7v1h-7zM8 0h2v1h-2zM11 0h3v1h-3zM16 0h2v1h-2zM20 0h3v1h-3zM25 0h1v1h-1zM28 0h1v1h-1zM30 0h3v1h-3zM34 0h7v1h-7zM0 1h1v1h-1zM6 1h1v1h-1zM8 1h2v1h-2zM11 1h2v1h-2zM15 1h1v1h-1zM18 1h1v1h-1zM23 1h1v1h-1zM25 1h1v1h-1zM29 1h2v1h-2zM34 1h1v1h-1zM40 1h1v1h-1zM0 2h1v1h-1zM2 2h3v1h-3zM6 2h1v1h-1zM9 2h1v1h-1zM11 2h1v1h-1zM14 2h2v1h-2zM17 2h1v1h-1zM20 2h1v1h-1zM24 2h3v1h-3zM31 2h2v1h-2zM34 2h1v1h-1zM36 2h3v1h-3zM40 2h1v1h-1zM0 3h1v1h-1zM2 3h3v1h-3zM6 3h1v1h-1zM8 3h1v1h-1zM10 3h1v1h-1zM12 3h3v1h-3zM16 3h1v1h-1zM19 3h3v1h-3zM25 3h4v1h-4zM32 3h1v1h-1zM34 3h1v1h-1zM36 3h3v1h-3zM40 3h1v1h-1zM0 4h1v1h-1zM2 4h3v1h-3zM6 4h1v1h-1zM9 4h5v1h-5zM15 4h1v1h-1zM22 4h3v1h-3zM27 4h1v1h-1zM29 4h4v1h-4zM34 4h1v1h-1zM36 4h3v1h-3zM40 4h1v1h-1zM0 5h1v1h-1zM6 5h1v1h-1zM9 5h14v1h-14zM24 5h1v1h-1zM28 5h1v1h-1zM30 5h2v1h-2zM34 5h1v1h-1zM40 5h1v1h-1zM0 6h7v1h-7zM8 6h1v1h-1zM10 6h1v1h-1zM12 6h1v1h-1zM14 6h1v1h-1zM16 6h1v1h-1zM18 6h1v1h-1zM20 6h1v1h-1zM22 6h1v1h-1zM24 6h1v1h-1zM26 6h1v1h-1zM28 6h1v1h-1zM30 6h1v1h-1zM32 6h1v1h-1zM34 6h7v1h-7zM8 7h1v1h-1zM11 7h7v1h-7zM19 7h1v1h-1zM24 7h1v1h-1zM26 7h1v1h-1zM29 7h1v1h-1zM31 7h2v1h-2zM0 8h1v1h-1zM2 8h2v1h-2zM5 8h3v1h-3zM12 8h2v1h-2zM15 8h4v1h-4zM21 8h1v1h-1zM23 8h2v1h-2zM26 8h1v1h-1zM29 8h4v1h-4zM34 8h1v1h-1zM37 8h1v1h-1zM39 8h2v1h-2zM0 9h1v1h-1zM2 9h1v1h-1zM7 9h3v1h-3zM11 9h1v1h-1zM14 9h1v1h-1zM16 9h1v1h-1zM18 9h2v1h-2zM21 9h1v1h-1zM23 9h1v1h-1zM26 9h1v1h-1zM30 9h3v1h-3zM35 9h2v1h-2zM38 9h1v1h-1zM40 9h1v1h-1zM2 10h2v1h-2zM6 10h3v1h-3zM10 10h7v1h-7zM20 10h1v1h-1zM22 10h2v1h-2zM25 10h2v1h-2zM29 10h1v1h-1zM38 10h2v1h-2zM0 11h1v1h-1zM2 11h2v1h-2zM5 11h1v1h-1zM8 11h8v1h-8zM18 11h1v1h-1zM20 11h1v1h-1zM22 11h1v1h-1zM24 11h4v1h-4zM32 11h2v1h-2zM36 11h1v1h-1zM39 11h2v1h-2zM1 12h3v1h-3zM5 12h3v1h-3zM11 12h3v1h-3zM15 12h3v1h-3zM19 12h2v1h-2zM22 12h1v1h-1zM24 12h2v1h-2zM29 12h3v1h-3zM35 12h1v1h-1zM37 12h2v1h-2zM0 13h2v1h-2zM3 13h1v1h-1zM5 13h1v1h-1zM7 13h3v1h-3zM11 13h3v1h-3zM15 13h2v1h-2zM20 13h2v1h-2zM23 13h4v1h-4zM28 13h1v1h-1zM30 13h2v1h-2zM34 13h1v1h-1zM37 13h1v1h-1zM39 13h2v1h-2zM0 14h1v1h-1zM2 14h5v1h-5zM8 14h2v1h-2zM11 14h1v1h-1zM13 14h9v1h-9zM23 14h1v1h-1zM25 14h1v1h-1zM28 14h2v1h-2zM31 14h2v1h-2zM34 14h3v1h-3zM38 14h3v1h-3zM2 15h4v1h-4zM12 15h4v1h-4zM21 15h3v1h-3zM26 15h1v1h-1zM28 15h1v1h-1zM32 15h1v1h-1zM34 15h1v1h-1zM36 15h2v1h-2zM2 16h1v1h-1zM6 16h1v1h-1zM8 16h2v1h-2zM14 16h5v1h-5zM20 16h1v1h-1zM22 16h1v1h-1zM24 16h2v1h-2zM27 16h1v1h-1zM30 16h1v1h-1zM32 16h1v1h-1zM36 16h2v1h-2zM39 16h1v1h-1zM0 17h2v1h-2zM4 17h1v1h-1zM7 17h2v1h-2zM10 17h1v1h-1zM12 17h1v1h-1zM16 17h1v1h-1zM18 17h1v1h-1zM20 17h2v1h-2zM23 17h3v1h-3zM29 17h1v1h-1zM32 17h2v1h-2zM35 17h1v1h-1zM37 17h1v1h-1zM0 18h1v1h-1zM2 18h1v1h-1zM4 18h1v1h-1zM6 18h4v1h-4zM12 18h2v1h-2zM15 18h2v1h-2zM18 18h1v1h-1zM22 18h1v1h-1zM27 18h3v1h-3zM32 18h1v1h-1zM36 18h1v1h-1zM38 18h2v1h-2zM2 19h4v1h-4zM7 19h1v1h-1zM9 19h3v1h-3zM13 19h3v1h-3zM17 19h5v1h-5zM26 19h5v1h-5zM35 19h1v1h-1zM37 19h3v1h-3zM0 20h2v1h-2zM3 20h1v1h-1zM5 20h2v1h-2zM8 20h3v1h-3zM13 20h1v1h-1zM16 20h1v1h-1zM19 20h2v1h-2zM26 20h2v1h-2zM30 20h5v1h-5zM37 20h3v1h-3zM0 21h1v1h-1zM2 21h1v1h-1zM5 21h1v1h-1zM11 21h3v1h-3zM16 21h1v1h-1zM20 21h2v1h-2zM23 21h2v1h-2zM26 21h1v1h-1zM30 21h2v1h-2zM34 21h3v1h-3zM39 21h2v1h-2zM0 22h2v1h-2zM3 22h2v1h-2zM6 22h2v1h-2zM9 22h2v1h-2zM14 22h1v1h-1zM20 22h1v1h-1zM23 22h2v1h-2zM28 22h3v1h-3zM33 22h2v1h-2zM36 22h2v1h-2zM39 22h1v1h-1zM1 23h1v1h-1zM4 23h1v1h-1zM7 23h1v1h-1zM9 23h1v1h-1zM15 23h2v1h-2zM18 23h2v1h-2zM23 23h3v1h-3zM27 23h1v1h-1zM30 23h1v1h-1zM32 23h2v1h-2zM35 23h2v1h-2zM39 23h2v1h-2zM0 24h4v1h-4zM6 24h2v1h-2zM9 24h1v1h-1zM14 24h2v1h-2zM17 24h1v1h-1zM19 24h1v1h-1zM22 24h1v1h-1zM24 24h3v1h-3zM29 24h1v1h-1zM31 24h1v1h-1zM35 24h1v1h-1zM37 24h3v1h-3zM0 25h1v1h-1zM2 25h1v1h-1zM4 25h1v1h-1zM7 25h5v1h-5zM13 25h1v1h-1zM17 25h1v1h-1zM19 25h1v1h-1zM24 25h2v1h-2zM27 25h1v1h-1zM29 25h1v1h-1zM31 25h3v1h-3zM37 25h4v1h-4zM0 26h2v1h-2zM3 26h7v1h-7zM15 26h2v1h-2zM18 26h3v1h-3zM24 26h1v1h-1zM26 26h1v1h-1zM28 26h2v1h-2zM31 26h3v1h-3zM37 26h1v1h-1zM39 26h2v1h-2zM1 27h1v1h-1zM5 27h1v1h-1zM8 27h2v1h-2zM12 27h1v1h-1zM16 27h1v1h-1zM19 27h5v1h-5zM26 27h2v1h-2zM30 27h4v1h-4zM35 27h3v1h-3zM39 27h2v1h-2zM0 28h1v1h-1zM6 28h3v1h-3zM16 28h1v1h-1zM18 28h5v1h-5zM25 28h3v1h-3zM31 28h1v1h-1zM33 28h1v1h-1zM36 28h2v1h-2zM1 29h2v1h-2zM5 29h1v1h-1zM9 29h2v1h-2zM12 29h1v1h-1zM14 29h3v1h-3zM19 29h4v1h-4zM25 29h3v1h-3zM29 29h2v1h-2zM32 29h1v1h-1zM35 29h1v1h-1zM37 29h1v1h-1zM39 29h1v1h-1zM0 30h1v1h-1zM6 30h1v1h-1zM10 30h2v1h-2zM15 30h1v1h-1zM19 30h1v1h-1zM25 30h4v1h-4zM32 30h4v1h-4zM4 31h1v1h-1zM7 31h3v1h-3zM13 31h1v1h-1zM16 31h2v1h-2zM19 31h1v1h-1zM24 31h1v1h-1zM29 31h1v1h-1zM31 31h1v1h-1zM34 31h1v1h-1zM36 31h5v1h-5zM1 32h2v1h-2zM4 32h1v1h-1zM6 32h3v1h-3zM10 32h3v1h-3zM14 32h1v1h-1zM16 32h3v1h-3zM20 32h2v1h-2zM23 32h2v1h-2zM26 32h2v1h-2zM29 32h2v1h-2zM32 32h7v1h-7zM40 32h1v1h-1zM8 33h1v1h-1zM10 33h1v1h-1zM13 33h1v1h-1zM15 33h1v1h-1zM17 33h1v1h-1zM19 33h3v1h-3zM23 33h1v1h-1zM27 33h2v1h-2zM32 33h1v1h-1zM36 33h1v1h-1zM38 33h3v1h-3zM0 34h7v1h-7zM8 34h2v1h-2zM13 34h1v1h-1zM15 34h1v1h-1zM18 34h1v1h-1zM23 34h4v1h-4zM28 34h1v1h-1zM30 34h3v1h-3zM34 34h1v1h-1zM36 34h4v1h-4zM0 35h1v1h-1zM6 35h1v1h-1zM8 35h3v1h-3zM12 35h3v1h-3zM16 35h2v1h-2zM19 35h2v1h-2zM24 35h3v1h-3zM28 35h1v1h-1zM32 35h1v1h-1zM36 35h1v1h-1zM39 35h1v1h-1zM0 36h1v1h-1zM2 36h3v1h-3zM6 36h1v1h-1zM9 36h4v1h-4zM14 36h3v1h-3zM21 36h1v1h-1zM25 36h1v1h-1zM29 36h1v1h-1zM32 36h7v1h-7zM40 36h1v1h-1zM0 37h1v1h-1zM2 37h3v1h-3zM6 37h1v1h-1zM8 37h2v1h-2zM12 37h1v1h-1zM14 37h1v1h-1zM17 37h1v1h-1zM19 37h1v1h-1zM22 37h1v1h-1zM26 37h2v1h-2zM29 37h1v1h-1zM31 37h1v1h-1zM36 37h3v1h-3zM40 37h1v1h-1zM0 38h1v1h-1zM2 38h3v1h-3zM6 38h1v1h-1zM8 38h2v1h-2zM12 38h4v1h-4zM17 38h5v1h-5zM26 38h1v1h-1zM28 38h2v1h-2zM35 38h1v1h-1zM37 38h1v1h-1zM39 38h2v1h-2zM0 39h1v1h-1zM6 39h1v1h-1zM9 39h2v1h-2zM13 39h2v1h-2zM17 39h1v1h-1zM19 39h1v1h-1zM21 39h4v1h-4zM26 39h1v1h-1zM28 39h1v1h-1zM32 39h2v1h-2zM36 39h2v1h-2zM39 39h1v1h-1zM0 40h7v1h-7zM8 40h2v1h-2zM12 40h1v1h-1zM14 40h1v1h-1zM16 40h3v1h-3zM20 40h4v1h-4zM25 40h1v1h-1zM30 40h1v1h-1zM32 40h3v1h-3zM37 40h3v1h-3z"/>
  </g>
</g>
<text x="1122" y="600" font-family="Inter,Helvetica,Arial,sans-serif" font-size="10" font-weight="700" fill="#F5F7FA" text-anchor="middle">scan / full post</text>
</svg>