<svg xmlns="http://www.w3.org/2000/svg" viewBox="0 0 1200 630">
  <defs>
    <linearGradient id="bg" x1="0%" y1="0%" x2="100%" y2="100%">
      <stop offset="0%" style="stop-color:#0a0a1a"/>
      <stop offset="50%" style="stop-color:#0d0820"/>
      <stop offset="100%" style="stop-color:#0a0a1a"/>
    </linearGradient>
    <linearGradient id="vaultGrad" x1="0%" y1="0%" x2="100%" y2="100%">
      <stop offset="0%" style="stop-color:#1e1b4b"/>
      <stop offset="100%" style="stop-color:#0f0a2e"/>
    </linearGradient>
    <filter id="glow25">
      <feGaussianBlur stdDeviation="25" result="blur"/>
      <feMerge><feMergeNode in="blur"/><feMergeNode in="SourceGraphic"/></feMerge>
    </filter>
    <filter id="glow10">
      <feGaussianBlur stdDeviation="10" result="blur"/>
      <feMerge><feMergeNode in="blur"/><feMergeNode in="SourceGraphic"/></feMerge>
    </filter>
    <filter id="textGlow">
      <feGaussianBlur stdDeviation="4" result="blur"/>
      <feMerge><feMergeNode in="blur"/><feMergeNode in="SourceGraphic"/></feMerge>
    </filter>
  </defs>

  <!-- Background -->
  <rect width="1200" height="630" fill="url(#bg)"/>

  <!-- Ambient glow circles -->
  <circle cx="180" cy="200" r="220" fill="#8b5cf6" opacity="0.07" filter="url(#glow25)"/>
  <circle cx="1020" cy="400" r="200" fill="#f59e0b" opacity="0.07" filter="url(#glow25)"/>
  <circle cx="600" cy="300" r="300" fill="#8b5cf6" opacity="0.04" filter="url(#glow25)"/>
  <circle cx="850" cy="100" r="150" fill="#f59e0b" opacity="0.05" filter="url(#glow25)"/>

  <!-- Floating code fragments -->
  <text x="50" y="180" font-family="monospace" font-size="13" fill="#8b5cf6" opacity="0.13">ai.safehouse.init()</text>
  <text x="880" y="80" font-family="monospace" font-size="13" fill="#f59e0b" opacity="0.12">go.audit(deps)</text>
  <text x="60" y="510" font-family="monospace" font-size="13" fill="#8b5cf6" opacity="0.11">btc.vault.verify()</text>
  <text x="870" y="545" font-family="monospace" font-size="13" fill="#f59e0b" opacity="0.12">perimeter.scan()</text>
  <text x="400" y="575" font-family="monospace" font-size="11" fill="#8b5cf6" opacity="0.10">security.layer.add()</text>

  <!-- ===== CENTRAL ILLUSTRATION: FORTIFIED VAULT ===== -->

  <!-- Outer perimeter dashed wall -->
  <rect x="205" y="72" width="590" height="420" rx="20" fill="none" stroke="#8b5cf6" stroke-width="2" stroke-dasharray="14,7" opacity="0.45"/>

  <!-- Security cameras -->
  <rect x="214" y="80" width="24" height="13" rx="3" fill="#374151" stroke="#8b5cf6" stroke-width="1.2"/>
  <circle cx="244" cy="86" r="5" fill="#8b5cf6" opacity="0.8"/>
  <line x1="238" y1="82" x2="244" y2="86" stroke="#8b5cf6" stroke-width="1"/>

  <rect x="762" y="80" width="24" height="13" rx="3" fill="#374151" stroke="#8b5cf6" stroke-width="1.2"/>
  <circle cx="756" cy="86" r="5" fill="#8b5cf6" opacity="0.8"/>
  <line x1="762" y1="82" x2="756" y2="86" stroke="#8b5cf6" stroke-width="1"/>

  <!-- Sensor bottom-center -->
  <circle cx="500" cy="494" r="7" fill="#f59e0b" opacity="0.7"/>
  <circle cx="500" cy="494" r="14" fill="none" stroke="#f59e0b" stroke-width="1" opacity="0.35"/>

  <!-- Outer building/fortress walls -->
  <rect x="288" y="115" width="424" height="355" rx="16" fill="url(#vaultGrad)" stroke="#7c3aed" stroke-width="2.5"/>

  <!-- Battlements top -->
  <rect x="288" y="102" width="44" height="26" rx="5" fill="#4c1d95"/>
  <rect x="346" y="102" width="44" height="26" rx="5" fill="#4c1d95"/>
  <rect x="404" y="102" width="44" height="26" rx="5" fill="#4c1d95"/>
  <rect x="462" y="102" width="44" height="26" rx="5" fill="#4c1d95"/>
  <rect x="520" y="102" width="44" height="26" rx="5" fill="#4c1d95"/>
  <rect x="578" y="102" width="44" height="26" rx="5" fill="#4c1d95"/>
  <rect x="636" y="102" width="44" height="26" rx="5" fill="#4c1d95"/>
  <rect x="668" y="102" width="44" height="26" rx="5" fill="#4c1d95"/>

  <!-- Inner defensive ring -->
  <rect x="358" y="168" width="284" height="272" rx="12" fill="#0f172a" stroke="#6d28d9" stroke-width="2"/>

  <!-- Vault door -->
  <rect x="398" y="196" width="204" height="218" rx="10" fill="#1e1b4b" stroke="#8b5cf6" stroke-width="2.5"/>

  <!-- Vault wheel/gear -->
  <circle cx="500" cy="305" r="72" fill="none" stroke="#8b5cf6" stroke-width="3"/>
  <circle cx="500" cy="305" r="54" fill="#0a0a1a" stroke="#7c3aed" stroke-width="2"/>

  <!-- Gear spokes (8-point) -->
  <line x1="500" y1="233" x2="500" y2="252" stroke="#8b5cf6" stroke-width="3.5"/>
  <line x1="500" y1="358" x2="500" y2="377" stroke="#8b5cf6" stroke-width="3.5"/>
  <line x1="428" y1="305" x2="447" y2="305" stroke="#8b5cf6" stroke-width="3.5"/>
  <line x1="553" y1="305" x2="572" y2="305" stroke="#8b5cf6" stroke-width="3.5"/>
  <line x1="449" y1="254" x2="462" y2="267" stroke="#8b5cf6" stroke-width="2.5"/>
  <line x1="538" y1="343" x2="551" y2="356" stroke="#8b5cf6" stroke-width="2.5"/>
  <line x1="551" y1="254" x2="538" y2="267" stroke="#8b5cf6" stroke-width="2.5"/>
  <line x1="449" y1="343" x2="462" y2="356" stroke="#8b5cf6" stroke-width="2.5"/>

  <!-- AI Brain inside vault -->
  <circle cx="500" cy="305" r="32" fill="#1e1b4b" stroke="#a78bfa" stroke-width="1.8"/>
  <!-- Neural nodes -->
  <circle cx="490" cy="299" r="5" fill="#8b5cf6"/>
  <circle cx="510" cy="299" r="5" fill="#8b5cf6"/>
  <circle cx="500" cy="315" r="5" fill="#a78bfa"/>
  <circle cx="484" cy="314" r="3.5" fill="#7c3aed"/>
  <circle cx="516" cy="314" r="3.5" fill="#7c3aed"/>
  <line x1="490" y1="299" x2="510" y2="299" stroke="#a78bfa" stroke-width="1.3"/>
  <line x1="490" y1="299" x2="500" y2="315" stroke="#a78bfa" stroke-width="1.3"/>
  <line x1="510" y1="299" x2="500" y2="315" stroke="#a78bfa" stroke-width="1.3"/>
  <line x1="490" y1="299" x2="484" y2="314" stroke="#7c3aed" stroke-width="1"/>
  <line x1="510" y1="299" x2="516" y2="314" stroke="#7c3aed" stroke-width="1"/>
  <!-- AI glow -->
  <circle cx="500" cy="305" r="32" fill="#8b5cf6" opacity="0.12" filter="url(#glow10)"/>

  <!-- Go Gopher guard post LEFT -->
  <rect x="218" y="268" width="64" height="90" rx="7" fill="#0f172a" stroke="#06b6d4" stroke-width="1.8"/>
  <text x="250" y="256" font-family="Arial,sans-serif" font-size="10" fill="#06b6d4" text-anchor="middle">Go Guard</text>
  <!-- Gopher head -->
  <circle cx="250" cy="296" r="18" fill="#06b6d4" opacity="0.85"/>
  <circle cx="244" cy="291" r="5" fill="white"/>
  <circle cx="256" cy="291" r="5" fill="white"/>
  <circle cx="244" cy="291" r="2.5" fill="#0f172a"/>
  <circle cx="256" cy="291" r="2.5" fill="#0f172a"/>
  <!-- Gopher ears -->
  <ellipse cx="236" cy="283" rx="4" ry="7" fill="#0891b2"/>
  <ellipse cx="264" cy="283" rx="4" ry="7" fill="#0891b2"/>
  <!-- Gopher body -->
  <rect x="234" y="312" width="32" height="22" rx="5" fill="#0891b2"/>
  <text x="250" y="344" font-family="monospace" font-size="9" fill="#06b6d4" text-anchor="middle">Go 1.24</text>
  <text x="250" y="356" font-family="monospace" font-size="8" fill="#64748b" text-anchor="middle">secure</text>

  <!-- Bitcoin guard post RIGHT -->
  <rect x="718" y="268" width="64" height="90" rx="7" fill="#0f172a" stroke="#f59e0b" stroke-width="1.8"/>
  <text x="750" y="256" font-family="Arial,sans-serif" font-size="10" fill="#f59e0b" text-anchor="middle">BTC Guard</text>
  <!-- Bitcoin coin -->
  <circle cx="750" cy="300" r="22" fill="#f59e0b" opacity="0.18" stroke="#f59e0b" stroke-width="2"/>
  <text x="750" y="308" font-family="Arial Black,sans-serif" font-size="26" font-weight="900" fill="#f59e0b" text-anchor="middle">&#8383;</text>
  <text x="750" y="344" font-family="monospace" font-size="9" fill="#f59e0b" text-anchor="middle">Verified</text>
  <text x="750" y="356" font-family="monospace" font-size="8" fill="#64748b" text-anchor="middle">infra</text>

  <!-- Layer labels -->
  <text x="500" y="474" font-family="monospace" font-size="10" fill="#8b5cf6" opacity="0.65" text-anchor="middle">[ Perimeter Shield Active ]</text>
  <text x="500" y="458" font-family="monospace" font-size="10" fill="#6d28d9" opacity="0.55" text-anchor="middle">[ Outer Fortress Wall ]</text>

  <!-- ===== END CENTRAL ILLUSTRATION ===== -->

  <!-- Top badge pill -->
  <rect x="40" y="34" width="272" height="34" rx="17" fill="#1e1e2e" stroke="#8b5cf6" stroke-width="1.5"/>
  <rect x="40" y="34" width="128" height="34" rx="17" fill="#8b5cf6" opacity="0.92"/>
  <text x="104" y="56" font-family="Arial,sans-serif" font-size="12" font-weight="bold" fill="white" text-anchor="middle">WEEKLY DIGEST</text>
  <text x="240" y="56" font-family="Arial,sans-serif" font-size="12" fill="#94a3b8" text-anchor="middle">March 9, 2026</text>

  <!-- Title -->
  <text x="40" y="508" font-family="Arial Black,sans-serif" font-size="36" font-weight="900" fill="white" filter="url(#textGlow)">AI Agent Safehouse</text>

  <!-- Subtitle -->
  <text x="40" y="540" font-family="Arial,sans-serif" font-size="16" fill="#94a3b8">Go Security Hardening  |  Bitcoin Infrastructure  |  AI Defense</text>

  <!-- Footer separator -->
  <line x1="40" y1="585" x2="1160" y2="585" stroke="#1e293b" stroke-width="1.5"/>

  <!-- Footer counts -->
  <text x="40" y="610" font-family="monospace" font-size="12" fill="#64748b">20 News</text>
  <text x="132" y="610" font-family="monospace" font-size="12" fill="#ef4444">5 Security</text>
  <text x="244" y="610" font-family="monospace" font-size="12" fill="#8b5cf6">5 AI/ML</text>
  <text x="336" y="610" font-family="monospace" font-size="12" fill="#06b6d4">2 Cloud</text>
  <text x="418" y="610" font-family="monospace" font-size="12" fill="#22c55e">3 DevOps</text>

  <!-- Site URL -->
  <text x="1160" y="610" font-family="monospace" font-size="12" fill="#475569" text-anchor="end">tech.2twodragon.com</text>
</svg>
