<svg xmlns="http://www.w3.org/2000/svg" width="1200" height="630" viewBox="0 0 1200 630">
  <title>Security Weekly Digest - February 03, 2026</title>
  <defs>
    <linearGradient id="bg" x1="0%" y1="0%" x2="100%" y2="100%">
      <stop offset="0%" stop-color="#0a0e1a"/>
      <stop offset="60%" stop-color="#0f1628"/>
      <stop offset="100%" stop-color="#141b2d"/>
    </linearGradient>
    <linearGradient id="hg" x1="0%" y1="0%" x2="100%" y2="0%">
      <stop offset="0%" stop-color="#1e293b"/>
      <stop offset="100%" stop-color="#0f172a"/>
    </linearGradient>
    <filter id="glow" x="-50%" y="-50%" width="200%" height="200%">
      <feGaussianBlur stdDeviation="18"/>
    </filter>
    <marker id="ar" markerWidth="8" markerHeight="8" refX="4" refY="4" orient="auto">
      <path d="M0,0 L8,4 L0,8 Z" fill="#ef4444" opacity="0.7"/>
    </marker>
  </defs>

  <rect width="1200" height="630" fill="url(#bg)"/>

  <!-- Grid -->
  <g opacity="0.04" stroke="#94a3b8" stroke-width="0.5">
    <line x1="0" y1="105" x2="1200" y2="105"/><line x1="0" y1="210" x2="1200" y2="210"/>
    <line x1="0" y1="315" x2="1200" y2="315"/><line x1="0" y1="420" x2="1200" y2="420"/>
    <line x1="0" y1="525" x2="1200" y2="525"/>
    <line x1="240" y1="0" x2="240" y2="630"/><line x1="480" y1="0" x2="480" y2="630"/>
    <line x1="720" y1="0" x2="720" y2="630"/><line x1="960" y1="0" x2="960" y2="630"/>
  </g>

  <!-- Glow orbs -->
  <circle cx="200" cy="300" r="200" fill="#ef4444" opacity="0.06" filter="url(#glow)"/>
  <circle cx="600" cy="350" r="180" fill="#f59e0b" opacity="0.05" filter="url(#glow)"/>
  <circle cx="1000" cy="300" r="180" fill="#3b82f6" opacity="0.06" filter="url(#glow)"/>

  <!-- Header -->
  <rect x="0" y="0" width="1200" height="80" fill="url(#hg)" opacity="0.9"/>
  <rect x="0" y="78" width="1200" height="2" fill="#334155" opacity="0.8"/>
  <g transform="translate(48,40)">
    <path d="M0,-22 L18,-12 L18,3 C18,13 10,20 0,24 C-10,20 -18,13 -18,3 L-18,-12 Z" fill="#1e3a5f" stroke="#3b82f6" stroke-width="1.5"/>
    <path d="M-7,1 L-2,6 L8,-5" stroke="#3b82f6" stroke-width="2.5" fill="none" stroke-linecap="round"/>
  </g>
  <text x="80" y="44" font-family="Arial,sans-serif" font-size="28" font-weight="700" fill="#f1f5f9">Security Weekly Digest</text>
  <rect x="990" y="18" width="178" height="44" rx="6" fill="#1e293b" stroke="#334155" stroke-width="1"/>
  <text x="1079" y="48" font-family="Arial,sans-serif" font-size="15" font-weight="700" fill="#94a3b8" text-anchor="middle">February 03, 2026</text>

  <!-- Card 1: AI AGENT -->
  <rect x="32" y="100" width="220" height="120" rx="8" fill="#1a0505" stroke="#ef4444" stroke-width="1.5"/>
  <circle cx="52" cy="120" r="6" fill="#ef4444"/>
  <g transform="translate(142,148)">
    <circle cx="-12" cy="-8" r="4" fill="none" stroke="#ef4444" stroke-width="1.5"/><circle cx="12" cy="-8" r="4" fill="none" stroke="#ef4444" stroke-width="1.5"/><circle cx="0" cy="8" r="5" fill="none" stroke="#ef4444" stroke-width="1.8"/><line x1="-8" y1="-6" x2="-2" y2="6" stroke="#ef4444" stroke-width="1.2" opacity="0.7"/><line x1="8" y1="-6" x2="2" y2="6" stroke="#ef4444" stroke-width="1.2" opacity="0.7"/><line x1="-8" y1="-8" x2="8" y2="-8" stroke="#ef4444" stroke-width="1.2" opacity="0.5"/>
  </g>
  <text x="142" y="197" font-family="Arial,sans-serif" font-size="13" font-weight="700" fill="#ef4444" text-anchor="middle">AI AGENT</text>
  <!-- Card 2: SEC OPS -->
  <rect x="268" y="100" width="220" height="120" rx="8" fill="#1a0d0d" stroke="#f59e0b" stroke-width="1.5"/>
  <circle cx="288" cy="120" r="6" fill="#f59e0b"/>
  <g transform="translate(378,148)">
    <path d="M0,-16 L14,-8 L14,4 C14,12 8,16 0,20 C-8,16 -14,12 -14,4 L-14,-8 Z" fill="none" stroke="#f59e0b" stroke-width="1.8"/>
  </g>
  <text x="378" y="197" font-family="Arial,sans-serif" font-size="13" font-weight="700" fill="#f59e0b" text-anchor="middle">SEC OPS</text>
  <!-- Card 3: THREAT INT -->
  <rect x="504" y="100" width="220" height="120" rx="8" fill="#0a1020" stroke="#3b82f6" stroke-width="1.5"/>
  <circle cx="524" cy="120" r="6" fill="#3b82f6"/>
  <g transform="translate(614,148)">
    <path d="M0,-16 L14,-8 L14,4 C14,12 8,16 0,20 C-8,16 -14,12 -14,4 L-14,-8 Z" fill="none" stroke="#3b82f6" stroke-width="1.8"/>
  </g>
  <text x="614" y="197" font-family="Arial,sans-serif" font-size="13" font-weight="700" fill="#3b82f6" text-anchor="middle">THREAT INT</text>
  <!-- Card 4: CLOUD SEC -->
  <rect x="740" y="100" width="200" height="120" rx="8" fill="#071a10" stroke="#22c55e" stroke-width="1.5"/>
  <circle cx="760" cy="120" r="6" fill="#22c55e"/>
  <g transform="translate(840,148)">
    <path d="M-16,8 C-24,8 -26,-2 -20,-8 C-18,-18 -6,-22 4,-18 C8,-26 20,-26 24,-16 C30,-16 32,-8 28,0 C26,8 16,8 8,8 Z" fill="none" stroke="#22c55e" stroke-width="1.8" transform="scale(0.65)"/>
  </g>
  <text x="840" y="197" font-family="Arial,sans-serif" font-size="13" font-weight="700" fill="#22c55e" text-anchor="middle">CLOUD SEC</text>
  <!-- Card 5: PATCH MGT -->
  <rect x="956" y="100" width="212" height="120" rx="8" fill="#071a20" stroke="#22d3ee" stroke-width="1.5"/>
  <circle cx="976" cy="120" r="6" fill="#22d3ee"/>
  <g transform="translate(1062,148)">
    <path d="M0,-18 L16,12 L-16,12 Z" fill="none" stroke="#22d3ee" stroke-width="1.8"/><text x="0" y="6" font-family="Courier New" font-size="9" font-weight="700" fill="#22d3ee" text-anchor="middle">CVE</text>
  </g>
  <text x="1062" y="197" font-family="Arial,sans-serif" font-size="13" font-weight="700" fill="#22d3ee" text-anchor="middle">PATCH MGT</text>

  <!-- Threat map area -->
  <rect x="32" y="240" width="1136" height="220" rx="10" fill="#0c1220" stroke="#1e293b" stroke-width="1"/>

  <!-- Ambient dots -->
  <g opacity="0.25">
    <circle cx="180" cy="330" r="2" fill="#94a3b8"/><circle cx="200" cy="340" r="2" fill="#94a3b8"/>
    <circle cx="550" cy="310" r="2" fill="#94a3b8"/><circle cx="570" cy="325" r="2" fill="#94a3b8"/>
    <circle cx="750" cy="320" r="2" fill="#94a3b8"/><circle cx="900" cy="330" r="2" fill="#94a3b8"/>
    <circle cx="350" cy="350" r="2" fill="#94a3b8"/><circle cx="1000" cy="340" r="2" fill="#94a3b8"/>
  </g>
  <!-- Node: AI AGENT -->
  <circle cx="170" cy="340" r="22" fill="#1a0505" stroke="#ef4444" stroke-width="2"/>
  <text x="170" y="344" font-family="Arial,sans-serif" font-size="9" font-weight="700" fill="#ef4444" text-anchor="middle">AI</text>
  <!-- Node: SEC OPS -->
  <circle cx="370" cy="350" r="20" fill="#1a0d0d" stroke="#f59e0b" stroke-width="2"/>
  <text x="370" y="354" font-family="Arial,sans-serif" font-size="9" font-weight="700" fill="#f59e0b" text-anchor="middle">SEC</text>
  <!-- Node: THREAT INT -->
  <circle cx="580" cy="330" r="22" fill="#0a1020" stroke="#3b82f6" stroke-width="2"/>
  <text x="580" y="334" font-family="Arial,sans-serif" font-size="9" font-weight="700" fill="#3b82f6" text-anchor="middle">THRE</text>
  <!-- Node: CLOUD SEC -->
  <circle cx="780" cy="355" r="18" fill="#071a10" stroke="#22c55e" stroke-width="2"/>
  <text x="780" y="359" font-family="Arial,sans-serif" font-size="9" font-weight="700" fill="#22c55e" text-anchor="middle">CLOU</text>
  <!-- Node: PATCH MGT -->
  <circle cx="980" cy="340" r="22" fill="#071a20" stroke="#22d3ee" stroke-width="2"/>
  <text x="980" y="344" font-family="Arial,sans-serif" font-size="9" font-weight="700" fill="#22d3ee" text-anchor="middle">PATC</text>
  <line x1="192" y1="340" x2="350" y2="350" stroke="#ef4444" stroke-width="1.5" stroke-dasharray="10 6" opacity="0.6" marker-end="url(#ar)"/>
  <line x1="390" y1="350" x2="558" y2="330" stroke="#f59e0b" stroke-width="1.5" stroke-dasharray="10 6" opacity="0.6" marker-end="url(#ar)"/>
  <line x1="602" y1="330" x2="762" y2="355" stroke="#3b82f6" stroke-width="1.5" stroke-dasharray="10 6" opacity="0.6" marker-end="url(#ar)"/>
  <line x1="798" y1="355" x2="958" y2="340" stroke="#22c55e" stroke-width="1.5" stroke-dasharray="10 6" opacity="0.6" marker-end="url(#ar)"/>

  <!-- Footer -->
  <rect x="0" y="472" width="1200" height="158" fill="#080c18" opacity="0.95"/>
  <rect x="0" y="472" width="1200" height="2" fill="#1e293b"/>

  <!-- Tags -->
  <rect x="32" y="490" width="92" height="24" rx="4" fill="#1a0505" stroke="#ef4444" stroke-width="1"/>
  <text x="78" y="506" font-family="Arial,sans-serif" font-size="10" font-weight="700" fill="#ef4444" text-anchor="middle">AI AGENT</text>
  <rect x="136" y="490" width="83" height="24" rx="4" fill="#1a0d0d" stroke="#f59e0b" stroke-width="1"/>
  <text x="177" y="506" font-family="Arial,sans-serif" font-size="10" font-weight="700" fill="#f59e0b" text-anchor="middle">SEC OPS</text>
  <rect x="231" y="490" width="110" height="24" rx="4" fill="#0a1020" stroke="#3b82f6" stroke-width="1"/>
  <text x="286" y="506" font-family="Arial,sans-serif" font-size="10" font-weight="700" fill="#3b82f6" text-anchor="middle">THREAT INT</text>
  <rect x="353" y="490" width="101" height="24" rx="4" fill="#071a10" stroke="#22c55e" stroke-width="1"/>
  <text x="403" y="506" font-family="Arial,sans-serif" font-size="10" font-weight="700" fill="#22c55e" text-anchor="middle">CLOUD SEC</text>
  <rect x="466" y="490" width="101" height="24" rx="4" fill="#071a20" stroke="#22d3ee" stroke-width="1"/>
  <text x="516" y="506" font-family="Arial,sans-serif" font-size="10" font-weight="700" fill="#22d3ee" text-anchor="middle">PATCH MGT</text>

  <!-- Bottom bar -->
  <circle cx="32" cy="545" r="4" fill="#ef4444" opacity="0.6"/>
  <text x="46" y="550" font-family="Arial,sans-serif" font-size="12" fill="#475569">Security Weekly Digest | February 03, 2026</text>
  <text x="1168" y="550" font-family="Arial,sans-serif" font-size="12" fill="#475569" text-anchor="end">tech.2twodragon.com</text>
<!-- cover-qr: https://tech.2twodragon.com/posts/2026/02/03/Weekly_Security_DevOps_Digest/ : 37x37 -->
<g transform="translate(1080,504)">
  <rect x="-8" y="-8" width="100" height="100" rx="6" fill="#FFFFFF"/>
  <g transform="scale(2.270270)" fill="#0A1020">
    <path d="M0 0h7v1h-7zM8 0h2v1h-2zM12 0h1v1h-1zM14 0h6v1h-6zM22 0h1v1h-1zM25 0h1v1h-1zM27 0h2v1h-2zM30 0h7v1h-7zM0 1h1v1h-1zM6 1h1v1h-1zM9 1h1v1h-1zM17 1h1v1h-1zM20 1h2v1h-2zM28 1h1v1h-1zM30 1h1v1h-1zM36 1h1v1h-1zM0 2h1v1h-1zM2 2h3v1h-3zM6 2h1v1h-1zM10 2h1v1h-1zM12 2h1v1h-1zM15 2h7v1h-7zM26 2h3v1h-3zM30 2h1v1h-1zM32 2h3v1h-3zM36 2h1v1h-1zM0 3h1v1h-1zM2 3h3v1h-3zM6 3h1v1h-1zM8 3h2v1h-2zM12 3h2v1h-2zM16 3h1v1h-1zM19 3h1v1h-1zM23 3h1v1h-1zM25 3h2v1h-2zM30 3h1v1h-1zM32 3h3v1h-3zM36 3h1v1h-1zM0 4h1v1h-1zM2 4h3v1h-3zM6 4h1v1h-1zM8 4h1v1h-1zM11 4h1v1h-1zM14 4h1v1h-1zM16 4h1v1h-1zM20 4h2v1h-2zM23 4h1v1h-1zM25 4h4v1h-4zM30 4h1v1h-1zM32 4h3v1h-3zM36 4h1v1h-1zM0 5h1v1h-1zM6 5h1v1h-1zM8 5h1v1h-1zM10 5h2v1h-2zM13 5h2v1h-2zM16 5h1v1h-1zM18 5h2v1h-2zM21 5h2v1h-2zM24 5h2v1h-2zM30 5h1v1h-1zM36 5h1v1h-1zM0 6h7v1h-7zM8 6h1v1h-1zM10 6h1v1h-1zM12 6h1v1h-1zM14 6h1v1h-1zM16 6h1v1h-1zM18 6h1v1h-1zM20 6h1v1h-1zM22 6h1v1h-1zM24 6h1v1h-1zM26 6h1v1h-1zM28 6h1v1h-1zM30 6h7v1h-7zM8 7h2v1h-2zM13 7h3v1h-3zM17 7h3v1h-3zM21 7h1v1h-1zM24 7h1v1h-1zM27 7h1v1h-1zM0 8h1v1h-1zM4 8h1v1h-1zM6 8h3v1h-3zM10 8h2v1h-2zM14 8h1v1h-1zM18 8h3v1h-3zM22 8h2v1h-2zM29 8h5v1h-5zM36 8h1v1h-1zM1 9h2v1h-2zM4 9h1v1h-1zM7 9h4v1h-4zM13 9h2v1h-2zM16 9h1v1h-1zM19 9h3v1h-3zM23 9h1v1h-1zM27 9h4v1h-4zM32 9h4v1h-4zM1 10h3v1h-3zM6 10h1v1h-1zM10 10h1v1h-1zM12 10h3v1h-3zM16 10h1v1h-1zM20 10h1v1h-1zM23 10h1v1h-1zM25 10h4v1h-4zM31 10h1v1h-1zM2 11h1v1h-1zM4 11h1v1h-1zM13 11h1v1h-1zM17 11h1v1h-1zM19 11h3v1h-3zM23 11h1v1h-1zM26 11h1v1h-1zM28 11h2v1h-2zM32 11h1v1h-1zM34 11h2v1h-2zM1 12h1v1h-1zM4 12h1v1h-1zM6 12h6v1h-6zM15 12h1v1h-1zM17 12h2v1h-2zM21 12h2v1h-2zM24 12h1v1h-1zM28 12h3v1h-3zM33 12h1v1h-1zM35 12h2v1h-2zM0 13h4v1h-4zM7 13h2v1h-2zM11 13h1v1h-1zM13 13h1v1h-1zM15 13h1v1h-1zM17 13h1v1h-1zM23 13h2v1h-2zM26 13h3v1h-3zM32 13h2v1h-2zM1 14h2v1h-2zM6 14h1v1h-1zM9 14h1v1h-1zM11 14h1v1h-1zM13 14h1v1h-1zM15 14h2v1h-2zM18 14h1v1h-1zM21 14h1v1h-1zM23 14h1v1h-1zM27 14h2v1h-2zM30 14h6v1h-6zM0 15h3v1h-3zM12 15h1v1h-1zM14 15h1v1h-1zM16 15h1v1h-1zM20 15h3v1h-3zM24 15h1v1h-1zM26 15h1v1h-1zM28 15h1v1h-1zM30 15h3v1h-3zM34 15h1v1h-1zM36 15h1v1h-1zM0 16h1v1h-1zM2 16h1v1h-1zM5 16h2v1h-2zM8 16h2v1h-2zM11 16h1v1h-1zM13 16h1v1h-1zM16 16h1v1h-1zM19 16h5v1h-5zM25 16h1v1h-1zM28 16h3v1h-3zM33 16h2v1h-2zM36 16h1v1h-1zM1 17h3v1h-3zM5 17h1v1h-1zM7 17h1v1h-1zM12 17h1v1h-1zM18 17h1v1h-1zM20 17h2v1h-2zM23 17h1v1h-1zM25 17h1v1h-1zM27 17h4v1h-4zM32 17h2v1h-2zM35 17h1v1h-1zM3 18h1v1h-1zM5 18h3v1h-3zM14 18h2v1h-2zM17 18h1v1h-1zM21 18h1v1h-1zM23 18h2v1h-2zM26 18h2v1h-2zM0 19h1v1h-1zM4 19h1v1h-1zM8 19h1v1h-1zM10 19h1v1h-1zM12 19h1v1h-1zM15 19h3v1h-3zM20 19h2v1h-2zM24 19h1v1h-1zM27 19h1v1h-1zM31 19h2v1h-2zM34 19h2v1h-2zM0 20h3v1h-3zM5 20h3v1h-3zM11 20h3v1h-3zM16 20h4v1h-4zM21 20h1v1h-1zM23 20h2v1h-2zM28 20h4v1h-4zM34 20h1v1h-1zM0 21h1v1h-1zM8 21h1v1h-1zM10 21h1v1h-1zM15 21h1v1h-1zM21 21h1v1h-1zM23 21h1v1h-1zM27 21h1v1h-1zM31 21h2v1h-2zM35 21h1v1h-1zM1 22h1v1h-1zM3 22h1v1h-1zM6 22h2v1h-2zM9 22h1v1h-1zM11 22h7v1h-7zM20 22h10v1h-10zM31 22h5v1h-5zM0 23h2v1h-2zM4 23h2v1h-2zM8 23h1v1h-1zM10 23h1v1h-1zM12 23h2v1h-2zM15 23h5v1h-5zM21 23h1v1h-1zM24 23h1v1h-1zM26 23h1v1h-1zM30 23h3v1h-3zM34 23h2v1h-2zM1 24h6v1h-6zM8 24h1v1h-1zM12 24h1v1h-1zM18 24h2v1h-2zM21 24h5v1h-5zM27 24h5v1h-5zM33 24h2v1h-2zM36 24h1v1h-1zM0 25h1v1h-1zM5 25h1v1h-1zM8 25h1v1h-1zM12 25h2v1h-2zM16 25h1v1h-1zM21 25h1v1h-1zM25 25h4v1h-4zM32 25h2v1h-2zM2 26h1v1h-1zM6 26h2v1h-2zM9 26h1v1h-1zM11 26h1v1h-1zM13 26h2v1h-2zM16 26h1v1h-1zM20 26h1v1h-1zM23 26h1v1h-1zM25 26h1v1h-1zM27 26h1v1h-1zM29 26h1v1h-1zM31 26h2v1h-2zM34 26h1v1h-1zM3 27h1v1h-1zM8 27h3v1h-3zM12 27h2v1h-2zM17 27h1v1h-1zM19 27h1v1h-1zM21 27h1v1h-1zM24 27h1v1h-1zM28 27h1v1h-1zM30 27h1v1h-1zM32 27h1v1h-1zM34 27h1v1h-1zM36 27h1v1h-1zM0 28h5v1h-5zM6 28h6v1h-6zM14 28h6v1h-6zM21 28h2v1h-2zM24 28h1v1h-1zM28 28h5v1h-5zM34 28h1v1h-1zM8 29h3v1h-3zM13 29h3v1h-3zM17 29h1v1h-1zM22 29h2v1h-2zM25 29h2v1h-2zM28 29h1v1h-1zM32 29h1v1h-1zM35 29h1v1h-1zM0 30h7v1h-7zM8 30h1v1h-1zM10 30h6v1h-6zM18 30h1v1h-1zM20 30h1v1h-1zM23 30h2v1h-2zM26 30h1v1h-1zM28 30h1v1h-1zM30 30h1v1h-1zM32 30h1v1h-1zM35 30h1v1h-1zM0 31h1v1h-1zM6 31h1v1h-1zM9 31h1v1h-1zM11 31h1v1h-1zM19 31h3v1h-3zM24 31h1v1h-1zM27 31h2v1h-2zM32 31h3v1h-3zM36 31h1v1h-1zM0 32h1v1h-1zM2 32h3v1h-3zM6 32h1v1h-1zM8 32h2v1h-2zM11 32h2v1h-2zM14 32h3v1h-3zM21 32h2v1h-2zM28 32h8v1h-8zM0 33h1v1h-1zM2 33h3v1h-3zM6 33h1v1h-1zM9 33h5v1h-5zM18 33h1v1h-1zM23 33h1v1h-1zM25 33h2v1h-2zM29 33h3v1h-3zM33 33h1v1h-1zM36 33h1v1h-1zM0 34h1v1h-1zM2 34h3v1h-3zM6 34h1v1h-1zM9 34h3v1h-3zM14 34h2v1h-2zM18 34h1v1h-1zM20 34h5v1h-5zM27 34h1v1h-1zM29 34h2v1h-2zM34 34h1v1h-1zM0 35h1v1h-1zM6 35h1v1h-1zM9 35h2v1h-2zM14 35h4v1h-4zM20 35h5v1h-5zM26 35h2v1h-2zM32 35h1v1h-1zM34 35h2v1h-2zM0 36h7v1h-7zM8 36h2v1h-2zM11 36h2v1h-2zM17 36h6v1h-6zM24 36h1v1h-1zM27 36h1v1h-1zM29 36h3v1h-3zM34 36h3v1h-3z"/>
  </g>
</g>
<text x="1122" y="614" font-family="Inter,Helvetica,Arial,sans-serif" font-size="10" font-weight="700" fill="#F5F7FA" text-anchor="middle">scan / full post</text>
</svg>