<svg xmlns="http://www.w3.org/2000/svg" width="1200" height="630" viewBox="0 0 1200 630">
  <title>TECH SIGNAL MAP</title>
  <defs>
    <linearGradient id="bg" x1="0%" y1="0%" x2="100%" y2="100%">
      <stop offset="0%" stop-color="#0f172a"/>
      <stop offset="50%" stop-color="#1e1030"/>
      <stop offset="100%" stop-color="#0f172a"/>
    </linearGradient>
    <filter id="glow" x="-40%" y="-40%" width="180%" height="180%">
      <feGaussianBlur stdDeviation="20"/>
    </filter>
    <filter id="shadow" x="-20%" y="-20%" width="140%" height="140%">
      <feDropShadow dx="0" dy="8" stdDeviation="14" flood-color="#020617" flood-opacity="0.6"/>
    </filter>
  </defs>
  <rect width="1200" height="630" fill="url(#bg)"/>
  <circle cx="600" cy="330" r="260" fill="#ef4444" opacity="0.06" filter="url(#glow)"/>
  <circle cx="600" cy="330" r="180" fill="#22d3ee" opacity="0.07" filter="url(#glow)"/>
  <!-- Fractured crack lines from center -->
  <line x1="600" y1="330" x2="160" y2="120" stroke="#ef4444" stroke-width="1.5" opacity="0.25"/>
  <line x1="600" y1="330" x2="1040" y2="110" stroke="#22d3ee" stroke-width="1.5" opacity="0.25"/>
  <line x1="600" y1="330" x2="600" y2="560" stroke="#f59e0b" stroke-width="1.5" opacity="0.20"/>
  <!-- Central hexagon -->
  <polygon points="600,270 660,300 660,360 600,390 540,360 540,300" fill="#111827" stroke="#3b82f6" stroke-width="3" filter="url(#shadow)"/>
  <polygon points="600,286 634,304 634,342 600,360 566,342 566,304" fill="#0f172a" stroke="#e2e8f0" stroke-width="1.5"/>
  <text x="600" y="336" font-family="Arial,sans-serif" font-size="11" font-weight="700" fill="#e2e8f0" text-anchor="middle">CORE</text>
  <!-- Orbit ring -->
  <circle cx="600" cy="330" r="148" fill="none" stroke="#334155" stroke-width="1" stroke-dasharray="8 6" opacity="0.5"/>
  <line x1="600" y1="330" x2="452" y2="210" stroke="#ef4444" stroke-width="2" stroke-dasharray="10 8" opacity="0.6"/>
  <g transform="translate(452 210)" filter="url(#shadow)">
    <circle r="52" fill="#0f172a" stroke="#ef4444" stroke-width="2.5"/>
    <path d="M-16 10 C-28 10 -32 -2 -32 -10 C-32 -20 -24 -26 -14 -26 C-10 -36 0 -42 10 -42 C24 -42 32 -32 32 -26 C40 -26 44 -20 44 -10 C44 -2 40 10 28 10 Z" fill="#0b1628" stroke="#ef4444" stroke-width="2" transform="scale(0.7)"/>
    <text x="0" y="82" font-family="Arial,sans-serif" font-size="14" font-weight="700" fill="#ef4444" text-anchor="middle">CLOUD</text>
  </g>
  <line x1="600" y1="330" x2="748" y2="210" stroke="#22d3ee" stroke-width="2" stroke-dasharray="10 8" opacity="0.6"/>
  <g transform="translate(748 210)" filter="url(#shadow)">
    <circle r="52" fill="#0f172a" stroke="#22d3ee" stroke-width="2.5"/>
    <rect x="-28" y="-20" width="56" height="40" rx="8" fill="#111c35" stroke="#22d3ee" stroke-width="2"/><circle cx="0" cy="-4" r="14" fill="#12345c" stroke="#22d3ee" stroke-width="1.5"/><text x="0" y="1" font-family="Arial" font-size="12" font-weight="700" fill="#22d3ee" text-anchor="middle">AI</text>
    <text x="0" y="82" font-family="Arial,sans-serif" font-size="14" font-weight="700" fill="#22d3ee" text-anchor="middle">AI</text>
  </g>
  <line x1="600" y1="330" x2="600" y2="478" stroke="#f59e0b" stroke-width="2" stroke-dasharray="10 8" opacity="0.6"/>
  <g transform="translate(600 478)" filter="url(#shadow)">
    <circle r="52" fill="#0f172a" stroke="#f59e0b" stroke-width="2.5"/>
    <circle r="18" fill="#f59e0b" opacity="0.18"/><circle r="8" fill="#f59e0b" opacity="0.3"/>
    <text x="0" y="82" font-family="Arial,sans-serif" font-size="14" font-weight="700" fill="#f59e0b" text-anchor="middle">DOCKER</text>
  </g>
  <rect x="90" y="62" width="196" height="32" rx="6" fill="#3b82f6" opacity="0.18"/>
  <text x="188" y="83" font-family="Arial,sans-serif" font-size="13" font-weight="700" fill="#3b82f6" text-anchor="middle" letter-spacing="2">WEEKLY DIGEST</text>
  <text x="90" y="134" font-family="Arial,sans-serif" font-size="44" font-weight="700" fill="#f8fafc">TECH SIGNAL MAP</text>
  <text x="90" y="170" font-family="Arial,sans-serif" font-size="18" fill="#cbd5e1">CLOUD  AI  DOCKER</text>
  <rect x="70" y="532" width="1060" height="1.5" fill="#334155" opacity="0.8"/>
  <text x="90" y="574" font-family="Arial,sans-serif" font-size="14" fill="#94a3b8">February 20, 2026</text>
  <text x="1110" y="574" font-family="Arial,sans-serif" font-size="14" fill="#94a3b8" text-anchor="end">tech.2twodragon.com</text>
</svg>