<svg xmlns="http://www.w3.org/2000/svg" viewBox="0 0 1200 630" width="1200" height="630">
  <defs>
    <linearGradient id="bg1g" x1="0" y1="0" x2="1" y2="0">
      <stop offset="0%" stop-color="#2A1A0C"/>
      <stop offset="100%" stop-color="#1E1F0A"/>
    </linearGradient>
    <linearGradient id="bg2g" x1="0" y1="0" x2="1" y2="0">
      <stop offset="0%" stop-color="#1E1F0A"/>
      <stop offset="100%" stop-color="#2A1A0C"/>
    </linearGradient>
    <linearGradient id="bg3g" x1="0" y1="0" x2="1" y2="0">
      <stop offset="0%" stop-color="#2A1A0C"/>
      <stop offset="100%" stop-color="#1E1F0A"/>
    </linearGradient>
    <linearGradient id="accentGrad" x1="0" y1="0" x2="0" y2="1">
      <stop offset="0%" stop-color="#FFB703" stop-opacity="1"/>
      <stop offset="100%" stop-color="#D97706" stop-opacity="0.7"/>
    </linearGradient>
    <radialGradient id="glowCenter" cx="50%" cy="50%" r="50%">
      <stop offset="0%" stop-color="#FFB703" stop-opacity="0.18"/>
      <stop offset="100%" stop-color="#2A1A0C" stop-opacity="0"/>
    </radialGradient>
    <filter id="softShadow" x="-5%" y="-5%" width="110%" height="110%">
      <feDropShadow dx="0" dy="2" stdDeviation="4" flood-color="#000" flood-opacity="0.5"/>
    </filter>
    <filter id="textGlow" x="-10%" y="-10%" width="120%" height="120%">
      <feGaussianBlur stdDeviation="3" result="blur"/>
      <feMerge><feMergeNode in="blur"/><feMergeNode in="SourceGraphic"/></feMerge>
    </filter>
    <pattern id="ledgerGrid" x="0" y="0" width="40" height="40" patternUnits="userSpaceOnUse">
      <path d="M40 0L0 0 0 40" fill="none" stroke="#FFB703" stroke-width="0.3" stroke-opacity="0.12"/>
    </pattern>
    <pattern id="circuitDot" x="0" y="0" width="24" height="24" patternUnits="userSpaceOnUse">
      <circle cx="12" cy="12" r="1.2" fill="#FFB703" fill-opacity="0.15"/>
    </pattern>
    <clipPath id="band1clip"><rect x="0" y="0" width="1200" height="210"/></clipPath>
    <clipPath id="band2clip"><rect x="0" y="210" width="1200" height="210"/></clipPath>
    <clipPath id="band3clip"><rect x="0" y="420" width="1200" height="210"/></clipPath>
  </defs>

  <!-- Band 1 -->
  <rect x="0" y="0" width="1200" height="210" fill="url(#bg1g)"/>
  <rect x="0" y="0" width="1200" height="210" fill="url(#ledgerGrid)"/>
  <rect x="0" y="0" width="1200" height="210" fill="url(#glowCenter)" opacity="0.6"/>
  <rect x="0" y="0" width="6" height="210" fill="url(#accentGrad)">
    <animate attributeName="opacity" values="0.7;1;0.7" dur="3s" repeatCount="indefinite"/>
  </rect>
  <text x="36" y="52" font-family="'Segoe UI',Arial,sans-serif" font-size="13" font-weight="600"
        fill="#FFB703" letter-spacing="3" text-anchor="start" opacity="0.9">TECH SECURITY WEEKLY DIGEST</text>
  <text x="36" y="100" font-family="'Segoe UI',Arial,sans-serif" font-size="42" font-weight="800"
        fill="#FFFFFF" filter="url(#textGlow)" text-anchor="start">Zero Trust + FinOps</text>
  <text x="36" y="140" font-family="'Segoe UI',Arial,sans-serif" font-size="20" font-weight="400"
        fill="#FEF3C7" opacity="0.85" text-anchor="start">Cloud Security Cost Analysis</text>
  <text x="36" y="185" font-family="'Segoe UI',Arial,sans-serif" font-size="14" font-weight="500"
        fill="#FCD34D" opacity="0.7" text-anchor="start">March 27, 2026</text>
  <!-- Band 1 right visual -->
  <circle cx="980" cy="105" r="72" fill="#FFB703" fill-opacity="0.08"/>
  <circle cx="980" cy="105" r="52" fill="none" stroke="#FFB703" stroke-width="1.5" stroke-opacity="0.25" stroke-dasharray="8 4"/>
  <text x="980" y="95" font-family="'Segoe UI',Arial,sans-serif" font-size="13" font-weight="700"
        fill="#FFB703" text-anchor="middle" opacity="0.9">BAND 1</text>
  <text x="980" y="118" font-family="'Segoe UI',Arial,sans-serif" font-size="15" font-weight="600"
        fill="#FFFFFF" text-anchor="middle" opacity="0.8">Zero Trust Model</text>
  <!-- Divider -->
  <line x1="0" y1="210" x2="1200" y2="210" stroke="#FFB703" stroke-width="1.5" stroke-opacity="0.3"/>

  <!-- Band 2 -->
  <rect x="0" y="210" width="1200" height="210" fill="url(#bg2g)"/>
  <rect x="0" y="210" width="1200" height="210" fill="url(#circuitDot)"/>
  <rect x="1194" y="210" width="6" height="210" fill="url(#accentGrad)">
    <animate attributeName="opacity" values="1;0.7;1" dur="3.5s" repeatCount="indefinite"/>
  </rect>
  <text x="36" y="256" font-family="'Segoe UI',Arial,sans-serif" font-size="13" font-weight="600"
        fill="#FFB703" letter-spacing="3" opacity="0.85">THREAT INTELLIGENCE</text>
  <text x="36" y="302" font-family="'Segoe UI',Arial,sans-serif" font-size="32" font-weight="700"
        fill="#FFFFFF" text-anchor="start">Cloud Security</text>
  <!-- Badge cards row -->
  <g transform="translate(36,330)">
    <rect width="180" height="60" rx="8" fill="#2A1A0C" stroke="#FFB703" stroke-width="1" stroke-opacity="0.4" filter="url(#softShadow)"/>
    <text x="90" y="26" font-family="'Segoe UI',Arial,sans-serif" font-size="11" font-weight="600"
          fill="#FFB703" text-anchor="middle" letter-spacing="1">SEVERITY</text>
    <text x="90" y="48" font-family="'Segoe UI',Arial,sans-serif" font-size="18" font-weight="800"
          fill="#FFFFFF" text-anchor="middle">MEDIUM</text>
  </g>
  <g transform="translate(232,330)">
    <rect width="180" height="60" rx="8" fill="#2A1A0C" stroke="#FFB703" stroke-width="1" stroke-opacity="0.4" filter="url(#softShadow)"/>
    <text x="90" y="26" font-family="'Segoe UI',Arial,sans-serif" font-size="11" font-weight="600"
          fill="#FFB703" text-anchor="middle" letter-spacing="1">VECTOR</text>
    <text x="90" y="48" font-family="'Segoe UI',Arial,sans-serif" font-size="18" font-weight="800"
          fill="#FFFFFF" text-anchor="middle">Identity</text>
  </g>
  <g transform="translate(428,330)">
    <rect width="180" height="60" rx="8" fill="#2A1A0C" stroke="#FFB703" stroke-width="1" stroke-opacity="0.4" filter="url(#softShadow)"/>
    <text x="90" y="26" font-family="'Segoe UI',Arial,sans-serif" font-size="11" font-weight="600"
          fill="#FFB703" text-anchor="middle" letter-spacing="1">IMPACT</text>
    <text x="90" y="48" font-family="'Segoe UI',Arial,sans-serif" font-size="18" font-weight="800"
          fill="#FFFFFF" text-anchor="middle">Cost Risk</text>
  </g>
  <!-- Divider -->
  <line x1="0" y1="420" x2="1200" y2="420" stroke="#FFB703" stroke-width="1.5" stroke-opacity="0.3"/>

  <!-- Band 3 -->
  <rect x="0" y="420" width="1200" height="210" fill="url(#bg3g)"/>
  <rect x="0" y="420" width="1200" height="210" fill="url(#ledgerGrid)" opacity="0.7"/>
  <rect x="0" y="420" width="6" height="210" fill="url(#accentGrad)" opacity="0.8">
    <animate attributeName="opacity" values="0.8;0.5;0.8" dur="4s" repeatCount="indefinite"/>
  </rect>
  <text x="36" y="466" font-family="'Segoe UI',Arial,sans-serif" font-size="13" font-weight="600"
        fill="#FFB703" letter-spacing="3" opacity="0.85">ANALYSIS</text>
  <text x="36" y="508" font-family="'Segoe UI',Arial,sans-serif" font-size="26" font-weight="700"
        fill="#FFFFFF" text-anchor="start">FinOps Controls</text>
  <!-- Tags -->
  <g transform="translate(36,528)">
    <g transform="translate(0,0)">
      <rect width="104" height="28" rx="14" fill="#FFB703" fill-opacity="0.18" stroke="#FFB703" stroke-width="0.8" stroke-opacity="0.5"/>
      <text x="52" y="19" font-family="'Segoe UI',Arial,sans-serif" font-size="12" font-weight="600"
            fill="#FEF3C7" text-anchor="middle">Zero Trust</text>
    </g>
    <g transform="translate(114,0)">
      <rect width="64" height="28" rx="14" fill="#FFB703" fill-opacity="0.18" stroke="#FFB703" stroke-width="0.8" stroke-opacity="0.5"/>
      <text x="32" y="19" font-family="'Segoe UI',Arial,sans-serif" font-size="12" font-weight="600"
            fill="#FEF3C7" text-anchor="middle">Cloud</text>
    </g>
    <g transform="translate(188,0)">
      <rect width="72" height="28" rx="14" fill="#FFB703" fill-opacity="0.18" stroke="#FFB703" stroke-width="0.8" stroke-opacity="0.5"/>
      <text x="36" y="19" font-family="'Segoe UI',Arial,sans-serif" font-size="12" font-weight="600"
            fill="#FEF3C7" text-anchor="middle">FinOps</text>
    </g>
    <g transform="translate(270,0)">
      <rect width="88" height="28" rx="14" fill="#FFB703" fill-opacity="0.18" stroke="#FFB703" stroke-width="0.8" stroke-opacity="0.5"/>
      <text x="44" y="19" font-family="'Segoe UI',Arial,sans-serif" font-size="12" font-weight="600"
            fill="#FEF3C7" text-anchor="middle">Security</text>
    </g>
  </g>
  <!-- Brand watermark -->
  <text x="36" y="610" font-family="'Segoe UI',Arial,sans-serif" font-size="12" font-weight="400"
        fill="#FCD34D" opacity="0.5" text-anchor="start">tech.2twodragon.com</text>
  <!-- Accent line bottom -->
  <rect x="0" y="626" width="1200" height="4" fill="url(#accentGrad)" opacity="0.6"/>
  <!-- QR code -->
  <g transform="translate(1080,504)">
    <rect x="-8" y="-8" width="100" height="100" rx="6" fill="#FFFFFF"/>
    <path fill="#0A1020" d="M0.0 0.0h14.34v2.05h-14.34z M22.54 0.0h8.2v2.05h-8.2z M34.83 0.0h2.05v2.05h-2.05z M51.22 0.0h2.05v2.05h-2.05z M61.46 0.0h4.1v2.05h-4.1z M69.66 0.0h14.34v2.05h-14.34z M0.0 2.05h2.05v2.05h-2.05z M12.29 2.05h2.05v2.05h-2.05z M16.39 2.05h2.05v2.05h-2.05z M20.49 2.05h2.05v2.05h-2.05z M26.63 2.05h2.05v2.05h-2.05z M30.73 2.05h2.05v2.05h-2.05z M36.88 2.05h4.1v2.05h-4.1z M43.02 2.05h2.05v2.05h-2.05z M47.12 2.05h4.1v2.05h-4.1z M53.27 2.05h8.2v2.05h-8.2z M63.51 2.05h4.1v2.05h-4.1z M69.66 2.05h2.05v2.05h-2.05z M81.95 2.05h2.05v2.05h-2.05z M0.0 4.1h2.05v2.05h-2.05z M4.1 4.1h6.15v2.05h-6.15z M12.29 4.1h2.05v2.05h-2.05z M18.44 4.1h2.05v2.05h-2.05z M22.54 4.1h6.15v2.05h-6.15z M34.83 4.1h4.1v2.05h-4.1z M47.12 4.1h2.05v2.05h-2.05z M51.22 4.1h6.15v2.05h-6.15z M61.46 4.1h2.05v2.05h-2.05z M65.56 4.1h2.05v2.05h-2.05z M69.66 4.1h2.05v2.05h-2.05z M73.76 4.1h6.15v2.05h-6.15z M81.95 4.1h2.05v2.05h-2.05z M0.0 6.15h2.05v2.05h-2.05z M4.1 6.15h6.15v2.05h-6.15z M12.29 6.15h2.05v2.05h-2.05z M18.44 6.15h4.1v2.05h-4.1z M28.68 6.15h2.05v2.05h-2.05z M34.83 6.15h10.24v2.05h-10.24z M51.22 6.15h4.1v2.05h-4.1z M61.46 6.15h2.05v2.05h-2.05z M69.66 6.15h2.05v2.05h-2.05z M73.76 6.15h6.15v2.05h-6.15z M81.95 6.15h2.05v2.05h-2.05z M0.0 8.2h2.05v2.05h-2.05z M4.1 8.2h6.15v2.05h-6.15z M12.29 8.2h2.05v2.05h-2.05z M16.39 8.2h8.2v2.05h-8.2z M30.73 8.2h2.05v2.05h-2.05z M34.83 8.2h6.15v2.05h-6.15z M47.12 8.2h2.05v2.05h-2.05z M53.27 8.2h4.1v2.05h-4.1z M63.51 8.2h4.1v2.05h-4.1z M69.66 8.2h2.05v2.05h-2.05z M73.76 8.2h6.15v2.05h-6.15z M81.95 8.2h2.05v2.05h-2.05z M0.0 10.24h2.05v2.05h-2.05z M12.29 10.24h2.05v2.05h-2.05z M18.44 10.24h6.15v2.05h-6.15z M26.63 10.24h6.15v2.05h-6.15z M36.88 10.24h6.15v2.05h-6.15z M47.12 10.24h4.1v2.05h-4.1z M55.32 10.24h2.05v2.05h-2.05z M59.41 10.24h8.2v2.05h-8.2z M69.66 10.24h2.05v2.05h-2.05z M81.95 10.24h2.05v2.05h-2.05z M0.0 12.29h14.34v2.05h-14.34z M16.39 12.29h2.05v2.05h-2.05z M20.49 12.29h2.05v2.05h-2.05z M24.59 12.29h2.05v2.05h-2.05z M28.68 12.29h2.05v2.05h-2.05z M32.78 12.29h2.05v2.05h-2.05z M36.88 12.29h2.05v2.05h-2.05z M40.98 12.29h2.05v2.05h-2.05z M45.07 12.29h2.05v2.05h-2.05z M49.17 12.29h2.05v2.05h-2.05z M53.27 12.29h2.05v2.05h-2.05z M57.37 12.29h2.05v2.05h-2.05z M61.46 12.29h2.05v2.05h-2.05z M65.56 12.29h2.05v2.05h-2.05z M69.66 12.29h14.34v2.05h-14.34z M18.44 14.34h2.05v2.05h-2.05z M26.63 14.34h6.15v2.05h-6.15z M34.83 14.34h2.05v2.05h-2.05z M38.93 14.34h2.05v2.05h-2.05z M43.02 14.34h2.05v2.05h-2.05z M51.22 14.34h2.05v2.05h-2.05z M55.32 14.34h6.15v2.05h-6.15z M0.0 16.39h2.05v2.05h-2.05z M4.1 16.39h2.05v2.05h-2.05z M8.2 16.39h2.05v2.05h-2.05z M12.29 16.39h2.05v2.05h-2.05z M20.49 16.39h6.15v2.05h-6.15z M30.73 16.39h2.05v2.05h-2.05z M34.83 16.39h2.05v2.05h-2.05z M38.93 16.39h6.15v2.05h-6.15z M51.22 16.39h2.05v2.05h-2.05z M59.41 16.39h2.05v2.05h-2.05z M73.76 16.39h2.05v2.05h-2.05z M79.9 16.39h2.05v2.05h-2.05z M0.0 18.44h2.05v2.05h-2.05z M6.15 18.44h2.05v2.05h-2.05z M14.34 18.44h6.15v2.05h-6.15z M22.54 18.44h8.2v2.05h-8.2z M32.78 18.44h4.1v2.05h-4.1z M43.02 18.44h2.05v2.05h-2.05z M49.17 18.44h6.15v2.05h-6.15z M65.56 18.44h2.05v2.05h-2.05z M69.66 18.44h2.05v2.05h-2.05z M75.8 18.44h4.1v2.05h-4.1z M81.95 18.44h2.05v2.05h-2.05z M4.1 20.49h10.24v2.05h-10.24z M18.44 20.49h4.1v2.05h-4.1z M24.59 20.49h4.1v2.05h-4.1z M30.73 20.49h4.1v2.05h-4.1z M40.98 20.49h2.05v2.05h-2.05z M49.17 20.49h2.05v2.05h-2.05z M57.37 20.49h4.1v2.05h-4.1z M67.61 20.49h4.1v2.05h-4.1z M73.76 20.49h2.05v2.05h-2.05z M77.85 20.49h6.15v2.05h-6.15z M6.15 22.54h2.05v2.05h-2.05z M10.24 22.54h2.05v2.05h-2.05z M16.39 22.54h2.05v2.05h-2.05z M22.54 22.54h2.05v2.05h-2.05z M26.63 22.54h2.05v2.05h-2.05z M34.83 22.54h2.05v2.05h-2.05z M40.98 22.54h14.34v2.05h-14.34z M57.37 22.54h6.15v2.05h-6.15z M65.56 22.54h6.15v2.05h-6.15z M73.76 22.54h2.05v2.05h-2.05z M81.95 22.54h2.05v2.05h-2.05z M4.1 24.59h4.1v2.05h-4.1z M10.24 24.59h6.15v2.05h-6.15z M22.54 24.59h4.1v2.05h-4.1z M30.73 24.59h2.05v2.05h-2.05z M34.83 24.59h2.05v2.05h-2.05z M38.93 24.59h2.05v2.05h-2.05z M43.02 24.59h2.05v2.05h-2.05z M49.17 24.59h4.1v2.05h-4.1z M55.32 24.59h2.05v2.05h-2.05z M59.41 24.59h6.15v2.05h-6.15z M67.61 24.59h6.15v2.05h-6.15z M75.8 24.59h2.05v2.05h-2.05z M79.9 24.59h2.05v2.05h-2.05z M6.15 26.63h6.15v2.05h-6.15z M14.34 26.63h2.05v2.05h-2.05z M18.44 26.63h2.05v2.05h-2.05z M22.54 26.63h4.1v2.05h-4.1z M28.68 26.63h4.1v2.05h-4.1z M36.88 26.63h4.1v2.05h-4.1z M43.02 26.63h2.05v2.05h-2.05z M47.12 26.63h4.1v2.05h-4.1z M55.32 26.63h2.05v2.05h-2.05z M59.41 26.63h4.1v2.05h-4.1z M65.56 26.63h8.2v2.05h-8.2z M77.85 26.63h6.15v2.05h-6.15z M0.0 28.68h2.05v2.05h-2.05z M6.15 28.68h2.05v2.05h-2.05z M12.29 28.68h4.1v2.05h-4.1z M18.44 28.68h4.1v2.05h-4.1z M24.59 28.68h8.2v2.05h-8.2z M34.83 28.68h2.05v2.05h-2.05z M47.12 28.68h8.2v2.05h-8.2z M59.41 28.68h2.05v2.05h-2.05z M69.66 28.68h2.05v2.05h-2.05z M75.8 28.68h2.05v2.05h-2.05z M79.9 28.68h4.1v2.05h-4.1z M4.1 30.73h2.05v2.05h-2.05z M8.2 30.73h4.1v2.05h-4.1z M14.34 30.73h6.15v2.05h-6.15z M26.63 30.73h4.1v2.05h-4.1z M32.78 30.73h8.2v2.05h-8.2z M43.02 30.73h2.05v2.05h-2.05z M49.17 30.73h4.1v2.05h-4.1z M55.32 30.73h2.05v2.05h-2.05z M59.41 30.73h4.1v2.05h-4.1z M65.56 30.73h2.05v2.05h-2.05z M69.66 30.73h4.1v2.05h-4.1z M75.8 30.73h2.05v2.05h-2.05z M81.95 30.73h2.05v2.05h-2.05z M2.05 32.78h2.05v2.05h-2.05z M6.15 32.78h2.05v2.05h-2.05z M10.24 32.78h4.1v2.05h-4.1z M16.39 32.78h2.05v2.05h-2.05z M30.73 32.78h2.05v2.05h-2.05z M43.02 32.78h2.05v2.05h-2.05z M47.12 32.78h2.05v2.05h-2.05z M51.22 32.78h2.05v2.05h-2.05z M59.41 32.78h2.05v2.05h-2.05z M63.51 32.78h4.1v2.05h-4.1z M69.66 32.78h4.1v2.05h-4.1z M75.8 32.78h2.05v2.05h-2.05z M79.9 32.78h4.1v2.05h-4.1z M0.0 34.83h6.15v2.05h-6.15z M14.34 34.83h4.1v2.05h-4.1z M20.49 34.83h2.05v2.05h-2.05z M24.59 34.83h2.05v2.05h-2.05z M32.78 34.83h4.1v2.05h-4.1z M40.98 34.83h2.05v2.05h-2.05z M45.07 34.83h8.2v2.05h-8.2z M55.32 34.83h6.15v2.05h-6.15z M65.56 34.83h2.05v2.05h-2.05z M69.66 34.83h2.05v2.05h-2.05z M79.9 34.83h4.1v2.05h-4.1z M6.15 36.88h4.1v2.05h-4.1z M12.29 36.88h6.15v2.05h-6.15z M24.59 36.88h2.05v2.05h-2.05z M36.88 36.88h2.05v2.05h-2.05z M43.02 36.88h2.05v2.05h-2.05z M53.27 36.88h2.05v2.05h-2.05z M57.37 36.88h6.15v2.05h-6.15z M65.56 36.88h6.15v2.05h-6.15z M73.76 36.88h6.15v2.05h-6.15z M81.95 36.88h2.05v2.05h-2.05z M0.0 38.93h6.15v2.05h-6.15z M14.34 38.93h2.05v2.05h-2.05z M20.49 38.93h4.1v2.05h-4.1z M26.63 38.93h2.05v2.05h-2.05z M32.78 38.93h6.15v2.05h-6.15z M49.17 38.93h24.59v2.05h-24.59z M0.0 40.98h6.15v2.05h-6.15z M10.24 40.98h4.1v2.05h-4.1z M22.54 40.98h6.15v2.05h-6.15z M30.73 40.98h4.1v2.05h-4.1z M36.88 40.98h2.05v2.05h-2.05z M40.98 40.98h2.05v2.05h-2.05z M47.12 40.98h2.05v2.05h-2.05z M53.27 40.98h2.05v2.05h-2.05z M59.41 40.98h4.1v2.05h-4.1z M69.66 40.98h2.05v2.05h-2.05z M73.76 40.98h2.05v2.05h-2.05z M79.9 40.98h2.05v2.05h-2.05z M8.2 43.02h2.05v2.05h-2.05z M22.54 43.02h2.05v2.05h-2.05z M28.68 43.02h10.24v2.05h-10.24z M40.98 43.02h4.1v2.05h-4.1z M47.12 43.02h14.34v2.05h-14.34z M67.61 43.02h4.1v2.05h-4.1z M79.9 43.02h4.1v2.05h-4.1z M8.2 45.07h6.15v2.05h-6.15z M16.39 45.07h4.1v2.05h-4.1z M24.59 45.07h4.1v2.05h-4.1z M32.78 45.07h6.15v2.05h-6.15z M40.98 45.07h2.05v2.05h-2.05z M45.07 45.07h2.05v2.05h-2.05z M65.56 45.07h2.05v2.05h-2.05z M71.71 45.07h2.05v2.05h-2.05z M75.8 45.07h8.2v2.05h-8.2z M0.0 47.12h2.05v2.05h-2.05z M4.1 47.12h2.05v2.05h-2.05z M14.34 47.12h2.05v2.05h-2.05z M18.44 47.12h2.05v2.05h-2.05z M22.54 47.12h2.05v2.05h-2.05z M26.63 47.12h2.05v2.05h-2.05z M32.78 47.12h6.15v2.05h-6.15z M43.02 47.12h4.1v2.05h-4.1z M49.17 47.12h4.1v2.05h-4.1z M57.37 47.12h8.2v2.05h-8.2z M73.76 47.12h2.05v2.05h-2.05z M81.95 47.12h2.05v2.05h-2.05z M10.24 49.17h8.2v2.05h-8.2z M20.49 49.17h6.15v2.05h-6.15z M28.68 49.17h8.2v2.05h-8.2z M40.98 49.17h4.1v2.05h-4.1z M47.12 49.17h6.15v2.05h-6.15z M55.32 49.17h6.15v2.05h-6.15z M65.56 49.17h6.15v2.05h-6.15z M2.05 51.22h4.1v2.05h-4.1z M8.2 51.22h4.1v2.05h-4.1z M16.39 51.22h4.1v2.05h-4.1z M22.54 51.22h4.1v2.05h-4.1z M30.73 51.22h4.1v2.05h-4.1z M40.98 51.22h4.1v2.05h-4.1z M49.17 51.22h6.15v2.05h-6.15z M59.41 51.22h2.05v2.05h-2.05z M79.9 51.22h4.1v2.05h-4.1z M0.0 53.27h2.05v2.05h-2.05z M8.2 53.27h2.05v2.05h-2.05z M12.29 53.27h2.05v2.05h-2.05z M22.54 53.27h2.05v2.05h-2.05z M28.68 53.27h6.15v2.05h-6.15z M36.88 53.27h2.05v2.05h-2.05z M43.02 53.27h4.1v2.05h-4.1z M51.22 53.27h4.1v2.05h-4.1z M57.37 53.27h6.15v2.05h-6.15z M71.71 53.27h2.05v2.05h-2.05z M77.85 53.27h6.15v2.05h-6.15z M2.05 55.32h8.2v2.05h-8.2z M14.34 55.32h24.59v2.05h-24.59z M40.98 55.32h6.15v2.05h-6.15z M49.17 55.32h8.2v2.05h-8.2z M59.41 55.32h2.05v2.05h-2.05z M65.56 55.32h2.05v2.05h-2.05z M71.71 55.32h4.1v2.05h-4.1z M79.9 55.32h2.05v2.05h-2.05z M12.29 57.37h2.05v2.05h-2.05z M18.44 57.37h2.05v2.05h-2.05z M22.54 57.37h8.2v2.05h-8.2z M38.93 57.37h6.15v2.05h-6.15z M47.12 57.37h2.05v2.05h-2.05z M51.22 57.37h2.05v2.05h-2.05z M55.32 57.37h18.44v2.05h-18.44z M75.8 57.37h2.05v2.05h-2.05z M79.9 57.37h2.05v2.05h-2.05z M8.2 59.41h4.1v2.05h-4.1z M28.68 59.41h20.49v2.05h-20.49z M51.22 59.41h2.05v2.05h-2.05z M55.32 59.41h18.44v2.05h-18.44z M75.8 59.41h2.05v2.05h-2.05z M0.0 61.46h2.05v2.05h-2.05z M4.1 61.46h6.15v2.05h-6.15z M12.29 61.46h2.05v2.05h-2.05z M20.49 61.46h4.1v2.05h-4.1z M34.83 61.46h12.29v2.05h-12.29z M55.32 61.46h4.1v2.05h-4.1z M65.56 61.46h2.05v2.05h-2.05z M73.76 61.46h2.05v2.05h-2.05z M79.9 61.46h4.1v2.05h-4.1z M2.05 63.51h2.05v2.05h-2.05z M8.2 63.51h4.1v2.05h-4.1z M14.34 63.51h4.1v2.05h-4.1z M20.49 63.51h4.1v2.05h-4.1z M28.68 63.51h10.24v2.05h-10.24z M40.98 63.51h4.1v2.05h-4.1z M47.12 63.51h2.05v2.05h-2.05z M51.22 63.51h4.1v2.05h-4.1z M57.37 63.51h6.15v2.05h-6.15z M65.56 63.51h8.2v2.05h-8.2z M75.8 63.51h2.05v2.05h-2.05z M81.95 63.51h2.05v2.05h-2.05z M0.0 65.56h2.05v2.05h-2.05z M6.15 65.56h2.05v2.05h-2.05z M10.24 65.56h4.1v2.05h-4.1z M16.39 65.56h6.15v2.05h-6.15z M24.59 65.56h4.1v2.05h-4.1z M30.73 65.56h2.05v2.05h-2.05z M34.83 65.56h2.05v2.05h-2.05z M38.93 65.56h2.05v2.05h-2.05z M43.02 65.56h2.05v2.05h-2.05z M49.17 65.56h4.1v2.05h-4.1z M55.32 65.56h2.05v2.05h-2.05z M59.41 65.56h2.05v2.05h-2.05z M63.51 65.56h14.34v2.05h-14.34z M79.9 65.56h2.05v2.05h-2.05z M16.39 67.61h2.05v2.05h-2.05z M22.54 67.61h2.05v2.05h-2.05z M32.78 67.61h2.05v2.05h-2.05z M40.98 67.61h6.15v2.05h-6.15z M49.17 67.61h2.05v2.05h-2.05z M53.27 67.61h2.05v2.05h-2.05z M57.37 67.61h2.05v2.05h-2.05z M61.46 67.61h6.15v2.05h-6.15z M73.76 67.61h2.05v2.05h-2.05z M79.9 67.61h4.1v2.05h-4.1z M0.0 69.66h14.34v2.05h-14.34z M20.49 69.66h2.05v2.05h-2.05z M24.59 69.66h2.05v2.05h-2.05z M28.68 69.66h8.2v2.05h-8.2z M45.07 69.66h2.05v2.05h-2.05z M49.17 69.66h4.1v2.05h-4.1z M59.41 69.66h2.05v2.05h-2.05z M65.56 69.66h2.05v2.05h-2.05z M69.66 69.66h2.05v2.05h-2.05z M73.76 69.66h10.24v2.05h-10.24z M0.0 71.71h2.05v2.05h-2.05z M12.29 71.71h2.05v2.05h-2.05z M18.44 71.71h2.05v2.05h-2.05z M22.54 71.71h4.1v2.05h-4.1z M30.73 71.71h4.1v2.05h-4.1z M38.93 71.71h8.2v2.05h-8.2z M59.41 71.71h4.1v2.05h-4.1z M65.56 71.71h2.05v2.05h-2.05z M73.76 71.71h2.05v2.05h-2.05z M81.95 71.71h2.05v2.05h-2.05z M0.0 73.76h2.05v2.05h-2.05z M4.1 73.76h6.15v2.05h-6.15z M12.29 73.76h2.05v2.05h-2.05z M16.39 73.76h6.15v2.05h-6.15z M26.63 73.76h8.2v2.05h-8.2z M45.07 73.76h2.05v2.05h-2.05z M57.37 73.76h2.05v2.05h-2.05z M61.46 73.76h2.05v2.05h-2.05z M65.56 73.76h10.24v2.05h-10.24z M79.9 73.76h2.05v2.05h-2.05z M0.0 75.8h2.05v2.05h-2.05z M4.1 75.8h6.15v2.05h-6.15z M12.29 75.8h2.05v2.05h-2.05z M18.44 75.8h2.05v2.05h-2.05z M24.59 75.8h4.1v2.05h-4.1z M30.73 75.8h4.1v2.05h-4.1z M40.98 75.8h12.29v2.05h-12.29z M59.41 75.8h2.05v2.05h-2.05z M65.56 75.8h4.1v2.05h-4.1z M73.76 75.8h2.05v2.05h-2.05z M0.0 77.85h2.05v2.05h-2.05z M4.1 77.85h6.15v2.05h-6.15z M12.29 77.85h2.05v2.05h-2.05z M16.39 77.85h6.15v2.05h-6.15z M26.63 77.85h2.05v2.05h-2.05z M34.83 77.85h4.1v2.05h-4.1z M43.02 77.85h2.05v2.05h-2.05z M49.17 77.85h4.1v2.05h-4.1z M59.41 77.85h6.15v2.05h-6.15z M71.71 77.85h4.1v2.05h-4.1z M77.85 77.85h6.15v2.05h-6.15z M0.0 79.9h2.05v2.05h-2.05z M12.29 79.9h2.05v2.05h-2.05z M20.49 79.9h2.05v2.05h-2.05z M26.63 79.9h2.05v2.05h-2.05z M32.78 79.9h16.39v2.05h-16.39z M51.22 79.9h4.1v2.05h-4.1z M57.37 79.9h6.15v2.05h-6.15z M65.56 79.9h2.05v2.05h-2.05z M69.66 79.9h4.1v2.05h-4.1z M79.9 79.9h2.05v2.05h-2.05z M0.0 81.95h14.34v2.05h-14.34z M16.39 81.95h4.1v2.05h-4.1z M22.54 81.95h2.05v2.05h-2.05z M30.73 81.95h2.05v2.05h-2.05z M40.98 81.95h4.1v2.05h-4.1z M47.12 81.95h6.15v2.05h-6.15z M57.37 81.95h4.1v2.05h-4.1z M65.56 81.95h4.1v2.05h-4.1z M71.71 81.95h12.29v2.05h-12.29z"/>
  </g>
</svg>