<svg xmlns="http://www.w3.org/2000/svg" width="1200" height="630" viewBox="0 0 1200 630">
  <title>Tech Security Weekly Digest - April 08 2026</title>

  <defs>
    <!-- Background gradients -->
    <linearGradient id="bgGrad" x1="0%" y1="0%" x2="100%" y2="100%">
      <stop offset="0%" stop-color="#0d1117"/>
      <stop offset="50%" stop-color="#0a1025"/>
      <stop offset="100%" stop-color="#070d1a"/>
    </linearGradient>
    <linearGradient id="leftPanelGrad" x1="0%" y1="0%" x2="100%" y2="0%">
      <stop offset="0%" stop-color="#0d1520"/>
      <stop offset="100%" stop-color="#0a1428" stop-opacity="0.85"/>
    </linearGradient>
    <linearGradient id="crackGrad" x1="0%" y1="0%" x2="0%" y2="100%">
      <stop offset="0%" stop-color="#ef4444" stop-opacity="0.9"/>
      <stop offset="50%" stop-color="#f97316" stop-opacity="1"/>
      <stop offset="100%" stop-color="#dc2626" stop-opacity="0.9"/>
    </linearGradient>
    <linearGradient id="aptGrad" x1="0%" y1="0%" x2="100%" y2="100%">
      <stop offset="0%" stop-color="#dc2626"/>
      <stop offset="100%" stop-color="#7f1d1d"/>
    </linearGradient>
    <linearGradient id="dockerGrad" x1="0%" y1="0%" x2="100%" y2="100%">
      <stop offset="0%" stop-color="#0891b2"/>
      <stop offset="100%" stop-color="#164e63"/>
    </linearGradient>
    <linearGradient id="aiShieldGrad" x1="0%" y1="0%" x2="100%" y2="100%">
      <stop offset="0%" stop-color="#7c3aed"/>
      <stop offset="100%" stop-color="#4c1d95"/>
    </linearGradient>
    <linearGradient id="topHalfGrad" x1="0%" y1="0%" x2="0%" y2="100%">
      <stop offset="0%" stop-color="#1a0a0a" stop-opacity="0.6"/>
      <stop offset="100%" stop-color="#0d1117" stop-opacity="0"/>
    </linearGradient>
    <linearGradient id="bottomHalfGrad" x1="0%" y1="0%" x2="0%" y2="100%">
      <stop offset="0%" stop-color="#0d1117" stop-opacity="0"/>
      <stop offset="100%" stop-color="#050d1a" stop-opacity="0.7"/>
    </linearGradient>
    <linearGradient id="severityCritGrad" x1="0%" y1="0%" x2="100%" y2="0%">
      <stop offset="0%" stop-color="#dc2626"/>
      <stop offset="100%" stop-color="#ef4444"/>
    </linearGradient>
    <linearGradient id="severityHighGrad" x1="0%" y1="0%" x2="100%" y2="0%">
      <stop offset="0%" stop-color="#d97706"/>
      <stop offset="100%" stop-color="#f59e0b"/>
    </linearGradient>
    <linearGradient id="dnsGlowGrad" x1="0%" y1="0%" x2="100%" y2="100%">
      <stop offset="0%" stop-color="#1d4ed8"/>
      <stop offset="100%" stop-color="#3b82f6"/>
    </linearGradient>
    <linearGradient id="footerGrad" x1="0%" y1="0%" x2="100%" y2="0%">
      <stop offset="0%" stop-color="#0d1520"/>
      <stop offset="50%" stop-color="#111827"/>
      <stop offset="100%" stop-color="#0d1520"/>
    </linearGradient>
    <linearGradient id="tunnelGrad" x1="50%" y1="0%" x2="50%" y2="100%">
      <stop offset="0%" stop-color="#3b82f6" stop-opacity="0.3"/>
      <stop offset="100%" stop-color="#06b6d4" stop-opacity="0.05"/>
    </linearGradient>

    <!-- Radial glows -->
    <radialGradient id="aptRadial" cx="50%" cy="50%" r="50%">
      <stop offset="0%" stop-color="#ef4444" stop-opacity="0.8"/>
      <stop offset="40%" stop-color="#dc2626" stop-opacity="0.4"/>
      <stop offset="100%" stop-color="#7f1d1d" stop-opacity="0"/>
    </radialGradient>
    <radialGradient id="crackRadial" cx="50%" cy="50%" r="50%">
      <stop offset="0%" stop-color="#f97316" stop-opacity="1"/>
      <stop offset="50%" stop-color="#ef4444" stop-opacity="0.5"/>
      <stop offset="100%" stop-color="#dc2626" stop-opacity="0"/>
    </radialGradient>
    <radialGradient id="botnetRadial" cx="50%" cy="50%" r="50%">
      <stop offset="0%" stop-color="#f59e0b" stop-opacity="0.7"/>
      <stop offset="100%" stop-color="#92400e" stop-opacity="0"/>
    </radialGradient>
    <radialGradient id="aiRadial" cx="50%" cy="50%" r="50%">
      <stop offset="0%" stop-color="#7c3aed" stop-opacity="0.6"/>
      <stop offset="100%" stop-color="#4c1d95" stop-opacity="0"/>
    </radialGradient>
    <radialGradient id="dnsRadial" cx="50%" cy="50%" r="50%">
      <stop offset="0%" stop-color="#3b82f6" stop-opacity="0.5"/>
      <stop offset="100%" stop-color="#1d4ed8" stop-opacity="0"/>
    </radialGradient>
    <radialGradient id="vignette" cx="50%" cy="50%" r="70%">
      <stop offset="0%" stop-color="transparent"/>
      <stop offset="100%" stop-color="#000000" stop-opacity="0.5"/>
    </radialGradient>

    <!-- Filters -->
    <filter id="glow" x="-50%" y="-50%" width="200%" height="200%">
      <feGaussianBlur stdDeviation="4" result="blur"/>
      <feColorMatrix type="matrix" values="1 0 0 0 0  0 1 0 0 0  0 0 1 0 0  0 0 0 18 -7" result="glow"/>
      <feMerge>
        <feMergeNode in="glow"/>
        <feMergeNode in="SourceGraphic"/>
      </feMerge>
    </filter>
    <filter id="glowRed" x="-60%" y="-60%" width="220%" height="220%">
      <feGaussianBlur stdDeviation="6" result="blur"/>
      <feColorMatrix type="matrix" in="blur" values="1 0 0 0 0.5  0 0 0 0 0  0 0 0 0 0  0 0 0 20 -8" result="colored"/>
      <feMerge>
        <feMergeNode in="colored"/>
        <feMergeNode in="SourceGraphic"/>
      </feMerge>
    </filter>
    <filter id="glowBlue" x="-60%" y="-60%" width="220%" height="220%">
      <feGaussianBlur stdDeviation="5" result="blur"/>
      <feColorMatrix type="matrix" in="blur" values="0 0 0 0 0  0 0 0 0 0.3  1 0 0 0 1  0 0 0 18 -6" result="colored"/>
      <feMerge>
        <feMergeNode in="colored"/>
        <feMergeNode in="SourceGraphic"/>
      </feMerge>
    </filter>
    <filter id="glowCyan" x="-60%" y="-60%" width="220%" height="220%">
      <feGaussianBlur stdDeviation="4" result="blur"/>
      <feColorMatrix type="matrix" in="blur" values="0 0 0 0 0  0.5 0 0 0 0.8  1 0 0 0 1  0 0 0 16 -5" result="colored"/>
      <feMerge>
        <feMergeNode in="colored"/>
        <feMergeNode in="SourceGraphic"/>
      </feMerge>
    </filter>
    <filter id="glowPurple" x="-60%" y="-60%" width="220%" height="220%">
      <feGaussianBlur stdDeviation="5" result="blur"/>
      <feColorMatrix type="matrix" in="blur" values="0.5 0 0 0 0.4  0 0 0 0 0  1 0 0 0 0.8  0 0 0 16 -5" result="colored"/>
      <feMerge>
        <feMergeNode in="colored"/>
        <feMergeNode in="SourceGraphic"/>
      </feMerge>
    </filter>
    <filter id="softBlur" x="-20%" y="-20%" width="140%" height="140%">
      <feGaussianBlur stdDeviation="2"/>
    </filter>
    <filter id="heavyBlur" x="-30%" y="-30%" width="160%" height="160%">
      <feGaussianBlur stdDeviation="8"/>
    </filter>
    <filter id="crackGlow" x="-40%" y="-200%" width="180%" height="500%">
      <feGaussianBlur stdDeviation="3" result="blur"/>
      <feColorMatrix type="matrix" in="blur" values="1 0 0 0 0.6  0.3 0 0 0 0.1  0 0 0 0 0  0 0 0 20 -6" result="colored"/>
      <feMerge>
        <feMergeNode in="colored"/>
        <feMergeNode in="SourceGraphic"/>
      </feMerge>
    </filter>
    <filter id="panelShadow" x="-5%" y="-5%" width="110%" height="110%">
      <feDropShadow dx="4" dy="0" stdDeviation="6" flood-color="#000000" flood-opacity="0.6"/>
    </filter>

    <!-- Dot grid pattern -->
    <pattern id="dotGrid" x="0" y="0" width="24" height="24" patternUnits="userSpaceOnUse">
      <circle cx="2" cy="2" r="0.8" fill="#1e3a5f" opacity="0.5"/>
    </pattern>
    <!-- Hex grid pattern -->
    <pattern id="hexGrid" x="0" y="0" width="30" height="26" patternUnits="userSpaceOnUse">
      <polygon points="15,2 25,8 25,18 15,24 5,18 5,8" fill="none" stroke="#1a2f4a" stroke-width="0.4" opacity="0.4"/>
    </pattern>
    <!-- Scan line pattern -->
    <pattern id="scanLines" x="0" y="0" width="1" height="4" patternUnits="userSpaceOnUse">
      <line x1="0" y1="0" x2="1200" y2="0" stroke="#0a1628" stroke-width="0.5"/>
    </pattern>

    <!-- Clip paths -->
    <clipPath id="mainClip">
      <rect x="290" y="0" width="910" height="630"/>
    </clipPath>
    <clipPath id="topClip">
      <rect x="290" y="0" width="910" height="315"/>
    </clipPath>
    <clipPath id="bottomClip">
      <rect x="290" y="315" width="910" height="315"/>
    </clipPath>
    <clipPath id="leftClip">
      <rect x="0" y="0" width="290" height="630"/>
    </clipPath>
  </defs>

  <!-- CSS Animations -->
  <style>
    @keyframes floatUp {
      0% { transform: translateY(0px) translateX(0px); opacity: 0; }
      20% { opacity: 0.8; }
      80% { opacity: 0.6; }
      100% { transform: translateY(-40px) translateX(5px); opacity: 0; }
    }
    @keyframes floatDown {
      0% { transform: translateY(0px); opacity: 0; }
      20% { opacity: 0.7; }
      80% { opacity: 0.5; }
      100% { transform: translateY(30px); opacity: 0; }
    }
    @keyframes pulse {
      0%, 100% { opacity: 0.6; r: 6; }
      50% { opacity: 1; r: 9; }
    }
    @keyframes pulseLarge {
      0%, 100% { opacity: 0.3; }
      50% { opacity: 0.7; }
    }
    @keyframes crackFx {
      0%, 100% { opacity: 0.7; filter: url(#crackGlow); }
      50% { opacity: 1; filter: url(#glowRed); }
    }
    @keyframes glimmer {
      0%, 100% { opacity: 0.4; }
      50% { opacity: 1; }
    }
    @keyframes rotate {
      0% { transform: rotate(0deg); }
      100% { transform: rotate(360deg); }
    }
    @keyframes dash {
      to { stroke-dashoffset: -30; }
    }
    @keyframes dataFlow {
      0% { transform: translateX(0); opacity: 0; }
      10% { opacity: 1; }
      90% { opacity: 0.8; }
      100% { transform: translateX(80px); opacity: 0; }
    }
    @keyframes dataFlowLeft {
      0% { transform: translateX(0); opacity: 0; }
      10% { opacity: 1; }
      90% { opacity: 0.8; }
      100% { transform: translateX(-80px); opacity: 0; }
    }
    @keyframes botPulse {
      0%, 100% { opacity: 0.5; }
      50% { opacity: 1; }
    }
    @keyframes scanMove {
      0% { transform: translateY(-2px); }
      100% { transform: translateY(2px); }
    }
    @keyframes containerEscape {
      0%, 100% { transform: translateX(0) translateY(0) rotate(0deg); }
      50% { transform: translateX(4px) translateY(-3px) rotate(2deg); }
    }
    @keyframes radarSweep {
      0% { transform-origin: 50% 50%; transform: rotate(0deg); opacity: 0.6; }
      100% { transform-origin: 50% 50%; transform: rotate(360deg); opacity: 0.6; }
    }
    @keyframes typewriter {
      0%, 100% { opacity: 1; }
      50% { opacity: 0.3; }
    }
    .particle-a { animation: floatUp 3.2s ease-in-out infinite; animation-delay: 0s; }
    .particle-b { animation: floatUp 4.1s ease-in-out infinite; animation-delay: 0.8s; }
    .particle-c { animation: floatUp 2.9s ease-in-out infinite; animation-delay: 1.6s; }
    .particle-d { animation: floatUp 3.7s ease-in-out infinite; animation-delay: 2.2s; }
    .particle-e { animation: floatDown 3.5s ease-in-out infinite; animation-delay: 0.4s; }
    .pulse-node { animation: pulse 2s ease-in-out infinite; }
    .pulse-slow { animation: pulseLarge 3s ease-in-out infinite; }
    .pulse-fast { animation: pulse 1.2s ease-in-out infinite; }
    .crack-anim { animation: crackFx 2.5s ease-in-out infinite; }
    .glimmer { animation: glimmer 2s ease-in-out infinite; }
    .glimmer-fast { animation: glimmer 1s ease-in-out infinite; }
    .dash-flow { animation: dash 1.5s linear infinite; stroke-dasharray: 8 6; }
    .dash-flow-slow { animation: dash 3s linear infinite; stroke-dasharray: 6 10; }
    .data-pkt { animation: dataFlow 2.5s linear infinite; }
    .data-pkt-b { animation: dataFlow 2.5s linear infinite; animation-delay: 0.8s; }
    .data-pkt-c { animation: dataFlow 2.5s linear infinite; animation-delay: 1.6s; }
    .data-pkt-left { animation: dataFlowLeft 2.5s linear infinite; }
    .bot-pulse { animation: botPulse 2s ease-in-out infinite; }
    .bot-pulse-b { animation: botPulse 2s ease-in-out infinite; animation-delay: 0.5s; }
    .bot-pulse-c { animation: botPulse 2s ease-in-out infinite; animation-delay: 1s; }
    .escape-anim { animation: containerEscape 2s ease-in-out infinite; }
    .radar-sweep { animation: radarSweep 4s linear infinite; }
    .cursor-blink { animation: typewriter 1s step-end infinite; }
  </style>

  <!-- === BACKGROUND === -->
  <rect width="1200" height="630" fill="url(#bgGrad)"/>
  <rect width="1200" height="630" fill="url(#dotGrid)" opacity="0.8"/>
  <rect width="1200" height="630" fill="url(#hexGrid)" opacity="0.6"/>
  <rect width="1200" height="630" fill="url(#scanLines)" opacity="0.3"/>
  <rect width="1200" height="630" fill="url(#vignette)"/>

  <!-- Top half overlay (red tint for APT zone) -->
  <rect x="290" y="0" width="910" height="315" fill="url(#topHalfGrad)" opacity="0.6"/>
  <!-- Bottom half overlay (blue tint for container zone) -->
  <rect x="290" y="315" width="910" height="315" fill="url(#bottomHalfGrad)" opacity="0.5"/>

  <!-- === LEFT PANEL === -->
  <rect x="0" y="0" width="290" height="630" fill="url(#leftPanelGrad)" filter="url(#panelShadow)"/>
  <!-- Left panel border right edge -->
  <line x1="290" y1="0" x2="290" y2="630" stroke="#1e3a5f" stroke-width="1.5"/>
  <line x1="289" y1="0" x2="289" y2="630" stroke="#3b82f6" stroke-width="0.5" opacity="0.4"/>

  <!-- Left panel dot grid -->
  <rect x="0" y="0" width="290" height="630" fill="url(#dotGrid)" opacity="0.4"/>

  <!-- WEEKLY DIGEST badge -->
  <rect x="18" y="20" width="130" height="24" rx="12" fill="none" stroke="#3b82f6" stroke-width="1.5"/>
  <rect x="19" y="21" width="128" height="22" rx="11" fill="#0f2044" opacity="0.8"/>
  <text x="83" y="37" font-family="'Courier New', monospace" font-size="9.5" font-weight="700" fill="#60a5fa" text-anchor="middle" letter-spacing="2">WEEKLY DIGEST</text>

  <!-- Shield icon -->
  <g transform="translate(240, 22)">
    <path d="M20,2 L38,8 L38,22 C38,31 20,38 20,38 C20,38 2,31 2,22 L2,8 Z" fill="none" stroke="#3b82f6" stroke-width="1.5" opacity="0.7"/>
    <path d="M20,6 L34,11 L34,21 C34,28 20,34 20,34 C20,34 6,28 6,21 L6,11 Z" fill="#0f2044" opacity="0.6"/>
    
  </g>

  <!-- Main title -->
  <text x="18" y="70" font-family="'Courier New', monospace" font-size="17" font-weight="700" fill="#f8fafc" letter-spacing="0.5">Tech Security</text>
  <text x="18" y="91" font-family="'Courier New', monospace" font-size="17" font-weight="700" fill="#f8fafc" letter-spacing="0.5">Weekly</text>
  <line x1="18" y1="100" x2="272" y2="100" stroke="#1e3a5f" stroke-width="1"/>

  <!-- Date -->
  <text x="18" y="118" font-family="'Courier New', monospace" font-size="9" fill="#64748b" letter-spacing="1.5">APRIL 08, 2026</text>

  <!-- Story list -->
  <!-- APT28 -->
  <rect x="18" y="130" width="4" height="36" rx="2" fill="#ef4444"/>
  <text x="30" y="143" font-family="'Courier New', monospace" font-size="10.5" font-weight="700" fill="#fca5a5">APT28</text>
  <text x="30" y="158" font-family="'Courier New', monospace" font-size="9" fill="#94a3b8">Infrastructure</text>
  <!-- Dot indicator -->
  <circle cx="264" cy="143" r="4" fill="#ef4444" class="pulse-node"/>

  <!-- DNS Hijacking -->
  <rect x="18" y="176" width="4" height="36" rx="2" fill="#3b82f6"/>
  <text x="30" y="189" font-family="'Courier New', monospace" font-size="10.5" font-weight="700" fill="#93c5fd">DNS Hijacking</text>
  <text x="30" y="204" font-family="'Courier New', monospace" font-size="9" fill="#94a3b8">Global Infra</text>
  <circle cx="264" cy="189" r="4" fill="#3b82f6" class="pulse-node"/>

  <!-- Docker Escape -->
  <rect x="18" y="222" width="4" height="36" rx="2" fill="#06b6d4"/>
  <text x="30" y="235" font-family="'Courier New', monospace" font-size="10.5" font-weight="700" fill="#67e8f9">Docker Escape</text>
  <text x="30" y="250" font-family="'Courier New', monospace" font-size="9" fill="#94a3b8">Container Vuln</text>
  <circle cx="264" cy="235" r="4" fill="#06b6d4" class="pulse-node"/>

  <!-- AI Enterprise -->
  <rect x="18" y="268" width="4" height="36" rx="2" fill="#7c3aed"/>
  <text x="30" y="281" font-family="'Courier New', monospace" font-size="10.5" font-weight="700" fill="#c4b5fd">AI Enterprise</text>
  <text x="30" y="296" font-family="'Courier New', monospace" font-size="9" fill="#94a3b8">Webinar / Defense</text>
  <circle cx="264" cy="281" r="4" fill="#7c3aed" class="pulse-node"/>

  <!-- Botnet Ops -->
  <rect x="18" y="314" width="4" height="36" rx="2" fill="#f59e0b"/>
  <text x="30" y="327" font-family="'Courier New', monospace" font-size="10.5" font-weight="700" fill="#fcd34d">Botnet Ops</text>
  <text x="30" y="342" font-family="'Courier New', monospace" font-size="9" fill="#94a3b8">DDoS Campaigns</text>
  <circle cx="264" cy="327" r="4" fill="#f59e0b" class="pulse-node"/>

  <line x1="18" y1="360" x2="272" y2="360" stroke="#1e3a5f" stroke-width="1"/>

  <!-- Severity bars -->
  <text x="18" y="378" font-family="'Courier New', monospace" font-size="8.5" fill="#64748b" letter-spacing="1">SEVERITY LEVEL</text>
  <!-- Critical -->
  <text x="18" y="396" font-family="'Courier New', monospace" font-size="8" fill="#94a3b8">CRITICAL</text>
  <rect x="80" y="386" width="180" height="10" rx="5" fill="#0f172a"/>
  <rect x="80" y="386" width="162" height="10" rx="5" fill="url(#severityCritGrad)" class="glimmer"/>
  <text x="267" y="396" font-family="'Courier New', monospace" font-size="8" fill="#ef4444" text-anchor="end">90%</text>
  <!-- High -->
  <text x="18" y="416" font-family="'Courier New', monospace" font-size="8" fill="#94a3b8">HIGH</text>
  <rect x="80" y="406" width="180" height="10" rx="5" fill="#0f172a"/>
  <rect x="80" y="406" width="135" height="10" rx="5" fill="url(#severityHighGrad)"/>
  <text x="267" y="416" font-family="'Courier New', monospace" font-size="8" fill="#f59e0b" text-anchor="end">75%</text>
  <!-- Medium -->
  <text x="18" y="436" font-family="'Courier New', monospace" font-size="8" fill="#94a3b8">MEDIUM</text>
  <rect x="80" y="426" width="180" height="10" rx="5" fill="#0f172a"/>
  <rect x="80" y="426" width="90" height="10" rx="5" fill="#1d4ed8"/>
  <text x="267" y="436" font-family="'Courier New', monospace" font-size="8" fill="#60a5fa" text-anchor="end">50%</text>

  <line x1="18" y1="450" x2="272" y2="450" stroke="#1e3a5f" stroke-width="1"/>

  <!-- Tag pills -->
  <text x="18" y="467" font-family="'Courier New', monospace" font-size="8.5" fill="#64748b" letter-spacing="1">TAGS</text>
  <!-- APT28 tag -->
  <rect x="18" y="474" width="52" height="16" rx="8" fill="#3b1515" stroke="#ef4444" stroke-width="0.8"/>
  <text x="44" y="486" font-family="'Courier New', monospace" font-size="7.5" fill="#f87171" text-anchor="middle">APT28</text>
  <!-- DNS tag -->
  <rect x="76" y="474" width="38" height="16" rx="8" fill="#0f2044" stroke="#3b82f6" stroke-width="0.8"/>
  
  <!-- Docker tag -->
  <rect x="120" y="474" width="52" height="16" rx="8" fill="#062030" stroke="#06b6d4" stroke-width="0.8"/>
  <text x="146" y="486" font-family="'Courier New', monospace" font-size="7.5" fill="#67e8f9" text-anchor="middle">DOCKER</text>
  <!-- Botnet tag -->
  <rect x="178" y="474" width="50" height="16" rx="8" fill="#2d1a00" stroke="#f59e0b" stroke-width="0.8"/>
  <text x="203" y="486" font-family="'Courier New', monospace" font-size="7.5" fill="#fcd34d" text-anchor="middle">BOTNET</text>
  <!-- AI tag -->
  <rect x="18" y="496" width="28" height="16" rx="8" fill="#1e0a40" stroke="#7c3aed" stroke-width="0.8"/>
  <text x="32" y="508" font-family="'Courier New', monospace" font-size="7.5" fill="#c4b5fd" text-anchor="middle">AI</text>
  <!-- Russia tag -->
  <rect x="52" y="496" width="52" height="16" rx="8" fill="#2a0a0a" stroke="#b91c1c" stroke-width="0.8"/>
  <text x="78" y="508" font-family="'Courier New', monospace" font-size="7.5" fill="#fca5a5" text-anchor="middle">RUSSIA</text>
  <!-- C2 tag -->
  <rect x="110" y="496" width="28" height="16" rx="8" fill="#0f1a1a" stroke="#0e7490" stroke-width="0.8"/>
  

  <!-- Terminal line at bottom of left panel -->
  <rect x="0" y="540" width="290" height="60" fill="#050d15" opacity="0.7"/>
  <line x1="0" y1="540" x2="290" y2="540" stroke="#1e3a5f" stroke-width="1"/>
  
  
  <text x="18" y="588" font-family="'Courier New', monospace" font-size="8" fill="#22c55e">&#x25ae;<tspan class="cursor-blink" fill="#22c55e">_</tspan></text>

  <!-- Footer URL -->
  <rect x="0" y="606" width="290" height="24" fill="#070d15"/>
  <text x="145" y="621" font-family="'Courier New', monospace" font-size="9" fill="#1e3a5f" text-anchor="middle">tech.2twodragon.com</text>

  <!-- === MAIN SCENE AREA === -->

  <!-- Perspective tunnel / depth lines from center -->
  <g clip-path="url(#mainClip)" opacity="0.15">
    <line x1="740" y1="315" x2="310" y2="10" stroke="#3b82f6" stroke-width="0.5"/>
    <line x1="740" y1="315" x2="550" y2="0" stroke="#3b82f6" stroke-width="0.5"/>
    <line x1="740" y1="315" x2="750" y2="0" stroke="#3b82f6" stroke-width="0.5"/>
    <line x1="740" y1="315" x2="950" y2="0" stroke="#3b82f6" stroke-width="0.5"/>
    <line x1="740" y1="315" x2="1190" y2="10" stroke="#3b82f6" stroke-width="0.5"/>
    <line x1="740" y1="315" x2="310" y2="620" stroke="#06b6d4" stroke-width="0.5"/>
    <line x1="740" y1="315" x2="550" y2="630" stroke="#06b6d4" stroke-width="0.5"/>
    <line x1="740" y1="315" x2="750" y2="630" stroke="#06b6d4" stroke-width="0.5"/>
    <line x1="740" y1="315" x2="950" y2="630" stroke="#06b6d4" stroke-width="0.5"/>
    <line x1="740" y1="315" x2="1190" y2="620" stroke="#06b6d4" stroke-width="0.5"/>
  </g>

  <!-- ========== TOP HALF: APT28 / DNS Scene ========== -->

  <!-- APT28 origin glow -->
  <ellipse cx="550" cy="140" rx="100" ry="80" fill="url(#aptRadial)" class="pulse-slow"/>

  <!-- Military star (APT28 Russia symbol) -->
  <g transform="translate(510, 80)" filter="url(#glowRed)">
    <!-- 5-point star -->
    <polygon points="40,0 49,28 78,28 55,45 63,74 40,56 17,74 25,45 2,28 31,28" fill="#dc2626" opacity="0.9"/>
    <polygon points="40,6 47,27 69,27 52,40 58,62 40,50 22,62 28,40 11,27 33,27" fill="#7f1d1d"/>
    <text x="40" y="44" font-family="'Courier New', monospace" font-size="9" font-weight="700" fill="#ffffff" text-anchor="middle">APT</text>
    <text x="40" y="56" font-family="'Courier New', monospace" font-size="9" font-weight="700" fill="#fca5a5" text-anchor="middle">28</text>
  </g>

  <!-- "RUSSIA" label below star -->
  <rect x="494" y="162" width="72" height="14" rx="3" fill="#3b0a0a" stroke="#dc2626" stroke-width="0.8"/>
  <text x="530" y="173" font-family="'Courier New', monospace" font-size="8" font-weight="700" fill="#ef4444" text-anchor="middle" letter-spacing="1.5">RUSSIA</text>

  <!-- C2 Server nodes -->
  <!-- Node 1 (top-left) -->
  <g transform="translate(330, 55)">
    <rect x="0" y="0" width="60" height="40" rx="4" fill="#0a1a2e" stroke="#1e3a5f" stroke-width="1"/>
    <rect x="0" y="0" width="60" height="8" rx="4" fill="#1e3a5f"/>
    <rect x="4" y="2" width="4" height="4" rx="2" fill="#ef4444" class="glimmer-fast"/>
    <rect x="12" y="2" width="4" height="4" rx="2" fill="#f59e0b"/>
    <rect x="20" y="2" width="4" height="4" rx="2" fill="#22c55e"/>
    
    
  </g>
  <circle cx="360" cy="75" r="3" fill="#ef4444" class="pulse-node" filter="url(#glowRed)"/>

  <!-- Node 2 (top-right) -->
  <g transform="translate(700, 40)">
    <rect x="0" y="0" width="60" height="40" rx="4" fill="#0a1a2e" stroke="#1e3a5f" stroke-width="1"/>
    <rect x="0" y="0" width="60" height="8" rx="4" fill="#1e3a5f"/>
    <rect x="4" y="2" width="4" height="4" rx="2" fill="#ef4444" class="glimmer-fast"/>
    <rect x="12" y="2" width="4" height="4" rx="2" fill="#f59e0b"/>
    <rect x="20" y="2" width="4" height="4" rx="2" fill="#22c55e"/>
    
    
  </g>
  <circle cx="730" cy="60" r="3" fill="#ef4444" class="pulse-node" filter="url(#glowRed)"/>

  <!-- Node 3 (right) -->
  <g transform="translate(950, 90)">
    <rect x="0" y="0" width="60" height="40" rx="4" fill="#0a1a2e" stroke="#1e3a5f" stroke-width="1"/>
    <rect x="0" y="0" width="60" height="8" rx="4" fill="#1e3a5f"/>
    <rect x="4" y="2" width="4" height="4" rx="2" fill="#ef4444" class="glimmer-fast"/>
    <rect x="12" y="2" width="4" height="4" rx="2" fill="#f59e0b"/>
    <rect x="20" y="2" width="4" height="4" rx="2" fill="#22c55e"/>
    
    
  </g>
  <circle cx="980" cy="110" r="3" fill="#ef4444" class="pulse-node" filter="url(#glowRed)"/>

  <!-- Attack vector lines from APT28 to C2 nodes (dashed red) -->
  <line x1="510" y1="120" x2="390" y2="75" stroke="#ef4444" stroke-width="1.2" class="dash-flow" opacity="0.7"/>
  <line x1="560" y1="115" x2="730" y2="60" stroke="#ef4444" stroke-width="1.2" class="dash-flow" opacity="0.7"/>
  <line x1="580" y1="130" x2="950" y2="110" stroke="#ef4444" stroke-width="1" class="dash-flow-slow" opacity="0.6"/>

  <!-- Data packets flowing along attack lines -->
  <g class="data-pkt">
    <rect x="430" y="90" width="8" height="5" rx="1" fill="#ef4444" opacity="0.9"/>
  </g>
  <g class="data-pkt-b">
    <rect x="600" y="80" width="8" height="5" rx="1" fill="#ef4444" opacity="0.9"/>
  </g>
  <g class="data-pkt-c">
    <rect x="700" y="100" width="8" height="5" rx="1" fill="#ef4444" opacity="0.9"/>
  </g>

  <!-- DNS Globe visualization -->
  <g transform="translate(830, 55)">
    <!-- Globe circle -->
    <circle cx="55" cy="55" r="50" fill="none" stroke="#1d4ed8" stroke-width="1.5" opacity="0.8"/>
    <circle cx="55" cy="55" r="50" fill="#050f1f" opacity="0.6"/>
    <!-- Globe meridians/parallels -->
    <ellipse cx="55" cy="55" rx="25" ry="50" fill="none" stroke="#1e3a5f" stroke-width="0.8"/>
    <ellipse cx="55" cy="55" rx="45" ry="50" fill="none" stroke="#1e3a5f" stroke-width="0.5"/>
    <line x1="5" y1="55" x2="105" y2="55" stroke="#1e3a5f" stroke-width="0.8"/>
    <line x1="10" y1="35" x2="100" y2="35" stroke="#1e3a5f" stroke-width="0.5"/>
    <line x1="10" y1="75" x2="100" y2="75" stroke="#1e3a5f" stroke-width="0.5"/>
    <!-- DNS label inside globe -->
    
    <!-- Globe glow -->
    <circle cx="55" cy="55" r="52" fill="url(#dnsRadial)" class="pulse-slow"/>

    <!-- DNS query arrows being intercepted -->
    <!-- Query arrow 1 -->
    <line x1="-15" y1="30" x2="10" y2="45" stroke="#3b82f6" stroke-width="1" class="dash-flow" opacity="0.8"/>
    
    <!-- Intercept marker -->
    <circle cx="-5" cy="35" r="5" fill="none" stroke="#ef4444" stroke-width="1.5" class="pulse-fast"/>
    <line x1="-9" y1="31" x2="-1" y2="39" stroke="#ef4444" stroke-width="1.5"/>
    <line x1="-1" y1="31" x2="-9" y2="39" stroke="#ef4444" stroke-width="1.5"/>

    <!-- Query arrow 2 -->
    <line x1="115" y1="30" x2="100" y2="45" stroke="#3b82f6" stroke-width="1" class="dash-flow" opacity="0.8"/>
    
    <!-- Intercept marker 2 -->
    <circle cx="120" cy="38" r="5" fill="none" stroke="#ef4444" stroke-width="1.5" class="pulse-fast"/>
    <line x1="116" y1="34" x2="124" y2="42" stroke="#ef4444" stroke-width="1.5"/>
    <line x1="124" y1="34" x2="116" y2="42" stroke="#ef4444" stroke-width="1.5"/>
  </g>

  <!-- DNS label -->
  

  <!-- Floating particles (top zone) -->
  <circle cx="420" cy="180" r="2" fill="#ef4444" class="particle-a" opacity="0.8"/>
  <circle cx="480" cy="200" r="1.5" fill="#ef4444" class="particle-b" opacity="0.6"/>
  <circle cx="640" cy="160" r="2" fill="#3b82f6" class="particle-c" opacity="0.7"/>
  <circle cx="720" cy="190" r="1.5" fill="#3b82f6" class="particle-d" opacity="0.6"/>
  <circle cx="800" cy="170" r="2" fill="#ef4444" class="particle-a" opacity="0.5"/>
  <circle cx="900" cy="200" r="1.5" fill="#3b82f6" class="particle-b" opacity="0.6"/>
  <circle cx="1050" cy="160" r="2" fill="#f59e0b" class="particle-c" opacity="0.5"/>

  <!-- APT28 info box -->
  <rect x="308" y="170" width="140" height="80" rx="4" fill="#0a1020" stroke="#7f1d1d" stroke-width="1" opacity="0.9"/>
  <rect x="308" y="170" width="140" height="14" rx="3" fill="#7f1d1d" opacity="0.8"/>
  
  
  
  
  

  <!-- ========== BREACH LINE (center) ========== -->
  <!-- Main crack line -->
  <g class="crack-anim">
    <!-- Glow halo behind crack -->
    <rect x="290" y="305" width="910" height="20" fill="url(#crackGrad)" opacity="0.3" filter="url(#heavyBlur)"/>
    <!-- Jagged crack path -->
    <path d="M290,315 L340,308 L380,322 L430,305 L470,318 L530,308 L570,320 L620,310 L670,318 L720,308 L770,316 L820,306 L870,318 L920,310 L960,320 L1010,308 L1060,316 L1110,308 L1150,318 L1200,312"
          fill="none" stroke="url(#crackGrad)" stroke-width="3" filter="url(#crackGlow)"/>
    <!-- Lower crack edge -->
    <path d="M290,315 L340,322 L380,308 L430,325 L470,312 L530,322 L570,310 L620,320 L670,312 L720,322 L770,314 L820,324 L870,312 L920,320 L960,310 L1010,322 L1060,314 L1110,322 L1150,312 L1200,318"
          fill="none" stroke="#f97316" stroke-width="1" opacity="0.5"/>
  </g>

  <!-- DNS Badge in crack zone -->
  <g transform="translate(718, 300)">
    <rect x="-28" y="-14" width="56" height="28" rx="5" fill="#0f2044" stroke="#3b82f6" stroke-width="1.5" filter="url(#glowBlue)"/>
    
  </g>

  <!-- BREACH label -->
  <rect x="530" y="303" width="80" height="20" rx="3" fill="#1a0505" stroke="#ef4444" stroke-width="0.8"/>
  <text x="570" y="317" font-family="'Courier New', monospace" font-size="8" font-weight="700" fill="#ef4444" text-anchor="middle" letter-spacing="1">BREACH</text>

  <!-- ========== BOTTOM HALF: Docker / Botnet / AI Scene ========== -->

  <!-- Bottom half glow spots -->
  <circle cx="480" cy="460" r="60" fill="url(#botnetRadial)" class="pulse-slow"/>
  <circle cx="1050" cy="460" r="70" fill="url(#aiRadial)" class="pulse-slow"/>

  <!-- Docker Whale (geometric/simplified) -->
  <g transform="translate(310, 340)" filter="url(#glowCyan)">
    <!-- Whale body -->
    <rect x="10" y="30" width="80" height="50" rx="6" fill="url(#dockerGrad)" opacity="0.9"/>
    <!-- Container boxes on top of whale -->
    <rect x="14" y="16" width="18" height="16" rx="2" fill="#0e7490" stroke="#22d3ee" stroke-width="0.8"/>
    <rect x="36" y="16" width="18" height="16" rx="2" fill="#0e7490" stroke="#22d3ee" stroke-width="0.8"/>
    <rect x="58" y="16" width="18" height="16" rx="2" fill="#0e7490" stroke="#22d3ee" stroke-width="0.8"/>
    <!-- Whale tail -->
    <path d="M90,60 Q110,50 105,70 Q95,80 90,75 Z" fill="url(#dockerGrad)"/>
    <!-- Whale eye -->
    <circle cx="30" cy="48" r="4" fill="#ffffff" opacity="0.8"/>
    <circle cx="30" cy="48" r="2" fill="#0c4a6e"/>
    <!-- Docker label -->
    <text x="50" y="60" font-family="'Courier New', monospace" font-size="9" font-weight="700" fill="#e0f2fe" text-anchor="middle">DOCKER</text>
    
  </g>

  <!-- Container escape visualization -->
  <g transform="translate(440, 360)">
    <!-- Normal containers -->
    <rect x="0" y="10" width="28" height="22" rx="3" fill="#0a1f2e" stroke="#06b6d4" stroke-width="1"/>
    
    <rect x="35" y="10" width="28" height="22" rx="3" fill="#0a1f2e" stroke="#06b6d4" stroke-width="1"/>
    
    <!-- Escaping container (broken border, lifted) -->
    <g class="escape-anim">
      <rect x="70" y="0" width="28" height="22" rx="3" fill="#1a0a2e" stroke="#a855f7" stroke-width="1.5"
            stroke-dasharray="3 2"/>
      
      <!-- Crack on container -->
      <path d="M78,5 L82,11 L86,8 L90,14" fill="none" stroke="#ef4444" stroke-width="1"/>
    </g>
    <!-- CVE label -->
    <rect x="65" y="28" width="40" height="12" rx="3" fill="#2a0a30" stroke="#a855f7" stroke-width="0.8"/>
    
    <!-- Arrow up from escaping container -->
    <line x1="84" y1="-2" x2="84" y2="-15" stroke="#a855f7" stroke-width="1" marker-end="url(#arrowPurple)" class="glimmer"/>
    
  </g>

  <!-- Botnet mesh (center-bottom) -->
  <g transform="translate(580, 360)">
    <!-- Glow -->
    <circle cx="90" cy="80" r="70" fill="url(#botnetRadial)" opacity="0.4"/>

    <!-- Bot herder (center, larger) -->
    <circle cx="90" cy="80" r="14" fill="#92400e" stroke="#f59e0b" stroke-width="2" class="pulse-node" filter="url(#glowRed)"/>
    
    

    <!-- Compromised bot nodes -->
    <!-- Bot 1 -->
    <circle cx="30" cy="30" r="8" fill="#1a1000" stroke="#f59e0b" stroke-width="1" class="bot-pulse"/>
    
    <line x1="37" y1="36" x2="77" y2="67" stroke="#f59e0b" stroke-width="0.8" opacity="0.6" stroke-dasharray="4 3"/>

    <!-- Bot 2 -->
    <circle cx="90" cy="10" r="8" fill="#1a1000" stroke="#f59e0b" stroke-width="1" class="bot-pulse-b"/>
    
    <line x1="90" y1="18" x2="90" y2="66" stroke="#f59e0b" stroke-width="0.8" opacity="0.6" stroke-dasharray="4 3"/>

    <!-- Bot 3 -->
    <circle cx="150" cy="30" r="8" fill="#1a1000" stroke="#f59e0b" stroke-width="1" class="bot-pulse-c"/>
    
    <line x1="143" y1="36" x2="103" y2="67" stroke="#f59e0b" stroke-width="0.8" opacity="0.6" stroke-dasharray="4 3"/>

    <!-- Bot 4 -->
    <circle cx="20" cy="90" r="8" fill="#1a1000" stroke="#f59e0b" stroke-width="1" class="bot-pulse"/>
    
    <line x1="28" y1="87" x2="76" y2="82" stroke="#f59e0b" stroke-width="0.8" opacity="0.6" stroke-dasharray="4 3"/>

    <!-- Bot 5 -->
    <circle cx="160" cy="90" r="8" fill="#1a1000" stroke="#f59e0b" stroke-width="1" class="bot-pulse-b"/>
    
    <line x1="152" y1="87" x2="104" y2="82" stroke="#f59e0b" stroke-width="0.8" opacity="0.6" stroke-dasharray="4 3"/>

    <!-- Bot 6 -->
    <circle cx="50" cy="140" r="8" fill="#1a1000" stroke="#f59e0b" stroke-width="1" class="bot-pulse-c"/>
    
    <line x1="57" y1="136" x2="84" y2="94" stroke="#f59e0b" stroke-width="0.8" opacity="0.6" stroke-dasharray="4 3"/>

    <!-- Bot 7 -->
    <circle cx="130" cy="140" r="8" fill="#1a1000" stroke="#f59e0b" stroke-width="1" class="bot-pulse"/>
    
    <line x1="123" y1="136" x2="96" y2="94" stroke="#f59e0b" stroke-width="0.8" opacity="0.6" stroke-dasharray="4 3"/>

    <!-- Command lines from herder -->
    

    <!-- BOTNET title -->
    <rect x="55" y="160" width="70" height="14" rx="3" fill="#2d1a00" stroke="#f59e0b" stroke-width="0.8"/>
    <text x="90" y="171" font-family="'Courier New', monospace" font-size="7.5" fill="#fcd34d" text-anchor="middle" letter-spacing="1">BOTNET</text>
  </g>

  <!-- AI Shield (right side) -->
  <g transform="translate(930, 340)" filter="url(#glowPurple)">
    <!-- Shield outline -->
    <path d="M70,5 L130,25 L130,85 C130,120 70,140 70,140 C70,140 10,120 10,85 L10,25 Z"
          fill="url(#aiShieldGrad)" opacity="0.8"/>
    <path d="M70,15 L120,32 L120,83 C120,110 70,128 70,128 C70,128 20,110 20,83 L20,32 Z"
          fill="#1e1040" opacity="0.7"/>
    <!-- Hexagon pattern inside shield -->
    <path d="M70,40 L85,49 L85,67 L70,76 L55,67 L55,49 Z" fill="none" stroke="#a78bfa" stroke-width="1" opacity="0.6"/>
    <path d="M70,50 L80,56 L80,68 L70,74 L60,68 L60,56 Z" fill="#2e1065" opacity="0.5"/>
    <!-- AI text -->
    <text x="70" y="68" font-family="'Courier New', monospace" font-size="16" font-weight="700" fill="#c4b5fd" text-anchor="middle">AI</text>
    <!-- Shield subtitle -->
    <text x="70" y="100" font-family="'Courier New', monospace" font-size="7" fill="#a78bfa" text-anchor="middle">ENTERPRISE</text>
    <text x="70" y="112" font-family="'Courier New', monospace" font-size="7" fill="#a78bfa" text-anchor="middle">DEFENSE</text>
    <!-- Rotating ring -->
    <circle cx="70" cy="72" r="45" fill="none" stroke="#7c3aed" stroke-width="0.8" stroke-dasharray="5 5"
            class="radar-sweep" opacity="0.5"/>
    <!-- Webinar badge -->
    <rect x="35" y="130" width="70" height="14" rx="3" fill="#1e0a40" stroke="#7c3aed" stroke-width="0.8"/>
    <text x="70" y="141" font-family="'Courier New', monospace" font-size="7" fill="#c4b5fd" text-anchor="middle">WEBINAR 2026</text>
  </g>

  <!-- Connection line from Docker to Botnet -->
  <line x1="460" y1="420" x2="585" y2="420" stroke="#06b6d4" stroke-width="0.8" stroke-dasharray="5 4" opacity="0.5"/>
  <!-- Connection from Botnet to AI Shield -->
  <line x1="760" y1="420" x2="935" y2="420" stroke="#a855f7" stroke-width="0.8" stroke-dasharray="5 4" opacity="0.5"/>

  <!-- Floating particles (bottom zone) -->
  <circle cx="520" cy="520" r="2" fill="#06b6d4" class="particle-e" opacity="0.7"/>
  <circle cx="600" cy="540" r="1.5" fill="#f59e0b" class="particle-a" opacity="0.6"/>
  <circle cx="700" cy="510" r="2" fill="#f59e0b" class="particle-b" opacity="0.5"/>
  <circle cx="820" cy="530" r="1.5" fill="#7c3aed" class="particle-c" opacity="0.6"/>
  <circle cx="920" cy="510" r="2" fill="#7c3aed" class="particle-d" opacity="0.5"/>
  <circle cx="1100" cy="540" r="1.5" fill="#a855f7" class="particle-e" opacity="0.6"/>

  <!-- Info cards (bottom) -->
  <!-- Docker vuln card -->
  <rect x="308" y="520" width="160" height="60" rx="4" fill="#050f1f" stroke="#0e7490" stroke-width="1" opacity="0.9"/>
  <rect x="308" y="520" width="160" height="14" rx="3" fill="#0e7490" opacity="0.8"/>
  <text x="388" y="531" font-family="'Courier New', monospace" font-size="8" fill="#e0f2fe" text-anchor="middle">DOCKER VULN</text>
  
  
  

  <!-- Botnet stats card -->
  <rect x="760" y="520" width="150" height="60" rx="4" fill="#0f0900" stroke="#92400e" stroke-width="1" opacity="0.9"/>
  <rect x="760" y="520" width="150" height="14" rx="3" fill="#92400e" opacity="0.8"/>
  <text x="835" y="531" font-family="'Courier New', monospace" font-size="8" fill="#fef3c7" text-anchor="middle">BOTNET STATS</text>
  
  
  

  <!-- === FOOTER === -->
  <rect x="290" y="597" width="910" height="33" fill="url(#footerGrad)"/>
  <line x1="290" y1="597" x2="1200" y2="597" stroke="#1e3a5f" stroke-width="1"/>
  <!-- Footer content -->
  <text x="740" y="619" font-family="'Courier New', monospace" font-size="10" fill="#3b4a6b" text-anchor="middle" letter-spacing="3">tech.2twodragon.com</text>
  <!-- Left decorative -->
  <line x1="310" y1="615" x2="560" y2="615" stroke="#1e3a5f" stroke-width="0.5"/>
  <!-- Right decorative -->
  <line x1="920" y1="615" x2="1180" y2="615" stroke="#1e3a5f" stroke-width="0.5"/>
  <!-- Dot separators -->
  <circle cx="570" cy="615" r="1.5" fill="#1e3a5f"/>
  <circle cx="910" cy="615" r="1.5" fill="#1e3a5f"/>

  <!-- === OVERALL VIGNETTE overlay === -->
  <rect width="1200" height="630" fill="url(#vignette)" opacity="0.4"/>

  <!-- Top-right corner decoration: threat level indicator -->
  <g transform="translate(1120, 12)">
    <rect x="0" y="0" width="72" height="22" rx="4" fill="#0a1020" stroke="#ef4444" stroke-width="1"/>
    <circle cx="11" cy="11" r="4" fill="#ef4444" class="pulse-fast"/>
    <text x="42" y="15" font-family="'Courier New', monospace" font-size="8" font-weight="700" fill="#ef4444" text-anchor="middle" letter-spacing="0.5">CRITICAL</text>
  </g>

  <!-- Top center title bar -->
  <rect x="550" y="10" width="300" height="26" rx="5" fill="#0a0f1e" stroke="#1e3a5f" stroke-width="1" opacity="0.9"/>
  

  <!-- Scan line effect moving across scene -->
  <rect x="290" y="0" width="910" height="2" fill="#3b82f6" opacity="0.04">
    <animateTransform attributeName="transform" type="translate" values="0,0;0,628;0,0" dur="6s" repeatCount="indefinite"/>
  </rect>
</svg>
