<svg xmlns="http://www.w3.org/2000/svg" viewBox="0 0 1200 630" width="1200" height="630" role="img" aria-label="Incident brief APR 20 2026 three-card infographic">
<title>Incident Brief APR 20 2026</title>

<defs>
  <linearGradient id="bg" x1="0%" y1="0%" x2="0%" y2="100%">
    <stop offset="0%" stop-color="#0B132B"/>
    <stop offset="100%" stop-color="#0A1020"/>
  </linearGradient>
  <linearGradient id="accentStripe" x1="0%" y1="0%" x2="100%" y2="0%">
    <stop offset="0%" stop-color="#3A86FF" stop-opacity="0"/>
    <stop offset="50%" stop-color="#3A86FF" stop-opacity="0.9"/>
    <stop offset="100%" stop-color="#3A86FF" stop-opacity="0"/>
  </linearGradient>
  <linearGradient id="c1grad" x1="0%" y1="0%" x2="0%" y2="100%">
    <stop offset="0%" stop-color="#1C2541"/>
    <stop offset="100%" stop-color="#141C36"/>
  </linearGradient>
  <linearGradient id="c2grad" x1="0%" y1="0%" x2="0%" y2="100%">
    <stop offset="0%" stop-color="#1C2541"/>
    <stop offset="100%" stop-color="#141C36"/>
  </linearGradient>
  <linearGradient id="c3grad" x1="0%" y1="0%" x2="0%" y2="100%">
    <stop offset="0%" stop-color="#1C2541"/>
    <stop offset="100%" stop-color="#141C36"/>
  </linearGradient>
  <linearGradient id="barGrad" x1="0%" y1="0%" x2="0%" y2="100%">
    <stop offset="0%" stop-color="#3A86FF"/>
    <stop offset="100%" stop-color="#2561C9"/>
  </linearGradient>
  <linearGradient id="critGrad" x1="0%" y1="0%" x2="100%" y2="0%">
    <stop offset="0%" stop-color="#E63946"/>
    <stop offset="100%" stop-color="#B02A37"/>
  </linearGradient>
  <linearGradient id="ambGrad" x1="0%" y1="0%" x2="100%" y2="0%">
    <stop offset="0%" stop-color="#FFB703"/>
    <stop offset="100%" stop-color="#CC8F00"/>
  </linearGradient>
  <linearGradient id="ringGrad" x1="0%" y1="0%" x2="100%" y2="100%">
    <stop offset="0%" stop-color="#3A86FF"/>
    <stop offset="100%" stop-color="#FFB703"/>
  </linearGradient>
  <linearGradient id="greenGrad" x1="0%" y1="0%" x2="100%" y2="0%">
    <stop offset="0%" stop-color="#2EC27E"/>
    <stop offset="100%" stop-color="#1E8A57"/>
  </linearGradient>
  <linearGradient id="chipGrad" x1="0%" y1="0%" x2="0%" y2="100%">
    <stop offset="0%" stop-color="#0B132B"/>
    <stop offset="100%" stop-color="#050A18"/>
  </linearGradient>
  <linearGradient id="headerGrad" x1="0%" y1="0%" x2="0%" y2="100%">
    <stop offset="0%" stop-color="#1C2541"/>
    <stop offset="100%" stop-color="#131A33"/>
  </linearGradient>
  <linearGradient id="qrGlow" x1="0%" y1="0%" x2="100%" y2="100%">
    <stop offset="0%" stop-color="#FFB703" stop-opacity="0.3"/>
    <stop offset="100%" stop-color="#FFB703" stop-opacity="0"/>
  </linearGradient>
  <linearGradient id="stripeSub" x1="0%" y1="0%" x2="100%" y2="0%">
    <stop offset="0%" stop-color="#FFB703" stop-opacity="0"/>
    <stop offset="50%" stop-color="#FFB703" stop-opacity="0.6"/>
    <stop offset="100%" stop-color="#FFB703" stop-opacity="0"/>
  </linearGradient>
  <linearGradient id="nodeLabel" x1="0%" y1="0%" x2="100%" y2="0%">
    <stop offset="0%" stop-color="#E7ECF4" stop-opacity="0.9"/>
    <stop offset="100%" stop-color="#E7ECF4" stop-opacity="0.6"/>
  </linearGradient>
  <radialGradient id="pulseA" cx="50%" cy="50%" r="50%">
    <stop offset="0%" stop-color="#3A86FF" stop-opacity="0.85"/>
    <stop offset="100%" stop-color="#3A86FF" stop-opacity="0"/>
  </radialGradient>
  <radialGradient id="pulseB" cx="50%" cy="50%" r="50%">
    <stop offset="0%" stop-color="#FFB703" stop-opacity="0.85"/>
    <stop offset="100%" stop-color="#FFB703" stop-opacity="0"/>
  </radialGradient>
  <pattern id="dotGrid" x="0" y="0" width="32" height="32" patternUnits="userSpaceOnUse">
    <circle cx="16" cy="16" r="0.9" fill="#2A3256" opacity="0.5"/>
  </pattern>
</defs>
<rect width="1200" height="630" fill="url(#bg)"/>
<rect width="1200" height="630" fill="url(#dotGrid)"/>
<!-- Accent stripes -->
<rect x="0" y="120" width="1200" height="2" fill="url(#accentStripe)" opacity="0.85">
  <animate attributeName="opacity" values="0.5;1;0.5" dur="5.2s" repeatCount="indefinite"/>
</rect>
<rect x="0" y="598" width="1200" height="2" fill="url(#accentStripe)" opacity="0.7">
  <animate attributeName="opacity" values="0.35;0.85;0.35" dur="6.1s" repeatCount="indefinite"/>
</rect>

<g>
  <rect x="48" y="36" width="1104" height="84" rx="14" ry="14"
        fill="url(#headerGrad)" opacity="0.92"/>
  <rect x="48" y="36" width="1104" height="84" rx="14" ry="14"
        fill="none" stroke="#3A86FF" stroke-width="1.2" opacity="0.55"/>
  <circle cx="80" cy="78" r="12" fill="#3A86FF" opacity="0.9">
    <animate attributeName="opacity" values="0.9;0.55;0.9" dur="3.2s" repeatCount="indefinite"/>
  </circle>
  <circle cx="80" cy="78" r="5" fill="#FFB703">
    <animate attributeName="r" values="5;6.4;5" dur="2.6s" repeatCount="indefinite"/>
  </circle>
  <rect x="1020" y="58" width="120" height="40" rx="8" ry="8"
        fill="url(#chipGrad)" stroke="#FFB703" stroke-width="1.4" opacity="0.95"/>
  <text x="1080" y="84" font-family="Inter,Segoe UI,Arial,sans-serif"
        font-size="18" font-weight="800" fill="#FFB703"
        text-anchor="middle" letter-spacing="2">APR 20 2026</text>
  <text x="600" y="90" font-family="Inter,Segoe UI,Arial,sans-serif"
        font-size="44" font-weight="800" fill="#E7ECF4"
        text-anchor="middle" letter-spacing="3">INCIDENT BRIEF</text>
</g>
<rect x="48" y="148" width="336" height="430" rx="18" ry="18" fill="url(#c1grad)" stroke="#3A86FF" stroke-width="1.6" opacity="0.96"/>
<rect x="66" y="166" width="56" height="3" fill="#3A86FF" rx="1.5"/>
<rect x="408" y="148" width="336" height="430" rx="18" ry="18" fill="url(#c2grad)" stroke="#FFB703" stroke-width="1.6" opacity="0.96"/>
<rect x="426" y="166" width="56" height="3" fill="#FFB703" rx="1.5"/>
<rect x="768" y="148" width="336" height="430" rx="18" ry="18" fill="url(#c3grad)" stroke="#E63946" stroke-width="1.6" opacity="0.96"/>
<rect x="786" y="166" width="56" height="3" fill="#E63946" rx="1.5"/>
<g transform="translate(96,222)">
  <rect x="-28" y="-20" width="56" height="40" rx="10" ry="10"
        fill="none" stroke="#3A86FF" stroke-width="2.4" opacity="0.92"/>
  <circle cx="20" cy="-20" r="6" fill="#E63946">
    <animate attributeName="r" values="6;7.2;6" dur="2.6s" repeatCount="indefinite"/>
    <animate attributeName="opacity" values="1;0.55;1" dur="2.6s" repeatCount="indefinite"/>
  </circle>
  <text x="20" y="-17" font-family="Inter,Segoe UI,Arial,sans-serif"
        font-size="9" font-weight="700" fill="#0B132B" text-anchor="middle">!</text>
  <rect x="-18" y="-10" width="36" height="3" rx="1.5" fill="#E7ECF4" opacity="0.75"/>
  <rect x="-18" y="-2" width="28" height="3" rx="1.5" fill="#8B94A8" opacity="0.65"/>
  <rect x="-18" y="6" width="22" height="3" rx="1.5" fill="#8B94A8" opacity="0.5"/>
  <g transform="translate(0,34)">
    <animateTransform attributeName="transform" type="rotate"
                      values="-5 0 0; 5 0 0; -5 0 0"
                      dur="3.2s" repeatCount="indefinite" additive="sum"/>
    <line x1="0" y1="-14" x2="0" y2="6" stroke="#FFB703" stroke-width="2.2"/>
    <path d="M 0 6 Q 0 16 -8 16 Q -14 16 -14 10" fill="none"
          stroke="#FFB703" stroke-width="2.2" stroke-linecap="round"/>
    <circle cx="-14" cy="10" r="2.2" fill="#FFB703"/>
  </g>
</g>
<g transform="translate(456,222)">
  <path d="M -30 -18 L 16 -18 L 30 -6 L 16 6 L -30 6 Z"
        fill="none" stroke="#FFB703" stroke-width="2.2" opacity="0.95"/>
  <circle cx="-20" cy="-6" r="2.4" fill="#FFB703"/>
  <text x="-4" y="-2" font-family="Inter,Segoe UI,Arial,sans-serif"
        font-size="10" font-weight="700" fill="#FFB703" text-anchor="middle">CVE</text>
  <line x1="-22" y1="14" x2="-22" y2="42" stroke="#8B94A8" stroke-width="2" opacity="0.5"/>
  <line x1="-22" y1="14" x2="-22" y2="42" stroke="#FFB703" stroke-width="2.4"
        opacity="0.8" stroke-dasharray="4 3"/>
  <rect x="-28" y="18" width="12" height="6" rx="2" fill="#FFB703">
    <animate attributeName="y" values="18;32;18" dur="4.0s" repeatCount="indefinite"/>
    <animate attributeName="opacity" values="0.95;0.55;0.95" dur="4.0s" repeatCount="indefinite"/>
  </rect>
  <path d="M -26 46 L -22 52 L -18 46" fill="none" stroke="#FFB703"
        stroke-width="2" stroke-linecap="round" stroke-linejoin="round"/>
  <text x="-10" y="20" font-family="Inter,Segoe UI,Arial,sans-serif" font-size="8" fill="#8B94A8">crit</text>
  <text x="-10" y="32" font-family="Inter,Segoe UI,Arial,sans-serif" font-size="8" fill="#8B94A8">high</text>
  <text x="-10" y="44" font-family="Inter,Segoe UI,Arial,sans-serif" font-size="8" fill="#8B94A8" opacity="0.5">med</text>
</g>
<g transform="translate(816,222)">
  <rect x="-24" y="-28" width="20" height="56" fill="none" stroke="#E63946" stroke-width="2.2" opacity="0.95"/>
  <line x1="-24" y1="-16" x2="-4" y2="-16" stroke="#E63946" stroke-width="1.2" opacity="0.75"/>
  <line x1="-24" y1="-4" x2="-4" y2="-4" stroke="#E63946" stroke-width="1.2" opacity="0.75"/>
  <line x1="-24" y1="8" x2="-4" y2="8" stroke="#E63946" stroke-width="1.2" opacity="0.75"/>
  <line x1="-24" y1="20" x2="-4" y2="20" stroke="#E63946" stroke-width="1.2" opacity="0.75"/>
  <g transform="translate(16,0)">
    <circle cx="0" cy="0" r="16" fill="none" stroke="#E7ECF4" stroke-width="2.2">
      <animateTransform attributeName="transform" type="scale" values="1;1.1;1"
                        dur="2.8s" repeatCount="indefinite" additive="sum"/>
    </circle>
    <line x1="-12" y1="12" x2="12" y2="-12" stroke="#E63946" stroke-width="2.6" stroke-linecap="round">
      <animate attributeName="opacity" values="1;0.55;1" dur="2.8s" repeatCount="indefinite"/>
    </line>
  </g>
</g>
<text x="156" y="214" font-family="Inter,Segoe UI,Arial,sans-serif"
      font-size="13" font-weight="700" fill="#3A86FF" letter-spacing="2">NODE 01</text>
<text x="156" y="242" font-family="Inter,Segoe UI,Arial,sans-serif"
      font-size="11" font-weight="600" fill="#8B94A8" letter-spacing="1.2">PRIORITY HIGH</text>
<text x="72" y="306" font-family="Inter,Segoe UI,Arial,sans-serif"
      font-size="24" font-weight="800" fill="#E7ECF4" letter-spacing="1.2">APPLE PHISHING</text>
<line x1="72" y1="318" x2="144" y2="318"
      stroke="#3A86FF" stroke-width="3" stroke-linecap="round"/>
<text x="72" y="356" font-family="Inter,Segoe UI,Arial,sans-serif"
      font-size="17" font-weight="500" fill="#E7ECF4" opacity="0.95">
  <tspan x="72" dy="0">Change notification emails</tspan>
</text>
<text x="72" y="380" font-family="Inter,Segoe UI,Arial,sans-serif"
      font-size="17" font-weight="500" fill="#E7ECF4" opacity="0.95">
  <tspan x="72" dy="0">phishing Apple IDs.</tspan>
</text>
<text x="516" y="214" font-family="Inter,Segoe UI,Arial,sans-serif"
      font-size="13" font-weight="700" fill="#FFB703" letter-spacing="2">NODE 02</text>
<text x="516" y="242" font-family="Inter,Segoe UI,Arial,sans-serif"
      font-size="11" font-weight="600" fill="#8B94A8" letter-spacing="1.2">PRIORITY HIGH</text>
<text x="432" y="306" font-family="Inter,Segoe UI,Arial,sans-serif"
      font-size="24" font-weight="800" fill="#E7ECF4" letter-spacing="1.2">NIST TRIAGE CUT</text>
<line x1="432" y1="318" x2="504" y2="318"
      stroke="#FFB703" stroke-width="3" stroke-linecap="round"/>
<text x="432" y="356" font-family="Inter,Segoe UI,Arial,sans-serif"
      font-size="17" font-weight="500" fill="#E7ECF4" opacity="0.95">
  <tspan x="432" dy="0">Low severity CVEs</tspan>
</text>
<text x="432" y="380" font-family="Inter,Segoe UI,Arial,sans-serif"
      font-size="17" font-weight="500" fill="#E7ECF4" opacity="0.95">
  <tspan x="432" dy="0">pulled from triage queue.</tspan>
</text>
<text x="876" y="214" font-family="Inter,Segoe UI,Arial,sans-serif"
      font-size="13" font-weight="700" fill="#E63946" letter-spacing="2">NODE 03</text>
<text x="876" y="242" font-family="Inter,Segoe UI,Arial,sans-serif"
      font-size="11" font-weight="600" fill="#8B94A8" letter-spacing="1.2">PRIORITY HIGH</text>
<text x="792" y="306" font-family="Inter,Segoe UI,Arial,sans-serif"
      font-size="24" font-weight="800" fill="#E7ECF4" letter-spacing="1.2">PALANTIR MEMO</text>
<line x1="792" y1="318" x2="864" y2="318"
      stroke="#E63946" stroke-width="3" stroke-linecap="round"/>
<text x="792" y="356" font-family="Inter,Segoe UI,Arial,sans-serif"
      font-size="17" font-weight="500" fill="#E7ECF4" opacity="0.95">
  <tspan x="792" dy="0">Manifesto slams inclusivity</tspan>
</text>
<text x="792" y="380" font-family="Inter,Segoe UI,Arial,sans-serif"
      font-size="17" font-weight="500" fill="#E7ECF4" opacity="0.95">
  <tspan x="792" dy="0">as regressive culture.</tspan>
</text>
<text x="78" y="494" font-family="Inter,Segoe UI,Arial,sans-serif" font-size="11" font-weight="700" fill="#8B94A8" letter-spacing="1.5">ALERT VOLUME (24H)</text><rect x="78" y="504" width="36" height="14" rx="3" fill="url(#barGrad)" opacity="0.9"><animate attributeName="height" values="6;14;6" dur="3.2s" begin="0.0s" repeatCount="indefinite"/><animate attributeName="y" values="512;504;512" dur="3.2s" begin="0.0s" repeatCount="indefinite"/></rect><rect x="78" y="501" width="36" height="3" rx="1.5" fill="#FFB703" opacity="0.85"><animate attributeName="opacity" values="0.3;0.95;0.3" dur="2.4s" begin="0.0s" repeatCount="indefinite"/></rect><rect x="132" y="496" width="36" height="22" rx="3" fill="url(#barGrad)" opacity="0.9"><animate attributeName="height" values="14;22;14" dur="3.2s" begin="0.4s" repeatCount="indefinite"/><animate attributeName="y" values="504;496;504" dur="3.2s" begin="0.4s" repeatCount="indefinite"/></rect><rect x="132" y="493" width="36" height="3" rx="1.5" fill="#FFB703" opacity="0.85"><animate attributeName="opacity" values="0.3;0.95;0.3" dur="2.4s" begin="0.3s" repeatCount="indefinite"/></rect><rect x="186" y="486" width="36" height="32" rx="3" fill="url(#barGrad)" opacity="0.9"><animate attributeName="height" values="24;32;24" dur="3.2s" begin="0.8s" repeatCount="indefinite"/><animate attributeName="y" values="494;486;494" dur="3.2s" begin="0.8s" repeatCount="indefinite"/></rect><rect x="186" y="483" width="36" height="3" rx="1.5" fill="#FFB703" opacity="0.85"><animate attributeName="opacity" values="0.3;0.95;0.3" dur="2.4s" begin="0.6s" repeatCount="indefinite"/></rect><rect x="240" y="472" width="36" height="46" rx="3" fill="url(#barGrad)" opacity="0.9"><animate attributeName="height" values="38;46;38" dur="3.2s" begin="1.2s" repeatCount="indefinite"/><animate attributeName="y" values="480;472;480" dur="3.2s" begin="1.2s" repeatCount="indefinite"/></rect><rect x="240" y="469" width="36" height="3" rx="1.5" fill="#FFB703" opacity="0.85"><animate attributeName="opacity" values="0.3;0.95;0.3" dur="2.4s" begin="0.9s" repeatCount="indefinite"/></rect><line x1="74" y1="519" x2="280" y2="519" stroke="#8B94A8" stroke-width="1.2" opacity="0.45"/><text x="438" y="494" font-family="Inter,Segoe UI,Arial,sans-serif" font-size="11" font-weight="700" fill="#8B94A8" letter-spacing="1.5">SEVERITY QUEUE</text><rect x="438" y="474" width="276" height="18" rx="4" fill="url(#critGrad)" opacity="0.94"><animate attributeName="width" values="260;276;260" dur="4.0s" repeatCount="indefinite"/></rect><text x="446" y="488" font-family="Inter,Segoe UI,Arial,sans-serif" font-size="11" font-weight="700" fill="#0B132B">HIGH / CRITICAL</text><rect x="438" y="500" width="180" height="14" rx="4" fill="#FFB703" opacity="0.22"><animate attributeName="width" values="180;120;180" dur="5.2s" repeatCount="indefinite"/><animate attributeName="opacity" values="0.22;0.12;0.22" dur="5.2s" repeatCount="indefinite"/></rect><text x="446" y="511" font-family="Inter,Segoe UI,Arial,sans-serif" font-size="10" font-weight="600" fill="#8B94A8" opacity="0.75">LOW (cut)</text><text x="798" y="494" font-family="Inter,Segoe UI,Arial,sans-serif" font-size="11" font-weight="700" fill="#8B94A8" letter-spacing="1.5">SENTIMENT RATIO</text><rect x="798" y="488" width="204" height="22" rx="4" fill="url(#critGrad)" opacity="0.94"><animate attributeName="width" values="190;204;190" dur="4.6s" repeatCount="indefinite"/></rect><rect x="1002" y="488" width="72" height="22" rx="4" fill="url(#greenGrad)" opacity="0.88"><animate attributeName="opacity" values="0.88;0.55;0.88" dur="4.6s" repeatCount="indefinite"/></rect><text x="806" y="504" font-family="Inter,Segoe UI,Arial,sans-serif" font-size="11" font-weight="700" fill="#0B132B">CRITICAL  74%</text><text x="798" y="526" font-family="Inter,Segoe UI,Arial,sans-serif" font-size="10" font-weight="600" fill="#8B94A8">26% defends inclusion norms</text><circle cx="396" cy="280" r="1.8" fill="#3A86FF" opacity="0.55"><animate attributeName="opacity" values="0.2;0.85;0.2" dur="3.0s" begin="0.0s" repeatCount="indefinite"/><animate attributeName="r" values="1.4;2.2;1.4" dur="3.0s" begin="0.0s" repeatCount="indefinite"/></circle><circle cx="396" cy="330" r="1.8" fill="#3A86FF" opacity="0.55"><animate attributeName="opacity" values="0.2;0.85;0.2" dur="3.4s" begin="0.2s" repeatCount="indefinite"/><animate attributeName="r" values="1.4;2.2;1.4" dur="3.4s" begin="0.2s" repeatCount="indefinite"/></circle><circle cx="396" cy="380" r="1.8" fill="#3A86FF" opacity="0.55"><animate attributeName="opacity" values="0.2;0.85;0.2" dur="3.8s" begin="0.4s" repeatCount="indefinite"/><animate attributeName="r" values="1.4;2.2;1.4" dur="3.8s" begin="0.4s" repeatCount="indefinite"/></circle><circle cx="396" cy="430" r="1.8" fill="#3A86FF" opacity="0.55"><animate attributeName="opacity" values="0.2;0.85;0.2" dur="4.2s" begin="0.6s" repeatCount="indefinite"/><animate attributeName="r" values="1.4;2.2;1.4" dur="4.2s" begin="0.6s" repeatCount="indefinite"/></circle><circle cx="396" cy="480" r="1.8" fill="#3A86FF" opacity="0.55"><animate attributeName="opacity" values="0.2;0.85;0.2" dur="3.0s" begin="0.8s" repeatCount="indefinite"/><animate attributeName="r" values="1.4;2.2;1.4" dur="3.0s" begin="0.8s" repeatCount="indefinite"/></circle><circle cx="756" cy="280" r="1.8" fill="#3A86FF" opacity="0.55"><animate attributeName="opacity" values="0.2;0.85;0.2" dur="3.4s" begin="1.0s" repeatCount="indefinite"/><animate attributeName="r" values="1.4;2.2;1.4" dur="3.4s" begin="1.0s" repeatCount="indefinite"/></circle><circle cx="756" cy="330" r="1.8" fill="#3A86FF" opacity="0.55"><animate attributeName="opacity" values="0.2;0.85;0.2" dur="3.8s" begin="1.2s" repeatCount="indefinite"/><animate attributeName="r" values="1.4;2.2;1.4" dur="3.8s" begin="1.2s" repeatCount="indefinite"/></circle><circle cx="756" cy="380" r="1.8" fill="#3A86FF" opacity="0.55"><animate attributeName="opacity" values="0.2;0.85;0.2" dur="4.2s" begin="1.4s" repeatCount="indefinite"/><animate attributeName="r" values="1.4;2.2;1.4" dur="4.2s" begin="1.4s" repeatCount="indefinite"/></circle><circle cx="756" cy="430" r="1.8" fill="#3A86FF" opacity="0.55"><animate attributeName="opacity" values="0.2;0.85;0.2" dur="3.0s" begin="1.6s" repeatCount="indefinite"/><animate attributeName="r" values="1.4;2.2;1.4" dur="3.0s" begin="1.6s" repeatCount="indefinite"/></circle><circle cx="756" cy="480" r="1.8" fill="#3A86FF" opacity="0.55"><animate attributeName="opacity" values="0.2;0.85;0.2" dur="3.4s" begin="1.8s" repeatCount="indefinite"/><animate attributeName="r" values="1.4;2.2;1.4" dur="3.4s" begin="1.8s" repeatCount="indefinite"/></circle><g>
  <rect x="1048" y="478" width="108" height="108" rx="12" ry="12" fill="url(#qrGlow)" opacity="0.6"/>
  <rect x="1052" y="482" width="100" height="100" rx="10" ry="10"
        fill="#FFFFFF" stroke="#FFB703" stroke-width="1.6"/>
  <g transform="translate(1060.000,490.000) scale(2.0444)">
    <path d="M2.0,2.0H3.0V3.0H2.0zM3.0,2.0H4.0V3.0H3.0zM4.0,2.0H5.0V3.0H4.0zM5.0,2.0H6.0V3.0H5.0zM6.0,2.0H7.0V3.0H6.0zM7.0,2.0H8.0V3.0H7.0zM8.0,2.0H9.0V3.0H8.0zM10.0,2.0H11.0V3.0H10.0zM13.0,2.0H14.0V3.0H13.0zM14.0,2.0H15.0V3.0H14.0zM15.0,2.0H16.0V3.0H15.0zM16.0,2.0H17.0V3.0H16.0zM19.0,2.0H20.0V3.0H19.0zM21.0,2.0H22.0V3.0H21.0zM22.0,2.0H23.0V3.0H22.0zM23.0,2.0H24.0V3.0H23.0zM24.0,2.0H25.0V3.0H24.0zM30.0,2.0H31.0V3.0H30.0zM31.0,2.0H32.0V3.0H31.0zM32.0,2.0H33.0V3.0H32.0zM33.0,2.0H34.0V3.0H33.0zM34.0,2.0H35.0V3.0H34.0zM36.0,2.0H37.0V3.0H36.0zM37.0,2.0H38.0V3.0H37.0zM38.0,2.0H39.0V3.0H38.0zM39.0,2.0H40.0V3.0H39.0zM40.0,2.0H41.0V3.0H40.0zM41.0,2.0H42.0V3.0H41.0zM42.0,2.0H43.0V3.0H42.0zM2.0,3.0H3.0V4.0H2.0zM8.0,3.0H9.0V4.0H8.0zM10.0,3.0H11.0V4.0H10.0zM11.0,3.0H12.0V4.0H11.0zM13.0,3.0H14.0V4.0H13.0zM15.0,3.0H16.0V4.0H15.0zM20.0,3.0H21.0V4.0H20.0zM25.0,3.0H26.0V4.0H25.0zM27.0,3.0H28.0V4.0H27.0zM28.0,3.0H29.0V4.0H28.0zM31.0,3.0H32.0V4.0H31.0zM32.0,3.0H33.0V4.0H32.0zM36.0,3.0H37.0V4.0H36.0zM42.0,3.0H43.0V4.0H42.0zM2.0,4.0H3.0V5.0H2.0zM4.0,4.0H5.0V5.0H4.0zM5.0,4.0H6.0V5.0H5.0zM6.0,4.0H7.0V5.0H6.0zM8.0,4.0H9.0V5.0H8.0zM12.0,4.0H13.0V5.0H12.0zM13.0,4.0H14.0V5.0H13.0zM14.0,4.0H15.0V5.0H14.0zM16.0,4.0H17.0V5.0H16.0zM18.0,4.0H19.0V5.0H18.0zM19.0,4.0H20.0V5.0H19.0zM21.0,4.0H22.0V5.0H21.0zM26.0,4.0H27.0V5.0H26.0zM27.0,4.0H28.0V5.0H27.0zM33.0,4.0H34.0V5.0H33.0zM34.0,4.0H35.0V5.0H34.0zM36.0,4.0H37.0V5.0H36.0zM38.0,4.0H39.0V5.0H38.0zM39.0,4.0H40.0V5.0H39.0zM40.0,4.0H41.0V5.0H40.0zM42.0,4.0H43.0V5.0H42.0zM2.0,5.0H3.0V6.0H2.0zM4.0,5.0H5.0V6.0H4.0zM5.0,5.0H6.0V6.0H5.0zM6.0,5.0H7.0V6.0H6.0zM8.0,5.0H9.0V6.0H8.0zM10.0,5.0H11.0V6.0H10.0zM13.0,5.0H14.0V6.0H13.0zM14.0,5.0H15.0V6.0H14.0zM16.0,5.0H17.0V6.0H16.0zM22.0,5.0H23.0V6.0H22.0zM23.0,5.0H24.0V6.0H23.0zM27.0,5.0H28.0V6.0H27.0zM29.0,5.0H30.0V6.0H29.0zM30.0,5.0H31.0V6.0H30.0zM31.0,5.0H32.0V6.0H31.0zM34.0,5.0H35.0V6.0H34.0zM36.0,5.0H37.0V6.0H36.0zM38.0,5.0H39.0V6.0H38.0zM39.0,5.0H40.0V6.0H39.0zM40.0,5.0H41.0V6.0H40.0zM42.0,5.0H43.0V6.0H42.0zM2.0,6.0H3.0V7.0H2.0zM4.0,6.0H5.0V7.0H4.0zM5.0,6.0H6.0V7.0H5.0zM6.0,6.0H7.0V7.0H6.0zM8.0,6.0H9.0V7.0H8.0zM11.0,6.0H12.0V7.0H11.0zM14.0,6.0H15.0V7.0H14.0zM15.0,6.0H16.0V7.0H15.0zM18.0,6.0H19.0V7.0H18.0zM24.0,6.0H25.0V7.0H24.0zM25.0,6.0H26.0V7.0H25.0zM26.0,6.0H27.0V7.0H26.0zM28.0,6.0H29.0V7.0H28.0zM29.0,6.0H30.0V7.0H29.0zM31.0,6.0H32.0V7.0H31.0zM33.0,6.0H34.0V7.0H33.0zM34.0,6.0H35.0V7.0H34.0zM36.0,6.0H37.0V7.0H36.0zM38.0,6.0H39.0V7.0H38.0zM39.0,6.0H40.0V7.0H39.0zM40.0,6.0H41.0V7.0H40.0zM42.0,6.0H43.0V7.0H42.0zM2.0,7.0H3.0V8.0H2.0zM8.0,7.0H9.0V8.0H8.0zM13.0,7.0H14.0V8.0H13.0zM14.0,7.0H15.0V8.0H14.0zM17.0,7.0H18.0V8.0H17.0zM19.0,7.0H20.0V8.0H19.0zM20.0,7.0H21.0V8.0H20.0zM21.0,7.0H22.0V8.0H21.0zM22.0,7.0H23.0V8.0H22.0zM23.0,7.0H24.0V8.0H23.0zM24.0,7.0H25.0V8.0H24.0zM26.0,7.0H27.0V8.0H26.0zM30.0,7.0H31.0V8.0H30.0zM32.0,7.0H33.0V8.0H32.0zM33.0,7.0H34.0V8.0H33.0zM36.0,7.0H37.0V8.0H36.0zM42.0,7.0H43.0V8.0H42.0zM2.0,8.0H3.0V9.0H2.0zM3.0,8.0H4.0V9.0H3.0zM4.0,8.0H5.0V9.0H4.0zM5.0,8.0H6.0V9.0H5.0zM6.0,8.0H7.0V9.0H6.0zM7.0,8.0H8.0V9.0H7.0zM8.0,8.0H9.0V9.0H8.0zM10.0,8.0H11.0V9.0H10.0zM12.0,8.0H13.0V9.0H12.0zM14.0,8.0H15.0V9.0H14.0zM16.0,8.0H17.0V9.0H16.0zM18.0,8.0H19.0V9.0H18.0zM20.0,8.0H21.0V9.0H20.0zM22.0,8.0H23.0V9.0H22.0zM24.0,8.0H25.0V9.0H24.0zM26.0,8.0H27.0V9.0H26.0zM28.0,8.0H29.0V9.0H28.0zM30.0,8.0H31.0V9.0H30.0zM32.0,8.0H33.0V9.0H32.0zM34.0,8.0H35.0V9.0H34.0zM36.0,8.0H37.0V9.0H36.0zM37.0,8.0H38.0V9.0H37.0zM38.0,8.0H39.0V9.0H38.0zM39.0,8.0H40.0V9.0H39.0zM40.0,8.0H41.0V9.0H40.0zM41.0,8.0H42.0V9.0H41.0zM42.0,8.0H43.0V9.0H42.0zM10.0,9.0H11.0V10.0H10.0zM11.0,9.0H12.0V10.0H11.0zM13.0,9.0H14.0V10.0H13.0zM18.0,9.0H19.0V10.0H18.0zM19.0,9.0H20.0V10.0H19.0zM21.0,9.0H22.0V10.0H21.0zM26.0,9.0H27.0V10.0H26.0zM28.0,9.0H29.0V10.0H28.0zM31.0,9.0H32.0V10.0H31.0zM33.0,9.0H34.0V10.0H33.0zM34.0,9.0H35.0V10.0H34.0zM2.0,10.0H3.0V11.0H2.0zM4.0,10.0H5.0V11.0H4.0zM5.0,10.0H6.0V11.0H5.0zM7.0,10.0H8.0V11.0H7.0zM8.0,10.0H9.0V11.0H8.0zM9.0,10.0H10.0V11.0H9.0zM12.0,10.0H13.0V11.0H12.0zM14.0,10.0H15.0V11.0H14.0zM16.0,10.0H17.0V11.0H16.0zM19.0,10.0H20.0V11.0H19.0zM20.0,10.0H21.0V11.0H20.0zM23.0,10.0H24.0V11.0H23.0zM25.0,10.0H26.0V11.0H25.0zM26.0,10.0H27.0V11.0H26.0zM28.0,10.0H29.0V11.0H28.0zM31.0,10.0H32.0V11.0H31.0zM32.0,10.0H33.0V11.0H32.0zM33.0,10.0H34.0V11.0H33.0zM34.0,10.0H35.0V11.0H34.0zM36.0,10.0H37.0V11.0H36.0zM39.0,10.0H40.0V11.0H39.0zM41.0,10.0H42.0V11.0H41.0zM42.0,10.0H43.0V11.0H42.0zM2.0,11.0H3.0V12.0H2.0zM4.0,11.0H5.0V12.0H4.0zM5.0,11.0H6.0V12.0H5.0zM9.0,11.0H10.0V12.0H9.0zM10.0,11.0H11.0V12.0H10.0zM12.0,11.0H13.0V12.0H12.0zM13.0,11.0H14.0V12.0H13.0zM14.0,11.0H15.0V12.0H14.0zM15.0,11.0H16.0V12.0H15.0zM18.0,11.0H19.0V12.0H18.0zM20.0,11.0H21.0V12.0H20.0zM21.0,11.0H22.0V12.0H21.0zM23.0,11.0H24.0V12.0H23.0zM25.0,11.0H26.0V12.0H25.0zM28.0,11.0H29.0V12.0H28.0zM32.0,11.0H33.0V12.0H32.0zM33.0,11.0H34.0V12.0H33.0zM34.0,11.0H35.0V12.0H34.0zM37.0,11.0H38.0V12.0H37.0zM38.0,11.0H39.0V12.0H38.0zM40.0,11.0H41.0V12.0H40.0zM6.0,12.0H7.0V13.0H6.0zM7.0,12.0H8.0V13.0H7.0zM8.0,12.0H9.0V13.0H8.0zM10.0,12.0H11.0V13.0H10.0zM11.0,12.0H12.0V13.0H11.0zM13.0,12.0H14.0V13.0H13.0zM17.0,12.0H18.0V13.0H17.0zM22.0,12.0H23.0V13.0H22.0zM24.0,12.0H25.0V13.0H24.0zM25.0,12.0H26.0V13.0H25.0zM31.0,12.0H32.0V13.0H31.0zM40.0,12.0H41.0V13.0H40.0zM41.0,12.0H42.0V13.0H41.0zM2.0,13.0H3.0V14.0H2.0zM3.0,13.0H4.0V14.0H3.0zM7.0,13.0H8.0V14.0H7.0zM9.0,13.0H10.0V14.0H9.0zM13.0,13.0H14.0V14.0H13.0zM14.0,13.0H15.0V14.0H14.0zM16.0,13.0H17.0V14.0H16.0zM20.0,13.0H21.0V14.0H20.0zM22.0,13.0H23.0V14.0H22.0zM24.0,13.0H25.0V14.0H24.0zM26.0,13.0H27.0V14.0H26.0zM27.0,13.0H28.0V14.0H27.0zM29.0,13.0H30.0V14.0H29.0zM34.0,13.0H35.0V14.0H34.0zM35.0,13.0H36.0V14.0H35.0zM38.0,13.0H39.0V14.0H38.0zM41.0,13.0H42.0V14.0H41.0zM42.0,13.0H43.0V14.0H42.0zM2.0,14.0H3.0V15.0H2.0zM3.0,14.0H4.0V15.0H3.0zM5.0,14.0H6.0V15.0H5.0zM6.0,14.0H7.0V15.0H6.0zM8.0,14.0H9.0V15.0H8.0zM9.0,14.0H10.0V15.0H9.0zM14.0,14.0H15.0V15.0H14.0zM15.0,14.0H16.0V15.0H15.0zM16.0,14.0H17.0V15.0H16.0zM18.0,14.0H19.0V15.0H18.0zM19.0,14.0H20.0V15.0H19.0zM21.0,14.0H22.0V15.0H21.0zM22.0,14.0H23.0V15.0H22.0zM24.0,14.0H25.0V15.0H24.0zM26.0,14.0H27.0V15.0H26.0zM27.0,14.0H28.0V15.0H27.0zM30.0,14.0H31.0V15.0H30.0zM31.0,14.0H32.0V15.0H31.0zM32.0,14.0H33.0V15.0H32.0zM33.0,14.0H34.0V15.0H33.0zM37.0,14.0H38.0V15.0H37.0zM39.0,14.0H40.0V15.0H39.0zM40.0,14.0H41.0V15.0H40.0zM3.0,15.0H4.0V16.0H3.0zM4.0,15.0H5.0V16.0H4.0zM5.0,15.0H6.0V16.0H5.0zM7.0,15.0H8.0V16.0H7.0zM9.0,15.0H10.0V16.0H9.0zM10.0,15.0H11.0V16.0H10.0zM12.0,15.0H13.0V16.0H12.0zM13.0,15.0H14.0V16.0H13.0zM14.0,15.0H15.0V16.0H14.0zM16.0,15.0H17.0V16.0H16.0zM18.0,15.0H19.0V16.0H18.0zM19.0,15.0H20.0V16.0H19.0zM22.0,15.0H23.0V16.0H22.0zM23.0,15.0H24.0V16.0H23.0zM25.0,15.0H26.0V16.0H25.0zM26.0,15.0H27.0V16.0H26.0zM27.0,15.0H28.0V16.0H27.0zM28.0,15.0H29.0V16.0H28.0zM29.0,15.0H30.0V16.0H29.0zM30.0,15.0H31.0V16.0H30.0zM32.0,15.0H33.0V16.0H32.0zM33.0,15.0H34.0V16.0H33.0zM35.0,15.0H36.0V16.0H35.0zM39.0,15.0H40.0V16.0H39.0zM41.0,15.0H42.0V16.0H41.0zM42.0,15.0H43.0V16.0H42.0zM3.0,16.0H4.0V17.0H3.0zM4.0,16.0H5.0V17.0H4.0zM5.0,16.0H6.0V17.0H5.0zM6.0,16.0H7.0V17.0H6.0zM7.0,16.0H8.0V17.0H7.0zM8.0,16.0H9.0V17.0H8.0zM11.0,16.0H12.0V17.0H11.0zM13.0,16.0H14.0V17.0H13.0zM16.0,16.0H17.0V17.0H16.0zM17.0,16.0H18.0V17.0H17.0zM21.0,16.0H22.0V17.0H21.0zM22.0,16.0H23.0V17.0H22.0zM23.0,16.0H24.0V17.0H23.0zM25.0,16.0H26.0V17.0H25.0zM27.0,16.0H28.0V17.0H27.0zM31.0,16.0H32.0V17.0H31.0zM33.0,16.0H34.0V17.0H33.0zM34.0,16.0H35.0V17.0H34.0zM36.0,16.0H37.0V17.0H36.0zM37.0,16.0H38.0V17.0H37.0zM38.0,16.0H39.0V17.0H38.0zM40.0,16.0H41.0V17.0H40.0zM41.0,16.0H42.0V17.0H41.0zM42.0,16.0H43.0V17.0H42.0zM2.0,17.0H3.0V18.0H2.0zM3.0,17.0H4.0V18.0H3.0zM4.0,17.0H5.0V18.0H4.0zM5.0,17.0H6.0V18.0H5.0zM9.0,17.0H10.0V18.0H9.0zM13.0,17.0H14.0V18.0H13.0zM15.0,17.0H16.0V18.0H15.0zM16.0,17.0H17.0V18.0H16.0zM18.0,17.0H19.0V18.0H18.0zM20.0,17.0H21.0V18.0H20.0zM23.0,17.0H24.0V18.0H23.0zM24.0,17.0H25.0V18.0H24.0zM25.0,17.0H26.0V18.0H25.0zM28.0,17.0H29.0V18.0H28.0zM29.0,17.0H30.0V18.0H29.0zM36.0,17.0H37.0V18.0H36.0zM38.0,17.0H39.0V18.0H38.0zM39.0,17.0H40.0V18.0H39.0zM3.0,18.0H4.0V19.0H3.0zM5.0,18.0H6.0V19.0H5.0zM6.0,18.0H7.0V19.0H6.0zM8.0,18.0H9.0V19.0H8.0zM10.0,18.0H11.0V19.0H10.0zM12.0,18.0H13.0V19.0H12.0zM13.0,18.0H14.0V19.0H13.0zM14.0,18.0H15.0V19.0H14.0zM17.0,18.0H18.0V19.0H17.0zM18.0,18.0H19.0V19.0H18.0zM20.0,18.0H21.0V19.0H20.0zM22.0,18.0H23.0V19.0H22.0zM24.0,18.0H25.0V19.0H24.0zM26.0,18.0H27.0V19.0H26.0zM27.0,18.0H28.0V19.0H27.0zM29.0,18.0H30.0V19.0H29.0zM32.0,18.0H33.0V19.0H32.0zM34.0,18.0H35.0V19.0H34.0zM38.0,18.0H39.0V19.0H38.0zM39.0,18.0H40.0V19.0H39.0zM41.0,18.0H42.0V19.0H41.0zM3.0,19.0H4.0V20.0H3.0zM5.0,19.0H6.0V20.0H5.0zM9.0,19.0H10.0V20.0H9.0zM14.0,19.0H15.0V20.0H14.0zM16.0,19.0H17.0V20.0H16.0zM18.0,19.0H19.0V20.0H18.0zM20.0,19.0H21.0V20.0H20.0zM21.0,19.0H22.0V20.0H21.0zM22.0,19.0H23.0V20.0H22.0zM23.0,19.0H24.0V20.0H23.0zM24.0,19.0H25.0V20.0H24.0zM25.0,19.0H26.0V20.0H25.0zM26.0,19.0H27.0V20.0H26.0zM34.0,19.0H35.0V20.0H34.0zM35.0,19.0H36.0V20.0H35.0zM37.0,19.0H38.0V20.0H37.0zM39.0,19.0H40.0V20.0H39.0zM2.0,20.0H3.0V21.0H2.0zM4.0,20.0H5.0V21.0H4.0zM6.0,20.0H7.0V21.0H6.0zM8.0,20.0H9.0V21.0H8.0zM9.0,20.0H10.0V21.0H9.0zM10.0,20.0H11.0V21.0H10.0zM11.0,20.0H12.0V21.0H11.0zM12.0,20.0H13.0V21.0H12.0zM15.0,20.0H16.0V21.0H15.0zM16.0,20.0H17.0V21.0H16.0zM18.0,20.0H19.0V21.0H18.0zM20.0,20.0H21.0V21.0H20.0zM22.0,20.0H23.0V21.0H22.0zM24.0,20.0H25.0V21.0H24.0zM27.0,20.0H28.0V21.0H27.0zM28.0,20.0H29.0V21.0H28.0zM29.0,20.0H30.0V21.0H29.0zM30.0,20.0H31.0V21.0H30.0zM32.0,20.0H33.0V21.0H32.0zM34.0,20.0H35.0V21.0H34.0zM38.0,20.0H39.0V21.0H38.0zM40.0,20.0H41.0V21.0H40.0zM41.0,20.0H42.0V21.0H41.0zM2.0,21.0H3.0V22.0H2.0zM3.0,21.0H4.0V22.0H3.0zM6.0,21.0H7.0V22.0H6.0zM9.0,21.0H10.0V22.0H9.0zM13.0,21.0H14.0V22.0H13.0zM19.0,21.0H20.0V22.0H19.0zM20.0,21.0H21.0V22.0H20.0zM21.0,21.0H22.0V22.0H21.0zM23.0,21.0H24.0V22.0H23.0zM29.0,21.0H30.0V22.0H29.0zM30.0,21.0H31.0V22.0H30.0zM31.0,21.0H32.0V22.0H31.0zM32.0,21.0H33.0V22.0H32.0zM37.0,21.0H38.0V22.0H37.0zM39.0,21.0H40.0V22.0H39.0zM40.0,21.0H41.0V22.0H40.0zM41.0,21.0H42.0V22.0H41.0zM2.0,22.0H3.0V23.0H2.0zM3.0,22.0H4.0V23.0H3.0zM4.0,22.0H5.0V23.0H4.0zM5.0,22.0H6.0V23.0H5.0zM8.0,22.0H9.0V23.0H8.0zM9.0,22.0H10.0V23.0H9.0zM10.0,22.0H11.0V23.0H10.0zM11.0,22.0H12.0V23.0H11.0zM12.0,22.0H13.0V23.0H12.0zM13.0,22.0H14.0V23.0H13.0zM14.0,22.0H15.0V23.0H14.0zM22.0,22.0H23.0V23.0H22.0zM27.0,22.0H28.0V23.0H27.0zM29.0,22.0H30.0V23.0H29.0zM31.0,22.0H32.0V23.0H31.0zM32.0,22.0H33.0V23.0H32.0zM33.0,22.0H34.0V23.0H33.0zM34.0,22.0H35.0V23.0H34.0zM35.0,22.0H36.0V23.0H35.0zM36.0,22.0H37.0V23.0H36.0zM37.0,22.0H38.0V23.0H37.0zM39.0,22.0H40.0V23.0H39.0zM40.0,22.0H41.0V23.0H40.0zM41.0,22.0H42.0V23.0H41.0zM2.0,23.0H3.0V24.0H2.0zM9.0,23.0H10.0V24.0H9.0zM11.0,23.0H12.0V24.0H11.0zM12.0,23.0H13.0V24.0H12.0zM13.0,23.0H14.0V24.0H13.0zM16.0,23.0H17.0V24.0H16.0zM17.0,23.0H18.0V24.0H17.0zM18.0,23.0H19.0V24.0H18.0zM22.0,23.0H23.0V24.0H22.0zM23.0,23.0H24.0V24.0H23.0zM25.0,23.0H26.0V24.0H25.0zM26.0,23.0H27.0V24.0H26.0zM32.0,23.0H33.0V24.0H32.0zM33.0,23.0H34.0V24.0H33.0zM36.0,23.0H37.0V24.0H36.0zM37.0,23.0H38.0V24.0H37.0zM38.0,23.0H39.0V24.0H38.0zM39.0,23.0H40.0V24.0H39.0zM40.0,23.0H41.0V24.0H40.0zM41.0,23.0H42.0V24.0H41.0zM42.0,23.0H43.0V24.0H42.0zM3.0,24.0H4.0V25.0H3.0zM6.0,24.0H7.0V25.0H6.0zM8.0,24.0H9.0V25.0H8.0zM9.0,24.0H10.0V25.0H9.0zM10.0,24.0H11.0V25.0H10.0zM11.0,24.0H12.0V25.0H11.0zM13.0,24.0H14.0V25.0H13.0zM15.0,24.0H16.0V25.0H15.0zM16.0,24.0H17.0V25.0H16.0zM18.0,24.0H19.0V25.0H18.0zM22.0,24.0H23.0V25.0H22.0zM25.0,24.0H26.0V25.0H25.0zM30.0,24.0H31.0V25.0H30.0zM31.0,24.0H32.0V25.0H31.0zM32.0,24.0H33.0V25.0H32.0zM35.0,24.0H36.0V25.0H35.0zM36.0,24.0H37.0V25.0H36.0zM38.0,24.0H39.0V25.0H38.0zM39.0,24.0H40.0V25.0H39.0zM41.0,24.0H42.0V25.0H41.0zM2.0,25.0H3.0V26.0H2.0zM4.0,25.0H5.0V26.0H4.0zM9.0,25.0H10.0V26.0H9.0zM10.0,25.0H11.0V26.0H10.0zM11.0,25.0H12.0V26.0H11.0zM12.0,25.0H13.0V26.0H12.0zM15.0,25.0H16.0V26.0H15.0zM18.0,25.0H19.0V26.0H18.0zM20.0,25.0H21.0V26.0H20.0zM21.0,25.0H22.0V26.0H21.0zM27.0,25.0H28.0V26.0H27.0zM29.0,25.0H30.0V26.0H29.0zM32.0,25.0H33.0V26.0H32.0zM34.0,25.0H35.0V26.0H34.0zM35.0,25.0H36.0V26.0H35.0zM37.0,25.0H38.0V26.0H37.0zM41.0,25.0H42.0V26.0H41.0zM2.0,26.0H3.0V27.0H2.0zM7.0,26.0H8.0V27.0H7.0zM8.0,26.0H9.0V27.0H8.0zM13.0,26.0H14.0V27.0H13.0zM15.0,26.0H16.0V27.0H15.0zM17.0,26.0H18.0V27.0H17.0zM18.0,26.0H19.0V27.0H18.0zM19.0,26.0H20.0V27.0H19.0zM21.0,26.0H22.0V27.0H21.0zM24.0,26.0H25.0V27.0H24.0zM26.0,26.0H27.0V27.0H26.0zM27.0,26.0H28.0V27.0H27.0zM28.0,26.0H29.0V27.0H28.0zM31.0,26.0H32.0V27.0H31.0zM33.0,26.0H34.0V27.0H33.0zM37.0,26.0H38.0V27.0H37.0zM42.0,26.0H43.0V27.0H42.0zM4.0,27.0H5.0V28.0H4.0zM5.0,27.0H6.0V28.0H5.0zM6.0,27.0H7.0V28.0H6.0zM7.0,27.0H8.0V28.0H7.0zM9.0,27.0H10.0V28.0H9.0zM10.0,27.0H11.0V28.0H10.0zM11.0,27.0H12.0V28.0H11.0zM16.0,27.0H17.0V28.0H16.0zM17.0,27.0H18.0V28.0H17.0zM19.0,27.0H20.0V28.0H19.0zM21.0,27.0H22.0V28.0H21.0zM26.0,27.0H27.0V28.0H26.0zM27.0,27.0H28.0V28.0H27.0zM29.0,27.0H30.0V28.0H29.0zM31.0,27.0H32.0V28.0H31.0zM33.0,27.0H34.0V28.0H33.0zM34.0,27.0H35.0V28.0H34.0zM35.0,27.0H36.0V28.0H35.0zM39.0,27.0H40.0V28.0H39.0zM40.0,27.0H41.0V28.0H40.0zM42.0,27.0H43.0V28.0H42.0zM2.0,28.0H3.0V29.0H2.0zM3.0,28.0H4.0V29.0H3.0zM4.0,28.0H5.0V29.0H4.0zM7.0,28.0H8.0V29.0H7.0zM8.0,28.0H9.0V29.0H8.0zM11.0,28.0H12.0V29.0H11.0zM12.0,28.0H13.0V29.0H12.0zM16.0,28.0H17.0V29.0H16.0zM17.0,28.0H18.0V29.0H17.0zM18.0,28.0H19.0V29.0H18.0zM20.0,28.0H21.0V29.0H20.0zM21.0,28.0H22.0V29.0H21.0zM22.0,28.0H23.0V29.0H22.0zM26.0,28.0H27.0V29.0H26.0zM28.0,28.0H29.0V29.0H28.0zM30.0,28.0H31.0V29.0H30.0zM31.0,28.0H32.0V29.0H31.0zM33.0,28.0H34.0V29.0H33.0zM34.0,28.0H35.0V29.0H34.0zM35.0,28.0H36.0V29.0H35.0zM39.0,28.0H40.0V29.0H39.0zM41.0,28.0H42.0V29.0H41.0zM42.0,28.0H43.0V29.0H42.0zM2.0,29.0H3.0V30.0H2.0zM3.0,29.0H4.0V30.0H3.0zM4.0,29.0H5.0V30.0H4.0zM5.0,29.0H6.0V30.0H5.0zM6.0,29.0H7.0V30.0H6.0zM12.0,29.0H13.0V30.0H12.0zM16.0,29.0H17.0V30.0H16.0zM17.0,29.0H18.0V30.0H17.0zM18.0,29.0H19.0V30.0H18.0zM21.0,29.0H22.0V30.0H21.0zM22.0,29.0H23.0V30.0H22.0zM23.0,29.0H24.0V30.0H23.0zM24.0,29.0H25.0V30.0H24.0zM25.0,29.0H26.0V30.0H25.0zM28.0,29.0H29.0V30.0H28.0zM29.0,29.0H30.0V30.0H29.0zM32.0,29.0H33.0V30.0H32.0zM33.0,29.0H34.0V30.0H33.0zM34.0,29.0H35.0V30.0H34.0zM36.0,29.0H37.0V30.0H36.0zM37.0,29.0H38.0V30.0H37.0zM38.0,29.0H39.0V30.0H38.0zM39.0,29.0H40.0V30.0H39.0zM41.0,29.0H42.0V30.0H41.0zM2.0,30.0H3.0V31.0H2.0zM3.0,30.0H4.0V31.0H3.0zM6.0,30.0H7.0V31.0H6.0zM8.0,30.0H9.0V31.0H8.0zM9.0,30.0H10.0V31.0H9.0zM10.0,30.0H11.0V31.0H10.0zM11.0,30.0H12.0V31.0H11.0zM12.0,30.0H13.0V31.0H12.0zM13.0,30.0H14.0V31.0H13.0zM16.0,30.0H17.0V31.0H16.0zM20.0,30.0H21.0V31.0H20.0zM21.0,30.0H22.0V31.0H21.0zM22.0,30.0H23.0V31.0H22.0zM23.0,30.0H24.0V31.0H23.0zM24.0,30.0H25.0V31.0H24.0zM26.0,30.0H27.0V31.0H26.0zM27.0,30.0H28.0V31.0H27.0zM28.0,30.0H29.0V31.0H28.0zM29.0,30.0H30.0V31.0H29.0zM33.0,30.0H34.0V31.0H33.0zM34.0,30.0H35.0V31.0H34.0zM35.0,30.0H36.0V31.0H35.0zM38.0,30.0H39.0V31.0H38.0zM39.0,30.0H40.0V31.0H39.0zM41.0,30.0H42.0V31.0H41.0zM42.0,30.0H43.0V31.0H42.0zM6.0,31.0H7.0V32.0H6.0zM10.0,31.0H11.0V32.0H10.0zM12.0,31.0H13.0V32.0H12.0zM13.0,31.0H14.0V32.0H13.0zM14.0,31.0H15.0V32.0H14.0zM15.0,31.0H16.0V32.0H15.0zM16.0,31.0H17.0V32.0H16.0zM18.0,31.0H19.0V32.0H18.0zM21.0,31.0H22.0V32.0H21.0zM22.0,31.0H23.0V32.0H22.0zM24.0,31.0H25.0V32.0H24.0zM27.0,31.0H28.0V32.0H27.0zM28.0,31.0H29.0V32.0H28.0zM29.0,31.0H30.0V32.0H29.0zM31.0,31.0H32.0V32.0H31.0zM32.0,31.0H33.0V32.0H32.0zM34.0,31.0H35.0V32.0H34.0zM35.0,31.0H36.0V32.0H35.0zM36.0,31.0H37.0V32.0H36.0zM37.0,31.0H38.0V32.0H37.0zM39.0,31.0H40.0V32.0H39.0zM41.0,31.0H42.0V32.0H41.0zM2.0,32.0H3.0V33.0H2.0zM4.0,32.0H5.0V33.0H4.0zM6.0,32.0H7.0V33.0H6.0zM8.0,32.0H9.0V33.0H8.0zM9.0,32.0H10.0V33.0H9.0zM11.0,32.0H12.0V33.0H11.0zM12.0,32.0H13.0V33.0H12.0zM14.0,32.0H15.0V33.0H14.0zM20.0,32.0H21.0V33.0H20.0zM21.0,32.0H22.0V33.0H21.0zM23.0,32.0H24.0V33.0H23.0zM27.0,32.0H28.0V33.0H27.0zM28.0,32.0H29.0V33.0H28.0zM29.0,32.0H30.0V33.0H29.0zM35.0,32.0H36.0V33.0H35.0zM36.0,32.0H37.0V33.0H36.0zM37.0,32.0H38.0V33.0H37.0zM4.0,33.0H5.0V34.0H4.0zM6.0,33.0H7.0V34.0H6.0zM7.0,33.0H8.0V34.0H7.0zM9.0,33.0H10.0V34.0H9.0zM16.0,33.0H17.0V34.0H16.0zM18.0,33.0H19.0V34.0H18.0zM19.0,33.0H20.0V34.0H19.0zM21.0,33.0H22.0V34.0H21.0zM24.0,33.0H25.0V34.0H24.0zM25.0,33.0H26.0V34.0H25.0zM30.0,33.0H31.0V34.0H30.0zM31.0,33.0H32.0V34.0H31.0zM34.0,33.0H35.0V34.0H34.0zM36.0,33.0H37.0V34.0H36.0zM38.0,33.0H39.0V34.0H38.0zM39.0,33.0H40.0V34.0H39.0zM40.0,33.0H41.0V34.0H40.0zM41.0,33.0H42.0V34.0H41.0zM42.0,33.0H43.0V34.0H42.0zM3.0,34.0H4.0V35.0H3.0zM6.0,34.0H7.0V35.0H6.0zM8.0,34.0H9.0V35.0H8.0zM9.0,34.0H10.0V35.0H9.0zM10.0,34.0H11.0V35.0H10.0zM12.0,34.0H13.0V35.0H12.0zM14.0,34.0H15.0V35.0H14.0zM15.0,34.0H16.0V35.0H15.0zM17.0,34.0H18.0V35.0H17.0zM18.0,34.0H19.0V35.0H18.0zM19.0,34.0H20.0V35.0H19.0zM20.0,34.0H21.0V35.0H20.0zM22.0,34.0H23.0V35.0H22.0zM26.0,34.0H27.0V35.0H26.0zM28.0,34.0H29.0V35.0H28.0zM31.0,34.0H32.0V35.0H31.0zM32.0,34.0H33.0V35.0H32.0zM33.0,34.0H34.0V35.0H33.0zM34.0,34.0H35.0V35.0H34.0zM35.0,34.0H36.0V35.0H35.0zM36.0,34.0H37.0V35.0H36.0zM37.0,34.0H38.0V35.0H37.0zM38.0,34.0H39.0V35.0H38.0zM39.0,34.0H40.0V35.0H39.0zM40.0,34.0H41.0V35.0H40.0zM42.0,34.0H43.0V35.0H42.0zM10.0,35.0H11.0V36.0H10.0zM12.0,35.0H13.0V36.0H12.0zM13.0,35.0H14.0V36.0H13.0zM17.0,35.0H18.0V36.0H17.0zM19.0,35.0H20.0V36.0H19.0zM20.0,35.0H21.0V36.0H20.0zM22.0,35.0H23.0V36.0H22.0zM23.0,35.0H24.0V36.0H23.0zM25.0,35.0H26.0V36.0H25.0zM27.0,35.0H28.0V36.0H27.0zM29.0,35.0H30.0V36.0H29.0zM30.0,35.0H31.0V36.0H30.0zM31.0,35.0H32.0V36.0H31.0zM34.0,35.0H35.0V36.0H34.0zM38.0,35.0H39.0V36.0H38.0zM40.0,35.0H41.0V36.0H40.0zM41.0,35.0H42.0V36.0H41.0zM42.0,35.0H43.0V36.0H42.0zM2.0,36.0H3.0V37.0H2.0zM3.0,36.0H4.0V37.0H3.0zM4.0,36.0H5.0V37.0H4.0zM5.0,36.0H6.0V37.0H5.0zM6.0,36.0H7.0V37.0H6.0zM7.0,36.0H8.0V37.0H7.0zM8.0,36.0H9.0V37.0H8.0zM10.0,36.0H11.0V37.0H10.0zM15.0,36.0H16.0V37.0H15.0zM17.0,36.0H18.0V37.0H17.0zM20.0,36.0H21.0V37.0H20.0zM25.0,36.0H26.0V37.0H25.0zM26.0,36.0H27.0V37.0H26.0zM27.0,36.0H28.0V37.0H27.0zM30.0,36.0H31.0V37.0H30.0zM32.0,36.0H33.0V37.0H32.0zM33.0,36.0H34.0V37.0H33.0zM34.0,36.0H35.0V37.0H34.0zM36.0,36.0H37.0V37.0H36.0zM38.0,36.0H39.0V37.0H38.0zM39.0,36.0H40.0V37.0H39.0zM40.0,36.0H41.0V37.0H40.0zM41.0,36.0H42.0V37.0H41.0zM2.0,37.0H3.0V38.0H2.0zM8.0,37.0H9.0V38.0H8.0zM10.0,37.0H11.0V38.0H10.0zM13.0,37.0H14.0V38.0H13.0zM16.0,37.0H17.0V38.0H16.0zM18.0,37.0H19.0V38.0H18.0zM19.0,37.0H20.0V38.0H19.0zM21.0,37.0H22.0V38.0H21.0zM26.0,37.0H27.0V38.0H26.0zM30.0,37.0H31.0V38.0H30.0zM34.0,37.0H35.0V38.0H34.0zM38.0,37.0H39.0V38.0H38.0zM41.0,37.0H42.0V38.0H41.0zM2.0,38.0H3.0V39.0H2.0zM4.0,38.0H5.0V39.0H4.0zM5.0,38.0H6.0V39.0H5.0zM6.0,38.0H7.0V39.0H6.0zM8.0,38.0H9.0V39.0H8.0zM11.0,38.0H12.0V39.0H11.0zM15.0,38.0H16.0V39.0H15.0zM21.0,38.0H22.0V39.0H21.0zM23.0,38.0H24.0V39.0H23.0zM28.0,38.0H29.0V39.0H28.0zM31.0,38.0H32.0V39.0H31.0zM34.0,38.0H35.0V39.0H34.0zM35.0,38.0H36.0V39.0H35.0zM36.0,38.0H37.0V39.0H36.0zM37.0,38.0H38.0V39.0H37.0zM38.0,38.0H39.0V39.0H38.0zM39.0,38.0H40.0V39.0H39.0zM40.0,38.0H41.0V39.0H40.0zM42.0,38.0H43.0V39.0H42.0zM2.0,39.0H3.0V40.0H2.0zM4.0,39.0H5.0V40.0H4.0zM5.0,39.0H6.0V40.0H5.0zM6.0,39.0H7.0V40.0H6.0zM8.0,39.0H9.0V40.0H8.0zM10.0,39.0H11.0V40.0H10.0zM11.0,39.0H12.0V40.0H11.0zM14.0,39.0H15.0V40.0H14.0zM16.0,39.0H17.0V40.0H16.0zM18.0,39.0H19.0V40.0H18.0zM19.0,39.0H20.0V40.0H19.0zM21.0,39.0H22.0V40.0H21.0zM24.0,39.0H25.0V40.0H24.0zM28.0,39.0H29.0V40.0H28.0zM29.0,39.0H30.0V40.0H29.0zM31.0,39.0H32.0V40.0H31.0zM32.0,39.0H33.0V40.0H32.0zM33.0,39.0H34.0V40.0H33.0zM38.0,39.0H39.0V40.0H38.0zM40.0,39.0H41.0V40.0H40.0zM41.0,39.0H42.0V40.0H41.0zM2.0,40.0H3.0V41.0H2.0zM4.0,40.0H5.0V41.0H4.0zM5.0,40.0H6.0V41.0H5.0zM6.0,40.0H7.0V41.0H6.0zM8.0,40.0H9.0V41.0H8.0zM10.0,40.0H11.0V41.0H10.0zM12.0,40.0H13.0V41.0H12.0zM13.0,40.0H14.0V41.0H13.0zM16.0,40.0H17.0V41.0H16.0zM17.0,40.0H18.0V41.0H17.0zM18.0,40.0H19.0V41.0H18.0zM20.0,40.0H21.0V41.0H20.0zM21.0,40.0H22.0V41.0H21.0zM22.0,40.0H23.0V41.0H22.0zM23.0,40.0H24.0V41.0H23.0zM28.0,40.0H29.0V41.0H28.0zM30.0,40.0H31.0V41.0H30.0zM31.0,40.0H32.0V41.0H31.0zM37.0,40.0H38.0V41.0H37.0zM41.0,40.0H42.0V41.0H41.0zM42.0,40.0H43.0V41.0H42.0zM2.0,41.0H3.0V42.0H2.0zM8.0,41.0H9.0V42.0H8.0zM11.0,41.0H12.0V42.0H11.0zM13.0,41.0H14.0V42.0H13.0zM15.0,41.0H16.0V42.0H15.0zM16.0,41.0H17.0V42.0H16.0zM17.0,41.0H18.0V42.0H17.0zM21.0,41.0H22.0V42.0H21.0zM23.0,41.0H24.0V42.0H23.0zM24.0,41.0H25.0V42.0H24.0zM25.0,41.0H26.0V42.0H25.0zM26.0,41.0H27.0V42.0H26.0zM28.0,41.0H29.0V42.0H28.0zM30.0,41.0H31.0V42.0H30.0zM34.0,41.0H35.0V42.0H34.0zM35.0,41.0H36.0V42.0H35.0zM38.0,41.0H39.0V42.0H38.0zM39.0,41.0H40.0V42.0H39.0zM41.0,41.0H42.0V42.0H41.0zM2.0,42.0H3.0V43.0H2.0zM3.0,42.0H4.0V43.0H3.0zM4.0,42.0H5.0V43.0H4.0zM5.0,42.0H6.0V43.0H5.0zM6.0,42.0H7.0V43.0H6.0zM7.0,42.0H8.0V43.0H7.0zM8.0,42.0H9.0V43.0H8.0zM10.0,42.0H11.0V43.0H10.0zM11.0,42.0H12.0V43.0H11.0zM12.0,42.0H13.0V43.0H12.0zM14.0,42.0H15.0V43.0H14.0zM16.0,42.0H17.0V43.0H16.0zM17.0,42.0H18.0V43.0H17.0zM18.0,42.0H19.0V43.0H18.0zM20.0,42.0H21.0V43.0H20.0zM22.0,42.0H23.0V43.0H22.0zM23.0,42.0H24.0V43.0H23.0zM24.0,42.0H25.0V43.0H24.0zM25.0,42.0H26.0V43.0H25.0zM27.0,42.0H28.0V43.0H27.0zM32.0,42.0H33.0V43.0H32.0zM34.0,42.0H35.0V43.0H34.0zM35.0,42.0H36.0V43.0H35.0zM36.0,42.0H37.0V43.0H36.0zM39.0,42.0H40.0V43.0H39.0zM40.0,42.0H41.0V43.0H40.0zM41.0,42.0H42.0V43.0H41.0z" fill="#0B132B"/>
  </g>
  <text x="1102" y="474" font-family="Inter,Segoe UI,Arial,sans-serif"
        font-size="10" font-weight="700" fill="#8B94A8" text-anchor="middle" letter-spacing="1.5">SCAN BRIEF</text>
</g>

</svg>
