<svg xmlns="http://www.w3.org/2000/svg" width="1200" height="630" viewBox="0 0 1200 630">
  <defs>
    <linearGradient id="bg" x1="0" y1="0" x2="1" y2="1">
      <stop offset="0%" stop-color="#060d1a" />
      <stop offset="60%" stop-color="#0a1628" />
      <stop offset="100%" stop-color="#0d2240" />
    </linearGradient>
    <linearGradient id="accentGrad" x1="0" y1="0" x2="1" y2="0">
      <stop offset="0%" stop-color="#06b6d4" />
      <stop offset="100%" stop-color="#3b82f6" />
    </linearGradient>
    <linearGradient id="card1" x1="0" y1="0" x2="0" y2="1">
      <stop offset="0%" stop-color="#0ea5e9" stop-opacity="0.25" />
      <stop offset="100%" stop-color="#0369a1" stop-opacity="0.10" />
    </linearGradient>
    <linearGradient id="card2" x1="0" y1="0" x2="0" y2="1">
      <stop offset="0%" stop-color="#8b5cf6" stop-opacity="0.25" />
      <stop offset="100%" stop-color="#6d28d9" stop-opacity="0.10" />
    </linearGradient>
    <linearGradient id="card3" x1="0" y1="0" x2="0" y2="1">
      <stop offset="0%" stop-color="#10b981" stop-opacity="0.25" />
      <stop offset="100%" stop-color="#047857" stop-opacity="0.10" />
    </linearGradient>
    <linearGradient id="card4" x1="0" y1="0" x2="0" y2="1">
      <stop offset="0%" stop-color="#f59e0b" stop-opacity="0.25" />
      <stop offset="100%" stop-color="#b45309" stop-opacity="0.10" />
    </linearGradient>
    <linearGradient id="card5" x1="0" y1="0" x2="0" y2="1">
      <stop offset="0%" stop-color="#ef4444" stop-opacity="0.25" />
      <stop offset="100%" stop-color="#b91c1c" stop-opacity="0.10" />
    </linearGradient>
    <filter id="glow" x="-20%" y="-20%" width="140%" height="140%">
      <feGaussianBlur stdDeviation="3" result="blur" />
      <feMerge><feMergeNode in="blur" /><feMergeNode in="SourceGraphic" /></feMerge>
    </filter>
    <filter id="shadow" x="-10%" y="-10%" width="120%" height="130%">
      <feDropShadow dx="0" dy="4" stdDeviation="8" flood-color="#000000" flood-opacity="0.4" />
    </filter>
    <filter id="glowBlue" x="-50%" y="-50%" width="200%" height="200%">
      <feGaussianBlur stdDeviation="6" result="blur" />
      <feMerge><feMergeNode in="blur" /><feMergeNode in="SourceGraphic" /></feMerge>
    </filter>
  </defs>

  <!-- Background -->
  <rect width="1200" height="630" fill="url(#bg)" />

  <!-- Subtle grid lines -->
  <line x1="0" y1="210" x2="1200" y2="210" stroke="#1e3a5f" stroke-width="1" stroke-opacity="0.4" />
  <line x1="0" y1="420" x2="1200" y2="420" stroke="#1e3a5f" stroke-width="1" stroke-opacity="0.4" />
  <line x1="240" y1="0" x2="240" y2="630" stroke="#1e3a5f" stroke-width="1" stroke-opacity="0.3" />
  <line x1="600" y1="0" x2="600" y2="630" stroke="#1e3a5f" stroke-width="1" stroke-opacity="0.3" />
  <line x1="960" y1="0" x2="960" y2="630" stroke="#1e3a5f" stroke-width="1" stroke-opacity="0.3" />

  <!-- Top badge -->
  <rect x="50" y="28" width="200" height="32" rx="16" fill="#06b6d4" fill-opacity="0.18" stroke="#06b6d4" stroke-width="1.5" />
  <circle cx="70" cy="44" r="5" fill="#06b6d4" filter="url(#glow)" />
  <text x="84" y="49" fill="#67e8f9" font-family="Arial, sans-serif" font-size="13" font-weight="700" letter-spacing="2">AI WORKFLOW 2026</text>

  <!-- Accent bar -->
  <rect x="50" y="78" width="320" height="4" rx="2" fill="url(#accentGrad)" filter="url(#glowBlue)" />

  <!-- Main title -->
  <text x="50" y="130" fill="#f0f9ff" font-family="Arial, sans-serif" font-size="42" font-weight="800" letter-spacing="-0.5">AI Content Creator Workflow 2026</text>

  <!-- Subtitle -->
  <text x="50" y="168" fill="#7dd3fc" font-family="Arial, sans-serif" font-size="20" font-weight="400" letter-spacing="1">Blog  |  Video  |  Music  |  Animation  |  End-to-End Pipeline</text>

  <!-- Pipeline arrows background -->
  <rect x="50" y="220" width="1100" height="260" rx="16" fill="#0a1e35" fill-opacity="0.6" stroke="#1e4a6e" stroke-width="1" />

  <!-- Phase label -->
  <text x="600" y="248" fill="#475569" font-family="Arial, sans-serif" font-size="12" font-weight="600" letter-spacing="3" text-anchor="middle">5-PHASE PIPELINE</text>

  <!-- Arrow connectors -->
  <line x1="246" y1="370" x2="268" y2="370" stroke="#334155" stroke-width="2" stroke-dasharray="4 3" />
  <polygon points="268,365 278,370 268,375" fill="#334155" />
  <line x1="462" y1="370" x2="484" y2="370" stroke="#334155" stroke-width="2" stroke-dasharray="4 3" />
  <polygon points="484,365 494,370 484,375" fill="#334155" />
  <line x1="678" y1="370" x2="700" y2="370" stroke="#334155" stroke-width="2" stroke-dasharray="4 3" />
  <polygon points="700,365 710,370 700,375" fill="#334155" />
  <line x1="894" y1="370" x2="916" y2="370" stroke="#334155" stroke-width="2" stroke-dasharray="4 3" />
  <polygon points="916,365 926,370 916,375" fill="#334155" />

  <!-- Card 1: Blog -->
  <rect x="60" y="265" width="186" height="190" rx="12" fill="url(#card1)" stroke="#0ea5e9" stroke-width="1.5" filter="url(#shadow)" />
  <rect x="60" y="265" width="186" height="4" rx="2" fill="#0ea5e9" />
  <!-- Icon circle -->
  <circle cx="153" cy="308" r="26" fill="#0ea5e9" fill-opacity="0.15" stroke="#0ea5e9" stroke-width="1.5" />
  <text x="153" y="316" fill="#38bdf8" font-family="Arial, sans-serif" font-size="22" font-weight="700" text-anchor="middle">B</text>
  <text x="153" y="354" fill="#e0f2fe" font-family="Arial, sans-serif" font-size="16" font-weight="700" text-anchor="middle">Blog Post</text>
  <text x="153" y="375" fill="#7dd3fc" font-family="Arial, sans-serif" font-size="11" text-anchor="middle">Claude Opus 4.5</text>
  <rect x="88" y="388" width="130" height="22" rx="11" fill="#0ea5e9" fill-opacity="0.2" />
  <text x="153" y="404" fill="#7dd3fc" font-family="Arial, sans-serif" font-size="10" text-anchor="middle" font-weight="600">Phase 1</text>
  <text x="153" y="440" fill="#94a3b8" font-family="Arial, sans-serif" font-size="10" text-anchor="middle">AI Writing</text>

  <!-- Card 2: Script -->
  <rect x="276" y="265" width="186" height="190" rx="12" fill="url(#card2)" stroke="#8b5cf6" stroke-width="1.5" filter="url(#shadow)" />
  <rect x="276" y="265" width="186" height="4" rx="2" fill="#8b5cf6" />
  <circle cx="369" cy="308" r="26" fill="#8b5cf6" fill-opacity="0.15" stroke="#8b5cf6" stroke-width="1.5" />
  <text x="369" y="316" fill="#c4b5fd" font-family="Arial, sans-serif" font-size="22" font-weight="700" text-anchor="middle">S</text>
  <text x="369" y="354" fill="#ede9fe" font-family="Arial, sans-serif" font-size="16" font-weight="700" text-anchor="middle">Video Script</text>
  <text x="369" y="375" fill="#c4b5fd" font-family="Arial, sans-serif" font-size="11" text-anchor="middle">Script Generation</text>
  <rect x="304" y="388" width="130" height="22" rx="11" fill="#8b5cf6" fill-opacity="0.2" />
  <text x="369" y="404" fill="#c4b5fd" font-family="Arial, sans-serif" font-size="10" text-anchor="middle" font-weight="600">Phase 2</text>
  <text x="369" y="440" fill="#94a3b8" font-family="Arial, sans-serif" font-size="10" text-anchor="middle">NLP Processing</text>

  <!-- Card 3: Video -->
  <rect x="492" y="265" width="186" height="190" rx="12" fill="url(#card3)" stroke="#10b981" stroke-width="1.5" filter="url(#shadow)" />
  <rect x="492" y="265" width="186" height="4" rx="2" fill="#10b981" />
  <circle cx="585" cy="308" r="26" fill="#10b981" fill-opacity="0.15" stroke="#10b981" stroke-width="1.5" />
  <text x="585" y="316" fill="#6ee7b7" font-family="Arial, sans-serif" font-size="22" font-weight="700" text-anchor="middle">V</text>
  <text x="585" y="354" fill="#d1fae5" font-family="Arial, sans-serif" font-size="16" font-weight="700" text-anchor="middle">Video Gen</text>
  <text x="585" y="375" fill="#6ee7b7" font-family="Arial, sans-serif" font-size="11" text-anchor="middle">Runway Gen-3</text>
  <rect x="520" y="388" width="130" height="22" rx="11" fill="#10b981" fill-opacity="0.2" />
  <text x="585" y="404" fill="#6ee7b7" font-family="Arial, sans-serif" font-size="10" text-anchor="middle" font-weight="600">Phase 3</text>
  <text x="585" y="440" fill="#94a3b8" font-family="Arial, sans-serif" font-size="10" text-anchor="middle">Video Synthesis</text>

  <!-- Card 4: Music -->
  <rect x="708" y="265" width="186" height="190" rx="12" fill="url(#card4)" stroke="#f59e0b" stroke-width="1.5" filter="url(#shadow)" />
  <rect x="708" y="265" width="186" height="4" rx="2" fill="#f59e0b" />
  <circle cx="801" cy="308" r="26" fill="#f59e0b" fill-opacity="0.15" stroke="#f59e0b" stroke-width="1.5" />
  <text x="801" y="316" fill="#fde68a" font-family="Arial, sans-serif" font-size="22" font-weight="700" text-anchor="middle">M</text>
  <text x="801" y="354" fill="#fef9c3" font-family="Arial, sans-serif" font-size="16" font-weight="700" text-anchor="middle">Music Gen</text>
  <text x="801" y="375" fill="#fde68a" font-family="Arial, sans-serif" font-size="11" text-anchor="middle">Suno AI</text>
  <rect x="736" y="388" width="130" height="22" rx="11" fill="#f59e0b" fill-opacity="0.2" />
  <text x="801" y="404" fill="#fde68a" font-family="Arial, sans-serif" font-size="10" text-anchor="middle" font-weight="600">Phase 4</text>
  <text x="801" y="440" fill="#94a3b8" font-family="Arial, sans-serif" font-size="10" text-anchor="middle">Audio AI</text>

  <!-- Card 5: Animation -->
  <rect x="924" y="265" width="186" height="190" rx="12" fill="url(#card5)" stroke="#ef4444" stroke-width="1.5" filter="url(#shadow)" />
  <rect x="924" y="265" width="186" height="4" rx="2" fill="#ef4444" />
  <circle cx="1017" cy="308" r="26" fill="#ef4444" fill-opacity="0.15" stroke="#ef4444" stroke-width="1.5" />
  <text x="1017" y="316" fill="#fca5a5" font-family="Arial, sans-serif" font-size="22" font-weight="700" text-anchor="middle">A</text>
  <text x="1017" y="354" fill="#fee2e2" font-family="Arial, sans-serif" font-size="16" font-weight="700" text-anchor="middle">Animation</text>
  <text x="1017" y="375" fill="#fca5a5" font-family="Arial, sans-serif" font-size="11" text-anchor="middle">D-ID</text>
  <rect x="952" y="388" width="130" height="22" rx="11" fill="#ef4444" fill-opacity="0.2" />
  <text x="1017" y="404" fill="#fca5a5" font-family="Arial, sans-serif" font-size="10" text-anchor="middle" font-weight="600">Phase 5</text>
  <text x="1017" y="440" fill="#94a3b8" font-family="Arial, sans-serif" font-size="10" text-anchor="middle">Avatar Sync</text>

  <!-- Footer separator -->
  <line x1="50" y1="508" x2="1150" y2="508" stroke="#1e3a5f" stroke-width="1" />

  <!-- Footer left: stats -->
  <rect x="50" y="520" width="155" height="26" rx="13" fill="#06b6d4" fill-opacity="0.12" stroke="#06b6d4" stroke-width="1" />
  <text x="127" y="537" fill="#67e8f9" font-family="Arial, sans-serif" font-size="11" font-weight="600" text-anchor="middle">5 Phases</text>

  <rect x="215" y="520" width="195" height="26" rx="13" fill="#8b5cf6" fill-opacity="0.12" stroke="#8b5cf6" stroke-width="1" />
  <text x="312" y="537" fill="#c4b5fd" font-family="Arial, sans-serif" font-size="11" font-weight="600" text-anchor="middle">End-to-End Pipeline</text>

  <rect x="420" y="520" width="160" height="26" rx="13" fill="#10b981" fill-opacity="0.12" stroke="#10b981" stroke-width="1" />
  <text x="500" y="537" fill="#6ee7b7" font-family="Arial, sans-serif" font-size="11" font-weight="600" text-anchor="middle">ROI 4,877%</text>

  <!-- Footer right: domain -->
  <circle cx="1100" cy="533" r="5" fill="#06b6d4" fill-opacity="0.6" />
  <text x="1112" y="537" fill="#475569" font-family="Arial, sans-serif" font-size="12" font-weight="500" text-anchor="start">tech.2twodragon.com</text>

  <!-- Date label -->
  <text x="50" y="601" fill="#334155" font-family="Arial, sans-serif" font-size="12">Feb 5, 2026</text>
  <text x="1150" y="601" fill="#1e40af" font-family="Arial, sans-serif" font-size="12" text-anchor="end" font-weight="600">Twodragon Tech Blog</text>
</svg>
