<svg xmlns="http://www.w3.org/2000/svg" viewBox="0 0 1200 630" width="1200" height="630" role="img" aria-label="March 2026 security digest monthly index: 31 posts, 127 CVEs tracked, top threat ransomware AI automation">
<title>March 2026 Security Digest Monthly Index: 31 incidents, 127 CVEs, Ransomware+AI top threat</title>
<defs>
<linearGradient id="bgHeroP" x1="0%" y1="0%" x2="100%" y2="100%"><stop offset="0%" stop-color="#0A1226"/><stop offset="60%" stop-color="#0B142E"/><stop offset="100%" stop-color="#10163A"/></linearGradient>
<linearGradient id="heroPanelP" x1="0%" y1="0%" x2="100%" y2="100%"><stop offset="0%" stop-color="#0A1226"/><stop offset="100%" stop-color="#13193E"/></linearGradient>
<linearGradient id="c1P" x1="0%" y1="0%" x2="100%" y2="0%"><stop offset="0%" stop-color="#1A0E2E"/><stop offset="100%" stop-color="#24122F"/></linearGradient>
<linearGradient id="c2P" x1="0%" y1="0%" x2="100%" y2="0%"><stop offset="0%" stop-color="#2A1A0C"/><stop offset="100%" stop-color="#1E1F0A"/></linearGradient>
<filter id="softShadow" x="-10%" y="-10%" width="130%" height="130%"><feGaussianBlur in="SourceAlpha" stdDeviation="2.5"/><feOffset dx="1" dy="3"/><feComponentTransfer><feFuncA type="linear" slope="0.55"/></feComponentTransfer><feMerge><feMergeNode/><feMergeNode in="SourceGraphic"/></feMerge></filter>
<filter id="textShadow" x="-5%" y="-5%" width="110%" height="110%"><feGaussianBlur in="SourceAlpha" stdDeviation="1.2"/><feOffset dx="0" dy="1.5"/><feComponentTransfer><feFuncA type="linear" slope="0.85"/></feComponentTransfer><feMerge><feMergeNode/><feMergeNode in="SourceGraphic"/></feMerge></filter>
<pattern id="ledgerGrid" x="0" y="0" width="40" height="20" patternUnits="userSpaceOnUse"><path d="M0 20 L40 20" stroke="#2A3A56" stroke-width="0.4" opacity="0.5"/><path d="M40 0 L40 20" stroke="#2A3A56" stroke-width="0.4" opacity="0.5"/></pattern>
<pattern id="circuitDot" x="0" y="0" width="18" height="18" patternUnits="userSpaceOnUse"><circle cx="9" cy="9" r="0.8" fill="#3A2A4E" opacity="0.55"/></pattern>
</defs>
<rect width="1200" height="630" fill="url(#bgHeroP)"/>
<g>
  <rect x="0" y="0" width="1200" height="420" fill="url(#heroPanelP)"/>
  <rect x="0" y="0" width="1200" height="420" fill="url(#ledgerGrid)" opacity="0.45"/>
  <rect x="0" y="0" width="10" height="420" fill="#FFB703"/>
  <g filter="url(#textShadow)">
    <text x="60" y="110" font-family="Inter, Helvetica, Arial, sans-serif" font-size="20" font-weight="700" letter-spacing="3.6" fill="#FFB703">MARCH 2026</text>
    <text x="60" y="200" font-family="Inter, Helvetica, Arial, sans-serif" font-size="72" font-weight="900" fill="#F5F7FA">Security Digest</text>
    <text x="60" y="248" font-family="Inter, Helvetica, Arial, sans-serif" font-size="24" font-weight="600" fill="#FFD58A">Monthly Intelligence Index</text>
    <text x="60" y="294" font-family="Inter, Helvetica, Arial, sans-serif" font-size="16" font-weight="500" fill="#D0DCF0">127 CVEs tracked : 31 digest posts : 18% incident increase</text>
  </g>
  <g transform="translate(960,210)">
    <circle r="130" fill="none" stroke="#FFB703" stroke-width="2" opacity="0.4"><animate attributeName="r" values="100;150;100" dur="4s" repeatCount="indefinite"/></circle>
    <circle r="90" fill="#FFB703" fill-opacity="0.08" stroke="#FFB703" stroke-width="2"><animate attributeName="r" values="70;100;70" dur="3.2s" repeatCount="indefinite"/></circle>
    <text y="-10" text-anchor="middle" font-family="Inter, monospace" font-size="16" font-weight="800" fill="#FFB703">MARCH</text>
    <text y="22" text-anchor="middle" font-family="Inter, monospace" font-size="42" font-weight="900" fill="#F5F7FA">2026</text>
    <g fill="#FFB703">
      <circle cx="-110" cy="0" r="3"><animate attributeName="opacity" values="0;1;0" dur="2s" repeatCount="indefinite"/></circle>
      <circle cx="110" cy="0" r="3"><animate attributeName="opacity" values="0;1;0" dur="2.3s" repeatCount="indefinite"/></circle>
      <circle cx="0" cy="-110" r="3"><animate attributeName="opacity" values="0;1;0" dur="1.9s" repeatCount="indefinite"/></circle>
      <circle cx="0" cy="110" r="3"><animate attributeName="opacity" values="0;1;0" dur="2.5s" repeatCount="indefinite"/></circle>
    </g>
  </g>
</g>
<g>
  <rect x="0" y="420" width="600" height="210" fill="url(#c1P)"/>
  <rect x="0" y="420" width="600" height="210" fill="url(#circuitDot)" opacity="0.55"/>
  <rect x="0" y="420" width="6" height="210" fill="#E63946"/>
  <g filter="url(#textShadow)">
    <text x="40" y="464" font-family="Inter, Helvetica, Arial, sans-serif" font-size="16" font-weight="700" letter-spacing="2.4" fill="#F87171">TOP THREAT</text>
    <text x="40" y="510" font-family="Inter, Helvetica, Arial, sans-serif" font-size="32" font-weight="800" fill="#F5F7FA">Ransomware + AI</text>
    <text x="40" y="544" font-family="Inter, Helvetica, Arial, sans-serif" font-size="16" font-weight="600" fill="#FBB6BD">LLM-automated targeting</text>
  </g>
  <g transform="translate(510,525)" filter="url(#softShadow)">
    <circle r="42" fill="#1E0A14" stroke="#E63946" stroke-width="2.2"/>
    <text y="2" text-anchor="middle" font-family="Inter, monospace" font-size="22" font-weight="900" fill="#E63946">RaaS</text>
    <text y="22" text-anchor="middle" font-family="Inter, monospace" font-size="10" font-weight="700" fill="#FBB6BD">+AI</text>
  </g>
</g>
<g>
  <rect x="600" y="420" width="600" height="210" fill="url(#c2P)"/>
  <rect x="600" y="420" width="600" height="210" fill="url(#ledgerGrid)" opacity="0.55"/>
  <rect x="600" y="420" width="6" height="210" fill="#FFB703"/>
  <g filter="url(#textShadow)">
    <text x="640" y="464" font-family="Inter, Helvetica, Arial, sans-serif" font-size="16" font-weight="700" letter-spacing="2.4" fill="#FFB703">COVERAGE</text>
    <text x="640" y="510" font-family="Inter, Helvetica, Arial, sans-serif" font-size="32" font-weight="800" fill="#F5F7FA">127 CVEs tracked</text>
    <text x="640" y="544" font-family="Inter, Helvetica, Arial, sans-serif" font-size="16" font-weight="600" fill="#FFD58A">31 digest posts : Mar 1-31</text>
  </g>
  <g transform="translate(1000,525)" filter="url(#softShadow)">
    <rect x="-48" y="-35" width="96" height="70" rx="10" fill="#1E1805" stroke="#FFB703" stroke-width="2"/>
    <text y="-5" text-anchor="middle" font-family="Inter, monospace" font-size="32" font-weight="900" fill="#FFB703">127</text>
    <text y="22" text-anchor="middle" font-family="Inter, monospace" font-size="10" font-weight="700" fill="#FFD58A">CVEs</text>
  </g>
</g>
<g transform="translate(1080,504)" filter="url(#softShadow)">
  <rect x="-8" y="-8" width="100" height="100" rx="6" fill="#FFFFFF"/>
  <path fill="#0A1020" d="M0.0 0.0h14.341v2.049h-14.341z M16.39 0.0h2.049v2.049h-2.049z M20.488 0.0h4.098v2.049h-4.098z M36.878 0.0h6.146v2.049h-6.146z M57.366 0.0h4.098v2.049h-4.098z M63.512 0.0h4.098v2.049h-4.098z M69.659 0.0h14.341v2.049h-14.341z M0.0 2.049h2.049v2.049h-2.049z M12.293 2.049h2.049v2.049h-2.049z M16.39 2.049h6.146v2.049h-6.146z M28.683 2.049h2.049v2.049h-2.049z M32.78 2.049h4.098v2.049h-4.098z M40.976 2.049h10.244v2.049h-10.244z M53.268 2.049h2.049v2.049h-2.049z M57.366 2.049h2.049v2.049h-2.049z M61.463 2.049h2.049v2.049h-2.049z M69.659 2.049h2.049v2.049h-2.049z M81.951 2.049h2.049v2.049h-2.049z M0.0 4.098h2.049v2.049h-2.049z M4.098 4.098h6.146v2.049h-6.146z M12.293 4.098h2.049v2.049h-2.049z M18.439 4.098h2.049v2.049h-2.049z M22.537 4.098h6.146v2.049h-6.146z M30.732 4.098h2.049v2.049h-2.049z M36.878 4.098h4.098v2.049h-4.098z M43.024 4.098h4.098v2.049h-4.098z M49.171 4.098h6.146v2.049h-6.146z M57.366 4.098h4.098v2.049h-4.098z M63.512 4.098h2.049v2.049h-2.049z M69.659 4.098h2.049v2.049h-2.049z M73.756 4.098h6.146v2.049h-6.146z M81.951 4.098h2.049v2.049h-2.049z M0.0 6.146h2.049v2.049h-2.049z M4.098 6.146h6.146v2.049h-6.146z M12.293 6.146h2.049v2.049h-2.049z M16.39 6.146h2.049v2.049h-2.049z M20.488 6.146h2.049v2.049h-2.049z M24.585 6.146h4.098v2.049h-4.098z M32.78 6.146h2.049v2.049h-2.049z M36.878 6.146h4.098v2.049h-4.098z M43.024 6.146h8.195v2.049h-8.195z M57.366 6.146h2.049v2.049h-2.049z M63.512 6.146h4.098v2.049h-4.098z M69.659 6.146h2.049v2.049h-2.049z M73.756 6.146h6.146v2.049h-6.146z M81.951 6.146h2.049v2.049h-2.049z M0.0 8.195h2.049v2.049h-2.049z M4.098 8.195h6.146v2.049h-6.146z M12.293 8.195h2.049v2.049h-2.049z M18.439 8.195h6.146v2.049h-6.146z M26.634 8.195h2.049v2.049h-2.049z M30.732 8.195h4.098v2.049h-4.098z M36.878 8.195h6.146v2.049h-6.146z M47.122 8.195h4.098v2.049h-4.098z M55.317 8.195h2.049v2.049h-2.049z M59.415 8.195h2.049v2.049h-2.049z M63.512 8.195h4.098v2.049h-4.098z M69.659 8.195h2.049v2.049h-2.049z M73.756 8.195h6.146v2.049h-6.146z M81.951 8.195h2.049v2.049h-2.049z M0.0 10.244h2.049v2.049h-2.049z M12.293 10.244h2.049v2.049h-2.049z M20.488 10.244h2.049v2.049h-2.049z M26.634 10.244h2.049v2.049h-2.049z M30.732 10.244h2.049v2.049h-2.049z M34.829 10.244h6.146v2.049h-6.146z M43.024 10.244h4.098v2.049h-4.098z M49.171 10.244h2.049v2.049h-2.049z M57.366 10.244h2.049v2.049h-2.049z M61.463 10.244h4.098v2.049h-4.098z M69.659 10.244h2.049v2.049h-2.049z M81.951 10.244h2.049v2.049h-2.049z M0.0 12.293h14.341v2.049h-14.341z M16.39 12.293h2.049v2.049h-2.049z M20.488 12.293h2.049v2.049h-2.049z M24.585 12.293h2.049v2.049h-2.049z M28.683 12.293h2.049v2.049h-2.049z M32.78 12.293h2.049v2.049h-2.049z M36.878 12.293h2.049v2.049h-2.049z M40.976 12.293h2.049v2.049h-2.049z M45.073 12.293h2.049v2.049h-2.049z M49.171 12.293h2.049v2.049h-2.049z M53.268 12.293h2.049v2.049h-2.049z M57.366 12.293h2.049v2.049h-2.049z M61.463 12.293h2.049v2.049h-2.049z M65.561 12.293h2.049v2.049h-2.049z M69.659 12.293h14.341v2.049h-14.341z M16.39 14.341h8.195v2.049h-8.195z M26.634 14.341h2.049v2.049h-2.049z M32.78 14.341h4.098v2.049h-4.098z M40.976 14.341h2.049v2.049h-2.049z M49.171 14.341h2.049v2.049h-2.049z M53.268 14.341h2.049v2.049h-2.049z M59.415 14.341h2.049v2.049h-2.049z M63.512 14.341h4.098v2.049h-4.098z M0.0 16.39h2.049v2.049h-2.049z M4.098 16.39h4.098v2.049h-4.098z M10.244 16.39h6.146v2.049h-6.146z M18.439 16.39h2.049v2.049h-2.049z M26.634 16.39h6.146v2.049h-6.146z M34.829 16.39h4.098v2.049h-4.098z M43.024 16.39h2.049v2.049h-2.049z M47.122 16.39h4.098v2.049h-4.098z M53.268 16.39h2.049v2.049h-2.049z M59.415 16.39h8.195v2.049h-8.195z M69.659 16.39h2.049v2.049h-2.049z M75.805 16.39h2.049v2.049h-2.049z M79.902 16.39h4.098v2.049h-4.098z M4.098 18.439h2.049v2.049h-2.049z M8.195 18.439h2.049v2.049h-2.049z M16.39 18.439h2.049v2.049h-2.049z M24.585 18.439h2.049v2.049h-2.049z M32.78 18.439h8.195v2.049h-8.195z M47.122 18.439h2.049v2.049h-2.049z M53.268 18.439h2.049v2.049h-2.049z M61.463 18.439h14.341v2.049h-14.341z M77.854 18.439h6.146v2.049h-6.146z M2.049 20.488h4.098v2.049h-4.098z M10.244 20.488h4.098v2.049h-4.098z M22.537 20.488h2.049v2.049h-2.049z M26.634 20.488h2.049v2.049h-2.049z M32.78 20.488h6.146v2.049h-6.146z M40.976 20.488h2.049v2.049h-2.049z M45.073 20.488h4.098v2.049h-4.098z M51.22 20.488h4.098v2.049h-4.098z M59.415 20.488h2.049v2.049h-2.049z M69.659 20.488h2.049v2.049h-2.049z M77.854 20.488h4.098v2.049h-4.098z M0.0 22.537h4.098v2.049h-4.098z M6.146 22.537h2.049v2.049h-2.049z M10.244 22.537h2.049v2.049h-2.049z M14.341 22.537h2.049v2.049h-2.049z M20.488 22.537h2.049v2.049h-2.049z M24.585 22.537h4.098v2.049h-4.098z M32.78 22.537h2.049v2.049h-2.049z M36.878 22.537h2.049v2.049h-2.049z M40.976 22.537h2.049v2.049h-2.049z M49.171 22.537h8.195v2.049h-8.195z M65.561 22.537h2.049v2.049h-2.049z M69.659 22.537h4.098v2.049h-4.098z M79.902 22.537h4.098v2.049h-4.098z M4.098 24.585h6.146v2.049h-6.146z M12.293 24.585h6.146v2.049h-6.146z M20.488 24.585h2.049v2.049h-2.049z M26.634 24.585h2.049v2.049h-2.049z M30.732 24.585h10.244v2.049h-10.244z M45.073 24.585h2.049v2.049h-2.049z M51.22 24.585h2.049v2.049h-2.049z M59.415 24.585h10.244v2.049h-10.244z M71.707 24.585h2.049v2.049h-2.049z M75.805 24.585h8.195v2.049h-8.195z M0.0 26.634h2.049v2.049h-2.049z M4.098 26.634h6.146v2.049h-6.146z M24.585 26.634h2.049v2.049h-2.049z M28.683 26.634h4.098v2.049h-4.098z M36.878 26.634h2.049v2.049h-2.049z M43.024 26.634h2.049v2.049h-2.049z M47.122 26.634h2.049v2.049h-2.049z M53.268 26.634h2.049v2.049h-2.049z M57.366 26.634h6.146v2.049h-6.146z M65.561 26.634h2.049v2.049h-2.049z M69.659 26.634h2.049v2.049h-2.049z M75.805 26.634h2.049v2.049h-2.049z M79.902 26.634h4.098v2.049h-4.098z M2.049 28.683h2.049v2.049h-2.049z M6.146 28.683h2.049v2.049h-2.049z M10.244 28.683h14.341v2.049h-14.341z M30.732 28.683h4.098v2.049h-4.098z M36.878 28.683h2.049v2.049h-2.049z M49.171 28.683h2.049v2.049h-2.049z M53.268 28.683h6.146v2.049h-6.146z M61.463 28.683h6.146v2.049h-6.146z M69.659 28.683h6.146v2.049h-6.146z M77.854 28.683h2.049v2.049h-2.049z M81.951 28.683h2.049v2.049h-2.049z M2.049 30.732h2.049v2.049h-2.049z M10.244 30.732h2.049v2.049h-2.049z M16.39 30.732h6.146v2.049h-6.146z M28.683 30.732h2.049v2.049h-2.049z M32.78 30.732h2.049v2.049h-2.049z M36.878 30.732h10.244v2.049h-10.244z M49.171 30.732h2.049v2.049h-2.049z M53.268 30.732h2.049v2.049h-2.049z M57.366 30.732h2.049v2.049h-2.049z M61.463 30.732h2.049v2.049h-2.049z M69.659 30.732h2.049v2.049h-2.049z M73.756 30.732h4.098v2.049h-4.098z M79.902 30.732h4.098v2.049h-4.098z M0.0 32.78h4.098v2.049h-4.098z M12.293 32.78h2.049v2.049h-2.049z M20.488 32.78h4.098v2.049h-4.098z M28.683 32.78h2.049v2.049h-2.049z M32.78 32.78h2.049v2.049h-2.049z M36.878 32.78h12.293v2.049h-12.293z M51.22 32.78h2.049v2.049h-2.049z M55.317 32.78h2.049v2.049h-2.049z M61.463 32.78h2.049v2.049h-2.049z M65.561 32.78h2.049v2.049h-2.049z M73.756 32.78h4.098v2.049h-4.098z M2.049 34.829h4.098v2.049h-4.098z M14.341 34.829h4.098v2.049h-4.098z M24.585 34.829h2.049v2.049h-2.049z M34.829 34.829h4.098v2.049h-4.098z M40.976 34.829h2.049v2.049h-2.049z M45.073 34.829h4.098v2.049h-4.098z M55.317 34.829h2.049v2.049h-2.049z M61.463 34.829h2.049v2.049h-2.049z M65.561 34.829h4.098v2.049h-4.098z M71.707 34.829h2.049v2.049h-2.049z M0.0 36.878h2.049v2.049h-2.049z M4.098 36.878h2.049v2.049h-2.049z M10.244 36.878h6.146v2.049h-6.146z M20.488 36.878h6.146v2.049h-6.146z M30.732 36.878h2.049v2.049h-2.049z M34.829 36.878h2.049v2.049h-2.049z M43.024 36.878h2.049v2.049h-2.049z M49.171 36.878h8.195v2.049h-8.195z M61.463 36.878h2.049v2.049h-2.049z M73.756 36.878h2.049v2.049h-2.049z M77.854 36.878h4.098v2.049h-4.098z M0.0 38.927h2.049v2.049h-2.049z M4.098 38.927h2.049v2.049h-2.049z M16.39 38.927h2.049v2.049h-2.049z M30.732 38.927h4.098v2.049h-4.098z M45.073 38.927h10.244v2.049h-10.244z M57.366 38.927h10.244v2.049h-10.244z M71.707 38.927h2.049v2.049h-2.049z M77.854 38.927h4.098v2.049h-4.098z M0.0 40.976h2.049v2.049h-2.049z M4.098 40.976h10.244v2.049h-10.244z M18.439 40.976h6.146v2.049h-6.146z M26.634 40.976h4.098v2.049h-4.098z M36.878 40.976h4.098v2.049h-4.098z M45.073 40.976h2.049v2.049h-2.049z M51.22 40.976h4.098v2.049h-4.098z M63.512 40.976h18.439v2.049h-18.439z M4.098 43.024h4.098v2.049h-4.098z M10.244 43.024h2.049v2.049h-2.049z M16.39 43.024h4.098v2.049h-4.098z M22.537 43.024h2.049v2.049h-2.049z M28.683 43.024h2.049v2.049h-2.049z M36.878 43.024h14.341v2.049h-14.341z M63.512 43.024h2.049v2.049h-2.049z M69.659 43.024h14.341v2.049h-14.341z M0.0 45.073h2.049v2.049h-2.049z M6.146 45.073h2.049v2.049h-2.049z M10.244 45.073h6.146v2.049h-6.146z M28.683 45.073h2.049v2.049h-2.049z M47.122 45.073h2.049v2.049h-2.049z M57.366 45.073h6.146v2.049h-6.146z M79.902 45.073h2.049v2.049h-2.049z M0.0 47.122h4.098v2.049h-4.098z M8.195 47.122h4.098v2.049h-4.098z M18.439 47.122h2.049v2.049h-2.049z M22.537 47.122h2.049v2.049h-2.049z M26.634 47.122h2.049v2.049h-2.049z M30.732 47.122h4.098v2.049h-4.098z M36.878 47.122h2.049v2.049h-2.049z M51.22 47.122h2.049v2.049h-2.049z M55.317 47.122h2.049v2.049h-2.049z M61.463 47.122h2.049v2.049h-2.049z M65.561 47.122h4.098v2.049h-4.098z M71.707 47.122h2.049v2.049h-2.049z M6.146 49.171h10.244v2.049h-10.244z M20.488 49.171h2.049v2.049h-2.049z M24.585 49.171h2.049v2.049h-2.049z M28.683 49.171h2.049v2.049h-2.049z M32.78 49.171h4.098v2.049h-4.098z M45.073 49.171h2.049v2.049h-2.049z M49.171 49.171h6.146v2.049h-6.146z M59.415 49.171h2.049v2.049h-2.049z M63.512 49.171h2.049v2.049h-2.049z M77.854 49.171h2.049v2.049h-2.049z M4.098 51.22h4.098v2.049h-4.098z M14.341 51.22h4.098v2.049h-4.098z M20.488 51.22h2.049v2.049h-2.049z M24.585 51.22h4.098v2.049h-4.098z M32.78 51.22h4.098v2.049h-4.098z M38.927 51.22h2.049v2.049h-2.049z M49.171 51.22h4.098v2.049h-4.098z M55.317 51.22h2.049v2.049h-2.049z M59.415 51.22h2.049v2.049h-2.049z M63.512 51.22h8.195v2.049h-8.195z M75.805 51.22h4.098v2.049h-4.098z M0.0 53.268h4.098v2.049h-4.098z M6.146 53.268h8.195v2.049h-8.195z M16.39 53.268h4.098v2.049h-4.098z M22.537 53.268h2.049v2.049h-2.049z M28.683 53.268h8.195v2.049h-8.195z M38.927 53.268h4.098v2.049h-4.098z M45.073 53.268h2.049v2.049h-2.049z M49.171 53.268h2.049v2.049h-2.049z M53.268 53.268h2.049v2.049h-2.049z M57.366 53.268h4.098v2.049h-4.098z M63.512 53.268h6.146v2.049h-6.146z M71.707 53.268h6.146v2.049h-6.146z M79.902 53.268h4.098v2.049h-4.098z M0.0 55.317h4.098v2.049h-4.098z M6.146 55.317h2.049v2.049h-2.049z M10.244 55.317h2.049v2.049h-2.049z M18.439 55.317h2.049v2.049h-2.049z M24.585 55.317h8.195v2.049h-8.195z M36.878 55.317h12.293v2.049h-12.293z M53.268 55.317h4.098v2.049h-4.098z M61.463 55.317h6.146v2.049h-6.146z M69.659 55.317h2.049v2.049h-2.049z M73.756 55.317h4.098v2.049h-4.098z M0.0 57.366h6.146v2.049h-6.146z M8.195 57.366h2.049v2.049h-2.049z M12.293 57.366h6.146v2.049h-6.146z M20.488 57.366h2.049v2.049h-2.049z M24.585 57.366h8.195v2.049h-8.195z M38.927 57.366h2.049v2.049h-2.049z M43.024 57.366h4.098v2.049h-4.098z M51.22 57.366h8.195v2.049h-8.195z M63.512 57.366h4.098v2.049h-4.098z M73.756 57.366h4.098v2.049h-4.098z M79.902 57.366h4.098v2.049h-4.098z M2.049 59.415h2.049v2.049h-2.049z M6.146 59.415h2.049v2.049h-2.049z M10.244 59.415h2.049v2.049h-2.049z M20.488 59.415h2.049v2.049h-2.049z M26.634 59.415h2.049v2.049h-2.049z M32.78 59.415h8.195v2.049h-8.195z M43.024 59.415h2.049v2.049h-2.049z M49.171 59.415h6.146v2.049h-6.146z M57.366 59.415h10.244v2.049h-10.244z M69.659 59.415h4.098v2.049h-4.098z M75.805 59.415h2.049v2.049h-2.049z M79.902 59.415h2.049v2.049h-2.049z M0.0 61.463h2.049v2.049h-2.049z M12.293 61.463h4.098v2.049h-4.098z M18.439 61.463h2.049v2.049h-2.049z M22.537 61.463h4.098v2.049h-4.098z M28.683 61.463h2.049v2.049h-2.049z M32.78 61.463h2.049v2.049h-2.049z M36.878 61.463h2.049v2.049h-2.049z M40.976 61.463h2.049v2.049h-2.049z M45.073 61.463h6.146v2.049h-6.146z M53.268 61.463h6.146v2.049h-6.146z M61.463 61.463h4.098v2.049h-4.098z M67.61 61.463h6.146v2.049h-6.146z M79.902 61.463h2.049v2.049h-2.049z M4.098 63.512h6.146v2.049h-6.146z M34.829 63.512h4.098v2.049h-4.098z M40.976 63.512h2.049v2.049h-2.049z M45.073 63.512h2.049v2.049h-2.049z M49.171 63.512h2.049v2.049h-2.049z M59.415 63.512h6.146v2.049h-6.146z M69.659 63.512h2.049v2.049h-2.049z M73.756 63.512h6.146v2.049h-6.146z M2.049 65.561h6.146v2.049h-6.146z M12.293 65.561h6.146v2.049h-6.146z M20.488 65.561h6.146v2.049h-6.146z M28.683 65.561h2.049v2.049h-2.049z M34.829 65.561h2.049v2.049h-2.049z M38.927 65.561h6.146v2.049h-6.146z M47.122 65.561h4.098v2.049h-4.098z M53.268 65.561h2.049v2.049h-2.049z M57.366 65.561h4.098v2.049h-4.098z M65.561 65.561h14.341v2.049h-14.341z M81.951 65.561h2.049v2.049h-2.049z M16.39 67.61h6.146v2.049h-6.146z M26.634 67.61h2.049v2.049h-2.049z M32.78 67.61h2.049v2.049h-2.049z M36.878 67.61h6.146v2.049h-6.146z M47.122 67.61h2.049v2.049h-2.049z M53.268 67.61h14.341v2.049h-14.341z M73.756 67.61h10.244v2.049h-10.244z M0.0 69.659h14.341v2.049h-14.341z M16.39 69.659h2.049v2.049h-2.049z M22.537 69.659h4.098v2.049h-4.098z M32.78 69.659h4.098v2.049h-4.098z M40.976 69.659h10.244v2.049h-10.244z M53.268 69.659h2.049v2.049h-2.049z M57.366 69.659h2.049v2.049h-2.049z M61.463 69.659h6.146v2.049h-6.146z M69.659 69.659h2.049v2.049h-2.049z M73.756 69.659h8.195v2.049h-8.195z M0.0 71.707h2.049v2.049h-2.049z M12.293 71.707h2.049v2.049h-2.049z M16.39 71.707h2.049v2.049h-2.049z M20.488 71.707h4.098v2.049h-4.098z M30.732 71.707h2.049v2.049h-2.049z M36.878 71.707h2.049v2.049h-2.049z M40.976 71.707h8.195v2.049h-8.195z M51.22 71.707h4.098v2.049h-4.098z M59.415 71.707h2.049v2.049h-2.049z M65.561 71.707h2.049v2.049h-2.049z M73.756 71.707h2.049v2.049h-2.049z M79.902 71.707h2.049v2.049h-2.049z M0.0 73.756h2.049v2.049h-2.049z M4.098 73.756h6.146v2.049h-6.146z M12.293 73.756h2.049v2.049h-2.049z M18.439 73.756h10.244v2.049h-10.244z M32.78 73.756h2.049v2.049h-2.049z M36.878 73.756h4.098v2.049h-4.098z M43.024 73.756h4.098v2.049h-4.098z M65.561 73.756h12.293v2.049h-12.293z M81.951 73.756h2.049v2.049h-2.049z M0.0 75.805h2.049v2.049h-2.049z M4.098 75.805h6.146v2.049h-6.146z M12.293 75.805h2.049v2.049h-2.049z M16.39 75.805h4.098v2.049h-4.098z M22.537 75.805h2.049v2.049h-2.049z M28.683 75.805h2.049v2.049h-2.049z M34.829 75.805h6.146v2.049h-6.146z M55.317 75.805h2.049v2.049h-2.049z M59.415 75.805h2.049v2.049h-2.049z M63.512 75.805h4.098v2.049h-4.098z M73.756 75.805h8.195v2.049h-8.195z M0.0 77.854h2.049v2.049h-2.049z M4.098 77.854h6.146v2.049h-6.146z M12.293 77.854h2.049v2.049h-2.049z M16.39 77.854h2.049v2.049h-2.049z M20.488 77.854h10.244v2.049h-10.244z M34.829 77.854h2.049v2.049h-2.049z M38.927 77.854h2.049v2.049h-2.049z M43.024 77.854h2.049v2.049h-2.049z M49.171 77.854h2.049v2.049h-2.049z M53.268 77.854h2.049v2.049h-2.049z M57.366 77.854h4.098v2.049h-4.098z M71.707 77.854h2.049v2.049h-2.049z M75.805 77.854h2.049v2.049h-2.049z M79.902 77.854h4.098v2.049h-4.098z M0.0 79.902h2.049v2.049h-2.049z M12.293 79.902h2.049v2.049h-2.049z M18.439 79.902h2.049v2.049h-2.049z M22.537 79.902h2.049v2.049h-2.049z M34.829 79.902h2.049v2.049h-2.049z M38.927 79.902h2.049v2.049h-2.049z M43.024 79.902h8.195v2.049h-8.195z M53.268 79.902h2.049v2.049h-2.049z M57.366 79.902h2.049v2.049h-2.049z M65.561 79.902h4.098v2.049h-4.098z M73.756 79.902h4.098v2.049h-4.098z M79.902 79.902h2.049v2.049h-2.049z M0.0 81.951h14.341v2.049h-14.341z M16.39 81.951h2.049v2.049h-2.049z M22.537 81.951h2.049v2.049h-2.049z M26.634 81.951h2.049v2.049h-2.049z M34.829 81.951h2.049v2.049h-2.049z M40.976 81.951h8.195v2.049h-8.195z M51.22 81.951h2.049v2.049h-2.049z M61.463 81.951h2.049v2.049h-2.049z M65.561 81.951h6.146v2.049h-6.146z M79.902 81.951h2.049v2.049h-2.049z"/>
</g>
<text x="1122" y="614" font-family="Inter, Helvetica, Arial, sans-serif" font-size="10" font-weight="700" fill="#F5F7FA" text-anchor="middle">scan / full post</text>
</svg>