<svg xmlns="http://www.w3.org/2000/svg" viewBox="0 0 1200 630" width="1200" height="630">
  <title>Threat Matrix - CVE and Attack Landscape</title>
  <defs>
    <linearGradient id="bg" x1="0%" y1="0%" x2="100%" y2="100%">
      <stop offset="0%" style="stop-color:#0d0a1a"/>
      <stop offset="100%" style="stop-color:#1a1530"/>
    </linearGradient>
    <linearGradient id="accent" x1="0%" y1="0%" x2="0%" y2="100%">
      <stop offset="0%" style="stop-color:#8e44ad"/>
      <stop offset="100%" style="stop-color:#e74c3c"/>
    </linearGradient>
  </defs>
  <rect width="1200" height="630" fill="url(#bg)"/>
  <line x1="0" y1="105" x2="1200" y2="105" stroke="rgba(255,255,255,0.04)" stroke-width="1"/>
  <line x1="0" y1="210" x2="1200" y2="210" stroke="rgba(255,255,255,0.04)" stroke-width="1"/>
  <line x1="0" y1="315" x2="1200" y2="315" stroke="rgba(255,255,255,0.04)" stroke-width="1"/>
  <line x1="0" y1="420" x2="1200" y2="420" stroke="rgba(255,255,255,0.04)" stroke-width="1"/>
  <line x1="240" y1="0" x2="240" y2="630" stroke="rgba(255,255,255,0.03)" stroke-width="1"/>
  <line x1="480" y1="0" x2="480" y2="630" stroke="rgba(255,255,255,0.03)" stroke-width="1"/>
  <line x1="720" y1="0" x2="720" y2="630" stroke="rgba(255,255,255,0.03)" stroke-width="1"/>
  <line x1="960" y1="0" x2="960" y2="630" stroke="rgba(255,255,255,0.03)" stroke-width="1"/>
  <!-- Grid matrix for threat landscape -->
  <!-- Grid background -->
  <rect x="820" y="120" width="300" height="300" rx="6" fill="rgba(20,15,35,0.6)" stroke="rgba(142,68,173,0.25)" stroke-width="1.5"/>
  <!-- Grid lines inside matrix -->
  <line x1="880" y1="120" x2="880" y2="420" stroke="rgba(142,68,173,0.2)" stroke-width="1"/>
  <line x1="940" y1="120" x2="940" y2="420" stroke="rgba(142,68,173,0.2)" stroke-width="1"/>
  <line x1="1000" y1="120" x2="1000" y2="420" stroke="rgba(142,68,173,0.2)" stroke-width="1"/>
  <line x1="1060" y1="120" x2="1060" y2="420" stroke="rgba(142,68,173,0.2)" stroke-width="1"/>
  <line x1="820" y1="180" x2="1120" y2="180" stroke="rgba(142,68,173,0.2)" stroke-width="1"/>
  <line x1="820" y1="240" x2="1120" y2="240" stroke="rgba(142,68,173,0.2)" stroke-width="1"/>
  <line x1="820" y1="300" x2="1120" y2="300" stroke="rgba(142,68,173,0.2)" stroke-width="1"/>
  <line x1="820" y1="360" x2="1120" y2="360" stroke="rgba(142,68,173,0.2)" stroke-width="1"/>
  <!-- Severity dots: Critical (red), High (orange), Medium (yellow), Low (green) -->
  <!-- Row 1 -->
  <circle cx="850" cy="150" r="12" fill="rgba(231,76,60,0.8)"/>
  <circle cx="910" cy="150" r="9" fill="rgba(231,76,60,0.6)"/>
  <circle cx="970" cy="150" r="14" fill="rgba(231,76,60,0.85)"/>
  <circle cx="1030" cy="150" r="7" fill="rgba(211,84,0,0.6)"/>
  <circle cx="1090" cy="150" r="11" fill="rgba(231,76,60,0.7)"/>
  <!-- Row 2 -->
  <circle cx="850" cy="210" r="8" fill="rgba(211,84,0,0.65)"/>
  <circle cx="910" cy="210" r="13" fill="rgba(231,76,60,0.75)"/>
  <circle cx="970" cy="210" r="6" fill="rgba(241,196,15,0.7)"/>
  <circle cx="1030" cy="210" r="15" fill="rgba(231,76,60,0.9)"/>
  <circle cx="1090" cy="210" r="9" fill="rgba(211,84,0,0.6)"/>
  <!-- Row 3 -->
  <circle cx="850" cy="270" r="11" fill="rgba(241,196,15,0.65)"/>
  <circle cx="910" cy="270" r="7" fill="rgba(211,84,0,0.55)"/>
  <circle cx="970" cy="270" r="10" fill="rgba(231,76,60,0.7)"/>
  <circle cx="1030" cy="270" r="6" fill="rgba(39,174,96,0.6)"/>
  <circle cx="1090" cy="270" r="13" fill="rgba(231,76,60,0.75)"/>
  <!-- Row 4 -->
  <circle cx="850" cy="330" r="6" fill="rgba(39,174,96,0.55)"/>
  <circle cx="910" cy="330" r="10" fill="rgba(241,196,15,0.6)"/>
  <circle cx="970" cy="330" r="8" fill="rgba(211,84,0,0.6)"/>
  <circle cx="1030" cy="330" r="5" fill="rgba(39,174,96,0.5)"/>
  <circle cx="1090" cy="330" r="11" fill="rgba(241,196,15,0.65)"/>
  <!-- Row 5 -->
  <circle cx="850" cy="390" r="9" fill="rgba(211,84,0,0.55)"/>
  <circle cx="910" cy="390" r="5" fill="rgba(39,174,96,0.5)"/>
  <circle cx="970" cy="390" r="12" fill="rgba(231,76,60,0.65)"/>
  <circle cx="1030" cy="390" r="8" fill="rgba(241,196,15,0.6)"/>
  <circle cx="1090" cy="390" r="7" fill="rgba(211,84,0,0.55)"/>
  <circle cx="1050" cy="450" r="200" fill="rgba(255,255,255,0.02)"/>
  <circle cx="1050" cy="450" r="140" fill="rgba(255,255,255,0.02)"/>
  <rect x="0" y="0" width="6" height="630" fill="url(#accent)"/>
  <rect x="80" y="60" width="200" height="32" rx="4" fill="rgba(142,68,173,0.25)"/>
  <text x="180" y="81" font-family="Arial" font-size="12" fill="rgba(255,255,255,0.8)" text-anchor="middle" letter-spacing="1">FEBRUARY 5, 2026</text>
  <text x="80" y="185" font-family="Arial" font-size="46" font-weight="700" fill="#ffffff">Threat Matrix</text>
  <text x="80" y="245" font-family="Arial" font-size="46" font-weight="700" fill="#ffffff">CVE and Attack Landscape</text>
  <text x="80" y="300" font-family="Arial" font-size="19" fill="rgba(195,185,225,0.85)">Severity-mapped vulnerability tracking across active attack surfaces</text>
  <rect x="80" y="325" width="420" height="3" fill="url(#accent)"/>
  <text x="80" y="370" font-family="Arial" font-size="14" fill="rgba(142,68,173,0.9)" letter-spacing="2">THREAT INTELLIGENCE</text>
  <rect x="80" y="400" width="135" height="36" rx="18" fill="rgba(142,68,173,0.3)" stroke="rgba(142,68,173,0.5)" stroke-width="1"/>
  <text x="147" y="423" font-family="Arial" font-size="13" fill="rgba(255,255,255,0.9)" text-anchor="middle">Threat Matrix</text>
  <rect x="229" y="400" width="80" height="36" rx="18" fill="rgba(231,76,60,0.3)" stroke="rgba(231,76,60,0.5)" stroke-width="1"/>
  <text x="269" y="423" font-family="Arial" font-size="13" fill="rgba(255,255,255,0.9)" text-anchor="middle">CVE</text>
  <rect x="323" y="400" width="115" height="36" rx="18" fill="rgba(52,73,94,0.5)" stroke="rgba(255,255,255,0.2)" stroke-width="1"/>
  <text x="380" y="423" font-family="Arial" font-size="13" fill="rgba(255,255,255,0.9)" text-anchor="middle">Attack Map</text>
  <rect x="0" y="520" width="1200" height="110" fill="rgba(0,0,0,0.35)"/>
  <text x="80" y="545" font-family="Arial" font-size="13" fill="rgba(255,255,255,0.55)">tech.2twodragon.com</text>
  <text x="1120" y="545" font-family="Arial" font-size="13" fill="rgba(255,255,255,0.45)" text-anchor="end">DevSecOps</text>
</svg>
