<svg xmlns="http://www.w3.org/2000/svg" viewBox="0 0 1200 630" width="1200" height="630" role="img" aria-label="Research-based weekly digest cover: PHP webshell persists on Linux via cron cookie RCE (Critical), TA416 China-linked APT resumes PlugX OAuth phishing against European governments (High), LinkedIn silently scans 6000+ Chrome extensions to harvest user data (Medium)">
<!-- profile: high-quality-cover (L20 Hero+2-Card, research-based) -->
<title>Weekly digest 2026-04-04: PHP Webshell Cron RCE (Critical), TA416 PlugX OAuth (High), LinkedIn 6K ext scan (Medium)</title>
<defs>
  <linearGradient id="bgSpread" x1="0%" y1="0%" x2="100%" y2="100%">
    <stop offset="0%" stop-color="#0A1226"/>
    <stop offset="50%" stop-color="#0C1430"/>
    <stop offset="100%" stop-color="#131038"/>
  </linearGradient>
  <linearGradient id="headerGrad" x1="0%" y1="0%" x2="100%" y2="0%">
    <stop offset="0%" stop-color="#050813"/>
    <stop offset="100%" stop-color="#0A1128"/>
  </linearGradient>
  <!-- Hero panel: blue-tinted for CRITICAL PHP WebShell -->
  <linearGradient id="heroPanelGrad" x1="0%" y1="0%" x2="0%" y2="100%">
    <stop offset="0%" stop-color="#0A1A32"/>
    <stop offset="100%" stop-color="#081020"/>
  </linearGradient>
  <!-- Card 1: red-tinted for TA416 HIGH -->
  <linearGradient id="card1Grad" x1="0%" y1="0%" x2="0%" y2="100%">
    <stop offset="0%" stop-color="#1C0C14"/>
    <stop offset="100%" stop-color="#100810"/>
  </linearGradient>
  <!-- Card 2: amber-tinted for LinkedIn MEDIUM -->
  <linearGradient id="card2Grad" x1="0%" y1="0%" x2="0%" y2="100%">
    <stop offset="0%" stop-color="#1A1408"/>
    <stop offset="100%" stop-color="#100E08"/>
  </linearGradient>
  <!-- KPI cards -->
  <linearGradient id="kpiBlueGrad" x1="0%" y1="0%" x2="0%" y2="100%">
    <stop offset="0%" stop-color="#3A86FF" stop-opacity="0.18"/>
    <stop offset="100%" stop-color="#3A86FF" stop-opacity="0.04"/>
  </linearGradient>
  <linearGradient id="kpiRedGrad" x1="0%" y1="0%" x2="0%" y2="100%">
    <stop offset="0%" stop-color="#E63946" stop-opacity="0.18"/>
    <stop offset="100%" stop-color="#E63946" stop-opacity="0.04"/>
  </linearGradient>
  <linearGradient id="kpiAmberGrad" x1="0%" y1="0%" x2="0%" y2="100%">
    <stop offset="0%" stop-color="#FFB703" stop-opacity="0.18"/>
    <stop offset="100%" stop-color="#FFB703" stop-opacity="0.04"/>
  </linearGradient>
  <!-- Terminal gradient -->
  <linearGradient id="termGrad" x1="0%" y1="0%" x2="0%" y2="100%">
    <stop offset="0%" stop-color="#0C1828"/>
    <stop offset="100%" stop-color="#081018"/>
  </linearGradient>
  <!-- Glow radials -->
  <radialGradient id="glowBlue" cx="50%" cy="50%" r="50%">
    <stop offset="0%" stop-color="#3A86FF" stop-opacity="0.55"/>
    <stop offset="100%" stop-color="#3A86FF" stop-opacity="0"/>
  </radialGradient>
  <radialGradient id="glowRed" cx="50%" cy="50%" r="50%">
    <stop offset="0%" stop-color="#E63946" stop-opacity="0.5"/>
    <stop offset="100%" stop-color="#E63946" stop-opacity="0"/>
  </radialGradient>
  <radialGradient id="glowAmber" cx="50%" cy="50%" r="50%">
    <stop offset="0%" stop-color="#FFB703" stop-opacity="0.45"/>
    <stop offset="100%" stop-color="#FFB703" stop-opacity="0"/>
  </radialGradient>
  <!-- Shield gradient -->
  <linearGradient id="shieldGrad" x1="0%" y1="0%" x2="0%" y2="100%">
    <stop offset="0%" stop-color="#2A0E18"/>
    <stop offset="100%" stop-color="#140810"/>
  </linearGradient>
  <!-- Filters -->
  <filter id="softShadow" x="-10%" y="-10%" width="130%" height="130%">
    <feGaussianBlur in="SourceAlpha" stdDeviation="2.5"/>
    <feOffset dx="1" dy="3"/>
    <feComponentTransfer><feFuncA type="linear" slope="0.55"/></feComponentTransfer>
    <feMerge><feMergeNode/><feMergeNode in="SourceGraphic"/></feMerge>
  </filter>
  <filter id="textShadow" x="-5%" y="-5%" width="110%" height="110%">
    <feGaussianBlur in="SourceAlpha" stdDeviation="1.2"/>
    <feOffset dx="0" dy="1.5"/>
    <feComponentTransfer><feFuncA type="linear" slope="0.85"/></feComponentTransfer>
    <feMerge><feMergeNode/><feMergeNode in="SourceGraphic"/></feMerge>
  </filter>
  <filter id="glowFilter" x="-20%" y="-20%" width="140%" height="140%">
    <feGaussianBlur in="SourceGraphic" stdDeviation="4" result="blur"/>
    <feMerge><feMergeNode in="blur"/><feMergeNode in="SourceGraphic"/></feMerge>
  </filter>
  <!-- Patterns -->
  <pattern id="dotGrid" x="0" y="0" width="36" height="36" patternUnits="userSpaceOnUse">
    <circle cx="18" cy="18" r="0.75" fill="#2A3256" opacity="0.5"/>
  </pattern>
  <pattern id="codeLines" x="0" y="0" width="32" height="14" patternUnits="userSpaceOnUse">
    <path d="M0 14 L32 14" stroke="#1E2E48" stroke-width="0.35" opacity="0.4"/>
  </pattern>
</defs>

<!-- Canvas background -->
<rect width="1200" height="630" fill="url(#bgSpread)"/>
<rect width="1200" height="630" fill="url(#dotGrid)" opacity="0.6"/>

<!-- ==========================================
     TOP HEADER STRIPE  y=0..56
     ========================================== -->
<rect x="0" y="0" width="1200" height="56" fill="url(#headerGrad)"/>
<rect x="0" y="54" width="1200" height="2" fill="#1E2E50" opacity="0.9"/>

<text x="36" y="34" font-family="Inter, Helvetica, Arial, sans-serif" font-size="12" font-weight="700" letter-spacing="3.5" fill="#5A7AAA">TECH SECURITY</text>
<rect x="180" y="22" width="1" height="20" fill="#2A3A5A" opacity="0.7"/>
<text x="600" y="36" text-anchor="middle" font-family="Inter, Helvetica, Arial, sans-serif" font-size="20" font-weight="800" letter-spacing="4" fill="#F5F7FA">WEEKLY DIGEST
  <animate attributeName="opacity" values="0.88;1;0.88" dur="6s" repeatCount="indefinite"/>
</text>
<text x="1164" y="34" text-anchor="end" font-family="Inter, Helvetica, Arial, sans-serif" font-size="13" font-weight="600" letter-spacing="1.5" fill="#BFC9D9">2026.04.04</text>
<rect x="1100" y="14" width="56" height="28" rx="6" fill="#1A2A46" stroke="#2A3A5A" stroke-width="1"/>
<text x="1128" y="32" text-anchor="middle" font-family="Inter, Helvetica, Arial, sans-serif" font-size="11" font-weight="700" fill="#8FB8FF">24 NEWS</text>

<!-- Starfield ambient dots (12) -->
<g fill="#8FB8FF">
  <circle cx="160" cy="62" r="1.2"><animate attributeName="opacity" values="0.2;1;0.2" dur="3.1s" repeatCount="indefinite"/></circle>
  <circle cx="420" cy="70" r="1.0"><animate attributeName="opacity" values="0.2;0.9;0.2" dur="4.4s" repeatCount="indefinite"/></circle>
  <circle cx="720" cy="64" r="1.3"><animate attributeName="opacity" values="0.25;1;0.25" dur="3.7s" repeatCount="indefinite"/></circle>
  <circle cx="1040" cy="72" r="0.9"><animate attributeName="opacity" values="0.2;0.85;0.2" dur="5.2s" repeatCount="indefinite"/></circle>
  <circle cx="80" cy="340" r="1.1"><animate attributeName="opacity" values="0.15;0.8;0.15" dur="4.8s" repeatCount="indefinite"/></circle>
  <circle cx="1160" cy="316" r="1.0"><animate attributeName="opacity" values="0.2;0.85;0.2" dur="4.1s" repeatCount="indefinite"/></circle>
  <circle cx="18" cy="500" r="0.9"><animate attributeName="opacity" values="0.18;0.8;0.18" dur="5.4s" repeatCount="indefinite"/></circle>
  <circle cx="620" cy="516" r="1.3"><animate attributeName="opacity" values="0.22;1;0.22" dur="3.9s" repeatCount="indefinite"/></circle>
</g>

<!-- ==========================================
     HERO LEFT PANEL: 600x510 at (32,80)
     PHP WebShell Cron RCE — CRITICAL
     ========================================== -->
<rect x="32" y="80" width="600" height="510" rx="12" fill="url(#heroPanelGrad)" stroke="#3A86FF" stroke-width="1.5" filter="url(#softShadow)"/>
<rect x="32" y="80" width="600" height="510" fill="url(#codeLines)" rx="12" opacity="0.4"/>

<!-- Hero top stripe (animated) -->
<rect x="32" y="80" width="600" height="4" rx="2" fill="#3A86FF">
  <animate attributeName="opacity" values="0.7;1;0.7" dur="2.8s" repeatCount="indefinite"/>
</rect>

<!-- Hero ambient glow -->
<ellipse cx="332" cy="300" rx="250" ry="180" fill="url(#glowBlue)" opacity="0.25"/>

<!-- Hero text block -->
<g filter="url(#textShadow)">
  <text x="56" y="122" font-family="Inter, Helvetica, Arial, sans-serif" font-size="12" font-weight="700" letter-spacing="2.4" fill="#3A86FF">PHP WEBSHELL -- CRITICAL</text>
  <text x="56" y="166" font-family="Inter, Helvetica, Arial, sans-serif" font-size="38" font-weight="900" fill="#F5F7FA">Cron Cookie RCE</text>
  <text x="56" y="200" font-family="Inter, Helvetica, Arial, sans-serif" font-size="17" font-weight="600" fill="#9ABCD9">PHP webshell persists on Linux via cron</text>
  <text x="56" y="226" font-family="Inter, Helvetica, Arial, sans-serif" font-size="13" font-weight="500" fill="#5A7A9A">Cookie-controlled exec - cron reinstall - Microsoft Defender Research</text>
</g>

<!-- Hero illustration: terminal + cron + RCE chain -->
<g transform="translate(56, 248)">
  <!-- Main Linux terminal window -->
  <rect x="0" y="0" width="510" height="200" rx="10" fill="url(#termGrad)" stroke="#3A86FF" stroke-width="1.8" filter="url(#softShadow)"/>
  <!-- Title bar -->
  <rect x="0" y="0" width="510" height="26" rx="10" fill="#0A1420"/>
  <rect x="0" y="13" width="510" height="13" fill="#0A1420"/>
  <!-- Traffic light dots -->
  <circle cx="18" cy="13" r="5" fill="#E63946" opacity="0.85"/>
  <circle cx="34" cy="13" r="5" fill="#FFB703" opacity="0.85"/>
  <circle cx="50" cy="13" r="5" fill="#4ADE80" opacity="0.85"/>
  <text x="255" y="18" text-anchor="middle" font-family="Monaco, monospace" font-size="9" fill="#8FB8FF">root@linux-prod:/var/www/html</text>
  <!-- Terminal lines -->
  <text x="16" y="50" font-family="Monaco, monospace" font-size="11" fill="#4ADE80">$</text>
  <text x="28" y="50" font-family="Monaco, monospace" font-size="11" fill="#BFC9D9">crontab -l</text>
  <text x="16" y="70" font-family="Monaco, monospace" font-size="10" fill="#7A9ABF">*/5 * * * *  php /tmp/.cache.php</text>
  <text x="16" y="90" font-family="Monaco, monospace" font-size="11" fill="#4ADE80">$</text>
  <text x="28" y="90" font-family="Monaco, monospace" font-size="11" fill="#BFC9D9">curl -H "Cookie: x=eval(cmd)" http://target/</text>
  <text x="16" y="110" font-family="Monaco, monospace" font-size="10" fill="#E63946">HTTP/1.1 200 OK -- RCE confirmed</text>
  <text x="16" y="130" font-family="Monaco, monospace" font-size="11" fill="#4ADE80">$</text>
  <text x="28" y="130" font-family="Monaco, monospace" font-size="11" fill="#BFC9D9">whoami</text>
  <text x="16" y="150" font-family="Monaco, monospace" font-size="11" fill="#E63946">www-data</text>
  <text x="16" y="170" font-family="Monaco, monospace" font-size="10" fill="#3A6090">id</text>
  <text x="36" y="170" font-family="Monaco, monospace" font-size="10" fill="#7A9ABF">uid=33(www-data) gid=33(www-data)</text>
  <!-- Blinking cursor -->
  <rect x="16" y="180" width="8" height="13" fill="#3A86FF" opacity="0.9">
    <animate attributeName="opacity" values="0.9;0;0.9" dur="1.1s" repeatCount="indefinite"/>
  </rect>
  <!-- Cron loop arrow on right side -->
  <path d="M510 80 Q540 80 540 120 Q540 160 510 160" fill="none" stroke="#3A86FF" stroke-width="1.6" stroke-dasharray="5,3" opacity="0.65"/>
  <text x="546" y="108" font-family="Monaco, monospace" font-size="9" fill="#5A7ABF">persist</text>
  <text x="546" y="122" font-family="Monaco, monospace" font-size="9" fill="#5A7ABF">cron</text>
  <text x="546" y="136" font-family="Monaco, monospace" font-size="9" fill="#5A7ABF">loop</text>
</g>

<!-- Attack chain diagram below terminal -->
<g transform="translate(56, 468)">
  <!-- Step boxes -->
  <rect x="0" y="0" width="100" height="44" rx="7" fill="#0A1428" stroke="#3A86FF" stroke-width="1.2"/>
  <text x="50" y="16" text-anchor="middle" font-family="Monaco, monospace" font-size="8" fill="#3A86FF">UPLOAD</text>
  <text x="50" y="32" text-anchor="middle" font-family="Monaco, monospace" font-size="8" fill="#7A9ABF">webshell</text>

  <line x1="100" y1="22" x2="124" y2="22" stroke="#3A86FF" stroke-width="1.2" stroke-dasharray="3,2" opacity="0.7"/>
  <polygon points="124,18 132,22 124,26" fill="#3A86FF" opacity="0.7"/>

  <rect x="132" y="0" width="100" height="44" rx="7" fill="#0A1428" stroke="#3A86FF" stroke-width="1.2"/>
  <text x="182" y="16" text-anchor="middle" font-family="Monaco, monospace" font-size="8" fill="#3A86FF">CRON</text>
  <text x="182" y="32" text-anchor="middle" font-family="Monaco, monospace" font-size="8" fill="#7A9ABF">persist</text>

  <line x1="232" y1="22" x2="256" y2="22" stroke="#3A86FF" stroke-width="1.2" stroke-dasharray="3,2" opacity="0.7"/>
  <polygon points="256,18 264,22 256,26" fill="#3A86FF" opacity="0.7"/>

  <rect x="264" y="0" width="100" height="44" rx="7" fill="#0A1428" stroke="#E63946" stroke-width="1.6"/>
  <text x="314" y="16" text-anchor="middle" font-family="Monaco, monospace" font-size="8" fill="#E63946">COOKIE</text>
  <text x="314" y="32" text-anchor="middle" font-family="Monaco, monospace" font-size="8" fill="#9A5060">eval(cmd)</text>

  <line x1="364" y1="22" x2="388" y2="22" stroke="#E63946" stroke-width="1.2" stroke-dasharray="3,2" opacity="0.7"/>
  <polygon points="388,18 396,22 388,26" fill="#E63946" opacity="0.7"/>

  <rect x="396" y="0" width="100" height="44" rx="7" fill="#1A0810" stroke="#E63946" stroke-width="2"/>
  <text x="446" y="16" text-anchor="middle" font-family="Monaco, monospace" font-size="8" fill="#E63946">RCE</text>
  <text x="446" y="32" text-anchor="middle" font-family="Monaco, monospace" font-size="8" fill="#C06070">confirmed</text>
</g>

<!-- Hero KPI card -->
<g transform="translate(452, 92)" filter="url(#softShadow)">
  <rect x="0" y="0" width="148" height="128" rx="12" fill="url(#kpiBlueGrad)" stroke="#3A86FF" stroke-width="2"/>
  <text x="74" y="24" text-anchor="middle" font-family="Inter, Helvetica, Arial, sans-serif" font-size="10" font-weight="700" letter-spacing="2" fill="#3A86FF">SEVERITY</text>
  <text x="74" y="82" text-anchor="middle" font-family="Inter, Helvetica, Arial, sans-serif" font-size="48" font-weight="900" fill="#F5F7FA">CRIT</text>
  <text x="74" y="104" text-anchor="middle" font-family="Inter, Helvetica, Arial, sans-serif" font-size="10" font-weight="600" fill="#9ABCD9">Linux RCE via Cookie</text>
  <circle cx="74" cy="118" r="5" fill="#3A86FF">
    <animate attributeName="opacity" values="1;0.2;1" dur="2.2s" repeatCount="indefinite"/>
    <animate attributeName="r" values="5;7;5" dur="2.2s" repeatCount="indefinite"/>
  </circle>
</g>

<!-- Separator between hero and cards -->
<rect x="644" y="80" width="2" height="510" fill="#1E2E50" opacity="0.7"/>

<!-- ==========================================
     TOP RIGHT CARD: 516x248 at (652,80)
     TA416 PlugX OAuth Phishing — HIGH
     ========================================== -->
<rect x="652" y="80" width="516" height="248" rx="12" fill="url(#card1Grad)" stroke="#E63946" stroke-width="1.2" filter="url(#softShadow)"/>
<rect x="652" y="80" width="516" height="248" fill="url(#codeLines)" rx="12" opacity="0.35"/>

<!-- Card 1 top stripe -->
<rect x="652" y="80" width="516" height="4" rx="2" fill="#E63946">
  <animate attributeName="opacity" values="0.7;1;0.7" dur="2.4s" repeatCount="indefinite"/>
</rect>

<!-- Card 1 ambient glow -->
<ellipse cx="910" cy="204" rx="200" ry="100" fill="url(#glowRed)" opacity="0.2"/>

<!-- Card 1 illustration: shield + targets -->
<g transform="translate(850, 96)">
  <!-- Outer ring pulse -->
  <circle cx="60" cy="72" r="55" fill="none" stroke="#E63946" stroke-width="0.8" opacity="0.2">
    <animate attributeName="r" values="55;68;55" dur="4.2s" repeatCount="indefinite"/>
    <animate attributeName="opacity" values="0.2;0.06;0.2" dur="4.2s" repeatCount="indefinite"/>
  </circle>
  <!-- Shield body -->
  <path d="M60 6 L106 24 L106 72 Q106 112 60 134 Q14 112 14 72 L14 24 Z" fill="url(#shieldGrad)" stroke="#E63946" stroke-width="2" opacity="0.9"/>
  <!-- Shield inner -->
  <path d="M60 16 L96 30 L96 72 Q96 104 60 122 Q24 104 24 72 L24 30 Z" fill="none" stroke="#E63946" stroke-width="0.6" opacity="0.3"/>
  <!-- Core -->
  <circle cx="60" cy="72" r="18" fill="#1A0810" stroke="#E63946" stroke-width="1.6" opacity="0.9"/>
  <circle cx="60" cy="72" r="7" fill="#E63946" opacity="0.25"/>
  <circle cx="60" cy="72" r="3" fill="#E63946" opacity="0.9"/>
  <text x="60" y="108" text-anchor="middle" font-family="Monaco, monospace" font-size="8" font-weight="700" fill="#E63946" letter-spacing="1">PlugX</text>
  <!-- Attack arrows -->
  <line x1="106" y1="46" x2="148" y2="34" stroke="#E63946" stroke-width="1.4" stroke-dasharray="4,3" opacity="0.7"/>
  <polygon points="148,34 140,30 141,40" fill="#E63946" opacity="0.7"/>
  <line x1="106" y1="72" x2="150" y2="72" stroke="#E63946" stroke-width="1.4" stroke-dasharray="4,3" opacity="0.7"/>
  <polygon points="150,72 142,68 142,76" fill="#E63946" opacity="0.7"/>
  <!-- Target boxes -->
  <rect x="154" y="22" width="62" height="26" rx="4" fill="#1A0C18" stroke="#7A4A5A" stroke-width="1"/>
  <text x="185" y="39" text-anchor="middle" font-family="Inter, Helvetica, Arial, sans-serif" font-size="8" font-weight="700" fill="#C9A0A8">EU GOV</text>
  <rect x="156" y="58" width="62" height="26" rx="4" fill="#1A0C18" stroke="#7A4A5A" stroke-width="1"/>
  <text x="187" y="75" text-anchor="middle" font-family="Inter, Helvetica, Arial, sans-serif" font-size="8" font-weight="700" fill="#C9A0A8">DIPLOMATIC</text>
</g>

<!-- Card 1 text -->
<g filter="url(#textShadow)">
  <text x="674" y="116" font-family="Inter, Helvetica, Arial, sans-serif" font-size="11" font-weight="700" letter-spacing="2.2" fill="#E63946">TA416 APT -- HIGH</text>
  <text x="674" y="152" font-family="Inter, Helvetica, Arial, sans-serif" font-size="28" font-weight="800" fill="#F5F7FA">PlugX + OAuth Phishing</text>
  <text x="674" y="180" font-family="Inter, Helvetica, Arial, sans-serif" font-size="14" font-weight="600" fill="#C9A0A8">China-linked TA416 targets European govts</text>
  <text x="674" y="202" font-family="Inter, Helvetica, Arial, sans-serif" font-size="11" font-weight="500" fill="#7A6A70">2yr dormancy ended - DarkPeony resurgence - MFA bypass</text>
</g>

<!-- Card 1 KPI -->
<g transform="translate(1030, 148)" filter="url(#softShadow)">
  <rect x="0" y="0" width="116" height="110" rx="10" fill="url(#kpiRedGrad)" stroke="#E63946" stroke-width="1.8"/>
  <text x="58" y="20" text-anchor="middle" font-family="Inter, Helvetica, Arial, sans-serif" font-size="9" font-weight="700" letter-spacing="2" fill="#E63946">TARGETS</text>
  <text x="58" y="72" text-anchor="middle" font-family="Inter, Helvetica, Arial, sans-serif" font-size="52" font-weight="900" fill="#F5F7FA">EU</text>
  <text x="58" y="90" text-anchor="middle" font-family="Inter, Helvetica, Arial, sans-serif" font-size="9" font-weight="600" fill="#C9A0A8">Gov + Diplomatic</text>
  <circle cx="58" cy="104" r="4" fill="#E63946">
    <animate attributeName="opacity" values="1;0.2;1" dur="1.8s" repeatCount="indefinite"/>
    <animate attributeName="r" values="4;6;4" dur="1.8s" repeatCount="indefinite"/>
  </circle>
</g>

<!-- Card 1 bottom separator -->
<rect x="652" y="326" width="516" height="2" fill="#2A1820" opacity="0.8"/>

<!-- ==========================================
     BOTTOM RIGHT CARD: 516x246 at (652,344)
     LinkedIn 6K+ Extensions Scanned — MEDIUM
     ========================================== -->
<rect x="652" y="344" width="516" height="246" rx="12" fill="url(#card2Grad)" stroke="#FFB703" stroke-width="1.2" filter="url(#softShadow)"/>
<rect x="652" y="344" width="516" height="246" fill="url(#codeLines)" rx="12" opacity="0.3"/>

<!-- Card 2 top stripe -->
<rect x="652" y="344" width="516" height="4" rx="2" fill="#FFB703">
  <animate attributeName="opacity" values="0.7;1;0.7" dur="3.8s" repeatCount="indefinite"/>
</rect>

<!-- Card 2 ambient glow -->
<ellipse cx="910" cy="467" rx="200" ry="80" fill="url(#glowAmber)" opacity="0.18"/>

<!-- Card 2 illustration: browser extension scan -->
<g transform="translate(856, 358)">
  <!-- Browser window -->
  <rect x="0" y="0" width="290" height="138" rx="8" fill="#0C1018" stroke="#FFB703" stroke-width="1.4" filter="url(#softShadow)"/>
  <!-- Browser bar -->
  <rect x="0" y="0" width="290" height="22" rx="8" fill="#12180A"/>
  <rect x="0" y="11" width="290" height="11" fill="#12180A"/>
  <!-- Dots -->
  <circle cx="12" cy="11" r="4" fill="#E63946" opacity="0.8"/>
  <circle cx="24" cy="11" r="4" fill="#FFB703" opacity="0.8"/>
  <circle cx="36" cy="11" r="4" fill="#4ADE80" opacity="0.8"/>
  <!-- URL bar -->
  <rect x="50" y="4" width="190" height="14" rx="3" fill="#0A1008" stroke="#2A3010" stroke-width="0.8"/>
  <text x="145" y="14" text-anchor="middle" font-family="Monaco, monospace" font-size="6.5" fill="#7A9A60">linkedin.com/scan-extensions</text>
  <!-- Extension tiles -->
  <text x="14" y="40" font-family="Inter, Helvetica, Arial, sans-serif" font-size="8" font-weight="700" fill="#FFB703">Scanning Chrome Extensions</text>
  <rect x="14" y="48" width="52" height="22" rx="3" fill="#1A1A0A" stroke="#4A4A10" stroke-width="0.7"/>
  <text x="40" y="63" text-anchor="middle" font-family="Inter, Helvetica, Arial, sans-serif" font-size="6" fill="#9A9A60">Ext #1</text>
  <rect x="72" y="48" width="52" height="22" rx="3" fill="#1A1A0A" stroke="#4A4A10" stroke-width="0.7"/>
  <text x="98" y="63" text-anchor="middle" font-family="Inter, Helvetica, Arial, sans-serif" font-size="6" fill="#9A9A60">Ext #2</text>
  <rect x="130" y="48" width="52" height="22" rx="3" fill="#1A1A0A" stroke="#FFB703" stroke-width="1.2"/>
  <text x="156" y="63" text-anchor="middle" font-family="Inter, Helvetica, Arial, sans-serif" font-size="6" fill="#FFB703">Flagged</text>
  <rect x="188" y="48" width="52" height="22" rx="3" fill="#1A1A0A" stroke="#4A4A10" stroke-width="0.7"/>
  <text x="214" y="63" text-anchor="middle" font-family="Inter, Helvetica, Arial, sans-serif" font-size="6" fill="#9A9A60">6000+</text>
  <!-- Progress bar -->
  <rect x="14" y="78" width="258" height="7" rx="3" fill="#1A1808" stroke="#2A2810" stroke-width="0.6"/>
  <rect x="14" y="78" width="200" height="7" rx="3" fill="#FFB703" opacity="0.7">
    <animate attributeName="width" values="80;200;80" dur="4s" repeatCount="indefinite"/>
  </rect>
  <text x="14" y="100" font-family="Inter, Helvetica, Arial, sans-serif" font-size="7" fill="#8A8A50">6,000+ extensions fingerprinted silently</text>
  <text x="14" y="114" font-family="Monaco, monospace" font-size="7" fill="#5A5A30">data harvested - user profiling - covert telemetry</text>
</g>

<!-- Card 2 text -->
<g filter="url(#textShadow)">
  <text x="674" y="380" font-family="Inter, Helvetica, Arial, sans-serif" font-size="11" font-weight="700" letter-spacing="2.2" fill="#FFB703">LINKEDIN SCAN -- MEDIUM</text>
  <text x="674" y="414" font-family="Inter, Helvetica, Arial, sans-serif" font-size="26" font-weight="800" fill="#F5F7FA">6,000+ Extensions Scanned</text>
  <text x="674" y="440" font-family="Inter, Helvetica, Arial, sans-serif" font-size="14" font-weight="600" fill="#C9B070">LinkedIn silently fingerprints Chrome extensions</text>
  <text x="674" y="462" font-family="Inter, Helvetica, Arial, sans-serif" font-size="11" font-weight="500" fill="#7A6A40">Covert telemetry - user data collection - BleepingComputer</text>
</g>

<!-- Card 2 KPI -->
<g transform="translate(1044, 476)" filter="url(#softShadow)">
  <rect x="0" y="0" width="102" height="96" rx="10" fill="url(#kpiAmberGrad)" stroke="#FFB703" stroke-width="1.8"/>
  <text x="51" y="18" text-anchor="middle" font-family="Inter, Helvetica, Arial, sans-serif" font-size="9" font-weight="700" letter-spacing="1.5" fill="#FFB703">EXT SCANNED</text>
  <text x="51" y="62" text-anchor="middle" font-family="Inter, Helvetica, Arial, sans-serif" font-size="40" font-weight="900" fill="#F5F7FA">6K+</text>
  <text x="51" y="78" text-anchor="middle" font-family="Inter, Helvetica, Arial, sans-serif" font-size="9" font-weight="600" fill="#C9B070">Chrome ext</text>
  <circle cx="51" cy="90" r="4" fill="#FFB703">
    <animate attributeName="opacity" values="1;0.2;1" dur="2.6s" repeatCount="indefinite"/>
    <animate attributeName="r" values="4;6;4" dur="2.6s" repeatCount="indefinite"/>
  </circle>
</g>

<!-- cover-qr: https://tech.2twodragon.com/posts/2026/04/04/Tech_Security_Weekly_Digest_Go_AI_Data_Security/ : 41x41 -->
<g transform="translate(1080,504)" filter="url(#softShadow)">
  <rect x="-8" y="-8" width="100" height="100" rx="6" fill="#FFFFFF"/>
  <path fill="#0A1020" d="M0.0 0.0h14.341v2.049h-14.341z M18.439 0.0h2.049v2.049h-2.049z M28.683 0.0h10.244v2.049h-10.244z M40.976 0.0h6.146v2.049h-6.146z M51.22 0.0h2.049v2.049h-2.049z M57.366 0.0h2.049v2.049h-2.049z M61.463 0.0h6.146v2.049h-6.146z M69.659 0.0h14.341v2.049h-14.341z M0.0 2.049h2.049v2.049h-2.049z M12.293 2.049h2.049v2.049h-2.049z M20.488 2.049h4.098v2.049h-4.098z M26.634 2.049h2.049v2.049h-2.049z M32.78 2.049h4.098v2.049h-4.098z M40.976 2.049h4.098v2.049h-4.098z M49.171 2.049h8.195v2.049h-8.195z M59.415 2.049h4.098v2.049h-4.098z M65.561 2.049h2.049v2.049h-2.049z M69.659 2.049h2.049v2.049h-2.049z M81.951 2.049h2.049v2.049h-2.049z M0.0 4.098h2.049v2.049h-2.049z M4.098 4.098h6.146v2.049h-6.146z M12.293 4.098h2.049v2.049h-2.049z M16.39 4.098h4.098v2.049h-4.098z M22.537 4.098h4.098v2.049h-4.098z M30.732 4.098h2.049v2.049h-2.049z M34.829 4.098h4.098v2.049h-4.098z M43.024 4.098h4.098v2.049h-4.098z M51.22 4.098h2.049v2.049h-2.049z M55.317 4.098h4.098v2.049h-4.098z M61.463 4.098h2.049v2.049h-2.049z M65.561 4.098h2.049v2.049h-2.049z M69.659 4.098h2.049v2.049h-2.049z M73.756 4.098h6.146v2.049h-6.146z M81.951 4.098h2.049v2.049h-2.049z M0.0 6.146h2.049v2.049h-2.049z M4.098 6.146h6.146v2.049h-6.146z M12.293 6.146h2.049v2.049h-2.049z M16.39 6.146h2.049v2.049h-2.049z M22.537 6.146h4.098v2.049h-4.098z M32.78 6.146h2.049v2.049h-2.049z M40.976 6.146h4.098v2.049h-4.098z M53.268 6.146h8.195v2.049h-8.195z M65.561 6.146h2.049v2.049h-2.049z M69.659 6.146h2.049v2.049h-2.049z M73.756 6.146h6.146v2.049h-6.146z M81.951 6.146h2.049v2.049h-2.049z M0.0 8.195h2.049v2.049h-2.049z M4.098 8.195h6.146v2.049h-6.146z M12.293 8.195h2.049v2.049h-2.049z M16.39 8.195h4.098v2.049h-4.098z M22.537 8.195h4.098v2.049h-4.098z M32.78 8.195h6.146v2.049h-6.146z M40.976 8.195h6.146v2.049h-6.146z M61.463 8.195h4.098v2.049h-4.098z M69.659 8.195h2.049v2.049h-2.049z M73.756 8.195h6.146v2.049h-6.146z M81.951 8.195h2.049v2.049h-2.049z M0.0 10.244h2.049v2.049h-2.049z M12.293 10.244h2.049v2.049h-2.049z M16.39 10.244h6.146v2.049h-6.146z M28.683 10.244h8.195v2.049h-8.195z M40.976 10.244h2.049v2.049h-2.049z M51.22 10.244h2.049v2.049h-2.049z M55.317 10.244h2.049v2.049h-2.049z M69.659 10.244h2.049v2.049h-2.049z M81.951 10.244h2.049v2.049h-2.049z M0.0 12.293h14.341v2.049h-14.341z M16.39 12.293h2.049v2.049h-2.049z M20.488 12.293h2.049v2.049h-2.049z M24.585 12.293h2.049v2.049h-2.049z M28.683 12.293h2.049v2.049h-2.049z M32.78 12.293h2.049v2.049h-2.049z M36.878 12.293h2.049v2.049h-2.049z M40.976 12.293h2.049v2.049h-2.049z M45.073 12.293h2.049v2.049h-2.049z M49.171 12.293h2.049v2.049h-2.049z M53.268 12.293h2.049v2.049h-2.049z M57.366 12.293h2.049v2.049h-2.049z M61.463 12.293h2.049v2.049h-2.049z M65.561 12.293h2.049v2.049h-2.049z M69.659 12.293h14.341v2.049h-14.341z M16.39 14.341h4.098v2.049h-4.098z M22.537 14.341h6.146v2.049h-6.146z M30.732 14.341h4.098v2.049h-4.098z M36.878 14.341h8.195v2.049h-8.195z M47.122 14.341h2.049v2.049h-2.049z M55.317 14.341h2.049v2.049h-2.049z M61.463 14.341h4.098v2.049h-4.098z M0.0 16.39h2.049v2.049h-2.049z M4.098 16.39h10.244v2.049h-10.244z M24.585 16.39h2.049v2.049h-2.049z M32.78 16.39h4.098v2.049h-4.098z M38.927 16.39h2.049v2.049h-2.049z M45.073 16.39h4.098v2.049h-4.098z M51.22 16.39h10.244v2.049h-10.244z M65.561 16.39h2.049v2.049h-2.049z M69.659 16.39h10.244v2.049h-10.244z M2.049 18.439h2.049v2.049h-2.049z M6.146 18.439h2.049v2.049h-2.049z M16.39 18.439h8.195v2.049h-8.195z M26.634 18.439h4.098v2.049h-4.098z M32.78 18.439h2.049v2.049h-2.049z M36.878 18.439h4.098v2.049h-4.098z M43.024 18.439h2.049v2.049h-2.049z M47.122 18.439h2.049v2.049h-2.049z M53.268 18.439h2.049v2.049h-2.049z M61.463 18.439h6.146v2.049h-6.146z M71.707 18.439h4.098v2.049h-4.098z M77.854 18.439h2.049v2.049h-2.049z M81.951 18.439h2.049v2.049h-2.049z M0.0 20.488h6.146v2.049h-6.146z M8.195 20.488h10.244v2.049h-10.244z M20.488 20.488h4.098v2.049h-4.098z M28.683 20.488h2.049v2.049h-2.049z M32.78 20.488h6.146v2.049h-6.146z M43.024 20.488h4.098v2.049h-4.098z M49.171 20.488h2.049v2.049h-2.049z M53.268 20.488h4.098v2.049h-4.098z M61.463 20.488h2.049v2.049h-2.049z M65.561 20.488h4.098v2.049h-4.098z M71.707 20.488h4.098v2.049h-4.098z M2.049 22.537h4.098v2.049h-4.098z M14.341 22.537h4.098v2.049h-4.098z M24.585 22.537h2.049v2.049h-2.049z M32.78 22.537h2.049v2.049h-2.049z M38.927 22.537h6.146v2.049h-6.146z M57.366 22.537h2.049v2.049h-2.049z M61.463 22.537h6.146v2.049h-6.146z M69.659 22.537h2.049v2.049h-2.049z M75.805 22.537h2.049v2.049h-2.049z M0.0 24.585h4.098v2.049h-4.098z M6.146 24.585h4.098v2.049h-4.098z M12.293 24.585h4.098v2.049h-4.098z M18.439 24.585h2.049v2.049h-2.049z M22.537 24.585h2.049v2.049h-2.049z M32.78 24.585h4.098v2.049h-4.098z M38.927 24.585h4.098v2.049h-4.098z M45.073 24.585h2.049v2.049h-2.049z M49.171 24.585h4.098v2.049h-4.098z M59.415 24.585h8.195v2.049h-8.195z M71.707 24.585h2.049v2.049h-2.049z M75.805 24.585h6.146v2.049h-6.146z M0.0 26.634h6.146v2.049h-6.146z M8.195 26.634h2.049v2.049h-2.049z M16.39 26.634h8.195v2.049h-8.195z M28.683 26.634h2.049v2.049h-2.049z M32.78 26.634h6.146v2.049h-6.146z M51.22 26.634h2.049v2.049h-2.049z M55.317 26.634h2.049v2.049h-2.049z M59.415 26.634h2.049v2.049h-2.049z M63.512 26.634h16.39v2.049h-16.39z M81.951 26.634h2.049v2.049h-2.049z M0.0 28.683h2.049v2.049h-2.049z M4.098 28.683h2.049v2.049h-2.049z M8.195 28.683h2.049v2.049h-2.049z M12.293 28.683h2.049v2.049h-2.049z M18.439 28.683h2.049v2.049h-2.049z M22.537 28.683h2.049v2.049h-2.049z M26.634 28.683h4.098v2.049h-4.098z M36.878 28.683h2.049v2.049h-2.049z M40.976 28.683h2.049v2.049h-2.049z M45.073 28.683h6.146v2.049h-6.146z M55.317 28.683h8.195v2.049h-8.195z M65.561 28.683h4.098v2.049h-4.098z M71.707 28.683h2.049v2.049h-2.049z M75.805 28.683h4.098v2.049h-4.098z M0.0 30.732h6.146v2.049h-6.146z M8.195 30.732h4.098v2.049h-4.098z M18.439 30.732h4.098v2.049h-4.098z M32.78 30.732h2.049v2.049h-2.049z M43.024 30.732h6.146v2.049h-6.146z M53.268 30.732h2.049v2.049h-2.049z M57.366 30.732h2.049v2.049h-2.049z M65.561 30.732h2.049v2.049h-2.049z M69.659 30.732h2.049v2.049h-2.049z M73.756 30.732h4.098v2.049h-4.098z M0.0 32.78h8.195v2.049h-8.195z M10.244 32.78h6.146v2.049h-6.146z M20.488 32.78h2.049v2.049h-2.049z M32.78 32.78h2.049v2.049h-2.049z M43.024 32.78h6.146v2.049h-6.146z M51.22 32.78h4.098v2.049h-4.098z M59.415 32.78h2.049v2.049h-2.049z M67.61 32.78h2.049v2.049h-2.049z M71.707 32.78h2.049v2.049h-2.049z M75.805 32.78h4.098v2.049h-4.098z M0.0 34.829h4.098v2.049h-4.098z M8.195 34.829h2.049v2.049h-2.049z M14.341 34.829h2.049v2.049h-2.049z M18.439 34.829h4.098v2.049h-4.098z M24.585 34.829h4.098v2.049h-4.098z M32.78 34.829h2.049v2.049h-2.049z M40.976 34.829h2.049v2.049h-2.049z M47.122 34.829h2.049v2.049h-2.049z M55.317 34.829h12.293v2.049h-12.293z M69.659 34.829h6.146v2.049h-6.146z M79.902 34.829h4.098v2.049h-4.098z M2.049 36.878h4.098v2.049h-4.098z M8.195 36.878h6.146v2.049h-6.146z M22.537 36.878h2.049v2.049h-2.049z M26.634 36.878h4.098v2.049h-4.098z M32.78 36.878h2.049v2.049h-2.049z M36.878 36.878h2.049v2.049h-2.049z M40.976 36.878h2.049v2.049h-2.049z M45.073 36.878h2.049v2.049h-2.049z M55.317 36.878h4.098v2.049h-4.098z M61.463 36.878h2.049v2.049h-2.049z M65.561 36.878h2.049v2.049h-2.049z M73.756 36.878h2.049v2.049h-2.049z M77.854 36.878h4.098v2.049h-4.098z M2.049 38.927h2.049v2.049h-2.049z M16.39 38.927h6.146v2.049h-6.146z M24.585 38.927h4.098v2.049h-4.098z M32.78 38.927h2.049v2.049h-2.049z M38.927 38.927h4.098v2.049h-4.098z M47.122 38.927h4.098v2.049h-4.098z M53.268 38.927h2.049v2.049h-2.049z M57.366 38.927h2.049v2.049h-2.049z M65.561 38.927h4.098v2.049h-4.098z M73.756 38.927h4.098v2.049h-4.098z M0.0 40.976h8.195v2.049h-8.195z M12.293 40.976h2.049v2.049h-2.049z M26.634 40.976h2.049v2.049h-2.049z M30.732 40.976h2.049v2.049h-2.049z M36.878 40.976h10.244v2.049h-10.244z M49.171 40.976h2.049v2.049h-2.049z M57.366 40.976h4.098v2.049h-4.098z M65.561 40.976h2.049v2.049h-2.049z M71.707 40.976h4.098v2.049h-4.098z M77.854 40.976h2.049v2.049h-2.049z M81.951 40.976h2.049v2.049h-2.049z M2.049 43.024h4.098v2.049h-4.098z M8.195 43.024h4.098v2.049h-4.098z M14.341 43.024h12.293v2.049h-12.293z M30.732 43.024h4.098v2.049h-4.098z M40.976 43.024h4.098v2.049h-4.098z M47.122 43.024h4.098v2.049h-4.098z M53.268 43.024h2.049v2.049h-2.049z M63.512 43.024h2.049v2.049h-2.049z M69.659 43.024h8.195v2.049h-8.195z M79.902 43.024h4.098v2.049h-4.098z M2.049 45.073h2.049v2.049h-2.049z M8.195 45.073h2.049v2.049h-2.049z M12.293 45.073h2.049v2.049h-2.049z M16.39 45.073h8.195v2.049h-8.195z M28.683 45.073h2.049v2.049h-2.049z M34.829 45.073h4.098v2.049h-4.098z M43.024 45.073h2.049v2.049h-2.049z M49.171 45.073h2.049v2.049h-2.049z M53.268 45.073h6.146v2.049h-6.146z M65.561 45.073h2.049v2.049h-2.049z M69.659 45.073h4.098v2.049h-4.098z M6.146 47.122h4.098v2.049h-4.098z M14.341 47.122h4.098v2.049h-4.098z M24.585 47.122h2.049v2.049h-2.049z M30.732 47.122h4.098v2.049h-4.098z M43.024 47.122h4.098v2.049h-4.098z M57.366 47.122h2.049v2.049h-2.049z M63.512 47.122h4.098v2.049h-4.098z M69.659 47.122h4.098v2.049h-4.098z M75.805 47.122h2.049v2.049h-2.049z M2.049 49.171h4.098v2.049h-4.098z M12.293 49.171h6.146v2.049h-6.146z M20.488 49.171h8.195v2.049h-8.195z M34.829 49.171h2.049v2.049h-2.049z M38.927 49.171h2.049v2.049h-2.049z M45.073 49.171h2.049v2.049h-2.049z M49.171 49.171h6.146v2.049h-6.146z M59.415 49.171h2.049v2.049h-2.049z M63.512 49.171h2.049v2.049h-2.049z M71.707 49.171h2.049v2.049h-2.049z M77.854 49.171h2.049v2.049h-2.049z M81.951 49.171h2.049v2.049h-2.049z M0.0 51.22h4.098v2.049h-4.098z M14.341 51.22h2.049v2.049h-2.049z M20.488 51.22h10.244v2.049h-10.244z M32.78 51.22h2.049v2.049h-2.049z M36.878 51.22h8.195v2.049h-8.195z M47.122 51.22h2.049v2.049h-2.049z M51.22 51.22h4.098v2.049h-4.098z M61.463 51.22h4.098v2.049h-4.098z M71.707 51.22h6.146v2.049h-6.146z M79.902 51.22h4.098v2.049h-4.098z M0.0 53.268h4.098v2.049h-4.098z M6.146 53.268h8.195v2.049h-8.195z M24.585 53.268h2.049v2.049h-2.049z M30.732 53.268h2.049v2.049h-2.049z M40.976 53.268h6.146v2.049h-6.146z M51.22 53.268h6.146v2.049h-6.146z M59.415 53.268h4.098v2.049h-4.098z M65.561 53.268h2.049v2.049h-2.049z M73.756 53.268h2.049v2.049h-2.049z M0.0 55.317h2.049v2.049h-2.049z M4.098 55.317h2.049v2.049h-2.049z M14.341 55.317h4.098v2.049h-4.098z M24.585 55.317h10.244v2.049h-10.244z M38.927 55.317h10.244v2.049h-10.244z M53.268 55.317h4.098v2.049h-4.098z M61.463 55.317h6.146v2.049h-6.146z M71.707 55.317h6.146v2.049h-6.146z M79.902 55.317h2.049v2.049h-2.049z M0.0 57.366h2.049v2.049h-2.049z M6.146 57.366h8.195v2.049h-8.195z M18.439 57.366h8.195v2.049h-8.195z M32.78 57.366h4.098v2.049h-4.098z M38.927 57.366h2.049v2.049h-2.049z M45.073 57.366h4.098v2.049h-4.098z M51.22 57.366h2.049v2.049h-2.049z M59.415 57.366h8.195v2.049h-8.195z M71.707 57.366h2.049v2.049h-2.049z M75.805 57.366h4.098v2.049h-4.098z M0.0 59.415h6.146v2.049h-6.146z M8.195 59.415h2.049v2.049h-2.049z M14.341 59.415h2.049v2.049h-2.049z M18.439 59.415h4.098v2.049h-4.098z M26.634 59.415h6.146v2.049h-6.146z M34.829 59.415h4.098v2.049h-4.098z M40.976 59.415h4.098v2.049h-4.098z M49.171 59.415h2.049v2.049h-2.049z M53.268 59.415h2.049v2.049h-2.049z M59.415 59.415h2.049v2.049h-2.049z M63.512 59.415h12.293v2.049h-12.293z M81.951 59.415h2.049v2.049h-2.049z M0.0 61.463h2.049v2.049h-2.049z M8.195 61.463h14.341v2.049h-14.341z M26.634 61.463h6.146v2.049h-6.146z M34.829 61.463h2.049v2.049h-2.049z M38.927 61.463h2.049v2.049h-2.049z M45.073 61.463h2.049v2.049h-2.049z M51.22 61.463h8.195v2.049h-8.195z M65.561 61.463h8.195v2.049h-8.195z M0.0 63.512h2.049v2.049h-2.049z M10.244 63.512h2.049v2.049h-2.049z M14.341 63.512h2.049v2.049h-2.049z M24.585 63.512h2.049v2.049h-2.049z M30.732 63.512h2.049v2.049h-2.049z M38.927 63.512h8.195v2.049h-8.195z M49.171 63.512h2.049v2.049h-2.049z M53.268 63.512h4.098v2.049h-4.098z M61.463 63.512h4.098v2.049h-4.098z M67.61 63.512h6.146v2.049h-6.146z M75.805 63.512h2.049v2.049h-2.049z M81.951 63.512h2.049v2.049h-2.049z M0.0 65.561h2.049v2.049h-2.049z M4.098 65.561h2.049v2.049h-2.049z M10.244 65.561h4.098v2.049h-4.098z M16.39 65.561h8.195v2.049h-8.195z M38.927 65.561h4.098v2.049h-4.098z M45.073 65.561h2.049v2.049h-2.049z M51.22 65.561h4.098v2.049h-4.098z M57.366 65.561h4.098v2.049h-4.098z M65.561 65.561h10.244v2.049h-10.244z M77.854 65.561h4.098v2.049h-4.098z M16.39 67.61h4.098v2.049h-4.098z M30.732 67.61h2.049v2.049h-2.049z M34.829 67.61h4.098v2.049h-4.098z M40.976 67.61h4.098v2.049h-4.098z M47.122 67.61h2.049v2.049h-2.049z M51.22 67.61h2.049v2.049h-2.049z M55.317 67.61h4.098v2.049h-4.098z M65.561 67.61h2.049v2.049h-2.049z M73.756 67.61h2.049v2.049h-2.049z M77.854 67.61h6.146v2.049h-6.146z M0.0 69.659h14.341v2.049h-14.341z M18.439 69.659h8.195v2.049h-8.195z M30.732 69.659h6.146v2.049h-6.146z M40.976 69.659h4.098v2.049h-4.098z M51.22 69.659h8.195v2.049h-8.195z M63.512 69.659h4.098v2.049h-4.098z M69.659 69.659h2.049v2.049h-2.049z M73.756 69.659h4.098v2.049h-4.098z M0.0 71.707h2.049v2.049h-2.049z M12.293 71.707h2.049v2.049h-2.049z M16.39 71.707h2.049v2.049h-2.049z M20.488 71.707h2.049v2.049h-2.049z M24.585 71.707h2.049v2.049h-2.049z M28.683 71.707h2.049v2.049h-2.049z M34.829 71.707h12.293v2.049h-12.293z M51.22 71.707h2.049v2.049h-2.049z M55.317 71.707h2.049v2.049h-2.049z M61.463 71.707h6.146v2.049h-6.146z M73.756 71.707h4.098v2.049h-4.098z M81.951 71.707h2.049v2.049h-2.049z M0.0 73.756h2.049v2.049h-2.049z M4.098 73.756h6.146v2.049h-6.146z M12.293 73.756h2.049v2.049h-2.049z M16.39 73.756h2.049v2.049h-2.049z M24.585 73.756h4.098v2.049h-4.098z M32.78 73.756h2.049v2.049h-2.049z M38.927 73.756h2.049v2.049h-2.049z M43.024 73.756h2.049v2.049h-2.049z M53.268 73.756h2.049v2.049h-2.049z M59.415 73.756h2.049v2.049h-2.049z M65.561 73.756h14.341v2.049h-14.341z M81.951 73.756h2.049v2.049h-2.049z M0.0 75.805h2.049v2.049h-2.049z M4.098 75.805h6.146v2.049h-6.146z M12.293 75.805h2.049v2.049h-2.049z M16.39 75.805h4.098v2.049h-4.098z M22.537 75.805h2.049v2.049h-2.049z M28.683 75.805h2.049v2.049h-2.049z M36.878 75.805h14.341v2.049h-14.341z M63.512 75.805h6.146v2.049h-6.146z M71.707 75.805h2.049v2.049h-2.049z M0.0 77.854h2.049v2.049h-2.049z M4.098 77.854h6.146v2.049h-6.146z M12.293 77.854h2.049v2.049h-2.049z M16.39 77.854h8.195v2.049h-8.195z M26.634 77.854h4.098v2.049h-4.098z M34.829 77.854h4.098v2.049h-4.098z M40.976 77.854h2.049v2.049h-2.049z M45.073 77.854h2.049v2.049h-2.049z M49.171 77.854h8.195v2.049h-8.195z M59.415 77.854h6.146v2.049h-6.146z M67.61 77.854h10.244v2.049h-10.244z M0.0 79.902h2.049v2.049h-2.049z M12.293 79.902h2.049v2.049h-2.049z M18.439 79.902h4.098v2.049h-4.098z M28.683 79.902h6.146v2.049h-6.146z M36.878 79.902h4.098v2.049h-4.098z M43.024 79.902h4.098v2.049h-4.098z M49.171 79.902h2.049v2.049h-2.049z M53.268 79.902h2.049v2.049h-2.049z M57.366 79.902h2.049v2.049h-2.049z M65.561 79.902h4.098v2.049h-4.098z M73.756 79.902h4.098v2.049h-4.098z M79.902 79.902h2.049v2.049h-2.049z M0.0 81.951h14.341v2.049h-14.341z M16.39 81.951h6.146v2.049h-6.146z M26.634 81.951h6.146v2.049h-6.146z M34.829 81.951h2.049v2.049h-2.049z M45.073 81.951h2.049v2.049h-2.049z M49.171 81.951h8.195v2.049h-8.195z M59.415 81.951h2.049v2.049h-2.049z M69.659 81.951h8.195v2.049h-8.195z"/>
</g>
<text x="1122" y="614" font-family="Inter, Helvetica, Arial, sans-serif" font-size="10" font-weight="700" fill="#F5F7FA" text-anchor="middle">scan / full post</text>
</svg>
