<svg xmlns="http://www.w3.org/2000/svg" width="1200" height="630" viewBox="0 0 1200 630">
  <title>Tech Security Weekly Digest - April 20 2026</title>
  <defs>
    <linearGradient id="bgMain" x1="0%" y1="0%" x2="100%" y2="100%">
      <stop offset="0%" stop-color="#0d1117"/>
      <stop offset="45%" stop-color="#0a0f1e"/>
      <stop offset="100%" stop-color="#070d1a"/>
    </linearGradient>
    <linearGradient id="bgLeft" x1="0%" y1="0%" x2="100%" y2="0%">
      <stop offset="0%" stop-color="#090e1c"/>
      <stop offset="100%" stop-color="#0d1420"/>
    </linearGradient>
    <linearGradient id="bgTopScene" x1="0%" y1="0%" x2="0%" y2="100%">
      <stop offset="0%" stop-color="#12080e"/>
      <stop offset="100%" stop-color="#0d1117"/>
    </linearGradient>
    <linearGradient id="bgBottomScene" x1="0%" y1="0%" x2="0%" y2="100%">
      <stop offset="0%" stop-color="#0b1120"/>
      <stop offset="100%" stop-color="#08101a"/>
    </linearGradient>
    <linearGradient id="crackGlow" x1="0%" y1="0%" x2="100%" y2="0%">
      <stop offset="0%" stop-color="#dc2626" stop-opacity="0"/>
      <stop offset="30%" stop-color="#ef4444" stop-opacity="0.8"/>
      <stop offset="50%" stop-color="#ff6060" stop-opacity="1"/>
      <stop offset="70%" stop-color="#ef4444" stop-opacity="0.8"/>
      <stop offset="100%" stop-color="#dc2626" stop-opacity="0"/>
    </linearGradient>
    <linearGradient id="shieldGrad" x1="0%" y1="0%" x2="100%" y2="100%">
      <stop offset="0%" stop-color="#1e3a5f"/>
      <stop offset="100%" stop-color="#0f1f3d"/>
    </linearGradient>
    <linearGradient id="badgeGrad" x1="0%" y1="0%" x2="100%" y2="0%">
      <stop offset="0%" stop-color="#dc2626"/>
      <stop offset="100%" stop-color="#991b1b"/>
    </linearGradient>
    <linearGradient id="appleGrad" x1="0%" y1="0%" x2="100%" y2="100%">
      <stop offset="0%" stop-color="#3a1424"/>
      <stop offset="100%" stop-color="#1a0810"/>
    </linearGradient>
    <linearGradient id="nistGrad" x1="0%" y1="0%" x2="100%" y2="100%">
      <stop offset="0%" stop-color="#3a2410"/>
      <stop offset="100%" stop-color="#1a1208"/>
    </linearGradient>
    <linearGradient id="palGrad" x1="0%" y1="0%" x2="100%" y2="100%">
      <stop offset="0%" stop-color="#1e3a5f"/>
      <stop offset="100%" stop-color="#0c2040"/>
    </linearGradient>
    <linearGradient id="notionGrad" x1="0%" y1="0%" x2="100%" y2="100%">
      <stop offset="0%" stop-color="#0e3a3a"/>
      <stop offset="100%" stop-color="#06202a"/>
    </linearGradient>
    <linearGradient id="sevCritical" x1="0%" y1="0%" x2="100%" y2="0%">
      <stop offset="0%" stop-color="#dc2626"/>
      <stop offset="100%" stop-color="#7f1d1d"/>
    </linearGradient>
    <linearGradient id="sevHigh" x1="0%" y1="0%" x2="100%" y2="0%">
      <stop offset="0%" stop-color="#f59e0b"/>
      <stop offset="100%" stop-color="#b45309"/>
    </linearGradient>
    <linearGradient id="sevMed" x1="0%" y1="0%" x2="100%" y2="0%">
      <stop offset="0%" stop-color="#3b82f6"/>
      <stop offset="100%" stop-color="#1d4ed8"/>
    </linearGradient>
    <linearGradient id="footerGrad" x1="0%" y1="0%" x2="100%" y2="0%">
      <stop offset="0%" stop-color="#0d1117"/>
      <stop offset="50%" stop-color="#0a0f1c"/>
      <stop offset="100%" stop-color="#0d1117"/>
    </linearGradient>
    <linearGradient id="envelopeGrad" x1="0%" y1="0%" x2="0%" y2="100%">
      <stop offset="0%" stop-color="#1f2937"/>
      <stop offset="100%" stop-color="#111827"/>
    </linearGradient>
    <linearGradient id="hookGrad" x1="0%" y1="0%" x2="0%" y2="100%">
      <stop offset="0%" stop-color="#f87171"/>
      <stop offset="100%" stop-color="#991b1b"/>
    </linearGradient>
    <radialGradient id="appleGlow" cx="50%" cy="50%" r="50%">
      <stop offset="0%" stop-color="#dc2626" stop-opacity="0.5"/>
      <stop offset="100%" stop-color="#dc2626" stop-opacity="0"/>
    </radialGradient>
    <radialGradient id="nistGlow" cx="50%" cy="50%" r="50%">
      <stop offset="0%" stop-color="#f59e0b" stop-opacity="0.45"/>
      <stop offset="100%" stop-color="#f59e0b" stop-opacity="0"/>
    </radialGradient>
    <radialGradient id="palGlow" cx="50%" cy="50%" r="50%">
      <stop offset="0%" stop-color="#3b82f6" stop-opacity="0.4"/>
      <stop offset="100%" stop-color="#3b82f6" stop-opacity="0"/>
    </radialGradient>
    <radialGradient id="notionGlow" cx="50%" cy="50%" r="50%">
      <stop offset="0%" stop-color="#06b6d4" stop-opacity="0.4"/>
      <stop offset="100%" stop-color="#06b6d4" stop-opacity="0"/>
    </radialGradient>
    <radialGradient id="centerGlow" cx="50%" cy="50%" r="50%">
      <stop offset="0%" stop-color="#ef4444" stop-opacity="0.28"/>
      <stop offset="100%" stop-color="#ef4444" stop-opacity="0"/>
    </radialGradient>
    <radialGradient id="inboxGlow" cx="50%" cy="50%" r="50%">
      <stop offset="0%" stop-color="#22c55e" stop-opacity="0.35"/>
      <stop offset="100%" stop-color="#22c55e" stop-opacity="0"/>
    </radialGradient>
    <radialGradient id="orbAmber" cx="50%" cy="50%" r="50%">
      <stop offset="0%" stop-color="#fbbf24" stop-opacity="0.25"/>
      <stop offset="100%" stop-color="#fbbf24" stop-opacity="0"/>
    </radialGradient>
    <radialGradient id="orbCyan" cx="50%" cy="50%" r="50%">
      <stop offset="0%" stop-color="#22d3ee" stop-opacity="0.22"/>
      <stop offset="100%" stop-color="#22d3ee" stop-opacity="0"/>
    </radialGradient>
    <radialGradient id="orbViolet" cx="50%" cy="50%" r="50%">
      <stop offset="0%" stop-color="#8b5cf6" stop-opacity="0.22"/>
      <stop offset="100%" stop-color="#8b5cf6" stop-opacity="0"/>
    </radialGradient>
    <filter id="glowRed" x="-80%" y="-80%" width="260%" height="260%">
      <feGaussianBlur stdDeviation="12" result="blur"/>
      <feColorMatrix in="blur" type="matrix" values="1 0 0 0 0.9  0 0 0 0 0  0 0 0 0 0  0 0 0 0.85 0" result="colored"/>
      <feMerge><feMergeNode in="colored"/><feMergeNode in="SourceGraphic"/></feMerge>
    </filter>
    <filter id="glowBlue" x="-80%" y="-80%" width="260%" height="260%">
      <feGaussianBlur stdDeviation="10" result="blur"/>
      <feColorMatrix in="blur" type="matrix" values="0 0 0 0 0.2  0 0 0 0 0.45  0 0 0 0 1  0 0 0 0.75 0" result="colored"/>
      <feMerge><feMergeNode in="colored"/><feMergeNode in="SourceGraphic"/></feMerge>
    </filter>
    <filter id="glowAmber" x="-80%" y="-80%" width="260%" height="260%">
      <feGaussianBlur stdDeviation="10" result="blur"/>
      <feColorMatrix in="blur" type="matrix" values="1 0 0 0 0.95  0 0 0 0 0.55  0 0 0 0 0.05  0 0 0 0.75 0" result="colored"/>
      <feMerge><feMergeNode in="colored"/><feMergeNode in="SourceGraphic"/></feMerge>
    </filter>
    <filter id="glowCyan" x="-80%" y="-80%" width="260%" height="260%">
      <feGaussianBlur stdDeviation="9" result="blur"/>
      <feColorMatrix in="blur" type="matrix" values="0 0 0 0 0.1  0 0 0 0 0.8  0 0 0 0 0.95  0 0 0 0.75 0" result="colored"/>
      <feMerge><feMergeNode in="colored"/><feMergeNode in="SourceGraphic"/></feMerge>
    </filter>
    <filter id="glowGreen" x="-80%" y="-80%" width="260%" height="260%">
      <feGaussianBlur stdDeviation="8" result="blur"/>
      <feColorMatrix in="blur" type="matrix" values="0 0 0 0 0.12  0 0 0 0 0.85  0 0 0 0 0.35  0 0 0 0.7 0" result="colored"/>
      <feMerge><feMergeNode in="colored"/><feMergeNode in="SourceGraphic"/></feMerge>
    </filter>
    <filter id="softBlur" x="-20%" y="-20%" width="140%" height="140%">
      <feGaussianBlur stdDeviation="6"/>
    </filter>
    <filter id="crackBlur" x="-30%" y="-30%" width="160%" height="160%">
      <feGaussianBlur stdDeviation="3.5" result="blur"/>
      <feMerge><feMergeNode in="blur"/><feMergeNode in="SourceGraphic"/></feMerge>
    </filter>
    <pattern id="dotGrid" x="0" y="0" width="24" height="24" patternUnits="userSpaceOnUse">
      <circle cx="12" cy="12" r="1" fill="#334155" opacity="0.32"/>
    </pattern>
    <pattern id="hexGrid" x="0" y="0" width="22" height="19.05" patternUnits="userSpaceOnUse">
      <polygon points="11,0 22,6.35 22,12.70 11,19.05 0,12.70 0,6.35" fill="none" stroke="#1e293b" stroke-width="0.4" opacity="0.55"/>
    </pattern>
    <pattern id="scan" x="0" y="0" width="4" height="4" patternUnits="userSpaceOnUse">
      <rect width="4" height="1" fill="#3b82f6" opacity="0.05"/>
    </pattern>
    <marker id="arrowRed" markerWidth="10" markerHeight="10" refX="6" refY="5" orient="auto">
      <path d="M0,0 L10,5 L0,10 Z" fill="#ef4444" opacity="0.95"/>
    </marker>
    <marker id="arrowAmber" markerWidth="10" markerHeight="10" refX="6" refY="5" orient="auto">
      <path d="M0,0 L10,5 L0,10 Z" fill="#f59e0b" opacity="0.95"/>
    </marker>
    <marker id="arrowBlue" markerWidth="10" markerHeight="10" refX="6" refY="5" orient="auto">
      <path d="M0,0 L10,5 L0,10 Z" fill="#3b82f6" opacity="0.95"/>
    </marker>
    <marker id="arrowGreen" markerWidth="10" markerHeight="10" refX="6" refY="5" orient="auto">
      <path d="M0,0 L10,5 L0,10 Z" fill="#22c55e" opacity="0.95"/>
    </marker>
    <marker id="arrowCyan" markerWidth="10" markerHeight="10" refX="6" refY="5" orient="auto">
      <path d="M0,0 L10,5 L0,10 Z" fill="#22d3ee" opacity="0.95"/>
    </marker>
    <clipPath id="sceneClip">
      <rect x="305" y="0" width="895" height="630"/>
    </clipPath>
    <clipPath id="topSceneClip">
      <rect x="305" y="0" width="895" height="315"/>
    </clipPath>
    <clipPath id="bottomSceneClip">
      <rect x="305" y="315" width="895" height="315"/>
    </clipPath>
  </defs>

  <style>
    @keyframes floatUp {
      0%   { transform: translateY(0px); opacity: 0.55; }
      50%  { transform: translateY(-10px); opacity: 1; }
      100% { transform: translateY(0px); opacity: 0.55; }
    }
    @keyframes pulse {
      0%   { opacity: 0.35; transform: scale(1); }
      50%  { opacity: 1; transform: scale(1.15); }
      100% { opacity: 0.35; transform: scale(1); }
    }
    @keyframes pulseRing {
      0%   { r: 14px; opacity: 0.9; }
      100% { r: 42px; opacity: 0; }
    }
    @keyframes crackFlicker {
      0%, 100% { opacity: 0.85; }
      50%      { opacity: 1; }
    }
    @keyframes glimmer {
      0%, 100% { opacity: 0.4; }
      50%      { opacity: 1; }
    }
    @keyframes dashFlow {
      to { stroke-dashoffset: -60; }
    }
    @keyframes slowFlow {
      to { stroke-dashoffset: -40; }
    }
    .pulse1 { animation: pulse 2.4s ease-in-out infinite; transform-origin: center; transform-box: fill-box; }
    .pulse2 { animation: pulse 2.8s ease-in-out infinite 0.4s; transform-origin: center; transform-box: fill-box; }
    .pulse3 { animation: pulse 3.2s ease-in-out infinite 0.8s; transform-origin: center; transform-box: fill-box; }
    .pulse4 { animation: pulse 3.6s ease-in-out infinite 1.2s; transform-origin: center; transform-box: fill-box; }
    .float1 { animation: floatUp 4s ease-in-out infinite; transform-origin: center; transform-box: fill-box; }
    .float2 { animation: floatUp 5s ease-in-out infinite 0.6s; transform-origin: center; transform-box: fill-box; }
    .float3 { animation: floatUp 6s ease-in-out infinite 1.2s; transform-origin: center; transform-box: fill-box; }
    .crack  { animation: crackFlicker 2.2s ease-in-out infinite; }
    .glimmer { animation: glimmer 2.6s ease-in-out infinite; }
    .dashFlow { stroke-dasharray: 6 8; animation: dashFlow 2.2s linear infinite; }
    .dataLine { stroke-dasharray: 3 6; animation: slowFlow 3s linear infinite; }
  </style>

  <rect width="1200" height="630" fill="url(#bgMain)"/>
  <rect width="1200" height="630" fill="url(#dotGrid)"/>

  <g clip-path="url(#topSceneClip)">
    <rect x="305" y="0" width="895" height="315" fill="url(#bgTopScene)"/>
    <rect x="305" y="0" width="895" height="315" fill="url(#hexGrid)" opacity="0.5"/>
    <rect x="305" y="0" width="895" height="315" fill="url(#scan)"/>
    <circle cx="560" cy="170" r="220" fill="url(#appleGlow)"/>
    <circle cx="960" cy="165" r="180" fill="url(#inboxGlow)"/>
    <circle cx="780" cy="60" r="140" fill="url(#orbAmber)" opacity="0.55"/>
  </g>

  <g clip-path="url(#bottomSceneClip)">
    <rect x="305" y="315" width="895" height="315" fill="url(#bgBottomScene)"/>
    <rect x="305" y="315" width="895" height="315" fill="url(#hexGrid)" opacity="0.45"/>
    <circle cx="470" cy="470" r="200" fill="url(#nistGlow)"/>
    <circle cx="780" cy="470" r="200" fill="url(#palGlow)"/>
    <circle cx="1060" cy="465" r="180" fill="url(#notionGlow)"/>
    <circle cx="760" cy="505" r="260" fill="url(#centerGlow)"/>
    <circle cx="380" cy="360" r="100" fill="url(#orbViolet)" opacity="0.5"/>
    <circle cx="1120" cy="585" r="110" fill="url(#orbCyan)" opacity="0.5"/>
  </g>

  <g filter="url(#crackBlur)">
    <rect x="305" y="312" width="895" height="6" fill="url(#crackGlow)" class="crack"/>
    <path d="M 305,315 L 420,313 L 540,318 L 660,311 L 790,316 L 900,314 L 1020,317 L 1200,315" stroke="#ff6060" stroke-width="1.5" fill="none" opacity="0.9" class="crack"/>
    <path d="M 305,315 L 420,313 L 540,318 L 660,311 L 790,316 L 900,314 L 1020,317 L 1200,315" stroke="#fecaca" stroke-width="0.6" fill="none" opacity="0.8"/>
  </g>

  <g transform="translate(620,110)">
    <g class="float1">
      <rect x="-100" y="-55" width="200" height="120" rx="8" fill="url(#envelopeGrad)" stroke="#ef4444" stroke-width="1.5"/>
      <path d="M -100,-55 L 0,20 L 100,-55" fill="none" stroke="#ef4444" stroke-width="1.5"/>
      <rect x="-90" y="30" width="180" height="3" fill="#374151"/>
      <rect x="-90" y="40" width="120" height="3" fill="#374151"/>
      <rect x="-90" y="50" width="160" height="3" fill="#374151"/>
      <g transform="translate(72,-62)" filter="url(#glowRed)">
        <circle r="14" fill="#dc2626"/>
        <text text-anchor="middle" y="5" font-family="Arial, sans-serif" font-size="16" font-weight="900" fill="#fff">!</text>
      </g>
    </g>
    <g transform="translate(-150,-10)" filter="url(#glowRed)" class="pulse1">
      <path d="M 0,0 C -20,-30 -10,-60 20,-55 C 50,-50 55,-15 30,5 Z" fill="url(#hookGrad)"/>
      <circle cx="35" cy="-48" r="3" fill="#fee2e2"/>
    </g>
  </g>

  <g transform="translate(940,150)" class="float2">
    <rect x="-60" y="-48" width="120" height="90" rx="10" fill="#0f1729" stroke="#22c55e" stroke-width="1.5" filter="url(#glowGreen)"/>
    <path d="M -42,-28 L 0,2 L 42,-28" fill="none" stroke="#22c55e" stroke-width="2"/>
    <text text-anchor="middle" y="30" font-family="Arial, sans-serif" font-size="10" font-weight="700" fill="#86efac" letter-spacing="1.5">INBOX</text>
    <circle cx="-45" cy="-35" r="4" fill="#22c55e"/>
    <circle cx="-32" cy="-35" r="4" fill="#22c55e" opacity="0.6"/>
    <circle cx="-19" cy="-35" r="4" fill="#22c55e" opacity="0.3"/>
  </g>

  <path d="M 720,115 Q 830,85 880,130" fill="none" stroke="#ef4444" stroke-width="1.8" opacity="0.8" class="dashFlow" marker-end="url(#arrowRed)"/>

  <g transform="translate(460,235)" filter="url(#glowAmber)" class="pulse2">
    <circle r="9" fill="#f59e0b"/>
    <circle r="16" fill="none" stroke="#f59e0b" stroke-width="1" opacity="0.4"/>
  </g>
  <g transform="translate(820,235)" filter="url(#glowRed)" class="pulse3">
    <circle r="7" fill="#ef4444"/>
  </g>
  <g transform="translate(1100,80)" filter="url(#glowAmber)" class="pulse4">
    <circle r="6" fill="#fbbf24"/>
  </g>
  <g transform="translate(380,90)" filter="url(#glowRed)" class="pulse1">
    <circle r="5" fill="#ef4444"/>
  </g>

  <text x="455" y="45" font-family="Arial, sans-serif" font-size="13" font-weight="800" fill="#fca5a5" letter-spacing="2" opacity="0.85">ID SPOOF VECTOR</text>
  <text x="455" y="62" font-family="Arial, sans-serif" font-size="10" fill="#64748b" letter-spacing="1">apple-id-alerts @ suspicious-tld</text>

  <text x="860" y="45" font-family="Arial, sans-serif" font-size="11" font-weight="700" fill="#86efac" letter-spacing="1.5">TARGET MAILBOX</text>

  <g transform="translate(470,470)">
    <circle r="60" fill="url(#nistGrad)" stroke="#f59e0b" stroke-width="2" filter="url(#glowAmber)"/>
    <circle r="46" fill="none" stroke="#f59e0b" stroke-width="0.6" opacity="0.5" stroke-dasharray="3 4"/>
    <g transform="translate(0,-10)">
      <rect x="-18" y="-10" width="36" height="24" rx="2" fill="none" stroke="#fbbf24" stroke-width="1.6"/>
      <line x1="-14" y1="-4" x2="14" y2="-4" stroke="#fbbf24" stroke-width="1.2"/>
      <line x1="-14" y1="2" x2="14" y2="2" stroke="#fbbf24" stroke-width="1.2"/>
      <line x1="-14" y1="8" x2="6" y2="8" stroke="#fbbf24" stroke-width="1.2"/>
      <circle cx="-4" cy="22" r="7" fill="#fbbf24" opacity="0.25"/>
      <text text-anchor="middle" y="25" font-family="Arial, sans-serif" font-size="9" font-weight="900" fill="#fbbf24">PAUSE</text>
    </g>
    <text text-anchor="middle" y="85" font-family="Arial, sans-serif" font-size="14" font-weight="800" fill="#fcd34d" letter-spacing="1">NIST NVD</text>
    <text text-anchor="middle" y="100" font-family="Arial, sans-serif" font-size="10" fill="#94a3b8">CVE Scoring Halt</text>
  </g>

  <g transform="translate(780,470)">
    <circle r="60" fill="url(#palGrad)" stroke="#3b82f6" stroke-width="2" filter="url(#glowBlue)"/>
    <circle r="46" fill="none" stroke="#60a5fa" stroke-width="0.6" opacity="0.5" stroke-dasharray="3 4"/>
    <g transform="translate(0,-6)">
      <path d="M 0,-26 L -22,-8 L -22,14 L 0,26 L 22,14 L 22,-8 Z" fill="none" stroke="#93c5fd" stroke-width="1.6"/>
      <circle r="10" fill="#1e40af" stroke="#60a5fa" stroke-width="1.4"/>
      <circle r="4" fill="#bfdbfe"/>
    </g>
    <text text-anchor="middle" y="85" font-family="Arial, sans-serif" font-size="14" font-weight="800" fill="#93c5fd" letter-spacing="1">PALANTIR</text>
    <text text-anchor="middle" y="100" font-family="Arial, sans-serif" font-size="10" fill="#94a3b8">DEI Manifesto</text>
  </g>

  <g transform="translate(1060,465)">
    <circle r="60" fill="url(#notionGrad)" stroke="#22d3ee" stroke-width="2" filter="url(#glowCyan)"/>
    <circle r="46" fill="none" stroke="#67e8f9" stroke-width="0.6" opacity="0.5" stroke-dasharray="3 4"/>
    <g transform="translate(0,-8)">
      <rect x="-20" y="-18" width="40" height="36" rx="3" fill="none" stroke="#67e8f9" stroke-width="1.6"/>
      <line x1="-14" y1="-10" x2="14" y2="-10" stroke="#a5f3fc" stroke-width="1.2"/>
      <line x1="-14" y1="-2" x2="14" y2="-2" stroke="#a5f3fc" stroke-width="1.2"/>
      <line x1="-14" y1="6" x2="8" y2="6" stroke="#a5f3fc" stroke-width="1.2"/>
      <circle cx="16" cy="20" r="5" fill="#22d3ee"/>
      <text x="16" y="23" text-anchor="middle" font-family="Arial, sans-serif" font-size="7" font-weight="900" fill="#052030">@</text>
    </g>
    <text text-anchor="middle" y="85" font-family="Arial, sans-serif" font-size="14" font-weight="800" fill="#67e8f9" letter-spacing="1">NOTION</text>
    <text text-anchor="middle" y="100" font-family="Arial, sans-serif" font-size="10" fill="#94a3b8">Editor Email Leak</text>
  </g>

  <g transform="translate(760,505)">
    <circle r="28" fill="#7f1d1d" opacity="0.65" filter="url(#glowRed)"/>
    <circle r="28" fill="none" stroke="#fca5a5" stroke-width="1"/>
    <text text-anchor="middle" y="-2" font-family="Arial, sans-serif" font-size="9" font-weight="900" fill="#fecaca" letter-spacing="1">GLOBAL</text>
    <text text-anchor="middle" y="10" font-family="Arial, sans-serif" font-size="9" font-weight="900" fill="#fecaca" letter-spacing="1">RISK</text>
  </g>

  <path d="M 530,470 Q 640,500 732,502" fill="none" stroke="#f59e0b" stroke-width="1.6" opacity="0.75" class="dashFlow" marker-end="url(#arrowAmber)"/>
  <path d="M 788,510 Q 900,498 1000,470" fill="none" stroke="#3b82f6" stroke-width="1.6" opacity="0.75" class="dashFlow" marker-end="url(#arrowBlue)"/>
  <path d="M 730,505 Q 620,560 500,525" fill="none" stroke="#22d3ee" stroke-width="1.3" opacity="0.6" class="dataLine"/>
  <path d="M 470,410 Q 620,360 760,480" fill="none" stroke="#8b5cf6" stroke-width="1.1" opacity="0.5" class="dataLine"/>
  <path d="M 1060,405 Q 930,360 790,415" fill="none" stroke="#22d3ee" stroke-width="1.1" opacity="0.55" class="dataLine"/>

  <g opacity="0.9">
    <circle cx="380" cy="380" r="2.5" fill="#8b5cf6" class="glimmer"/>
    <circle cx="600" cy="360" r="2" fill="#fbbf24" class="glimmer"/>
    <circle cx="900" cy="380" r="2.5" fill="#22d3ee" class="glimmer"/>
    <circle cx="1130" cy="390" r="2" fill="#67e8f9" class="glimmer"/>
    <circle cx="420" cy="560" r="2" fill="#f59e0b" class="glimmer"/>
    <circle cx="700" cy="575" r="2.5" fill="#ef4444" class="glimmer"/>
    <circle cx="1000" cy="565" r="2" fill="#3b82f6" class="glimmer"/>
  </g>

  <text x="340" y="345" font-family="Arial, sans-serif" font-size="11" font-weight="800" fill="#64748b" letter-spacing="3">THREAT MAP / APRIL 20 2026</text>
  <g transform="translate(1140,345)">
    <circle r="4" fill="#22c55e" filter="url(#glowGreen)" class="pulse2"/>
    <text x="-12" y="4" text-anchor="end" font-family="Arial, sans-serif" font-size="10" font-weight="700" fill="#86efac" letter-spacing="1.5">LIVE</text>
  </g>

  <g transform="translate(355,380)" opacity="0.9">
    <rect width="110" height="28" rx="4" fill="#0f172a" stroke="#1e293b" stroke-width="1"/>
    <circle cx="12" cy="14" r="4" fill="#f59e0b" class="pulse2"/>
    <text x="24" y="13" font-family="Arial, sans-serif" font-size="8" font-weight="800" fill="#fcd34d" letter-spacing="1">GOV ADVISORY</text>
    <text x="24" y="23" font-family="Arial, sans-serif" font-size="7" fill="#94a3b8">CVSS backlog rising</text>
  </g>

  <g transform="translate(965,380)" opacity="0.9">
    <rect width="110" height="28" rx="4" fill="#0f172a" stroke="#1e293b" stroke-width="1"/>
    <circle cx="12" cy="14" r="4" fill="#22d3ee" class="pulse3"/>
    <text x="24" y="13" font-family="Arial, sans-serif" font-size="8" font-weight="800" fill="#67e8f9" letter-spacing="1">SAAS LEAK</text>
    <text x="24" y="23" font-family="Arial, sans-serif" font-size="7" fill="#94a3b8">Public share metadata</text>
  </g>

  <g transform="translate(660,380)" opacity="0.9">
    <rect width="110" height="28" rx="4" fill="#0f172a" stroke="#1e293b" stroke-width="1"/>
    <circle cx="12" cy="14" r="4" fill="#3b82f6" class="pulse4"/>
    <text x="24" y="13" font-family="Arial, sans-serif" font-size="8" font-weight="800" fill="#93c5fd" letter-spacing="1">CORP POLICY</text>
    <text x="24" y="23" font-family="Arial, sans-serif" font-size="7" fill="#94a3b8">Culture signal shift</text>
  </g>

  <g transform="translate(340,105)" opacity="0.85">
    <rect width="96" height="22" rx="3" fill="#160c12" stroke="#991b1b" stroke-width="0.8"/>
    <text x="8" y="14" font-family="Arial, sans-serif" font-size="8" font-weight="800" fill="#fca5a5" letter-spacing="1.4">BRAND IMPERSONATION</text>
  </g>
  <g transform="translate(1028,105)" opacity="0.85">
    <rect width="82" height="22" rx="3" fill="#0a1a10" stroke="#22c55e" stroke-width="0.8"/>
    <text x="6" y="14" font-family="Arial, sans-serif" font-size="8" font-weight="800" fill="#86efac" letter-spacing="1.4">MAIL GATEWAY</text>
  </g>

  <rect x="0" y="0" width="305" height="630" fill="url(#bgLeft)"/>
  <rect x="0" y="0" width="305" height="630" fill="url(#hexGrid)" opacity="0.4"/>
  <line x1="305" y1="0" x2="305" y2="630" stroke="#1e293b" stroke-width="1"/>
  <line x1="306" y1="0" x2="306" y2="630" stroke="#0f172a" stroke-width="1"/>

  <g transform="translate(40,52)">
    <g filter="url(#glowBlue)">
      <path d="M 0,0 L 36,-10 L 72,0 L 72,36 C 72,58 54,74 36,82 C 18,74 0,58 0,36 Z" fill="url(#shieldGrad)" stroke="#3b82f6" stroke-width="1.4"/>
    </g>
    <path d="M 18,36 L 32,50 L 56,24" fill="none" stroke="#93c5fd" stroke-width="3" stroke-linecap="round" stroke-linejoin="round"/>
    <circle cx="36" cy="-4" r="3" fill="#3b82f6" class="pulse1"/>
  </g>

  <g transform="translate(140,70)">
    <rect x="0" y="0" width="128" height="24" rx="4" fill="url(#badgeGrad)" filter="url(#glowRed)"/>
    <circle cx="12" cy="12" r="3" fill="#fff" class="pulse2"/>
    <text x="22" y="16" font-family="Arial, sans-serif" font-size="11" font-weight="900" fill="#fff" letter-spacing="2.5">WEEKLY DIGEST</text>
  </g>
  <text x="140" y="110" font-family="Arial, sans-serif" font-size="10" font-weight="700" fill="#64748b" letter-spacing="2.5">APRIL 20, 2026</text>

  <text x="28" y="170" font-family="Arial, sans-serif" font-size="30" font-weight="900" fill="#f8fafc" letter-spacing="0.5">Tech Security</text>
  <text x="28" y="202" font-family="Arial, sans-serif" font-size="30" font-weight="900" fill="#60a5fa" letter-spacing="0.5">Weekly</text>
  <line x1="28" y1="216" x2="80" y2="216" stroke="#ef4444" stroke-width="3"/>
  <line x1="86" y1="216" x2="200" y2="216" stroke="#1e293b" stroke-width="1"/>

  <text x="28" y="246" font-family="Arial, sans-serif" font-size="10" font-weight="700" fill="#94a3b8" letter-spacing="2">AUDIENCE</text>
  <g transform="translate(28,254)">
    <rect width="252" height="24" rx="12" fill="#0f172a" stroke="#1e40af" stroke-width="1"/>
    <text x="12" y="16" font-family="Arial, sans-serif" font-size="10" font-weight="700" fill="#93c5fd" letter-spacing="0.6">DevSecOps / SRE / Cloud Architects</text>
  </g>

  <text x="28" y="306" font-family="Arial, sans-serif" font-size="10" font-weight="700" fill="#94a3b8" letter-spacing="2">TOP STORIES</text>

  <g transform="translate(28,320)">
    <circle cx="6" cy="10" r="5" fill="#ef4444" filter="url(#glowRed)" class="pulse1"/>
    <text x="20" y="8" font-family="Arial, sans-serif" font-size="12" font-weight="800" fill="#f8fafc">Apple Phishing</text>
    <text x="20" y="22" font-family="Arial, sans-serif" font-size="9.5" fill="#94a3b8">Apple change alerts abused</text>
  </g>

  <g transform="translate(28,358)">
    <circle cx="6" cy="10" r="5" fill="#f59e0b" filter="url(#glowAmber)" class="pulse2"/>
    <text x="20" y="8" font-family="Arial, sans-serif" font-size="12" font-weight="800" fill="#f8fafc">NIST NVD Pause</text>
    <text x="20" y="22" font-family="Arial, sans-serif" font-size="9.5" fill="#94a3b8">Low priority CVE scoring halted</text>
  </g>

  <g transform="translate(28,396)">
    <circle cx="6" cy="10" r="5" fill="#3b82f6" filter="url(#glowBlue)" class="pulse3"/>
    <text x="20" y="8" font-family="Arial, sans-serif" font-size="12" font-weight="800" fill="#f8fafc">Palantir Manifesto</text>
    <text x="20" y="22" font-family="Arial, sans-serif" font-size="9.5" fill="#94a3b8">DEI culture statement</text>
  </g>

  <g transform="translate(28,434)">
    <circle cx="6" cy="10" r="5" fill="#22d3ee" filter="url(#glowCyan)" class="pulse4"/>
    <text x="20" y="8" font-family="Arial, sans-serif" font-size="12" font-weight="800" fill="#f8fafc">Notion Leak</text>
    <text x="20" y="22" font-family="Arial, sans-serif" font-size="9.5" fill="#94a3b8">Public pages leak editor emails</text>
  </g>

  <text x="28" y="484" font-family="Arial, sans-serif" font-size="10" font-weight="700" fill="#94a3b8" letter-spacing="2">SEVERITY SIGNALS</text>

  <g transform="translate(28,494)">
    <text y="10" font-family="Arial, sans-serif" font-size="9" font-weight="700" fill="#fca5a5" letter-spacing="1">CRITICAL</text>
    <rect x="74" y="3" width="180" height="8" rx="4" fill="#1e293b"/>
    <rect x="74" y="3" width="54" height="8" rx="4" fill="url(#sevCritical)" filter="url(#glowRed)"/>
    <text x="262" y="10" font-family="Arial, sans-serif" font-size="9" font-weight="700" fill="#fca5a5">30%</text>
  </g>

  <g transform="translate(28,514)">
    <text y="10" font-family="Arial, sans-serif" font-size="9" font-weight="700" fill="#fcd34d" letter-spacing="1">HIGH</text>
    <rect x="74" y="3" width="180" height="8" rx="4" fill="#1e293b"/>
    <rect x="74" y="3" width="108" height="8" rx="4" fill="url(#sevHigh)" filter="url(#glowAmber)"/>
    <text x="262" y="10" font-family="Arial, sans-serif" font-size="9" font-weight="700" fill="#fcd34d">60%</text>
  </g>

  <g transform="translate(28,534)">
    <text y="10" font-family="Arial, sans-serif" font-size="9" font-weight="700" fill="#93c5fd" letter-spacing="1">MED</text>
    <rect x="74" y="3" width="180" height="8" rx="4" fill="#1e293b"/>
    <rect x="74" y="3" width="144" height="8" rx="4" fill="url(#sevMed)" filter="url(#glowBlue)"/>
    <text x="262" y="10" font-family="Arial, sans-serif" font-size="9" font-weight="700" fill="#93c5fd">80%</text>
  </g>

  <g transform="translate(28,560)">
    <g>
      <rect width="44" height="18" rx="9" fill="#1f1318" stroke="#ef4444" stroke-width="0.8"/>
      <text x="22" y="12" text-anchor="middle" font-family="Arial, sans-serif" font-size="9" font-weight="700" fill="#fca5a5" letter-spacing="0.6">Apple</text>
    </g>
    <g transform="translate(50,0)">
      <rect width="42" height="18" rx="9" fill="#1f1a10" stroke="#f59e0b" stroke-width="0.8"/>
      <text x="21" y="12" text-anchor="middle" font-family="Arial, sans-serif" font-size="9" font-weight="700" fill="#fcd34d" letter-spacing="0.6">NIST</text>
    </g>
    <g transform="translate(98,0)">
      <rect width="60" height="18" rx="9" fill="#101a2a" stroke="#3b82f6" stroke-width="0.8"/>
      <text x="30" y="12" text-anchor="middle" font-family="Arial, sans-serif" font-size="9" font-weight="700" fill="#93c5fd" letter-spacing="0.6">Palantir</text>
    </g>
    <g transform="translate(164,0)">
      <rect width="52" height="18" rx="9" fill="#091e22" stroke="#22d3ee" stroke-width="0.8"/>
      <text x="26" y="12" text-anchor="middle" font-family="Arial, sans-serif" font-size="9" font-weight="700" fill="#67e8f9" letter-spacing="0.6">Notion</text>
    </g>
    <g transform="translate(222,0)">
      <rect width="32" height="18" rx="9" fill="#1a1430" stroke="#8b5cf6" stroke-width="0.8"/>
      <text x="16" y="12" text-anchor="middle" font-family="Arial, sans-serif" font-size="9" font-weight="700" fill="#c4b5fd" letter-spacing="0.6">AI</text>
    </g>
  </g>

  <rect x="0" y="605" width="1200" height="25" fill="url(#footerGrad)"/>
  <line x1="0" y1="605" x2="1200" y2="605" stroke="#1e293b" stroke-width="1"/>
  <g transform="translate(20,618)">
    <circle r="4" fill="#22c55e" filter="url(#glowGreen)" class="pulse1"/>
  </g>
  <text x="36" y="622" font-family="Arial, sans-serif" font-size="11" font-weight="700" fill="#93c5fd" letter-spacing="1.5">tech.2twodragon.com</text>
  <text x="600" y="622" text-anchor="middle" font-family="Arial, sans-serif" font-size="10" font-weight="600" fill="#64748b" letter-spacing="2">WEEK 16 / INTEL BRIEFING / 04 - 20 - 2026</text>
  <text x="1180" y="622" text-anchor="end" font-family="Arial, sans-serif" font-size="10" font-weight="700" fill="#64748b" letter-spacing="1.5">STATUS : ACTIVE</text>
</svg>
