<svg xmlns="http://www.w3.org/2000/svg" viewBox="0 0 1200 630" width="1200" height="630" role="img" aria-label="Meta Prometheus GW AI, Google Cloud OTLP, AWS Claude Opus 4.6 Bedrock">
<title>2026-02-10: Meta Prometheus, Google OTLP native, AWS Bedrock Opus 4.6</title>
<defs>
<linearGradient id="bgSpreadFB10A" x1="0%" y1="0%" x2="100%" y2="100%"><stop offset="0%" stop-color="#0A1226"/><stop offset="50%" stop-color="#0C1430"/><stop offset="100%" stop-color="#131038"/></linearGradient>
<linearGradient id="bandAFB10A" x1="0%" y1="0%" x2="100%" y2="0%"><stop offset="0%" stop-color="#0A1B35"/><stop offset="100%" stop-color="#0D2040"/></linearGradient>
<linearGradient id="bandBFB10A" x1="0%" y1="0%" x2="100%" y2="0%"><stop offset="0%" stop-color="#0E2038"/><stop offset="100%" stop-color="#12283F"/></linearGradient>
<linearGradient id="bandCFB10A" x1="0%" y1="0%" x2="100%" y2="0%"><stop offset="0%" stop-color="#1E0A3A"/><stop offset="100%" stop-color="#2A0E4A"/></linearGradient>
<linearGradient id="streakAFB10A" x1="0%" y1="0%" x2="100%" y2="0%"><stop offset="0%" stop-color="#60A5FA" stop-opacity="0"/><stop offset="50%" stop-color="#60A5FA" stop-opacity="0.85"/><stop offset="100%" stop-color="#60A5FA" stop-opacity="0"/></linearGradient>
<linearGradient id="streakBFB10A" x1="0%" y1="0%" x2="100%" y2="0%"><stop offset="0%" stop-color="#4ADE80" stop-opacity="0"/><stop offset="50%" stop-color="#4ADE80" stop-opacity="0.85"/><stop offset="100%" stop-color="#4ADE80" stop-opacity="0"/></linearGradient>
<linearGradient id="streakCFB10A" x1="0%" y1="0%" x2="100%" y2="0%"><stop offset="0%" stop-color="#A78BFA" stop-opacity="0"/><stop offset="50%" stop-color="#A78BFA" stop-opacity="0.85"/><stop offset="100%" stop-color="#A78BFA" stop-opacity="0"/></linearGradient>
<radialGradient id="glowAFB10A" cx="50%" cy="50%" r="50%"><stop offset="0%" stop-color="#60A5FA" stop-opacity="0.55"/><stop offset="100%" stop-color="#60A5FA" stop-opacity="0"/></radialGradient>
<radialGradient id="glowBFB10A" cx="50%" cy="50%" r="50%"><stop offset="0%" stop-color="#4ADE80" stop-opacity="0.55"/><stop offset="100%" stop-color="#4ADE80" stop-opacity="0"/></radialGradient>
<radialGradient id="glowCFB10A" cx="50%" cy="50%" r="50%"><stop offset="0%" stop-color="#A78BFA" stop-opacity="0.55"/><stop offset="100%" stop-color="#A78BFA" stop-opacity="0"/></radialGradient>
<filter id="softShadow" x="-10%" y="-10%" width="130%" height="130%"><feGaussianBlur in="SourceAlpha" stdDeviation="2.5"/><feOffset dx="1" dy="3"/><feComponentTransfer><feFuncA type="linear" slope="0.55"/></feComponentTransfer><feMerge><feMergeNode/><feMergeNode in="SourceGraphic"/></feMerge></filter>
<filter id="textShadow" x="-5%" y="-5%" width="110%" height="110%"><feGaussianBlur in="SourceAlpha" stdDeviation="1.2"/><feOffset dx="0" dy="1.5"/><feComponentTransfer><feFuncA type="linear" slope="0.85"/></feComponentTransfer><feMerge><feMergeNode/><feMergeNode in="SourceGraphic"/></feMerge></filter>
<pattern id="ledgerGrid" x="0" y="0" width="40" height="20" patternUnits="userSpaceOnUse"><path d="M0 20 L40 20" stroke="#2A3A56" stroke-width="0.4" opacity="0.5"/><path d="M40 0 L40 20" stroke="#2A3A56" stroke-width="0.4" opacity="0.5"/></pattern>
<pattern id="circuitDot" x="0" y="0" width="18" height="18" patternUnits="userSpaceOnUse"><circle cx="9" cy="9" r="0.8" fill="#3A2A4E" opacity="0.55"/></pattern>
<pattern id="hexGridFB10A" x="0" y="0" width="28" height="32" patternUnits="userSpaceOnUse"><path d="M14 0 L28 8 L28 24 L14 32 L0 24 L0 8 Z" fill="none" stroke="#2A3A56" stroke-width="0.3" opacity="0.4"/></pattern>
<pattern id="radarRippleFB10A" x="0" y="0" width="60" height="60" patternUnits="userSpaceOnUse"><circle cx="30" cy="30" r="14" fill="none" stroke="#2A3A56" stroke-width="0.3" opacity="0.4"/></pattern>
</defs>
<rect width="1200" height="630" fill="url(#bgSpreadFB10A)"/>
<g>
  <rect x="0" y="0" width="1200" height="210" fill="url(#bandAFB10A)"/>
  <rect x="0" y="0" width="1200" height="210" fill="url(#ledgerGrid)" opacity="0.6"/>
  <rect x="0" y="0" width="8" height="210" fill="#60A5FA"/>
  <g filter="url(#textShadow)">
    <text x="30" y="44" font-family="Inter, Helvetica, Arial, sans-serif" font-size="18" font-weight="700" letter-spacing="2.4" fill="#93C5FD">META AI INFRA</text>
    <text x="30" y="86" font-family="Inter, Helvetica, Arial, sans-serif" font-size="36" font-weight="800" fill="#F5F7FA">Prometheus GW Cluster</text>
    <text x="30" y="118" font-family="Inter, Helvetica, Arial, sans-serif" font-size="20" font-weight="600" fill="#BFDBFE">Gigawatt-class AI</text>
    <text x="30" y="146" font-family="Inter, Helvetica, Arial, sans-serif" font-size="15" font-weight="500" fill="#D0DCF0">Meta Prometheus : GW-class power envelope : 2026 capacity buildout</text>
  </g>
  <g transform="translate(640,105)">
    <circle r="80" fill="#60A5FA" fill-opacity="0.06"><animate attributeName="r" values="64;86;64" dur="3.4s" repeatCount="indefinite"/></circle>
    <path d="M-60 0 Q-70 -25 -45 -30 Q-40 -50 -10 -45 Q10 -60 30 -45 Q55 -50 60 -20 Q80 -15 70 10 Q65 25 40 25 L-40 25 Q-70 25 -60 0 Z" fill="#60A5FA" fill-opacity="0.12" stroke="#60A5FA" stroke-width="1.8"/>
    <g fill="#60A5FA" stroke="#93C5FD" stroke-width="1.2">
      <polygon points="-30,-10 -18,-17 -6,-10 -6,4 -18,11 -30,4"/>
      <polygon points="0,-10 12,-17 24,-10 24,4 12,11 0,4"/>
      <polygon points="-15,10 -3,3 9,10 9,24 -3,31 -15,24"/>
    </g>
    <g fill="#93C5FD">
      <circle cx="-18" cy="-3" r="2.4"><animate attributeName="opacity" values="0.4;1;0.4" dur="1.8s" repeatCount="indefinite"/></circle>
      <circle cx="12" cy="-3" r="2.4"><animate attributeName="opacity" values="0.4;1;0.4" dur="2.0s" repeatCount="indefinite"/></circle>
      <circle cx="-3" cy="17" r="2.4"><animate attributeName="opacity" values="0.4;1;0.4" dur="2.2s" repeatCount="indefinite"/></circle>
    </g>
    <g fill="#FFF">
      <circle r="1.6"><animateMotion path="M-18 -3 L12 -3" dur="2.4s" repeatCount="indefinite"/></circle>
      <circle r="1.6"><animateMotion path="M12 -3 L-3 17" dur="2.2s" repeatCount="indefinite"/></circle>
      <circle r="1.6"><animateMotion path="M-3 17 L-18 -3" dur="2.6s" repeatCount="indefinite"/></circle>
    </g>
    <g fill="#93C5FD" opacity="0.6">
      <circle cx="-50" cy="-38" r="1.8"><animate attributeName="opacity" values="0.3;1;0.3" dur="1.6s" repeatCount="indefinite"/></circle>
      <circle cx="50" cy="-38" r="1.8"><animate attributeName="opacity" values="0.3;1;0.3" dur="2.0s" repeatCount="indefinite"/></circle>
    </g>
    <text y="60" text-anchor="middle" font-family="Inter, monospace" font-size="10" font-weight="800" fill="#60A5FA">K8s CLOUD</text>
  </g>
  <g transform="translate(870,105)" filter="url(#softShadow)">
    <rect x="-50" y="-48" width="100" height="96" rx="10" fill="#0A1628" stroke="#60A5FA" stroke-width="1.6" stroke-opacity="0.75"/>
    <text x="0" y="-26" text-anchor="middle" font-family="Inter, Helvetica, Arial, sans-serif" font-size="10" font-weight="700" letter-spacing="1.4" fill="#93C5FD">LIVE</text>
    <text x="0" y="14" text-anchor="middle" font-family="Inter, Helvetica, Arial, sans-serif" font-size="34" font-weight="900" fill="#F5F7FA">2026</text>
    <text x="0" y="34" text-anchor="middle" font-family="Inter, Helvetica, Arial, sans-serif" font-size="10" font-weight="600" fill="#BFDBFE">capacity online</text>
  </g>
  <g transform="translate(990,105)" filter="url(#softShadow)">
    <rect x="-80" y="-65" width="180" height="125" rx="14" fill="#0A1628" stroke="#60A5FA" stroke-width="2.2"/>
    <text x="10" y="-38" text-anchor="middle" font-family="Inter, Helvetica, Arial, sans-serif" font-size="13" font-weight="700" letter-spacing="2" fill="#93C5FD">POWER</text>
    <text x="10" y="22" text-anchor="middle" font-family="Inter, Helvetica, Arial, sans-serif" font-size="72" font-weight="900" fill="#F5F7FA">GW</text>
    <text x="10" y="44" text-anchor="middle" font-family="Inter, Helvetica, Arial, sans-serif" font-size="11" font-weight="600" fill="#BFDBFE">Meta AI</text>
    <line x1="-58" y1="50" x2="78" y2="50" stroke="#60A5FA" stroke-width="0.8" stroke-opacity="0.5"/>
    
  </g>
  <g transform="translate(990,105)">
    <circle cx="10" cy="-50" r="3" fill="#60A5FA"><animate attributeName="opacity" values="0.2;1;0.2" dur="1.8s" repeatCount="indefinite"/></circle>
    <circle cx="-58" cy="-50" r="2" fill="#93C5FD"><animate attributeName="opacity" values="0.8;0.2;0.8" dur="2.2s" repeatCount="indefinite"/></circle>
    <circle cx="78" cy="-50" r="2" fill="#93C5FD"><animate attributeName="opacity" values="0.2;0.9;0.2" dur="2.4s" repeatCount="indefinite"/></circle>
  </g>
</g>
<g>
  <rect x="0" y="210" width="1200" height="210" fill="url(#bandBFB10A)"/>
  <rect x="0" y="210" width="1200" height="210" fill="url(#ledgerGrid)" opacity="0.6"/>
  <rect x="0" y="210" width="8" height="210" fill="#4ADE80"/>
  <g filter="url(#textShadow)">
    <text x="30" y="254" font-family="Inter, Helvetica, Arial, sans-serif" font-size="18" font-weight="700" letter-spacing="2.4" fill="#4ADE80">OBSERVABILITY</text>
    <text x="30" y="296" font-family="Inter, Helvetica, Arial, sans-serif" font-size="36" font-weight="800" fill="#F5F7FA">Google Cloud OTLP</text>
    <text x="30" y="328" font-family="Inter, Helvetica, Arial, sans-serif" font-size="20" font-weight="600" fill="#9FD3B0">Native OpenTelemetry</text>
    <text x="30" y="356" font-family="Inter, Helvetica, Arial, sans-serif" font-size="15" font-weight="500" fill="#BFC9D9">Native OTLP support : Cloud Trace + Logging : OTel-first SDK migration</text>
  </g>
  <g transform="translate(640,315)">
    <circle r="80" fill="#4ADE80" fill-opacity="0.08"><animate attributeName="r" values="60;90;60" dur="3.2s" repeatCount="indefinite"/><animate attributeName="opacity" values="0.5;1;0.5" dur="3.2s" repeatCount="indefinite"/></circle>
    <circle r="32" fill="#4ADE80" stroke="#86EFAC" stroke-width="2" filter="url(#softShadow)"/>
    <text y="-2" text-anchor="middle" font-family="Inter, monospace" font-size="11" font-weight="800" fill="#FFF">OTLP</text>
    <text y="12" text-anchor="middle" font-family="Inter, monospace" font-size="9" font-weight="700" fill="#86EFAC">C2 HUB</text>
    <g stroke="#4ADE80" stroke-width="1.2" stroke-opacity="0.55" stroke-dasharray="3 4" fill="none">
      <line x1="0" y1="0" x2="80" y2="-50"/><line x1="0" y1="0" x2="95" y2="-10"/><line x1="0" y1="0" x2="85" y2="30"/>
      <line x1="0" y1="0" x2="60" y2="60"/><line x1="0" y1="0" x2="-60" y2="60"/><line x1="0" y1="0" x2="-85" y2="30"/>
      <line x1="0" y1="0" x2="-95" y2="-10"/><line x1="0" y1="0" x2="-80" y2="-50"/>
      <line x1="0" y1="0" x2="-30" y2="-72"/><line x1="0" y1="0" x2="30" y2="-72"/>
    </g>
    <g fill="#86EFAC">
      <circle cx="80" cy="-50" r="5"><animate attributeName="opacity" values="0.3;1;0.3" dur="2.1s" repeatCount="indefinite"/></circle>
      <circle cx="95" cy="-10" r="5"><animate attributeName="opacity" values="0.3;1;0.3" dur="1.9s" repeatCount="indefinite"/></circle>
      <circle cx="85" cy="30" r="5"><animate attributeName="opacity" values="0.3;1;0.3" dur="2.4s" repeatCount="indefinite"/></circle>
      <circle cx="60" cy="60" r="5"><animate attributeName="opacity" values="0.3;1;0.3" dur="2.0s" repeatCount="indefinite"/></circle>
      <circle cx="-60" cy="60" r="5"><animate attributeName="opacity" values="0.3;1;0.3" dur="2.3s" repeatCount="indefinite"/></circle>
      <circle cx="-85" cy="30" r="5"><animate attributeName="opacity" values="0.3;1;0.3" dur="2.5s" repeatCount="indefinite"/></circle>
      <circle cx="-95" cy="-10" r="5"><animate attributeName="opacity" values="0.3;1;0.3" dur="1.7s" repeatCount="indefinite"/></circle>
      <circle cx="-80" cy="-50" r="5"><animate attributeName="opacity" values="0.3;1;0.3" dur="2.6s" repeatCount="indefinite"/></circle>
      <circle cx="-30" cy="-72" r="5"><animate attributeName="opacity" values="0.3;1;0.3" dur="1.8s" repeatCount="indefinite"/></circle>
      <circle cx="30" cy="-72" r="5"><animate attributeName="opacity" values="0.3;1;0.3" dur="2.7s" repeatCount="indefinite"/></circle>
    </g>
    <g fill="#FFF">
      <circle r="2"><animateMotion path="M0 0 L80 -50" dur="1.9s" repeatCount="indefinite"/></circle>
      <circle r="2"><animateMotion path="M0 0 L95 -10" dur="2.0s" repeatCount="indefinite"/></circle>
      <circle r="2"><animateMotion path="M0 0 L85 30" dur="2.2s" repeatCount="indefinite"/></circle>
      <circle r="2"><animateMotion path="M0 0 L-60 60" dur="2.3s" repeatCount="indefinite"/></circle>
      <circle r="2"><animateMotion path="M0 0 L-95 -10" dur="2.4s" repeatCount="indefinite"/></circle>
      <circle r="2"><animateMotion path="M0 0 L30 -72" dur="2.1s" repeatCount="indefinite"/></circle>
    </g>
  </g>
  <g transform="translate(870,315)" filter="url(#softShadow)">
    <rect x="-50" y="-48" width="100" height="96" rx="10" fill="#0A1B2E" stroke="#4ADE80" stroke-width="1.6" stroke-opacity="0.75"/>
    <text x="0" y="-26" text-anchor="middle" font-family="Inter, Helvetica, Arial, sans-serif" font-size="10" font-weight="700" letter-spacing="1.4" fill="#4ADE80">SDK</text>
    <text x="0" y="14" text-anchor="middle" font-family="Inter, Helvetica, Arial, sans-serif" font-size="34" font-weight="900" fill="#F5F7FA">OTel</text>
    <text x="0" y="34" text-anchor="middle" font-family="Inter, Helvetica, Arial, sans-serif" font-size="10" font-weight="600" fill="#9FD3B0">vendor-neutral</text>
  </g>
  <g transform="translate(990,315)" filter="url(#softShadow)">
    <rect x="-80" y="-65" width="180" height="125" rx="14" fill="#0A1B2E" stroke="#4ADE80" stroke-width="2.2"/>
    <text x="10" y="-38" text-anchor="middle" font-family="Inter, Helvetica, Arial, sans-serif" font-size="13" font-weight="700" letter-spacing="2" fill="#4ADE80">NATIVE</text>
    <text x="10" y="22" text-anchor="middle" font-family="Inter, Helvetica, Arial, sans-serif" font-size="60" font-weight="900" fill="#F5F7FA">OTLP</text>
    <text x="10" y="44" text-anchor="middle" font-family="Inter, Helvetica, Arial, sans-serif" font-size="11" font-weight="600" fill="#9FD3B0">GCP</text>
    <line x1="-58" y1="50" x2="78" y2="50" stroke="#4ADE80" stroke-width="0.8" stroke-opacity="0.5"/>
    
  </g>
  <g transform="translate(990,315)">
    <circle cx="10" cy="-50" r="3" fill="#4ADE80"><animate attributeName="opacity" values="0.2;1;0.2" dur="1.8s" repeatCount="indefinite"/></circle>
    <circle cx="-58" cy="-50" r="2" fill="#86EFAC"><animate attributeName="opacity" values="0.8;0.2;0.8" dur="2.2s" repeatCount="indefinite"/></circle>
    <circle cx="78" cy="-50" r="2" fill="#86EFAC"><animate attributeName="opacity" values="0.2;0.9;0.2" dur="2.4s" repeatCount="indefinite"/></circle>
  </g>
</g>
<g>
  <rect x="0" y="420" width="1200" height="210" fill="url(#bandCFB10A)"/>
  <rect x="0" y="420" width="1200" height="210" fill="url(#circuitDot)" opacity="0.6"/>
  <rect x="0" y="420" width="8" height="210" fill="#A78BFA"/>
  <g filter="url(#textShadow)">
    <text x="30" y="464" font-family="Inter, Helvetica, Arial, sans-serif" font-size="18" font-weight="700" letter-spacing="2.4" fill="#C4B5FD">AWS BEDROCK</text>
    <text x="30" y="506" font-family="Inter, Helvetica, Arial, sans-serif" font-size="36" font-weight="800" fill="#F5F7FA">Claude Opus 4.6 GA</text>
    <text x="30" y="538" font-family="Inter, Helvetica, Arial, sans-serif" font-size="20" font-weight="600" fill="#DDD6FE">Bedrock + GenAI.mil</text>
    <text x="30" y="566" font-family="Inter, Helvetica, Arial, sans-serif" font-size="15" font-weight="500" fill="#D0CCE5">Claude Opus 4.6 in Bedrock : ChatGPT GenAI.mil DoD platform launch</text>
  </g>
  <g transform="translate(640,525)">
    <rect x="-92" y="-56" width="184" height="116" rx="8" fill="#A78BFA" fill-opacity="0.05" stroke="#A78BFA" stroke-width="1.2" stroke-opacity="0.5"/>
    <g stroke="#A78BFA" stroke-width="2" opacity="0.85">
      <line x1="-80" y1="-40" x2="-30" y2="-40"/><line x1="-25" y1="-40" x2="40" y2="-40"/>
      <line x1="-80" y1="-20" x2="-10" y2="-20"/><line x1="-5" y1="-20" x2="55" y2="-20"/>
      <line x1="-80" y1="0" x2="-40" y2="0"/><line x1="-35" y1="0" x2="60" y2="0"/>
      <line x1="-80" y1="20" x2="-20" y2="20"/><line x1="-15" y1="20" x2="30" y2="20"/>
      <line x1="-80" y1="40" x2="-50" y2="40"/><line x1="-45" y1="40" x2="50" y2="40"/>
    </g>
    <rect x="-86" y="-50" width="4" height="104" fill="#A78BFA" opacity="0.6"/>
    <g fill="#C4B5FD">
      <circle cx="74" cy="-40" r="3"><animate attributeName="opacity" values="0.3;1;0.3" dur="1.6s" repeatCount="indefinite"/></circle>
      <circle cx="74" cy="-20" r="3"><animate attributeName="opacity" values="0.3;1;0.3" dur="1.8s" repeatCount="indefinite"/></circle>
      <circle cx="74" cy="0" r="3"><animate attributeName="opacity" values="0.3;1;0.3" dur="2.1s" repeatCount="indefinite"/></circle>
      <circle cx="74" cy="20" r="3"><animate attributeName="opacity" values="0.3;1;0.3" dur="1.7s" repeatCount="indefinite"/></circle>
      <circle cx="74" cy="40" r="3"><animate attributeName="opacity" values="0.3;1;0.3" dur="1.9s" repeatCount="indefinite"/></circle>
    </g>
    <rect x="-86" y="-50" width="178" height="3" fill="#A78BFA" opacity="0.4">
      <animate attributeName="y" values="-50;46;-50" dur="3.2s" repeatCount="indefinite"/>
    </rect>
    <text y="68" text-anchor="middle" font-family="Inter, monospace" font-size="10" font-weight="800" fill="#A78BFA">OPUS-4.6</text>
  </g>
  <g transform="translate(870,525)" filter="url(#softShadow)">
    <rect x="-50" y="-48" width="100" height="96" rx="10" fill="#160629" stroke="#A78BFA" stroke-width="1.6" stroke-opacity="0.75"/>
    <text x="0" y="-26" text-anchor="middle" font-family="Inter, Helvetica, Arial, sans-serif" font-size="10" font-weight="700" letter-spacing="1.4" fill="#C4B5FD">GENAI.MIL</text>
    <text x="0" y="14" text-anchor="middle" font-family="Inter, Helvetica, Arial, sans-serif" font-size="34" font-weight="900" fill="#F5F7FA">DoD</text>
    <text x="0" y="34" text-anchor="middle" font-family="Inter, Helvetica, Arial, sans-serif" font-size="10" font-weight="600" fill="#DDD6FE">federal</text>
  </g>
  <g transform="translate(990,525)" filter="url(#softShadow)">
    <rect x="-80" y="-65" width="180" height="125" rx="14" fill="#160629" stroke="#A78BFA" stroke-width="2.2"/>
    <text x="10" y="-38" text-anchor="middle" font-family="Inter, Helvetica, Arial, sans-serif" font-size="13" font-weight="700" letter-spacing="2" fill="#C4B5FD">OPUS</text>
    <text x="10" y="22" text-anchor="middle" font-family="Inter, Helvetica, Arial, sans-serif" font-size="72" font-weight="900" fill="#F5F7FA">4.6</text>
    <text x="10" y="44" text-anchor="middle" font-family="Inter, Helvetica, Arial, sans-serif" font-size="11" font-weight="600" fill="#DDD6FE">Bedrock GA</text>
    <line x1="-58" y1="50" x2="78" y2="50" stroke="#A78BFA" stroke-width="0.8" stroke-opacity="0.5"/>
    
  </g>
  <g transform="translate(990,525)">
    <circle cx="10" cy="-50" r="3" fill="#A78BFA"><animate attributeName="opacity" values="0.2;1;0.2" dur="1.8s" repeatCount="indefinite"/></circle>
    <circle cx="-58" cy="-50" r="2" fill="#C4B5FD"><animate attributeName="opacity" values="0.8;0.2;0.8" dur="2.2s" repeatCount="indefinite"/></circle>
    <circle cx="78" cy="-50" r="2" fill="#C4B5FD"><animate attributeName="opacity" values="0.2;0.9;0.2" dur="2.4s" repeatCount="indefinite"/></circle>
  </g>
</g>
<g opacity="0.9">
  <g fill="#60A5FA">
    <circle cx="240" cy="63" r="1.5"><animate attributeName="opacity" values="0;1;0" dur="1.8s" repeatCount="indefinite"/></circle>
    <circle cx="290" cy="63" r="1.5"><animate attributeName="opacity" values="0;1;0" dur="1.6s" begin="0.2s" repeatCount="indefinite"/></circle>
    <circle cx="340" cy="63" r="1.5"><animate attributeName="opacity" values="0;1;0" dur="2.0s" begin="0.4s" repeatCount="indefinite"/></circle>
    <circle cx="390" cy="63" r="1.5"><animate attributeName="opacity" values="0;1;0" dur="1.7s" begin="0.6s" repeatCount="indefinite"/></circle>
    <circle cx="440" cy="63" r="1.5"><animate attributeName="opacity" values="0;1;0" dur="1.9s" begin="0.8s" repeatCount="indefinite"/></circle>
    <circle cx="780" cy="55" r="1.4"><animate attributeName="opacity" values="0;1;0" dur="1.6s" repeatCount="indefinite"/></circle>
    <circle cx="820" cy="55" r="1.4"><animate attributeName="opacity" values="0;1;0" dur="2.0s" begin="0.3s" repeatCount="indefinite"/></circle>
    <circle cx="860" cy="55" r="1.4"><animate attributeName="opacity" values="0;1;0" dur="1.8s" begin="0.6s" repeatCount="indefinite"/></circle>
    <circle cx="240" cy="147" r="1.3"><animate attributeName="opacity" values="0;1;0" dur="1.7s" begin="0.4s" repeatCount="indefinite"/></circle>
    <circle cx="320" cy="147" r="1.3"><animate attributeName="opacity" values="0;1;0" dur="1.9s" begin="0.7s" repeatCount="indefinite"/></circle>
  </g>
  <g fill="#60A5FA" opacity="0.6">
    <rect x="780" y="27" width="6" height="2"><animate attributeName="opacity" values="0.2;1;0.2" dur="1.4s" repeatCount="indefinite"/></rect>
    <rect x="800" y="27" width="6" height="2"><animate attributeName="opacity" values="0.2;1;0.2" dur="1.2s" begin="0.3s" repeatCount="indefinite"/></rect>
    <rect x="820" y="27" width="6" height="2"><animate attributeName="opacity" values="0.2;1;0.2" dur="1.6s" begin="0.6s" repeatCount="indefinite"/></rect>
    <rect x="840" y="27" width="6" height="2"><animate attributeName="opacity" values="0.2;1;0.2" dur="1.3s" begin="0.9s" repeatCount="indefinite"/></rect>
  </g>
  <g fill="#93C5FD" opacity="0.85">
    <rect x="730" y="165" width="3" height="3" rx="0.6"><animate attributeName="opacity" values="0.3;1;0.3" dur="1.4s" repeatCount="indefinite"/></rect>
    <rect x="746" y="165" width="3" height="3" rx="0.6"><animate attributeName="opacity" values="0.3;1;0.3" dur="1.2s" begin="0.3s" repeatCount="indefinite"/></rect>
    <rect x="762" y="165" width="3" height="3" rx="0.6"><animate attributeName="opacity" values="0.3;1;0.3" dur="1.6s" begin="0.6s" repeatCount="indefinite"/></rect>
  </g>
  <g stroke="#60A5FA" stroke-width="0.5" stroke-opacity="0.35" fill="none">
    <path d="M20 95 L28 95"><animate attributeName="stroke-opacity" values="0;0.7;0" dur="2s" repeatCount="indefinite"/></path>
    <path d="M20 125 L28 125"><animate attributeName="stroke-opacity" values="0;0.7;0" dur="2.2s" begin="0.3s" repeatCount="indefinite"/></path>
    <path d="M20 155 L28 155"><animate attributeName="stroke-opacity" values="0;0.7;0" dur="1.8s" begin="0.6s" repeatCount="indefinite"/></path>
  </g>
  <g stroke="#93C5FD" stroke-width="0.6" stroke-opacity="0.3" fill="none">
    <circle cx="500" cy="105" r="100"><animate attributeName="r" values="80;120;80" dur="4s" repeatCount="indefinite"/><animate attributeName="stroke-opacity" values="0.4;0;0.4" dur="4s" repeatCount="indefinite"/></circle>
  </g>
  <g fill="#4ADE80">
    <circle cx="240" cy="273" r="1.5"><animate attributeName="opacity" values="0;1;0" dur="1.8s" repeatCount="indefinite"/></circle>
    <circle cx="290" cy="273" r="1.5"><animate attributeName="opacity" values="0;1;0" dur="1.6s" begin="0.2s" repeatCount="indefinite"/></circle>
    <circle cx="340" cy="273" r="1.5"><animate attributeName="opacity" values="0;1;0" dur="2.0s" begin="0.4s" repeatCount="indefinite"/></circle>
    <circle cx="390" cy="273" r="1.5"><animate attributeName="opacity" values="0;1;0" dur="1.7s" begin="0.6s" repeatCount="indefinite"/></circle>
    <circle cx="440" cy="273" r="1.5"><animate attributeName="opacity" values="0;1;0" dur="1.9s" begin="0.8s" repeatCount="indefinite"/></circle>
    <circle cx="780" cy="265" r="1.4"><animate attributeName="opacity" values="0;1;0" dur="1.6s" repeatCount="indefinite"/></circle>
    <circle cx="820" cy="265" r="1.4"><animate attributeName="opacity" values="0;1;0" dur="2.0s" begin="0.3s" repeatCount="indefinite"/></circle>
    <circle cx="860" cy="265" r="1.4"><animate attributeName="opacity" values="0;1;0" dur="1.8s" begin="0.6s" repeatCount="indefinite"/></circle>
    <circle cx="240" cy="357" r="1.3"><animate attributeName="opacity" values="0;1;0" dur="1.7s" begin="0.4s" repeatCount="indefinite"/></circle>
    <circle cx="320" cy="357" r="1.3"><animate attributeName="opacity" values="0;1;0" dur="1.9s" begin="0.7s" repeatCount="indefinite"/></circle>
  </g>
  <g fill="#4ADE80" opacity="0.6">
    <rect x="780" y="237" width="6" height="2"><animate attributeName="opacity" values="0.2;1;0.2" dur="1.4s" repeatCount="indefinite"/></rect>
    <rect x="800" y="237" width="6" height="2"><animate attributeName="opacity" values="0.2;1;0.2" dur="1.2s" begin="0.3s" repeatCount="indefinite"/></rect>
    <rect x="820" y="237" width="6" height="2"><animate attributeName="opacity" values="0.2;1;0.2" dur="1.6s" begin="0.6s" repeatCount="indefinite"/></rect>
    <rect x="840" y="237" width="6" height="2"><animate attributeName="opacity" values="0.2;1;0.2" dur="1.3s" begin="0.9s" repeatCount="indefinite"/></rect>
  </g>
  <g fill="#86EFAC" opacity="0.85">
    <rect x="730" y="375" width="3" height="3" rx="0.6"><animate attributeName="opacity" values="0.3;1;0.3" dur="1.4s" repeatCount="indefinite"/></rect>
    <rect x="746" y="375" width="3" height="3" rx="0.6"><animate attributeName="opacity" values="0.3;1;0.3" dur="1.2s" begin="0.3s" repeatCount="indefinite"/></rect>
    <rect x="762" y="375" width="3" height="3" rx="0.6"><animate attributeName="opacity" values="0.3;1;0.3" dur="1.6s" begin="0.6s" repeatCount="indefinite"/></rect>
  </g>
  <g stroke="#4ADE80" stroke-width="0.5" stroke-opacity="0.35" fill="none">
    <path d="M20 305 L28 305"><animate attributeName="stroke-opacity" values="0;0.7;0" dur="2s" repeatCount="indefinite"/></path>
    <path d="M20 335 L28 335"><animate attributeName="stroke-opacity" values="0;0.7;0" dur="2.2s" begin="0.3s" repeatCount="indefinite"/></path>
    <path d="M20 365 L28 365"><animate attributeName="stroke-opacity" values="0;0.7;0" dur="1.8s" begin="0.6s" repeatCount="indefinite"/></path>
  </g>
  <g stroke="#86EFAC" stroke-width="0.6" stroke-opacity="0.3" fill="none">
    <circle cx="500" cy="315" r="100"><animate attributeName="r" values="80;120;80" dur="4s" repeatCount="indefinite"/><animate attributeName="stroke-opacity" values="0.4;0;0.4" dur="4s" repeatCount="indefinite"/></circle>
  </g>
  <g fill="#A78BFA">
    <circle cx="240" cy="483" r="1.5"><animate attributeName="opacity" values="0;1;0" dur="1.8s" repeatCount="indefinite"/></circle>
    <circle cx="290" cy="483" r="1.5"><animate attributeName="opacity" values="0;1;0" dur="1.6s" begin="0.2s" repeatCount="indefinite"/></circle>
    <circle cx="340" cy="483" r="1.5"><animate attributeName="opacity" values="0;1;0" dur="2.0s" begin="0.4s" repeatCount="indefinite"/></circle>
    <circle cx="390" cy="483" r="1.5"><animate attributeName="opacity" values="0;1;0" dur="1.7s" begin="0.6s" repeatCount="indefinite"/></circle>
    <circle cx="440" cy="483" r="1.5"><animate attributeName="opacity" values="0;1;0" dur="1.9s" begin="0.8s" repeatCount="indefinite"/></circle>
    <circle cx="780" cy="475" r="1.4"><animate attributeName="opacity" values="0;1;0" dur="1.6s" repeatCount="indefinite"/></circle>
    <circle cx="820" cy="475" r="1.4"><animate attributeName="opacity" values="0;1;0" dur="2.0s" begin="0.3s" repeatCount="indefinite"/></circle>
    <circle cx="860" cy="475" r="1.4"><animate attributeName="opacity" values="0;1;0" dur="1.8s" begin="0.6s" repeatCount="indefinite"/></circle>
    <circle cx="240" cy="567" r="1.3"><animate attributeName="opacity" values="0;1;0" dur="1.7s" begin="0.4s" repeatCount="indefinite"/></circle>
    <circle cx="320" cy="567" r="1.3"><animate attributeName="opacity" values="0;1;0" dur="1.9s" begin="0.7s" repeatCount="indefinite"/></circle>
  </g>
  <g fill="#A78BFA" opacity="0.6">
    <rect x="780" y="447" width="6" height="2"><animate attributeName="opacity" values="0.2;1;0.2" dur="1.4s" repeatCount="indefinite"/></rect>
    <rect x="800" y="447" width="6" height="2"><animate attributeName="opacity" values="0.2;1;0.2" dur="1.2s" begin="0.3s" repeatCount="indefinite"/></rect>
    <rect x="820" y="447" width="6" height="2"><animate attributeName="opacity" values="0.2;1;0.2" dur="1.6s" begin="0.6s" repeatCount="indefinite"/></rect>
    <rect x="840" y="447" width="6" height="2"><animate attributeName="opacity" values="0.2;1;0.2" dur="1.3s" begin="0.9s" repeatCount="indefinite"/></rect>
  </g>
  <g fill="#C4B5FD" opacity="0.85">
    <rect x="730" y="585" width="3" height="3" rx="0.6"><animate attributeName="opacity" values="0.3;1;0.3" dur="1.4s" repeatCount="indefinite"/></rect>
    <rect x="746" y="585" width="3" height="3" rx="0.6"><animate attributeName="opacity" values="0.3;1;0.3" dur="1.2s" begin="0.3s" repeatCount="indefinite"/></rect>
    <rect x="762" y="585" width="3" height="3" rx="0.6"><animate attributeName="opacity" values="0.3;1;0.3" dur="1.6s" begin="0.6s" repeatCount="indefinite"/></rect>
  </g>
  <g stroke="#A78BFA" stroke-width="0.5" stroke-opacity="0.35" fill="none">
    <path d="M20 515 L28 515"><animate attributeName="stroke-opacity" values="0;0.7;0" dur="2s" repeatCount="indefinite"/></path>
    <path d="M20 545 L28 545"><animate attributeName="stroke-opacity" values="0;0.7;0" dur="2.2s" begin="0.3s" repeatCount="indefinite"/></path>
    <path d="M20 575 L28 575"><animate attributeName="stroke-opacity" values="0;0.7;0" dur="1.8s" begin="0.6s" repeatCount="indefinite"/></path>
  </g>
  <g stroke="#C4B5FD" stroke-width="0.6" stroke-opacity="0.3" fill="none">
    <circle cx="500" cy="525" r="100"><animate attributeName="r" values="80;120;80" dur="4s" repeatCount="indefinite"/><animate attributeName="stroke-opacity" values="0.4;0;0.4" dur="4s" repeatCount="indefinite"/></circle>
  </g>
</g>
<g transform="translate(1080,504)" filter="url(#softShadow)">
  <rect x="-8" y="-8" width="100" height="100" rx="6" fill="#FFFFFF"/>
  <path fill="#0A1020" d="M0.0 0.0h14.341v2.049h-14.341z M16.39 0.0h6.146v2.049h-6.146z M24.585 0.0h2.049v2.049h-2.049z M30.732 0.0h2.049v2.049h-2.049z M36.878 0.0h4.098v2.049h-4.098z M43.024 0.0h4.098v2.049h-4.098z M61.463 0.0h2.049v2.049h-2.049z M69.659 0.0h14.341v2.049h-14.341z M0.0 2.049h2.049v2.049h-2.049z M12.293 2.049h2.049v2.049h-2.049z M18.439 2.049h2.049v2.049h-2.049z M24.585 2.049h8.195v2.049h-8.195z M34.829 2.049h4.098v2.049h-4.098z M40.976 2.049h2.049v2.049h-2.049z M51.22 2.049h4.098v2.049h-4.098z M61.463 2.049h2.049v2.049h-2.049z M65.561 2.049h2.049v2.049h-2.049z M69.659 2.049h2.049v2.049h-2.049z M81.951 2.049h2.049v2.049h-2.049z M0.0 4.098h2.049v2.049h-2.049z M4.098 4.098h6.146v2.049h-6.146z M12.293 4.098h2.049v2.049h-2.049z M16.39 4.098h4.098v2.049h-4.098z M22.537 4.098h2.049v2.049h-2.049z M28.683 4.098h4.098v2.049h-4.098z M36.878 4.098h4.098v2.049h-4.098z M43.024 4.098h2.049v2.049h-2.049z M47.122 4.098h2.049v2.049h-2.049z M53.268 4.098h8.195v2.049h-8.195z M63.512 4.098h2.049v2.049h-2.049z M69.659 4.098h2.049v2.049h-2.049z M73.756 4.098h6.146v2.049h-6.146z M81.951 4.098h2.049v2.049h-2.049z M0.0 6.146h2.049v2.049h-2.049z M4.098 6.146h6.146v2.049h-6.146z M12.293 6.146h2.049v2.049h-2.049z M18.439 6.146h8.195v2.049h-8.195z M30.732 6.146h2.049v2.049h-2.049z M36.878 6.146h4.098v2.049h-4.098z M53.268 6.146h2.049v2.049h-2.049z M57.366 6.146h2.049v2.049h-2.049z M61.463 6.146h6.146v2.049h-6.146z M69.659 6.146h2.049v2.049h-2.049z M73.756 6.146h6.146v2.049h-6.146z M81.951 6.146h2.049v2.049h-2.049z M0.0 8.195h2.049v2.049h-2.049z M4.098 8.195h6.146v2.049h-6.146z M12.293 8.195h2.049v2.049h-2.049z M18.439 8.195h10.244v2.049h-10.244z M36.878 8.195h2.049v2.049h-2.049z M43.024 8.195h2.049v2.049h-2.049z M47.122 8.195h2.049v2.049h-2.049z M51.22 8.195h4.098v2.049h-4.098z M57.366 8.195h6.146v2.049h-6.146z M65.561 8.195h2.049v2.049h-2.049z M69.659 8.195h2.049v2.049h-2.049z M73.756 8.195h6.146v2.049h-6.146z M81.951 8.195h2.049v2.049h-2.049z M0.0 10.244h2.049v2.049h-2.049z M12.293 10.244h2.049v2.049h-2.049z M16.39 10.244h2.049v2.049h-2.049z M20.488 10.244h2.049v2.049h-2.049z M28.683 10.244h2.049v2.049h-2.049z M34.829 10.244h4.098v2.049h-4.098z M43.024 10.244h2.049v2.049h-2.049z M49.171 10.244h4.098v2.049h-4.098z M61.463 10.244h2.049v2.049h-2.049z M69.659 10.244h2.049v2.049h-2.049z M81.951 10.244h2.049v2.049h-2.049z M0.0 12.293h14.341v2.049h-14.341z M16.39 12.293h2.049v2.049h-2.049z M20.488 12.293h2.049v2.049h-2.049z M24.585 12.293h2.049v2.049h-2.049z M28.683 12.293h2.049v2.049h-2.049z M32.78 12.293h2.049v2.049h-2.049z M36.878 12.293h2.049v2.049h-2.049z M40.976 12.293h2.049v2.049h-2.049z M45.073 12.293h2.049v2.049h-2.049z M49.171 12.293h2.049v2.049h-2.049z M53.268 12.293h2.049v2.049h-2.049z M57.366 12.293h2.049v2.049h-2.049z M61.463 12.293h2.049v2.049h-2.049z M65.561 12.293h2.049v2.049h-2.049z M69.659 12.293h14.341v2.049h-14.341z M26.634 14.341h2.049v2.049h-2.049z M40.976 14.341h2.049v2.049h-2.049z M47.122 14.341h4.098v2.049h-4.098z M63.512 14.341h2.049v2.049h-2.049z M0.0 16.39h2.049v2.049h-2.049z M4.098 16.39h2.049v2.049h-2.049z M12.293 16.39h4.098v2.049h-4.098z M20.488 16.39h10.244v2.049h-10.244z M40.976 16.39h2.049v2.049h-2.049z M55.317 16.39h2.049v2.049h-2.049z M63.512 16.39h2.049v2.049h-2.049z M71.707 16.39h2.049v2.049h-2.049z M77.854 16.39h2.049v2.049h-2.049z M81.951 16.39h2.049v2.049h-2.049z M2.049 18.439h2.049v2.049h-2.049z M8.195 18.439h2.049v2.049h-2.049z M14.341 18.439h2.049v2.049h-2.049z M18.439 18.439h8.195v2.049h-8.195z M28.683 18.439h8.195v2.049h-8.195z M38.927 18.439h2.049v2.049h-2.049z M47.122 18.439h4.098v2.049h-4.098z M53.268 18.439h4.098v2.049h-4.098z M63.512 18.439h10.244v2.049h-10.244z M77.854 18.439h2.049v2.049h-2.049z M81.951 18.439h2.049v2.049h-2.049z M2.049 20.488h4.098v2.049h-4.098z M10.244 20.488h10.244v2.049h-10.244z M26.634 20.488h4.098v2.049h-4.098z M38.927 20.488h12.293v2.049h-12.293z M53.268 20.488h12.293v2.049h-12.293z M73.756 20.488h6.146v2.049h-6.146z M81.951 20.488h2.049v2.049h-2.049z M4.098 22.537h4.098v2.049h-4.098z M10.244 22.537h2.049v2.049h-2.049z M14.341 22.537h8.195v2.049h-8.195z M26.634 22.537h8.195v2.049h-8.195z M36.878 22.537h6.146v2.049h-6.146z M45.073 22.537h2.049v2.049h-2.049z M49.171 22.537h2.049v2.049h-2.049z M55.317 22.537h4.098v2.049h-4.098z M63.512 22.537h10.244v2.049h-10.244z M75.805 22.537h2.049v2.049h-2.049z M79.902 22.537h4.098v2.049h-4.098z M0.0 24.585h2.049v2.049h-2.049z M6.146 24.585h2.049v2.049h-2.049z M12.293 24.585h2.049v2.049h-2.049z M18.439 24.585h2.049v2.049h-2.049z M24.585 24.585h2.049v2.049h-2.049z M28.683 24.585h2.049v2.049h-2.049z M43.024 24.585h2.049v2.049h-2.049z M47.122 24.585h4.098v2.049h-4.098z M53.268 24.585h2.049v2.049h-2.049z M57.366 24.585h2.049v2.049h-2.049z M61.463 24.585h2.049v2.049h-2.049z M65.561 24.585h2.049v2.049h-2.049z M69.659 24.585h2.049v2.049h-2.049z M81.951 24.585h2.049v2.049h-2.049z M2.049 26.634h10.244v2.049h-10.244z M14.341 26.634h4.098v2.049h-4.098z M20.488 26.634h12.293v2.049h-12.293z M36.878 26.634h2.049v2.049h-2.049z M43.024 26.634h2.049v2.049h-2.049z M49.171 26.634h2.049v2.049h-2.049z M61.463 26.634h4.098v2.049h-4.098z M67.61 26.634h2.049v2.049h-2.049z M71.707 26.634h2.049v2.049h-2.049z M75.805 26.634h4.098v2.049h-4.098z M0.0 28.683h4.098v2.049h-4.098z M10.244 28.683h4.098v2.049h-4.098z M16.39 28.683h4.098v2.049h-4.098z M28.683 28.683h2.049v2.049h-2.049z M32.78 28.683h2.049v2.049h-2.049z M38.927 28.683h2.049v2.049h-2.049z M43.024 28.683h4.098v2.049h-4.098z M49.171 28.683h2.049v2.049h-2.049z M53.268 28.683h4.098v2.049h-4.098z M59.415 28.683h2.049v2.049h-2.049z M63.512 28.683h8.195v2.049h-8.195z M81.951 28.683h2.049v2.049h-2.049z M2.049 30.732h4.098v2.049h-4.098z M8.195 30.732h4.098v2.049h-4.098z M14.341 30.732h4.098v2.049h-4.098z M22.537 30.732h2.049v2.049h-2.049z M28.683 30.732h2.049v2.049h-2.049z M36.878 30.732h2.049v2.049h-2.049z M47.122 30.732h4.098v2.049h-4.098z M55.317 30.732h4.098v2.049h-4.098z M61.463 30.732h2.049v2.049h-2.049z M67.61 30.732h4.098v2.049h-4.098z M75.805 30.732h2.049v2.049h-2.049z M79.902 30.732h2.049v2.049h-2.049z M0.0 32.78h2.049v2.049h-2.049z M6.146 32.78h4.098v2.049h-4.098z M12.293 32.78h2.049v2.049h-2.049z M16.39 32.78h6.146v2.049h-6.146z M26.634 32.78h8.195v2.049h-8.195z M38.927 32.78h4.098v2.049h-4.098z M63.512 32.78h8.195v2.049h-8.195z M0.0 34.829h4.098v2.049h-4.098z M6.146 34.829h4.098v2.049h-4.098z M14.341 34.829h2.049v2.049h-2.049z M18.439 34.829h2.049v2.049h-2.049z M22.537 34.829h2.049v2.049h-2.049z M30.732 34.829h2.049v2.049h-2.049z M38.927 34.829h2.049v2.049h-2.049z M43.024 34.829h2.049v2.049h-2.049z M47.122 34.829h4.098v2.049h-4.098z M57.366 34.829h2.049v2.049h-2.049z M61.463 34.829h2.049v2.049h-2.049z M65.561 34.829h8.195v2.049h-8.195z M75.805 34.829h2.049v2.049h-2.049z M81.951 34.829h2.049v2.049h-2.049z M2.049 36.878h2.049v2.049h-2.049z M10.244 36.878h30.732v2.049h-30.732z M47.122 36.878h2.049v2.049h-2.049z M51.22 36.878h6.146v2.049h-6.146z M59.415 36.878h6.146v2.049h-6.146z M69.659 36.878h14.341v2.049h-14.341z M6.146 38.927h2.049v2.049h-2.049z M16.39 38.927h2.049v2.049h-2.049z M20.488 38.927h2.049v2.049h-2.049z M24.585 38.927h2.049v2.049h-2.049z M30.732 38.927h4.098v2.049h-4.098z M36.878 38.927h4.098v2.049h-4.098z M43.024 38.927h2.049v2.049h-2.049z M49.171 38.927h2.049v2.049h-2.049z M53.268 38.927h2.049v2.049h-2.049z M57.366 38.927h2.049v2.049h-2.049z M61.463 38.927h2.049v2.049h-2.049z M65.561 38.927h2.049v2.049h-2.049z M75.805 38.927h2.049v2.049h-2.049z M79.902 38.927h2.049v2.049h-2.049z M0.0 40.976h2.049v2.049h-2.049z M6.146 40.976h4.098v2.049h-4.098z M12.293 40.976h8.195v2.049h-8.195z M22.537 40.976h2.049v2.049h-2.049z M30.732 40.976h2.049v2.049h-2.049z M34.829 40.976h10.244v2.049h-10.244z M47.122 40.976h8.195v2.049h-8.195z M59.415 40.976h2.049v2.049h-2.049z M69.659 40.976h8.195v2.049h-8.195z M0.0 43.024h4.098v2.049h-4.098z M14.341 43.024h4.098v2.049h-4.098z M36.878 43.024h6.146v2.049h-6.146z M47.122 43.024h2.049v2.049h-2.049z M53.268 43.024h4.098v2.049h-4.098z M61.463 43.024h4.098v2.049h-4.098z M67.61 43.024h6.146v2.049h-6.146z M75.805 43.024h4.098v2.049h-4.098z M81.951 43.024h2.049v2.049h-2.049z M2.049 45.073h2.049v2.049h-2.049z M6.146 45.073h10.244v2.049h-10.244z M18.439 45.073h2.049v2.049h-2.049z M24.585 45.073h4.098v2.049h-4.098z M32.78 45.073h2.049v2.049h-2.049z M36.878 45.073h4.098v2.049h-4.098z M43.024 45.073h10.244v2.049h-10.244z M55.317 45.073h2.049v2.049h-2.049z M59.415 45.073h2.049v2.049h-2.049z M63.512 45.073h2.049v2.049h-2.049z M67.61 45.073h4.098v2.049h-4.098z M73.756 45.073h6.146v2.049h-6.146z M81.951 45.073h2.049v2.049h-2.049z M0.0 47.122h6.146v2.049h-6.146z M10.244 47.122h2.049v2.049h-2.049z M16.39 47.122h4.098v2.049h-4.098z M22.537 47.122h2.049v2.049h-2.049z M32.78 47.122h2.049v2.049h-2.049z M36.878 47.122h4.098v2.049h-4.098z M45.073 47.122h2.049v2.049h-2.049z M55.317 47.122h4.098v2.049h-4.098z M61.463 47.122h16.39v2.049h-16.39z M79.902 47.122h2.049v2.049h-2.049z M0.0 49.171h8.195v2.049h-8.195z M12.293 49.171h2.049v2.049h-2.049z M16.39 49.171h2.049v2.049h-2.049z M24.585 49.171h2.049v2.049h-2.049z M28.683 49.171h6.146v2.049h-6.146z M38.927 49.171h4.098v2.049h-4.098z M47.122 49.171h4.098v2.049h-4.098z M57.366 49.171h2.049v2.049h-2.049z M65.561 49.171h2.049v2.049h-2.049z M69.659 49.171h4.098v2.049h-4.098z M75.805 49.171h2.049v2.049h-2.049z M0.0 51.22h8.195v2.049h-8.195z M14.341 51.22h10.244v2.049h-10.244z M26.634 51.22h8.195v2.049h-8.195z M38.927 51.22h6.146v2.049h-6.146z M47.122 51.22h10.244v2.049h-10.244z M63.512 51.22h2.049v2.049h-2.049z M67.61 51.22h6.146v2.049h-6.146z M75.805 51.22h2.049v2.049h-2.049z M81.951 51.22h2.049v2.049h-2.049z M0.0 53.268h8.195v2.049h-8.195z M12.293 53.268h2.049v2.049h-2.049z M16.39 53.268h2.049v2.049h-2.049z M20.488 53.268h16.39v2.049h-16.39z M38.927 53.268h2.049v2.049h-2.049z M43.024 53.268h6.146v2.049h-6.146z M55.317 53.268h4.098v2.049h-4.098z M61.463 53.268h4.098v2.049h-4.098z M69.659 53.268h2.049v2.049h-2.049z M75.805 53.268h4.098v2.049h-4.098z M81.951 53.268h2.049v2.049h-2.049z M6.146 55.317h2.049v2.049h-2.049z M10.244 55.317h2.049v2.049h-2.049z M16.39 55.317h6.146v2.049h-6.146z M28.683 55.317h2.049v2.049h-2.049z M32.78 55.317h2.049v2.049h-2.049z M36.878 55.317h6.146v2.049h-6.146z M45.073 55.317h6.146v2.049h-6.146z M53.268 55.317h2.049v2.049h-2.049z M63.512 55.317h4.098v2.049h-4.098z M71.707 55.317h2.049v2.049h-2.049z M75.805 55.317h2.049v2.049h-2.049z M79.902 55.317h4.098v2.049h-4.098z M2.049 57.366h8.195v2.049h-8.195z M12.293 57.366h4.098v2.049h-4.098z M26.634 57.366h2.049v2.049h-2.049z M40.976 57.366h2.049v2.049h-2.049z M45.073 57.366h2.049v2.049h-2.049z M53.268 57.366h2.049v2.049h-2.049z M57.366 57.366h2.049v2.049h-2.049z M61.463 57.366h2.049v2.049h-2.049z M69.659 57.366h2.049v2.049h-2.049z M2.049 59.415h10.244v2.049h-10.244z M14.341 59.415h2.049v2.049h-2.049z M24.585 59.415h2.049v2.049h-2.049z M30.732 59.415h6.146v2.049h-6.146z M40.976 59.415h2.049v2.049h-2.049z M51.22 59.415h6.146v2.049h-6.146z M61.463 59.415h2.049v2.049h-2.049z M65.561 59.415h2.049v2.049h-2.049z M71.707 59.415h2.049v2.049h-2.049z M81.951 59.415h2.049v2.049h-2.049z M0.0 61.463h6.146v2.049h-6.146z M12.293 61.463h6.146v2.049h-6.146z M20.488 61.463h2.049v2.049h-2.049z M24.585 61.463h8.195v2.049h-8.195z M40.976 61.463h4.098v2.049h-4.098z M47.122 61.463h2.049v2.049h-2.049z M55.317 61.463h2.049v2.049h-2.049z M59.415 61.463h2.049v2.049h-2.049z M63.512 61.463h6.146v2.049h-6.146z M75.805 61.463h8.195v2.049h-8.195z M4.098 63.512h4.098v2.049h-4.098z M10.244 63.512h2.049v2.049h-2.049z M14.341 63.512h6.146v2.049h-6.146z M24.585 63.512h10.244v2.049h-10.244z M36.878 63.512h6.146v2.049h-6.146z M45.073 63.512h2.049v2.049h-2.049z M53.268 63.512h4.098v2.049h-4.098z M65.561 63.512h2.049v2.049h-2.049z M69.659 63.512h8.195v2.049h-8.195z M0.0 65.561h4.098v2.049h-4.098z M8.195 65.561h2.049v2.049h-2.049z M12.293 65.561h4.098v2.049h-4.098z M18.439 65.561h4.098v2.049h-4.098z M28.683 65.561h2.049v2.049h-2.049z M32.78 65.561h2.049v2.049h-2.049z M47.122 65.561h4.098v2.049h-4.098z M55.317 65.561h4.098v2.049h-4.098z M65.561 65.561h12.293v2.049h-12.293z M81.951 65.561h2.049v2.049h-2.049z M16.39 67.61h2.049v2.049h-2.049z M20.488 67.61h4.098v2.049h-4.098z M32.78 67.61h4.098v2.049h-4.098z M38.927 67.61h4.098v2.049h-4.098z M45.073 67.61h8.195v2.049h-8.195z M55.317 67.61h2.049v2.049h-2.049z M65.561 67.61h2.049v2.049h-2.049z M73.756 67.61h2.049v2.049h-2.049z M77.854 67.61h2.049v2.049h-2.049z M81.951 67.61h2.049v2.049h-2.049z M0.0 69.659h14.341v2.049h-14.341z M16.39 69.659h2.049v2.049h-2.049z M22.537 69.659h2.049v2.049h-2.049z M26.634 69.659h4.098v2.049h-4.098z M32.78 69.659h2.049v2.049h-2.049z M38.927 69.659h2.049v2.049h-2.049z M43.024 69.659h6.146v2.049h-6.146z M55.317 69.659h2.049v2.049h-2.049z M65.561 69.659h2.049v2.049h-2.049z M69.659 69.659h2.049v2.049h-2.049z M73.756 69.659h2.049v2.049h-2.049z M77.854 69.659h2.049v2.049h-2.049z M81.951 69.659h2.049v2.049h-2.049z M0.0 71.707h2.049v2.049h-2.049z M12.293 71.707h2.049v2.049h-2.049z M18.439 71.707h2.049v2.049h-2.049z M22.537 71.707h2.049v2.049h-2.049z M26.634 71.707h4.098v2.049h-4.098z M32.78 71.707h4.098v2.049h-4.098z M40.976 71.707h2.049v2.049h-2.049z M45.073 71.707h2.049v2.049h-2.049z M49.171 71.707h4.098v2.049h-4.098z M61.463 71.707h2.049v2.049h-2.049z M65.561 71.707h2.049v2.049h-2.049z M73.756 71.707h4.098v2.049h-4.098z M79.902 71.707h4.098v2.049h-4.098z M0.0 73.756h2.049v2.049h-2.049z M4.098 73.756h6.146v2.049h-6.146z M12.293 73.756h2.049v2.049h-2.049z M18.439 73.756h2.049v2.049h-2.049z M26.634 73.756h4.098v2.049h-4.098z M32.78 73.756h4.098v2.049h-4.098z M38.927 73.756h8.195v2.049h-8.195z M51.22 73.756h2.049v2.049h-2.049z M55.317 73.756h6.146v2.049h-6.146z M63.512 73.756h14.341v2.049h-14.341z M0.0 75.805h2.049v2.049h-2.049z M4.098 75.805h6.146v2.049h-6.146z M12.293 75.805h2.049v2.049h-2.049z M20.488 75.805h2.049v2.049h-2.049z M24.585 75.805h2.049v2.049h-2.049z M28.683 75.805h6.146v2.049h-6.146z M40.976 75.805h2.049v2.049h-2.049z M45.073 75.805h4.098v2.049h-4.098z M55.317 75.805h2.049v2.049h-2.049z M61.463 75.805h2.049v2.049h-2.049z M71.707 75.805h6.146v2.049h-6.146z M79.902 75.805h2.049v2.049h-2.049z M0.0 77.854h2.049v2.049h-2.049z M4.098 77.854h6.146v2.049h-6.146z M12.293 77.854h2.049v2.049h-2.049z M16.39 77.854h4.098v2.049h-4.098z M22.537 77.854h2.049v2.049h-2.049z M32.78 77.854h2.049v2.049h-2.049z M36.878 77.854h4.098v2.049h-4.098z M47.122 77.854h2.049v2.049h-2.049z M55.317 77.854h4.098v2.049h-4.098z M61.463 77.854h2.049v2.049h-2.049z M65.561 77.854h4.098v2.049h-4.098z M73.756 77.854h2.049v2.049h-2.049z M77.854 77.854h2.049v2.049h-2.049z M81.951 77.854h2.049v2.049h-2.049z M0.0 79.902h2.049v2.049h-2.049z M12.293 79.902h2.049v2.049h-2.049z M20.488 79.902h2.049v2.049h-2.049z M24.585 79.902h2.049v2.049h-2.049z M28.683 79.902h4.098v2.049h-4.098z M40.976 79.902h2.049v2.049h-2.049z M45.073 79.902h2.049v2.049h-2.049z M53.268 79.902h6.146v2.049h-6.146z M61.463 79.902h2.049v2.049h-2.049z M65.561 79.902h2.049v2.049h-2.049z M0.0 81.951h14.341v2.049h-14.341z M16.39 81.951h4.098v2.049h-4.098z M32.78 81.951h2.049v2.049h-2.049z M40.976 81.951h2.049v2.049h-2.049z M47.122 81.951h4.098v2.049h-4.098z M55.317 81.951h4.098v2.049h-4.098z M63.512 81.951h4.098v2.049h-4.098z M73.756 81.951h4.098v2.049h-4.098z M81.951 81.951h2.049v2.049h-2.049z"/>
</g>
<text x="1122" y="614" font-family="Inter, Helvetica, Arial, sans-serif" font-size="10" font-weight="700" fill="#F5F7FA" text-anchor="middle">scan / full post</text>
</svg>