<svg xmlns="http://www.w3.org/2000/svg" viewBox="0 0 1200 630" fill="none">
  <defs>
    <linearGradient id="bg" x1="0" y1="0" x2="1200" y2="630">
      <stop offset="0%" stop-color="#0f172a"/>
      <stop offset="50%" stop-color="#1e293b"/>
      <stop offset="100%" stop-color="#0f172a"/>
    </linearGradient>
    <linearGradient id="accent" x1="0" y1="0" x2="1" y2="1">
      <stop offset="0%" stop-color="#ef4444"/>
      <stop offset="100%" stop-color="#dc2626"/>
    </linearGradient>
    <linearGradient id="accent2" x1="0" y1="0" x2="1" y2="1">
      <stop offset="0%" stop-color="#6366f1"/>
      <stop offset="100%" stop-color="#4f46e5"/>
    </linearGradient>
  </defs>

  <!-- Background -->
  <rect width="1200" height="630" fill="url(#bg)"/>

  <!-- Grid pattern -->
  <g opacity="0.05" stroke="#94a3b8" stroke-width="1">
    <line x1="0" y1="100" x2="1200" y2="100"/>
    <line x1="0" y1="200" x2="1200" y2="200"/>
    <line x1="0" y1="300" x2="1200" y2="300"/>
    <line x1="0" y1="400" x2="1200" y2="400"/>
    <line x1="0" y1="500" x2="1200" y2="500"/>
    <line x1="200" y1="0" x2="200" y2="630"/>
    <line x1="400" y1="0" x2="400" y2="630"/>
    <line x1="600" y1="0" x2="600" y2="630"/>
    <line x1="800" y1="0" x2="800" y2="630"/>
    <line x1="1000" y1="0" x2="1000" y2="630"/>
  </g>

  <!-- Primary icon -->
  <g transform="translate(80, 180)">
    <rect x="25" y="60" width="70" height="80" rx="8" fill="url(#accent)" opacity="0.9"/>
    <path d="M35 60 V40 C35 18 85 18 85 40 V60" fill="none" stroke="#fca5a5" stroke-width="3"/>
    <circle cx="60" cy="100" r="10" fill="white"/>
    <rect x="57" y="100" width="6" height="18" rx="2" fill="white"/>
  </g>

  <!-- Secondary icon -->
  <g transform="translate(80, 380)">
    <circle cx="60" cy="70" r="45" fill="url(#accent)" opacity="0.15"/>
    <circle cx="60" cy="70" r="45" fill="none" stroke="#6366f1" stroke-width="2.5"/>
    <path d="M40 55 Q50 35 60 50 Q70 35 80 55" fill="none" stroke="#94a3b8" stroke-width="2"/>
    <path d="M35 75 Q45 60 55 75 Q65 60 75 75 Q85 60 90 75" fill="none" stroke="#94a3b8" stroke-width="2"/>
    <text x="60" y="105" text-anchor="middle" fill="#6366f1" font-family="monospace" font-size="14" font-weight="bold">AI</text>
  </g>

  <!-- Main title area -->
  <g transform="translate(260, 100)">
    <text x="0" y="0" fill="#f8fafc" font-family="Arial, sans-serif" font-size="18" font-weight="bold" letter-spacing="4">TECH SECURITY WEEKLY DIGEST</text>
    <text x="0" y="60" fill="#f8fafc" font-family="Arial, sans-serif" font-size="42" font-weight="bold">Tech Security Weekly Digest</text>
    <text x="0" y="110" fill="#94a3b8" font-family="Arial, sans-serif" font-size="36" font-weight="300">AI Ransomware Data Bitcoin</text>
  </g>

  <!-- Date badge -->
  <rect x="260" y="240" width="200" height="36" rx="18" fill="url(#accent)" opacity="0.9"/>
  <text x="360" y="264" text-anchor="middle" fill="white" font-family="Arial, sans-serif" font-size="16" font-weight="bold">February 23, 2026</text>

  <!-- Stats cards -->
  <g transform="translate(260, 310)">
    <rect x="0" y="0" width="200" height="90" rx="8" fill="#1e293b" stroke="#334155" stroke-width="1"/>
    <text x="20" y="30" fill="#ef4444" font-family="Arial, sans-serif" font-size="12" font-weight="bold">RANSOMWARE</text>
    <text x="20" y="65" fill="#f8fafc" font-family="Arial, sans-serif" font-size="28" font-weight="bold">Ransomware</text>
    <text x="20" y="80" fill="#64748b" font-family="Arial, sans-serif" font-size="13">analysis</text>
    <rect x="220" y="0" width="200" height="90" rx="8" fill="#1e293b" stroke="#334155" stroke-width="1"/>
    <text x="240" y="30" fill="#818cf8" font-family="Arial, sans-serif" font-size="12" font-weight="bold">AI/ML</text>
    <text x="240" y="65" fill="#f8fafc" font-family="Arial, sans-serif" font-size="28" font-weight="bold">AI/ML</text>
    <text x="240" y="80" fill="#64748b" font-family="Arial, sans-serif" font-size="13">analysis</text>
    <rect x="440" y="0" width="200" height="90" rx="8" fill="#1e293b" stroke="#334155" stroke-width="1"/>
    <text x="460" y="30" fill="#06b6d4" font-family="Arial, sans-serif" font-size="12" font-weight="bold">CLOUD</text>
    <text x="460" y="65" fill="#f8fafc" font-family="Arial, sans-serif" font-size="28" font-weight="bold">Cloud</text>
    <text x="460" y="80" fill="#64748b" font-family="Arial, sans-serif" font-size="13">analysis</text>
  </g>

  <!-- Key topics -->
  <g transform="translate(260, 440)">
    <rect x="0" y="0" width="120" height="32" rx="16" fill="#991b1b" opacity="0.7"/>
    <text x="60" y="21" text-anchor="middle" fill="#fca5a5" font-family="Arial, sans-serif" font-size="13">Ransomware</text>
    <rect x="135" y="0" width="75" height="32" rx="16" fill="#7c2d12" opacity="0.7"/>
    <text x="172" y="21" text-anchor="middle" fill="#fdba74" font-family="Arial, sans-serif" font-size="13">AI/ML</text>
    <rect x="225" y="0" width="75" height="32" rx="16" fill="#312e81" opacity="0.7"/>
    <text x="262" y="21" text-anchor="middle" fill="#a5b4fc" font-family="Arial, sans-serif" font-size="13">Cloud</text>
    <rect x="315" y="0" width="93" height="32" rx="16" fill="#064e3b" opacity="0.7"/>
    <text x="361" y="21" text-anchor="middle" fill="#6ee7b7" font-family="Arial, sans-serif" font-size="13">Bitcoin</text>
  </g>

  <!-- Network visualization -->
  <g transform="translate(900, 180)" opacity="0.4">
    <circle cx="109" cy="69" r="3" fill="#f87171"/>
    <circle cx="39" cy="39" r="4" fill="#fb923c"/>
    <circle cx="206" cy="182" r="5" fill="#818cf8"/>
    <circle cx="152" cy="118" r="6" fill="#34d399"/>
    <circle cx="70" cy="152" r="3" fill="#fbbf24"/>
    <circle cx="185" cy="110" r="4" fill="#f87171"/>
    <circle cx="149" cy="50" r="5" fill="#fb923c"/>
    <circle cx="94" cy="185" r="6" fill="#818cf8"/>
    <circle cx="38" cy="68" r="3" fill="#34d399"/>
    <circle cx="56" cy="89" r="4" fill="#fbbf24"/>
    <line x1="109" y1="69" x2="39" y2="39" stroke="#475569" stroke-width="1"/>
    <line x1="39" y1="39" x2="206" y2="182" stroke="#475569" stroke-width="1"/>
    <line x1="206" y1="182" x2="152" y2="118" stroke="#475569" stroke-width="1"/>
    <line x1="152" y1="118" x2="70" y2="152" stroke="#475569" stroke-width="1"/>
    <line x1="70" y1="152" x2="185" y2="110" stroke="#475569" stroke-width="1"/>
    <line x1="185" y1="110" x2="149" y2="50" stroke="#475569" stroke-width="1"/>
    <line x1="149" y1="50" x2="94" y2="185" stroke="#475569" stroke-width="1"/>
    <line x1="94" y1="185" x2="38" y2="68" stroke="#475569" stroke-width="1"/>
  </g>

  <!-- Bottom bar -->
  <rect x="0" y="510" width="1200" height="120" fill="#0f172a" opacity="0.8"/>
  <rect x="0" y="510" width="1200" height="2" fill="url(#accent)" opacity="0.5"/>

  <!-- Bottom text -->
  <text x="80" y="560" fill="#94a3b8" font-family="Arial, sans-serif" font-size="16">tech.2twodragon.com</text>
  <text x="80" y="590" fill="#64748b" font-family="Arial, sans-serif" font-size="13">DevSecOps Weekly Security Intelligence</text>

  <!-- Bottom right -->
  <text x="1120" y="560" text-anchor="end" fill="#64748b" font-family="Arial, sans-serif" font-size="14">10 curated articles</text>
  <text x="1120" y="590" text-anchor="end" fill="#64748b" font-family="Arial, sans-serif" font-size="13">Ransomware | AI/ML | Cloud | Bitcoin</text>
</svg>
