<svg xmlns="http://www.w3.org/2000/svg" viewBox="0 0 1200 630">
  <defs>
    <linearGradient id="bg" x1="0%" y1="0%" x2="100%" y2="100%">
      <stop offset="0%" style="stop-color:#0a1520"/>
      <stop offset="100%" style="stop-color:#152535"/>
    </linearGradient>
    <linearGradient id="accent" x1="0%" y1="0%" x2="100%" y2="0%">
      <stop offset="0%" style="stop-color:#4285f4"/>
      <stop offset="100%" style="stop-color:#34a853"/>
    </linearGradient>
  </defs>
  <rect width="1200" height="630" fill="url(#bg)"/>
  <line x1="0" y1="105" x2="1200" y2="105" stroke="rgba(255,255,255,0.04)" stroke-width="1"/>
  <line x1="0" y1="210" x2="1200" y2="210" stroke="rgba(255,255,255,0.04)" stroke-width="1"/>
  <line x1="0" y1="315" x2="1200" y2="315" stroke="rgba(255,255,255,0.04)" stroke-width="1"/>
  <line x1="0" y1="420" x2="1200" y2="420" stroke="rgba(255,255,255,0.04)" stroke-width="1"/>
  <line x1="240" y1="0" x2="240" y2="630" stroke="rgba(255,255,255,0.03)" stroke-width="1"/>
  <line x1="480" y1="0" x2="480" y2="630" stroke="rgba(255,255,255,0.03)" stroke-width="1"/>
  <line x1="720" y1="0" x2="720" y2="630" stroke="rgba(255,255,255,0.03)" stroke-width="1"/>
  <line x1="960" y1="0" x2="960" y2="630" stroke="rgba(255,255,255,0.03)" stroke-width="1"/>
  <circle cx="1050" cy="450" r="200" fill="rgba(255,255,255,0.02)"/>
  <circle cx="1050" cy="450" r="140" fill="rgba(255,255,255,0.02)"/>
  <!-- GCP hexagon logo area -->
  <polygon points="985,248 1020,268 1020,308 985,328 950,308 950,268" fill="rgba(66,133,244,0.12)" stroke="rgba(66,133,244,0.5)" stroke-width="2"/>
  <!-- GCP color stripes inside -->
  <line x1="962" y1="275" x2="1008" y2="275" stroke="rgba(66,133,244,0.6)" stroke-width="3"/>
  <line x1="958" y1="288" x2="1012" y2="288" stroke="rgba(234,67,53,0.6)" stroke-width="3"/>
  <line x1="960" y1="301" x2="1010" y2="301" stroke="rgba(251,188,4,0.6)" stroke-width="3"/>
  <!-- Arrow GCP to GKE -->
  <line x1="1020" y1="288" x2="1065" y2="288" stroke="rgba(52,168,83,0.5)" stroke-width="2" stroke-dasharray="5,3"/>
  <polygon points="1065,283 1077,288 1065,293" fill="rgba(52,168,83,0.6)"/>
  <!-- GKE cluster nodes -->
  <circle cx="1100" cy="268" r="18" fill="rgba(52,168,83,0.15)" stroke="rgba(52,168,83,0.55)" stroke-width="1.8"/>
  <circle cx="1140" cy="288" r="18" fill="rgba(52,168,83,0.15)" stroke="rgba(52,168,83,0.55)" stroke-width="1.8"/>
  <circle cx="1100" cy="308" r="18" fill="rgba(52,168,83,0.15)" stroke="rgba(52,168,83,0.55)" stroke-width="1.8"/>
  <circle cx="1060" cy="288" r="14" fill="rgba(52,168,83,0.1)" stroke="rgba(52,168,83,0.4)" stroke-width="1.5"/>
  <!-- Connections between nodes -->
  <line x1="1100" y1="268" x2="1140" y2="288" stroke="rgba(52,168,83,0.3)" stroke-width="1"/>
  <line x1="1140" y1="288" x2="1100" y2="308" stroke="rgba(52,168,83,0.3)" stroke-width="1"/>
  <line x1="1100" y1="268" x2="1100" y2="308" stroke="rgba(52,168,83,0.3)" stroke-width="1"/>
  <!-- IAM role arrow going down from GCP hex -->
  <line x1="985" y1="328" x2="985" y2="370" stroke="rgba(66,133,244,0.4)" stroke-width="1.5" stroke-dasharray="4,3"/>
  <!-- IAM role box -->
  <rect x="948" y="370" width="74" height="40" rx="5" fill="rgba(66,133,244,0.1)" stroke="rgba(66,133,244,0.38)" stroke-width="1.5"/>
  <rect x="956" y="378" width="20" height="14" rx="3" fill="rgba(66,133,244,0.3)"/>
  <rect x="982" y="381" width="32" height="5" rx="2" fill="rgba(255,255,255,0.2)"/>
  <rect x="982" y="390" width="24" height="4" rx="2" fill="rgba(255,255,255,0.12)"/>
  <rect x="0" y="0" width="6" height="630" fill="url(#accent)"/>
  <rect x="80" y="60" width="210" height="30" rx="4" fill="rgba(66,133,244,0.14)" stroke="rgba(66,133,244,0.38)" stroke-width="1"/>
  <text x="185" y="81" font-family="Arial,sans-serif" font-size="12" fill="rgba(255,255,255,0.72)" text-anchor="middle" letter-spacing="1">JANUARY 14, 2026</text>
  <text x="80" y="185" font-family="Arial,sans-serif" font-size="46" font-weight="700" fill="#ffffff">GCP Security Guide</text>
  <text x="80" y="245" font-family="Arial,sans-serif" font-size="46" font-weight="700" fill="#ffffff">IAM to GKE Architecture</text>
  <text x="80" y="300" font-family="Arial,sans-serif" font-size="19" fill="rgba(255,255,255,0.65)">Practical GCP security from IAM roles to GKE cluster hardening</text>
  <rect x="80" y="325" width="420" height="3" fill="url(#accent)" rx="2"/>
  <text x="80" y="370" font-family="Arial,sans-serif" font-size="14" fill="rgba(255,255,255,0.5)" letter-spacing="2">GCP SECURITY GUIDE</text>
  <rect x="80" y="402" width="95" height="36" rx="18" fill="rgba(66,133,244,0.14)" stroke="rgba(66,133,244,0.4)" stroke-width="1"/>
  <text x="127" y="425" font-family="Arial,sans-serif" font-size="13" fill="rgba(255,255,255,0.82)" text-anchor="middle">GCP IAM</text>
  <rect x="190" y="402" width="72" height="36" rx="18" fill="rgba(52,168,83,0.14)" stroke="rgba(52,168,83,0.4)" stroke-width="1"/>
  <text x="226" y="425" font-family="Arial,sans-serif" font-size="13" fill="rgba(255,255,255,0.82)" text-anchor="middle">GKE</text>
  <rect x="277" y="402" width="118" height="36" rx="18" fill="rgba(255,255,255,0.05)" stroke="rgba(255,255,255,0.2)" stroke-width="1"/>
  <text x="336" y="425" font-family="Arial,sans-serif" font-size="13" fill="rgba(255,255,255,0.82)" text-anchor="middle">Architecture</text>
  <rect x="0" y="520" width="1200" height="110" fill="rgba(0,0,0,0.3)"/>
  <text x="80" y="545" font-family="Arial,sans-serif" font-size="15" fill="rgba(255,255,255,0.5)">tech.2twodragon.com</text>
  <text x="1120" y="545" font-family="Arial,sans-serif" font-size="13" fill="rgba(255,255,255,0.4)" text-anchor="end">DevSecOps</text>
</svg>
