<svg xmlns="http://www.w3.org/2000/svg" viewBox="0 0 1200 630" width="1200" height="630" role="img" aria-label="Weekly metro map: JWT Auth Breach, Bitcoin $10.3M Heist, AI Governance 7 Principles">
<title>JWT Auth Breach, Iran Bitcoin $10.3M Heist, Financial AI Governance — 2026.03.04</title>
<!-- profile: high-quality-cover (L21 Metro Map, research-based, batch3a-locked) -->
<defs>
  <linearGradient id="bgGrad" x1="0%" y1="0%" x2="100%" y2="100%">
    <stop offset="0%" stop-color="#0A1020"/>
    <stop offset="50%" stop-color="#0C1630"/>
    <stop offset="100%" stop-color="#0F1A3A"/>
  </linearGradient>
  <radialGradient id="pulseRed" cx="50%" cy="50%" r="50%">
    <stop offset="0%" stop-color="#FF4D5E" stop-opacity="1"/>
    <stop offset="60%" stop-color="#E63946" stop-opacity="0.45"/>
    <stop offset="100%" stop-color="#E63946" stop-opacity="0"/>
  </radialGradient>
  <radialGradient id="pulseAmber" cx="50%" cy="50%" r="50%">
    <stop offset="0%" stop-color="#FFC43D" stop-opacity="1"/>
    <stop offset="60%" stop-color="#FFA107" stop-opacity="0.45"/>
    <stop offset="100%" stop-color="#FFA107" stop-opacity="0"/>
  </radialGradient>
  <radialGradient id="pulseCyan" cx="50%" cy="50%" r="50%">
    <stop offset="0%" stop-color="#5FD3F3" stop-opacity="1"/>
    <stop offset="60%" stop-color="#2AA8CE" stop-opacity="0.45"/>
    <stop offset="100%" stop-color="#2AA8CE" stop-opacity="0"/>
  </radialGradient>
  <pattern id="dotGrid" x="0" y="0" width="30" height="30" patternUnits="userSpaceOnUse">
    <circle cx="15" cy="15" r="0.7" fill="#2E3A66" opacity="0.55"/>
  </pattern>
  <filter id="stationShadow" x="-20%" y="-20%" width="140%" height="140%">
    <feGaussianBlur in="SourceAlpha" stdDeviation="2.2"/>
    <feOffset dx="0" dy="2"/>
    <feComponentTransfer><feFuncA type="linear" slope="0.6"/></feComponentTransfer>
    <feMerge><feMergeNode/><feMergeNode in="SourceGraphic"/></feMerge>
  </filter>
  <filter id="textShadow" x="-5%" y="-5%" width="110%" height="120%">
    <feGaussianBlur in="SourceAlpha" stdDeviation="1"/>
    <feOffset dx="1" dy="1.5"/>
    <feComponentTransfer><feFuncA type="linear" slope="0.85"/></feComponentTransfer>
    <feMerge><feMergeNode/><feMergeNode in="SourceGraphic"/></feMerge>
  </filter>
  <filter id="glowRed" x="-10%" y="-50%" width="120%" height="200%">
    <feGaussianBlur stdDeviation="3"/>
  </filter>
  <filter id="glowAmber" x="-10%" y="-50%" width="120%" height="200%">
    <feGaussianBlur stdDeviation="3"/>
  </filter>
  <filter id="glowCyan" x="-10%" y="-50%" width="120%" height="200%">
    <feGaussianBlur stdDeviation="3"/>
  </filter>
<filter id="softShadow" x="-10%" y="-10%" width="130%" height="130%"><feGaussianBlur in="SourceAlpha" stdDeviation="2.5"/><feOffset dx="1" dy="3"/><feComponentTransfer><feFuncA type="linear" slope="0.55"/></feComponentTransfer><feMerge><feMergeNode/><feMergeNode in="SourceGraphic"/></feMerge></filter></defs>

<!-- Background -->
<rect width="1200" height="630" fill="url(#bgGrad)"/>
<rect width="1200" height="630" fill="url(#dotGrid)"/>

<!-- Subtle map guides -->
<g opacity="0.12" stroke="#4A6AA0" stroke-width="0.6" fill="none">
  <line x1="0" y1="150" x2="1200" y2="150">
    <animate attributeName="opacity" values="0.08;0.18;0.08" dur="6s" repeatCount="indefinite"/>
  </line>
  <line x1="0" y1="310" x2="1200" y2="310">
    <animate attributeName="opacity" values="0.08;0.18;0.08" dur="6s" repeatCount="indefinite" begin="1s"/>
  </line>
  <line x1="0" y1="470" x2="1200" y2="470">
    <animate attributeName="opacity" values="0.08;0.18;0.08" dur="6s" repeatCount="indefinite" begin="2s"/>
  </line>
  <line x1="200" y1="0" x2="200" y2="630"/>
  <line x1="450" y1="0" x2="450" y2="630"/>
  <line x1="700" y1="0" x2="700" y2="630"/>
  <line x1="950" y1="0" x2="950" y2="630"/>
</g>

<!-- Header -->
<g filter="url(#textShadow)">
  <text x="60" y="56" font-family="Helvetica, Arial, sans-serif" font-size="28" font-weight="800" fill="#E9EEF8" letter-spacing="1.2">
    WEEKLY SECURITY
    <animate attributeName="fill" values="#E9EEF8;#8FB8FF;#E9EEF8" dur="6s" repeatCount="indefinite"/>
  </text>
  <text x="60" y="84" font-family="Helvetica, Arial, sans-serif" font-size="16" font-weight="500" fill="#7A90C0" letter-spacing="2">METRO THREAT MAP -- 2026.03.04</text>
</g>

<!-- Legend top-right -->
<g transform="translate(960,50)" filter="url(#textShadow)">
  <rect x="-6" y="-28" width="222" height="56" rx="10" fill="#14213E" stroke="#3A4E82" stroke-width="1.2">
    <animate attributeName="stroke-opacity" values="0.6;1;0.6" dur="4s" repeatCount="indefinite"/>
  </rect>
  <circle cx="8" cy="0" r="5" fill="#E63946">
    <animate attributeName="r" values="5;6.5;5" dur="2s" repeatCount="indefinite"/>
  </circle>
  <text x="20" y="5" font-family="Helvetica, Arial, sans-serif" font-size="13" font-weight="700" fill="#E9EEF8">JWT HIGH</text>
  <circle cx="96" cy="0" r="5" fill="#FFA107">
    <animate attributeName="r" values="5;6.5;5" dur="2.4s" repeatCount="indefinite"/>
  </circle>
  <text x="108" y="5" font-family="Helvetica, Arial, sans-serif" font-size="13" font-weight="700" fill="#E9EEF8">BTC HIGH</text>
  <circle cx="184" cy="0" r="5" fill="#2AA8CE">
    <animate attributeName="r" values="5;6.5;5" dur="2.8s" repeatCount="indefinite"/>
  </circle>
  <text x="196" y="5" font-family="Helvetica, Arial, sans-serif" font-size="13" font-weight="700" fill="#E9EEF8">AI MED</text>
</g>

<!-- ==================== LINE 1: JWT Auth Breach (RED) y=170 ==================== -->
<g>
  <line x1="120" y1="170" x2="1080" y2="170" stroke="#E63946" stroke-width="18" stroke-linecap="round" opacity="0.25" filter="url(#glowRed)">
    <animate attributeName="opacity" values="0.2;0.4;0.2" dur="3s" repeatCount="indefinite"/>
  </line>
  <line x1="120" y1="170" x2="1080" y2="170" stroke="#E63946" stroke-width="9" stroke-linecap="round"/>

  <!-- L1 Badge -->
  <g transform="translate(60,170)" filter="url(#textShadow)">
    <rect x="-8" y="-16" width="60" height="32" rx="6" fill="#E63946">
      <animate attributeName="fill" values="#E63946;#FF6B7A;#E63946" dur="4s" repeatCount="indefinite"/>
    </rect>
    <text x="22" y="6" font-family="Helvetica, Arial, sans-serif" font-size="18" font-weight="900" fill="#FFFFFF" text-anchor="middle">L1</text>
  </g>

  <!-- Animated traveler L1 -->
  <circle r="10" fill="#FFE1E4" stroke="#FFFFFF" stroke-width="2">
    <animate attributeName="cx" values="120;1080;120" dur="9s" repeatCount="indefinite"/>
    <animate attributeName="cy" values="170;170;170" dur="9s" repeatCount="indefinite"/>
    <animate attributeName="opacity" values="0;1;1;1;0" dur="9s" repeatCount="indefinite"/>
  </circle>

  <!-- Station A: Key Leak -->
  <g transform="translate(200,170)">
    <circle r="18" fill="url(#pulseRed)">
      <animate attributeName="r" values="18;28;18" dur="2.8s" repeatCount="indefinite"/>
      <animate attributeName="opacity" values="0.6;1;0.6" dur="2.8s" repeatCount="indefinite"/>
    </circle>
    <circle r="12" fill="#0A1020" stroke="#E63946" stroke-width="4" filter="url(#stationShadow)"/>
    <circle r="4" fill="#FF4D5E">
      <animate attributeName="opacity" values="1;0.3;1" dur="1.4s" repeatCount="indefinite"/>
    </circle>
  </g>
  <g filter="url(#textShadow)">
    <text x="200" y="138" font-family="Helvetica, Arial, sans-serif" font-size="17" font-weight="800" fill="#FFFFFF" text-anchor="middle">Key Leak</text>
    <text x="200" y="212" font-family="Helvetica, Arial, sans-serif" font-size="13" font-weight="600" fill="#FFB8BE" text-anchor="middle">.env / Git</text>
  </g>

  <!-- Station B: Token Forge -->
  <g transform="translate(420,170)">
    <circle r="16" fill="#0A1020" stroke="#E63946" stroke-width="4" filter="url(#stationShadow)"/>
    <circle r="6" fill="#E63946">
      <animate attributeName="opacity" values="0.5;1;0.5" dur="2s" repeatCount="indefinite"/>
      <animate attributeName="r" values="6;8;6" dur="2s" repeatCount="indefinite"/>
    </circle>
  </g>
  <g filter="url(#textShadow)">
    <text x="420" y="138" font-family="Helvetica, Arial, sans-serif" font-size="17" font-weight="800" fill="#FFE1E4" text-anchor="middle">Token Forge</text>
    <text x="420" y="212" font-family="Helvetica, Arial, sans-serif" font-size="13" font-weight="600" fill="#FFB8BE" text-anchor="middle">T1134 Claim</text>
  </g>

  <!-- Station C: Auth Bypass -->
  <g transform="translate(640,170)">
    <rect x="-18" y="-14" width="36" height="28" fill="#0A1020" stroke="#E63946" stroke-width="4" filter="url(#stationShadow)">
      <animate attributeName="stroke-width" values="4;5;4" dur="2.5s" repeatCount="indefinite"/>
    </rect>
    <text y="5" text-anchor="middle" font-family="Helvetica, Arial, sans-serif" font-size="11" font-weight="900" fill="#FF4D5E">JWT</text>
  </g>
  <g filter="url(#textShadow)">
    <text x="640" y="138" font-family="Helvetica, Arial, sans-serif" font-size="17" font-weight="800" fill="#FFFFFF" text-anchor="middle">Auth Bypass</text>
    <text x="640" y="212" font-family="Helvetica, Arial, sans-serif" font-size="13" font-weight="600" fill="#FFB8BE" text-anchor="middle">T1078</text>
  </g>

  <!-- Station D: Priv Escalation -->
  <g transform="translate(860,170)">
    <polygon points="-14,-14 14,-14 0,14" fill="#0A1020" stroke="#E63946" stroke-width="4" filter="url(#stationShadow)">
      <animateTransform attributeName="transform" type="rotate" values="0;360" dur="14s" repeatCount="indefinite"/>
    </polygon>
  </g>
  <g filter="url(#textShadow)">
    <text x="860" y="138" font-family="Helvetica, Arial, sans-serif" font-size="17" font-weight="800" fill="#FFFFFF" text-anchor="middle">Priv Escalate</text>
    <text x="860" y="212" font-family="Helvetica, Arial, sans-serif" font-size="13" font-weight="600" fill="#FFB8BE" text-anchor="middle">user-&gt;admin</text>
  </g>

  <!-- Terminus: Lateral Move -->
  <g transform="translate(1050,170)">
    <circle r="22" fill="none" stroke="#E63946" stroke-width="3" stroke-dasharray="4 3">
      <animateTransform attributeName="transform" type="rotate" values="0;360" dur="8s" repeatCount="indefinite"/>
    </circle>
    <circle r="14" fill="#E63946" filter="url(#stationShadow)">
      <animate attributeName="fill" values="#E63946;#FF4D5E;#E63946" dur="2s" repeatCount="indefinite"/>
    </circle>
    <text y="5" text-anchor="middle" font-family="Helvetica, Arial, sans-serif" font-size="10" font-weight="900" fill="#FFFFFF">MOVE</text>
  </g>
  <g filter="url(#textShadow)">
    <text x="1050" y="138" font-family="Helvetica, Arial, sans-serif" font-size="14" font-weight="800" fill="#FFE1E4" text-anchor="middle">Lateral Move</text>
  </g>
</g>

<!-- ==================== LINE 2: Bitcoin Iran $10.3M Heist (AMBER) y=330 ==================== -->
<g>
  <line x1="120" y1="330" x2="1080" y2="330" stroke="#FFA107" stroke-width="18" stroke-linecap="round" opacity="0.25" filter="url(#glowAmber)">
    <animate attributeName="opacity" values="0.2;0.4;0.2" dur="3s" repeatCount="indefinite" begin="0.7s"/>
  </line>
  <line x1="120" y1="330" x2="1080" y2="330" stroke="#FFA107" stroke-width="9" stroke-linecap="round"/>

  <!-- L2 Badge -->
  <g transform="translate(60,330)" filter="url(#textShadow)">
    <rect x="-8" y="-16" width="60" height="32" rx="6" fill="#FFA107">
      <animate attributeName="fill" values="#FFA107;#FFC43D;#FFA107" dur="4s" repeatCount="indefinite"/>
    </rect>
    <text x="22" y="6" font-family="Helvetica, Arial, sans-serif" font-size="18" font-weight="900" fill="#1A1202" text-anchor="middle">L2</text>
  </g>

  <!-- Animated traveler L2 -->
  <circle r="10" fill="#FFF0C9" stroke="#FFFFFF" stroke-width="2">
    <animate attributeName="cx" values="120;1080;120" dur="10s" repeatCount="indefinite"/>
    <animate attributeName="cy" values="330;330;330" dur="10s" repeatCount="indefinite"/>
    <animate attributeName="opacity" values="0;1;1;1;0" dur="10s" repeatCount="indefinite"/>
  </circle>

  <!-- Station A: Strike Trigger -->
  <g transform="translate(200,330)">
    <circle r="18" fill="url(#pulseAmber)">
      <animate attributeName="r" values="18;26;18" dur="3.2s" repeatCount="indefinite"/>
      <animate attributeName="opacity" values="0.6;1;0.6" dur="3.2s" repeatCount="indefinite"/>
    </circle>
    <circle r="12" fill="#0A1020" stroke="#FFA107" stroke-width="4" filter="url(#stationShadow)"/>
    <text y="5" text-anchor="middle" font-family="Helvetica, Arial, sans-serif" font-size="9" font-weight="900" fill="#FFC43D">STRIKE</text>
  </g>
  <g filter="url(#textShadow)">
    <text x="200" y="298" font-family="Helvetica, Arial, sans-serif" font-size="16" font-weight="800" fill="#FFFFFF" text-anchor="middle">US-Israel Strike</text>
    <text x="200" y="372" font-family="Helvetica, Arial, sans-serif" font-size="13" font-weight="600" fill="#FFD27A" text-anchor="middle">Geopolitical Trigger</text>
  </g>

  <!-- Station B: Exchange Breach -->
  <g transform="translate(420,330)">
    <circle r="16" fill="#0A1020" stroke="#FFA107" stroke-width="4" filter="url(#stationShadow)"/>
    <circle r="6" fill="#FFA107">
      <animate attributeName="opacity" values="0.5;1;0.5" dur="2.2s" repeatCount="indefinite"/>
      <animate attributeName="r" values="6;8;6" dur="2.2s" repeatCount="indefinite"/>
    </circle>
  </g>
  <g filter="url(#textShadow)">
    <text x="420" y="298" font-family="Helvetica, Arial, sans-serif" font-size="16" font-weight="800" fill="#FFFFFF" text-anchor="middle">Iran Exchange</text>
    <text x="420" y="372" font-family="Helvetica, Arial, sans-serif" font-size="13" font-weight="600" fill="#FFD27A" text-anchor="middle">Breach</text>
  </g>

  <!-- Station C: BTC Drain -->
  <g transform="translate(640,330)">
    <rect x="-14" y="-14" width="28" height="28" rx="3" fill="#0A1020" stroke="#FFA107" stroke-width="4" filter="url(#stationShadow)">
      <animate attributeName="stroke-width" values="4;5;4" dur="2.5s" repeatCount="indefinite" begin="0.4s"/>
    </rect>
    <text y="4" text-anchor="middle" font-family="Helvetica, Arial, sans-serif" font-size="11" font-weight="900" fill="#FFC43D">BTC</text>
  </g>
  <g filter="url(#textShadow)">
    <text x="640" y="298" font-family="Helvetica, Arial, sans-serif" font-size="16" font-weight="800" fill="#FFFFFF" text-anchor="middle">Wallet Drain</text>
    <text x="640" y="372" font-family="Helvetica, Arial, sans-serif" font-size="13" font-weight="600" fill="#FFD27A" text-anchor="middle">On-chain move</text>
  </g>

  <!-- Station D: Chainalysis Trace -->
  <g transform="translate(860,330)">
    <polygon points="0,-16 14,8 -14,8" fill="#0A1020" stroke="#FFA107" stroke-width="4" filter="url(#stationShadow)">
      <animateTransform attributeName="transform" type="rotate" values="0;360" dur="16s" repeatCount="indefinite"/>
    </polygon>
  </g>
  <g filter="url(#textShadow)">
    <text x="860" y="298" font-family="Helvetica, Arial, sans-serif" font-size="16" font-weight="800" fill="#FFFFFF" text-anchor="middle">Chainalysis</text>
    <text x="860" y="372" font-family="Helvetica, Arial, sans-serif" font-size="13" font-weight="600" fill="#FFD27A" text-anchor="middle">On-chain Trace</text>
  </g>

  <!-- Terminus: $10.3M -->
  <g transform="translate(1050,330)">
    <circle r="22" fill="none" stroke="#FFA107" stroke-width="3" stroke-dasharray="4 3">
      <animateTransform attributeName="transform" type="rotate" values="0;-360" dur="9s" repeatCount="indefinite"/>
    </circle>
    <circle r="14" fill="#FFA107" filter="url(#stationShadow)">
      <animate attributeName="fill" values="#FFA107;#FFC43D;#FFA107" dur="2.4s" repeatCount="indefinite"/>
    </circle>
    <text y="4" text-anchor="middle" font-family="Helvetica, Arial, sans-serif" font-size="8" font-weight="900" fill="#1A1202">$10.3M</text>
  </g>
  <g filter="url(#textShadow)">
    <text x="1050" y="298" font-family="Helvetica, Arial, sans-serif" font-size="14" font-weight="800" fill="#FFE7B5" text-anchor="middle">$10.3M BTC</text>
  </g>
</g>

<!-- ==================== LINE 3: AI Governance 7 Principles (CYAN) y=490 ==================== -->
<g>
  <line x1="120" y1="490" x2="1080" y2="490" stroke="#2AA8CE" stroke-width="18" stroke-linecap="round" opacity="0.25" filter="url(#glowCyan)">
    <animate attributeName="opacity" values="0.2;0.4;0.2" dur="3s" repeatCount="indefinite" begin="1.4s"/>
  </line>
  <line x1="120" y1="490" x2="1080" y2="490" stroke="#2AA8CE" stroke-width="9" stroke-linecap="round"/>

  <!-- L3 Badge -->
  <g transform="translate(60,490)" filter="url(#textShadow)">
    <rect x="-8" y="-16" width="60" height="32" rx="6" fill="#2AA8CE">
      <animate attributeName="fill" values="#2AA8CE;#5FD3F3;#2AA8CE" dur="4s" repeatCount="indefinite"/>
    </rect>
    <text x="22" y="6" font-family="Helvetica, Arial, sans-serif" font-size="18" font-weight="900" fill="#061622" text-anchor="middle">L3</text>
  </g>

  <!-- Animated traveler L3 -->
  <circle r="10" fill="#CFF0FA" stroke="#FFFFFF" stroke-width="2">
    <animate attributeName="cx" values="120;1080;120" dur="11s" repeatCount="indefinite"/>
    <animate attributeName="cy" values="490;490;490" dur="11s" repeatCount="indefinite"/>
    <animate attributeName="opacity" values="0;1;1;1;0" dur="11s" repeatCount="indefinite"/>
  </circle>

  <!-- Station A: Risk Control -->
  <g transform="translate(200,490)">
    <circle r="18" fill="url(#pulseCyan)">
      <animate attributeName="r" values="18;26;18" dur="3.5s" repeatCount="indefinite"/>
      <animate attributeName="opacity" values="0.6;1;0.6" dur="3.5s" repeatCount="indefinite"/>
    </circle>
    <circle r="12" fill="#0A1020" stroke="#2AA8CE" stroke-width="4" filter="url(#stationShadow)"/>
    <text y="5" text-anchor="middle" font-family="Helvetica, Arial, sans-serif" font-size="9" font-weight="900" fill="#5FD3F3">RISK</text>
  </g>
  <g filter="url(#textShadow)">
    <text x="200" y="458" font-family="Helvetica, Arial, sans-serif" font-size="16" font-weight="800" fill="#FFFFFF" text-anchor="middle">Risk Control</text>
    <text x="200" y="532" font-family="Helvetica, Arial, sans-serif" font-size="13" font-weight="600" fill="#9FE3F7" text-anchor="middle">Principle 1</text>
  </g>

  <!-- Station B: Transparency -->
  <g transform="translate(420,490)">
    <circle r="16" fill="#0A1020" stroke="#2AA8CE" stroke-width="4" filter="url(#stationShadow)"/>
    <circle r="6" fill="#2AA8CE">
      <animate attributeName="opacity" values="0.5;1;0.5" dur="2.4s" repeatCount="indefinite"/>
      <animate attributeName="r" values="6;8;6" dur="2.4s" repeatCount="indefinite"/>
    </circle>
  </g>
  <g filter="url(#textShadow)">
    <text x="420" y="458" font-family="Helvetica, Arial, sans-serif" font-size="16" font-weight="800" fill="#FFFFFF" text-anchor="middle">Transparency</text>
    <text x="420" y="532" font-family="Helvetica, Arial, sans-serif" font-size="13" font-weight="600" fill="#9FE3F7" text-anchor="middle">Principle 3</text>
  </g>

  <!-- Station C: Accountability -->
  <g transform="translate(640,490)">
    <rect x="-16" y="-12" width="32" height="24" rx="3" fill="#0A1020" stroke="#2AA8CE" stroke-width="4" filter="url(#stationShadow)">
      <animate attributeName="stroke-width" values="4;5;4" dur="2.5s" repeatCount="indefinite" begin="0.6s"/>
    </rect>
    <text y="4" text-anchor="middle" font-family="Helvetica, Arial, sans-serif" font-size="9" font-weight="900" fill="#5FD3F3">GOV</text>
  </g>
  <g filter="url(#textShadow)">
    <text x="640" y="458" font-family="Helvetica, Arial, sans-serif" font-size="16" font-weight="800" fill="#FFFFFF" text-anchor="middle">Accountability</text>
    <text x="640" y="532" font-family="Helvetica, Arial, sans-serif" font-size="13" font-weight="600" fill="#9FE3F7" text-anchor="middle">Principle 5</text>
  </g>

  <!-- Station D: Human Oversight -->
  <g transform="translate(860,490)">
    <polygon points="-14,-12 14,-12 14,12 -14,12" fill="#0A1020" stroke="#2AA8CE" stroke-width="4" filter="url(#stationShadow)">
      <animate attributeName="stroke-opacity" values="0.6;1;0.6" dur="3s" repeatCount="indefinite"/>
    </polygon>
    <text y="4" text-anchor="middle" font-family="Helvetica, Arial, sans-serif" font-size="8" font-weight="900" fill="#5FD3F3">HUMAN</text>
  </g>
  <g filter="url(#textShadow)">
    <text x="860" y="458" font-family="Helvetica, Arial, sans-serif" font-size="16" font-weight="800" fill="#FFFFFF" text-anchor="middle">Human Oversight</text>
    <text x="860" y="532" font-family="Helvetica, Arial, sans-serif" font-size="13" font-weight="600" fill="#9FE3F7" text-anchor="middle">Principle 6</text>
  </g>

  <!-- Terminus: 7 Principles -->
  <g transform="translate(1050,490)">
    <circle r="22" fill="none" stroke="#2AA8CE" stroke-width="3" stroke-dasharray="4 3">
      <animateTransform attributeName="transform" type="rotate" values="0;360" dur="10s" repeatCount="indefinite"/>
    </circle>
    <circle r="14" fill="#2AA8CE" filter="url(#stationShadow)">
      <animate attributeName="fill" values="#2AA8CE;#5FD3F3;#2AA8CE" dur="2.8s" repeatCount="indefinite"/>
    </circle>
    <text y="5" text-anchor="middle" font-family="Helvetica, Arial, sans-serif" font-size="11" font-weight="900" fill="#061622">7P</text>
  </g>
  <g filter="url(#textShadow)">
    <text x="1050" y="458" font-family="Helvetica, Arial, sans-serif" font-size="13" font-weight="800" fill="#CFF0FA" text-anchor="middle">AI Gov 7 Prin.</text>
  </g>
</g>

<!-- Footer -->
<g filter="url(#textShadow)">
  <text x="60" y="592" font-family="Helvetica, Arial, sans-serif" font-size="12" font-weight="600" fill="#4A6090" letter-spacing="1">L1: JWT Auth Breach  |  L2: Bitcoin $10.3M Heist  |  L3: Financial AI Governance  |  tech.2twodragon.com</text>
</g>

<!-- cover-qr: https://tech.2twodragon.com/posts/2026/03/04/Tech_Security_Weekly_Digest_AI_Ransomware_Bitcoin/ : 41x41 -->
<g transform="translate(1080,504)" filter="url(#softShadow)">
  <rect x="-8" y="-8" width="100" height="100" rx="6" fill="#FFFFFF"/>
  <g transform="scale(2.048780)" fill="#0A1020">
    <path d="M0 0h7v1h-7zM8 0h1v1h-1zM11 0h2v1h-2zM15 0h1v1h-1zM18 0h1v1h-1zM21 0h1v1h-1zM23 0h1v1h-1zM26 0h1v1h-1zM30 0h1v1h-1zM34 0h7v1h-7zM0 1h1v1h-1zM6 1h1v1h-1zM8 1h1v1h-1zM10 1h2v1h-2zM13 1h3v1h-3zM17 1h1v1h-1zM19 1h2v1h-2zM24 1h1v1h-1zM30 1h2v1h-2zM34 1h1v1h-1zM40 1h1v1h-1zM0 2h1v1h-1zM2 2h3v1h-3zM6 2h1v1h-1zM8 2h4v1h-4zM13 2h6v1h-6zM21 2h1v1h-1zM25 2h1v1h-1zM27 2h1v1h-1zM31 2h2v1h-2zM34 2h1v1h-1zM36 2h3v1h-3zM40 2h1v1h-1zM0 3h1v1h-1zM2 3h3v1h-3zM6 3h1v1h-1zM11 3h2v1h-2zM16 3h1v1h-1zM22 3h1v1h-1zM25 3h2v1h-2zM29 3h1v1h-1zM34 3h1v1h-1zM36 3h3v1h-3zM40 3h1v1h-1zM0 4h1v1h-1zM2 4h3v1h-3zM6 4h1v1h-1zM8 4h1v1h-1zM11 4h3v1h-3zM16 4h1v1h-1zM18 4h1v1h-1zM21 4h3v1h-3zM26 4h1v1h-1zM29 4h1v1h-1zM31 4h2v1h-2zM34 4h1v1h-1zM36 4h3v1h-3zM40 4h1v1h-1zM0 5h1v1h-1zM6 5h1v1h-1zM13 5h1v1h-1zM15 5h2v1h-2zM20 5h4v1h-4zM25 5h1v1h-1zM28 5h2v1h-2zM34 5h1v1h-1zM40 5h1v1h-1zM0 6h7v1h-7zM8 6h1v1h-1zM10 6h1v1h-1zM12 6h1v1h-1zM14 6h1v1h-1zM16 6h1v1h-1zM18 6h1v1h-1zM20 6h1v1h-1zM22 6h1v1h-1zM24 6h1v1h-1zM26 6h1v1h-1zM28 6h1v1h-1zM30 6h1v1h-1zM32 6h1v1h-1zM34 6h7v1h-7zM9 7h1v1h-1zM11 7h1v1h-1zM13 7h1v1h-1zM16 7h1v1h-1zM18 7h1v1h-1zM23 7h1v1h-1zM25 7h2v1h-2zM30 7h1v1h-1zM32 7h1v1h-1zM0 8h1v1h-1zM3 8h9v1h-9zM14 8h2v1h-2zM17 8h1v1h-1zM23 8h1v1h-1zM26 8h2v1h-2zM29 8h1v1h-1zM31 8h3v1h-3zM36 8h1v1h-1zM38 8h3v1h-3zM0 9h1v1h-1zM2 9h1v1h-1zM4 9h1v1h-1zM7 9h2v1h-2zM11 9h5v1h-5zM18 9h3v1h-3zM22 9h2v1h-2zM27 9h2v1h-2zM30 9h2v1h-2zM33 9h4v1h-4zM1 10h2v1h-2zM4 10h1v1h-1zM6 10h3v1h-3zM11 10h3v1h-3zM18 10h1v1h-1zM20 10h8v1h-8zM29 10h2v1h-2zM33 10h1v1h-1zM36 10h1v1h-1zM38 10h1v1h-1zM0 11h2v1h-2zM5 11h1v1h-1zM8 11h1v1h-1zM17 11h1v1h-1zM19 11h2v1h-2zM22 11h2v1h-2zM26 11h2v1h-2zM29 11h4v1h-4zM35 11h1v1h-1zM37 11h1v1h-1zM39 11h1v1h-1zM0 12h2v1h-2zM3 12h2v1h-2zM6 12h1v1h-1zM8 12h2v1h-2zM11 12h1v1h-1zM13 12h2v1h-2zM16 12h1v1h-1zM23 12h2v1h-2zM26 12h1v1h-1zM28 12h1v1h-1zM30 12h1v1h-1zM32 12h1v1h-1zM34 12h1v1h-1zM0 13h1v1h-1zM2 13h2v1h-2zM8 13h7v1h-7zM16 13h1v1h-1zM18 13h4v1h-4zM26 13h4v1h-4zM34 13h3v1h-3zM39 13h2v1h-2zM0 14h2v1h-2zM4 14h3v1h-3zM8 14h2v1h-2zM11 14h1v1h-1zM13 14h3v1h-3zM18 14h3v1h-3zM23 14h3v1h-3zM27 14h1v1h-1zM29 14h3v1h-3zM33 14h3v1h-3zM38 14h1v1h-1zM40 14h1v1h-1zM0 15h3v1h-3zM4 15h1v1h-1zM9 15h1v1h-1zM11 15h2v1h-2zM15 15h2v1h-2zM20 15h1v1h-1zM23 15h1v1h-1zM28 15h1v1h-1zM31 15h3v1h-3zM36 15h5v1h-5zM0 16h3v1h-3zM4 16h1v1h-1zM6 16h1v1h-1zM8 16h1v1h-1zM10 16h2v1h-2zM13 16h1v1h-1zM21 16h2v1h-2zM25 16h1v1h-1zM32 16h2v1h-2zM37 16h1v1h-1zM3 17h3v1h-3zM10 17h1v1h-1zM12 17h2v1h-2zM17 17h2v1h-2zM20 17h3v1h-3zM25 17h1v1h-1zM29 17h5v1h-5zM36 17h1v1h-1zM1 18h1v1h-1zM4 18h3v1h-3zM9 18h1v1h-1zM13 18h2v1h-2zM17 18h3v1h-3zM23 18h1v1h-1zM27 18h1v1h-1zM29 18h1v1h-1zM31 18h1v1h-1zM34 18h4v1h-4zM39 18h2v1h-2zM4 19h2v1h-2zM9 19h2v1h-2zM13 19h1v1h-1zM15 19h1v1h-1zM21 19h1v1h-1zM23 19h3v1h-3zM27 19h2v1h-2zM30 19h2v1h-2zM36 19h1v1h-1zM38 19h2v1h-2zM0 20h4v1h-4zM6 20h2v1h-2zM11 20h2v1h-2zM14 20h1v1h-1zM16 20h1v1h-1zM18 20h1v1h-1zM20 20h2v1h-2zM24 20h2v1h-2zM29 20h1v1h-1zM31 20h2v1h-2zM34 20h2v1h-2zM37 20h2v1h-2zM0 21h1v1h-1zM2 21h4v1h-4zM8 21h1v1h-1zM10 21h3v1h-3zM22 21h3v1h-3zM26 21h3v1h-3zM30 21h4v1h-4zM35 21h3v1h-3zM0 22h1v1h-1zM4 22h1v1h-1zM6 22h3v1h-3zM12 22h5v1h-5zM18 22h1v1h-1zM20 22h2v1h-2zM23 22h2v1h-2zM27 22h3v1h-3zM34 22h1v1h-1zM36 22h3v1h-3zM8 23h5v1h-5zM17 23h1v1h-1zM23 23h1v1h-1zM27 23h1v1h-1zM29 23h1v1h-1zM31 23h3v1h-3zM35 23h3v1h-3zM39 23h1v1h-1zM0 24h1v1h-1zM2 24h2v1h-2zM6 24h1v1h-1zM8 24h1v1h-1zM10 24h2v1h-2zM14 24h2v1h-2zM20 24h1v1h-1zM23 24h2v1h-2zM28 24h1v1h-1zM32 24h1v1h-1zM34 24h1v1h-1zM0 25h1v1h-1zM3 25h1v1h-1zM7 25h2v1h-2zM11 25h5v1h-5zM18 25h1v1h-1zM23 25h1v1h-1zM27 25h1v1h-1zM30 25h1v1h-1zM32 25h2v1h-2zM35 25h2v1h-2zM38 25h1v1h-1zM40 25h1v1h-1zM1 26h3v1h-3zM5 26h2v1h-2zM8 26h1v1h-1zM12 26h1v1h-1zM16 26h1v1h-1zM19 26h3v1h-3zM26 26h7v1h-7zM34 26h1v1h-1zM36 26h2v1h-2zM40 26h1v1h-1zM2 27h4v1h-4zM7 27h1v1h-1zM9 27h2v1h-2zM14 27h1v1h-1zM19 27h1v1h-1zM23 27h1v1h-1zM28 27h1v1h-1zM30 27h2v1h-2zM33 27h7v1h-7zM0 28h1v1h-1zM4 28h1v1h-1zM6 28h1v1h-1zM11 28h1v1h-1zM13 28h3v1h-3zM19 28h2v1h-2zM22 28h1v1h-1zM25 28h2v1h-2zM30 28h3v1h-3zM37 28h1v1h-1zM39 28h1v1h-1zM0 29h1v1h-1zM4 29h1v1h-1zM14 29h1v1h-1zM18 29h1v1h-1zM20 29h1v1h-1zM22 29h3v1h-3zM26 29h2v1h-2zM32 29h3v1h-3zM36 29h1v1h-1zM39 29h1v1h-1zM0 30h4v1h-4zM5 30h2v1h-2zM8 30h1v1h-1zM10 30h2v1h-2zM15 30h2v1h-2zM20 30h4v1h-4zM27 30h1v1h-1zM29 30h1v1h-1zM31 30h1v1h-1zM33 30h1v1h-1zM37 30h2v1h-2zM40 30h1v1h-1zM0 31h5v1h-5zM8 31h1v1h-1zM10 31h1v1h-1zM13 31h1v1h-1zM15 31h2v1h-2zM18 31h1v1h-1zM22 31h1v1h-1zM24 31h2v1h-2zM27 31h2v1h-2zM30 31h1v1h-1zM34 31h2v1h-2zM38 31h3v1h-3zM0 32h2v1h-2zM3 32h2v1h-2zM6 32h1v1h-1zM8 32h3v1h-3zM13 32h2v1h-2zM17 32h1v1h-1zM20 32h2v1h-2zM26 32h1v1h-1zM29 32h1v1h-1zM32 32h9v1h-9zM8 33h1v1h-1zM10 33h3v1h-3zM14 33h2v1h-2zM17 33h1v1h-1zM22 33h2v1h-2zM25 33h2v1h-2zM32 33h1v1h-1zM36 33h1v1h-1zM0 34h7v1h-7zM8 34h3v1h-3zM12 34h3v1h-3zM21 34h1v1h-1zM23 34h1v1h-1zM25 34h1v1h-1zM27 34h2v1h-2zM30 34h3v1h-3zM34 34h1v1h-1zM36 34h3v1h-3zM0 35h1v1h-1zM6 35h1v1h-1zM8 35h1v1h-1zM14 35h2v1h-2zM18 35h1v1h-1zM23 35h1v1h-1zM25 35h1v1h-1zM28 35h2v1h-2zM31 35h2v1h-2zM36 35h2v1h-2zM39 35h1v1h-1zM0 36h1v1h-1zM2 36h3v1h-3zM6 36h1v1h-1zM8 36h1v1h-1zM10 36h2v1h-2zM14 36h1v1h-1zM16 36h2v1h-2zM20 36h4v1h-4zM25 36h1v1h-1zM28 36h1v1h-1zM31 36h6v1h-6zM0 37h1v1h-1zM2 37h3v1h-3zM6 37h1v1h-1zM8 37h3v1h-3zM12 37h3v1h-3zM18 37h1v1h-1zM22 37h6v1h-6zM30 37h1v1h-1zM35 37h1v1h-1zM38 37h2v1h-2zM0 38h1v1h-1zM2 38h3v1h-3zM6 38h1v1h-1zM9 38h2v1h-2zM14 38h3v1h-3zM19 38h2v1h-2zM24 38h1v1h-1zM26 38h5v1h-5zM33 38h1v1h-1zM35 38h2v1h-2zM38 38h1v1h-1zM40 38h1v1h-1zM0 39h1v1h-1zM6 39h1v1h-1zM10 39h1v1h-1zM12 39h2v1h-2zM15 39h2v1h-2zM19 39h2v1h-2zM24 39h1v1h-1zM27 39h1v1h-1zM34 39h1v1h-1zM36 39h3v1h-3zM40 39h1v1h-1zM0 40h7v1h-7zM8 40h1v1h-1zM10 40h1v1h-1zM14 40h1v1h-1zM16 40h1v1h-1zM20 40h1v1h-1zM22 40h4v1h-4zM27 40h1v1h-1zM32 40h1v1h-1zM34 40h1v1h-1zM36 40h1v1h-1z"/>
  </g>
</g>
<text x="1122" y="614" font-family="Inter, Helvetica, Arial, sans-serif" font-size="10" font-weight="700" fill="#F5F7FA" text-anchor="middle">scan / full post</text>
</svg>
