<svg xmlns="http://www.w3.org/2000/svg" viewBox="0 0 1200 630" width="1200" height="630" role="img" aria-label="Fortinet Critical SQLi patch, Reynolds ransomware BYOVD EDR bypass, DPRK LinkedIn infiltration">
<!-- profile: high-quality-cover (L20 Hero+2-Card, research-based, batch1-locked) -->
<title>Fortinet Critical SQLi Patch, Ransomware BYOVD, DPRK LinkedIn Infiltration - 2026.02.11</title>
<defs>
  <linearGradient id="bgGrad" x1="0%" y1="0%" x2="100%" y2="100%">
    <stop offset="0%" stop-color="#090E1F"/>
    <stop offset="55%" stop-color="#0B1228"/>
    <stop offset="100%" stop-color="#0F1530"/>
  </linearGradient>
  <linearGradient id="heroPanelGrad" x1="0%" y1="0%" x2="0%" y2="100%">
    <stop offset="0%" stop-color="#1A0E1E"/>
    <stop offset="100%" stop-color="#120A1C"/>
  </linearGradient>
  <linearGradient id="topRightGrad" x1="0%" y1="0%" x2="0%" y2="100%">
    <stop offset="0%" stop-color="#14120A"/>
    <stop offset="100%" stop-color="#100E08"/>
  </linearGradient>
  <linearGradient id="botRightGrad" x1="0%" y1="0%" x2="0%" y2="100%">
    <stop offset="0%" stop-color="#0A1325"/>
    <stop offset="100%" stop-color="#0C1630"/>
  </linearGradient>
  <linearGradient id="kpiRed" x1="0%" y1="0%" x2="100%" y2="0%">
    <stop offset="0%" stop-color="#B02020" stop-opacity="0.95"/>
    <stop offset="100%" stop-color="#7A1010" stop-opacity="0.9"/>
  </linearGradient>
  <linearGradient id="kpiAmber" x1="0%" y1="0%" x2="100%" y2="0%">
    <stop offset="0%" stop-color="#C47A08" stop-opacity="0.95"/>
    <stop offset="100%" stop-color="#8A5206" stop-opacity="0.9"/>
  </linearGradient>
  <linearGradient id="kpiBlue" x1="0%" y1="0%" x2="100%" y2="0%">
    <stop offset="0%" stop-color="#1A5CA8" stop-opacity="0.95"/>
    <stop offset="100%" stop-color="#103A72" stop-opacity="0.9"/>
  </linearGradient>
  <linearGradient id="dbBodyGrad" x1="0%" y1="0%" x2="0%" y2="100%">
    <stop offset="0%" stop-color="#2A1040"/>
    <stop offset="100%" stop-color="#1A0828"/>
  </linearGradient>
  <linearGradient id="dbTopGrad" x1="0%" y1="0%" x2="0%" y2="100%">
    <stop offset="0%" stop-color="#4A2268"/>
    <stop offset="100%" stop-color="#381850"/>
  </linearGradient>
  <linearGradient id="shieldBodyGrad" x1="0%" y1="0%" x2="0%" y2="100%">
    <stop offset="0%" stop-color="#4A0E18"/>
    <stop offset="100%" stop-color="#2E0810"/>
  </linearGradient>
  <radialGradient id="glowRed" cx="50%" cy="50%" r="50%">
    <stop offset="0%" stop-color="#E63946" stop-opacity="0.4"/>
    <stop offset="100%" stop-color="#E63946" stop-opacity="0"/>
  </radialGradient>
  <radialGradient id="glowAmber" cx="50%" cy="50%" r="50%">
    <stop offset="0%" stop-color="#F4A623" stop-opacity="0.38"/>
    <stop offset="100%" stop-color="#F4A623" stop-opacity="0"/>
  </radialGradient>
  <radialGradient id="glowBlue" cx="50%" cy="50%" r="50%">
    <stop offset="0%" stop-color="#3A86FF" stop-opacity="0.38"/>
    <stop offset="100%" stop-color="#3A86FF" stop-opacity="0"/>
  </radialGradient>
  <pattern id="dotGrid" x="0" y="0" width="36" height="36" patternUnits="userSpaceOnUse">
    <circle cx="18" cy="18" r="0.85" fill="#2A3560" opacity="0.55"/>
  </pattern>
  <filter id="softShadow" x="-15%" y="-15%" width="135%" height="135%">
    <feGaussianBlur in="SourceAlpha" stdDeviation="3"/>
    <feOffset dx="2" dy="4"/>
    <feComponentTransfer><feFuncA type="linear" slope="0.45"/></feComponentTransfer>
    <feMerge><feMergeNode/><feMergeNode in="SourceGraphic"/></feMerge>
  </filter>
  <clipPath id="heroClip"><rect x="32" y="80" width="600" height="510" rx="10"/></clipPath>
  <clipPath id="topRightClip"><rect x="652" y="80" width="516" height="248" rx="10"/></clipPath>
  <clipPath id="botRightClip"><rect x="652" y="344" width="516" height="246" rx="10"/></clipPath>
</defs>

<!-- GLOBAL BACKGROUND -->
<rect width="1200" height="630" fill="url(#bgGrad)"/>
<rect width="1200" height="630" fill="url(#dotGrid)" opacity="0.75"/>

<!-- HEADER BAR -->
<rect x="0" y="0" width="1200" height="72" fill="#080C1A" opacity="0.97"/>
<rect x="0" y="70" width="1200" height="2" fill="#1A2236"/>
<rect x="0" y="0" width="4" height="72" fill="#E63946"/>
<text x="32" y="41" font-family="Arial,Helvetica,sans-serif" font-size="13" font-weight="700" letter-spacing="4" fill="#4A6FA5">TECH SECURITY WEEKLY</text>
<text x="32" y="59" font-family="Arial,Helvetica,sans-serif" font-size="10" fill="#334060" letter-spacing="3">DIGEST</text>
<text x="1168" y="36" font-family="Arial,Helvetica,sans-serif" font-size="22" font-weight="700" fill="#FFFFFF" text-anchor="end" letter-spacing="1">2026.02.11</text>
<text x="1168" y="56" font-family="Arial,Helvetica,sans-serif" font-size="10" fill="#506070" text-anchor="end" letter-spacing="2">26 STORIES</text>

<!-- ===== HERO PANEL LEFT 600x510 at (32,80) ===== -->
<rect x="32" y="80" width="600" height="510" rx="10" fill="url(#heroPanelGrad)"/>
<!-- Hero 4px top stripe: CRITICAL red -->
<rect x="32" y="80" width="600" height="4" rx="2" fill="#E63946"/>
<!-- Ambient glow -->
<circle cx="332" cy="320" r="190" fill="url(#glowRed)" opacity="0.55">
  <animate attributeName="opacity" values="0.4;0.75;0.4" dur="6.5s" repeatCount="indefinite"/>
  <animate attributeName="r" values="190;215;190" dur="8.2s" repeatCount="indefinite"/>
</circle>

<!-- Hero eyebrow badge -->
<rect x="52" y="100" width="84" height="22" rx="4" fill="#E63946" opacity="0.92"/>
<text x="94" y="115" font-family="Arial,sans-serif" font-size="10" font-weight="700" fill="#FFFFFF" text-anchor="middle" letter-spacing="2">CRITICAL</text>

<!-- Hero title -->
<text x="52" y="150" font-family="Arial,Helvetica,sans-serif" font-size="25" font-weight="900" fill="#FFFFFF" filter="url(#softShadow)">Fortinet Critical SQLi</text>
<text x="52" y="180" font-family="Arial,Helvetica,sans-serif" font-size="25" font-weight="900" fill="#E63946">CVE-2026-21643</text>

<!-- Hero subtitle -->
<text x="52" y="208" font-family="Arial,sans-serif" font-size="12.5" fill="#90A8C0" letter-spacing="0.3">Unauthenticated access via SQL injection — emergency patch</text>

<!-- SHIELD ILLUSTRATION -->
<path d="M332 236 L424 268 L424 342 Q424 396 332 428 Q240 396 240 342 L240 268 Z" fill="url(#shieldBodyGrad)" stroke="#E63946" stroke-width="2.5" filter="url(#softShadow)">
  <animate attributeName="stroke-opacity" values="0.55;1.0;0.55" dur="3.2s" repeatCount="indefinite"/>
</path>
<path d="M332 252 L412 280 L412 342 Q412 388 332 416 Q252 388 252 342 L252 280 Z" fill="none" stroke="#FF6B6B" stroke-width="1.2" opacity="0.4"/>
<!-- Warning exclamation -->
<text x="332" y="366" font-family="Arial,sans-serif" font-size="60" fill="#E63946" text-anchor="middle" opacity="0.92">!</text>
<text x="332" y="316" font-family="Arial,sans-serif" font-size="11" fill="#FF8888" text-anchor="middle" font-weight="700" letter-spacing="1.5">UNPATCHED</text>
<!-- Pulse ring -->
<ellipse cx="332" cy="340" rx="90" ry="96" fill="none" stroke="#E63946" stroke-width="1.2" opacity="0.25">
  <animate attributeName="rx" values="90;110;90" dur="4.0s" repeatCount="indefinite"/>
  <animate attributeName="ry" values="96;116;96" dur="4.0s" repeatCount="indefinite"/>
  <animate attributeName="opacity" values="0.25;0.6;0.25" dur="4.0s" repeatCount="indefinite"/>
</ellipse>

<!-- DATABASE (SQLi target) -->
<ellipse cx="332" cy="456" rx="40" ry="11" fill="#4A2268"/>
<rect x="292" y="435" width="80" height="28" fill="url(#dbBodyGrad)"/>
<ellipse cx="332" cy="435" rx="40" ry="11" fill="url(#dbTopGrad)"/>
<text x="332" y="432" font-family="Arial,sans-serif" font-size="8" fill="#9060C8" text-anchor="middle" letter-spacing="0.8">DATABASE</text>
<!-- SQLi crack -->
<path d="M315 428 L332 448 L325 443 L340 462" stroke="#E63946" stroke-width="2" fill="none" stroke-dasharray="3,2">
  <animate attributeName="opacity" values="0.5;1;0.5" dur="2.2s" repeatCount="indefinite"/>
</path>
<text x="332" y="478" font-family="Arial,sans-serif" font-size="9.5" fill="#7030A0" text-anchor="middle" letter-spacing="0.8">SQL INJECTION</text>

<!-- Attack path arrows (hand-drawn dashes) -->
<path d="M218 286 Q262 286 258 340" stroke="#FF4444" stroke-width="1.5" fill="none" stroke-dasharray="5,3" opacity="0.65">
  <animate attributeName="stroke-dashoffset" values="0;-16" dur="1.3s" repeatCount="indefinite"/>
</path>
<path d="M446 286 Q402 286 406 340" stroke="#FF4444" stroke-width="1.5" fill="none" stroke-dasharray="5,3" opacity="0.65">
  <animate attributeName="stroke-dashoffset" values="0;-16" dur="1.3s" repeatCount="indefinite"/>
</path>
<!-- Attacker nodes -->
<circle cx="196" cy="272" r="17" fill="#3A0810" stroke="#E63946" stroke-width="1.5"/>
<text x="196" y="277" font-family="Arial,sans-serif" font-size="13" fill="#E63946" text-anchor="middle">H</text>
<text x="196" y="302" font-family="Arial,sans-serif" font-size="8.5" fill="#804040" text-anchor="middle">ATTACKER</text>
<circle cx="468" cy="272" r="17" fill="#3A0810" stroke="#E63946" stroke-width="1.5"/>
<text x="468" y="277" font-family="Arial,sans-serif" font-size="13" fill="#E63946" text-anchor="middle">H</text>
<text x="468" y="302" font-family="Arial,sans-serif" font-size="8.5" fill="#804040" text-anchor="middle">ATTACKER</text>

<!-- Hero KPI row -->
<rect x="52" y="498" width="168" height="62" rx="6" fill="url(#kpiRed)" filter="url(#softShadow)"/>
<text x="136" y="519" font-family="Arial,sans-serif" font-size="9.5" fill="#FFB0B0" text-anchor="middle" letter-spacing="1.5">SEVERITY</text>
<text x="136" y="540" font-family="Arial,sans-serif" font-size="19" font-weight="900" fill="#FFFFFF" text-anchor="middle">CRITICAL</text>
<text x="136" y="554" font-family="Arial,sans-serif" font-size="8.5" fill="#FF8888" text-anchor="middle">CVSS 9.8</text>

<rect x="234" y="498" width="150" height="62" rx="6" fill="#1C0A30" stroke="#6020A0" stroke-width="1"/>
<text x="309" y="519" font-family="Arial,sans-serif" font-size="9.5" fill="#9060C0" text-anchor="middle" letter-spacing="1">VECTOR</text>
<text x="309" y="540" font-family="Arial,sans-serif" font-size="15" font-weight="700" fill="#C890FF" text-anchor="middle">NETWORK</text>
<text x="309" y="554" font-family="Arial,sans-serif" font-size="8.5" fill="#7040A0" text-anchor="middle">No Auth Required</text>

<rect x="398" y="498" width="212" height="62" rx="6" fill="#1A0A12" stroke="#782222" stroke-width="1"/>
<text x="504" y="519" font-family="Arial,sans-serif" font-size="9.5" fill="#904040" text-anchor="middle" letter-spacing="1">AFFECTED</text>
<text x="504" y="540" font-family="Arial,sans-serif" font-size="15" font-weight="700" fill="#FF8888" text-anchor="middle">FORTIGATE</text>
<text x="504" y="554" font-family="Arial,sans-serif" font-size="8.5" fill="#7A3030" text-anchor="middle">FortiOS / FortiProxy</text>

<!-- Panel vertical separator -->
<rect x="640" y="80" width="4" height="510" rx="2" fill="#151E30"/>

<!-- ===== TOP-RIGHT PANEL 516x248 at (652,80) — Ransomware BYOVD ===== -->
<rect x="652" y="80" width="516" height="248" rx="10" fill="url(#topRightGrad)"/>
<!-- Stripe: amber -->
<rect x="652" y="80" width="516" height="4" rx="2" fill="#F4A623"/>
<!-- Ambient glow -->
<circle cx="905" cy="204" r="95" fill="url(#glowAmber)" opacity="0.42">
  <animate attributeName="opacity" values="0.28;0.6;0.28" dur="5.8s" repeatCount="indefinite"/>
</circle>

<!-- Eyebrow -->
<rect x="672" y="100" width="55" height="19" rx="3" fill="#C47A08" opacity="0.92"/>
<text x="699" y="113" font-family="Arial,sans-serif" font-size="9" font-weight="700" fill="#FFFFFF" text-anchor="middle" letter-spacing="1.5">HIGH</text>

<text x="672" y="139" font-family="Arial,Helvetica,sans-serif" font-size="17" font-weight="800" fill="#FFFFFF">Reynolds Ransomware</text>
<text x="672" y="159" font-family="Arial,sans-serif" font-size="12" fill="#F4A623">BYOVD — EDR Bypass via Embedded Driver</text>
<text x="672" y="176" font-family="Arial,sans-serif" font-size="10" fill="#7A8080" letter-spacing="0.2">Vulnerable driver bundled in payload; silences EDR before encryption</text>

<!-- EDR bypass visual -->
<!-- Shield with X (EDR killed) -->
<rect x="882" y="100" width="52" height="52" rx="6" fill="#1A1804" stroke="#F4A623" stroke-width="1.5"/>
<line x1="894" y1="112" x2="922" y2="140" stroke="#F4A623" stroke-width="2.5" opacity="0.85"/>
<line x1="922" y1="112" x2="894" y2="140" stroke="#F4A623" stroke-width="2.5" opacity="0.85"/>
<text x="908" y="166" font-family="Arial,sans-serif" font-size="8" fill="#907040" text-anchor="middle">EDR KILLED</text>

<!-- Driver icon -->
<rect x="948" y="106" width="44" height="40" rx="4" fill="#0A1804" stroke="#80C040" stroke-width="1"/>
<text x="970" y="130" font-family="Arial,sans-serif" font-size="17" fill="#80C040" text-anchor="middle">D</text>
<text x="970" y="148" font-family="Arial,sans-serif" font-size="7" fill="#4A7030" text-anchor="middle">DRIVER</text>

<!-- Arrow driver->EDR -->
<path d="M948 126 L937 126" stroke="#F4A623" stroke-width="1.5" fill="none">
  <animate attributeName="opacity" values="0.35;1.0;0.35" dur="1.8s" repeatCount="indefinite"/>
</path>

<!-- Ransomware lock -->
<rect x="1006" y="98" width="56" height="58" rx="7" fill="#1A0C00" stroke="#F4A623" stroke-width="2"/>
<path d="M1022 124 L1022 116 Q1022 106 1034 106 Q1046 106 1046 116 L1046 124" stroke="#F4A623" stroke-width="2" fill="none"/>
<rect x="1024" y="124" width="20" height="16" rx="3" fill="#F4A623" opacity="0.82"/>
<text x="1034" y="177" font-family="Arial,sans-serif" font-size="8" fill="#907040" text-anchor="middle">ENCRYPTED</text>

<!-- KPI row -->
<rect x="672" y="192" width="160" height="46" rx="5" fill="url(#kpiAmber)"/>
<text x="752" y="209" font-family="Arial,sans-serif" font-size="9" fill="#FFF0C0" text-anchor="middle" letter-spacing="1">TECHNIQUE</text>
<text x="752" y="228" font-family="Arial,sans-serif" font-size="13" font-weight="700" fill="#FFFFFF" text-anchor="middle">BYOVD</text>

<rect x="846" y="192" width="144" height="46" rx="5" fill="#1A1200" stroke="#806010" stroke-width="1"/>
<text x="918" y="209" font-family="Arial,sans-serif" font-size="9" fill="#907030" text-anchor="middle" letter-spacing="1">IMPACT</text>
<text x="918" y="228" font-family="Arial,sans-serif" font-size="13" font-weight="700" fill="#F4A623" text-anchor="middle">EDR BLIND SPOT</text>

<!-- Panel horizontal separator -->
<rect x="652" y="332" width="516" height="4" rx="2" fill="#10182A"/>
<rect x="652" y="336" width="516" height="4" rx="2" fill="#0C1220"/>

<!-- ===== BOTTOM-RIGHT PANEL 516x246 at (652,344) — DPRK LinkedIn ===== -->
<rect x="652" y="344" width="516" height="246" rx="10" fill="url(#botRightGrad)"/>
<!-- Stripe: blue -->
<rect x="652" y="344" width="516" height="4" rx="2" fill="#3A86FF"/>
<!-- Ambient glow -->
<circle cx="905" cy="462" r="95" fill="url(#glowBlue)" opacity="0.38">
  <animate attributeName="opacity" values="0.22;0.52;0.22" dur="7.2s" repeatCount="indefinite"/>
</circle>

<!-- Eyebrow -->
<rect x="672" y="363" width="60" height="19" rx="3" fill="#1A5CA8" opacity="0.92"/>
<text x="702" y="376" font-family="Arial,sans-serif" font-size="9" font-weight="700" fill="#FFFFFF" text-anchor="middle" letter-spacing="1">MEDIUM</text>

<text x="672" y="404" font-family="Arial,Helvetica,sans-serif" font-size="17" font-weight="800" fill="#FFFFFF">DPRK LinkedIn Infiltration</text>
<text x="672" y="422" font-family="Arial,sans-serif" font-size="12" fill="#3A86FF">IT Worker Account Takeover</text>
<text x="672" y="439" font-family="Arial,sans-serif" font-size="10" fill="#608090" letter-spacing="0.2">Stolen profiles + verified badges bypass hiring checks</text>

<!-- LinkedIn fake profile mockup -->
<rect x="870" y="360" width="108" height="76" rx="6" fill="#0A1830" stroke="#1A5CA8" stroke-width="1.5"/>
<circle cx="894" cy="384" r="12" fill="#142A50" stroke="#3A86FF" stroke-width="1"/>
<text x="894" y="389" font-family="Arial,sans-serif" font-size="10" fill="#3A86FF" text-anchor="middle">?</text>
<rect x="910" y="377" width="52" height="6" rx="2" fill="#1E3A60"/>
<rect x="910" y="389" width="38" height="5" rx="2" fill="#142840"/>
<!-- Verified badge (fake) -->
<circle cx="956" cy="374" r="8" fill="#204090" stroke="#3A86FF" stroke-width="1"/>
<text x="956" y="378" font-family="Arial,sans-serif" font-size="8" fill="#FFFFFF" text-anchor="middle">v</text>
<text x="924" y="434" font-family="Arial,sans-serif" font-size="7.5" fill="#406080" text-anchor="middle">SPOOFED PROFILE</text>

<!-- Arrow to company -->
<path d="M978 400 L1056 400" stroke="#3A86FF" stroke-width="1.5" stroke-dasharray="4,2" fill="none">
  <animate attributeName="stroke-dashoffset" values="0;-12" dur="1.5s" repeatCount="indefinite"/>
</path>
<!-- Company building -->
<rect x="1058" y="375" width="48" height="48" rx="4" fill="#0A1830" stroke="#3A86FF" stroke-width="1"/>
<rect x="1065" y="384" width="9" height="9" rx="1" fill="#1A3A60"/>
<rect x="1080" y="384" width="9" height="9" rx="1" fill="#1A3A60"/>
<rect x="1065" y="399" width="9" height="9" rx="1" fill="#1A3A60"/>
<rect x="1080" y="399" width="9" height="9" rx="1" fill="#1A3A60"/>
<text x="1082" y="434" font-family="Arial,sans-serif" font-size="7.5" fill="#204060" text-anchor="middle">CORP</text>

<!-- MITRE tags -->
<rect x="672" y="456" width="70" height="17" rx="3" fill="#0A1830" stroke="#1A3A60" stroke-width="1"/>
<text x="707" y="468" font-family="Arial,sans-serif" font-size="7.5" fill="#3A70A8" text-anchor="middle">T1586.003</text>
<rect x="750" y="456" width="52" height="17" rx="3" fill="#0A1830" stroke="#1A3A60" stroke-width="1"/>
<text x="776" y="468" font-family="Arial,sans-serif" font-size="7.5" fill="#3A70A8" text-anchor="middle">T1566</text>
<rect x="810" y="456" width="50" height="17" rx="3" fill="#0A1830" stroke="#1A3A60" stroke-width="1"/>
<text x="835" y="468" font-family="Arial,sans-serif" font-size="7.5" fill="#3A70A8" text-anchor="middle">T1078</text>

<!-- KPI row -->
<rect x="672" y="482" width="158" height="46" rx="5" fill="url(#kpiBlue)"/>
<text x="751" y="499" font-family="Arial,sans-serif" font-size="9" fill="#C0D8FF" text-anchor="middle" letter-spacing="1">THREAT ACTOR</text>
<text x="751" y="518" font-family="Arial,sans-serif" font-size="13" font-weight="700" fill="#FFFFFF" text-anchor="middle">DPRK / LAZARUS</text>

<rect x="844" y="482" width="156" height="46" rx="5" fill="#081122" stroke="#1A3060" stroke-width="1"/>
<text x="922" y="499" font-family="Arial,sans-serif" font-size="9" fill="#3A5880" text-anchor="middle" letter-spacing="1">VECTOR</text>
<text x="922" y="518" font-family="Arial,sans-serif" font-size="13" font-weight="700" fill="#3A86FF" text-anchor="middle">SOCIAL ENG.</text>

<!-- FOOTER -->
<rect x="0" y="600" width="1200" height="30" fill="#070B18" opacity="0.95"/>
<rect x="0" y="600" width="1200" height="1.5" fill="#18223A"/>
<text x="32" y="619" font-family="Arial,sans-serif" font-size="9.5" fill="#2E4060" letter-spacing="1">SECURITY: 5</text>
<rect x="118" y="611" width="1" height="12" fill="#18223A"/>
<text x="128" y="619" font-family="Arial,sans-serif" font-size="9.5" fill="#2E4060" letter-spacing="1">AI/ML: 4</text>
<rect x="192" y="611" width="1" height="12" fill="#18223A"/>
<text x="202" y="619" font-family="Arial,sans-serif" font-size="9.5" fill="#2E4060" letter-spacing="1">CLOUD: 4</text>
<rect x="266" y="611" width="1" height="12" fill="#18223A"/>
<text x="276" y="619" font-family="Arial,sans-serif" font-size="9.5" fill="#2E4060" letter-spacing="1">DEVOPS: 3</text>
<rect x="348" y="611" width="1" height="12" fill="#18223A"/>
<text x="358" y="619" font-family="Arial,sans-serif" font-size="9.5" fill="#2E4060" letter-spacing="1">BLOCKCHAIN: 5</text>
<text x="1168" y="619" font-family="Arial,sans-serif" font-size="9.5" fill="#243650" text-anchor="end">tech.2twodragon.com</text>
<!-- cover-qr: https://tech.2twodragon.com/posts/2026/02/11/Tech_Security_Weekly_Digest_Security_Ransomware_Patch_AI/ : 41x41 -->
<g transform="translate(1080,504)" filter="url(#softShadow)">
  <rect x="-8" y="-8" width="100" height="100" rx="6" fill="#FFFFFF"/>
  <g transform="scale(2.048780)" fill="#0A1020">
    <path d="M0 0h7v1h-7zM8 0h3v1h-3zM13 0h2v1h-2zM19 0h2v1h-2zM22 0h1v1h-1zM28 0h1v1h-1zM30 0h3v1h-3zM34 0h7v1h-7zM0 1h1v1h-1zM6 1h1v1h-1zM8 1h3v1h-3zM15 1h3v1h-3zM21 1h3v1h-3zM26 1h1v1h-1zM30 1h1v1h-1zM34 1h1v1h-1zM40 1h1v1h-1zM0 2h1v1h-1zM2 2h3v1h-3zM6 2h1v1h-1zM9 2h2v1h-2zM12 2h3v1h-3zM16 2h1v1h-1zM18 2h3v1h-3zM24 2h2v1h-2zM30 2h3v1h-3zM34 2h1v1h-1zM36 2h3v1h-3zM40 2h1v1h-1zM0 3h1v1h-1zM2 3h3v1h-3zM6 3h1v1h-1zM8 3h6v1h-6zM18 3h1v1h-1zM20 3h3v1h-3zM25 3h5v1h-5zM32 3h1v1h-1zM34 3h1v1h-1zM36 3h3v1h-3zM40 3h1v1h-1zM0 4h1v1h-1zM2 4h3v1h-3zM6 4h1v1h-1zM11 4h1v1h-1zM14 4h1v1h-1zM18 4h1v1h-1zM23 4h2v1h-2zM26 4h2v1h-2zM29 4h1v1h-1zM31 4h2v1h-2zM34 4h1v1h-1zM36 4h3v1h-3zM40 4h1v1h-1zM0 5h1v1h-1zM6 5h1v1h-1zM9 5h1v1h-1zM11 5h1v1h-1zM15 5h1v1h-1zM17 5h6v1h-6zM24 5h1v1h-1zM28 5h1v1h-1zM30 5h2v1h-2zM34 5h1v1h-1zM40 5h1v1h-1zM0 6h7v1h-7zM8 6h1v1h-1zM10 6h1v1h-1zM12 6h1v1h-1zM14 6h1v1h-1zM16 6h1v1h-1zM18 6h1v1h-1zM20 6h1v1h-1zM22 6h1v1h-1zM24 6h1v1h-1zM26 6h1v1h-1zM28 6h1v1h-1zM30 6h1v1h-1zM32 6h1v1h-1zM34 6h7v1h-7zM8 7h1v1h-1zM11 7h2v1h-2zM14 7h1v1h-1zM17 7h1v1h-1zM19 7h1v1h-1zM24 7h1v1h-1zM26 7h1v1h-1zM29 7h1v1h-1zM31 7h2v1h-2zM0 8h1v1h-1zM2 8h2v1h-2zM5 8h3v1h-3zM9 8h2v1h-2zM12 8h7v1h-7zM21 8h1v1h-1zM23 8h2v1h-2zM26 8h1v1h-1zM29 8h4v1h-4zM34 8h1v1h-1zM37 8h1v1h-1zM39 8h2v1h-2zM1 9h1v1h-1zM3 9h1v1h-1zM5 9h1v1h-1zM7 9h1v1h-1zM9 9h1v1h-1zM13 9h1v1h-1zM16 9h1v1h-1zM18 9h2v1h-2zM21 9h1v1h-1zM23 9h1v1h-1zM26 9h1v1h-1zM30 9h3v1h-3zM35 9h2v1h-2zM38 9h1v1h-1zM1 10h3v1h-3zM6 10h1v1h-1zM10 10h1v1h-1zM12 10h1v1h-1zM16 10h1v1h-1zM20 10h1v1h-1zM22 10h2v1h-2zM25 10h2v1h-2zM29 10h1v1h-1zM33 10h2v1h-2zM38 10h2v1h-2zM0 11h1v1h-1zM4 11h1v1h-1zM7 11h1v1h-1zM9 11h1v1h-1zM15 11h2v1h-2zM18 11h1v1h-1zM20 11h1v1h-1zM22 11h1v1h-1zM24 11h2v1h-2zM27 11h1v1h-1zM32 11h1v1h-1zM36 11h1v1h-1zM39 11h2v1h-2zM1 12h2v1h-2zM5 12h2v1h-2zM9 12h1v1h-1zM12 12h1v1h-1zM15 12h1v1h-1zM17 12h1v1h-1zM19 12h1v1h-1zM22 12h1v1h-1zM25 12h1v1h-1zM28 12h5v1h-5zM35 12h1v1h-1zM37 12h4v1h-4zM2 13h2v1h-2zM8 13h2v1h-2zM11 13h2v1h-2zM17 13h1v1h-1zM21 13h1v1h-1zM23 13h4v1h-4zM28 13h1v1h-1zM30 13h2v1h-2zM33 13h2v1h-2zM37 13h1v1h-1zM39 13h2v1h-2zM0 14h1v1h-1zM2 14h1v1h-1zM6 14h3v1h-3zM13 14h1v1h-1zM15 14h3v1h-3zM21 14h1v1h-1zM25 14h1v1h-1zM29 14h1v1h-1zM31 14h2v1h-2zM34 14h3v1h-3zM38 14h3v1h-3zM0 15h1v1h-1zM2 15h2v1h-2zM5 15h1v1h-1zM7 15h3v1h-3zM12 15h3v1h-3zM16 15h1v1h-1zM18 15h5v1h-5zM24 15h1v1h-1zM26 15h1v1h-1zM28 15h1v1h-1zM32 15h1v1h-1zM34 15h1v1h-1zM36 15h2v1h-2zM1 16h1v1h-1zM3 16h4v1h-4zM10 16h2v1h-2zM16 16h1v1h-1zM18 16h2v1h-2zM22 16h1v1h-1zM24 16h2v1h-2zM27 16h1v1h-1zM30 16h3v1h-3zM36 16h2v1h-2zM39 16h1v1h-1zM0 17h1v1h-1zM3 17h2v1h-2zM8 17h2v1h-2zM12 17h1v1h-1zM14 17h1v1h-1zM16 17h2v1h-2zM20 17h1v1h-1zM23 17h3v1h-3zM32 17h2v1h-2zM35 17h1v1h-1zM37 17h1v1h-1zM0 18h2v1h-2zM3 18h1v1h-1zM5 18h3v1h-3zM11 18h1v1h-1zM13 18h1v1h-1zM15 18h3v1h-3zM20 18h2v1h-2zM27 18h2v1h-2zM30 18h1v1h-1zM32 18h1v1h-1zM36 18h1v1h-1zM38 18h2v1h-2zM0 19h1v1h-1zM2 19h4v1h-4zM7 19h3v1h-3zM11 19h3v1h-3zM16 19h1v1h-1zM19 19h2v1h-2zM22 19h1v1h-1zM27 19h4v1h-4zM35 19h1v1h-1zM37 19h3v1h-3zM0 20h1v1h-1zM4 20h1v1h-1zM6 20h1v1h-1zM10 20h2v1h-2zM13 20h1v1h-1zM15 20h2v1h-2zM18 20h3v1h-3zM26 20h2v1h-2zM29 20h6v1h-6zM36 20h4v1h-4zM0 21h1v1h-1zM2 21h1v1h-1zM7 21h2v1h-2zM11 21h6v1h-6zM18 21h1v1h-1zM20 21h2v1h-2zM23 21h2v1h-2zM26 21h1v1h-1zM31 21h1v1h-1zM34 21h7v1h-7zM1 22h12v1h-12zM14 22h1v1h-1zM16 22h1v1h-1zM20 22h1v1h-1zM23 22h2v1h-2zM28 22h3v1h-3zM33 22h2v1h-2zM37 22h1v1h-1zM39 22h1v1h-1zM1 23h1v1h-1zM4 23h1v1h-1zM7 23h4v1h-4zM13 23h2v1h-2zM16 23h1v1h-1zM18 23h2v1h-2zM25 23h1v1h-1zM27 23h1v1h-1zM30 23h1v1h-1zM32 23h2v1h-2zM0 24h1v1h-1zM2 24h1v1h-1zM4 24h1v1h-1zM6 24h3v1h-3zM11 24h1v1h-1zM17 24h1v1h-1zM19 24h1v1h-1zM22 24h1v1h-1zM24 24h3v1h-3zM29 24h1v1h-1zM31 24h1v1h-1zM35 24h1v1h-1zM37 24h1v1h-1zM0 25h1v1h-1zM8 25h1v1h-1zM11 25h1v1h-1zM14 25h2v1h-2zM17 25h1v1h-1zM19 25h1v1h-1zM24 25h2v1h-2zM27 25h1v1h-1zM29 25h1v1h-1zM31 25h3v1h-3zM37 25h4v1h-4zM0 26h1v1h-1zM3 26h4v1h-4zM8 26h3v1h-3zM12 26h2v1h-2zM15 26h2v1h-2zM18 26h3v1h-3zM24 26h1v1h-1zM26 26h1v1h-1zM28 26h2v1h-2zM31 26h2v1h-2zM34 26h1v1h-1zM37 26h1v1h-1zM39 26h2v1h-2zM3 27h3v1h-3zM8 27h5v1h-5zM19 27h5v1h-5zM26 27h2v1h-2zM30 27h3v1h-3zM34 27h4v1h-4zM39 27h1v1h-1zM0 28h2v1h-2zM4 28h1v1h-1zM6 28h2v1h-2zM11 28h1v1h-1zM13 28h1v1h-1zM16 28h1v1h-1zM18 28h5v1h-5zM25 28h4v1h-4zM31 28h3v1h-3zM36 28h2v1h-2zM39 28h1v1h-1zM1 29h2v1h-2zM4 29h2v1h-2zM8 29h1v1h-1zM11 29h2v1h-2zM14 29h1v1h-1zM16 29h2v1h-2zM19 29h1v1h-1zM22 29h5v1h-5zM29 29h2v1h-2zM32 29h1v1h-1zM35 29h1v1h-1zM37 29h1v1h-1zM39 29h1v1h-1zM0 30h1v1h-1zM2 30h2v1h-2zM6 30h3v1h-3zM11 30h2v1h-2zM16 30h1v1h-1zM18 30h1v1h-1zM20 30h1v1h-1zM25 30h4v1h-4zM32 30h4v1h-4zM5 31h1v1h-1zM7 31h2v1h-2zM15 31h1v1h-1zM17 31h3v1h-3zM22 31h1v1h-1zM28 31h2v1h-2zM31 31h1v1h-1zM34 31h1v1h-1zM36 31h5v1h-5zM1 32h1v1h-1zM6 32h1v1h-1zM8 32h4v1h-4zM13 32h1v1h-1zM16 32h3v1h-3zM21 32h1v1h-1zM24 32h1v1h-1zM26 32h1v1h-1zM29 32h2v1h-2zM32 32h7v1h-7zM40 32h1v1h-1zM8 33h2v1h-2zM11 33h1v1h-1zM14 33h1v1h-1zM19 33h2v1h-2zM23 33h1v1h-1zM27 33h2v1h-2zM32 33h1v1h-1zM36 33h1v1h-1zM38 33h3v1h-3zM0 34h7v1h-7zM8 34h3v1h-3zM13 34h2v1h-2zM17 34h1v1h-1zM23 34h2v1h-2zM28 34h1v1h-1zM31 34h2v1h-2zM34 34h1v1h-1zM36 34h4v1h-4zM0 35h1v1h-1zM6 35h1v1h-1zM8 35h1v1h-1zM10 35h1v1h-1zM12 35h2v1h-2zM16 35h1v1h-1zM18 35h3v1h-3zM24 35h2v1h-2zM28 35h1v1h-1zM32 35h1v1h-1zM36 35h1v1h-1zM39 35h1v1h-1zM0 36h1v1h-1zM2 36h3v1h-3zM6 36h1v1h-1zM9 36h3v1h-3zM14 36h3v1h-3zM18 36h1v1h-1zM25 36h2v1h-2zM29 36h1v1h-1zM32 36h7v1h-7zM40 36h1v1h-1zM0 37h1v1h-1zM2 37h3v1h-3zM6 37h1v1h-1zM8 37h3v1h-3zM12 37h1v1h-1zM17 37h3v1h-3zM26 37h2v1h-2zM29 37h1v1h-1zM31 37h1v1h-1zM36 37h1v1h-1zM38 37h1v1h-1zM40 37h1v1h-1zM0 38h1v1h-1zM2 38h3v1h-3zM6 38h1v1h-1zM8 38h2v1h-2zM12 38h4v1h-4zM18 38h4v1h-4zM24 38h1v1h-1zM26 38h1v1h-1zM28 38h2v1h-2zM35 38h1v1h-1zM37 38h4v1h-4zM0 39h1v1h-1zM6 39h1v1h-1zM9 39h3v1h-3zM13 39h1v1h-1zM15 39h3v1h-3zM19 39h1v1h-1zM21 39h2v1h-2zM24 39h1v1h-1zM26 39h1v1h-1zM28 39h1v1h-1zM32 39h2v1h-2zM36 39h2v1h-2zM39 39h1v1h-1zM0 40h7v1h-7zM8 40h1v1h-1zM17 40h1v1h-1zM20 40h4v1h-4zM25 40h1v1h-1zM30 40h1v1h-1zM32 40h3v1h-3zM39 40h1v1h-1z"/>
  </g>
</g>
<text x="1122" y="614" font-family="Inter, Helvetica, Arial, sans-serif" font-size="10" font-weight="700" fill="#F5F7FA" text-anchor="middle">scan / full post</text>
</svg>
