<svg xmlns="http://www.w3.org/2000/svg" viewBox="0 0 1200 630" width="1200" height="630">
  <title>AWS/GCP 2026 1 - EC2 G7e/X8i, Bangkok, Sovereign Cloud</title>
  <defs>
    <linearGradient id="bg" x1="0%" y1="0%" x2="100%" y2="100%">
      <stop offset="0%" stop-color="#0a0c1a"/>
      <stop offset="100%" stop-color="#0a0a1a"/>
    </linearGradient>
    <linearGradient id="accent" x1="0%" y1="0%" x2="100%" y2="0%">
      <stop offset="0%" stop-color="#3b82f6"/>
      <stop offset="100%" stop-color="#06b6d4"/>
    </linearGradient>
  </defs>
  <rect width="1200" height="630" fill="url(#bg)"/>
  <!-- Grid lines -->
  <line x1="0" y1="105" x2="1200" y2="105" stroke="rgba(255,255,255,0.04)" stroke-width="1"/>
  <line x1="0" y1="210" x2="1200" y2="210" stroke="rgba(255,255,255,0.04)" stroke-width="1"/>
  <line x1="0" y1="315" x2="1200" y2="315" stroke="rgba(255,255,255,0.04)" stroke-width="1"/>
  <line x1="0" y1="420" x2="1200" y2="420" stroke="rgba(255,255,255,0.04)" stroke-width="1"/>
  <line x1="240" y1="0" x2="240" y2="630" stroke="rgba(255,255,255,0.03)" stroke-width="1"/>
  <line x1="480" y1="0" x2="480" y2="630" stroke="rgba(255,255,255,0.03)" stroke-width="1"/>
  <line x1="720" y1="0" x2="720" y2="630" stroke="rgba(255,255,255,0.03)" stroke-width="1"/>
  <line x1="960" y1="0" x2="960" y2="630" stroke="rgba(255,255,255,0.03)" stroke-width="1"/>
  <!-- Chart icon -->
  <line x1="900" y1="310" x2="900" y2="180" stroke="rgba(59,130,246,0.2)" stroke-width="1.5"/>
  <line x1="900" y1="310" x2="1030" y2="310" stroke="rgba(59,130,246,0.2)" stroke-width="1.5"/>
  <rect x="920" y="260" width="20" height="50" rx="2" fill="rgba(59,130,246,0.15)"/>
  <rect x="950" y="220" width="20" height="90" rx="2" fill="rgba(59,130,246,0.2)"/>
  <rect x="980" y="240" width="20" height="70" rx="2" fill="rgba(59,130,246,0.15)"/>
  <!-- Alert dots -->
  <circle cx="870" cy="400" r="6" fill="rgba(59,130,246,0.3)"/>
  <circle cx="900" cy="420" r="4" fill="rgba(59,130,246,0.25)"/>
  <circle cx="860" cy="440" r="5" fill="rgba(59,130,246,0.2)"/>
  <!-- Background circles -->
  <circle cx="1050" cy="450" r="200" fill="rgba(255,255,255,0.02)"/>
  <circle cx="1050" cy="450" r="140" fill="rgba(255,255,255,0.02)"/>
  <!-- Left accent bar -->
  <rect x="0" y="0" width="6" height="630" fill="url(#accent)"/>
  <!-- Date badge -->
  <rect x="80" y="60" width="200" height="32" rx="4" fill="rgba(59,130,246,0.2)" stroke="rgba(59,130,246,0.4)" stroke-width="1"/>
  <text x="180" y="81" font-family="system-ui,sans-serif" font-size="14" fill="rgba(255,255,255,0.8)" text-anchor="middle" letter-spacing="1">JANUARY 22, 2026</text>
  <!-- Main title -->
  <text x="80" y="185" font-family="system-ui,sans-serif" font-size="46" font-weight="700" fill="white" letter-spacing="-1">AWS/GCP 2026 1 - EC2 G7e/X8i,</text>
  <text x="80" y="245" font-family="system-ui,sans-serif" font-size="46" font-weight="700" fill="white" letter-spacing="-1">Bangkok, Sovereign Cloud</text>
  <!-- Subtitle -->
  <text x="80" y="300" font-family="system-ui,sans-serif" font-size="19" fill="rgba(255,255,255,0.6)">Cloud | Devops | AWS</text>
  <!-- Accent line -->
  <rect x="80" y="325" width="420" height="3" rx="1" fill="url(#accent)"/>
  <!-- Category label -->
  <text x="80" y="370" font-family="system-ui,sans-serif" font-size="14" fill="rgba(255,255,255,0.4)" letter-spacing="2">CLOUD</text>
  <!-- Keyword tags -->
  <rect x="80" y="420" width="70" height="36" rx="18" fill="rgba(59,130,246,0.18)" stroke="rgba(59,130,246,0.4)" stroke-width="1"/>
  <text x="115" y="443" font-family="system-ui,sans-serif" font-size="14" fill="#93c5fd" text-anchor="middle" font-weight="600">AWS</text>
  <rect x="164" y="420" width="70" height="36" rx="18" fill="rgba(245,158,11,0.18)" stroke="rgba(245,158,11,0.4)" stroke-width="1"/>
  <text x="199" y="443" font-family="system-ui,sans-serif" font-size="14" fill="#fbbf24" text-anchor="middle" font-weight="600">GCP</text>
  <rect x="248" y="420" width="93" height="36" rx="18" fill="rgba(6,182,212,0.18)" stroke="rgba(6,182,212,0.4)" stroke-width="1"/>
  <text x="294" y="443" font-family="system-ui,sans-serif" font-size="14" fill="#67e8f9" text-anchor="middle" font-weight="600">EC2 G7e</text>
  <!-- Bottom rule -->
  <rect x="80" y="520" width="1040" height="1" fill="rgba(255,255,255,0.08)"/>
  <text x="80" y="545" font-family="system-ui,sans-serif" font-size="13" fill="rgba(255,255,255,0.3)" letter-spacing="1">tech.2twodragon.com</text>
  <text x="1120" y="545" font-family="system-ui,sans-serif" font-size="13" fill="rgba(255,255,255,0.3)" text-anchor="end">Cloud</text>
</svg>