<svg xmlns="http://www.w3.org/2000/svg" viewBox="0 0 1200 630" width="1200" height="630">
  <defs>
    <linearGradient id="bgGrad" x1="0%" y1="0%" x2="100%" y2="100%">
      <stop offset="0%" style="stop-color:#0a0c1a"/>
      <stop offset="100%" style="stop-color:#1a0a0a"/>
    </linearGradient>
    <linearGradient id="accentBar" x1="0%" y1="0%" x2="0%" y2="100%">
      <stop offset="0%" style="stop-color:#e63946"/>
      <stop offset="50%" style="stop-color:#ff6b35"/>
      <stop offset="100%" style="stop-color:#2196f3"/>
    </linearGradient>
    <linearGradient id="accentLine" x1="0%" y1="0%" x2="100%" y2="0%">
      <stop offset="0%" style="stop-color:#e63946"/>
      <stop offset="100%" style="stop-color:rgba(230,57,70,0)"/>
    </linearGradient>
    <linearGradient id="dateBadgeGrad" x1="0%" y1="0%" x2="100%" y2="0%">
      <stop offset="0%" style="stop-color:rgba(230,57,70,0.35)"/>
      <stop offset="100%" style="stop-color:rgba(230,57,70,0.08)"/>
    </linearGradient>
  </defs>

  <!-- Background -->
  <rect width="1200" height="630" fill="url(#bgGrad)"/>

  <!-- Grid lines horizontal -->
  <line x1="0" y1="105" x2="1200" y2="105" stroke="rgba(255,255,255,0.03)" stroke-width="1"/>
  <line x1="0" y1="210" x2="1200" y2="210" stroke="rgba(255,255,255,0.04)" stroke-width="1"/>
  <line x1="0" y1="315" x2="1200" y2="315" stroke="rgba(255,255,255,0.03)" stroke-width="1"/>
  <line x1="0" y1="420" x2="1200" y2="420" stroke="rgba(255,255,255,0.04)" stroke-width="1"/>

  <!-- Grid lines vertical -->
  <line x1="240" y1="0" x2="240" y2="630" stroke="rgba(255,255,255,0.03)" stroke-width="1"/>
  <line x1="480" y1="0" x2="480" y2="630" stroke="rgba(255,255,255,0.04)" stroke-width="1"/>
  <line x1="720" y1="0" x2="720" y2="630" stroke="rgba(255,255,255,0.03)" stroke-width="1"/>
  <line x1="960" y1="0" x2="960" y2="630" stroke="rgba(255,255,255,0.04)" stroke-width="1"/>

  <!-- Background subtle circles -->
  <circle cx="1050" cy="450" r="200" fill="none" stroke="rgba(255,255,255,0.025)" stroke-width="1"/>
  <circle cx="1050" cy="450" r="140" fill="none" stroke="rgba(255,255,255,0.035)" stroke-width="1"/>

  <!-- RIGHT SIDE ILLUSTRATION: Android + Security Shield + DevSecOps Circuit -->
  <!-- Outer security ring -->
  <circle cx="1010" cy="225" r="110" fill="rgba(230,57,70,0.06)" stroke="rgba(230,57,70,0.25)" stroke-width="1.5"/>
  <circle cx="1010" cy="225" r="88" fill="rgba(20,10,15,0.4)" stroke="rgba(230,57,70,0.15)" stroke-width="1"/>

  <!-- Android robot body -->
  <rect x="975" y="200" width="70" height="55" rx="8" fill="rgba(100,220,100,0.10)" stroke="rgba(100,220,100,0.35)" stroke-width="1.5"/>
  <!-- Android head -->
  <rect x="982" y="178" width="56" height="28" rx="14" fill="rgba(100,220,100,0.10)" stroke="rgba(100,220,100,0.35)" stroke-width="1.5"/>
  <!-- Android eyes -->
  <circle cx="996" cy="192" r="4" fill="rgba(100,220,100,0.6)"/>
  <circle cx="1024" cy="192" r="4" fill="rgba(100,220,100,0.6)"/>
  <!-- Android antennas -->
  <line x1="996" y1="178" x2="990" y2="165" stroke="rgba(100,220,100,0.4)" stroke-width="1.5" stroke-linecap="round"/>
  <line x1="1024" y1="178" x2="1030" y2="165" stroke="rgba(100,220,100,0.4)" stroke-width="1.5" stroke-linecap="round"/>
  <circle cx="990" cy="163" r="3" fill="rgba(100,220,100,0.5)"/>
  <circle cx="1030" cy="163" r="3" fill="rgba(100,220,100,0.5)"/>
  <!-- Android arms -->
  <rect x="958" y="202" width="18" height="36" rx="9" fill="rgba(100,220,100,0.10)" stroke="rgba(100,220,100,0.3)" stroke-width="1.2"/>
  <rect x="1044" y="202" width="18" height="36" rx="9" fill="rgba(100,220,100,0.10)" stroke="rgba(100,220,100,0.3)" stroke-width="1.2"/>
  <!-- Android legs -->
  <rect x="982" y="252" width="22" height="28" rx="8" fill="rgba(100,220,100,0.10)" stroke="rgba(100,220,100,0.3)" stroke-width="1.2"/>
  <rect x="1016" y="252" width="22" height="28" rx="8" fill="rgba(100,220,100,0.10)" stroke="rgba(100,220,100,0.3)" stroke-width="1.2"/>

  <!-- Security shield overlay -->
  <path d="M1010,148 L1055,165 L1055,200 Q1055,230 1010,248 Q965,230 965,200 L965,165 Z" fill="rgba(230,57,70,0.08)" stroke="rgba(230,57,70,0.3)" stroke-width="1.5"/>
  <!-- Shield lock icon -->
  <rect x="1002" y="196" width="16" height="12" rx="2" fill="rgba(230,57,70,0.4)" stroke="rgba(230,57,70,0.6)" stroke-width="1"/>
  <path d="M1004,196 Q1004,190 1010,190 Q1016,190 1016,196" fill="none" stroke="rgba(230,57,70,0.6)" stroke-width="1.5"/>

  <!-- Zero-day burst effect -->
  <circle cx="1010" cy="225" r="125" fill="none" stroke="rgba(255,80,40,0.12)" stroke-width="2" stroke-dasharray="6,4"/>
  <circle cx="1010" cy="225" r="140" fill="none" stroke="rgba(255,80,40,0.07)" stroke-width="1.5" stroke-dasharray="3,6"/>

  <!-- DevSecOps circuit lines radiating -->
  <line x1="1010" y1="115" x2="1010" y2="148" stroke="rgba(33,150,243,0.35)" stroke-width="1.2"/>
  <line x1="1090" y1="150" x2="1060" y2="168" stroke="rgba(33,150,243,0.3)" stroke-width="1.2"/>
  <line x1="1110" y1="225" x2="1075" y2="225" stroke="rgba(33,150,243,0.3)" stroke-width="1.2"/>
  <line x1="1090" y1="300" x2="1060" y2="282" stroke="rgba(33,150,243,0.3)" stroke-width="1.2"/>
  <line x1="930" y1="150" x2="960" y2="168" stroke="rgba(33,150,243,0.3)" stroke-width="1.2"/>
  <line x1="910" y1="225" x2="945" y2="225" stroke="rgba(33,150,243,0.3)" stroke-width="1.2"/>
  <line x1="930" y1="300" x2="960" y2="282" stroke="rgba(33,150,243,0.3)" stroke-width="1.2"/>

  <!-- Circuit node dots -->
  <circle cx="1010" cy="112" r="4" fill="rgba(33,150,243,0.5)" stroke="rgba(33,150,243,0.7)" stroke-width="1"/>
  <circle cx="1093" cy="147" r="3.5" fill="rgba(33,150,243,0.4)"/>
  <circle cx="1113" cy="225" r="3.5" fill="rgba(33,150,243,0.4)"/>
  <circle cx="1093" cy="303" r="3.5" fill="rgba(33,150,243,0.4)"/>
  <circle cx="927" cy="147" r="3.5" fill="rgba(33,150,243,0.4)"/>
  <circle cx="907" cy="225" r="3.5" fill="rgba(33,150,243,0.4)"/>
  <circle cx="927" cy="303" r="3.5" fill="rgba(33,150,243,0.4)"/>

  <!-- Exploit burst lines (zero-day) -->
  <line x1="1010" y1="225" x2="1070" y2="155" stroke="rgba(255,100,50,0.18)" stroke-width="1" stroke-dasharray="2,3"/>
  <line x1="1010" y1="225" x2="1085" y2="240" stroke="rgba(255,100,50,0.15)" stroke-width="1" stroke-dasharray="2,3"/>
  <line x1="1010" y1="225" x2="940" y2="170" stroke="rgba(255,100,50,0.15)" stroke-width="1" stroke-dasharray="2,3"/>

  <!-- Alert dots -->
  <circle cx="870" cy="400" r="5" fill="rgba(230,57,70,0.7)"/>
  <circle cx="900" cy="420" r="4" fill="rgba(255,165,0,0.6)"/>
  <circle cx="860" cy="440" r="3.5" fill="rgba(230,57,70,0.5)"/>

  <!-- Left accent bar -->
  <rect x="0" y="0" width="6" height="630" fill="url(#accentBar)"/>

  <!-- Date badge -->
  <rect x="80" y="60" width="200" height="32" rx="4" fill="url(#dateBadgeGrad)" stroke="rgba(230,57,70,0.3)" stroke-width="1"/>
  <text x="180" y="81" font-family="'Courier New',monospace" font-size="12" font-weight="600" fill="rgba(255,255,255,0.85)" text-anchor="middle" letter-spacing="1.5">MARCH 7, 2026</text>

  <!-- Title line 1 -->
  <text x="80" y="185" font-family="'Arial',sans-serif" font-size="46" font-weight="700" fill="white" opacity="0.97">Tech Security Weekly Digest</text>

  <!-- Title line 2 -->
  <text x="80" y="245" font-family="'Arial',sans-serif" font-size="46" font-weight="700" fill="rgba(230,57,70,0.95)">Android Zero Day DevSecOps</text>

  <!-- Subtitle -->
  <text x="80" y="300" font-family="'Arial',sans-serif" font-size="19" fill="rgba(255,255,255,0.55)" font-weight="400">Weekly Threat Intelligence &amp; DevSecOps Security Roundup</text>

  <!-- Accent line -->
  <rect x="80" y="325" width="420" height="3" rx="1.5" fill="url(#accentLine)"/>

  <!-- Category label -->
  <text x="80" y="370" font-family="'Courier New',monospace" font-size="14" fill="rgba(230,57,70,0.8)" letter-spacing="3" font-weight="600">SECURITY / ANDROID / DEVSECOPS</text>

  <!-- Tag pills -->
  <rect x="80" y="402" width="130" height="36" rx="18" fill="rgba(230,57,70,0.18)" stroke="rgba(230,57,70,0.45)" stroke-width="1.2"/>
  <text x="145" y="425" font-family="'Arial',sans-serif" font-size="13" font-weight="600" fill="rgba(255,120,120,0.95)" text-anchor="middle" letter-spacing="0.5">ZERO-DAY</text>

  <rect x="224" y="402" width="130" height="36" rx="18" fill="rgba(255,152,0,0.15)" stroke="rgba(255,152,0,0.4)" stroke-width="1.2"/>
  <text x="289" y="425" font-family="'Arial',sans-serif" font-size="13" font-weight="600" fill="rgba(255,180,80,0.95)" text-anchor="middle" letter-spacing="0.5">ANDROID CVE</text>

  <rect x="368" y="402" width="120" height="36" rx="18" fill="rgba(33,150,243,0.15)" stroke="rgba(33,150,243,0.4)" stroke-width="1.2"/>
  <text x="428" y="425" font-family="'Arial',sans-serif" font-size="13" font-weight="600" fill="rgba(100,180,255,0.95)" text-anchor="middle" letter-spacing="0.5">DEVSECOPS</text>

  <!-- Footer -->
  <line x1="0" y1="510" x2="1200" y2="510" stroke="rgba(255,255,255,0.06)" stroke-width="1"/>
  <text x="80" y="545" font-family="'Courier New',monospace" font-size="14" fill="rgba(255,255,255,0.3)" letter-spacing="1">tech.2twodragon.com</text>
  <text x="1120" y="545" font-family="'Courier New',monospace" font-size="14" fill="rgba(230,57,70,0.4)" letter-spacing="1" text-anchor="end">SECURITY</text>
</svg>