<svg xmlns="http://www.w3.org/2000/svg" viewBox="0 0 1200 630" fill="none">
  <defs>
    <linearGradient id="bg" x1="0" y1="0" x2="1200" y2="630">
      <stop offset="0%" stop-color="#0f172a"/>
      <stop offset="50%" stop-color="#1e293b"/>
      <stop offset="100%" stop-color="#0f172a"/>
    </linearGradient>
    <linearGradient id="accent" x1="0" y1="0" x2="1" y2="1">
      <stop offset="0%" stop-color="#6366f1"/>
      <stop offset="100%" stop-color="#4f46e5"/>
    </linearGradient>
    <linearGradient id="accent2" x1="0" y1="0" x2="1" y2="1">
      <stop offset="0%" stop-color="#10b981"/>
      <stop offset="100%" stop-color="#059669"/>
    </linearGradient>
  </defs>

  <!-- Background -->
  <rect width="1200" height="630" fill="url(#bg)"/>

  <!-- Grid pattern -->
  <g opacity="0.05" stroke="#94a3b8" stroke-width="1">
    <line x1="0" y1="100" x2="1200" y2="100"/>
    <line x1="0" y1="200" x2="1200" y2="200"/>
    <line x1="0" y1="300" x2="1200" y2="300"/>
    <line x1="0" y1="400" x2="1200" y2="400"/>
    <line x1="0" y1="500" x2="1200" y2="500"/>
    <line x1="200" y1="0" x2="200" y2="630"/>
    <line x1="400" y1="0" x2="400" y2="630"/>
    <line x1="600" y1="0" x2="600" y2="630"/>
    <line x1="800" y1="0" x2="800" y2="630"/>
    <line x1="1000" y1="0" x2="1000" y2="630"/>
  </g>

  <!-- Primary icon -->
  <g transform="translate(80, 180)">
    <circle cx="60" cy="70" r="45" fill="url(#accent)" opacity="0.15"/>
    <circle cx="60" cy="70" r="45" fill="none" stroke="#6366f1" stroke-width="2.5"/>
    <path d="M40 55 Q50 35 60 50 Q70 35 80 55" fill="none" stroke="#c7d2fe" stroke-width="2"/>
    <path d="M35 75 Q45 60 55 75 Q65 60 75 75 Q85 60 90 75" fill="none" stroke="#c7d2fe" stroke-width="2"/>
    <text x="60" y="105" text-anchor="middle" fill="#6366f1" font-family="monospace" font-size="14" font-weight="bold">AI</text>
  </g>

  <!-- Secondary icon -->
  <g transform="translate(80, 380)">
    <rect x="10" y="30" width="100" height="90" rx="6" fill="url(#accent)" opacity="0.2"/>
    <rect x="10" y="30" width="100" height="90" rx="6" fill="none" stroke="#10b981" stroke-width="2.5"/>
    <line x1="10" y1="55" x2="110" y2="55" stroke="#10b981" stroke-width="1.5"/>
    <circle cx="25" cy="43" r="4" fill="#94a3b8"/>
    <circle cx="38" cy="43" r="4" fill="#94a3b8"/>
    <circle cx="51" cy="43" r="4" fill="#94a3b8"/>
    <rect x="20" y="65" width="80" height="8" rx="3" fill="#10b981" opacity="0.4"/>
    <rect x="20" y="80" width="60" height="8" rx="3" fill="#10b981" opacity="0.3"/>
    <rect x="20" y="95" width="70" height="8" rx="3" fill="#10b981" opacity="0.35"/>
  </g>

  <!-- Main title area -->
  <g transform="translate(260, 100)">
    <text x="0" y="0" fill="#f8fafc" font-family="Arial, sans-serif" font-size="18" font-weight="bold" letter-spacing="4">TECH SECURITY WEEKLY DIGEST</text>
    <text x="0" y="60" fill="#f8fafc" font-family="Arial, sans-serif" font-size="42" font-weight="bold">2026-02-10 DevOps &amp; 블록체인 다이제스트:</text>
    <text x="0" y="110" fill="#94a3b8" font-family="Arial, sans-serif" font-size="36" font-weight="300">CNCF Velocity, Cluster API, Bitcoin</text>
  </g>

  <!-- Date badge -->
  <rect x="260" y="240" width="200" height="36" rx="18" fill="url(#accent)" opacity="0.9"/>
  <text x="360" y="264" text-anchor="middle" fill="white" font-family="Arial, sans-serif" font-size="16" font-weight="bold">February 10, 2026</text>

  <!-- Stats cards -->
  <g transform="translate(260, 310)">
    <rect x="0" y="0" width="200" height="90" rx="8" fill="#1e293b" stroke="#334155" stroke-width="1"/>
    <text x="20" y="30" fill="#818cf8" font-family="Arial, sans-serif" font-size="12" font-weight="bold">AI/ML</text>
    <text x="20" y="65" fill="#f8fafc" font-family="Arial, sans-serif" font-size="28" font-weight="bold">AI/ML</text>
    <text x="20" y="80" fill="#64748b" font-family="Arial, sans-serif" font-size="13">analysis</text>
    <rect x="220" y="0" width="200" height="90" rx="8" fill="#1e293b" stroke="#334155" stroke-width="1"/>
    <text x="240" y="30" fill="#326ce5" font-family="Arial, sans-serif" font-size="12" font-weight="bold">KUBERNETES</text>
    <text x="240" y="65" fill="#f8fafc" font-family="Arial, sans-serif" font-size="28" font-weight="bold">Kubernetes</text>
    <text x="240" y="80" fill="#64748b" font-family="Arial, sans-serif" font-size="13">analysis</text>
    <rect x="440" y="0" width="200" height="90" rx="8" fill="#1e293b" stroke="#334155" stroke-width="1"/>
    <text x="460" y="30" fill="#f59e0b" font-family="Arial, sans-serif" font-size="12" font-weight="bold">BLOCKCHAIN</text>
    <text x="460" y="65" fill="#f8fafc" font-family="Arial, sans-serif" font-size="28" font-weight="bold">Blockchain</text>
    <text x="460" y="80" fill="#64748b" font-family="Arial, sans-serif" font-size="13">analysis</text>
  </g>

  <!-- Key topics -->
  <g transform="translate(260, 440)">
    <rect x="0" y="0" width="75" height="32" rx="16" fill="#991b1b" opacity="0.7"/>
    <text x="37" y="21" text-anchor="middle" fill="#fca5a5" font-family="Arial, sans-serif" font-size="13">AI/ML</text>
    <rect x="90" y="0" width="120" height="32" rx="16" fill="#7c2d12" opacity="0.7"/>
    <text x="150" y="21" text-anchor="middle" fill="#fdba74" font-family="Arial, sans-serif" font-size="13">Kubernetes</text>
    <rect x="225" y="0" width="120" height="32" rx="16" fill="#312e81" opacity="0.7"/>
    <text x="285" y="21" text-anchor="middle" fill="#a5b4fc" font-family="Arial, sans-serif" font-size="13">Blockchain</text>
    <rect x="360" y="0" width="93" height="32" rx="16" fill="#064e3b" opacity="0.7"/>
    <text x="406" y="21" text-anchor="middle" fill="#6ee7b7" font-family="Arial, sans-serif" font-size="13">Bitcoin</text>
  </g>

  <!-- Network visualization -->
  <g transform="translate(900, 180)" opacity="0.4">
    <circle cx="47" cy="138" r="3" fill="#f87171"/>
    <circle cx="207" cy="207" r="4" fill="#fb923c"/>
    <circle cx="177" cy="124" r="5" fill="#818cf8"/>
    <circle cx="223" cy="203" r="6" fill="#34d399"/>
    <circle cx="54" cy="223" r="3" fill="#fbbf24"/>
    <circle cx="33" cy="78" r="4" fill="#f87171"/>
    <circle cx="55" cy="42" r="5" fill="#fb923c"/>
    <circle cx="33" cy="33" r="6" fill="#818cf8"/>
    <circle cx="130" cy="80" r="3" fill="#34d399"/>
    <circle cx="42" cy="42" r="4" fill="#fbbf24"/>
    <line x1="47" y1="138" x2="207" y2="207" stroke="#475569" stroke-width="1"/>
    <line x1="207" y1="207" x2="177" y2="124" stroke="#475569" stroke-width="1"/>
    <line x1="177" y1="124" x2="223" y2="203" stroke="#475569" stroke-width="1"/>
    <line x1="223" y1="203" x2="54" y2="223" stroke="#475569" stroke-width="1"/>
    <line x1="54" y1="223" x2="33" y2="78" stroke="#475569" stroke-width="1"/>
    <line x1="33" y1="78" x2="55" y2="42" stroke="#475569" stroke-width="1"/>
    <line x1="55" y1="42" x2="33" y2="33" stroke="#475569" stroke-width="1"/>
    <line x1="33" y1="33" x2="130" y2="80" stroke="#475569" stroke-width="1"/>
  </g>

  <!-- Bottom bar -->
  <rect x="0" y="510" width="1200" height="120" fill="#0f172a" opacity="0.8"/>
  <rect x="0" y="510" width="1200" height="2" fill="url(#accent)" opacity="0.5"/>

  <!-- Bottom text -->
  <text x="80" y="560" fill="#94a3b8" font-family="Arial, sans-serif" font-size="16">tech.2twodragon.com</text>
  <text x="80" y="590" fill="#64748b" font-family="Arial, sans-serif" font-size="13">DevSecOps Weekly Security Intelligence</text>

  <!-- Bottom right -->
  <text x="1120" y="560" text-anchor="end" fill="#64748b" font-family="Arial, sans-serif" font-size="14">10 curated articles</text>
  <text x="1120" y="590" text-anchor="end" fill="#64748b" font-family="Arial, sans-serif" font-size="13">AI/ML | Kubernetes | Blockchain | Bitcoin</text>
</svg>
