<svg xmlns="http://www.w3.org/2000/svg" viewBox="0 0 1200 630" width="1200" height="630">
  <title>2026 02 21 Tech Security Weekly Digest Data Rust AI Threat</title>
  <defs>
    <!-- Glass blur filter -->
    <filter id="glassBlur" x="-20%" y="-20%" width="140%" height="140%">
      <feGaussianBlur in="SourceGraphic" stdDeviation="8" result="blur"/>
      <feColorMatrix in="blur" type="matrix" values="1 0 0 0 0  0 1 0 0 0  0 0 1 0 0  0 0 0 0.6 0"/>
    </filter>
    <!-- Glow filter -->
    <filter id="glow" x="-50%" y="-50%" width="200%" height="200%">
      <feGaussianBlur stdDeviation="20" result="coloredBlur"/>
      <feMerge>
        <feMergeNode in="coloredBlur"/>
        <feMergeNode in="SourceGraphic"/>
      </feMerge>
    </filter>
    <!-- Card glow filter -->
    <filter id="cardGlow" x="-10%" y="-10%" width="120%" height="120%">
      <feGaussianBlur stdDeviation="6" result="blur"/>
      <feMerge>
        <feMergeNode in="blur"/>
        <feMergeNode in="SourceGraphic"/>
      </feMerge>
    </filter>
    <!-- Soft shadow -->
    <filter id="shadow" x="-20%" y="-20%" width="140%" height="140%">
      <feDropShadow dx="0" dy="4" stdDeviation="12" flood-color="#000" flood-opacity="0.4"/>
    </filter>
    <!-- Gradient accents -->
    <linearGradient id="accentGrad" x1="0%" y1="0%" x2="100%" y2="100%">
      <stop offset="0%" stop-color="#3b82f6"/>
      <stop offset="100%" stop-color="#f43f5e"/>
    </linearGradient>
    <linearGradient id="accentGradH" x1="0%" y1="0%" x2="100%" y2="0%">
      <stop offset="0%" stop-color="#3b82f6"/>
      <stop offset="100%" stop-color="#f43f5e"/>
    </linearGradient>
    <linearGradient id="cardBorder1" x1="0%" y1="0%" x2="100%" y2="100%">
      <stop offset="0%" stop-color="#3b82f6" stop-opacity="0.6"/>
      <stop offset="100%" stop-color="#f43f5e" stop-opacity="0.2"/>
    </linearGradient>
    <linearGradient id="cardBorder2" x1="100%" y1="0%" x2="0%" y2="100%">
      <stop offset="0%" stop-color="#f43f5e" stop-opacity="0.5"/>
      <stop offset="100%" stop-color="#3b82f6" stop-opacity="0.15"/>
    </linearGradient>
    <linearGradient id="cardBorder3" x1="0%" y1="100%" x2="100%" y2="0%">
      <stop offset="0%" stop-color="#3b82f6" stop-opacity="0.4"/>
      <stop offset="50%" stop-color="#8b5cf6" stop-opacity="0.3"/>
      <stop offset="100%" stop-color="#f43f5e" stop-opacity="0.5"/>
    </linearGradient>
    <linearGradient id="shieldGrad" x1="0%" y1="0%" x2="0%" y2="100%">
      <stop offset="0%" stop-color="#3b82f6"/>
      <stop offset="100%" stop-color="#2563eb"/>
    </linearGradient>
    <linearGradient id="dbGrad" x1="0%" y1="0%" x2="0%" y2="100%">
      <stop offset="0%" stop-color="#f43f5e"/>
      <stop offset="100%" stop-color="#e11d48"/>
    </linearGradient>
    <radialGradient id="orbBlue" cx="50%" cy="50%" r="50%">
      <stop offset="0%" stop-color="#3b82f6" stop-opacity="0.3"/>
      <stop offset="100%" stop-color="#3b82f6" stop-opacity="0"/>
    </radialGradient>
    <radialGradient id="orbCoral" cx="50%" cy="50%" r="50%">
      <stop offset="0%" stop-color="#f43f5e" stop-opacity="0.25"/>
      <stop offset="100%" stop-color="#f43f5e" stop-opacity="0"/>
    </radialGradient>
    <radialGradient id="orbPurple" cx="50%" cy="50%" r="50%">
      <stop offset="0%" stop-color="#8b5cf6" stop-opacity="0.2"/>
      <stop offset="100%" stop-color="#8b5cf6" stop-opacity="0"/>
    </radialGradient>
    <!-- Dot pattern -->
    <pattern id="dots" x="0" y="0" width="30" height="30" patternUnits="userSpaceOnUse">
      <circle cx="15" cy="15" r="0.8" fill="#fff" opacity="0.08"/>
    </pattern>
  </defs>

  <!-- Background -->
  <rect width="1200" height="630" fill="#0f172a"/>
  <rect width="1200" height="630" fill="url(#dots)"/>

  <!-- Ambient glow orbs -->
  <ellipse cx="200" cy="150" rx="250" ry="200" fill="url(#orbBlue)"/>
  <ellipse cx="950" cy="500" rx="300" ry="220" fill="url(#orbCoral)"/>
  <ellipse cx="700" cy="100" rx="200" ry="180" fill="url(#orbPurple)"/>
  <ellipse cx="1100" cy="200" rx="180" ry="150" fill="url(#orbBlue)"/>

  <!-- ============ RIGHT SIDE: Glass Cards ============ -->

  <!-- Card 3 (back, bottom) - Database/Data Breach -->
  <g filter="url(#shadow)">
    <rect x="720" y="300" width="260" height="280" rx="16" fill="#1e293b" fill-opacity="0.45" stroke="url(#cardBorder3)" stroke-width="1.5"/>
    <rect x="720" y="300" width="260" height="280" rx="16" fill="#fff" fill-opacity="0.04"/>
  </g>
  <!-- Database cylinder -->
  <g transform="translate(850, 390)">
    <ellipse cx="0" cy="0" rx="38" ry="12" fill="url(#dbGrad)" opacity="0.9"/>
    <rect x="-38" y="0" width="76" height="60" fill="url(#dbGrad)" opacity="0.8"/>
    <ellipse cx="0" cy="60" rx="38" ry="12" fill="#e11d48" opacity="0.9"/>
    <ellipse cx="0" cy="0" rx="38" ry="12" fill="#fb7185" opacity="0.6"/>
    <!-- DB lines -->
    <line x1="-38" y1="20" x2="38" y2="20" stroke="#fff" stroke-opacity="0.15" stroke-width="1"/>
    <line x1="-38" y1="40" x2="38" y2="40" stroke="#fff" stroke-opacity="0.15" stroke-width="1"/>
    <!-- Warning icon -->
    <g transform="translate(30, 30)">
      <polygon points="0,-16 14,12 -14,12" fill="#fbbf24" stroke="#f59e0b" stroke-width="1.5" stroke-linejoin="round"/>
      <text x="0" y="8" text-anchor="middle" font-family="Arial, sans-serif" font-size="16" font-weight="bold" fill="#0f172a">!</text>
    </g>
  </g>
  <text x="850" y="490" text-anchor="middle" font-family="Arial, sans-serif" font-size="13" fill="#f87171" font-weight="600" letter-spacing="1">DATA BREACH</text>
  <text x="850" y="510" text-anchor="middle" font-family="Arial, sans-serif" font-size="11" fill="#94a3b8">THREAT DETECTED</text>

  <!-- Floating particles between cards -->
  <circle cx="730" cy="340" r="2" fill="#3b82f6" opacity="0.5">
    <animate attributeName="cy" values="340;330;340" dur="3s" repeatCount="indefinite"/>
  </circle>
  <circle cx="960" cy="290" r="1.5" fill="#f43f5e" opacity="0.4">
    <animate attributeName="cy" values="290;280;290" dur="2.5s" repeatCount="indefinite"/>
  </circle>
  <circle cx="800" cy="270" r="2.5" fill="#8b5cf6" opacity="0.35">
    <animate attributeName="cy" values="270;258;270" dur="4s" repeatCount="indefinite"/>
  </circle>
  <circle cx="1000" cy="380" r="1.8" fill="#3b82f6" opacity="0.3">
    <animate attributeName="cx" values="1000;1010;1000" dur="3.5s" repeatCount="indefinite"/>
  </circle>
  <circle cx="680" cy="420" r="1.2" fill="#f43f5e" opacity="0.45">
    <animate attributeName="cy" values="420;412;420" dur="2.8s" repeatCount="indefinite"/>
  </circle>

  <!-- Card 2 (middle) - Rust/Code -->
  <g filter="url(#shadow)">
    <rect x="680" y="160" width="260" height="260" rx="16" fill="#1e293b" fill-opacity="0.5" stroke="url(#cardBorder2)" stroke-width="1.5"/>
    <rect x="680" y="160" width="260" height="260" rx="16" fill="#fff" fill-opacity="0.05"/>
  </g>
  <!-- Rust gear icon -->
  <g transform="translate(810, 270)">
    <circle cx="0" cy="0" r="32" fill="none" stroke="#fb923c" stroke-width="3" opacity="0.8"/>
    <circle cx="0" cy="0" r="20" fill="none" stroke="#fb923c" stroke-width="2.5" opacity="0.6"/>
    <circle cx="0" cy="0" r="8" fill="#fb923c" opacity="0.7"/>
    <!-- Gear teeth -->
    <g stroke="#fb923c" stroke-width="3" opacity="0.8">
      <line x1="0" y1="-32" x2="0" y2="-40"/>
      <line x1="28" y1="-16" x2="35" y2="-20"/>
      <line x1="28" y1="16" x2="35" y2="20"/>
      <line x1="0" y1="32" x2="0" y2="40"/>
      <line x1="-28" y1="16" x2="-35" y2="20"/>
      <line x1="-28" y1="-16" x2="-35" y2="-20"/>
    </g>
    <!-- R letter -->
    <text x="0" y="6" text-anchor="middle" font-family="Arial, sans-serif" font-size="14" font-weight="bold" fill="#fff">R</text>
  </g>
  <text x="810" y="340" text-anchor="middle" font-family="Arial, sans-serif" font-size="13" fill="#fb923c" font-weight="600" letter-spacing="1">RUST SECURITY</text>
  <text x="810" y="358" text-anchor="middle" font-family="Arial, sans-serif" font-size="11" fill="#94a3b8">MEMORY SAFE CODE</text>

  <!-- Card 1 (front, top) - Shield/Security -->
  <g filter="url(#shadow)">
    <rect x="760" y="60" width="280" height="240" rx="16" fill="#1e293b" fill-opacity="0.55" stroke="url(#cardBorder1)" stroke-width="1.5"/>
    <rect x="760" y="60" width="280" height="240" rx="16" fill="#fff" fill-opacity="0.06"/>
  </g>
  <!-- Shield icon -->
  <g transform="translate(900, 155)" filter="url(#cardGlow)">
    <path d="M0-55 L45-35 L45 15 C45 45 0 70 0 70 C0 70 -45 45 -45 15 L-45-35 Z" fill="url(#shieldGrad)" opacity="0.85" stroke="#60a5fa" stroke-width="1.5"/>
    <path d="M0-40 L32-24 L32 10 C32 32 0 52 0 52 C0 52 -32 32 -32 10 L-32-24 Z" fill="#0f172a" opacity="0.4"/>
    <!-- Checkmark -->
    <polyline points="-16,5 -4,18 20,-10" fill="none" stroke="#4ade80" stroke-width="4" stroke-linecap="round" stroke-linejoin="round"/>
  </g>
  <text x="900" y="240" text-anchor="middle" font-family="Arial, sans-serif" font-size="13" fill="#60a5fa" font-weight="600" letter-spacing="1">COMPLIANCE</text>
  <text x="900" y="258" text-anchor="middle" font-family="Arial, sans-serif" font-size="11" fill="#94a3b8">VERIFIED SECURE</text>

  <!-- More floating particles -->
  <circle cx="1060" cy="150" r="1.5" fill="#60a5fa" opacity="0.4">
    <animate attributeName="cy" values="150;140;150" dur="3.2s" repeatCount="indefinite"/>
  </circle>
  <circle cx="670" cy="200" r="2" fill="#f43f5e" opacity="0.3">
    <animate attributeName="cx" values="670;678;670" dur="2.7s" repeatCount="indefinite"/>
  </circle>
  <circle cx="1080" cy="400" r="1.8" fill="#8b5cf6" opacity="0.35">
    <animate attributeName="cy" values="400;390;400" dur="3.8s" repeatCount="indefinite"/>
  </circle>

  <!-- ============ LEFT SIDE: Text Content ============ -->

  <!-- Category pill -->
  <rect x="60" y="80" width="160" height="32" rx="16" fill="url(#accentGrad)" opacity="0.9"/>
  <text x="140" y="101" text-anchor="middle" font-family="Arial, sans-serif" font-size="12" fill="#fff" font-weight="700" letter-spacing="1.5">WEEKLY DIGEST</text>

  <!-- Title -->
  <text x="60" y="170" font-family="Arial, sans-serif" font-size="46" fill="#fff" font-weight="800" letter-spacing="-0.5">Tech Security</text>
  <text x="60" y="225" font-family="Arial, sans-serif" font-size="46" fill="#fff" font-weight="800" letter-spacing="-0.5">Weekly</text>
  <text x="60" y="295" font-family="Arial, sans-serif" font-size="42" font-weight="700" letter-spacing="-0.5">
    <tspan fill="#3b82f6">Digest </tspan>
    <tspan fill="#f43f5e">Data </tspan>
    <tspan fill="#fb923c">Rust</tspan>
  </text>

  <!-- Thin gradient accent line -->
  <rect x="60" y="315" width="280" height="3" rx="1.5" fill="url(#accentGradH)" opacity="0.8"/>

  <!-- Tag chips -->
  <g transform="translate(60, 345)">
    <!-- Tag 1 -->
    <rect x="0" y="0" width="110" height="30" rx="15" fill="#3b82f6" fill-opacity="0.15" stroke="#3b82f6" stroke-opacity="0.4" stroke-width="1"/>
    <text x="55" y="20" text-anchor="middle" font-family="Arial, sans-serif" font-size="11" fill="#60a5fa" font-weight="600">#DataBreach</text>
    <!-- Tag 2 -->
    <rect x="120" y="0" width="120" height="30" rx="15" fill="#f43f5e" fill-opacity="0.15" stroke="#f43f5e" stroke-opacity="0.4" stroke-width="1"/>
    <text x="180" y="20" text-anchor="middle" font-family="Arial, sans-serif" font-size="11" fill="#fb7185" font-weight="600">#RustSecurity</text>
    <!-- Tag 3 -->
    <rect x="250" y="0" width="110" height="30" rx="15" fill="#8b5cf6" fill-opacity="0.15" stroke="#8b5cf6" stroke-opacity="0.4" stroke-width="1"/>
    <text x="305" y="20" text-anchor="middle" font-family="Arial, sans-serif" font-size="11" fill="#a78bfa" font-weight="600">#AIThreat</text>
  </g>

  <!-- Date -->
  <text x="60" y="430" font-family="Arial, sans-serif" font-size="14" fill="#64748b" font-weight="500" letter-spacing="2">FEBRUARY 21, 2026</text>

  <!-- Decorative small dots -->
  <circle cx="60" cy="460" r="3" fill="#3b82f6" opacity="0.5"/>
  <circle cx="75" cy="460" r="3" fill="#f43f5e" opacity="0.5"/>
  <circle cx="90" cy="460" r="3" fill="#8b5cf6" opacity="0.5"/>

  <!-- Footer -->
  <line x1="60" y1="560" x2="500" y2="560" stroke="#1e293b" stroke-width="1"/>
  <text x="60" y="585" font-family="Arial, sans-serif" font-size="13" fill="#475569" letter-spacing="1">tech.2twodragon.com</text>

  <!-- Bottom gradient bar -->
  <rect x="0" y="624" width="1200" height="6" fill="url(#accentGradH)"/>
</svg>