<svg xmlns="http://www.w3.org/2000/svg" viewBox="0 0 1200 630">
  <defs>
    <linearGradient id="bg" x1="0%" y1="0%" x2="100%" y2="100%">
      <stop offset="0%" stop-color="#08111f"/>
      <stop offset="55%" stop-color="#101b34"/>
      <stop offset="100%" stop-color="#140b25"/>
    </linearGradient>
    <linearGradient id="blue" x1="0%" y1="0%" x2="100%" y2="100%">
      <stop offset="0%" stop-color="#5eead4"/>
      <stop offset="100%" stop-color="#2563eb"/>
    </linearGradient>
    <linearGradient id="red" x1="0%" y1="0%" x2="100%" y2="100%">
      <stop offset="0%" stop-color="#fb7185"/>
      <stop offset="100%" stop-color="#dc2626"/>
    </linearGradient>
    <linearGradient id="green" x1="0%" y1="0%" x2="100%" y2="100%">
      <stop offset="0%" stop-color="#6ee7b7"/>
      <stop offset="100%" stop-color="#059669"/>
    </linearGradient>
    <filter id="blurGlow" x="-40%" y="-40%" width="180%" height="180%">
      <feGaussianBlur stdDeviation="20"/>
    </filter>
    <filter id="shadow" x="-20%" y="-20%" width="140%" height="140%">
      <feDropShadow dx="0" dy="10" stdDeviation="18" flood-color="#020617" flood-opacity="0.45"/>
    </filter>
  </defs>
  <rect width="1200" height="630" fill="url(#bg)"/>
  <circle cx="260" cy="150" r="170" fill="#2563eb" opacity="0.14" filter="url(#blurGlow)"/>
  <circle cx="885" cy="225" r="170" fill="#dc2626" opacity="0.14" filter="url(#blurGlow)"/>
  <circle cx="980" cy="470" r="180" fill="#059669" opacity="0.12" filter="url(#blurGlow)"/>

  <rect x="70" y="58" width="170" height="34" rx="17" fill="#0f172a" stroke="#334155"/>
  <text x="155" y="81" font-family="Arial, sans-serif" font-size="14" font-weight="700" fill="#cbd5e1" text-anchor="middle">WEEKLY DIGEST</text>

  <text x="90" y="164" font-family="Arial, sans-serif" font-size="54" font-weight="700" fill="#f8fafc">AI Sandbox Escape</text>
  <text x="92" y="204" font-family="Arial, sans-serif" font-size="20" fill="#93c5fd">DNS Exfil  Ransomware  GKE</text>

  <g transform="translate(560 182)" filter="url(#shadow)">
    <rect x="-155" y="-108" width="310" height="220" rx="26" fill="#0f172a" stroke="#38bdf8" stroke-width="2"/>
    <rect x="-120" y="-68" width="240" height="104" rx="20" fill="#111c35" stroke="#60a5fa" opacity="0.95"/>
    <circle cx="0" cy="-16" r="42" fill="#12345c" stroke="#7dd3fc" stroke-width="2"/>
    <text x="0" y="-7" font-family="Arial, sans-serif" font-size="28" font-weight="700" fill="#dbeafe" text-anchor="middle">AI</text>
    <circle cx="-70" cy="40" r="14" fill="#0b1220" stroke="#64748b"/>
    <circle cx="0" cy="40" r="14" fill="#0b1220" stroke="#64748b"/>
    <circle cx="70" cy="40" r="14" fill="#0b1220" stroke="#64748b"/>
    <text x="0" y="90" font-family="Arial, sans-serif" font-size="14" font-weight="700" fill="#7dd3fc" text-anchor="middle">SANDBOX</text>
  </g>

  <g stroke="#fb7185" stroke-width="4" fill="none" stroke-linecap="round" stroke-dasharray="12 10">
    <path d="M720 220 C820 190 910 210 995 255"/>
    <path d="M425 256 C325 286 245 330 190 395"/>
    <path d="M608 346 C655 402 740 448 815 470"/>
  </g>
  <polygon points="988,244 1020,256 990,270" fill="#fb7185"/>
  <polygon points="198,382 170,404 208,408" fill="#fb7185"/>
  <polygon points="806,455 834,478 796,484" fill="#fb7185"/>

  <g transform="translate(1020 258)" filter="url(#shadow)">
    <circle r="58" fill="#2a1217" stroke="#fb7185" stroke-width="2"/>
    <circle r="16" fill="#fecdd3"/>
    <circle cx="-28" cy="-12" r="10" fill="#fecdd3"/>
    <circle cx="28" cy="12" r="10" fill="#fecdd3"/>
    <text x="0" y="92" font-family="Arial, sans-serif" font-size="15" font-weight="700" fill="#fda4af" text-anchor="middle">DNS EXFIL</text>
  </g>

  <g transform="translate(155 420)" filter="url(#shadow)">
    <rect x="-55" y="-12" width="110" height="84" rx="16" fill="#221617" stroke="#f59e0b" stroke-width="2"/>
    <path d="M-22 -12 v-24 c0-26 44-26 44 0 v24" stroke="#fbbf24" stroke-width="8" fill="none" stroke-linecap="round"/>
    <circle cx="0" cy="28" r="10" fill="#fbbf24"/>
    <rect x="-4" y="36" width="8" height="18" rx="4" fill="#fbbf24"/>
    <text x="0" y="104" font-family="Arial, sans-serif" font-size="15" font-weight="700" fill="#fbbf24" text-anchor="middle">RANSOM</text>
  </g>

  <g transform="translate(840 478)" filter="url(#shadow)">
    <circle cx="-40" cy="-30" r="28" fill="#09261d" stroke="#34d399" stroke-width="2"/>
    <circle cx="40" cy="-30" r="28" fill="#09261d" stroke="#34d399" stroke-width="2"/>
    <circle cx="0" cy="35" r="28" fill="#09261d" stroke="#34d399" stroke-width="2"/>
    <path d="M-15 -22 L15 -22" stroke="#34d399" stroke-width="2"/>
    <path d="M-24 -12 L0 18" stroke="#34d399" stroke-width="2"/>
    <path d="M24 -12 L0 18" stroke="#34d399" stroke-width="2"/>
    <text x="0" y="92" font-family="Arial, sans-serif" font-size="15" font-weight="700" fill="#6ee7b7" text-anchor="middle">GKE MESH</text>
  </g>

  <rect x="70" y="532" width="1060" height="1.5" fill="#334155" opacity="0.8"/>
  <text x="90" y="574" font-family="Arial, sans-serif" font-size="14" fill="#94a3b8">March 18 2026</text>
  <text x="1110" y="574" font-family="Arial, sans-serif" font-size="14" fill="#94a3b8" text-anchor="end">tech.2twodragon.com</text>
</svg>
