<svg xmlns="http://www.w3.org/2000/svg" viewBox="0 0 1200 630" width="1200" height="630" role="img" aria-label="Research-based weekly digest cover: Malicious KICS Docker image and VS Code extension supply chain attack against Checkmarx, self-propagating npm worm steals developer tokens, Harvester deploys Linux GoGra backdoor in South Asia via Microsoft Graph API">
<!-- profile: high-quality-cover (L20 Hero+2-Card, research-based) -->
<title>Weekly digest 2026-04-23: KICS Docker malicious image hits Checkmarx, npm self-propagating worm, Harvester GoGra Linux backdoor via MS Graph</title>
<defs>
  <linearGradient id="bgSpread" x1="0%" y1="0%" x2="100%" y2="100%">
    <stop offset="0%" stop-color="#0B1326"/>
    <stop offset="55%" stop-color="#0D1530"/>
    <stop offset="100%" stop-color="#141034"/>
  </linearGradient>
  <linearGradient id="heroPanel" x1="0%" y1="0%" x2="0%" y2="100%">
    <stop offset="0%" stop-color="#112838"/>
    <stop offset="100%" stop-color="#0C1E2E"/>
  </linearGradient>
  <linearGradient id="topRightPanel" x1="0%" y1="0%" x2="0%" y2="100%">
    <stop offset="0%" stop-color="#2A0F16"/>
    <stop offset="100%" stop-color="#1E0A12"/>
  </linearGradient>
  <linearGradient id="bottomRightPanel" x1="0%" y1="0%" x2="0%" y2="100%">
    <stop offset="0%" stop-color="#2A1A0C"/>
    <stop offset="100%" stop-color="#1E1508"/>
  </linearGradient>
  <linearGradient id="dockerBody" x1="0%" y1="0%" x2="0%" y2="100%">
    <stop offset="0%" stop-color="#2CCCE4"/>
    <stop offset="100%" stop-color="#0891B2"/>
  </linearGradient>
  <linearGradient id="maliciousBadge" x1="0%" y1="0%" x2="0%" y2="100%">
    <stop offset="0%" stop-color="#E63946"/>
    <stop offset="100%" stop-color="#7A1D00"/>
  </linearGradient>
  <radialGradient id="hotBlue" cx="50%" cy="50%" r="50%">
    <stop offset="0%" stop-color="#3A86FF" stop-opacity="0.55"/>
    <stop offset="100%" stop-color="#3A86FF" stop-opacity="0"/>
  </radialGradient>
  <radialGradient id="hotRed" cx="50%" cy="50%" r="50%">
    <stop offset="0%" stop-color="#E63946" stop-opacity="0.55"/>
    <stop offset="100%" stop-color="#E63946" stop-opacity="0"/>
  </radialGradient>
  <radialGradient id="hotAmber" cx="50%" cy="50%" r="50%">
    <stop offset="0%" stop-color="#FFB703" stop-opacity="0.5"/>
    <stop offset="100%" stop-color="#FFB703" stop-opacity="0"/>
  </radialGradient>
  <pattern id="envGrid" x="0" y="0" width="40" height="40" patternUnits="userSpaceOnUse">
    <circle cx="20" cy="20" r="0.8" fill="#2A3256" opacity="0.6"/>
  </pattern>
  <filter id="softShadow" x="-10%" y="-10%" width="130%" height="130%">
    <feGaussianBlur in="SourceAlpha" stdDeviation="3"/>
    <feOffset dx="2" dy="4"/>
    <feComponentTransfer><feFuncA type="linear" slope="0.55"/></feComponentTransfer>
    <feMerge><feMergeNode/><feMergeNode in="SourceGraphic"/></feMerge>
  </filter>
  <filter id="textShadow" x="-10%" y="-10%" width="130%" height="130%">
    <feGaussianBlur in="SourceAlpha" stdDeviation="1.2"/>
    <feOffset dx="1" dy="1.5"/>
    <feComponentTransfer><feFuncA type="linear" slope="0.7"/></feComponentTransfer>
    <feMerge><feMergeNode/><feMergeNode in="SourceGraphic"/></feMerge>
  </filter>
</defs>

<rect width="1200" height="630" fill="url(#bgSpread)"/>
<rect width="1200" height="630" fill="url(#envGrid)"/>

<!-- Ambient glows -->
<circle cx="300" cy="200" r="130" fill="url(#hotBlue)">
  <animate attributeName="opacity" values="0.55;0.9;0.55" dur="6.4s" repeatCount="indefinite"/>
</circle>
<circle cx="950" cy="200" r="110" fill="url(#hotRed)">
  <animate attributeName="opacity" values="0.45;0.85;0.45" dur="5.8s" repeatCount="indefinite"/>
</circle>
<circle cx="980" cy="480" r="110" fill="url(#hotAmber)">
  <animate attributeName="opacity" values="0.4;0.75;0.4" dur="7.2s" repeatCount="indefinite"/>
</circle>

<!-- Starfield -->
<g fill="#8FB8FF">
  <circle cx="160" cy="68" r="1.2"><animate attributeName="opacity" values="0.2;1;0.2" dur="3.1s" repeatCount="indefinite"/></circle>
  <circle cx="420" cy="74" r="1.0"><animate attributeName="opacity" values="0.2;0.9;0.2" dur="4.4s" repeatCount="indefinite"/></circle>
  <circle cx="720" cy="70" r="1.3"><animate attributeName="opacity" values="0.25;1;0.25" dur="3.7s" repeatCount="indefinite"/></circle>
  <circle cx="1040" cy="78" r="0.9"><animate attributeName="opacity" values="0.2;0.85;0.2" dur="5.2s" repeatCount="indefinite"/></circle>
</g>

<!-- Top header -->
<rect x="0" y="0" width="1200" height="56" fill="#050813" opacity="0.92"/>
<text x="36" y="36" font-family="Inter, Helvetica, Arial, sans-serif" font-size="18" font-weight="700" fill="#8FB8FF" letter-spacing="2.5">WEEKLY DIGEST</text>
<text x="1164" y="36" font-family="Inter, Helvetica, Arial, sans-serif" font-size="15" font-weight="600" fill="#7DA3D9" letter-spacing="1.5" text-anchor="end">2026.04.23</text>
<rect x="0" y="54" width="1200" height="2" fill="#3A86FF" opacity="0.85">
  <animate attributeName="opacity" values="0.4;1;0.4" dur="4.8s" repeatCount="indefinite"/>
</rect>

<!-- HERO LEFT: KICS Docker supply chain -->
<rect x="32" y="80" width="600" height="510" rx="14" ry="14" fill="url(#heroPanel)" stroke="#3A86FF" stroke-width="1.6" opacity="0.98"/>
<rect x="32" y="80" width="600" height="4" fill="#3A86FF" opacity="0.85">
  <animate attributeName="opacity" values="0.5;1;0.5" dur="3.8s" repeatCount="indefinite"/>
</rect>

<g filter="url(#textShadow)">
  <text x="54" y="112" font-family="Inter, Helvetica, Arial, sans-serif" font-size="13" font-weight="700" fill="#7DA3D9" letter-spacing="3">HIGH SEVERITY  /  01</text>
  <text x="54" y="146" font-family="Inter, Helvetica, Arial, sans-serif" font-size="32" font-weight="800" fill="#F8FAFC">KICS Docker Supply Chain Hit</text>
  <text x="54" y="176" font-family="Inter, Helvetica, Arial, sans-serif" font-size="18" font-weight="500" fill="#CBD5E1">Malicious image + VS Code ext -&gt; Checkmarx</text>
</g>

<!-- Docker registry to CI/CD pipeline to Checkmarx target -->
<g transform="translate(90,216)">
  <!-- Registry source box (top) -->
  <g filter="url(#softShadow)">
    <rect x="0" y="0" width="180" height="60" rx="8" fill="#0A1B2E" stroke="#3A86FF" stroke-width="1.6"/>
    <!-- Docker whale body (simplified, no emoji) -->
    <g transform="translate(18,12)">
      <rect x="0" y="16" width="44" height="18" rx="2" fill="url(#dockerBody)"/>
      <g fill="url(#dockerBody)">
        <rect x="0" y="2" width="8" height="8" rx="1"/>
        <rect x="10" y="2" width="8" height="8" rx="1"/>
        <rect x="20" y="2" width="8" height="8" rx="1"/>
        <rect x="10" y="-8" width="8" height="8" rx="1"/>
      </g>
      <!-- whale tail -->
      <path d="M44 22 L54 16 L54 30 Z" fill="url(#dockerBody)"/>
    </g>
    <text x="110" y="24" font-family="Inter, monospace" font-size="11" font-weight="800" fill="#F5F7FA">kics/base:latest</text>
    <text x="110" y="40" font-family="Inter, monospace" font-size="9" font-weight="700" fill="#8FB8FF">docker pull</text>
    <!-- Malicious stamp -->
    <g transform="translate(148,-8)">
      <rect x="0" y="0" width="48" height="20" rx="3" fill="url(#maliciousBadge)" filter="url(#softShadow)">
        <animate attributeName="opacity" values="0.85;1;0.85" dur="1.6s" repeatCount="indefinite"/>
      </rect>
      <text x="24" y="14" text-anchor="middle" font-family="Inter, monospace" font-size="9" font-weight="900" fill="#FFF5F5">POISON</text>
    </g>
  </g>

  <!-- Pipeline arrow down -->
  <g transform="translate(90,72)">
    <path d="M0 0 L0 60" stroke="#3A86FF" stroke-width="2.2" stroke-dasharray="4 3" fill="none">
      <animate attributeName="stroke-dashoffset" values="0;-14" dur="1.4s" repeatCount="indefinite"/>
    </path>
    <!-- moving payload blobs -->
    <g fill="#F87171">
      <circle r="3"><animateMotion path="M0 -4 L0 62" dur="2.6s" repeatCount="indefinite"/></circle>
      <circle r="2.4" opacity="0.7"><animateMotion path="M0 -4 L0 62" dur="2.6s" begin="0.9s" repeatCount="indefinite"/></circle>
    </g>
  </g>

  <!-- CI/CD pipe band -->
  <g transform="translate(0,84)" filter="url(#softShadow)">
    <rect x="0" y="0" width="180" height="48" rx="8" fill="#152740" stroke="#8FB8FF" stroke-width="1.4"/>
    <text x="90" y="18" text-anchor="middle" font-family="Inter, monospace" font-size="10" font-weight="800" fill="#8FB8FF">CI / CD BUILD</text>
    <g transform="translate(16,26)">
      <rect x="0" y="0" width="22" height="14" rx="2" fill="#0A1B2E" stroke="#3A86FF" stroke-width="0.8"/>
      <text x="11" y="10" text-anchor="middle" font-family="Inter, monospace" font-size="7" font-weight="800" fill="#8FB8FF">LINT</text>
      <rect x="28" y="0" width="22" height="14" rx="2" fill="#0A1B2E" stroke="#3A86FF" stroke-width="0.8"/>
      <text x="39" y="10" text-anchor="middle" font-family="Inter, monospace" font-size="7" font-weight="800" fill="#8FB8FF">SAST</text>
      <rect x="56" y="0" width="22" height="14" rx="2" fill="#0A1B2E" stroke="#3A86FF" stroke-width="0.8"/>
      <text x="67" y="10" text-anchor="middle" font-family="Inter, monospace" font-size="7" font-weight="800" fill="#8FB8FF">SCAN</text>
      <rect x="84" y="0" width="22" height="14" rx="2" fill="#0A1B2E" stroke="#3A86FF" stroke-width="0.8"/>
      <text x="95" y="10" text-anchor="middle" font-family="Inter, monospace" font-size="7" font-weight="800" fill="#8FB8FF">PUSH</text>
      <rect x="112" y="0" width="36" height="14" rx="2" fill="#1E0A14" stroke="#E63946" stroke-width="0.8"/>
      <text x="130" y="10" text-anchor="middle" font-family="Inter, monospace" font-size="7" font-weight="800" fill="#FCA5A5">TAMPERED</text>
    </g>
  </g>

  <!-- arrow down -->
  <g transform="translate(90,140)">
    <path d="M0 0 L0 36" stroke="#E63946" stroke-width="2.2" stroke-dasharray="3 3" fill="none">
      <animate attributeName="stroke-dashoffset" values="0;-12" dur="1.2s" repeatCount="indefinite"/>
    </path>
  </g>

  <!-- Checkmarx target -->
  <g transform="translate(0,180)" filter="url(#softShadow)">
    <rect x="0" y="0" width="180" height="70" rx="8" fill="#1E0A14" stroke="#E63946" stroke-width="1.8"/>
    <g transform="translate(18,14)">
      <!-- checkmark shield (Checkmarx-style) -->
      <path d="M0 0 L20 -6 L40 0 L40 24 Q40 36 20 44 Q0 36 0 24 Z" fill="#E63946" stroke="#FCA5A5" stroke-width="1.2"/>
      <path d="M10 18 L18 26 L30 10" stroke="#FFFFFF" stroke-width="2.6" fill="none" stroke-linecap="round" stroke-linejoin="round"/>
    </g>
    <text x="72" y="32" font-family="Inter, monospace" font-size="13" font-weight="800" fill="#F5F7FA">Checkmarx</text>
    <text x="72" y="52" font-family="Inter, monospace" font-size="10" font-weight="700" fill="#FCA5A5">SAST supply chain</text>
  </g>

  <!-- VS Code extension sidecar (right of pipeline) -->
  <g transform="translate(210,30)" filter="url(#softShadow)">
    <rect x="0" y="0" width="150" height="100" rx="8" fill="#0A1B2E" stroke="#3A86FF" stroke-width="1.4"/>
    <rect x="0" y="0" width="150" height="22" fill="#152740"/>
    <circle cx="10" cy="11" r="2.5" fill="#E63946"/>
    <circle cx="22" cy="11" r="2.5" fill="#FFB703"/>
    <circle cx="34" cy="11" r="2.5" fill="#4ADE80"/>
    <text x="75" y="15" text-anchor="middle" font-family="Inter, monospace" font-size="9" font-weight="700" fill="#8FB8FF">VS Code Extension</text>
    <!-- code lines -->
    <g font-family="Inter, monospace" font-size="8" fill="#8FB8FF">
      <text x="10" y="38">1  import { hook } from 'kics';</text>
      <text x="10" y="52" fill="#F87171">2  hook.stealToken();</text>
      <text x="10" y="66" fill="#F87171">3  hook.uploadC2();</text>
      <text x="10" y="80">4  export default kics;</text>
    </g>
    <rect x="0" y="88" width="150" height="12" rx="0 0 8 8" fill="#1E0A14"/>
    <text x="75" y="98" text-anchor="middle" font-family="Inter, monospace" font-size="8" font-weight="800" fill="#FCA5A5">MALICIOUS PUBLISHED</text>
    <!-- warn badge -->
    <g transform="translate(130,-8)">
      <circle r="10" fill="#E63946" stroke="#FFFFFF" stroke-width="1.4" filter="url(#softShadow)">
        <animate attributeName="opacity" values="0.7;1;0.7" dur="1.5s" repeatCount="indefinite"/>
      </circle>
      <text y="3" text-anchor="middle" font-family="Inter, monospace" font-size="10" font-weight="900" fill="#FFFFFF">!</text>
    </g>
  </g>

  <!-- Spark dots around payload path -->
  <g fill="#F87171">
    <circle cx="95" cy="86" r="1.6"><animate attributeName="opacity" values="0;1;0" dur="2s" repeatCount="indefinite"/></circle>
    <circle cx="92" cy="160" r="1.6"><animate attributeName="opacity" values="0;1;0" dur="1.8s" begin="0.4s" repeatCount="indefinite"/></circle>
    <circle cx="95" cy="232" r="1.6"><animate attributeName="opacity" values="0;1;0" dur="2.2s" begin="0.8s" repeatCount="indefinite"/></circle>
  </g>
</g>

<!-- Hero bottom tag -->
<g transform="translate(54,536)">
  <rect x="0" y="0" width="220" height="24" rx="3" fill="#E63946" opacity="0.95"/>
  <text x="110" y="17" text-anchor="middle" font-family="Inter, Helvetica, Arial, sans-serif" font-size="12" font-weight="700" fill="#FFFFFF">SUPPLY CHAIN COMPROMISE</text>
</g>
<text x="292" y="554" font-family="Inter, Helvetica, Arial, sans-serif" font-size="13" font-weight="600" fill="#A5B4C4" font-style="italic">The Hacker News  /  Apr 22</text>

<!-- TOP RIGHT: npm self-propagating worm -->
<rect x="652" y="80" width="516" height="248" rx="14" ry="14" fill="url(#topRightPanel)" stroke="#E63946" stroke-width="1.6" opacity="0.97"/>
<rect x="652" y="80" width="516" height="4" fill="#E63946" opacity="0.85">
  <animate attributeName="opacity" values="0.5;1;0.5" dur="4.2s" repeatCount="indefinite"/>
</rect>
<g filter="url(#textShadow)">
  <text x="670" y="110" font-family="Inter, Helvetica, Arial, sans-serif" font-size="12" font-weight="700" fill="#F87171" letter-spacing="3">HIGH  /  02</text>
  <text x="670" y="140" font-family="Inter, Helvetica, Arial, sans-serif" font-size="24" font-weight="800" fill="#F5F7FA">npm Self-Propagating Worm</text>
  <text x="670" y="164" font-family="Inter, Helvetica, Arial, sans-serif" font-size="14" font-weight="500" fill="#FBB6BD">Steals dev tokens - hijacks packages</text>
</g>

<!-- Central npm package with spreading worm tendrils -->
<g transform="translate(780,250)">
  <!-- source package (center) -->
  <g filter="url(#softShadow)">
    <rect x="-30" y="-22" width="60" height="44" rx="4" fill="#1E0A14" stroke="#E63946" stroke-width="1.6"/>
    <rect x="-30" y="-22" width="60" height="14" fill="#3A0F1A"/>
    <text x="0" y="-10" text-anchor="middle" font-family="Inter, monospace" font-size="8" font-weight="800" fill="#FCA5A5">npm</text>
    <text x="0" y="7" text-anchor="middle" font-family="Inter, monospace" font-size="10" font-weight="900" fill="#F5F7FA">WORM</text>
    <circle cx="-20" cy="-15" r="2.5" fill="#FCA5A5">
      <animate attributeName="opacity" values="0.4;1;0.4" dur="1.4s" repeatCount="indefinite"/>
    </circle>
  </g>
  <!-- tendrils spreading (6 dotted paths out) -->
  <g stroke="#E63946" stroke-width="1.2" stroke-dasharray="3 2" fill="none" opacity="0.7">
    <line x1="-30" y1="-8" x2="-90" y2="-40"/>
    <line x1="-30" y1="8" x2="-90" y2="40"/>
    <line x1="30" y1="-8" x2="90" y2="-40"/>
    <line x1="30" y1="8" x2="90" y2="40"/>
    <line x1="0" y1="-22" x2="-40" y2="-58"/>
    <line x1="0" y1="22" x2="40" y2="58"/>
  </g>
  <!-- Victim packages (6) -->
  <g>
    <g transform="translate(-96,-44)">
      <rect x="0" y="0" width="32" height="16" rx="2" fill="#1E0A14" stroke="#F87171" stroke-width="1"/>
      <text x="16" y="11" text-anchor="middle" font-family="Inter, monospace" font-size="8" font-weight="800" fill="#FCA5A5">pkg-a</text>
    </g>
    <g transform="translate(-96,32)">
      <rect x="0" y="0" width="32" height="16" rx="2" fill="#1E0A14" stroke="#F87171" stroke-width="1"/>
      <text x="16" y="11" text-anchor="middle" font-family="Inter, monospace" font-size="8" font-weight="800" fill="#FCA5A5">pkg-b</text>
    </g>
    <g transform="translate(64,-44)">
      <rect x="0" y="0" width="32" height="16" rx="2" fill="#1E0A14" stroke="#F87171" stroke-width="1"/>
      <text x="16" y="11" text-anchor="middle" font-family="Inter, monospace" font-size="8" font-weight="800" fill="#FCA5A5">pkg-c</text>
    </g>
    <g transform="translate(64,32)">
      <rect x="0" y="0" width="32" height="16" rx="2" fill="#1E0A14" stroke="#F87171" stroke-width="1"/>
      <text x="16" y="11" text-anchor="middle" font-family="Inter, monospace" font-size="8" font-weight="800" fill="#FCA5A5">pkg-d</text>
    </g>
    <g transform="translate(-56,-68)">
      <rect x="0" y="0" width="32" height="16" rx="2" fill="#1E0A14" stroke="#F87171" stroke-width="1"/>
      <text x="16" y="11" text-anchor="middle" font-family="Inter, monospace" font-size="8" font-weight="800" fill="#FCA5A5">pkg-e</text>
    </g>
    <g transform="translate(24,52)">
      <rect x="0" y="0" width="32" height="16" rx="2" fill="#1E0A14" stroke="#F87171" stroke-width="1"/>
      <text x="16" y="11" text-anchor="middle" font-family="Inter, monospace" font-size="8" font-weight="800" fill="#FCA5A5">pkg-f</text>
    </g>
  </g>
  <!-- worm particles traveling -->
  <g fill="#FCA5A5">
    <circle r="2.4"><animateMotion path="M0 0 L-90 -40" dur="1.8s" repeatCount="indefinite"/></circle>
    <circle r="2.4"><animateMotion path="M0 0 L-90 40" dur="2.0s" begin="0.3s" repeatCount="indefinite"/></circle>
    <circle r="2.4"><animateMotion path="M0 0 L90 -40" dur="2.2s" begin="0.6s" repeatCount="indefinite"/></circle>
    <circle r="2.4"><animateMotion path="M0 0 L90 40" dur="1.9s" begin="0.9s" repeatCount="indefinite"/></circle>
  </g>
</g>

<!-- KPI card top-right -->
<g transform="translate(1080,244)" filter="url(#softShadow)">
  <rect x="-80" y="-60" width="160" height="120" rx="12" fill="#1E0A14" stroke="#E63946" stroke-width="2"/>
  <text x="0" y="-32" text-anchor="middle" font-family="Inter, Helvetica, Arial, sans-serif" font-size="11" font-weight="700" letter-spacing="2" fill="#F87171">PROPAGATION</text>
  <text x="0" y="14" text-anchor="middle" font-family="Inter, Helvetica, Arial, sans-serif" font-size="36" font-weight="900" fill="#F5F7FA">SELF</text>
  <text x="0" y="40" text-anchor="middle" font-family="Inter, Helvetica, Arial, sans-serif" font-size="11" font-weight="600" fill="#FBB6BD">dev token theft</text>
</g>

<!-- BOTTOM RIGHT: Harvester GoGra Linux backdoor -->
<rect x="652" y="344" width="516" height="246" rx="14" ry="14" fill="url(#bottomRightPanel)" stroke="#FFB703" stroke-width="1.6" opacity="0.97"/>
<rect x="652" y="344" width="516" height="4" fill="#FFB703" opacity="0.85">
  <animate attributeName="opacity" values="0.5;1;0.5" dur="4.6s" repeatCount="indefinite"/>
</rect>
<g filter="url(#textShadow)">
  <text x="670" y="374" font-family="Inter, Helvetica, Arial, sans-serif" font-size="12" font-weight="700" fill="#FFB703" letter-spacing="3">HIGH  /  03</text>
  <text x="670" y="404" font-family="Inter, Helvetica, Arial, sans-serif" font-size="24" font-weight="800" fill="#F5F7FA">Harvester : GoGra Linux Backdoor</text>
  <text x="670" y="428" font-family="Inter, Helvetica, Arial, sans-serif" font-size="14" font-weight="500" fill="#FFD58A">Microsoft Graph API C2 - South Asia target</text>
</g>

<!-- MS Graph API cloud -> SE Asia -> Linux binary -->
<g transform="translate(686,450)">
  <!-- MS Graph cloud -->
  <g filter="url(#softShadow)">
    <path d="M20 20 Q10 20 8 12 Q8 2 20 4 Q26 -6 42 -2 Q58 -6 64 4 Q76 2 76 12 Q74 20 64 20 Z" fill="#0A1B2E" stroke="#FFB703" stroke-width="1.4"/>
    <text x="42" y="17" text-anchor="middle" font-family="Inter, monospace" font-size="10" font-weight="800" fill="#FFD58A">MS Graph</text>
    <text x="42" y="34" text-anchor="middle" font-family="Inter, monospace" font-size="9" font-weight="700" fill="#FFB703">graph.microsoft.com</text>
  </g>

  <!-- arrow to globe -->
  <g transform="translate(90,12)">
    <path d="M0 0 L40 0" stroke="#FFB703" stroke-width="2" stroke-dasharray="3 3" fill="none">
      <animate attributeName="stroke-dashoffset" values="0;-12" dur="1.4s" repeatCount="indefinite"/>
    </path>
  </g>

  <!-- Globe with SE Asia marker -->
  <g transform="translate(160,14)" filter="url(#softShadow)">
    <circle r="32" fill="#0F2538" stroke="#FFB703" stroke-width="1.6"/>
    <!-- latitudes -->
    <g stroke="#FFB703" stroke-width="0.5" fill="none" opacity="0.4">
      <ellipse cx="0" cy="0" rx="32" ry="10"/>
      <ellipse cx="0" cy="0" rx="32" ry="22"/>
      <line x1="-32" y1="0" x2="32" y2="0"/>
      <line x1="0" y1="-32" x2="0" y2="32"/>
    </g>
    <!-- South Asia pin -->
    <g transform="translate(6,-4)">
      <circle r="4" fill="#E63946">
        <animate attributeName="r" values="3;6;3" dur="1.8s" repeatCount="indefinite"/>
      </circle>
      <circle r="2" fill="#FFFFFF"/>
    </g>
    <text x="0" y="52" text-anchor="middle" font-family="Inter, monospace" font-size="9" font-weight="800" fill="#FFD58A">SOUTH ASIA</text>
  </g>

  <!-- arrow to Linux binary -->
  <g transform="translate(210,12)">
    <path d="M0 0 L40 0" stroke="#FFB703" stroke-width="2" stroke-dasharray="3 3" fill="none">
      <animate attributeName="stroke-dashoffset" values="0;-12" dur="1.4s" begin="0.5s" repeatCount="indefinite"/>
    </path>
  </g>

  <!-- Linux terminal with GoGra binary -->
  <g transform="translate(260,-22)" filter="url(#softShadow)">
    <rect x="0" y="0" width="140" height="76" rx="6" fill="#0A1B2E" stroke="#FFB703" stroke-width="1.4"/>
    <rect x="0" y="0" width="140" height="16" fill="#1E1508"/>
    <circle cx="8" cy="8" r="2" fill="#E63946"/>
    <circle cx="18" cy="8" r="2" fill="#FFB703"/>
    <circle cx="28" cy="8" r="2" fill="#4ADE80"/>
    <text x="70" y="12" text-anchor="middle" font-family="Inter, monospace" font-size="8" font-weight="700" fill="#FFD58A">root@victim:~#</text>
    <g font-family="Inter, monospace" font-size="9" fill="#FFD58A">
      <text x="8" y="32">./gogra --daemon</text>
      <text x="8" y="46" fill="#FCA5A5">backdoor installed</text>
      <text x="8" y="60">_
        <animate attributeName="opacity" values="1;0;1" dur="0.9s" repeatCount="indefinite"/>
      </text>
    </g>
  </g>
</g>

<!-- KPI card bottom-right -->
<g transform="translate(1080,470)" filter="url(#softShadow)">
  <rect x="-70" y="-50" width="140" height="110" rx="10" fill="#1E1508" stroke="#FFB703" stroke-width="2"/>
  <text x="0" y="-26" text-anchor="middle" font-family="Inter, Helvetica, Arial, sans-serif" font-size="10" font-weight="700" letter-spacing="2" fill="#FFB703">BACKDOOR</text>
  <text x="0" y="20" text-anchor="middle" font-family="Inter, Helvetica, Arial, sans-serif" font-size="32" font-weight="900" fill="#F5F7FA">GoGra</text>
  <text x="0" y="42" text-anchor="middle" font-family="Inter, Helvetica, Arial, sans-serif" font-size="10" font-weight="600" fill="#FFD58A">Linux : Graph C2</text>
</g>

<!-- Spark accents -->
<g opacity="0.85">
  <g fill="#F87171">
    <circle cx="1100" cy="108" r="1.4"><animate attributeName="opacity" values="0.2;1;0.2" dur="1.8s" repeatCount="indefinite"/></circle>
    <circle cx="1120" cy="108" r="1.4"><animate attributeName="opacity" values="0.2;1;0.2" dur="1.4s" begin="0.3s" repeatCount="indefinite"/></circle>
  </g>
  <g fill="#FFD58A">
    <circle cx="1100" cy="372" r="1.4"><animate attributeName="opacity" values="0.2;1;0.2" dur="1.8s" repeatCount="indefinite"/></circle>
    <circle cx="1120" cy="372" r="1.4"><animate attributeName="opacity" values="0.2;1;0.2" dur="1.6s" begin="0.3s" repeatCount="indefinite"/></circle>
  </g>
</g>

<!-- cover-qr: https://tech.2twodragon.com/posts/2026/04/23/Tech_Security_Weekly_Digest_AI_Docker_Go_API/ : 41x41 -->
<g transform="translate(1080,504)" filter="url(#softShadow)">
  <rect x="-8" y="-8" width="100" height="100" rx="6" fill="#FFFFFF"/>
  <path fill="#0A1020" d="M0.0 0.0h14.341v2.049h-14.341z M16.39 0.0h6.146v2.049h-6.146z M24.585 0.0h2.049v2.049h-2.049z M30.732 0.0h2.049v2.049h-2.049z M36.878 0.0h2.049v2.049h-2.049z M43.024 0.0h4.098v2.049h-4.098z M51.22 0.0h12.293v2.049h-12.293z M69.659 0.0h14.341v2.049h-14.341z M0.0 2.049h2.049v2.049h-2.049z M12.293 2.049h2.049v2.049h-2.049z M20.488 2.049h2.049v2.049h-2.049z M24.585 2.049h4.098v2.049h-4.098z M30.732 2.049h2.049v2.049h-2.049z M36.878 2.049h10.244v2.049h-10.244z M49.171 2.049h6.146v2.049h-6.146z M61.463 2.049h4.098v2.049h-4.098z M69.659 2.049h2.049v2.049h-2.049z M81.951 2.049h2.049v2.049h-2.049z M0.0 4.098h2.049v2.049h-2.049z M4.098 4.098h6.146v2.049h-6.146z M12.293 4.098h2.049v2.049h-2.049z M28.683 4.098h10.244v2.049h-10.244z M40.976 4.098h2.049v2.049h-2.049z M45.073 4.098h6.146v2.049h-6.146z M53.268 4.098h4.098v2.049h-4.098z M59.415 4.098h4.098v2.049h-4.098z M65.561 4.098h2.049v2.049h-2.049z M69.659 4.098h2.049v2.049h-2.049z M73.756 4.098h6.146v2.049h-6.146z M81.951 4.098h2.049v2.049h-2.049z M0.0 6.146h2.049v2.049h-2.049z M4.098 6.146h6.146v2.049h-6.146z M12.293 6.146h2.049v2.049h-2.049z M16.39 6.146h2.049v2.049h-2.049z M24.585 6.146h6.146v2.049h-6.146z M34.829 6.146h2.049v2.049h-2.049z M40.976 6.146h4.098v2.049h-4.098z M47.122 6.146h4.098v2.049h-4.098z M55.317 6.146h2.049v2.049h-2.049z M65.561 6.146h2.049v2.049h-2.049z M69.659 6.146h2.049v2.049h-2.049z M73.756 6.146h6.146v2.049h-6.146z M81.951 6.146h2.049v2.049h-2.049z M0.0 8.195h2.049v2.049h-2.049z M4.098 8.195h6.146v2.049h-6.146z M12.293 8.195h2.049v2.049h-2.049z M16.39 8.195h6.146v2.049h-6.146z M24.585 8.195h2.049v2.049h-2.049z M28.683 8.195h2.049v2.049h-2.049z M32.78 8.195h4.098v2.049h-4.098z M38.927 8.195h2.049v2.049h-2.049z M51.22 8.195h2.049v2.049h-2.049z M55.317 8.195h2.049v2.049h-2.049z M61.463 8.195h2.049v2.049h-2.049z M65.561 8.195h2.049v2.049h-2.049z M69.659 8.195h2.049v2.049h-2.049z M73.756 8.195h6.146v2.049h-6.146z M81.951 8.195h2.049v2.049h-2.049z M0.0 10.244h2.049v2.049h-2.049z M12.293 10.244h2.049v2.049h-2.049z M16.39 10.244h2.049v2.049h-2.049z M22.537 10.244h4.098v2.049h-4.098z M28.683 10.244h2.049v2.049h-2.049z M34.829 10.244h2.049v2.049h-2.049z M38.927 10.244h2.049v2.049h-2.049z M43.024 10.244h2.049v2.049h-2.049z M53.268 10.244h2.049v2.049h-2.049z M63.512 10.244h4.098v2.049h-4.098z M69.659 10.244h2.049v2.049h-2.049z M81.951 10.244h2.049v2.049h-2.049z M0.0 12.293h14.341v2.049h-14.341z M16.39 12.293h2.049v2.049h-2.049z M20.488 12.293h2.049v2.049h-2.049z M24.585 12.293h2.049v2.049h-2.049z M28.683 12.293h2.049v2.049h-2.049z M32.78 12.293h2.049v2.049h-2.049z M36.878 12.293h2.049v2.049h-2.049z M40.976 12.293h2.049v2.049h-2.049z M45.073 12.293h2.049v2.049h-2.049z M49.171 12.293h2.049v2.049h-2.049z M53.268 12.293h2.049v2.049h-2.049z M57.366 12.293h2.049v2.049h-2.049z M61.463 12.293h2.049v2.049h-2.049z M65.561 12.293h2.049v2.049h-2.049z M69.659 12.293h14.341v2.049h-14.341z M16.39 14.341h6.146v2.049h-6.146z M32.78 14.341h4.098v2.049h-4.098z M38.927 14.341h8.195v2.049h-8.195z M49.171 14.341h2.049v2.049h-2.049z M55.317 14.341h6.146v2.049h-6.146z M63.512 14.341h2.049v2.049h-2.049z M0.0 16.39h2.049v2.049h-2.049z M8.195 16.39h2.049v2.049h-2.049z M12.293 16.39h6.146v2.049h-6.146z M20.488 16.39h2.049v2.049h-2.049z M24.585 16.39h4.098v2.049h-4.098z M32.78 16.39h4.098v2.049h-4.098z M40.976 16.39h8.195v2.049h-8.195z M57.366 16.39h4.098v2.049h-4.098z M63.512 16.39h2.049v2.049h-2.049z M67.61 16.39h10.244v2.049h-10.244z M81.951 16.39h2.049v2.049h-2.049z M4.098 18.439h4.098v2.049h-4.098z M16.39 18.439h6.146v2.049h-6.146z M26.634 18.439h8.195v2.049h-8.195z M36.878 18.439h2.049v2.049h-2.049z M40.976 18.439h2.049v2.049h-2.049z M47.122 18.439h2.049v2.049h-2.049z M51.22 18.439h2.049v2.049h-2.049z M55.317 18.439h2.049v2.049h-2.049z M61.463 18.439h2.049v2.049h-2.049z M67.61 18.439h2.049v2.049h-2.049z M71.707 18.439h6.146v2.049h-6.146z M79.902 18.439h4.098v2.049h-4.098z M0.0 20.488h2.049v2.049h-2.049z M4.098 20.488h2.049v2.049h-2.049z M8.195 20.488h2.049v2.049h-2.049z M12.293 20.488h20.488v2.049h-20.488z M43.024 20.488h2.049v2.049h-2.049z M47.122 20.488h2.049v2.049h-2.049z M53.268 20.488h8.195v2.049h-8.195z M65.561 20.488h2.049v2.049h-2.049z M81.951 20.488h2.049v2.049h-2.049z M4.098 22.537h2.049v2.049h-2.049z M8.195 22.537h4.098v2.049h-4.098z M14.341 22.537h6.146v2.049h-6.146z M24.585 22.537h6.146v2.049h-6.146z M32.78 22.537h18.439v2.049h-18.439z M59.415 22.537h2.049v2.049h-2.049z M63.512 22.537h4.098v2.049h-4.098z M71.707 22.537h6.146v2.049h-6.146z M81.951 22.537h2.049v2.049h-2.049z M0.0 24.585h2.049v2.049h-2.049z M6.146 24.585h8.195v2.049h-8.195z M16.39 24.585h2.049v2.049h-2.049z M20.488 24.585h2.049v2.049h-2.049z M26.634 24.585h2.049v2.049h-2.049z M30.732 24.585h2.049v2.049h-2.049z M34.829 24.585h2.049v2.049h-2.049z M40.976 24.585h6.146v2.049h-6.146z M53.268 24.585h4.098v2.049h-4.098z M59.415 24.585h4.098v2.049h-4.098z M65.561 24.585h4.098v2.049h-4.098z M71.707 24.585h2.049v2.049h-2.049z M79.902 24.585h2.049v2.049h-2.049z M8.195 26.634h2.049v2.049h-2.049z M14.341 26.634h2.049v2.049h-2.049z M20.488 26.634h2.049v2.049h-2.049z M24.585 26.634h2.049v2.049h-2.049z M28.683 26.634h2.049v2.049h-2.049z M32.78 26.634h8.195v2.049h-8.195z M43.024 26.634h2.049v2.049h-2.049z M49.171 26.634h2.049v2.049h-2.049z M53.268 26.634h2.049v2.049h-2.049z M57.366 26.634h4.098v2.049h-4.098z M63.512 26.634h2.049v2.049h-2.049z M67.61 26.634h2.049v2.049h-2.049z M71.707 26.634h4.098v2.049h-4.098z M79.902 26.634h4.098v2.049h-4.098z M4.098 28.683h6.146v2.049h-6.146z M12.293 28.683h4.098v2.049h-4.098z M18.439 28.683h2.049v2.049h-2.049z M22.537 28.683h6.146v2.049h-6.146z M30.732 28.683h4.098v2.049h-4.098z M36.878 28.683h4.098v2.049h-4.098z M47.122 28.683h4.098v2.049h-4.098z M57.366 28.683h2.049v2.049h-2.049z M67.61 28.683h4.098v2.049h-4.098z M73.756 28.683h6.146v2.049h-6.146z M81.951 28.683h2.049v2.049h-2.049z M0.0 30.732h6.146v2.049h-6.146z M8.195 30.732h2.049v2.049h-2.049z M16.39 30.732h4.098v2.049h-4.098z M22.537 30.732h4.098v2.049h-4.098z M34.829 30.732h10.244v2.049h-10.244z M47.122 30.732h2.049v2.049h-2.049z M53.268 30.732h2.049v2.049h-2.049z M59.415 30.732h4.098v2.049h-4.098z M71.707 30.732h2.049v2.049h-2.049z M75.805 30.732h2.049v2.049h-2.049z M81.951 30.732h2.049v2.049h-2.049z M0.0 32.78h4.098v2.049h-4.098z M6.146 32.78h4.098v2.049h-4.098z M12.293 32.78h4.098v2.049h-4.098z M18.439 32.78h4.098v2.049h-4.098z M24.585 32.78h2.049v2.049h-2.049z M30.732 32.78h2.049v2.049h-2.049z M34.829 32.78h2.049v2.049h-2.049z M40.976 32.78h2.049v2.049h-2.049z M45.073 32.78h2.049v2.049h-2.049z M55.317 32.78h2.049v2.049h-2.049z M59.415 32.78h2.049v2.049h-2.049z M63.512 32.78h4.098v2.049h-4.098z M71.707 32.78h2.049v2.049h-2.049z M79.902 32.78h2.049v2.049h-2.049z M0.0 34.829h6.146v2.049h-6.146z M8.195 34.829h2.049v2.049h-2.049z M14.341 34.829h4.098v2.049h-4.098z M22.537 34.829h2.049v2.049h-2.049z M28.683 34.829h4.098v2.049h-4.098z M34.829 34.829h6.146v2.049h-6.146z M47.122 34.829h2.049v2.049h-2.049z M53.268 34.829h2.049v2.049h-2.049z M57.366 34.829h6.146v2.049h-6.146z M67.61 34.829h12.293v2.049h-12.293z M81.951 34.829h2.049v2.049h-2.049z M0.0 36.878h2.049v2.049h-2.049z M6.146 36.878h2.049v2.049h-2.049z M12.293 36.878h2.049v2.049h-2.049z M16.39 36.878h2.049v2.049h-2.049z M20.488 36.878h4.098v2.049h-4.098z M28.683 36.878h2.049v2.049h-2.049z M32.78 36.878h2.049v2.049h-2.049z M36.878 36.878h2.049v2.049h-2.049z M40.976 36.878h16.39v2.049h-16.39z M61.463 36.878h2.049v2.049h-2.049z M65.561 36.878h2.049v2.049h-2.049z M69.659 36.878h4.098v2.049h-4.098z M77.854 36.878h6.146v2.049h-6.146z M0.0 38.927h4.098v2.049h-4.098z M10.244 38.927h2.049v2.049h-2.049z M18.439 38.927h2.049v2.049h-2.049z M26.634 38.927h2.049v2.049h-2.049z M30.732 38.927h4.098v2.049h-4.098z M38.927 38.927h6.146v2.049h-6.146z M51.22 38.927h2.049v2.049h-2.049z M59.415 38.927h4.098v2.049h-4.098z M65.561 38.927h8.195v2.049h-8.195z M75.805 38.927h2.049v2.049h-2.049z M81.951 38.927h2.049v2.049h-2.049z M2.049 40.976h2.049v2.049h-2.049z M6.146 40.976h18.439v2.049h-18.439z M26.634 40.976h2.049v2.049h-2.049z M32.78 40.976h2.049v2.049h-2.049z M49.171 40.976h4.098v2.049h-4.098z M55.317 40.976h4.098v2.049h-4.098z M61.463 40.976h4.098v2.049h-4.098z M67.61 40.976h2.049v2.049h-2.049z M75.805 40.976h2.049v2.049h-2.049z M79.902 40.976h4.098v2.049h-4.098z M0.0 43.024h2.049v2.049h-2.049z M8.195 43.024h2.049v2.049h-2.049z M22.537 43.024h6.146v2.049h-6.146z M32.78 43.024h2.049v2.049h-2.049z M36.878 43.024h4.098v2.049h-4.098z M45.073 43.024h12.293v2.049h-12.293z M61.463 43.024h2.049v2.049h-2.049z M65.561 43.024h14.341v2.049h-14.341z M81.951 43.024h2.049v2.049h-2.049z M0.0 45.073h2.049v2.049h-2.049z M6.146 45.073h4.098v2.049h-4.098z M12.293 45.073h8.195v2.049h-8.195z M28.683 45.073h4.098v2.049h-4.098z M43.024 45.073h8.195v2.049h-8.195z M53.268 45.073h4.098v2.049h-4.098z M59.415 45.073h4.098v2.049h-4.098z M65.561 45.073h2.049v2.049h-2.049z M73.756 45.073h2.049v2.049h-2.049z M77.854 45.073h2.049v2.049h-2.049z M81.951 45.073h2.049v2.049h-2.049z M0.0 47.122h4.098v2.049h-4.098z M10.244 47.122h2.049v2.049h-2.049z M22.537 47.122h2.049v2.049h-2.049z M26.634 47.122h4.098v2.049h-4.098z M32.78 47.122h6.146v2.049h-6.146z M43.024 47.122h2.049v2.049h-2.049z M59.415 47.122h8.195v2.049h-8.195z M75.805 47.122h2.049v2.049h-2.049z M79.902 47.122h2.049v2.049h-2.049z M0.0 49.171h2.049v2.049h-2.049z M4.098 49.171h2.049v2.049h-2.049z M8.195 49.171h6.146v2.049h-6.146z M20.488 49.171h6.146v2.049h-6.146z M34.829 49.171h2.049v2.049h-2.049z M40.976 49.171h6.146v2.049h-6.146z M49.171 49.171h2.049v2.049h-2.049z M55.317 49.171h2.049v2.049h-2.049z M59.415 49.171h2.049v2.049h-2.049z M65.561 49.171h4.098v2.049h-4.098z M71.707 49.171h2.049v2.049h-2.049z M77.854 49.171h2.049v2.049h-2.049z M81.951 49.171h2.049v2.049h-2.049z M8.195 51.22h4.098v2.049h-4.098z M16.39 51.22h2.049v2.049h-2.049z M22.537 51.22h4.098v2.049h-4.098z M28.683 51.22h2.049v2.049h-2.049z M32.78 51.22h2.049v2.049h-2.049z M36.878 51.22h2.049v2.049h-2.049z M47.122 51.22h2.049v2.049h-2.049z M55.317 51.22h2.049v2.049h-2.049z M61.463 51.22h2.049v2.049h-2.049z M65.561 51.22h4.098v2.049h-4.098z M71.707 51.22h4.098v2.049h-4.098z M77.854 51.22h2.049v2.049h-2.049z M81.951 51.22h2.049v2.049h-2.049z M2.049 53.268h2.049v2.049h-2.049z M6.146 53.268h4.098v2.049h-4.098z M12.293 53.268h4.098v2.049h-4.098z M20.488 53.268h18.439v2.049h-18.439z M40.976 53.268h4.098v2.049h-4.098z M47.122 53.268h12.293v2.049h-12.293z M65.561 53.268h2.049v2.049h-2.049z M71.707 53.268h2.049v2.049h-2.049z M81.951 53.268h2.049v2.049h-2.049z M0.0 55.317h2.049v2.049h-2.049z M4.098 55.317h4.098v2.049h-4.098z M14.341 55.317h4.098v2.049h-4.098z M28.683 55.317h16.39v2.049h-16.39z M49.171 55.317h2.049v2.049h-2.049z M53.268 55.317h8.195v2.049h-8.195z M63.512 55.317h4.098v2.049h-4.098z M75.805 55.317h2.049v2.049h-2.049z M0.0 57.366h6.146v2.049h-6.146z M12.293 57.366h2.049v2.049h-2.049z M30.732 57.366h2.049v2.049h-2.049z M34.829 57.366h2.049v2.049h-2.049z M43.024 57.366h8.195v2.049h-8.195z M53.268 57.366h10.244v2.049h-10.244z M67.61 57.366h2.049v2.049h-2.049z M71.707 57.366h2.049v2.049h-2.049z M81.951 57.366h2.049v2.049h-2.049z M0.0 59.415h2.049v2.049h-2.049z M4.098 59.415h2.049v2.049h-2.049z M10.244 59.415h2.049v2.049h-2.049z M14.341 59.415h2.049v2.049h-2.049z M26.634 59.415h4.098v2.049h-4.098z M36.878 59.415h6.146v2.049h-6.146z M51.22 59.415h2.049v2.049h-2.049z M59.415 59.415h2.049v2.049h-2.049z M63.512 59.415h2.049v2.049h-2.049z M71.707 59.415h12.293v2.049h-12.293z M4.098 61.463h2.049v2.049h-2.049z M12.293 61.463h2.049v2.049h-2.049z M16.39 61.463h2.049v2.049h-2.049z M20.488 61.463h14.341v2.049h-14.341z M40.976 61.463h6.146v2.049h-6.146z M51.22 61.463h6.146v2.049h-6.146z M59.415 61.463h4.098v2.049h-4.098z M65.561 61.463h4.098v2.049h-4.098z M73.756 61.463h2.049v2.049h-2.049z M81.951 61.463h2.049v2.049h-2.049z M4.098 63.512h4.098v2.049h-4.098z M10.244 63.512h2.049v2.049h-2.049z M18.439 63.512h2.049v2.049h-2.049z M22.537 63.512h4.098v2.049h-4.098z M32.78 63.512h6.146v2.049h-6.146z M43.024 63.512h2.049v2.049h-2.049z M49.171 63.512h2.049v2.049h-2.049z M53.268 63.512h8.195v2.049h-8.195z M67.61 63.512h2.049v2.049h-2.049z M73.756 63.512h4.098v2.049h-4.098z M0.0 65.561h4.098v2.049h-4.098z M6.146 65.561h10.244v2.049h-10.244z M20.488 65.561h2.049v2.049h-2.049z M24.585 65.561h2.049v2.049h-2.049z M30.732 65.561h2.049v2.049h-2.049z M34.829 65.561h2.049v2.049h-2.049z M38.927 65.561h2.049v2.049h-2.049z M45.073 65.561h4.098v2.049h-4.098z M57.366 65.561h4.098v2.049h-4.098z M63.512 65.561h14.341v2.049h-14.341z M16.39 67.61h4.098v2.049h-4.098z M22.537 67.61h12.293v2.049h-12.293z M36.878 67.61h4.098v2.049h-4.098z M43.024 67.61h2.049v2.049h-2.049z M47.122 67.61h2.049v2.049h-2.049z M51.22 67.61h4.098v2.049h-4.098z M57.366 67.61h4.098v2.049h-4.098z M63.512 67.61h4.098v2.049h-4.098z M73.756 67.61h4.098v2.049h-4.098z M81.951 67.61h2.049v2.049h-2.049z M0.0 69.659h14.341v2.049h-14.341z M16.39 69.659h2.049v2.049h-2.049z M28.683 69.659h8.195v2.049h-8.195z M40.976 69.659h2.049v2.049h-2.049z M47.122 69.659h4.098v2.049h-4.098z M55.317 69.659h2.049v2.049h-2.049z M61.463 69.659h6.146v2.049h-6.146z M69.659 69.659h2.049v2.049h-2.049z M73.756 69.659h4.098v2.049h-4.098z M81.951 69.659h2.049v2.049h-2.049z M0.0 71.707h2.049v2.049h-2.049z M12.293 71.707h2.049v2.049h-2.049z M22.537 71.707h4.098v2.049h-4.098z M28.683 71.707h4.098v2.049h-4.098z M34.829 71.707h4.098v2.049h-4.098z M45.073 71.707h6.146v2.049h-6.146z M53.268 71.707h6.146v2.049h-6.146z M63.512 71.707h4.098v2.049h-4.098z M73.756 71.707h4.098v2.049h-4.098z M0.0 73.756h2.049v2.049h-2.049z M4.098 73.756h6.146v2.049h-6.146z M12.293 73.756h2.049v2.049h-2.049z M16.39 73.756h6.146v2.049h-6.146z M24.585 73.756h2.049v2.049h-2.049z M32.78 73.756h2.049v2.049h-2.049z M36.878 73.756h2.049v2.049h-2.049z M40.976 73.756h2.049v2.049h-2.049z M45.073 73.756h2.049v2.049h-2.049z M51.22 73.756h6.146v2.049h-6.146z M63.512 73.756h12.293v2.049h-12.293z M79.902 73.756h4.098v2.049h-4.098z M0.0 75.805h2.049v2.049h-2.049z M4.098 75.805h6.146v2.049h-6.146z M12.293 75.805h2.049v2.049h-2.049z M20.488 75.805h4.098v2.049h-4.098z M26.634 75.805h2.049v2.049h-2.049z M32.78 75.805h2.049v2.049h-2.049z M47.122 75.805h6.146v2.049h-6.146z M55.317 75.805h2.049v2.049h-2.049z M61.463 75.805h2.049v2.049h-2.049z M71.707 75.805h2.049v2.049h-2.049z M79.902 75.805h2.049v2.049h-2.049z M0.0 77.854h2.049v2.049h-2.049z M4.098 77.854h6.146v2.049h-6.146z M12.293 77.854h2.049v2.049h-2.049z M18.439 77.854h2.049v2.049h-2.049z M26.634 77.854h10.244v2.049h-10.244z M40.976 77.854h2.049v2.049h-2.049z M47.122 77.854h2.049v2.049h-2.049z M51.22 77.854h8.195v2.049h-8.195z M63.512 77.854h2.049v2.049h-2.049z M67.61 77.854h2.049v2.049h-2.049z M75.805 77.854h4.098v2.049h-4.098z M81.951 77.854h2.049v2.049h-2.049z M0.0 79.902h2.049v2.049h-2.049z M12.293 79.902h2.049v2.049h-2.049z M18.439 79.902h2.049v2.049h-2.049z M24.585 79.902h2.049v2.049h-2.049z M30.732 79.902h2.049v2.049h-2.049z M34.829 79.902h2.049v2.049h-2.049z M38.927 79.902h2.049v2.049h-2.049z M43.024 79.902h2.049v2.049h-2.049z M53.268 79.902h2.049v2.049h-2.049z M59.415 79.902h4.098v2.049h-4.098z M65.561 79.902h8.195v2.049h-8.195z M75.805 79.902h2.049v2.049h-2.049z M79.902 79.902h4.098v2.049h-4.098z M0.0 81.951h14.341v2.049h-14.341z M16.39 81.951h10.244v2.049h-10.244z M28.683 81.951h18.439v2.049h-18.439z M49.171 81.951h2.049v2.049h-2.049z M59.415 81.951h2.049v2.049h-2.049z M63.512 81.951h18.439v2.049h-18.439z"/>
</g>
<text x="1122" y="614" font-family="Inter, Helvetica, Arial, sans-serif" font-size="10" font-weight="700" fill="#F5F7FA" text-anchor="middle">scan / full post</text>
</svg>
