<svg width="1200" height="630" viewBox="0 0 1200 630" xmlns="http://www.w3.org/2000/svg">
  <defs>
    <linearGradient id="bg30" x1="0" y1="0" x2="1" y2="1">
      <stop offset="0%" stop-color="#0b1020"/>
      <stop offset="100%" stop-color="#1b1230"/>
    </linearGradient>
    <linearGradient id="line30" x1="0" y1="0" x2="1" y2="0">
      <stop offset="0%" stop-color="#3b82f6"/>
      <stop offset="100%" stop-color="#f43f5e"/>
    </linearGradient>
  </defs>

  <rect width="1200" height="630" fill="url(#bg30)"/>
  <circle cx="980" cy="130" r="120" fill="#3b82f6" opacity="0.10"/>
  <circle cx="890" cy="430" r="160" fill="#f43f5e" opacity="0.08"/>
  <circle cx="250" cy="500" r="150" fill="#8b5cf6" opacity="0.08"/>

  <text x="60" y="74" fill="#cbd5e1" font-size="28" font-family="Georgia, serif">March 2026</text>
  <text x="60" y="182" fill="#ffffff" font-size="50" font-family="Arial, sans-serif" font-weight="700">Security Digest</text>
  <text x="60" y="240" fill="#e2e8f0" font-size="44" font-family="Arial, sans-serif" font-weight="700">Monthly Index</text>
  <rect x="60" y="262" width="210" height="4" rx="2" fill="url(#line30)"/>

  <rect x="60" y="314" width="132" height="34" rx="17" fill="#111827" stroke="#3b82f6" stroke-width="1.5"/>
  <text x="126" y="336" text-anchor="middle" fill="#93c5fd" font-size="13" font-family="Arial, sans-serif" font-weight="700">THREATS</text>
  <rect x="206" y="314" width="152" height="34" rx="17" fill="#111827" stroke="#f43f5e" stroke-width="1.5"/>
  <text x="282" y="336" text-anchor="middle" fill="#fda4af" font-size="13" font-family="Arial, sans-serif" font-weight="700">SUPPLY CHAIN</text>
  <rect x="372" y="314" width="132" height="34" rx="17" fill="#111827" stroke="#8b5cf6" stroke-width="1.5"/>
  <text x="438" y="336" text-anchor="middle" fill="#c4b5fd" font-size="13" font-family="Arial, sans-serif" font-weight="700">CLOUD</text>

  <g transform="translate(690,110)">
    <rect x="0" y="0" width="360" height="360" rx="28" fill="#0f172a" stroke="#334155" stroke-width="1.5"/>
    <rect x="44" y="56" width="272" height="70" rx="18" fill="#111827" stroke="#3b82f6" stroke-width="1.5"/>
    <rect x="44" y="150" width="272" height="70" rx="18" fill="#111827" stroke="#8b5cf6" stroke-width="1.5"/>
    <rect x="44" y="244" width="272" height="70" rx="18" fill="#111827" stroke="#f43f5e" stroke-width="1.5"/>
    <circle cx="88" cy="91" r="14" fill="#3b82f6" opacity="0.9"/>
    <circle cx="88" cy="185" r="14" fill="#8b5cf6" opacity="0.9"/>
    <circle cx="88" cy="279" r="14" fill="#f43f5e" opacity="0.9"/>
    <rect x="118" y="82" width="140" height="10" rx="5" fill="#e2e8f0" opacity="0.9"/>
    <rect x="118" y="176" width="168" height="10" rx="5" fill="#e2e8f0" opacity="0.9"/>
    <rect x="118" y="270" width="152" height="10" rx="5" fill="#e2e8f0" opacity="0.9"/>
    <path d="M294 88 L314 88" stroke="#3b82f6" stroke-width="4" stroke-linecap="round"/>
    <path d="M294 182 L314 182" stroke="#8b5cf6" stroke-width="4" stroke-linecap="round"/>
    <path d="M294 276 L314 276" stroke="#f43f5e" stroke-width="4" stroke-linecap="round"/>
  </g>

  <text x="60" y="578" fill="#64748b" font-size="14" font-family="Arial, sans-serif">tech.2twodragon.com</text>
</svg>
