<svg xmlns="http://www.w3.org/2000/svg" width="1200" height="630" viewBox="0 0 1200 630">
  <title>Security Weekly Digest - 2026-04-18</title>
  <defs>
    <linearGradient id="bg" x1="0" y1="0" x2="1" y2="1">
      <stop offset="0" stop-color="#160a0e"/>
      <stop offset="0.6" stop-color="#0a0e27"/>
      <stop offset="1" stop-color="#1a1f3a"/>
    </linearGradient>
    <linearGradient id="gUrgent" x1="0" y1="0" x2="1" y2="0">
      <stop offset="0" stop-color="#ff3e6c"/>
      <stop offset="1" stop-color="#ffb347"/>
    </linearGradient>
    <linearGradient id="gAmber" x1="0" y1="0" x2="1" y2="0">
      <stop offset="0" stop-color="#ffb347"/>
      <stop offset="1" stop-color="#ff7a4a"/>
    </linearGradient>
    <linearGradient id="gBlue" x1="0" y1="0" x2="1" y2="0">
      <stop offset="0" stop-color="#5ba3ff"/>
      <stop offset="1" stop-color="#9d6fff"/>
    </linearGradient>
    <linearGradient id="gGreen" x1="0" y1="0" x2="1" y2="0">
      <stop offset="0" stop-color="#00ff88"/>
      <stop offset="1" stop-color="#00d4b2"/>
    </linearGradient>
    <radialGradient id="urgentGlow" cx="0.5" cy="0.2" r="0.6">
      <stop offset="0" stop-color="#ff3e6c" stop-opacity="0.28"/>
      <stop offset="1" stop-color="#ff3e6c" stop-opacity="0"/>
    </radialGradient>
  </defs>

  <rect width="1200" height="630" fill="url(#bg)"/>
  <ellipse cx="600" cy="70" rx="700" ry="180" fill="url(#urgentGlow)"/>

  <g transform="translate(60, 30)">
    <polygon points="0,0 34,0 28,26 6,26" fill="url(#gUrgent)"/>
    <text x="18" y="19" text-anchor="middle" font-family="system-ui, sans-serif" font-size="18" font-weight="900" fill="#ffffff" stroke="none">!</text>
  </g>
  <text x="110" y="53" font-family="system-ui, -apple-system, sans-serif" font-size="17" font-weight="800" fill="#ff7a4a" letter-spacing="4">PATCH URGENCY BOARD</text>
  <text x="1140" y="53" text-anchor="end" font-family="system-ui, sans-serif" font-size="17" font-weight="500" fill="#8b95b0" letter-spacing="2">2026-04-18</text>

  <g transform="translate(60, 105)">
    <rect width="1080" height="70" rx="14" fill="rgba(255,62,108,0.1)" stroke="url(#gUrgent)" stroke-width="2"/>
    <rect x="20" y="14" width="6" height="42" rx="3" fill="url(#gUrgent)"/>
    <text x="44" y="38" font-family="system-ui, sans-serif" font-size="12" font-weight="800" fill="#ff7a4a" letter-spacing="3">HEADLINE</text>
    <text x="44" y="60" font-family="system-ui, sans-serif" font-size="22" font-weight="700" fill="#f0f4f8">Microsoft Defender: 3 zero-days exploited in the wild</text>
    <g transform="translate(820, 22)">
      <rect x="0" y="0" width="240" height="30" rx="15" fill="rgba(255,62,108,0.3)" stroke="#ff3e6c"/>
      <text x="120" y="21" text-anchor="middle" font-family="Menlo, monospace" font-size="13" font-weight="800" fill="#ffffff" letter-spacing="2">2 UNPATCHED</text>
    </g>
  </g>

  <g transform="translate(60, 200)">
    <rect width="345" height="340" rx="16" fill="rgba(255,62,108,0.05)" stroke="rgba(255,62,108,0.4)" stroke-width="1.5"/>
    <g transform="translate(172, 80)" fill="none" stroke="url(#gUrgent)" stroke-width="2.5">
      <circle cx="0" cy="0" r="36"/>
      <path d="M0,-22 L10,-4 L26,-4 L14,8 L18,24 L0,14 L-18,24 L-14,8 L-26,-4 L-10,-4 Z" fill="url(#gUrgent)" stroke="none"/>
    </g>
    <text x="172" y="160" text-anchor="middle" font-family="system-ui, sans-serif" font-size="11" font-weight="800" fill="#ff3e6c" letter-spacing="3">CRITICAL</text>
    <text x="172" y="196" text-anchor="middle" font-family="system-ui, sans-serif" font-size="20" font-weight="700" fill="#f0f4f8">Defender 0-Days</text>
    <g transform="translate(62, 218)">
      <rect width="220" height="30" rx="6" fill="#0a0e27" stroke="#ff7a4a"/>
      <text x="110" y="20" text-anchor="middle" font-family="Menlo, monospace" font-size="13" font-weight="700" fill="#ffb347">Exploited + Unpatched</text>
    </g>
    <text x="172" y="276" text-anchor="middle" font-family="system-ui, sans-serif" font-size="13" fill="#8b95b0">3 zero-days chained in ongoing</text>
    <text x="172" y="296" text-anchor="middle" font-family="system-ui, sans-serif" font-size="13" fill="#8b95b0">attacks. Detection coverage</text>
    <text x="172" y="316" text-anchor="middle" font-family="system-ui, sans-serif" font-size="13" fill="#8b95b0">must be deployed today.</text>
  </g>

  <g transform="translate(427, 200)">
    <rect width="346" height="340" rx="16" fill="rgba(91,163,255,0.05)" stroke="rgba(91,163,255,0.4)" stroke-width="1.5"/>
    <g transform="translate(173, 80)" fill="none" stroke="url(#gBlue)" stroke-width="2.5">
      <rect x="-40" y="-20" width="80" height="40" rx="4"/>
      <line x1="-40" y1="-4" x2="40" y2="-4"/>
      <line x1="-28" y1="-20" x2="-28" y2="20" stroke-opacity="0.4"/>
      <line x1="-14" y1="-20" x2="-14" y2="20" stroke-opacity="0.4"/>
      <line x1="0" y1="-20" x2="0" y2="20" stroke-opacity="0.4"/>
      <line x1="14" y1="-20" x2="14" y2="20" stroke-opacity="0.4"/>
      <line x1="28" y1="-20" x2="28" y2="20" stroke-opacity="0.4"/>
      <polyline points="-36,34 -20,30 -4,24 12,18 28,12" stroke="#00ff88"/>
    </g>
    <text x="173" y="160" text-anchor="middle" font-family="system-ui, sans-serif" font-size="11" font-weight="800" fill="#5ba3ff" letter-spacing="3">OBSERVABILITY</text>
    <text x="173" y="196" text-anchor="middle" font-family="system-ui, sans-serif" font-size="20" font-weight="700" fill="#f0f4f8">AWS ETL to OCSF</text>
    <g transform="translate(63, 218)">
      <rect width="220" height="30" rx="6" fill="#0a0e27" stroke="#5ba3ff"/>
      <text x="110" y="20" text-anchor="middle" font-family="Menlo, monospace" font-size="13" font-weight="700" fill="#9d6fff">Reference build</text>
    </g>
    <text x="173" y="276" text-anchor="middle" font-family="system-ui, sans-serif" font-size="13" fill="#8b95b0">Config-driven pipeline converts</text>
    <text x="173" y="296" text-anchor="middle" font-family="system-ui, sans-serif" font-size="13" fill="#8b95b0">security logs into OCSF for</text>
    <text x="173" y="316" text-anchor="middle" font-family="system-ui, sans-serif" font-size="13" fill="#8b95b0">unified SIEM analytics.</text>
  </g>

  <g transform="translate(795, 200)">
    <rect width="345" height="340" rx="16" fill="rgba(0,255,136,0.05)" stroke="rgba(0,255,136,0.4)" stroke-width="1.5"/>
    <g transform="translate(172, 80)" fill="none" stroke="url(#gGreen)" stroke-width="2.5">
      <rect x="-40" y="-28" width="80" height="56" rx="6"/>
      <circle cx="0" cy="0" r="14" stroke-width="3"/>
      <line x1="-10" y1="-10" x2="10" y2="10" stroke="#ff3e6c" stroke-width="3"/>
    </g>
    <text x="172" y="160" text-anchor="middle" font-family="system-ui, sans-serif" font-size="11" font-weight="800" fill="#00ff88" letter-spacing="3">POLICY</text>
    <text x="172" y="196" text-anchor="middle" font-family="system-ui, sans-serif" font-size="20" font-weight="700" fill="#f0f4f8">Google Ads Blocked</text>
    <g transform="translate(62, 218)">
      <rect width="220" height="30" rx="6" fill="#0a0e27" stroke="#00d4b2"/>
      <text x="110" y="20" text-anchor="middle" font-family="Menlo, monospace" font-size="14" font-weight="800" fill="#00ff88">8.3B violations</text>
    </g>
    <text x="172" y="276" text-anchor="middle" font-family="system-ui, sans-serif" font-size="13" fill="#8b95b0">2025 enforcement report +</text>
    <text x="172" y="296" text-anchor="middle" font-family="system-ui, sans-serif" font-size="13" fill="#8b95b0">Android 17 privacy overhaul</text>
    <text x="172" y="316" text-anchor="middle" font-family="system-ui, sans-serif" font-size="13" fill="#8b95b0">for user consent controls.</text>
  </g>

  <text x="60" y="595" font-family="system-ui, sans-serif" font-size="14" font-weight="600" fill="#5ba3ff">tech.2twodragon.com</text>
  <g transform="translate(960, 578)">
    <rect x="0" y="0" width="82" height="26" rx="13" fill="rgba(0,255,136,0.14)" stroke="rgba(0,255,136,0.4)"/>
    <text x="41" y="18" text-anchor="middle" font-family="system-ui, sans-serif" font-size="11" font-weight="700" fill="#00ff88" letter-spacing="2">SECURITY</text>
    <rect x="92" y="0" width="96" height="26" rx="13" fill="rgba(91,163,255,0.14)" stroke="rgba(91,163,255,0.4)"/>
    <text x="140" y="18" text-anchor="middle" font-family="system-ui, sans-serif" font-size="11" font-weight="700" fill="#5ba3ff" letter-spacing="2">DEVSECOPS</text>
  </g>
</svg>
