<svg xmlns="http://www.w3.org/2000/svg" viewBox="0 0 1200 630">
  <defs>
    <!-- Background Gradients -->
    <linearGradient id="bgGradient" x1="0%" y1="0%" x2="100%" y2="100%">
      <stop offset="0%" style="stop-color:#f8fafc"/>
      <stop offset="40%" style="stop-color:#f1f5f9"/>
      <stop offset="100%" style="stop-color:#e2e8f0"/>
    </linearGradient>
    
    <!-- Category Gradient -->
    <linearGradient id="devopsGradient" x1="0%" y1="0%" x2="100%" y2="100%">
      <stop offset="0%" style="stop-color:#f59e0b"/>
      <stop offset="100%" style="stop-color:#d97706"/>
    </linearGradient>
    
    <!-- Accent Gradient -->
    <linearGradient id="accentGradient" x1="0%" y1="0%" x2="100%" y2="0%">
      <stop offset="0%" style="stop-color:#3b82f6"/>
      <stop offset="33%" style="stop-color:#8b5cf6"/>
      <stop offset="66%" style="stop-color:#ec4899"/>
      <stop offset="100%" style="stop-color:#f59e0b"/>
    </linearGradient>
    
    <!-- Card Gradient -->
    <linearGradient id="cardGradient" x1="0%" y1="0%" x2="100%" y2="100%">
      <stop offset="0%" style="stop-color:#ffffff"/>
      <stop offset="100%" style="stop-color:#f8fafc"/>
    </linearGradient>
    
    <!-- Fire Gradient for Incident -->
    <linearGradient id="fireGradient" x1="0%" y1="100%" x2="0%" y2="0%">
      <stop offset="0%" style="stop-color:#dc2626"/>
      <stop offset="50%" style="stop-color:#f59e0b"/>
      <stop offset="100%" style="stop-color:#fbbf24"/>
    </linearGradient>
    
    <!-- Glow Effects -->
    <filter id="glow" x="-50%" y="-50%" width="200%" height="200%">
      <feGaussianBlur stdDeviation="4" result="blur"/>
      <feMerge>
        <feMergeNode in="blur"/>
        <feMergeNode in="SourceGraphic"/>
      </feMerge>
    </filter>
    
    <filter id="strongGlow" x="-100%" y="-100%" width="300%" height="300%">
      <feGaussianBlur stdDeviation="8" result="blur"/>
      <feMerge>
        <feMergeNode in="blur"/>
        <feMergeNode in="blur"/>
        <feMergeNode in="SourceGraphic"/>
      </feMerge>
    </filter>
    
    <!-- Shadow -->
    <filter id="shadow" x="-20%" y="-20%" width="140%" height="140%">
      <feDropShadow dx="0" dy="6" stdDeviation="12" flood-color="#000" flood-opacity="0.4"/>
    </filter>
    
    <!-- Inner Glow -->
    <filter id="innerGlow">
      <feGaussianBlur in="SourceAlpha" stdDeviation="3" result="blur"/>
      <feOffset in="blur" dx="0" dy="0"/>
      <feComposite in2="SourceAlpha" operator="arithmetic" k2="-1" k3="1"/>
      <feColorMatrix type="matrix" values="0 0 0 0 1 0 0 0 0 1 0 0 0 0 1 0 0 0 0.5 0"/>
      <feBlend in2="SourceGraphic"/>
    </filter>
  </defs>

  <!-- Background -->
  <rect width="1200" height="630" fill="url(#bgGradient)"/>
  
  <!-- Animated Grid Pattern -->
  <pattern id="grid" width="60" height="60" patternUnits="userSpaceOnUse">
    <path d="M 60 0 L 0 0 0 60" fill="none" stroke="#fbbf24" stroke-opacity="0.05" stroke-width="1"/>
  </pattern>
  <rect width="1200" height="630" fill="url(#grid)"/>
  
  <!-- Background Decorative Elements -->
  <circle cx="0" cy="0" r="300" fill="#f59e0b" fill-opacity="0.03"/>
  <circle cx="1200" cy="630" r="350" fill="#d97706" fill-opacity="0.04"/>
  <circle cx="600" cy="315" r="400" fill="#f59e0b" fill-opacity="0.02"/>
  
  <!-- Decorative Lines -->
  <line x1="0" y1="200" x2="150" y2="200" stroke="#fbbf24" stroke-width="1" opacity="0.3"/>
  <line x1="1050" y1="430" x2="1200" y2="430" stroke="#fbbf24" stroke-width="1" opacity="0.3"/>
  
  <!-- Top Header Bar -->
  <rect x="0" y="0" width="1200" height="6" fill="url(#accentGradient)"/>
  
  <!-- Category Badge -->
  <g filter="url(#shadow)">
    <rect x="40" y="25" width="160" height="40" rx="20" fill="url(#devopsGradient)"/>
    <text x="120" y="51" font-family="Arial, sans-serif" font-size="14" font-weight="bold" fill="white" text-anchor="middle">DEVOPS</text>
  </g>
  
  <!-- Date Badge -->
  <g filter="url(#shadow)">
    <rect x="1000" y="25" width="160" height="40" rx="20" fill="url(#accentGradient)"/>
    <text x="1080" y="51" font-family="Arial, sans-serif" font-size="13" font-weight="bold" fill="white" text-anchor="middle">March 15, 2026</text>
  </g>
  
  <!-- Main Title -->
  <text x="600" y="110" font-family="Arial, sans-serif" font-size="36" font-weight="bold" fill="#0f172a" text-anchor="middle">2026 2 16 : LLM , Windows ,</text>
  
  <!-- Subtitle Line -->
  <rect x="400" y="135" width="400" height="4" rx="2" fill="url(#accentGradient)"/>
  
  <!-- Icon Section - Left Side -->
  <g opacity="0.95">
    
    <!-- Infinity/DevOps Loop -->
    <g transform="translate(80, 290)">
      <path d="M10 40 Q10 10 40 10 Q70 10 70 40 Q70 70 100 70 Q130 70 130 40 Q130 10 100 10 Q70 10 70 40 Q70 70 40 70 Q10 70 10 40" 
            fill="none" stroke="url(#devopsGradient)" stroke-width="6" stroke-linecap="round"/>
    </g>
    
    <!-- Gear Icon -->
    <g transform="translate(220, 290)">
      <circle cx="35" cy="35" r="25" fill="#f59e0b" stroke="#d97706" stroke-width="2"/>
      <circle cx="35" cy="35" r="10" fill="#0f172a"/>
      <rect x="30" y="2" width="10" height="15" rx="2" fill="#f59e0b"/>
      <rect x="30" y="53" width="10" height="15" rx="2" fill="#f59e0b"/>
      <rect x="2" y="30" width="15" height="10" rx="2" fill="#f59e0b"/>
      <rect x="53" y="30" width="15" height="10" rx="2" fill="#f59e0b"/>
    </g>
    
    <!-- Code Bracket -->
    <g transform="translate(330, 295)">
      <text x="0" y="45" font-family="monospace" font-size="50" font-weight="bold" fill="#a855f7">&lt;/&gt;</text>
    </g>
    
  </g>
  
  <!-- Main Content Card -->
  <g transform="translate(450, 180)" filter="url(#shadow)">
    <rect width="720" height="340" rx="16" fill="url(#cardGradient)" stroke="#fbbf24" stroke-width="1" stroke-opacity="0.3"/>
    
    <!-- Card Header Accent -->
    <rect x="0" y="0" width="720" height="8" rx="4" fill="url(#devopsGradient)"/>
    
    <!-- Card Title -->
    <text x="30" y="50" font-family="Arial, sans-serif" font-size="20" font-weight="bold" fill="#0f172a">Architecture Snapshot</text>
    
    <!-- Summary Content -->
    <g transform="translate(30, 90)">
      <circle cx="8" cy="8" r="4" fill="#fbbf24"/>
      <text x="25" y="13" font-family="Arial, sans-serif" font-size="13" fill="#334155">24 RSS LLM , Windows</text>
    </g>
    <g transform="translate(30, 125)">
      <circle cx="8" cy="8" r="4" fill="#fbbf24"/>
      <text x="25" y="13" font-family="Arial, sans-serif" font-size="13" fill="#334155">, , ,</text>
    </g>
    
    <!-- Tags Section -->
    <g transform="translate(30, 230)">
      <rect x="0" y="0" width="141" height="30" rx="15" fill="#fbbf24" fill-opacity="0.15" stroke="#fbbf24" stroke-width="1" stroke-opacity="0.4"/>
      <text x="70" y="20" font-family="Arial, sans-serif" font-size="12" fill="#fbbf24" text-anchor="middle">#Daily-Digest</text>
      <rect x="153" y="0" width="159" height="30" rx="15" fill="#fbbf24" fill-opacity="0.15" stroke="#fbbf24" stroke-width="1" stroke-opacity="0.4"/>
      <text x="232" y="20" font-family="Arial, sans-serif" font-size="12" fill="#fbbf24" text-anchor="middle">#Tech-Newsle...</text>
      <rect x="324" y="0" width="141" height="30" rx="15" fill="#fbbf24" fill-opacity="0.15" stroke="#fbbf24" stroke-width="1" stroke-opacity="0.4"/>
      <text x="394" y="20" font-family="Arial, sans-serif" font-size="12" fill="#fbbf24" text-anchor="middle">#AI-Inference</text>
    </g>
    
    <!-- CTA Button -->
    <g transform="translate(540, 280)">
      <rect width="150" height="45" rx="22" fill="url(#accentGradient)" filter="url(#glow)"/>
      <text x="75" y="29" font-family="Arial, sans-serif" font-size="14" font-weight="bold" fill="white" text-anchor="middle">View Post</text>
    </g>
  </g>
  
  <!-- Bottom Section -->
  <line x1="40" y1="560" x2="1160" y2="560" stroke="#334155" stroke-width="1"/>
  
  <!-- Blog Branding -->
  <g transform="translate(50, 575)">
    <rect width="45" height="45" rx="10" fill="url(#devopsGradient)" filter="url(#shadow)"/>
    <text x="22" y="32" font-family="Arial, sans-serif" font-size="20" font-weight="bold" fill="white" text-anchor="middle">TD</text>
  </g>
  
  <text x="110" y="595" font-family="Arial, sans-serif" font-size="18" font-weight="bold" fill="#0f172a">Twodragon Tech Blog</text>
  <text x="110" y="615" font-family="Arial, sans-serif" font-size="12" fill="#64748b">tech.2twodragon.com</text>
  
  <!-- Tech Stack -->
  <text x="1150" y="595" font-family="Arial, sans-serif" font-size="12" fill="#64748b" text-anchor="end">DevSecOps | Cloud | Security | AI</text>
  <text x="1150" y="615" font-family="Arial, sans-serif" font-size="11" fill="#64748b" text-anchor="end">Draw.io Style Diagram</text>
</svg>