<svg xmlns="http://www.w3.org/2000/svg" viewBox="0 0 1200 630" width="1200" height="630" role="img" aria-label="Research-based weekly digest cover: Vertical AI security strategy, BlackField ransomware code reuse, Bitcoin $65K crash and Russia sanctions-evasion exchange network">
<title>Weekly digest 2026-02-23: Vertical AI (SOC automation), BlackField RaaS (Conti+LockBit reuse), Bitcoin -5% + $11B Russia sanctions evasion</title>
<!-- profile: high-quality-cover (L22 Stacked Bands, research-based, batch2-locked) -->
<defs>
  <linearGradient id="bgSpread" x1="0%" y1="0%" x2="100%" y2="100%">
    <stop offset="0%" stop-color="#0A1226"/>
    <stop offset="50%" stop-color="#0C1430"/>
    <stop offset="100%" stop-color="#131038"/>
  </linearGradient>
  <linearGradient id="bandA" x1="0%" y1="0%" x2="100%" y2="0%">
    <stop offset="0%" stop-color="#0E2038"/>
    <stop offset="100%" stop-color="#12283F"/>
  </linearGradient>
  <linearGradient id="bandB" x1="0%" y1="0%" x2="100%" y2="0%">
    <stop offset="0%" stop-color="#1A0E2E"/>
    <stop offset="100%" stop-color="#24122F"/>
  </linearGradient>
  <linearGradient id="bandC" x1="0%" y1="0%" x2="100%" y2="0%">
    <stop offset="0%" stop-color="#1A1200"/>
    <stop offset="100%" stop-color="#1E1800"/>
  </linearGradient>
  <linearGradient id="btcLine" x1="0%" y1="0%" x2="100%" y2="0%">
    <stop offset="0%" stop-color="#F59E0B" stop-opacity="0"/>
    <stop offset="40%" stop-color="#F59E0B" stop-opacity="0.9"/>
    <stop offset="70%" stop-color="#EF4444" stop-opacity="0.9"/>
    <stop offset="100%" stop-color="#EF4444" stop-opacity="0"/>
  </linearGradient>
  <radialGradient id="ransomGlow" cx="50%" cy="50%" r="50%">
    <stop offset="0%" stop-color="#E63946" stop-opacity="0.65"/>
    <stop offset="100%" stop-color="#E63946" stop-opacity="0"/>
  </radialGradient>
  <radialGradient id="aiGlow" cx="50%" cy="50%" r="50%">
    <stop offset="0%" stop-color="#4ADE80" stop-opacity="0.4"/>
    <stop offset="100%" stop-color="#4ADE80" stop-opacity="0"/>
  </radialGradient>
  <filter id="softShadow" x="-10%" y="-10%" width="130%" height="130%">
    <feGaussianBlur in="SourceAlpha" stdDeviation="2.5"/>
    <feOffset dx="1" dy="3"/>
    <feComponentTransfer><feFuncA type="linear" slope="0.55"/></feComponentTransfer>
    <feMerge><feMergeNode/><feMergeNode in="SourceGraphic"/></feMerge>
  </filter>
  <filter id="textShadow" x="-5%" y="-5%" width="110%" height="110%">
    <feGaussianBlur in="SourceAlpha" stdDeviation="1.2"/>
    <feOffset dx="0" dy="1.5"/>
    <feComponentTransfer><feFuncA type="linear" slope="0.85"/></feComponentTransfer>
    <feMerge><feMergeNode/><feMergeNode in="SourceGraphic"/></feMerge>
  </filter>
  <pattern id="gridDotA" x="0" y="0" width="20" height="20" patternUnits="userSpaceOnUse">
    <circle cx="10" cy="10" r="0.7" fill="#2A4A36" opacity="0.5"/>
  </pattern>
  <pattern id="gridDotB" x="0" y="0" width="18" height="18" patternUnits="userSpaceOnUse">
    <circle cx="9" cy="9" r="0.8" fill="#3A2A4E" opacity="0.55"/>
  </pattern>
  <pattern id="hexBtc" x="0" y="0" width="24" height="24" patternUnits="userSpaceOnUse">
    <circle cx="12" cy="12" r="0.6" fill="#3A2E00" opacity="0.5"/>
  </pattern>
</defs>

<rect width="1200" height="630" fill="url(#bgSpread)"/>

<!-- BAND A: Vertical AI Security (y=0-210) -->
<g>
  <rect x="0" y="0" width="1200" height="210" fill="url(#bandA)"/>
  <rect x="0" y="0" width="1200" height="210" fill="url(#gridDotA)" opacity="0.6"/>
  <rect x="0" y="0" width="8" height="210" fill="#4ADE80"/>

  <g filter="url(#textShadow)">
    <text x="30" y="44" font-family="Inter, Helvetica, Arial, sans-serif" font-size="13" font-weight="700" letter-spacing="2.4" fill="#4ADE80">VERTICAL AI SECURITY  -  2026.02.23</text>
    <text x="30" y="86" font-family="Inter, Helvetica, Arial, sans-serif" font-size="36" font-weight="800" fill="#F5F7FA">SOC Automation via Domain AI</text>
    <text x="30" y="118" font-family="Inter, Helvetica, Arial, sans-serif" font-size="19" font-weight="600" fill="#9FD3B0">SK Shieldus : MITRE ATT&amp;CK trained : XDR log analysis</text>
    <text x="30" y="146" font-family="Inter, Helvetica, Arial, sans-serif" font-size="14" font-weight="500" fill="#BFC9D9">False positive reduction - TTP-based behavior detection - SOAR playbook integration</text>
  </g>

  <!-- AI neural node illustration -->
  <g transform="translate(660,105)">
    <circle cx="0" cy="0" r="55" fill="url(#aiGlow)">
      <animate attributeName="r" values="45;65;45" dur="3.5s" repeatCount="indefinite"/>
      <animate attributeName="opacity" values="0.5;1;0.5" dur="3.5s" repeatCount="indefinite"/>
    </circle>
    <circle cx="0" cy="0" r="26" fill="#0E2038" stroke="#4ADE80" stroke-width="2"/>
    <text x="0" y="-4" text-anchor="middle" font-family="Inter, monospace" font-size="11" font-weight="800" fill="#4ADE80">VERT.</text>
    <text x="0" y="11" text-anchor="middle" font-family="Inter, monospace" font-size="10" font-weight="700" fill="#9FD3B0">AI</text>

    <g stroke="#4ADE80" stroke-width="1" stroke-opacity="0.45" stroke-dasharray="3 4" fill="none">
      <line x1="0" y1="0" x2="90" y2="-50"/>
      <line x1="0" y1="0" x2="110" y2="0"/>
      <line x1="0" y1="0" x2="90" y2="50"/>
      <line x1="0" y1="0" x2="-90" y2="-50"/>
      <line x1="0" y1="0" x2="-110" y2="0"/>
      <line x1="0" y1="0" x2="-90" y2="50"/>
    </g>
    <g fill="#4ADE80">
      <circle cx="90" cy="-50" r="5"><animate attributeName="opacity" values="0.3;1;0.3" dur="2.0s" repeatCount="indefinite"/></circle>
      <circle cx="110" cy="0" r="5"><animate attributeName="opacity" values="0.3;1;0.3" dur="1.7s" repeatCount="indefinite"/></circle>
      <circle cx="90" cy="50" r="5"><animate attributeName="opacity" values="0.3;1;0.3" dur="2.3s" repeatCount="indefinite"/></circle>
      <circle cx="-90" cy="-50" r="5"><animate attributeName="opacity" values="0.3;1;0.3" dur="1.9s" repeatCount="indefinite"/></circle>
      <circle cx="-110" cy="0" r="5"><animate attributeName="opacity" values="0.3;1;0.3" dur="2.2s" repeatCount="indefinite"/></circle>
      <circle cx="-90" cy="50" r="5"><animate attributeName="opacity" values="0.3;1;0.3" dur="1.8s" repeatCount="indefinite"/></circle>
    </g>
    <g fill="#A7F3D0">
      <circle r="2.2"><animateMotion path="M0 0 L90 -50" dur="1.9s" repeatCount="indefinite"/></circle>
      <circle r="2.2"><animateMotion path="M0 0 L110 0" dur="2.1s" repeatCount="indefinite"/></circle>
      <circle r="2.2"><animateMotion path="M0 0 L-110 0" dur="1.7s" repeatCount="indefinite"/></circle>
    </g>
    <g font-family="Inter, monospace" font-size="9" font-weight="700" fill="#4ADE80">
      <text x="90" y="-58" text-anchor="middle">SIEM</text>
      <text x="120" y="4" text-anchor="start">XDR</text>
      <text x="90" y="66" text-anchor="middle">SOAR</text>
      <text x="-95" y="-58" text-anchor="middle">TI</text>
      <text x="-125" y="4" text-anchor="end">CVE</text>
      <text x="-95" y="66" text-anchor="middle">SBOM</text>
    </g>
  </g>

  <!-- KPI card Band A -->
  <g transform="translate(990,105)" filter="url(#softShadow)">
    <rect x="-80" y="-65" width="180" height="125" rx="14" fill="#0A1B2E" stroke="#4ADE80" stroke-width="2.2"/>
    <text x="10" y="-30" text-anchor="middle" font-family="Inter, Helvetica, Arial, sans-serif" font-size="13" font-weight="700" letter-spacing="2" fill="#4ADE80">FALSE POSITIVES</text>
    <text x="10" y="24" text-anchor="middle" font-family="Inter, Helvetica, Arial, sans-serif" font-size="60" font-weight="900" fill="#F5F7FA">-40%</text>
    <text x="10" y="50" text-anchor="middle" font-family="Inter, Helvetica, Arial, sans-serif" font-size="12" font-weight="600" fill="#9FD3B0">SOC alert fatigue reduced</text>
  </g>

  <g fill="#4ADE80">
    <circle cx="420" cy="168" r="1.5"><animate attributeName="opacity" values="0;1;0" dur="1.8s" repeatCount="indefinite"/></circle>
    <circle cx="480" cy="168" r="1.5"><animate attributeName="opacity" values="0;1;0" dur="1.6s" begin="0.3s" repeatCount="indefinite"/></circle>
    <circle cx="540" cy="168" r="1.5"><animate attributeName="opacity" values="0;1;0" dur="2.0s" begin="0.6s" repeatCount="indefinite"/></circle>
  </g>
  <g fill="#4ADE80" opacity="0.5">
    <rect x="820" y="32" width="6" height="2"><animate attributeName="opacity" values="0.2;1;0.2" dur="1.4s" repeatCount="indefinite"/></rect>
    <rect x="840" y="32" width="6" height="2"><animate attributeName="opacity" values="0.2;1;0.2" dur="1.2s" begin="0.3s" repeatCount="indefinite"/></rect>
    <rect x="860" y="32" width="6" height="2"><animate attributeName="opacity" values="0.2;1;0.2" dur="1.6s" begin="0.6s" repeatCount="indefinite"/></rect>
  </g>
</g>

<!-- BAND B: BlackField Ransomware (y=210-420) -->
<g>
  <rect x="0" y="210" width="1200" height="210" fill="url(#bandB)"/>
  <rect x="0" y="210" width="1200" height="210" fill="url(#gridDotB)" opacity="0.7"/>
  <rect x="0" y="210" width="8" height="210" fill="#E63946"/>

  <g filter="url(#textShadow)">
    <text x="30" y="254" font-family="Inter, Helvetica, Arial, sans-serif" font-size="13" font-weight="700" letter-spacing="2.4" fill="#F87171">RANSOMWARE  -  CODE REUSE ANALYSIS</text>
    <text x="30" y="296" font-family="Inter, Helvetica, Arial, sans-serif" font-size="36" font-weight="800" fill="#F5F7FA">BlackField : Conti + LockBit 3.0</text>
    <text x="30" y="328" font-family="Inter, Helvetica, Arial, sans-serif" font-size="19" font-weight="600" fill="#FBB6BD">Leaked source reuse : fast variant cycle : attribution loss</text>
    <text x="30" y="356" font-family="Inter, Helvetica, Arial, sans-serif" font-size="14" font-weight="500" fill="#D9C9CE">VSS deletion - T1486 - T1490 - RaaS ecosystem proliferation</text>
  </g>

  <!-- Ransomware radial threat illustration -->
  <g transform="translate(680,315)">
    <circle cx="0" cy="0" r="75" fill="url(#ransomGlow)">
      <animate attributeName="r" values="55;85;55" dur="3.2s" repeatCount="indefinite"/>
      <animate attributeName="opacity" values="0.4;0.9;0.4" dur="3.2s" repeatCount="indefinite"/>
    </circle>
    <circle cx="0" cy="0" r="30" fill="#E63946" stroke="#FCA5A5" stroke-width="2" filter="url(#softShadow)"/>
    <text x="0" y="-3" text-anchor="middle" font-family="Inter, monospace" font-size="10" font-weight="800" fill="#FFF">BLACK</text>
    <text x="0" y="11" text-anchor="middle" font-family="Inter, monospace" font-size="10" font-weight="700" fill="#FFE4E6">FIELD</text>

    <g stroke="#E63946" stroke-width="1.1" stroke-opacity="0.5" stroke-dasharray="3 4" fill="none">
      <line x1="0" y1="0" x2="110" y2="-60"/>
      <line x1="0" y1="0" x2="130" y2="10"/>
      <line x1="0" y1="0" x2="100" y2="75"/>
      <line x1="0" y1="0" x2="-110" y2="-60"/>
      <line x1="0" y1="0" x2="-130" y2="10"/>
      <line x1="0" y1="0" x2="-100" y2="75"/>
    </g>
    <g>
      <circle cx="110" cy="-60" r="5" fill="#F87171"><animate attributeName="opacity" values="0.3;1;0.3" dur="2.1s" repeatCount="indefinite"/></circle>
      <circle cx="130" cy="10" r="5" fill="#F87171"><animate attributeName="opacity" values="0.3;1;0.3" dur="1.8s" repeatCount="indefinite"/></circle>
      <circle cx="100" cy="75" r="5" fill="#F87171"><animate attributeName="opacity" values="0.3;1;0.3" dur="2.4s" repeatCount="indefinite"/></circle>
      <circle cx="-110" cy="-60" r="5" fill="#F87171"><animate attributeName="opacity" values="0.3;1;0.3" dur="1.9s" repeatCount="indefinite"/></circle>
      <circle cx="-130" cy="10" r="5" fill="#F87171"><animate attributeName="opacity" values="0.3;1;0.3" dur="2.2s" repeatCount="indefinite"/></circle>
      <circle cx="-100" cy="75" r="5" fill="#F87171"><animate attributeName="opacity" values="0.3;1;0.3" dur="2.0s" repeatCount="indefinite"/></circle>
    </g>
    <g fill="#FECACA">
      <circle r="2.4"><animateMotion path="M0 0 L110 -60" dur="1.8s" repeatCount="indefinite"/></circle>
      <circle r="2.4"><animateMotion path="M0 0 L130 10" dur="2.0s" repeatCount="indefinite"/></circle>
      <circle r="2.4"><animateMotion path="M0 0 L-130 10" dur="2.2s" repeatCount="indefinite"/></circle>
      <circle r="2.4"><animateMotion path="M0 0 L-110 -60" dur="1.9s" repeatCount="indefinite"/></circle>
    </g>
    <g font-family="Inter, monospace" font-size="9" font-weight="700" fill="#F87171">
      <text x="110" y="-68" text-anchor="middle">Conti leak</text>
      <text x="148" y="14" text-anchor="start">LockBit 3</text>
      <text x="100" y="92" text-anchor="middle">new variant</text>
      <text x="-110" y="-68" text-anchor="middle">Conti leak</text>
      <text x="-148" y="14" text-anchor="end">LockBit 3</text>
      <text x="-100" y="92" text-anchor="middle">new variant</text>
    </g>
  </g>

  <!-- KPI card Band B -->
  <g transform="translate(990,315)" filter="url(#softShadow)">
    <rect x="-80" y="-65" width="180" height="125" rx="14" fill="#1E0A14" stroke="#E63946" stroke-width="2.2"/>
    <text x="10" y="-30" text-anchor="middle" font-family="Inter, Helvetica, Arial, sans-serif" font-size="13" font-weight="700" letter-spacing="2" fill="#F87171">SEVERITY</text>
    <text x="10" y="20" text-anchor="middle" font-family="Inter, Helvetica, Arial, sans-serif" font-size="52" font-weight="900" fill="#F5F7FA">CRIT</text>
    <text x="10" y="50" text-anchor="middle" font-family="Inter, Helvetica, Arial, sans-serif" font-size="12" font-weight="600" fill="#FBB6BD">VSS del - weeks-to-variant</text>
  </g>

  <g fill="#F87171">
    <circle cx="480" cy="268" r="1.2"><animate attributeName="opacity" values="0;1;0" dur="1.8s" repeatCount="indefinite"/></circle>
    <circle cx="510" cy="273" r="1.2"><animate attributeName="opacity" values="0;1;0" dur="1.6s" begin="0.2s" repeatCount="indefinite"/></circle>
    <circle cx="540" cy="276" r="1.2"><animate attributeName="opacity" values="0;1;0" dur="2.0s" begin="0.4s" repeatCount="indefinite"/></circle>
    <circle cx="480" cy="368" r="1.2"><animate attributeName="opacity" values="0;1;0" dur="1.8s" repeatCount="indefinite"/></circle>
    <circle cx="510" cy="373" r="1.2"><animate attributeName="opacity" values="0;1;0" dur="1.6s" begin="0.3s" repeatCount="indefinite"/></circle>
  </g>
</g>

<!-- BAND C: Bitcoin crash + Russia sanctions evasion (y=420-630) -->
<g>
  <rect x="0" y="420" width="1200" height="210" fill="url(#bandC)"/>
  <rect x="0" y="420" width="1200" height="210" fill="url(#hexBtc)" opacity="0.6"/>
  <rect x="0" y="420" width="8" height="210" fill="#F59E0B"/>

  <g filter="url(#textShadow)">
    <text x="30" y="464" font-family="Inter, Helvetica, Arial, sans-serif" font-size="13" font-weight="700" letter-spacing="2.4" fill="#F59E0B">BLOCKCHAIN  -  CRYPTO RISK</text>
    <text x="30" y="506" font-family="Inter, Helvetica, Arial, sans-serif" font-size="36" font-weight="800" fill="#F5F7FA">BTC -5% + $11B Russia Evasion</text>
    <text x="30" y="538" font-family="Inter, Helvetica, Arial, sans-serif" font-size="19" font-weight="600" fill="#FDE68A">5 exchanges busted : low-liquidity window exploit</text>
    <text x="30" y="566" font-family="Inter, Helvetica, Arial, sans-serif" font-size="14" font-weight="500" fill="#E0D5B6">Bitcoin $65K -5% in 2h - OFAC sanctions evasion network - AML failure</text>
  </g>

  <!-- BTC price crash chart -->
  <g transform="translate(490,510)">
    <rect x="-20" y="-60" width="280" height="90" rx="6" fill="#1A1200" stroke="#F59E0B" stroke-width="1" stroke-opacity="0.4"/>
    <polyline points="0,0 40,-2 80,-4 100,-3 120,-5 140,-30 160,-50 180,-52 200,-50 220,-48 240,-44" stroke="url(#btcLine)" stroke-width="2.5" fill="none"/>
    <line x1="140" y1="-60" x2="140" y2="30" stroke="#EF4444" stroke-width="1" stroke-dasharray="3 3" stroke-opacity="0.6"/>
    <text x="140" y="-62" text-anchor="middle" font-family="Inter, monospace" font-size="9" font-weight="800" fill="#EF4444">-5%</text>
    <text x="-5" y="4" text-anchor="end" font-family="Inter, monospace" font-size="9" font-weight="700" fill="#F59E0B">$65K</text>
    <text x="245" y="-44" text-anchor="start" font-family="Inter, monospace" font-size="9" font-weight="700" fill="#FDE68A">$61K</text>
    <circle r="3" fill="#F59E0B"><animateMotion path="M0,0 L40,-2 L80,-4 L100,-3 L120,-5 L140,-30 L160,-50 L180,-52 L200,-50 L220,-48 L240,-44" dur="4s" repeatCount="indefinite"/></circle>
    <text x="110" y="26" text-anchor="middle" font-family="Inter, monospace" font-size="10" font-weight="700" fill="#F59E0B">2H CRASH WINDOW</text>
  </g>

  <!-- Russia sanctions evasion network mini-graphic -->
  <g transform="translate(830,515)">
    <circle cx="0" cy="0" r="18" fill="#1E1200" stroke="#EF4444" stroke-width="1.5"/>
    <text x="0" y="4" text-anchor="middle" font-family="Inter, monospace" font-size="9" font-weight="800" fill="#EF4444">RU</text>
    <g stroke="#F59E0B" stroke-width="1" stroke-opacity="0.5" stroke-dasharray="2 3" fill="none">
      <line x1="18" y1="0" x2="60" y2="-30"/>
      <line x1="18" y1="0" x2="70" y2="0"/>
      <line x1="18" y1="0" x2="60" y2="30"/>
    </g>
    <g fill="#F59E0B">
      <circle cx="60" cy="-30" r="5"><animate attributeName="opacity" values="0.4;1;0.4" dur="2.0s" repeatCount="indefinite"/></circle>
      <circle cx="70" cy="0" r="5"><animate attributeName="opacity" values="0.4;1;0.4" dur="1.7s" repeatCount="indefinite"/></circle>
      <circle cx="60" cy="30" r="5"><animate attributeName="opacity" values="0.4;1;0.4" dur="2.3s" repeatCount="indefinite"/></circle>
    </g>
    <g font-family="Inter, monospace" font-size="8" font-weight="700" fill="#FDE68A">
      <text x="75" y="-28" text-anchor="start">EX 1</text>
      <text x="80" y="4" text-anchor="start">EX 2</text>
      <text x="75" y="34" text-anchor="start">EX 3</text>
    </g>
    <g fill="#FDE68A" opacity="0.9">
      <circle r="2"><animateMotion path="M18 0 L60 -30" dur="1.6s" repeatCount="indefinite"/></circle>
      <circle r="2"><animateMotion path="M18 0 L70 0" dur="2.1s" repeatCount="indefinite"/></circle>
      <circle r="2"><animateMotion path="M18 0 L60 30" dur="1.9s" repeatCount="indefinite"/></circle>
    </g>
    <text x="40" y="52" text-anchor="middle" font-family="Inter, monospace" font-size="9" font-weight="700" fill="#F59E0B">$11B EVASION</text>
  </g>

  <!-- KPI card Band C -->
  <g transform="translate(990,525)" filter="url(#softShadow)">
    <rect x="-80" y="-65" width="180" height="125" rx="14" fill="#1E1400" stroke="#F59E0B" stroke-width="2.2"/>
    <text x="10" y="-30" text-anchor="middle" font-family="Inter, Helvetica, Arial, sans-serif" font-size="13" font-weight="700" letter-spacing="2" fill="#F59E0B">EVASION VOL.</text>
    <text x="10" y="26" text-anchor="middle" font-family="Inter, Helvetica, Arial, sans-serif" font-size="60" font-weight="900" fill="#F5F7FA">$11B</text>
    <text x="10" y="50" text-anchor="middle" font-family="Inter, Helvetica, Arial, sans-serif" font-size="12" font-weight="600" fill="#FDE68A">5 platforms - OFAC targets</text>
  </g>
</g>

<!-- QR code (bottom-right corner) -->
<g transform="translate(1075,598)" filter="url(#softShadow)">
  <rect x="-8" y="-8" width="100" height="100" rx="6" fill="#FFFFFF"/>
  <g transform="scale(2.0488)" fill="#0A1020">
    <path d="M0 0h7v1h-7zM9 0h1v1h-1zM12 0h2v1h-2zM18 0h2v1h-2zM21 0h1v1h-1zM25 0h3v1h-3zM30 0h2v1h-2zM34 0h7v1h-7zM0 1h1v1h-1zM6 1h1v1h-1zM10 1h1v1h-1zM12 1h3v1h-3zM16 1h2v1h-2zM23 1h1v1h-1zM25 1h4v1h-4zM30 1h1v1h-1zM32 1h1v1h-1zM34 1h1v1h-1zM40 1h1v1h-1zM0 2h1v1h-1zM2 2h3v1h-3zM6 2h1v1h-1zM10 2h1v1h-1zM13 2h1v1h-1zM16 2h2v1h-2zM19 2h1v1h-1zM21 2h3v1h-3zM26 2h1v1h-1zM29 2h1v1h-1zM32 2h1v1h-1zM34 2h1v1h-1zM36 2h3v1h-3zM40 2h1v1h-1zM0 3h1v1h-1zM2 3h3v1h-3zM6 3h1v1h-1zM10 3h1v1h-1zM12 3h2v1h-2zM15 3h3v1h-3zM19 3h7v1h-7zM27 3h6v1h-6zM34 3h1v1h-1zM36 3h3v1h-3zM40 3h1v1h-1zM0 4h1v1h-1zM2 4h3v1h-3zM6 4h1v1h-1zM9 4h1v1h-1zM11 4h1v1h-1zM13 4h2v1h-2zM17 4h1v1h-1zM19 4h1v1h-1zM25 4h3v1h-3zM32 4h1v1h-1zM34 4h1v1h-1zM36 4h3v1h-3zM40 4h1v1h-1zM0 5h1v1h-1zM6 5h1v1h-1zM8 5h2v1h-2zM11 5h1v1h-1zM13 5h1v1h-1zM16 5h4v1h-4zM24 5h1v1h-1zM26 5h2v1h-2zM30 5h3v1h-3zM34 5h1v1h-1zM40 5h1v1h-1zM0 6h7v1h-7zM8 6h1v1h-1zM10 6h1v1h-1zM12 6h1v1h-1zM14 6h1v1h-1zM16 6h1v1h-1zM18 6h1v1h-1zM20 6h1v1h-1zM22 6h1v1h-1zM24 6h1v1h-1zM26 6h1v1h-1zM28 6h1v1h-1zM30 6h1v1h-1zM32 6h1v1h-1zM34 6h7v1h-7zM10 7h3v1h-3zM17 7h1v1h-1zM19 7h4v1h-4zM24 7h1v1h-1zM27 7h3v1h-3zM31 7h1v1h-1zM0 8h1v1h-1zM3 8h1v1h-1zM5 8h2v1h-2zM8 8h1v1h-1zM13 8h3v1h-3zM19 8h1v1h-1zM21 8h1v1h-1zM25 8h2v1h-2zM32 8h2v1h-2zM35 8h1v1h-1zM0 9h2v1h-2zM3 9h1v1h-1zM5 9h1v1h-1zM9 9h1v1h-1zM14 9h1v1h-1zM16 9h2v1h-2zM21 9h1v1h-1zM24 9h3v1h-3zM29 9h1v1h-1zM32 9h1v1h-1zM37 9h4v1h-4zM2 10h5v1h-5zM8 10h3v1h-3zM16 10h5v1h-5zM22 10h1v1h-1zM24 10h2v1h-2zM30 10h2v1h-2zM35 10h5v1h-5zM1 11h3v1h-3zM7 11h1v1h-1zM10 11h1v1h-1zM14 11h3v1h-3zM18 11h1v1h-1zM21 11h1v1h-1zM24 11h3v1h-3zM28 11h1v1h-1zM33 11h2v1h-2zM36 11h1v1h-1zM38 11h1v1h-1zM40 11h1v1h-1zM1 12h1v1h-1zM3 12h6v1h-6zM11 12h2v1h-2zM14 12h4v1h-4zM19 12h3v1h-3zM25 12h7v1h-7zM33 12h3v1h-3zM37 12h1v1h-1zM39 12h1v1h-1zM0 13h2v1h-2zM4 13h2v1h-2zM7 13h2v1h-2zM10 13h3v1h-3zM14 13h1v1h-1zM16 13h2v1h-2zM20 13h1v1h-1zM22 13h2v1h-2zM25 13h1v1h-1zM28 13h1v1h-1zM30 13h1v1h-1zM32 13h2v1h-2zM37 13h2v1h-2zM0 14h1v1h-1zM2 14h1v1h-1zM5 14h3v1h-3zM11 14h1v1h-1zM14 14h2v1h-2zM17 14h3v1h-3zM21 14h1v1h-1zM23 14h1v1h-1zM30 14h1v1h-1zM32 14h1v1h-1zM34 14h1v1h-1zM37 14h4v1h-4zM0 15h1v1h-1zM2 15h3v1h-3zM8 15h1v1h-1zM10 15h1v1h-1zM13 15h3v1h-3zM17 15h2v1h-2zM20 15h4v1h-4zM25 15h2v1h-2zM28 15h4v1h-4zM34 15h2v1h-2zM1 16h4v1h-4zM6 16h2v1h-2zM9 16h2v1h-2zM17 16h1v1h-1zM22 16h1v1h-1zM27 16h1v1h-1zM29 16h1v1h-1zM31 16h2v1h-2zM35 16h1v1h-1zM39 16h1v1h-1zM1 17h1v1h-1zM3 17h1v1h-1zM5 17h1v1h-1zM7 17h1v1h-1zM9 17h1v1h-1zM11 17h1v1h-1zM13 17h5v1h-5zM19 17h1v1h-1zM21 17h1v1h-1zM23 17h2v1h-2zM26 17h3v1h-3zM34 17h2v1h-2zM37 17h4v1h-4zM2 18h1v1h-1zM6 18h1v1h-1zM8 18h4v1h-4zM15 18h1v1h-1zM17 18h1v1h-1zM22 18h1v1h-1zM25 18h1v1h-1zM29 18h2v1h-2zM33 18h2v1h-2zM36 18h1v1h-1zM40 18h1v1h-1zM3 19h1v1h-1zM5 19h1v1h-1zM7 19h3v1h-3zM11 19h3v1h-3zM16 19h1v1h-1zM19 19h3v1h-3zM25 19h1v1h-1zM29 19h2v1h-2zM32 19h4v1h-4zM37 19h1v1h-1zM40 19h1v1h-1zM0 20h2v1h-2zM4 20h3v1h-3zM13 20h5v1h-5zM19 20h2v1h-2zM22 20h3v1h-3zM26 20h2v1h-2zM29 20h1v1h-1zM32 20h3v1h-3zM38 20h2v1h-2zM1 21h2v1h-2zM12 21h1v1h-1zM14 21h1v1h-1zM16 21h2v1h-2zM19 21h4v1h-4zM25 21h1v1h-1zM29 21h2v1h-2zM34 21h1v1h-1zM38 21h3v1h-3zM0 22h3v1h-3zM4 22h5v1h-5zM11 22h10v1h-10zM24 22h2v1h-2zM28 22h1v1h-1zM31 22h1v1h-1zM33 22h4v1h-4zM38 22h2v1h-2zM0 23h2v1h-2zM4 23h2v1h-2zM9 23h2v1h-2zM15 23h2v1h-2zM18 23h6v1h-6zM25 23h2v1h-2zM28 23h1v1h-1zM30 23h1v1h-1zM34 23h1v1h-1zM38 23h3v1h-3zM0 24h3v1h-3zM5 24h5v1h-5zM11 24h1v1h-1zM15 24h1v1h-1zM17 24h1v1h-1zM19 24h3v1h-3zM24 24h2v1h-2zM27 24h3v1h-3zM31 24h5v1h-5zM37 24h1v1h-1zM39 24h1v1h-1zM0 25h3v1h-3zM4 25h2v1h-2zM10 25h4v1h-4zM16 25h2v1h-2zM19 25h4v1h-4zM24 25h3v1h-3zM28 25h2v1h-2zM31 25h1v1h-1zM34 25h1v1h-1zM37 25h1v1h-1zM39 25h1v1h-1zM0 26h3v1h-3zM6 26h5v1h-5zM12 26h1v1h-1zM16 26h2v1h-2zM20 26h1v1h-1zM23 26h1v1h-1zM25 26h2v1h-2zM28 26h1v1h-1zM30 26h1v1h-1zM32 26h5v1h-5zM39 26h2v1h-2zM0 27h1v1h-1zM4 27h1v1h-1zM8 27h3v1h-3zM15 27h1v1h-1zM17 27h2v1h-2zM20 27h3v1h-3zM24 27h4v1h-4zM29 27h1v1h-1zM32 27h1v1h-1zM40 27h1v1h-1zM4 28h1v1h-1zM6 28h3v1h-3zM11 28h2v1h-2zM14 28h4v1h-4zM21 28h4v1h-4zM26 28h2v1h-2zM29 28h2v1h-2zM32 28h2v1h-2zM35 28h1v1h-1zM1 29h4v1h-4zM7 29h1v1h-1zM9 29h2v1h-2zM12 29h2v1h-2zM15 29h1v1h-1zM17 29h1v1h-1zM19 29h3v1h-3zM24 29h2v1h-2zM28 29h4v1h-4zM35 29h1v1h-1zM37 29h2v1h-2zM40 29h1v1h-1zM0 30h1v1h-1zM3 30h5v1h-5zM9 30h2v1h-2zM13 30h1v1h-1zM15 30h3v1h-3zM22 30h4v1h-4zM35 30h1v1h-1zM38 30h3v1h-3zM5 31h1v1h-1zM7 31h1v1h-1zM9 31h1v1h-1zM11 31h1v1h-1zM14 31h1v1h-1zM16 31h2v1h-2zM21 31h1v1h-1zM24 31h1v1h-1zM26 31h1v1h-1zM29 31h1v1h-1zM31 31h3v1h-3zM36 31h2v1h-2zM0 32h1v1h-1zM2 32h1v1h-1zM4 32h3v1h-3zM10 32h1v1h-1zM14 32h2v1h-2zM20 32h1v1h-1zM25 32h2v1h-2zM31 32h6v1h-6zM38 32h1v1h-1zM40 32h1v1h-1zM8 33h2v1h-2zM16 33h5v1h-5zM24 33h2v1h-2zM27 33h2v1h-2zM30 33h3v1h-3zM36 33h5v1h-5zM0 34h7v1h-7zM10 34h3v1h-3zM15 34h1v1h-1zM18 34h2v1h-2zM21 34h2v1h-2zM25 34h2v1h-2zM28 34h2v1h-2zM32 34h1v1h-1zM34 34h1v1h-1zM36 34h1v1h-1zM38 34h2v1h-2zM0 35h1v1h-1zM6 35h1v1h-1zM8 35h6v1h-6zM16 35h1v1h-1zM18 35h3v1h-3zM24 35h2v1h-2zM27 35h1v1h-1zM30 35h1v1h-1zM32 35h1v1h-1zM36 35h1v1h-1zM38 35h1v1h-1zM40 35h1v1h-1zM0 36h1v1h-1zM2 36h3v1h-3zM6 36h1v1h-1zM9 36h1v1h-1zM12 36h2v1h-2zM15 36h1v1h-1zM18 36h3v1h-3zM26 36h3v1h-3zM32 36h6v1h-6zM39 36h1v1h-1zM0 37h1v1h-1zM2 37h3v1h-3zM6 37h1v1h-1zM8 37h1v1h-1zM10 37h1v1h-1zM14 37h3v1h-3zM18 37h5v1h-5zM26 37h1v1h-1zM28 37h2v1h-2zM31 37h4v1h-4zM36 37h2v1h-2zM40 37h1v1h-1zM0 38h1v1h-1zM2 38h3v1h-3zM6 38h1v1h-1zM9 38h1v1h-1zM13 38h4v1h-4zM20 38h2v1h-2zM23 38h4v1h-4zM28 38h1v1h-1zM30 38h2v1h-2zM36 38h5v1h-5zM0 39h1v1h-1zM6 39h1v1h-1zM11 39h1v1h-1zM14 39h2v1h-2zM17 39h1v1h-1zM21 39h2v1h-2zM25 39h2v1h-2zM28 39h6v1h-6zM35 39h1v1h-1zM39 39h1v1h-1zM0 40h7v1h-7zM8 40h3v1h-3zM12 40h1v1h-1zM16 40h1v1h-1zM18 40h5v1h-5zM24 40h1v1h-1zM29 40h1v1h-1zM31 40h7v1h-7zM39 40h1v1h-1z"/>
  </g>
</g>
<text x="1122" y="608" font-family="Inter, Helvetica, Arial, sans-serif" font-size="10" font-weight="700" fill="#F5F7FA" text-anchor="middle">scan / full post</text>

<!-- cover-qr: https://tech.2twodragon.com/posts/2026/02/23/Tech_Security_Weekly_Digest_AI_Ransomware_Data_Bitcoin/ : 41x41 -->
<g transform="translate(1080,504)" filter="url(#softShadow)">
  <rect x="-8" y="-8" width="100" height="100" rx="6" fill="#FFFFFF"/>
  <g transform="scale(2.048780)" fill="#0A1020">
    <path d="M0 0h7v1h-7zM8 0h1v1h-1zM10 0h1v1h-1zM12 0h5v1h-5zM18 0h3v1h-3zM22 0h1v1h-1zM25 0h1v1h-1zM28 0h1v1h-1zM30 0h3v1h-3zM34 0h7v1h-7zM0 1h1v1h-1zM6 1h1v1h-1zM8 1h3v1h-3zM12 1h2v1h-2zM15 1h1v1h-1zM17 1h1v1h-1zM20 1h4v1h-4zM26 1h1v1h-1zM29 1h1v1h-1zM34 1h1v1h-1zM40 1h1v1h-1zM0 2h1v1h-1zM2 2h3v1h-3zM6 2h1v1h-1zM9 2h1v1h-1zM11 2h2v1h-2zM14 2h1v1h-1zM16 2h1v1h-1zM18 2h1v1h-1zM22 2h1v1h-1zM24 2h3v1h-3zM30 2h3v1h-3zM34 2h1v1h-1zM36 2h3v1h-3zM40 2h1v1h-1zM0 3h1v1h-1zM2 3h3v1h-3zM6 3h1v1h-1zM8 3h4v1h-4zM13 3h1v1h-1zM15 3h2v1h-2zM18 3h1v1h-1zM20 3h1v1h-1zM25 3h5v1h-5zM32 3h1v1h-1zM34 3h1v1h-1zM36 3h3v1h-3zM40 3h1v1h-1zM0 4h1v1h-1zM2 4h3v1h-3zM6 4h1v1h-1zM9 4h1v1h-1zM11 4h3v1h-3zM15 4h2v1h-2zM18 4h1v1h-1zM23 4h2v1h-2zM27 4h1v1h-1zM29 4h4v1h-4zM34 4h1v1h-1zM36 4h3v1h-3zM40 4h1v1h-1zM0 5h1v1h-1zM6 5h1v1h-1zM9 5h1v1h-1zM11 5h1v1h-1zM13 5h10v1h-10zM24 5h1v1h-1zM28 5h1v1h-1zM30 5h2v1h-2zM34 5h1v1h-1zM40 5h1v1h-1zM0 6h7v1h-7zM8 6h1v1h-1zM10 6h1v1h-1zM12 6h1v1h-1zM14 6h1v1h-1zM16 6h1v1h-1zM18 6h1v1h-1zM20 6h1v1h-1zM22 6h1v1h-1zM24 6h1v1h-1zM26 6h1v1h-1zM28 6h1v1h-1zM30 6h1v1h-1zM32 6h1v1h-1zM34 6h7v1h-7zM8 7h2v1h-2zM11 7h3v1h-3zM17 7h1v1h-1zM19 7h1v1h-1zM24 7h1v1h-1zM26 7h1v1h-1zM29 7h1v1h-1zM31 7h2v1h-2zM0 8h1v1h-1zM2 8h2v1h-2zM5 8h3v1h-3zM10 8h2v1h-2zM15 8h4v1h-4zM21 8h1v1h-1zM23 8h2v1h-2zM26 8h1v1h-1zM29 8h4v1h-4zM34 8h1v1h-1zM37 8h1v1h-1zM39 8h2v1h-2zM3 9h1v1h-1zM7 9h1v1h-1zM9 9h1v1h-1zM12 9h1v1h-1zM14 9h1v1h-1zM16 9h1v1h-1zM18 9h2v1h-2zM21 9h1v1h-1zM23 9h1v1h-1zM26 9h1v1h-1zM30 9h3v1h-3zM35 9h2v1h-2zM38 9h3v1h-3zM1 10h3v1h-3zM6 10h6v1h-6zM13 10h2v1h-2zM20 10h1v1h-1zM22 10h2v1h-2zM25 10h2v1h-2zM29 10h1v1h-1zM38 10h2v1h-2zM0 11h2v1h-2zM4 11h2v1h-2zM7 11h6v1h-6zM14 11h1v1h-1zM16 11h1v1h-1zM18 11h1v1h-1zM20 11h1v1h-1zM22 11h1v1h-1zM24 11h2v1h-2zM27 11h1v1h-1zM32 11h1v1h-1zM36 11h1v1h-1zM39 11h1v1h-1zM2 12h1v1h-1zM4 12h9v1h-9zM15 12h3v1h-3zM19 12h1v1h-1zM22 12h1v1h-1zM24 12h2v1h-2zM29 12h3v1h-3zM35 12h1v1h-1zM37 12h2v1h-2zM40 12h1v1h-1zM1 13h2v1h-2zM4 13h2v1h-2zM8 13h2v1h-2zM12 13h1v1h-1zM15 13h3v1h-3zM21 13h1v1h-1zM24 13h5v1h-5zM30 13h2v1h-2zM34 13h1v1h-1zM37 13h1v1h-1zM39 13h2v1h-2zM0 14h1v1h-1zM3 14h5v1h-5zM12 14h3v1h-3zM21 14h1v1h-1zM24 14h2v1h-2zM28 14h2v1h-2zM31 14h1v1h-1zM34 14h3v1h-3zM38 14h3v1h-3zM0 15h1v1h-1zM2 15h1v1h-1zM4 15h1v1h-1zM10 15h2v1h-2zM14 15h3v1h-3zM19 15h4v1h-4zM24 15h1v1h-1zM26 15h1v1h-1zM32 15h1v1h-1zM34 15h1v1h-1zM36 15h2v1h-2zM1 16h1v1h-1zM5 16h2v1h-2zM9 16h5v1h-5zM18 16h2v1h-2zM22 16h1v1h-1zM24 16h2v1h-2zM30 16h1v1h-1zM32 16h1v1h-1zM36 16h2v1h-2zM39 16h1v1h-1zM1 17h1v1h-1zM3 17h1v1h-1zM7 17h5v1h-5zM13 17h1v1h-1zM17 17h1v1h-1zM19 17h7v1h-7zM32 17h2v1h-2zM35 17h1v1h-1zM37 17h1v1h-1zM1 18h1v1h-1zM3 18h1v1h-1zM6 18h1v1h-1zM8 18h2v1h-2zM11 18h1v1h-1zM16 18h2v1h-2zM20 18h1v1h-1zM22 18h1v1h-1zM26 18h3v1h-3zM32 18h1v1h-1zM36 18h1v1h-1zM38 18h2v1h-2zM0 19h1v1h-1zM4 19h2v1h-2zM8 19h1v1h-1zM11 19h2v1h-2zM14 19h2v1h-2zM19 19h1v1h-1zM22 19h1v1h-1zM26 19h4v1h-4zM35 19h1v1h-1zM37 19h3v1h-3zM1 20h1v1h-1zM6 20h1v1h-1zM8 20h2v1h-2zM11 20h1v1h-1zM13 20h1v1h-1zM15 20h2v1h-2zM18 20h1v1h-1zM20 20h1v1h-1zM22 20h1v1h-1zM26 20h2v1h-2zM29 20h11v1h-11zM0 21h1v1h-1zM2 21h2v1h-2zM5 21h1v1h-1zM8 21h1v1h-1zM10 21h1v1h-1zM12 21h2v1h-2zM15 21h2v1h-2zM18 21h1v1h-1zM20 21h2v1h-2zM23 21h2v1h-2zM30 21h2v1h-2zM34 21h7v1h-7zM3 22h2v1h-2zM6 22h1v1h-1zM11 22h3v1h-3zM20 22h1v1h-1zM23 22h2v1h-2zM28 22h3v1h-3zM33 22h2v1h-2zM37 22h3v1h-3zM0 23h2v1h-2zM3 23h1v1h-1zM5 23h1v1h-1zM7 23h1v1h-1zM9 23h2v1h-2zM13 23h4v1h-4zM18 23h2v1h-2zM23 23h1v1h-1zM25 23h1v1h-1zM27 23h1v1h-1zM30 23h1v1h-1zM32 23h2v1h-2zM40 23h1v1h-1zM0 24h2v1h-2zM3 24h5v1h-5zM10 24h3v1h-3zM15 24h3v1h-3zM19 24h1v1h-1zM22 24h1v1h-1zM24 24h3v1h-3zM29 24h1v1h-1zM31 24h1v1h-1zM35 24h1v1h-1zM37 24h2v1h-2zM0 25h2v1h-2zM3 25h3v1h-3zM8 25h4v1h-4zM15 25h3v1h-3zM19 25h1v1h-1zM24 25h2v1h-2zM27 25h1v1h-1zM29 25h1v1h-1zM31 25h3v1h-3zM37 25h2v1h-2zM40 25h1v1h-1zM0 26h1v1h-1zM2 26h1v1h-1zM4 26h3v1h-3zM8 26h3v1h-3zM12 26h1v1h-1zM14 26h1v1h-1zM16 26h1v1h-1zM18 26h3v1h-3zM24 26h1v1h-1zM26 26h1v1h-1zM28 26h2v1h-2zM31 26h4v1h-4zM37 26h1v1h-1zM39 26h2v1h-2zM1 27h1v1h-1zM4 27h2v1h-2zM7 27h2v1h-2zM10 27h2v1h-2zM14 27h1v1h-1zM19 27h5v1h-5zM26 27h2v1h-2zM30 27h3v1h-3zM35 27h3v1h-3zM40 27h1v1h-1zM4 28h3v1h-3zM9 28h1v1h-1zM12 28h5v1h-5zM18 28h2v1h-2zM21 28h2v1h-2zM25 28h3v1h-3zM31 28h3v1h-3zM36 28h2v1h-2zM1 29h3v1h-3zM7 29h2v1h-2zM12 29h2v1h-2zM15 29h1v1h-1zM17 29h1v1h-1zM19 29h1v1h-1zM22 29h5v1h-5zM29 29h7v1h-7zM37 29h1v1h-1zM39 29h1v1h-1zM0 30h1v1h-1zM2 30h1v1h-1zM5 30h2v1h-2zM12 30h3v1h-3zM17 30h1v1h-1zM20 30h2v1h-2zM25 30h4v1h-4zM32 30h4v1h-4zM2 31h1v1h-1zM4 31h1v1h-1zM7 31h1v1h-1zM10 31h1v1h-1zM12 31h1v1h-1zM16 31h2v1h-2zM20 31h1v1h-1zM22 31h1v1h-1zM24 31h1v1h-1zM27 31h3v1h-3zM31 31h1v1h-1zM34 31h1v1h-1zM36 31h5v1h-5zM1 32h1v1h-1zM3 32h1v1h-1zM5 32h4v1h-4zM10 32h6v1h-6zM17 32h4v1h-4zM23 32h2v1h-2zM26 32h2v1h-2zM29 32h2v1h-2zM32 32h7v1h-7zM40 32h1v1h-1zM8 33h2v1h-2zM11 33h3v1h-3zM16 33h1v1h-1zM20 33h1v1h-1zM23 33h1v1h-1zM27 33h2v1h-2zM32 33h1v1h-1zM36 33h1v1h-1zM38 33h3v1h-3zM0 34h7v1h-7zM8 34h2v1h-2zM14 34h2v1h-2zM17 34h1v1h-1zM21 34h6v1h-6zM28 34h2v1h-2zM31 34h2v1h-2zM34 34h1v1h-1zM36 34h4v1h-4zM0 35h1v1h-1zM6 35h1v1h-1zM8 35h2v1h-2zM11 35h2v1h-2zM15 35h1v1h-1zM18 35h2v1h-2zM21 35h2v1h-2zM24 35h3v1h-3zM28 35h1v1h-1zM30 35h1v1h-1zM32 35h1v1h-1zM36 35h1v1h-1zM39 35h1v1h-1zM0 36h1v1h-1zM2 36h3v1h-3zM6 36h1v1h-1zM10 36h1v1h-1zM14 36h1v1h-1zM18 36h2v1h-2zM21 36h2v1h-2zM25 36h2v1h-2zM32 36h7v1h-7zM40 36h1v1h-1zM0 37h1v1h-1zM2 37h3v1h-3zM6 37h1v1h-1zM8 37h1v1h-1zM10 37h1v1h-1zM12 37h1v1h-1zM16 37h4v1h-4zM26 37h2v1h-2zM29 37h3v1h-3zM36 37h3v1h-3zM40 37h1v1h-1zM0 38h1v1h-1zM2 38h3v1h-3zM6 38h1v1h-1zM8 38h3v1h-3zM13 38h2v1h-2zM16 38h2v1h-2zM19 38h3v1h-3zM26 38h1v1h-1zM28 38h2v1h-2zM35 38h1v1h-1zM38 38h3v1h-3zM0 39h1v1h-1zM6 39h1v1h-1zM9 39h1v1h-1zM11 39h1v1h-1zM16 39h4v1h-4zM21 39h4v1h-4zM26 39h1v1h-1zM28 39h1v1h-1zM32 39h2v1h-2zM36 39h2v1h-2zM39 39h1v1h-1zM0 40h7v1h-7zM8 40h2v1h-2zM11 40h1v1h-1zM13 40h2v1h-2zM16 40h2v1h-2zM20 40h4v1h-4zM25 40h1v1h-1zM30 40h1v1h-1zM32 40h3v1h-3zM39 40h1v1h-1z"/>
  </g>
</g>
<text x="1122" y="614" font-family="Inter, Helvetica, Arial, sans-serif" font-size="10" font-weight="700" fill="#F5F7FA" text-anchor="middle">scan / full post</text>
</svg>
