<svg xmlns="http://www.w3.org/2000/svg" viewBox="0 0 1200 630" width="1200" height="630" role="img" aria-label="Style A v3 APR 03 2026 CVE PATCH">
  <title>Style A v3 APR 03 2026 CVE PATCH</title>
  <defs>
  <linearGradient id="bgA" x1="0%" y1="0%" x2="100%" y2="100%"><stop offset="0%" stop-color="#0b0420"/><stop offset="100%" stop-color="#160829"/></linearGradient>
  <linearGradient id="bgB" x1="100%" y1="0%" x2="0%" y2="100%"><stop offset="0%" stop-color="#160829"/><stop offset="100%" stop-color="#020308"/></linearGradient>
  <radialGradient id="haloA" cx="30%" cy="40%" r="65%"><stop offset="0%" stop-color="#8b5cf6" stop-opacity="0.34"/><stop offset="100%" stop-color="#0b0420" stop-opacity="0"/></radialGradient>
  <radialGradient id="haloB" cx="75%" cy="72%" r="60%"><stop offset="0%" stop-color="#d946ef" stop-opacity="0.32"/><stop offset="100%" stop-color="#160829" stop-opacity="0"/></radialGradient>
  <linearGradient id="heroGrad" x1="0%" y1="0%" x2="100%" y2="0%"><stop offset="0%" stop-color="#d946ef"><animate attributeName="stop-color" values="#d946ef;#f0abfc;#8b5cf6;#d946ef" dur="6s" repeatCount="indefinite"/></stop><stop offset="50%" stop-color="#f0abfc"><animate attributeName="stop-color" values="#f0abfc;#a78bfa;#d946ef;#f0abfc" dur="6s" repeatCount="indefinite"/></stop><stop offset="100%" stop-color="#a78bfa"><animate attributeName="stop-color" values="#a78bfa;#8b5cf6;#f0abfc;#a78bfa" dur="6s" repeatCount="indefinite"/></stop></linearGradient>
  <linearGradient id="heroGradB" x1="0%" y1="100%" x2="100%" y2="0%"><stop offset="0%" stop-color="#8b5cf6" stop-opacity="0.9"/><stop offset="100%" stop-color="#d946ef" stop-opacity="0.95"/></linearGradient>
  <linearGradient id="panelGrad" x1="0%" y1="0%" x2="0%" y2="100%"><stop offset="0%" stop-color="#0b0420" stop-opacity="0.95"/><stop offset="100%" stop-color="#000000" stop-opacity="0.85"/></linearGradient>
  <linearGradient id="stripe" x1="0%" y1="0%" x2="100%" y2="0%"><stop offset="0%" stop-color="#8b5cf6" stop-opacity="0"/><stop offset="50%" stop-color="#8b5cf6" stop-opacity="0.7"/><stop offset="100%" stop-color="#8b5cf6" stop-opacity="0"/></linearGradient>
  <radialGradient id="nodeCore" cx="50%" cy="50%" r="50%"><stop offset="0%" stop-color="#f0abfc" stop-opacity="1"/><stop offset="55%" stop-color="#d946ef" stop-opacity="0.75"/><stop offset="100%" stop-color="#d946ef" stop-opacity="0"/></radialGradient>
  <radialGradient id="nodeGlow" cx="50%" cy="50%" r="50%"><stop offset="0%" stop-color="#a78bfa" stop-opacity="0.5"/><stop offset="100%" stop-color="#a78bfa" stop-opacity="0"/></radialGradient>
  <radialGradient id="scanSpot" cx="50%" cy="50%" r="50%"><stop offset="0%" stop-color="#fbcfe8" stop-opacity="0.85"/><stop offset="100%" stop-color="#fbcfe8" stop-opacity="0"/></radialGradient>
  <radialGradient id="qrHalo" cx="50%" cy="50%" r="65%"><stop offset="0%" stop-color="#f0abfc" stop-opacity="0.45"/><stop offset="100%" stop-color="#f0abfc" stop-opacity="0"/></radialGradient>
  <linearGradient id="ringA" x1="0%" y1="0%" x2="100%" y2="100%"><stop offset="0%" stop-color="#8b5cf6" stop-opacity="0.85"/><stop offset="100%" stop-color="#d946ef" stop-opacity="0.15"/></linearGradient>
  <linearGradient id="ringB" x1="0%" y1="0%" x2="100%" y2="100%"><stop offset="0%" stop-color="#d946ef" stop-opacity="0.4"/><stop offset="100%" stop-color="#f0abfc" stop-opacity="0.05"/></linearGradient>
  <linearGradient id="underline" x1="0%" y1="0%" x2="100%" y2="0%"><stop offset="0%" stop-color="#8b5cf6" stop-opacity="0"/><stop offset="35%" stop-color="#8b5cf6" stop-opacity="0.95"/><stop offset="65%" stop-color="#d946ef" stop-opacity="0.95"/><stop offset="100%" stop-color="#d946ef" stop-opacity="0"/></linearGradient>
  <linearGradient id="beam" x1="0%" y1="0%" x2="0%" y2="100%"><stop offset="0%" stop-color="#f0abfc" stop-opacity="0"/><stop offset="40%" stop-color="#f0abfc" stop-opacity="0.55"/><stop offset="100%" stop-color="#f0abfc" stop-opacity="0"/></linearGradient>
  <linearGradient id="secGrad" x1="0%" y1="0%" x2="100%" y2="0%"><stop offset="0%" stop-color="#d946ef"/><stop offset="100%" stop-color="#f0abfc"/></linearGradient>
  <filter id="fxGlow" x="-40%" y="-40%" width="180%" height="180%"><feGaussianBlur stdDeviation="5" result="b"/><feMerge><feMergeNode in="b"/><feMergeNode in="SourceGraphic"/></feMerge></filter><filter id="fxSoft" x="-40%" y="-40%" width="180%" height="180%"><feGaussianBlur stdDeviation="2.2"/></filter><filter id="fxHero" x="-10%" y="-10%" width="120%" height="120%"><feGaussianBlur stdDeviation="1.8" result="b"/><feMerge><feMergeNode in="b"/><feMergeNode in="SourceGraphic"/></feMerge></filter><pattern id="dotGrid" x="0" y="0" width="38" height="38" patternUnits="userSpaceOnUse"><circle cx="19" cy="19" r="0.9" fill="#1f2937" opacity="0.42"/></pattern>
  </defs>
  <rect width="1200" height="630" fill="url(#bgA)"/>
  <rect width="1200" height="630" fill="url(#haloA)"/>
  <rect width="1200" height="630" fill="url(#haloB)"/>
  <rect width="1200" height="630" fill="url(#dotGrid)"/>
  <circle cx="760" cy="315" r="120" fill="none" stroke="url(#ringA)" stroke-width="1.60" opacity="0.42"><animate attributeName="r" values="120;130;120" dur="6.0s" repeatCount="indefinite"/><animate attributeName="opacity" values="0.42;0.18;0.42" dur="6.0s" repeatCount="indefinite"/></circle>
  <circle cx="760" cy="315" r="175" fill="none" stroke="url(#ringB)" stroke-width="1.48" opacity="0.38"><animate attributeName="r" values="175;185;175" dur="7.1s" repeatCount="indefinite"/><animate attributeName="opacity" values="0.38;0.16;0.38" dur="7.1s" repeatCount="indefinite"/></circle>
  <circle cx="760" cy="315" r="230" fill="none" stroke="url(#ringA)" stroke-width="1.36" opacity="0.33"><animate attributeName="r" values="230;240;230" dur="8.2s" repeatCount="indefinite"/><animate attributeName="opacity" values="0.33;0.14;0.33" dur="8.2s" repeatCount="indefinite"/></circle>
  <circle cx="760" cy="315" r="285" fill="none" stroke="url(#ringB)" stroke-width="1.24" opacity="0.28"><animate attributeName="r" values="285;295;285" dur="9.3s" repeatCount="indefinite"/><animate attributeName="opacity" values="0.28;0.12;0.28" dur="9.3s" repeatCount="indefinite"/></circle>
  <circle cx="760" cy="315" r="340" fill="none" stroke="url(#ringA)" stroke-width="1.12" opacity="0.24"><animate attributeName="r" values="340;350;340" dur="10.4s" repeatCount="indefinite"/><animate attributeName="opacity" values="0.24;0.10;0.24" dur="10.4s" repeatCount="indefinite"/></circle>
  <circle cx="760" cy="315" r="395" fill="none" stroke="url(#ringB)" stroke-width="1.00" opacity="0.20"><animate attributeName="r" values="395;405;395" dur="11.5s" repeatCount="indefinite"/><animate attributeName="opacity" values="0.20;0.08;0.20" dur="11.5s" repeatCount="indefinite"/></circle>
  <circle cx="760" cy="315" r="180" fill="none" stroke="#8b5cf6" stroke-width="1.4" stroke-opacity="0.55" stroke-dasharray="10,24"><animateTransform attributeName="transform" type="rotate" from="0 760 315" to="360 760 315" dur="18s" repeatCount="indefinite"/></circle>
  <circle cx="760" cy="315" r="260" fill="none" stroke="#d946ef" stroke-width="1.4" stroke-opacity="0.55" stroke-dasharray="14,29"><animateTransform attributeName="transform" type="rotate" from="0 760 315" to="-360 760 315" dur="24s" repeatCount="indefinite"/></circle>
  <circle cx="760" cy="315" r="340" fill="none" stroke="#8b5cf6" stroke-width="1.4" stroke-opacity="0.55" stroke-dasharray="18,34"><animateTransform attributeName="transform" type="rotate" from="0 760 315" to="360 760 315" dur="30s" repeatCount="indefinite"/></circle>
  <rect x="460" y="-60" width="4" height="750" fill="url(#beam)" opacity="0.55"><animate attributeName="x" values="440;500;440" dur="4.5s" repeatCount="indefinite"/><animate attributeName="opacity" values="0.25;0.85;0.25" dur="4.5s" repeatCount="indefinite"/></rect>
  <rect x="640" y="-60" width="4" height="750" fill="url(#beam)" opacity="0.55"><animate attributeName="x" values="620;680;620" dur="5.0s" repeatCount="indefinite"/><animate attributeName="opacity" values="0.25;0.85;0.25" dur="5.0s" repeatCount="indefinite"/></rect>
  <rect x="820" y="-60" width="4" height="750" fill="url(#beam)" opacity="0.55"><animate attributeName="x" values="800;860;800" dur="5.5s" repeatCount="indefinite"/><animate attributeName="opacity" values="0.25;0.85;0.25" dur="5.5s" repeatCount="indefinite"/></rect>
  <rect x="1000" y="-60" width="4" height="750" fill="url(#beam)" opacity="0.55"><animate attributeName="x" values="980;1040;980" dur="6.0s" repeatCount="indefinite"/><animate attributeName="opacity" values="0.25;0.85;0.25" dur="6.0s" repeatCount="indefinite"/></rect>
  <line x1="698.9" y1="408.5" x2="900.4" y2="331.0" stroke="#d946ef" stroke-width="0.9" stroke-opacity="0.35"><animate attributeName="stroke-opacity" values="0.15;0.6;0.15" dur="6.1s" repeatCount="indefinite"/></line>
  <line x1="698.9" y1="408.5" x2="842.8" y2="174.0" stroke="#d946ef" stroke-width="0.9" stroke-opacity="0.35"><animate attributeName="stroke-opacity" values="0.15;0.6;0.15" dur="6.3s" repeatCount="indefinite"/></line>
  <line x1="900.4" y1="331.0" x2="842.8" y2="174.0" stroke="#d946ef" stroke-width="0.9" stroke-opacity="0.35"><animate attributeName="stroke-opacity" values="0.15;0.6;0.15" dur="5.3s" repeatCount="indefinite"/></line>
  <line x1="900.4" y1="331.0" x2="616.7" y2="335.5" stroke="#d946ef" stroke-width="0.9" stroke-opacity="0.35"><animate attributeName="stroke-opacity" values="0.15;0.6;0.15" dur="6.2s" repeatCount="indefinite"/></line>
  <line x1="842.8" y1="174.0" x2="616.7" y2="335.5" stroke="#d946ef" stroke-width="0.9" stroke-opacity="0.35"><animate attributeName="stroke-opacity" values="0.15;0.6;0.15" dur="5.2s" repeatCount="indefinite"/></line>
  <line x1="842.8" y1="174.0" x2="787.2" y2="240.6" stroke="#d946ef" stroke-width="0.9" stroke-opacity="0.35"><animate attributeName="stroke-opacity" values="0.15;0.6;0.15" dur="4.4s" repeatCount="indefinite"/></line>
  <line x1="616.7" y1="335.5" x2="787.2" y2="240.6" stroke="#d946ef" stroke-width="0.9" stroke-opacity="0.35"><animate attributeName="stroke-opacity" values="0.15;0.6;0.15" dur="5.5s" repeatCount="indefinite"/></line>
  <line x1="616.7" y1="335.5" x2="926.0" y2="421.7" stroke="#d946ef" stroke-width="0.9" stroke-opacity="0.35"><animate attributeName="stroke-opacity" values="0.15;0.6;0.15" dur="5.6s" repeatCount="indefinite"/></line>
  <line x1="787.2" y1="240.6" x2="926.0" y2="421.7" stroke="#d946ef" stroke-width="0.9" stroke-opacity="0.35"><animate attributeName="stroke-opacity" values="0.15;0.6;0.15" dur="3.5s" repeatCount="indefinite"/></line>
  <line x1="787.2" y1="240.6" x2="791.9" y2="149.5" stroke="#d946ef" stroke-width="0.9" stroke-opacity="0.35"><animate attributeName="stroke-opacity" values="0.15;0.6;0.15" dur="5.5s" repeatCount="indefinite"/></line>
  <line x1="926.0" y1="421.7" x2="791.9" y2="149.5" stroke="#d946ef" stroke-width="0.9" stroke-opacity="0.35"><animate attributeName="stroke-opacity" values="0.15;0.6;0.15" dur="4.4s" repeatCount="indefinite"/></line>
  <line x1="926.0" y1="421.7" x2="698.5" y2="492.4" stroke="#d946ef" stroke-width="0.9" stroke-opacity="0.35"><animate attributeName="stroke-opacity" values="0.15;0.6;0.15" dur="5.6s" repeatCount="indefinite"/></line>
  <line x1="791.9" y1="149.5" x2="698.5" y2="492.4" stroke="#d946ef" stroke-width="0.9" stroke-opacity="0.35"><animate attributeName="stroke-opacity" values="0.15;0.6;0.15" dur="6.5s" repeatCount="indefinite"/></line>
  <line x1="791.9" y1="149.5" x2="847.1" y2="205.7" stroke="#d946ef" stroke-width="0.9" stroke-opacity="0.35"><animate attributeName="stroke-opacity" values="0.15;0.6;0.15" dur="6.6s" repeatCount="indefinite"/></line>
  <line x1="698.5" y1="492.4" x2="847.1" y2="205.7" stroke="#d946ef" stroke-width="0.9" stroke-opacity="0.35"><animate attributeName="stroke-opacity" values="0.15;0.6;0.15" dur="4.1s" repeatCount="indefinite"/></line>
  <line x1="698.5" y1="492.4" x2="509.1" y2="272.0" stroke="#d946ef" stroke-width="0.9" stroke-opacity="0.35"><animate attributeName="stroke-opacity" values="0.15;0.6;0.15" dur="6.7s" repeatCount="indefinite"/></line>
  <line x1="847.1" y1="205.7" x2="509.1" y2="272.0" stroke="#d946ef" stroke-width="0.9" stroke-opacity="0.35"><animate attributeName="stroke-opacity" values="0.15;0.6;0.15" dur="6.5s" repeatCount="indefinite"/></line>
  <line x1="847.1" y1="205.7" x2="892.6" y2="454.8" stroke="#d946ef" stroke-width="0.9" stroke-opacity="0.35"><animate attributeName="stroke-opacity" values="0.15;0.6;0.15" dur="3.5s" repeatCount="indefinite"/></line>
  <line x1="509.1" y1="272.0" x2="892.6" y2="454.8" stroke="#d946ef" stroke-width="0.9" stroke-opacity="0.35"><animate attributeName="stroke-opacity" values="0.15;0.6;0.15" dur="4.4s" repeatCount="indefinite"/></line>
  <line x1="509.1" y1="272.0" x2="659.3" y2="269.5" stroke="#d946ef" stroke-width="0.9" stroke-opacity="0.35"><animate attributeName="stroke-opacity" values="0.15;0.6;0.15" dur="5.9s" repeatCount="indefinite"/></line>
  <line x1="892.6" y1="454.8" x2="659.3" y2="269.5" stroke="#d946ef" stroke-width="0.9" stroke-opacity="0.35"><animate attributeName="stroke-opacity" values="0.15;0.6;0.15" dur="4.6s" repeatCount="indefinite"/></line>
  <line x1="892.6" y1="454.8" x2="1004.3" y2="402.0" stroke="#d946ef" stroke-width="0.9" stroke-opacity="0.35"><animate attributeName="stroke-opacity" values="0.15;0.6;0.15" dur="6.1s" repeatCount="indefinite"/></line>
  <line x1="659.3" y1="269.5" x2="1004.3" y2="402.0" stroke="#d946ef" stroke-width="0.9" stroke-opacity="0.35"><animate attributeName="stroke-opacity" values="0.15;0.6;0.15" dur="5.8s" repeatCount="indefinite"/></line>
  <line x1="659.3" y1="269.5" x2="699.3" y2="442.4" stroke="#d946ef" stroke-width="0.9" stroke-opacity="0.35"><animate attributeName="stroke-opacity" values="0.15;0.6;0.15" dur="4.8s" repeatCount="indefinite"/></line>
  <line x1="1004.3" y1="402.0" x2="699.3" y2="442.4" stroke="#d946ef" stroke-width="0.9" stroke-opacity="0.35"><animate attributeName="stroke-opacity" values="0.15;0.6;0.15" dur="4.0s" repeatCount="indefinite"/></line>
  <line x1="1004.3" y1="402.0" x2="874.7" y2="224.4" stroke="#d946ef" stroke-width="0.9" stroke-opacity="0.35"><animate attributeName="stroke-opacity" values="0.15;0.6;0.15" dur="3.5s" repeatCount="indefinite"/></line>
  <line x1="699.3" y1="442.4" x2="874.7" y2="224.4" stroke="#d946ef" stroke-width="0.9" stroke-opacity="0.35"><animate attributeName="stroke-opacity" values="0.15;0.6;0.15" dur="4.0s" repeatCount="indefinite"/></line>
  <line x1="699.3" y1="442.4" x2="616.7" y2="329.7" stroke="#d946ef" stroke-width="0.9" stroke-opacity="0.35"><animate attributeName="stroke-opacity" values="0.15;0.6;0.15" dur="6.1s" repeatCount="indefinite"/></line>
  <line x1="874.7" y1="224.4" x2="616.7" y2="329.7" stroke="#d946ef" stroke-width="0.9" stroke-opacity="0.35"><animate attributeName="stroke-opacity" values="0.15;0.6;0.15" dur="3.9s" repeatCount="indefinite"/></line>
  <line x1="874.7" y1="224.4" x2="779.4" y2="243.0" stroke="#d946ef" stroke-width="0.9" stroke-opacity="0.35"><animate attributeName="stroke-opacity" values="0.15;0.6;0.15" dur="4.0s" repeatCount="indefinite"/></line>
  <line x1="616.7" y1="329.7" x2="779.4" y2="243.0" stroke="#d946ef" stroke-width="0.9" stroke-opacity="0.35"><animate attributeName="stroke-opacity" values="0.15;0.6;0.15" dur="6.2s" repeatCount="indefinite"/></line>
  <line x1="616.7" y1="329.7" x2="620.3" y2="379.1" stroke="#d946ef" stroke-width="0.9" stroke-opacity="0.35"><animate attributeName="stroke-opacity" values="0.15;0.6;0.15" dur="5.1s" repeatCount="indefinite"/></line>
  <line x1="779.4" y1="243.0" x2="620.3" y2="379.1" stroke="#d946ef" stroke-width="0.9" stroke-opacity="0.35"><animate attributeName="stroke-opacity" values="0.15;0.6;0.15" dur="5.6s" repeatCount="indefinite"/></line>
  <circle cx="698.9" cy="408.5" r="12.0" fill="url(#nodeGlow)" opacity="0.6"/><circle cx="698.9" cy="408.5" r="6.0" fill="url(#nodeCore)"><animate attributeName="r" values="6.0;8.0;6.0" dur="4.4s" repeatCount="indefinite"/><animate attributeName="opacity" values="0.65;1;0.65" dur="4.4s" repeatCount="indefinite"/></circle>
  <circle cx="900.4" cy="331.0" r="12.8" fill="url(#nodeGlow)" opacity="0.6"/><circle cx="900.4" cy="331.0" r="6.8" fill="url(#nodeCore)"><animate attributeName="r" values="6.8;8.8;6.8" dur="4.5s" repeatCount="indefinite"/><animate attributeName="opacity" values="0.65;1;0.65" dur="4.5s" repeatCount="indefinite"/></circle>
  <circle cx="842.8" cy="174.0" r="14.9" fill="url(#nodeGlow)" opacity="0.6"/><circle cx="842.8" cy="174.0" r="8.9" fill="url(#nodeCore)"><animate attributeName="r" values="8.9;10.9;8.9" dur="4.3s" repeatCount="indefinite"/><animate attributeName="opacity" values="0.65;1;0.65" dur="4.3s" repeatCount="indefinite"/></circle>
  <circle cx="616.7" cy="335.5" r="14.8" fill="url(#nodeGlow)" opacity="0.6"/><circle cx="616.7" cy="335.5" r="8.8" fill="url(#nodeCore)"><animate attributeName="r" values="8.8;10.8;8.8" dur="3.2s" repeatCount="indefinite"/><animate attributeName="opacity" values="0.65;1;0.65" dur="3.2s" repeatCount="indefinite"/></circle>
  <circle cx="787.2" cy="240.6" r="13.8" fill="url(#nodeGlow)" opacity="0.6"/><circle cx="787.2" cy="240.6" r="7.8" fill="url(#nodeCore)"><animate attributeName="r" values="7.8;9.8;7.8" dur="5.1s" repeatCount="indefinite"/><animate attributeName="opacity" values="0.65;1;0.65" dur="5.1s" repeatCount="indefinite"/></circle>
  <circle cx="926.0" cy="421.7" r="10.1" fill="url(#nodeGlow)" opacity="0.6"/><circle cx="926.0" cy="421.7" r="4.1" fill="url(#nodeCore)"><animate attributeName="r" values="4.1;6.1;4.1" dur="2.7s" repeatCount="indefinite"/><animate attributeName="opacity" values="0.65;1;0.65" dur="2.7s" repeatCount="indefinite"/></circle>
  <circle cx="791.9" cy="149.5" r="11.5" fill="url(#nodeGlow)" opacity="0.6"/><circle cx="791.9" cy="149.5" r="5.5" fill="url(#nodeCore)"><animate attributeName="r" values="5.5;7.5;5.5" dur="3.4s" repeatCount="indefinite"/><animate attributeName="opacity" values="0.65;1;0.65" dur="3.4s" repeatCount="indefinite"/></circle>
  <circle cx="698.5" cy="492.4" r="12.2" fill="url(#nodeGlow)" opacity="0.6"/><circle cx="698.5" cy="492.4" r="6.2" fill="url(#nodeCore)"><animate attributeName="r" values="6.2;8.2;6.2" dur="2.9s" repeatCount="indefinite"/><animate attributeName="opacity" values="0.65;1;0.65" dur="2.9s" repeatCount="indefinite"/></circle>
  <circle cx="847.1" cy="205.7" r="13.2" fill="url(#nodeGlow)" opacity="0.6"/><circle cx="847.1" cy="205.7" r="7.2" fill="url(#nodeCore)"><animate attributeName="r" values="7.2;9.2;7.2" dur="4.2s" repeatCount="indefinite"/><animate attributeName="opacity" values="0.65;1;0.65" dur="4.2s" repeatCount="indefinite"/></circle>
  <circle cx="509.1" cy="272.0" r="11.5" fill="url(#nodeGlow)" opacity="0.6"/><circle cx="509.1" cy="272.0" r="5.5" fill="url(#nodeCore)"><animate attributeName="r" values="5.5;7.5;5.5" dur="3.5s" repeatCount="indefinite"/><animate attributeName="opacity" values="0.65;1;0.65" dur="3.5s" repeatCount="indefinite"/></circle>
  <circle cx="892.6" cy="454.8" r="12.8" fill="url(#nodeGlow)" opacity="0.6"/><circle cx="892.6" cy="454.8" r="6.8" fill="url(#nodeCore)"><animate attributeName="r" values="6.8;8.8;6.8" dur="4.0s" repeatCount="indefinite"/><animate attributeName="opacity" values="0.65;1;0.65" dur="4.0s" repeatCount="indefinite"/></circle>
  <circle cx="659.3" cy="269.5" r="12.3" fill="url(#nodeGlow)" opacity="0.6"/><circle cx="659.3" cy="269.5" r="6.3" fill="url(#nodeCore)"><animate attributeName="r" values="6.3;8.3;6.3" dur="4.4s" repeatCount="indefinite"/><animate attributeName="opacity" values="0.65;1;0.65" dur="4.4s" repeatCount="indefinite"/></circle>
  <circle cx="1004.3" cy="402.0" r="11.0" fill="url(#nodeGlow)" opacity="0.6"/><circle cx="1004.3" cy="402.0" r="5.0" fill="url(#nodeCore)"><animate attributeName="r" values="5.0;7.0;5.0" dur="2.7s" repeatCount="indefinite"/><animate attributeName="opacity" values="0.65;1;0.65" dur="2.7s" repeatCount="indefinite"/></circle>
  <circle cx="699.3" cy="442.4" r="12.1" fill="url(#nodeGlow)" opacity="0.6"/><circle cx="699.3" cy="442.4" r="6.1" fill="url(#nodeCore)"><animate attributeName="r" values="6.1;8.1;6.1" dur="3.4s" repeatCount="indefinite"/><animate attributeName="opacity" values="0.65;1;0.65" dur="3.4s" repeatCount="indefinite"/></circle>
  <circle cx="874.7" cy="224.4" r="13.7" fill="url(#nodeGlow)" opacity="0.6"/><circle cx="874.7" cy="224.4" r="7.7" fill="url(#nodeCore)"><animate attributeName="r" values="7.7;9.7;7.7" dur="2.6s" repeatCount="indefinite"/><animate attributeName="opacity" values="0.65;1;0.65" dur="2.6s" repeatCount="indefinite"/></circle>
  <circle cx="616.7" cy="329.7" r="10.6" fill="url(#nodeGlow)" opacity="0.6"/><circle cx="616.7" cy="329.7" r="4.6" fill="url(#nodeCore)"><animate attributeName="r" values="4.6;6.6;4.6" dur="4.0s" repeatCount="indefinite"/><animate attributeName="opacity" values="0.65;1;0.65" dur="4.0s" repeatCount="indefinite"/></circle>
  <circle cx="779.4" cy="243.0" r="13.3" fill="url(#nodeGlow)" opacity="0.6"/><circle cx="779.4" cy="243.0" r="7.3" fill="url(#nodeCore)"><animate attributeName="r" values="7.3;9.3;7.3" dur="4.7s" repeatCount="indefinite"/><animate attributeName="opacity" values="0.65;1;0.65" dur="4.7s" repeatCount="indefinite"/></circle>
  <circle cx="620.3" cy="379.1" r="13.6" fill="url(#nodeGlow)" opacity="0.6"/><circle cx="620.3" cy="379.1" r="7.6" fill="url(#nodeCore)"><animate attributeName="r" values="7.6;9.6;7.6" dur="4.0s" repeatCount="indefinite"/><animate attributeName="opacity" values="0.65;1;0.65" dur="4.0s" repeatCount="indefinite"/></circle>
  <circle cx="621.0" cy="300.9" r="2.0" fill="#f0abfc" opacity="0.75"><animate attributeName="cy" values="300.9;259.9;300.9" dur="5.8s" repeatCount="indefinite"/><animate attributeName="opacity" values="0.2;0.95;0.2" dur="5.8s" repeatCount="indefinite"/></circle>
  <circle cx="780.7" cy="463.4" r="2.8" fill="#f0abfc" opacity="0.75"><animate attributeName="cy" values="463.4;400.9;463.4" dur="5.6s" repeatCount="indefinite"/><animate attributeName="opacity" values="0.2;0.95;0.2" dur="5.6s" repeatCount="indefinite"/></circle>
  <circle cx="789.3" cy="466.3" r="3.0" fill="#f0abfc" opacity="0.75"><animate attributeName="cy" values="466.3;417.6;466.3" dur="4.6s" repeatCount="indefinite"/><animate attributeName="opacity" values="0.2;0.95;0.2" dur="4.6s" repeatCount="indefinite"/></circle>
  <circle cx="802.0" cy="150.5" r="3.1" fill="#f0abfc" opacity="0.75"><animate attributeName="cy" values="150.5;75.9;150.5" dur="4.5s" repeatCount="indefinite"/><animate attributeName="opacity" values="0.2;0.95;0.2" dur="4.5s" repeatCount="indefinite"/></circle>
  <circle cx="939.2" cy="511.0" r="1.6" fill="#f0abfc" opacity="0.75"><animate attributeName="cy" values="511.0;460.6;511.0" dur="3.3s" repeatCount="indefinite"/><animate attributeName="opacity" values="0.2;0.95;0.2" dur="3.3s" repeatCount="indefinite"/></circle>
  <circle cx="414.2" cy="304.4" r="2.4" fill="#f0abfc" opacity="0.75"><animate attributeName="cy" values="304.4;261.1;304.4" dur="5.7s" repeatCount="indefinite"/><animate attributeName="opacity" values="0.2;0.95;0.2" dur="5.7s" repeatCount="indefinite"/></circle>
  <circle cx="461.0" cy="306.2" r="2.0" fill="#f0abfc" opacity="0.75"><animate attributeName="cy" values="306.2;265.6;306.2" dur="5.4s" repeatCount="indefinite"/><animate attributeName="opacity" values="0.2;0.95;0.2" dur="5.4s" repeatCount="indefinite"/></circle>
  <circle cx="422.4" cy="105.9" r="1.8" fill="#f0abfc" opacity="0.75"><animate attributeName="cy" values="105.9;56.1;105.9" dur="5.0s" repeatCount="indefinite"/><animate attributeName="opacity" values="0.2;0.95;0.2" dur="5.0s" repeatCount="indefinite"/></circle>
  <circle cx="1119.0" cy="143.4" r="1.7" fill="#f0abfc" opacity="0.75"><animate attributeName="cy" values="143.4;88.3;143.4" dur="4.3s" repeatCount="indefinite"/><animate attributeName="opacity" values="0.2;0.95;0.2" dur="4.3s" repeatCount="indefinite"/></circle>
  <circle cx="731.0" cy="76.9" r="2.8" fill="#f0abfc" opacity="0.75"><animate attributeName="cy" values="76.9;18.9;76.9" dur="3.7s" repeatCount="indefinite"/><animate attributeName="opacity" values="0.2;0.95;0.2" dur="3.7s" repeatCount="indefinite"/></circle>
  <circle cx="1104.1" cy="396.8" r="2.3" fill="#f0abfc" opacity="0.75"><animate attributeName="cy" values="396.8;324.5;396.8" dur="5.1s" repeatCount="indefinite"/><animate attributeName="opacity" values="0.2;0.95;0.2" dur="5.1s" repeatCount="indefinite"/></circle>
  <circle cx="652.1" cy="296.5" r="2.5" fill="#f0abfc" opacity="0.75"><animate attributeName="cy" values="296.5;256.9;296.5" dur="4.3s" repeatCount="indefinite"/><animate attributeName="opacity" values="0.2;0.95;0.2" dur="4.3s" repeatCount="indefinite"/></circle>
  <circle cx="617.7" cy="564.3" r="2.5" fill="#f0abfc" opacity="0.75"><animate attributeName="cy" values="564.3;528.1;564.3" dur="3.8s" repeatCount="indefinite"/><animate attributeName="opacity" values="0.2;0.95;0.2" dur="3.8s" repeatCount="indefinite"/></circle>
  <circle cx="884.7" cy="457.9" r="2.0" fill="#f0abfc" opacity="0.75"><animate attributeName="cy" values="457.9;390.9;457.9" dur="3.5s" repeatCount="indefinite"/><animate attributeName="opacity" values="0.2;0.95;0.2" dur="3.5s" repeatCount="indefinite"/></circle>
  <g transform="translate(1020 120)" opacity="0.85"><path d="M 0 -46 L 44 -28 L 44 14 Q 44 50 0 72 Q -44 50 -44 14 L -44 -28 Z" fill="none" stroke="#8b5cf6" stroke-width="2.6" stroke-opacity="0.85"><animate attributeName="stroke-opacity" values="0.5;1;0.5" dur="3.4s" repeatCount="indefinite"/></path><path d="M -15 5 L -3 18 L 20 -10" fill="none" stroke="#f0abfc" stroke-width="3.5" stroke-linecap="round" stroke-linejoin="round"><animate attributeName="stroke-opacity" values="0.4;1;0.4" dur="2.2s" repeatCount="indefinite"/></path></g>
  <g transform="translate(445 155)" opacity="0.72"><rect x="-22" y="0" width="44" height="34" rx="5" fill="none" stroke="#d946ef" stroke-width="2.2"/><path d="M -14 0 Q -14 -22 0 -22 Q 14 -22 14 0" fill="none" stroke="#d946ef" stroke-width="2.2"><animate attributeName="stroke-opacity" values="0.5;1;0.5" dur="2.8s" repeatCount="indefinite"/></path><circle cx="0" cy="14" r="3.5" fill="#f0abfc"><animate attributeName="r" values="3;5;3" dur="2s" repeatCount="indefinite"/></circle></g>
  <text x="755" y="260" font-family="Arial Black, Impact, sans-serif" font-size="118" font-weight="900" fill="url(#heroGrad)" text-anchor="middle" letter-spacing="-2" filter="url(#fxHero)">CVE<animate attributeName="opacity" values="0.85;1;0.85" dur="3.2s" repeatCount="indefinite"/></text>
  <text x="755" y="355" font-family="Arial Black, Impact, sans-serif" font-size="118" font-weight="900" fill="#f1f5f9" text-anchor="middle" letter-spacing="-2" opacity="0.97" filter="url(#fxHero)">PATCH<animate attributeName="opacity" values="0.85;1;0.85" dur="3.2s" begin="1.1s" repeatCount="indefinite"/></text>
  <rect x="535" y="373" width="440" height="4" rx="2" fill="url(#underline)"><animate attributeName="width" values="40;440;40" dur="5.2s" repeatCount="indefinite"/><animate attributeName="x" values="735;535;735" dur="5.2s" repeatCount="indefinite"/></rect>
  <g transform="translate(615.0 409)"><rect x="-58" y="-16" width="116" height="30" rx="15" fill="#8b5cf6" fill-opacity="0.12" stroke="#8b5cf6" stroke-width="1.2" stroke-opacity="0.7"><animate attributeName="stroke-opacity" values="0.4;0.95;0.4" dur="3.0s" repeatCount="indefinite"/></rect><text x="0" y="5" font-family="Arial Black,sans-serif" font-size="13" fill="#f0abfc" text-anchor="middle" letter-spacing="2">AWS</text></g>
  <g transform="translate(755.0 409)"><rect x="-58" y="-16" width="116" height="30" rx="15" fill="#8b5cf6" fill-opacity="0.12" stroke="#8b5cf6" stroke-width="1.2" stroke-opacity="0.7"><animate attributeName="stroke-opacity" values="0.4;0.95;0.4" dur="3.6s" repeatCount="indefinite"/></rect><text x="0" y="5" font-family="Arial Black,sans-serif" font-size="13" fill="#f0abfc" text-anchor="middle" letter-spacing="2">CLOUD</text></g>
  <g transform="translate(895.0 409)"><rect x="-58" y="-16" width="116" height="30" rx="15" fill="#8b5cf6" fill-opacity="0.12" stroke="#8b5cf6" stroke-width="1.2" stroke-opacity="0.7"><animate attributeName="stroke-opacity" values="0.4;0.95;0.4" dur="4.2s" repeatCount="indefinite"/></rect><text x="0" y="5" font-family="Arial Black,sans-serif" font-size="13" fill="#f0abfc" text-anchor="middle" letter-spacing="2">AI</text></g>
  <rect x="420" y="70" width="14" height="3" rx="1.5" fill="#d946ef" opacity="0.5"><animate attributeName="opacity" values="0.2;0.9;0.2" dur="2.4s" repeatCount="indefinite"/></rect>
  <rect x="510" y="82" width="14" height="3" rx="1.5" fill="#d946ef" opacity="0.5"><animate attributeName="opacity" values="0.2;0.9;0.2" dur="2.7s" repeatCount="indefinite"/></rect>
  <rect x="600" y="70" width="14" height="3" rx="1.5" fill="#d946ef" opacity="0.5"><animate attributeName="opacity" values="0.2;0.9;0.2" dur="3.0s" repeatCount="indefinite"/></rect>
  <rect x="690" y="82" width="14" height="3" rx="1.5" fill="#d946ef" opacity="0.5"><animate attributeName="opacity" values="0.2;0.9;0.2" dur="3.3s" repeatCount="indefinite"/></rect>
  <rect x="780" y="70" width="14" height="3" rx="1.5" fill="#d946ef" opacity="0.5"><animate attributeName="opacity" values="0.2;0.9;0.2" dur="3.6s" repeatCount="indefinite"/></rect>
  <rect x="870" y="82" width="14" height="3" rx="1.5" fill="#d946ef" opacity="0.5"><animate attributeName="opacity" values="0.2;0.9;0.2" dur="3.9s" repeatCount="indefinite"/></rect>
  <rect x="960" y="70" width="14" height="3" rx="1.5" fill="#d946ef" opacity="0.5"><animate attributeName="opacity" values="0.2;0.9;0.2" dur="4.2s" repeatCount="indefinite"/></rect>
  <rect x="1050" y="82" width="14" height="3" rx="1.5" fill="#d946ef" opacity="0.5"><animate attributeName="opacity" values="0.2;0.9;0.2" dur="4.5s" repeatCount="indefinite"/></rect>
  <rect x="0" y="0" width="368" height="630" fill="url(#panelGrad)"/>
  <rect x="0" y="0" width="4" height="630" fill="#8b5cf6" opacity="0.9"><animate attributeName="opacity" values="0.6;1;0.6" dur="3.1s" repeatCount="indefinite"/></rect>
  <rect x="28" y="40" width="240" height="2" fill="url(#stripe)"><animate attributeName="width" values="80;240;80" dur="4.2s" repeatCount="indefinite"/></rect>
  <circle cx="42" cy="74" r="6" fill="#f0abfc"><animate attributeName="r" values="5;8;5" dur="2.6s" repeatCount="indefinite"/></circle>
  <text x="62" y="80" font-family="Arial Black,sans-serif" font-size="14" fill="#fbcfe8" letter-spacing="3.5" opacity="0.9">APR 03 2026</text>
  <text x="28" y="230" font-family="Arial Black, Impact, sans-serif" font-size="68" fill="url(#heroGrad)" letter-spacing="-2" filter="url(#fxHero)">CVE</text>
  <text x="28" y="302" font-family="Arial Black, Impact, sans-serif" font-size="68" fill="#f1f5f9" letter-spacing="-2" opacity="0.95" filter="url(#fxHero)">PATCH</text>
  <rect x="28" y="320" width="240" height="3" rx="1.5" fill="url(#underline)"><animate attributeName="width" values="60;240;60" dur="4.8s" repeatCount="indefinite"/></rect>
  <rect x="28" y="360" width="240" height="8" rx="4" fill="#111827" opacity="0.8"/><rect x="28" y="360" width="220" height="8" rx="4" fill="#8b5cf6" opacity="0.9"><animate attributeName="width" values="20;220;20" dur="4s" repeatCount="indefinite"/></rect>
  <rect x="28" y="378" width="240" height="8" rx="4" fill="#111827" opacity="0.8"/><rect x="28" y="378" width="170" height="8" rx="4" fill="#d946ef" opacity="0.9"><animate attributeName="width" values="20;170;20" dur="5s" repeatCount="indefinite"/></rect>
  <rect x="28" y="396" width="240" height="8" rx="4" fill="#111827" opacity="0.8"/><rect x="28" y="396" width="120" height="8" rx="4" fill="#f0abfc" opacity="0.9"><animate attributeName="width" values="20;120;20" dur="6s" repeatCount="indefinite"/></rect>
  <rect x="28" y="440" width="20" height="4" rx="1.5" fill="#d946ef" opacity="0.7"><animate attributeName="opacity" values="0.25;0.95;0.25" dur="2.4s" repeatCount="indefinite"/></rect><rect x="56" y="440" width="60" height="4" rx="1.5" fill="#8b5cf6" opacity="0.35"/>
  <rect x="28" y="458" width="20" height="4" rx="1.5" fill="#d946ef" opacity="0.7"><animate attributeName="opacity" values="0.25;0.95;0.25" dur="2.7s" repeatCount="indefinite"/></rect><rect x="56" y="458" width="74" height="4" rx="1.5" fill="#8b5cf6" opacity="0.35"/>
  <rect x="28" y="476" width="20" height="4" rx="1.5" fill="#d946ef" opacity="0.7"><animate attributeName="opacity" values="0.25;0.95;0.25" dur="3.0s" repeatCount="indefinite"/></rect><rect x="56" y="476" width="88" height="4" rx="1.5" fill="#8b5cf6" opacity="0.35"/>
  <rect x="28" y="494" width="20" height="4" rx="1.5" fill="#d946ef" opacity="0.7"><animate attributeName="opacity" values="0.25;0.95;0.25" dur="3.3s" repeatCount="indefinite"/></rect><rect x="56" y="494" width="102" height="4" rx="1.5" fill="#8b5cf6" opacity="0.35"/>
  <rect x="28" y="512" width="20" height="4" rx="1.5" fill="#d946ef" opacity="0.7"><animate attributeName="opacity" values="0.25;0.95;0.25" dur="3.6s" repeatCount="indefinite"/></rect><rect x="56" y="512" width="116" height="4" rx="1.5" fill="#8b5cf6" opacity="0.35"/>
  <rect x="28" y="530" width="20" height="4" rx="1.5" fill="#d946ef" opacity="0.7"><animate attributeName="opacity" values="0.25;0.95;0.25" dur="3.9s" repeatCount="indefinite"/></rect><rect x="56" y="530" width="130" height="4" rx="1.5" fill="#8b5cf6" opacity="0.35"/>
  <line x1="28" y1="585" x2="340" y2="585" stroke="#8b5cf6" stroke-width="1" stroke-opacity="0.4"/>
  <text x="28" y="606" font-family="Arial,sans-serif" font-size="11" fill="#fbcfe8" letter-spacing="2" opacity="0.7">tech.2twodragon.com</text>
  <g transform="translate(1048.0,478.0)">
  <rect x="-6" y="-6" width="124.0" height="124.0" rx="6" fill="#FFFFFF" stroke="#f0abfc" stroke-width="1.6" opacity="0.98"/>
  <rect x="-8" y="-8" width="128.0" height="128.0" rx="8" fill="url(#qrHalo)" opacity="0.85"><animate attributeName="opacity" values="0.55;0.95;0.55" dur="3.4s" repeatCount="indefinite"/></rect>
  <g transform="scale(6.2222)"><path d="M0.8,0.8H1.2V1.2H0.8zM1.2,0.8H1.6V1.2H1.2zM1.6,0.8H2V1.2H1.6zM2,0.8H2.4V1.2H2zM2.4,0.8H2.8V1.2H2.4zM2.8,0.8H3.2V1.2H2.8zM3.2,0.8H3.6V1.2H3.2zM4,0.8H4.4V1.2H4zM5.2,0.8H5.6V1.2H5.2zM5.6,0.8H6V1.2H5.6zM6.4,0.8H6.8V1.2H6.4zM7.2,0.8H7.6V1.2H7.2zM8.4,0.8H8.8V1.2H8.4zM9.2,0.8H9.6V1.2H9.2zM9.6,0.8H10V1.2H9.6zM10.8,0.8H11.2V1.2H10.8zM11.2,0.8H11.6V1.2H11.2zM11.6,0.8H12V1.2H11.6zM12,0.8H12.4V1.2H12zM12.4,0.8H12.8V1.2H12.4zM12.8,0.8H13.2V1.2H12.8zM14.4,0.8H14.8V1.2H14.4zM14.8,0.8H15.2V1.2H14.8zM15.2,0.8H15.6V1.2H15.2zM15.6,0.8H16V1.2H15.6zM16,0.8H16.4V1.2H16zM16.4,0.8H16.8V1.2H16.4zM16.8,0.8H17.2V1.2H16.8zM0.8,1.2H1.2V1.6H0.8zM3.2,1.2H3.6V1.6H3.2zM4.4,1.2H4.8V1.6H4.4zM5.2,1.2H5.6V1.6H5.2zM5.6,1.2H6V1.6H5.6zM6,1.2H6.4V1.6H6zM7.2,1.2H7.6V1.6H7.2zM8,1.2H8.4V1.6H8zM8.4,1.2H8.8V1.6H8.4zM9.2,1.2H9.6V1.6H9.2zM9.6,1.2H10V1.6H9.6zM10.4,1.2H10.8V1.6H10.4zM10.8,1.2H11.2V1.6H10.8zM11.2,1.2H11.6V1.6H11.2zM12.8,1.2H13.2V1.6H12.8zM13.2,1.2H13.6V1.6H13.2zM14.4,1.2H14.8V1.6H14.4zM16.8,1.2H17.2V1.6H16.8zM0.8,1.6H1.2V2H0.8zM1.6,1.6H2V2H1.6zM2,1.6H2.4V2H2zM2.4,1.6H2.8V2H2.4zM3.2,1.6H3.6V2H3.2zM4.8,1.6H5.2V2H4.8zM5.2,1.6H5.6V2H5.2zM5.6,1.6H6V2H5.6zM6.8,1.6H7.2V2H6.8zM7.6,1.6H8V2H7.6zM8,1.6H8.4V2H8zM8.4,1.6H8.8V2H8.4zM8.8,1.6H9.2V2H8.8zM9.6,1.6H10V2H9.6zM10,1.6H10.4V2H10zM10.4,1.6H10.8V2H10.4zM11.2,1.6H11.6V2H11.2zM11.6,1.6H12V2H11.6zM12.4,1.6H12.8V2H12.4zM12.8,1.6H13.2V2H12.8zM13.6,1.6H14V2H13.6zM14.4,1.6H14.8V2H14.4zM15.2,1.6H15.6V2H15.2zM15.6,1.6H16V2H15.6zM16,1.6H16.4V2H16zM16.8,1.6H17.2V2H16.8zM0.8,2H1.2V2.4H0.8zM1.6,2H2V2.4H1.6zM2,2H2.4V2.4H2zM2.4,2H2.8V2.4H2.4zM3.2,2H3.6V2.4H3.2zM4,2H4.4V2.4H4zM4.4,2H4.8V2.4H4.4zM5.2,2H5.6V2.4H5.2zM6,2H6.4V2.4H6zM6.8,2H7.2V2.4H6.8zM7.6,2H8V2.4H7.6zM8.4,2H8.8V2.4H8.4zM8.8,2H9.2V2.4H8.8zM9.2,2H9.6V2.4H9.2zM10,2H10.4V2.4H10zM10.4,2H10.8V2.4H10.4zM11.6,2H12V2.4H11.6zM13.6,2H14V2.4H13.6zM14.4,2H14.8V2.4H14.4zM15.2,2H15.6V2.4H15.2zM15.6,2H16V2.4H15.6zM16,2H16.4V2.4H16zM16.8,2H17.2V2.4H16.8zM0.8,2.4H1.2V2.8H0.8zM1.6,2.4H2V2.8H1.6zM2,2.4H2.4V2.8H2zM2.4,2.4H2.8V2.8H2.4zM3.2,2.4H3.6V2.8H3.2zM4,2.4H4.4V2.8H4zM4.4,2.4H4.8V2.8H4.4zM5.2,2.4H5.6V2.8H5.2zM5.6,2.4H6V2.8H5.6zM6.4,2.4H6.8V2.8H6.4zM7.6,2.4H8V2.8H7.6zM8.4,2.4H8.8V2.8H8.4zM10.8,2.4H11.2V2.8H10.8zM11.6,2.4H12V2.8H11.6zM12.8,2.4H13.2V2.8H12.8zM13.6,2.4H14V2.8H13.6zM14.4,2.4H14.8V2.8H14.4zM15.2,2.4H15.6V2.8H15.2zM15.6,2.4H16V2.8H15.6zM16,2.4H16.4V2.8H16zM16.8,2.4H17.2V2.8H16.8zM0.8,2.8H1.2V3.2H0.8zM3.2,2.8H3.6V3.2H3.2zM4,2.8H4.4V3.2H4zM5.2,2.8H5.6V3.2H5.2zM6.4,2.8H6.8V3.2H6.4zM6.8,2.8H7.2V3.2H6.8zM7.2,2.8H7.6V3.2H7.2zM7.6,2.8H8V3.2H7.6zM8.4,2.8H8.8V3.2H8.4zM9.2,2.8H9.6V3.2H9.2zM11.2,2.8H11.6V3.2H11.2zM13.2,2.8H13.6V3.2H13.2zM13.6,2.8H14V3.2H13.6zM14.4,2.8H14.8V3.2H14.4zM16.8,2.8H17.2V3.2H16.8zM0.8,3.2H1.2V3.6H0.8zM1.2,3.2H1.6V3.6H1.2zM1.6,3.2H2V3.6H1.6zM2,3.2H2.4V3.6H2zM2.4,3.2H2.8V3.6H2.4zM2.8,3.2H3.2V3.6H2.8zM3.2,3.2H3.6V3.6H3.2zM4,3.2H4.4V3.6H4zM4.8,3.2H5.2V3.6H4.8zM5.6,3.2H6V3.6H5.6zM6.4,3.2H6.8V3.6H6.4zM7.2,3.2H7.6V3.6H7.2zM8,3.2H8.4V3.6H8zM8.8,3.2H9.2V3.6H8.8zM9.6,3.2H10V3.6H9.6zM10.4,3.2H10.8V3.6H10.4zM11.2,3.2H11.6V3.6H11.2zM12,3.2H12.4V3.6H12zM12.8,3.2H13.2V3.6H12.8zM13.6,3.2H14V3.6H13.6zM14.4,3.2H14.8V3.6H14.4zM14.8,3.2H15.2V3.6H14.8zM15.2,3.2H15.6V3.6H15.2zM15.6,3.2H16V3.6H15.6zM16,3.2H16.4V3.6H16zM16.4,3.2H16.8V3.6H16.4zM16.8,3.2H17.2V3.6H16.8zM4,3.6H4.4V4H4zM4.4,3.6H4.8V4H4.4zM4.8,3.6H5.2V4H4.8zM7.6,3.6H8V4H7.6zM8.4,3.6H8.8V4H8.4zM8.8,3.6H9.2V4H8.8zM9.2,3.6H9.6V4H9.2zM9.6,3.6H10V4H9.6zM10.4,3.6H10.8V4H10.4zM11.6,3.6H12V4H11.6zM12,3.6H12.4V4H12zM12.4,3.6H12.8V4H12.4zM13.2,3.6H13.6V4H13.2zM0.8,4H1.2V4.4H0.8zM2.4,4H2.8V4.4H2.4zM3.2,4H3.6V4.4H3.2zM3.6,4H4V4.4H3.6zM4,4H4.4V4.4H4zM4.8,4H5.2V4.4H4.8zM5.2,4H5.6V4.4H5.2zM5.6,4H6V4.4H5.6zM6,4H6.4V4.4H6zM6.8,4H7.2V4.4H6.8zM7.2,4H7.6V4.4H7.2zM7.6,4H8V4.4H7.6zM8.8,4H9.2V4.4H8.8zM9.2,4H9.6V4.4H9.2zM9.6,4H10V4.4H9.6zM10,4H10.4V4.4H10zM12,4H12.4V4.4H12zM12.4,4H12.8V4.4H12.4zM13.2,4H13.6V4.4H13.2zM14,4H14.4V4.4H14zM14.4,4H14.8V4.4H14.4zM14.8,4H15.2V4.4H14.8zM15.2,4H15.6V4.4H15.2zM15.6,4H16V4.4H15.6zM16.8,4H17.2V4.4H16.8zM0.8,4.4H1.2V4.8H0.8zM1.2,4.4H1.6V4.8H1.2zM1.6,4.4H2V4.8H1.6zM3.6,4.4H4V4.8H3.6zM4,4.4H4.4V4.8H4zM4.4,4.4H4.8V4.8H4.4zM4.8,4.4H5.2V4.8H4.8zM6,4.4H6.4V4.8H6zM6.4,4.4H6.8V4.8H6.4zM6.8,4.4H7.2V4.8H6.8zM7.2,4.4H7.6V4.8H7.2zM8,4.4H8.4V4.8H8zM8.8,4.4H9.2V4.8H8.8zM10,4.4H10.4V4.8H10zM10.8,4.4H11.2V4.8H10.8zM11.6,4.4H12V4.8H11.6zM12.8,4.4H13.2V4.8H12.8zM14,4.4H14.4V4.8H14zM14.8,4.4H15.2V4.8H14.8zM15.2,4.4H15.6V4.8H15.2zM15.6,4.4H16V4.8H15.6zM16.8,4.4H17.2V4.8H16.8zM1.6,4.8H2V5.2H1.6zM2.4,4.8H2.8V5.2H2.4zM2.8,4.8H3.2V5.2H2.8zM3.2,4.8H3.6V5.2H3.2zM4,4.8H4.4V5.2H4zM4.4,4.8H4.8V5.2H4.4zM5.2,4.8H5.6V5.2H5.2zM5.6,4.8H6V5.2H5.6zM6.8,4.8H7.2V5.2H6.8zM9.2,4.8H9.6V5.2H9.2zM10,4.8H10.4V5.2H10zM11.2,4.8H11.6V5.2H11.2zM11.6,4.8H12V5.2H11.6zM12,4.8H12.4V5.2H12zM12.4,4.8H12.8V5.2H12.4zM13.6,4.8H14V5.2H13.6zM14.4,4.8H14.8V5.2H14.4zM16.8,4.8H17.2V5.2H16.8zM0.8,5.2H1.2V5.6H0.8zM1.2,5.2H1.6V5.6H1.2zM2.8,5.2H3.2V5.6H2.8zM3.6,5.2H4V5.6H3.6zM4.8,5.2H5.2V5.6H4.8zM5.6,5.2H6V5.6H5.6zM6,5.2H6.4V5.6H6zM7.2,5.2H7.6V5.6H7.2zM7.6,5.2H8V5.6H7.6zM8,5.2H8.4V5.6H8zM8.4,5.2H8.8V5.6H8.4zM8.8,5.2H9.2V5.6H8.8zM9.2,5.2H9.6V5.6H9.2zM9.6,5.2H10V5.6H9.6zM10,5.2H10.4V5.6H10zM10.4,5.2H10.8V5.6H10.4zM12.4,5.2H12.8V5.6H12.4zM13.2,5.2H13.6V5.6H13.2zM13.6,5.2H14V5.6H13.6zM14.8,5.2H15.2V5.6H14.8zM15.2,5.2H15.6V5.6H15.2zM15.6,5.2H16V5.6H15.6zM0.8,5.6H1.2V6H0.8zM1.2,5.6H1.6V6H1.2zM1.6,5.6H2V6H1.6zM2.4,5.6H2.8V6H2.4zM3.2,5.6H3.6V6H3.2zM3.6,5.6H4V6H3.6zM4,5.6H4.4V6H4zM4.8,5.6H5.2V6H4.8zM6,5.6H6.4V6H6zM6.8,5.6H7.2V6H6.8zM7.2,5.6H7.6V6H7.2zM7.6,5.6H8V6H7.6zM8.8,5.6H9.2V6H8.8zM9.2,5.6H9.6V6H9.2zM9.6,5.6H10V6H9.6zM11.2,5.6H11.6V6H11.2zM11.6,5.6H12V6H11.6zM12.4,5.6H12.8V6H12.4zM12.8,5.6H13.2V6H12.8zM13.6,5.6H14V6H13.6zM14,5.6H14.4V6H14zM14.8,5.6H15.2V6H14.8zM2,6H2.4V6.4H2zM2.4,6H2.8V6.4H2.4zM2.8,6H3.2V6.4H2.8zM4,6H4.4V6.4H4zM5.2,6H5.6V6.4H5.2zM6,6H6.4V6.4H6zM6.8,6H7.2V6.4H6.8zM7.2,6H7.6V6.4H7.2zM8,6H8.4V6.4H8zM8.4,6H8.8V6.4H8.4zM9.2,6H9.6V6.4H9.2zM10.4,6H10.8V6.4H10.4zM11.2,6H11.6V6.4H11.2zM12,6H12.4V6.4H12zM12.4,6H12.8V6.4H12.4zM13.2,6H13.6V6.4H13.2zM14,6H14.4V6.4H14zM14.8,6H15.2V6.4H14.8zM15.2,6H15.6V6.4H15.2zM16.4,6H16.8V6.4H16.4zM16.8,6H17.2V6.4H16.8zM2.4,6.4H2.8V6.8H2.4zM3.2,6.4H3.6V6.8H3.2zM3.6,6.4H4V6.8H3.6zM4.4,6.4H4.8V6.8H4.4zM4.8,6.4H5.2V6.8H4.8zM6.8,6.4H7.2V6.8H6.8zM7.2,6.4H7.6V6.8H7.2zM7.6,6.4H8V6.8H7.6zM8.4,6.4H8.8V6.8H8.4zM10,6.4H10.4V6.8H10zM10.4,6.4H10.8V6.8H10.4zM12,6.4H12.4V6.8H12zM13.6,6.4H14V6.8H13.6zM14,6.4H14.4V6.8H14zM14.4,6.4H14.8V6.8H14.4zM15.2,6.4H15.6V6.8H15.2zM15.6,6.4H16V6.8H15.6zM16,6.4H16.4V6.8H16zM16.8,6.4H17.2V6.8H16.8zM0.8,6.8H1.2V7.2H0.8zM1.2,6.8H1.6V7.2H1.2zM2,6.8H2.4V7.2H2zM2.4,6.8H2.8V7.2H2.4zM3.6,6.8H4V7.2H3.6zM4,6.8H4.4V7.2H4zM4.4,6.8H4.8V7.2H4.4zM4.8,6.8H5.2V7.2H4.8zM5.2,6.8H5.6V7.2H5.2zM5.6,6.8H6V7.2H5.6zM6.8,6.8H7.2V7.2H6.8zM7.2,6.8H7.6V7.2H7.2zM7.6,6.8H8V7.2H7.6zM8.4,6.8H8.8V7.2H8.4zM8.8,6.8H9.2V7.2H8.8zM9.2,6.8H9.6V7.2H9.2zM10,6.8H10.4V7.2H10zM11.2,6.8H11.6V7.2H11.2zM12.4,6.8H12.8V7.2H12.4zM12.8,6.8H13.2V7.2H12.8zM14.8,6.8H15.2V7.2H14.8zM15.6,6.8H16V7.2H15.6zM16.8,6.8H17.2V7.2H16.8zM0.8,7.2H1.2V7.6H0.8zM1.2,7.2H1.6V7.6H1.2zM2,7.2H2.4V7.6H2zM2.4,7.2H2.8V7.6H2.4zM3.2,7.2H3.6V7.6H3.2zM3.6,7.2H4V7.6H3.6zM4.4,7.2H4.8V7.6H4.4zM4.8,7.2H5.2V7.6H4.8zM5.6,7.2H6V7.6H5.6zM7.2,7.2H7.6V7.6H7.2zM7.6,7.2H8V7.6H7.6zM9.6,7.2H10V7.6H9.6zM11.6,7.2H12V7.6H11.6zM12.4,7.2H12.8V7.6H12.4zM13.2,7.2H13.6V7.6H13.2zM13.6,7.2H14V7.6H13.6zM14.8,7.2H15.2V7.6H14.8zM16.4,7.2H16.8V7.6H16.4zM0.8,7.6H1.2V8H0.8zM1.2,7.6H1.6V8H1.2zM1.6,7.6H2V8H1.6zM2.4,7.6H2.8V8H2.4zM3.6,7.6H4V8H3.6zM4,7.6H4.4V8H4zM4.4,7.6H4.8V8H4.4zM4.8,7.6H5.2V8H4.8zM5.2,7.6H5.6V8H5.2zM5.6,7.6H6V8H5.6zM6.4,7.6H6.8V8H6.4zM6.8,7.6H7.2V8H6.8zM7.6,7.6H8V8H7.6zM8,7.6H8.4V8H8zM8.4,7.6H8.8V8H8.4zM10,7.6H10.4V8H10zM11.2,7.6H11.6V8H11.2zM12,7.6H12.4V8H12zM12.4,7.6H12.8V8H12.4zM12.8,7.6H13.2V8H12.8zM14,7.6H14.4V8H14zM14.4,7.6H14.8V8H14.4zM14.8,7.6H15.2V8H14.8zM15.2,7.6H15.6V8H15.2zM15.6,7.6H16V8H15.6zM16,7.6H16.4V8H16zM16.8,7.6H17.2V8H16.8zM0.8,8H1.2V8.4H0.8zM2,8H2.4V8.4H2zM2.4,8H2.8V8.4H2.4zM2.8,8H3.2V8.4H2.8zM3.2,8H3.6V8.4H3.2zM4,8H4.4V8.4H4zM4.8,8H5.2V8.4H4.8zM5.2,8H5.6V8.4H5.2zM5.6,8H6V8.4H5.6zM6,8H6.4V8.4H6zM6.4,8H6.8V8.4H6.4zM7.2,8H7.6V8.4H7.2zM8,8H8.4V8.4H8zM8.8,8H9.2V8.4H8.8zM9.2,8H9.6V8.4H9.2zM9.6,8H10V8.4H9.6zM10,8H10.4V8.4H10zM10.4,8H10.8V8.4H10.4zM10.8,8H11.2V8.4H10.8zM11.2,8H11.6V8.4H11.2zM11.6,8H12V8.4H11.6zM12.8,8H13.2V8.4H12.8zM13.6,8H14V8.4H13.6zM14.4,8H14.8V8.4H14.4zM14.8,8H15.2V8.4H14.8zM16,8H16.4V8.4H16zM16.4,8H16.8V8.4H16.4zM16.8,8H17.2V8.4H16.8zM2.8,8.4H3.2V8.8H2.8zM4.8,8.4H5.2V8.8H4.8zM6,8.4H6.4V8.8H6zM7.2,8.4H7.6V8.8H7.2zM8.8,8.4H9.2V8.8H8.8zM9.2,8.4H9.6V8.8H9.2zM10.8,8.4H11.2V8.8H10.8zM12.4,8.4H12.8V8.8H12.4zM12.8,8.4H13.2V8.8H12.8zM13.6,8.4H14V8.8H13.6zM14,8.4H14.4V8.8H14zM14.4,8.4H14.8V8.8H14.4zM14.8,8.4H15.2V8.8H14.8zM15.6,8.4H16V8.8H15.6zM16.8,8.4H17.2V8.8H16.8zM0.8,8.8H1.2V9.2H0.8zM1.2,8.8H1.6V9.2H1.2zM2.4,8.8H2.8V9.2H2.4zM2.8,8.8H3.2V9.2H2.8zM3.2,8.8H3.6V9.2H3.2zM3.6,8.8H4V9.2H3.6zM4,8.8H4.4V9.2H4zM4.4,8.8H4.8V9.2H4.4zM4.8,8.8H5.2V9.2H4.8zM6.4,8.8H6.8V9.2H6.4zM6.8,8.8H7.2V9.2H6.8zM7.2,8.8H7.6V9.2H7.2zM8.4,8.8H8.8V9.2H8.4zM10.4,8.8H10.8V9.2H10.4zM10.8,8.8H11.2V9.2H10.8zM11.6,8.8H12V9.2H11.6zM12,8.8H12.4V9.2H12zM12.8,8.8H13.2V9.2H12.8zM13.2,8.8H13.6V9.2H13.2zM14,8.8H14.4V9.2H14zM14.8,8.8H15.2V9.2H14.8zM15.2,8.8H15.6V9.2H15.2zM15.6,8.8H16V9.2H15.6zM16.4,8.8H16.8V9.2H16.4zM16.8,8.8H17.2V9.2H16.8zM0.8,9.2H1.2V9.6H0.8zM1.2,9.2H1.6V9.6H1.2zM2.4,9.2H2.8V9.6H2.4zM3.6,9.2H4V9.6H3.6zM4,9.2H4.4V9.6H4zM4.8,9.2H5.2V9.6H4.8zM5.2,9.2H5.6V9.6H5.2zM6,9.2H6.4V9.6H6zM6.4,9.2H6.8V9.6H6.4zM6.8,9.2H7.2V9.6H6.8zM7.2,9.2H7.6V9.6H7.2zM8,9.2H8.4V9.6H8zM8.4,9.2H8.8V9.6H8.4zM9.6,9.2H10V9.6H9.6zM10,9.2H10.4V9.6H10zM10.4,9.2H10.8V9.6H10.4zM10.8,9.2H11.2V9.6H10.8zM11.2,9.2H11.6V9.6H11.2zM11.6,9.2H12V9.6H11.6zM12.8,9.2H13.2V9.6H12.8zM13.6,9.2H14V9.6H13.6zM14,9.2H14.4V9.6H14zM14.4,9.2H14.8V9.6H14.4zM14.8,9.2H15.2V9.6H14.8zM15.2,9.2H15.6V9.6H15.2zM15.6,9.2H16V9.6H15.6zM16.8,9.2H17.2V9.6H16.8zM2,9.6H2.4V10H2zM2.4,9.6H2.8V10H2.4zM2.8,9.6H3.2V10H2.8zM3.2,9.6H3.6V10H3.2zM4.4,9.6H4.8V10H4.4zM5.2,9.6H5.6V10H5.2zM6.4,9.6H6.8V10H6.4zM6.8,9.6H7.2V10H6.8zM7.2,9.6H7.6V10H7.2zM9.2,9.6H9.6V10H9.2zM9.6,9.6H10V10H9.6zM10,9.6H10.4V10H10zM10.4,9.6H10.8V10H10.4zM11.2,9.6H11.6V10H11.2zM11.6,9.6H12V10H11.6zM12.4,9.6H12.8V10H12.4zM12.8,9.6H13.2V10H12.8zM13.6,9.6H14V10H13.6zM16.8,9.6H17.2V10H16.8zM0.8,10H1.2V10.4H0.8zM1.2,10H1.6V10.4H1.2zM2.8,10H3.2V10.4H2.8zM3.6,10H4V10.4H3.6zM5.2,10H5.6V10.4H5.2zM6,10H6.4V10.4H6zM6.4,10H6.8V10.4H6.4zM7.6,10H8V10.4H7.6zM8,10H8.4V10.4H8zM9.2,10H9.6V10.4H9.2zM12.4,10H12.8V10.4H12.4zM12.8,10H13.2V10.4H12.8zM13.2,10H13.6V10.4H13.2zM13.6,10H14V10.4H13.6zM14.8,10H15.2V10.4H14.8zM15.6,10H16V10.4H15.6zM16.4,10H16.8V10.4H16.4zM1.6,10.4H2V10.8H1.6zM2,10.4H2.4V10.8H2zM2.4,10.4H2.8V10.8H2.4zM2.8,10.4H3.2V10.8H2.8zM3.2,10.4H3.6V10.8H3.2zM3.6,10.4H4V10.8H3.6zM4,10.4H4.4V10.8H4zM4.8,10.4H5.2V10.8H4.8zM5.2,10.4H5.6V10.8H5.2zM5.6,10.4H6V10.8H5.6zM7.6,10.4H8V10.8H7.6zM8.8,10.4H9.2V10.8H8.8zM9.2,10.4H9.6V10.8H9.2zM9.6,10.4H10V10.8H9.6zM10.4,10.4H10.8V10.8H10.4zM11.6,10.4H12V10.8H11.6zM12.4,10.4H12.8V10.8H12.4zM13.6,10.4H14V10.8H13.6zM14,10.4H14.4V10.8H14zM14.8,10.4H15.2V10.8H14.8zM16,10.4H16.4V10.8H16zM16.8,10.4H17.2V10.8H16.8zM0.8,10.8H1.2V11.2H0.8zM1.2,10.8H1.6V11.2H1.2zM2.4,10.8H2.8V11.2H2.4zM4,10.8H4.4V11.2H4zM5.2,10.8H5.6V11.2H5.2zM5.6,10.8H6V11.2H5.6zM6.4,10.8H6.8V11.2H6.4zM7.2,10.8H7.6V11.2H7.2zM8,10.8H8.4V11.2H8zM10,10.8H10.4V11.2H10zM11.6,10.8H12V11.2H11.6zM12.8,10.8H13.2V11.2H12.8zM13.6,10.8H14V11.2H13.6zM14,10.8H14.4V11.2H14zM14.8,10.8H15.2V11.2H14.8zM15.2,10.8H15.6V11.2H15.2zM16,10.8H16.4V11.2H16zM16.8,10.8H17.2V11.2H16.8zM1.2,11.2H1.6V11.6H1.2zM1.6,11.2H2V11.6H1.6zM2,11.2H2.4V11.6H2zM2.8,11.2H3.2V11.6H2.8zM3.2,11.2H3.6V11.6H3.2zM3.6,11.2H4V11.6H3.6zM4.8,11.2H5.2V11.6H4.8zM5.2,11.2H5.6V11.6H5.2zM5.6,11.2H6V11.6H5.6zM6,11.2H6.4V11.6H6zM6.4,11.2H6.8V11.6H6.4zM6.8,11.2H7.2V11.6H6.8zM7.2,11.2H7.6V11.6H7.2zM7.6,11.2H8V11.6H7.6zM8,11.2H8.4V11.6H8zM8.8,11.2H9.2V11.6H8.8zM9.2,11.2H9.6V11.6H9.2zM10,11.2H10.4V11.6H10zM10.4,11.2H10.8V11.6H10.4zM10.8,11.2H11.2V11.6H10.8zM11.2,11.2H11.6V11.6H11.2zM11.6,11.2H12V11.6H11.6zM12,11.2H12.4V11.6H12zM13.6,11.2H14V11.6H13.6zM14,11.2H14.4V11.6H14zM14.4,11.2H14.8V11.6H14.4zM14.8,11.2H15.2V11.6H14.8zM16.8,11.2H17.2V11.6H16.8zM1.2,11.6H1.6V12H1.2zM4,11.6H4.4V12H4zM4.4,11.6H4.8V12H4.4zM6.4,11.6H6.8V12H6.4zM6.8,11.6H7.2V12H6.8zM7.2,11.6H7.6V12H7.2zM7.6,11.6H8V12H7.6zM8,11.6H8.4V12H8zM8.4,11.6H8.8V12H8.4zM8.8,11.6H9.2V12H8.8zM9.2,11.6H9.6V12H9.2zM10.4,11.6H10.8V12H10.4zM11.2,11.6H11.6V12H11.2zM11.6,11.6H12V12H11.6zM12,11.6H12.4V12H12zM12.4,11.6H12.8V12H12.4zM13.2,11.6H13.6V12H13.2zM13.6,11.6H14V12H13.6zM15.6,11.6H16V12H15.6zM16.4,11.6H16.8V12H16.4zM16.8,11.6H17.2V12H16.8zM2,12H2.4V12.4H2zM2.8,12H3.2V12.4H2.8zM3.2,12H3.6V12.4H3.2zM4.8,12H5.2V12.4H4.8zM6.8,12H7.2V12.4H6.8zM7.2,12H7.6V12.4H7.2zM7.6,12H8V12.4H7.6zM9.2,12H9.6V12.4H9.2zM9.6,12H10V12.4H9.6zM10,12H10.4V12.4H10zM10.4,12H10.8V12.4H10.4zM11.2,12H11.6V12.4H11.2zM11.6,12H12V12.4H11.6zM12,12H12.4V12.4H12zM12.4,12H12.8V12.4H12.4zM12.8,12H13.2V12.4H12.8zM13.6,12H14V12.4H13.6zM14,12H14.4V12.4H14zM14.8,12H15.2V12.4H14.8zM16.4,12H16.8V12.4H16.4zM0.8,12.4H1.2V12.8H0.8zM3.6,12.4H4V12.8H3.6zM4.4,12.4H4.8V12.8H4.4zM4.8,12.4H5.2V12.8H4.8zM6,12.4H6.4V12.8H6zM6.8,12.4H7.2V12.8H6.8zM7.2,12.4H7.6V12.8H7.2zM8,12.4H8.4V12.8H8zM8.4,12.4H8.8V12.8H8.4zM8.8,12.4H9.2V12.8H8.8zM10.8,12.4H11.2V12.8H10.8zM12.4,12.4H12.8V12.8H12.4zM13.2,12.4H13.6V12.8H13.2zM14,12.4H14.4V12.8H14zM14.8,12.4H15.2V12.8H14.8zM15.2,12.4H15.6V12.8H15.2zM15.6,12.4H16V12.8H15.6zM16,12.4H16.4V12.8H16zM16.4,12.4H16.8V12.8H16.4zM16.8,12.4H17.2V12.8H16.8zM1.6,12.8H2V13.2H1.6zM2,12.8H2.4V13.2H2zM3.2,12.8H3.6V13.2H3.2zM4.4,12.8H4.8V13.2H4.4zM5.2,12.8H5.6V13.2H5.2zM5.6,12.8H6V13.2H5.6zM6,12.8H6.4V13.2H6zM6.8,12.8H7.2V13.2H6.8zM7.6,12.8H8V13.2H7.6zM8.8,12.8H9.2V13.2H8.8zM9.6,12.8H10V13.2H9.6zM10.8,12.8H11.2V13.2H10.8zM11.2,12.8H11.6V13.2H11.2zM11.6,12.8H12V13.2H11.6zM12.4,12.8H12.8V13.2H12.4zM12.8,12.8H13.2V13.2H12.8zM13.6,12.8H14V13.2H13.6zM14,12.8H14.4V13.2H14zM15.2,12.8H15.6V13.2H15.2zM16.8,12.8H17.2V13.2H16.8zM1.6,13.2H2V13.6H1.6zM2.8,13.2H3.2V13.6H2.8zM3.6,13.2H4V13.6H3.6zM4,13.2H4.4V13.6H4zM4.8,13.2H5.2V13.6H4.8zM5.6,13.2H6V13.6H5.6zM6.8,13.2H7.2V13.6H6.8zM7.2,13.2H7.6V13.6H7.2zM7.6,13.2H8V13.6H7.6zM8,13.2H8.4V13.6H8zM9.2,13.2H9.6V13.6H9.2zM10.4,13.2H10.8V13.6H10.4zM11.2,13.2H11.6V13.6H11.2zM11.6,13.2H12V13.6H11.6zM12,13.2H12.4V13.6H12zM12.4,13.2H12.8V13.6H12.4zM13.2,13.2H13.6V13.6H13.2zM13.6,13.2H14V13.6H13.6zM14,13.2H14.4V13.6H14zM15.2,13.2H15.6V13.6H15.2zM15.6,13.2H16V13.6H15.6zM0.8,13.6H1.2V14H0.8zM1.2,13.6H1.6V14H1.2zM2,13.6H2.4V14H2zM2.4,13.6H2.8V14H2.4zM2.8,13.6H3.2V14H2.8zM3.2,13.6H3.6V14H3.2zM4.4,13.6H4.8V14H4.4zM4.8,13.6H5.2V14H4.8zM5.2,13.6H5.6V14H5.2zM6.4,13.6H6.8V14H6.4zM6.8,13.6H7.2V14H6.8zM7.2,13.6H7.6V14H7.2zM7.6,13.6H8V14H7.6zM8.4,13.6H8.8V14H8.4zM8.8,13.6H9.2V14H8.8zM9.6,13.6H10V14H9.6zM10,13.6H10.4V14H10zM12,13.6H12.4V14H12zM12.4,13.6H12.8V14H12.4zM13.6,13.6H14V14H13.6zM14,13.6H14.4V14H14zM14.4,13.6H14.8V14H14.4zM14.8,13.6H15.2V14H14.8zM15.2,13.6H15.6V14H15.2zM15.6,13.6H16V14H15.6zM4,14H4.4V14.4H4zM6.4,14H6.8V14.4H6.4zM8.4,14H8.8V14.4H8.4zM9.2,14H9.6V14.4H9.2zM9.6,14H10V14.4H9.6zM10,14H10.4V14.4H10zM10.8,14H11.2V14.4H10.8zM11.2,14H11.6V14.4H11.2zM12,14H12.4V14.4H12zM12.4,14H12.8V14.4H12.4zM13.2,14H13.6V14.4H13.2zM13.6,14H14V14.4H13.6zM15.2,14H15.6V14.4H15.2zM15.6,14H16V14.4H15.6zM16.8,14H17.2V14.4H16.8zM0.8,14.4H1.2V14.8H0.8zM1.2,14.4H1.6V14.8H1.2zM1.6,14.4H2V14.8H1.6zM2,14.4H2.4V14.8H2zM2.4,14.4H2.8V14.8H2.4zM2.8,14.4H3.2V14.8H2.8zM3.2,14.4H3.6V14.8H3.2zM4,14.4H4.4V14.8H4zM4.8,14.4H5.2V14.8H4.8zM5.6,14.4H6V14.8H5.6zM6,14.4H6.4V14.8H6zM6.4,14.4H6.8V14.8H6.4zM7.2,14.4H7.6V14.8H7.2zM7.6,14.4H8V14.8H7.6zM10,14.4H10.4V14.8H10zM10.4,14.4H10.8V14.8H10.4zM11.6,14.4H12V14.8H11.6zM12.8,14.4H13.2V14.8H12.8zM13.2,14.4H13.6V14.8H13.2zM13.6,14.4H14V14.8H13.6zM14.4,14.4H14.8V14.8H14.4zM15.2,14.4H15.6V14.8H15.2zM15.6,14.4H16V14.8H15.6zM16.8,14.4H17.2V14.8H16.8zM0.8,14.8H1.2V15.2H0.8zM3.2,14.8H3.6V15.2H3.2zM5.2,14.8H5.6V15.2H5.2zM6.4,14.8H6.8V15.2H6.4zM6.8,14.8H7.2V15.2H6.8zM7.2,14.8H7.6V15.2H7.2zM7.6,14.8H8V15.2H7.6zM8,14.8H8.4V15.2H8zM8.4,14.8H8.8V15.2H8.4zM8.8,14.8H9.2V15.2H8.8zM9.6,14.8H10V15.2H9.6zM10,14.8H10.4V15.2H10zM10.4,14.8H10.8V15.2H10.4zM11.2,14.8H11.6V15.2H11.2zM11.6,14.8H12V15.2H11.6zM12,14.8H12.4V15.2H12zM13.2,14.8H13.6V15.2H13.2zM13.6,14.8H14V15.2H13.6zM15.2,14.8H15.6V15.2H15.2zM15.6,14.8H16V15.2H15.6zM0.8,15.2H1.2V15.6H0.8zM1.6,15.2H2V15.6H1.6zM2,15.2H2.4V15.6H2zM2.4,15.2H2.8V15.6H2.4zM3.2,15.2H3.6V15.6H3.2zM4,15.2H4.4V15.6H4zM4.4,15.2H4.8V15.6H4.4zM5.2,15.2H5.6V15.6H5.2zM5.6,15.2H6V15.6H5.6zM7.2,15.2H7.6V15.6H7.2zM8,15.2H8.4V15.6H8zM8.4,15.2H8.8V15.6H8.4zM8.8,15.2H9.2V15.6H8.8zM9.6,15.2H10V15.6H9.6zM10.8,15.2H11.2V15.6H10.8zM11.2,15.2H11.6V15.6H11.2zM11.6,15.2H12V15.6H11.6zM13.2,15.2H13.6V15.6H13.2zM13.6,15.2H14V15.6H13.6zM14,15.2H14.4V15.6H14zM14.4,15.2H14.8V15.6H14.4zM14.8,15.2H15.2V15.6H14.8zM15.2,15.2H15.6V15.6H15.2zM16.4,15.2H16.8V15.6H16.4zM16.8,15.2H17.2V15.6H16.8zM0.8,15.6H1.2V16H0.8zM1.6,15.6H2V16H1.6zM2,15.6H2.4V16H2zM2.4,15.6H2.8V16H2.4zM3.2,15.6H3.6V16H3.2zM4.8,15.6H5.2V16H4.8zM5.6,15.6H6V16H5.6zM6,15.6H6.4V16H6zM7.2,15.6H7.6V16H7.2zM10,15.6H10.4V16H10zM10.4,15.6H10.8V16H10.4zM10.8,15.6H11.2V16H10.8zM11.6,15.6H12V16H11.6zM12.8,15.6H13.2V16H12.8zM14.8,15.6H15.2V16H14.8zM16.4,15.6H16.8V16H16.4zM0.8,16H1.2V16.4H0.8zM1.6,16H2V16.4H1.6zM2,16H2.4V16.4H2zM2.4,16H2.8V16.4H2.4zM3.2,16H3.6V16.4H3.2zM4.4,16H4.8V16.4H4.4zM6,16H6.4V16.4H6zM6.4,16H6.8V16.4H6.4zM6.8,16H7.2V16.4H6.8zM7.6,16H8V16.4H7.6zM8.8,16H9.2V16.4H8.8zM10,16H10.4V16.4H10zM10.8,16H11.2V16.4H10.8zM11.2,16H11.6V16.4H11.2zM11.6,16H12V16.4H11.6zM12,16H12.4V16.4H12zM13.2,16H13.6V16.4H13.2zM14,16H14.4V16.4H14zM15.6,16H16V16.4H15.6zM16,16H16.4V16.4H16zM16.8,16H17.2V16.4H16.8zM0.8,16.4H1.2V16.8H0.8zM3.2,16.4H3.6V16.8H3.2zM4.4,16.4H4.8V16.8H4.4zM6.8,16.4H7.2V16.8H6.8zM7.2,16.4H7.6V16.8H7.2zM7.6,16.4H8V16.8H7.6zM8.4,16.4H8.8V16.8H8.4zM9.2,16.4H9.6V16.8H9.2zM10,16.4H10.4V16.8H10zM11.2,16.4H11.6V16.8H11.2zM12.4,16.4H12.8V16.8H12.4zM12.8,16.4H13.2V16.8H12.8zM13.6,16.4H14V16.8H13.6zM14,16.4H14.4V16.8H14zM14.4,16.4H14.8V16.8H14.4zM14.8,16.4H15.2V16.8H14.8zM15.6,16.4H16V16.8H15.6zM16.4,16.4H16.8V16.8H16.4zM16.8,16.4H17.2V16.8H16.8zM0.8,16.8H1.2V17.2H0.8zM1.2,16.8H1.6V17.2H1.2zM1.6,16.8H2V17.2H1.6zM2,16.8H2.4V17.2H2zM2.4,16.8H2.8V17.2H2.4zM2.8,16.8H3.2V17.2H2.8zM3.2,16.8H3.6V17.2H3.2zM4,16.8H4.4V17.2H4zM4.4,16.8H4.8V17.2H4.4zM4.8,16.8H5.2V17.2H4.8zM5.2,16.8H5.6V17.2H5.2zM5.6,16.8H6V17.2H5.6zM6.4,16.8H6.8V17.2H6.4zM7.2,16.8H7.6V17.2H7.2zM7.6,16.8H8V17.2H7.6zM8,16.8H8.4V17.2H8zM8.4,16.8H8.8V17.2H8.4zM8.8,16.8H9.2V17.2H8.8zM9.2,16.8H9.6V17.2H9.2zM9.6,16.8H10V17.2H9.6zM10.4,16.8H10.8V17.2H10.4zM12.4,16.8H12.8V17.2H12.4zM13.2,16.8H13.6V17.2H13.2zM13.6,16.8H14V17.2H13.6zM14,16.8H14.4V17.2H14zM14.4,16.8H14.8V17.2H14.4zM14.8,16.8H15.2V17.2H14.8zM15.2,16.8H15.6V17.2H15.2zM15.6,16.8H16V17.2H15.6zM16,16.8H16.4V17.2H16zM16.4,16.8H16.8V17.2H16.4z" fill="#0b0b0b"/></g>
  </g>
</svg>
