<svg xmlns="http://www.w3.org/2000/svg" viewBox="0 0 1200 630" width="1200" height="630">
  <defs>
    <linearGradient id="bg1g" x1="0" y1="0" x2="1" y2="0">
      <stop offset="0%" stop-color="#2A1A0C"/>
      <stop offset="100%" stop-color="#1E1F0A"/>
    </linearGradient>
    <linearGradient id="bg2g" x1="0" y1="0" x2="1" y2="0">
      <stop offset="0%" stop-color="#1E1F0A"/>
      <stop offset="100%" stop-color="#2A1A0C"/>
    </linearGradient>
    <linearGradient id="bg3g" x1="0" y1="0" x2="1" y2="0">
      <stop offset="0%" stop-color="#2A1A0C"/>
      <stop offset="100%" stop-color="#1E1F0A"/>
    </linearGradient>
    <linearGradient id="accentGrad" x1="0" y1="0" x2="0" y2="1">
      <stop offset="0%" stop-color="#FFB703" stop-opacity="1"/>
      <stop offset="100%" stop-color="#D97706" stop-opacity="0.7"/>
    </linearGradient>
    <radialGradient id="glowCenter" cx="50%" cy="50%" r="50%">
      <stop offset="0%" stop-color="#FFB703" stop-opacity="0.18"/>
      <stop offset="100%" stop-color="#2A1A0C" stop-opacity="0"/>
    </radialGradient>
    <filter id="softShadow" x="-5%" y="-5%" width="110%" height="110%">
      <feDropShadow dx="0" dy="2" stdDeviation="4" flood-color="#000" flood-opacity="0.5"/>
    </filter>
    <filter id="textGlow" x="-10%" y="-10%" width="120%" height="120%">
      <feGaussianBlur stdDeviation="3" result="blur"/>
      <feMerge><feMergeNode in="blur"/><feMergeNode in="SourceGraphic"/></feMerge>
    </filter>
    <pattern id="ledgerGrid" x="0" y="0" width="40" height="40" patternUnits="userSpaceOnUse">
      <path d="M40 0L0 0 0 40" fill="none" stroke="#FFB703" stroke-width="0.3" stroke-opacity="0.12"/>
    </pattern>
    <pattern id="circuitDot" x="0" y="0" width="24" height="24" patternUnits="userSpaceOnUse">
      <circle cx="12" cy="12" r="1.2" fill="#FFB703" fill-opacity="0.15"/>
    </pattern>
    <clipPath id="band1clip"><rect x="0" y="0" width="1200" height="210"/></clipPath>
    <clipPath id="band2clip"><rect x="0" y="210" width="1200" height="210"/></clipPath>
    <clipPath id="band3clip"><rect x="0" y="420" width="1200" height="210"/></clipPath>
  </defs>

  <!-- Band 1 -->
  <rect x="0" y="0" width="1200" height="210" fill="url(#bg1g)"/>
  <rect x="0" y="0" width="1200" height="210" fill="url(#ledgerGrid)"/>
  <rect x="0" y="0" width="1200" height="210" fill="url(#glowCenter)" opacity="0.6"/>
  <rect x="0" y="0" width="6" height="210" fill="url(#accentGrad)">
    <animate attributeName="opacity" values="0.7;1;0.7" dur="3s" repeatCount="indefinite"/>
  </rect>
  <text x="36" y="52" font-family="'Segoe UI',Arial,sans-serif" font-size="13" font-weight="600"
        fill="#FFB703" letter-spacing="3" text-anchor="start" opacity="0.9">TECH SECURITY WEEKLY DIGEST</text>
  <text x="36" y="100" font-family="'Segoe UI',Arial,sans-serif" font-size="42" font-weight="800"
        fill="#FFFFFF" filter="url(#textGlow)" text-anchor="start">Zero-Day + CVE</text>
  <text x="36" y="140" font-family="'Segoe UI',Arial,sans-serif" font-size="20" font-weight="400"
        fill="#FEF3C7" opacity="0.85" text-anchor="start">Ransomware Patch Advisory</text>
  <text x="36" y="185" font-family="'Segoe UI',Arial,sans-serif" font-size="14" font-weight="500"
        fill="#FCD34D" opacity="0.7" text-anchor="start">March 19, 2026</text>
  <!-- Band 1 right visual -->
  <circle cx="980" cy="105" r="72" fill="#FFB703" fill-opacity="0.08"/>
  <circle cx="980" cy="105" r="52" fill="none" stroke="#FFB703" stroke-width="1.5" stroke-opacity="0.25" stroke-dasharray="8 4"/>
  <text x="980" y="95" font-family="'Segoe UI',Arial,sans-serif" font-size="13" font-weight="700"
        fill="#FFB703" text-anchor="middle" opacity="0.9">BAND 1</text>
  <text x="980" y="118" font-family="'Segoe UI',Arial,sans-serif" font-size="15" font-weight="600"
        fill="#FFFFFF" text-anchor="middle" opacity="0.8">Zero-Day Exploits</text>
  <!-- Divider -->
  <line x1="0" y1="210" x2="1200" y2="210" stroke="#FFB703" stroke-width="1.5" stroke-opacity="0.3"/>

  <!-- Band 2 -->
  <rect x="0" y="210" width="1200" height="210" fill="url(#bg2g)"/>
  <rect x="0" y="210" width="1200" height="210" fill="url(#circuitDot)"/>
  <rect x="1194" y="210" width="6" height="210" fill="url(#accentGrad)">
    <animate attributeName="opacity" values="1;0.7;1" dur="3.5s" repeatCount="indefinite"/>
  </rect>
  <text x="36" y="256" font-family="'Segoe UI',Arial,sans-serif" font-size="13" font-weight="600"
        fill="#FFB703" letter-spacing="3" opacity="0.85">THREAT INTELLIGENCE</text>
  <text x="36" y="302" font-family="'Segoe UI',Arial,sans-serif" font-size="32" font-weight="700"
        fill="#FFFFFF" text-anchor="start">CVE Patch Digest</text>
  <!-- Badge cards row -->
  <g transform="translate(36,330)">
    <rect width="180" height="60" rx="8" fill="#2A1A0C" stroke="#FFB703" stroke-width="1" stroke-opacity="0.4" filter="url(#softShadow)"/>
    <text x="90" y="26" font-family="'Segoe UI',Arial,sans-serif" font-size="11" font-weight="600"
          fill="#FFB703" text-anchor="middle" letter-spacing="1">SEVERITY</text>
    <text x="90" y="48" font-family="'Segoe UI',Arial,sans-serif" font-size="18" font-weight="800"
          fill="#FFFFFF" text-anchor="middle">CRITICAL</text>
  </g>
  <g transform="translate(232,330)">
    <rect width="180" height="60" rx="8" fill="#2A1A0C" stroke="#FFB703" stroke-width="1" stroke-opacity="0.4" filter="url(#softShadow)"/>
    <text x="90" y="26" font-family="'Segoe UI',Arial,sans-serif" font-size="11" font-weight="600"
          fill="#FFB703" text-anchor="middle" letter-spacing="1">VECTOR</text>
    <text x="90" y="48" font-family="'Segoe UI',Arial,sans-serif" font-size="18" font-weight="800"
          fill="#FFFFFF" text-anchor="middle">Local Priv</text>
  </g>
  <g transform="translate(428,330)">
    <rect width="180" height="60" rx="8" fill="#2A1A0C" stroke="#FFB703" stroke-width="1" stroke-opacity="0.4" filter="url(#softShadow)"/>
    <text x="90" y="26" font-family="'Segoe UI',Arial,sans-serif" font-size="11" font-weight="600"
          fill="#FFB703" text-anchor="middle" letter-spacing="1">IMPACT</text>
    <text x="90" y="48" font-family="'Segoe UI',Arial,sans-serif" font-size="18" font-weight="800"
          fill="#FFFFFF" text-anchor="middle">RCE</text>
  </g>
  <!-- Divider -->
  <line x1="0" y1="420" x2="1200" y2="420" stroke="#FFB703" stroke-width="1.5" stroke-opacity="0.3"/>

  <!-- Band 3 -->
  <rect x="0" y="420" width="1200" height="210" fill="url(#bg3g)"/>
  <rect x="0" y="420" width="1200" height="210" fill="url(#ledgerGrid)" opacity="0.7"/>
  <rect x="0" y="420" width="6" height="210" fill="url(#accentGrad)" opacity="0.8">
    <animate attributeName="opacity" values="0.8;0.5;0.8" dur="4s" repeatCount="indefinite"/>
  </rect>
  <text x="36" y="466" font-family="'Segoe UI',Arial,sans-serif" font-size="13" font-weight="600"
        fill="#FFB703" letter-spacing="3" opacity="0.85">ANALYSIS</text>
  <text x="36" y="508" font-family="'Segoe UI',Arial,sans-serif" font-size="26" font-weight="700"
        fill="#FFFFFF" text-anchor="start">Ransomware TTPs</text>
  <!-- Tags -->
  <g transform="translate(36,528)">
    <g transform="translate(0,0)">
      <rect width="88" height="28" rx="14" fill="#FFB703" fill-opacity="0.18" stroke="#FFB703" stroke-width="0.8" stroke-opacity="0.5"/>
      <text x="44" y="19" font-family="'Segoe UI',Arial,sans-serif" font-size="12" font-weight="600"
            fill="#FEF3C7" text-anchor="middle">Zero-Day</text>
    </g>
    <g transform="translate(98,0)">
      <rect width="48" height="28" rx="14" fill="#FFB703" fill-opacity="0.18" stroke="#FFB703" stroke-width="0.8" stroke-opacity="0.5"/>
      <text x="24" y="19" font-family="'Segoe UI',Arial,sans-serif" font-size="12" font-weight="600"
            fill="#FEF3C7" text-anchor="middle">CVE</text>
    </g>
    <g transform="translate(156,0)">
      <rect width="104" height="28" rx="14" fill="#FFB703" fill-opacity="0.18" stroke="#FFB703" stroke-width="0.8" stroke-opacity="0.5"/>
      <text x="52" y="19" font-family="'Segoe UI',Arial,sans-serif" font-size="12" font-weight="600"
            fill="#FEF3C7" text-anchor="middle">Ransomware</text>
    </g>
    <g transform="translate(270,0)">
      <rect width="64" height="28" rx="14" fill="#FFB703" fill-opacity="0.18" stroke="#FFB703" stroke-width="0.8" stroke-opacity="0.5"/>
      <text x="32" y="19" font-family="'Segoe UI',Arial,sans-serif" font-size="12" font-weight="600"
            fill="#FEF3C7" text-anchor="middle">Patch</text>
    </g>
  </g>
  <!-- Brand watermark -->
  <text x="36" y="610" font-family="'Segoe UI',Arial,sans-serif" font-size="12" font-weight="400"
        fill="#FCD34D" opacity="0.5" text-anchor="start">tech.2twodragon.com</text>
  <!-- Accent line bottom -->
  <rect x="0" y="626" width="1200" height="4" fill="url(#accentGrad)" opacity="0.6"/>
  <!-- QR code -->
  <g transform="translate(1080,504)">
    <rect x="-8" y="-8" width="100" height="100" rx="6" fill="#FFFFFF"/>
    <path fill="#0A1020" d="M0.0 0.0h14.34v2.05h-14.34z M16.39 0.0h4.1v2.05h-4.1z M22.54 0.0h4.1v2.05h-4.1z M28.68 0.0h2.05v2.05h-2.05z M32.78 0.0h2.05v2.05h-2.05z M38.93 0.0h2.05v2.05h-2.05z M43.02 0.0h6.15v2.05h-6.15z M51.22 0.0h2.05v2.05h-2.05z M55.32 0.0h2.05v2.05h-2.05z M59.41 0.0h4.1v2.05h-4.1z M69.66 0.0h14.34v2.05h-14.34z M0.0 2.05h2.05v2.05h-2.05z M12.29 2.05h2.05v2.05h-2.05z M18.44 2.05h4.1v2.05h-4.1z M26.63 2.05h6.15v2.05h-6.15z M34.83 2.05h4.1v2.05h-4.1z M40.98 2.05h2.05v2.05h-2.05z M49.17 2.05h2.05v2.05h-2.05z M53.27 2.05h2.05v2.05h-2.05z M57.37 2.05h4.1v2.05h-4.1z M65.56 2.05h2.05v2.05h-2.05z M69.66 2.05h2.05v2.05h-2.05z M81.95 2.05h2.05v2.05h-2.05z M0.0 4.1h2.05v2.05h-2.05z M4.1 4.1h6.15v2.05h-6.15z M12.29 4.1h2.05v2.05h-2.05z M16.39 4.1h2.05v2.05h-2.05z M20.49 4.1h6.15v2.05h-6.15z M28.68 4.1h2.05v2.05h-2.05z M36.88 4.1h2.05v2.05h-2.05z M40.98 4.1h4.1v2.05h-4.1z M47.12 4.1h2.05v2.05h-2.05z M51.22 4.1h4.1v2.05h-4.1z M59.41 4.1h8.2v2.05h-8.2z M69.66 4.1h2.05v2.05h-2.05z M73.76 4.1h6.15v2.05h-6.15z M81.95 4.1h2.05v2.05h-2.05z M0.0 6.15h2.05v2.05h-2.05z M4.1 6.15h6.15v2.05h-6.15z M12.29 6.15h2.05v2.05h-2.05z M20.49 6.15h6.15v2.05h-6.15z M36.88 6.15h2.05v2.05h-2.05z M40.98 6.15h2.05v2.05h-2.05z M47.12 6.15h2.05v2.05h-2.05z M51.22 6.15h6.15v2.05h-6.15z M59.41 6.15h6.15v2.05h-6.15z M69.66 6.15h2.05v2.05h-2.05z M73.76 6.15h6.15v2.05h-6.15z M81.95 6.15h2.05v2.05h-2.05z M0.0 8.2h2.05v2.05h-2.05z M4.1 8.2h6.15v2.05h-6.15z M12.29 8.2h2.05v2.05h-2.05z M20.49 8.2h4.1v2.05h-4.1z M28.68 8.2h2.05v2.05h-2.05z M36.88 8.2h2.05v2.05h-2.05z M43.02 8.2h2.05v2.05h-2.05z M51.22 8.2h4.1v2.05h-4.1z M59.41 8.2h4.1v2.05h-4.1z M65.56 8.2h2.05v2.05h-2.05z M69.66 8.2h2.05v2.05h-2.05z M73.76 8.2h6.15v2.05h-6.15z M81.95 8.2h2.05v2.05h-2.05z M0.0 10.24h2.05v2.05h-2.05z M12.29 10.24h2.05v2.05h-2.05z M16.39 10.24h4.1v2.05h-4.1z M22.54 10.24h2.05v2.05h-2.05z M28.68 10.24h2.05v2.05h-2.05z M34.83 10.24h4.1v2.05h-4.1z M40.98 10.24h4.1v2.05h-4.1z M49.17 10.24h4.1v2.05h-4.1z M61.46 10.24h2.05v2.05h-2.05z M65.56 10.24h2.05v2.05h-2.05z M69.66 10.24h2.05v2.05h-2.05z M81.95 10.24h2.05v2.05h-2.05z M0.0 12.29h14.34v2.05h-14.34z M16.39 12.29h2.05v2.05h-2.05z M20.49 12.29h2.05v2.05h-2.05z M24.59 12.29h2.05v2.05h-2.05z M28.68 12.29h2.05v2.05h-2.05z M32.78 12.29h2.05v2.05h-2.05z M36.88 12.29h2.05v2.05h-2.05z M40.98 12.29h2.05v2.05h-2.05z M45.07 12.29h2.05v2.05h-2.05z M49.17 12.29h2.05v2.05h-2.05z M53.27 12.29h2.05v2.05h-2.05z M57.37 12.29h2.05v2.05h-2.05z M61.46 12.29h2.05v2.05h-2.05z M65.56 12.29h2.05v2.05h-2.05z M69.66 12.29h14.34v2.05h-14.34z M22.54 14.34h6.15v2.05h-6.15z M30.73 14.34h2.05v2.05h-2.05z M47.12 14.34h2.05v2.05h-2.05z M57.37 14.34h2.05v2.05h-2.05z M63.51 14.34h2.05v2.05h-2.05z M0.0 16.39h2.05v2.05h-2.05z M4.1 16.39h2.05v2.05h-2.05z M12.29 16.39h4.1v2.05h-4.1z M18.44 16.39h2.05v2.05h-2.05z M22.54 16.39h2.05v2.05h-2.05z M26.63 16.39h8.2v2.05h-8.2z M40.98 16.39h2.05v2.05h-2.05z M47.12 16.39h2.05v2.05h-2.05z M55.32 16.39h2.05v2.05h-2.05z M63.51 16.39h2.05v2.05h-2.05z M71.71 16.39h2.05v2.05h-2.05z M77.85 16.39h2.05v2.05h-2.05z M81.95 16.39h2.05v2.05h-2.05z M2.05 18.44h10.24v2.05h-10.24z M16.39 18.44h2.05v2.05h-2.05z M22.54 18.44h12.29v2.05h-12.29z M38.93 18.44h2.05v2.05h-2.05z M47.12 18.44h4.1v2.05h-4.1z M53.27 18.44h4.1v2.05h-4.1z M59.41 18.44h2.05v2.05h-2.05z M63.51 18.44h10.24v2.05h-10.24z M77.85 18.44h2.05v2.05h-2.05z M81.95 18.44h2.05v2.05h-2.05z M4.1 20.49h4.1v2.05h-4.1z M10.24 20.49h4.1v2.05h-4.1z M16.39 20.49h2.05v2.05h-2.05z M20.49 20.49h4.1v2.05h-4.1z M26.63 20.49h2.05v2.05h-2.05z M34.83 20.49h2.05v2.05h-2.05z M38.93 20.49h6.15v2.05h-6.15z M47.12 20.49h6.15v2.05h-6.15z M55.32 20.49h4.1v2.05h-4.1z M63.51 20.49h2.05v2.05h-2.05z M71.71 20.49h8.2v2.05h-8.2z M81.95 20.49h2.05v2.05h-2.05z M0.0 22.54h2.05v2.05h-2.05z M4.1 22.54h2.05v2.05h-2.05z M14.34 22.54h2.05v2.05h-2.05z M18.44 22.54h2.05v2.05h-2.05z M22.54 22.54h12.29v2.05h-12.29z M38.93 22.54h4.1v2.05h-4.1z M45.07 22.54h2.05v2.05h-2.05z M49.17 22.54h2.05v2.05h-2.05z M53.27 22.54h6.15v2.05h-6.15z M61.46 22.54h16.39v2.05h-16.39z M81.95 22.54h2.05v2.05h-2.05z M4.1 24.59h10.24v2.05h-10.24z M16.39 24.59h4.1v2.05h-4.1z M26.63 24.59h2.05v2.05h-2.05z M30.73 24.59h4.1v2.05h-4.1z M47.12 24.59h4.1v2.05h-4.1z M61.46 24.59h2.05v2.05h-2.05z M69.66 24.59h2.05v2.05h-2.05z M79.9 24.59h4.1v2.05h-4.1z M0.0 26.63h6.15v2.05h-6.15z M10.24 26.63h2.05v2.05h-2.05z M18.44 26.63h4.1v2.05h-4.1z M28.68 26.63h4.1v2.05h-4.1z M36.88 26.63h2.05v2.05h-2.05z M49.17 26.63h4.1v2.05h-4.1z M55.32 26.63h4.1v2.05h-4.1z M61.46 26.63h6.15v2.05h-6.15z M69.66 26.63h2.05v2.05h-2.05z M75.8 26.63h4.1v2.05h-4.1z M81.95 26.63h2.05v2.05h-2.05z M4.1 28.68h2.05v2.05h-2.05z M8.2 28.68h2.05v2.05h-2.05z M12.29 28.68h2.05v2.05h-2.05z M18.44 28.68h2.05v2.05h-2.05z M22.54 28.68h2.05v2.05h-2.05z M26.63 28.68h6.15v2.05h-6.15z M38.93 28.68h2.05v2.05h-2.05z M43.02 28.68h2.05v2.05h-2.05z M49.17 28.68h2.05v2.05h-2.05z M53.27 28.68h4.1v2.05h-4.1z M63.51 28.68h2.05v2.05h-2.05z M67.61 28.68h6.15v2.05h-6.15z M81.95 28.68h2.05v2.05h-2.05z M0.0 30.73h2.05v2.05h-2.05z M8.2 30.73h4.1v2.05h-4.1z M16.39 30.73h2.05v2.05h-2.05z M22.54 30.73h4.1v2.05h-4.1z M30.73 30.73h4.1v2.05h-4.1z M47.12 30.73h4.1v2.05h-4.1z M61.46 30.73h2.05v2.05h-2.05z M67.61 30.73h4.1v2.05h-4.1z M79.9 30.73h4.1v2.05h-4.1z M0.0 32.78h4.1v2.05h-4.1z M6.15 32.78h4.1v2.05h-4.1z M12.29 32.78h8.2v2.05h-8.2z M24.59 32.78h4.1v2.05h-4.1z M34.83 32.78h2.05v2.05h-2.05z M38.93 32.78h4.1v2.05h-4.1z M49.17 32.78h2.05v2.05h-2.05z M55.32 32.78h2.05v2.05h-2.05z M63.51 32.78h8.2v2.05h-8.2z M81.95 32.78h2.05v2.05h-2.05z M8.2 34.83h2.05v2.05h-2.05z M16.39 34.83h6.15v2.05h-6.15z M30.73 34.83h4.1v2.05h-4.1z M40.98 34.83h4.1v2.05h-4.1z M47.12 34.83h2.05v2.05h-2.05z M57.37 34.83h2.05v2.05h-2.05z M63.51 34.83h10.24v2.05h-10.24z M75.8 34.83h2.05v2.05h-2.05z M81.95 34.83h2.05v2.05h-2.05z M0.0 36.88h4.1v2.05h-4.1z M12.29 36.88h2.05v2.05h-2.05z M26.63 36.88h14.34v2.05h-14.34z M47.12 36.88h2.05v2.05h-2.05z M53.27 36.88h8.2v2.05h-8.2z M63.51 36.88h4.1v2.05h-4.1z M69.66 36.88h6.15v2.05h-6.15z M77.85 36.88h6.15v2.05h-6.15z M0.0 38.93h2.05v2.05h-2.05z M6.15 38.93h2.05v2.05h-2.05z M14.34 38.93h4.1v2.05h-4.1z M22.54 38.93h2.05v2.05h-2.05z M28.68 38.93h6.15v2.05h-6.15z M36.88 38.93h8.2v2.05h-8.2z M47.12 38.93h4.1v2.05h-4.1z M53.27 38.93h2.05v2.05h-2.05z M57.37 38.93h2.05v2.05h-2.05z M61.46 38.93h2.05v2.05h-2.05z M65.56 38.93h2.05v2.05h-2.05z M69.66 38.93h2.05v2.05h-2.05z M75.8 38.93h2.05v2.05h-2.05z M79.9 38.93h2.05v2.05h-2.05z M0.0 40.98h2.05v2.05h-2.05z M4.1 40.98h4.1v2.05h-4.1z M10.24 40.98h4.1v2.05h-4.1z M16.39 40.98h2.05v2.05h-2.05z M24.59 40.98h6.15v2.05h-6.15z M34.83 40.98h4.1v2.05h-4.1z M40.98 40.98h4.1v2.05h-4.1z M55.32 40.98h2.05v2.05h-2.05z M59.41 40.98h2.05v2.05h-2.05z M63.51 40.98h2.05v2.05h-2.05z M67.61 40.98h6.15v2.05h-6.15z M75.8 40.98h2.05v2.05h-2.05z M0.0 43.02h2.05v2.05h-2.05z M4.1 43.02h8.2v2.05h-8.2z M14.34 43.02h10.24v2.05h-10.24z M26.63 43.02h8.2v2.05h-8.2z M36.88 43.02h6.15v2.05h-6.15z M49.17 43.02h2.05v2.05h-2.05z M57.37 43.02h2.05v2.05h-2.05z M61.46 43.02h4.1v2.05h-4.1z M69.66 43.02h4.1v2.05h-4.1z M81.95 43.02h2.05v2.05h-2.05z M8.2 45.07h2.05v2.05h-2.05z M12.29 45.07h2.05v2.05h-2.05z M16.39 45.07h2.05v2.05h-2.05z M22.54 45.07h2.05v2.05h-2.05z M26.63 45.07h8.2v2.05h-8.2z M36.88 45.07h12.29v2.05h-12.29z M51.22 45.07h2.05v2.05h-2.05z M55.32 45.07h2.05v2.05h-2.05z M59.41 45.07h2.05v2.05h-2.05z M63.51 45.07h6.15v2.05h-6.15z M77.85 45.07h2.05v2.05h-2.05z M81.95 45.07h2.05v2.05h-2.05z M0.0 47.12h4.1v2.05h-4.1z M6.15 47.12h2.05v2.05h-2.05z M16.39 47.12h6.15v2.05h-6.15z M24.59 47.12h4.1v2.05h-4.1z M32.78 47.12h2.05v2.05h-2.05z M36.88 47.12h4.1v2.05h-4.1z M45.07 47.12h6.15v2.05h-6.15z M55.32 47.12h4.1v2.05h-4.1z M61.46 47.12h2.05v2.05h-2.05z M67.61 47.12h2.05v2.05h-2.05z M75.8 47.12h2.05v2.05h-2.05z M79.9 47.12h2.05v2.05h-2.05z M10.24 49.17h6.15v2.05h-6.15z M18.44 49.17h6.15v2.05h-6.15z M26.63 49.17h2.05v2.05h-2.05z M32.78 49.17h2.05v2.05h-2.05z M38.93 49.17h4.1v2.05h-4.1z M49.17 49.17h2.05v2.05h-2.05z M57.37 49.17h2.05v2.05h-2.05z M63.51 49.17h4.1v2.05h-4.1z M69.66 49.17h4.1v2.05h-4.1z M75.8 49.17h2.05v2.05h-2.05z M79.9 49.17h4.1v2.05h-4.1z M0.0 51.22h2.05v2.05h-2.05z M6.15 51.22h2.05v2.05h-2.05z M14.34 51.22h4.1v2.05h-4.1z M20.49 51.22h2.05v2.05h-2.05z M28.68 51.22h2.05v2.05h-2.05z M34.83 51.22h2.05v2.05h-2.05z M38.93 51.22h4.1v2.05h-4.1z M47.12 51.22h4.1v2.05h-4.1z M53.27 51.22h4.1v2.05h-4.1z M63.51 51.22h2.05v2.05h-2.05z M67.61 51.22h2.05v2.05h-2.05z M71.71 51.22h2.05v2.05h-2.05z M75.8 51.22h2.05v2.05h-2.05z M79.9 51.22h2.05v2.05h-2.05z M0.0 53.27h4.1v2.05h-4.1z M8.2 53.27h2.05v2.05h-2.05z M12.29 53.27h4.1v2.05h-4.1z M22.54 53.27h6.15v2.05h-6.15z M32.78 53.27h8.2v2.05h-8.2z M45.07 53.27h4.1v2.05h-4.1z M53.27 53.27h12.29v2.05h-12.29z M75.8 53.27h4.1v2.05h-4.1z M81.95 53.27h2.05v2.05h-2.05z M8.2 55.32h2.05v2.05h-2.05z M14.34 55.32h2.05v2.05h-2.05z M18.44 55.32h2.05v2.05h-2.05z M26.63 55.32h2.05v2.05h-2.05z M30.73 55.32h4.1v2.05h-4.1z M36.88 55.32h6.15v2.05h-6.15z M45.07 55.32h6.15v2.05h-6.15z M53.27 55.32h2.05v2.05h-2.05z M61.46 55.32h8.2v2.05h-8.2z M73.76 55.32h4.1v2.05h-4.1z M79.9 55.32h4.1v2.05h-4.1z M0.0 57.37h6.15v2.05h-6.15z M12.29 57.37h8.2v2.05h-8.2z M24.59 57.37h2.05v2.05h-2.05z M28.68 57.37h8.2v2.05h-8.2z M40.98 57.37h2.05v2.05h-2.05z M49.17 57.37h2.05v2.05h-2.05z M57.37 57.37h2.05v2.05h-2.05z M61.46 57.37h2.05v2.05h-2.05z M65.56 57.37h2.05v2.05h-2.05z M69.66 57.37h2.05v2.05h-2.05z M2.05 59.41h10.24v2.05h-10.24z M14.34 59.41h4.1v2.05h-4.1z M20.49 59.41h6.15v2.05h-6.15z M28.68 59.41h4.1v2.05h-4.1z M36.88 59.41h2.05v2.05h-2.05z M40.98 59.41h2.05v2.05h-2.05z M45.07 59.41h2.05v2.05h-2.05z M55.32 59.41h4.1v2.05h-4.1z M61.46 59.41h10.24v2.05h-10.24z M79.9 59.41h2.05v2.05h-2.05z M0.0 61.46h14.34v2.05h-14.34z M20.49 61.46h6.15v2.05h-6.15z M28.68 61.46h8.2v2.05h-8.2z M40.98 61.46h8.2v2.05h-8.2z M51.22 61.46h2.05v2.05h-2.05z M55.32 61.46h6.15v2.05h-6.15z M63.51 61.46h2.05v2.05h-2.05z M67.61 61.46h2.05v2.05h-2.05z M71.71 61.46h6.15v2.05h-6.15z M81.95 61.46h2.05v2.05h-2.05z M4.1 63.51h8.2v2.05h-8.2z M22.54 63.51h4.1v2.05h-4.1z M28.68 63.51h4.1v2.05h-4.1z M36.88 63.51h6.15v2.05h-6.15z M45.07 63.51h6.15v2.05h-6.15z M53.27 63.51h2.05v2.05h-2.05z M61.46 63.51h6.15v2.05h-6.15z M69.66 63.51h2.05v2.05h-2.05z M79.9 63.51h4.1v2.05h-4.1z M0.0 65.56h14.34v2.05h-14.34z M22.54 65.56h4.1v2.05h-4.1z M30.73 65.56h6.15v2.05h-6.15z M49.17 65.56h2.05v2.05h-2.05z M55.32 65.56h2.05v2.05h-2.05z M63.51 65.56h12.29v2.05h-12.29z M16.39 67.61h4.1v2.05h-4.1z M24.59 67.61h2.05v2.05h-2.05z M28.68 67.61h2.05v2.05h-2.05z M32.78 67.61h6.15v2.05h-6.15z M40.98 67.61h2.05v2.05h-2.05z M45.07 67.61h18.44v2.05h-18.44z M65.56 67.61h2.05v2.05h-2.05z M73.76 67.61h4.1v2.05h-4.1z M81.95 67.61h2.05v2.05h-2.05z M0.0 69.66h14.34v2.05h-14.34z M16.39 69.66h4.1v2.05h-4.1z M22.54 69.66h2.05v2.05h-2.05z M26.63 69.66h2.05v2.05h-2.05z M32.78 69.66h2.05v2.05h-2.05z M38.93 69.66h2.05v2.05h-2.05z M43.02 69.66h14.34v2.05h-14.34z M63.51 69.66h4.1v2.05h-4.1z M69.66 69.66h2.05v2.05h-2.05z M73.76 69.66h2.05v2.05h-2.05z M77.85 69.66h2.05v2.05h-2.05z M81.95 69.66h2.05v2.05h-2.05z M0.0 71.71h2.05v2.05h-2.05z M12.29 71.71h2.05v2.05h-2.05z M20.49 71.71h4.1v2.05h-4.1z M26.63 71.71h10.24v2.05h-10.24z M45.07 71.71h4.1v2.05h-4.1z M55.32 71.71h2.05v2.05h-2.05z M61.46 71.71h6.15v2.05h-6.15z M73.76 71.71h4.1v2.05h-4.1z M79.9 71.71h4.1v2.05h-4.1z M0.0 73.76h2.05v2.05h-2.05z M4.1 73.76h6.15v2.05h-6.15z M12.29 73.76h2.05v2.05h-2.05z M18.44 73.76h2.05v2.05h-2.05z M26.63 73.76h2.05v2.05h-2.05z M30.73 73.76h2.05v2.05h-2.05z M34.83 73.76h2.05v2.05h-2.05z M43.02 73.76h6.15v2.05h-6.15z M53.27 73.76h8.2v2.05h-8.2z M63.51 73.76h14.34v2.05h-14.34z M0.0 75.8h2.05v2.05h-2.05z M4.1 75.8h6.15v2.05h-6.15z M12.29 75.8h2.05v2.05h-2.05z M18.44 75.8h2.05v2.05h-2.05z M22.54 75.8h4.1v2.05h-4.1z M32.78 75.8h2.05v2.05h-2.05z M38.93 75.8h4.1v2.05h-4.1z M45.07 75.8h2.05v2.05h-2.05z M49.17 75.8h2.05v2.05h-2.05z M55.32 75.8h2.05v2.05h-2.05z M61.46 75.8h6.15v2.05h-6.15z M71.71 75.8h8.2v2.05h-8.2z M81.95 75.8h2.05v2.05h-2.05z M0.0 77.85h2.05v2.05h-2.05z M4.1 77.85h6.15v2.05h-6.15z M12.29 77.85h2.05v2.05h-2.05z M16.39 77.85h2.05v2.05h-2.05z M22.54 77.85h6.15v2.05h-6.15z M30.73 77.85h2.05v2.05h-2.05z M38.93 77.85h2.05v2.05h-2.05z M47.12 77.85h4.1v2.05h-4.1z M55.32 77.85h2.05v2.05h-2.05z M61.46 77.85h2.05v2.05h-2.05z M67.61 77.85h2.05v2.05h-2.05z M73.76 77.85h4.1v2.05h-4.1z M81.95 77.85h2.05v2.05h-2.05z M0.0 79.9h2.05v2.05h-2.05z M12.29 79.9h2.05v2.05h-2.05z M20.49 79.9h2.05v2.05h-2.05z M24.59 79.9h6.15v2.05h-6.15z M32.78 79.9h6.15v2.05h-6.15z M40.98 79.9h2.05v2.05h-2.05z M45.07 79.9h2.05v2.05h-2.05z M53.27 79.9h2.05v2.05h-2.05z M61.46 79.9h10.24v2.05h-10.24z M75.8 79.9h2.05v2.05h-2.05z M0.0 81.95h14.34v2.05h-14.34z M16.39 81.95h2.05v2.05h-2.05z M20.49 81.95h2.05v2.05h-2.05z M26.63 81.95h4.1v2.05h-4.1z M34.83 81.95h2.05v2.05h-2.05z M38.93 81.95h4.1v2.05h-4.1z M49.17 81.95h2.05v2.05h-2.05z M57.37 81.95h2.05v2.05h-2.05z M63.51 81.95h4.1v2.05h-4.1z M73.76 81.95h2.05v2.05h-2.05z M81.95 81.95h2.05v2.05h-2.05z"/>
  </g>
</svg>