<svg xmlns="http://www.w3.org/2000/svg" viewBox="0 0 1200 630" width="1200" height="630">
  <title>AI CONTENT CREATOR WORKFLOW 2026</title>
  <defs>
    <linearGradient id="bg" x1="0%" y1="0%" x2="100%" y2="100%">
      <stop offset="0%" stop-color="#0b1120"/>
      <stop offset="52%" stop-color="#121a2f"/>
      <stop offset="100%" stop-color="#170f25"/>
    </linearGradient>
    <linearGradient id="panel" x1="0%" y1="0%" x2="100%" y2="100%">
      <stop offset="0%" stop-color="#0f172a" stop-opacity="0.96"/>
      <stop offset="100%" stop-color="#111827" stop-opacity="0.86"/>
    </linearGradient>
    <pattern id="microGrid" x="0" y="0" width="36" height="36" patternUnits="userSpaceOnUse">
      <path d="M36 0H0V36" fill="none" stroke="#334155" stroke-width="1" opacity="0.25"/>
      <circle cx="18" cy="18" r="1.2" fill="#22d3ee" opacity="0.15"/>
    </pattern>
    <filter id="glow" x="-40%" y="-40%" width="180%" height="180%">
      <feGaussianBlur stdDeviation="10" result="blur"/>
      <feMerge><feMergeNode in="blur"/><feMergeNode in="SourceGraphic"/></feMerge>
    </filter>
    <filter id="sg" x="-30%" y="-30%" width="160%" height="160%">
      <feGaussianBlur stdDeviation="36"/>
    </filter>
    <filter id="shadow" x="-30%" y="-30%" width="180%" height="180%">
      <feDropShadow dx="0" dy="14" stdDeviation="22" flood-color="#020617" flood-opacity="0.42"/>
    </filter>
  </defs>
  <rect width="1200" height="630" fill="url(#bg)"/>
  <rect width="1200" height="630" fill="url(#microGrid)"/>
  <circle cx="202" cy="150" r="190" fill="#22d3ee" opacity="0.08" filter="url(#sg)"/>
  <circle cx="1020" cy="486" r="220" fill="#0891b2" opacity="0.08" filter="url(#sg)"/>
  <circle cx="920" cy="160" r="140" fill="#38bdf8" opacity="0.04" filter="url(#sg)"/>
  <path d="M0 96 C224 46 426 44 654 118 L654 630 L0 630 Z" fill="#020617" opacity="0.24"/>
  <path d="M0 526 C248 490 426 486 654 548" fill="none" stroke="#475569" stroke-width="1.2" opacity="0.22"/>
  <rect x="736" y="104" width="362" height="326" rx="28" fill="url(#panel)" stroke="#22d3ee" stroke-opacity="0.28" stroke-width="1.4" filter="url(#shadow)"/>
  <rect x="754" y="122" width="326" height="290" rx="22" fill="none" stroke="#334155" stroke-opacity="0.7" stroke-width="1"/>
  <rect x="758" y="124" width="108" height="12" rx="6" fill="#22d3ee" opacity="0.28"/>
  <rect x="880" y="124" width="72" height="12" rx="6" fill="#334155" opacity="0.55"/>
  <rect x="964" y="124" width="48" height="12" rx="6" fill="#334155" opacity="0.35"/>
  
  <path d="M724 152 C822 126 922 136 1020 202" fill="none" stroke="#f59e0b" stroke-width="1.3" opacity="0.24"/>
  <path d="M706 420 C782 454 878 462 968 410" fill="none" stroke="#60a5fa" stroke-width="1.2" opacity="0.22"/>

  <g transform="translate(917,270)" filter="url(#shadow)">
    <circle r="96" fill="#0f172a" stroke="#22d3ee" stroke-width="2.6" opacity="0.94"/>
    <circle r="124" fill="none" stroke="#22d3ee" stroke-opacity="0.15" stroke-width="1.2" stroke-dasharray="8 8"/>
    <circle r="54" fill="none" stroke="#e2e8f0" stroke-opacity="0.15" stroke-width="1"/>

    <circle r="14" fill="#22d3ee" opacity="0.3"/>
    <circle r="6" fill="#22d3ee" opacity="0.6"/>
    <line x1="-30" y1="-25" x2="-10" y2="-8" stroke="#22d3ee" stroke-width="2"/>
    <line x1="30" y1="-25" x2="10" y2="-8" stroke="#22d3ee" stroke-width="2"/>
    <line x1="-30" y1="25" x2="-10" y2="8" stroke="#22d3ee" stroke-width="2"/>
    <line x1="30" y1="25" x2="10" y2="8" stroke="#22d3ee" stroke-width="2"/>
    <circle cx="-30" cy="-25" r="8" fill="none" stroke="#22d3ee" stroke-width="2"/>
    <circle cx="30" cy="-25" r="8" fill="none" stroke="#22d3ee" stroke-width="2"/>
    <circle cx="-30" cy="25" r="8" fill="none" stroke="#22d3ee" stroke-width="2"/>
    <circle cx="30" cy="25" r="8" fill="none" stroke="#22d3ee" stroke-width="2"/>
    <line x1="-30" y1="-17" x2="-30" y2="17" stroke="#22d3ee" stroke-width="1" opacity="0.3"/>
    <line x1="30" y1="-17" x2="30" y2="17" stroke="#22d3ee" stroke-width="1" opacity="0.3"/>
  </g>
  <g transform="translate(84 66)">
    <rect width="164" height="36" rx="18" fill="#22d3ee" opacity="0.2" stroke="#22d3ee" stroke-width="1.2"/>
    <text x="82" y="23" font-family="Arial,sans-serif" font-size="13" font-weight="700" fill="#22d3ee" text-anchor="middle">AI/ML</text>
  </g>
  <text x="84" y="170" font-family="Arial,sans-serif" font-size="54" font-weight="700" fill="#f8fafc" letter-spacing="0.5">AI CONTENT CREATOR</text>
  <text x="84" y="232" font-family="Arial,sans-serif" font-size="52" font-weight="700" fill="#dbeafe" letter-spacing="0.5">WORKFLOW 2026</text>
  <text x="84" y="288" font-family="Arial,sans-serif" font-size="18" fill="#cbd5e1">DEVSECOPS / CLAUDE / SUNO AI</text>
  <rect x="84" y="314" width="520" height="1.5" fill="#334155" opacity="0.9"/>
  <text x="84" y="344" font-family="Arial,sans-serif" font-size="14" font-weight="700" fill="#94a3b8">VISUAL SYSTEM C686CB64881B</text>
  <text x="84" y="372" font-family="Arial,sans-serif" font-size="14" fill="#94a3b8">End-to-end AI workflow for blog, video, music, and animation content creation in 2026.</text>
  <g transform="translate(84 474)">
    <rect width="124" height="38" rx="19" fill="#22d3ee" opacity="0.16" stroke="#22d3ee" stroke-width="1.2"/>
    <text x="62.0" y="24" font-family="Arial,sans-serif" font-size="13" font-weight="700" fill="#e2e8f0" text-anchor="middle">DEVSECOPS</text>
  </g>
  <g transform="translate(222 474)">
    <rect width="110" height="38" rx="19" fill="#22d3ee" opacity="0.16" stroke="#22d3ee" stroke-width="1.2"/>
    <text x="55.0" y="24" font-family="Arial,sans-serif" font-size="13" font-weight="700" fill="#e2e8f0" text-anchor="middle">CLAUDE</text>
  </g>
  <g transform="translate(346 474)">
    <rect width="110" height="38" rx="19" fill="#22d3ee" opacity="0.16" stroke="#22d3ee" stroke-width="1.2"/>
    <text x="55.0" y="24" font-family="Arial,sans-serif" font-size="13" font-weight="700" fill="#e2e8f0" text-anchor="middle">SUNO AI</text>
  </g>
  <g transform="translate(84 536)">
    <rect width="144" height="58" rx="16" fill="#111827" fill-opacity="0.78" stroke="#22d3ee" stroke-opacity="0.35" stroke-width="1.2"/>
    <text x="18" y="24" font-family="Arial,sans-serif" font-size="11" font-weight="700" fill="#94a3b8">CATEGORY</text>
    <text x="18" y="43" font-family="Arial,sans-serif" font-size="16" font-weight="700" fill="#f8fafc">AI/ML</text>
  </g>
  <g transform="translate(246 536)">
    <rect width="144" height="58" rx="16" fill="#111827" fill-opacity="0.78" stroke="#22d3ee" stroke-opacity="0.35" stroke-width="1.2"/>
    <text x="18" y="24" font-family="Arial,sans-serif" font-size="11" font-weight="700" fill="#94a3b8">SIGNALS</text>
    <text x="18" y="43" font-family="Arial,sans-serif" font-size="16" font-weight="700" fill="#f8fafc">05</text>
  </g>
  <g transform="translate(408 536)">
    <rect width="144" height="58" rx="16" fill="#111827" fill-opacity="0.78" stroke="#22d3ee" stroke-opacity="0.35" stroke-width="1.2"/>
    <text x="18" y="24" font-family="Arial,sans-serif" font-size="11" font-weight="700" fill="#94a3b8">TAGS</text>
    <text x="18" y="43" font-family="Arial,sans-serif" font-size="16" font-weight="700" fill="#f8fafc">10</text>
  </g>
  <g transform="translate(1030 74)">
    <rect width="130" height="34" rx="17" fill="#1d4ed8" opacity="0.18" stroke="#3b82f6" stroke-width="1.2"/>
    <text x="65" y="22" font-family="Arial,sans-serif" font-size="12" font-weight="700" fill="#bfdbfe" text-anchor="middle">April 14, 2026</text>
  </g>
  <line x1="50" y1="588" x2="1150" y2="588" stroke="#334155" stroke-width="1" opacity="0.5"/>
  <text x="1150" y="612" font-family="Arial,sans-serif" font-size="13" fill="#94a3b8" text-anchor="end">tech.2twodragon.com</text>
<!-- cover-qr: https://tech.2twodragon.com/posts/2026/02/05/AI_Content_Creator_Workflow_2026_Blog_Video_Music_Animation/ : 41x41 -->
<g transform="translate(1080,504)">
  <rect x="-8" y="-8" width="100" height="100" rx="6" fill="#FFFFFF"/>
  <g transform="scale(2.048780)" fill="#0A1020">
    <path d="M0 0h7v1h-7zM10 0h1v1h-1zM12 0h1v1h-1zM16 0h2v1h-2zM20 0h1v1h-1zM22 0h1v1h-1zM28 0h2v1h-2zM31 0h2v1h-2zM34 0h7v1h-7zM0 1h1v1h-1zM6 1h1v1h-1zM11 1h3v1h-3zM17 1h1v1h-1zM21 1h2v1h-2zM25 1h1v1h-1zM27 1h1v1h-1zM29 1h1v1h-1zM32 1h1v1h-1zM34 1h1v1h-1zM40 1h1v1h-1zM0 2h1v1h-1zM2 2h3v1h-3zM6 2h1v1h-1zM8 2h2v1h-2zM11 2h6v1h-6zM18 2h6v1h-6zM26 2h1v1h-1zM31 2h2v1h-2zM34 2h1v1h-1zM36 2h3v1h-3zM40 2h1v1h-1zM0 3h1v1h-1zM2 3h3v1h-3zM6 3h1v1h-1zM8 3h1v1h-1zM12 3h3v1h-3zM17 3h2v1h-2zM22 3h1v1h-1zM24 3h1v1h-1zM26 3h3v1h-3zM31 3h2v1h-2zM34 3h1v1h-1zM36 3h3v1h-3zM40 3h1v1h-1zM0 4h1v1h-1zM2 4h3v1h-3zM6 4h1v1h-1zM8 4h1v1h-1zM10 4h2v1h-2zM16 4h6v1h-6zM26 4h1v1h-1zM30 4h2v1h-2zM34 4h1v1h-1zM36 4h3v1h-3zM40 4h1v1h-1zM0 5h1v1h-1zM6 5h1v1h-1zM8 5h1v1h-1zM11 5h1v1h-1zM16 5h2v1h-2zM20 5h1v1h-1zM25 5h1v1h-1zM27 5h1v1h-1zM34 5h1v1h-1zM40 5h1v1h-1zM0 6h7v1h-7zM8 6h1v1h-1zM10 6h1v1h-1zM12 6h1v1h-1zM14 6h1v1h-1zM16 6h1v1h-1zM18 6h1v1h-1zM20 6h1v1h-1zM22 6h1v1h-1zM24 6h1v1h-1zM26 6h1v1h-1zM28 6h1v1h-1zM30 6h1v1h-1zM32 6h1v1h-1zM34 6h7v1h-7zM8 7h4v1h-4zM14 7h1v1h-1zM16 7h1v1h-1zM18 7h4v1h-4zM23 7h1v1h-1zM27 7h1v1h-1zM30 7h2v1h-2zM0 8h1v1h-1zM2 8h5v1h-5zM10 8h1v1h-1zM12 8h2v1h-2zM15 8h1v1h-1zM17 8h1v1h-1zM19 8h1v1h-1zM22 8h2v1h-2zM25 8h5v1h-5zM32 8h1v1h-1zM34 8h5v1h-5zM2 9h2v1h-2zM5 9h1v1h-1zM16 9h4v1h-4zM21 9h1v1h-1zM23 9h1v1h-1zM26 9h1v1h-1zM30 9h7v1h-7zM38 9h3v1h-3zM4 10h3v1h-3zM12 10h1v1h-1zM16 10h2v1h-2zM21 10h1v1h-1zM24 10h2v1h-2zM27 10h1v1h-1zM30 10h1v1h-1zM32 10h3v1h-3zM3 11h3v1h-3zM8 11h5v1h-5zM18 11h5v1h-5zM28 11h1v1h-1zM30 11h3v1h-3zM36 11h2v1h-2zM40 11h1v1h-1zM0 12h1v1h-1zM3 12h1v1h-1zM5 12h4v1h-4zM12 12h1v1h-1zM14 12h1v1h-1zM17 12h1v1h-1zM19 12h1v1h-1zM21 12h2v1h-2zM24 12h2v1h-2zM29 12h4v1h-4zM35 12h1v1h-1zM37 12h2v1h-2zM40 12h1v1h-1zM2 13h1v1h-1zM4 13h2v1h-2zM9 13h1v1h-1zM16 13h2v1h-2zM19 13h2v1h-2zM23 13h1v1h-1zM25 13h1v1h-1zM28 13h1v1h-1zM32 13h7v1h-7zM40 13h1v1h-1zM1 14h1v1h-1zM3 14h1v1h-1zM6 14h2v1h-2zM10 14h1v1h-1zM14 14h2v1h-2zM17 14h1v1h-1zM20 14h1v1h-1zM22 14h1v1h-1zM25 14h1v1h-1zM27 14h4v1h-4zM32 14h2v1h-2zM35 14h1v1h-1zM37 14h2v1h-2zM3 15h1v1h-1zM5 15h1v1h-1zM8 15h2v1h-2zM11 15h1v1h-1zM13 15h1v1h-1zM15 15h1v1h-1zM19 15h4v1h-4zM24 15h1v1h-1zM26 15h2v1h-2zM30 15h3v1h-3zM34 15h1v1h-1zM36 15h2v1h-2zM39 15h2v1h-2zM0 16h2v1h-2zM4 16h1v1h-1zM6 16h2v1h-2zM9 16h1v1h-1zM11 16h2v1h-2zM15 16h1v1h-1zM19 16h2v1h-2zM23 16h1v1h-1zM25 16h2v1h-2zM28 16h1v1h-1zM31 16h1v1h-1zM33 16h1v1h-1zM35 16h1v1h-1zM37 16h2v1h-2zM40 16h1v1h-1zM0 17h1v1h-1zM3 17h3v1h-3zM8 17h4v1h-4zM13 17h2v1h-2zM16 17h4v1h-4zM21 17h3v1h-3zM25 17h1v1h-1zM28 17h2v1h-2zM31 17h2v1h-2zM34 17h4v1h-4zM39 17h2v1h-2zM0 18h1v1h-1zM3 18h4v1h-4zM8 18h2v1h-2zM12 18h1v1h-1zM14 18h2v1h-2zM17 18h1v1h-1zM21 18h1v1h-1zM25 18h4v1h-4zM36 18h1v1h-1zM39 18h1v1h-1zM0 19h2v1h-2zM4 19h2v1h-2zM12 19h2v1h-2zM15 19h2v1h-2zM19 19h1v1h-1zM21 19h3v1h-3zM26 19h1v1h-1zM28 19h1v1h-1zM32 19h2v1h-2zM36 19h2v1h-2zM2 20h1v1h-1zM6 20h1v1h-1zM8 20h2v1h-2zM11 20h1v1h-1zM14 20h1v1h-1zM16 20h1v1h-1zM18 20h1v1h-1zM22 20h3v1h-3zM26 20h1v1h-1zM28 20h2v1h-2zM32 20h1v1h-1zM37 20h1v1h-1zM40 20h1v1h-1zM0 21h2v1h-2zM3 21h1v1h-1zM9 21h2v1h-2zM12 21h1v1h-1zM15 21h2v1h-2zM18 21h7v1h-7zM31 21h1v1h-1zM34 21h4v1h-4zM39 21h2v1h-2zM1 22h2v1h-2zM5 22h3v1h-3zM10 22h3v1h-3zM15 22h1v1h-1zM17 22h2v1h-2zM20 22h2v1h-2zM26 22h3v1h-3zM32 22h1v1h-1zM37 22h2v1h-2zM0 23h3v1h-3zM7 23h1v1h-1zM9 23h4v1h-4zM14 23h1v1h-1zM16 23h1v1h-1zM19 23h1v1h-1zM21 23h2v1h-2zM28 23h1v1h-1zM31 23h2v1h-2zM35 23h3v1h-3zM1 24h1v1h-1zM3 24h4v1h-4zM9 24h1v1h-1zM11 24h2v1h-2zM14 24h2v1h-2zM17 24h1v1h-1zM22 24h1v1h-1zM24 24h3v1h-3zM29 24h1v1h-1zM31 24h1v1h-1zM35 24h1v1h-1zM37 24h1v1h-1zM39 24h2v1h-2zM0 25h3v1h-3zM4 25h1v1h-1zM8 25h2v1h-2zM11 25h2v1h-2zM16 25h1v1h-1zM18 25h3v1h-3zM23 25h1v1h-1zM25 25h2v1h-2zM30 25h2v1h-2zM33 25h5v1h-5zM39 25h2v1h-2zM0 26h2v1h-2zM6 26h5v1h-5zM12 26h1v1h-1zM14 26h2v1h-2zM20 26h2v1h-2zM25 26h3v1h-3zM29 26h2v1h-2zM32 26h1v1h-1zM35 26h1v1h-1zM0 27h3v1h-3zM8 27h5v1h-5zM14 27h1v1h-1zM16 27h1v1h-1zM18 27h6v1h-6zM26 27h2v1h-2zM30 27h4v1h-4zM36 27h2v1h-2zM39 27h1v1h-1zM1 28h1v1h-1zM3 28h1v1h-1zM5 28h2v1h-2zM8 28h1v1h-1zM11 28h7v1h-7zM19 28h1v1h-1zM21 28h5v1h-5zM29 28h3v1h-3zM35 28h1v1h-1zM37 28h2v1h-2zM40 28h1v1h-1zM0 29h1v1h-1zM4 29h1v1h-1zM10 29h6v1h-6zM18 29h6v1h-6zM26 29h1v1h-1zM28 29h2v1h-2zM31 29h6v1h-6zM39 29h2v1h-2zM0 30h1v1h-1zM5 30h2v1h-2zM10 30h1v1h-1zM17 30h2v1h-2zM20 30h1v1h-1zM24 30h6v1h-6zM32 30h4v1h-4zM0 31h1v1h-1zM4 31h1v1h-1zM7 31h5v1h-5zM14 31h1v1h-1zM16 31h1v1h-1zM18 31h1v1h-1zM21 31h1v1h-1zM23 31h1v1h-1zM32 31h4v1h-4zM37 31h1v1h-1zM0 32h1v1h-1zM2 32h1v1h-1zM4 32h1v1h-1zM6 32h2v1h-2zM10 32h2v1h-2zM13 32h2v1h-2zM16 32h2v1h-2zM19 32h2v1h-2zM23 32h5v1h-5zM32 32h5v1h-5zM38 32h1v1h-1zM8 33h1v1h-1zM12 33h2v1h-2zM17 33h3v1h-3zM21 33h3v1h-3zM28 33h1v1h-1zM31 33h2v1h-2zM36 33h5v1h-5zM0 34h7v1h-7zM9 34h1v1h-1zM11 34h3v1h-3zM17 34h1v1h-1zM21 34h2v1h-2zM24 34h1v1h-1zM27 34h2v1h-2zM31 34h2v1h-2zM34 34h1v1h-1zM36 34h3v1h-3zM0 35h1v1h-1zM6 35h1v1h-1zM8 35h2v1h-2zM11 35h1v1h-1zM13 35h1v1h-1zM15 35h1v1h-1zM17 35h2v1h-2zM21 35h1v1h-1zM26 35h1v1h-1zM28 35h1v1h-1zM31 35h2v1h-2zM36 35h2v1h-2zM40 35h1v1h-1zM0 36h1v1h-1zM2 36h3v1h-3zM6 36h1v1h-1zM8 36h1v1h-1zM10 36h5v1h-5zM16 36h1v1h-1zM22 36h2v1h-2zM25 36h3v1h-3zM29 36h1v1h-1zM32 36h5v1h-5zM40 36h1v1h-1zM0 37h1v1h-1zM2 37h3v1h-3zM6 37h1v1h-1zM8 37h1v1h-1zM10 37h1v1h-1zM15 37h1v1h-1zM17 37h2v1h-2zM20 37h2v1h-2zM23 37h2v1h-2zM31 37h1v1h-1zM33 37h1v1h-1zM35 37h1v1h-1zM37 37h4v1h-4zM0 38h1v1h-1zM2 38h3v1h-3zM6 38h1v1h-1zM8 38h2v1h-2zM11 38h1v1h-1zM13 38h6v1h-6zM20 38h1v1h-1zM22 38h1v1h-1zM24 38h4v1h-4zM29 38h2v1h-2zM33 38h6v1h-6zM0 39h1v1h-1zM6 39h1v1h-1zM10 39h2v1h-2zM16 39h1v1h-1zM18 39h5v1h-5zM24 39h1v1h-1zM26 39h1v1h-1zM28 39h1v1h-1zM32 39h2v1h-2zM36 39h2v1h-2zM39 39h1v1h-1zM0 40h7v1h-7zM8 40h4v1h-4zM19 40h1v1h-1zM22 40h1v1h-1zM24 40h4v1h-4zM29 40h1v1h-1zM34 40h4v1h-4z"/>
  </g>
</g>
<text x="1122" y="614" font-family="Inter,Helvetica,Arial,sans-serif" font-size="10" font-weight="700" fill="#F5F7FA" text-anchor="middle">scan / full post</text>
</svg>