<svg xmlns="http://www.w3.org/2000/svg" viewBox="0 0 1200 630" width="1200" height="630" role="img" aria-label="North Korea IT workers $300M revenue sanctioned, Cisco FMC zero-day CVE-2026-1287 CVSS 9.8, Telnetd RCE root shell">
<title>Weekly digest 2026-03-19: NK IT workers (12 countries), Cisco FMC CVE-2026-1287, Telnetd root RCE</title>
<defs>
<linearGradient id="bgSpreadE" x1="0%" y1="0%" x2="100%" y2="100%"><stop offset="0%" stop-color="#0A1226"/><stop offset="50%" stop-color="#0C1430"/><stop offset="100%" stop-color="#131038"/></linearGradient>
<linearGradient id="bandAE" x1="0%" y1="0%" x2="100%" y2="0%"><stop offset="0%" stop-color="#1A0E2E"/><stop offset="100%" stop-color="#24122F"/></linearGradient>
<linearGradient id="bandBE" x1="0%" y1="0%" x2="100%" y2="0%"><stop offset="0%" stop-color="#2A1A0C"/><stop offset="100%" stop-color="#1E1F0A"/></linearGradient>
<linearGradient id="bandCE" x1="0%" y1="0%" x2="100%" y2="0%"><stop offset="0%" stop-color="#0E2038"/><stop offset="100%" stop-color="#12283F"/></linearGradient>
<filter id="softShadow" x="-10%" y="-10%" width="130%" height="130%"><feGaussianBlur in="SourceAlpha" stdDeviation="2.5"/><feOffset dx="1" dy="3"/><feComponentTransfer><feFuncA type="linear" slope="0.55"/></feComponentTransfer><feMerge><feMergeNode/><feMergeNode in="SourceGraphic"/></feMerge></filter>
<filter id="textShadow" x="-5%" y="-5%" width="110%" height="110%"><feGaussianBlur in="SourceAlpha" stdDeviation="1.2"/><feOffset dx="0" dy="1.5"/><feComponentTransfer><feFuncA type="linear" slope="0.85"/></feComponentTransfer><feMerge><feMergeNode/><feMergeNode in="SourceGraphic"/></feMerge></filter>
<pattern id="ledgerGrid" x="0" y="0" width="40" height="20" patternUnits="userSpaceOnUse"><path d="M0 20 L40 20" stroke="#2A3A56" stroke-width="0.4" opacity="0.5"/><path d="M40 0 L40 20" stroke="#2A3A56" stroke-width="0.4" opacity="0.5"/></pattern>
<pattern id="circuitDot" x="0" y="0" width="18" height="18" patternUnits="userSpaceOnUse"><circle cx="9" cy="9" r="0.8" fill="#3A2A4E" opacity="0.55"/></pattern>
</defs>
<rect width="1200" height="630" fill="url(#bgSpreadE)"/>
<g>
  <rect x="0" y="0" width="1200" height="210" fill="url(#bandAE)"/>
  <rect x="0" y="0" width="1200" height="210" fill="url(#circuitDot)" opacity="0.6"/>
  <rect x="0" y="0" width="8" height="210" fill="#E63946"/>
  <g filter="url(#textShadow)">
    <text x="30" y="44" font-family="Inter, Helvetica, Arial, sans-serif" font-size="18" font-weight="700" letter-spacing="2.4" fill="#F87171">NATION STATE THREAT</text>
    <text x="30" y="86" font-family="Inter, Helvetica, Arial, sans-serif" font-size="36" font-weight="800" fill="#F5F7FA">North Korea IT Workers</text>
    <text x="30" y="118" font-family="Inter, Helvetica, Arial, sans-serif" font-size="20" font-weight="600" fill="#FBB6BD">$300M revenue : 12 countries</text>
    <text x="30" y="146" font-family="Inter, Helvetica, Arial, sans-serif" font-size="15" font-weight="500" fill="#D9C9CE">OFAC sanction : IT front companies : crypto laundering : Lazarus frontend</text>
  </g>
  <g transform="translate(500,105)">
    <circle r="60" fill="#E63946" fill-opacity="0.08"><animate attributeName="r" values="50;70;50" dur="3s" repeatCount="indefinite"/></circle>
    <circle r="22" fill="#E63946" stroke="#FCA5A5" stroke-width="2" filter="url(#softShadow)"/>
    <text y="4" text-anchor="middle" font-family="Inter, monospace" font-size="11" font-weight="800" fill="#FFF">NK</text>
    <g stroke="#E63946" stroke-width="1" stroke-dasharray="2 3" fill="none" opacity="0.55">
      <line x1="0" y1="0" x2="70" y2="-45"/><line x1="0" y1="0" x2="85" y2="0"/><line x1="0" y1="0" x2="70" y2="45"/>
      <line x1="0" y1="0" x2="-70" y2="-45"/><line x1="0" y1="0" x2="-85" y2="0"/><line x1="0" y1="0" x2="-70" y2="45"/>
      <line x1="0" y1="0" x2="40" y2="-70"/><line x1="0" y1="0" x2="-40" y2="-70"/>
    </g>
    <g fill="#FCA5A5">
      <circle cx="70" cy="-45" r="4"><animate attributeName="opacity" values="0.3;1;0.3" dur="1.8s" repeatCount="indefinite"/></circle>
      <circle cx="85" cy="0" r="4"><animate attributeName="opacity" values="0.3;1;0.3" dur="2.1s" repeatCount="indefinite"/></circle>
      <circle cx="70" cy="45" r="4"><animate attributeName="opacity" values="0.3;1;0.3" dur="2.4s" repeatCount="indefinite"/></circle>
      <circle cx="-70" cy="-45" r="4"><animate attributeName="opacity" values="0.3;1;0.3" dur="1.9s" repeatCount="indefinite"/></circle>
      <circle cx="-85" cy="0" r="4"><animate attributeName="opacity" values="0.3;1;0.3" dur="2.3s" repeatCount="indefinite"/></circle>
      <circle cx="-70" cy="45" r="4"><animate attributeName="opacity" values="0.3;1;0.3" dur="2.0s" repeatCount="indefinite"/></circle>
      <circle cx="40" cy="-70" r="4"><animate attributeName="opacity" values="0.3;1;0.3" dur="2.5s" repeatCount="indefinite"/></circle>
      <circle cx="-40" cy="-70" r="4"><animate attributeName="opacity" values="0.3;1;0.3" dur="1.7s" repeatCount="indefinite"/></circle>
    </g>
    <g fill="#FFF">
      <circle r="1.6"><animateMotion path="M0 0 L70 -45" dur="1.9s" repeatCount="indefinite"/></circle>
      <circle r="1.6"><animateMotion path="M0 0 L85 0" dur="2.1s" repeatCount="indefinite"/></circle>
      <circle r="1.6"><animateMotion path="M0 0 L-70 -45" dur="2.0s" repeatCount="indefinite"/></circle>
      <circle r="1.6"><animateMotion path="M0 0 L-85 0" dur="2.3s" repeatCount="indefinite"/></circle>
    </g>
  </g>
  <g transform="translate(990,105)" filter="url(#softShadow)">
    <rect x="-80" y="-65" width="180" height="125" rx="14" fill="#1E0A14" stroke="#E63946" stroke-width="2.2"/>
    <text x="10" y="-30" text-anchor="middle" font-family="Inter, Helvetica, Arial, sans-serif" font-size="13" font-weight="700" letter-spacing="2" fill="#F87171">USD</text>
    <text x="10" y="28" text-anchor="middle" font-family="Inter, Helvetica, Arial, sans-serif" font-size="60" font-weight="900" fill="#F5F7FA">300M</text>
    <text x="10" y="52" text-anchor="middle" font-family="Inter, Helvetica, Arial, sans-serif" font-size="12" font-weight="600" fill="#FBB6BD">annual revenue</text>
  </g>
  <g transform="translate(990,105)"><circle cx="10" cy="-50" r="3" fill="#E63946"><animate attributeName="opacity" values="0.2;1;0.2" dur="1.8s" repeatCount="indefinite"/></circle></g>
</g>
<g>
  <rect x="0" y="210" width="1200" height="210" fill="url(#bandBE)"/>
  <rect x="0" y="210" width="1200" height="210" fill="url(#ledgerGrid)" opacity="0.6"/>
  <rect x="0" y="210" width="8" height="210" fill="#FFB703"/>
  <g filter="url(#textShadow)">
    <text x="30" y="254" font-family="Inter, Helvetica, Arial, sans-serif" font-size="18" font-weight="700" letter-spacing="2.4" fill="#FFB703">CRITICAL INFRASTRUCTURE</text>
    <text x="30" y="296" font-family="Inter, Helvetica, Arial, sans-serif" font-size="36" font-weight="800" fill="#F5F7FA">Cisco FMC Zero-Day</text>
    <text x="30" y="328" font-family="Inter, Helvetica, Arial, sans-serif" font-size="20" font-weight="600" fill="#FFD58A">CVE-2026-1287 : CVSS 9.8</text>
    <text x="30" y="356" font-family="Inter, Helvetica, Arial, sans-serif" font-size="15" font-weight="500" fill="#E0D5B6">Firepower Management Center : unauthenticated RCE : no patch available : mitigation posted</text>
  </g>
  <g transform="translate(500,315)">
    <path d="M-22 -20 Q-22 -50 0 -50 Q22 -50 22 -20" stroke="#FFB703" stroke-width="4" fill="none"/>
    <rect x="-32" y="-22" width="64" height="60" rx="6" fill="#FFB703" fill-opacity="0.2" stroke="#FFB703" stroke-width="2.2" filter="url(#softShadow)"/>
    <circle r="5" fill="#FCD34D" cy="2"/>
    <rect x="-3" y="2" width="6" height="18" fill="#FCD34D"/>
    <text y="60" text-anchor="middle" font-family="Inter, monospace" font-size="14" font-weight="900" fill="#FFB703">CVSS 9.8</text>
    <g fill="#FCD34D" opacity="0.7">
      <circle cx="-45" cy="-35" r="2"><animate attributeName="opacity" values="0.2;1;0.2" dur="1.8s" repeatCount="indefinite"/></circle>
      <circle cx="45" cy="-35" r="2"><animate attributeName="opacity" values="0.2;1;0.2" dur="2.1s" repeatCount="indefinite"/></circle>
      <circle cx="-45" cy="35" r="2"><animate attributeName="opacity" values="0.2;1;0.2" dur="2.3s" repeatCount="indefinite"/></circle>
      <circle cx="45" cy="35" r="2"><animate attributeName="opacity" values="0.2;1;0.2" dur="1.9s" repeatCount="indefinite"/></circle>
    </g>
  </g>
  <g transform="translate(990,315)" filter="url(#softShadow)">
    <rect x="-80" y="-65" width="180" height="125" rx="14" fill="#1E1805" stroke="#FFB703" stroke-width="2.2"/>
    <text x="10" y="-30" text-anchor="middle" font-family="Inter, Helvetica, Arial, sans-serif" font-size="13" font-weight="700" letter-spacing="2" fill="#FFB703">CVSS</text>
    <text x="10" y="28" text-anchor="middle" font-family="Inter, Helvetica, Arial, sans-serif" font-size="72" font-weight="900" fill="#F5F7FA">9.8</text>
    <text x="10" y="52" text-anchor="middle" font-family="Inter, Helvetica, Arial, sans-serif" font-size="12" font-weight="600" fill="#FFD58A">critical</text>
  </g>
  <g transform="translate(990,315)"><circle cx="10" cy="-50" r="3" fill="#FFB703"><animate attributeName="opacity" values="0.2;1;0.2" dur="1.8s" repeatCount="indefinite"/></circle></g>
</g>
<g>
  <rect x="0" y="420" width="1200" height="210" fill="url(#bandCE)"/>
  <rect x="0" y="420" width="1200" height="210" fill="url(#ledgerGrid)" opacity="0.6"/>
  <rect x="0" y="420" width="8" height="210" fill="#4ADE80"/>
  <g filter="url(#textShadow)">
    <text x="30" y="464" font-family="Inter, Helvetica, Arial, sans-serif" font-size="18" font-weight="700" letter-spacing="2.4" fill="#4ADE80">PATCH TUESDAY</text>
    <text x="30" y="506" font-family="Inter, Helvetica, Arial, sans-serif" font-size="36" font-weight="800" fill="#F5F7FA">Telnetd Root RCE</text>
    <text x="30" y="538" font-family="Inter, Helvetica, Arial, sans-serif" font-size="20" font-weight="600" fill="#9FD3B0">23 vendors patched</text>
    <text x="30" y="566" font-family="Inter, Helvetica, Arial, sans-serif" font-size="15" font-weight="500" fill="#BFC9D9">Root shell via crafted packet : BusyBox telnetd : IoT/OT scope : CERT advisory</text>
  </g>
  <g transform="translate(500,525)">
    <path d="M0 -60 L55 -40 L50 25 Q40 55 0 65 Q-40 55 -50 25 L-55 -40 Z" fill="#4ADE80" fill-opacity="0.15" stroke="#4ADE80" stroke-width="2.4" filter="url(#softShadow)"/>
    <path d="M0 -50 L45 -33 L40 22 Q32 46 0 55 Q-32 46 -40 22 L-45 -33 Z" fill="none" stroke="#86EFAC" stroke-width="1" opacity="0.7"/>
    <g transform="translate(0,-5)" stroke="#86EFAC" stroke-width="3" fill="none">
      <path d="M-18 5 L-4 20 L22 -12"><animate attributeName="stroke-dasharray" values="0 80;80 0" dur="2.4s" repeatCount="indefinite"/></path>
    </g>
    <text y="44" text-anchor="middle" font-family="Inter, monospace" font-size="10" font-weight="800" fill="#4ADE80">PATCH</text>
  </g>
  <g transform="translate(990,525)" filter="url(#softShadow)">
    <rect x="-80" y="-65" width="180" height="125" rx="14" fill="#0A1B2E" stroke="#4ADE80" stroke-width="2.2"/>
    <text x="10" y="-30" text-anchor="middle" font-family="Inter, Helvetica, Arial, sans-serif" font-size="13" font-weight="700" letter-spacing="2" fill="#4ADE80">VENDORS</text>
    <text x="10" y="28" text-anchor="middle" font-family="Inter, Helvetica, Arial, sans-serif" font-size="72" font-weight="900" fill="#F5F7FA">23</text>
    <text x="10" y="52" text-anchor="middle" font-family="Inter, Helvetica, Arial, sans-serif" font-size="12" font-weight="600" fill="#9FD3B0">patched</text>
  </g>
  <g transform="translate(990,525)"><circle cx="10" cy="-50" r="3" fill="#4ADE80"><animate attributeName="opacity" values="0.2;1;0.2" dur="1.8s" repeatCount="indefinite"/></circle></g>
</g>
<g opacity="0.9">
  <g fill="#E63946">
    <circle cx="240" cy="168" r="1.5"><animate attributeName="opacity" values="0;1;0" dur="1.8s" repeatCount="indefinite"/></circle>
    <circle cx="310" cy="168" r="1.5"><animate attributeName="opacity" values="0;1;0" dur="1.6s" begin="0.2s" repeatCount="indefinite"/></circle>
    <circle cx="380" cy="168" r="1.5"><animate attributeName="opacity" values="0;1;0" dur="2.0s" begin="0.4s" repeatCount="indefinite"/></circle>
    <circle cx="820" cy="168" r="1.5"><animate attributeName="opacity" values="0;1;0" dur="1.9s" repeatCount="indefinite"/></circle>
    <circle cx="880" cy="168" r="1.5"><animate attributeName="opacity" values="0;1;0" dur="2.1s" begin="0.3s" repeatCount="indefinite"/></circle>
  </g>
  <g fill="#E63946" opacity="0.6">
    <rect x="780" y="30" width="6" height="2"><animate attributeName="opacity" values="0.2;1;0.2" dur="1.4s" repeatCount="indefinite"/></rect>
    <rect x="800" y="30" width="6" height="2"><animate attributeName="opacity" values="0.2;1;0.2" dur="1.2s" begin="0.3s" repeatCount="indefinite"/></rect>
    <rect x="820" y="30" width="6" height="2"><animate attributeName="opacity" values="0.2;1;0.2" dur="1.6s" begin="0.6s" repeatCount="indefinite"/></rect>
  </g>
  <g fill="#FFB703">
    <circle cx="560" cy="260" r="1.2"><animate attributeName="opacity" values="0;1;0" dur="1.8s" repeatCount="indefinite"/></circle>
    <circle cx="580" cy="265" r="1.2"><animate attributeName="opacity" values="0;1;0" dur="1.6s" begin="0.2s" repeatCount="indefinite"/></circle>
    <circle cx="600" cy="268" r="1.2"><animate attributeName="opacity" values="0;1;0" dur="2.0s" begin="0.4s" repeatCount="indefinite"/></circle>
    <circle cx="620" cy="272" r="1.2"><animate attributeName="opacity" values="0;1;0" dur="1.7s" begin="0.6s" repeatCount="indefinite"/></circle>
    <circle cx="640" cy="268" r="1.2"><animate attributeName="opacity" values="0;1;0" dur="1.9s" begin="0.8s" repeatCount="indefinite"/></circle>
    <circle cx="560" cy="370" r="1.2"><animate attributeName="opacity" values="0;1;0" dur="1.8s" repeatCount="indefinite"/></circle>
    <circle cx="580" cy="375" r="1.2"><animate attributeName="opacity" values="0;1;0" dur="1.6s" begin="0.2s" repeatCount="indefinite"/></circle>
    <circle cx="600" cy="378" r="1.2"><animate attributeName="opacity" values="0;1;0" dur="2.0s" begin="0.4s" repeatCount="indefinite"/></circle>
  </g>
  <g fill="#4ADE80">
    <circle cx="260" cy="442" r="1.5"><animate attributeName="opacity" values="0;1;0" dur="1.5s" repeatCount="indefinite"/></circle>
    <circle cx="330" cy="442" r="1.5"><animate attributeName="opacity" values="0;1;0" dur="1.7s" begin="0.2s" repeatCount="indefinite"/></circle>
    <circle cx="400" cy="442" r="1.5"><animate attributeName="opacity" values="0;1;0" dur="1.9s" begin="0.4s" repeatCount="indefinite"/></circle>
    <circle cx="470" cy="442" r="1.5"><animate attributeName="opacity" values="0;1;0" dur="1.6s" begin="0.6s" repeatCount="indefinite"/></circle>
  </g>
  <g fill="#9FD3B0" opacity="0.9">
    <rect x="770" y="440" width="4" height="4" rx="1"><animate attributeName="opacity" values="0.3;1;0.3" dur="1.4s" repeatCount="indefinite"/></rect>
    <rect x="790" y="440" width="4" height="4" rx="1"><animate attributeName="opacity" values="0.3;1;0.3" dur="1.2s" begin="0.3s" repeatCount="indefinite"/></rect>
    <rect x="810" y="440" width="4" height="4" rx="1"><animate attributeName="opacity" values="0.3;1;0.3" dur="1.6s" begin="0.6s" repeatCount="indefinite"/></rect>
    <rect x="830" y="440" width="4" height="4" rx="1"><animate attributeName="opacity" values="0.3;1;0.3" dur="1.3s" begin="0.9s" repeatCount="indefinite"/></rect>
  </g>
  <g stroke="#E63946" stroke-width="0.5" stroke-opacity="0.35" fill="none">
    <path d="M20 95 L28 95"><animate attributeName="stroke-opacity" values="0;0.7;0" dur="2s" repeatCount="indefinite"/></path>
    <path d="M20 125 L28 125"><animate attributeName="stroke-opacity" values="0;0.7;0" dur="2.2s" begin="0.3s" repeatCount="indefinite"/></path>
  </g>
  <g stroke="#FFB703" stroke-width="0.5" stroke-opacity="0.35" fill="none">
    <path d="M20 305 L28 305"><animate attributeName="stroke-opacity" values="0;0.7;0" dur="2s" repeatCount="indefinite"/></path>
    <path d="M20 335 L28 335"><animate attributeName="stroke-opacity" values="0;0.7;0" dur="2.2s" begin="0.3s" repeatCount="indefinite"/></path>
  </g>
  <g stroke="#4ADE80" stroke-width="0.5" stroke-opacity="0.35" fill="none">
    <path d="M20 515 L28 515"><animate attributeName="stroke-opacity" values="0;0.7;0" dur="2s" repeatCount="indefinite"/></path>
    <path d="M20 545 L28 545"><animate attributeName="stroke-opacity" values="0;0.7;0" dur="2.2s" begin="0.3s" repeatCount="indefinite"/></path>
  </g>
</g>
<g transform="translate(1080,504)" filter="url(#softShadow)">
  <rect x="-8" y="-8" width="100" height="100" rx="6" fill="#FFFFFF"/>
  <path fill="#0A1020" d="M0.0 0.0h14.341v2.049h-14.341z M24.585 0.0h4.098v2.049h-4.098z M32.78 0.0h8.195v2.049h-8.195z M43.024 0.0h2.049v2.049h-2.049z M47.122 0.0h4.098v2.049h-4.098z M57.366 0.0h10.244v2.049h-10.244z M69.659 0.0h14.341v2.049h-14.341z M0.0 2.049h2.049v2.049h-2.049z M12.293 2.049h2.049v2.049h-2.049z M18.439 2.049h2.049v2.049h-2.049z M24.585 2.049h2.049v2.049h-2.049z M28.683 2.049h2.049v2.049h-2.049z M34.829 2.049h2.049v2.049h-2.049z M40.976 2.049h4.098v2.049h-4.098z M49.171 2.049h2.049v2.049h-2.049z M55.317 2.049h2.049v2.049h-2.049z M59.415 2.049h2.049v2.049h-2.049z M65.561 2.049h2.049v2.049h-2.049z M69.659 2.049h2.049v2.049h-2.049z M81.951 2.049h2.049v2.049h-2.049z M0.0 4.098h2.049v2.049h-2.049z M4.098 4.098h6.146v2.049h-6.146z M12.293 4.098h2.049v2.049h-2.049z M16.39 4.098h2.049v2.049h-2.049z M20.488 4.098h2.049v2.049h-2.049z M24.585 4.098h6.146v2.049h-6.146z M32.78 4.098h14.341v2.049h-14.341z M53.268 4.098h6.146v2.049h-6.146z M61.463 4.098h2.049v2.049h-2.049z M65.561 4.098h2.049v2.049h-2.049z M69.659 4.098h2.049v2.049h-2.049z M73.756 4.098h6.146v2.049h-6.146z M81.951 4.098h2.049v2.049h-2.049z M0.0 6.146h2.049v2.049h-2.049z M4.098 6.146h6.146v2.049h-6.146z M12.293 6.146h2.049v2.049h-2.049z M16.39 6.146h4.098v2.049h-4.098z M24.585 6.146h4.098v2.049h-4.098z M32.78 6.146h2.049v2.049h-2.049z M38.927 6.146h4.098v2.049h-4.098z M45.073 6.146h2.049v2.049h-2.049z M51.22 6.146h10.244v2.049h-10.244z M65.561 6.146h2.049v2.049h-2.049z M69.659 6.146h2.049v2.049h-2.049z M73.756 6.146h6.146v2.049h-6.146z M81.951 6.146h2.049v2.049h-2.049z M0.0 8.195h2.049v2.049h-2.049z M4.098 8.195h6.146v2.049h-6.146z M12.293 8.195h2.049v2.049h-2.049z M16.39 8.195h6.146v2.049h-6.146z M26.634 8.195h2.049v2.049h-2.049z M32.78 8.195h6.146v2.049h-6.146z M40.976 8.195h6.146v2.049h-6.146z M53.268 8.195h2.049v2.049h-2.049z M63.512 8.195h2.049v2.049h-2.049z M69.659 8.195h2.049v2.049h-2.049z M73.756 8.195h6.146v2.049h-6.146z M81.951 8.195h2.049v2.049h-2.049z M0.0 10.244h2.049v2.049h-2.049z M12.293 10.244h2.049v2.049h-2.049z M16.39 10.244h2.049v2.049h-2.049z M22.537 10.244h2.049v2.049h-2.049z M28.683 10.244h2.049v2.049h-2.049z M34.829 10.244h2.049v2.049h-2.049z M40.976 10.244h2.049v2.049h-2.049z M51.22 10.244h2.049v2.049h-2.049z M55.317 10.244h2.049v2.049h-2.049z M69.659 10.244h2.049v2.049h-2.049z M81.951 10.244h2.049v2.049h-2.049z M0.0 12.293h14.341v2.049h-14.341z M16.39 12.293h2.049v2.049h-2.049z M20.488 12.293h2.049v2.049h-2.049z M24.585 12.293h2.049v2.049h-2.049z M28.683 12.293h2.049v2.049h-2.049z M32.78 12.293h2.049v2.049h-2.049z M36.878 12.293h2.049v2.049h-2.049z M40.976 12.293h2.049v2.049h-2.049z M45.073 12.293h2.049v2.049h-2.049z M49.171 12.293h2.049v2.049h-2.049z M53.268 12.293h2.049v2.049h-2.049z M57.366 12.293h2.049v2.049h-2.049z M61.463 12.293h2.049v2.049h-2.049z M65.561 12.293h2.049v2.049h-2.049z M69.659 12.293h14.341v2.049h-14.341z M16.39 14.341h4.098v2.049h-4.098z M24.585 14.341h2.049v2.049h-2.049z M28.683 14.341h2.049v2.049h-2.049z M32.78 14.341h2.049v2.049h-2.049z M36.878 14.341h2.049v2.049h-2.049z M40.976 14.341h4.098v2.049h-4.098z M47.122 14.341h2.049v2.049h-2.049z M55.317 14.341h2.049v2.049h-2.049z M61.463 14.341h4.098v2.049h-4.098z M0.0 16.39h2.049v2.049h-2.049z M4.098 16.39h10.244v2.049h-10.244z M20.488 16.39h4.098v2.049h-4.098z M28.683 16.39h4.098v2.049h-4.098z M34.829 16.39h2.049v2.049h-2.049z M38.927 16.39h2.049v2.049h-2.049z M45.073 16.39h4.098v2.049h-4.098z M51.22 16.39h10.244v2.049h-10.244z M65.561 16.39h2.049v2.049h-2.049z M69.659 16.39h10.244v2.049h-10.244z M2.049 18.439h4.098v2.049h-4.098z M10.244 18.439h2.049v2.049h-2.049z M16.39 18.439h6.146v2.049h-6.146z M28.683 18.439h2.049v2.049h-2.049z M32.78 18.439h2.049v2.049h-2.049z M36.878 18.439h4.098v2.049h-4.098z M43.024 18.439h2.049v2.049h-2.049z M47.122 18.439h2.049v2.049h-2.049z M53.268 18.439h2.049v2.049h-2.049z M61.463 18.439h10.244v2.049h-10.244z M73.756 18.439h2.049v2.049h-2.049z M77.854 18.439h6.146v2.049h-6.146z M0.0 20.488h2.049v2.049h-2.049z M4.098 20.488h2.049v2.049h-2.049z M8.195 20.488h2.049v2.049h-2.049z M12.293 20.488h2.049v2.049h-2.049z M22.537 20.488h4.098v2.049h-4.098z M28.683 20.488h2.049v2.049h-2.049z M34.829 20.488h4.098v2.049h-4.098z M43.024 20.488h4.098v2.049h-4.098z M49.171 20.488h4.098v2.049h-4.098z M55.317 20.488h2.049v2.049h-2.049z M61.463 20.488h2.049v2.049h-2.049z M65.561 20.488h2.049v2.049h-2.049z M71.707 20.488h4.098v2.049h-4.098z M79.902 20.488h2.049v2.049h-2.049z M2.049 22.537h4.098v2.049h-4.098z M8.195 22.537h4.098v2.049h-4.098z M22.537 22.537h2.049v2.049h-2.049z M26.634 22.537h4.098v2.049h-4.098z M38.927 22.537h6.146v2.049h-6.146z M53.268 22.537h2.049v2.049h-2.049z M57.366 22.537h2.049v2.049h-2.049z M61.463 22.537h6.146v2.049h-6.146z M75.805 22.537h2.049v2.049h-2.049z M0.0 24.585h4.098v2.049h-4.098z M6.146 24.585h2.049v2.049h-2.049z M10.244 24.585h6.146v2.049h-6.146z M18.439 24.585h8.195v2.049h-8.195z M30.732 24.585h2.049v2.049h-2.049z M34.829 24.585h2.049v2.049h-2.049z M38.927 24.585h2.049v2.049h-2.049z M45.073 24.585h2.049v2.049h-2.049z M49.171 24.585h4.098v2.049h-4.098z M59.415 24.585h6.146v2.049h-6.146z M67.61 24.585h2.049v2.049h-2.049z M71.707 24.585h2.049v2.049h-2.049z M75.805 24.585h8.195v2.049h-8.195z M2.049 26.634h2.049v2.049h-2.049z M14.341 26.634h6.146v2.049h-6.146z M22.537 26.634h16.39v2.049h-16.39z M47.122 26.634h2.049v2.049h-2.049z M51.22 26.634h2.049v2.049h-2.049z M57.366 26.634h4.098v2.049h-4.098z M63.512 26.634h16.39v2.049h-16.39z M81.951 26.634h2.049v2.049h-2.049z M2.049 28.683h2.049v2.049h-2.049z M10.244 28.683h4.098v2.049h-4.098z M22.537 28.683h2.049v2.049h-2.049z M26.634 28.683h4.098v2.049h-4.098z M40.976 28.683h6.146v2.049h-6.146z M49.171 28.683h2.049v2.049h-2.049z M55.317 28.683h8.195v2.049h-8.195z M65.561 28.683h4.098v2.049h-4.098z M71.707 28.683h2.049v2.049h-2.049z M75.805 28.683h4.098v2.049h-4.098z M4.098 30.732h2.049v2.049h-2.049z M8.195 30.732h2.049v2.049h-2.049z M14.341 30.732h4.098v2.049h-4.098z M22.537 30.732h2.049v2.049h-2.049z M28.683 30.732h4.098v2.049h-4.098z M38.927 30.732h8.195v2.049h-8.195z M49.171 30.732h2.049v2.049h-2.049z M53.268 30.732h2.049v2.049h-2.049z M57.366 30.732h2.049v2.049h-2.049z M69.659 30.732h2.049v2.049h-2.049z M73.756 30.732h4.098v2.049h-4.098z M8.195 32.78h6.146v2.049h-6.146z M18.439 32.78h2.049v2.049h-2.049z M24.585 32.78h10.244v2.049h-10.244z M38.927 32.78h2.049v2.049h-2.049z M43.024 32.78h4.098v2.049h-4.098z M51.22 32.78h6.146v2.049h-6.146z M59.415 32.78h2.049v2.049h-2.049z M67.61 32.78h2.049v2.049h-2.049z M71.707 32.78h2.049v2.049h-2.049z M75.805 32.78h4.098v2.049h-4.098z M2.049 34.829h6.146v2.049h-6.146z M10.244 34.829h2.049v2.049h-2.049z M14.341 34.829h2.049v2.049h-2.049z M20.488 34.829h12.293v2.049h-12.293z M36.878 34.829h12.293v2.049h-12.293z M55.317 34.829h4.098v2.049h-4.098z M61.463 34.829h6.146v2.049h-6.146z M69.659 34.829h6.146v2.049h-6.146z M79.902 34.829h4.098v2.049h-4.098z M0.0 36.878h2.049v2.049h-2.049z M4.098 36.878h2.049v2.049h-2.049z M8.195 36.878h6.146v2.049h-6.146z M16.39 36.878h2.049v2.049h-2.049z M20.488 36.878h2.049v2.049h-2.049z M24.585 36.878h2.049v2.049h-2.049z M28.683 36.878h2.049v2.049h-2.049z M36.878 36.878h2.049v2.049h-2.049z M43.024 36.878h4.098v2.049h-4.098z M51.22 36.878h2.049v2.049h-2.049z M55.317 36.878h8.195v2.049h-8.195z M65.561 36.878h2.049v2.049h-2.049z M73.756 36.878h2.049v2.049h-2.049z M77.854 36.878h4.098v2.049h-4.098z M0.0 38.927h6.146v2.049h-6.146z M14.341 38.927h2.049v2.049h-2.049z M18.439 38.927h4.098v2.049h-4.098z M32.78 38.927h2.049v2.049h-2.049z M38.927 38.927h2.049v2.049h-2.049z M43.024 38.927h2.049v2.049h-2.049z M47.122 38.927h4.098v2.049h-4.098z M55.317 38.927h4.098v2.049h-4.098z M65.561 38.927h4.098v2.049h-4.098z M73.756 38.927h4.098v2.049h-4.098z M2.049 40.976h4.098v2.049h-4.098z M10.244 40.976h6.146v2.049h-6.146z M20.488 40.976h4.098v2.049h-4.098z M26.634 40.976h4.098v2.049h-4.098z M32.78 40.976h2.049v2.049h-2.049z M36.878 40.976h2.049v2.049h-2.049z M45.073 40.976h2.049v2.049h-2.049z M49.171 40.976h6.146v2.049h-6.146z M57.366 40.976h4.098v2.049h-4.098z M65.561 40.976h2.049v2.049h-2.049z M73.756 40.976h2.049v2.049h-2.049z M77.854 40.976h2.049v2.049h-2.049z M81.951 40.976h2.049v2.049h-2.049z M0.0 43.024h2.049v2.049h-2.049z M6.146 43.024h6.146v2.049h-6.146z M14.341 43.024h2.049v2.049h-2.049z M18.439 43.024h2.049v2.049h-2.049z M22.537 43.024h4.098v2.049h-4.098z M28.683 43.024h2.049v2.049h-2.049z M38.927 43.024h2.049v2.049h-2.049z M43.024 43.024h2.049v2.049h-2.049z M47.122 43.024h4.098v2.049h-4.098z M61.463 43.024h4.098v2.049h-4.098z M69.659 43.024h14.341v2.049h-14.341z M0.0 45.073h6.146v2.049h-6.146z M8.195 45.073h6.146v2.049h-6.146z M18.439 45.073h10.244v2.049h-10.244z M30.732 45.073h8.195v2.049h-8.195z M43.024 45.073h2.049v2.049h-2.049z M53.268 45.073h6.146v2.049h-6.146z M65.561 45.073h2.049v2.049h-2.049z M69.659 45.073h2.049v2.049h-2.049z M75.805 45.073h2.049v2.049h-2.049z M2.049 47.122h4.098v2.049h-4.098z M10.244 47.122h2.049v2.049h-2.049z M18.439 47.122h4.098v2.049h-4.098z M26.634 47.122h2.049v2.049h-2.049z M43.024 47.122h4.098v2.049h-4.098z M49.171 47.122h2.049v2.049h-2.049z M57.366 47.122h2.049v2.049h-2.049z M63.512 47.122h4.098v2.049h-4.098z M71.707 47.122h6.146v2.049h-6.146z M81.951 47.122h2.049v2.049h-2.049z M0.0 49.171h8.195v2.049h-8.195z M12.293 49.171h2.049v2.049h-2.049z M16.39 49.171h2.049v2.049h-2.049z M20.488 49.171h2.049v2.049h-2.049z M26.634 49.171h6.146v2.049h-6.146z M34.829 49.171h2.049v2.049h-2.049z M38.927 49.171h2.049v2.049h-2.049z M45.073 49.171h10.244v2.049h-10.244z M59.415 49.171h2.049v2.049h-2.049z M63.512 49.171h2.049v2.049h-2.049z M71.707 49.171h2.049v2.049h-2.049z M0.0 51.22h4.098v2.049h-4.098z M6.146 51.22h2.049v2.049h-2.049z M10.244 51.22h2.049v2.049h-2.049z M16.39 51.22h4.098v2.049h-4.098z M22.537 51.22h2.049v2.049h-2.049z M26.634 51.22h2.049v2.049h-2.049z M36.878 51.22h8.195v2.049h-8.195z M47.122 51.22h2.049v2.049h-2.049z M51.22 51.22h4.098v2.049h-4.098z M61.463 51.22h4.098v2.049h-4.098z M71.707 51.22h6.146v2.049h-6.146z M81.951 51.22h2.049v2.049h-2.049z M2.049 53.268h2.049v2.049h-2.049z M6.146 53.268h2.049v2.049h-2.049z M12.293 53.268h2.049v2.049h-2.049z M16.39 53.268h2.049v2.049h-2.049z M20.488 53.268h4.098v2.049h-4.098z M26.634 53.268h6.146v2.049h-6.146z M40.976 53.268h6.146v2.049h-6.146z M51.22 53.268h6.146v2.049h-6.146z M59.415 53.268h4.098v2.049h-4.098z M65.561 53.268h2.049v2.049h-2.049z M69.659 53.268h2.049v2.049h-2.049z M73.756 53.268h2.049v2.049h-2.049z M2.049 55.317h2.049v2.049h-2.049z M14.341 55.317h6.146v2.049h-6.146z M26.634 55.317h2.049v2.049h-2.049z M32.78 55.317h2.049v2.049h-2.049z M38.927 55.317h10.244v2.049h-10.244z M53.268 55.317h4.098v2.049h-4.098z M61.463 55.317h6.146v2.049h-6.146z M71.707 55.317h6.146v2.049h-6.146z M0.0 57.366h2.049v2.049h-2.049z M4.098 57.366h6.146v2.049h-6.146z M12.293 57.366h2.049v2.049h-2.049z M20.488 57.366h10.244v2.049h-10.244z M32.78 57.366h4.098v2.049h-4.098z M38.927 57.366h2.049v2.049h-2.049z M45.073 57.366h4.098v2.049h-4.098z M51.22 57.366h2.049v2.049h-2.049z M57.366 57.366h8.195v2.049h-8.195z M71.707 57.366h2.049v2.049h-2.049z M75.805 57.366h6.146v2.049h-6.146z M0.0 59.415h10.244v2.049h-10.244z M14.341 59.415h4.098v2.049h-4.098z M22.537 59.415h6.146v2.049h-6.146z M30.732 59.415h2.049v2.049h-2.049z M36.878 59.415h4.098v2.049h-4.098z M53.268 59.415h2.049v2.049h-2.049z M57.366 59.415h4.098v2.049h-4.098z M63.512 59.415h4.098v2.049h-4.098z M71.707 59.415h4.098v2.049h-4.098z M81.951 59.415h2.049v2.049h-2.049z M0.0 61.463h2.049v2.049h-2.049z M4.098 61.463h2.049v2.049h-2.049z M8.195 61.463h8.195v2.049h-8.195z M20.488 61.463h4.098v2.049h-4.098z M51.22 61.463h8.195v2.049h-8.195z M67.61 61.463h6.146v2.049h-6.146z M0.0 63.512h2.049v2.049h-2.049z M4.098 63.512h4.098v2.049h-4.098z M20.488 63.512h10.244v2.049h-10.244z M36.878 63.512h2.049v2.049h-2.049z M43.024 63.512h2.049v2.049h-2.049z M53.268 63.512h6.146v2.049h-6.146z M61.463 63.512h4.098v2.049h-4.098z M67.61 63.512h6.146v2.049h-6.146z M75.805 63.512h2.049v2.049h-2.049z M81.951 63.512h2.049v2.049h-2.049z M0.0 65.561h2.049v2.049h-2.049z M4.098 65.561h6.146v2.049h-6.146z M12.293 65.561h4.098v2.049h-4.098z M18.439 65.561h2.049v2.049h-2.049z M22.537 65.561h2.049v2.049h-2.049z M30.732 65.561h2.049v2.049h-2.049z M34.829 65.561h2.049v2.049h-2.049z M38.927 65.561h4.098v2.049h-4.098z M45.073 65.561h4.098v2.049h-4.098z M51.22 65.561h4.098v2.049h-4.098z M59.415 65.561h2.049v2.049h-2.049z M65.561 65.561h10.244v2.049h-10.244z M77.854 65.561h4.098v2.049h-4.098z M16.39 67.61h2.049v2.049h-2.049z M20.488 67.61h8.195v2.049h-8.195z M30.732 67.61h14.341v2.049h-14.341z M47.122 67.61h2.049v2.049h-2.049z M59.415 67.61h2.049v2.049h-2.049z M65.561 67.61h2.049v2.049h-2.049z M73.756 67.61h2.049v2.049h-2.049z M77.854 67.61h6.146v2.049h-6.146z M0.0 69.659h14.341v2.049h-14.341z M20.488 69.659h4.098v2.049h-4.098z M28.683 69.659h8.195v2.049h-8.195z M40.976 69.659h2.049v2.049h-2.049z M53.268 69.659h8.195v2.049h-8.195z M63.512 69.659h4.098v2.049h-4.098z M69.659 69.659h2.049v2.049h-2.049z M73.756 69.659h4.098v2.049h-4.098z M0.0 71.707h2.049v2.049h-2.049z M12.293 71.707h2.049v2.049h-2.049z M16.39 71.707h2.049v2.049h-2.049z M20.488 71.707h4.098v2.049h-4.098z M26.634 71.707h2.049v2.049h-2.049z M30.732 71.707h2.049v2.049h-2.049z M34.829 71.707h4.098v2.049h-4.098z M40.976 71.707h6.146v2.049h-6.146z M53.268 71.707h4.098v2.049h-4.098z M63.512 71.707h4.098v2.049h-4.098z M73.756 71.707h4.098v2.049h-4.098z M81.951 71.707h2.049v2.049h-2.049z M0.0 73.756h2.049v2.049h-2.049z M4.098 73.756h6.146v2.049h-6.146z M12.293 73.756h2.049v2.049h-2.049z M16.39 73.756h8.195v2.049h-8.195z M26.634 73.756h6.146v2.049h-6.146z M45.073 73.756h2.049v2.049h-2.049z M51.22 73.756h2.049v2.049h-2.049z M59.415 73.756h2.049v2.049h-2.049z M65.561 73.756h14.341v2.049h-14.341z M81.951 73.756h2.049v2.049h-2.049z M0.0 75.805h2.049v2.049h-2.049z M4.098 75.805h6.146v2.049h-6.146z M12.293 75.805h2.049v2.049h-2.049z M16.39 75.805h2.049v2.049h-2.049z M24.585 75.805h2.049v2.049h-2.049z M28.683 75.805h16.39v2.049h-16.39z M47.122 75.805h4.098v2.049h-4.098z M61.463 75.805h8.195v2.049h-8.195z M71.707 75.805h2.049v2.049h-2.049z M79.902 75.805h4.098v2.049h-4.098z M0.0 77.854h2.049v2.049h-2.049z M4.098 77.854h6.146v2.049h-6.146z M12.293 77.854h2.049v2.049h-2.049z M16.39 77.854h4.098v2.049h-4.098z M24.585 77.854h2.049v2.049h-2.049z M28.683 77.854h4.098v2.049h-4.098z M34.829 77.854h2.049v2.049h-2.049z M40.976 77.854h2.049v2.049h-2.049z M45.073 77.854h2.049v2.049h-2.049z M51.22 77.854h6.146v2.049h-6.146z M59.415 77.854h6.146v2.049h-6.146z M67.61 77.854h12.293v2.049h-12.293z M0.0 79.902h2.049v2.049h-2.049z M12.293 79.902h2.049v2.049h-2.049z M20.488 79.902h2.049v2.049h-2.049z M24.585 79.902h4.098v2.049h-4.098z M30.732 79.902h2.049v2.049h-2.049z M34.829 79.902h6.146v2.049h-6.146z M43.024 79.902h4.098v2.049h-4.098z M49.171 79.902h2.049v2.049h-2.049z M53.268 79.902h2.049v2.049h-2.049z M57.366 79.902h2.049v2.049h-2.049z M65.561 79.902h4.098v2.049h-4.098z M73.756 79.902h4.098v2.049h-4.098z M79.902 79.902h2.049v2.049h-2.049z M0.0 81.951h14.341v2.049h-14.341z M16.39 81.951h4.098v2.049h-4.098z M26.634 81.951h2.049v2.049h-2.049z M30.732 81.951h2.049v2.049h-2.049z M34.829 81.951h2.049v2.049h-2.049z M45.073 81.951h2.049v2.049h-2.049z M49.171 81.951h8.195v2.049h-8.195z M59.415 81.951h2.049v2.049h-2.049z M69.659 81.951h8.195v2.049h-8.195z"/>
</g>
<text x="1122" y="614" font-family="Inter, Helvetica, Arial, sans-serif" font-size="10" font-weight="700" fill="#F5F7FA" text-anchor="middle">scan / full post</text>
</svg>