<svg xmlns="http://www.w3.org/2000/svg" viewBox="0 0 1200 630">
  <defs>
    <linearGradient id="bg" x1="0" y1="0" x2="1" y2="1">
      <stop offset="0%" stop-color="#0a1120"/>
      <stop offset="100%" stop-color="#1a1025"/>
    </linearGradient>
    <filter id="glow" x="-40%" y="-40%" width="180%" height="180%">
      <feGaussianBlur stdDeviation="20"/>
    </filter>
  </defs>
  <rect width="1200" height="630" fill="url(#bg)"/>
  <circle cx="200" cy="160" r="170" fill="#ef4444" opacity="0.12" filter="url(#glow)"/>
  <circle cx="980" cy="470" r="180" fill="#2563eb" opacity="0.10" filter="url(#glow)"/>
  <text x="60" y="70" fill="#e2e8f0" font-size="34" font-family="Georgia, serif">Android Patch Wave</text>
  <text x="60" y="104" fill="#94a3b8" font-size="18" font-family="Georgia, serif">Mar 07</text>
  <line x1="300" y1="315" x2="520" y2="315" stroke="#38bdf8" stroke-width="4" stroke-dasharray="10 10"/>
  <line x1="680" y1="315" x2="900" y2="315" stroke="#f59e0b" stroke-width="4" stroke-dasharray="10 10"/>
  <g transform="translate(140,235)">
    <rect width="180" height="160" rx="24" fill="#0f172a" stroke="#ef4444" stroke-width="3"/>
    <circle cx="90" cy="72" r="34" fill="none" stroke="#ef4444" stroke-width="3"/>
    <path d="M72 72 h36 M90 54 v36" stroke="#ef4444" stroke-width="3" stroke-linecap="round"/>
  </g>
  <text x="230" y="430" text-anchor="middle" fill="#e2e8f0" font-size="18" font-family="Georgia, serif">129 CVEs</text>
  <g transform="translate(510,235)">
    <circle cx="90" cy="80" r="80" fill="#0f172a" stroke="#38bdf8" stroke-width="3"/>
    <path d="M56 100 h68 M72 64 h36 l22 22 l-22 22" fill="none" stroke="#38bdf8" stroke-width="3" stroke-linecap="round" stroke-linejoin="round"/>
  </g>
  <text x="600" y="430" text-anchor="middle" fill="#e2e8f0" font-size="18" font-family="Georgia, serif">DevSecOps</text>
  <g transform="translate(880,235)">
    <path d="M90 10 L160 55 L132 145 L48 145 L20 55 Z" fill="#0f172a" stroke="#f59e0b" stroke-width="3"/>
    <circle cx="90" cy="78" r="24" fill="none" stroke="#f59e0b" stroke-width="3"/>
    <path d="M90 50 v56 M62 78 h56" stroke="#f59e0b" stroke-width="3" stroke-linecap="round"/>
  </g>
  <text x="970" y="430" text-anchor="middle" fill="#e2e8f0" font-size="18" font-family="Georgia, serif">K8s Surge</text>
</svg>
