<svg xmlns="http://www.w3.org/2000/svg" viewBox="0 0 1200 630">
  <defs>
    <linearGradient id="bg" x1="0%" y1="0%" x2="100%" y2="100%">
      <stop offset="0%" style="stop-color:#0a0a1a"/><stop offset="100%" style="stop-color:#1a1a0a"/>
    </linearGradient>
    <filter id="glow"><feGaussianBlur stdDeviation="4" result="b"/><feMerge><feMergeNode in="b"/><feMergeNode in="SourceGraphic"/></feMerge></filter>
    <filter id="sg"><feGaussianBlur stdDeviation="30"/></filter>
    <filter id="shadow"><feDropShadow dx="0" dy="4" stdDeviation="8" flood-color="#000" flood-opacity="0.3"/></filter>
  </defs>
  <rect width="1200" height="630" fill="url(#bg)"/>
  <circle cx="600" cy="250" r="280" fill="#f59e0b" opacity="0.03" filter="url(#sg)"/>
  <g transform="translate(600,230)">
    <!-- Car with circuit board pattern -->
    <g filter="url(#shadow)">
      <path d="M-140,15 C-140,15 -130,-15 -110,-30 C-90,-45 -50,-50 -20,-52 L20,-52 C50,-50 90,-45 110,-30 C130,-15 140,15 140,15 Z" fill="#1e293b" stroke="#f59e0b" stroke-width="2.5"/>
      <circle cx="-85" cy="20" r="18" fill="#0f172a" stroke="#f59e0b" stroke-width="2"/>
      <circle cx="85" cy="20" r="18" fill="#0f172a" stroke="#f59e0b" stroke-width="2"/>
      <!-- Circuit patterns on car -->
      <g opacity="0.3">
        <line x1="-60" y1="-20" x2="-20" y2="-20" stroke="#f59e0b" stroke-width="1"/>
        <line x1="-20" y1="-20" x2="-20" y2="-5" stroke="#f59e0b" stroke-width="1"/>
        <line x1="20" y1="-30" x2="60" y2="-30" stroke="#f59e0b" stroke-width="1"/>
        <line x1="60" y1="-30" x2="60" y2="-10" stroke="#f59e0b" stroke-width="1"/>
        <circle cx="-60" cy="-20" r="2" fill="#f59e0b"/>
        <circle cx="-20" cy="-5" r="2" fill="#f59e0b"/>
        <circle cx="20" cy="-30" r="2" fill="#f59e0b"/>
        <circle cx="60" cy="-10" r="2" fill="#f59e0b"/>
      </g>
      <!-- ECU chip -->
      <rect x="-20" y="-25" width="40" height="30" rx="4" fill="#0f172a" stroke="#f59e0b" stroke-width="1.5"/>
      <text x="0" y="-6" font-family="Courier New" font-size="9" fill="#fde68a" text-anchor="middle">ECU</text>
    </g>
    <!-- Security shield around car -->
    <path d="M0,-80 L170,-50 L170,30 C170,60 90,80 0,90 C-90,80 -170,60 -170,30 L-170,-50 Z" fill="none" stroke="#22c55e" stroke-width="2" stroke-dasharray="8,4" opacity="0.3"/>
    <!-- CAN bus label -->
    <g transform="translate(0,60)">
      <rect x="-40" y="-12" width="80" height="24" rx="6" fill="#1e293b" stroke="#ef4444" stroke-width="1.5"/>
      <text x="0" y="4" font-family="Courier New" font-size="10" fill="#fca5a5" text-anchor="middle">CAN Bus</text>
    </g>
    <!-- V2X antenna signals -->
    <g transform="translate(0,-70)" opacity="0.3">
      <path d="M-15,-5 C-15,-15 15,-15 15,-5" fill="none" stroke="#3b82f6" stroke-width="1.5"/>
      <path d="M-25,-10 C-25,-25 25,-25 25,-10" fill="none" stroke="#3b82f6" stroke-width="1.5"/>
      <text x="0" y="8" font-family="Courier New" font-size="7" fill="#93c5fd" text-anchor="middle">V2X</text>
    </g>
  </g>
  <text x="600" y="500" font-family="Arial,sans-serif" font-size="36" font-weight="bold" fill="white" text-anchor="middle" filter="url(#glow)">Automotive Security</text>
  <text x="600" y="538" font-family="Arial,sans-serif" font-size="16" fill="#94a3b8" text-anchor="middle">DevSecOps Perspective | ECU + CAN Bus + V2X Security</text>
  <rect x="40" y="25" width="160" height="32" rx="16" fill="#f59e0b" opacity="0.2" stroke="#f59e0b" stroke-width="1"/>
  <text x="120" y="47" font-family="Arial,sans-serif" font-size="13" font-weight="bold" fill="#fde68a" text-anchor="middle">AUTOMOTIVE</text>
  <rect x="1000" y="25" width="160" height="32" rx="16" fill="#3b82f6" opacity="0.2" stroke="#3b82f6" stroke-width="1"/>
  <text x="1080" y="47" font-family="Arial,sans-serif" font-size="13" font-weight="bold" fill="#93c5fd" text-anchor="middle">Jan 6, 2026</text>
  <text x="1160" y="615" font-family="Arial,sans-serif" font-size="13" fill="#475569" text-anchor="end">tech.2twodragon.com</text>
</svg>