<svg xmlns="http://www.w3.org/2000/svg" viewBox="0 0 1200 630" width="1200" height="630" role="img" aria-label="Research-based weekly digest cover: CrashFix ClickFix Python RAT targets enterprise systems, AISURU botnet sets 31.4 Tbps DDoS world record, Codespaces RCE plus AsyncRAT C2 plus BYOVD complex cloud threat">
<!-- profile: high-quality-cover (L14 Timeline, research-based, batch1-locked) -->
<title>Weekly digest 2026-02-06 timeline: CrashFix Python RAT (Feb 03), AISURU 31.4 Tbps DDoS (Feb 05), Codespaces RCE BYOVD (Feb 06)</title>
<defs>
  <linearGradient id="bgSpread" x1="0%" y1="0%" x2="100%" y2="100%">
    <stop offset="0%" stop-color="#0A1226"/>
    <stop offset="55%" stop-color="#0D1530"/>
    <stop offset="100%" stop-color="#131038"/>
  </linearGradient>
  <linearGradient id="colA" x1="0%" y1="0%" x2="0%" y2="100%">
    <stop offset="0%" stop-color="#122542"/>
    <stop offset="100%" stop-color="#0A1830"/>
  </linearGradient>
  <linearGradient id="colB" x1="0%" y1="0%" x2="0%" y2="100%">
    <stop offset="0%" stop-color="#1A2E0A"/>
    <stop offset="100%" stop-color="#101E06"/>
  </linearGradient>
  <linearGradient id="colC" x1="0%" y1="0%" x2="0%" y2="100%">
    <stop offset="0%" stop-color="#2E1016"/>
    <stop offset="100%" stop-color="#1E0A12"/>
  </linearGradient>
  <linearGradient id="timelineGrad" x1="0%" y1="0%" x2="100%" y2="0%">
    <stop offset="0%" stop-color="#4ADE80" stop-opacity="0.2"/>
    <stop offset="35%" stop-color="#3A86FF" stop-opacity="0.9"/>
    <stop offset="65%" stop-color="#22C55E" stop-opacity="0.9"/>
    <stop offset="100%" stop-color="#E63946"/>
  </linearGradient>
  <radialGradient id="glowBlue" cx="50%" cy="50%" r="50%">
    <stop offset="0%" stop-color="#3A86FF" stop-opacity="0.6"/>
    <stop offset="100%" stop-color="#3A86FF" stop-opacity="0"/>
  </radialGradient>
  <radialGradient id="glowGreen" cx="50%" cy="50%" r="50%">
    <stop offset="0%" stop-color="#22C55E" stop-opacity="0.6"/>
    <stop offset="100%" stop-color="#22C55E" stop-opacity="0"/>
  </radialGradient>
  <radialGradient id="glowRed" cx="50%" cy="50%" r="50%">
    <stop offset="0%" stop-color="#E63946" stop-opacity="0.65"/>
    <stop offset="100%" stop-color="#E63946" stop-opacity="0"/>
  </radialGradient>
  <pattern id="dotGrid" x="0" y="0" width="40" height="40" patternUnits="userSpaceOnUse">
    <circle cx="20" cy="20" r="0.8" fill="#2A3256" opacity="0.55"/>
  </pattern>
  <filter id="softShadow" x="-10%" y="-10%" width="130%" height="130%">
    <feGaussianBlur in="SourceAlpha" stdDeviation="2.6"/>
    <feOffset dx="1" dy="3"/>
    <feComponentTransfer><feFuncA type="linear" slope="0.55"/></feComponentTransfer>
    <feMerge><feMergeNode/><feMergeNode in="SourceGraphic"/></feMerge>
  </filter>
  <filter id="textShadow" x="-5%" y="-5%" width="110%" height="110%">
    <feGaussianBlur in="SourceAlpha" stdDeviation="1.2"/>
    <feOffset dx="0" dy="1.5"/>
    <feComponentTransfer><feFuncA type="linear" slope="0.8"/></feComponentTransfer>
    <feMerge><feMergeNode/><feMergeNode in="SourceGraphic"/></feMerge>
  </filter>
</defs>

<rect width="1200" height="630" fill="url(#bgSpread)"/>
<rect width="1200" height="630" fill="url(#dotGrid)"/>

<!-- Ambient glow behind columns -->
<circle cx="240" cy="390" r="140" fill="url(#glowBlue)">
  <animate attributeName="opacity" values="0.5;0.85;0.5" dur="6.4s" repeatCount="indefinite"/>
</circle>
<circle cx="620" cy="390" r="140" fill="url(#glowGreen)">
  <animate attributeName="opacity" values="0.5;0.85;0.5" dur="5.6s" repeatCount="indefinite"/>
</circle>
<circle cx="1000" cy="390" r="140" fill="url(#glowRed)">
  <animate attributeName="opacity" values="0.5;0.85;0.5" dur="7.0s" repeatCount="indefinite"/>
</circle>

<!-- Header bar -->
<rect x="0" y="0" width="1200" height="56" fill="#050813" opacity="0.92"/>
<text x="36" y="36" font-family="Inter, Helvetica, Arial, sans-serif" font-size="18" font-weight="700" fill="#8FB8FF" letter-spacing="2.5">WEEKLY DIGEST</text>
<text x="1164" y="36" font-family="Inter, Helvetica, Arial, sans-serif" font-size="15" font-weight="600" fill="#7DA3D9" letter-spacing="1.5" text-anchor="end">2026.02.06</text>
<rect x="0" y="54" width="1200" height="2" fill="#8FB8FF" opacity="0.85">
  <animate attributeName="opacity" values="0.4;1;0.4" dur="4.8s" repeatCount="indefinite"/>
</rect>

<!-- Starfield ambient dots (static) -->
<g fill="#8FB8FF" opacity="0.5">
  <circle cx="160" cy="78" r="1.2"/>
  <circle cx="420" cy="86" r="1.0"/>
  <circle cx="720" cy="80" r="1.3"/>
  <circle cx="1040" cy="88" r="0.9"/>
</g>

<!-- Subtitle row -->
<text x="60" y="96" font-family="Inter, Helvetica, Arial, sans-serif" font-size="13" font-weight="700" fill="#9FD3B0" letter-spacing="3">THIS WEEK  /  JAN 31 - FEB 06</text>
<text x="60" y="130" font-family="Inter, Helvetica, Arial, sans-serif" font-size="28" font-weight="800" fill="#F5F7FA" filter="url(#textShadow)">CrashFix RAT, Record DDoS, Cloud RCE</text>

<!-- Timeline axis at y=170 -->
<line x1="60" y1="170" x2="1140" y2="170" stroke="url(#timelineGrad)" stroke-width="3.4" stroke-linecap="round"/>
<!-- Moving traveler along axis -->
<circle r="5" fill="#F5F7FA" stroke="#8FB8FF" stroke-width="1.4">
  <animate attributeName="cx" values="60;1140;60" dur="11s" repeatCount="indefinite"/>
  <animate attributeName="opacity" values="0;1;1;1;0" dur="11s" repeatCount="indefinite"/>
</circle>

<!-- Date ticks: JAN 31 to FEB 06 (7 ticks) -->
<g font-family="Inter, monospace" font-size="10" font-weight="700" fill="#7DA3D9">
  <line x1="80" y1="163" x2="80" y2="177" stroke="#4A6AA0" stroke-width="1.2"/>
  <text x="80" y="194" text-anchor="middle">JAN 31</text>
  <line x1="240" y1="163" x2="240" y2="177" stroke="#4A6AA0" stroke-width="1.2"/>
  <text x="240" y="194" text-anchor="middle">FEB 01</text>
  <line x1="400" y1="163" x2="400" y2="177" stroke="#4A6AA0" stroke-width="1.2"/>
  <text x="400" y="194" text-anchor="middle">FEB 02</text>
  <line x1="560" y1="163" x2="560" y2="177" stroke="#4A6AA0" stroke-width="1.2"/>
  <text x="560" y="194" text-anchor="middle" fill="#3A86FF">FEB 03</text>
  <line x1="720" y1="163" x2="720" y2="177" stroke="#4A6AA0" stroke-width="1.2"/>
  <text x="720" y="194" text-anchor="middle">FEB 04</text>
  <line x1="900" y1="163" x2="900" y2="177" stroke="#4A6AA0" stroke-width="1.2"/>
  <text x="900" y="194" text-anchor="middle" fill="#22C55E">FEB 05</text>
  <line x1="1100" y1="163" x2="1100" y2="177" stroke="#4A6AA0" stroke-width="1.2"/>
  <text x="1100" y="194" text-anchor="middle" fill="#F87171">FEB 06</text>
</g>

<!-- Event anchor dots: Col A at FEB 03 (x=560), Col B at FEB 05 (x=900), Col C at FEB 06 (x=1100) -->
<g>
  <g transform="translate(560,170)">
    <circle r="22" fill="url(#glowBlue)">
      <animate attributeName="r" values="20;32;20" dur="2.8s" repeatCount="indefinite"/>
      <animate attributeName="opacity" values="0.6;1;0.6" dur="2.8s" repeatCount="indefinite"/>
    </circle>
    <circle r="10" fill="#0A1B2E" stroke="#3A86FF" stroke-width="3" filter="url(#softShadow)"/>
    <circle r="3.5" fill="#8FB8FF">
      <animate attributeName="opacity" values="1;0.3;1" dur="1.6s" repeatCount="indefinite"/>
    </circle>
  </g>
  <g transform="translate(900,170)">
    <circle r="22" fill="url(#glowGreen)">
      <animate attributeName="r" values="20;32;20" dur="2.8s" begin="0.4s" repeatCount="indefinite"/>
      <animate attributeName="opacity" values="0.6;1;0.6" dur="2.8s" begin="0.4s" repeatCount="indefinite"/>
    </circle>
    <circle r="10" fill="#0E2A14" stroke="#22C55E" stroke-width="3" filter="url(#softShadow)"/>
    <circle r="3.5" fill="#86EFAC">
      <animate attributeName="opacity" values="1;0.3;1" dur="1.8s" repeatCount="indefinite"/>
    </circle>
  </g>
  <g transform="translate(1100,170)">
    <circle r="22" fill="url(#glowRed)">
      <animate attributeName="r" values="20;32;20" dur="2.8s" begin="0.8s" repeatCount="indefinite"/>
      <animate attributeName="opacity" values="0.6;1;0.6" dur="2.8s" begin="0.8s" repeatCount="indefinite"/>
    </circle>
    <circle r="10" fill="#1E0A14" stroke="#E63946" stroke-width="3" filter="url(#softShadow)"/>
    <circle r="3.5" fill="#FCA5A5">
      <animate attributeName="opacity" values="1;0.3;1" dur="1.7s" repeatCount="indefinite"/>
    </circle>
  </g>
</g>

<!-- Dashed drop lines from anchors to column tops -->
<line x1="560" y1="180" x2="240" y2="216" stroke="#3A86FF" stroke-width="1.4" stroke-dasharray="3 3" opacity="0.7"/>
<line x1="900" y1="180" x2="620" y2="216" stroke="#22C55E" stroke-width="1.4" stroke-dasharray="3 3" opacity="0.7"/>
<line x1="1100" y1="180" x2="1000" y2="216" stroke="#E63946" stroke-width="1.4" stroke-dasharray="3 3" opacity="0.7"/>

<!-- COL A: CrashFix Python RAT (Feb 03) -->
<g transform="translate(72,216)">
  <rect x="0" y="0" width="336" height="390" rx="14" fill="url(#colA)" stroke="#3A86FF" stroke-width="1.6" opacity="0.97"/>
  <rect x="0" y="0" width="336" height="4" fill="#3A86FF" opacity="0.7"/>
  <g filter="url(#textShadow)">
    <text x="20" y="28" font-family="Inter, Helvetica, Arial, sans-serif" font-size="11" font-weight="700" fill="#8FB8FF" letter-spacing="2.4">HIGH  /  AI MALWARE</text>
    <text x="20" y="56" font-family="Inter, Helvetica, Arial, sans-serif" font-size="22" font-weight="800" fill="#F5F7FA">CrashFix Python RAT</text>
    <text x="20" y="80" font-family="Inter, Helvetica, Arial, sans-serif" font-size="13" font-weight="500" fill="#BFC9D9">ClickFix variant targets enterprise</text>
  </g>
  <!-- Scene: terminal + payload drop -->
  <g transform="translate(168,140)">
    <g filter="url(#softShadow)">
      <rect x="-52" y="-30" width="104" height="56" rx="5" fill="#0A1B2E" stroke="#3A86FF" stroke-width="1.6"/>
      <circle cx="-40" cy="-18" r="3" fill="#E63946">
        <animate attributeName="opacity" values="0.4;1;0.4" dur="1.4s" repeatCount="indefinite"/>
      </circle>
      <circle cx="-30" cy="-18" r="3" fill="#FFB703"/>
      <circle cx="-20" cy="-18" r="3" fill="#22C55E"/>
      <rect x="-44" y="-8" width="60" height="4" rx="1" fill="#3A86FF" opacity="0.5"/>
      <rect x="-44" y="0" width="44" height="4" rx="1" fill="#8FB8FF" opacity="0.35"/>
      <rect x="-44" y="8" width="50" height="4" rx="1" fill="#3A86FF" opacity="0.4"/>
      <text x="0" y="32" text-anchor="middle" font-family="Inter, monospace" font-size="8" font-weight="800" fill="#8FB8FF">PYTHON RAT</text>
    </g>
    <g stroke="#3A86FF" stroke-width="1.2" fill="none">
      <line x1="-20" y1="28" x2="-40" y2="52" stroke-dasharray="3 2">
        <animate attributeName="stroke-opacity" values="0.3;1;0.3" dur="1.8s" repeatCount="indefinite"/>
      </line>
      <line x1="0" y1="28" x2="0" y2="52" stroke-dasharray="3 2">
        <animate attributeName="stroke-opacity" values="0.3;1;0.3" dur="2.0s" begin="0.3s" repeatCount="indefinite"/>
      </line>
      <line x1="20" y1="28" x2="40" y2="52" stroke-dasharray="3 2">
        <animate attributeName="stroke-opacity" values="0.3;1;0.3" dur="1.6s" begin="0.6s" repeatCount="indefinite"/>
      </line>
    </g>
    <g>
      <rect x="-48" y="52" width="16" height="14" rx="2" fill="#0A1B2E" stroke="#3A86FF" stroke-width="1"/>
      <text x="-40" y="63" text-anchor="middle" font-family="Inter, monospace" font-size="6" font-weight="800" fill="#3A86FF">PC</text>
      <rect x="-8" y="52" width="16" height="14" rx="2" fill="#0A1B2E" stroke="#3A86FF" stroke-width="1"/>
      <text x="0" y="63" text-anchor="middle" font-family="Inter, monospace" font-size="6" font-weight="800" fill="#3A86FF">SRV</text>
      <rect x="32" y="52" width="16" height="14" rx="2" fill="#0A1B2E" stroke="#3A86FF" stroke-width="1"/>
      <text x="40" y="63" text-anchor="middle" font-family="Inter, monospace" font-size="6" font-weight="800" fill="#3A86FF">DB</text>
    </g>
  </g>
  <!-- Attack chain -->
  <g transform="translate(28,208)">
    <g>
      <rect x="0" y="0" width="280" height="34" rx="6" fill="#0A1B2E" stroke="#3A86FF" stroke-width="1.2"/>
      <circle cx="18" cy="17" r="7" fill="#3A86FF"/>
      <text x="18" y="21" text-anchor="middle" font-family="Inter, monospace" font-size="10" font-weight="800" fill="#FFFFFF">1</text>
      <text x="36" y="22" font-family="Inter, Helvetica, Arial, sans-serif" font-size="12" font-weight="700" fill="#F5F7FA">ClickFix lure + clipboard hijack</text>
    </g>
    <line x1="18" y1="38" x2="18" y2="50" stroke="#3A86FF" stroke-width="1.4" stroke-dasharray="2 2"/>
    <g transform="translate(0,54)">
      <rect x="0" y="0" width="280" height="34" rx="6" fill="#0A1B2E" stroke="#3A86FF" stroke-width="1.2"/>
      <circle cx="18" cy="17" r="7" fill="#3A86FF"/>
      <text x="18" y="21" text-anchor="middle" font-family="Inter, monospace" font-size="10" font-weight="800" fill="#FFFFFF">2</text>
      <text x="36" y="22" font-family="Inter, Helvetica, Arial, sans-serif" font-size="12" font-weight="700" fill="#F5F7FA">Python RAT drop via mshta</text>
    </g>
    <line x1="18" y1="92" x2="18" y2="104" stroke="#3A86FF" stroke-width="1.4" stroke-dasharray="2 2"/>
    <g transform="translate(0,108)">
      <rect x="0" y="0" width="280" height="34" rx="6" fill="#12283F" stroke="#8FB8FF" stroke-width="1.4"/>
      <circle cx="18" cy="17" r="7" fill="#8FB8FF"/>
      <text x="18" y="21" text-anchor="middle" font-family="Inter, monospace" font-size="10" font-weight="800" fill="#0A1020">3</text>
      <text x="36" y="22" font-family="Inter, Helvetica, Arial, sans-serif" font-size="12" font-weight="800" fill="#F5F7FA">C2 persistence + data theft</text>
    </g>
  </g>
  <!-- KPI pill -->
  <g transform="translate(28,348)" filter="url(#softShadow)">
    <rect x="0" y="0" width="280" height="32" rx="8" fill="#12283F" stroke="#3A86FF" stroke-width="1.6"/>
    <text x="14" y="21" font-family="Inter, monospace" font-size="11" font-weight="700" fill="#8FB8FF">TYPE</text>
    <text x="140" y="22" text-anchor="middle" font-family="Inter, Helvetica, Arial, sans-serif" font-size="14" font-weight="900" fill="#F5F7FA">CrashFix RAT</text>
    <text x="266" y="21" text-anchor="end" font-family="Inter, monospace" font-size="10" font-weight="700" fill="#8FB8FF">HIGH</text>
  </g>
</g>

<!-- COL B: AISURU 31.4 Tbps DDoS Botnet (Feb 05) -->
<g transform="translate(432,216)">
  <rect x="0" y="0" width="336" height="390" rx="14" fill="url(#colB)" stroke="#22C55E" stroke-width="1.6" opacity="0.97"/>
  <rect x="0" y="0" width="336" height="4" fill="#22C55E" opacity="0.7"/>
  <g filter="url(#textShadow)">
    <text x="20" y="28" font-family="Inter, Helvetica, Arial, sans-serif" font-size="11" font-weight="700" fill="#22C55E" letter-spacing="2.4">CRITICAL  /  BOTNET</text>
    <text x="20" y="56" font-family="Inter, Helvetica, Arial, sans-serif" font-size="22" font-weight="800" fill="#F5F7FA">AISURU DDoS Record</text>
    <text x="20" y="80" font-family="Inter, Helvetica, Arial, sans-serif" font-size="13" font-weight="500" fill="#86EFAC">31.4 Tbps world record attack</text>
  </g>
  <!-- Scene: globe + attack rays -->
  <g transform="translate(168,140)">
    <g filter="url(#softShadow)">
      <circle cx="0" cy="0" r="30" fill="#0E2A14" stroke="#22C55E" stroke-width="2"/>
      <ellipse cx="0" cy="0" rx="14" ry="30" fill="none" stroke="#22C55E" stroke-width="1" opacity="0.5"/>
      <line x1="-30" y1="0" x2="30" y2="0" stroke="#22C55E" stroke-width="1" opacity="0.5"/>
      <line x1="-30" y1="-10" x2="30" y2="-10" stroke="#22C55E" stroke-width="0.7" opacity="0.3"/>
      <line x1="-30" y1="10" x2="30" y2="10" stroke="#22C55E" stroke-width="0.7" opacity="0.3"/>
      <text x="0" y="5" text-anchor="middle" font-family="Inter, monospace" font-size="8" font-weight="800" fill="#86EFAC">GLOBAL</text>
    </g>
    <g stroke="#22C55E" stroke-width="1.4" fill="none">
      <line x1="-60" y1="-40" x2="-32" y2="-18">
        <animate attributeName="stroke-opacity" values="0.2;1;0.2" dur="1.4s" repeatCount="indefinite"/>
      </line>
      <line x1="-65" y1="0" x2="-32" y2="0">
        <animate attributeName="stroke-opacity" values="0.2;1;0.2" dur="1.6s" begin="0.2s" repeatCount="indefinite"/>
      </line>
      <line x1="-60" y1="40" x2="-32" y2="18">
        <animate attributeName="stroke-opacity" values="0.2;1;0.2" dur="1.5s" begin="0.4s" repeatCount="indefinite"/>
      </line>
      <line x1="60" y1="-40" x2="32" y2="-18">
        <animate attributeName="stroke-opacity" values="0.2;1;0.2" dur="1.7s" begin="0.1s" repeatCount="indefinite"/>
      </line>
      <line x1="65" y1="0" x2="32" y2="0">
        <animate attributeName="stroke-opacity" values="0.2;1;0.2" dur="1.3s" begin="0.5s" repeatCount="indefinite"/>
      </line>
      <line x1="60" y1="40" x2="32" y2="18">
        <animate attributeName="stroke-opacity" values="0.2;1;0.2" dur="1.8s" begin="0.3s" repeatCount="indefinite"/>
      </line>
    </g>
    <text x="0" y="50" text-anchor="middle" font-family="Inter, monospace" font-size="12" font-weight="900" fill="#22C55E">31.4 Tbps</text>
  </g>
  <!-- Attack chain -->
  <g transform="translate(28,208)">
    <g>
      <rect x="0" y="0" width="280" height="34" rx="6" fill="#0E2A14" stroke="#22C55E" stroke-width="1.2"/>
      <circle cx="18" cy="17" r="7" fill="#22C55E"/>
      <text x="18" y="21" text-anchor="middle" font-family="Inter, monospace" font-size="10" font-weight="800" fill="#0A1202">1</text>
      <text x="36" y="22" font-family="Inter, Helvetica, Arial, sans-serif" font-size="12" font-weight="700" fill="#F5F7FA">AISURU/Kimwolf botnet compile</text>
    </g>
    <line x1="18" y1="38" x2="18" y2="50" stroke="#22C55E" stroke-width="1.4" stroke-dasharray="2 2"/>
    <g transform="translate(0,54)">
      <rect x="0" y="0" width="280" height="34" rx="6" fill="#0E2A14" stroke="#22C55E" stroke-width="1.2"/>
      <circle cx="18" cy="17" r="7" fill="#22C55E"/>
      <text x="18" y="21" text-anchor="middle" font-family="Inter, monospace" font-size="10" font-weight="800" fill="#0A1202">2</text>
      <text x="36" y="22" font-family="Inter, Helvetica, Arial, sans-serif" font-size="12" font-weight="700" fill="#F5F7FA">IoT device mass exploitation</text>
    </g>
    <line x1="18" y1="92" x2="18" y2="104" stroke="#22C55E" stroke-width="1.4" stroke-dasharray="2 2"/>
    <g transform="translate(0,108)">
      <rect x="0" y="0" width="280" height="34" rx="6" fill="#163A1C" stroke="#86EFAC" stroke-width="1.4"/>
      <circle cx="18" cy="17" r="7" fill="#86EFAC"/>
      <text x="18" y="21" text-anchor="middle" font-family="Inter, monospace" font-size="10" font-weight="800" fill="#0A1202">3</text>
      <text x="36" y="22" font-family="Inter, Helvetica, Arial, sans-serif" font-size="12" font-weight="800" fill="#F5F7FA">31.4 Tbps flood world record</text>
    </g>
  </g>
  <!-- KPI pill -->
  <g transform="translate(28,348)" filter="url(#softShadow)">
    <rect x="0" y="0" width="280" height="32" rx="8" fill="#163A1C" stroke="#22C55E" stroke-width="1.6"/>
    <text x="14" y="21" font-family="Inter, monospace" font-size="11" font-weight="700" fill="#22C55E">PEAK</text>
    <text x="140" y="22" text-anchor="middle" font-family="Inter, Helvetica, Arial, sans-serif" font-size="16" font-weight="900" fill="#F5F7FA">31.4 Tbps</text>
    <text x="266" y="21" text-anchor="end" font-family="Inter, monospace" font-size="10" font-weight="700" fill="#22C55E">RECORD</text>
  </g>
</g>

<!-- COL C: Codespaces RCE + AsyncRAT + BYOVD (Feb 06) -->
<g transform="translate(792,216)">
  <rect x="0" y="0" width="336" height="390" rx="14" fill="url(#colC)" stroke="#E63946" stroke-width="1.6" opacity="0.97"/>
  <rect x="0" y="0" width="336" height="4" fill="#E63946" opacity="0.7"/>
  <g filter="url(#textShadow)">
    <text x="20" y="28" font-family="Inter, Helvetica, Arial, sans-serif" font-size="11" font-weight="700" fill="#F87171" letter-spacing="2.4">HIGH  /  CLOUD RCE</text>
    <text x="20" y="56" font-family="Inter, Helvetica, Arial, sans-serif" font-size="22" font-weight="800" fill="#F5F7FA">Codespaces RCE+BYOVD</text>
    <text x="20" y="80" font-family="Inter, Helvetica, Arial, sans-serif" font-size="13" font-weight="500" fill="#FBB6BD">AsyncRAT C2 + driver abuse</text>
  </g>
  <!-- Scene: cloud with RCE exploit arrow + BYOVD badge -->
  <g transform="translate(168,140)">
    <g filter="url(#softShadow)">
      <ellipse cx="0" cy="4" rx="38" ry="22" fill="#3A0F1A" stroke="#E63946" stroke-width="1.8"/>
      <ellipse cx="-20" cy="-4" rx="18" ry="14" fill="#3A0F1A" stroke="#E63946" stroke-width="1.4"/>
      <ellipse cx="20" cy="-4" rx="18" ry="14" fill="#3A0F1A" stroke="#E63946" stroke-width="1.4"/>
      <ellipse cx="0" cy="-12" rx="14" ry="12" fill="#3A0F1A" stroke="#E63946" stroke-width="1.4"/>
      <text x="0" y="8" text-anchor="middle" font-family="Inter, monospace" font-size="8" font-weight="800" fill="#FCA5A5">CODESPACE</text>
    </g>
    <g>
      <line x1="-70" y1="30" x2="-40" y2="10" stroke="#E63946" stroke-width="2.2" stroke-linecap="round">
        <animate attributeName="stroke-opacity" values="0.3;1;0.3" dur="1.5s" repeatCount="indefinite"/>
      </line>
      <polygon points="-40,10 -52,18 -48,6" fill="#E63946">
        <animate attributeName="opacity" values="0.3;1;0.3" dur="1.5s" repeatCount="indefinite"/>
      </polygon>
      <text x="-66" y="46" font-family="Inter, monospace" font-size="7" font-weight="800" fill="#FCA5A5">RCE</text>
    </g>
    <g transform="translate(52,18)">
      <rect x="-18" y="-10" width="36" height="20" rx="3" fill="#1E0A14" stroke="#FCA5A5" stroke-width="1.2"/>
      <text x="0" y="4" text-anchor="middle" font-family="Inter, monospace" font-size="7" font-weight="800" fill="#FCA5A5">BYOVD</text>
    </g>
    <text x="0" y="50" text-anchor="middle" font-family="Inter, monospace" font-size="9" font-weight="800" fill="#FCA5A5">MULTI-VECTOR</text>
  </g>
  <!-- Attack chain -->
  <g transform="translate(28,208)">
    <g>
      <rect x="0" y="0" width="280" height="34" rx="6" fill="#1E0A14" stroke="#E63946" stroke-width="1.2"/>
      <circle cx="18" cy="17" r="7" fill="#E63946"/>
      <text x="18" y="21" text-anchor="middle" font-family="Inter, monospace" font-size="10" font-weight="800" fill="#FFFFFF">1</text>
      <text x="36" y="22" font-family="Inter, Helvetica, Arial, sans-serif" font-size="12" font-weight="700" fill="#F5F7FA">Codespaces RCE initial access</text>
    </g>
    <line x1="18" y1="38" x2="18" y2="50" stroke="#E63946" stroke-width="1.4" stroke-dasharray="2 2"/>
    <g transform="translate(0,54)">
      <rect x="0" y="0" width="280" height="34" rx="6" fill="#1E0A14" stroke="#E63946" stroke-width="1.2"/>
      <circle cx="18" cy="17" r="7" fill="#E63946"/>
      <text x="18" y="21" text-anchor="middle" font-family="Inter, monospace" font-size="10" font-weight="800" fill="#FFFFFF">2</text>
      <text x="36" y="22" font-family="Inter, Helvetica, Arial, sans-serif" font-size="12" font-weight="700" fill="#F5F7FA">AsyncRAT C2 + BYOVD pivot</text>
    </g>
    <line x1="18" y1="92" x2="18" y2="104" stroke="#E63946" stroke-width="1.4" stroke-dasharray="2 2"/>
    <g transform="translate(0,108)">
      <rect x="0" y="0" width="280" height="34" rx="6" fill="#3A0F1A" stroke="#FCA5A5" stroke-width="1.4"/>
      <circle cx="18" cy="17" r="7" fill="#FCA5A5"/>
      <text x="18" y="21" text-anchor="middle" font-family="Inter, monospace" font-size="10" font-weight="800" fill="#1A0005">3</text>
      <text x="36" y="22" font-family="Inter, Helvetica, Arial, sans-serif" font-size="12" font-weight="800" fill="#F5F7FA">EDR bypass + lateral movement</text>
    </g>
  </g>
  <!-- KPI pill -->
  <g transform="translate(28,348)" filter="url(#softShadow)">
    <rect x="0" y="0" width="280" height="32" rx="8" fill="#3A0F1A" stroke="#E63946" stroke-width="1.6"/>
    <text x="14" y="21" font-family="Inter, monospace" font-size="11" font-weight="700" fill="#F87171">CHAIN</text>
    <text x="140" y="22" text-anchor="middle" font-family="Inter, Helvetica, Arial, sans-serif" font-size="13" font-weight="900" fill="#F5F7FA">RCE+RAT+BYOVD</text>
    <text x="266" y="21" text-anchor="end" font-family="Inter, monospace" font-size="10" font-weight="700" fill="#F87171">HIGH</text>
  </g>
</g>

<!-- Ambient spark dots along timeline (static) -->
<g opacity="0.5">
  <circle cx="320" cy="170" r="1.2" fill="#8FB8FF"/>
  <circle cx="460" cy="170" r="1.2" fill="#8FB8FF"/>
  <circle cx="680" cy="170" r="1.2" fill="#86EFAC"/>
  <circle cx="810" cy="170" r="1.2" fill="#86EFAC"/>
  <circle cx="1010" cy="170" r="1.2" fill="#FCA5A5"/>
</g>

<!-- QR placeholder -->
<!-- cover-qr: https://tech.2twodragon.com/posts/2026/02/06/Tech_Security_Weekly_Digest_AI_Botnet_Cloud_Threat/ : 41x41 -->
<g transform="translate(1080,504)" filter="url(#softShadow)">
  <rect x="-8" y="-8" width="100" height="100" rx="6" fill="#FFFFFF"/>
  <path fill="#0A1020" d="M0.0 0.0h14.341v2.049h-14.341z M16.39 0.0h4.098v2.049h-4.098z M22.537 0.0h2.049v2.049h-2.049z M28.683 0.0h4.098v2.049h-4.098z M36.878 0.0h2.049v2.049h-2.049z M43.024 0.0h4.098v2.049h-4.098z M51.22 0.0h12.293v2.049h-12.293z M69.659 0.0h14.341v2.049h-14.341z M0.0 2.049h2.049v2.049h-2.049z M12.293 2.049h2.049v2.049h-2.049z M18.439 2.049h8.195v2.049h-8.195z M28.683 2.049h4.098v2.049h-4.098z M36.878 2.049h10.244v2.049h-10.244z M49.171 2.049h6.146v2.049h-6.146z M59.415 2.049h2.049v2.049h-2.049z M63.512 2.049h2.049v2.049h-2.049z M69.659 2.049h2.049v2.049h-2.049z M81.951 2.049h2.049v2.049h-2.049z M0.0 4.098h2.049v2.049h-2.049z M4.098 4.098h6.146v2.049h-6.146z M12.293 4.098h2.049v2.049h-2.049z M20.488 4.098h6.146v2.049h-6.146z M34.829 4.098h6.146v2.049h-6.146z M45.073 4.098h6.146v2.049h-6.146z M53.268 4.098h4.098v2.049h-4.098z M59.415 4.098h4.098v2.049h-4.098z M65.561 4.098h2.049v2.049h-2.049z M69.659 4.098h2.049v2.049h-2.049z M73.756 4.098h6.146v2.049h-6.146z M81.951 4.098h2.049v2.049h-2.049z M0.0 6.146h2.049v2.049h-2.049z M4.098 6.146h6.146v2.049h-6.146z M12.293 6.146h2.049v2.049h-2.049z M16.39 6.146h2.049v2.049h-2.049z M20.488 6.146h2.049v2.049h-2.049z M24.585 6.146h6.146v2.049h-6.146z M32.78 6.146h4.098v2.049h-4.098z M40.976 6.146h4.098v2.049h-4.098z M47.122 6.146h10.244v2.049h-10.244z M59.415 6.146h4.098v2.049h-4.098z M65.561 6.146h2.049v2.049h-2.049z M69.659 6.146h2.049v2.049h-2.049z M73.756 6.146h6.146v2.049h-6.146z M81.951 6.146h2.049v2.049h-2.049z M0.0 8.195h2.049v2.049h-2.049z M4.098 8.195h6.146v2.049h-6.146z M12.293 8.195h2.049v2.049h-2.049z M16.39 8.195h8.195v2.049h-8.195z M26.634 8.195h4.098v2.049h-4.098z M34.829 8.195h2.049v2.049h-2.049z M38.927 8.195h2.049v2.049h-2.049z M51.22 8.195h2.049v2.049h-2.049z M55.317 8.195h2.049v2.049h-2.049z M65.561 8.195h2.049v2.049h-2.049z M69.659 8.195h2.049v2.049h-2.049z M73.756 8.195h6.146v2.049h-6.146z M81.951 8.195h2.049v2.049h-2.049z M0.0 10.244h2.049v2.049h-2.049z M12.293 10.244h2.049v2.049h-2.049z M16.39 10.244h6.146v2.049h-6.146z M24.585 10.244h2.049v2.049h-2.049z M28.683 10.244h8.195v2.049h-8.195z M38.927 10.244h2.049v2.049h-2.049z M43.024 10.244h2.049v2.049h-2.049z M53.268 10.244h2.049v2.049h-2.049z M63.512 10.244h4.098v2.049h-4.098z M69.659 10.244h2.049v2.049h-2.049z M81.951 10.244h2.049v2.049h-2.049z M0.0 12.293h14.341v2.049h-14.341z M16.39 12.293h2.049v2.049h-2.049z M20.488 12.293h2.049v2.049h-2.049z M24.585 12.293h2.049v2.049h-2.049z M28.683 12.293h2.049v2.049h-2.049z M32.78 12.293h2.049v2.049h-2.049z M36.878 12.293h2.049v2.049h-2.049z M40.976 12.293h2.049v2.049h-2.049z M45.073 12.293h2.049v2.049h-2.049z M49.171 12.293h2.049v2.049h-2.049z M53.268 12.293h2.049v2.049h-2.049z M57.366 12.293h2.049v2.049h-2.049z M61.463 12.293h2.049v2.049h-2.049z M65.561 12.293h2.049v2.049h-2.049z M69.659 12.293h14.341v2.049h-14.341z M16.39 14.341h8.195v2.049h-8.195z M26.634 14.341h6.146v2.049h-6.146z M34.829 14.341h2.049v2.049h-2.049z M38.927 14.341h8.195v2.049h-8.195z M49.171 14.341h2.049v2.049h-2.049z M55.317 14.341h6.146v2.049h-6.146z M63.512 14.341h2.049v2.049h-2.049z M0.0 16.39h2.049v2.049h-2.049z M8.195 16.39h2.049v2.049h-2.049z M12.293 16.39h6.146v2.049h-6.146z M26.634 16.39h6.146v2.049h-6.146z M34.829 16.39h2.049v2.049h-2.049z M40.976 16.39h8.195v2.049h-8.195z M57.366 16.39h4.098v2.049h-4.098z M63.512 16.39h2.049v2.049h-2.049z M67.61 16.39h10.244v2.049h-10.244z M81.951 16.39h2.049v2.049h-2.049z M4.098 18.439h4.098v2.049h-4.098z M10.244 18.439h2.049v2.049h-2.049z M16.39 18.439h2.049v2.049h-2.049z M20.488 18.439h4.098v2.049h-4.098z M28.683 18.439h6.146v2.049h-6.146z M36.878 18.439h2.049v2.049h-2.049z M40.976 18.439h2.049v2.049h-2.049z M47.122 18.439h2.049v2.049h-2.049z M51.22 18.439h2.049v2.049h-2.049z M55.317 18.439h2.049v2.049h-2.049z M61.463 18.439h2.049v2.049h-2.049z M67.61 18.439h2.049v2.049h-2.049z M71.707 18.439h6.146v2.049h-6.146z M79.902 18.439h4.098v2.049h-4.098z M0.0 20.488h4.098v2.049h-4.098z M6.146 20.488h2.049v2.049h-2.049z M12.293 20.488h2.049v2.049h-2.049z M16.39 20.488h4.098v2.049h-4.098z M22.537 20.488h2.049v2.049h-2.049z M26.634 20.488h2.049v2.049h-2.049z M30.732 20.488h4.098v2.049h-4.098z M43.024 20.488h2.049v2.049h-2.049z M47.122 20.488h2.049v2.049h-2.049z M51.22 20.488h2.049v2.049h-2.049z M55.317 20.488h6.146v2.049h-6.146z M65.561 20.488h2.049v2.049h-2.049z M81.951 20.488h2.049v2.049h-2.049z M0.0 22.537h6.146v2.049h-6.146z M10.244 22.537h2.049v2.049h-2.049z M16.39 22.537h2.049v2.049h-2.049z M22.537 22.537h2.049v2.049h-2.049z M28.683 22.537h2.049v2.049h-2.049z M34.829 22.537h16.39v2.049h-16.39z M59.415 22.537h2.049v2.049h-2.049z M63.512 22.537h14.341v2.049h-14.341z M81.951 22.537h2.049v2.049h-2.049z M2.049 24.585h12.293v2.049h-12.293z M18.439 24.585h4.098v2.049h-4.098z M24.585 24.585h2.049v2.049h-2.049z M28.683 24.585h2.049v2.049h-2.049z M34.829 24.585h2.049v2.049h-2.049z M40.976 24.585h6.146v2.049h-6.146z M53.268 24.585h4.098v2.049h-4.098z M59.415 24.585h4.098v2.049h-4.098z M67.61 24.585h2.049v2.049h-2.049z M71.707 24.585h2.049v2.049h-2.049z M79.902 24.585h2.049v2.049h-2.049z M0.0 26.634h2.049v2.049h-2.049z M4.098 26.634h4.098v2.049h-4.098z M14.341 26.634h2.049v2.049h-2.049z M20.488 26.634h2.049v2.049h-2.049z M24.585 26.634h2.049v2.049h-2.049z M30.732 26.634h10.244v2.049h-10.244z M43.024 26.634h2.049v2.049h-2.049z M49.171 26.634h2.049v2.049h-2.049z M53.268 26.634h8.195v2.049h-8.195z M63.512 26.634h2.049v2.049h-2.049z M69.659 26.634h6.146v2.049h-6.146z M79.902 26.634h4.098v2.049h-4.098z M0.0 28.683h4.098v2.049h-4.098z M10.244 28.683h6.146v2.049h-6.146z M18.439 28.683h2.049v2.049h-2.049z M22.537 28.683h2.049v2.049h-2.049z M28.683 28.683h4.098v2.049h-4.098z M36.878 28.683h4.098v2.049h-4.098z M47.122 28.683h4.098v2.049h-4.098z M55.317 28.683h2.049v2.049h-2.049z M67.61 28.683h4.098v2.049h-4.098z M73.756 28.683h6.146v2.049h-6.146z M81.951 28.683h2.049v2.049h-2.049z M4.098 30.732h2.049v2.049h-2.049z M8.195 30.732h4.098v2.049h-4.098z M20.488 30.732h2.049v2.049h-2.049z M24.585 30.732h2.049v2.049h-2.049z M30.732 30.732h14.341v2.049h-14.341z M47.122 30.732h2.049v2.049h-2.049z M53.268 30.732h4.098v2.049h-4.098z M59.415 30.732h4.098v2.049h-4.098z M65.561 30.732h2.049v2.049h-2.049z M71.707 30.732h2.049v2.049h-2.049z M75.805 30.732h2.049v2.049h-2.049z M81.951 30.732h2.049v2.049h-2.049z M4.098 32.78h2.049v2.049h-2.049z M12.293 32.78h2.049v2.049h-2.049z M18.439 32.78h2.049v2.049h-2.049z M28.683 32.78h2.049v2.049h-2.049z M34.829 32.78h2.049v2.049h-2.049z M40.976 32.78h2.049v2.049h-2.049z M45.073 32.78h2.049v2.049h-2.049z M59.415 32.78h2.049v2.049h-2.049z M63.512 32.78h4.098v2.049h-4.098z M71.707 32.78h2.049v2.049h-2.049z M79.902 32.78h2.049v2.049h-2.049z M0.0 34.829h4.098v2.049h-4.098z M6.146 34.829h2.049v2.049h-2.049z M10.244 34.829h2.049v2.049h-2.049z M14.341 34.829h4.098v2.049h-4.098z M20.488 34.829h2.049v2.049h-2.049z M24.585 34.829h2.049v2.049h-2.049z M32.78 34.829h4.098v2.049h-4.098z M38.927 34.829h2.049v2.049h-2.049z M47.122 34.829h2.049v2.049h-2.049z M51.22 34.829h4.098v2.049h-4.098z M57.366 34.829h2.049v2.049h-2.049z M61.463 34.829h2.049v2.049h-2.049z M67.61 34.829h12.293v2.049h-12.293z M81.951 34.829h2.049v2.049h-2.049z M6.146 36.878h8.195v2.049h-8.195z M18.439 36.878h2.049v2.049h-2.049z M22.537 36.878h6.146v2.049h-6.146z M30.732 36.878h4.098v2.049h-4.098z M36.878 36.878h2.049v2.049h-2.049z M40.976 36.878h10.244v2.049h-10.244z M53.268 36.878h4.098v2.049h-4.098z M59.415 36.878h4.098v2.049h-4.098z M65.561 36.878h2.049v2.049h-2.049z M69.659 36.878h4.098v2.049h-4.098z M77.854 36.878h6.146v2.049h-6.146z M2.049 38.927h4.098v2.049h-4.098z M8.195 38.927h2.049v2.049h-2.049z M14.341 38.927h4.098v2.049h-4.098z M26.634 38.927h2.049v2.049h-2.049z M32.78 38.927h2.049v2.049h-2.049z M38.927 38.927h6.146v2.049h-6.146z M59.415 38.927h2.049v2.049h-2.049z M65.561 38.927h8.195v2.049h-8.195z M75.805 38.927h2.049v2.049h-2.049z M81.951 38.927h2.049v2.049h-2.049z M0.0 40.976h4.098v2.049h-4.098z M8.195 40.976h6.146v2.049h-6.146z M16.39 40.976h2.049v2.049h-2.049z M22.537 40.976h6.146v2.049h-6.146z M30.732 40.976h2.049v2.049h-2.049z M49.171 40.976h2.049v2.049h-2.049z M53.268 40.976h8.195v2.049h-8.195z M63.512 40.976h2.049v2.049h-2.049z M67.61 40.976h2.049v2.049h-2.049z M75.805 40.976h2.049v2.049h-2.049z M79.902 40.976h4.098v2.049h-4.098z M2.049 43.024h2.049v2.049h-2.049z M8.195 43.024h4.098v2.049h-4.098z M16.39 43.024h2.049v2.049h-2.049z M24.585 43.024h4.098v2.049h-4.098z M30.732 43.024h4.098v2.049h-4.098z M36.878 43.024h4.098v2.049h-4.098z M45.073 43.024h12.293v2.049h-12.293z M61.463 43.024h2.049v2.049h-2.049z M65.561 43.024h10.244v2.049h-10.244z M77.854 43.024h2.049v2.049h-2.049z M81.951 43.024h2.049v2.049h-2.049z M0.0 45.073h4.098v2.049h-4.098z M8.195 45.073h2.049v2.049h-2.049z M12.293 45.073h8.195v2.049h-8.195z M26.634 45.073h2.049v2.049h-2.049z M30.732 45.073h2.049v2.049h-2.049z M43.024 45.073h6.146v2.049h-6.146z M53.268 45.073h4.098v2.049h-4.098z M59.415 45.073h4.098v2.049h-4.098z M65.561 45.073h2.049v2.049h-2.049z M73.756 45.073h2.049v2.049h-2.049z M81.951 45.073h2.049v2.049h-2.049z M2.049 47.122h2.049v2.049h-2.049z M10.244 47.122h2.049v2.049h-2.049z M16.39 47.122h8.195v2.049h-8.195z M28.683 47.122h10.244v2.049h-10.244z M43.024 47.122h2.049v2.049h-2.049z M49.171 47.122h2.049v2.049h-2.049z M59.415 47.122h8.195v2.049h-8.195z M71.707 47.122h2.049v2.049h-2.049z M75.805 47.122h2.049v2.049h-2.049z M79.902 47.122h4.098v2.049h-4.098z M0.0 49.171h2.049v2.049h-2.049z M6.146 49.171h4.098v2.049h-4.098z M12.293 49.171h2.049v2.049h-2.049z M20.488 49.171h4.098v2.049h-4.098z M28.683 49.171h2.049v2.049h-2.049z M34.829 49.171h2.049v2.049h-2.049z M40.976 49.171h6.146v2.049h-6.146z M49.171 49.171h2.049v2.049h-2.049z M55.317 49.171h2.049v2.049h-2.049z M59.415 49.171h2.049v2.049h-2.049z M65.561 49.171h4.098v2.049h-4.098z M71.707 49.171h2.049v2.049h-2.049z M77.854 49.171h2.049v2.049h-2.049z M0.0 51.22h4.098v2.049h-4.098z M6.146 51.22h6.146v2.049h-6.146z M14.341 51.22h2.049v2.049h-2.049z M20.488 51.22h4.098v2.049h-4.098z M36.878 51.22h2.049v2.049h-2.049z M47.122 51.22h2.049v2.049h-2.049z M55.317 51.22h2.049v2.049h-2.049z M61.463 51.22h2.049v2.049h-2.049z M65.561 51.22h4.098v2.049h-4.098z M71.707 51.22h4.098v2.049h-4.098z M77.854 51.22h2.049v2.049h-2.049z M81.951 51.22h2.049v2.049h-2.049z M2.049 53.268h2.049v2.049h-2.049z M6.146 53.268h2.049v2.049h-2.049z M10.244 53.268h6.146v2.049h-6.146z M20.488 53.268h2.049v2.049h-2.049z M26.634 53.268h12.293v2.049h-12.293z M40.976 53.268h4.098v2.049h-4.098z M47.122 53.268h12.293v2.049h-12.293z M65.561 53.268h2.049v2.049h-2.049z M71.707 53.268h2.049v2.049h-2.049z M81.951 53.268h2.049v2.049h-2.049z M2.049 55.317h2.049v2.049h-2.049z M10.244 55.317h2.049v2.049h-2.049z M14.341 55.317h2.049v2.049h-2.049z M18.439 55.317h4.098v2.049h-4.098z M24.585 55.317h2.049v2.049h-2.049z M32.78 55.317h12.293v2.049h-12.293z M49.171 55.317h2.049v2.049h-2.049z M53.268 55.317h8.195v2.049h-8.195z M63.512 55.317h4.098v2.049h-4.098z M75.805 55.317h2.049v2.049h-2.049z M79.902 55.317h2.049v2.049h-2.049z M0.0 57.366h4.098v2.049h-4.098z M8.195 57.366h2.049v2.049h-2.049z M12.293 57.366h6.146v2.049h-6.146z M24.585 57.366h2.049v2.049h-2.049z M30.732 57.366h2.049v2.049h-2.049z M34.829 57.366h2.049v2.049h-2.049z M43.024 57.366h8.195v2.049h-8.195z M53.268 57.366h4.098v2.049h-4.098z M59.415 57.366h4.098v2.049h-4.098z M65.561 57.366h4.098v2.049h-4.098z M71.707 57.366h2.049v2.049h-2.049z M79.902 57.366h4.098v2.049h-4.098z M0.0 59.415h2.049v2.049h-2.049z M4.098 59.415h2.049v2.049h-2.049z M10.244 59.415h2.049v2.049h-2.049z M14.341 59.415h8.195v2.049h-8.195z M30.732 59.415h2.049v2.049h-2.049z M36.878 59.415h6.146v2.049h-6.146z M51.22 59.415h2.049v2.049h-2.049z M55.317 59.415h6.146v2.049h-6.146z M67.61 59.415h16.39v2.049h-16.39z M12.293 61.463h8.195v2.049h-8.195z M22.537 61.463h10.244v2.049h-10.244z M34.829 61.463h4.098v2.049h-4.098z M40.976 61.463h6.146v2.049h-6.146z M51.22 61.463h12.293v2.049h-12.293z M65.561 61.463h4.098v2.049h-4.098z M73.756 61.463h2.049v2.049h-2.049z M81.951 61.463h2.049v2.049h-2.049z M4.098 63.512h4.098v2.049h-4.098z M18.439 63.512h2.049v2.049h-2.049z M24.585 63.512h6.146v2.049h-6.146z M34.829 63.512h2.049v2.049h-2.049z M43.024 63.512h2.049v2.049h-2.049z M49.171 63.512h2.049v2.049h-2.049z M53.268 63.512h2.049v2.049h-2.049z M57.366 63.512h4.098v2.049h-4.098z M65.561 63.512h4.098v2.049h-4.098z M73.756 63.512h4.098v2.049h-4.098z M0.0 65.561h4.098v2.049h-4.098z M12.293 65.561h10.244v2.049h-10.244z M24.585 65.561h2.049v2.049h-2.049z M34.829 65.561h2.049v2.049h-2.049z M38.927 65.561h2.049v2.049h-2.049z M45.073 65.561h4.098v2.049h-4.098z M57.366 65.561h4.098v2.049h-4.098z M63.512 65.561h14.341v2.049h-14.341z M16.39 67.61h6.146v2.049h-6.146z M26.634 67.61h6.146v2.049h-6.146z M36.878 67.61h4.098v2.049h-4.098z M43.024 67.61h2.049v2.049h-2.049z M47.122 67.61h2.049v2.049h-2.049z M53.268 67.61h2.049v2.049h-2.049z M57.366 67.61h4.098v2.049h-4.098z M63.512 67.61h4.098v2.049h-4.098z M73.756 67.61h4.098v2.049h-4.098z M81.951 67.61h2.049v2.049h-2.049z M0.0 69.659h14.341v2.049h-14.341z M16.39 69.659h8.195v2.049h-8.195z M26.634 69.659h2.049v2.049h-2.049z M30.732 69.659h2.049v2.049h-2.049z M34.829 69.659h2.049v2.049h-2.049z M40.976 69.659h2.049v2.049h-2.049z M47.122 69.659h10.244v2.049h-10.244z M59.415 69.659h2.049v2.049h-2.049z M63.512 69.659h4.098v2.049h-4.098z M69.659 69.659h2.049v2.049h-2.049z M73.756 69.659h4.098v2.049h-4.098z M81.951 69.659h2.049v2.049h-2.049z M0.0 71.707h2.049v2.049h-2.049z M12.293 71.707h2.049v2.049h-2.049z M24.585 71.707h14.341v2.049h-14.341z M45.073 71.707h6.146v2.049h-6.146z M53.268 71.707h8.195v2.049h-8.195z M63.512 71.707h4.098v2.049h-4.098z M73.756 71.707h4.098v2.049h-4.098z M0.0 73.756h2.049v2.049h-2.049z M4.098 73.756h6.146v2.049h-6.146z M12.293 73.756h2.049v2.049h-2.049z M16.39 73.756h2.049v2.049h-2.049z M20.488 73.756h2.049v2.049h-2.049z M24.585 73.756h2.049v2.049h-2.049z M28.683 73.756h6.146v2.049h-6.146z M36.878 73.756h2.049v2.049h-2.049z M40.976 73.756h2.049v2.049h-2.049z M45.073 73.756h2.049v2.049h-2.049z M51.22 73.756h6.146v2.049h-6.146z M59.415 73.756h2.049v2.049h-2.049z M63.512 73.756h12.293v2.049h-12.293z M79.902 73.756h4.098v2.049h-4.098z M0.0 75.805h2.049v2.049h-2.049z M4.098 75.805h6.146v2.049h-6.146z M12.293 75.805h2.049v2.049h-2.049z M18.439 75.805h2.049v2.049h-2.049z M22.537 75.805h6.146v2.049h-6.146z M30.732 75.805h6.146v2.049h-6.146z M47.122 75.805h10.244v2.049h-10.244z M71.707 75.805h2.049v2.049h-2.049z M81.951 75.805h2.049v2.049h-2.049z M0.0 77.854h2.049v2.049h-2.049z M4.098 77.854h6.146v2.049h-6.146z M12.293 77.854h2.049v2.049h-2.049z M18.439 77.854h6.146v2.049h-6.146z M28.683 77.854h2.049v2.049h-2.049z M32.78 77.854h6.146v2.049h-6.146z M40.976 77.854h2.049v2.049h-2.049z M47.122 77.854h2.049v2.049h-2.049z M51.22 77.854h8.195v2.049h-8.195z M63.512 77.854h2.049v2.049h-2.049z M67.61 77.854h2.049v2.049h-2.049z M75.805 77.854h4.098v2.049h-4.098z M81.951 77.854h2.049v2.049h-2.049z M0.0 79.902h2.049v2.049h-2.049z M12.293 79.902h2.049v2.049h-2.049z M26.634 79.902h4.098v2.049h-4.098z M38.927 79.902h2.049v2.049h-2.049z M43.024 79.902h2.049v2.049h-2.049z M47.122 79.902h2.049v2.049h-2.049z M53.268 79.902h2.049v2.049h-2.049z M59.415 79.902h4.098v2.049h-4.098z M65.561 79.902h8.195v2.049h-8.195z M75.805 79.902h2.049v2.049h-2.049z M79.902 79.902h4.098v2.049h-4.098z M0.0 81.951h14.341v2.049h-14.341z M16.39 81.951h4.098v2.049h-4.098z M24.585 81.951h2.049v2.049h-2.049z M32.78 81.951h14.341v2.049h-14.341z M49.171 81.951h2.049v2.049h-2.049z M59.415 81.951h2.049v2.049h-2.049z M63.512 81.951h18.439v2.049h-18.439z"/>
</g>
<text x="1122" y="614" font-family="Inter, Helvetica, Arial, sans-serif" font-size="10" font-weight="700" fill="#F5F7FA" text-anchor="middle">scan / full post</text>
</svg>
