<svg xmlns="http://www.w3.org/2000/svg" viewBox="0 0 1200 630" width="1200" height="630" role="img" aria-label="Weekly digest cover 2026.02.05: Claude 4.5 Blog Gen, Suno + Runway + D-ID, Python E2E Pipeline">
<!-- profile: high-quality-cover (L20 Hero+2-Card) -->
<title>AI content creator 2026: Claude 4.5, Qwen3-TTS, Suno, Runway, D-ID, Python pipeline</title>
<defs><linearGradient id="bgSpread" x1="0%" y1="0%" x2="100%" y2="100%"><stop offset="0%" stop-color="#0B1326"/><stop offset="55%" stop-color="#0D1530"/><stop offset="100%" stop-color="#141034"/></linearGradient><linearGradient id="heroPanel" x1="0%" y1="0%" x2="0%" y2="100%"><stop offset="0%" stop-color="#1A0A08"/><stop offset="100%" stop-color="#110608"/></linearGradient><linearGradient id="heroPanelBlue" x1="0%" y1="0%" x2="0%" y2="100%"><stop offset="0%" stop-color="#0A1A30"/><stop offset="100%" stop-color="#071426"/></linearGradient><linearGradient id="heroPanelAmber" x1="0%" y1="0%" x2="0%" y2="100%"><stop offset="0%" stop-color="#1A1208"/><stop offset="100%" stop-color="#120E06"/></linearGradient><linearGradient id="heroPanelGreen" x1="0%" y1="0%" x2="0%" y2="100%"><stop offset="0%" stop-color="#08160E"/><stop offset="100%" stop-color="#04100A"/></linearGradient><linearGradient id="heroPanelPurple" x1="0%" y1="0%" x2="0%" y2="100%"><stop offset="0%" stop-color="#110629"/><stop offset="100%" stop-color="#0A0418"/></linearGradient><radialGradient id="hotRed" cx="50%" cy="50%" r="50%"><stop offset="0%" stop-color="#E63946" stop-opacity="0.6"/><stop offset="100%" stop-color="#E63946" stop-opacity="0"/></radialGradient><radialGradient id="hotBlue" cx="50%" cy="50%" r="50%"><stop offset="0%" stop-color="#3A86FF" stop-opacity="0.5"/><stop offset="100%" stop-color="#3A86FF" stop-opacity="0"/></radialGradient><radialGradient id="hotAmber" cx="50%" cy="50%" r="50%"><stop offset="0%" stop-color="#FFB703" stop-opacity="0.45"/><stop offset="100%" stop-color="#FFB703" stop-opacity="0"/></radialGradient><radialGradient id="hotGreen" cx="50%" cy="50%" r="50%"><stop offset="0%" stop-color="#4ADE80" stop-opacity="0.45"/><stop offset="100%" stop-color="#4ADE80" stop-opacity="0"/></radialGradient><radialGradient id="hotPurple" cx="50%" cy="50%" r="50%"><stop offset="0%" stop-color="#A78BFA" stop-opacity="0.45"/><stop offset="100%" stop-color="#A78BFA" stop-opacity="0"/></radialGradient><pattern id="envGrid" x="0" y="0" width="40" height="40" patternUnits="userSpaceOnUse"><circle cx="20" cy="20" r="0.8" fill="#2A3256" opacity="0.55"/></pattern><filter id="softShadow" x="-10%" y="-10%" width="130%" height="130%"><feGaussianBlur in="SourceAlpha" stdDeviation="3"/><feOffset dx="2" dy="4"/><feComponentTransfer><feFuncA type="linear" slope="0.55"/></feComponentTransfer><feMerge><feMergeNode/><feMergeNode in="SourceGraphic"/></feMerge></filter><filter id="textShadow" x="-10%" y="-10%" width="130%" height="130%"><feGaussianBlur in="SourceAlpha" stdDeviation="1.2"/><feOffset dx="1" dy="1.5"/><feComponentTransfer><feFuncA type="linear" slope="0.7"/></feComponentTransfer><feMerge><feMergeNode/><feMergeNode in="SourceGraphic"/></feMerge></filter></defs>
<rect width="1200" height="630" fill="url(#bgSpread)"/>
<rect width="1200" height="630" fill="url(#envGrid)"/>
<circle cx="310" cy="310" r="160" fill="url(#hotRed)"><animate attributeName="opacity" values="0.6;1;0.6" dur="5.8s" repeatCount="indefinite"/></circle><circle cx="950" cy="210" r="120" fill="url(#hotBlue)"><animate attributeName="opacity" values="0.45;0.85;0.45" dur="6.4s" repeatCount="indefinite"/></circle><circle cx="970" cy="480" r="110" fill="url(#hotAmber)"><animate attributeName="opacity" values="0.4;0.75;0.4" dur="7.1s" repeatCount="indefinite"/></circle><g fill="#8FB8FF"><circle cx="180" cy="70" r="1.2"><animate attributeName="opacity" values="0.2;1;0.2" dur="3.4s" repeatCount="indefinite"/></circle><circle cx="440" cy="62" r="1"><animate attributeName="opacity" values="0.2;0.9;0.2" dur="4.2s" repeatCount="indefinite"/></circle><circle cx="740" cy="68" r="1.3"><animate attributeName="opacity" values="0.25;1;0.25" dur="3.9s" repeatCount="indefinite"/></circle><circle cx="1060" cy="74" r="0.9"><animate attributeName="opacity" values="0.2;0.85;0.2" dur="5.1s" repeatCount="indefinite"/></circle><circle cx="90" cy="580" r="1"><animate attributeName="opacity" values="0.15;0.8;0.15" dur="4.7s" repeatCount="indefinite"/></circle><circle cx="550" cy="590" r="0.8"><animate attributeName="opacity" values="0.2;0.75;0.2" dur="3.6s" begin="0.5s" repeatCount="indefinite"/></circle></g>
<g fill="#7DA3D9" opacity="0.85"><circle cx="252" cy="58" r="0.8"><animate attributeName="opacity" values="0.15;0.7;0.15" dur="4.3s" repeatCount="indefinite"/></circle><circle cx="368" cy="74" r="0.9"><animate attributeName="opacity" values="0.2;0.85;0.2" dur="3.8s" begin="0.4s" repeatCount="indefinite"/></circle><circle cx="624" cy="60" r="1.1"><animate attributeName="opacity" values="0.25;0.95;0.25" dur="4.5s" repeatCount="indefinite"/></circle><circle cx="858" cy="68" r="0.9"><animate attributeName="opacity" values="0.2;0.8;0.2" dur="3.6s" begin="0.6s" repeatCount="indefinite"/></circle><circle cx="996" cy="62" r="1.0"><animate attributeName="opacity" values="0.2;0.9;0.2" dur="4.0s" begin="0.2s" repeatCount="indefinite"/></circle><circle cx="1138" cy="76" r="0.8"><animate attributeName="opacity" values="0.15;0.7;0.15" dur="5.2s" begin="0.5s" repeatCount="indefinite"/></circle><circle cx="218" cy="596" r="0.9"><animate attributeName="opacity" values="0.18;0.75;0.18" dur="4.6s" begin="0.3s" repeatCount="indefinite"/></circle><circle cx="380" cy="608" r="1.0"><animate attributeName="opacity" values="0.2;0.85;0.2" dur="3.9s" begin="0.7s" repeatCount="indefinite"/></circle><circle cx="704" cy="600" r="0.8"><animate attributeName="opacity" values="0.18;0.7;0.18" dur="4.2s" begin="0.4s" repeatCount="indefinite"/></circle><circle cx="892" cy="608" r="1.1"><animate attributeName="opacity" values="0.22;0.9;0.22" dur="4.7s" begin="0.6s" repeatCount="indefinite"/></circle><circle cx="1078" cy="600" r="0.9"><animate attributeName="opacity" values="0.2;0.85;0.2" dur="3.6s" begin="0.8s" repeatCount="indefinite"/></circle></g>
<rect x="0" y="0" width="1200" height="56" fill="#050813" opacity="0.92"/>
<text x="36" y="36" font-family="Inter, Helvetica, Arial, sans-serif" font-size="18" font-weight="700" fill="#8FB8FF" letter-spacing="2.5">WEEKLY DIGEST</text>
<text x="1164" y="36" font-family="Inter, Helvetica, Arial, sans-serif" font-size="15" font-weight="600" fill="#7DA3D9" letter-spacing="1.5" text-anchor="end">2026.02.05</text>
<rect x="0" y="54" width="1200" height="2" fill="#E63946" opacity="0.85"><animate attributeName="opacity" values="0.4;1;0.4" dur="4.8s" repeatCount="indefinite"/></rect>
<rect x="32" y="80" width="600" height="510" rx="14" ry="14" fill="url(#heroPanel)" stroke="#E63946" stroke-width="1.8" opacity="0.98"/>
<circle cx="160" cy="300" r="240" fill="url(#hotRed)" opacity="0.28"/>
<rect x="32" y="80" width="600" height="4" fill="#E63946" opacity="0.85"><animate attributeName="opacity" values="0.5;1;0.5" dur="3.4s" repeatCount="indefinite"/></rect>
<g filter="url(#textShadow)">
<text x="54" y="112" font-family="Inter, Helvetica, Arial, sans-serif" font-size="13" font-weight="700" fill="#F87171" letter-spacing="3">BLOG GEN  /  01</text>
<text x="54" y="146" font-family="Inter, Helvetica, Arial, sans-serif" font-size="31" font-weight="800" fill="#F8FAFC">Claude 4.5 Blog Gen</text>
<text x="54" y="174" font-family="Inter, Helvetica, Arial, sans-serif" font-size="17" font-weight="500" fill="#FBB6BD">Claude Opus 4.5 blog generation with Qwen3-TTS open-source</text>
</g>
<g transform="translate(332,360)" opacity="0.32"><circle r="180" fill="none" stroke="#E63946" stroke-width="0.6" stroke-dasharray="2 4"/><circle r="140" fill="none" stroke="#E63946" stroke-width="0.6" stroke-dasharray="2 4" opacity="0.7"/><circle r="100" fill="none" stroke="#E63946" stroke-width="0.6" stroke-dasharray="2 4" opacity="0.5"/><g><path d="M0 0 L180 0 A180 180 0 0 1 127 127 Z" fill="#E63946" opacity="0.10"/><animateTransform attributeName="transform" type="rotate" from="0" to="360" dur="14s" repeatCount="indefinite"/></g></g>
<g stroke="#E63946" stroke-width="1.4" fill="none" opacity="0.7"><path d="M36 96 L36 84 L48 84"/><path d="M616 84 L628 84 L628 96"/><path d="M36 574 L36 586 L48 586"/><path d="M616 586 L628 586 L628 574"/></g>
<g><rect x="54" y="526" width="280" height="1" fill="#E63946" opacity="0.35"/><rect x="54" y="528" width="1" height="4" fill="#E63946" opacity="0.55"/><rect x="68" y="528" width="1" height="2" fill="#E63946" opacity="0.55"/><rect x="82" y="528" width="1" height="2" fill="#E63946" opacity="0.55"/><rect x="96" y="528" width="1" height="4" fill="#E63946" opacity="0.55"/><rect x="110" y="528" width="1" height="2" fill="#E63946" opacity="0.55"/><rect x="124" y="528" width="1" height="2" fill="#E63946" opacity="0.55"/><rect x="138" y="528" width="1" height="4" fill="#E63946" opacity="0.55"/><rect x="152" y="528" width="1" height="2" fill="#E63946" opacity="0.55"/><rect x="166" y="528" width="1" height="2" fill="#E63946" opacity="0.55"/><rect x="180" y="528" width="1" height="4" fill="#E63946" opacity="0.55"/><rect x="194" y="528" width="1" height="2" fill="#E63946" opacity="0.55"/><rect x="208" y="528" width="1" height="2" fill="#E63946" opacity="0.55"/><rect x="222" y="528" width="1" height="4" fill="#E63946" opacity="0.55"/><rect x="236" y="528" width="1" height="2" fill="#E63946" opacity="0.55"/><rect x="250" y="528" width="1" height="2" fill="#E63946" opacity="0.55"/><rect x="264" y="528" width="1" height="4" fill="#E63946" opacity="0.55"/><rect x="278" y="528" width="1" height="2" fill="#E63946" opacity="0.55"/><rect x="292" y="528" width="1" height="2" fill="#E63946" opacity="0.55"/><rect x="306" y="528" width="1" height="4" fill="#E63946" opacity="0.55"/><rect x="320" y="528" width="1" height="2" fill="#E63946" opacity="0.55"/><rect x="284" y="527" width="50" height="6" fill="#E63946" opacity="0.45"><animate attributeName="x" values="54;284;54" dur="6.4s" repeatCount="indefinite"/><animate attributeName="opacity" values="0.2;0.7;0.2" dur="6.4s" repeatCount="indefinite"/></rect></g>
<g transform="translate(332,360)"><circle cx="-110" cy="0" r="30" fill="#1A1208" stroke="#E63946" stroke-width="1.8" filter="url(#softShadow)"><animate attributeName="opacity" values="0.85;1;0.85" dur="3s" repeatCount="indefinite"/></circle><text x="-110" y="-4" text-anchor="middle" font-family="Inter, monospace" font-size="11" font-weight="900" fill="#F87171">AI</text><text x="-110" y="10" text-anchor="middle" font-family="Inter, monospace" font-size="8" font-weight="700" fill="#E63946">AGENT</text><circle cx="-110" cy="0" r="38" fill="none" stroke="#E63946" stroke-width="1"><animate attributeName="r" values="32;46;32" dur="2.2s" repeatCount="indefinite"/><animate attributeName="opacity" values="0.8;0;0.8" dur="2.2s" repeatCount="indefinite"/></circle><g transform="translate(-50,-32)" font-family="Inter, monospace" font-size="8" font-weight="700"><rect x="0" y="0" width="68" height="20" rx="3" fill="#1A1208" stroke="#E63946" stroke-width="1"/><text x="34" y="14" text-anchor="middle" fill="#F87171">DARK APP</text><rect x="0" y="26" width="68" height="20" rx="3" fill="#1A1208" stroke="#E63946" stroke-width="1" opacity="0.85"/><text x="34" y="40" text-anchor="middle" fill="#F87171">SHADOW ID</text><rect x="0" y="52" width="68" height="20" rx="3" fill="#1A1208" stroke="#E63946" stroke-width="1" opacity="0.7"/><text x="34" y="66" text-anchor="middle" fill="#F87171">UNMANAGED</text><line x1="-50" y1="0" x2="0" y2="10" stroke="#E63946" stroke-width="0.8" stroke-dasharray="2 2" opacity="0.6"/><line x1="-50" y1="0" x2="0" y2="36" stroke="#E63946" stroke-width="0.8" stroke-dasharray="2 2" opacity="0.5"/><line x1="-50" y1="0" x2="0" y2="62" stroke="#E63946" stroke-width="0.8" stroke-dasharray="2 2" opacity="0.4"/></g><g transform="translate(60,-40)" filter="url(#softShadow)"><rect x="0" y="0" width="140" height="90" rx="6" fill="#0A0C16" stroke="#E63946" stroke-width="1.4"/><text x="70" y="18" text-anchor="middle" font-family="Inter, monospace" font-size="9" font-weight="800" fill="#F87171">EXPOSED FLEET</text><text x="70" y="32" text-anchor="middle" font-family="Inter, monospace" font-size="8" font-weight="600" fill="#FCA5A5">scaled abuse surface</text><g transform="translate(8,42)" fill="#E63946"><rect x="0" y="0" width="14" height="10" rx="2"/><rect x="18" y="0" width="14" height="10" rx="2" opacity="0.85"/><rect x="36" y="0" width="14" height="10" rx="2" opacity="0.7"/><rect x="54" y="0" width="14" height="10" rx="2" opacity="0.55"/><rect x="72" y="0" width="14" height="10" rx="2" opacity="0.4"><animate attributeName="opacity" values="0.2;0.6;0.2" dur="1.4s" repeatCount="indefinite"/></rect><rect x="90" y="0" width="14" height="10" rx="2" opacity="0.25"><animate attributeName="opacity" values="0.1;0.5;0.1" dur="1.8s" begin="0.3s" repeatCount="indefinite"/></rect><rect x="108" y="0" width="14" height="10" rx="2" opacity="0.2"><animate attributeName="opacity" values="0.1;0.4;0.1" dur="2s" begin="0.5s" repeatCount="indefinite"/></rect></g><text x="70" y="74" text-anchor="middle" font-family="Inter, monospace" font-size="8" font-weight="700" fill="#E63946">automated abuse vector</text></g></g>
<g transform="translate(54,548)">
<rect x="0" y="0" width="280" height="24" rx="3" fill="#E63946" opacity="0.95"/>
<text x="140" y="17" text-anchor="middle" font-family="Inter, Helvetica, Arial, sans-serif" font-size="12" font-weight="700" fill="#FFFFFF">PILOT + AUDIT API KEYS</text>
</g>
<text x="350" y="566" font-family="Inter, Helvetica, Arial, sans-serif" font-size="13" font-weight="600" fill="#A5B4C4" font-style="italic">Weekly Digest  /  2026.02.05</text>
<rect x="652" y="80" width="516" height="248" rx="14" ry="14" fill="url(#heroPanelAmber)" stroke="#FFB703" stroke-width="1.6" opacity="0.97"/>
<rect x="652" y="80" width="516" height="4" fill="#FFB703" opacity="0.85"><animate attributeName="opacity" values="0.5;1;0.5" dur="4.2s" repeatCount="indefinite"/></rect>
<g filter="url(#textShadow)">
<text x="670" y="110" font-family="Inter, Helvetica, Arial, sans-serif" font-size="12" font-weight="700" fill="#FFB703" letter-spacing="3">VIDEO + MUSIC  /  02</text>
<text x="670" y="140" font-family="Inter, Helvetica, Arial, sans-serif" font-size="24" font-weight="800" fill="#F5F7FA">Suno + Runway + D-ID</text>
<text x="670" y="163" font-family="Inter, Helvetica, Arial, sans-serif" font-size="14" font-weight="500" fill="#FFD58A">Suno music Runway Gen-3 video and D-ID animation in</text>
</g>
<g stroke="#FFB703" stroke-width="1.4" fill="none" opacity="0.7"><path d="M656 93 L656 84 L665 84"/><path d="M1155 84 L1164 84 L1164 93"/><path d="M656 315 L656 324 L665 324"/><path d="M1155 324 L1164 324 L1164 315"/></g>
<g transform="translate(800,230)"><g transform="translate(-160,-50)" filter="url(#softShadow)"><ellipse cx="40" cy="6" rx="40" ry="8" fill="#0A1B2E" stroke="#2CCCE4" stroke-width="1.6"/><rect x="0" y="6" width="80" height="56" fill="#0A1B2E" stroke="#2CCCE4" stroke-width="1.6"/><ellipse cx="40" cy="62" rx="40" ry="8" fill="#0A1B2E" stroke="#2CCCE4" stroke-width="1.6"/><ellipse cx="40" cy="22" rx="40" ry="6" fill="none" stroke="#2CCCE4" stroke-width="0.8" opacity="0.6"/><ellipse cx="40" cy="40" rx="40" ry="6" fill="none" stroke="#2CCCE4" stroke-width="0.8" opacity="0.6"/><text x="40" y="84" text-anchor="middle" font-family="Inter, monospace" font-size="10" font-weight="800" fill="#2CCCE4">DB / S3</text><text x="40" y="98" text-anchor="middle" font-family="Inter, monospace" font-size="8" font-weight="600" fill="#7ED4E5">PII  /  secrets</text></g><g transform="translate(80,-50)" filter="url(#softShadow)"><rect x="0" y="0" width="80" height="80" rx="8" fill="#1E0A0A" stroke="#FFB703" stroke-width="2"/><text x="40" y="22" text-anchor="middle" font-family="Inter, monospace" font-size="10" font-weight="900" fill="#FFD58A">ATTACKER</text><g transform="translate(20,32)" stroke="#FFD58A" stroke-width="1.6" fill="none"><circle cx="20" cy="10" r="8"/><path d="M6 32 Q20 22 34 32"/></g><text x="40" y="74" text-anchor="middle" font-family="Inter, monospace" font-size="8" font-weight="700" fill="#FCA5A5">offshore relay</text></g><g stroke="#FFB703" stroke-width="1.4" stroke-dasharray="4 3" fill="none"><path d="M-80 -10 L80 -10"><animate attributeName="stroke-dashoffset" values="0;-14" dur="1.2s" repeatCount="indefinite"/></path><path d="M-80 0 L80 0"><animate attributeName="stroke-dashoffset" values="0;-14" dur="1.4s" begin="0.2s" repeatCount="indefinite"/></path><path d="M-80 10 L80 10"><animate attributeName="stroke-dashoffset" values="0;-14" dur="1s" begin="0.4s" repeatCount="indefinite"/></path></g><g fill="#FFD58A"><circle r="2.4"><animateMotion path="M-80 -10 L80 -10" dur="2s" repeatCount="indefinite"/></circle><circle r="2.4"><animateMotion path="M-80 0 L80 0" dur="2.2s" begin="0.4s" repeatCount="indefinite"/></circle><circle r="2.4"><animateMotion path="M-80 10 L80 10" dur="2.4s" begin="0.8s" repeatCount="indefinite"/></circle></g><text x="0" y="40" text-anchor="middle" font-family="Inter, Helvetica, Arial, sans-serif" font-size="10" font-weight="700" fill="#FFB703" letter-spacing="2">DATA EXFILTRATION</text></g>
<g transform="translate(1094,168)" filter="url(#softShadow)"><rect x="-68" y="-55" width="140" height="110" rx="10" fill="#1A1208" stroke="#FFB703" stroke-width="2"/><text x="2" y="-28" text-anchor="middle" font-family="Inter, Helvetica, Arial, sans-serif" font-size="10" font-weight="700" letter-spacing="2" fill="#FFB703">RUN</text><text x="2" y="18" text-anchor="middle" font-family="Inter, Helvetica, Arial, sans-serif" font-size="28" font-weight="900" fill="#F5F7FA">SUN</text><text x="2" y="40" text-anchor="middle" font-family="Inter, Helvetica, Arial, sans-serif" font-size="10" font-weight="600" fill="#FFD58A">DID</text></g>
<rect x="652" y="344" width="516" height="246" rx="14" ry="14" fill="url(#heroPanelBlue)" stroke="#3A86FF" stroke-width="1.6" opacity="0.97"/>
<rect x="652" y="344" width="516" height="4" fill="#3A86FF" opacity="0.85"><animate attributeName="opacity" values="0.5;1;0.5" dur="4.8s" repeatCount="indefinite"/></rect>
<g filter="url(#textShadow)">
<text x="670" y="374" font-family="Inter, Helvetica, Arial, sans-serif" font-size="12" font-weight="700" fill="#7DA3D9" letter-spacing="3">PIPELINE  /  03</text>
<text x="670" y="404" font-family="Inter, Helvetica, Arial, sans-serif" font-size="24" font-weight="800" fill="#F5F7FA">Python E2E Pipeline</text>
<text x="670" y="428" font-family="Inter, Helvetica, Arial, sans-serif" font-size="14" font-weight="500" fill="#BFC9D9">Python end-to-end pipeline and three case studies</text>
</g>
<g stroke="#3A86FF" stroke-width="1.4" fill="none" opacity="0.7"><path d="M656 357 L656 348 L665 348"/><path d="M1155 348 L1164 348 L1164 357"/><path d="M656 577 L656 586 L665 586"/><path d="M1155 586 L1164 586 L1164 577"/></g>
<g transform="translate(800,490)" font-family="Inter, monospace" font-weight="800"><g transform="translate(-200,-30)"><rect x="0" y="0" width="80" height="60" rx="6" fill="#0A1628" stroke="#3A86FF" stroke-width="1.4"/><text x="40" y="22" text-anchor="middle" font-size="10" fill="#8FB8FF">SOURCE</text><text x="40" y="40" text-anchor="middle" font-size="8" font-weight="600" fill="#BFC9D9">git repo</text><text x="40" y="52" text-anchor="middle" font-size="8" font-weight="600" fill="#BFC9D9">commits</text></g><g transform="translate(-100,-30)"><rect x="0" y="0" width="80" height="60" rx="6" fill="#1E1805" stroke="#3A86FF" stroke-width="2"><animate attributeName="stroke-opacity" values="0.6;1;0.6" dur="1.8s" repeatCount="indefinite"/></rect><text x="40" y="22" text-anchor="middle" font-size="10" fill="#60A5FA">CI / BUILD</text><text x="40" y="40" text-anchor="middle" font-size="8" font-weight="600" fill="#3A86FF">poisoned step</text><circle cx="68" cy="12" r="5" fill="#E63946"><animate attributeName="opacity" values="0.4;1;0.4" dur="1.2s" repeatCount="indefinite"/></circle></g><g transform="translate(0,-30)"><rect x="0" y="0" width="80" height="60" rx="6" fill="#0A1B2E" stroke="#2CCCE4" stroke-width="1.4"/><text x="40" y="22" text-anchor="middle" font-size="10" fill="#2CCCE4">REGISTRY</text><text x="40" y="40" text-anchor="middle" font-size="8" font-weight="600" fill="#7ED4E5">images</text><text x="40" y="52" text-anchor="middle" font-size="8" font-weight="600" fill="#7ED4E5">artifacts</text></g><g transform="translate(100,-30)"><rect x="0" y="0" width="80" height="60" rx="6" fill="#062012" stroke="#4ADE80" stroke-width="1.4"/><text x="40" y="22" text-anchor="middle" font-size="10" fill="#4ADE80">DEPLOY</text><text x="40" y="40" text-anchor="middle" font-size="8" font-weight="600" fill="#86EFAC">prod cluster</text><text x="40" y="52" text-anchor="middle" font-size="8" font-weight="600" fill="#86EFAC">tainted</text></g><g stroke="#3A86FF" stroke-width="2" fill="none" stroke-linecap="round"><path d="M-120 0 L-100 0" stroke-dasharray="3 2"><animate attributeName="stroke-dashoffset" values="0;-10" dur="1s" repeatCount="indefinite"/></path><path d="M-20 0 L0 0" stroke-dasharray="3 2"><animate attributeName="stroke-dashoffset" values="0;-10" dur="1s" repeatCount="indefinite"/></path><path d="M80 0 L100 0" stroke-dasharray="3 2"><animate attributeName="stroke-dashoffset" values="0;-10" dur="1s" repeatCount="indefinite"/></path></g><g fill="#60A5FA"><circle r="2.4"><animateMotion path="M-120 0 L100 0" dur="3.6s" repeatCount="indefinite"/></circle><circle r="2" opacity="0.7"><animateMotion path="M-120 0 L100 0" dur="3.6s" begin="1.2s" repeatCount="indefinite"/></circle></g><text x="0" y="56" text-anchor="middle" font-family="Inter, Helvetica, Arial, sans-serif" font-size="10" font-weight="700" fill="#3A86FF" letter-spacing="2">SUPPLY-CHAIN POISON</text></g>
<g transform="translate(1094,414)" filter="url(#softShadow)"><rect x="-68" y="-55" width="140" height="110" rx="10" fill="#071426" stroke="#3A86FF" stroke-width="2"/><text x="2" y="-28" text-anchor="middle" font-family="Inter, Helvetica, Arial, sans-serif" font-size="10" font-weight="700" letter-spacing="2" fill="#7DA3D9">PY</text><text x="2" y="18" text-anchor="middle" font-family="Inter, Helvetica, Arial, sans-serif" font-size="28" font-weight="900" fill="#F5F7FA">E2E</text><text x="2" y="40" text-anchor="middle" font-family="Inter, Helvetica, Arial, sans-serif" font-size="10" font-weight="600" fill="#BFC9D9">case</text></g>
<g opacity="0.85"><g fill="#F87171"><circle cx="1104" cy="110" r="1.4"><animate attributeName="opacity" values="0.2;1;0.2" dur="1.8s" repeatCount="indefinite"/></circle><circle cx="1124" cy="110" r="1.4"><animate attributeName="opacity" values="0.2;1;0.2" dur="1.4s" begin="0.3s" repeatCount="indefinite"/></circle></g><g fill="#7DA3D9"><circle cx="1104" cy="218" r="1.2"><animate attributeName="opacity" values="0.2;1;0.2" dur="2s" repeatCount="indefinite"/></circle><circle cx="1124" cy="218" r="1.2"><animate attributeName="opacity" values="0.2;1;0.2" dur="1.6s" begin="0.4s" repeatCount="indefinite"/></circle></g><g fill="#FFD58A"><circle cx="1104" cy="374" r="1.4"><animate attributeName="opacity" values="0.2;1;0.2" dur="1.8s" repeatCount="indefinite"/></circle><circle cx="1124" cy="374" r="1.4"><animate attributeName="opacity" values="0.2;1;0.2" dur="1.6s" begin="0.3s" repeatCount="indefinite"/></circle></g><g stroke="#E63946" stroke-width="0.5" fill="none"><path d="M20 230 L28 230"><animate attributeName="stroke-opacity" values="0;0.7;0" dur="2s" repeatCount="indefinite"/></path><path d="M20 300 L28 300"><animate attributeName="stroke-opacity" values="0;0.7;0" dur="2.3s" begin="0.3s" repeatCount="indefinite"/></path><path d="M20 370 L28 370"><animate attributeName="stroke-opacity" values="0;0.7;0" dur="1.9s" begin="0.6s" repeatCount="indefinite"/></path><path d="M20 440 L28 440"><animate attributeName="stroke-opacity" values="0;0.7;0" dur="2.1s" begin="0.9s" repeatCount="indefinite"/></path></g></g>
<g transform="translate(1080,504)" filter="url(#softShadow)">
  <rect x="-12" y="-12" width="132" height="132" rx="8" fill="#FFFFFF"/>
  <path fill="#0A1020" d="M0.0 0.0h18.439v2.634h-18.439z M26.341 0.0h2.634v2.634h-2.634z M31.61 0.0h2.634v2.634h-2.634z M42.146 0.0h5.268v2.634h-5.268z M52.683 0.0h2.634v2.634h-2.634z M57.951 0.0h2.634v2.634h-2.634z M73.756 0.0h5.268v2.634h-5.268z M81.659 0.0h5.268v2.634h-5.268z M89.561 0.0h18.439v2.634h-18.439z M0.0 2.634h2.634v2.634h-2.634z M15.805 2.634h2.634v2.634h-2.634z M28.976 2.634h7.902v2.634h-7.902z M44.78 2.634h2.634v2.634h-2.634z M55.317 2.634h5.268v2.634h-5.268z M65.854 2.634h2.634v2.634h-2.634z M71.122 2.634h2.634v2.634h-2.634z M76.39 2.634h2.634v2.634h-2.634z M84.293 2.634h2.634v2.634h-2.634z M89.561 2.634h2.634v2.634h-2.634z M105.366 2.634h2.634v2.634h-2.634z M0.0 5.268h2.634v2.634h-2.634z M5.268 5.268h7.902v2.634h-7.902z M15.805 5.268h2.634v2.634h-2.634z M21.073 5.268h5.268v2.634h-5.268z M28.976 5.268h15.805v2.634h-15.805z M47.415 5.268h15.805v2.634h-15.805z M68.488 5.268h2.634v2.634h-2.634z M81.659 5.268h5.268v2.634h-5.268z M89.561 5.268h2.634v2.634h-2.634z M94.829 5.268h7.902v2.634h-7.902z M105.366 5.268h2.634v2.634h-2.634z M0.0 7.902h2.634v2.634h-2.634z M5.268 7.902h7.902v2.634h-7.902z M15.805 7.902h2.634v2.634h-2.634z M21.073 7.902h2.634v2.634h-2.634z M31.61 7.902h7.902v2.634h-7.902z M44.78 7.902h5.268v2.634h-5.268z M57.951 7.902h2.634v2.634h-2.634z M63.22 7.902h2.634v2.634h-2.634z M68.488 7.902h7.902v2.634h-7.902z M81.659 7.902h5.268v2.634h-5.268z M89.561 7.902h2.634v2.634h-2.634z M94.829 7.902h7.902v2.634h-7.902z M105.366 7.902h2.634v2.634h-2.634z M0.0 10.537h2.634v2.634h-2.634z M5.268 10.537h7.902v2.634h-7.902z M15.805 10.537h2.634v2.634h-2.634z M21.073 10.537h2.634v2.634h-2.634z M26.341 10.537h5.268v2.634h-5.268z M42.146 10.537h15.805v2.634h-15.805z M68.488 10.537h2.634v2.634h-2.634z M79.024 10.537h5.268v2.634h-5.268z M89.561 10.537h2.634v2.634h-2.634z M94.829 10.537h7.902v2.634h-7.902z M105.366 10.537h2.634v2.634h-2.634z M0.0 13.171h2.634v2.634h-2.634z M15.805 13.171h2.634v2.634h-2.634z M21.073 13.171h2.634v2.634h-2.634z M28.976 13.171h2.634v2.634h-2.634z M42.146 13.171h5.268v2.634h-5.268z M52.683 13.171h2.634v2.634h-2.634z M65.854 13.171h2.634v2.634h-2.634z M71.122 13.171h2.634v2.634h-2.634z M89.561 13.171h2.634v2.634h-2.634z M105.366 13.171h2.634v2.634h-2.634z M0.0 15.805h18.439v2.634h-18.439z M21.073 15.805h2.634v2.634h-2.634z M26.341 15.805h2.634v2.634h-2.634z M31.61 15.805h2.634v2.634h-2.634z M36.878 15.805h2.634v2.634h-2.634z M42.146 15.805h2.634v2.634h-2.634z M47.415 15.805h2.634v2.634h-2.634z M52.683 15.805h2.634v2.634h-2.634z M57.951 15.805h2.634v2.634h-2.634z M63.22 15.805h2.634v2.634h-2.634z M68.488 15.805h2.634v2.634h-2.634z M73.756 15.805h2.634v2.634h-2.634z M79.024 15.805h2.634v2.634h-2.634z M84.293 15.805h2.634v2.634h-2.634z M89.561 15.805h18.439v2.634h-18.439z M21.073 18.439h10.537v2.634h-10.537z M36.878 18.439h2.634v2.634h-2.634z M42.146 18.439h2.634v2.634h-2.634z M47.415 18.439h10.537v2.634h-10.537z M60.585 18.439h2.634v2.634h-2.634z M71.122 18.439h2.634v2.634h-2.634z M79.024 18.439h5.268v2.634h-5.268z M0.0 21.073h2.634v2.634h-2.634z M5.268 21.073h13.171v2.634h-13.171z M26.341 21.073h2.634v2.634h-2.634z M31.61 21.073h5.268v2.634h-5.268z M39.512 21.073h2.634v2.634h-2.634z M44.78 21.073h2.634v2.634h-2.634z M50.049 21.073h2.634v2.634h-2.634z M57.951 21.073h5.268v2.634h-5.268z M65.854 21.073h13.171v2.634h-13.171z M84.293 21.073h2.634v2.634h-2.634z M89.561 21.073h13.171v2.634h-13.171z M5.268 23.707h5.268v2.634h-5.268z M13.171 23.707h2.634v2.634h-2.634z M42.146 23.707h10.537v2.634h-10.537z M55.317 23.707h2.634v2.634h-2.634z M60.585 23.707h2.634v2.634h-2.634z M68.488 23.707h2.634v2.634h-2.634z M79.024 23.707h18.439v2.634h-18.439z M100.098 23.707h7.902v2.634h-7.902z M10.537 26.341h7.902v2.634h-7.902z M31.61 26.341h2.634v2.634h-2.634z M42.146 26.341h5.268v2.634h-5.268z M55.317 26.341h2.634v2.634h-2.634z M63.22 26.341h5.268v2.634h-5.268z M71.122 26.341h2.634v2.634h-2.634z M79.024 26.341h2.634v2.634h-2.634z M84.293 26.341h7.902v2.634h-7.902z M7.902 28.976h7.902v2.634h-7.902z M21.073 28.976h13.171v2.634h-13.171z M47.415 28.976h13.171v2.634h-13.171z M73.756 28.976h2.634v2.634h-2.634z M79.024 28.976h7.902v2.634h-7.902z M94.829 28.976h5.268v2.634h-5.268z M105.366 28.976h2.634v2.634h-2.634z M0.0 31.61h2.634v2.634h-2.634z M7.902 31.61h2.634v2.634h-2.634z M13.171 31.61h10.537v2.634h-10.537z M31.61 31.61h2.634v2.634h-2.634z M36.878 31.61h2.634v2.634h-2.634z M44.78 31.61h2.634v2.634h-2.634z M50.049 31.61h2.634v2.634h-2.634z M55.317 31.61h5.268v2.634h-5.268z M63.22 31.61h5.268v2.634h-5.268z M76.39 31.61h10.537v2.634h-10.537z M92.195 31.61h2.634v2.634h-2.634z M97.463 31.61h5.268v2.634h-5.268z M105.366 31.61h2.634v2.634h-2.634z M5.268 34.244h2.634v2.634h-2.634z M10.537 34.244h5.268v2.634h-5.268z M23.707 34.244h2.634v2.634h-2.634z M42.146 34.244h5.268v2.634h-5.268z M50.049 34.244h5.268v2.634h-5.268z M60.585 34.244h2.634v2.634h-2.634z M65.854 34.244h2.634v2.634h-2.634z M73.756 34.244h2.634v2.634h-2.634z M84.293 34.244h18.439v2.634h-18.439z M105.366 34.244h2.634v2.634h-2.634z M2.634 36.878h2.634v2.634h-2.634z M7.902 36.878h2.634v2.634h-2.634z M15.805 36.878h5.268v2.634h-5.268z M26.341 36.878h2.634v2.634h-2.634z M36.878 36.878h5.268v2.634h-5.268z M44.78 36.878h2.634v2.634h-2.634z M52.683 36.878h2.634v2.634h-2.634z M57.951 36.878h2.634v2.634h-2.634z M65.854 36.878h2.634v2.634h-2.634z M71.122 36.878h10.537v2.634h-10.537z M84.293 36.878h5.268v2.634h-5.268z M92.195 36.878h2.634v2.634h-2.634z M97.463 36.878h5.268v2.634h-5.268z M7.902 39.512h2.634v2.634h-2.634z M13.171 39.512h2.634v2.634h-2.634z M21.073 39.512h5.268v2.634h-5.268z M28.976 39.512h2.634v2.634h-2.634z M34.244 39.512h2.634v2.634h-2.634z M39.512 39.512h2.634v2.634h-2.634z M50.049 39.512h10.537v2.634h-10.537z M63.22 39.512h2.634v2.634h-2.634z M68.488 39.512h5.268v2.634h-5.268z M79.024 39.512h7.902v2.634h-7.902z M89.561 39.512h2.634v2.634h-2.634z M94.829 39.512h5.268v2.634h-5.268z M102.732 39.512h5.268v2.634h-5.268z M0.0 42.146h5.268v2.634h-5.268z M10.537 42.146h2.634v2.634h-2.634z M15.805 42.146h5.268v2.634h-5.268z M23.707 42.146h2.634v2.634h-2.634z M28.976 42.146h5.268v2.634h-5.268z M39.512 42.146h2.634v2.634h-2.634z M50.049 42.146h5.268v2.634h-5.268z M60.585 42.146h2.634v2.634h-2.634z M65.854 42.146h5.268v2.634h-5.268z M73.756 42.146h2.634v2.634h-2.634z M81.659 42.146h2.634v2.634h-2.634z M86.927 42.146h2.634v2.634h-2.634z M92.195 42.146h2.634v2.634h-2.634z M97.463 42.146h5.268v2.634h-5.268z M105.366 42.146h2.634v2.634h-2.634z M0.0 44.78h2.634v2.634h-2.634z M7.902 44.78h7.902v2.634h-7.902z M21.073 44.78h10.537v2.634h-10.537z M34.244 44.78h5.268v2.634h-5.268z M42.146 44.78h10.537v2.634h-10.537z M55.317 44.78h7.902v2.634h-7.902z M65.854 44.78h2.634v2.634h-2.634z M73.756 44.78h5.268v2.634h-5.268z M81.659 44.78h5.268v2.634h-5.268z M89.561 44.78h10.537v2.634h-10.537z M102.732 44.78h5.268v2.634h-5.268z M0.0 47.415h2.634v2.634h-2.634z M7.902 47.415h10.537v2.634h-10.537z M21.073 47.415h5.268v2.634h-5.268z M31.61 47.415h2.634v2.634h-2.634z M36.878 47.415h5.268v2.634h-5.268z M44.78 47.415h2.634v2.634h-2.634z M55.317 47.415h2.634v2.634h-2.634z M65.854 47.415h10.537v2.634h-10.537z M94.829 47.415h2.634v2.634h-2.634z M102.732 47.415h2.634v2.634h-2.634z M0.0 50.049h5.268v2.634h-5.268z M10.537 50.049h5.268v2.634h-5.268z M31.61 50.049h5.268v2.634h-5.268z M39.512 50.049h5.268v2.634h-5.268z M50.049 50.049h2.634v2.634h-2.634z M55.317 50.049h7.902v2.634h-7.902z M68.488 50.049h2.634v2.634h-2.634z M73.756 50.049h2.634v2.634h-2.634z M84.293 50.049h5.268v2.634h-5.268z M94.829 50.049h5.268v2.634h-5.268z M5.268 52.683h2.634v2.634h-2.634z M15.805 52.683h2.634v2.634h-2.634z M21.073 52.683h5.268v2.634h-5.268z M28.976 52.683h2.634v2.634h-2.634z M36.878 52.683h2.634v2.634h-2.634z M42.146 52.683h2.634v2.634h-2.634z M47.415 52.683h2.634v2.634h-2.634z M57.951 52.683h7.902v2.634h-7.902z M68.488 52.683h2.634v2.634h-2.634z M73.756 52.683h5.268v2.634h-5.268z M84.293 52.683h2.634v2.634h-2.634z M97.463 52.683h2.634v2.634h-2.634z M105.366 52.683h2.634v2.634h-2.634z M0.0 55.317h5.268v2.634h-5.268z M7.902 55.317h2.634v2.634h-2.634z M23.707 55.317h5.268v2.634h-5.268z M31.61 55.317h2.634v2.634h-2.634z M39.512 55.317h5.268v2.634h-5.268z M47.415 55.317h18.439v2.634h-18.439z M81.659 55.317h2.634v2.634h-2.634z M89.561 55.317h10.537v2.634h-10.537z M102.732 55.317h5.268v2.634h-5.268z M2.634 57.951h5.268v2.634h-5.268z M13.171 57.951h7.902v2.634h-7.902z M26.341 57.951h7.902v2.634h-7.902z M39.512 57.951h2.634v2.634h-2.634z M44.78 57.951h5.268v2.634h-5.268z M52.683 57.951h5.268v2.634h-5.268z M68.488 57.951h7.902v2.634h-7.902z M84.293 57.951h2.634v2.634h-2.634z M97.463 57.951h5.268v2.634h-5.268z M0.0 60.585h7.902v2.634h-7.902z M18.439 60.585h2.634v2.634h-2.634z M23.707 60.585h10.537v2.634h-10.537z M36.878 60.585h2.634v2.634h-2.634z M42.146 60.585h2.634v2.634h-2.634z M50.049 60.585h2.634v2.634h-2.634z M55.317 60.585h5.268v2.634h-5.268z M73.756 60.585h2.634v2.634h-2.634z M81.659 60.585h5.268v2.634h-5.268z M92.195 60.585h7.902v2.634h-7.902z M2.634 63.22h2.634v2.634h-2.634z M7.902 63.22h10.537v2.634h-10.537z M23.707 63.22h2.634v2.634h-2.634z M28.976 63.22h5.268v2.634h-5.268z M36.878 63.22h5.268v2.634h-5.268z M44.78 63.22h2.634v2.634h-2.634z M57.951 63.22h2.634v2.634h-2.634z M63.22 63.22h7.902v2.634h-7.902z M76.39 63.22h2.634v2.634h-2.634z M81.659 63.22h2.634v2.634h-2.634z M92.195 63.22h2.634v2.634h-2.634z M97.463 63.22h2.634v2.634h-2.634z M102.732 63.22h5.268v2.634h-5.268z M0.0 65.854h7.902v2.634h-7.902z M10.537 65.854h2.634v2.634h-2.634z M21.073 65.854h5.268v2.634h-5.268z M28.976 65.854h5.268v2.634h-5.268z M42.146 65.854h2.634v2.634h-2.634z M47.415 65.854h7.902v2.634h-7.902z M60.585 65.854h2.634v2.634h-2.634z M65.854 65.854h5.268v2.634h-5.268z M79.024 65.854h5.268v2.634h-5.268z M86.927 65.854h13.171v2.634h-13.171z M102.732 65.854h5.268v2.634h-5.268z M0.0 68.488h5.268v2.634h-5.268z M15.805 68.488h13.171v2.634h-13.171z M31.61 68.488h2.634v2.634h-2.634z M36.878 68.488h5.268v2.634h-5.268z M52.683 68.488h5.268v2.634h-5.268z M65.854 68.488h7.902v2.634h-7.902z M76.39 68.488h5.268v2.634h-5.268z M84.293 68.488h2.634v2.634h-2.634z M92.195 68.488h2.634v2.634h-2.634z M0.0 71.122h7.902v2.634h-7.902z M21.073 71.122h13.171v2.634h-13.171z M36.878 71.122h2.634v2.634h-2.634z M42.146 71.122h2.634v2.634h-2.634z M47.415 71.122h15.805v2.634h-15.805z M68.488 71.122h5.268v2.634h-5.268z M79.024 71.122h10.537v2.634h-10.537z M94.829 71.122h5.268v2.634h-5.268z M102.732 71.122h2.634v2.634h-2.634z M2.634 73.756h2.634v2.634h-2.634z M7.902 73.756h2.634v2.634h-2.634z M13.171 73.756h5.268v2.634h-5.268z M21.073 73.756h2.634v2.634h-2.634z M28.976 73.756h18.439v2.634h-18.439z M50.049 73.756h2.634v2.634h-2.634z M55.317 73.756h13.171v2.634h-13.171z M76.39 73.756h7.902v2.634h-7.902z M92.195 73.756h2.634v2.634h-2.634z M97.463 73.756h5.268v2.634h-5.268z M105.366 73.756h2.634v2.634h-2.634z M0.0 76.39h2.634v2.634h-2.634z M10.537 76.39h2.634v2.634h-2.634z M26.341 76.39h15.805v2.634h-15.805z M47.415 76.39h15.805v2.634h-15.805z M68.488 76.39h2.634v2.634h-2.634z M73.756 76.39h5.268v2.634h-5.268z M81.659 76.39h15.805v2.634h-15.805z M102.732 76.39h5.268v2.634h-5.268z M0.0 79.024h2.634v2.634h-2.634z M13.171 79.024h5.268v2.634h-5.268z M26.341 79.024h2.634v2.634h-2.634z M44.78 79.024h5.268v2.634h-5.268z M52.683 79.024h2.634v2.634h-2.634z M63.22 79.024h15.805v2.634h-15.805z M84.293 79.024h10.537v2.634h-10.537z M0.0 81.659h2.634v2.634h-2.634z M10.537 81.659h2.634v2.634h-2.634z M18.439 81.659h13.171v2.634h-13.171z M36.878 81.659h2.634v2.634h-2.634z M42.146 81.659h2.634v2.634h-2.634z M47.415 81.659h2.634v2.634h-2.634z M55.317 81.659h2.634v2.634h-2.634z M60.585 81.659h2.634v2.634h-2.634z M84.293 81.659h10.537v2.634h-10.537z M97.463 81.659h2.634v2.634h-2.634z M0.0 84.293h2.634v2.634h-2.634z M5.268 84.293h2.634v2.634h-2.634z M10.537 84.293h2.634v2.634h-2.634z M15.805 84.293h5.268v2.634h-5.268z M26.341 84.293h5.268v2.634h-5.268z M34.244 84.293h5.268v2.634h-5.268z M42.146 84.293h5.268v2.634h-5.268z M50.049 84.293h5.268v2.634h-5.268z M60.585 84.293h13.171v2.634h-13.171z M84.293 84.293h13.171v2.634h-13.171z M100.098 84.293h2.634v2.634h-2.634z M21.073 86.927h2.634v2.634h-2.634z M31.61 86.927h5.268v2.634h-5.268z M44.78 86.927h7.902v2.634h-7.902z M55.317 86.927h7.902v2.634h-7.902z M73.756 86.927h2.634v2.634h-2.634z M81.659 86.927h5.268v2.634h-5.268z M94.829 86.927h13.171v2.634h-13.171z M0.0 89.561h18.439v2.634h-18.439z M23.707 89.561h2.634v2.634h-2.634z M28.976 89.561h7.902v2.634h-7.902z M44.78 89.561h2.634v2.634h-2.634z M55.317 89.561h5.268v2.634h-5.268z M63.22 89.561h2.634v2.634h-2.634z M71.122 89.561h5.268v2.634h-5.268z M81.659 89.561h5.268v2.634h-5.268z M89.561 89.561h2.634v2.634h-2.634z M94.829 89.561h7.902v2.634h-7.902z M0.0 92.195h2.634v2.634h-2.634z M15.805 92.195h2.634v2.634h-2.634z M21.073 92.195h5.268v2.634h-5.268z M28.976 92.195h2.634v2.634h-2.634z M34.244 92.195h2.634v2.634h-2.634z M39.512 92.195h2.634v2.634h-2.634z M44.78 92.195h5.268v2.634h-5.268z M55.317 92.195h2.634v2.634h-2.634z M68.488 92.195h2.634v2.634h-2.634z M73.756 92.195h2.634v2.634h-2.634z M81.659 92.195h5.268v2.634h-5.268z M94.829 92.195h5.268v2.634h-5.268z M105.366 92.195h2.634v2.634h-2.634z M0.0 94.829h2.634v2.634h-2.634z M5.268 94.829h7.902v2.634h-7.902z M15.805 94.829h2.634v2.634h-2.634z M21.073 94.829h2.634v2.634h-2.634z M26.341 94.829h13.171v2.634h-13.171z M42.146 94.829h2.634v2.634h-2.634z M57.951 94.829h5.268v2.634h-5.268z M65.854 94.829h7.902v2.634h-7.902z M76.39 94.829h2.634v2.634h-2.634z M84.293 94.829h13.171v2.634h-13.171z M105.366 94.829h2.634v2.634h-2.634z M0.0 97.463h2.634v2.634h-2.634z M5.268 97.463h7.902v2.634h-7.902z M15.805 97.463h2.634v2.634h-2.634z M21.073 97.463h2.634v2.634h-2.634z M26.341 97.463h2.634v2.634h-2.634z M39.512 97.463h2.634v2.634h-2.634z M44.78 97.463h5.268v2.634h-5.268z M52.683 97.463h5.268v2.634h-5.268z M60.585 97.463h5.268v2.634h-5.268z M81.659 97.463h2.634v2.634h-2.634z M86.927 97.463h2.634v2.634h-2.634z M92.195 97.463h2.634v2.634h-2.634z M97.463 97.463h10.537v2.634h-10.537z M0.0 100.098h2.634v2.634h-2.634z M5.268 100.098h7.902v2.634h-7.902z M15.805 100.098h2.634v2.634h-2.634z M21.073 100.098h5.268v2.634h-5.268z M28.976 100.098h2.634v2.634h-2.634z M34.244 100.098h15.805v2.634h-15.805z M52.683 100.098h2.634v2.634h-2.634z M57.951 100.098h2.634v2.634h-2.634z M63.22 100.098h10.537v2.634h-10.537z M76.39 100.098h5.268v2.634h-5.268z M86.927 100.098h15.805v2.634h-15.805z M0.0 102.732h2.634v2.634h-2.634z M15.805 102.732h2.634v2.634h-2.634z M26.341 102.732h5.268v2.634h-5.268z M42.146 102.732h2.634v2.634h-2.634z M47.415 102.732h13.171v2.634h-13.171z M63.22 102.732h2.634v2.634h-2.634z M68.488 102.732h2.634v2.634h-2.634z M73.756 102.732h2.634v2.634h-2.634z M84.293 102.732h5.268v2.634h-5.268z M94.829 102.732h5.268v2.634h-5.268z M102.732 102.732h2.634v2.634h-2.634z M0.0 105.366h18.439v2.634h-18.439z M21.073 105.366h10.537v2.634h-10.537z M50.049 105.366h2.634v2.634h-2.634z M57.951 105.366h2.634v2.634h-2.634z M63.22 105.366h10.537v2.634h-10.537z M76.39 105.366h2.634v2.634h-2.634z M89.561 105.366h10.537v2.634h-10.537z"/>
</g>
<text x="1134" y="486" font-family="Inter, Helvetica, Arial, sans-serif" font-size="10" font-weight="700" fill="#F5F7FA" text-anchor="middle">scan / full post</text>
</svg>
