<svg xmlns="http://www.w3.org/2000/svg" viewBox="0 0 1200 630" width="1200" height="630">
  <title>Tech Security Weekly Digest</title>
  <defs>
    <linearGradient id="bg" x1="0%" y1="0%" x2="100%" y2="100%">
      <stop offset="0%" stop-color="#0b1120"/>
      <stop offset="55%" stop-color="#151b32"/>
      <stop offset="100%" stop-color="#181024"/>
    </linearGradient>
    <filter id="glow" x="-40%" y="-40%" width="180%" height="180%">
      <feGaussianBlur stdDeviation="22"/>
    </filter>
    <filter id="shadow" x="-20%" y="-20%" width="140%" height="140%">
      <feDropShadow dx="0" dy="10" stdDeviation="18" flood-color="#020617" flood-opacity="0.5"/>
    </filter>
  </defs>
  <rect width="1200" height="630" fill="url(#bg)"/>
  <circle cx="350" cy="170" r="180" fill="#3b82f6" opacity="0.12" filter="url(#glow)"/>
  <circle cx="850" cy="140" r="160" fill="#22d3ee" opacity="0.12" filter="url(#glow)"/>
  <text x="90" y="164" font-family="Arial, sans-serif" font-weight="700" fill="#f8fafc"><tspan font-size="52">THREAT SIGNAL MAP</tspan><tspan x="92" dy="40" font-size="20" fill="#cbd5e1">CLOUD  AI/ML</tspan></text>
  <line x1="180" y1="340" x2="1020" y2="340" stroke="#475569" stroke-width="4" stroke-dasharray="14 10" opacity="0.8"/>

  <g transform="translate(350 340)" filter="url(#shadow)">
    <circle r="56" fill="#0f172a" stroke="#3b82f6" stroke-width="2.5"/>
    <ellipse cx="0" cy="4" rx="22" ry="14" fill="none" stroke="#3b82f6" stroke-width="2"/><circle cx="-8" cy="-4" r="10" fill="none" stroke="#3b82f6" stroke-width="2"/><circle cx="8" cy="-6" r="12" fill="none" stroke="#3b82f6" stroke-width="2"/>
  </g>


  <g transform="translate(850 340)" filter="url(#shadow)">
    <circle r="56" fill="#0f172a" stroke="#22d3ee" stroke-width="2.5"/>
    <circle r="14" fill="none" stroke="#22d3ee" stroke-width="2"/><circle r="6" fill="#22d3ee" opacity="0.4"/><line x1="-20" y1="-14" x2="-8" y2="-6" stroke="#22d3ee" stroke-width="1.5"/><line x1="20" y1="-14" x2="8" y2="-6" stroke="#22d3ee" stroke-width="1.5"/><line x1="-20" y1="14" x2="-8" y2="6" stroke="#22d3ee" stroke-width="1.5"/><line x1="20" y1="14" x2="8" y2="6" stroke="#22d3ee" stroke-width="1.5"/><circle cx="-20" cy="-14" r="4" fill="#22d3ee" opacity="0.5"/><circle cx="20" cy="-14" r="4" fill="#22d3ee" opacity="0.5"/><circle cx="-20" cy="14" r="4" fill="#22d3ee" opacity="0.5"/><circle cx="20" cy="14" r="4" fill="#22d3ee" opacity="0.5"/>
  </g>

  <text font-family="Arial, sans-serif" font-size="16" font-weight="700"><tspan x="350" y="448" fill="#3b82f6" text-anchor="middle">CLOUD</tspan><tspan x="850" y="448" fill="#22d3ee" text-anchor="middle">AI/ML</tspan></text>
  <circle cx="600" cy="340" r="4" fill="#475569"/>

  <rect x="70" y="532" width="1060" height="1.5" fill="#334155" opacity="0.8"/>
  <text font-family="Arial, sans-serif" font-size="14" fill="#94a3b8"><tspan x="90" y="574">March 30, 2026</tspan><tspan x="1110" y="574" text-anchor="end">tech.2twodragon.com</tspan></text>
</svg>