<svg xmlns="http://www.w3.org/2000/svg" viewBox="0 0 1200 630" width="1200" height="630" role="img" aria-label="DAILY TECH DIGEST RSS ROUNDUP">
<title>DAILY TECH DIGEST RSS ROUNDUP</title>
<!-- profile: high-quality-cover (2025 upgraded L25-single) -->
<defs>
    <linearGradient id="bgSpread2026-02-" x1="0%" y1="0%" x2="100%" y2="100%">
      <stop offset="0%" stop-color="#0b1120"/>
      <stop offset="52%" stop-color="#121a2f"/>
      <stop offset="100%" stop-color="#170f25"/>
    </linearGradient>
    <linearGradient id="heroPanel2026-02-" x1="0%" y1="0%" x2="100%" y2="100%">
      <stop offset="0%" stop-color="#0f172a" stop-opacity="0.96"/>
      <stop offset="100%" stop-color="#111827" stop-opacity="0.86"/>
    </linearGradient>
    <pattern id="microGrid2026-02-" x="0" y="0" width="36" height="36" patternUnits="userSpaceOnUse">
      <path d="M36 0H0V36" fill="none" stroke="#334155" stroke-width="1" opacity="0.25"/>
      <circle cx="18" cy="18" r="1.2" fill="#ef4444" opacity="0.18"/>
    </pattern>
    <filter id="sgBlur" x="-30%" y="-30%" width="160%" height="160%">
      <feGaussianBlur stdDeviation="36"/>
    </filter>
    <filter id="singleShadow" x="-30%" y="-30%" width="180%" height="180%">
      <feDropShadow dx="0" dy="14" stdDeviation="22" flood-color="#020617" flood-opacity="0.42"/>
    </filter>
    <marker id="sgArrow" viewBox="0 0 10 10" refX="8" refY="5" markerWidth="6" markerHeight="6" orient="auto">
      <path d="M0 0 L10 5 L0 10 z" fill="#38bdf8" opacity="0.85"/>
    </marker>
  </defs>
<rect width="1200" height="630" fill="url(#bgSpread2026-02-)"/>
<rect width="1200" height="630" fill="url(#microGrid2026-02-)"/>
<circle cx="202" cy="150" r="190" fill="#ef4444" opacity="0.08" filter="url(#sgBlur)"/>
  <circle cx="1020" cy="486" r="220" fill="#991b1b" opacity="0.08" filter="url(#sgBlur)"/>
  <circle cx="920" cy="160" r="140" fill="#38bdf8" opacity="0.05" filter="url(#sgBlur)"/>
  <path d="M0 96 C224 46 426 44 654 118 L654 630 L0 630 Z" fill="#020617" opacity="0.24"/>
  <path d="M0 526 C248 490 426 486 654 548" fill="none" stroke="#475569" stroke-width="1.2" opacity="0.22"/>
  <path d="M704 148 C792 118 892 122 980 176" fill="none" stroke="#38bdf8" stroke-width="1.3" opacity="0.24"/>
  <path d="M716 430 C804 462 914 458 1010 390" fill="none" stroke="#ef4444" stroke-width="1.2" opacity="0.22"/>
<rect x="720" y="132" width="388" height="292" rx="28" fill="url(#heroPanel2026-02-)" stroke="#ef4444" stroke-opacity="0.28" stroke-width="1.4" filter="url(#singleShadow)"/>
  <rect x="738" y="150" width="352" height="256" rx="22" fill="none" stroke="#334155" stroke-opacity="0.7" stroke-width="1"/>
  <rect x="742" y="152" width="108" height="12" rx="6" fill="#ef4444" opacity="0.28"/>
  <rect x="864" y="152" width="72" height="12" rx="6" fill="#334155" opacity="0.55"/>
  <rect x="948" y="152" width="48" height="12" rx="6" fill="#334155" opacity="0.35"/>
<g><rect x="742" y="156" width="6" height="6" fill="#ef4444" opacity="0.42"/><rect x="750" y="156" width="6" height="6" fill="#ef4444" opacity="0.42"/><rect x="758" y="156" width="6" height="6" fill="#ef4444" opacity="0.42"/><rect x="766" y="156" width="6" height="6" fill="#ef4444" opacity="0.42"/><rect x="782" y="156" width="6" height="6" fill="#ef4444" opacity="0.42"/><rect x="790" y="156" width="6" height="6" fill="#ef4444" opacity="0.42"/><rect x="798" y="156" width="6" height="6" fill="#ef4444" opacity="0.42"/><rect x="742" y="164" width="6" height="6" fill="#ef4444" opacity="0.42"/><rect x="774" y="164" width="6" height="6" fill="#ef4444" opacity="0.42"/><rect x="790" y="164" width="6" height="6" fill="#ef4444" opacity="0.42"/><rect x="798" y="164" width="6" height="6" fill="#ef4444" opacity="0.42"/><rect x="742" y="172" width="6" height="6" fill="#ef4444" opacity="0.42"/><rect x="758" y="172" width="6" height="6" fill="#ef4444" opacity="0.42"/><rect x="774" y="172" width="6" height="6" fill="#ef4444" opacity="0.42"/><rect x="790" y="172" width="6" height="6" fill="#ef4444" opacity="0.42"/><rect x="742" y="180" width="6" height="6" fill="#ef4444" opacity="0.42"/><rect x="774" y="180" width="6" height="6" fill="#ef4444" opacity="0.42"/><rect x="782" y="180" width="6" height="6" fill="#ef4444" opacity="0.42"/><rect x="790" y="180" width="6" height="6" fill="#ef4444" opacity="0.42"/><rect x="798" y="180" width="6" height="6" fill="#ef4444" opacity="0.42"/><rect x="742" y="188" width="6" height="6" fill="#ef4444" opacity="0.42"/><rect x="750" y="188" width="6" height="6" fill="#ef4444" opacity="0.42"/><rect x="758" y="188" width="6" height="6" fill="#ef4444" opacity="0.42"/><rect x="766" y="188" width="6" height="6" fill="#ef4444" opacity="0.42"/><rect x="790" y="188" width="6" height="6" fill="#ef4444" opacity="0.42"/><rect x="798" y="188" width="6" height="6" fill="#ef4444" opacity="0.42"/><rect x="758" y="196" width="6" height="6" fill="#ef4444" opacity="0.42"/><rect x="766" y="196" width="6" height="6" fill="#ef4444" opacity="0.42"/><rect x="774" y="196" width="6" height="6" fill="#ef4444" opacity="0.42"/><rect x="782" y="196" width="6" height="6" fill="#ef4444" opacity="0.42"/><rect x="790" y="196" width="6" height="6" fill="#ef4444" opacity="0.42"/><rect x="742" y="204" width="6" height="6" fill="#ef4444" opacity="0.42"/><rect x="750" y="204" width="6" height="6" fill="#ef4444" opacity="0.42"/><rect x="782" y="204" width="6" height="6" fill="#ef4444" opacity="0.42"/><rect x="790" y="204" width="6" height="6" fill="#ef4444" opacity="0.42"/><rect x="750" y="212" width="6" height="6" fill="#ef4444" opacity="0.42"/><rect x="758" y="212" width="6" height="6" fill="#ef4444" opacity="0.42"/><rect x="774" y="212" width="6" height="6" fill="#ef4444" opacity="0.42"/><rect x="790" y="212" width="6" height="6" fill="#ef4444" opacity="0.42"/><rect x="798" y="212" width="6" height="6" fill="#ef4444" opacity="0.42"/></g>
<circle cx="1010" cy="60" r="1.4" fill="#38bdf8" opacity="0.18"/>
  <circle cx="1024" cy="60" r="1.4" fill="#38bdf8" opacity="0.26"/>
  <circle cx="1038" cy="60" r="1.4" fill="#38bdf8" opacity="0.33999999999999997"/>
  <circle cx="1052" cy="60" r="1.4" fill="#38bdf8" opacity="0.18"/>
  <circle cx="1066" cy="60" r="1.4" fill="#38bdf8" opacity="0.26"/>
  <circle cx="1080" cy="60" r="1.4" fill="#38bdf8" opacity="0.33999999999999997"/>
  <circle cx="1094" cy="60" r="1.4" fill="#38bdf8" opacity="0.18"/>
  <circle cx="1108" cy="60" r="1.4" fill="#38bdf8" opacity="0.26"/>
  <circle cx="1010" cy="72" r="1.4" fill="#38bdf8" opacity="0.18"/>
  <circle cx="1024" cy="72" r="1.4" fill="#38bdf8" opacity="0.26"/>
  <circle cx="1038" cy="72" r="1.4" fill="#38bdf8" opacity="0.33999999999999997"/>
  <circle cx="1052" cy="72" r="1.4" fill="#38bdf8" opacity="0.18"/>
  <circle cx="1066" cy="72" r="1.4" fill="#38bdf8" opacity="0.26"/>
  <circle cx="1080" cy="72" r="1.4" fill="#38bdf8" opacity="0.33999999999999997"/>
  <circle cx="1094" cy="72" r="1.4" fill="#38bdf8" opacity="0.18"/>
  <circle cx="1108" cy="72" r="1.4" fill="#38bdf8" opacity="0.26"/>
  <circle cx="1010" cy="84" r="1.4" fill="#38bdf8" opacity="0.18"/>
  <circle cx="1024" cy="84" r="1.4" fill="#38bdf8" opacity="0.26"/>
  <circle cx="1038" cy="84" r="1.4" fill="#38bdf8" opacity="0.33999999999999997"/>
  <circle cx="1052" cy="84" r="1.4" fill="#38bdf8" opacity="0.18"/>
  <circle cx="1066" cy="84" r="1.4" fill="#38bdf8" opacity="0.26"/>
  <circle cx="1080" cy="84" r="1.4" fill="#38bdf8" opacity="0.33999999999999997"/>
  <circle cx="1094" cy="84" r="1.4" fill="#38bdf8" opacity="0.18"/>
  <circle cx="1108" cy="84" r="1.4" fill="#38bdf8" opacity="0.26"/>
  <circle cx="1010" cy="96" r="1.4" fill="#38bdf8" opacity="0.18"/>
  <circle cx="1024" cy="96" r="1.4" fill="#38bdf8" opacity="0.26"/>
  <circle cx="1038" cy="96" r="1.4" fill="#38bdf8" opacity="0.33999999999999997"/>
  <circle cx="1052" cy="96" r="1.4" fill="#38bdf8" opacity="0.18"/>
  <circle cx="1066" cy="96" r="1.4" fill="#38bdf8" opacity="0.26"/>
  <circle cx="1080" cy="96" r="1.4" fill="#38bdf8" opacity="0.33999999999999997"/>
  <circle cx="1094" cy="96" r="1.4" fill="#38bdf8" opacity="0.18"/>
  <circle cx="1108" cy="96" r="1.4" fill="#38bdf8" opacity="0.26"/>
  <circle cx="1010" cy="108" r="1.4" fill="#38bdf8" opacity="0.18"/>
  <circle cx="1024" cy="108" r="1.4" fill="#38bdf8" opacity="0.26"/>
  <circle cx="1038" cy="108" r="1.4" fill="#38bdf8" opacity="0.33999999999999997"/>
  <circle cx="1052" cy="108" r="1.4" fill="#38bdf8" opacity="0.18"/>
  <circle cx="1066" cy="108" r="1.4" fill="#38bdf8" opacity="0.26"/>
  <circle cx="1080" cy="108" r="1.4" fill="#38bdf8" opacity="0.33999999999999997"/>
  <circle cx="1094" cy="108" r="1.4" fill="#38bdf8" opacity="0.18"/>
  <circle cx="1108" cy="108" r="1.4" fill="#38bdf8" opacity="0.26"/>
  <circle cx="1010" cy="120" r="1.4" fill="#38bdf8" opacity="0.18"/>
  <circle cx="1024" cy="120" r="1.4" fill="#38bdf8" opacity="0.26"/>
  <circle cx="1038" cy="120" r="1.4" fill="#38bdf8" opacity="0.33999999999999997"/>
  <circle cx="1052" cy="120" r="1.4" fill="#38bdf8" opacity="0.18"/>
  <circle cx="1066" cy="120" r="1.4" fill="#38bdf8" opacity="0.26"/>
  <circle cx="1080" cy="120" r="1.4" fill="#38bdf8" opacity="0.33999999999999997"/>
  <circle cx="1094" cy="120" r="1.4" fill="#38bdf8" opacity="0.18"/>
  <circle cx="1108" cy="120" r="1.4" fill="#38bdf8" opacity="0.26"/>
<text x="740" y="162" font-family="Arial,sans-serif" font-size="9" font-weight="700" fill="#38bdf8" text-anchor="middle" opacity="0.55">01</text>
  <text x="1090" y="162" font-family="Arial,sans-serif" font-size="9" font-weight="700" fill="#38bdf8" text-anchor="middle" opacity="0.55">02</text>
  <text x="740" y="412" font-family="Arial,sans-serif" font-size="9" font-weight="700" fill="#38bdf8" text-anchor="middle" opacity="0.55">03</text>
  <text x="1090" y="412" font-family="Arial,sans-serif" font-size="9" font-weight="700" fill="#38bdf8" text-anchor="middle" opacity="0.55">04</text>
<text x="740" y="178" font-family="Arial,sans-serif" font-size="9" font-weight="700" fill="#94a3b8" opacity="0.7">STATUS</text>
  <text x="816" y="178" font-family="Arial,sans-serif" font-size="9" font-weight="700" fill="#94a3b8" opacity="0.7">OK</text>
  <text x="864" y="178" font-family="Arial,sans-serif" font-size="9" font-weight="700" fill="#94a3b8" opacity="0.7">VER</text>
  <text x="910" y="178" font-family="Arial,sans-serif" font-size="9" font-weight="700" fill="#94a3b8" opacity="0.7">v1.0</text>
  <text x="962" y="178" font-family="Arial,sans-serif" font-size="9" font-weight="700" fill="#94a3b8" opacity="0.7">BUILD</text>
  <text x="1024" y="178" font-family="Arial,sans-serif" font-size="9" font-weight="700" fill="#94a3b8" opacity="0.7">STAB</text>
<text x="40" y="380" font-family="Arial,sans-serif" font-size="8" font-weight="700" fill="#475569" opacity="0.7" text-anchor="middle">00</text>
  <text x="40" y="410" font-family="Arial,sans-serif" font-size="8" font-weight="700" fill="#475569" opacity="0.7" text-anchor="middle">01</text>
  <text x="40" y="440" font-family="Arial,sans-serif" font-size="8" font-weight="700" fill="#475569" opacity="0.7" text-anchor="middle">02</text>
  <text x="40" y="470" font-family="Arial,sans-serif" font-size="8" font-weight="700" fill="#475569" opacity="0.7" text-anchor="middle">03</text>
  <text x="40" y="500" font-family="Arial,sans-serif" font-size="8" font-weight="700" fill="#475569" opacity="0.7" text-anchor="middle">04</text>
  <text x="1160" y="380" font-family="Arial,sans-serif" font-size="8" font-weight="700" fill="#475569" opacity="0.7" text-anchor="middle">OK</text>
  <text x="1160" y="410" font-family="Arial,sans-serif" font-size="8" font-weight="700" fill="#475569" opacity="0.7" text-anchor="middle">RUN</text>
  <text x="1160" y="440" font-family="Arial,sans-serif" font-size="8" font-weight="700" fill="#475569" opacity="0.7" text-anchor="middle">OK</text>
  <text x="1160" y="470" font-family="Arial,sans-serif" font-size="8" font-weight="700" fill="#475569" opacity="0.7" text-anchor="middle">RUN</text>

<g transform="translate(914,278)" filter="url(#singleShadow)">
    <circle r="124" fill="none" stroke="#ef4444" stroke-opacity="0.18" stroke-width="1.2" stroke-dasharray="8 8"/>
    <rect x="-110" y="-72" width="220" height="162" rx="14" fill="#0f172a" stroke="#ef4444" stroke-width="2.2" opacity="0.94"/>
    <rect x="-104" y="-66" width="208" height="22" rx="6" fill="#ef4444" fill-opacity="0.22" stroke="#ef4444" stroke-width="1.2"/>
    <text x="-88" y="-51" font-family="Arial,sans-serif" font-size="10" font-weight="900" fill="#f8fafc" opacity="0.95">MONTHLY RECAP</text>
    <rect x="66" y="-66" width="38" height="22" rx="6" fill="#ef4444" fill-opacity="0.55"/>
    <text x="85" y="-51" text-anchor="middle" font-family="Arial,sans-serif" font-size="9" font-weight="900" fill="#0f172a">28</text>
    <rect x="-96" y="-8" width="24" height="16" rx="3" fill="#ef4444" opacity="0.90"/><text x="-84" y="4" text-anchor="middle" font-family="Arial,sans-serif" font-size="7" font-weight="700" fill="#f8fafc" opacity="0.9">5</text><rect x="-68" y="-8" width="24" height="16" rx="3" fill="#ef4444" opacity="0.70"/><text x="-56" y="4" text-anchor="middle" font-family="Arial,sans-serif" font-size="7" font-weight="700" fill="#f8fafc" opacity="0.9">3</text><rect x="-40" y="-8" width="24" height="16" rx="3" fill="#ef4444" opacity="0.80"/><text x="-28" y="4" text-anchor="middle" font-family="Arial,sans-serif" font-size="7" font-weight="700" fill="#f8fafc" opacity="0.9">4</text><rect x="-12" y="-8" width="24" height="16" rx="3" fill="#ef4444" opacity="0.90"/><text x="0" y="4" text-anchor="middle" font-family="Arial,sans-serif" font-size="7" font-weight="700" fill="#f8fafc" opacity="0.9">5</text><rect x="16" y="-8" width="24" height="16" rx="3" fill="#ef4444" opacity="0.60"/><text x="28" y="4" text-anchor="middle" font-family="Arial,sans-serif" font-size="7" font-weight="700" fill="#f8fafc" opacity="0.9">2</text><rect x="44" y="-8" width="24" height="16" rx="3" fill="#ef4444" opacity="0.80"/><text x="56" y="4" text-anchor="middle" font-family="Arial,sans-serif" font-size="7" font-weight="700" fill="#f8fafc" opacity="0.9">4</text><rect x="72" y="-8" width="24" height="16" rx="3" fill="#ef4444" opacity="0.70"/><text x="84" y="4" text-anchor="middle" font-family="Arial,sans-serif" font-size="7" font-weight="700" fill="#f8fafc" opacity="0.9">3</text><rect x="-96" y="12" width="24" height="16" rx="3" fill="#ef4444" opacity="0.80"/><text x="-84" y="24" text-anchor="middle" font-family="Arial,sans-serif" font-size="7" font-weight="700" fill="#f8fafc" opacity="0.9">4</text><rect x="-68" y="12" width="24" height="16" rx="3" fill="#ef4444" opacity="0.90"/><text x="-56" y="24" text-anchor="middle" font-family="Arial,sans-serif" font-size="7" font-weight="700" fill="#f8fafc" opacity="0.9">5</text><rect x="-40" y="12" width="24" height="16" rx="3" fill="#ef4444" opacity="0.70"/><text x="-28" y="24" text-anchor="middle" font-family="Arial,sans-serif" font-size="7" font-weight="700" fill="#f8fafc" opacity="0.9">3</text><rect x="-12" y="12" width="24" height="16" rx="3" fill="#ef4444" opacity="0.80"/><text x="0" y="24" text-anchor="middle" font-family="Arial,sans-serif" font-size="7" font-weight="700" fill="#f8fafc" opacity="0.9">4</text><rect x="16" y="12" width="24" height="16" rx="3" fill="#ef4444" opacity="0.70"/><text x="28" y="24" text-anchor="middle" font-family="Arial,sans-serif" font-size="7" font-weight="700" fill="#f8fafc" opacity="0.9">3</text><rect x="44" y="12" width="24" height="16" rx="3" fill="#ef4444" opacity="0.90"/><text x="56" y="24" text-anchor="middle" font-family="Arial,sans-serif" font-size="7" font-weight="700" fill="#f8fafc" opacity="0.9">5</text><rect x="72" y="12" width="24" height="16" rx="3" fill="#ef4444" opacity="0.60"/><text x="84" y="24" text-anchor="middle" font-family="Arial,sans-serif" font-size="7" font-weight="700" fill="#f8fafc" opacity="0.9">2</text><rect x="-96" y="32" width="24" height="16" rx="3" fill="#ef4444" opacity="0.70"/><text x="-84" y="44" text-anchor="middle" font-family="Arial,sans-serif" font-size="7" font-weight="700" fill="#f8fafc" opacity="0.9">3</text><rect x="-68" y="32" width="24" height="16" rx="3" fill="#ef4444" opacity="0.80"/><text x="-56" y="44" text-anchor="middle" font-family="Arial,sans-serif" font-size="7" font-weight="700" fill="#f8fafc" opacity="0.9">4</text><rect x="-40" y="32" width="24" height="16" rx="3" fill="#ef4444" opacity="0.90"/><text x="-28" y="44" text-anchor="middle" font-family="Arial,sans-serif" font-size="7" font-weight="700" fill="#f8fafc" opacity="0.9">5</text><rect x="-12" y="32" width="24" height="16" rx="3" fill="#ef4444" opacity="0.60"/><text x="0" y="44" text-anchor="middle" font-family="Arial,sans-serif" font-size="7" font-weight="700" fill="#f8fafc" opacity="0.9">2</text><rect x="16" y="32" width="24" height="16" rx="3" fill="#ef4444" opacity="0.80"/><text x="28" y="44" text-anchor="middle" font-family="Arial,sans-serif" font-size="7" font-weight="700" fill="#f8fafc" opacity="0.9">4</text><rect x="44" y="32" width="24" height="16" rx="3" fill="#ef4444" opacity="0.70"/><text x="56" y="44" text-anchor="middle" font-family="Arial,sans-serif" font-size="7" font-weight="700" fill="#f8fafc" opacity="0.9">3</text><rect x="72" y="32" width="24" height="16" rx="3" fill="#ef4444" opacity="0.90"/><text x="84" y="44" text-anchor="middle" font-family="Arial,sans-serif" font-size="7" font-weight="700" fill="#f8fafc" opacity="0.9">5</text><rect x="-96" y="52" width="24" height="16" rx="3" fill="#ef4444" opacity="0.90"/><text x="-84" y="64" text-anchor="middle" font-family="Arial,sans-serif" font-size="7" font-weight="700" fill="#f8fafc" opacity="0.9">5</text><rect x="-68" y="52" width="24" height="16" rx="3" fill="#ef4444" opacity="0.70"/><text x="-56" y="64" text-anchor="middle" font-family="Arial,sans-serif" font-size="7" font-weight="700" fill="#f8fafc" opacity="0.9">3</text><rect x="-40" y="52" width="24" height="16" rx="3" fill="#ef4444" opacity="0.80"/><text x="-28" y="64" text-anchor="middle" font-family="Arial,sans-serif" font-size="7" font-weight="700" fill="#f8fafc" opacity="0.9">4</text><rect x="-12" y="52" width="24" height="16" rx="3" fill="#ef4444" opacity="0.70"/><text x="0" y="64" text-anchor="middle" font-family="Arial,sans-serif" font-size="7" font-weight="700" fill="#f8fafc" opacity="0.9">3</text><rect x="16" y="52" width="24" height="16" rx="3" fill="#ef4444" opacity="0.90"/><text x="28" y="64" text-anchor="middle" font-family="Arial,sans-serif" font-size="7" font-weight="700" fill="#f8fafc" opacity="0.9">5</text><rect x="44" y="52" width="24" height="16" rx="3" fill="#ef4444" opacity="0.80"/><text x="56" y="64" text-anchor="middle" font-family="Arial,sans-serif" font-size="7" font-weight="700" fill="#f8fafc" opacity="0.9">4</text><rect x="72" y="52" width="24" height="16" rx="3" fill="#ef4444" opacity="0.70"/><text x="84" y="64" text-anchor="middle" font-family="Arial,sans-serif" font-size="7" font-weight="700" fill="#f8fafc" opacity="0.9">3</text>
    <text y="100" text-anchor="middle" font-family="Arial,sans-serif" font-size="11" font-weight="700" fill="#ef4444" opacity="0.85">ROLLUP INDEX</text>
    <text y="116" text-anchor="middle" font-family="Arial,sans-serif" font-size="10" fill="#38bdf8" opacity="0.7">4 weeks : 28 posts</text>
  </g>
<g transform="translate(84 66)">
    <rect width="160" height="36" rx="18" fill="#ef4444" opacity="0.22" stroke="#ef4444" stroke-width="1.2"/>
    <text x="80" y="23" font-family="Arial,sans-serif" font-size="13" font-weight="700" fill="#ef4444" text-anchor="middle">SECURITY</text>
  </g>
<text x="84" y="170" font-family="Arial,sans-serif" font-size="48" font-weight="700" fill="#f8fafc" letter-spacing="0.5">DAILY TECH DIGEST</text>
  <text x="84" y="226" font-family="Arial,sans-serif" font-size="48" font-weight="700" fill="#dbeafe" letter-spacing="0.5">RSS ROUNDUP</text>
<text x="84" y="282" font-family="Arial,sans-serif" font-size="18" fill="#cbd5e1">TECH / DAILY / RSS ROUNDUP</text>
  <rect x="84" y="308" width="520" height="1.5" fill="#334155" opacity="0.9"/>
  <text x="84" y="338" font-family="Arial,sans-serif" font-size="14" font-weight="700" fill="#94a3b8">VISUAL SYSTEM 2CDCF0DD785F</text>
  <text x="84" y="366" font-family="Arial,sans-serif" font-size="14" fill="#94a3b8">Daily tech digest: LLM, Windows dev, crypto trends</text>
<g transform="translate(84 474)">
    <rect width="110" height="38" rx="19" fill="#ef4444" fill-opacity="0.16" stroke="#ef4444" stroke-width="1.2"/>
    <text x="55" y="24" font-family="Arial,sans-serif" font-size="13" font-weight="700" fill="#e2e8f0" text-anchor="middle">TECH</text>
  </g>
  <g transform="translate(208 474)">
    <rect width="110" height="38" rx="19" fill="#ef4444" fill-opacity="0.16" stroke="#ef4444" stroke-width="1.2"/>
    <text x="55" y="24" font-family="Arial,sans-serif" font-size="13" font-weight="700" fill="#e2e8f0" text-anchor="middle">DAILY</text>
  </g>
  <g transform="translate(332 474)">
    <rect width="110" height="38" rx="19" fill="#ef4444" fill-opacity="0.16" stroke="#ef4444" stroke-width="1.2"/>
    <text x="55" y="24" font-family="Arial,sans-serif" font-size="13" font-weight="700" fill="#e2e8f0" text-anchor="middle">RSS</text>
  </g>
  <g transform="translate(456 474)">
    <rect width="110" height="38" rx="19" fill="#ef4444" fill-opacity="0.16" stroke="#ef4444" stroke-width="1.2"/>
    <text x="55" y="24" font-family="Arial,sans-serif" font-size="13" font-weight="700" fill="#e2e8f0" text-anchor="middle">ROUNDUP</text>
  </g>
<g transform="translate(84 536)">
    <rect width="144" height="58" rx="16" fill="#111827" fill-opacity="0.78" stroke="#ef4444" stroke-opacity="0.4" stroke-width="1.2"/>
    <text x="18" y="24" font-family="Arial,sans-serif" font-size="11" font-weight="700" fill="#94a3b8">CATEGORY</text>
    <text x="18" y="43" font-family="Arial,sans-serif" font-size="16" font-weight="700" fill="#f8fafc">SECURITY</text>
  </g>
  <g transform="translate(246 536)">
    <rect width="144" height="58" rx="16" fill="#111827" fill-opacity="0.78" stroke="#ef4444" stroke-opacity="0.4" stroke-width="1.2"/>
    <text x="18" y="24" font-family="Arial,sans-serif" font-size="11" font-weight="700" fill="#94a3b8">SIGNALS</text>
    <text x="18" y="43" font-family="Arial,sans-serif" font-size="16" font-weight="700" fill="#f8fafc">05</text>
  </g>
  <g transform="translate(408 536)">
    <rect width="144" height="58" rx="16" fill="#111827" fill-opacity="0.78" stroke="#ef4444" stroke-opacity="0.4" stroke-width="1.2"/>
    <text x="18" y="24" font-family="Arial,sans-serif" font-size="11" font-weight="700" fill="#94a3b8">TAGS</text>
    <text x="18" y="43" font-family="Arial,sans-serif" font-size="16" font-weight="700" fill="#f8fafc">04</text>
  </g>
<g transform="translate(1030 74)">
    <rect width="130" height="34" rx="17" fill="#991b1b" opacity="0.22" stroke="#ef4444" stroke-width="1.2"/>
    <text x="65" y="22" font-family="Arial,sans-serif" font-size="12" font-weight="700" fill="#e2e8f0" text-anchor="middle">February 16, 2026</text>
  </g>
<line x1="50" y1="588" x2="1150" y2="588" stroke="#334155" stroke-width="1" opacity="0.5"/>
  <text x="1150" y="612" font-family="Arial,sans-serif" font-size="13" fill="#94a3b8" text-anchor="end">tech.2twodragon.com</text>
<g transform="translate(1080,504)" filter="url(#softShadow)">
  <rect x="-8" y="-8" width="100" height="100" rx="6" fill="#FFFFFF"/>
  <path fill="#0A1020" d="M0.0 0.0h15.892v2.27h-15.892z M18.162 0.0h6.811v2.27h-6.811z M27.243 0.0h2.27v2.27h-2.27z M31.784 0.0h4.541v2.27h-4.541z M38.595 0.0h6.811v2.27h-6.811z M49.946 0.0h2.27v2.27h-2.27z M56.757 0.0h9.081v2.27h-9.081z M68.108 0.0h15.892v2.27h-15.892z M0.0 2.27h2.27v2.27h-2.27z M13.622 2.27h2.27v2.27h-2.27z M20.432 2.27h2.27v2.27h-2.27z M38.595 2.27h2.27v2.27h-2.27z M45.405 2.27h4.541v2.27h-4.541z M63.568 2.27h2.27v2.27h-2.27z M68.108 2.27h2.27v2.27h-2.27z M81.73 2.27h2.27v2.27h-2.27z M0.0 4.541h2.27v2.27h-2.27z M4.541 4.541h6.811v2.27h-6.811z M13.622 4.541h2.27v2.27h-2.27z M22.703 4.541h2.27v2.27h-2.27z M34.054 4.541h2.27v2.27h-2.27z M38.595 4.541h11.351v2.27h-11.351z M52.216 4.541h4.541v2.27h-4.541z M59.027 4.541h6.811v2.27h-6.811z M68.108 4.541h2.27v2.27h-2.27z M72.649 4.541h6.811v2.27h-6.811z M81.73 4.541h2.27v2.27h-2.27z M0.0 6.811h2.27v2.27h-2.27z M4.541 6.811h6.811v2.27h-6.811z M13.622 6.811h2.27v2.27h-2.27z M18.162 6.811h4.541v2.27h-4.541z M24.973 6.811h6.811v2.27h-6.811z M34.054 6.811h4.541v2.27h-4.541z M43.135 6.811h2.27v2.27h-2.27z M56.757 6.811h4.541v2.27h-4.541z M68.108 6.811h2.27v2.27h-2.27z M72.649 6.811h6.811v2.27h-6.811z M81.73 6.811h2.27v2.27h-2.27z M0.0 9.081h2.27v2.27h-2.27z M4.541 9.081h6.811v2.27h-6.811z M13.622 9.081h2.27v2.27h-2.27z M18.162 9.081h4.541v2.27h-4.541z M24.973 9.081h2.27v2.27h-2.27z M29.514 9.081h4.541v2.27h-4.541z M36.324 9.081h2.27v2.27h-2.27z M45.405 9.081h2.27v2.27h-2.27z M52.216 9.081h2.27v2.27h-2.27z M56.757 9.081h9.081v2.27h-9.081z M68.108 9.081h2.27v2.27h-2.27z M72.649 9.081h6.811v2.27h-6.811z M81.73 9.081h2.27v2.27h-2.27z M0.0 11.351h2.27v2.27h-2.27z M13.622 11.351h2.27v2.27h-2.27z M18.162 11.351h4.541v2.27h-4.541z M24.973 11.351h2.27v2.27h-2.27z M29.514 11.351h2.27v2.27h-2.27z M36.324 11.351h2.27v2.27h-2.27z M40.865 11.351h4.541v2.27h-4.541z M47.676 11.351h2.27v2.27h-2.27z M54.486 11.351h2.27v2.27h-2.27z M68.108 11.351h2.27v2.27h-2.27z M81.73 11.351h2.27v2.27h-2.27z M0.0 13.622h15.892v2.27h-15.892z M18.162 13.622h2.27v2.27h-2.27z M22.703 13.622h2.27v2.27h-2.27z M27.243 13.622h2.27v2.27h-2.27z M31.784 13.622h2.27v2.27h-2.27z M36.324 13.622h2.27v2.27h-2.27z M40.865 13.622h2.27v2.27h-2.27z M45.405 13.622h2.27v2.27h-2.27z M49.946 13.622h2.27v2.27h-2.27z M54.486 13.622h2.27v2.27h-2.27z M59.027 13.622h2.27v2.27h-2.27z M63.568 13.622h2.27v2.27h-2.27z M68.108 13.622h15.892v2.27h-15.892z M18.162 15.892h2.27v2.27h-2.27z M34.054 15.892h2.27v2.27h-2.27z M38.595 15.892h6.811v2.27h-6.811z M47.676 15.892h4.541v2.27h-4.541z M54.486 15.892h2.27v2.27h-2.27z M59.027 15.892h4.541v2.27h-4.541z M0.0 18.162h2.27v2.27h-2.27z M9.081 18.162h2.27v2.27h-2.27z M13.622 18.162h6.811v2.27h-6.811z M22.703 18.162h4.541v2.27h-4.541z M31.784 18.162h2.27v2.27h-2.27z M40.865 18.162h15.892v2.27h-15.892z M65.838 18.162h11.351v2.27h-11.351z M81.73 18.162h2.27v2.27h-2.27z M2.27 20.432h2.27v2.27h-2.27z M9.081 20.432h2.27v2.27h-2.27z M15.892 20.432h6.811v2.27h-6.811z M24.973 20.432h9.081v2.27h-9.081z M36.324 20.432h2.27v2.27h-2.27z M43.135 20.432h6.811v2.27h-6.811z M52.216 20.432h4.541v2.27h-4.541z M59.027 20.432h11.351v2.27h-11.351z M72.649 20.432h9.081v2.27h-9.081z M2.27 22.703h6.811v2.27h-6.811z M13.622 22.703h2.27v2.27h-2.27z M18.162 22.703h2.27v2.27h-2.27z M22.703 22.703h4.541v2.27h-4.541z M29.514 22.703h4.541v2.27h-4.541z M36.324 22.703h2.27v2.27h-2.27z M45.405 22.703h2.27v2.27h-2.27z M52.216 22.703h13.622v2.27h-13.622z M70.378 22.703h2.27v2.27h-2.27z M6.811 24.973h4.541v2.27h-4.541z M27.243 24.973h4.541v2.27h-4.541z M38.595 24.973h2.27v2.27h-2.27z M43.135 24.973h6.811v2.27h-6.811z M59.027 24.973h4.541v2.27h-4.541z M65.838 24.973h2.27v2.27h-2.27z M70.378 24.973h4.541v2.27h-4.541z M77.189 24.973h4.541v2.27h-4.541z M2.27 27.243h4.541v2.27h-4.541z M9.081 27.243h2.27v2.27h-2.27z M13.622 27.243h13.622v2.27h-13.622z M34.054 27.243h2.27v2.27h-2.27z M38.595 27.243h4.541v2.27h-4.541z M47.676 27.243h4.541v2.27h-4.541z M54.486 27.243h2.27v2.27h-2.27z M63.568 27.243h6.811v2.27h-6.811z M79.459 27.243h4.541v2.27h-4.541z M2.27 29.514h9.081v2.27h-9.081z M15.892 29.514h6.811v2.27h-6.811z M24.973 29.514h2.27v2.27h-2.27z M29.514 29.514h2.27v2.27h-2.27z M34.054 29.514h2.27v2.27h-2.27z M38.595 29.514h2.27v2.27h-2.27z M47.676 29.514h2.27v2.27h-2.27z M52.216 29.514h13.622v2.27h-13.622z M72.649 29.514h4.541v2.27h-4.541z M2.27 31.784h4.541v2.27h-4.541z M13.622 31.784h2.27v2.27h-2.27z M22.703 31.784h4.541v2.27h-4.541z M34.054 31.784h4.541v2.27h-4.541z M40.865 31.784h2.27v2.27h-2.27z M52.216 31.784h2.27v2.27h-2.27z M59.027 31.784h6.811v2.27h-6.811z M70.378 31.784h11.351v2.27h-11.351z M4.541 34.054h2.27v2.27h-2.27z M11.351 34.054h2.27v2.27h-2.27z M20.432 34.054h4.541v2.27h-4.541z M27.243 34.054h4.541v2.27h-4.541z M36.324 34.054h2.27v2.27h-2.27z M45.405 34.054h4.541v2.27h-4.541z M54.486 34.054h2.27v2.27h-2.27z M59.027 34.054h2.27v2.27h-2.27z M63.568 34.054h4.541v2.27h-4.541z M70.378 34.054h4.541v2.27h-4.541z M77.189 34.054h6.811v2.27h-6.811z M0.0 36.324h6.811v2.27h-6.811z M13.622 36.324h2.27v2.27h-2.27z M20.432 36.324h2.27v2.27h-2.27z M24.973 36.324h9.081v2.27h-9.081z M36.324 36.324h2.27v2.27h-2.27z M43.135 36.324h11.351v2.27h-11.351z M65.838 36.324h6.811v2.27h-6.811z M74.919 36.324h9.081v2.27h-9.081z M2.27 38.595h2.27v2.27h-2.27z M6.811 38.595h2.27v2.27h-2.27z M11.351 38.595h2.27v2.27h-2.27z M22.703 38.595h4.541v2.27h-4.541z M40.865 38.595h2.27v2.27h-2.27z M45.405 38.595h6.811v2.27h-6.811z M56.757 38.595h2.27v2.27h-2.27z M63.568 38.595h2.27v2.27h-2.27z M70.378 38.595h6.811v2.27h-6.811z M79.459 38.595h2.27v2.27h-2.27z M4.541 40.865h4.541v2.27h-4.541z M11.351 40.865h4.541v2.27h-4.541z M24.973 40.865h2.27v2.27h-2.27z M31.784 40.865h4.541v2.27h-4.541z M38.595 40.865h2.27v2.27h-2.27z M47.676 40.865h2.27v2.27h-2.27z M52.216 40.865h4.541v2.27h-4.541z M59.027 40.865h4.541v2.27h-4.541z M70.378 40.865h2.27v2.27h-2.27z M74.919 40.865h4.541v2.27h-4.541z M0.0 43.135h2.27v2.27h-2.27z M4.541 43.135h6.811v2.27h-6.811z M15.892 43.135h2.27v2.27h-2.27z M22.703 43.135h4.541v2.27h-4.541z M34.054 43.135h6.811v2.27h-6.811z M47.676 43.135h2.27v2.27h-2.27z M61.297 43.135h2.27v2.27h-2.27z M72.649 43.135h2.27v2.27h-2.27z M77.189 43.135h4.541v2.27h-4.541z M0.0 45.405h4.541v2.27h-4.541z M11.351 45.405h6.811v2.27h-6.811z M27.243 45.405h4.541v2.27h-4.541z M36.324 45.405h9.081v2.27h-9.081z M47.676 45.405h2.27v2.27h-2.27z M54.486 45.405h2.27v2.27h-2.27z M61.297 45.405h11.351v2.27h-11.351z M77.189 45.405h2.27v2.27h-2.27z M0.0 47.676h2.27v2.27h-2.27z M9.081 47.676h2.27v2.27h-2.27z M18.162 47.676h2.27v2.27h-2.27z M22.703 47.676h2.27v2.27h-2.27z M34.054 47.676h2.27v2.27h-2.27z M52.216 47.676h2.27v2.27h-2.27z M56.757 47.676h2.27v2.27h-2.27z M61.297 47.676h2.27v2.27h-2.27z M70.378 47.676h4.541v2.27h-4.541z M79.459 47.676h2.27v2.27h-2.27z M0.0 49.946h4.541v2.27h-4.541z M6.811 49.946h2.27v2.27h-2.27z M13.622 49.946h4.541v2.27h-4.541z M24.973 49.946h4.541v2.27h-4.541z M34.054 49.946h6.811v2.27h-6.811z M45.405 49.946h4.541v2.27h-4.541z M52.216 49.946h6.811v2.27h-6.811z M61.297 49.946h4.541v2.27h-4.541z M70.378 49.946h11.351v2.27h-11.351z M9.081 52.216h4.541v2.27h-4.541z M18.162 52.216h2.27v2.27h-2.27z M22.703 52.216h2.27v2.27h-2.27z M27.243 52.216h2.27v2.27h-2.27z M31.784 52.216h13.622v2.27h-13.622z M47.676 52.216h2.27v2.27h-2.27z M54.486 52.216h2.27v2.27h-2.27z M59.027 52.216h2.27v2.27h-2.27z M70.378 52.216h4.541v2.27h-4.541z M77.189 52.216h2.27v2.27h-2.27z M4.541 54.486h2.27v2.27h-2.27z M9.081 54.486h6.811v2.27h-6.811z M18.162 54.486h2.27v2.27h-2.27z M22.703 54.486h2.27v2.27h-2.27z M27.243 54.486h2.27v2.27h-2.27z M31.784 54.486h2.27v2.27h-2.27z M40.865 54.486h4.541v2.27h-4.541z M47.676 54.486h6.811v2.27h-6.811z M61.297 54.486h2.27v2.27h-2.27z M65.838 54.486h4.541v2.27h-4.541z M74.919 54.486h4.541v2.27h-4.541z M81.73 54.486h2.27v2.27h-2.27z M0.0 56.757h6.811v2.27h-6.811z M24.973 56.757h6.811v2.27h-6.811z M36.324 56.757h2.27v2.27h-2.27z M47.676 56.757h2.27v2.27h-2.27z M56.757 56.757h2.27v2.27h-2.27z M61.297 56.757h2.27v2.27h-2.27z M72.649 56.757h2.27v2.27h-2.27z M13.622 59.027h4.541v2.27h-4.541z M20.432 59.027h2.27v2.27h-2.27z M29.514 59.027h4.541v2.27h-4.541z M36.324 59.027h2.27v2.27h-2.27z M45.405 59.027h2.27v2.27h-2.27z M52.216 59.027h2.27v2.27h-2.27z M56.757 59.027h2.27v2.27h-2.27z M61.297 59.027h6.811v2.27h-6.811z M77.189 59.027h2.27v2.27h-2.27z M4.541 61.297h4.541v2.27h-4.541z M15.892 61.297h15.892v2.27h-15.892z M38.595 61.297h2.27v2.27h-2.27z M45.405 61.297h4.541v2.27h-4.541z M61.297 61.297h4.541v2.27h-4.541z M68.108 61.297h6.811v2.27h-6.811z M77.189 61.297h2.27v2.27h-2.27z M81.73 61.297h2.27v2.27h-2.27z M0.0 63.568h11.351v2.27h-11.351z M13.622 63.568h2.27v2.27h-2.27z M18.162 63.568h6.811v2.27h-6.811z M31.784 63.568h13.622v2.27h-13.622z M47.676 63.568h4.541v2.27h-4.541z M54.486 63.568h2.27v2.27h-2.27z M61.297 63.568h13.622v2.27h-13.622z M77.189 63.568h2.27v2.27h-2.27z M18.162 65.838h6.811v2.27h-6.811z M29.514 65.838h6.811v2.27h-6.811z M38.595 65.838h2.27v2.27h-2.27z M47.676 65.838h6.811v2.27h-6.811z M56.757 65.838h4.541v2.27h-4.541z M63.568 65.838h2.27v2.27h-2.27z M72.649 65.838h2.27v2.27h-2.27z M79.459 65.838h2.27v2.27h-2.27z M0.0 68.108h15.892v2.27h-15.892z M18.162 68.108h2.27v2.27h-2.27z M22.703 68.108h6.811v2.27h-6.811z M31.784 68.108h4.541v2.27h-4.541z M40.865 68.108h2.27v2.27h-2.27z M45.405 68.108h2.27v2.27h-2.27z M52.216 68.108h4.541v2.27h-4.541z M59.027 68.108h2.27v2.27h-2.27z M63.568 68.108h2.27v2.27h-2.27z M68.108 68.108h2.27v2.27h-2.27z M72.649 68.108h2.27v2.27h-2.27z M79.459 68.108h2.27v2.27h-2.27z M0.0 70.378h2.27v2.27h-2.27z M13.622 70.378h2.27v2.27h-2.27z M24.973 70.378h2.27v2.27h-2.27z M29.514 70.378h2.27v2.27h-2.27z M43.135 70.378h9.081v2.27h-9.081z M54.486 70.378h2.27v2.27h-2.27z M61.297 70.378h4.541v2.27h-4.541z M72.649 70.378h6.811v2.27h-6.811z M81.73 70.378h2.27v2.27h-2.27z M0.0 72.649h2.27v2.27h-2.27z M4.541 72.649h6.811v2.27h-6.811z M13.622 72.649h2.27v2.27h-2.27z M18.162 72.649h9.081v2.27h-9.081z M29.514 72.649h9.081v2.27h-9.081z M47.676 72.649h4.541v2.27h-4.541z M59.027 72.649h2.27v2.27h-2.27z M63.568 72.649h18.162v2.27h-18.162z M0.0 74.919h2.27v2.27h-2.27z M4.541 74.919h6.811v2.27h-6.811z M13.622 74.919h2.27v2.27h-2.27z M20.432 74.919h2.27v2.27h-2.27z M29.514 74.919h2.27v2.27h-2.27z M40.865 74.919h2.27v2.27h-2.27z M56.757 74.919h4.541v2.27h-4.541z M65.838 74.919h6.811v2.27h-6.811z M77.189 74.919h2.27v2.27h-2.27z M81.73 74.919h2.27v2.27h-2.27z M0.0 77.189h2.27v2.27h-2.27z M4.541 77.189h6.811v2.27h-6.811z M13.622 77.189h2.27v2.27h-2.27z M20.432 77.189h4.541v2.27h-4.541z M31.784 77.189h4.541v2.27h-4.541z M40.865 77.189h2.27v2.27h-2.27z M47.676 77.189h9.081v2.27h-9.081z M61.297 77.189h2.27v2.27h-2.27z M65.838 77.189h4.541v2.27h-4.541z M77.189 77.189h2.27v2.27h-2.27z M0.0 79.459h2.27v2.27h-2.27z M13.622 79.459h2.27v2.27h-2.27z M20.432 79.459h4.541v2.27h-4.541z M27.243 79.459h2.27v2.27h-2.27z M31.784 79.459h9.081v2.27h-9.081z M45.405 79.459h11.351v2.27h-11.351z M59.027 79.459h4.541v2.27h-4.541z M65.838 79.459h2.27v2.27h-2.27z M72.649 79.459h2.27v2.27h-2.27z M77.189 79.459h4.541v2.27h-4.541z M0.0 81.73h15.892v2.27h-15.892z M18.162 81.73h4.541v2.27h-4.541z M24.973 81.73h4.541v2.27h-4.541z M38.595 81.73h18.162v2.27h-18.162z M61.297 81.73h2.27v2.27h-2.27z M65.838 81.73h2.27v2.27h-2.27z M70.378 81.73h2.27v2.27h-2.27z M77.189 81.73h6.811v2.27h-6.811z"/>
</g>
<text x="1122" y="614" font-family="Inter, Helvetica, Arial, sans-serif" font-size="10" font-weight="700" fill="#F5F7FA" text-anchor="middle">scan / full post</text>
</svg>