<svg xmlns="http://www.w3.org/2000/svg" viewBox="0 0 1200 630" width="1200" height="630" role="img" aria-label="Weekly security digest 2026-04-13: CPUID supply-chain breach distributes STX RAT via trojanized CPU-Z and HWMonitor tools, Marimo critical pre-auth RCE actively exploited with credential theft, Adobe Acrobat zero-day CVE-2026-34621 patched, Google Pixel 10 adopts Rust in baseband firmware for memory safety">
<title>2026-04-13 digest: CPUID STX RAT (Medium), Marimo RCE (Critical), Adobe CVE-2026-34621 zero-day (Critical)</title>
<defs>
  <linearGradient id="bgSpread" x1="0%" y1="0%" x2="100%" y2="100%">
    <stop offset="0%" stop-color="#0A1226"/>
    <stop offset="50%" stop-color="#0C1430"/>
    <stop offset="100%" stop-color="#131038"/>
  </linearGradient>
  <linearGradient id="bandA" x1="0%" y1="0%" x2="100%" y2="0%">
    <stop offset="0%" stop-color="#1C1000"/>
    <stop offset="100%" stop-color="#251800"/>
  </linearGradient>
  <linearGradient id="bandB" x1="0%" y1="0%" x2="100%" y2="0%">
    <stop offset="0%" stop-color="#1A0808"/>
    <stop offset="100%" stop-color="#240A0A"/>
  </linearGradient>
  <linearGradient id="bandC" x1="0%" y1="0%" x2="100%" y2="0%">
    <stop offset="0%" stop-color="#0A1020"/>
    <stop offset="100%" stop-color="#0E1628"/>
  </linearGradient>
  <linearGradient id="cveCard" x1="0%" y1="0%" x2="0%" y2="100%">
    <stop offset="0%" stop-color="#3D0808"/>
    <stop offset="100%" stop-color="#1A0404"/>
  </linearGradient>
  <linearGradient id="shieldGrad" x1="0%" y1="0%" x2="0%" y2="100%">
    <stop offset="0%" stop-color="#E63946"/>
    <stop offset="100%" stop-color="#7A0000"/>
  </linearGradient>
  <linearGradient id="gearGrad" x1="0%" y1="0%" x2="0%" y2="100%">
    <stop offset="0%" stop-color="#3A86FF"/>
    <stop offset="100%" stop-color="#1A56CC"/>
  </linearGradient>
  <radialGradient id="amberGlow" cx="50%" cy="50%" r="50%">
    <stop offset="0%" stop-color="#FFB703" stop-opacity="0.45"/>
    <stop offset="100%" stop-color="#FFB703" stop-opacity="0"/>
  </radialGradient>
  <radialGradient id="redGlow" cx="50%" cy="50%" r="50%">
    <stop offset="0%" stop-color="#E63946" stop-opacity="0.5"/>
    <stop offset="100%" stop-color="#E63946" stop-opacity="0"/>
  </radialGradient>
  <radialGradient id="blueGlow" cx="50%" cy="50%" r="50%">
    <stop offset="0%" stop-color="#3A86FF" stop-opacity="0.35"/>
    <stop offset="100%" stop-color="#3A86FF" stop-opacity="0"/>
  </radialGradient>
  <filter id="softShadow" x="-10%" y="-10%" width="130%" height="130%">
    <feGaussianBlur in="SourceAlpha" stdDeviation="2.5"/>
    <feOffset dx="1" dy="3"/>
    <feComponentTransfer><feFuncA type="linear" slope="0.55"/></feComponentTransfer>
    <feMerge><feMergeNode/><feMergeNode in="SourceGraphic"/></feMerge>
  </filter>
  <filter id="textShadow" x="-5%" y="-5%" width="110%" height="110%">
    <feGaussianBlur in="SourceAlpha" stdDeviation="1.2"/>
    <feOffset dx="0" dy="1.5"/>
    <feComponentTransfer><feFuncA type="linear" slope="0.85"/></feComponentTransfer>
    <feMerge><feMergeNode/><feMergeNode in="SourceGraphic"/></feMerge>
  </filter>
  <pattern id="hexDot" x="0" y="0" width="20" height="20" patternUnits="userSpaceOnUse">
    <circle cx="10" cy="10" r="0.7" fill="#2A3A56" opacity="0.5"/>
  </pattern>
  <pattern id="ledgerGrid" x="0" y="0" width="40" height="20" patternUnits="userSpaceOnUse">
    <path d="M0 20 L40 20" stroke="#2A2010" stroke-width="0.4" opacity="0.5"/>
    <path d="M40 0 L40 20" stroke="#2A2010" stroke-width="0.4" opacity="0.5"/>
  </pattern>
</defs>

<!-- Background -->
<rect width="1200" height="630" fill="url(#bgSpread)"/>
<rect width="1200" height="630" fill="url(#hexDot)" opacity="0.4"/>

<!-- ===== HEADER ===== -->
<rect x="0" y="0" width="1200" height="56" fill="#050D1A"/>
<rect x="0" y="54" width="1200" height="2" fill="#E63946" opacity="0.65"/>
<g filter="url(#textShadow)">
  <text x="30" y="36" font-family="Inter, Helvetica, Arial, sans-serif" font-size="13" font-weight="700" letter-spacing="2.4" fill="#BFC9D9">TECH SECURITY</text>
  <text x="232" y="36" font-family="Inter, Helvetica, Arial, sans-serif" font-size="13" font-weight="400" fill="#3A4A5A">|</text>
  <text x="248" y="36" font-family="Inter, Helvetica, Arial, sans-serif" font-size="13" font-weight="700" letter-spacing="2" fill="#8FB8FF">WEEKLY DIGEST</text>
  <text x="488" y="36" font-family="Inter, Helvetica, Arial, sans-serif" font-size="13" font-weight="400" fill="#3A4A5A">|</text>
  <text x="504" y="36" font-family="Inter, Helvetica, Arial, sans-serif" font-size="13" font-weight="700" letter-spacing="1.5" fill="#BFC9D9">2026.04.13</text>
</g>
<!-- HQ marker -->
<g transform="translate(1130, 18)">
  <rect x="0" y="0" width="42" height="22" rx="4" fill="#1A2A3A" stroke="#8FB8FF" stroke-width="1.2"/>
  <text x="21" y="15" text-anchor="middle" font-family="Inter, Helvetica, Arial, sans-serif" font-size="11" font-weight="700" letter-spacing="1.5" fill="#8FB8FF">HQ</text>
  <animate attributeName="opacity" values="0.7;1;0.7" dur="3.2s" repeatCount="indefinite"/>
</g>
<!-- Starfield in header -->
<circle cx="190" cy="28" r="1.1" fill="#F5F7FA">
  <animate attributeName="opacity" values="0.2;1;0.2" dur="3.1s" repeatCount="indefinite"/>
</circle>
<circle cx="420" cy="20" r="0.9" fill="#8FB8FF">
  <animate attributeName="opacity" values="0.3;0.9;0.3" dur="2.4s" repeatCount="indefinite"/>
</circle>
<circle cx="760" cy="32" r="1.0" fill="#F5F7FA">
  <animate attributeName="opacity" values="0.1;0.8;0.1" dur="4.2s" repeatCount="indefinite"/>
</circle>
<circle cx="1020" cy="18" r="0.8" fill="#8FB8FF">
  <animate attributeName="opacity" values="0.2;1;0.2" dur="3.6s" repeatCount="indefinite"/>
</circle>

<!-- ===== BAND A: CPUID/CPU-Z Supply Chain — Medium (Amber) ===== -->
<rect x="0" y="56" width="1200" height="192" fill="url(#bandA)"/>
<rect x="0" y="56" width="1200" height="192" fill="url(#ledgerGrid)" opacity="0.55"/>
<!-- Left accent bar Amber -->
<rect x="0" y="56" width="8" height="192" fill="#FFB703">
  <animate attributeName="opacity" values="0.75;1;0.75" dur="2.6s" repeatCount="indefinite"/>
</rect>
<!-- Ambient glow -->
<ellipse cx="660" cy="152" rx="130" ry="55" fill="url(#amberGlow)" opacity="0.55"/>

<g filter="url(#textShadow)">
  <text x="30" y="96" font-family="Inter, Helvetica, Arial, sans-serif" font-size="15" font-weight="700" letter-spacing="2.2" fill="#FFB703">SUPPLY CHAIN  ·  MEDIUM</text>
  <text x="30" y="132" font-family="Inter, Helvetica, Arial, sans-serif" font-size="33" font-weight="800" fill="#F5F7FA">CPUID Breach: STX RAT via CPU-Z</text>
  <text x="30" y="162" font-family="Inter, Helvetica, Arial, sans-serif" font-size="17" font-weight="600" fill="#D4C090">Trojanized CPU-Z and HWMonitor distributed</text>
  <text x="30" y="186" font-family="Inter, Helvetica, Arial, sans-serif" font-size="13" font-weight="500" fill="#BFC9D9">24-hr window : Apr 9 15:00 UTC - Apr 10 10:00 UTC : The Hacker News</text>
  <text x="30" y="224" font-family="Inter, Helvetica, Arial, sans-serif" font-size="12" font-weight="500" fill="#9AAA7A">Supply chain attack via trusted hardware utility · STX RAT enables full remote control</text>
</g>

<!-- CPU chip icon -->
<g transform="translate(718, 82)">
  <rect x="0" y="0" width="88" height="88" rx="8" fill="#1A1200" stroke="#FFB703" stroke-width="1.5" opacity="0.9"/>
  <rect x="10" y="10" width="68" height="68" rx="4" fill="#222200" stroke="#FFB703" stroke-width="0.8" opacity="0.65"/>
  <!-- Pins left -->
  <line x1="-12" y1="22" x2="0" y2="22" stroke="#FFB703" stroke-width="1.5" opacity="0.7"/>
  <line x1="-12" y1="38" x2="0" y2="38" stroke="#FFB703" stroke-width="1.5" opacity="0.7"/>
  <line x1="-12" y1="54" x2="0" y2="54" stroke="#FFB703" stroke-width="1.5" opacity="0.7"/>
  <line x1="-12" y1="70" x2="0" y2="70" stroke="#FFB703" stroke-width="1.5" opacity="0.7"/>
  <!-- Pins right -->
  <line x1="88" y1="22" x2="100" y2="22" stroke="#FFB703" stroke-width="1.5" opacity="0.7"/>
  <line x1="88" y1="38" x2="100" y2="38" stroke="#FFB703" stroke-width="1.5" opacity="0.7"/>
  <line x1="88" y1="54" x2="100" y2="54" stroke="#FFB703" stroke-width="1.5" opacity="0.7"/>
  <line x1="88" y1="70" x2="100" y2="70" stroke="#FFB703" stroke-width="1.5" opacity="0.7"/>
  <!-- Danger badge in CPU -->
  <circle cx="44" cy="44" r="20" fill="#2A1A00" stroke="#FFB703" stroke-width="1.2" opacity="0.95"/>
  <text x="44" y="52" text-anchor="middle" font-family="Arial, sans-serif" font-size="24" font-weight="900" fill="#FFB703">!</text>
  <text x="44" y="108" text-anchor="middle" font-family="Inter, Helvetica, Arial, sans-serif" font-size="10" font-weight="700" fill="#FFB703" letter-spacing="1">CPU-Z TROJANIZED</text>
</g>

<!-- Dashed arrow CPU-Z to RAT -->
<g>
  <line x1="830" y1="126" x2="888" y2="126" stroke="#FFB703" stroke-width="1.5" stroke-dasharray="5 3" opacity="0.75">
    <animate attributeName="stroke-dashoffset" values="0;-16" dur="1.6s" repeatCount="indefinite"/>
  </line>
  <polygon points="888,120 900,126 888,132" fill="#FFB703" opacity="0.85"/>
</g>

<!-- STX RAT box -->
<g transform="translate(902, 104)">
  <rect x="0" y="0" width="86" height="58" rx="7" fill="#2A1600" stroke="#FFB703" stroke-width="1.3" opacity="0.9"/>
  <text x="43" y="20" text-anchor="middle" font-family="Monaco, monospace" font-size="9" font-weight="700" fill="#FFB703" letter-spacing="1.5">STX RAT</text>
  <text x="43" y="40" text-anchor="middle" font-family="Monaco, monospace" font-size="18" fill="#FFB703" opacity="0.9">RAT</text>
  <text x="43" y="54" text-anchor="middle" font-family="Inter, Helvetica, Arial, sans-serif" font-size="8" font-weight="500" fill="#BFC9D9">REMOTE ACCESS</text>
</g>

<!-- KPI card Band A -->
<g transform="translate(1045, 82)" filter="url(#softShadow)">
  <rect x="0" y="0" width="150" height="120" rx="12" fill="#120A00" stroke="#FFB703" stroke-width="2"/>
  <text x="75" y="24" text-anchor="middle" font-family="Inter, Helvetica, Arial, sans-serif" font-size="11" font-weight="700" letter-spacing="2" fill="#FFB703">EXPOSURE</text>
  <text x="75" y="80" text-anchor="middle" font-family="Inter, Helvetica, Arial, sans-serif" font-size="58" font-weight="900" fill="#F5F7FA">24h</text>
  <text x="75" y="104" text-anchor="middle" font-family="Inter, Helvetica, Arial, sans-serif" font-size="11" font-weight="600" fill="#D4C090">attack window</text>
  <circle cx="75" cy="114" r="5" fill="#FFB703" opacity="0.7">
    <animate attributeName="opacity" values="0.35;1;0.35" dur="1.8s" repeatCount="indefinite"/>
  </circle>
</g>

<!-- Band A/B divider -->
<line x1="0" y1="248" x2="1200" y2="248" stroke="#2A3040" stroke-width="1" opacity="0.7"/>

<!-- ===== BAND B: Marimo Pre-Auth RCE — CRITICAL (Red) ===== -->
<rect x="0" y="248" width="1200" height="192" fill="url(#bandB)"/>
<rect x="0" y="248" width="1200" height="192" fill="url(#hexDot)" opacity="0.4"/>
<!-- Left accent bar Red -->
<rect x="0" y="248" width="8" height="192" fill="#E63946">
  <animate attributeName="opacity" values="0.85;1;0.85" dur="1.7s" repeatCount="indefinite"/>
</rect>
<!-- Red ambient glow -->
<ellipse cx="700" cy="344" rx="140" ry="62" fill="url(#redGlow)" opacity="0.4"/>

<g filter="url(#textShadow)">
  <text x="30" y="286" font-family="Inter, Helvetica, Arial, sans-serif" font-size="15" font-weight="700" letter-spacing="2.2" fill="#E63946">PRE-AUTH RCE  ·  CRITICAL</text>
  <text x="30" y="324" font-family="Inter, Helvetica, Arial, sans-serif" font-size="33" font-weight="800" fill="#F5F7FA">Marimo RCE: Active Exploitation</text>
  <text x="30" y="354" font-family="Inter, Helvetica, Arial, sans-serif" font-size="17" font-weight="600" fill="#F09090">No auth required — full remote code exec</text>
  <text x="30" y="378" font-family="Inter, Helvetica, Arial, sans-serif" font-size="13" font-weight="500" fill="#BFC9D9">Credential theft confirmed : patch immediately : BleepingComputer</text>
  <text x="30" y="416" font-family="Inter, Helvetica, Arial, sans-serif" font-size="12" font-weight="500" fill="#C08080">Pre-auth HTTP vector triggers arbitrary code execution — credentials exfiltrated</text>
</g>

<!-- Cracked shield -->
<g transform="translate(718, 268)">
  <path d="M46,0 L84,20 L84,54 Q84,86 46,100 Q8,86 8,54 L8,20 Z" fill="url(#shieldGrad)" opacity="0.9"/>
  <!-- Crack lines -->
  <path d="M42,18 L52,42 L44,52 L55,74" stroke="#F5F7FA" stroke-width="3" fill="none" stroke-linecap="round" opacity="0.95"/>
  <path d="M52,42 L60,48" stroke="#F5F7FA" stroke-width="1.5" fill="none" stroke-linecap="round" opacity="0.7"/>
  <!-- Pulse ring around shield -->
  <ellipse cx="46" cy="52" rx="52" ry="60" fill="none" stroke="#E63946" stroke-width="1.2" opacity="0.4">
    <animate attributeName="rx" values="50;62;50" dur="2.0s" repeatCount="indefinite"/>
    <animate attributeName="ry" values="58;70;58" dur="2.0s" repeatCount="indefinite"/>
    <animate attributeName="opacity" values="0.5;0.1;0.5" dur="2.0s" repeatCount="indefinite"/>
  </ellipse>
  <text x="46" y="118" text-anchor="middle" font-family="Inter, Helvetica, Arial, sans-serif" font-size="10" font-weight="700" fill="#E63946" letter-spacing="1.5">SHIELD BROKEN</text>
</g>

<!-- HTTP req arrow chain -->
<g transform="translate(830, 304)">
  <rect x="0" y="0" width="86" height="34" rx="6" fill="#2A0808" stroke="#E63946" stroke-width="1.2"/>
  <text x="43" y="21" text-anchor="middle" font-family="Monaco, monospace" font-size="11" fill="#E63946">HTTP REQ</text>
  <line x1="86" y1="17" x2="114" y2="17" stroke="#E63946" stroke-width="1.5" opacity="0.85"/>
  <polygon points="114,11 126,17 114,23" fill="#E63946" opacity="0.9"/>
  <rect x="126" y="0" width="80" height="34" rx="6" fill="#3A0808" stroke="#E63946" stroke-width="1.8"/>
  <text x="166" y="21" text-anchor="middle" font-family="Monaco, monospace" font-size="12" fill="#F5F7FA" font-weight="700">RCE</text>
</g>

<!-- KPI card Band B -->
<g transform="translate(1045, 268)" filter="url(#softShadow)">
  <rect x="0" y="0" width="150" height="148" rx="12" fill="#1A0408" stroke="#E63946" stroke-width="2.2"/>
  <text x="75" y="24" text-anchor="middle" font-family="Inter, Helvetica, Arial, sans-serif" font-size="11" font-weight="700" letter-spacing="2" fill="#E63946">SEVERITY</text>
  <text x="75" y="72" text-anchor="middle" font-family="Inter, Helvetica, Arial, sans-serif" font-size="42" font-weight="900" fill="#E63946">CRIT</text>
  <text x="75" y="98" text-anchor="middle" font-family="Inter, Helvetica, Arial, sans-serif" font-size="11" font-weight="600" fill="#F09090">active exploit</text>
  <text x="75" y="116" text-anchor="middle" font-family="Inter, Helvetica, Arial, sans-serif" font-size="11" font-weight="500" fill="#BFC9D9">patch now</text>
  <!-- Pulsing danger ring -->
  <circle cx="75" cy="134" r="8" fill="none" stroke="#E63946" stroke-width="2">
    <animate attributeName="r" values="6;14;6" dur="1.5s" repeatCount="indefinite"/>
    <animate attributeName="opacity" values="1;0.1;1" dur="1.5s" repeatCount="indefinite"/>
  </circle>
</g>

<!-- Band B/C divider -->
<line x1="0" y1="440" x2="1200" y2="440" stroke="#2A3040" stroke-width="1" opacity="0.7"/>

<!-- ===== BAND C: Adobe Acrobat CVE-2026-34621 Zero-Day — CRITICAL patched (Blue) ===== -->
<rect x="0" y="440" width="1200" height="190" fill="url(#bandC)"/>
<rect x="0" y="440" width="1200" height="190" fill="url(#hexDot)" opacity="0.35"/>
<!-- Left accent bar Blue -->
<rect x="0" y="440" width="8" height="190" fill="#3A86FF">
  <animate attributeName="opacity" values="0.75;1;0.75" dur="2.3s" repeatCount="indefinite"/>
</rect>
<!-- Blue ambient glow -->
<ellipse cx="700" cy="535" rx="130" ry="52" fill="url(#blueGlow)" opacity="0.45"/>

<g filter="url(#textShadow)">
  <text x="30" y="478" font-family="Inter, Helvetica, Arial, sans-serif" font-size="15" font-weight="700" letter-spacing="2.2" fill="#3A86FF">ZERO-DAY PATCH  ·  CRITICAL</text>
  <text x="30" y="516" font-family="Inter, Helvetica, Arial, sans-serif" font-size="33" font-weight="800" fill="#F5F7FA">Adobe Acrobat CVE-2026-34621</text>
  <text x="30" y="546" font-family="Inter, Helvetica, Arial, sans-serif" font-size="17" font-weight="600" fill="#90B8F0">Actively exploited Reader zero-day — patch deployed</text>
  <text x="30" y="570" font-family="Inter, Helvetica, Arial, sans-serif" font-size="13" font-weight="500" fill="#BFC9D9">CVE-2026-34621 : Adobe Acrobat Reader : The Hacker News</text>
  <text x="30" y="606" font-family="Inter, Helvetica, Arial, sans-serif" font-size="12" font-weight="500" fill="#7898B0">Rust in Google Pixel 10 baseband firmware — memory safety milestone</text>
</g>

<!-- Rotating patch gear -->
<g transform="translate(730, 460)">
  <g>
    <!-- Outer gear ring -->
    <circle cx="48" cy="48" r="43" fill="none" stroke="#3A86FF" stroke-width="2" opacity="0.55"/>
    <!-- Gear teeth -->
    <rect x="44" y="2" width="8" height="13" rx="3" fill="#3A86FF" opacity="0.7"/>
    <rect x="44" y="81" width="8" height="13" rx="3" fill="#3A86FF" opacity="0.7"/>
    <rect x="2" y="44" width="13" height="8" rx="3" fill="#3A86FF" opacity="0.7"/>
    <rect x="81" y="44" width="13" height="8" rx="3" fill="#3A86FF" opacity="0.7"/>
    <rect x="13" y="13" width="9" height="9" rx="2" fill="#3A86FF" opacity="0.55" transform="rotate(45 17 17)"/>
    <rect x="75" y="13" width="9" height="9" rx="2" fill="#3A86FF" opacity="0.55" transform="rotate(45 79 17)"/>
    <rect x="13" y="75" width="9" height="9" rx="2" fill="#3A86FF" opacity="0.55" transform="rotate(45 17 79)"/>
    <rect x="75" y="75" width="9" height="9" rx="2" fill="#3A86FF" opacity="0.55" transform="rotate(45 79 79)"/>
    <!-- Gear body -->
    <circle cx="48" cy="48" r="31" fill="url(#gearGrad)" opacity="0.9"/>
    <!-- Checkmark = patch applied -->
    <path d="M32,48 L43,62 L66,32" stroke="#F5F7FA" stroke-width="4.5" fill="none" stroke-linecap="round" stroke-linejoin="round"/>
    <animateTransform attributeName="transform" type="rotate" from="0 48 48" to="360 48 48" dur="20s" repeatCount="indefinite" additive="sum"/>
  </g>
  <text x="48" y="116" text-anchor="middle" font-family="Inter, Helvetica, Arial, sans-serif" font-size="10" font-weight="700" fill="#3A86FF" letter-spacing="1">PATCH APPLIED</text>
</g>

<!-- CVE badge card -->
<g transform="translate(858, 472)" filter="url(#softShadow)">
  <rect x="0" y="0" width="138" height="58" rx="10" fill="url(#cveCard)" stroke="#E63946" stroke-width="1.5"/>
  <text x="69" y="22" text-anchor="middle" font-family="Monaco, monospace" font-size="10" font-weight="700" fill="#E63946" letter-spacing="0.8">CVE-2026-34621</text>
  <text x="69" y="44" text-anchor="middle" font-family="Inter, Helvetica, Arial, sans-serif" font-size="12" font-weight="600" fill="#F5F7FA">Acrobat Reader</text>
</g>

<!-- Rust badge -->
<g transform="translate(862, 548)">
  <rect x="0" y="0" width="128" height="50" rx="8" fill="#2A0E08" stroke="#CE422B" stroke-width="1.4"/>
  <text x="28" y="20" font-family="Inter, Helvetica, Arial, sans-serif" font-size="18" fill="#CE422B">&#x2699;</text>
  <text x="48" y="20" font-family="Inter, Helvetica, Arial, sans-serif" font-size="13" font-weight="700" fill="#CE422B" letter-spacing="1">RUST</text>
  <text x="64" y="40" text-anchor="middle" font-family="Inter, Helvetica, Arial, sans-serif" font-size="9" font-weight="500" fill="#BFC9D9">Pixel 10 baseband</text>
</g>

<!-- KPI card Band C -->
<g transform="translate(1045, 462)" filter="url(#softShadow)">
  <rect x="0" y="0" width="150" height="148" rx="12" fill="#06101E" stroke="#3A86FF" stroke-width="2"/>
  <text x="75" y="24" text-anchor="middle" font-family="Inter, Helvetica, Arial, sans-serif" font-size="11" font-weight="700" letter-spacing="2" fill="#3A86FF">CVE</text>
  <text x="75" y="60" text-anchor="middle" font-family="Monaco, monospace" font-size="16" font-weight="700" fill="#E63946">34621</text>
  <text x="75" y="92" text-anchor="middle" font-family="Inter, Helvetica, Arial, sans-serif" font-size="26" font-weight="900" fill="#F5F7FA">0-Day</text>
  <text x="75" y="114" text-anchor="middle" font-family="Inter, Helvetica, Arial, sans-serif" font-size="11" font-weight="600" fill="#90B8F0">patched</text>
  <text x="75" y="132" text-anchor="middle" font-family="Inter, Helvetica, Arial, sans-serif" font-size="11" font-weight="500" fill="#BFC9D9">update now</text>
  <circle cx="75" cy="144" r="5" fill="#3A86FF" opacity="0.6">
    <animate attributeName="opacity" values="0.3;0.9;0.3" dur="2.1s" repeatCount="indefinite"/>
  </circle>
</g>

<!-- Bottom accent line -->
<rect x="0" y="628" width="1200" height="2" fill="#3A86FF" opacity="0.45"/>

<!-- cover-qr: https://tech.2twodragon.com/posts/2026/04/13/Tech_Security_Weekly_Digest_CVE_Patch_Zero-Day_Rust/ : 41x41 -->
<g transform="translate(1080,504)" filter="url(#softShadow)">
  <rect x="-8" y="-8" width="100" height="100" rx="6" fill="#FFFFFF"/>
  <g transform="scale(2.048780)" fill="#0A1020">
    <path d="M0 0h7v1h-7zM8 0h1v1h-1zM11 0h2v1h-2zM15 0h3v1h-3zM20 0h3v1h-3zM28 0h1v1h-1zM30 0h3v1h-3zM34 0h7v1h-7zM0 1h1v1h-1zM6 1h1v1h-1zM8 1h1v1h-1zM10 1h1v1h-1zM14 1h1v1h-1zM16 1h1v1h-1zM18 1h1v1h-1zM23 1h1v1h-1zM29 1h2v1h-2zM34 1h1v1h-1zM40 1h1v1h-1zM0 2h1v1h-1zM2 2h3v1h-3zM6 2h1v1h-1zM9 2h1v1h-1zM12 2h1v1h-1zM17 2h1v1h-1zM20 2h1v1h-1zM24 2h3v1h-3zM31 2h2v1h-2zM34 2h1v1h-1zM36 2h3v1h-3zM40 2h1v1h-1zM0 3h1v1h-1zM2 3h3v1h-3zM6 3h1v1h-1zM8 3h1v1h-1zM10 3h1v1h-1zM13 3h1v1h-1zM15 3h2v1h-2zM19 3h3v1h-3zM25 3h5v1h-5zM32 3h1v1h-1zM34 3h1v1h-1zM36 3h3v1h-3zM40 3h1v1h-1zM0 4h1v1h-1zM2 4h3v1h-3zM6 4h1v1h-1zM9 4h8v1h-8zM22 4h3v1h-3zM27 4h1v1h-1zM29 4h1v1h-1zM31 4h2v1h-2zM34 4h1v1h-1zM36 4h3v1h-3zM40 4h1v1h-1zM0 5h1v1h-1zM6 5h1v1h-1zM9 5h6v1h-6zM17 5h6v1h-6zM24 5h1v1h-1zM28 5h1v1h-1zM30 5h2v1h-2zM34 5h1v1h-1zM40 5h1v1h-1zM0 6h7v1h-7zM8 6h1v1h-1zM10 6h1v1h-1zM12 6h1v1h-1zM14 6h1v1h-1zM16 6h1v1h-1zM18 6h1v1h-1zM20 6h1v1h-1zM22 6h1v1h-1zM24 6h1v1h-1zM26 6h1v1h-1zM28 6h1v1h-1zM30 6h1v1h-1zM32 6h1v1h-1zM34 6h7v1h-7zM8 7h1v1h-1zM12 7h3v1h-3zM17 7h1v1h-1zM19 7h1v1h-1zM24 7h1v1h-1zM26 7h1v1h-1zM29 7h1v1h-1zM31 7h2v1h-2zM0 8h1v1h-1zM2 8h2v1h-2zM5 8h3v1h-3zM12 8h2v1h-2zM15 8h4v1h-4zM21 8h1v1h-1zM23 8h2v1h-2zM26 8h1v1h-1zM29 8h4v1h-4zM34 8h1v1h-1zM37 8h1v1h-1zM39 8h2v1h-2zM3 9h2v1h-2zM9 9h1v1h-1zM11 9h1v1h-1zM13 9h2v1h-2zM16 9h1v1h-1zM18 9h2v1h-2zM21 9h1v1h-1zM23 9h1v1h-1zM26 9h1v1h-1zM30 9h3v1h-3zM35 9h2v1h-2zM38 9h3v1h-3zM1 10h1v1h-1zM3 10h1v1h-1zM6 10h1v1h-1zM9 10h8v1h-8zM20 10h1v1h-1zM22 10h2v1h-2zM29 10h1v1h-1zM33 10h1v1h-1zM38 10h2v1h-2zM0 11h1v1h-1zM3 11h1v1h-1zM5 11h1v1h-1zM9 11h4v1h-4zM14 11h2v1h-2zM18 11h1v1h-1zM20 11h1v1h-1zM22 11h1v1h-1zM24 11h2v1h-2zM27 11h1v1h-1zM32 11h3v1h-3zM36 11h1v1h-1zM39 11h1v1h-1zM3 12h2v1h-2zM6 12h1v1h-1zM8 12h1v1h-1zM10 12h2v1h-2zM13 12h1v1h-1zM15 12h3v1h-3zM19 12h2v1h-2zM22 12h1v1h-1zM24 12h2v1h-2zM28 12h4v1h-4zM35 12h1v1h-1zM37 12h3v1h-3zM0 13h2v1h-2zM3 13h1v1h-1zM5 13h1v1h-1zM8 13h1v1h-1zM16 13h2v1h-2zM20 13h2v1h-2zM23 13h6v1h-6zM30 13h1v1h-1zM33 13h2v1h-2zM37 13h1v1h-1zM39 13h2v1h-2zM0 14h1v1h-1zM4 14h3v1h-3zM8 14h1v1h-1zM10 14h4v1h-4zM15 14h1v1h-1zM19 14h3v1h-3zM23 14h1v1h-1zM25 14h1v1h-1zM28 14h2v1h-2zM31 14h2v1h-2zM34 14h3v1h-3zM38 14h3v1h-3zM2 15h4v1h-4zM7 15h3v1h-3zM11 15h2v1h-2zM15 15h2v1h-2zM18 15h1v1h-1zM21 15h3v1h-3zM26 15h1v1h-1zM32 15h1v1h-1zM34 15h1v1h-1zM36 15h2v1h-2zM2 16h1v1h-1zM6 16h1v1h-1zM8 16h3v1h-3zM13 16h1v1h-1zM16 16h1v1h-1zM18 16h1v1h-1zM22 16h1v1h-1zM24 16h2v1h-2zM30 16h3v1h-3zM36 16h2v1h-2zM39 16h1v1h-1zM0 17h2v1h-2zM7 17h3v1h-3zM11 17h1v1h-1zM13 17h1v1h-1zM15 17h2v1h-2zM19 17h7v1h-7zM32 17h2v1h-2zM35 17h1v1h-1zM37 17h1v1h-1zM2 18h1v1h-1zM4 18h1v1h-1zM6 18h5v1h-5zM18 18h1v1h-1zM20 18h1v1h-1zM22 18h1v1h-1zM25 18h1v1h-1zM27 18h2v1h-2zM30 18h1v1h-1zM32 18h1v1h-1zM36 18h1v1h-1zM38 18h2v1h-2zM2 19h3v1h-3zM7 19h1v1h-1zM13 19h1v1h-1zM15 19h1v1h-1zM17 19h2v1h-2zM21 19h1v1h-1zM27 19h4v1h-4zM35 19h1v1h-1zM37 19h3v1h-3zM0 20h2v1h-2zM5 20h2v1h-2zM8 20h2v1h-2zM12 20h2v1h-2zM15 20h2v1h-2zM19 20h2v1h-2zM26 20h2v1h-2zM29 20h6v1h-6zM36 20h4v1h-4zM0 21h2v1h-2zM4 21h1v1h-1zM12 21h3v1h-3zM16 21h1v1h-1zM20 21h2v1h-2zM23 21h2v1h-2zM26 21h1v1h-1zM31 21h1v1h-1zM34 21h3v1h-3zM38 21h3v1h-3zM2 22h1v1h-1zM5 22h7v1h-7zM14 22h2v1h-2zM20 22h1v1h-1zM23 22h2v1h-2zM28 22h3v1h-3zM33 22h4v1h-4zM38 22h2v1h-2zM0 23h1v1h-1zM3 23h1v1h-1zM8 23h2v1h-2zM18 23h2v1h-2zM23 23h1v1h-1zM25 23h1v1h-1zM27 23h1v1h-1zM30 23h1v1h-1zM32 23h2v1h-2zM36 23h1v1h-1zM39 23h2v1h-2zM1 24h1v1h-1zM4 24h3v1h-3zM9 24h1v1h-1zM11 24h1v1h-1zM14 24h2v1h-2zM17 24h1v1h-1zM19 24h1v1h-1zM22 24h1v1h-1zM24 24h3v1h-3zM29 24h1v1h-1zM31 24h1v1h-1zM35 24h1v1h-1zM37 24h1v1h-1zM39 24h1v1h-1zM4 25h2v1h-2zM7 25h5v1h-5zM17 25h1v1h-1zM19 25h1v1h-1zM24 25h2v1h-2zM27 25h1v1h-1zM29 25h1v1h-1zM31 25h3v1h-3zM37 25h2v1h-2zM40 25h1v1h-1zM1 26h2v1h-2zM4 26h1v1h-1zM6 26h1v1h-1zM9 26h2v1h-2zM14 26h3v1h-3zM18 26h3v1h-3zM24 26h1v1h-1zM26 26h1v1h-1zM28 26h2v1h-2zM31 26h2v1h-2zM34 26h1v1h-1zM37 26h1v1h-1zM39 26h2v1h-2zM0 27h1v1h-1zM4 27h1v1h-1zM8 27h1v1h-1zM10 27h1v1h-1zM12 27h3v1h-3zM16 27h1v1h-1zM19 27h5v1h-5zM26 27h2v1h-2zM30 27h8v1h-8zM39 27h1v1h-1zM4 28h1v1h-1zM6 28h2v1h-2zM10 28h1v1h-1zM14 28h1v1h-1zM16 28h1v1h-1zM18 28h5v1h-5zM25 28h4v1h-4zM31 28h3v1h-3zM36 28h2v1h-2zM39 28h1v1h-1zM1 29h1v1h-1zM3 29h1v1h-1zM7 29h3v1h-3zM12 29h3v1h-3zM19 29h2v1h-2zM22 29h1v1h-1zM25 29h2v1h-2zM29 29h2v1h-2zM35 29h1v1h-1zM37 29h1v1h-1zM39 29h1v1h-1zM0 30h1v1h-1zM2 30h2v1h-2zM6 30h6v1h-6zM13 30h1v1h-1zM15 30h2v1h-2zM18 30h2v1h-2zM25 30h4v1h-4zM32 30h4v1h-4zM2 31h3v1h-3zM8 31h2v1h-2zM12 31h1v1h-1zM14 31h6v1h-6zM22 31h1v1h-1zM24 31h1v1h-1zM27 31h3v1h-3zM31 31h1v1h-1zM34 31h1v1h-1zM36 31h5v1h-5zM1 32h1v1h-1zM4 32h1v1h-1zM6 32h1v1h-1zM8 32h2v1h-2zM12 32h1v1h-1zM15 32h1v1h-1zM17 32h2v1h-2zM23 32h2v1h-2zM26 32h2v1h-2zM29 32h2v1h-2zM32 32h7v1h-7zM40 32h1v1h-1zM8 33h2v1h-2zM15 33h1v1h-1zM17 33h1v1h-1zM20 33h4v1h-4zM27 33h3v1h-3zM32 33h1v1h-1zM36 33h1v1h-1zM38 33h3v1h-3zM0 34h7v1h-7zM8 34h3v1h-3zM12 34h2v1h-2zM15 34h1v1h-1zM18 34h1v1h-1zM20 34h1v1h-1zM23 34h2v1h-2zM28 34h2v1h-2zM31 34h2v1h-2zM34 34h1v1h-1zM36 34h4v1h-4zM0 35h1v1h-1zM6 35h1v1h-1zM8 35h1v1h-1zM10 35h1v1h-1zM14 35h1v1h-1zM16 35h2v1h-2zM20 35h1v1h-1zM24 35h2v1h-2zM28 35h1v1h-1zM30 35h1v1h-1zM32 35h1v1h-1zM36 35h1v1h-1zM39 35h1v1h-1zM0 36h1v1h-1zM2 36h3v1h-3zM6 36h1v1h-1zM9 36h3v1h-3zM13 36h1v1h-1zM15 36h2v1h-2zM21 36h1v1h-1zM25 36h1v1h-1zM32 36h7v1h-7zM40 36h1v1h-1zM0 37h1v1h-1zM2 37h3v1h-3zM6 37h1v1h-1zM8 37h3v1h-3zM16 37h2v1h-2zM19 37h1v1h-1zM22 37h1v1h-1zM26 37h2v1h-2zM29 37h3v1h-3zM36 37h2v1h-2zM40 37h1v1h-1zM0 38h1v1h-1zM2 38h3v1h-3zM6 38h1v1h-1zM8 38h2v1h-2zM11 38h1v1h-1zM13 38h3v1h-3zM17 38h5v1h-5zM24 38h1v1h-1zM26 38h1v1h-1zM28 38h2v1h-2zM35 38h1v1h-1zM38 38h3v1h-3zM0 39h1v1h-1zM6 39h1v1h-1zM9 39h2v1h-2zM12 39h3v1h-3zM16 39h2v1h-2zM19 39h1v1h-1zM21 39h2v1h-2zM24 39h1v1h-1zM26 39h1v1h-1zM28 39h1v1h-1zM32 39h2v1h-2zM36 39h2v1h-2zM39 39h1v1h-1zM0 40h7v1h-7zM8 40h2v1h-2zM12 40h1v1h-1zM14 40h1v1h-1zM16 40h3v1h-3zM20 40h4v1h-4zM25 40h1v1h-1zM30 40h1v1h-1zM32 40h3v1h-3zM37 40h3v1h-3z"/>
  </g>
</g>
<text x="1122" y="614" font-family="Inter, Helvetica, Arial, sans-serif" font-size="10" font-weight="700" fill="#F5F7FA" text-anchor="middle">scan / full post</text>
</svg>
