<?xml version="1.0" encoding="UTF-8"?>
<svg xmlns="http://www.w3.org/2000/svg" viewBox="0 0 1200 630" width="1200" height="630">
  <title>Kubernetes Supply Chain Security AI Threats</title>
  <defs>
    
    <filter id="glass" x="-20%" y="-20%" width="140%" height="140%">
      <feGaussianBlur in="SourceGraphic" stdDeviation="8" result="blur" />
      <feColorMatrix in="blur" type="matrix" values="1 0 0 0 0  0 1 0 0 0  0 0 1 0 0  0 0 0 0.6 0" result="glassBg" />
      <feComposite in="SourceGraphic" in2="glassBg" operator="over" />
    </filter>
    
    <filter id="glow">
      <feGaussianBlur stdDeviation="6" result="coloredBlur" />
      <feMerge>
        <feMergeNode in="coloredBlur" />
        <feMergeNode in="SourceGraphic" />
      </feMerge>
    </filter>
    
    <filter id="shadow">
      <feDropShadow dx="0" dy="4" stdDeviation="12" flood-color="#000000" flood-opacity="0.3" />
    </filter>
    
    <filter id="cardGlow">
      <feGaussianBlur stdDeviation="3" result="blur" />
      <feMerge>
        <feMergeNode in="blur" />
        <feMergeNode in="SourceGraphic" />
      </feMerge>
    </filter>
    
    <linearGradient id="bgGrad" x1="0" y1="0" x2="1" y2="1">
      <stop offset="0%" stop-color="#0f172a" />
      <stop offset="50%" stop-color="#162033" />
      <stop offset="100%" stop-color="#1e293b" />
    </linearGradient>
    
    <radialGradient id="meshBlue" cx="70%" cy="30%" r="50%">
      <stop offset="0%" stop-color="#3b82f6" stop-opacity="0.15" />
      <stop offset="100%" stop-color="#3b82f6" stop-opacity="0" />
    </radialGradient>
    <radialGradient id="meshCoral" cx="20%" cy="80%" r="40%">
      <stop offset="0%" stop-color="#f43f5e" stop-opacity="0.08" />
      <stop offset="100%" stop-color="#f43f5e" stop-opacity="0" />
    </radialGradient>
    <radialGradient id="meshPurple" cx="50%" cy="10%" r="35%">
      <stop offset="0%" stop-color="#8b5cf6" stop-opacity="0.1" />
      <stop offset="100%" stop-color="#8b5cf6" stop-opacity="0" />
    </radialGradient>
    
    <linearGradient id="accentLine" x1="0" y1="0" x2="1" y2="0">
      <stop offset="0%" stop-color="#3b82f6" />
      <stop offset="50%" stop-color="#8b5cf6" />
      <stop offset="100%" stop-color="#f43f5e" />
    </linearGradient>
    
    <linearGradient id="tagBorder1" x1="0" y1="0" x2="1" y2="1">
      <stop offset="0%" stop-color="#3b82f6" stop-opacity="0.6" />
      <stop offset="100%" stop-color="#8b5cf6" stop-opacity="0.3" />
    </linearGradient>
    <linearGradient id="tagBorder2" x1="0" y1="0" x2="1" y2="1">
      <stop offset="0%" stop-color="#f43f5e" stop-opacity="0.6" />
      <stop offset="100%" stop-color="#ec4899" stop-opacity="0.3" />
    </linearGradient>
    <linearGradient id="tagBorder3" x1="0" y1="0" x2="1" y2="1">
      <stop offset="0%" stop-color="#10b981" stop-opacity="0.6" />
      <stop offset="100%" stop-color="#3b82f6" stop-opacity="0.3" />
    </linearGradient>
    
    <linearGradient id="cardBorder" x1="0" y1="0" x2="1" y2="1">
      <stop offset="0%" stop-color="rgba(255,255,255,0.2)" />
      <stop offset="100%" stop-color="rgba(255,255,255,0.05)" />
    </linearGradient>
    
    <linearGradient id="pillGrad" x1="0" y1="0" x2="1" y2="0">
      <stop offset="0%" stop-color="#3b82f6" stop-opacity="0.25" />
      <stop offset="100%" stop-color="#8b5cf6" stop-opacity="0.25" />
    </linearGradient>
    
    <linearGradient id="shieldGrad" x1="0" y1="0" x2="0" y2="1">
      <stop offset="0%" stop-color="#3b82f6" />
      <stop offset="100%" stop-color="#1d4ed8" />
    </linearGradient>
    
    <filter id="noise">
      <feTurbulence type="fractalNoise" baseFrequency="0.9" numOctaves="4" stitchTiles="stitch" result="noise" />
      <feColorMatrix in="noise" type="saturate" values="0" result="grayNoise" />
      <feComponentTransfer in="grayNoise" result="faintNoise">
        <feFuncA type="linear" slope="0.03" />
      </feComponentTransfer>
      <feComposite in="faintNoise" in2="SourceGraphic" operator="over" />
    </filter>
    
    <pattern id="dotGrid" x="0" y="0" width="30" height="30" patternUnits="userSpaceOnUse">
      <circle cx="15" cy="15" r="0.8" fill="white" opacity="0.06" />
    </pattern>
    
    <linearGradient id="k8sGrad" x1="0" y1="0" x2="1" y2="1">
      <stop offset="0%" stop-color="#326ce5" />
      <stop offset="100%" stop-color="#3b82f6" />
    </linearGradient>
    
    <radialGradient id="nodeGrad" cx="50%" cy="50%" r="50%">
      <stop offset="0%" stop-color="#f43f5e" />
      <stop offset="100%" stop-color="#be123c" />
    </radialGradient>
  </defs>

  
  <rect width="1200" height="630" fill="url(#bgGrad)" />

  
  <rect width="1200" height="630" fill="url(#meshBlue)" />
  <rect width="1200" height="630" fill="url(#meshCoral)" />
  <rect width="1200" height="630" fill="url(#meshPurple)" />

  
  <rect width="1200" height="630" fill="url(#bgGrad)" filter="url(#noise)" opacity="0.5" />

  
  <rect width="1200" height="630" fill="url(#dotGrid)" />

  
  <circle cx="120" cy="80" r="2" fill="#3b82f6" opacity="0.4" />
  <circle cx="300" cy="550" r="1.5" fill="#f43f5e" opacity="0.3" />
  <circle cx="500" cy="120" r="1" fill="#8b5cf6" opacity="0.5" />
  <circle cx="700" cy="580" r="2.5" fill="#3b82f6" opacity="0.2" />
  <circle cx="900" cy="50" r="1.5" fill="#f43f5e" opacity="0.35" />
  <circle cx="1100" cy="400" r="2" fill="#8b5cf6" opacity="0.25" />
  <circle cx="650" cy="300" r="1" fill="#3b82f6" opacity="0.4" />
  <circle cx="580" cy="100" r="1.5" fill="#10b981" opacity="0.3" />
  <circle cx="1050" cy="150" r="2" fill="#3b82f6" opacity="0.3" />
  <circle cx="750" cy="480" r="1" fill="#f43f5e" opacity="0.4" />
  <circle cx="200" cy="300" r="1.5" fill="#8b5cf6" opacity="0.2" />
  <circle cx="450" cy="400" r="1" fill="#3b82f6" opacity="0.35" />

  

  
  <g filter="url(#cardGlow)">
    <rect x="60" y="120" width="120" height="34" rx="17" fill="url(#pillGrad)" stroke="#3b82f6" stroke-opacity="0.4" stroke-width="1" />
    <text x="120" y="142" text-anchor="middle" font-family="system-ui, -apple-system, Segoe UI, sans-serif" font-size="12" font-weight="700" fill="#60a5fa" letter-spacing="2">SECURITY</text>
  </g>

  
  <text x="60" y="215" font-family="system-ui, -apple-system, Segoe UI, sans-serif" font-size="44" font-weight="800" fill="white" letter-spacing="-1">Kubernetes Supply Chain</text>
  <text x="60" y="270" font-family="system-ui, -apple-system, Segoe UI, sans-serif" font-size="44" font-weight="800" fill="white" letter-spacing="-1">Security <tspan fill="#f43f5e">&amp;</tspan> <tspan fill="url(#accentLine)">AI Threats</tspan></text>

  
  <rect x="60" y="292" width="180" height="3" rx="1.5" fill="url(#accentLine)" filter="url(#glow)" />

  
  <text x="60" y="330" font-family="system-ui, -apple-system, Segoe UI, sans-serif" font-size="16" fill="#94a3b8" font-weight="400">Protecting cloud-native workloads from emerging</text>
  <text x="60" y="354" font-family="system-ui, -apple-system, Segoe UI, sans-serif" font-size="16" fill="#94a3b8" font-weight="400">AI-powered attack vectors and supply chain risks</text>

  
  <g>
    
    <rect x="60" y="390" width="95" height="32" rx="16" fill="#1e293b" fill-opacity="0.8" stroke="url(#tagBorder1)" stroke-width="1.5" />
    <text x="107" y="411" text-anchor="middle" font-family="system-ui, -apple-system, sans-serif" font-size="12" font-weight="600" fill="#60a5fa">SBOM</text>

    
    <rect x="168" y="390" width="90" height="32" rx="16" fill="#1e293b" fill-opacity="0.8" stroke="url(#tagBorder2)" stroke-width="1.5" />
    <text x="213" y="411" text-anchor="middle" font-family="system-ui, -apple-system, sans-serif" font-size="12" font-weight="600" fill="#fb7185">SLSA</text>

    
    <rect x="271" y="390" width="110" height="32" rx="16" fill="#1e293b" fill-opacity="0.8" stroke="url(#tagBorder3)" stroke-width="1.5" />
    <text x="326" y="411" text-anchor="middle" font-family="system-ui, -apple-system, sans-serif" font-size="12" font-weight="600" fill="#34d399">Sigstore</text>
  </g>

  
  <text x="60" y="555" font-family="system-ui, -apple-system, sans-serif" font-size="13" fill="#475569" font-weight="400">tech.2twodragon.com</text>

  

  
  <g filter="url(#shadow)">
    <rect x="590" y="80" width="260" height="260" rx="20" fill="#1e293b" fill-opacity="0.5" />
    <rect x="590" y="80" width="260" height="260" rx="20" fill="none" stroke="white" stroke-opacity="0.1" stroke-width="1" />
    
    <rect x="592" y="82" width="256" height="256" rx="19" fill="white" fill-opacity="0.03" />

    
    <g transform="translate(720, 195)">
      
      <polygon points="0,-65 56,-32 56,32 0,65 -56,32 -56,-32" fill="none" stroke="#326ce5" stroke-width="2.5" stroke-opacity="0.8" />
      
      <circle cx="0" cy="0" r="28" fill="none" stroke="#326ce5" stroke-width="2" stroke-opacity="0.9" />
      
      <circle cx="0" cy="0" r="12" fill="url(#k8sGrad)" opacity="0.9" />
      
      <line x1="0" y1="-28" x2="0" y2="-55" stroke="#60a5fa" stroke-width="2" stroke-opacity="0.7" />
      <line x1="24" y1="-14" x2="48" y2="-28" stroke="#60a5fa" stroke-width="2" stroke-opacity="0.7" />
      <line x1="24" y1="14" x2="48" y2="28" stroke="#60a5fa" stroke-width="2" stroke-opacity="0.7" />
      <line x1="0" y1="28" x2="0" y2="55" stroke="#60a5fa" stroke-width="2" stroke-opacity="0.7" />
      <line x1="-24" y1="14" x2="-48" y2="28" stroke="#60a5fa" stroke-width="2" stroke-opacity="0.7" />
      <line x1="-24" y1="-14" x2="-48" y2="-28" stroke="#60a5fa" stroke-width="2" stroke-opacity="0.7" />
      
      <circle cx="0" cy="-58" r="5" fill="#326ce5" opacity="0.8" />
      <circle cx="50" cy="-29" r="5" fill="#326ce5" opacity="0.8" />
      <circle cx="50" cy="29" r="5" fill="#326ce5" opacity="0.8" />
      <circle cx="0" cy="58" r="5" fill="#326ce5" opacity="0.8" />
      <circle cx="-50" cy="29" r="5" fill="#326ce5" opacity="0.8" />
      <circle cx="-50" cy="-29" r="5" fill="#326ce5" opacity="0.8" />
      
      <circle cx="0" cy="0" r="50" fill="none" stroke="#3b82f6" stroke-width="0.5" stroke-opacity="0.3" />
    </g>

    
    </g>

  
  <g filter="url(#shadow)">
    <rect x="865" y="80" width="270" height="155" rx="20" fill="#1e293b" fill-opacity="0.5" />
    <rect x="865" y="80" width="270" height="155" rx="20" fill="none" stroke="white" stroke-opacity="0.1" stroke-width="1" />
    <rect x="867" y="82" width="266" height="151" rx="19" fill="white" fill-opacity="0.03" />

    
    <g transform="translate(1000, 150)">
      
      <rect x="-55" y="-20" width="40" height="40" rx="10" fill="none" stroke="#8b5cf6" stroke-width="2.5" stroke-opacity="0.8" />
      
      <rect x="-12" y="-18" width="36" height="36" rx="9" fill="none" stroke="#f43f5e" stroke-width="2.5" stroke-opacity="0.7" stroke-dasharray="8 4" />
      
      <rect x="28" y="-20" width="40" height="40" rx="10" fill="none" stroke="#8b5cf6" stroke-width="2.5" stroke-opacity="0.8" />
      
      <circle cx="6" cy="-25" r="2" fill="#f43f5e" opacity="0.7" />
      <circle cx="15" cy="-30" r="1.5" fill="#f43f5e" opacity="0.5" />
      <circle cx="-2" cy="28" r="1.5" fill="#f43f5e" opacity="0.6" />
      <circle cx="20" cy="25" r="2" fill="#f43f5e" opacity="0.4" />
      
      <polygon points="8,-8 12,0 9,0 13,8 7,1 10,1" fill="#f43f5e" opacity="0.6" transform="translate(-50, -30) scale(0.8)" />
    </g>

    </g>

  
  <g filter="url(#shadow)">
    <rect x="865" y="250" width="270" height="170" rx="20" fill="#1e293b" fill-opacity="0.5" />
    <rect x="865" y="250" width="270" height="170" rx="20" fill="none" stroke="white" stroke-opacity="0.1" stroke-width="1" />
    <rect x="867" y="252" width="266" height="166" rx="19" fill="white" fill-opacity="0.03" />

    
    <g transform="translate(1000, 325)">
      
      <circle cx="-60" cy="-30" r="7" fill="url(#nodeGrad)" opacity="0.8" />
      <circle cx="-60" cy="0" r="7" fill="url(#nodeGrad)" opacity="0.9" />
      <circle cx="-60" cy="30" r="7" fill="url(#nodeGrad)" opacity="0.7" />

      
      <circle cx="0" cy="-20" r="8" fill="#f43f5e" opacity="0.7" />
      <circle cx="0" cy="20" r="8" fill="#f43f5e" opacity="0.8" />

      
      <circle cx="60" cy="0" r="9" fill="#f43f5e" opacity="0.9" filter="url(#glow)" />

      
      <line x1="-53" y1="-30" x2="-8" y2="-20" stroke="#f43f5e" stroke-width="1" stroke-opacity="0.3" />
      <line x1="-53" y1="-30" x2="-8" y2="20" stroke="#f43f5e" stroke-width="1" stroke-opacity="0.2" />
      <line x1="-53" y1="0" x2="-8" y2="-20" stroke="#f43f5e" stroke-width="1" stroke-opacity="0.3" />
      <line x1="-53" y1="0" x2="-8" y2="20" stroke="#f43f5e" stroke-width="1" stroke-opacity="0.3" />
      <line x1="-53" y1="30" x2="-8" y2="-20" stroke="#f43f5e" stroke-width="1" stroke-opacity="0.2" />
      <line x1="-53" y1="30" x2="-8" y2="20" stroke="#f43f5e" stroke-width="1" stroke-opacity="0.3" />
      <line x1="8" y1="-20" x2="51" y2="0" stroke="#f43f5e" stroke-width="1.5" stroke-opacity="0.4" />
      <line x1="8" y1="20" x2="51" y2="0" stroke="#f43f5e" stroke-width="1.5" stroke-opacity="0.4" />

      
      <circle cx="60" cy="0" r="18" fill="none" stroke="#f43f5e" stroke-width="0.8" stroke-opacity="0.3" />
      <circle cx="60" cy="0" r="28" fill="none" stroke="#f43f5e" stroke-width="0.5" stroke-opacity="0.15" />
    </g>

    </g>

  
  <g filter="url(#shadow)">
    <rect x="590" y="356" width="260" height="120" rx="20" fill="#1e293b" fill-opacity="0.5" />
    <rect x="590" y="356" width="260" height="120" rx="20" fill="none" stroke="white" stroke-opacity="0.1" stroke-width="1" />
    <rect x="592" y="358" width="256" height="116" rx="19" fill="white" fill-opacity="0.03" />

    
    <g transform="translate(670, 416)">
      
      <circle cx="0" cy="0" r="38" fill="none" stroke="#3b82f6" stroke-width="0.6" stroke-opacity="0.15" />
      <circle cx="0" cy="0" r="30" fill="none" stroke="#3b82f6" stroke-width="0.8" stroke-opacity="0.25" />

      
      <path d="M0,-24 L20,-16 L20,4 C20,16 10,24 0,28 C-10,24 -20,16 -20,4 L-20,-16 Z" fill="url(#shieldGrad)" opacity="0.8" />
      <path d="M0,-24 L20,-16 L20,4 C20,16 10,24 0,28 C-10,24 -20,16 -20,4 L-20,-16 Z" fill="none" stroke="#60a5fa" stroke-width="1.5" stroke-opacity="0.6" />

      
      <polyline points="-7,2 -2,8 8,-5" fill="none" stroke="white" stroke-width="2.5" stroke-linecap="round" stroke-linejoin="round" />
    </g>

    
    <text x="730" y="408" font-family="system-ui, -apple-system, sans-serif" font-size="14" fill="white" font-weight="600">Protected</text>
    </g>

  
  <line x1="850" y1="210" x2="865" y2="157" stroke="#3b82f6" stroke-width="0.5" stroke-opacity="0.2" stroke-dasharray="3 3" />
  <line x1="850" y1="416" x2="865" y2="335" stroke="#3b82f6" stroke-width="0.5" stroke-opacity="0.2" stroke-dasharray="3 3" />

  
  <circle cx="858" cy="250" r="2" fill="#8b5cf6" opacity="0.4" />
  <circle cx="870" cy="440" r="1.5" fill="#3b82f6" opacity="0.3" />
  <circle cx="1140" cy="240" r="2" fill="#f43f5e" opacity="0.25" />
  <circle cx="580" cy="490" r="1.5" fill="#10b981" opacity="0.3" />
  <circle cx="960" cy="70" r="1" fill="#60a5fa" opacity="0.4" />
  <circle cx="1100" cy="430" r="1.5" fill="#8b5cf6" opacity="0.2" />

  
  <rect x="0" y="620" width="1200" height="10" fill="url(#accentLine)" opacity="0.4" />
</svg>