<svg xmlns="http://www.w3.org/2000/svg" viewBox="0 0 1200 630">
  <defs>
    <linearGradient id="bg" x1="0%" y1="0%" x2="100%" y2="100%">
      <stop offset="0%" style="stop-color:#0a0a1a"/><stop offset="100%" style="stop-color:#0a1a2a"/>
    </linearGradient>
    <filter id="glow"><feGaussianBlur stdDeviation="4" result="b"/><feMerge><feMergeNode in="b"/><feMergeNode in="SourceGraphic"/></feMerge></filter>
    <filter id="sg"><feGaussianBlur stdDeviation="30"/></filter>
    <filter id="shadow"><feDropShadow dx="0" dy="4" stdDeviation="8" flood-color="#000" flood-opacity="0.3"/></filter>
  </defs>
  <rect width="1200" height="630" fill="url(#bg)"/>
  <circle cx="600" cy="250" r="280" fill="#3b82f6" opacity="0.03" filter="url(#sg)"/>
  <g transform="translate(600,225)">
    <!-- Trend chart -->
    <g filter="url(#shadow)">
      <rect x="-180" y="-80" width="360" height="170" rx="12" fill="#1e293b" stroke="#3b82f6" stroke-width="2"/>
      <!-- Grid lines -->
      <g opacity="0.1">
        <line x1="-160" y1="-40" x2="160" y2="-40" stroke="#fff"/>
        <line x1="-160" y1="0" x2="160" y2="0" stroke="#fff"/>
        <line x1="-160" y1="40" x2="160" y2="40" stroke="#fff"/>
      </g>
      <!-- K8s trend line (82%) -->
      <polyline points="-150,30 -100,20 -50,0 0,-10 50,-30 100,-40 150,-50" fill="none" stroke="#326ce5" stroke-width="3" stroke-linecap="round"/>
      <text x="155" y="-55" font-family="Courier New" font-size="8" fill="#93c5fd">K8s 82%</text>
      <!-- VS Code threat line -->
      <polyline points="-150,40 -100,35 -50,25 0,10 50,0 100,-10 150,-15" fill="none" stroke="#ef4444" stroke-width="2" stroke-linecap="round" stroke-dasharray="6,3"/>
      <text x="155" y="-20" font-family="Courier New" font-size="8" fill="#fca5a5">Threats</text>
      <!-- Cloud adoption -->
      <polyline points="-150,50 -100,40 -50,25 0,15 50,5 100,-5 150,-10" fill="none" stroke="#22c55e" stroke-width="2" stroke-linecap="round"/>
      <text x="155" y="-5" font-family="Courier New" font-size="8" fill="#86efac">Cloud</text>
      <!-- Y-axis label -->
      <text x="-170" y="-55" font-family="Courier New" font-size="7" fill="#94a3b8" text-anchor="end">100%</text>
      <text x="-170" y="55" font-family="Courier New" font-size="7" fill="#94a3b8" text-anchor="end">0%</text>
    </g>
    <!-- CNCF badge -->
    <g transform="translate(0,115)">
      <rect x="-35" y="-12" width="70" height="24" rx="6" fill="#326ce5" opacity="0.15" stroke="#326ce5" stroke-width="1"/>
      <text x="0" y="4" font-family="Courier New" font-size="9" fill="#93c5fd" text-anchor="middle">CNCF</text>
    </g>
  </g>
  <text x="600" y="500" font-family="Arial,sans-serif" font-size="36" font-weight="bold" fill="white" text-anchor="middle" filter="url(#glow)">Cloud Security Trends</text>
  <text x="600" y="538" font-family="Arial,sans-serif" font-size="16" fill="#94a3b8" text-anchor="middle">January 2026 | K8s 82% Production | CNCF Survey</text>
  <rect x="40" y="25" width="160" height="32" rx="16" fill="#3b82f6" opacity="0.2" stroke="#3b82f6" stroke-width="1"/>
  <text x="120" y="47" font-family="Arial,sans-serif" font-size="13" font-weight="bold" fill="#93c5fd" text-anchor="middle">TRENDS</text>
  <rect x="1000" y="25" width="160" height="32" rx="16" fill="#22c55e" opacity="0.2" stroke="#22c55e" stroke-width="1"/>
  <text x="1080" y="47" font-family="Arial,sans-serif" font-size="13" font-weight="bold" fill="#86efac" text-anchor="middle">Jan 22, 2026</text>
  <text x="1160" y="615" font-family="Arial,sans-serif" font-size="13" fill="#475569" text-anchor="end">tech.2twodragon.com</text>
</svg>