<?xml version="1.0" encoding="UTF-8"?>
<svg xmlns="http://www.w3.org/2000/svg" viewBox="0 0 1200 2400" width="1200" height="2400">
  <defs>
    <!-- Gradients -->
    <linearGradient id="awsGradient" x1="0%" y1="0%" x2="100%" y2="100%">
      <stop offset="0%" style="stop-color:#FF9900"/>
      <stop offset="100%" style="stop-color:#FF6600"/>
    </linearGradient>
    <linearGradient id="gcpGradient" x1="0%" y1="0%" x2="100%" y2="100%">
      <stop offset="0%" style="stop-color:#4285F4"/>
      <stop offset="100%" style="stop-color:#34A853"/>
    </linearGradient>
    <linearGradient id="nvidiaGradient" x1="0%" y1="0%" x2="100%" y2="100%">
      <stop offset="0%" style="stop-color:#76B900"/>
      <stop offset="100%" style="stop-color:#4A7C00"/>
    </linearGradient>
    <linearGradient id="k8sGradient" x1="0%" y1="0%" x2="100%" y2="100%">
      <stop offset="0%" style="stop-color:#326CE5"/>
      <stop offset="100%" style="stop-color:#1E4C9A"/>
    </linearGradient>
    <linearGradient id="securityGradient" x1="0%" y1="0%" x2="100%" y2="100%">
      <stop offset="0%" style="stop-color:#E74C3C"/>
      <stop offset="100%" style="stop-color:#C0392B"/>
    </linearGradient>
    <linearGradient id="backupGradient" x1="0%" y1="0%" x2="100%" y2="100%">
      <stop offset="0%" style="stop-color:#3498DB"/>
      <stop offset="100%" style="stop-color:#2980B9"/>
    </linearGradient>
    
    <!-- Shadow filter -->
    <filter id="shadow" x="-20%" y="-20%" width="140%" height="140%">
      <feDropShadow dx="3" dy="3" stdDeviation="4" flood-opacity="0.3"/>
    </filter>
    
    <!-- Glow filter -->
    <filter id="glow" x="-50%" y="-50%" width="200%" height="200%">
      <feGaussianBlur stdDeviation="3" result="coloredBlur"/>
      <feMerge>
        <feMergeNode in="coloredBlur"/>
        <feMergeNode in="SourceGraphic"/>
      </feMerge>
    </filter>
  </defs>

  <!-- Background -->
  <rect width="1200" height="2400" fill="#0a0a1a"/>
  
  <!-- Grid pattern -->
  <pattern id="grid" width="40" height="40" patternUnits="userSpaceOnUse">
    <path d="M 40 0 L 0 0 0 40" fill="none" stroke="#1a1a3a" stroke-width="0.5"/>
  </pattern>
  <rect width="1200" height="2400" fill="url(#grid)" opacity="0.5"/>

  <!-- ========== SECTION 1: AWS/GCP Cloud Architecture ========== -->
  
  <!-- Section Title -->
  <text x="600" y="50" text-anchor="middle" font-family="Arial, sans-serif" font-size="28" font-weight="bold" fill="#FFFFFF">
    Cloud Infrastructure Architecture 2026
  </text>
  <line x1="200" y1="70" x2="1000" y2="70" stroke="#4A90D9" stroke-width="2"/>

  <!-- 1.1 EC2 G7e GPU Architecture -->
  <g transform="translate(50, 100)">
    <!-- Container -->
    <rect x="0" y="0" width="520" height="320" rx="15" fill="#1a1a2e" stroke="url(#nvidiaGradient)" stroke-width="2" filter="url(#shadow)"/>
    
    <!-- Title -->
    <rect x="0" y="0" width="520" height="45" rx="15" fill="url(#awsGradient)"/>
    <text x="260" y="30" text-anchor="middle" font-family="Arial, sans-serif" font-size="18" font-weight="bold" fill="#FFFFFF">
      AWS EC2 G7e - NVIDIA Blackwell Architecture
    </text>
    
    <!-- GPU Box -->
    <rect x="30" y="60" width="460" height="120" rx="10" fill="#1e3a1e" stroke="#76B900" stroke-width="2"/>
    <text x="260" y="85" text-anchor="middle" font-family="Arial, sans-serif" font-size="14" font-weight="bold" fill="#76B900">
      NVIDIA RTX PRO 6000 Blackwell GPU
    </text>
    
    <!-- Tensor Cores -->
    <rect x="50" y="100" width="130" height="60" rx="8" fill="#2d4a2d" stroke="#9ACD32"/>
    <text x="115" y="125" text-anchor="middle" font-family="Arial, sans-serif" font-size="11" fill="#9ACD32">Tensor Cores</text>
    <text x="115" y="145" text-anchor="middle" font-family="Arial, sans-serif" font-size="10" fill="#AAAAAA">AI Acceleration</text>
    
    <!-- RT Cores -->
    <rect x="200" y="100" width="130" height="60" rx="8" fill="#2d4a2d" stroke="#9ACD32"/>
    <text x="265" y="125" text-anchor="middle" font-family="Arial, sans-serif" font-size="11" fill="#9ACD32">RT Cores</text>
    <text x="265" y="145" text-anchor="middle" font-family="Arial, sans-serif" font-size="10" fill="#AAAAAA">Ray Tracing</text>
    
    <!-- GDDR6X -->
    <rect x="350" y="100" width="120" height="60" rx="8" fill="#2d4a2d" stroke="#9ACD32"/>
    <text x="410" y="125" text-anchor="middle" font-family="Arial, sans-serif" font-size="11" fill="#9ACD32">GDDR6X</text>
    <text x="410" y="145" text-anchor="middle" font-family="Arial, sans-serif" font-size="10" fill="#AAAAAA">High Bandwidth</text>
    
    <!-- Performance Metrics -->
    <rect x="30" y="195" width="220" height="110" rx="8" fill="#1a2a3a" stroke="#4A90D9"/>
    <text x="140" y="220" text-anchor="middle" font-family="Arial, sans-serif" font-size="13" font-weight="bold" fill="#4A90D9">Performance</text>
    <text x="50" y="245" font-family="Arial, sans-serif" font-size="11" fill="#FFFFFF">AI Inference: 2.3x faster</text>
    <text x="50" y="265" font-family="Arial, sans-serif" font-size="11" fill="#FFFFFF">Graphics: Best-in-class</text>
    <text x="50" y="285" font-family="Arial, sans-serif" font-size="11" fill="#FFFFFF">Memory: High bandwidth</text>
    
    <!-- Use Cases -->
    <rect x="270" y="195" width="220" height="110" rx="8" fill="#1a2a3a" stroke="#FF9900"/>
    <text x="380" y="220" text-anchor="middle" font-family="Arial, sans-serif" font-size="13" font-weight="bold" fill="#FF9900">Use Cases</text>
    <text x="290" y="245" font-family="Arial, sans-serif" font-size="11" fill="#FFFFFF">GenAI Inference (LLM)</text>
    <text x="290" y="265" font-family="Arial, sans-serif" font-size="11" fill="#FFFFFF">Spatial Computing (VR/AR)</text>
    <text x="290" y="285" font-family="Arial, sans-serif" font-size="11" fill="#FFFFFF">Scientific Simulation</text>
  </g>

  <!-- 1.2 AWS European Sovereign Cloud -->
  <g transform="translate(630, 100)">
    <rect x="0" y="0" width="520" height="320" rx="15" fill="#1a1a2e" stroke="url(#awsGradient)" stroke-width="2" filter="url(#shadow)"/>
    
    <!-- Title -->
    <rect x="0" y="0" width="520" height="45" rx="15" fill="url(#awsGradient)"/>
    <text x="260" y="30" text-anchor="middle" font-family="Arial, sans-serif" font-size="18" font-weight="bold" fill="#FFFFFF">
      AWS European Sovereign Cloud
    </text>
    
    <!-- EU Boundary -->
    <rect x="20" y="60" width="480" height="200" rx="10" fill="#1a2a4a" stroke="#4169E1" stroke-width="2" stroke-dasharray="10,5"/>
    <text x="260" y="85" text-anchor="middle" font-family="Arial, sans-serif" font-size="14" font-weight="bold" fill="#4169E1">
      EU Boundary (Air-Gapped)
    </text>
    
    <!-- Region 1 -->
    <rect x="40" y="100" width="140" height="80" rx="8" fill="#2a3a5a" stroke="#FF9900"/>
    <text x="110" y="130" text-anchor="middle" font-family="Arial, sans-serif" font-size="12" font-weight="bold" fill="#FF9900">EU Region 1</text>
    <text x="110" y="150" text-anchor="middle" font-family="Arial, sans-serif" font-size="11" fill="#AAAAAA">Germany</text>
    <text x="110" y="170" text-anchor="middle" font-family="Arial, sans-serif" font-size="20" fill="#FFFFFF">DE</text>
    
    <!-- Region 2 -->
    <rect x="200" y="100" width="140" height="80" rx="8" fill="#2a3a5a" stroke="#FF9900"/>
    <text x="270" y="130" text-anchor="middle" font-family="Arial, sans-serif" font-size="12" font-weight="bold" fill="#FF9900">EU Region 2</text>
    <text x="270" y="150" text-anchor="middle" font-family="Arial, sans-serif" font-size="11" fill="#AAAAAA">France</text>
    <text x="270" y="170" text-anchor="middle" font-family="Arial, sans-serif" font-size="20" fill="#FFFFFF">FR</text>
    
    <!-- Operations Box -->
    <rect x="360" y="100" width="120" height="80" rx="8" fill="#3a2a2a" stroke="#E74C3C"/>
    <text x="420" y="125" text-anchor="middle" font-family="Arial, sans-serif" font-size="11" font-weight="bold" fill="#E74C3C">Operations</text>
    <text x="420" y="145" text-anchor="middle" font-family="Arial, sans-serif" font-size="10" fill="#FFFFFF">EU Citizens</text>
    <text x="420" y="160" text-anchor="middle" font-family="Arial, sans-serif" font-size="10" fill="#FFFFFF">Only</text>
    
    <!-- Compliance -->
    <rect x="40" y="195" width="440" height="50" rx="8" fill="#1a3a2a" stroke="#27AE60"/>
    <text x="260" y="220" text-anchor="middle" font-family="Arial, sans-serif" font-size="12" fill="#27AE60">
      Compliance: GDPR | NIS2 | DORA | eIDAS 2.0
    </text>
    <text x="260" y="238" text-anchor="middle" font-family="Arial, sans-serif" font-size="10" fill="#AAAAAA">
      Data never leaves EU | EU jurisdiction only
    </text>
    
    <!-- Target Industries -->
    <rect x="20" y="270" width="480" height="35" rx="8" fill="#2a2a3a"/>
    <text x="260" y="293" text-anchor="middle" font-family="Arial, sans-serif" font-size="12" fill="#FFFFFF">
      Target: Financial Services | Healthcare | Public Sector | Telecommunications
    </text>
  </g>

  <!-- 1.3 GCP Asia Pacific Regions -->
  <g transform="translate(50, 450)">
    <rect x="0" y="0" width="1100" height="280" rx="15" fill="#1a1a2e" stroke="url(#gcpGradient)" stroke-width="2" filter="url(#shadow)"/>
    
    <!-- Title -->
    <rect x="0" y="0" width="1100" height="45" rx="15" fill="url(#gcpGradient)"/>
    <text x="550" y="30" text-anchor="middle" font-family="Arial, sans-serif" font-size="18" font-weight="bold" fill="#FFFFFF">
      Google Cloud Asia Pacific Regions - Bangkok NEW!
    </text>
    
    <!-- Map area -->
    <rect x="20" y="60" width="1060" height="200" rx="10" fill="#0d1a2a"/>
    
    <!-- Japan -->
    <g transform="translate(750, 80)">
      <circle cx="0" cy="0" r="25" fill="#4285F4" opacity="0.8"/>
      <text x="0" y="5" text-anchor="middle" font-family="Arial, sans-serif" font-size="10" font-weight="bold" fill="#FFFFFF">Tokyo</text>
      <text x="0" y="40" text-anchor="middle" font-family="Arial, sans-serif" font-size="9" fill="#AAAAAA">ap-ne1</text>
    </g>
    
    <g transform="translate(820, 110)">
      <circle cx="0" cy="0" r="20" fill="#4285F4" opacity="0.6"/>
      <text x="0" y="5" text-anchor="middle" font-family="Arial, sans-serif" font-size="9" fill="#FFFFFF">Osaka</text>
    </g>
    
    <!-- Korea -->
    <g transform="translate(680, 90)">
      <circle cx="0" cy="0" r="22" fill="#4285F4" opacity="0.7"/>
      <text x="0" y="5" text-anchor="middle" font-family="Arial, sans-serif" font-size="9" font-weight="bold" fill="#FFFFFF">Seoul</text>
    </g>
    
    <!-- Taiwan -->
    <g transform="translate(700, 150)">
      <circle cx="0" cy="0" r="20" fill="#4285F4" opacity="0.6"/>
      <text x="0" y="5" text-anchor="middle" font-family="Arial, sans-serif" font-size="9" fill="#FFFFFF">Taiwan</text>
    </g>
    
    <!-- Hong Kong -->
    <g transform="translate(620, 160)">
      <circle cx="0" cy="0" r="18" fill="#4285F4" opacity="0.6"/>
      <text x="0" y="4" text-anchor="middle" font-family="Arial, sans-serif" font-size="8" fill="#FFFFFF">HK</text>
    </g>
    
    <!-- Singapore -->
    <g transform="translate(480, 200)">
      <circle cx="0" cy="0" r="22" fill="#4285F4" opacity="0.7"/>
      <text x="0" y="5" text-anchor="middle" font-family="Arial, sans-serif" font-size="9" font-weight="bold" fill="#FFFFFF">Singapore</text>
    </g>
    
    <!-- Bangkok NEW -->
    <g transform="translate(420, 180)">
      <circle cx="0" cy="0" r="28" fill="#34A853" stroke="#FFFFFF" stroke-width="3" filter="url(#glow)"/>
      <text x="0" y="5" text-anchor="middle" font-family="Arial, sans-serif" font-size="11" font-weight="bold" fill="#FFFFFF">Bangkok</text>
      <text x="0" y="-40" text-anchor="middle" font-family="Arial, sans-serif" font-size="12" font-weight="bold" fill="#34A853">NEW!</text>
      <text x="0" y="50" text-anchor="middle" font-family="Arial, sans-serif" font-size="10" fill="#34A853">$1B Investment</text>
    </g>
    
    <!-- Jakarta -->
    <g transform="translate(540, 220)">
      <circle cx="0" cy="0" r="20" fill="#4285F4" opacity="0.6"/>
      <text x="0" y="5" text-anchor="middle" font-family="Arial, sans-serif" font-size="9" fill="#FFFFFF">Jakarta</text>
    </g>
    
    <!-- India -->
    <g transform="translate(280, 170)">
      <circle cx="0" cy="0" r="22" fill="#4285F4" opacity="0.7"/>
      <text x="0" y="5" text-anchor="middle" font-family="Arial, sans-serif" font-size="9" font-weight="bold" fill="#FFFFFF">Mumbai</text>
    </g>
    
    <g transform="translate(320, 130)">
      <circle cx="0" cy="0" r="18" fill="#4285F4" opacity="0.6"/>
      <text x="0" y="4" text-anchor="middle" font-family="Arial, sans-serif" font-size="8" fill="#FFFFFF">Delhi</text>
    </g>
    
    <!-- Australia -->
    <g transform="translate(900, 220)">
      <circle cx="0" cy="0" r="20" fill="#4285F4" opacity="0.6"/>
      <text x="0" y="5" text-anchor="middle" font-family="Arial, sans-serif" font-size="9" fill="#FFFFFF">Sydney</text>
    </g>
    
    <!-- Connection lines -->
    <line x1="420" y1="180" x2="480" y2="200" stroke="#34A853" stroke-width="2" stroke-dasharray="5,3"/>
    <line x1="420" y1="180" x2="540" y2="220" stroke="#34A853" stroke-width="2" stroke-dasharray="5,3"/>
    <line x1="420" y1="180" x2="280" y2="170" stroke="#34A853" stroke-width="2" stroke-dasharray="5,3"/>
    
    <!-- Legend -->
    <rect x="50" y="80" width="180" height="80" rx="8" fill="#1a2a3a" opacity="0.9"/>
    <circle cx="70" cy="105" r="8" fill="#34A853"/>
    <text x="85" y="110" font-family="Arial, sans-serif" font-size="11" fill="#FFFFFF">New Region (2026)</text>
    <circle cx="70" cy="130" r="8" fill="#4285F4" opacity="0.8"/>
    <text x="85" y="135" font-family="Arial, sans-serif" font-size="11" fill="#FFFFFF">Existing Region</text>
  </g>

  <!-- ========== SECTION 2: Kubernetes Security Architecture ========== -->
  
  <!-- Section Title -->
  <text x="600" y="780" text-anchor="middle" font-family="Arial, sans-serif" font-size="28" font-weight="bold" fill="#FFFFFF">
    Kubernetes Security Architecture
  </text>
  <line x1="200" y1="800" x2="1000" y2="800" stroke="#326CE5" stroke-width="2"/>

  <!-- 2.1 Container Runtime Architecture -->
  <g transform="translate(50, 830)">
    <rect x="0" y="0" width="520" height="350" rx="15" fill="#1a1a2e" stroke="url(#k8sGradient)" stroke-width="2" filter="url(#shadow)"/>
    
    <!-- Title -->
    <rect x="0" y="0" width="520" height="45" rx="15" fill="url(#k8sGradient)"/>
    <text x="260" y="30" text-anchor="middle" font-family="Arial, sans-serif" font-size="18" font-weight="bold" fill="#FFFFFF">
      Kubernetes Container Runtime Stack
    </text>
    
    <!-- Kubernetes Control Plane -->
    <rect x="20" y="60" width="480" height="50" rx="8" fill="#326CE5"/>
    <text x="260" y="90" text-anchor="middle" font-family="Arial, sans-serif" font-size="14" font-weight="bold" fill="#FFFFFF">
      Kubernetes Control Plane
    </text>
    
    <!-- Arrow -->
    <polygon points="260,120 250,110 270,110" fill="#AAAAAA"/>
    <line x1="260" y1="110" x2="260" y2="135" stroke="#AAAAAA" stroke-width="2"/>
    <text x="340" y="130" font-family="Arial, sans-serif" font-size="11" fill="#AAAAAA">CRI (Container Runtime Interface)</text>
    
    <!-- Runtime Options -->
    <rect x="20" y="140" width="480" height="80" rx="8" fill="#1a2a3a" stroke="#4A90D9"/>
    <text x="260" y="160" text-anchor="middle" font-family="Arial, sans-serif" font-size="12" fill="#4A90D9">Container Runtimes</text>
    
    <rect x="40" y="170" width="100" height="40" rx="5" fill="#27AE60"/>
    <text x="90" y="195" text-anchor="middle" font-family="Arial, sans-serif" font-size="11" font-weight="bold" fill="#FFFFFF">CRI-O</text>
    
    <rect x="160" y="170" width="100" height="40" rx="5" fill="#4A90D9"/>
    <text x="210" y="195" text-anchor="middle" font-family="Arial, sans-serif" font-size="11" font-weight="bold" fill="#FFFFFF">containerd</text>
    
    <rect x="280" y="170" width="100" height="40" rx="5" fill="#6c757d"/>
    <text x="330" y="195" text-anchor="middle" font-family="Arial, sans-serif" font-size="11" font-weight="bold" fill="#FFFFFF">Docker</text>
    <text x="330" y="225" text-anchor="middle" font-family="Arial, sans-serif" font-size="9" fill="#AAAAAA">(Legacy)</text>
    
    <!-- Arrow -->
    <polygon points="260,240 250,230 270,230" fill="#AAAAAA"/>
    <line x1="260" y1="230" x2="260" y2="255" stroke="#AAAAAA" stroke-width="2"/>
    <text x="340" y="250" font-family="Arial, sans-serif" font-size="11" fill="#AAAAAA">OCI (Open Container Initiative)</text>
    
    <!-- Low-level Runtimes -->
    <rect x="20" y="260" width="480" height="70" rx="8" fill="#1a2a3a" stroke="#9B59B6"/>
    <text x="260" y="280" text-anchor="middle" font-family="Arial, sans-serif" font-size="12" fill="#9B59B6">Low-level Runtimes</text>
    
    <rect x="60" y="290" width="80" height="30" rx="5" fill="#9B59B6"/>
    <text x="100" y="310" text-anchor="middle" font-family="Arial, sans-serif" font-size="10" font-weight="bold" fill="#FFFFFF">runc</text>
    
    <rect x="160" y="290" width="80" height="30" rx="5" fill="#9B59B6"/>
    <text x="200" y="310" text-anchor="middle" font-family="Arial, sans-serif" font-size="10" font-weight="bold" fill="#FFFFFF">kata</text>
    
    <rect x="260" y="290" width="80" height="30" rx="5" fill="#9B59B6"/>
    <text x="300" y="310" text-anchor="middle" font-family="Arial, sans-serif" font-size="10" font-weight="bold" fill="#FFFFFF">gVisor</text>
    
    <rect x="360" y="290" width="80" height="30" rx="5" fill="#9B59B6"/>
    <text x="400" y="310" text-anchor="middle" font-family="Arial, sans-serif" font-size="10" font-weight="bold" fill="#FFFFFF">youki</text>
  </g>

  <!-- 2.2 VS Code Attack Flow -->
  <g transform="translate(630, 830)">
    <rect x="0" y="0" width="520" height="350" rx="15" fill="#1a1a2e" stroke="url(#securityGradient)" stroke-width="2" filter="url(#shadow)"/>
    
    <!-- Title -->
    <rect x="0" y="0" width="520" height="45" rx="15" fill="url(#securityGradient)"/>
    <text x="260" y="30" text-anchor="middle" font-family="Arial, sans-serif" font-size="18" font-weight="bold" fill="#FFFFFF">
      VS Code Attack Flow (Threat Analysis)
    </text>
    
    <!-- Step 1 -->
    <rect x="20" y="60" width="480" height="50" rx="8" fill="#3a1a1a" stroke="#E74C3C"/>
    <circle cx="50" cy="85" r="15" fill="#E74C3C"/>
    <text x="50" y="90" text-anchor="middle" font-family="Arial, sans-serif" font-size="12" font-weight="bold" fill="#FFFFFF">1</text>
    <text x="280" y="80" text-anchor="middle" font-family="Arial, sans-serif" font-size="13" font-weight="bold" fill="#E74C3C">Initial Access</text>
    <text x="280" y="98" text-anchor="middle" font-family="Arial, sans-serif" font-size="11" fill="#AAAAAA">Phishing, Supply Chain, Malicious Extension</text>
    
    <!-- Arrow -->
    <polygon points="260,115 250,110 270,110" fill="#666666"/>
    
    <!-- Step 2 -->
    <rect x="20" y="120" width="480" height="50" rx="8" fill="#3a2a1a" stroke="#F39C12"/>
    <circle cx="50" cy="145" r="15" fill="#F39C12"/>
    <text x="50" y="150" text-anchor="middle" font-family="Arial, sans-serif" font-size="12" font-weight="bold" fill="#FFFFFF">2</text>
    <text x="280" y="140" text-anchor="middle" font-family="Arial, sans-serif" font-size="13" font-weight="bold" fill="#F39C12">Persistence</text>
    <text x="280" y="158" text-anchor="middle" font-family="Arial, sans-serif" font-size="11" fill="#AAAAAA">.vscode settings modification, Auto-run config</text>
    
    <!-- Arrow -->
    <polygon points="260,175 250,170 270,170" fill="#666666"/>
    
    <!-- Step 3 -->
    <rect x="20" y="180" width="480" height="50" rx="8" fill="#2a2a3a" stroke="#9B59B6"/>
    <circle cx="50" cy="205" r="15" fill="#9B59B6"/>
    <text x="50" y="210" text-anchor="middle" font-family="Arial, sans-serif" font-size="12" font-weight="bold" fill="#FFFFFF">3</text>
    <text x="280" y="200" text-anchor="middle" font-family="Arial, sans-serif" font-size="13" font-weight="bold" fill="#9B59B6">C2 Communication</text>
    <text x="280" y="218" text-anchor="middle" font-family="Arial, sans-serif" font-size="11" fill="#AAAAAA">VS Code Remote Tunnels (*.vscode.dev)</text>
    
    <!-- Arrow -->
    <polygon points="260,235 250,230 270,230" fill="#666666"/>
    
    <!-- Step 4 -->
    <rect x="20" y="240" width="480" height="50" rx="8" fill="#1a2a3a" stroke="#3498DB"/>
    <circle cx="50" cy="265" r="15" fill="#3498DB"/>
    <text x="50" y="270" text-anchor="middle" font-family="Arial, sans-serif" font-size="12" font-weight="bold" fill="#FFFFFF">4</text>
    <text x="280" y="260" text-anchor="middle" font-family="Arial, sans-serif" font-size="13" font-weight="bold" fill="#3498DB">Lateral Movement</text>
    <text x="280" y="278" text-anchor="middle" font-family="Arial, sans-serif" font-size="11" fill="#AAAAAA">Developer credentials theft, Code repo access</text>
    
    <!-- Mitigation -->
    <rect x="20" y="300" width="480" height="40" rx="8" fill="#1a3a2a" stroke="#27AE60"/>
    <text x="260" y="325" text-anchor="middle" font-family="Arial, sans-serif" font-size="12" font-weight="bold" fill="#27AE60">
      Mitigation: Extension audit, Tunnel monitoring, EDR rules
    </text>
  </g>

  <!-- ========== SECTION 3: Security Defense Architecture ========== -->
  
  <!-- Section Title -->
  <text x="600" y="1230" text-anchor="middle" font-family="Arial, sans-serif" font-size="28" font-weight="bold" fill="#FFFFFF">
    Security Defense Architecture
  </text>
  <line x1="200" y1="1250" x2="1000" y2="1250" stroke="#27AE60" stroke-width="2"/>

  <!-- 3.1 3-2-1 Backup Strategy -->
  <g transform="translate(50, 1280)">
    <rect x="0" y="0" width="520" height="320" rx="15" fill="#1a1a2e" stroke="url(#backupGradient)" stroke-width="2" filter="url(#shadow)"/>
    
    <!-- Title -->
    <rect x="0" y="0" width="520" height="45" rx="15" fill="url(#backupGradient)"/>
    <text x="260" y="30" text-anchor="middle" font-family="Arial, sans-serif" font-size="18" font-weight="bold" fill="#FFFFFF">
      3-2-1 Backup Rule (Anti-Ransomware)
    </text>
    
    <!-- Rule 3 -->
    <rect x="20" y="60" width="480" height="70" rx="8" fill="#1a3a4a" stroke="#3498DB"/>
    <circle cx="60" cy="95" r="25" fill="#3498DB"/>
    <text x="60" y="102" text-anchor="middle" font-family="Arial, sans-serif" font-size="20" font-weight="bold" fill="#FFFFFF">3</text>
    <text x="280" y="85" text-anchor="middle" font-family="Arial, sans-serif" font-size="14" font-weight="bold" fill="#3498DB">3 Copies of Data</text>
    <text x="280" y="110" text-anchor="middle" font-family="Arial, sans-serif" font-size="12" fill="#AAAAAA">Original + Backup 1 + Backup 2</text>
    
    <!-- Icons for 3 copies -->
    <rect x="400" y="75" width="30" height="40" rx="3" fill="#2980B9"/>
    <rect x="440" y="75" width="30" height="40" rx="3" fill="#2980B9"/>
    <rect x="480" y="75" width="30" height="40" rx="3" fill="#2980B9"/>
    
    <!-- Rule 2 -->
    <rect x="20" y="140" width="480" height="70" rx="8" fill="#1a4a3a" stroke="#27AE60"/>
    <circle cx="60" cy="175" r="25" fill="#27AE60"/>
    <text x="60" y="182" text-anchor="middle" font-family="Arial, sans-serif" font-size="20" font-weight="bold" fill="#FFFFFF">2</text>
    <text x="280" y="165" text-anchor="middle" font-family="Arial, sans-serif" font-size="14" font-weight="bold" fill="#27AE60">2 Different Media Types</text>
    <text x="280" y="190" text-anchor="middle" font-family="Arial, sans-serif" font-size="12" fill="#AAAAAA">Local Disk + NAS or Tape</text>
    
    <!-- Icons for 2 media -->
    <rect x="410" y="155" width="40" height="30" rx="3" fill="#1E8449"/>
    <text x="430" y="175" text-anchor="middle" font-family="Arial, sans-serif" font-size="9" fill="#FFFFFF">HDD</text>
    <rect x="460" y="155" width="40" height="30" rx="3" fill="#1E8449"/>
    <text x="480" y="175" text-anchor="middle" font-family="Arial, sans-serif" font-size="9" fill="#FFFFFF">NAS</text>
    
    <!-- Rule 1 -->
    <rect x="20" y="220" width="480" height="70" rx="8" fill="#4a3a1a" stroke="#F39C12"/>
    <circle cx="60" cy="255" r="25" fill="#F39C12"/>
    <text x="60" y="262" text-anchor="middle" font-family="Arial, sans-serif" font-size="20" font-weight="bold" fill="#FFFFFF">1</text>
    <text x="280" y="245" text-anchor="middle" font-family="Arial, sans-serif" font-size="14" font-weight="bold" fill="#F39C12">1 Offsite Location</text>
    <text x="280" y="270" text-anchor="middle" font-family="Arial, sans-serif" font-size="12" fill="#AAAAAA">Cloud Storage or Physical Remote Site</text>
    
    <!-- Cloud icon -->
    <ellipse cx="445" cy="250" rx="35" ry="20" fill="#D68910"/>
    <text x="445" y="255" text-anchor="middle" font-family="Arial, sans-serif" font-size="9" fill="#FFFFFF">Cloud</text>
  </g>

  <!-- 3.2 Network Segmentation -->
  <g transform="translate(630, 1280)">
    <rect x="0" y="0" width="520" height="320" rx="15" fill="#1a1a2e" stroke="url(#securityGradient)" stroke-width="2" filter="url(#shadow)"/>
    
    <!-- Title -->
    <rect x="0" y="0" width="520" height="45" rx="15" fill="url(#securityGradient)"/>
    <text x="260" y="30" text-anchor="middle" font-family="Arial, sans-serif" font-size="18" font-weight="bold" fill="#FFFFFF">
      Network Segmentation Architecture
    </text>
    
    <!-- Internet -->
    <ellipse cx="260" cy="75" rx="60" ry="25" fill="#E74C3C"/>
    <text x="260" y="80" text-anchor="middle" font-family="Arial, sans-serif" font-size="12" font-weight="bold" fill="#FFFFFF">Internet</text>
    
    <!-- Arrow -->
    <polygon points="260,105 250,100 270,100" fill="#AAAAAA"/>
    <line x1="260" y1="100" x2="260" y2="115" stroke="#AAAAAA" stroke-width="2"/>
    
    <!-- DMZ Zone -->
    <rect x="20" y="120" width="150" height="80" rx="8" fill="#3a2a1a" stroke="#F39C12"/>
    <text x="95" y="145" text-anchor="middle" font-family="Arial, sans-serif" font-size="12" font-weight="bold" fill="#F39C12">DMZ Zone</text>
    <text x="95" y="165" text-anchor="middle" font-family="Arial, sans-serif" font-size="10" fill="#AAAAAA">Web Server</text>
    <text x="95" y="180" text-anchor="middle" font-family="Arial, sans-serif" font-size="10" fill="#AAAAAA">Reverse Proxy</text>
    
    <!-- Arrow to App Zone -->
    <line x1="170" y1="160" x2="195" y2="160" stroke="#AAAAAA" stroke-width="2"/>
    <polygon points="195,160 188,155 188,165" fill="#AAAAAA"/>
    
    <!-- App Zone -->
    <rect x="200" y="120" width="150" height="80" rx="8" fill="#1a3a2a" stroke="#27AE60"/>
    <text x="275" y="145" text-anchor="middle" font-family="Arial, sans-serif" font-size="12" font-weight="bold" fill="#27AE60">App Zone</text>
    <text x="275" y="165" text-anchor="middle" font-family="Arial, sans-serif" font-size="10" fill="#AAAAAA">App Server</text>
    <text x="275" y="180" text-anchor="middle" font-family="Arial, sans-serif" font-size="10" fill="#AAAAAA">API Gateway</text>
    
    <!-- Arrow to Data Zone -->
    <line x1="350" y1="160" x2="375" y2="160" stroke="#AAAAAA" stroke-width="2"/>
    <polygon points="375,160 368,155 368,165" fill="#AAAAAA"/>
    
    <!-- Data Zone -->
    <rect x="380" y="120" width="120" height="80" rx="8" fill="#1a2a4a" stroke="#3498DB"/>
    <text x="440" y="145" text-anchor="middle" font-family="Arial, sans-serif" font-size="12" font-weight="bold" fill="#3498DB">Data Zone</text>
    <text x="440" y="165" text-anchor="middle" font-family="Arial, sans-serif" font-size="10" fill="#AAAAAA">Database</text>
    <text x="440" y="180" text-anchor="middle" font-family="Arial, sans-serif" font-size="10" fill="#AAAAAA">Backup</text>
    
    <!-- Firewall Rules -->
    <rect x="20" y="220" width="480" height="80" rx="8" fill="#2a2a2a" stroke="#9B59B6"/>
    <text x="260" y="245" text-anchor="middle" font-family="Arial, sans-serif" font-size="13" font-weight="bold" fill="#9B59B6">Firewall Rules</text>
    <text x="40" y="268" font-family="Arial, sans-serif" font-size="10" fill="#FFFFFF">DMZ to App: Specific ports only (443, 8080)</text>
    <text x="40" y="283" font-family="Arial, sans-serif" font-size="10" fill="#FFFFFF">App to Data: Database port only (5432, 3306)</text>
    <text x="40" y="298" font-family="Arial, sans-serif" font-size="10" fill="#E74C3C">Data to Internet: BLOCKED</text>
  </g>

  <!-- 3.3 Linux Rootkit Detection Architecture -->
  <g transform="translate(50, 1630)">
    <rect x="0" y="0" width="1100" height="280" rx="15" fill="#1a1a2e" stroke="#9B59B6" stroke-width="2" filter="url(#shadow)"/>
    
    <!-- Title -->
    <rect x="0" y="0" width="1100" height="45" rx="15" fill="#9B59B6"/>
    <text x="550" y="30" text-anchor="middle" font-family="Arial, sans-serif" font-size="18" font-weight="bold" fill="#FFFFFF">
      Linux Rootkit Detection Architecture
    </text>
    
    <!-- Detection Pipeline -->
    <rect x="20" y="60" width="1060" height="200" rx="10" fill="#1a1a2a"/>
    
    <!-- Step 1: Kernel Module Check -->
    <rect x="40" y="80" width="200" height="160" rx="8" fill="#2a1a3a" stroke="#8E44AD"/>
    <text x="140" y="105" text-anchor="middle" font-family="Arial, sans-serif" font-size="13" font-weight="bold" fill="#8E44AD">Kernel Module Check</text>
    <text x="60" y="130" font-family="Arial, sans-serif" font-size="10" fill="#FFFFFF">lsmod vs /sys/module</text>
    <text x="60" y="150" font-family="Arial, sans-serif" font-size="10" fill="#FFFFFF">Hidden module detection</text>
    <text x="60" y="170" font-family="Arial, sans-serif" font-size="10" fill="#FFFFFF">Syscall table verify</text>
    <rect x="60" y="190" width="160" height="30" rx="5" fill="#8E44AD"/>
    <text x="140" y="210" text-anchor="middle" font-family="Arial, sans-serif" font-size="10" font-weight="bold" fill="#FFFFFF">chkrootkit lkm</text>
    
    <!-- Arrow -->
    <line x1="240" y1="160" x2="280" y2="160" stroke="#AAAAAA" stroke-width="2"/>
    <polygon points="280,160 273,155 273,165" fill="#AAAAAA"/>
    
    <!-- Step 2: File Integrity -->
    <rect x="290" y="80" width="200" height="160" rx="8" fill="#1a3a2a" stroke="#27AE60"/>
    <text x="390" y="105" text-anchor="middle" font-family="Arial, sans-serif" font-size="13" font-weight="bold" fill="#27AE60">File Integrity Monitor</text>
    <text x="310" y="130" font-family="Arial, sans-serif" font-size="10" fill="#FFFFFF">Binary hash verification</text>
    <text x="310" y="150" font-family="Arial, sans-serif" font-size="10" fill="#FFFFFF">SUID/SGID file audit</text>
    <text x="310" y="170" font-family="Arial, sans-serif" font-size="10" fill="#FFFFFF">Config file changes</text>
    <rect x="310" y="190" width="160" height="30" rx="5" fill="#27AE60"/>
    <text x="390" y="210" text-anchor="middle" font-family="Arial, sans-serif" font-size="10" font-weight="bold" fill="#FFFFFF">AIDE / rkhunter</text>
    
    <!-- Arrow -->
    <line x1="490" y1="160" x2="530" y2="160" stroke="#AAAAAA" stroke-width="2"/>
    <polygon points="530,160 523,155 523,165" fill="#AAAAAA"/>
    
    <!-- Step 3: Network Analysis -->
    <rect x="540" y="80" width="200" height="160" rx="8" fill="#1a2a3a" stroke="#3498DB"/>
    <text x="640" y="105" text-anchor="middle" font-family="Arial, sans-serif" font-size="13" font-weight="bold" fill="#3498DB">Network Analysis</text>
    <text x="560" y="130" font-family="Arial, sans-serif" font-size="10" fill="#FFFFFF">Hidden connections</text>
    <text x="560" y="150" font-family="Arial, sans-serif" font-size="10" fill="#FFFFFF">Backdoor port scan</text>
    <text x="560" y="170" font-family="Arial, sans-serif" font-size="10" fill="#FFFFFF">Suspicious outbound</text>
    <rect x="560" y="190" width="160" height="30" rx="5" fill="#3498DB"/>
    <text x="640" y="210" text-anchor="middle" font-family="Arial, sans-serif" font-size="10" font-weight="bold" fill="#FFFFFF">netstat / ss / lsof</text>
    
    <!-- Arrow -->
    <line x1="740" y1="160" x2="780" y2="160" stroke="#AAAAAA" stroke-width="2"/>
    <polygon points="780,160 773,155 773,165" fill="#AAAAAA"/>
    
    <!-- Step 4: Response -->
    <rect x="790" y="80" width="270" height="160" rx="8" fill="#3a1a1a" stroke="#E74C3C"/>
    <text x="925" y="105" text-anchor="middle" font-family="Arial, sans-serif" font-size="13" font-weight="bold" fill="#E74C3C">Incident Response</text>
    <text x="810" y="130" font-family="Arial, sans-serif" font-size="10" fill="#FFFFFF">Network isolation</text>
    <text x="810" y="150" font-family="Arial, sans-serif" font-size="10" fill="#FFFFFF">Forensics collection</text>
    <text x="810" y="170" font-family="Arial, sans-serif" font-size="10" fill="#FFFFFF">Security team alert</text>
    <rect x="810" y="190" width="110" height="30" rx="5" fill="#C0392B"/>
    <text x="865" y="210" text-anchor="middle" font-family="Arial, sans-serif" font-size="9" font-weight="bold" fill="#FFFFFF">Quarantine</text>
    <rect x="930" y="190" width="110" height="30" rx="5" fill="#E74C3C"/>
    <text x="985" y="210" text-anchor="middle" font-family="Arial, sans-serif" font-size="9" font-weight="bold" fill="#FFFFFF">Notify SOC</text>
  </g>

  <!-- ========== SECTION 4: CNCF Survey Statistics ========== -->
  
  <!-- Section Title -->
  <text x="600" y="1960" text-anchor="middle" font-family="Arial, sans-serif" font-size="28" font-weight="bold" fill="#FFFFFF">
    CNCF 2025 Survey: Kubernetes Adoption
  </text>
  <line x1="200" y1="1980" x2="1000" y2="1980" stroke="#326CE5" stroke-width="2"/>

  <!-- Statistics Cards -->
  <g transform="translate(50, 2010)">
    <!-- 82% K8s Production -->
    <rect x="0" y="0" width="350" height="180" rx="15" fill="#1a1a2e" stroke="#326CE5" stroke-width="2" filter="url(#shadow)"/>
    <text x="175" y="45" text-anchor="middle" font-family="Arial, sans-serif" font-size="60" font-weight="bold" fill="#326CE5">82%</text>
    <text x="175" y="80" text-anchor="middle" font-family="Arial, sans-serif" font-size="16" font-weight="bold" fill="#FFFFFF">Kubernetes Production</text>
    <text x="175" y="105" text-anchor="middle" font-family="Arial, sans-serif" font-size="12" fill="#AAAAAA">Container users running K8s</text>
    <text x="175" y="125" text-anchor="middle" font-family="Arial, sans-serif" font-size="12" fill="#AAAAAA">in production environment</text>
    
    <!-- Progress bar -->
    <rect x="30" y="145" width="290" height="15" rx="7" fill="#1a2a3a"/>
    <rect x="30" y="145" width="238" height="15" rx="7" fill="#326CE5"/>
  </g>

  <g transform="translate(420, 2010)">
    <!-- 66% AI Workloads -->
    <rect x="0" y="0" width="350" height="180" rx="15" fill="#1a1a2e" stroke="#34A853" stroke-width="2" filter="url(#shadow)"/>
    <text x="175" y="45" text-anchor="middle" font-family="Arial, sans-serif" font-size="60" font-weight="bold" fill="#34A853">66%</text>
    <text x="175" y="80" text-anchor="middle" font-family="Arial, sans-serif" font-size="16" font-weight="bold" fill="#FFFFFF">AI Inference on K8s</text>
    <text x="175" y="105" text-anchor="middle" font-family="Arial, sans-serif" font-size="12" fill="#AAAAAA">AI-adopting organizations</text>
    <text x="175" y="125" text-anchor="middle" font-family="Arial, sans-serif" font-size="12" fill="#AAAAAA">running inference on K8s</text>
    
    <!-- Progress bar -->
    <rect x="30" y="145" width="290" height="15" rx="7" fill="#1a2a3a"/>
    <rect x="30" y="145" width="191" height="15" rx="7" fill="#34A853"/>
  </g>

  <g transform="translate(790, 2010)">
    <!-- Culture Matters -->
    <rect x="0" y="0" width="350" height="180" rx="15" fill="#1a1a2e" stroke="#F39C12" stroke-width="2" filter="url(#shadow)"/>
    <text x="175" y="50" text-anchor="middle" font-family="Arial, sans-serif" font-size="36" font-weight="bold" fill="#F39C12">Culture</text>
    <text x="175" y="85" text-anchor="middle" font-family="Arial, sans-serif" font-size="16" font-weight="bold" fill="#FFFFFF">Drives Business Value</text>
    <text x="175" y="115" text-anchor="middle" font-family="Arial, sans-serif" font-size="12" fill="#AAAAAA">Technology adoption alone</text>
    <text x="175" y="135" text-anchor="middle" font-family="Arial, sans-serif" font-size="12" fill="#AAAAAA">is not enough for success</text>
    
    <!-- Icons -->
    <circle cx="100" cy="160" r="12" fill="#F39C12"/>
    <text x="100" y="164" text-anchor="middle" font-family="Arial, sans-serif" font-size="10" fill="#FFFFFF">+</text>
    <circle cx="175" cy="160" r="12" fill="#F39C12"/>
    <text x="175" y="164" text-anchor="middle" font-family="Arial, sans-serif" font-size="10" fill="#FFFFFF">+</text>
    <circle cx="250" cy="160" r="12" fill="#F39C12"/>
    <text x="250" y="164" text-anchor="middle" font-family="Arial, sans-serif" font-size="10" fill="#FFFFFF">=</text>
  </g>

  <!-- Key Insights -->
  <g transform="translate(50, 2210)">
    <rect x="0" y="0" width="1100" height="100" rx="15" fill="#1a2a2a" stroke="#27AE60" stroke-width="2"/>
    <text x="550" y="35" text-anchor="middle" font-family="Arial, sans-serif" font-size="16" font-weight="bold" fill="#27AE60">
      Key Insight: Kubernetes is now the de facto "Operating System" for AI
    </text>
    <text x="550" y="60" text-anchor="middle" font-family="Arial, sans-serif" font-size="13" fill="#FFFFFF">
      DevSecOps Implications: K8s security skills are now mandatory | AI workload protection is critical
    </text>
    <text x="550" y="85" text-anchor="middle" font-family="Arial, sans-serif" font-size="12" fill="#AAAAAA">
      Source: CNCF 2025 Annual Cloud Native Survey | January 2026
    </text>
  </g>

  <!-- Footer -->
  <text x="600" y="2360" text-anchor="middle" font-family="Arial, sans-serif" font-size="14" fill="#666666">
    Twodragon Tech Blog | Cloud Architecture Diagrams | 2026-01-22
  </text>
  <text x="600" y="2380" text-anchor="middle" font-family="Arial, sans-serif" font-size="12" fill="#444444">
    https://tech.2twodragon.com
  </text>
</svg>
