<svg xmlns="http://www.w3.org/2000/svg" viewBox="0 0 1200 630" width="1200" height="630" role="img" aria-label="AI agent permission escalation, AWS ECS zero-day, Harbor + MS Office OOB">
<title>2026-03-28: AI agent escalation, ECS 0-day, Harbor + MS OOB</title>
<defs>
<linearGradient id="bgSpreadMA14" x1="0%" y1="0%" x2="100%" y2="100%"><stop offset="0%" stop-color="#0A1226"/><stop offset="50%" stop-color="#0C1430"/><stop offset="100%" stop-color="#131038"/></linearGradient>
<linearGradient id="bandAMA14" x1="0%" y1="0%" x2="100%" y2="0%"><stop offset="0%" stop-color="#1E0A3A"/><stop offset="100%" stop-color="#2A0E4A"/></linearGradient>
<linearGradient id="bandBMA14" x1="0%" y1="0%" x2="100%" y2="0%"><stop offset="0%" stop-color="#1A0E2E"/><stop offset="100%" stop-color="#24122F"/></linearGradient>
<linearGradient id="bandCMA14" x1="0%" y1="0%" x2="100%" y2="0%"><stop offset="0%" stop-color="#2A1A0C"/><stop offset="100%" stop-color="#1E1F0A"/></linearGradient>
<linearGradient id="streakAMA14" x1="0%" y1="0%" x2="100%" y2="0%"><stop offset="0%" stop-color="#A78BFA" stop-opacity="0"/><stop offset="50%" stop-color="#A78BFA" stop-opacity="0.85"/><stop offset="100%" stop-color="#A78BFA" stop-opacity="0"/></linearGradient>
<linearGradient id="streakBMA14" x1="0%" y1="0%" x2="100%" y2="0%"><stop offset="0%" stop-color="#E63946" stop-opacity="0"/><stop offset="50%" stop-color="#E63946" stop-opacity="0.85"/><stop offset="100%" stop-color="#E63946" stop-opacity="0"/></linearGradient>
<linearGradient id="streakCMA14" x1="0%" y1="0%" x2="100%" y2="0%"><stop offset="0%" stop-color="#FFB703" stop-opacity="0"/><stop offset="50%" stop-color="#FFB703" stop-opacity="0.85"/><stop offset="100%" stop-color="#FFB703" stop-opacity="0"/></linearGradient>
<radialGradient id="glowAMA14" cx="50%" cy="50%" r="50%"><stop offset="0%" stop-color="#A78BFA" stop-opacity="0.55"/><stop offset="100%" stop-color="#A78BFA" stop-opacity="0"/></radialGradient>
<radialGradient id="glowBMA14" cx="50%" cy="50%" r="50%"><stop offset="0%" stop-color="#E63946" stop-opacity="0.55"/><stop offset="100%" stop-color="#E63946" stop-opacity="0"/></radialGradient>
<radialGradient id="glowCMA14" cx="50%" cy="50%" r="50%"><stop offset="0%" stop-color="#FFB703" stop-opacity="0.55"/><stop offset="100%" stop-color="#FFB703" stop-opacity="0"/></radialGradient>
<filter id="softShadow" x="-10%" y="-10%" width="130%" height="130%"><feGaussianBlur in="SourceAlpha" stdDeviation="2.5"/><feOffset dx="1" dy="3"/><feComponentTransfer><feFuncA type="linear" slope="0.55"/></feComponentTransfer><feMerge><feMergeNode/><feMergeNode in="SourceGraphic"/></feMerge></filter>
<filter id="textShadow" x="-5%" y="-5%" width="110%" height="110%"><feGaussianBlur in="SourceAlpha" stdDeviation="1.2"/><feOffset dx="0" dy="1.5"/><feComponentTransfer><feFuncA type="linear" slope="0.85"/></feComponentTransfer><feMerge><feMergeNode/><feMergeNode in="SourceGraphic"/></feMerge></filter>
<pattern id="ledgerGrid" x="0" y="0" width="40" height="20" patternUnits="userSpaceOnUse"><path d="M0 20 L40 20" stroke="#2A3A56" stroke-width="0.4" opacity="0.5"/><path d="M40 0 L40 20" stroke="#2A3A56" stroke-width="0.4" opacity="0.5"/></pattern>
<pattern id="circuitDot" x="0" y="0" width="18" height="18" patternUnits="userSpaceOnUse"><circle cx="9" cy="9" r="0.8" fill="#3A2A4E" opacity="0.55"/></pattern>
<pattern id="hexGridMA14" x="0" y="0" width="28" height="32" patternUnits="userSpaceOnUse"><path d="M14 0 L28 8 L28 24 L14 32 L0 24 L0 8 Z" fill="none" stroke="#2A3A56" stroke-width="0.3" opacity="0.4"/></pattern>
<pattern id="radarRippleMA14" x="0" y="0" width="60" height="60" patternUnits="userSpaceOnUse"><circle cx="30" cy="30" r="14" fill="none" stroke="#2A3A56" stroke-width="0.3" opacity="0.4"/></pattern>
</defs>
<rect width="1200" height="630" fill="url(#bgSpreadMA14)"/>
<g>
  <rect x="0" y="0" width="1200" height="210" fill="url(#bandAMA14)"/>
  <rect x="0" y="0" width="1200" height="210" fill="url(#circuitDot)" opacity="0.6"/>
  <rect x="0" y="0" width="8" height="210" fill="#A78BFA"/>
  <g filter="url(#textShadow)">
    <text x="30" y="44" font-family="Inter, Helvetica, Arial, sans-serif" font-size="18" font-weight="700" letter-spacing="2.4" fill="#C4B5FD">AGENT FRAMEWORK</text>
    <text x="30" y="86" font-family="Inter, Helvetica, Arial, sans-serif" font-size="36" font-weight="800" fill="#F5F7FA">Permission Escalation</text>
    <text x="30" y="118" font-family="Inter, Helvetica, Arial, sans-serif" font-size="20" font-weight="600" fill="#DDD6FE">Tool-call privilege climb</text>
    <text x="30" y="146" font-family="Inter, Helvetica, Arial, sans-serif" font-size="15" font-weight="500" fill="#D0CCE5">LangChain / Bedrock agent boundary bypass : MCP server abuse : sandbox break</text>
  </g>
  <g transform="translate(640,105)">
    <rect x="-92" y="-56" width="184" height="116" rx="8" fill="#A78BFA" fill-opacity="0.05" stroke="#A78BFA" stroke-width="1.2" stroke-opacity="0.5"/>
    <g stroke="#A78BFA" stroke-width="2" opacity="0.85">
      <line x1="-80" y1="-40" x2="-30" y2="-40"/><line x1="-25" y1="-40" x2="40" y2="-40"/>
      <line x1="-80" y1="-20" x2="-10" y2="-20"/><line x1="-5" y1="-20" x2="55" y2="-20"/>
      <line x1="-80" y1="0" x2="-40" y2="0"/><line x1="-35" y1="0" x2="60" y2="0"/>
      <line x1="-80" y1="20" x2="-20" y2="20"/><line x1="-15" y1="20" x2="30" y2="20"/>
      <line x1="-80" y1="40" x2="-50" y2="40"/><line x1="-45" y1="40" x2="50" y2="40"/>
    </g>
    <rect x="-86" y="-50" width="4" height="104" fill="#A78BFA" opacity="0.6"/>
    <g fill="#C4B5FD">
      <circle cx="74" cy="-40" r="3"><animate attributeName="opacity" values="0.3;1;0.3" dur="1.6s" repeatCount="indefinite"/></circle>
      <circle cx="74" cy="-20" r="3"><animate attributeName="opacity" values="0.3;1;0.3" dur="1.8s" repeatCount="indefinite"/></circle>
      <circle cx="74" cy="0" r="3"><animate attributeName="opacity" values="0.3;1;0.3" dur="2.1s" repeatCount="indefinite"/></circle>
      <circle cx="74" cy="20" r="3"><animate attributeName="opacity" values="0.3;1;0.3" dur="1.7s" repeatCount="indefinite"/></circle>
      <circle cx="74" cy="40" r="3"><animate attributeName="opacity" values="0.3;1;0.3" dur="1.9s" repeatCount="indefinite"/></circle>
    </g>
    <rect x="-86" y="-50" width="178" height="3" fill="#A78BFA" opacity="0.4">
      <animate attributeName="y" values="-50;46;-50" dur="3.2s" repeatCount="indefinite"/>
    </rect>
    <text y="68" text-anchor="middle" font-family="Inter, monospace" font-size="10" font-weight="800" fill="#A78BFA">AGENT</text>
  </g>
  <g transform="translate(870,105)" filter="url(#softShadow)">
    <rect x="-50" y="-48" width="100" height="96" rx="10" fill="#160629" stroke="#A78BFA" stroke-width="1.6" stroke-opacity="0.75"/>
    <text x="0" y="-26" text-anchor="middle" font-family="Inter, Helvetica, Arial, sans-serif" font-size="10" font-weight="700" letter-spacing="1.4" fill="#C4B5FD">STACK</text>
    <text x="0" y="14" text-anchor="middle" font-family="Inter, Helvetica, Arial, sans-serif" font-size="34" font-weight="900" fill="#F5F7FA">LC</text>
    <text x="0" y="34" text-anchor="middle" font-family="Inter, Helvetica, Arial, sans-serif" font-size="10" font-weight="600" fill="#DDD6FE">LangChain</text>
  </g>
  <g transform="translate(990,105)" filter="url(#softShadow)">
    <rect x="-80" y="-65" width="180" height="125" rx="14" fill="#160629" stroke="#A78BFA" stroke-width="2.2"/>
    <text x="10" y="-38" text-anchor="middle" font-family="Inter, Helvetica, Arial, sans-serif" font-size="13" font-weight="700" letter-spacing="2" fill="#C4B5FD">VECTOR</text>
    <text x="10" y="22" text-anchor="middle" font-family="Inter, Helvetica, Arial, sans-serif" font-size="72" font-weight="900" fill="#F5F7FA">MCP</text>
    <text x="10" y="44" text-anchor="middle" font-family="Inter, Helvetica, Arial, sans-serif" font-size="11" font-weight="600" fill="#DDD6FE">agent</text>
    <line x1="-58" y1="50" x2="78" y2="50" stroke="#A78BFA" stroke-width="0.8" stroke-opacity="0.5"/>
    
  </g>
  <g transform="translate(990,105)">
    <circle cx="10" cy="-50" r="3" fill="#A78BFA"><animate attributeName="opacity" values="0.2;1;0.2" dur="1.8s" repeatCount="indefinite"/></circle>
    <circle cx="-58" cy="-50" r="2" fill="#C4B5FD"><animate attributeName="opacity" values="0.8;0.2;0.8" dur="2.2s" repeatCount="indefinite"/></circle>
    <circle cx="78" cy="-50" r="2" fill="#C4B5FD"><animate attributeName="opacity" values="0.2;0.9;0.2" dur="2.4s" repeatCount="indefinite"/></circle>
  </g>
</g>
<g>
  <rect x="0" y="210" width="1200" height="210" fill="url(#bandBMA14)"/>
  <rect x="0" y="210" width="1200" height="210" fill="url(#circuitDot)" opacity="0.6"/>
  <rect x="0" y="210" width="8" height="210" fill="#E63946"/>
  <g filter="url(#textShadow)">
    <text x="30" y="254" font-family="Inter, Helvetica, Arial, sans-serif" font-size="18" font-weight="700" letter-spacing="2.4" fill="#F87171">AWS ECS 0-DAY</text>
    <text x="30" y="296" font-family="Inter, Helvetica, Arial, sans-serif" font-size="36" font-weight="800" fill="#F5F7FA">Container Escape</text>
    <text x="30" y="328" font-family="Inter, Helvetica, Arial, sans-serif" font-size="20" font-weight="600" fill="#FBB6BD">CVE-2026-31477 : CVSS 9.6</text>
    <text x="30" y="356" font-family="Inter, Helvetica, Arial, sans-serif" font-size="15" font-weight="500" fill="#D9C9CE">ECS task agent flaw : host root via socket : patched in agent 1.84+</text>
  </g>
  <g transform="translate(640,315)">
    <circle r="78" fill="#E63946" fill-opacity="0.06"><animate attributeName="r" values="62;82;62" dur="3.4s" repeatCount="indefinite"/></circle>
    <path d="M-22 -20 Q-22 -50 0 -50 Q22 -50 22 -20" stroke="#E63946" stroke-width="4" fill="none"/>
    <rect x="-32" y="-22" width="64" height="60" rx="6" fill="#E63946" fill-opacity="0.2" stroke="#E63946" stroke-width="2.2" filter="url(#softShadow)"/>
    <circle r="5" fill="#FCA5A5" cy="2"/>
    <rect x="-3" y="2" width="6" height="18" fill="#FCA5A5"/>
    <text y="60" text-anchor="middle" font-family="Inter, monospace" font-size="14" font-weight="900" fill="#E63946">CVSS 9.6</text>
    <g fill="#FCA5A5" opacity="0.85">
      <circle cx="-55" cy="-45" r="2.5"><animate attributeName="opacity" values="0.2;1;0.2" dur="1.8s" repeatCount="indefinite"/></circle>
      <circle cx="55" cy="-45" r="2.5"><animate attributeName="opacity" values="0.2;1;0.2" dur="2.1s" repeatCount="indefinite"/></circle>
      <circle cx="-55" cy="45" r="2.5"><animate attributeName="opacity" values="0.2;1;0.2" dur="2.3s" repeatCount="indefinite"/></circle>
      <circle cx="55" cy="45" r="2.5"><animate attributeName="opacity" values="0.2;1;0.2" dur="1.9s" repeatCount="indefinite"/></circle>
      <circle cx="-72" cy="0" r="2"><animate attributeName="opacity" values="0.2;1;0.2" dur="2.0s" repeatCount="indefinite"/></circle>
      <circle cx="72" cy="0" r="2"><animate attributeName="opacity" values="0.2;1;0.2" dur="2.5s" repeatCount="indefinite"/></circle>
    </g>
    <g stroke="#FCA5A5" stroke-width="0.8" stroke-opacity="0.5" fill="none">
      <path d="M-44 -30 L-38 -26"><animate attributeName="stroke-opacity" values="0;0.8;0" dur="2.2s" repeatCount="indefinite"/></path>
      <path d="M44 -30 L38 -26"><animate attributeName="stroke-opacity" values="0;0.8;0" dur="2.4s" repeatCount="indefinite"/></path>
      <path d="M-44 30 L-38 26"><animate attributeName="stroke-opacity" values="0;0.8;0" dur="2.0s" repeatCount="indefinite"/></path>
      <path d="M44 30 L38 26"><animate attributeName="stroke-opacity" values="0;0.8;0" dur="2.6s" repeatCount="indefinite"/></path>
    </g>
  </g>
  <g transform="translate(870,315)" filter="url(#softShadow)">
    <rect x="-50" y="-48" width="100" height="96" rx="10" fill="#1E0A14" stroke="#E63946" stroke-width="1.6" stroke-opacity="0.75"/>
    <text x="0" y="-26" text-anchor="middle" font-family="Inter, Helvetica, Arial, sans-serif" font-size="10" font-weight="700" letter-spacing="1.4" fill="#F87171">PATCH</text>
    <text x="0" y="14" text-anchor="middle" font-family="Inter, Helvetica, Arial, sans-serif" font-size="34" font-weight="900" fill="#F5F7FA">1.84</text>
    <text x="0" y="34" text-anchor="middle" font-family="Inter, Helvetica, Arial, sans-serif" font-size="10" font-weight="600" fill="#FBB6BD">agent version</text>
  </g>
  <g transform="translate(990,315)" filter="url(#softShadow)">
    <rect x="-80" y="-65" width="180" height="125" rx="14" fill="#1E0A14" stroke="#E63946" stroke-width="2.2"/>
    <text x="10" y="-38" text-anchor="middle" font-family="Inter, Helvetica, Arial, sans-serif" font-size="13" font-weight="700" letter-spacing="2" fill="#F87171">CVSS</text>
    <text x="10" y="22" text-anchor="middle" font-family="Inter, Helvetica, Arial, sans-serif" font-size="72" font-weight="900" fill="#F5F7FA">9.6</text>
    <text x="10" y="44" text-anchor="middle" font-family="Inter, Helvetica, Arial, sans-serif" font-size="11" font-weight="600" fill="#FBB6BD">ECS escape</text>
    <line x1="-58" y1="50" x2="78" y2="50" stroke="#E63946" stroke-width="0.8" stroke-opacity="0.5"/>
    
  </g>
  <g transform="translate(990,315)">
    <circle cx="10" cy="-50" r="3" fill="#E63946"><animate attributeName="opacity" values="0.2;1;0.2" dur="1.8s" repeatCount="indefinite"/></circle>
    <circle cx="-58" cy="-50" r="2" fill="#FCA5A5"><animate attributeName="opacity" values="0.8;0.2;0.8" dur="2.2s" repeatCount="indefinite"/></circle>
    <circle cx="78" cy="-50" r="2" fill="#FCA5A5"><animate attributeName="opacity" values="0.2;0.9;0.2" dur="2.4s" repeatCount="indefinite"/></circle>
  </g>
</g>
<g>
  <rect x="0" y="420" width="1200" height="210" fill="url(#bandCMA14)"/>
  <rect x="0" y="420" width="1200" height="210" fill="url(#ledgerGrid)" opacity="0.6"/>
  <rect x="0" y="420" width="8" height="210" fill="#FFB703"/>
  <g filter="url(#textShadow)">
    <text x="30" y="464" font-family="Inter, Helvetica, Arial, sans-serif" font-size="18" font-weight="700" letter-spacing="2.4" fill="#FFB703">REGISTRY OOB</text>
    <text x="30" y="506" font-family="Inter, Helvetica, Arial, sans-serif" font-size="36" font-weight="800" fill="#F5F7FA">Harbor + MS Office</text>
    <text x="30" y="538" font-family="Inter, Helvetica, Arial, sans-serif" font-size="20" font-weight="600" fill="#FFD58A">Harbor 2.12 + MS OOB</text>
    <text x="30" y="566" font-family="Inter, Helvetica, Arial, sans-serif" font-size="15" font-weight="500" fill="#E0D5B6">Harbor proxy cache poisoning : MS Office RCE OOB : both critical</text>
  </g>
  <g transform="translate(640,525)">
    <circle r="78" fill="#FFB703" fill-opacity="0.05"><animate attributeName="r" values="68;84;68" dur="3.4s" repeatCount="indefinite"/></circle>
    <path d="M0 -60 L55 -40 L50 25 Q40 55 0 65 Q-40 55 -50 25 L-55 -40 Z" fill="#FFB703" fill-opacity="0.15" stroke="#FFB703" stroke-width="2.4" filter="url(#softShadow)"/>
    <path d="M0 -50 L45 -33 L40 22 Q32 46 0 55 Q-32 46 -40 22 L-45 -33 Z" fill="none" stroke="#FCD34D" stroke-width="1" opacity="0.7"/>
    <path d="M0 -40 L35 -26 L31 18 Q24 38 0 45 Q-24 38 -31 18 L-35 -26 Z" fill="none" stroke="#FCD34D" stroke-width="0.6" opacity="0.5"/>
    <g transform="translate(0,-5)" stroke="#FCD34D" stroke-width="3" fill="none">
      <path d="M-18 5 L-4 20 L22 -12"><animate attributeName="stroke-dasharray" values="0 80;80 0" dur="2.4s" repeatCount="indefinite"/></path>
    </g>
    <g fill="#FCD34D" opacity="0.7">
      <circle cx="-40" cy="-30" r="2"><animate attributeName="opacity" values="0.3;1;0.3" dur="1.8s" repeatCount="indefinite"/></circle>
      <circle cx="40" cy="-30" r="2"><animate attributeName="opacity" values="0.3;1;0.3" dur="2.0s" begin="0.3s" repeatCount="indefinite"/></circle>
      <circle cx="-30" cy="35" r="2"><animate attributeName="opacity" values="0.3;1;0.3" dur="2.2s" begin="0.6s" repeatCount="indefinite"/></circle>
      <circle cx="30" cy="35" r="2"><animate attributeName="opacity" values="0.3;1;0.3" dur="1.9s" begin="0.9s" repeatCount="indefinite"/></circle>
    </g>
    <text y="84" text-anchor="middle" font-family="Inter, monospace" font-size="10" font-weight="800" fill="#FFB703">PATCH</text>
  </g>
  <g transform="translate(870,525)" filter="url(#softShadow)">
    <rect x="-50" y="-48" width="100" height="96" rx="10" fill="#1E1805" stroke="#FFB703" stroke-width="1.6" stroke-opacity="0.75"/>
    <text x="0" y="-26" text-anchor="middle" font-family="Inter, Helvetica, Arial, sans-serif" font-size="10" font-weight="700" letter-spacing="1.4" fill="#FFB703">HARBOR</text>
    <text x="0" y="14" text-anchor="middle" font-family="Inter, Helvetica, Arial, sans-serif" font-size="34" font-weight="900" fill="#F5F7FA">2.12</text>
    <text x="0" y="34" text-anchor="middle" font-family="Inter, Helvetica, Arial, sans-serif" font-size="10" font-weight="600" fill="#FFD58A">proxy fix</text>
  </g>
  <g transform="translate(990,525)" filter="url(#softShadow)">
    <rect x="-80" y="-65" width="180" height="125" rx="14" fill="#1E1805" stroke="#FFB703" stroke-width="2.2"/>
    <text x="10" y="-38" text-anchor="middle" font-family="Inter, Helvetica, Arial, sans-serif" font-size="13" font-weight="700" letter-spacing="2" fill="#FFB703">OOB</text>
    <text x="10" y="22" text-anchor="middle" font-family="Inter, Helvetica, Arial, sans-serif" font-size="72" font-weight="900" fill="#F5F7FA">2</text>
    <text x="10" y="44" text-anchor="middle" font-family="Inter, Helvetica, Arial, sans-serif" font-size="11" font-weight="600" fill="#FFD58A">patches</text>
    <line x1="-58" y1="50" x2="78" y2="50" stroke="#FFB703" stroke-width="0.8" stroke-opacity="0.5"/>
    
  </g>
  <g transform="translate(990,525)">
    <circle cx="10" cy="-50" r="3" fill="#FFB703"><animate attributeName="opacity" values="0.2;1;0.2" dur="1.8s" repeatCount="indefinite"/></circle>
    <circle cx="-58" cy="-50" r="2" fill="#FCD34D"><animate attributeName="opacity" values="0.8;0.2;0.8" dur="2.2s" repeatCount="indefinite"/></circle>
    <circle cx="78" cy="-50" r="2" fill="#FCD34D"><animate attributeName="opacity" values="0.2;0.9;0.2" dur="2.4s" repeatCount="indefinite"/></circle>
  </g>
</g>
<g opacity="0.9">
  <g fill="#A78BFA">
    <circle cx="240" cy="63" r="1.5"><animate attributeName="opacity" values="0;1;0" dur="1.8s" repeatCount="indefinite"/></circle>
    <circle cx="290" cy="63" r="1.5"><animate attributeName="opacity" values="0;1;0" dur="1.6s" begin="0.2s" repeatCount="indefinite"/></circle>
    <circle cx="340" cy="63" r="1.5"><animate attributeName="opacity" values="0;1;0" dur="2.0s" begin="0.4s" repeatCount="indefinite"/></circle>
    <circle cx="390" cy="63" r="1.5"><animate attributeName="opacity" values="0;1;0" dur="1.7s" begin="0.6s" repeatCount="indefinite"/></circle>
    <circle cx="440" cy="63" r="1.5"><animate attributeName="opacity" values="0;1;0" dur="1.9s" begin="0.8s" repeatCount="indefinite"/></circle>
    <circle cx="780" cy="55" r="1.4"><animate attributeName="opacity" values="0;1;0" dur="1.6s" repeatCount="indefinite"/></circle>
    <circle cx="820" cy="55" r="1.4"><animate attributeName="opacity" values="0;1;0" dur="2.0s" begin="0.3s" repeatCount="indefinite"/></circle>
    <circle cx="860" cy="55" r="1.4"><animate attributeName="opacity" values="0;1;0" dur="1.8s" begin="0.6s" repeatCount="indefinite"/></circle>
    <circle cx="240" cy="147" r="1.3"><animate attributeName="opacity" values="0;1;0" dur="1.7s" begin="0.4s" repeatCount="indefinite"/></circle>
    <circle cx="320" cy="147" r="1.3"><animate attributeName="opacity" values="0;1;0" dur="1.9s" begin="0.7s" repeatCount="indefinite"/></circle>
  </g>
  <g fill="#A78BFA" opacity="0.6">
    <rect x="780" y="27" width="6" height="2"><animate attributeName="opacity" values="0.2;1;0.2" dur="1.4s" repeatCount="indefinite"/></rect>
    <rect x="800" y="27" width="6" height="2"><animate attributeName="opacity" values="0.2;1;0.2" dur="1.2s" begin="0.3s" repeatCount="indefinite"/></rect>
    <rect x="820" y="27" width="6" height="2"><animate attributeName="opacity" values="0.2;1;0.2" dur="1.6s" begin="0.6s" repeatCount="indefinite"/></rect>
    <rect x="840" y="27" width="6" height="2"><animate attributeName="opacity" values="0.2;1;0.2" dur="1.3s" begin="0.9s" repeatCount="indefinite"/></rect>
  </g>
  <g fill="#C4B5FD" opacity="0.85">
    <rect x="730" y="165" width="3" height="3" rx="0.6"><animate attributeName="opacity" values="0.3;1;0.3" dur="1.4s" repeatCount="indefinite"/></rect>
    <rect x="746" y="165" width="3" height="3" rx="0.6"><animate attributeName="opacity" values="0.3;1;0.3" dur="1.2s" begin="0.3s" repeatCount="indefinite"/></rect>
    <rect x="762" y="165" width="3" height="3" rx="0.6"><animate attributeName="opacity" values="0.3;1;0.3" dur="1.6s" begin="0.6s" repeatCount="indefinite"/></rect>
  </g>
  <g stroke="#A78BFA" stroke-width="0.5" stroke-opacity="0.35" fill="none">
    <path d="M20 95 L28 95"><animate attributeName="stroke-opacity" values="0;0.7;0" dur="2s" repeatCount="indefinite"/></path>
    <path d="M20 125 L28 125"><animate attributeName="stroke-opacity" values="0;0.7;0" dur="2.2s" begin="0.3s" repeatCount="indefinite"/></path>
    <path d="M20 155 L28 155"><animate attributeName="stroke-opacity" values="0;0.7;0" dur="1.8s" begin="0.6s" repeatCount="indefinite"/></path>
  </g>
  <g stroke="#C4B5FD" stroke-width="0.6" stroke-opacity="0.3" fill="none">
    <circle cx="500" cy="105" r="100"><animate attributeName="r" values="80;120;80" dur="4s" repeatCount="indefinite"/><animate attributeName="stroke-opacity" values="0.4;0;0.4" dur="4s" repeatCount="indefinite"/></circle>
  </g>
  <g fill="#E63946">
    <circle cx="240" cy="273" r="1.5"><animate attributeName="opacity" values="0;1;0" dur="1.8s" repeatCount="indefinite"/></circle>
    <circle cx="290" cy="273" r="1.5"><animate attributeName="opacity" values="0;1;0" dur="1.6s" begin="0.2s" repeatCount="indefinite"/></circle>
    <circle cx="340" cy="273" r="1.5"><animate attributeName="opacity" values="0;1;0" dur="2.0s" begin="0.4s" repeatCount="indefinite"/></circle>
    <circle cx="390" cy="273" r="1.5"><animate attributeName="opacity" values="0;1;0" dur="1.7s" begin="0.6s" repeatCount="indefinite"/></circle>
    <circle cx="440" cy="273" r="1.5"><animate attributeName="opacity" values="0;1;0" dur="1.9s" begin="0.8s" repeatCount="indefinite"/></circle>
    <circle cx="780" cy="265" r="1.4"><animate attributeName="opacity" values="0;1;0" dur="1.6s" repeatCount="indefinite"/></circle>
    <circle cx="820" cy="265" r="1.4"><animate attributeName="opacity" values="0;1;0" dur="2.0s" begin="0.3s" repeatCount="indefinite"/></circle>
    <circle cx="860" cy="265" r="1.4"><animate attributeName="opacity" values="0;1;0" dur="1.8s" begin="0.6s" repeatCount="indefinite"/></circle>
    <circle cx="240" cy="357" r="1.3"><animate attributeName="opacity" values="0;1;0" dur="1.7s" begin="0.4s" repeatCount="indefinite"/></circle>
    <circle cx="320" cy="357" r="1.3"><animate attributeName="opacity" values="0;1;0" dur="1.9s" begin="0.7s" repeatCount="indefinite"/></circle>
  </g>
  <g fill="#E63946" opacity="0.6">
    <rect x="780" y="237" width="6" height="2"><animate attributeName="opacity" values="0.2;1;0.2" dur="1.4s" repeatCount="indefinite"/></rect>
    <rect x="800" y="237" width="6" height="2"><animate attributeName="opacity" values="0.2;1;0.2" dur="1.2s" begin="0.3s" repeatCount="indefinite"/></rect>
    <rect x="820" y="237" width="6" height="2"><animate attributeName="opacity" values="0.2;1;0.2" dur="1.6s" begin="0.6s" repeatCount="indefinite"/></rect>
    <rect x="840" y="237" width="6" height="2"><animate attributeName="opacity" values="0.2;1;0.2" dur="1.3s" begin="0.9s" repeatCount="indefinite"/></rect>
  </g>
  <g fill="#FCA5A5" opacity="0.85">
    <rect x="730" y="375" width="3" height="3" rx="0.6"><animate attributeName="opacity" values="0.3;1;0.3" dur="1.4s" repeatCount="indefinite"/></rect>
    <rect x="746" y="375" width="3" height="3" rx="0.6"><animate attributeName="opacity" values="0.3;1;0.3" dur="1.2s" begin="0.3s" repeatCount="indefinite"/></rect>
    <rect x="762" y="375" width="3" height="3" rx="0.6"><animate attributeName="opacity" values="0.3;1;0.3" dur="1.6s" begin="0.6s" repeatCount="indefinite"/></rect>
  </g>
  <g stroke="#E63946" stroke-width="0.5" stroke-opacity="0.35" fill="none">
    <path d="M20 305 L28 305"><animate attributeName="stroke-opacity" values="0;0.7;0" dur="2s" repeatCount="indefinite"/></path>
    <path d="M20 335 L28 335"><animate attributeName="stroke-opacity" values="0;0.7;0" dur="2.2s" begin="0.3s" repeatCount="indefinite"/></path>
    <path d="M20 365 L28 365"><animate attributeName="stroke-opacity" values="0;0.7;0" dur="1.8s" begin="0.6s" repeatCount="indefinite"/></path>
  </g>
  <g stroke="#FCA5A5" stroke-width="0.6" stroke-opacity="0.3" fill="none">
    <circle cx="500" cy="315" r="100"><animate attributeName="r" values="80;120;80" dur="4s" repeatCount="indefinite"/><animate attributeName="stroke-opacity" values="0.4;0;0.4" dur="4s" repeatCount="indefinite"/></circle>
  </g>
  <g fill="#FFB703">
    <circle cx="240" cy="483" r="1.5"><animate attributeName="opacity" values="0;1;0" dur="1.8s" repeatCount="indefinite"/></circle>
    <circle cx="290" cy="483" r="1.5"><animate attributeName="opacity" values="0;1;0" dur="1.6s" begin="0.2s" repeatCount="indefinite"/></circle>
    <circle cx="340" cy="483" r="1.5"><animate attributeName="opacity" values="0;1;0" dur="2.0s" begin="0.4s" repeatCount="indefinite"/></circle>
    <circle cx="390" cy="483" r="1.5"><animate attributeName="opacity" values="0;1;0" dur="1.7s" begin="0.6s" repeatCount="indefinite"/></circle>
    <circle cx="440" cy="483" r="1.5"><animate attributeName="opacity" values="0;1;0" dur="1.9s" begin="0.8s" repeatCount="indefinite"/></circle>
    <circle cx="780" cy="475" r="1.4"><animate attributeName="opacity" values="0;1;0" dur="1.6s" repeatCount="indefinite"/></circle>
    <circle cx="820" cy="475" r="1.4"><animate attributeName="opacity" values="0;1;0" dur="2.0s" begin="0.3s" repeatCount="indefinite"/></circle>
    <circle cx="860" cy="475" r="1.4"><animate attributeName="opacity" values="0;1;0" dur="1.8s" begin="0.6s" repeatCount="indefinite"/></circle>
    <circle cx="240" cy="567" r="1.3"><animate attributeName="opacity" values="0;1;0" dur="1.7s" begin="0.4s" repeatCount="indefinite"/></circle>
    <circle cx="320" cy="567" r="1.3"><animate attributeName="opacity" values="0;1;0" dur="1.9s" begin="0.7s" repeatCount="indefinite"/></circle>
  </g>
  <g fill="#FFB703" opacity="0.6">
    <rect x="780" y="447" width="6" height="2"><animate attributeName="opacity" values="0.2;1;0.2" dur="1.4s" repeatCount="indefinite"/></rect>
    <rect x="800" y="447" width="6" height="2"><animate attributeName="opacity" values="0.2;1;0.2" dur="1.2s" begin="0.3s" repeatCount="indefinite"/></rect>
    <rect x="820" y="447" width="6" height="2"><animate attributeName="opacity" values="0.2;1;0.2" dur="1.6s" begin="0.6s" repeatCount="indefinite"/></rect>
    <rect x="840" y="447" width="6" height="2"><animate attributeName="opacity" values="0.2;1;0.2" dur="1.3s" begin="0.9s" repeatCount="indefinite"/></rect>
  </g>
  <g fill="#FCD34D" opacity="0.85">
    <rect x="730" y="585" width="3" height="3" rx="0.6"><animate attributeName="opacity" values="0.3;1;0.3" dur="1.4s" repeatCount="indefinite"/></rect>
    <rect x="746" y="585" width="3" height="3" rx="0.6"><animate attributeName="opacity" values="0.3;1;0.3" dur="1.2s" begin="0.3s" repeatCount="indefinite"/></rect>
    <rect x="762" y="585" width="3" height="3" rx="0.6"><animate attributeName="opacity" values="0.3;1;0.3" dur="1.6s" begin="0.6s" repeatCount="indefinite"/></rect>
  </g>
  <g stroke="#FFB703" stroke-width="0.5" stroke-opacity="0.35" fill="none">
    <path d="M20 515 L28 515"><animate attributeName="stroke-opacity" values="0;0.7;0" dur="2s" repeatCount="indefinite"/></path>
    <path d="M20 545 L28 545"><animate attributeName="stroke-opacity" values="0;0.7;0" dur="2.2s" begin="0.3s" repeatCount="indefinite"/></path>
    <path d="M20 575 L28 575"><animate attributeName="stroke-opacity" values="0;0.7;0" dur="1.8s" begin="0.6s" repeatCount="indefinite"/></path>
  </g>
  <g stroke="#FCD34D" stroke-width="0.6" stroke-opacity="0.3" fill="none">
    <circle cx="500" cy="525" r="100"><animate attributeName="r" values="80;120;80" dur="4s" repeatCount="indefinite"/><animate attributeName="stroke-opacity" values="0.4;0;0.4" dur="4s" repeatCount="indefinite"/></circle>
  </g>
</g>
<g transform="translate(1080,504)" filter="url(#softShadow)">
  <rect x="-8" y="-8" width="100" height="100" rx="6" fill="#FFFFFF"/>
  <path fill="#0A1020" d="M0.0 0.0h14.341v2.049h-14.341z M20.488 0.0h6.146v2.049h-6.146z M30.732 0.0h2.049v2.049h-2.049z M34.829 0.0h6.146v2.049h-6.146z M45.073 0.0h12.293v2.049h-12.293z M61.463 0.0h4.098v2.049h-4.098z M69.659 0.0h14.341v2.049h-14.341z M0.0 2.049h2.049v2.049h-2.049z M12.293 2.049h2.049v2.049h-2.049z M18.439 2.049h4.098v2.049h-4.098z M30.732 2.049h2.049v2.049h-2.049z M36.878 2.049h2.049v2.049h-2.049z M40.976 2.049h8.195v2.049h-8.195z M51.22 2.049h10.244v2.049h-10.244z M65.561 2.049h2.049v2.049h-2.049z M69.659 2.049h2.049v2.049h-2.049z M81.951 2.049h2.049v2.049h-2.049z M0.0 4.098h2.049v2.049h-2.049z M4.098 4.098h6.146v2.049h-6.146z M12.293 4.098h2.049v2.049h-2.049z M18.439 4.098h4.098v2.049h-4.098z M26.634 4.098h6.146v2.049h-6.146z M36.878 4.098h4.098v2.049h-4.098z M47.122 4.098h2.049v2.049h-2.049z M51.22 4.098h2.049v2.049h-2.049z M59.415 4.098h2.049v2.049h-2.049z M65.561 4.098h2.049v2.049h-2.049z M69.659 4.098h2.049v2.049h-2.049z M73.756 4.098h6.146v2.049h-6.146z M81.951 4.098h2.049v2.049h-2.049z M0.0 6.146h2.049v2.049h-2.049z M4.098 6.146h6.146v2.049h-6.146z M12.293 6.146h2.049v2.049h-2.049z M18.439 6.146h6.146v2.049h-6.146z M26.634 6.146h2.049v2.049h-2.049z M32.78 6.146h12.293v2.049h-12.293z M47.122 6.146h12.293v2.049h-12.293z M61.463 6.146h6.146v2.049h-6.146z M69.659 6.146h2.049v2.049h-2.049z M73.756 6.146h6.146v2.049h-6.146z M81.951 6.146h2.049v2.049h-2.049z M0.0 8.195h2.049v2.049h-2.049z M4.098 8.195h6.146v2.049h-6.146z M12.293 8.195h2.049v2.049h-2.049z M18.439 8.195h6.146v2.049h-6.146z M26.634 8.195h2.049v2.049h-2.049z M34.829 8.195h6.146v2.049h-6.146z M45.073 8.195h2.049v2.049h-2.049z M51.22 8.195h6.146v2.049h-6.146z M65.561 8.195h2.049v2.049h-2.049z M69.659 8.195h2.049v2.049h-2.049z M73.756 8.195h6.146v2.049h-6.146z M81.951 8.195h2.049v2.049h-2.049z M0.0 10.244h2.049v2.049h-2.049z M12.293 10.244h2.049v2.049h-2.049z M16.39 10.244h8.195v2.049h-8.195z M26.634 10.244h2.049v2.049h-2.049z M30.732 10.244h2.049v2.049h-2.049z M34.829 10.244h6.146v2.049h-6.146z M49.171 10.244h2.049v2.049h-2.049z M53.268 10.244h4.098v2.049h-4.098z M61.463 10.244h6.146v2.049h-6.146z M69.659 10.244h2.049v2.049h-2.049z M81.951 10.244h2.049v2.049h-2.049z M0.0 12.293h14.341v2.049h-14.341z M16.39 12.293h2.049v2.049h-2.049z M20.488 12.293h2.049v2.049h-2.049z M24.585 12.293h2.049v2.049h-2.049z M28.683 12.293h2.049v2.049h-2.049z M32.78 12.293h2.049v2.049h-2.049z M36.878 12.293h2.049v2.049h-2.049z M40.976 12.293h2.049v2.049h-2.049z M45.073 12.293h2.049v2.049h-2.049z M49.171 12.293h2.049v2.049h-2.049z M53.268 12.293h2.049v2.049h-2.049z M57.366 12.293h2.049v2.049h-2.049z M61.463 12.293h2.049v2.049h-2.049z M65.561 12.293h2.049v2.049h-2.049z M69.659 12.293h14.341v2.049h-14.341z M18.439 14.341h4.098v2.049h-4.098z M28.683 14.341h8.195v2.049h-8.195z M40.976 14.341h6.146v2.049h-6.146z M49.171 14.341h2.049v2.049h-2.049z M55.317 14.341h6.146v2.049h-6.146z M63.512 14.341h2.049v2.049h-2.049z M0.0 16.39h2.049v2.049h-2.049z M6.146 16.39h2.049v2.049h-2.049z M10.244 16.39h4.098v2.049h-4.098z M16.39 16.39h2.049v2.049h-2.049z M20.488 16.39h6.146v2.049h-6.146z M28.683 16.39h2.049v2.049h-2.049z M38.927 16.39h2.049v2.049h-2.049z M43.024 16.39h2.049v2.049h-2.049z M51.22 16.39h4.098v2.049h-4.098z M65.561 16.39h4.098v2.049h-4.098z M71.707 16.39h2.049v2.049h-2.049z M0.0 18.439h2.049v2.049h-2.049z M4.098 18.439h2.049v2.049h-2.049z M8.195 18.439h4.098v2.049h-4.098z M14.341 18.439h2.049v2.049h-2.049z M18.439 18.439h2.049v2.049h-2.049z M22.537 18.439h8.195v2.049h-8.195z M32.78 18.439h4.098v2.049h-4.098z M43.024 18.439h2.049v2.049h-2.049z M49.171 18.439h6.146v2.049h-6.146z M59.415 18.439h2.049v2.049h-2.049z M65.561 18.439h8.195v2.049h-8.195z M75.805 18.439h8.195v2.049h-8.195z M0.0 20.488h2.049v2.049h-2.049z M4.098 20.488h2.049v2.049h-2.049z M10.244 20.488h6.146v2.049h-6.146z M18.439 20.488h2.049v2.049h-2.049z M24.585 20.488h8.195v2.049h-8.195z M34.829 20.488h8.195v2.049h-8.195z M45.073 20.488h2.049v2.049h-2.049z M49.171 20.488h2.049v2.049h-2.049z M53.268 20.488h2.049v2.049h-2.049z M61.463 20.488h4.098v2.049h-4.098z M71.707 20.488h8.195v2.049h-8.195z M2.049 22.537h2.049v2.049h-2.049z M10.244 22.537h2.049v2.049h-2.049z M16.39 22.537h2.049v2.049h-2.049z M20.488 22.537h2.049v2.049h-2.049z M28.683 22.537h2.049v2.049h-2.049z M36.878 22.537h2.049v2.049h-2.049z M43.024 22.537h2.049v2.049h-2.049z M49.171 22.537h4.098v2.049h-4.098z M57.366 22.537h2.049v2.049h-2.049z M67.61 22.537h4.098v2.049h-4.098z M73.756 22.537h2.049v2.049h-2.049z M77.854 22.537h4.098v2.049h-4.098z M2.049 24.585h14.341v2.049h-14.341z M18.439 24.585h2.049v2.049h-2.049z M22.537 24.585h2.049v2.049h-2.049z M26.634 24.585h6.146v2.049h-6.146z M34.829 24.585h2.049v2.049h-2.049z M38.927 24.585h2.049v2.049h-2.049z M43.024 24.585h2.049v2.049h-2.049z M49.171 24.585h8.195v2.049h-8.195z M59.415 24.585h14.341v2.049h-14.341z M75.805 24.585h2.049v2.049h-2.049z M79.902 24.585h4.098v2.049h-4.098z M2.049 26.634h4.098v2.049h-4.098z M10.244 26.634h2.049v2.049h-2.049z M18.439 26.634h4.098v2.049h-4.098z M26.634 26.634h4.098v2.049h-4.098z M45.073 26.634h8.195v2.049h-8.195z M55.317 26.634h4.098v2.049h-4.098z M61.463 26.634h8.195v2.049h-8.195z M75.805 26.634h4.098v2.049h-4.098z M0.0 28.683h2.049v2.049h-2.049z M4.098 28.683h4.098v2.049h-4.098z M10.244 28.683h4.098v2.049h-4.098z M16.39 28.683h4.098v2.049h-4.098z M22.537 28.683h2.049v2.049h-2.049z M28.683 28.683h2.049v2.049h-2.049z M34.829 28.683h2.049v2.049h-2.049z M40.976 28.683h2.049v2.049h-2.049z M49.171 28.683h2.049v2.049h-2.049z M61.463 28.683h2.049v2.049h-2.049z M69.659 28.683h2.049v2.049h-2.049z M75.805 28.683h8.195v2.049h-8.195z M4.098 30.732h2.049v2.049h-2.049z M8.195 30.732h4.098v2.049h-4.098z M16.39 30.732h6.146v2.049h-6.146z M24.585 30.732h4.098v2.049h-4.098z M30.732 30.732h2.049v2.049h-2.049z M34.829 30.732h2.049v2.049h-2.049z M38.927 30.732h2.049v2.049h-2.049z M43.024 30.732h4.098v2.049h-4.098z M49.171 30.732h8.195v2.049h-8.195z M59.415 30.732h8.195v2.049h-8.195z M69.659 30.732h4.098v2.049h-4.098z M4.098 32.78h24.585v2.049h-24.585z M32.78 32.78h4.098v2.049h-4.098z M38.927 32.78h4.098v2.049h-4.098z M45.073 32.78h4.098v2.049h-4.098z M59.415 32.78h2.049v2.049h-2.049z M63.512 32.78h4.098v2.049h-4.098z M71.707 32.78h2.049v2.049h-2.049z M79.902 32.78h2.049v2.049h-2.049z M2.049 34.829h2.049v2.049h-2.049z M8.195 34.829h4.098v2.049h-4.098z M14.341 34.829h2.049v2.049h-2.049z M28.683 34.829h2.049v2.049h-2.049z M32.78 34.829h2.049v2.049h-2.049z M38.927 34.829h2.049v2.049h-2.049z M47.122 34.829h14.341v2.049h-14.341z M69.659 34.829h4.098v2.049h-4.098z M75.805 34.829h8.195v2.049h-8.195z M0.0 36.878h2.049v2.049h-2.049z M6.146 36.878h2.049v2.049h-2.049z M10.244 36.878h8.195v2.049h-8.195z M22.537 36.878h2.049v2.049h-2.049z M30.732 36.878h2.049v2.049h-2.049z M36.878 36.878h2.049v2.049h-2.049z M43.024 36.878h2.049v2.049h-2.049z M53.268 36.878h2.049v2.049h-2.049z M61.463 36.878h2.049v2.049h-2.049z M67.61 36.878h4.098v2.049h-4.098z M73.756 36.878h2.049v2.049h-2.049z M81.951 36.878h2.049v2.049h-2.049z M2.049 38.927h4.098v2.049h-4.098z M8.195 38.927h2.049v2.049h-2.049z M22.537 38.927h4.098v2.049h-4.098z M30.732 38.927h8.195v2.049h-8.195z M40.976 38.927h2.049v2.049h-2.049z M45.073 38.927h2.049v2.049h-2.049z M53.268 38.927h4.098v2.049h-4.098z M59.415 38.927h4.098v2.049h-4.098z M65.561 38.927h8.195v2.049h-8.195z M75.805 38.927h2.049v2.049h-2.049z M81.951 38.927h2.049v2.049h-2.049z M0.0 40.976h2.049v2.049h-2.049z M10.244 40.976h4.098v2.049h-4.098z M16.39 40.976h4.098v2.049h-4.098z M28.683 40.976h4.098v2.049h-4.098z M34.829 40.976h6.146v2.049h-6.146z M47.122 40.976h4.098v2.049h-4.098z M55.317 40.976h2.049v2.049h-2.049z M61.463 40.976h2.049v2.049h-2.049z M65.561 40.976h6.146v2.049h-6.146z M77.854 40.976h4.098v2.049h-4.098z M0.0 43.024h2.049v2.049h-2.049z M8.195 43.024h4.098v2.049h-4.098z M16.39 43.024h2.049v2.049h-2.049z M22.537 43.024h4.098v2.049h-4.098z M34.829 43.024h4.098v2.049h-4.098z M43.024 43.024h2.049v2.049h-2.049z M51.22 43.024h4.098v2.049h-4.098z M59.415 43.024h2.049v2.049h-2.049z M69.659 43.024h2.049v2.049h-2.049z M77.854 43.024h6.146v2.049h-6.146z M2.049 45.073h4.098v2.049h-4.098z M10.244 45.073h12.293v2.049h-12.293z M24.585 45.073h2.049v2.049h-2.049z M34.829 45.073h8.195v2.049h-8.195z M49.171 45.073h4.098v2.049h-4.098z M57.366 45.073h2.049v2.049h-2.049z M63.512 45.073h2.049v2.049h-2.049z M67.61 45.073h8.195v2.049h-8.195z M77.854 45.073h4.098v2.049h-4.098z M0.0 47.122h2.049v2.049h-2.049z M4.098 47.122h4.098v2.049h-4.098z M18.439 47.122h2.049v2.049h-2.049z M24.585 47.122h6.146v2.049h-6.146z M36.878 47.122h10.244v2.049h-10.244z M51.22 47.122h4.098v2.049h-4.098z M57.366 47.122h2.049v2.049h-2.049z M61.463 47.122h2.049v2.049h-2.049z M71.707 47.122h2.049v2.049h-2.049z M77.854 47.122h2.049v2.049h-2.049z M81.951 47.122h2.049v2.049h-2.049z M0.0 49.171h8.195v2.049h-8.195z M12.293 49.171h2.049v2.049h-2.049z M16.39 49.171h2.049v2.049h-2.049z M20.488 49.171h2.049v2.049h-2.049z M24.585 49.171h2.049v2.049h-2.049z M28.683 49.171h8.195v2.049h-8.195z M38.927 49.171h6.146v2.049h-6.146z M47.122 49.171h6.146v2.049h-6.146z M55.317 49.171h6.146v2.049h-6.146z M63.512 49.171h10.244v2.049h-10.244z M75.805 49.171h4.098v2.049h-4.098z M0.0 51.22h6.146v2.049h-6.146z M18.439 51.22h8.195v2.049h-8.195z M30.732 51.22h2.049v2.049h-2.049z M34.829 51.22h2.049v2.049h-2.049z M38.927 51.22h8.195v2.049h-8.195z M49.171 51.22h6.146v2.049h-6.146z M57.366 51.22h4.098v2.049h-4.098z M63.512 51.22h2.049v2.049h-2.049z M69.659 51.22h2.049v2.049h-2.049z M75.805 51.22h2.049v2.049h-2.049z M79.902 51.22h2.049v2.049h-2.049z M2.049 53.268h4.098v2.049h-4.098z M12.293 53.268h2.049v2.049h-2.049z M16.39 53.268h4.098v2.049h-4.098z M30.732 53.268h6.146v2.049h-6.146z M40.976 53.268h2.049v2.049h-2.049z M47.122 53.268h2.049v2.049h-2.049z M51.22 53.268h4.098v2.049h-4.098z M57.366 53.268h2.049v2.049h-2.049z M61.463 53.268h2.049v2.049h-2.049z M65.561 53.268h4.098v2.049h-4.098z M71.707 53.268h4.098v2.049h-4.098z M79.902 53.268h4.098v2.049h-4.098z M4.098 55.317h2.049v2.049h-2.049z M8.195 55.317h4.098v2.049h-4.098z M22.537 55.317h4.098v2.049h-4.098z M28.683 55.317h10.244v2.049h-10.244z M40.976 55.317h6.146v2.049h-6.146z M49.171 55.317h8.195v2.049h-8.195z M59.415 55.317h2.049v2.049h-2.049z M65.561 55.317h2.049v2.049h-2.049z M69.659 55.317h2.049v2.049h-2.049z M0.0 57.366h4.098v2.049h-4.098z M12.293 57.366h2.049v2.049h-2.049z M18.439 57.366h2.049v2.049h-2.049z M22.537 57.366h2.049v2.049h-2.049z M26.634 57.366h2.049v2.049h-2.049z M32.78 57.366h4.098v2.049h-4.098z M40.976 57.366h8.195v2.049h-8.195z M53.268 57.366h4.098v2.049h-4.098z M59.415 57.366h4.098v2.049h-4.098z M65.561 57.366h2.049v2.049h-2.049z M71.707 57.366h2.049v2.049h-2.049z M79.902 57.366h2.049v2.049h-2.049z M8.195 59.415h2.049v2.049h-2.049z M22.537 59.415h2.049v2.049h-2.049z M26.634 59.415h10.244v2.049h-10.244z M38.927 59.415h2.049v2.049h-2.049z M43.024 59.415h2.049v2.049h-2.049z M51.22 59.415h2.049v2.049h-2.049z M55.317 59.415h10.244v2.049h-10.244z M67.61 59.415h6.146v2.049h-6.146z M75.805 59.415h4.098v2.049h-4.098z M81.951 59.415h2.049v2.049h-2.049z M0.0 61.463h2.049v2.049h-2.049z M8.195 61.463h2.049v2.049h-2.049z M12.293 61.463h12.293v2.049h-12.293z M26.634 61.463h2.049v2.049h-2.049z M32.78 61.463h4.098v2.049h-4.098z M38.927 61.463h4.098v2.049h-4.098z M45.073 61.463h2.049v2.049h-2.049z M51.22 61.463h2.049v2.049h-2.049z M55.317 61.463h4.098v2.049h-4.098z M71.707 61.463h2.049v2.049h-2.049z M77.854 61.463h6.146v2.049h-6.146z M4.098 63.512h4.098v2.049h-4.098z M10.244 63.512h2.049v2.049h-2.049z M14.341 63.512h2.049v2.049h-2.049z M18.439 63.512h10.244v2.049h-10.244z M30.732 63.512h2.049v2.049h-2.049z M34.829 63.512h10.244v2.049h-10.244z M47.122 63.512h2.049v2.049h-2.049z M53.268 63.512h2.049v2.049h-2.049z M59.415 63.512h2.049v2.049h-2.049z M65.561 63.512h4.098v2.049h-4.098z M73.756 63.512h4.098v2.049h-4.098z M0.0 65.561h2.049v2.049h-2.049z M6.146 65.561h2.049v2.049h-2.049z M12.293 65.561h2.049v2.049h-2.049z M22.537 65.561h2.049v2.049h-2.049z M26.634 65.561h2.049v2.049h-2.049z M30.732 65.561h2.049v2.049h-2.049z M38.927 65.561h2.049v2.049h-2.049z M47.122 65.561h2.049v2.049h-2.049z M51.22 65.561h8.195v2.049h-8.195z M63.512 65.561h12.293v2.049h-12.293z M77.854 65.561h2.049v2.049h-2.049z M81.951 65.561h2.049v2.049h-2.049z M16.39 67.61h6.146v2.049h-6.146z M24.585 67.61h4.098v2.049h-4.098z M36.878 67.61h2.049v2.049h-2.049z M43.024 67.61h2.049v2.049h-2.049z M49.171 67.61h2.049v2.049h-2.049z M61.463 67.61h6.146v2.049h-6.146z M73.756 67.61h10.244v2.049h-10.244z M0.0 69.659h14.341v2.049h-14.341z M18.439 69.659h4.098v2.049h-4.098z M24.585 69.659h2.049v2.049h-2.049z M34.829 69.659h2.049v2.049h-2.049z M38.927 69.659h2.049v2.049h-2.049z M57.366 69.659h4.098v2.049h-4.098z M65.561 69.659h2.049v2.049h-2.049z M69.659 69.659h2.049v2.049h-2.049z M73.756 69.659h2.049v2.049h-2.049z M77.854 69.659h4.098v2.049h-4.098z M0.0 71.707h2.049v2.049h-2.049z M12.293 71.707h2.049v2.049h-2.049z M16.39 71.707h2.049v2.049h-2.049z M24.585 71.707h8.195v2.049h-8.195z M34.829 71.707h2.049v2.049h-2.049z M38.927 71.707h8.195v2.049h-8.195z M49.171 71.707h2.049v2.049h-2.049z M53.268 71.707h4.098v2.049h-4.098z M61.463 71.707h2.049v2.049h-2.049z M65.561 71.707h2.049v2.049h-2.049z M73.756 71.707h2.049v2.049h-2.049z M77.854 71.707h2.049v2.049h-2.049z M81.951 71.707h2.049v2.049h-2.049z M0.0 73.756h2.049v2.049h-2.049z M4.098 73.756h6.146v2.049h-6.146z M12.293 73.756h2.049v2.049h-2.049z M18.439 73.756h2.049v2.049h-2.049z M24.585 73.756h2.049v2.049h-2.049z M28.683 73.756h6.146v2.049h-6.146z M38.927 73.756h4.098v2.049h-4.098z M45.073 73.756h2.049v2.049h-2.049z M55.317 73.756h4.098v2.049h-4.098z M61.463 73.756h2.049v2.049h-2.049z M65.561 73.756h12.293v2.049h-12.293z M79.902 73.756h2.049v2.049h-2.049z M0.0 75.805h2.049v2.049h-2.049z M4.098 75.805h6.146v2.049h-6.146z M12.293 75.805h2.049v2.049h-2.049z M16.39 75.805h4.098v2.049h-4.098z M22.537 75.805h2.049v2.049h-2.049z M30.732 75.805h4.098v2.049h-4.098z M38.927 75.805h6.146v2.049h-6.146z M57.366 75.805h4.098v2.049h-4.098z M63.512 75.805h8.195v2.049h-8.195z M73.756 75.805h2.049v2.049h-2.049z M77.854 75.805h2.049v2.049h-2.049z M81.951 75.805h2.049v2.049h-2.049z M0.0 77.854h2.049v2.049h-2.049z M4.098 77.854h6.146v2.049h-6.146z M12.293 77.854h2.049v2.049h-2.049z M18.439 77.854h6.146v2.049h-6.146z M26.634 77.854h4.098v2.049h-4.098z M36.878 77.854h2.049v2.049h-2.049z M40.976 77.854h4.098v2.049h-4.098z M47.122 77.854h8.195v2.049h-8.195z M57.366 77.854h2.049v2.049h-2.049z M61.463 77.854h4.098v2.049h-4.098z M73.756 77.854h2.049v2.049h-2.049z M77.854 77.854h6.146v2.049h-6.146z M0.0 79.902h2.049v2.049h-2.049z M12.293 79.902h2.049v2.049h-2.049z M20.488 79.902h4.098v2.049h-4.098z M26.634 79.902h2.049v2.049h-2.049z M32.78 79.902h6.146v2.049h-6.146z M43.024 79.902h4.098v2.049h-4.098z M51.22 79.902h4.098v2.049h-4.098z M57.366 79.902h12.293v2.049h-12.293z M71.707 79.902h2.049v2.049h-2.049z M79.902 79.902h2.049v2.049h-2.049z M0.0 81.951h14.341v2.049h-14.341z M16.39 81.951h8.195v2.049h-8.195z M26.634 81.951h2.049v2.049h-2.049z M32.78 81.951h2.049v2.049h-2.049z M38.927 81.951h8.195v2.049h-8.195z M49.171 81.951h2.049v2.049h-2.049z M59.415 81.951h2.049v2.049h-2.049z M63.512 81.951h14.341v2.049h-14.341z M79.902 81.951h2.049v2.049h-2.049z"/>
</g>
<text x="1122" y="614" font-family="Inter, Helvetica, Arial, sans-serif" font-size="10" font-weight="700" fill="#F5F7FA" text-anchor="middle">scan / full post</text>
</svg>