<svg xmlns="http://www.w3.org/2000/svg" viewBox="0 0 1200 630">
  <defs>
    <linearGradient id="bg" x1="0%" y1="0%" x2="100%" y2="100%">
      <stop offset="0%" style="stop-color:#0a0a1a"/>
      <stop offset="100%" style="stop-color:#0a0a1e"/>
    </linearGradient>
    <linearGradient id="accentGrad" x1="0%" y1="0%" x2="100%" y2="100%">
      <stop offset="0%" style="stop-color:#3b82f6"/>
      <stop offset="100%" style="stop-color:#06b6d4"/>
    </linearGradient>
    <filter id="glow">
      <feGaussianBlur stdDeviation="4" result="blur"/>
      <feMerge><feMergeNode in="blur"/><feMergeNode in="SourceGraphic"/></feMerge>
    </filter>
    <filter id="softglow">
      <feGaussianBlur stdDeviation="20" result="blur"/>
      <feMerge><feMergeNode in="blur"/><feMergeNode in="SourceGraphic"/></feMerge>
    </filter>
    <filter id="shadow">
      <feDropShadow dx="0" dy="4" stdDeviation="8" flood-color="#000" flood-opacity="0.3"/>
    </filter>
  </defs>

  <!-- Background -->
  <rect width="1200" height="630" fill="url(#bg)"/>

  <!-- Subtle grid -->
  <g opacity="0.04">
    <line x1="60" y1="0" x2="60" y2="630" stroke="#fff" stroke-width="1"/>
    <line x1="120" y1="0" x2="120" y2="630" stroke="#fff" stroke-width="1"/>
    <line x1="180" y1="0" x2="180" y2="630" stroke="#fff" stroke-width="1"/>
    <line x1="240" y1="0" x2="240" y2="630" stroke="#fff" stroke-width="1"/>
    <line x1="960" y1="0" x2="960" y2="630" stroke="#fff" stroke-width="1"/>
    <line x1="1020" y1="0" x2="1020" y2="630" stroke="#fff" stroke-width="1"/>
    <line x1="1080" y1="0" x2="1080" y2="630" stroke="#fff" stroke-width="1"/>
    <line x1="1140" y1="0" x2="1140" y2="630" stroke="#fff" stroke-width="1"/>
  </g>

  <!-- Ambient glow -->
  <circle cx="600" cy="280" r="250" fill="#3b82f6" opacity="0.04" filter="url(#softglow)"/>
  <circle cx="300" cy="180" r="150" fill="#06b6d4" opacity="0.05" filter="url(#softglow)"/>
  <circle cx="900" cy="400" r="180" fill="#3b82f6" opacity="0.03" filter="url(#softglow)"/>

  <!-- Central icon -->
  <g filter="url(#shadow)">

    <g transform="translate(600,240)">
      <circle cx="0" cy="0" r="60" fill="#1e293b" stroke="#3b82f6" stroke-width="2.5"/>
      <circle cx="0" cy="0" r="45" fill="none" stroke="#3b82f6" stroke-width="1" stroke-dasharray="6,3" opacity="0.3"/>
      <circle cx="-15" cy="-10" r="8" fill="#3b82f6" opacity="0.5"/>
      <circle cx="15" cy="-10" r="8" fill="#3b82f6" opacity="0.5"/>
      <path d="M-20,15 Q0,30 20,15" fill="none" stroke="#3b82f6" stroke-width="2" stroke-linecap="round"/>
      <line x1="-60" y1="-30" x2="-95" y2="-55" stroke="#06b6d4" stroke-width="1.5" opacity="0.4"/>
      <circle cx="-100" cy="-60" r="8" fill="#1e293b" stroke="#06b6d4" stroke-width="1.5" opacity="0.5"/>
      <line x1="60" y1="-30" x2="95" y2="-55" stroke="#06b6d4" stroke-width="1.5" opacity="0.4"/>
      <circle cx="100" cy="-60" r="8" fill="#1e293b" stroke="#06b6d4" stroke-width="1.5" opacity="0.5"/>
      <line x1="-55" y1="30" x2="-85" y2="55" stroke="#06b6d4" stroke-width="1.5" opacity="0.4"/>
      <circle cx="-90" cy="60" r="8" fill="#1e293b" stroke="#06b6d4" stroke-width="1.5" opacity="0.5"/>
      <line x1="55" y1="30" x2="85" y2="55" stroke="#06b6d4" stroke-width="1.5" opacity="0.4"/>
      <circle cx="90" cy="60" r="8" fill="#1e293b" stroke="#06b6d4" stroke-width="1.5" opacity="0.5"/>
    </g>
  </g>

  <!-- Theme extras -->

    <g font-family="Courier New" font-size="10" fill="#3b82f6" opacity="0.12">
      <text x="80" y="130">model.predict()</text>
      <text x="950" y="160">tensor.eval()</text>
      <text x="60" y="440">agent.run(task)</text>
      <text x="920" y="430">llm.generate()</text>
    </g>

  <!-- Floating code fragments -->
  <g font-family="Courier New, monospace" font-size="11" opacity="0.12" fill="#3b82f6">
    <text x="50" y="100">agent.execute()</text>
    <text x="950" y="120">model.eval()</text>
    <text x="70" y="480">prompt_inject()</text>
    <text x="920" y="500">guardrail.check()</text>
  </g>

  <!-- Title -->
  <text x="600" y="510" font-family="Arial, sans-serif" font-size="36" font-weight="bold" fill="white" text-anchor="middle" filter="url(#glow)">AI Agent + Patch Tuesday</text>
  <text x="600" y="548" font-family="Arial, sans-serif" font-size="16" fill="#94a3b8" text-anchor="middle">Weekly Digest | Cloud Cost Optimization + Kimwolf Botnet</text>

  <!-- Top badges -->
  <rect x="40" y="25" width="160" height="32" rx="16" fill="#ef4444" opacity="0.2" stroke="#ef4444" stroke-width="1"/>
  <text x="120" y="47" font-family="Arial, sans-serif" font-size="13" font-weight="bold" fill="#ef4444" text-anchor="middle">WEEKLY DIGEST</text>

  <rect x="1000" y="25" width="160" height="32" rx="16" fill="#3b82f6" opacity="0.2" stroke="#3b82f6" stroke-width="1"/>
  <text x="1080" y="47" font-family="Arial, sans-serif" font-size="13" font-weight="bold" fill="#93c5fd" text-anchor="middle">Feb 17, 2026</text>

  <!-- Footer -->
  <text x="1160" y="615" font-family="Arial, sans-serif" font-size="13" fill="#475569" text-anchor="end">tech.2twodragon.com</text>
</svg>