<svg xmlns="http://www.w3.org/2000/svg" viewBox="0 0 1200 630" width="1200" height="630">
  <title>2025 KARA</title>
  <!-- generator: upgrade_post_images.py; profile: high-quality-cover; variant: editorial -->
  <defs>
    <linearGradient id="u7ff59abg" x1="0%" y1="0%" x2="100%" y2="100%">
      <stop offset="0%" style="stop-color:#0f172a"/>
      <stop offset="50%" style="stop-color:#1a0505"/>
      <stop offset="100%" style="stop-color:#0a0f1e"/>
    </linearGradient>
    <linearGradient id="u7ff59aaccent" x1="0%" y1="0%" x2="0%" y2="100%">
      <stop offset="0%" style="stop-color:#ef4444"/>
      <stop offset="100%" style="stop-color:#f97316"/>
    </linearGradient>
    <linearGradient id="u7ff59atitle" x1="0%" y1="0%" x2="100%" y2="0%">
      <stop offset="0%" style="stop-color:#f8fafc"/>
      <stop offset="100%" style="stop-color:#cbd5e1"/>
    </linearGradient>
    <linearGradient id="u7ff59apanel" x1="0%" y1="0%" x2="100%" y2="100%">
      <stop offset="0%" style="stop-color:#020810;stop-opacity:0.85"/>
      <stop offset="100%" style="stop-color:#0a0f1e;stop-opacity:0.75"/>
    </linearGradient>
    <radialGradient id="u7ff59aambientL" cx="20%" cy="50%" r="40%">
      <stop offset="0%" style="stop-color:#ef4444;stop-opacity:0.06"/>
      <stop offset="100%" style="stop-color:#ef4444;stop-opacity:0"/>
    </radialGradient>
    <radialGradient id="u7ff59aambientR" cx="70%" cy="45%" r="35%">
      <stop offset="0%" style="stop-color:#dc2626;stop-opacity:0.08"/>
      <stop offset="100%" style="stop-color:#dc2626;stop-opacity:0"/>
    </radialGradient>
    <filter id="u7ff59aglow" x="-100%" y="-100%" width="300%" height="300%">
      <feDropShadow dx="0" dy="0" stdDeviation="8" flood-color="#dc2626" flood-opacity="0.7"/>
    </filter>
    <filter id="u7ff59ablur" x="-50%" y="-50%" width="200%" height="200%">
      <feGaussianBlur stdDeviation="12"/>
    </filter>
    <filter id="u7ff59atextglow" x="-20%" y="-20%" width="140%" height="140%">
      <feDropShadow dx="0" dy="0" stdDeviation="4" flood-color="#ef4444" flood-opacity="0.5"/>
    </filter>
    <filter id="u7ff59afxGlow" x="-50%" y="-50%" width="200%" height="200%">
      <feGaussianBlur stdDeviation="6" result="b"/>
      <feColorMatrix in="b" type="matrix" values="1.2 0.4 0 0 0 0.5 0.6 0 0 0 0 0 0 0 0 0 0 0 0.85 0" result="g"/>
      <feMerge><feMergeNode in="g"/><feMergeNode in="SourceGraphic"/></feMerge>
    </filter>
    <filter id="u7ff59afxRed" x="-60%" y="-60%" width="220%" height="220%">
      <feGaussianBlur stdDeviation="8" result="b"/>
      <feColorMatrix in="b" type="matrix" values="1.3 0 0 0 0.7 0 0 0 0 0 0 0 0 0 0 0 0 0 0.95 0" result="g"/>
      <feMerge><feMergeNode in="g"/><feMergeNode in="SourceGraphic"/></feMerge>
    </filter>
    <radialGradient id="u7ff59asceneGlow1" cx="75%" cy="30%" r="50%">
      <stop offset="0%" stop-color="#ef4444" stop-opacity="0.15"/>
      <stop offset="100%" stop-color="#ef4444" stop-opacity="0"/>
    </radialGradient>
    <radialGradient id="u7ff59asceneGlow2" cx="60%" cy="70%" r="60%">
      <stop offset="0%" stop-color="#f97316" stop-opacity="0.10"/>
      <stop offset="100%" stop-color="#f97316" stop-opacity="0"/>
    </radialGradient>
    <pattern id="u7ff59adots" x="0" y="0" width="30" height="30" patternUnits="userSpaceOnUse">
      <circle cx="15" cy="15" r="1" fill="#1e293b" opacity="0.7"/>
    </pattern>
    <clipPath id="u7ff59aclip">
      <rect x="1" y="1" width="1198" height="628" rx="8" ry="8"/>
    </clipPath>
    <style>
      @keyframes u7ff59afloatUp { 0%{transform:translateY(0);opacity:0.9} 85%{opacity:0.5} 100%{transform:translateY(-80px);opacity:0} }
      @keyframes u7ff59apulse { 0%,100%{opacity:0.5} 50%{opacity:1} }
      @keyframes u7ff59acrackFx { 0%,100%{stroke-opacity:0.6} 50%{stroke-opacity:1} }
      @keyframes u7ff59aglimmer { 0%{opacity:0.3} 50%{opacity:0.85} 100%{opacity:0.3} }
      @keyframes u7ff59adash { to{stroke-dashoffset:-20} }
      @keyframes u7ff59arotSpin { from{transform:rotate(0deg)} to{transform:rotate(360deg)} }
      .u7ff59afa { animation: u7ff59afloatUp 3.2s ease-in infinite; }
      .u7ff59afb { animation: u7ff59afloatUp 3.8s ease-in infinite; animation-delay:0.9s; }
      .u7ff59afc { animation: u7ff59afloatUp 2.9s ease-in infinite; animation-delay:1.7s; }
      .u7ff59acrack { animation: u7ff59acrackFx 1.9s ease-in-out infinite; }
      .u7ff59ablink { animation: u7ff59apulse 2.2s ease-in-out infinite; }
    </style>
  </defs>

  <!-- BACKGROUND -->
  <rect width="1200" height="630" fill="url(#u7ff59abg)"/>
  <g clip-path="url(#u7ff59aclip)">
    <rect width="1200" height="630" fill="url(#u7ff59adots)" opacity="0.6"/>
    <rect width="1200" height="630" fill="url(#u7ff59aambientL)"/>
    <rect width="1200" height="630" fill="url(#u7ff59aambientR)"/>

    <!-- LEFT PANEL -->
    <rect x="0" y="0" width="370" height="630" fill="url(#u7ff59apanel)"/>
    <rect x="0" y="0" width="4" height="630" fill="url(#u7ff59aaccent)"/>

    <!-- Badge -->
    <rect x="40" y="40" width="160" height="28" rx="4" fill="#7f1d1d" stroke="#dc2626" stroke-width="1.5"/>
    <text x="120" y="58" font-family="Courier New, monospace" font-size="11"
          fill="#fca5a5" text-anchor="middle" letter-spacing="2" font-weight="bold">SECURITY ALERT</text>

    <!-- Date -->
    <text x="40" y="100" font-family="Courier New, monospace" font-size="10"
          fill="#64748b" letter-spacing="1">2026-01-22</text>

    <!-- Title -->
    <text x="40" y="155" font-family="Segoe UI, Arial, sans-serif" font-size="44" fill="url(#u7ff59atitle)" font-weight="700" letter-spacing="-1">2025 KARA</text>

    <!-- Accent divider -->
    <rect x="40" y="173" width="260" height="2" rx="1" fill="url(#u7ff59aaccent)" opacity="0.8"/>

    <!-- Topic bars -->
    <text x="40" y="211" font-family="Segoe UI, Arial, sans-serif" font-size="16" fill="#ef4444" font-weight="600">Ransomware</text>
    <text x="40" y="237" font-family="Segoe UI, Arial, sans-serif" font-size="16" fill="#f97316" font-weight="600">Kara</text>

    <!-- Focus panel -->
    <rect x="40" y="269" width="280" height="88" rx="10" fill="#1a0505" stroke="#ef4444" stroke-width="1" opacity="0.66"/>
    <rect x="40" y="269" width="280" height="18" rx="10" fill="#ef4444" opacity="0.10"/>
    <text x="56" y="282" font-family="Segoe UI, Arial, sans-serif" font-size="10" fill="#fca5a5" font-weight="700" letter-spacing="1">FOCUS</text>
    <text x="56" y="303" font-family="Segoe UI, Arial, sans-serif" font-size="13" fill="#e2e8f0" font-weight="600">Ransomware / Kara</text>
    <text x="56" y="320" font-family="Segoe UI, Arial, sans-serif" font-size="12" fill="#94a3b8">Sk Shieldus / Lockbit</text>
    <rect x="56" y="325" width="88" height="22" rx="11" fill="#0f172a" stroke="#ef4444" stroke-width="1" opacity="0.85"/>
    <text x="100" y="340" font-family="Segoe UI, Arial, sans-serif" font-size="9" fill="#ef4444" text-anchor="middle" font-weight="600">Ransomware</text>
    <rect x="152" y="325" width="70" height="22" rx="11" fill="#0f172a" stroke="#f97316" stroke-width="1" opacity="0.85"/>
    <text x="187" y="340" font-family="Segoe UI, Arial, sans-serif" font-size="9" fill="#f97316" text-anchor="middle" font-weight="600">Kara</text>
    <rect x="230" y="325" width="95" height="22" rx="11" fill="#0f172a" stroke="#dc2626" stroke-width="1" opacity="0.85"/>
    <text x="277" y="340" font-family="Segoe UI, Arial, sans-serif" font-size="9" fill="#dc2626" text-anchor="middle" font-weight="600">Sk Shieldus</text>

    <!-- Tag pills -->
    <rect x="40" y="525" width="96" height="24" rx="12" fill="#7f1d1d" stroke="#ef4444" stroke-width="1.2"/>
    <text x="88" y="541" font-family="Courier New, monospace" font-size="10" fill="#ef4444" text-anchor="middle" font-weight="bold">Ransomware</text>
    <rect x="146" y="525" width="54" height="24" rx="12" fill="#1a0505" stroke="#f97316" stroke-width="1.2"/>
    <text x="173" y="541" font-family="Courier New, monospace" font-size="10" fill="#f97316" text-anchor="middle" font-weight="bold">Kara</text>
    <rect x="210" y="525" width="104" height="24" rx="12" fill="#0f172a" stroke="#dc2626" stroke-width="1.2"/>
    <text x="262" y="541" font-family="Courier New, monospace" font-size="10" fill="#dc2626" text-anchor="middle" font-weight="bold">Sk Shieldus</text>

    <!-- Site URL -->
    <text x="40" y="572" font-family="Courier New, monospace" font-size="10"
          fill="#475569" letter-spacing="0.5">tech.2twodragon.com</text>

    <!-- RIGHT SCENE AREA -->
    <!-- Scene ambient glow overlays -->
    <rect x="380" y="40" width="780" height="550" fill="url(#u7ff59asceneGlow1)" opacity="0.6"/>
    <rect x="380" y="40" width="780" height="550" fill="url(#u7ff59asceneGlow2)" opacity="0.5"/>

    <!-- SCENE: Security Breach -->
    <!-- Shield (broken) -->
    <g filter="url(#u7ff59aglow)">
      <circle cx="600" cy="200" r="55" fill="#0f172a" stroke="#ef4444" stroke-width="2.5" opacity="0.9"/>
      <circle cx="600" cy="200" r="55" fill="#dc2626" opacity="0.08"/>
    </g>
    <path d="M600 165 L625 175 L625 200 Q625 220 600 230 Q575 220 575 200 L575 175 Z"
          fill="none" stroke="#ef4444" stroke-width="2"/>
    <line x1="590" y1="180" x2="610" y2="220" stroke="#f97316" stroke-width="2.5" opacity="0.9"/>
    <line x1="610" y1="180" x2="590" y2="220" stroke="#f97316" stroke-width="2.5" opacity="0.9"/>

    <!-- Threat node 1 - skull warning -->
    <g filter="url(#u7ff59aglow)">
      <circle cx="800" cy="140" r="38" fill="#1a0505" stroke="#ef4444" stroke-width="2"/>
      <circle cx="800" cy="140" r="38" fill="#dc2626" opacity="0.1"/>
    </g>
    <polygon points="800,118 815,142 808,148 800,155 792,148 785,142"
             fill="none" stroke="#ef4444" stroke-width="1.5"/>
    <text x="800" y="140" font-family="Courier New, monospace" font-size="14"
          fill="#ef4444" text-anchor="middle" font-weight="bold">!</text>
    <text x="800" y="170" font-family="Courier New, monospace" font-size="8"
          fill="#fca5a5" text-anchor="middle" opacity="0.8">THREAT</text>

    <!-- Threat node 2 - lock -->
    <g filter="url(#u7ff59aglow)">
      <circle cx="950" cy="280" r="35" fill="#1a0505" stroke="#dc2626" stroke-width="2"/>
    </g>
    <rect x="937" y="278" width="26" height="20" rx="3" fill="none" stroke="#f97316" stroke-width="1.5"/>
    <path d="M943 278 L943 270 Q943 262 950 262 Q957 262 957 270 L957 278"
          fill="none" stroke="#f97316" stroke-width="1.5"/>
    <circle cx="950" cy="289" r="2.5" fill="#f97316"/>
    <text x="950" y="308" font-family="Courier New, monospace" font-size="8"
          fill="#fca5a5" text-anchor="middle" opacity="0.8">LOCK</text>

    <!-- Threat node 3 - exploit -->
    <g filter="url(#u7ff59aglow)">
      <circle cx="750" cy="430" r="35" fill="#1a0505" stroke="#ef4444" stroke-width="2"/>
    </g>
    <polygon points="750,412 765,440 735,440" fill="none" stroke="#ef4444" stroke-width="1.8"/>
    <text x="750" y="434" font-family="Courier New, monospace" font-size="12"
          fill="#ef4444" text-anchor="middle" font-weight="bold">!</text>
    <text x="750" y="460" font-family="Courier New, monospace" font-size="8"
          fill="#fca5a5" text-anchor="middle" opacity="0.8">EXPLOIT</text>

    <!-- Connection lines -->
    <line x1="650" y1="190" x2="765" y2="148" stroke="#ef4444" stroke-width="1.5"
          opacity="0.4" stroke-dasharray="4 4" style="animation: u7ff59adash 2s linear infinite"/>
    <line x1="650" y1="210" x2="918" y2="272" stroke="#dc2626" stroke-width="1.5"
          opacity="0.35" stroke-dasharray="4 4"/>
    <line x1="620" y1="248" x2="722" y2="418" stroke="#ef4444" stroke-width="1.5"
          opacity="0.3" stroke-dasharray="4 4"/>
    <path d="M 800 175 Q 870 220 950 248" fill="none" stroke="#ef4444"
          stroke-width="1" opacity="0.25" stroke-dasharray="3 5"/>
    <path d="M 920 305 Q 850 370 780 420" fill="none" stroke="#dc2626"
          stroke-width="1" opacity="0.25" stroke-dasharray="3 5"/>

    <!-- Alert badge -->
    <rect x="560" y="340" width="110" height="30" rx="5" fill="#7f1d1d" stroke="#ef4444" stroke-width="1.5"/>
    <text x="615" y="360" font-family="Courier New, monospace" font-size="11"
          fill="#fca5a5" text-anchor="middle" font-weight="bold" letter-spacing="1">CRITICAL</text>

    <!-- Pulsing ring -->
    <circle cx="600" cy="200" r="70" fill="none" stroke="#ef4444" stroke-width="1"
            opacity="0.3" style="animation: u7ff59apulse 3s ease-in-out infinite"/>
    <circle cx="800" cy="140" r="50" fill="none" stroke="#ef4444" stroke-width="0.8"
            opacity="0.2" style="animation: u7ff59apulse 4s ease-in-out infinite"/>

    <!-- Cracked shield detail -->
    <path d="M600 170 L600 230" stroke="#f97316" stroke-width="1.5" opacity="0.6" stroke-dasharray="3 2"/>
    <path d="M585 195 L615 205" stroke="#f97316" stroke-width="1" opacity="0.5"/>

    <!-- Broken padlock -->
    <g transform="translate(680,430)">
      <rect x="-12" y="0" width="24" height="18" rx="3" fill="none" stroke="#ef4444" stroke-width="1.5"/>
      <path d="M-6 0 L-6 -8 Q-6 -16 0 -16 Q6 -16 6 -8 L6 -4" fill="none" stroke="#ef4444" stroke-width="1.5"/>
      <line x1="6" y1="-8" x2="10" y2="-12" stroke="#f97316" stroke-width="1.5" opacity="0.8"/>
      <circle cx="0" cy="9" r="2" fill="#ef4444" opacity="0.7"/>
    </g>
    <text x="680" y="460" font-family="Courier New, monospace" font-size="7"
          fill="#fca5a5" text-anchor="middle" opacity="0.7">BREACH</text>

    <!-- Attack flow arrows with dashed lines -->
    <path d="M 830 160 Q 870 180 880 220" fill="none" stroke="#ef4444"
          stroke-width="1.2" opacity="0.35" stroke-dasharray="5 3" style="animation: u7ff59adash 2.5s linear infinite"/>
    <polygon points="878,215 885,222 875,220" fill="#ef4444" opacity="0.35"/>
    <path d="M 780 445 Q 830 460 870 440" fill="none" stroke="#dc2626"
          stroke-width="1" opacity="0.3" stroke-dasharray="4 3"/>
    <polygon points="867,443 875,438 870,447" fill="#dc2626" opacity="0.3"/>

    <!-- Skull warning icon -->
    <g transform="translate(520,440)" filter="url(#u7ff59afxRed)">
      <circle cx="0" cy="0" r="18" fill="#1a0505" stroke="#ef4444" stroke-width="1.2" opacity="0.8"/>
      <circle cx="-5" cy="-3" r="2.5" fill="#ef4444" opacity="0.7"/>
      <circle cx="5" cy="-3" r="2.5" fill="#ef4444" opacity="0.7"/>
      <path d="M-4 6 L-2 4 L0 6 L2 4 L4 6" fill="none" stroke="#ef4444" stroke-width="1" opacity="0.6"/>
    </g>
    <text x="520" y="468" font-family="Courier New, monospace" font-size="6"
          fill="#fca5a5" text-anchor="middle" opacity="0.6">MALWARE</text>

    <!-- ALERT badge -->
    <rect x="850" y="390" width="80" height="24" rx="4" fill="#ef4444" opacity="0.15"
          stroke="#ef4444" stroke-width="1.2"/>
    <text x="890" y="406" font-family="Courier New, monospace" font-size="10"
          fill="#ef4444" text-anchor="middle" font-weight="bold" class="u7ff59ablink">ALERT</text>

    <!-- CVE reference label -->
    <rect x="560" y="260" width="100" height="18" rx="3" fill="#1a0505" stroke="#dc2626" stroke-width="0.8" opacity="0.6"/>
    <text x="610" y="273" font-family="Courier New, monospace" font-size="7"
          fill="#dc2626" text-anchor="middle" opacity="0.7">CVE-2025-XXXX</text>

    <!-- Ambient glow -->
    <ellipse cx="750" cy="280" rx="250" ry="200" fill="#dc2626" opacity="0.04"/>

    <!-- COMMON DECORATIONS -->

    <defs>
      <pattern id="u7ff59amesh" x="0" y="0" width="28" height="28" patternUnits="userSpaceOnUse">
        <path d="M 0 14 L 14 0 L 28 14 L 14 28 Z" fill="none" stroke="#ef4444"
              stroke-width="0.35" opacity="0.12"/>
      </pattern>
    </defs>
    <rect x="380" y="40" width="780" height="550" fill="url(#u7ff59amesh)" opacity="0.25"/>
    <circle cx="720" cy="315" r="228" fill="none" stroke="#ef4444" stroke-width="0.55"
            stroke-dasharray="6 9" opacity="0.16"/>
    <circle cx="720" cy="315" r="182" fill="none" stroke="#f97316" stroke-width="0.45"
            stroke-dasharray="3 7" opacity="0.11"/>
    <circle cx="720" cy="315" r="266" fill="none" stroke="#dc2626" stroke-width="0.35"
            stroke-dasharray="10 12" opacity="0.08"/>
    <line x1="390" y1="70" x2="1150" y2="70" stroke="#ef4444" stroke-width="0.6" opacity="0.10"/>
    <line x1="390" y1="560" x2="1150" y2="560" stroke="#f97316" stroke-width="0.6" opacity="0.08"/>
    <line x1="420" y1="120" x2="1080" y2="500" stroke="#ef4444" stroke-width="0.35" opacity="0.08"/>
    <line x1="1080" y1="120" x2="420" y2="500" stroke="#f97316" stroke-width="0.35" opacity="0.06"/>
    <polyline points="392,56 392,46 404,46" fill="none" stroke="#ef4444" stroke-width="1.5" opacity="0.35"/>
    <polyline points="1148,46 1160,46 1160,58" fill="none" stroke="#ef4444" stroke-width="1.5" opacity="0.35"/>
    <polyline points="392,574 392,584 404,584" fill="none" stroke="#f97316" stroke-width="1.5" opacity="0.30"/>
    <polyline points="1148,584 1160,584 1160,572" fill="none" stroke="#f97316" stroke-width="1.5" opacity="0.30"/>
    <ellipse cx="720" cy="315" rx="275" ry="210" fill="#dc2626" opacity="0.03"/>
    <circle cx="430" cy="110" r="3" fill="#ef4444" opacity="0.22"/>
    <circle cx="1120" cy="160" r="2.5" fill="#f97316" opacity="0.24"/>
    <circle cx="470" cy="540" r="3" fill="#dc2626" opacity="0.20"/>
    <circle cx="1080" cy="530" r="2.5" fill="#ef4444" opacity="0.20"/>
    
    <rect x="432" y="96" width="660" height="370" rx="24" fill="#0f172a" opacity="0.12"/>
    <rect x="452" y="116" width="620" height="330" rx="20" fill="#1a0505" opacity="0.09"/>
    <path d="M 450 490 Q 700 430 1080 520" fill="none" stroke="#ef4444" stroke-width="1.0" opacity="0.14"/>
    <rect x="470" y="118" width="430" height="84" rx="16" fill="#0f172a" stroke="#ef4444" stroke-width="1.1" opacity="0.76"/><line x1="488" y1="146" x2="882" y2="146" stroke="#ef4444" stroke-width="0.8" opacity="0.25"/><text x="490" y="142" font-family="Segoe UI, Arial, sans-serif" font-size="10" fill="#ef4444" font-weight="700">Ransomware</text><text x="490" y="170" font-family="Segoe UI, Arial, sans-serif" font-size="18" fill="#e2e8f0" font-weight="700">Kara</text><text x="490" y="187" font-family="Segoe UI, Arial, sans-serif" font-size="8.5" fill="#94a3b8">high-context cover</text>
    <rect x="548" y="240" width="392" height="82" rx="16" fill="#0f172a" stroke="#f97316" stroke-width="1.1" opacity="0.76"/><line x1="566" y1="268" x2="922" y2="268" stroke="#f97316" stroke-width="0.8" opacity="0.25"/><text x="568" y="264" font-family="Segoe UI, Arial, sans-serif" font-size="10" fill="#f97316" font-weight="700">Sk Shieldus</text><text x="568" y="292" font-family="Segoe UI, Arial, sans-serif" font-size="18" fill="#e2e8f0" font-weight="700">Lockbit</text><text x="568" y="309" font-family="Segoe UI, Arial, sans-serif" font-size="8.5" fill="#94a3b8">high-context cover</text>
    <rect x="620" y="360" width="340" height="78" rx="16" fill="#0f172a" stroke="#dc2626" stroke-width="1.1" opacity="0.76"/><line x1="638" y1="388" x2="942" y2="388" stroke="#dc2626" stroke-width="0.8" opacity="0.25"/><text x="640" y="384" font-family="Segoe UI, Arial, sans-serif" font-size="10" fill="#dc2626" font-weight="700">Kara</text><text x="640" y="412" font-family="Segoe UI, Arial, sans-serif" font-size="18" fill="#e2e8f0" font-weight="700">Ransomware</text><text x="640" y="429" font-family="Segoe UI, Arial, sans-serif" font-size="8.5" fill="#94a3b8">high-context cover</text>
    <!-- FLOATING PARTICLES -->
    <circle cx="150" cy="100" r="2.5" fill="#ef4444" opacity="0.5">
      <animate attributeName="opacity" values="0.5;0.15;0.5" dur="3.0s" repeatCount="indefinite"/>
    </circle>
    <circle cx="1060" cy="150" r="2.0" fill="#f97316" opacity="0.4">
      <animate attributeName="opacity" values="0.4;0.12;0.4" dur="2.8s" repeatCount="indefinite"/>
    </circle>
    <circle cx="100" cy="480" r="2.5" fill="#ef4444" opacity="0.4">
      <animate attributeName="opacity" values="0.4;0.12;0.4" dur="3.5s" repeatCount="indefinite"/>
    </circle>
    <circle cx="1100" cy="520" r="2.0" fill="#dc2626" opacity="0.5">
      <animate attributeName="opacity" values="0.5;0.15;0.5" dur="4.0s" repeatCount="indefinite"/>
    </circle>
    <circle cx="180" cy="560" r="1.5" fill="#f97316" opacity="0.35">
      <animate attributeName="opacity" values="0.35;0.10;0.35" dur="3.2s" repeatCount="indefinite"/>
    </circle>
    <circle cx="1030" cy="80" r="2.0" fill="#ef4444" opacity="0.4">
      <animate attributeName="opacity" values="0.4;0.12;0.4" dur="2.5s" repeatCount="indefinite"/>
    </circle>

    <!-- DATA STREAMS -->
    <line x1="50" y1="200" x2="120" y2="200" stroke="#ef4444" stroke-width="1" opacity="0.15"/>
    <line x1="50" y1="215" x2="95" y2="215" stroke="#ef4444" stroke-width="1" opacity="0.1"/>
    <line x1="1080" y1="400" x2="1150" y2="400" stroke="#dc2626" stroke-width="1" opacity="0.15"/>
    <line x1="1095" y1="415" x2="1150" y2="415" stroke="#dc2626" stroke-width="1" opacity="0.1"/>

    <!-- CRT scan line -->
    <rect width="1200" height="2" x="0" y="0" fill="#ef4444" opacity="0">
      <animate attributeName="y" values="-2;632" dur="6s" repeatCount="indefinite"/>
      <animate attributeName="opacity" values="0;0.03;0.03;0" dur="6s" repeatCount="indefinite" keyTimes="0;0.1;0.9;1"/>
    </rect>
  </g>

  <!-- FOOTER -->
  <line x1="40" y1="608" x2="1160" y2="608" stroke="#1e293b" stroke-width="1"/>
  <text x="1160" y="622" font-family="Courier New, monospace" font-size="11"
        fill="#475569" text-anchor="end" letter-spacing="0.5">tech.2twodragon.com</text>

  <!-- BORDER -->
  <rect x="0.5" y="0.5" width="1199" height="629" rx="8" ry="8" fill="none" stroke="#1e293b" stroke-width="1"/>
  <!-- Corner accents -->
  <polyline points="0,25 0,0 25,0" fill="none" stroke="#dc2626" stroke-width="2" opacity="0.6"/>
  <polyline points="1175,0 1200,0 1200,25" fill="none" stroke="#dc2626" stroke-width="2" opacity="0.6"/>
  <polyline points="0,605 0,630 25,630" fill="none" stroke="#f97316" stroke-width="2" opacity="0.5"/>
  <polyline points="1175,630 1200,630 1200,605" fill="none" stroke="#f97316" stroke-width="2" opacity="0.5"/>
</svg>
