<svg xmlns="http://www.w3.org/2000/svg" width="1200" height="630" viewBox="0 0 1200 630">
  <title>Security Weekly Digest - February 02, 2026</title>
  <defs>
    <linearGradient id="bg" x1="0%" y1="0%" x2="100%" y2="100%">
      <stop offset="0%" stop-color="#0a0e1a"/>
      <stop offset="60%" stop-color="#0f1628"/>
      <stop offset="100%" stop-color="#141b2d"/>
    </linearGradient>
    <linearGradient id="hg" x1="0%" y1="0%" x2="100%" y2="0%">
      <stop offset="0%" stop-color="#1e293b"/>
      <stop offset="100%" stop-color="#0f172a"/>
    </linearGradient>
    <filter id="glow" x="-50%" y="-50%" width="200%" height="200%">
      <feGaussianBlur stdDeviation="18"/>
    </filter>
    <marker id="ar" markerWidth="8" markerHeight="8" refX="4" refY="4" orient="auto">
      <path d="M0,0 L8,4 L0,8 Z" fill="#ef4444" opacity="0.7"/>
    </marker>
  </defs>

  <rect width="1200" height="630" fill="url(#bg)"/>

  <!-- Grid -->
  <g opacity="0.04" stroke="#94a3b8" stroke-width="0.5">
    <line x1="0" y1="105" x2="1200" y2="105"/><line x1="0" y1="210" x2="1200" y2="210"/>
    <line x1="0" y1="315" x2="1200" y2="315"/><line x1="0" y1="420" x2="1200" y2="420"/>
    <line x1="0" y1="525" x2="1200" y2="525"/>
    <line x1="240" y1="0" x2="240" y2="630"/><line x1="480" y1="0" x2="480" y2="630"/>
    <line x1="720" y1="0" x2="720" y2="630"/><line x1="960" y1="0" x2="960" y2="630"/>
  </g>

  <!-- Glow orbs -->
  <circle cx="200" cy="300" r="200" fill="#ef4444" opacity="0.06" filter="url(#glow)"/>
  <circle cx="600" cy="350" r="180" fill="#f59e0b" opacity="0.05" filter="url(#glow)"/>
  <circle cx="1000" cy="300" r="180" fill="#3b82f6" opacity="0.06" filter="url(#glow)"/>

  <!-- Header -->
  <rect x="0" y="0" width="1200" height="80" fill="url(#hg)" opacity="0.9"/>
  <rect x="0" y="78" width="1200" height="2" fill="#334155" opacity="0.8"/>
  <g transform="translate(48,40)">
    <path d="M0,-22 L18,-12 L18,3 C18,13 10,20 0,24 C-10,20 -18,13 -18,3 L-18,-12 Z" fill="#1e3a5f" stroke="#3b82f6" stroke-width="1.5"/>
    <path d="M-7,1 L-2,6 L8,-5" stroke="#3b82f6" stroke-width="2.5" fill="none" stroke-linecap="round"/>
  </g>
  <text x="80" y="44" font-family="Arial,sans-serif" font-size="28" font-weight="700" fill="#f1f5f9">Security Weekly Digest</text>
  <rect x="990" y="18" width="178" height="44" rx="6" fill="#1e293b" stroke="#334155" stroke-width="1"/>
  <text x="1079" y="48" font-family="Arial,sans-serif" font-size="15" font-weight="700" fill="#94a3b8" text-anchor="middle">February 02, 2026</text>

  <!-- Card 1: SUPPLY CHAIN -->
  <rect x="32" y="100" width="220" height="120" rx="8" fill="#1a0505" stroke="#ef4444" stroke-width="1.5"/>
  <circle cx="52" cy="120" r="6" fill="#ef4444"/>
  <g transform="translate(142,148)">
    <circle cx="-12" cy="-8" r="4" fill="none" stroke="#ef4444" stroke-width="1.5"/><circle cx="12" cy="-8" r="4" fill="none" stroke="#ef4444" stroke-width="1.5"/><circle cx="0" cy="8" r="5" fill="none" stroke="#ef4444" stroke-width="1.8"/><line x1="-8" y1="-6" x2="-2" y2="6" stroke="#ef4444" stroke-width="1.2" opacity="0.7"/><line x1="8" y1="-6" x2="2" y2="6" stroke="#ef4444" stroke-width="1.2" opacity="0.7"/><line x1="-8" y1="-8" x2="8" y2="-8" stroke="#ef4444" stroke-width="1.2" opacity="0.5"/>
  </g>
  <text x="142" y="197" font-family="Arial,sans-serif" font-size="13" font-weight="700" fill="#ef4444" text-anchor="middle">SUPPLY CHAIN</text>
  <!-- Card 2: SEC OPS -->
  <rect x="268" y="100" width="220" height="120" rx="8" fill="#1a0d0d" stroke="#f59e0b" stroke-width="1.5"/>
  <circle cx="288" cy="120" r="6" fill="#f59e0b"/>
  <g transform="translate(378,148)">
    <path d="M0,-16 L14,-8 L14,4 C14,12 8,16 0,20 C-8,16 -14,12 -14,4 L-14,-8 Z" fill="none" stroke="#f59e0b" stroke-width="1.8"/>
  </g>
  <text x="378" y="197" font-family="Arial,sans-serif" font-size="13" font-weight="700" fill="#f59e0b" text-anchor="middle">SEC OPS</text>
  <!-- Card 3: AI AGENT -->
  <rect x="504" y="100" width="220" height="120" rx="8" fill="#0a1020" stroke="#3b82f6" stroke-width="1.5"/>
  <circle cx="524" cy="120" r="6" fill="#3b82f6"/>
  <g transform="translate(614,148)">
    <circle cx="-12" cy="-8" r="4" fill="none" stroke="#3b82f6" stroke-width="1.5"/><circle cx="12" cy="-8" r="4" fill="none" stroke="#3b82f6" stroke-width="1.5"/><circle cx="0" cy="8" r="5" fill="none" stroke="#3b82f6" stroke-width="1.8"/><line x1="-8" y1="-6" x2="-2" y2="6" stroke="#3b82f6" stroke-width="1.2" opacity="0.7"/><line x1="8" y1="-6" x2="2" y2="6" stroke="#3b82f6" stroke-width="1.2" opacity="0.7"/><line x1="-8" y1="-8" x2="8" y2="-8" stroke="#3b82f6" stroke-width="1.2" opacity="0.5"/>
  </g>
  <text x="614" y="197" font-family="Arial,sans-serif" font-size="13" font-weight="700" fill="#3b82f6" text-anchor="middle">AI AGENT</text>
  <!-- Card 4: THREAT INT -->
  <rect x="740" y="100" width="200" height="120" rx="8" fill="#071a10" stroke="#22c55e" stroke-width="1.5"/>
  <circle cx="760" cy="120" r="6" fill="#22c55e"/>
  <g transform="translate(840,148)">
    <path d="M0,-16 L14,-8 L14,4 C14,12 8,16 0,20 C-8,16 -14,12 -14,4 L-14,-8 Z" fill="none" stroke="#22c55e" stroke-width="1.8"/>
  </g>
  <text x="840" y="197" font-family="Arial,sans-serif" font-size="13" font-weight="700" fill="#22c55e" text-anchor="middle">THREAT INT</text>
  <!-- Card 5: CLOUD SEC -->
  <rect x="956" y="100" width="212" height="120" rx="8" fill="#071a20" stroke="#22d3ee" stroke-width="1.5"/>
  <circle cx="976" cy="120" r="6" fill="#22d3ee"/>
  <g transform="translate(1062,148)">
    <path d="M-16,8 C-24,8 -26,-2 -20,-8 C-18,-18 -6,-22 4,-18 C8,-26 20,-26 24,-16 C30,-16 32,-8 28,0 C26,8 16,8 8,8 Z" fill="none" stroke="#22d3ee" stroke-width="1.8" transform="scale(0.65)"/>
  </g>
  <text x="1062" y="197" font-family="Arial,sans-serif" font-size="13" font-weight="700" fill="#22d3ee" text-anchor="middle">CLOUD SEC</text>

  <!-- Threat map area -->
  <rect x="32" y="240" width="1136" height="220" rx="10" fill="#0c1220" stroke="#1e293b" stroke-width="1"/>

  <!-- Ambient dots -->
  <g opacity="0.25">
    <circle cx="180" cy="330" r="2" fill="#94a3b8"/><circle cx="200" cy="340" r="2" fill="#94a3b8"/>
    <circle cx="550" cy="310" r="2" fill="#94a3b8"/><circle cx="570" cy="325" r="2" fill="#94a3b8"/>
    <circle cx="750" cy="320" r="2" fill="#94a3b8"/><circle cx="900" cy="330" r="2" fill="#94a3b8"/>
    <circle cx="350" cy="350" r="2" fill="#94a3b8"/><circle cx="1000" cy="340" r="2" fill="#94a3b8"/>
  </g>
  <!-- Node: SUPPLY CHAIN -->
  <circle cx="170" cy="340" r="22" fill="#1a0505" stroke="#ef4444" stroke-width="2"/>
  <text x="170" y="344" font-family="Arial,sans-serif" font-size="9" font-weight="700" fill="#ef4444" text-anchor="middle">SCM</text>
  <!-- Node: SEC OPS -->
  <circle cx="370" cy="350" r="20" fill="#1a0d0d" stroke="#f59e0b" stroke-width="2"/>
  <text x="370" y="354" font-family="Arial,sans-serif" font-size="9" font-weight="700" fill="#f59e0b" text-anchor="middle">SEC</text>
  <!-- Node: AI AGENT -->
  <circle cx="580" cy="330" r="22" fill="#0a1020" stroke="#3b82f6" stroke-width="2"/>
  <text x="580" y="334" font-family="Arial,sans-serif" font-size="9" font-weight="700" fill="#3b82f6" text-anchor="middle">AI</text>
  <!-- Node: THREAT INT -->
  <circle cx="780" cy="355" r="18" fill="#071a10" stroke="#22c55e" stroke-width="2"/>
  <text x="780" y="359" font-family="Arial,sans-serif" font-size="9" font-weight="700" fill="#22c55e" text-anchor="middle">THRE</text>
  <!-- Node: CLOUD SEC -->
  <circle cx="980" cy="340" r="22" fill="#071a20" stroke="#22d3ee" stroke-width="2"/>
  <text x="980" y="344" font-family="Arial,sans-serif" font-size="9" font-weight="700" fill="#22d3ee" text-anchor="middle">CLOU</text>
  <line x1="192" y1="340" x2="350" y2="350" stroke="#ef4444" stroke-width="1.5" stroke-dasharray="10 6" opacity="0.6" marker-end="url(#ar)"/>
  <line x1="390" y1="350" x2="558" y2="330" stroke="#f59e0b" stroke-width="1.5" stroke-dasharray="10 6" opacity="0.6" marker-end="url(#ar)"/>
  <line x1="602" y1="330" x2="762" y2="355" stroke="#3b82f6" stroke-width="1.5" stroke-dasharray="10 6" opacity="0.6" marker-end="url(#ar)"/>
  <line x1="798" y1="355" x2="958" y2="340" stroke="#22c55e" stroke-width="1.5" stroke-dasharray="10 6" opacity="0.6" marker-end="url(#ar)"/>

  <!-- Footer -->
  <rect x="0" y="472" width="1200" height="158" fill="#080c18" opacity="0.95"/>
  <rect x="0" y="472" width="1200" height="2" fill="#1e293b"/>

  <!-- Tags -->
  <rect x="32" y="490" width="128" height="24" rx="4" fill="#1a0505" stroke="#ef4444" stroke-width="1"/>
  <text x="96" y="506" font-family="Arial,sans-serif" font-size="10" font-weight="700" fill="#ef4444" text-anchor="middle">SUPPLY CHAIN</text>
  <rect x="172" y="490" width="83" height="24" rx="4" fill="#1a0d0d" stroke="#f59e0b" stroke-width="1"/>
  <text x="213" y="506" font-family="Arial,sans-serif" font-size="10" font-weight="700" fill="#f59e0b" text-anchor="middle">SEC OPS</text>
  <rect x="267" y="490" width="92" height="24" rx="4" fill="#0a1020" stroke="#3b82f6" stroke-width="1"/>
  <text x="313" y="506" font-family="Arial,sans-serif" font-size="10" font-weight="700" fill="#3b82f6" text-anchor="middle">AI AGENT</text>
  <rect x="371" y="490" width="110" height="24" rx="4" fill="#071a10" stroke="#22c55e" stroke-width="1"/>
  <text x="426" y="506" font-family="Arial,sans-serif" font-size="10" font-weight="700" fill="#22c55e" text-anchor="middle">THREAT INT</text>
  <rect x="493" y="490" width="101" height="24" rx="4" fill="#071a20" stroke="#22d3ee" stroke-width="1"/>
  <text x="543" y="506" font-family="Arial,sans-serif" font-size="10" font-weight="700" fill="#22d3ee" text-anchor="middle">CLOUD SEC</text>

  <!-- Bottom bar -->
  <circle cx="32" cy="545" r="4" fill="#ef4444" opacity="0.6"/>
  <text x="46" y="550" font-family="Arial,sans-serif" font-size="12" fill="#475569">Security Weekly Digest | February 02, 2026</text>
  <text x="1168" y="550" font-family="Arial,sans-serif" font-size="12" fill="#475569" text-anchor="end">tech.2twodragon.com</text>
<!-- cover-qr: https://tech.2twodragon.com/posts/2026/02/02/Weekly_Security_Threat_Intelligence_Digest/ : 41x41 -->
<g transform="translate(1080,504)">
  <rect x="-8" y="-8" width="100" height="100" rx="6" fill="#FFFFFF"/>
  <g transform="scale(2.048780)" fill="#0A1020">
    <path d="M0 0h7v1h-7zM14 0h3v1h-3zM18 0h3v1h-3zM23 0h1v1h-1zM26 0h7v1h-7zM34 0h7v1h-7zM0 1h1v1h-1zM6 1h1v1h-1zM11 1h1v1h-1zM14 1h2v1h-2zM18 1h1v1h-1zM20 1h1v1h-1zM22 1h1v1h-1zM27 1h1v1h-1zM29 1h1v1h-1zM34 1h1v1h-1zM40 1h1v1h-1zM0 2h1v1h-1zM2 2h3v1h-3zM6 2h1v1h-1zM8 2h2v1h-2zM13 2h1v1h-1zM20 2h1v1h-1zM26 2h5v1h-5zM32 2h1v1h-1zM34 2h1v1h-1zM36 2h3v1h-3zM40 2h1v1h-1zM0 3h1v1h-1zM2 3h3v1h-3zM6 3h1v1h-1zM8 3h2v1h-2zM11 3h1v1h-1zM14 3h2v1h-2zM18 3h1v1h-1zM20 3h3v1h-3zM27 3h2v1h-2zM32 3h1v1h-1zM34 3h1v1h-1zM36 3h3v1h-3zM40 3h1v1h-1zM0 4h1v1h-1zM2 4h3v1h-3zM6 4h1v1h-1zM8 4h4v1h-4zM17 4h1v1h-1zM19 4h3v1h-3zM26 4h1v1h-1zM30 4h2v1h-2zM34 4h1v1h-1zM36 4h3v1h-3zM40 4h1v1h-1zM0 5h1v1h-1zM6 5h1v1h-1zM8 5h2v1h-2zM11 5h1v1h-1zM14 5h2v1h-2zM17 5h1v1h-1zM25 5h1v1h-1zM27 5h1v1h-1zM34 5h1v1h-1zM40 5h1v1h-1zM0 6h7v1h-7zM8 6h1v1h-1zM10 6h1v1h-1zM12 6h1v1h-1zM14 6h1v1h-1zM16 6h1v1h-1zM18 6h1v1h-1zM20 6h1v1h-1zM22 6h1v1h-1zM24 6h1v1h-1zM26 6h1v1h-1zM28 6h1v1h-1zM30 6h1v1h-1zM32 6h1v1h-1zM34 6h7v1h-7zM8 7h1v1h-1zM11 7h5v1h-5zM18 7h1v1h-1zM20 7h2v1h-2zM23 7h1v1h-1zM27 7h1v1h-1zM30 7h2v1h-2zM0 8h1v1h-1zM2 8h5v1h-5zM10 8h2v1h-2zM13 8h1v1h-1zM15 8h3v1h-3zM19 8h1v1h-1zM22 8h2v1h-2zM25 8h5v1h-5zM32 8h1v1h-1zM34 8h5v1h-5zM0 9h2v1h-2zM7 9h2v1h-2zM10 9h1v1h-1zM12 9h3v1h-3zM16 9h4v1h-4zM21 9h1v1h-1zM23 9h1v1h-1zM26 9h1v1h-1zM30 9h3v1h-3zM34 9h3v1h-3zM38 9h2v1h-2zM3 10h1v1h-1zM5 10h2v1h-2zM8 10h1v1h-1zM10 10h3v1h-3zM15 10h1v1h-1zM18 10h1v1h-1zM22 10h1v1h-1zM24 10h2v1h-2zM27 10h1v1h-1zM30 10h1v1h-1zM32 10h1v1h-1zM35 10h2v1h-2zM0 11h1v1h-1zM2 11h3v1h-3zM10 11h1v1h-1zM12 11h1v1h-1zM15 11h1v1h-1zM19 11h4v1h-4zM28 11h1v1h-1zM30 11h3v1h-3zM37 11h1v1h-1zM40 11h1v1h-1zM0 12h4v1h-4zM6 12h6v1h-6zM13 12h2v1h-2zM19 12h1v1h-1zM22 12h1v1h-1zM25 12h1v1h-1zM29 12h3v1h-3zM35 12h1v1h-1zM37 12h2v1h-2zM40 12h1v1h-1zM3 13h1v1h-1zM7 13h2v1h-2zM10 13h1v1h-1zM14 13h2v1h-2zM17 13h1v1h-1zM20 13h1v1h-1zM24 13h2v1h-2zM27 13h3v1h-3zM34 13h7v1h-7zM0 14h1v1h-1zM3 14h2v1h-2zM6 14h2v1h-2zM11 14h1v1h-1zM14 14h1v1h-1zM17 14h1v1h-1zM19 14h1v1h-1zM21 14h2v1h-2zM25 14h2v1h-2zM30 14h1v1h-1zM32 14h2v1h-2zM35 14h1v1h-1zM37 14h2v1h-2zM1 15h1v1h-1zM3 15h2v1h-2zM8 15h4v1h-4zM14 15h2v1h-2zM18 15h4v1h-4zM24 15h1v1h-1zM26 15h1v1h-1zM28 15h1v1h-1zM30 15h3v1h-3zM34 15h1v1h-1zM36 15h2v1h-2zM0 16h1v1h-1zM2 16h2v1h-2zM6 16h5v1h-5zM12 16h1v1h-1zM15 16h3v1h-3zM19 16h1v1h-1zM22 16h1v1h-1zM24 16h1v1h-1zM26 16h1v1h-1zM28 16h2v1h-2zM31 16h3v1h-3zM35 16h1v1h-1zM37 16h2v1h-2zM1 17h1v1h-1zM3 17h1v1h-1zM7 17h1v1h-1zM9 17h1v1h-1zM11 17h11v1h-11zM23 17h1v1h-1zM25 17h1v1h-1zM28 17h1v1h-1zM32 17h1v1h-1zM34 17h3v1h-3zM39 17h2v1h-2zM1 18h1v1h-1zM3 18h2v1h-2zM6 18h2v1h-2zM14 18h1v1h-1zM16 18h2v1h-2zM20 18h2v1h-2zM24 18h5v1h-5zM30 18h1v1h-1zM32 18h1v1h-1zM36 18h4v1h-4zM2 19h2v1h-2zM5 19h1v1h-1zM7 19h1v1h-1zM9 19h1v1h-1zM11 19h2v1h-2zM14 19h9v1h-9zM25 19h1v1h-1zM27 19h1v1h-1zM31 19h3v1h-3zM36 19h2v1h-2zM1 20h6v1h-6zM8 20h1v1h-1zM12 20h5v1h-5zM21 20h1v1h-1zM24 20h1v1h-1zM26 20h3v1h-3zM30 20h3v1h-3zM37 20h2v1h-2zM40 20h1v1h-1zM0 21h4v1h-4zM5 21h1v1h-1zM8 21h3v1h-3zM16 21h1v1h-1zM18 21h7v1h-7zM31 21h1v1h-1zM34 21h4v1h-4zM39 21h2v1h-2zM0 22h2v1h-2zM5 22h4v1h-4zM12 22h2v1h-2zM16 22h3v1h-3zM20 22h2v1h-2zM24 22h1v1h-1zM26 22h3v1h-3zM32 22h1v1h-1zM35 22h1v1h-1zM1 23h1v1h-1zM4 23h1v1h-1zM7 23h2v1h-2zM10 23h1v1h-1zM12 23h3v1h-3zM19 23h1v1h-1zM21 23h4v1h-4zM28 23h1v1h-1zM31 23h3v1h-3zM35 23h3v1h-3zM39 23h1v1h-1zM1 24h2v1h-2zM5 24h2v1h-2zM9 24h1v1h-1zM11 24h1v1h-1zM13 24h5v1h-5zM19 24h1v1h-1zM22 24h1v1h-1zM24 24h3v1h-3zM29 24h1v1h-1zM31 24h1v1h-1zM38 24h3v1h-3zM0 25h1v1h-1zM2 25h1v1h-1zM8 25h8v1h-8zM17 25h5v1h-5zM23 25h1v1h-1zM25 25h2v1h-2zM30 25h2v1h-2zM34 25h4v1h-4zM0 26h1v1h-1zM2 26h1v1h-1zM6 26h1v1h-1zM9 26h2v1h-2zM13 26h2v1h-2zM17 26h1v1h-1zM20 26h3v1h-3zM25 26h3v1h-3zM29 26h2v1h-2zM32 26h2v1h-2zM0 27h2v1h-2zM3 27h1v1h-1zM5 27h1v1h-1zM9 27h1v1h-1zM11 27h1v1h-1zM13 27h3v1h-3zM19 27h5v1h-5zM26 27h2v1h-2zM30 27h3v1h-3zM34 27h1v1h-1zM36 27h2v1h-2zM0 28h3v1h-3zM4 28h1v1h-1zM6 28h1v1h-1zM9 28h1v1h-1zM11 28h3v1h-3zM15 28h2v1h-2zM19 28h2v1h-2zM22 28h4v1h-4zM28 28h4v1h-4zM35 28h1v1h-1zM37 28h2v1h-2zM0 29h2v1h-2zM3 29h3v1h-3zM11 29h6v1h-6zM25 29h3v1h-3zM31 29h1v1h-1zM34 29h3v1h-3zM39 29h2v1h-2zM0 30h1v1h-1zM4 30h1v1h-1zM6 30h1v1h-1zM10 30h1v1h-1zM14 30h1v1h-1zM16 30h3v1h-3zM20 30h5v1h-5zM27 30h4v1h-4zM33 30h3v1h-3zM0 31h1v1h-1zM5 31h1v1h-1zM10 31h1v1h-1zM12 31h3v1h-3zM16 31h1v1h-1zM21 31h1v1h-1zM23 31h1v1h-1zM26 31h2v1h-2zM30 31h1v1h-1zM32 31h4v1h-4zM37 31h1v1h-1zM40 31h1v1h-1zM0 32h1v1h-1zM2 32h3v1h-3zM6 32h1v1h-1zM8 32h1v1h-1zM11 32h1v1h-1zM15 32h3v1h-3zM22 32h2v1h-2zM25 32h3v1h-3zM29 32h1v1h-1zM32 32h5v1h-5zM38 32h2v1h-2zM8 33h3v1h-3zM12 33h1v1h-1zM15 33h2v1h-2zM18 33h3v1h-3zM23 33h1v1h-1zM28 33h5v1h-5zM36 33h2v1h-2zM39 33h2v1h-2zM0 34h7v1h-7zM9 34h3v1h-3zM13 34h1v1h-1zM15 34h2v1h-2zM18 34h1v1h-1zM20 34h1v1h-1zM22 34h1v1h-1zM24 34h1v1h-1zM27 34h3v1h-3zM32 34h1v1h-1zM34 34h1v1h-1zM36 34h2v1h-2zM0 35h1v1h-1zM6 35h1v1h-1zM8 35h3v1h-3zM13 35h2v1h-2zM23 35h1v1h-1zM26 35h7v1h-7zM36 35h2v1h-2zM40 35h1v1h-1zM0 36h1v1h-1zM2 36h3v1h-3zM6 36h1v1h-1zM8 36h1v1h-1zM10 36h2v1h-2zM18 36h2v1h-2zM21 36h3v1h-3zM27 36h1v1h-1zM32 36h7v1h-7zM40 36h1v1h-1zM0 37h1v1h-1zM2 37h3v1h-3zM6 37h1v1h-1zM8 37h1v1h-1zM10 37h1v1h-1zM15 37h2v1h-2zM19 37h3v1h-3zM23 37h2v1h-2zM26 37h1v1h-1zM30 37h2v1h-2zM33 37h1v1h-1zM35 37h1v1h-1zM38 37h1v1h-1zM0 38h1v1h-1zM2 38h3v1h-3zM6 38h1v1h-1zM8 38h2v1h-2zM13 38h5v1h-5zM20 38h1v1h-1zM22 38h1v1h-1zM24 38h4v1h-4zM29 38h2v1h-2zM32 38h6v1h-6zM0 39h1v1h-1zM6 39h1v1h-1zM9 39h1v1h-1zM11 39h3v1h-3zM15 39h2v1h-2zM20 39h3v1h-3zM24 39h1v1h-1zM26 39h1v1h-1zM28 39h1v1h-1zM32 39h2v1h-2zM36 39h2v1h-2zM39 39h1v1h-1zM0 40h7v1h-7zM8 40h5v1h-5zM14 40h2v1h-2zM17 40h2v1h-2zM22 40h1v1h-1zM24 40h4v1h-4zM29 40h1v1h-1zM34 40h3v1h-3zM38 40h1v1h-1z"/>
  </g>
</g>
<text x="1122" y="614" font-family="Inter,Helvetica,Arial,sans-serif" font-size="10" font-weight="700" fill="#F5F7FA" text-anchor="middle">scan / full post</text>
</svg>