<svg xmlns="http://www.w3.org/2000/svg" viewBox="0 0 1200 630">
  <defs>
    <linearGradient id="bg" x1="0%" y1="0%" x2="100%" y2="100%">
      <stop offset="0%" style="stop-color:#0a0a1a"/><stop offset="100%" style="stop-color:#1a0a1a"/>
    </linearGradient>
    <filter id="glow"><feGaussianBlur stdDeviation="4" result="b"/><feMerge><feMergeNode in="b"/><feMergeNode in="SourceGraphic"/></feMerge></filter>
    <filter id="sg"><feGaussianBlur stdDeviation="30"/></filter>
    <filter id="shadow"><feDropShadow dx="0" dy="4" stdDeviation="8" flood-color="#000" flood-opacity="0.3"/></filter>
  </defs>
  <rect width="1200" height="630" fill="url(#bg)"/>
  <circle cx="600" cy="250" r="280" fill="#f59e0b" opacity="0.03" filter="url(#sg)"/>
  <g transform="translate(600,225)">
    <g filter="url(#shadow)">
      <rect x="-150" y="-70" width="300" height="150" rx="10" fill="#1e293b" stroke="#f59e0b" stroke-width="2"/>
      <polyline points="-130,40 -90,20 -50,-10 -10,5 30,-25 70,-15 110,-40 130,-35" fill="none" stroke="#f59e0b" stroke-width="2.5" stroke-linecap="round"/>
      <polyline points="-130,50 -90,35 -50,25 -10,30 30,10 70,20 110,5 130,10" fill="none" stroke="#22c55e" stroke-width="2" stroke-linecap="round" stroke-dasharray="4,3"/>
      <g opacity="0.1"><line x1="-130" y1="-30" x2="130" y2="-30" stroke="#fff"/><line x1="-130" y1="0" x2="130" y2="0" stroke="#fff"/><line x1="-130" y1="30" x2="130" y2="30" stroke="#fff"/></g>
    </g>
  </g>
  <text x="600" y="500" font-family="Arial,sans-serif" font-size="36" font-weight="bold" fill="white" text-anchor="middle" filter="url(#glow)">Cloud Risk Analysis</text>
  <text x="600" y="538" font-family="Arial,sans-serif" font-size="16" fill="#94a3b8" text-anchor="middle">Weekly Digest | AI + Cloud Risk Assessment</text>
  <rect x="40" y="25" width="160" height="32" rx="16" fill="#f59e0b" opacity="0.2" stroke="#f59e0b" stroke-width="1"/>
  <text x="120" y="47" font-family="Arial,sans-serif" font-size="13" font-weight="bold" fill="#f59e0b" text-anchor="middle">WEEKLY</text>
  <rect x="1000" y="25" width="160" height="32" rx="16" fill="#3b82f6" opacity="0.2" stroke="#3b82f6" stroke-width="1"/>
  <text x="1080" y="47" font-family="Arial,sans-serif" font-size="13" font-weight="bold" fill="#93c5fd" text-anchor="middle">Feb 17, 2026</text>
  <text x="1160" y="615" font-family="Arial,sans-serif" font-size="13" fill="#475569" text-anchor="end">tech.2twodragon.com</text>
</svg>