<svg xmlns="http://www.w3.org/2000/svg" viewBox="0 0 1200 630" width="1200" height="630">
  <title>KARA Ransomware Trends 2025 Q3</title>
  <defs>
    <linearGradient id="bg" x1="0%" y1="0%" x2="100%" y2="100%">
      <stop offset="0%" stop-color="#0a0c1a"/>
      <stop offset="100%" stop-color="#1a0a0a"/>
    </linearGradient>
    <linearGradient id="accent" x1="0%" y1="0%" x2="100%" y2="0%">
      <stop offset="0%" stop-color="#ef4444"/>
      <stop offset="100%" stop-color="#f59e0b"/>
    </linearGradient>
  </defs>
  <rect width="1200" height="630" fill="url(#bg)"/>
  <!-- Grid lines -->
  <line x1="0" y1="105" x2="1200" y2="105" stroke="rgba(255,255,255,0.04)" stroke-width="1"/>
  <line x1="0" y1="210" x2="1200" y2="210" stroke="rgba(255,255,255,0.04)" stroke-width="1"/>
  <line x1="0" y1="315" x2="1200" y2="315" stroke="rgba(255,255,255,0.04)" stroke-width="1"/>
  <line x1="0" y1="420" x2="1200" y2="420" stroke="rgba(255,255,255,0.04)" stroke-width="1"/>
  <line x1="240" y1="0" x2="240" y2="630" stroke="rgba(255,255,255,0.03)" stroke-width="1"/>
  <line x1="480" y1="0" x2="480" y2="630" stroke="rgba(255,255,255,0.03)" stroke-width="1"/>
  <line x1="720" y1="0" x2="720" y2="630" stroke="rgba(255,255,255,0.03)" stroke-width="1"/>
  <line x1="960" y1="0" x2="960" y2="630" stroke="rgba(255,255,255,0.03)" stroke-width="1"/>
  <!-- Cloud icon -->
  <ellipse cx="970" cy="220" rx="80" ry="50" fill="rgba(239,68,68,0.05)" stroke="rgba(239,68,68,0.2)" stroke-width="1.5"/>
  <ellipse cx="930" cy="240" rx="50" ry="35" fill="rgba(239,68,68,0.04)" stroke="rgba(239,68,68,0.15)" stroke-width="1"/>
  <ellipse cx="1010" cy="240" rx="45" ry="30" fill="rgba(239,68,68,0.04)" stroke="rgba(239,68,68,0.15)" stroke-width="1"/>
  <rect x="920" y="270" width="100" height="60" rx="6" fill="rgba(239,68,68,0.04)" stroke="rgba(239,68,68,0.2)" stroke-width="1"/>
  <!-- Alert dots -->
  <circle cx="870" cy="400" r="6" fill="rgba(239,68,68,0.3)"/>
  <circle cx="900" cy="420" r="4" fill="rgba(239,68,68,0.25)"/>
  <circle cx="860" cy="440" r="5" fill="rgba(239,68,68,0.2)"/>
  <!-- Background circles -->
  <circle cx="1050" cy="450" r="200" fill="rgba(255,255,255,0.02)"/>
  <circle cx="1050" cy="450" r="140" fill="rgba(255,255,255,0.02)"/>
  <!-- Left accent bar -->
  <rect x="0" y="0" width="6" height="630" fill="url(#accent)"/>
  <!-- Date badge -->
  <rect x="80" y="60" width="200" height="32" rx="4" fill="rgba(239,68,68,0.2)" stroke="rgba(239,68,68,0.4)" stroke-width="1"/>
  <text x="180" y="81" font-family="system-ui,sans-serif" font-size="14" fill="rgba(255,255,255,0.8)" text-anchor="middle" letter-spacing="1">JANUARY 22, 2026</text>
  <!-- Main title -->
  <text x="80" y="185" font-family="system-ui,sans-serif" font-size="46" font-weight="700" fill="white" letter-spacing="-1">KARA Ransomware Trends 2025 Q3</text>

  <!-- Subtitle -->
  <text x="80" y="300" font-family="system-ui,sans-serif" font-size="19" fill="rgba(255,255,255,0.6)">Security | Incident | Ransomware</text>
  <!-- Accent line -->
  <rect x="80" y="325" width="420" height="3" rx="1" fill="url(#accent)"/>
  <!-- Category label -->
  <text x="80" y="370" font-family="system-ui,sans-serif" font-size="14" fill="rgba(255,255,255,0.4)" letter-spacing="2">SECURITY</text>
  <!-- Keyword tags -->
  <rect x="80" y="420" width="120" height="36" rx="18" fill="rgba(239,68,68,0.18)" stroke="rgba(239,68,68,0.4)" stroke-width="1"/>
  <text x="140" y="443" font-family="system-ui,sans-serif" font-size="14" fill="#fca5a5" text-anchor="middle" font-weight="600">Ransomware</text>
  <rect x="214" y="420" width="70" height="36" rx="18" fill="rgba(245,158,11,0.18)" stroke="rgba(245,158,11,0.4)" stroke-width="1"/>
  <text x="249" y="443" font-family="system-ui,sans-serif" font-size="14" fill="#fbbf24" text-anchor="middle" font-weight="600">KARA</text>
  <rect x="298" y="420" width="129" height="36" rx="18" fill="rgba(59,130,246,0.18)" stroke="rgba(59,130,246,0.4)" stroke-width="1"/>
  <text x="362" y="443" font-family="system-ui,sans-serif" font-size="14" fill="#93c5fd" text-anchor="middle" font-weight="600">SK Shieldus</text>
  <!-- Bottom rule -->
  <rect x="80" y="520" width="1040" height="1" fill="rgba(255,255,255,0.08)"/>
  <text x="80" y="545" font-family="system-ui,sans-serif" font-size="13" fill="rgba(255,255,255,0.3)" letter-spacing="1">tech.2twodragon.com</text>
  <text x="1120" y="545" font-family="system-ui,sans-serif" font-size="13" fill="rgba(255,255,255,0.3)" text-anchor="end">Security</text>
</svg>