<svg xmlns="http://www.w3.org/2000/svg" viewBox="0 0 1200 630" width="1200" height="630" role="img" aria-label="Research-based weekly digest cover: Cisco CVSS 9.8 IMC and SSM unauthenticated RCE requiring immediate patch, CVE-2025-55182 React2Shell compromises 766 Next.js hosts stealing AWS keys and GitHub tokens, AWS agentic AI four core security principles for least privilege isolation audit and human oversight, Google Cloud vSphere BRICKSTORM malware defender guide">
<!-- profile: high-quality-cover (L13 Callouts, research-based) -->
<title>Weekly digest 2026-04-03: Cisco CVSS 9.8 RCE patch, CVE-2025-55182 React2Shell 766 hosts, AWS Agentic AI 4 security principles, vSphere BRICKSTORM defender guide</title>
<defs>
  <linearGradient id="bgSpread" x1="0%" y1="0%" x2="100%" y2="100%">
    <stop offset="0%" stop-color="#0A1226"/>
    <stop offset="55%" stop-color="#0D1530"/>
    <stop offset="100%" stop-color="#131038"/>
  </linearGradient>
  <linearGradient id="cardA" x1="0%" y1="0%" x2="0%" y2="100%">
    <stop offset="0%" stop-color="#2A0A10"/>
    <stop offset="100%" stop-color="#1E0608"/>
  </linearGradient>
  <linearGradient id="cardB" x1="0%" y1="0%" x2="0%" y2="100%">
    <stop offset="0%" stop-color="#2A180A"/>
    <stop offset="100%" stop-color="#1E1006"/>
  </linearGradient>
  <linearGradient id="cardC" x1="0%" y1="0%" x2="0%" y2="100%">
    <stop offset="0%" stop-color="#0E2038"/>
    <stop offset="100%" stop-color="#0A1830"/>
  </linearGradient>
  <linearGradient id="cardD" x1="0%" y1="0%" x2="0%" y2="100%">
    <stop offset="0%" stop-color="#14143A"/>
    <stop offset="100%" stop-color="#0D0D30"/>
  </linearGradient>
  <linearGradient id="shieldCrit" x1="0%" y1="0%" x2="0%" y2="100%">
    <stop offset="0%" stop-color="#FF2233"/>
    <stop offset="100%" stop-color="#8B0000"/>
  </linearGradient>
  <radialGradient id="glowRed" cx="50%" cy="50%" r="50%">
    <stop offset="0%" stop-color="#E63946" stop-opacity="0.55"/>
    <stop offset="100%" stop-color="#E63946" stop-opacity="0"/>
  </radialGradient>
  <radialGradient id="glowAmber" cx="50%" cy="50%" r="50%">
    <stop offset="0%" stop-color="#FFB703" stop-opacity="0.5"/>
    <stop offset="100%" stop-color="#FFB703" stop-opacity="0"/>
  </radialGradient>
  <radialGradient id="glowBlue" cx="50%" cy="50%" r="50%">
    <stop offset="0%" stop-color="#3A86FF" stop-opacity="0.5"/>
    <stop offset="100%" stop-color="#3A86FF" stop-opacity="0"/>
  </radialGradient>
  <radialGradient id="glowPurple" cx="50%" cy="50%" r="50%">
    <stop offset="0%" stop-color="#8B5CF6" stop-opacity="0.55"/>
    <stop offset="100%" stop-color="#8B5CF6" stop-opacity="0"/>
  </radialGradient>
  <pattern id="dotGrid" x="0" y="0" width="40" height="40" patternUnits="userSpaceOnUse">
    <circle cx="20" cy="20" r="0.8" fill="#2A3256" opacity="0.55"/>
  </pattern>
  <filter id="softShadow" x="-10%" y="-10%" width="130%" height="130%">
    <feGaussianBlur in="SourceAlpha" stdDeviation="2.6"/>
    <feOffset dx="1" dy="3"/>
    <feComponentTransfer><feFuncA type="linear" slope="0.55"/></feComponentTransfer>
    <feMerge><feMergeNode/><feMergeNode in="SourceGraphic"/></feMerge>
  </filter>
  <filter id="textShadow" x="-5%" y="-5%" width="110%" height="110%">
    <feGaussianBlur in="SourceAlpha" stdDeviation="1.2"/>
    <feOffset dx="0" dy="1.5"/>
    <feComponentTransfer><feFuncA type="linear" slope="0.8"/></feComponentTransfer>
    <feMerge><feMergeNode/><feMergeNode in="SourceGraphic"/></feMerge>
  </filter>
</defs>

<!-- Background -->
<rect width="1200" height="630" fill="url(#bgSpread)"/>
<rect width="1200" height="630" fill="url(#dotGrid)"/>

<!-- Ambient glow per card quadrant -->
<circle cx="320" cy="220" r="120" fill="url(#glowRed)">
  <animate attributeName="opacity" values="0.5;0.9;0.5" dur="5.8s" repeatCount="indefinite"/>
</circle>
<circle cx="900" cy="220" r="120" fill="url(#glowAmber)">
  <animate attributeName="opacity" values="0.45;0.8;0.45" dur="6.4s" repeatCount="indefinite"/>
</circle>
<circle cx="320" cy="480" r="120" fill="url(#glowBlue)">
  <animate attributeName="opacity" values="0.4;0.75;0.4" dur="7.2s" repeatCount="indefinite"/>
</circle>
<circle cx="900" cy="480" r="120" fill="url(#glowPurple)" opacity="0.6"/>

<!-- Top header stripe (56px) -->
<rect x="0" y="0" width="1200" height="56" fill="#050813" opacity="0.92"/>
<text x="36" y="36" font-family="Inter, Helvetica, Arial, sans-serif" font-size="18" font-weight="700" fill="#8FB8FF" letter-spacing="2.5">WEEKLY DIGEST</text>
<text x="1164" y="36" font-family="Inter, Helvetica, Arial, sans-serif" font-size="15" font-weight="600" fill="#7DA3D9" letter-spacing="1.5" text-anchor="end">2026.04.03</text>
<rect x="0" y="54" width="1200" height="2" fill="#E63946" opacity="0.85">
  <animate attributeName="opacity" values="0.4;1;0.4" dur="4.2s" repeatCount="indefinite"/>
</rect>

<!-- ===== CARD 01: Cisco CVSS 9.8 IMC/SSM RCE (top-left, Red/Critical) ===== -->
<g transform="translate(32,80)">
  <rect x="0" y="0" width="564" height="248" rx="14" fill="url(#cardA)" stroke="#E63946" stroke-width="1.6" opacity="0.97"/>
  <rect x="0" y="0" width="6" height="248" fill="#E63946"/>
  <rect x="0" y="0" width="564" height="4" fill="#E63946" opacity="0.7"/>
  <!-- Number badge -->
  <g transform="translate(20,18)">
    <rect x="0" y="0" width="40" height="40" rx="6" fill="#E63946" opacity="0.22"/>
    <text x="20" y="28" text-anchor="middle" font-family="Inter, Helvetica, Arial, sans-serif" font-size="22" font-weight="900" fill="#F87171">01</text>
  </g>
  <!-- Eyebrow + title -->
  <g filter="url(#textShadow)">
    <text x="74" y="36" font-family="Inter, Helvetica, Arial, sans-serif" font-size="12" font-weight="700" fill="#F87171" letter-spacing="2.4">CRITICAL PATCH  /  CVSS 9.8</text>
    <text x="74" y="58" font-family="Inter, Helvetica, Arial, sans-serif" font-size="21" font-weight="800" fill="#F5F7FA">Cisco IMC / SSM RCE</text>
  </g>
  <!-- Subtitle -->
  <text x="20" y="100" font-family="Inter, Helvetica, Arial, sans-serif" font-size="14" font-weight="500" fill="#FBB6BD">Unauthenticated remote system compromise</text>
  <!-- Cisco device illustration -->
  <g transform="translate(34,130)" filter="url(#softShadow)">
    <rect x="0" y="0" width="110" height="72" rx="8" fill="#1E0508" stroke="#E63946" stroke-width="1.8"/>
    <rect x="8" y="10" width="94" height="52" rx="4" fill="#130304"/>
    <!-- port slots -->
    <g fill="#4A0808">
      <rect x="12" y="16" width="14" height="8" rx="1.5"/>
      <rect x="30" y="16" width="14" height="8" rx="1.5"/>
      <rect x="48" y="16" width="14" height="8" rx="1.5"/>
      <rect x="66" y="16" width="14" height="8" rx="1.5"/>
    </g>
    <!-- Status LEDs -->
    <circle cx="18" cy="36" r="3" fill="#FF7070"/>
    <circle cx="30" cy="36" r="3" fill="#FFB703">
      <animate attributeName="opacity" values="0.4;1;0.4" dur="1.1s" repeatCount="indefinite"/>
    </circle>
    <circle cx="42" cy="36" r="3" fill="#FF7070"/>
    <circle cx="54" cy="36" r="3" fill="#FF7070"/>
    <circle cx="66" cy="36" r="3" fill="#4ADE80" opacity="0.3"/>
    <text x="55" y="56" text-anchor="middle" font-family="Inter, monospace" font-size="8" font-weight="800" fill="#FCA5A5">CISCO FMC</text>
    <!-- Alert bar -->
    <rect x="8" y="60" width="94" height="10" rx="2" fill="#E63946" opacity="0.9">
      <animate attributeName="opacity" values="0.6;1;0.6" dur="0.9s" repeatCount="indefinite"/>
    </rect>
    <text x="55" y="68" text-anchor="middle" font-family="Inter, monospace" font-size="7" font-weight="900" fill="#FFFFFF">UNAUTH RCE</text>
  </g>
  <!-- Radar pulse -->
  <g transform="translate(90,166)">
    <circle cx="0" cy="0" r="46" fill="none" stroke="#E63946" stroke-width="0.8">
      <animate attributeName="r" values="40;80;40" dur="2.4s" repeatCount="indefinite"/>
      <animate attributeName="opacity" values="0.8;0;0.8" dur="2.4s" repeatCount="indefinite"/>
    </circle>
  </g>
  <!-- CVSS badge -->
  <g transform="translate(175,148)" filter="url(#softShadow)">
    <rect x="0" y="0" width="60" height="40" rx="7" fill="url(#shieldCrit)"/>
    <text x="30" y="14" text-anchor="middle" font-family="Inter, monospace" font-size="8" font-weight="700" fill="#FFE4E4">CVSS</text>
    <text x="30" y="33" text-anchor="middle" font-family="Inter, monospace" font-size="18" font-weight="900" fill="#FFFFFF">9.8</text>
  </g>
  <!-- KPI card -->
  <g transform="translate(432,130)" filter="url(#softShadow)">
    <rect x="0" y="0" width="120" height="100" rx="10" fill="#1E0508" stroke="#E63946" stroke-width="1.8"/>
    <text x="60" y="24" text-anchor="middle" font-family="Inter, Helvetica, Arial, sans-serif" font-size="10" font-weight="700" letter-spacing="2" fill="#F87171">CVSS SCORE</text>
    <text x="60" y="66" text-anchor="middle" font-family="Inter, Helvetica, Arial, sans-serif" font-size="36" font-weight="900" fill="#F5F7FA">9.8</text>
    <text x="60" y="86" text-anchor="middle" font-family="Inter, Helvetica, Arial, sans-serif" font-size="10" font-weight="600" fill="#FBB6BD">patch now</text>
    <circle cx="108" cy="12" r="4" fill="#E63946">
      <animate attributeName="opacity" values="0.3;1;0.3" dur="1.3s" repeatCount="indefinite"/>
    </circle>
  </g>
  <!-- spark dots top-right -->
  <g fill="#F87171">
    <circle cx="530" cy="26" r="1.4"><animate attributeName="opacity" values="0.2;1;0.2" dur="1.8s" repeatCount="indefinite"/></circle>
    <circle cx="546" cy="26" r="1.4"><animate attributeName="opacity" values="0.2;1;0.2" dur="1.4s" begin="0.4s" repeatCount="indefinite"/></circle>
  </g>
</g>

<!-- ===== CARD 02: CVE-2025-55182 React2Shell / 766 hosts (top-right, Amber/High) ===== -->
<g transform="translate(612,80)">
  <rect x="0" y="0" width="556" height="248" rx="14" fill="url(#cardB)" stroke="#FFB703" stroke-width="1.6" opacity="0.97"/>
  <rect x="0" y="0" width="6" height="248" fill="#FFB703"/>
  <rect x="0" y="0" width="556" height="4" fill="#FFB703" opacity="0.7"/>
  <!-- Number badge -->
  <g transform="translate(20,18)">
    <rect x="0" y="0" width="40" height="40" rx="6" fill="#FFB703" opacity="0.2"/>
    <text x="20" y="28" text-anchor="middle" font-family="Inter, Helvetica, Arial, sans-serif" font-size="22" font-weight="900" fill="#FFB703">02</text>
  </g>
  <!-- Eyebrow + title -->
  <g filter="url(#textShadow)">
    <text x="74" y="36" font-family="Inter, Helvetica, Arial, sans-serif" font-size="12" font-weight="700" fill="#FFB703" letter-spacing="2.4">EXPLOIT IN THE WILD  /  HIGH</text>
    <text x="74" y="58" font-family="Inter, Helvetica, Arial, sans-serif" font-size="21" font-weight="800" fill="#F5F7FA">CVE-2025-55182 React2Shell</text>
  </g>
  <!-- Subtitle -->
  <text x="20" y="100" font-family="Inter, Helvetica, Arial, sans-serif" font-size="14" font-weight="500" fill="#FFD58A">766 Next.js hosts breached - credentials harvested</text>
  <!-- Server box illustration -->
  <g transform="translate(28,120)" filter="url(#softShadow)">
    <rect x="0" y="0" width="90" height="100" rx="8" fill="#1E1205" stroke="#FFB703" stroke-width="1.6"/>
    <text x="45" y="18" text-anchor="middle" font-family="Inter, monospace" font-size="10" font-weight="800" fill="#FFD58A">Next.js</text>
    <text x="45" y="31" text-anchor="middle" font-family="Inter, monospace" font-size="8" font-weight="700" fill="#FFB703">SSR Server</text>
    <rect x="10" y="38" width="70" height="12" rx="2" fill="#3A1800" stroke="#FFB703" stroke-width="0.8"/>
    <text x="45" y="48" text-anchor="middle" font-family="Inter, monospace" font-size="8" font-weight="800" fill="#FCA5A5">SSTI VULN</text>
    <circle cx="78" cy="10" r="7" fill="#FFB703">
      <animate attributeName="opacity" values="0.5;1;0.5" dur="1.3s" repeatCount="indefinite"/>
    </circle>
    <text x="78" y="14" text-anchor="middle" font-family="Inter, monospace" font-size="9" font-weight="900" fill="#0A0800">!</text>
    <!-- Victim dots -->
    <g fill="#FFB703" opacity="0.7">
      <circle cx="20" cy="68" r="3"><animate attributeName="opacity" values="0.2;1;0.2" dur="1.5s" repeatCount="indefinite"/></circle>
      <circle cx="35" cy="78" r="2.5"><animate attributeName="opacity" values="0.2;1;0.2" dur="2.0s" begin="0.3s" repeatCount="indefinite"/></circle>
      <circle cx="55" cy="68" r="3"><animate attributeName="opacity" values="0.2;1;0.2" dur="1.7s" begin="0.6s" repeatCount="indefinite"/></circle>
      <circle cx="70" cy="78" r="2.5"><animate attributeName="opacity" values="0.2;1;0.2" dur="1.9s" begin="0.9s" repeatCount="indefinite"/></circle>
    </g>
    <text x="45" y="92" text-anchor="middle" font-family="Inter, monospace" font-size="7" fill="#D9C9AE">766 hosts</text>
  </g>
  <!-- Arrow + exfil cloud -->
  <g transform="translate(130,158)">
    <path d="M0 0 L52 0" stroke="#FFB703" stroke-width="2" stroke-dasharray="4 3" fill="none">
      <animate attributeName="stroke-dashoffset" values="0;-14" dur="1.1s" repeatCount="indefinite"/>
    </path>
    <polygon points="52,-5 64,0 52,5" fill="#FFB703"/>
  </g>
  <g transform="translate(206,142)" filter="url(#softShadow)">
    <path d="M16 22 Q4 22 2 13 Q2 4 16 5 Q22 -5 38 -1 Q54 -5 60 5 Q74 4 74 13 Q72 22 60 22 Z" fill="#1E1205" stroke="#E63946" stroke-width="1.6"/>
    <text x="38" y="15" text-anchor="middle" font-family="Inter, monospace" font-size="9" font-weight="800" fill="#FCA5A5">ATTACKER C2</text>
    <text x="38" y="-10" text-anchor="middle" font-family="Inter, monospace" font-size="7" font-weight="700" fill="#FFD58A">AWS keys / tokens</text>
    <circle cx="38" cy="30" r="5" fill="#E63946">
      <animate attributeName="r" values="3;7;3" dur="1.8s" repeatCount="indefinite"/>
      <animate attributeName="opacity" values="0.5;1;0.5" dur="1.8s" repeatCount="indefinite"/>
    </circle>
  </g>
  <!-- KPI card -->
  <g transform="translate(420,130)" filter="url(#softShadow)">
    <rect x="0" y="0" width="120" height="100" rx="10" fill="#1E1006" stroke="#FFB703" stroke-width="1.8"/>
    <text x="60" y="24" text-anchor="middle" font-family="Inter, Helvetica, Arial, sans-serif" font-size="10" font-weight="700" letter-spacing="2" fill="#FFB703">HOSTS HIT</text>
    <text x="60" y="66" text-anchor="middle" font-family="Inter, Helvetica, Arial, sans-serif" font-size="36" font-weight="900" fill="#F5F7FA">766</text>
    <text x="60" y="86" text-anchor="middle" font-family="Inter, Helvetica, Arial, sans-serif" font-size="10" font-weight="600" fill="#FFD58A">cred theft</text>
    <circle cx="108" cy="12" r="4" fill="#FFB703">
      <animate attributeName="opacity" values="0.3;1;0.3" dur="1.7s" repeatCount="indefinite"/>
    </circle>
  </g>
</g>

<!-- ===== CARD 03: AWS Agentic AI 4 Security Principles (bottom-left, Blue/Medium) ===== -->
<g transform="translate(32,348)">
  <rect x="0" y="0" width="564" height="242" rx="14" fill="url(#cardC)" stroke="#3A86FF" stroke-width="1.6" opacity="0.97"/>
  <rect x="0" y="0" width="6" height="242" fill="#3A86FF"/>
  <rect x="0" y="0" width="564" height="4" fill="#3A86FF" opacity="0.7"/>
  <!-- Number badge -->
  <g transform="translate(20,18)">
    <rect x="0" y="0" width="40" height="40" rx="6" fill="#3A86FF" opacity="0.2"/>
    <text x="20" y="28" text-anchor="middle" font-family="Inter, Helvetica, Arial, sans-serif" font-size="22" font-weight="900" fill="#8FB8FF">03</text>
  </g>
  <!-- Eyebrow + title -->
  <g filter="url(#textShadow)">
    <text x="74" y="36" font-family="Inter, Helvetica, Arial, sans-serif" font-size="12" font-weight="700" fill="#8FB8FF" letter-spacing="2.4">AWS SECURITY GUIDANCE  /  MEDIUM</text>
    <text x="74" y="58" font-family="Inter, Helvetica, Arial, sans-serif" font-size="21" font-weight="800" fill="#F5F7FA">Agentic AI: 4 Security Principles</text>
  </g>
  <!-- Subtitle -->
  <text x="20" y="100" font-family="Inter, Helvetica, Arial, sans-serif" font-size="14" font-weight="500" fill="#BFC9D9">Least privilege, isolation, audit, human oversight</text>
  <!-- 4 principle icons -->
  <g transform="translate(28,120)">
    <!-- connecting baseline -->
    <line x1="20" y1="34" x2="300" y2="34" stroke="#3A86FF" stroke-width="0.8" stroke-dasharray="4 4" opacity="0.35"/>
    <!-- P1: Least Privilege (lock) -->
    <g filter="url(#softShadow)">
      <rect x="0" y="0" width="58" height="58" rx="10" fill="#07172A" stroke="#3A86FF" stroke-width="1.4"/>
      <rect x="17" y="26" width="24" height="18" rx="3" fill="#3A86FF"/>
      <path d="M19 26 Q19 14 29 14 Q39 14 39 26" stroke="#3A86FF" stroke-width="2.2" fill="none"/>
      <circle cx="29" cy="36" r="3" fill="#07172A"/>
      <text x="29" y="70" text-anchor="middle" font-family="Inter, monospace" font-size="8" font-weight="800" fill="#8FB8FF">MIN PRIV</text>
    </g>
    <!-- P2: Isolation -->
    <g transform="translate(80,0)" filter="url(#softShadow)">
      <rect x="0" y="0" width="58" height="58" rx="10" fill="#07172A" stroke="#3A86FF" stroke-width="1.4"/>
      <rect x="10" y="10" width="38" height="38" rx="3" fill="none" stroke="#3A86FF" stroke-width="1.4"/>
      <rect x="18" y="18" width="22" height="22" rx="2" fill="#3A86FF" opacity="0.4"/>
      <rect x="23" y="23" width="12" height="12" rx="1" fill="#8FB8FF"/>
      <text x="29" y="70" text-anchor="middle" font-family="Inter, monospace" font-size="8" font-weight="800" fill="#8FB8FF">ISOLATE</text>
    </g>
    <!-- P3: Audit -->
    <g transform="translate(160,0)" filter="url(#softShadow)">
      <rect x="0" y="0" width="58" height="58" rx="10" fill="#07172A" stroke="#3A86FF" stroke-width="1.4"/>
      <g stroke="#3A86FF" stroke-width="1.4" fill="none">
        <line x1="12" y1="16" x2="46" y2="16"/>
        <line x1="12" y1="26" x2="46" y2="26"/>
        <line x1="12" y1="36" x2="30" y2="36"/>
      </g>
      <circle cx="40" cy="36" r="4" fill="#4ADE80">
        <animate attributeName="opacity" values="0.4;1;0.4" dur="1.5s" repeatCount="indefinite"/>
      </circle>
      <text x="29" y="70" text-anchor="middle" font-family="Inter, monospace" font-size="8" font-weight="800" fill="#8FB8FF">AUDIT</text>
    </g>
    <!-- P4: Human oversight -->
    <g transform="translate(240,0)" filter="url(#softShadow)">
      <rect x="0" y="0" width="58" height="58" rx="10" fill="#07172A" stroke="#3A86FF" stroke-width="1.4"/>
      <circle cx="29" cy="18" r="9" fill="#3A86FF"/>
      <path d="M13 44 Q13 32 29 32 Q45 32 45 44 Z" fill="#3A86FF"/>
      <g transform="translate(40,8)">
        <circle r="8" fill="#4ADE80" opacity="0.95"/>
        <path d="M-3 0 L0 3 L5 -4" stroke="#071226" stroke-width="2" fill="none" stroke-linecap="round"/>
      </g>
      <text x="29" y="70" text-anchor="middle" font-family="Inter, monospace" font-size="8" font-weight="800" fill="#8FB8FF">OVERSIGHT</text>
    </g>
  </g>
  <!-- Source -->
  <text x="20" y="225" font-family="Inter, Helvetica, Arial, sans-serif" font-size="11" fill="#7DA3D9">AWS Security Blog</text>
  <!-- KPI card -->
  <g transform="translate(430,120)" filter="url(#softShadow)">
    <rect x="0" y="0" width="120" height="100" rx="10" fill="#0A1B2E" stroke="#3A86FF" stroke-width="1.8"/>
    <text x="60" y="24" text-anchor="middle" font-family="Inter, Helvetica, Arial, sans-serif" font-size="10" font-weight="700" letter-spacing="2" fill="#8FB8FF">PRINCIPLES</text>
    <text x="60" y="66" text-anchor="middle" font-family="Inter, Helvetica, Arial, sans-serif" font-size="36" font-weight="900" fill="#F5F7FA">4</text>
    <text x="60" y="86" text-anchor="middle" font-family="Inter, Helvetica, Arial, sans-serif" font-size="10" font-weight="600" fill="#8FB8FF">Agentic AI sec</text>
    <circle cx="108" cy="12" r="4" fill="#3A86FF">
      <animate attributeName="opacity" values="0.3;1;0.3" dur="2.0s" repeatCount="indefinite"/>
    </circle>
  </g>
</g>

<!-- ===== CARD 04: vSphere BRICKSTORM Malware Defender Guide (bottom-right, Purple/Trend) ===== -->
<g transform="translate(612,348)">
  <rect x="0" y="0" width="556" height="242" rx="14" fill="url(#cardD)" stroke="#8B5CF6" stroke-width="1.6" opacity="0.97"/>
  <rect x="0" y="0" width="6" height="242" fill="#8B5CF6"/>
  <rect x="0" y="0" width="556" height="4" fill="#8B5CF6" opacity="0.7"/>
  <!-- Number badge -->
  <g transform="translate(20,18)">
    <rect x="0" y="0" width="40" height="40" rx="6" fill="#8B5CF6" opacity="0.2"/>
    <text x="20" y="28" text-anchor="middle" font-family="Inter, Helvetica, Arial, sans-serif" font-size="22" font-weight="900" fill="#C4B5FD">04</text>
  </g>
  <!-- Eyebrow + title -->
  <g filter="url(#textShadow)">
    <text x="74" y="36" font-family="Inter, Helvetica, Arial, sans-serif" font-size="12" font-weight="700" fill="#C4B5FD" letter-spacing="2.4">CLOUD THREAT  /  TREND</text>
    <text x="74" y="58" font-family="Inter, Helvetica, Arial, sans-serif" font-size="21" font-weight="800" fill="#F5F7FA">vSphere BRICKSTORM Malware</text>
  </g>
  <!-- Subtitle -->
  <text x="20" y="100" font-family="Inter, Helvetica, Arial, sans-serif" font-size="14" font-weight="500" fill="#DDD6FE">Google Cloud defender guide for hypervisor attacks</text>
  <!-- vSphere stack illustration -->
  <g transform="translate(28,118)" filter="url(#softShadow)">
    <rect x="0" y="0" width="110" height="22" rx="4" fill="#1E1A4E" stroke="#8B5CF6" stroke-width="1"/>
    <text x="55" y="15" text-anchor="middle" font-family="Inter, monospace" font-size="10" font-weight="700" fill="#C4B5FD">vSphere ESXi</text>
    <rect x="0" y="28" width="110" height="22" rx="4" fill="#1E1A4E" stroke="#8B5CF6" stroke-width="1"/>
    <text x="55" y="43" text-anchor="middle" font-family="Inter, monospace" font-size="10" font-weight="700" fill="#C4B5FD">Hypervisor</text>
    <rect x="0" y="56" width="110" height="22" rx="4" fill="#1E1A4E" stroke="#8B5CF6" stroke-width="1"/>
    <text x="55" y="71" text-anchor="middle" font-family="Inter, monospace" font-size="10" font-weight="700" fill="#C4B5FD">vCenter</text>
    <rect x="0" y="84" width="110" height="22" rx="4" fill="#3D0F6E" stroke="#8B5CF6" stroke-width="1.4"/>
    <text x="55" y="99" text-anchor="middle" font-family="Inter, monospace" font-size="9" font-weight="800" fill="#F5F7FA">BRICKSTORM</text>
    <!-- animated threat pulse -->
    <circle cx="100" cy="95" r="4" fill="#8B5CF6">
      <animate attributeName="r" values="2;7;2" dur="2.0s" repeatCount="indefinite"/>
      <animate attributeName="opacity" values="0.4;0.9;0.4" dur="2.0s" repeatCount="indefinite"/>
    </circle>
  </g>
  <!-- Defense arrow -->
  <g transform="translate(152,170)">
    <path d="M0 0 L44 0" stroke="#8B5CF6" stroke-width="2" stroke-dasharray="4 3" fill="none">
      <animate attributeName="stroke-dashoffset" values="0;-14" dur="1.3s" repeatCount="indefinite"/>
    </path>
    <polygon points="44,-5 56,0 44,5" fill="#8B5CF6"/>
  </g>
  <!-- Shield/defender icon -->
  <g transform="translate(218,148)" filter="url(#softShadow)">
    <path d="M32 6 L56 16 L56 36 Q56 54 32 62 Q8 54 8 36 L8 16 Z" fill="#14143A" stroke="#8B5CF6" stroke-width="2"/>
    <path d="M32 8 L54 17 L54 35 Q54 52 32 60 Q10 52 10 35 L10 17 Z" fill="#1E1A4E"/>
    <path d="M22 32 L28 38 L42 24" stroke="#4ADE80" stroke-width="3" fill="none" stroke-linecap="round" stroke-linejoin="round"/>
    <text x="32" y="76" text-anchor="middle" font-family="Inter, monospace" font-size="9" font-weight="700" fill="#C4B5FD">DEFENDER</text>
  </g>
  <!-- Source -->
  <text x="20" y="225" font-family="Inter, Helvetica, Arial, sans-serif" font-size="11" fill="#9D7FE0">Google Cloud Blog</text>
  <!-- KPI card -->
  <g transform="translate(420,120)" filter="url(#softShadow)">
    <rect x="0" y="0" width="120" height="100" rx="10" fill="#14143A" stroke="#8B5CF6" stroke-width="1.8"/>
    <text x="60" y="22" text-anchor="middle" font-family="Inter, Helvetica, Arial, sans-serif" font-size="9" font-weight="700" letter-spacing="2" fill="#C4B5FD">THREAT TYPE</text>
    <text x="60" y="56" text-anchor="middle" font-family="Inter, Helvetica, Arial, sans-serif" font-size="22" font-weight="900" fill="#F5F7FA">HYPER</text>
    <text x="60" y="74" text-anchor="middle" font-family="Inter, Helvetica, Arial, sans-serif" font-size="22" font-weight="900" fill="#F5F7FA">VISOR</text>
    <text x="60" y="92" text-anchor="middle" font-family="Inter, Helvetica, Arial, sans-serif" font-size="9" font-weight="600" fill="#C4B5FD">backdoor</text>
    <circle cx="108" cy="12" r="4" fill="#8B5CF6">
      <animate attributeName="opacity" values="0.3;1;0.3" dur="2.2s" repeatCount="indefinite"/>
    </circle>
  </g>
</g>

<!-- Ambient severity indicator dots in header -->
<g opacity="0.85">
  <g fill="#F87171">
    <rect x="210" y="66" width="4" height="4" rx="1"><animate attributeName="opacity" values="0.2;1;0.2" dur="1.4s" repeatCount="indefinite"/></rect>
    <rect x="222" y="66" width="4" height="4" rx="1"><animate attributeName="opacity" values="0.2;1;0.2" dur="1.6s" begin="0.3s" repeatCount="indefinite"/></rect>
  </g>
  <g fill="#FFB703">
    <rect x="790" y="66" width="4" height="4" rx="1"><animate attributeName="opacity" values="0.2;1;0.2" dur="1.5s" repeatCount="indefinite"/></rect>
    <rect x="802" y="66" width="4" height="4" rx="1"><animate attributeName="opacity" values="0.2;1;0.2" dur="1.7s" begin="0.3s" repeatCount="indefinite"/></rect>
  </g>
</g>

<!-- Bottom story count badge -->
<rect x="110" y="606" width="170" height="20" rx="4" fill="#0A1226" stroke="#3A86FF" stroke-width="0.8" opacity="0.9"/>
<text x="195" y="620" text-anchor="middle" font-family="Inter, Helvetica, Arial, sans-serif" font-size="11" font-weight="700" fill="#8FB8FF" letter-spacing="1">29 stories - 2026.04.03</text>

<!-- cover-qr: https://tech.2twodragon.com/posts/2026/04/03/Tech_Security_Weekly_Digest_CVE_Patch_AWS_AI/ : 41x41 -->
<g transform="translate(1080,504)" filter="url(#softShadow)">
  <rect x="-8" y="-8" width="100" height="100" rx="6" fill="#FFFFFF"/>
  <g transform="scale(2.048780)" fill="#0A1020">
    <path d="M0 0h7v1h-7zM8 0h1v1h-1zM11 0h2v1h-2zM14 0h1v1h-1zM16 0h1v1h-1zM19 0h1v1h-1zM21 0h2v1h-2zM25 0h6v1h-6zM34 0h7v1h-7zM0 1h1v1h-1zM6 1h1v1h-1zM9 1h1v1h-1zM11 1h3v1h-3zM16 1h1v1h-1zM18 1h2v1h-2zM21 1h2v1h-2zM24 1h3v1h-3zM30 1h2v1h-2zM34 1h1v1h-1zM40 1h1v1h-1zM0 2h1v1h-1zM2 2h3v1h-3zM6 2h1v1h-1zM10 2h3v1h-3zM15 2h1v1h-1zM17 2h4v1h-4zM22 2h3v1h-3zM26 2h2v1h-2zM29 2h2v1h-2zM32 2h1v1h-1zM34 2h1v1h-1zM36 2h3v1h-3zM40 2h1v1h-1zM0 3h1v1h-1zM2 3h3v1h-3zM6 3h1v1h-1zM8 3h2v1h-2zM11 3h1v1h-1zM13 3h1v1h-1zM15 3h1v1h-1zM17 3h1v1h-1zM19 3h3v1h-3zM23 3h2v1h-2zM27 3h1v1h-1zM32 3h1v1h-1zM34 3h1v1h-1zM36 3h3v1h-3zM40 3h1v1h-1zM0 4h1v1h-1zM2 4h3v1h-3zM6 4h1v1h-1zM8 4h2v1h-2zM11 4h2v1h-2zM14 4h1v1h-1zM17 4h1v1h-1zM19 4h1v1h-1zM25 4h1v1h-1zM27 4h1v1h-1zM30 4h1v1h-1zM32 4h1v1h-1zM34 4h1v1h-1zM36 4h3v1h-3zM40 4h1v1h-1zM0 5h1v1h-1zM6 5h1v1h-1zM8 5h1v1h-1zM11 5h1v1h-1zM14 5h4v1h-4zM19 5h1v1h-1zM21 5h1v1h-1zM26 5h1v1h-1zM31 5h2v1h-2zM34 5h1v1h-1zM40 5h1v1h-1zM0 6h7v1h-7zM8 6h1v1h-1zM10 6h1v1h-1zM12 6h1v1h-1zM14 6h1v1h-1zM16 6h1v1h-1zM18 6h1v1h-1zM20 6h1v1h-1zM22 6h1v1h-1zM24 6h1v1h-1zM26 6h1v1h-1zM28 6h1v1h-1zM30 6h1v1h-1zM32 6h1v1h-1zM34 6h7v1h-7zM8 7h3v1h-3zM17 7h1v1h-1zM19 7h4v1h-4zM24 7h1v1h-1zM27 7h3v1h-3zM31 7h1v1h-1zM0 8h1v1h-1zM4 8h1v1h-1zM6 8h3v1h-3zM10 8h4v1h-4zM15 8h3v1h-3zM20 8h4v1h-4zM28 8h2v1h-2zM31 8h1v1h-1zM33 8h5v1h-5zM40 8h1v1h-1zM0 9h3v1h-3zM7 9h4v1h-4zM13 9h4v1h-4zM18 9h1v1h-1zM20 9h1v1h-1zM23 9h1v1h-1zM25 9h1v1h-1zM27 9h1v1h-1zM30 9h1v1h-1zM33 9h1v1h-1zM35 9h3v1h-3zM40 9h1v1h-1zM2 10h1v1h-1zM4 10h3v1h-3zM8 10h2v1h-2zM11 10h2v1h-2zM15 10h1v1h-1zM21 10h1v1h-1zM23 10h1v1h-1zM26 10h4v1h-4zM32 10h1v1h-1zM34 10h1v1h-1zM40 10h1v1h-1zM0 11h2v1h-2zM5 11h1v1h-1zM7 11h1v1h-1zM10 11h1v1h-1zM12 11h2v1h-2zM16 11h9v1h-9zM29 11h1v1h-1zM31 11h2v1h-2zM35 11h3v1h-3zM0 12h3v1h-3zM4 12h1v1h-1zM6 12h3v1h-3zM10 12h1v1h-1zM13 12h1v1h-1zM15 12h3v1h-3zM20 12h3v1h-3zM26 12h2v1h-2zM29 12h2v1h-2zM32 12h2v1h-2zM35 12h1v1h-1zM3 13h3v1h-3zM8 13h1v1h-1zM11 13h1v1h-1zM13 13h1v1h-1zM15 13h2v1h-2zM18 13h2v1h-2zM21 13h1v1h-1zM24 13h1v1h-1zM26 13h1v1h-1zM28 13h2v1h-2zM31 13h1v1h-1zM33 13h1v1h-1zM35 13h2v1h-2zM39 13h2v1h-2zM4 14h1v1h-1zM6 14h2v1h-2zM9 14h2v1h-2zM15 14h3v1h-3zM19 14h1v1h-1zM23 14h2v1h-2zM28 14h1v1h-1zM32 14h3v1h-3zM36 14h3v1h-3zM40 14h1v1h-1zM0 15h2v1h-2zM3 15h2v1h-2zM7 15h6v1h-6zM15 15h3v1h-3zM19 15h3v1h-3zM23 15h1v1h-1zM26 15h1v1h-1zM29 15h2v1h-2zM35 15h1v1h-1zM37 15h1v1h-1zM40 15h1v1h-1zM0 16h2v1h-2zM3 16h2v1h-2zM6 16h2v1h-2zM9 16h2v1h-2zM12 16h1v1h-1zM16 16h2v1h-2zM22 16h1v1h-1zM27 16h1v1h-1zM29 16h1v1h-1zM31 16h2v1h-2zM35 16h1v1h-1zM39 16h1v1h-1zM0 17h3v1h-3zM4 17h1v1h-1zM7 17h6v1h-6zM14 17h2v1h-2zM17 17h3v1h-3zM23 17h1v1h-1zM26 17h1v1h-1zM28 17h3v1h-3zM33 17h6v1h-6zM40 17h1v1h-1zM0 18h1v1h-1zM3 18h4v1h-4zM8 18h1v1h-1zM10 18h5v1h-5zM16 18h1v1h-1zM18 18h1v1h-1zM20 18h8v1h-8zM30 18h1v1h-1zM32 18h1v1h-1zM34 18h2v1h-2zM38 18h3v1h-3zM5 19h1v1h-1zM10 19h1v1h-1zM13 19h1v1h-1zM16 19h1v1h-1zM20 19h2v1h-2zM25 19h1v1h-1zM29 19h2v1h-2zM32 19h4v1h-4zM37 19h1v1h-1zM40 19h1v1h-1zM0 20h2v1h-2zM4 20h7v1h-7zM14 20h3v1h-3zM19 20h1v1h-1zM24 20h2v1h-2zM27 20h2v1h-2zM30 20h2v1h-2zM33 20h1v1h-1zM35 20h3v1h-3zM39 20h2v1h-2zM0 21h2v1h-2zM4 21h1v1h-1zM7 21h2v1h-2zM10 21h2v1h-2zM13 21h4v1h-4zM18 21h2v1h-2zM22 21h6v1h-6zM30 21h1v1h-1zM32 21h6v1h-6zM40 21h1v1h-1zM3 22h4v1h-4zM9 22h1v1h-1zM11 22h1v1h-1zM14 22h3v1h-3zM21 22h4v1h-4zM26 22h2v1h-2zM29 22h2v1h-2zM32 22h1v1h-1zM40 22h1v1h-1zM0 23h2v1h-2zM5 23h1v1h-1zM7 23h1v1h-1zM11 23h1v1h-1zM13 23h2v1h-2zM17 23h2v1h-2zM21 23h1v1h-1zM29 23h4v1h-4zM35 23h1v1h-1zM37 23h1v1h-1zM39 23h1v1h-1zM2 24h7v1h-7zM10 24h3v1h-3zM17 24h1v1h-1zM20 24h3v1h-3zM24 24h1v1h-1zM27 24h1v1h-1zM29 24h1v1h-1zM32 24h2v1h-2zM35 24h1v1h-1zM38 24h1v1h-1zM40 24h1v1h-1zM0 25h2v1h-2zM4 25h1v1h-1zM8 25h1v1h-1zM11 25h2v1h-2zM14 25h1v1h-1zM16 25h1v1h-1zM18 25h1v1h-1zM23 25h1v1h-1zM27 25h1v1h-1zM30 25h1v1h-1zM32 25h2v1h-2zM35 25h2v1h-2zM38 25h1v1h-1zM40 25h1v1h-1zM1 26h3v1h-3zM5 26h3v1h-3zM10 26h9v1h-9zM20 26h2v1h-2zM23 26h6v1h-6zM32 26h4v1h-4zM40 26h1v1h-1zM1 27h1v1h-1zM8 27h2v1h-2zM14 27h8v1h-8zM24 27h1v1h-1zM26 27h4v1h-4zM31 27h2v1h-2zM37 27h1v1h-1zM39 27h2v1h-2zM3 28h1v1h-1zM5 28h2v1h-2zM10 28h1v1h-1zM15 28h3v1h-3zM21 28h4v1h-4zM26 28h5v1h-5zM32 28h2v1h-2zM35 28h1v1h-1zM39 28h1v1h-1zM0 29h1v1h-1zM7 29h1v1h-1zM9 29h2v1h-2zM13 29h1v1h-1zM15 29h2v1h-2zM18 29h3v1h-3zM25 29h1v1h-1zM29 29h1v1h-1zM31 29h1v1h-1zM33 29h1v1h-1zM35 29h6v1h-6zM2 30h2v1h-2zM6 30h1v1h-1zM9 30h1v1h-1zM11 30h3v1h-3zM15 30h1v1h-1zM17 30h1v1h-1zM20 30h1v1h-1zM22 30h1v1h-1zM25 30h3v1h-3zM29 30h2v1h-2zM32 30h2v1h-2zM36 30h1v1h-1zM40 30h1v1h-1zM2 31h1v1h-1zM5 31h1v1h-1zM7 31h2v1h-2zM10 31h1v1h-1zM12 31h1v1h-1zM15 31h4v1h-4zM21 31h1v1h-1zM24 31h1v1h-1zM26 31h4v1h-4zM31 31h3v1h-3zM36 31h2v1h-2zM0 32h2v1h-2zM3 32h4v1h-4zM9 32h3v1h-3zM14 32h4v1h-4zM19 32h2v1h-2zM22 32h2v1h-2zM28 32h2v1h-2zM32 32h6v1h-6zM8 33h1v1h-1zM14 33h1v1h-1zM19 33h1v1h-1zM21 33h3v1h-3zM25 33h2v1h-2zM28 33h2v1h-2zM31 33h2v1h-2zM36 33h2v1h-2zM40 33h1v1h-1zM0 34h7v1h-7zM8 34h1v1h-1zM10 34h1v1h-1zM12 34h3v1h-3zM16 34h2v1h-2zM23 34h2v1h-2zM27 34h1v1h-1zM30 34h3v1h-3zM34 34h1v1h-1zM36 34h2v1h-2zM40 34h1v1h-1zM0 35h1v1h-1zM6 35h1v1h-1zM11 35h1v1h-1zM14 35h7v1h-7zM22 35h3v1h-3zM26 35h3v1h-3zM31 35h2v1h-2zM36 35h2v1h-2zM0 36h1v1h-1zM2 36h3v1h-3zM6 36h1v1h-1zM8 36h2v1h-2zM11 36h2v1h-2zM16 36h1v1h-1zM18 36h3v1h-3zM22 36h1v1h-1zM25 36h3v1h-3zM31 36h6v1h-6zM39 36h2v1h-2zM0 37h1v1h-1zM2 37h3v1h-3zM6 37h1v1h-1zM10 37h1v1h-1zM12 37h2v1h-2zM16 37h1v1h-1zM23 37h3v1h-3zM27 37h1v1h-1zM30 37h1v1h-1zM35 37h1v1h-1zM39 37h1v1h-1zM0 38h1v1h-1zM2 38h3v1h-3zM6 38h1v1h-1zM9 38h1v1h-1zM13 38h3v1h-3zM17 38h1v1h-1zM20 38h1v1h-1zM23 38h1v1h-1zM25 38h4v1h-4zM31 38h1v1h-1zM33 38h1v1h-1zM37 38h2v1h-2zM40 38h1v1h-1zM0 39h1v1h-1zM6 39h1v1h-1zM9 39h1v1h-1zM15 39h3v1h-3zM19 39h1v1h-1zM21 39h1v1h-1zM23 39h1v1h-1zM26 39h1v1h-1zM29 39h2v1h-2zM32 39h4v1h-4zM37 39h1v1h-1zM39 39h2v1h-2zM0 40h7v1h-7zM8 40h5v1h-5zM14 40h1v1h-1zM16 40h7v1h-7zM24 40h1v1h-1zM29 40h1v1h-1zM31 40h9v1h-9z"/>
  </g>
</g>
<text x="1122" y="614" font-family="Inter, Helvetica, Arial, sans-serif" font-size="10" font-weight="700" fill="#F5F7FA" text-anchor="middle">scan / full post</text>
</svg>
