<svg xmlns="http://www.w3.org/2000/svg" viewBox="0 0 1200 630" width="1200" height="630" role="img" aria-label="Research-based weekly digest cover for 2026-04-11: GlassWorm Zig dropper targeting developer IDEs via fake VSCode extension, Browser Extensions as silent AI consumption attack surface, Chrome 146 DBSC hardware-bound session cookie theft prevention on Windows, Marimo RCE CVE-2026-39987 actively exploited 10h post-disclosure">
<!-- profile: high-quality-cover (L13 Callouts, research-based) -->
<title>Weekly digest 2026-04-11: GlassWorm IDE, Browser Ext AI, Chrome 146 DBSC, Marimo RCE CVE</title>
<defs>
  <linearGradient id="bgSpread" x1="0%" y1="0%" x2="100%" y2="100%">
    <stop offset="0%" stop-color="#0A1226"/>
    <stop offset="55%" stop-color="#0D1530"/>
    <stop offset="100%" stop-color="#131038"/>
  </linearGradient>
  <linearGradient id="cardA" x1="0%" y1="0%" x2="0%" y2="100%">
    <stop offset="0%" stop-color="#2A0F16"/>
    <stop offset="100%" stop-color="#1E0A12"/>
  </linearGradient>
  <linearGradient id="cardB" x1="0%" y1="0%" x2="0%" y2="100%">
    <stop offset="0%" stop-color="#2A180A"/>
    <stop offset="100%" stop-color="#1E1006"/>
  </linearGradient>
  <linearGradient id="cardC" x1="0%" y1="0%" x2="0%" y2="100%">
    <stop offset="0%" stop-color="#0E2038"/>
    <stop offset="100%" stop-color="#0A1830"/>
  </linearGradient>
  <linearGradient id="cardD" x1="0%" y1="0%" x2="0%" y2="100%">
    <stop offset="0%" stop-color="#14143A"/>
    <stop offset="100%" stop-color="#0D0D30"/>
  </linearGradient>
  <linearGradient id="termGrad" x1="0%" y1="0%" x2="0%" y2="100%">
    <stop offset="0%" stop-color="#0D1F0D"/>
    <stop offset="100%" stop-color="#071507"/>
  </linearGradient>
  <radialGradient id="glowRed" cx="50%" cy="50%" r="50%">
    <stop offset="0%" stop-color="#E63946" stop-opacity="0.5"/>
    <stop offset="100%" stop-color="#E63946" stop-opacity="0"/>
  </radialGradient>
  <radialGradient id="glowAmber" cx="50%" cy="50%" r="50%">
    <stop offset="0%" stop-color="#FFB703" stop-opacity="0.5"/>
    <stop offset="100%" stop-color="#FFB703" stop-opacity="0"/>
  </radialGradient>
  <radialGradient id="glowBlue" cx="50%" cy="50%" r="50%">
    <stop offset="0%" stop-color="#3A86FF" stop-opacity="0.5"/>
    <stop offset="100%" stop-color="#3A86FF" stop-opacity="0"/>
  </radialGradient>
  <radialGradient id="glowPurple" cx="50%" cy="50%" r="50%">
    <stop offset="0%" stop-color="#8B5CF6" stop-opacity="0.55"/>
    <stop offset="100%" stop-color="#8B5CF6" stop-opacity="0"/>
  </radialGradient>
  <pattern id="dotGrid" x="0" y="0" width="40" height="40" patternUnits="userSpaceOnUse">
    <circle cx="20" cy="20" r="0.8" fill="#2A3256" opacity="0.55"/>
  </pattern>
  <filter id="softShadow" x="-10%" y="-10%" width="130%" height="130%">
    <feGaussianBlur in="SourceAlpha" stdDeviation="2.6"/>
    <feOffset dx="1" dy="3"/>
    <feComponentTransfer><feFuncA type="linear" slope="0.55"/></feComponentTransfer>
    <feMerge><feMergeNode/><feMergeNode in="SourceGraphic"/></feMerge>
  </filter>
  <filter id="textShadow" x="-5%" y="-5%" width="110%" height="110%">
    <feGaussianBlur in="SourceAlpha" stdDeviation="1.2"/>
    <feOffset dx="0" dy="1.5"/>
    <feComponentTransfer><feFuncA type="linear" slope="0.8"/></feComponentTransfer>
    <feMerge><feMergeNode/><feMergeNode in="SourceGraphic"/></feMerge>
  </filter>
</defs>

<rect width="1200" height="630" fill="url(#bgSpread)"/>
<rect width="1200" height="630" fill="url(#dotGrid)"/>

<!-- Ambient glows per quadrant -->
<circle cx="320" cy="220" r="120" fill="url(#glowRed)">
  <animate attributeName="opacity" values="0.5;0.85;0.5" dur="6.4s" repeatCount="indefinite"/>
</circle>
<circle cx="900" cy="220" r="120" fill="url(#glowAmber)">
  <animate attributeName="opacity" values="0.45;0.8;0.45" dur="5.6s" repeatCount="indefinite"/>
</circle>
<circle cx="320" cy="480" r="120" fill="url(#glowBlue)">
  <animate attributeName="opacity" values="0.4;0.75;0.4" dur="7.0s" repeatCount="indefinite"/>
</circle>
<circle cx="900" cy="480" r="120" fill="url(#glowPurple)">
  <animate attributeName="opacity" values="0.45;0.8;0.45" dur="6.2s" repeatCount="indefinite"/>
</circle>

<!-- HEADER BAR -->
<rect x="0" y="0" width="1200" height="56" fill="#050813" opacity="0.92"/>
<text x="36" y="36" font-family="Inter, Helvetica, Arial, sans-serif" font-size="18" font-weight="700" fill="#8FB8FF" letter-spacing="2.5">WEEKLY DIGEST</text>
<text x="1164" y="36" font-family="Inter, Helvetica, Arial, sans-serif" font-size="15" font-weight="600" fill="#7DA3D9" letter-spacing="1.5" text-anchor="end">2026.04.11</text>
<rect x="0" y="54" width="1200" height="2" fill="#F87171" opacity="0.85">
  <animate attributeName="opacity" values="0.4;1;0.4" dur="4.8s" repeatCount="indefinite"/>
</rect>

<!-- ============================================================ -->
<!-- CARD 01: GlassWorm Zig Dropper (top-left) RED/CRITICAL -->
<!-- ============================================================ -->
<g transform="translate(32,80)">
  <rect x="0" y="0" width="564" height="248" rx="14" fill="url(#cardA)" stroke="#E63946" stroke-width="1.6" opacity="0.97"/>
  <rect x="0" y="0" width="6" height="248" fill="#E63946"/>
  <rect x="0" y="0" width="564" height="4" fill="#E63946" opacity="0.7"/>
  <!-- Number badge -->
  <g transform="translate(20,18)">
    <rect x="0" y="0" width="40" height="40" rx="6" fill="#E63946" opacity="0.2"/>
    <text x="20" y="28" text-anchor="middle" font-family="Inter, Helvetica, Arial, sans-serif" font-size="22" font-weight="900" fill="#F87171">01</text>
  </g>
  <!-- Eyebrow + title -->
  <g filter="url(#textShadow)">
    <text x="74" y="36" font-family="Inter, Helvetica, Arial, sans-serif" font-size="12" font-weight="700" fill="#F87171" letter-spacing="2.4">CRITICAL  /  IDE SUPPLY CHAIN</text>
    <text x="74" y="58" font-family="Inter, Helvetica, Arial, sans-serif" font-size="21" font-weight="800" fill="#F5F7FA">GlassWorm Zig Dropper</text>
  </g>
  <text x="20" y="102" font-family="Inter, Helvetica, Arial, sans-serif" font-size="14" font-weight="500" fill="#FBB6BD">Fake VSCode extension infects all IDEs on developer machine</text>
  <!-- Terminal illustration -->
  <g transform="translate(24,116)" filter="url(#softShadow)">
    <rect x="0" y="0" width="280" height="112" rx="8" fill="url(#termGrad)" stroke="#4ADE80" stroke-width="1.2" opacity="0.92"/>
    <rect x="0" y="0" width="280" height="22" rx="8" fill="#0A1F0A" opacity="0.95"/>
    <circle cx="14" cy="11" r="4" fill="#E63946" opacity="0.85"/>
    <circle cx="28" cy="11" r="4" fill="#FFB703" opacity="0.85"/>
    <circle cx="42" cy="11" r="4" fill="#4ADE80" opacity="0.85"/>
    <text x="140" y="14" text-anchor="middle" font-family="Monaco, monospace" font-size="9" fill="#4ADE80" opacity="0.65">zig dropper analysis</text>
    <text x="12" y="38" font-family="Monaco, monospace" font-size="10" fill="#4ADE80">$ ls ~/.vscode/extensions/</text>
    <text x="12" y="54" font-family="Monaco, monospace" font-size="10" fill="#BFC9D9">specstudio.<tspan fill="#E63946">wakatime-activity-tracker</tspan></text>
    <text x="12" y="70" font-family="Monaco, monospace" font-size="10" fill="#FFB703">WARNING: multi-IDE infection payload</text>
    <text x="12" y="86" font-family="Monaco, monospace" font-size="10" fill="#4ADE80">VSCode JetBrains Vim Emacs Sublime</text>
    <text x="12" y="104" font-family="Monaco, monospace" font-size="10" fill="#4ADE80">_<animate attributeName="opacity" values="0;1;0" dur="1.0s" repeatCount="indefinite"/></text>
  </g>
  <!-- KPI card -->
  <g transform="translate(428,130)" filter="url(#softShadow)">
    <rect x="0" y="0" width="120" height="100" rx="10" fill="#1E0A14" stroke="#E63946" stroke-width="1.8"/>
    <text x="60" y="24" text-anchor="middle" font-family="Inter, Helvetica, Arial, sans-serif" font-size="10" font-weight="700" letter-spacing="2" fill="#F87171">IDES HIT</text>
    <text x="60" y="64" text-anchor="middle" font-family="Inter, Helvetica, Arial, sans-serif" font-size="38" font-weight="900" fill="#F5F7FA">4+</text>
    <text x="60" y="84" text-anchor="middle" font-family="Inter, Helvetica, Arial, sans-serif" font-size="10" font-weight="600" fill="#FBB6BD">Open VSX vector</text>
    <circle cx="108" cy="12" r="4" fill="#E63946" opacity="0.9">
      <animate attributeName="r" values="3;7;3" dur="1.8s" repeatCount="indefinite"/>
      <animate attributeName="opacity" values="0.9;0.3;0.9" dur="1.8s" repeatCount="indefinite"/>
    </circle>
  </g>
  <!-- Spark dots -->
  <g fill="#F87171">
    <circle cx="530" cy="26" r="1.4"><animate attributeName="opacity" values="0.2;1;0.2" dur="1.8s" repeatCount="indefinite"/></circle>
    <circle cx="546" cy="26" r="1.4"><animate attributeName="opacity" values="0.2;1;0.2" dur="1.4s" begin="0.3s" repeatCount="indefinite"/></circle>
  </g>
</g>

<!-- ============================================================ -->
<!-- CARD 02: Browser Extension AI Channel (top-right) AMBER/HIGH -->
<!-- ============================================================ -->
<g transform="translate(612,80)">
  <rect x="0" y="0" width="556" height="248" rx="14" fill="url(#cardB)" stroke="#FFB703" stroke-width="1.6" opacity="0.97"/>
  <rect x="0" y="0" width="6" height="248" fill="#FFB703"/>
  <rect x="0" y="0" width="556" height="4" fill="#FFB703" opacity="0.7"/>
  <g transform="translate(20,18)">
    <rect x="0" y="0" width="40" height="40" rx="6" fill="#FFB703" opacity="0.2"/>
    <text x="20" y="28" text-anchor="middle" font-family="Inter, Helvetica, Arial, sans-serif" font-size="22" font-weight="900" fill="#FFB703">02</text>
  </g>
  <g filter="url(#textShadow)">
    <text x="74" y="36" font-family="Inter, Helvetica, Arial, sans-serif" font-size="12" font-weight="700" fill="#FFB703" letter-spacing="2.4">HIGH  /  BROWSER THREAT SURFACE</text>
    <text x="74" y="58" font-family="Inter, Helvetica, Arial, sans-serif" font-size="21" font-weight="800" fill="#F5F7FA">Browser Extension AI Risk</text>
  </g>
  <text x="20" y="102" font-family="Inter, Helvetica, Arial, sans-serif" font-size="14" font-weight="500" fill="#FFD58A">Silent AI consumption channel no one is discussing</text>
  <!-- Extension icon stack -->
  <g transform="translate(24,118)" filter="url(#softShadow)">
    <!-- Browser outline -->
    <rect x="0" y="0" width="180" height="112" rx="8" fill="#1A1004" stroke="#FFB703" stroke-width="1.4"/>
    <rect x="0" y="0" width="180" height="24" rx="8" fill="#271800" opacity="0.95"/>
    <!-- URL bar -->
    <rect x="34" y="6" width="110" height="12" rx="3" fill="#3A2800" stroke="#FFB703" stroke-width="0.6"/>
    <text x="89" y="15" text-anchor="middle" font-family="Monaco, monospace" font-size="7" fill="#FFD58A">chrome-extension://</text>
    <!-- Puzzle piece icon (extension) -->
    <g transform="translate(52,36)">
      <rect x="0" y="8" width="36" height="32" rx="4" fill="#FFB703" opacity="0.9"/>
      <rect x="12" y="0" width="12" height="12" rx="3" fill="#FB8500"/>
      <rect x="36" y="14" width="12" height="10" rx="3" fill="#FB8500"/>
      <text x="18" y="30" text-anchor="middle" font-family="Inter, monospace" font-size="9" font-weight="800" fill="#1A0800">EXT</text>
    </g>
    <!-- AI label with glow -->
    <text x="110" y="60" font-family="Inter, Helvetica, Arial, sans-serif" font-size="22" font-weight="900" fill="#FFB703">AI</text>
    <text x="108" y="78" font-family="Monaco, monospace" font-size="8" fill="#FFD58A">data exfil risk</text>
    <text x="108" y="90" font-family="Monaco, monospace" font-size="8" fill="#FFD58A">prompt injection</text>
    <text x="108" y="102" font-family="Monaco, monospace" font-size="8" fill="#FFD58A">shadow IT vector</text>
  </g>
  <!-- KPI card -->
  <g transform="translate(420,130)" filter="url(#softShadow)">
    <rect x="0" y="0" width="120" height="100" rx="10" fill="#1E1006" stroke="#FFB703" stroke-width="1.8"/>
    <text x="60" y="24" text-anchor="middle" font-family="Inter, Helvetica, Arial, sans-serif" font-size="10" font-weight="700" letter-spacing="2" fill="#FFB703">RISK LEVEL</text>
    <text x="60" y="66" text-anchor="middle" font-family="Inter, Helvetica, Arial, sans-serif" font-size="22" font-weight="900" fill="#F5F7FA">HIGH</text>
    <text x="60" y="86" text-anchor="middle" font-family="Inter, Helvetica, Arial, sans-serif" font-size="10" font-weight="600" fill="#FFD58A">shadow AI channel</text>
  </g>
  <g fill="#FFB703">
    <rect x="522" y="62" width="4" height="4" rx="1"><animate attributeName="opacity" values="0.2;1;0.2" dur="1.5s" repeatCount="indefinite"/></rect>
    <rect x="534" y="62" width="4" height="4" rx="1"><animate attributeName="opacity" values="0.2;1;0.2" dur="1.7s" begin="0.3s" repeatCount="indefinite"/></rect>
  </g>
</g>

<!-- ============================================================ -->
<!-- CARD 03: Chrome 146 DBSC (bottom-left) BLUE/MEDIUM -->
<!-- ============================================================ -->
<g transform="translate(32,348)">
  <rect x="0" y="0" width="564" height="242" rx="14" fill="url(#cardC)" stroke="#3A86FF" stroke-width="1.6" opacity="0.97"/>
  <rect x="0" y="0" width="6" height="242" fill="#3A86FF"/>
  <rect x="0" y="0" width="564" height="4" fill="#3A86FF" opacity="0.7"/>
  <g transform="translate(20,18)">
    <rect x="0" y="0" width="40" height="40" rx="6" fill="#3A86FF" opacity="0.2"/>
    <text x="20" y="28" text-anchor="middle" font-family="Inter, Helvetica, Arial, sans-serif" font-size="22" font-weight="900" fill="#8FB8FF">03</text>
  </g>
  <g filter="url(#textShadow)">
    <text x="74" y="36" font-family="Inter, Helvetica, Arial, sans-serif" font-size="12" font-weight="700" fill="#8FB8FF" letter-spacing="2.4">MEDIUM  /  BROWSER DEFENSE</text>
    <text x="74" y="58" font-family="Inter, Helvetica, Arial, sans-serif" font-size="21" font-weight="800" fill="#F5F7FA">Chrome 146 DBSC</text>
  </g>
  <text x="20" y="102" font-family="Inter, Helvetica, Arial, sans-serif" font-size="14" font-weight="500" fill="#BFC9D9">Hardware-bound session tokens block cookie theft on Windows</text>
  <!-- Shield + lock illustration -->
  <g transform="translate(28,116)" filter="url(#softShadow)">
    <!-- Shield shape (simplified) -->
    <path d="M110 8 L204 36 L204 96 Q204 132 110 148 Q16 132 16 96 L16 36 Z" fill="#0A1B2E" stroke="#3A86FF" stroke-width="1.8" opacity="0.92"/>
    <path d="M110 22 L192 44 L192 94 Q192 122 110 134 Q28 122 28 94 L28 44 Z" fill="none" stroke="#8FB8FF" stroke-width="0.8" opacity="0.35"/>
    <!-- Lock body -->
    <rect x="88" y="76" width="44" height="36" rx="6" fill="#3A86FF" opacity="0.85"/>
    <!-- Shackle -->
    <path d="M96 76 L96 60 Q96 46 110 46 Q124 46 124 60 L124 76" fill="none" stroke="#8FB8FF" stroke-width="3" stroke-linecap="round"/>
    <!-- Keyhole -->
    <circle cx="110" cy="90" r="5" fill="#0A1A2E" opacity="0.9"/>
    <rect x="108" y="90" width="4" height="10" rx="2" fill="#0A1A2E" opacity="0.9"/>
    <!-- DBSC label -->
    <text x="110" y="140" text-anchor="middle" font-family="Monaco, monospace" font-size="12" font-weight="700" fill="#8FB8FF">DBSC</text>
    <!-- Pulse ring -->
    <ellipse cx="110" cy="88" rx="68" ry="60" fill="none" stroke="#3A86FF" stroke-width="1.2" opacity="0.0">
      <animate attributeName="rx" values="68;88;68" dur="3s" repeatCount="indefinite"/>
      <animate attributeName="ry" values="60;80;60" dur="3s" repeatCount="indefinite"/>
      <animate attributeName="opacity" values="0.25;0;0.25" dur="3s" repeatCount="indefinite"/>
    </ellipse>
  </g>
  <!-- Capability list -->
  <g transform="translate(260,130)">
    <g>
      <circle cx="8" cy="8" r="4" fill="#3A86FF"/>
      <text x="22" y="12" font-family="Inter, Helvetica, Arial, sans-serif" font-size="12" font-weight="600" fill="#BFC9D9">Hardware-bound tokens</text>
    </g>
    <g transform="translate(0,22)">
      <circle cx="8" cy="8" r="4" fill="#3A86FF"/>
      <text x="22" y="12" font-family="Inter, Helvetica, Arial, sans-serif" font-size="12" font-weight="600" fill="#BFC9D9">Session cookie protection</text>
    </g>
    <g transform="translate(0,44)">
      <circle cx="8" cy="8" r="4" fill="#3A86FF"/>
      <text x="22" y="12" font-family="Inter, Helvetica, Arial, sans-serif" font-size="12" font-weight="600" fill="#BFC9D9">Windows TPM integration</text>
    </g>
    <g transform="translate(0,66)">
      <circle cx="8" cy="8" r="4" fill="#3A86FF"/>
      <text x="22" y="12" font-family="Inter, Helvetica, Arial, sans-serif" font-size="12" font-weight="600" fill="#BFC9D9">Google deployment v146</text>
    </g>
  </g>
  <!-- KPI card -->
  <g transform="translate(428,124)" filter="url(#softShadow)">
    <rect x="0" y="0" width="120" height="100" rx="10" fill="#0A1B2E" stroke="#3A86FF" stroke-width="1.8"/>
    <text x="60" y="24" text-anchor="middle" font-family="Inter, Helvetica, Arial, sans-serif" font-size="10" font-weight="700" letter-spacing="2" fill="#8FB8FF">CHROME VER</text>
    <text x="60" y="64" text-anchor="middle" font-family="Inter, Helvetica, Arial, sans-serif" font-size="34" font-weight="900" fill="#F5F7FA">146</text>
    <text x="60" y="84" text-anchor="middle" font-family="Inter, Helvetica, Arial, sans-serif" font-size="10" font-weight="600" fill="#8FB8FF">DBSC live</text>
  </g>
</g>

<!-- ============================================================ -->
<!-- CARD 04: Marimo RCE CVE-2026-39987 (bottom-right) PURPLE/TREND -->
<!-- ============================================================ -->
<g transform="translate(612,348)">
  <rect x="0" y="0" width="556" height="242" rx="14" fill="url(#cardD)" stroke="#8B5CF6" stroke-width="1.6" opacity="0.97"/>
  <rect x="0" y="0" width="6" height="242" fill="#8B5CF6"/>
  <rect x="0" y="0" width="556" height="4" fill="#8B5CF6" opacity="0.7"/>
  <g transform="translate(20,18)">
    <rect x="0" y="0" width="40" height="40" rx="6" fill="#8B5CF6" opacity="0.2"/>
    <text x="20" y="28" text-anchor="middle" font-family="Inter, Helvetica, Arial, sans-serif" font-size="22" font-weight="900" fill="#C4B5FD">04</text>
  </g>
  <g filter="url(#textShadow)">
    <text x="74" y="36" font-family="Inter, Helvetica, Arial, sans-serif" font-size="12" font-weight="700" fill="#C4B5FD" letter-spacing="2.4">CRITICAL  /  ACTIVE EXPLOIT</text>
    <text x="74" y="58" font-family="Inter, Helvetica, Arial, sans-serif" font-size="21" font-weight="800" fill="#F5F7FA">Marimo CVE-2026-39987</text>
  </g>
  <text x="20" y="102" font-family="Inter, Helvetica, Arial, sans-serif" font-size="14" font-weight="500" fill="#DDD6FE">Python notebook RCE -- exploited 10h post-disclosure</text>
  <!-- CVE card illustration -->
  <g transform="translate(24,116)" filter="url(#softShadow)">
    <rect x="0" y="0" width="260" height="108" rx="8" fill="#120E2E" stroke="#8B5CF6" stroke-width="1.8" opacity="0.95"/>
    <rect x="0" y="0" width="260" height="28" rx="8" fill="#1A1640" opacity="0.95"/>
    <text x="130" y="18" text-anchor="middle" font-family="Monaco, monospace" font-size="12" font-weight="700" letter-spacing="1" fill="#C4B5FD">CVE-2026-39987</text>
    <rect x="186" y="5" width="68" height="18" rx="4" fill="#8B5CF6" opacity="0.9"/>
    <text x="220" y="17" text-anchor="middle" font-family="Inter, Helvetica, Arial, sans-serif" font-size="10" font-weight="800" fill="#F5F7FA">CRITICAL</text>
    <text x="12" y="48" font-family="Monaco, monospace" font-size="10" fill="#C4B5FD">Type   : Remote Code Execution</text>
    <text x="12" y="66" font-family="Monaco, monospace" font-size="10" fill="#DDD6FE">Target : Marimo Python notebook</text>
    <text x="12" y="84" font-family="Monaco, monospace" font-size="10" fill="#F87171">Status : ACTIVELY EXPLOITED</text>
    <text x="12" y="100" font-family="Monaco, monospace" font-size="10" fill="#FFB703">Window : 10h post-disclosure</text>
  </g>
  <!-- KPI card -->
  <g transform="translate(420,124)" filter="url(#softShadow)">
    <rect x="0" y="0" width="120" height="100" rx="10" fill="#14143A" stroke="#8B5CF6" stroke-width="1.8"/>
    <text x="60" y="24" text-anchor="middle" font-family="Inter, Helvetica, Arial, sans-serif" font-size="10" font-weight="700" letter-spacing="2" fill="#C4B5FD">EXPLOIT</text>
    <text x="60" y="64" text-anchor="middle" font-family="Inter, Helvetica, Arial, sans-serif" font-size="34" font-weight="900" fill="#F5F7FA">10h</text>
    <text x="60" y="84" text-anchor="middle" font-family="Inter, Helvetica, Arial, sans-serif" font-size="10" font-weight="600" fill="#C4B5FD">post-disclosure</text>
    <circle cx="108" cy="12" r="4" fill="#8B5CF6" opacity="0.9">
      <animate attributeName="r" values="3;7;3" dur="1.4s" repeatCount="indefinite"/>
      <animate attributeName="opacity" values="0.9;0.3;0.9" dur="1.4s" repeatCount="indefinite"/>
    </circle>
  </g>
  <!-- Spark indicators -->
  <g fill="#8B5CF6">
    <rect x="522" y="62" width="4" height="4" rx="1"><animate attributeName="opacity" values="0.2;1;0.2" dur="1.6s" repeatCount="indefinite"/></rect>
    <rect x="534" y="62" width="4" height="4" rx="1"><animate attributeName="opacity" values="0.2;1;0.2" dur="1.9s" begin="0.4s" repeatCount="indefinite"/></rect>
  </g>
</g>

<!-- cover-qr placeholder (re-added by add_cover_qr.py) -->

<text x="600" y="622" text-anchor="middle" font-family="Inter, Helvetica, Arial, sans-serif" font-size="12" font-weight="600" letter-spacing="1.5" fill="#BFC9D9" opacity="0.55">tech.2twodragon.com -- 26 news items analyzed</text>
<!-- cover-qr: https://tech.2twodragon.com/posts/2026/04/11/Tech_Security_Weekly_Digest_AI_Go_CVE_Update/ : 41x41 -->
<g transform="translate(1080,504)" filter="url(#softShadow)">
  <rect x="-8" y="-8" width="100" height="100" rx="6" fill="#FFFFFF"/>
  <path fill="#0A1020" d="M0.0 0.0h14.341v2.049h-14.341z M16.39 0.0h4.098v2.049h-4.098z M22.537 0.0h4.098v2.049h-4.098z M30.732 0.0h2.049v2.049h-2.049z M36.878 0.0h2.049v2.049h-2.049z M43.024 0.0h4.098v2.049h-4.098z M51.22 0.0h8.195v2.049h-8.195z M61.463 0.0h2.049v2.049h-2.049z M69.659 0.0h14.341v2.049h-14.341z M0.0 2.049h2.049v2.049h-2.049z M12.293 2.049h2.049v2.049h-2.049z M20.488 2.049h2.049v2.049h-2.049z M24.585 2.049h2.049v2.049h-2.049z M28.683 2.049h2.049v2.049h-2.049z M36.878 2.049h4.098v2.049h-4.098z M43.024 2.049h4.098v2.049h-4.098z M49.171 2.049h6.146v2.049h-6.146z M63.512 2.049h2.049v2.049h-2.049z M69.659 2.049h2.049v2.049h-2.049z M81.951 2.049h2.049v2.049h-2.049z M0.0 4.098h2.049v2.049h-2.049z M4.098 4.098h6.146v2.049h-6.146z M12.293 4.098h2.049v2.049h-2.049z M20.488 4.098h4.098v2.049h-4.098z M26.634 4.098h2.049v2.049h-2.049z M30.732 4.098h12.293v2.049h-12.293z M45.073 4.098h6.146v2.049h-6.146z M53.268 4.098h4.098v2.049h-4.098z M59.415 4.098h4.098v2.049h-4.098z M65.561 4.098h2.049v2.049h-2.049z M69.659 4.098h2.049v2.049h-2.049z M73.756 4.098h6.146v2.049h-6.146z M81.951 4.098h2.049v2.049h-2.049z M0.0 6.146h2.049v2.049h-2.049z M4.098 6.146h6.146v2.049h-6.146z M12.293 6.146h2.049v2.049h-2.049z M16.39 6.146h4.098v2.049h-4.098z M22.537 6.146h2.049v2.049h-2.049z M26.634 6.146h10.244v2.049h-10.244z M40.976 6.146h4.098v2.049h-4.098z M47.122 6.146h4.098v2.049h-4.098z M55.317 6.146h2.049v2.049h-2.049z M65.561 6.146h2.049v2.049h-2.049z M69.659 6.146h2.049v2.049h-2.049z M73.756 6.146h6.146v2.049h-6.146z M81.951 6.146h2.049v2.049h-2.049z M0.0 8.195h2.049v2.049h-2.049z M4.098 8.195h6.146v2.049h-6.146z M12.293 8.195h2.049v2.049h-2.049z M16.39 8.195h4.098v2.049h-4.098z M28.683 8.195h4.098v2.049h-4.098z M34.829 8.195h2.049v2.049h-2.049z M38.927 8.195h2.049v2.049h-2.049z M51.22 8.195h2.049v2.049h-2.049z M55.317 8.195h2.049v2.049h-2.049z M61.463 8.195h2.049v2.049h-2.049z M65.561 8.195h2.049v2.049h-2.049z M69.659 8.195h2.049v2.049h-2.049z M73.756 8.195h6.146v2.049h-6.146z M81.951 8.195h2.049v2.049h-2.049z M0.0 10.244h2.049v2.049h-2.049z M12.293 10.244h2.049v2.049h-2.049z M16.39 10.244h2.049v2.049h-2.049z M22.537 10.244h4.098v2.049h-4.098z M28.683 10.244h2.049v2.049h-2.049z M32.78 10.244h4.098v2.049h-4.098z M38.927 10.244h2.049v2.049h-2.049z M43.024 10.244h2.049v2.049h-2.049z M53.268 10.244h2.049v2.049h-2.049z M63.512 10.244h4.098v2.049h-4.098z M69.659 10.244h2.049v2.049h-2.049z M81.951 10.244h2.049v2.049h-2.049z M0.0 12.293h14.341v2.049h-14.341z M16.39 12.293h2.049v2.049h-2.049z M20.488 12.293h2.049v2.049h-2.049z M24.585 12.293h2.049v2.049h-2.049z M28.683 12.293h2.049v2.049h-2.049z M32.78 12.293h2.049v2.049h-2.049z M36.878 12.293h2.049v2.049h-2.049z M40.976 12.293h2.049v2.049h-2.049z M45.073 12.293h2.049v2.049h-2.049z M49.171 12.293h2.049v2.049h-2.049z M53.268 12.293h2.049v2.049h-2.049z M57.366 12.293h2.049v2.049h-2.049z M61.463 12.293h2.049v2.049h-2.049z M65.561 12.293h2.049v2.049h-2.049z M69.659 12.293h14.341v2.049h-14.341z M16.39 14.341h6.146v2.049h-6.146z M32.78 14.341h4.098v2.049h-4.098z M38.927 14.341h8.195v2.049h-8.195z M49.171 14.341h2.049v2.049h-2.049z M55.317 14.341h6.146v2.049h-6.146z M63.512 14.341h2.049v2.049h-2.049z M0.0 16.39h2.049v2.049h-2.049z M8.195 16.39h2.049v2.049h-2.049z M12.293 16.39h6.146v2.049h-6.146z M20.488 16.39h8.195v2.049h-8.195z M32.78 16.39h4.098v2.049h-4.098z M40.976 16.39h8.195v2.049h-8.195z M57.366 16.39h4.098v2.049h-4.098z M63.512 16.39h2.049v2.049h-2.049z M67.61 16.39h10.244v2.049h-10.244z M81.951 16.39h2.049v2.049h-2.049z M0.0 18.439h2.049v2.049h-2.049z M10.244 18.439h2.049v2.049h-2.049z M14.341 18.439h2.049v2.049h-2.049z M18.439 18.439h4.098v2.049h-4.098z M28.683 18.439h6.146v2.049h-6.146z M36.878 18.439h2.049v2.049h-2.049z M40.976 18.439h2.049v2.049h-2.049z M47.122 18.439h2.049v2.049h-2.049z M51.22 18.439h2.049v2.049h-2.049z M55.317 18.439h2.049v2.049h-2.049z M61.463 18.439h2.049v2.049h-2.049z M67.61 18.439h2.049v2.049h-2.049z M71.707 18.439h6.146v2.049h-6.146z M0.0 20.488h10.244v2.049h-10.244z M12.293 20.488h2.049v2.049h-2.049z M16.39 20.488h2.049v2.049h-2.049z M20.488 20.488h6.146v2.049h-6.146z M30.732 20.488h2.049v2.049h-2.049z M43.024 20.488h2.049v2.049h-2.049z M47.122 20.488h2.049v2.049h-2.049z M53.268 20.488h8.195v2.049h-8.195z M65.561 20.488h6.146v2.049h-6.146z M81.951 20.488h2.049v2.049h-2.049z M0.0 22.537h4.098v2.049h-4.098z M6.146 22.537h2.049v2.049h-2.049z M14.341 22.537h2.049v2.049h-2.049z M18.439 22.537h4.098v2.049h-4.098z M24.585 22.537h4.098v2.049h-4.098z M32.78 22.537h18.439v2.049h-18.439z M59.415 22.537h2.049v2.049h-2.049z M63.512 22.537h14.341v2.049h-14.341z M79.902 22.537h2.049v2.049h-2.049z M2.049 24.585h6.146v2.049h-6.146z M12.293 24.585h2.049v2.049h-2.049z M26.634 24.585h2.049v2.049h-2.049z M30.732 24.585h6.146v2.049h-6.146z M40.976 24.585h6.146v2.049h-6.146z M53.268 24.585h4.098v2.049h-4.098z M59.415 24.585h4.098v2.049h-4.098z M65.561 24.585h4.098v2.049h-4.098z M71.707 24.585h2.049v2.049h-2.049z M79.902 24.585h2.049v2.049h-2.049z M6.146 26.634h4.098v2.049h-4.098z M14.341 26.634h2.049v2.049h-2.049z M18.439 26.634h22.537v2.049h-22.537z M43.024 26.634h2.049v2.049h-2.049z M49.171 26.634h2.049v2.049h-2.049z M53.268 26.634h2.049v2.049h-2.049z M57.366 26.634h4.098v2.049h-4.098z M69.659 26.634h6.146v2.049h-6.146z M79.902 26.634h4.098v2.049h-4.098z M8.195 28.683h2.049v2.049h-2.049z M12.293 28.683h8.195v2.049h-8.195z M22.537 28.683h2.049v2.049h-2.049z M36.878 28.683h4.098v2.049h-4.098z M47.122 28.683h4.098v2.049h-4.098z M57.366 28.683h2.049v2.049h-2.049z M67.61 28.683h4.098v2.049h-4.098z M73.756 28.683h6.146v2.049h-6.146z M81.951 28.683h2.049v2.049h-2.049z M0.0 30.732h10.244v2.049h-10.244z M14.341 30.732h2.049v2.049h-2.049z M18.439 30.732h2.049v2.049h-2.049z M22.537 30.732h4.098v2.049h-4.098z M30.732 30.732h2.049v2.049h-2.049z M34.829 30.732h10.244v2.049h-10.244z M47.122 30.732h2.049v2.049h-2.049z M53.268 30.732h2.049v2.049h-2.049z M59.415 30.732h4.098v2.049h-4.098z M65.561 30.732h2.049v2.049h-2.049z M71.707 30.732h2.049v2.049h-2.049z M75.805 30.732h2.049v2.049h-2.049z M81.951 30.732h2.049v2.049h-2.049z M0.0 32.78h4.098v2.049h-4.098z M6.146 32.78h4.098v2.049h-4.098z M12.293 32.78h4.098v2.049h-4.098z M20.488 32.78h2.049v2.049h-2.049z M24.585 32.78h4.098v2.049h-4.098z M30.732 32.78h2.049v2.049h-2.049z M40.976 32.78h2.049v2.049h-2.049z M45.073 32.78h2.049v2.049h-2.049z M55.317 32.78h2.049v2.049h-2.049z M59.415 32.78h2.049v2.049h-2.049z M63.512 32.78h4.098v2.049h-4.098z M71.707 32.78h2.049v2.049h-2.049z M79.902 32.78h2.049v2.049h-2.049z M2.049 34.829h4.098v2.049h-4.098z M14.341 34.829h4.098v2.049h-4.098z M24.585 34.829h6.146v2.049h-6.146z M34.829 34.829h2.049v2.049h-2.049z M38.927 34.829h2.049v2.049h-2.049z M47.122 34.829h2.049v2.049h-2.049z M53.268 34.829h2.049v2.049h-2.049z M57.366 34.829h6.146v2.049h-6.146z M67.61 34.829h12.293v2.049h-12.293z M81.951 34.829h2.049v2.049h-2.049z M6.146 36.878h2.049v2.049h-2.049z M10.244 36.878h4.098v2.049h-4.098z M16.39 36.878h8.195v2.049h-8.195z M26.634 36.878h4.098v2.049h-4.098z M36.878 36.878h2.049v2.049h-2.049z M40.976 36.878h16.39v2.049h-16.39z M61.463 36.878h2.049v2.049h-2.049z M65.561 36.878h2.049v2.049h-2.049z M69.659 36.878h4.098v2.049h-4.098z M77.854 36.878h6.146v2.049h-6.146z M0.0 38.927h4.098v2.049h-4.098z M10.244 38.927h2.049v2.049h-2.049z M18.439 38.927h2.049v2.049h-2.049z M30.732 38.927h2.049v2.049h-2.049z M38.927 38.927h6.146v2.049h-6.146z M51.22 38.927h2.049v2.049h-2.049z M59.415 38.927h4.098v2.049h-4.098z M65.561 38.927h8.195v2.049h-8.195z M75.805 38.927h2.049v2.049h-2.049z M81.951 38.927h2.049v2.049h-2.049z M0.0 40.976h2.049v2.049h-2.049z M6.146 40.976h2.049v2.049h-2.049z M10.244 40.976h10.244v2.049h-10.244z M22.537 40.976h2.049v2.049h-2.049z M26.634 40.976h2.049v2.049h-2.049z M32.78 40.976h2.049v2.049h-2.049z M49.171 40.976h4.098v2.049h-4.098z M55.317 40.976h4.098v2.049h-4.098z M61.463 40.976h4.098v2.049h-4.098z M67.61 40.976h2.049v2.049h-2.049z M71.707 40.976h2.049v2.049h-2.049z M75.805 40.976h2.049v2.049h-2.049z M79.902 40.976h4.098v2.049h-4.098z M0.0 43.024h2.049v2.049h-2.049z M4.098 43.024h8.195v2.049h-8.195z M14.341 43.024h2.049v2.049h-2.049z M24.585 43.024h4.098v2.049h-4.098z M32.78 43.024h2.049v2.049h-2.049z M36.878 43.024h4.098v2.049h-4.098z M45.073 43.024h12.293v2.049h-12.293z M61.463 43.024h2.049v2.049h-2.049z M65.561 43.024h10.244v2.049h-10.244z M77.854 43.024h2.049v2.049h-2.049z M81.951 43.024h2.049v2.049h-2.049z M4.098 45.073h6.146v2.049h-6.146z M12.293 45.073h2.049v2.049h-2.049z M18.439 45.073h2.049v2.049h-2.049z M28.683 45.073h6.146v2.049h-6.146z M43.024 45.073h8.195v2.049h-8.195z M53.268 45.073h4.098v2.049h-4.098z M59.415 45.073h4.098v2.049h-4.098z M65.561 45.073h2.049v2.049h-2.049z M75.805 45.073h2.049v2.049h-2.049z M81.951 45.073h2.049v2.049h-2.049z M0.0 47.122h2.049v2.049h-2.049z M10.244 47.122h2.049v2.049h-2.049z M16.39 47.122h2.049v2.049h-2.049z M22.537 47.122h2.049v2.049h-2.049z M26.634 47.122h12.293v2.049h-12.293z M43.024 47.122h2.049v2.049h-2.049z M47.122 47.122h2.049v2.049h-2.049z M59.415 47.122h8.195v2.049h-8.195z M75.805 47.122h2.049v2.049h-2.049z M79.902 47.122h2.049v2.049h-2.049z M0.0 49.171h6.146v2.049h-6.146z M8.195 49.171h2.049v2.049h-2.049z M12.293 49.171h4.098v2.049h-4.098z M20.488 49.171h6.146v2.049h-6.146z M30.732 49.171h2.049v2.049h-2.049z M34.829 49.171h2.049v2.049h-2.049z M40.976 49.171h6.146v2.049h-6.146z M49.171 49.171h2.049v2.049h-2.049z M55.317 49.171h2.049v2.049h-2.049z M59.415 49.171h2.049v2.049h-2.049z M65.561 49.171h4.098v2.049h-4.098z M71.707 49.171h2.049v2.049h-2.049z M77.854 49.171h2.049v2.049h-2.049z M81.951 49.171h2.049v2.049h-2.049z M0.0 51.22h4.098v2.049h-4.098z M6.146 51.22h6.146v2.049h-6.146z M16.39 51.22h4.098v2.049h-4.098z M22.537 51.22h4.098v2.049h-4.098z M28.683 51.22h2.049v2.049h-2.049z M32.78 51.22h2.049v2.049h-2.049z M36.878 51.22h2.049v2.049h-2.049z M47.122 51.22h2.049v2.049h-2.049z M55.317 51.22h2.049v2.049h-2.049z M61.463 51.22h2.049v2.049h-2.049z M65.561 51.22h4.098v2.049h-4.098z M71.707 51.22h4.098v2.049h-4.098z M77.854 51.22h4.098v2.049h-4.098z M0.0 53.268h4.098v2.049h-4.098z M6.146 53.268h4.098v2.049h-4.098z M12.293 53.268h4.098v2.049h-4.098z M20.488 53.268h6.146v2.049h-6.146z M30.732 53.268h8.195v2.049h-8.195z M40.976 53.268h4.098v2.049h-4.098z M47.122 53.268h12.293v2.049h-12.293z M65.561 53.268h2.049v2.049h-2.049z M69.659 53.268h4.098v2.049h-4.098z M81.951 53.268h2.049v2.049h-2.049z M0.0 55.317h6.146v2.049h-6.146z M10.244 55.317h2.049v2.049h-2.049z M14.341 55.317h2.049v2.049h-2.049z M18.439 55.317h2.049v2.049h-2.049z M30.732 55.317h14.341v2.049h-14.341z M49.171 55.317h2.049v2.049h-2.049z M53.268 55.317h8.195v2.049h-8.195z M63.512 55.317h8.195v2.049h-8.195z M75.805 55.317h2.049v2.049h-2.049z M0.0 57.366h6.146v2.049h-6.146z M8.195 57.366h2.049v2.049h-2.049z M12.293 57.366h2.049v2.049h-2.049z M18.439 57.366h2.049v2.049h-2.049z M24.585 57.366h2.049v2.049h-2.049z M28.683 57.366h4.098v2.049h-4.098z M34.829 57.366h2.049v2.049h-2.049z M43.024 57.366h8.195v2.049h-8.195z M53.268 57.366h10.244v2.049h-10.244z M67.61 57.366h2.049v2.049h-2.049z M71.707 57.366h2.049v2.049h-2.049z M0.0 59.415h8.195v2.049h-8.195z M10.244 59.415h2.049v2.049h-2.049z M18.439 59.415h2.049v2.049h-2.049z M22.537 59.415h2.049v2.049h-2.049z M30.732 59.415h2.049v2.049h-2.049z M34.829 59.415h8.195v2.049h-8.195z M51.22 59.415h2.049v2.049h-2.049z M59.415 59.415h2.049v2.049h-2.049z M69.659 59.415h14.341v2.049h-14.341z M4.098 61.463h4.098v2.049h-4.098z M12.293 61.463h4.098v2.049h-4.098z M28.683 61.463h4.098v2.049h-4.098z M36.878 61.463h2.049v2.049h-2.049z M40.976 61.463h6.146v2.049h-6.146z M51.22 61.463h6.146v2.049h-6.146z M59.415 61.463h4.098v2.049h-4.098z M65.561 61.463h4.098v2.049h-4.098z M73.756 61.463h2.049v2.049h-2.049z M81.951 61.463h2.049v2.049h-2.049z M6.146 63.512h2.049v2.049h-2.049z M10.244 63.512h2.049v2.049h-2.049z M16.39 63.512h2.049v2.049h-2.049z M24.585 63.512h2.049v2.049h-2.049z M32.78 63.512h6.146v2.049h-6.146z M43.024 63.512h2.049v2.049h-2.049z M49.171 63.512h2.049v2.049h-2.049z M53.268 63.512h8.195v2.049h-8.195z M67.61 63.512h2.049v2.049h-2.049z M73.756 63.512h4.098v2.049h-4.098z M0.0 65.561h4.098v2.049h-4.098z M6.146 65.561h8.195v2.049h-8.195z M18.439 65.561h2.049v2.049h-2.049z M24.585 65.561h2.049v2.049h-2.049z M38.927 65.561h2.049v2.049h-2.049z M45.073 65.561h4.098v2.049h-4.098z M57.366 65.561h4.098v2.049h-4.098z M63.512 65.561h14.341v2.049h-14.341z M16.39 67.61h6.146v2.049h-6.146z M32.78 67.61h2.049v2.049h-2.049z M36.878 67.61h4.098v2.049h-4.098z M43.024 67.61h2.049v2.049h-2.049z M47.122 67.61h2.049v2.049h-2.049z M51.22 67.61h4.098v2.049h-4.098z M57.366 67.61h4.098v2.049h-4.098z M63.512 67.61h4.098v2.049h-4.098z M73.756 67.61h4.098v2.049h-4.098z M81.951 67.61h2.049v2.049h-2.049z M0.0 69.659h14.341v2.049h-14.341z M16.39 69.659h2.049v2.049h-2.049z M20.488 69.659h2.049v2.049h-2.049z M26.634 69.659h4.098v2.049h-4.098z M32.78 69.659h4.098v2.049h-4.098z M40.976 69.659h2.049v2.049h-2.049z M47.122 69.659h4.098v2.049h-4.098z M55.317 69.659h2.049v2.049h-2.049z M61.463 69.659h6.146v2.049h-6.146z M69.659 69.659h2.049v2.049h-2.049z M73.756 69.659h4.098v2.049h-4.098z M81.951 69.659h2.049v2.049h-2.049z M0.0 71.707h2.049v2.049h-2.049z M12.293 71.707h2.049v2.049h-2.049z M20.488 71.707h2.049v2.049h-2.049z M28.683 71.707h2.049v2.049h-2.049z M34.829 71.707h4.098v2.049h-4.098z M45.073 71.707h6.146v2.049h-6.146z M53.268 71.707h6.146v2.049h-6.146z M63.512 71.707h4.098v2.049h-4.098z M73.756 71.707h4.098v2.049h-4.098z M0.0 73.756h2.049v2.049h-2.049z M4.098 73.756h6.146v2.049h-6.146z M12.293 73.756h2.049v2.049h-2.049z M16.39 73.756h6.146v2.049h-6.146z M24.585 73.756h2.049v2.049h-2.049z M36.878 73.756h2.049v2.049h-2.049z M40.976 73.756h2.049v2.049h-2.049z M45.073 73.756h2.049v2.049h-2.049z M51.22 73.756h6.146v2.049h-6.146z M63.512 73.756h12.293v2.049h-12.293z M79.902 73.756h4.098v2.049h-4.098z M0.0 75.805h2.049v2.049h-2.049z M4.098 75.805h6.146v2.049h-6.146z M12.293 75.805h2.049v2.049h-2.049z M22.537 75.805h2.049v2.049h-2.049z M26.634 75.805h2.049v2.049h-2.049z M47.122 75.805h6.146v2.049h-6.146z M55.317 75.805h2.049v2.049h-2.049z M61.463 75.805h2.049v2.049h-2.049z M71.707 75.805h2.049v2.049h-2.049z M79.902 75.805h2.049v2.049h-2.049z M0.0 77.854h2.049v2.049h-2.049z M4.098 77.854h6.146v2.049h-6.146z M12.293 77.854h2.049v2.049h-2.049z M18.439 77.854h2.049v2.049h-2.049z M24.585 77.854h6.146v2.049h-6.146z M34.829 77.854h2.049v2.049h-2.049z M40.976 77.854h2.049v2.049h-2.049z M47.122 77.854h12.293v2.049h-12.293z M63.512 77.854h2.049v2.049h-2.049z M67.61 77.854h2.049v2.049h-2.049z M75.805 77.854h4.098v2.049h-4.098z M81.951 77.854h2.049v2.049h-2.049z M0.0 79.902h2.049v2.049h-2.049z M12.293 79.902h2.049v2.049h-2.049z M18.439 79.902h2.049v2.049h-2.049z M24.585 79.902h2.049v2.049h-2.049z M34.829 79.902h2.049v2.049h-2.049z M38.927 79.902h2.049v2.049h-2.049z M43.024 79.902h2.049v2.049h-2.049z M47.122 79.902h2.049v2.049h-2.049z M53.268 79.902h2.049v2.049h-2.049z M59.415 79.902h4.098v2.049h-4.098z M65.561 79.902h8.195v2.049h-8.195z M75.805 79.902h2.049v2.049h-2.049z M79.902 79.902h4.098v2.049h-4.098z M0.0 81.951h14.341v2.049h-14.341z M16.39 81.951h6.146v2.049h-6.146z M24.585 81.951h2.049v2.049h-2.049z M28.683 81.951h18.439v2.049h-18.439z M49.171 81.951h2.049v2.049h-2.049z M59.415 81.951h2.049v2.049h-2.049z M63.512 81.951h12.293v2.049h-12.293z M77.854 81.951h4.098v2.049h-4.098z"/>
</g>
<text x="1122" y="614" font-family="Inter, Helvetica, Arial, sans-serif" font-size="10" font-weight="700" fill="#F5F7FA" text-anchor="middle">scan / full post</text>
</svg>
