<svg xmlns="http://www.w3.org/2000/svg" viewBox="0 0 1200 630">
  <defs>
    <linearGradient id="bg" x1="0%" y1="0%" x2="100%" y2="100%">
      <stop offset="0%" stop-color="#0b1120"/>
      <stop offset="58%" stop-color="#151b32"/>
      <stop offset="100%" stop-color="#1b1020"/>
    </linearGradient>
    <linearGradient id="red" x1="0%" y1="0%" x2="100%" y2="100%">
      <stop offset="0%" stop-color="#fb7185"/>
      <stop offset="100%" stop-color="#dc2626"/>
    </linearGradient>
    <linearGradient id="amber" x1="0%" y1="0%" x2="100%" y2="100%">
      <stop offset="0%" stop-color="#fde68a"/>
      <stop offset="100%" stop-color="#f59e0b"/>
    </linearGradient>
    <linearGradient id="cyan" x1="0%" y1="0%" x2="100%" y2="100%">
      <stop offset="0%" stop-color="#67e8f9"/>
      <stop offset="100%" stop-color="#2563eb"/>
    </linearGradient>
    <filter id="glow" x="-40%" y="-40%" width="180%" height="180%">
      <feGaussianBlur stdDeviation="22"/>
    </filter>
    <filter id="shadow" x="-20%" y="-20%" width="140%" height="140%">
      <feDropShadow dx="0" dy="10" stdDeviation="18" flood-color="#020617" flood-opacity="0.5"/>
    </filter>
  </defs>
  <rect width="1200" height="630" fill="url(#bg)"/>
  <circle cx="860" cy="182" r="180" fill="#dc2626" opacity="0.16" filter="url(#glow)"/>
  <circle cx="250" cy="420" r="190" fill="#2563eb" opacity="0.12" filter="url(#glow)"/>
  <circle cx="980" cy="470" r="150" fill="#f59e0b" opacity="0.1" filter="url(#glow)"/>

  <rect x="70" y="58" width="170" height="34" rx="17" fill="#0f172a" stroke="#334155"/>
  <text x="155" y="81" font-family="Arial, sans-serif" font-size="14" font-weight="700" fill="#cbd5e1" text-anchor="middle">WEEKLY DIGEST</text>

  <text x="90" y="164" font-family="Arial, sans-serif" font-size="52" font-weight="700" fill="#f8fafc">Zero Day Firewall Breach</text>
  <text x="92" y="204" font-family="Arial, sans-serif" font-size="20" fill="#fda4af">DPRK  FMC  Telnetd</text>

  <g transform="translate(625 292)" filter="url(#shadow)">
    <rect x="-145" y="-110" width="290" height="220" rx="28" fill="#111827" stroke="#fb7185" stroke-width="2"/>
    <rect x="-110" y="-70" width="220" height="112" rx="18" fill="#0f172a" stroke="#475569"/>
    <path d="M-62 68 h124" stroke="#475569" stroke-width="12" stroke-linecap="round"/>
    <path d="M-44 90 h88" stroke="#334155" stroke-width="10" stroke-linecap="round"/>
    <path d="M-20 -26 h40" stroke="#64748b" stroke-width="8" stroke-linecap="round"/>
    <path d="M0 -26 v58" stroke="#64748b" stroke-width="8" stroke-linecap="round"/>
    <circle cx="0" cy="-28" r="32" fill="#180d13" stroke="#fb7185" stroke-width="4"/>
    <path d="M-13 -41 h26" stroke="#fb7185" stroke-width="6" stroke-linecap="round"/>
    <path d="M-13 -15 h26" stroke="#fb7185" stroke-width="6" stroke-linecap="round"/>
    <path d="M-13 -41 L13 -15" stroke="#fb7185" stroke-width="6"/>
    <text x="0" y="126" font-family="Arial, sans-serif" font-size="16" font-weight="700" fill="#fda4af" text-anchor="middle">FMC ROOT ACCESS</text>
  </g>

  <g stroke="#fb7185" stroke-width="4" fill="none" stroke-linecap="round" stroke-dasharray="12 10">
    <path d="M770 268 C840 236 920 236 1012 270"/>
    <path d="M480 272 C380 248 298 256 216 300"/>
  </g>
  <polygon points="1002,258 1034,270 1004,284" fill="#fb7185"/>
  <polygon points="224,286 192,300 228,312" fill="#fb7185"/>

  <g transform="translate(1040 276)" filter="url(#shadow)">
    <rect x="-68" y="-78" width="136" height="156" rx="24" fill="#220f12" stroke="#fb7185" stroke-width="2"/>
    <rect x="-40" y="-40" width="80" height="48" rx="10" fill="#14090c" stroke="#fda4af"/>
    <text x="0" y="-11" font-family="Arial, sans-serif" font-size="24" font-weight="700" fill="#ffe4e6" text-anchor="middle">CVE</text>
    <circle cx="0" cy="42" r="18" fill="#fb7185" opacity="0.18"/>
    <text x="0" y="48" font-family="Arial, sans-serif" font-size="12" font-weight="700" fill="#fda4af" text-anchor="middle">ROOT</text>
  </g>

  <g transform="translate(176 308)" filter="url(#shadow)">
    <path d="M0 -84 C34 -62 46 -20 34 24 C18 78 -28 116 -68 136" stroke="#fde68a" stroke-width="16" fill="none" stroke-linecap="round"/>
    <circle cx="-78" cy="146" r="22" fill="#f59e0b"/>
    <path d="M-20 -98 h72" stroke="#fde68a" stroke-width="12" stroke-linecap="round"/>
    <text x="0" y="184" font-family="Arial, sans-serif" font-size="15" font-weight="700" fill="#fcd34d" text-anchor="middle">LEGACY RCE</text>
  </g>

  <g transform="translate(860 468)" filter="url(#shadow)">
    <rect x="-86" y="-52" width="172" height="104" rx="24" fill="#0d1529" stroke="#67e8f9" stroke-width="2"/>
    <path d="M-36 8 l18 -18 l20 20 l42 -42" stroke="#67e8f9" stroke-width="10" fill="none" stroke-linecap="round" stroke-linejoin="round"/>
    <rect x="-24" y="-78" width="48" height="34" rx="10" fill="#082f49" stroke="#7dd3fc"/>
    <text x="0" y="-56" font-family="Arial, sans-serif" font-size="14" font-weight="700" fill="#dbeafe" text-anchor="middle">PATCH</text>
  </g>

  <rect x="70" y="532" width="1060" height="1.5" fill="#334155" opacity="0.8"/>
  <text x="90" y="574" font-family="Arial, sans-serif" font-size="14" fill="#94a3b8">March 19 2026</text>
  <text x="1110" y="574" font-family="Arial, sans-serif" font-size="14" fill="#94a3b8" text-anchor="end">tech.2twodragon.com</text>
</svg>
