<svg xmlns="http://www.w3.org/2000/svg" viewBox="0 0 1200 630" width="1200" height="630">
  <title>Zero Trust</title>
  
  <defs>
    <linearGradient id="ud10ed7bg" x1="0%" y1="0%" x2="100%" y2="100%">
      <stop offset="0%" style="stop-color:#0f172a" />
      <stop offset="50%" style="stop-color:#0a1a0a" />
      <stop offset="100%" style="stop-color:#0d0f25" />
    </linearGradient>
    <linearGradient id="ud10ed7accent" x1="0%" y1="0%" x2="0%" y2="100%">
      <stop offset="0%" style="stop-color:#a855f7" />
      <stop offset="100%" style="stop-color:#22c55e" />
    </linearGradient>
    <linearGradient id="ud10ed7title" x1="0%" y1="0%" x2="100%" y2="0%">
      <stop offset="0%" style="stop-color:#f8fafc" />
      <stop offset="100%" style="stop-color:#cbd5e1" />
    </linearGradient>
    <linearGradient id="ud10ed7panel" x1="0%" y1="0%" x2="100%" y2="100%">
      <stop offset="0%" style="stop-color:#020810;stop-opacity:0.85" />
      <stop offset="100%" style="stop-color:#0a0f1e;stop-opacity:0.75" />
    </linearGradient>
    <radialGradient id="ud10ed7ambientL" cx="20%" cy="50%" r="40%">
      <stop offset="0%" style="stop-color:#a855f7;stop-opacity:0.06" />
      <stop offset="100%" style="stop-color:#a855f7;stop-opacity:0" />
    </radialGradient>
    <radialGradient id="ud10ed7ambientR" cx="70%" cy="45%" r="35%">
      <stop offset="0%" style="stop-color:#8b5cf6;stop-opacity:0.08" />
      <stop offset="100%" style="stop-color:#8b5cf6;stop-opacity:0" />
    </radialGradient>
    <filter id="ud10ed7glow" x="-100%" y="-100%" width="300%" height="300%">
      <feDropShadow dx="0" dy="0" stdDeviation="8" flood-color="#8b5cf6" flood-opacity="0.7" />
    </filter>
    <filter id="ud10ed7blur" x="-50%" y="-50%" width="200%" height="200%">
      <feGaussianBlur stdDeviation="12" />
    </filter>
    <filter id="ud10ed7textglow" x="-20%" y="-20%" width="140%" height="140%">
      <feDropShadow dx="0" dy="0" stdDeviation="4" flood-color="#a855f7" flood-opacity="0.5" />
    </filter>
    <filter id="ud10ed7fxGlow" x="-50%" y="-50%" width="200%" height="200%">
      <feGaussianBlur stdDeviation="6" result="b" />
      <feColorMatrix in="b" type="matrix" values="1.2 0.4 0 0 0 0.5 0.6 0 0 0 0 0 0 0 0 0 0 0 0.85 0" result="g" />
      <feMerge><feMergeNode in="g" /><feMergeNode in="SourceGraphic" /></feMerge>
    </filter>
    <filter id="ud10ed7fxRed" x="-60%" y="-60%" width="220%" height="220%">
      <feGaussianBlur stdDeviation="8" result="b" />
      <feColorMatrix in="b" type="matrix" values="1.3 0 0 0 0.7 0 0 0 0 0 0 0 0 0 0 0 0 0 0.95 0" result="g" />
      <feMerge><feMergeNode in="g" /><feMergeNode in="SourceGraphic" /></feMerge>
    </filter>
    <radialGradient id="ud10ed7sceneGlow1" cx="75%" cy="30%" r="50%">
      <stop offset="0%" stop-color="#a855f7" stop-opacity="0.15" />
      <stop offset="100%" stop-color="#a855f7" stop-opacity="0" />
    </radialGradient>
    <radialGradient id="ud10ed7sceneGlow2" cx="60%" cy="70%" r="60%">
      <stop offset="0%" stop-color="#22c55e" stop-opacity="0.10" />
      <stop offset="100%" stop-color="#22c55e" stop-opacity="0" />
    </radialGradient>
    <pattern id="ud10ed7dots" x="0" y="0" width="30" height="30" patternUnits="userSpaceOnUse">
      <circle cx="15" cy="15" r="1" fill="#1e293b" opacity="0.7" />
    </pattern>
    <clipPath id="ud10ed7clip">
      <rect x="1" y="1" width="1198" height="628" rx="8" ry="8" />
    </clipPath>
    <style>
      @keyframes ud10ed7floatUp { 0%{transform:translateY(0);opacity:0.9} 85%{opacity:0.5} 100%{transform:translateY(-80px);opacity:0} }
      @keyframes ud10ed7pulse { 0%,100%{opacity:0.5} 50%{opacity:1} }
      @keyframes ud10ed7crackFx { 0%,100%{stroke-opacity:0.6} 50%{stroke-opacity:1} }
      @keyframes ud10ed7glimmer { 0%{opacity:0.3} 50%{opacity:0.85} 100%{opacity:0.3} }
      @keyframes ud10ed7dash { to{stroke-dashoffset:-20} }
      @keyframes ud10ed7rotSpin { from{transform:rotate(0deg)} to{transform:rotate(360deg)} }
      .ud10ed7fa { animation: ud10ed7floatUp 3.2s ease-in infinite; }
      .ud10ed7fb { animation: ud10ed7floatUp 3.8s ease-in infinite; animation-delay:0.9s; }
      .ud10ed7fc { animation: ud10ed7floatUp 2.9s ease-in infinite; animation-delay:1.7s; }
      .ud10ed7crack { animation: ud10ed7crackFx 1.9s ease-in-out infinite; }
      .ud10ed7blink { animation: ud10ed7pulse 2.2s ease-in-out infinite; }
    </style>
  </defs>

  
  <rect width="1200" height="630" fill="url(#ud10ed7bg)" />
  <g clip-path="url(#ud10ed7clip)">
    <rect width="1200" height="630" fill="url(#ud10ed7dots)" opacity="0.6" />
    <rect width="1200" height="630" fill="url(#ud10ed7ambientL)" />
    <rect width="1200" height="630" fill="url(#ud10ed7ambientR)" />

    
    <rect x="0" y="0" width="370" height="630" fill="url(#ud10ed7panel)" />
    <rect x="0" y="0" width="4" height="630" fill="url(#ud10ed7accent)" />

    
    <rect x="40" y="40" width="160" height="28" rx="4" fill="#3b0764" stroke="#a855f7" stroke-width="1.5" />
    <text x="120" y="58" font-family="Courier New, monospace" font-size="11" fill="#d8b4fe" text-anchor="middle" letter-spacing="2" font-weight="bold">AI / ML</text>

    
    <text x="40" y="100" font-family="Courier New, monospace" font-size="10" fill="#64748b" letter-spacing="1">2026-01-23</text>

    
    <text x="40" y="155" font-family="Segoe UI, Arial, sans-serif" font-size="44" fill="url(#ud10ed7title)" font-weight="700" letter-spacing="-1">Zero Trust</text>
    <text x="40" y="203" font-family="Segoe UI, Arial, sans-serif" font-size="44" fill="url(#ud10ed7title)" font-weight="700" letter-spacing="-1">Agentic AI</text>
    <text x="40" y="251" font-family="Segoe UI, Arial, sans-serif" font-size="44" fill="url(#ud10ed7title)" font-weight="700" letter-spacing="-1">Aitm Phishing</text>

    
    <rect x="40" y="269" width="260" height="2" rx="1" fill="url(#ud10ed7accent)" opacity="0.8" />

    
    <text x="40" y="307" font-family="Segoe UI, Arial, sans-serif" font-size="16" fill="#a855f7" font-weight="600">Aitm Phishing</text>
    <text x="40" y="333" font-family="Segoe UI, Arial, sans-serif" font-size="16" fill="#22c55e" font-weight="600">Bec</text>

    
    <rect x="40" y="361" width="280" height="122" rx="12" fill="#0a1a0a" stroke="#a855f7" stroke-width="1" opacity="0.66" />
    <rect x="40" y="361" width="280" height="18" rx="12" fill="#a855f7" opacity="0.10" />
    <text x="56" y="374" font-family="Segoe UI, Arial, sans-serif" font-size="10" fill="#d8b4fe" font-weight="700" letter-spacing="1">FOCUS</text>
    <text x="56" y="395" font-family="Segoe UI, Arial, sans-serif" font-size="13" fill="#e2e8f0" font-weight="600">Zero Trust / Agentic AI</text>
    <text x="56" y="412" font-family="Segoe UI, Arial, sans-serif" font-size="12" fill="#94a3b8">Aitm Phishing / Bec</text>
    <line x1="56" y1="421" x2="304" y2="421" stroke="#a855f7" stroke-width="0.8" opacity="0.20" />
    <text x="56" y="439" font-family="Segoe UI, Arial, sans-serif" font-size="10.5" fill="#cbd5e1">Microsoft AitM Agentic AI Zero</text>
    <rect x="56" y="461" width="88" height="22" rx="11" fill="#0f172a" stroke="#a855f7" stroke-width="1" opacity="0.85" />
    <text x="100" y="476" font-family="Segoe UI, Arial, sans-serif" font-size="9" fill="#a855f7" text-anchor="middle" font-weight="600">Zero Trust</text>
    <rect x="152" y="461" width="88" height="22" rx="11" fill="#0f172a" stroke="#22c55e" stroke-width="1" opacity="0.85" />
    <text x="196" y="476" font-family="Segoe UI, Arial, sans-serif" font-size="9" fill="#22c55e" text-anchor="middle" font-weight="600">Agentic AI</text>

    
    <rect x="40" y="525" width="120" height="24" rx="12" fill="#3b0764" stroke="#a855f7" stroke-width="1.2" />
    <text x="100" y="541" font-family="Courier New, monospace" font-size="10" fill="#a855f7" text-anchor="middle" font-weight="bold">Aitm Phishing</text>
    <rect x="170" y="525" width="54" height="24" rx="12" fill="#0a1a0a" stroke="#22c55e" stroke-width="1.2" />
    <text x="197" y="541" font-family="Courier New, monospace" font-size="10" fill="#22c55e" text-anchor="middle" font-weight="bold">Bec</text>
    <rect x="234" y="525" width="96" height="24" rx="12" fill="#0f172a" stroke="#8b5cf6" stroke-width="1.2" />
    <text x="282" y="541" font-family="Courier New, monospace" font-size="10" fill="#8b5cf6" text-anchor="middle" font-weight="bold">Zero Trust</text>

    
    <text x="40" y="572" font-family="Courier New, monospace" font-size="10" fill="#475569" letter-spacing="0.5">tech.2twodragon.com</text>

    
    
    <rect x="380" y="40" width="780" height="550" fill="url(#ud10ed7sceneGlow1)" opacity="0.6" />
    <rect x="380" y="40" width="780" height="550" fill="url(#ud10ed7sceneGlow2)" opacity="0.5" />

    
    
    <g filter="url(#ud10ed7glow)">
      <circle cx="700" cy="260" r="50" fill="#0f172a" stroke="#a855f7" stroke-width="2.5" />
      <circle cx="700" cy="260" r="50" fill="#8b5cf6" opacity="0.08" />
    </g>
    
    <ellipse cx="700" cy="255" rx="22" ry="18" fill="none" stroke="#a855f7" stroke-width="1.5" />
    <path d="M685 250 Q700 235 715 250" fill="none" stroke="#a855f7" stroke-width="1" opacity="0.7" />
    <path d="M685 260 Q700 275 715 260" fill="none" stroke="#8b5cf6" stroke-width="1" opacity="0.7" />
    <circle cx="700" cy="255" r="5" fill="#a855f7" opacity="0.6" />
    <text x="700" y="300" font-family="Courier New, monospace" font-size="9" fill="#d8b4fe" text-anchor="middle" font-weight="bold">AI MODEL</text>

    
    <circle cx="540" cy="180" r="18" fill="#0f172a" stroke="#22c55e" stroke-width="1.5" />
    <circle cx="540" cy="260" r="18" fill="#0f172a" stroke="#22c55e" stroke-width="1.5" />
    <circle cx="540" cy="340" r="18" fill="#0f172a" stroke="#22c55e" stroke-width="1.5" />

    
    <circle cx="860" cy="200" r="18" fill="#0f172a" stroke="#8b5cf6" stroke-width="1.5" />
    <circle cx="860" cy="320" r="18" fill="#0f172a" stroke="#8b5cf6" stroke-width="1.5" />

    
    <line x1="558" y1="185" x2="652" y2="248" stroke="#22c55e" stroke-width="1" opacity="0.4" />
    <line x1="558" y1="260" x2="652" y2="260" stroke="#22c55e" stroke-width="1.2" opacity="0.5" stroke-dasharray="4 3" style="animation: ud10ed7dash 2s linear infinite" />
    <line x1="558" y1="335" x2="652" y2="272" stroke="#22c55e" stroke-width="1" opacity="0.4" />
    <line x1="748" y1="250" x2="842" y2="205" stroke="#8b5cf6" stroke-width="1" opacity="0.4" />
    <line x1="748" y1="270" x2="842" y2="315" stroke="#8b5cf6" stroke-width="1" opacity="0.4" />

    
    <rect x="620" y="380" width="160" height="80" rx="6" fill="#0f172a" stroke="#a855f7" stroke-width="1" opacity="0.8" />
    <text x="700" y="405" font-family="Courier New, monospace" font-size="9" fill="#d8b4fe" text-anchor="middle" opacity="0.8">PARAMETERS</text>
    <rect x="640" y="415" width="120" height="8" rx="3" fill="#a855f7" opacity="0.15" />
    <rect x="640" y="415" width="85" height="8" rx="3" fill="#a855f7" opacity="0.4" />
    <rect x="640" y="430" width="120" height="8" rx="3" fill="#8b5cf6" opacity="0.15" />
    <rect x="640" y="430" width="60" height="8" rx="3" fill="#8b5cf6" opacity="0.4" />
    <rect x="640" y="445" width="120" height="8" rx="3" fill="#22c55e" opacity="0.15" />
    <rect x="640" y="445" width="100" height="8" rx="3" fill="#22c55e" opacity="0.4" />

    
    <g filter="url(#ud10ed7glow)">
      <circle cx="950" cy="260" r="28" fill="#0f172a" stroke="#a855f7" stroke-width="1.5" />
    </g>
    <text x="950" y="258" font-family="Courier New, monospace" font-size="16" fill="#a855f7" text-anchor="middle" opacity="0.8">∇</text>
    <text x="950" y="280" font-family="Courier New, monospace" font-size="7" fill="#d8b4fe" text-anchor="middle" opacity="0.7">GRADIENT</text>
    <line x1="878" y1="210" x2="924" y2="250" stroke="#8b5cf6" stroke-width="1" opacity="0.3" stroke-dasharray="3 5" />
    <line x1="878" y1="315" x2="924" y2="270" stroke="#8b5cf6" stroke-width="1" opacity="0.3" stroke-dasharray="3 5" />

    
    
    <circle cx="620" cy="180" r="10" fill="#0f172a" stroke="#a855f7" stroke-width="1" opacity="0.6" />
    <circle cx="620" cy="220" r="10" fill="#0f172a" stroke="#a855f7" stroke-width="1" opacity="0.6" />
    <circle cx="620" cy="260" r="10" fill="#0f172a" stroke="#a855f7" stroke-width="1" opacity="0.6" />
    <circle cx="620" cy="300" r="10" fill="#0f172a" stroke="#a855f7" stroke-width="1" opacity="0.6" />
    <circle cx="620" cy="340" r="10" fill="#0f172a" stroke="#a855f7" stroke-width="1" opacity="0.6" />
    
    <circle cx="780" cy="200" r="10" fill="#0f172a" stroke="#8b5cf6" stroke-width="1" opacity="0.6" />
    <circle cx="780" cy="240" r="10" fill="#0f172a" stroke="#8b5cf6" stroke-width="1" opacity="0.6" />
    <circle cx="780" cy="280" r="10" fill="#0f172a" stroke="#8b5cf6" stroke-width="1" opacity="0.6" />
    <circle cx="780" cy="320" r="10" fill="#0f172a" stroke="#8b5cf6" stroke-width="1" opacity="0.6" />
    
    <line x1="558" y1="180" x2="610" y2="180" stroke="#22c55e" stroke-width="0.6" opacity="0.2" />
    <line x1="558" y1="260" x2="610" y2="220" stroke="#22c55e" stroke-width="0.6" opacity="0.2" />
    <line x1="558" y1="260" x2="610" y2="300" stroke="#22c55e" stroke-width="0.6" opacity="0.2" />
    <line x1="558" y1="340" x2="610" y2="340" stroke="#22c55e" stroke-width="0.6" opacity="0.2" />
    <line x1="630" y1="185" x2="770" y2="200" stroke="#a855f7" stroke-width="0.5" opacity="0.15" />
    <line x1="630" y1="220" x2="770" y2="240" stroke="#a855f7" stroke-width="0.5" opacity="0.15" />
    <line x1="630" y1="260" x2="770" y2="280" stroke="#a855f7" stroke-width="0.5" opacity="0.18" />
    <line x1="630" y1="300" x2="770" y2="280" stroke="#a855f7" stroke-width="0.5" opacity="0.15" />
    <line x1="630" y1="340" x2="770" y2="320" stroke="#a855f7" stroke-width="0.5" opacity="0.15" />
    <line x1="790" y1="205" x2="842" y2="200" stroke="#8b5cf6" stroke-width="0.5" opacity="0.15" />
    <line x1="790" y1="280" x2="842" y2="260" stroke="#8b5cf6" stroke-width="0.5" opacity="0.18" />
    <line x1="790" y1="320" x2="842" y2="320" stroke="#8b5cf6" stroke-width="0.5" opacity="0.15" />

    
    <path d="M 680 240 Q 700 220 720 240 Q 740 260 720 280 Q 700 300 680 280 Q 660 260 680 240" fill="none" stroke="#a855f7" stroke-width="0.8" opacity="0.2" />
    <path d="M 690 248 Q 700 238 710 248" fill="none" stroke="#8b5cf6" stroke-width="0.6" opacity="0.25" />
    <path d="M 690 268 Q 700 278 710 268" fill="none" stroke="#8b5cf6" stroke-width="0.6" opacity="0.25" />

    
    <path d="M 470 260 L 520 260" fill="none" stroke="#22c55e" stroke-width="1.5" opacity="0.4" stroke-dasharray="4 3" style="animation: ud10ed7dash 2s linear infinite" />
    <polygon points="518,255 528,260 518,265" fill="#22c55e" opacity="0.4" />
    <path d="M 878 260 L 930 260" fill="none" stroke="#8b5cf6" stroke-width="1.5" opacity="0.35" />
    <polygon points="928,255 938,260 928,265" fill="#8b5cf6" opacity="0.35" />

    
    <rect x="830" y="370" width="100" height="28" rx="4" fill="#0a1a0a" stroke="#a855f7" stroke-width="0.8" opacity="0.6" />
    <text x="880" y="384" font-family="Courier New, monospace" font-size="7" fill="#a855f7" text-anchor="middle" opacity="0.7">EPOCH 42/100</text>
    <rect x="840" y="390" width="80" height="4" rx="2" fill="#a855f7" opacity="0.15" />
    <rect x="840" y="390" width="34" height="4" rx="2" fill="#a855f7" opacity="0.5" />

    
    <circle cx="700" cy="260" r="70" fill="none" stroke="#a855f7" stroke-width="0.8" opacity="0.2" style="animation: ud10ed7pulse 3s ease-in-out infinite" />

    
    <ellipse cx="720" cy="280" rx="260" ry="180" fill="#8b5cf6" opacity="0.035" />

    

    <defs>
      <pattern id="ud10ed7mesh" x="0" y="0" width="28" height="28" patternUnits="userSpaceOnUse">
        <path d="M 0 14 L 14 0 L 28 14 L 14 28 Z" fill="none" stroke="#a855f7" stroke-width="0.35" opacity="0.12" />
      </pattern>
    </defs>
    <rect x="380" y="40" width="780" height="550" fill="url(#ud10ed7mesh)" opacity="0.25" />
    <circle cx="720" cy="315" r="228" fill="none" stroke="#a855f7" stroke-width="0.55" stroke-dasharray="6 9" opacity="0.16" />
    <circle cx="720" cy="315" r="182" fill="none" stroke="#22c55e" stroke-width="0.45" stroke-dasharray="3 7" opacity="0.11" />
    <circle cx="720" cy="315" r="266" fill="none" stroke="#8b5cf6" stroke-width="0.35" stroke-dasharray="10 12" opacity="0.08" />
    <line x1="390" y1="70" x2="1150" y2="70" stroke="#a855f7" stroke-width="0.6" opacity="0.10" />
    <line x1="390" y1="560" x2="1150" y2="560" stroke="#22c55e" stroke-width="0.6" opacity="0.08" />
    <line x1="420" y1="120" x2="1080" y2="500" stroke="#a855f7" stroke-width="0.35" opacity="0.08" />
    <line x1="1080" y1="120" x2="420" y2="500" stroke="#22c55e" stroke-width="0.35" opacity="0.06" />
    <polyline points="392,56 392,46 404,46" fill="none" stroke="#a855f7" stroke-width="1.5" opacity="0.35" />
    <polyline points="1148,46 1160,46 1160,58" fill="none" stroke="#a855f7" stroke-width="1.5" opacity="0.35" />
    <polyline points="392,574 392,584 404,584" fill="none" stroke="#22c55e" stroke-width="1.5" opacity="0.30" />
    <polyline points="1148,584 1160,584 1160,572" fill="none" stroke="#22c55e" stroke-width="1.5" opacity="0.30" />
    <ellipse cx="720" cy="315" rx="275" ry="210" fill="#8b5cf6" opacity="0.03" />
    <circle cx="430" cy="110" r="3" fill="#a855f7" opacity="0.22" />
    <circle cx="1120" cy="160" r="2.5" fill="#22c55e" opacity="0.24" />
    <circle cx="470" cy="540" r="3" fill="#8b5cf6" opacity="0.20" />
    <circle cx="1080" cy="530" r="2.5" fill="#a855f7" opacity="0.20" />
    
    <path d="M 510 160 A 250 190 0 0 1 980 180" fill="none" stroke="#a855f7" stroke-width="1" opacity="0.18" stroke-dasharray="7 5" style="animation: ud10ed7dash 5s linear infinite" />
    <path d="M 560 470 A 205 150 0 0 1 1010 420" fill="none" stroke="#22c55e" stroke-width="0.9" opacity="0.14" stroke-dasharray="5 6" />
    <circle cx="720" cy="315" r="92" fill="none" stroke="#a855f7" stroke-width="0.7" opacity="0.16" />
    <circle cx="720" cy="315" r="122" fill="none" stroke="#22c55e" stroke-width="0.6" opacity="0.12" />
    <rect x="454" y="90" width="206" height="74" rx="10" fill="#0f172a" stroke="#a855f7" stroke-width="1.1" opacity="0.78" /><circle cx="472" cy="108" r="5" fill="#a855f7" opacity="0.85" /><text x="486" y="111" font-family="Courier New, monospace" font-size="9" fill="#a855f7" font-weight="700" letter-spacing="1">PRIMARY</text><text x="470" y="134" font-family="Segoe UI, Arial, sans-serif" font-size="14" fill="#f8fafc" font-weight="700">Zero Trust</text><text x="470" y="151" font-family="Segoe UI, Arial, sans-serif" font-size="9.5" fill="#94a3b8">Agentic AI</text>
    <rect x="676" y="90" width="206" height="74" rx="10" fill="#0f172a" stroke="#22c55e" stroke-width="1.1" opacity="0.78" /><circle cx="694" cy="108" r="5" fill="#22c55e" opacity="0.85" /><text x="708" y="111" font-family="Courier New, monospace" font-size="9" fill="#22c55e" font-weight="700" letter-spacing="1">SUMMARY</text><text x="692" y="134" font-family="Segoe UI, Arial, sans-serif" font-size="14" fill="#f8fafc" font-weight="700">Microsoft AitM Agentic AI</text><rect x="898" y="90" width="206" height="74" rx="10" fill="#0f172a" stroke="#8b5cf6" stroke-width="1.1" opacity="0.78" /><circle cx="916" cy="108" r="5" fill="#8b5cf6" opacity="0.85" /><text x="930" y="111" font-family="Courier New, monospace" font-size="9" fill="#8b5cf6" font-weight="700" letter-spacing="1">TRACK</text><text x="914" y="134" font-family="Segoe UI, Arial, sans-serif" font-size="14" fill="#f8fafc" font-weight="700">Aitm Phishing</text><text x="914" y="151" font-family="Segoe UI, Arial, sans-serif" font-size="9.5" fill="#94a3b8">Bec</text>
    <g transform="rotate(10 605.0 229.0)"><rect x="516" y="190" width="178" height="78" rx="14" fill="#0f172a" stroke="#a855f7" stroke-width="1.2" opacity="0.76" /><rect x="530" y="206" width="150" height="12" rx="6" fill="#a855f7" opacity="0.12" /><text x="534" y="230" font-family="Segoe UI, Arial, sans-serif" font-size="11" fill="#a855f7" font-weight="700">Zero Trust</text><text x="534" y="248" font-family="Segoe UI, Arial, sans-serif" font-size="8.5" fill="#94a3b8">Agentic AI</text></g>
    <g transform="rotate(-8 987.0 289.0)"><rect x="904" y="252" width="166" height="74" rx="14" fill="#0f172a" stroke="#22c55e" stroke-width="1.2" opacity="0.76" /><rect x="918" y="268" width="138" height="12" rx="6" fill="#22c55e" opacity="0.12" /><text x="922" y="292" font-family="Segoe UI, Arial, sans-serif" font-size="11" fill="#22c55e" font-weight="700">Agentic AI</text></g>
    <g transform="rotate(7 838.0 475.0)"><rect x="744" y="436" width="188" height="78" rx="14" fill="#0f172a" stroke="#8b5cf6" stroke-width="1.2" opacity="0.76" /><rect x="758" y="452" width="160" height="12" rx="6" fill="#8b5cf6" opacity="0.12" /><text x="762" y="476" font-family="Segoe UI, Arial, sans-serif" font-size="11" fill="#8b5cf6" font-weight="700">Aitm Phishing</text><text x="762" y="494" font-family="Segoe UI, Arial, sans-serif" font-size="8.5" fill="#94a3b8">Bec</text></g>
    
    <circle cx="150" cy="100" r="2.5" fill="#a855f7" opacity="0.5">
      <animate attributeName="opacity" values="0.5;0.15;0.5" dur="3.0s" repeatCount="indefinite" />
    </circle>
    <circle cx="1060" cy="150" r="2.0" fill="#22c55e" opacity="0.4">
      <animate attributeName="opacity" values="0.4;0.12;0.4" dur="2.8s" repeatCount="indefinite" />
    </circle>
    <circle cx="100" cy="480" r="2.5" fill="#a855f7" opacity="0.4">
      <animate attributeName="opacity" values="0.4;0.12;0.4" dur="3.5s" repeatCount="indefinite" />
    </circle>
    <circle cx="1100" cy="520" r="2.0" fill="#8b5cf6" opacity="0.5">
      <animate attributeName="opacity" values="0.5;0.15;0.5" dur="4.0s" repeatCount="indefinite" />
    </circle>
    <circle cx="180" cy="560" r="1.5" fill="#22c55e" opacity="0.35">
      <animate attributeName="opacity" values="0.35;0.10;0.35" dur="3.2s" repeatCount="indefinite" />
    </circle>
    <circle cx="1030" cy="80" r="2.0" fill="#a855f7" opacity="0.4">
      <animate attributeName="opacity" values="0.4;0.12;0.4" dur="2.5s" repeatCount="indefinite" />
    </circle>

    
    <line x1="50" y1="200" x2="120" y2="200" stroke="#a855f7" stroke-width="1" opacity="0.15" />
    <line x1="50" y1="215" x2="95" y2="215" stroke="#a855f7" stroke-width="1" opacity="0.1" />
    <line x1="1080" y1="400" x2="1150" y2="400" stroke="#8b5cf6" stroke-width="1" opacity="0.15" />
    <line x1="1095" y1="415" x2="1150" y2="415" stroke="#8b5cf6" stroke-width="1" opacity="0.1" />

    
    <rect width="1200" height="2" x="0" y="0" fill="#a855f7" opacity="0">
      <animate attributeName="y" values="-2;632" dur="6s" repeatCount="indefinite" />
      <animate attributeName="opacity" values="0;0.03;0.03;0" dur="6s" repeatCount="indefinite" keyTimes="0;0.1;0.9;1" />
    </rect>
  </g>

  
  <line x1="40" y1="608" x2="1160" y2="608" stroke="#1e293b" stroke-width="1" />
  <text x="1160" y="622" font-family="Courier New, monospace" font-size="11" fill="#475569" text-anchor="end" letter-spacing="0.5">tech.2twodragon.com</text>

  
  <rect x="0.5" y="0.5" width="1199" height="629" rx="8" ry="8" fill="none" stroke="#1e293b" stroke-width="1" />
  
  <polyline points="0,25 0,0 25,0" fill="none" stroke="#a855f7" stroke-width="2" opacity="0.6" />
  <polyline points="1175,0 1200,0 1200,25" fill="none" stroke="#a855f7" stroke-width="2" opacity="0.6" />
  <polyline points="0,605 0,630 25,630" fill="none" stroke="#22c55e" stroke-width="2" opacity="0.5" />
  <polyline points="1175,630 1200,630 1200,605" fill="none" stroke="#22c55e" stroke-width="2" opacity="0.5" />
</svg>