<svg xmlns="http://www.w3.org/2000/svg" viewBox="0 0 1200 630" width="1200" height="630">
  <title>Microsoft 6 Zero-Days, Apple Patch, Ivanti EPMM Attack</title>
  <defs>
    <linearGradient id="bg" x1="0%" y1="0%" x2="100%" y2="100%">
      <stop offset="0%" stop-color="#0d1520"/>
      <stop offset="100%" stop-color="#1a2d42"/>
    </linearGradient>
    <linearGradient id="accent" x1="0%" y1="0%" x2="0%" y2="100%">
      <stop offset="0%" stop-color="#2980b9"/>
      <stop offset="100%" stop-color="#e74c3c"/>
    </linearGradient>
  </defs>
  <rect width="1200" height="630" fill="url(#bg)"/>
  <line x1="0" y1="105" x2="1200" y2="105" stroke="rgba(255,255,255,0.04)" stroke-width="1"/>
  <line x1="0" y1="210" x2="1200" y2="210" stroke="rgba(255,255,255,0.04)" stroke-width="1"/>
  <line x1="0" y1="315" x2="1200" y2="315" stroke="rgba(255,255,255,0.04)" stroke-width="1"/>
  <line x1="0" y1="420" x2="1200" y2="420" stroke="rgba(255,255,255,0.04)" stroke-width="1"/>
  <line x1="240" y1="0" x2="240" y2="630" stroke="rgba(255,255,255,0.03)" stroke-width="1"/>
  <line x1="480" y1="0" x2="480" y2="630" stroke="rgba(255,255,255,0.03)" stroke-width="1"/>
  <line x1="720" y1="0" x2="720" y2="630" stroke="rgba(255,255,255,0.03)" stroke-width="1"/>
  <line x1="960" y1="0" x2="960" y2="630" stroke="rgba(255,255,255,0.03)" stroke-width="1"/>
  <circle cx="1050" cy="450" r="200" fill="rgba(255,255,255,0.02)"/>
  <circle cx="1050" cy="450" r="140" fill="rgba(255,255,255,0.02)"/>
  <!-- Calendar body -->
  <rect x="820" y="120" width="220" height="200" rx="12" fill="none" stroke="rgba(41,128,185,0.5)" stroke-width="2"/>
  <rect x="820" y="120" width="220" height="40" rx="12" fill="rgba(41,128,185,0.3)"/>
  <rect x="820" y="148" width="220" height="12" fill="rgba(41,128,185,0.3)"/>
  <rect x="870" y="110" width="8" height="24" rx="4" fill="rgba(41,128,185,0.7)"/>
  <rect x="970" y="110" width="8" height="24" rx="4" fill="rgba(41,128,185,0.7)"/>
  <rect x="836" y="176" width="28" height="24" rx="3" fill="rgba(255,255,255,0.05)"/>
  <rect x="872" y="176" width="28" height="24" rx="3" fill="rgba(255,255,255,0.05)"/>
  <rect x="908" y="176" width="28" height="24" rx="3" fill="rgba(255,255,255,0.05)"/>
  <rect x="944" y="176" width="28" height="24" rx="3" fill="rgba(231,76,60,0.4)"/>
  <rect x="980" y="176" width="28" height="24" rx="3" fill="rgba(231,76,60,0.4)"/>
  <rect x="836" y="208" width="28" height="24" rx="3" fill="rgba(231,76,60,0.4)"/>
  <rect x="872" y="208" width="28" height="24" rx="3" fill="rgba(255,255,255,0.05)"/>
  <rect x="908" y="208" width="28" height="24" rx="3" fill="rgba(255,255,255,0.05)"/>
  <rect x="944" y="208" width="28" height="24" rx="3" fill="rgba(231,76,60,0.4)"/>
  <rect x="980" y="208" width="28" height="24" rx="3" fill="rgba(255,255,255,0.05)"/>
  <rect x="836" y="240" width="28" height="24" rx="3" fill="rgba(255,255,255,0.05)"/>
  <rect x="872" y="240" width="28" height="24" rx="3" fill="rgba(231,76,60,0.4)"/>
  <rect x="908" y="240" width="28" height="24" rx="3" fill="rgba(255,255,255,0.05)"/>
  <rect x="944" y="240" width="28" height="24" rx="3" fill="rgba(255,255,255,0.05)"/>
  <rect x="980" y="240" width="28" height="24" rx="3" fill="rgba(231,76,60,0.4)"/>
  <!-- Warning triangle -->
  <polygon points="930,370 880,460 980,460" fill="none" stroke="rgba(231,76,60,0.7)" stroke-width="3"/>
  <line x1="930" y1="393" x2="930" y2="432" stroke="rgba(231,76,60,0.9)" stroke-width="3"/>
  <circle cx="930" cy="447" r="4" fill="rgba(231,76,60,0.9)"/>
  <!-- Floating markers -->
  <circle cx="1060" cy="355" r="8" fill="rgba(231,76,60,0.3)" stroke="rgba(231,76,60,0.6)" stroke-width="1.5"/>
  <circle cx="800" cy="400" r="6" fill="rgba(231,76,60,0.2)" stroke="rgba(231,76,60,0.4)" stroke-width="1"/>
  <circle cx="1090" cy="290" r="5" fill="rgba(41,128,185,0.3)" stroke="rgba(41,128,185,0.5)" stroke-width="1"/>
  <rect x="0" y="0" width="6" height="630" fill="url(#accent)"/>
  <rect x="80" y="60" width="200" height="32" rx="4" fill="rgba(41,128,185,0.2)" stroke="rgba(41,128,185,0.4)" stroke-width="1"/>
  <text x="180" y="81" font-family="Arial, sans-serif" font-size="12" fill="rgba(255,255,255,0.7)" text-anchor="middle" letter-spacing="1">FEBRUARY 14, 2026</text>
  <text x="80" y="185" font-family="Arial, sans-serif" font-size="46" font-weight="700" fill="#ffffff">Microsoft 6 Zero-Days,</text>
  <text x="80" y="245" font-family="Arial, sans-serif" font-size="46" font-weight="700" fill="#ffffff">Apple &amp; Ivanti Attack</text>
  <text x="80" y="300" font-family="Arial, sans-serif" font-size="19" fill="rgba(255,255,255,0.65)">Patch Tuesday critical vulnerabilities &amp; active exploitation</text>
  <rect x="80" y="325" width="420" height="3" fill="url(#accent)"/>
  <text x="80" y="370" font-family="Arial, sans-serif" font-size="14" fill="rgba(255,255,255,0.45)" letter-spacing="2">SECURITY WEEKLY DIGEST</text>
  <rect x="80" y="410" width="110" height="36" rx="18" fill="rgba(231,76,60,0.15)" stroke="rgba(231,76,60,0.4)" stroke-width="1"/>
  <text x="135" y="433" font-family="Arial, sans-serif" font-size="13" fill="rgba(255,255,255,0.8)" text-anchor="middle">Zero-Day</text>
  <rect x="206" y="410" width="120" height="36" rx="18" fill="rgba(41,128,185,0.15)" stroke="rgba(41,128,185,0.4)" stroke-width="1"/>
  <text x="266" y="433" font-family="Arial, sans-serif" font-size="13" fill="rgba(255,255,255,0.8)" text-anchor="middle">Apple Patch</text>
  <rect x="342" y="410" width="90" height="36" rx="18" fill="rgba(255,255,255,0.05)" stroke="rgba(255,255,255,0.2)" stroke-width="1"/>
  <text x="387" y="433" font-family="Arial, sans-serif" font-size="13" fill="rgba(255,255,255,0.8)" text-anchor="middle">Ivanti</text>
  <rect x="0" y="520" width="1200" height="110" fill="rgba(0,0,0,0.25)"/>
  <text x="80" y="545" font-family="Arial, sans-serif" font-size="14" fill="rgba(255,255,255,0.5)" letter-spacing="1">tech.2twodragon.com</text>
  <text x="1120" y="545" font-family="Arial, sans-serif" font-size="13" fill="rgba(255,255,255,0.35)" text-anchor="end" letter-spacing="1">DevSecOps</text>
</svg>
