<svg xmlns="http://www.w3.org/2000/svg" width="1200" height="630" viewBox="0 0 1200 630">
  <title>Security Weekly Digest - April 13 2026</title>
  <defs>
    <linearGradient id="bg" x1="0%" y1="0%" x2="100%" y2="100%">
      <stop offset="0%" stop-color="#0a0e1a"/>
      <stop offset="60%" stop-color="#0f1628"/>
      <stop offset="100%" stop-color="#141b2d"/>
    </linearGradient>
    <linearGradient id="hg" x1="0%" y1="0%" x2="100%" y2="0%">
      <stop offset="0%" stop-color="#1e293b"/>
      <stop offset="100%" stop-color="#0f172a"/>
    </linearGradient>
    <filter id="glow" x="-50%" y="-50%" width="200%" height="200%">
      <feGaussianBlur stdDeviation="18"/>
    </filter>
  </defs>
  <rect width="1200" height="630" fill="url(#bg)"/>
  <g opacity="0.04" stroke="#94a3b8" stroke-width="0.5">
    <line x1="0" y1="105" x2="1200" y2="105"/><line x1="0" y1="210" x2="1200" y2="210"/>
    <line x1="0" y1="315" x2="1200" y2="315"/><line x1="0" y1="420" x2="1200" y2="420"/>
    <line x1="0" y1="525" x2="1200" y2="525"/>
    <line x1="240" y1="0" x2="240" y2="630"/><line x1="480" y1="0" x2="480" y2="630"/>
    <line x1="720" y1="0" x2="720" y2="630"/><line x1="960" y1="0" x2="960" y2="630"/>
  </g>
  <circle cx="200" cy="300" r="200" fill="#ef4444" opacity="0.06" filter="url(#glow)"/>
  <circle cx="600" cy="350" r="180" fill="#f59e0b" opacity="0.05" filter="url(#glow)"/>
  <circle cx="1000" cy="300" r="180" fill="#22c55e" opacity="0.06" filter="url(#glow)"/>
  <rect x="0" y="0" width="1200" height="80" fill="url(#hg)" opacity="0.9"/>
  <rect x="0" y="78" width="1200" height="2" fill="#334155" opacity="0.8"/>
  <g transform="translate(48,40)">
    <path d="M0,-22 L18,-12 L18,3 C18,13 10,20 0,24 C-10,20 -18,13 -18,3 L-18,-12 Z" fill="#1e3a5f" stroke="#3b82f6" stroke-width="1.5"/>
    <path d="M-7,1 L-2,6 L8,-5" stroke="#3b82f6" stroke-width="2.5" fill="none" stroke-linecap="round"/>
  </g>
  <text x="80" y="44" font-family="Arial,sans-serif" font-size="28" font-weight="700" fill="#f1f5f9">Security Weekly Digest</text>
  <rect x="990" y="18" width="178" height="44" rx="6" fill="#1e293b" stroke="#334155" stroke-width="1"/>
  <text x="1079" y="48" font-family="Arial,sans-serif" font-size="15" font-weight="700" fill="#94a3b8" text-anchor="middle">April 13, 2026</text>
  <rect x="32" y="100" width="220" height="120" rx="8" fill="#1a0f0f" stroke="#ef4444" stroke-width="1.5"/>
  <circle cx="52" cy="120" r="6" fill="#ef4444"/>
  <g transform="translate(142,148)"><rect x="-16" y="-14" width="32" height="28" rx="4" fill="#1a0505" stroke="#ef4444" stroke-width="1.5"/><text x="0" y="4" font-family="Arial" font-size="8" font-weight="700" fill="#ef4444" text-anchor="middle">CPU</text></g>
  <text x="142" y="197" font-family="Arial,sans-serif" font-size="14" font-weight="700" fill="#ef4444" text-anchor="middle">CPUID CPU-Z</text>
  <rect x="268" y="100" width="220" height="120" rx="8" fill="#1a1000" stroke="#f59e0b" stroke-width="1.5"/>
  <circle cx="288" cy="120" r="6" fill="#f59e0b"/>
  <g transform="translate(378,148)"><path d="M0,-16 L14,12 L-14,12 Z" fill="none" stroke="#f59e0b" stroke-width="2"/><text x="0" y="8" font-family="Arial" font-size="12" font-weight="700" fill="#f59e0b" text-anchor="middle">!</text></g>
  <text x="378" y="197" font-family="Arial,sans-serif" font-size="14" font-weight="700" fill="#f59e0b" text-anchor="middle">MARIMO RCE</text>
  <rect x="504" y="100" width="220" height="120" rx="8" fill="#1a0505" stroke="#dc2626" stroke-width="1.5"/>
  <circle cx="524" cy="120" r="6" fill="#dc2626"/>
  <g transform="translate(614,148)"><rect x="-16" y="-16" width="32" height="32" rx="4" fill="#1a0505" stroke="#dc2626" stroke-width="1.5"/><path d="M-8,0 L0,-10 L8,0 L0,10 Z" fill="#dc2626" opacity="0.4"/></g>
  <text x="614" y="197" font-family="Arial,sans-serif" font-size="13" font-weight="700" fill="#dc2626" text-anchor="middle">ADOBE ZERO-DAY</text>
  <rect x="740" y="100" width="200" height="120" rx="8" fill="#071a10" stroke="#22c55e" stroke-width="1.5"/>
  <circle cx="760" cy="120" r="6" fill="#22c55e"/>
  <g transform="translate(840,148)"><circle r="14" fill="none" stroke="#22c55e" stroke-width="1.5"/><text x="0" y="5" font-family="Arial" font-size="9" font-weight="700" fill="#22c55e" text-anchor="middle">Rs</text></g>
  <text x="840" y="197" font-family="Arial,sans-serif" font-size="14" font-weight="700" fill="#22c55e" text-anchor="middle">PIXEL RUST</text>
  <rect x="956" y="100" width="212" height="120" rx="8" fill="#0a1020" stroke="#3b82f6" stroke-width="1.5"/>
  <circle cx="976" cy="120" r="6" fill="#3b82f6"/>
  <g transform="translate(1062,148)"><path d="M0,-18 L14,-8 L14,6 C14,14 8,18 0,22 C-8,18 -14,14 -14,6 L-14,-8 Z" fill="none" stroke="#3b82f6" stroke-width="1.5"/><path d="M-5,2 L-1,6 L7,-4" stroke="#3b82f6" stroke-width="2" fill="none" stroke-linecap="round"/></g>
  <text x="1062" y="197" font-family="Arial,sans-serif" font-size="14" font-weight="700" fill="#3b82f6" text-anchor="middle">CVE PATCH</text>
  <rect x="32" y="240" width="1136" height="220" rx="10" fill="#0c1220" stroke="#1e293b" stroke-width="1"/>
  <g opacity="0.25"><circle cx="180" cy="330" r="2" fill="#94a3b8"/><circle cx="200" cy="340" r="2" fill="#94a3b8"/><circle cx="550" cy="310" r="2" fill="#94a3b8"/><circle cx="570" cy="325" r="2" fill="#94a3b8"/><circle cx="750" cy="320" r="2" fill="#94a3b8"/><circle cx="900" cy="330" r="2" fill="#94a3b8"/><circle cx="350" cy="350" r="2" fill="#94a3b8"/><circle cx="1000" cy="340" r="2" fill="#94a3b8"/></g>
  <circle cx="170" cy="340" r="22" fill="#1a0505" stroke="#ef4444" stroke-width="2"/>
  <text x="170" y="345" font-family="Arial,sans-serif" font-size="9" font-weight="700" fill="#ef4444" text-anchor="middle">CPU</text>
  <circle cx="400" cy="350" r="20" fill="#1a1000" stroke="#f59e0b" stroke-width="1.5"/>
  <text x="400" y="355" font-family="Arial,sans-serif" font-size="9" fill="#f59e0b" text-anchor="middle">RCE</text>
  <line x1="192" y1="342" x2="380" y2="350" stroke="#ef4444" stroke-width="1.5" stroke-dasharray="10 6" opacity="0.6"/>
  <circle cx="600" cy="330" r="22" fill="#1a0505" stroke="#dc2626" stroke-width="2"/>
  <text x="600" y="335" font-family="Arial,sans-serif" font-size="9" font-weight="700" fill="#dc2626" text-anchor="middle">0day</text>
  <circle cx="780" cy="360" r="18" fill="#071a10" stroke="#22c55e" stroke-width="1.5"/>
  <text x="780" y="365" font-family="Arial,sans-serif" font-size="9" fill="#22c55e" text-anchor="middle">Rust</text>
  <line x1="622" y1="338" x2="762" y2="355" stroke="#dc2626" stroke-width="1.5" stroke-dasharray="8 5" opacity="0.6"/>
  <circle cx="960" cy="340" r="22" fill="#0a1428" stroke="#3b82f6" stroke-width="2"/>
  <text x="960" y="345" font-family="Arial,sans-serif" font-size="9" fill="#3b82f6" text-anchor="middle">CVE</text>
  <line x1="420" y1="348" x2="578" y2="334" stroke="#f59e0b" stroke-width="1.2" stroke-dasharray="8 5" opacity="0.5"/>
  <line x1="800" y1="356" x2="938" y2="344" stroke="#22c55e" stroke-width="1.2" stroke-dasharray="8 5" opacity="0.5"/>
  <rect x="0" y="472" width="1200" height="158" fill="#080c18" opacity="0.95"/>
  <rect x="0" y="472" width="1200" height="2" fill="#1e293b"/>
  <rect x="32" y="490" width="110" height="24" rx="4" fill="#1a0505" stroke="#ef4444" stroke-width="1"/>
  <text x="87" y="506" font-family="Arial,sans-serif" font-size="10" font-weight="700" fill="#ef4444" text-anchor="middle">CPUID CPU-Z</text>
  <rect x="154" y="490" width="110" height="24" rx="4" fill="#1a1000" stroke="#f59e0b" stroke-width="1"/>
  <text x="209" y="506" font-family="Arial,sans-serif" font-size="10" font-weight="700" fill="#f59e0b" text-anchor="middle">MARIMO RCE</text>
  <rect x="276" y="490" width="120" height="24" rx="4" fill="#1a0505" stroke="#dc2626" stroke-width="1"/>
  <text x="336" y="506" font-family="Arial,sans-serif" font-size="10" font-weight="700" fill="#dc2626" text-anchor="middle">ADOBE 0DAY</text>
  <rect x="408" y="490" width="100" height="24" rx="4" fill="#071a10" stroke="#22c55e" stroke-width="1"/>
  <text x="458" y="506" font-family="Arial,sans-serif" font-size="10" font-weight="700" fill="#22c55e" text-anchor="middle">PIXEL RUST</text>
  <rect x="520" y="490" width="100" height="24" rx="4" fill="#0a1020" stroke="#3b82f6" stroke-width="1"/>
  <text x="570" y="506" font-family="Arial,sans-serif" font-size="10" font-weight="700" fill="#3b82f6" text-anchor="middle">CVE PATCH</text>
  <circle cx="32" cy="545" r="4" fill="#ef4444" opacity="0.6"/>
  <text x="46" y="550" font-family="Arial,sans-serif" font-size="12" fill="#475569">Security Weekly Digest | April 13, 2026</text>
  <text x="1168" y="550" font-family="Arial,sans-serif" font-size="12" fill="#475569" text-anchor="end">tech.2twodragon.com</text>
</svg>