<svg xmlns="http://www.w3.org/2000/svg" viewBox="0 0 1200 630" width="1200" height="630" role="img" aria-label="Security guide cover 2026.01.14: AWS In, Environment Management, System Establishment">
<!-- profile: high-quality-cover (L20 Hero+2-Card) -->
<title>Security Guide - 2026.01.14</title>
<defs><linearGradient id="bgSpread" x1="0%" y1="0%" x2="100%" y2="100%"><stop offset="0%" stop-color="#0B1326"/><stop offset="55%" stop-color="#0D1530"/><stop offset="100%" stop-color="#141034"/></linearGradient><linearGradient id="heroPanel" x1="0%" y1="0%" x2="0%" y2="100%"><stop offset="0%" stop-color="#1A0A08"/><stop offset="100%" stop-color="#110608"/></linearGradient><linearGradient id="heroPanelBlue" x1="0%" y1="0%" x2="0%" y2="100%"><stop offset="0%" stop-color="#0A1A30"/><stop offset="100%" stop-color="#071426"/></linearGradient><linearGradient id="heroPanelAmber" x1="0%" y1="0%" x2="0%" y2="100%"><stop offset="0%" stop-color="#1A1208"/><stop offset="100%" stop-color="#120E06"/></linearGradient><linearGradient id="heroPanelGreen" x1="0%" y1="0%" x2="0%" y2="100%"><stop offset="0%" stop-color="#08160E"/><stop offset="100%" stop-color="#04100A"/></linearGradient><linearGradient id="heroPanelPurple" x1="0%" y1="0%" x2="0%" y2="100%"><stop offset="0%" stop-color="#110629"/><stop offset="100%" stop-color="#0A0418"/></linearGradient><radialGradient id="hotRed" cx="50%" cy="50%" r="50%"><stop offset="0%" stop-color="#E63946" stop-opacity="0.6"/><stop offset="100%" stop-color="#E63946" stop-opacity="0"/></radialGradient><radialGradient id="hotBlue" cx="50%" cy="50%" r="50%"><stop offset="0%" stop-color="#3A86FF" stop-opacity="0.5"/><stop offset="100%" stop-color="#3A86FF" stop-opacity="0"/></radialGradient><radialGradient id="hotAmber" cx="50%" cy="50%" r="50%"><stop offset="0%" stop-color="#FFB703" stop-opacity="0.45"/><stop offset="100%" stop-color="#FFB703" stop-opacity="0"/></radialGradient><radialGradient id="hotGreen" cx="50%" cy="50%" r="50%"><stop offset="0%" stop-color="#4ADE80" stop-opacity="0.45"/><stop offset="100%" stop-color="#4ADE80" stop-opacity="0"/></radialGradient><radialGradient id="hotPurple" cx="50%" cy="50%" r="50%"><stop offset="0%" stop-color="#A78BFA" stop-opacity="0.45"/><stop offset="100%" stop-color="#A78BFA" stop-opacity="0"/></radialGradient><pattern id="envGrid" x="0" y="0" width="40" height="40" patternUnits="userSpaceOnUse"><circle cx="20" cy="20" r="0.8" fill="#2A3256" opacity="0.55"/></pattern><filter id="softShadow" x="-10%" y="-10%" width="130%" height="130%"><feGaussianBlur in="SourceAlpha" stdDeviation="3"/><feOffset dx="2" dy="4"/><feComponentTransfer><feFuncA type="linear" slope="0.55"/></feComponentTransfer><feMerge><feMergeNode/><feMergeNode in="SourceGraphic"/></feMerge></filter><filter id="textShadow" x="-10%" y="-10%" width="130%" height="130%"><feGaussianBlur in="SourceAlpha" stdDeviation="1.2"/><feOffset dx="1" dy="1.5"/><feComponentTransfer><feFuncA type="linear" slope="0.7"/></feComponentTransfer><feMerge><feMergeNode/><feMergeNode in="SourceGraphic"/></feMerge></filter></defs>
<rect width="1200" height="630" fill="url(#bgSpread)"/>
<rect width="1200" height="630" fill="url(#envGrid)"/>
<circle cx="310" cy="310" r="160" fill="url(#hotRed)"><animate attributeName="opacity" values="0.6;1;0.6" dur="5.8s" repeatCount="indefinite"/></circle><circle cx="950" cy="210" r="120" fill="url(#hotBlue)"><animate attributeName="opacity" values="0.45;0.85;0.45" dur="6.4s" repeatCount="indefinite"/></circle><circle cx="970" cy="480" r="110" fill="url(#hotAmber)"><animate attributeName="opacity" values="0.4;0.75;0.4" dur="7.1s" repeatCount="indefinite"/></circle><g fill="#8FB8FF"><circle cx="180" cy="70" r="1.2"><animate attributeName="opacity" values="0.2;1;0.2" dur="3.4s" repeatCount="indefinite"/></circle><circle cx="440" cy="62" r="1"><animate attributeName="opacity" values="0.2;0.9;0.2" dur="4.2s" repeatCount="indefinite"/></circle><circle cx="740" cy="68" r="1.3"><animate attributeName="opacity" values="0.25;1;0.25" dur="3.9s" repeatCount="indefinite"/></circle><circle cx="1060" cy="74" r="0.9"><animate attributeName="opacity" values="0.2;0.85;0.2" dur="5.1s" repeatCount="indefinite"/></circle><circle cx="90" cy="580" r="1"><animate attributeName="opacity" values="0.15;0.8;0.15" dur="4.7s" repeatCount="indefinite"/></circle><circle cx="550" cy="590" r="0.8"><animate attributeName="opacity" values="0.2;0.75;0.2" dur="3.6s" begin="0.5s" repeatCount="indefinite"/></circle></g>
<g fill="#7DA3D9" opacity="0.85"><circle cx="252" cy="58" r="0.8"><animate attributeName="opacity" values="0.15;0.7;0.15" dur="4.3s" repeatCount="indefinite"/></circle><circle cx="368" cy="74" r="0.9"><animate attributeName="opacity" values="0.2;0.85;0.2" dur="3.8s" begin="0.4s" repeatCount="indefinite"/></circle><circle cx="624" cy="60" r="1.1"><animate attributeName="opacity" values="0.25;0.95;0.25" dur="4.5s" repeatCount="indefinite"/></circle><circle cx="858" cy="68" r="0.9"><animate attributeName="opacity" values="0.2;0.8;0.2" dur="3.6s" begin="0.6s" repeatCount="indefinite"/></circle><circle cx="996" cy="62" r="1.0"><animate attributeName="opacity" values="0.2;0.9;0.2" dur="4.0s" begin="0.2s" repeatCount="indefinite"/></circle><circle cx="1138" cy="76" r="0.8"><animate attributeName="opacity" values="0.15;0.7;0.15" dur="5.2s" begin="0.5s" repeatCount="indefinite"/></circle><circle cx="218" cy="596" r="0.9"><animate attributeName="opacity" values="0.18;0.75;0.18" dur="4.6s" begin="0.3s" repeatCount="indefinite"/></circle><circle cx="380" cy="608" r="1.0"><animate attributeName="opacity" values="0.2;0.85;0.2" dur="3.9s" begin="0.7s" repeatCount="indefinite"/></circle><circle cx="704" cy="600" r="0.8"><animate attributeName="opacity" values="0.18;0.7;0.18" dur="4.2s" begin="0.4s" repeatCount="indefinite"/></circle><circle cx="892" cy="608" r="1.1"><animate attributeName="opacity" values="0.22;0.9;0.22" dur="4.7s" begin="0.6s" repeatCount="indefinite"/></circle><circle cx="1078" cy="600" r="0.9"><animate attributeName="opacity" values="0.2;0.85;0.2" dur="3.6s" begin="0.8s" repeatCount="indefinite"/></circle></g>
<rect x="0" y="0" width="1200" height="56" fill="#050813" opacity="0.92"/>
<text x="36" y="36" font-family="Inter, Helvetica, Arial, sans-serif" font-size="18" font-weight="700" fill="#8FB8FF" letter-spacing="2.5">SECURITY GUIDE</text>
<text x="1164" y="36" font-family="Inter, Helvetica, Arial, sans-serif" font-size="15" font-weight="600" fill="#7DA3D9" letter-spacing="1.5" text-anchor="end">2026.01.14</text>
<rect x="0" y="54" width="1200" height="2" fill="#E63946" opacity="0.85"><animate attributeName="opacity" values="0.4;1;0.4" dur="4.8s" repeatCount="indefinite"/></rect>
<rect x="32" y="80" width="600" height="510" rx="14" ry="14" fill="url(#heroPanelBlue)" stroke="#3A86FF" stroke-width="1.8" opacity="0.98"/>
<circle cx="160" cy="300" r="240" fill="url(#hotBlue)" opacity="0.28"/>
<rect x="32" y="80" width="600" height="4" fill="#3A86FF" opacity="0.85"><animate attributeName="opacity" values="0.5;1;0.5" dur="3.4s" repeatCount="indefinite"/></rect>
<g filter="url(#textShadow)">
<text x="54" y="112" font-family="Inter, Helvetica, Arial, sans-serif" font-size="13" font-weight="700" fill="#60A5FA" letter-spacing="3">HIGH  /  01</text>
<text x="54" y="146" font-family="Inter, Helvetica, Arial, sans-serif" font-size="31" font-weight="800" fill="#F8FAFC">AWS In</text>
<text x="54" y="174" font-family="Inter, Helvetica, Arial, sans-serif" font-size="17" font-weight="500" fill="#BFC9D9">Environment Management - System Establishment</text>
</g>
<g transform="translate(332,360)" opacity="0.32"><circle r="180" fill="none" stroke="#3A86FF" stroke-width="0.6" stroke-dasharray="2 4"/><circle r="140" fill="none" stroke="#3A86FF" stroke-width="0.6" stroke-dasharray="2 4" opacity="0.7"/><circle r="100" fill="none" stroke="#3A86FF" stroke-width="0.6" stroke-dasharray="2 4" opacity="0.5"/><g><path d="M0 0 L180 0 A180 180 0 0 1 127 127 Z" fill="#3A86FF" opacity="0.10"/><animateTransform attributeName="transform" type="rotate" from="0" to="360" dur="14s" repeatCount="indefinite"/></g></g>
<g stroke="#3A86FF" stroke-width="1.4" fill="none" opacity="0.7"><path d="M36 96 L36 84 L48 84"/><path d="M616 84 L628 84 L628 96"/><path d="M36 574 L36 586 L48 586"/><path d="M616 586 L628 586 L628 574"/></g>
<g><rect x="54" y="526" width="280" height="1" fill="#3A86FF" opacity="0.35"/><rect x="54" y="528" width="1" height="4" fill="#3A86FF" opacity="0.55"/><rect x="68" y="528" width="1" height="2" fill="#3A86FF" opacity="0.55"/><rect x="82" y="528" width="1" height="2" fill="#3A86FF" opacity="0.55"/><rect x="96" y="528" width="1" height="4" fill="#3A86FF" opacity="0.55"/><rect x="110" y="528" width="1" height="2" fill="#3A86FF" opacity="0.55"/><rect x="124" y="528" width="1" height="2" fill="#3A86FF" opacity="0.55"/><rect x="138" y="528" width="1" height="4" fill="#3A86FF" opacity="0.55"/><rect x="152" y="528" width="1" height="2" fill="#3A86FF" opacity="0.55"/><rect x="166" y="528" width="1" height="2" fill="#3A86FF" opacity="0.55"/><rect x="180" y="528" width="1" height="4" fill="#3A86FF" opacity="0.55"/><rect x="194" y="528" width="1" height="2" fill="#3A86FF" opacity="0.55"/><rect x="208" y="528" width="1" height="2" fill="#3A86FF" opacity="0.55"/><rect x="222" y="528" width="1" height="4" fill="#3A86FF" opacity="0.55"/><rect x="236" y="528" width="1" height="2" fill="#3A86FF" opacity="0.55"/><rect x="250" y="528" width="1" height="2" fill="#3A86FF" opacity="0.55"/><rect x="264" y="528" width="1" height="4" fill="#3A86FF" opacity="0.55"/><rect x="278" y="528" width="1" height="2" fill="#3A86FF" opacity="0.55"/><rect x="292" y="528" width="1" height="2" fill="#3A86FF" opacity="0.55"/><rect x="306" y="528" width="1" height="4" fill="#3A86FF" opacity="0.55"/><rect x="320" y="528" width="1" height="2" fill="#3A86FF" opacity="0.55"/><rect x="284" y="527" width="50" height="6" fill="#3A86FF" opacity="0.45"><animate attributeName="x" values="54;284;54" dur="6.4s" repeatCount="indefinite"/><animate attributeName="opacity" values="0.2;0.7;0.2" dur="6.4s" repeatCount="indefinite"/></rect></g>
<g transform="translate(332,360)"><g font-family="Inter, monospace" font-size="8" font-weight="800"><g transform="translate(-150,-40)"><rect x="0" y="0" width="76" height="24" rx="4" fill="#0E1426" stroke="#3A86FF" stroke-width="1.2"/><text x="38" y="15" text-anchor="middle" fill="#60A5FA">DIGEST</text></g><g transform="translate(-150,-6)"><rect x="0" y="0" width="76" height="24" rx="4" fill="#0E1426" stroke="#3A86FF" stroke-width="1.2" opacity="0.88"/><text x="38" y="15" text-anchor="middle" fill="#60A5FA">ECOSYSTEM</text></g><g transform="translate(-150,28)"><rect x="0" y="0" width="76" height="24" rx="4" fill="#0E1426" stroke="#3A86FF" stroke-width="1.2" opacity="0.76"/><text x="38" y="15" text-anchor="middle" fill="#60A5FA">RELEASE</text></g></g><g stroke="#3A86FF" stroke-width="1" stroke-dasharray="3 2" fill="none" opacity="0.6"><line x1="-74" y1="-28" x2="-8" y2="0"/><line x1="-74" y1="6" x2="-8" y2="2"/><line x1="-74" y1="40" x2="-8" y2="4"/></g><g fill="#60A5FA"><circle r="2"><animateMotion path="M-74 -28 L-8 0" dur="2.2s" repeatCount="indefinite"/></circle><circle r="2"><animateMotion path="M-74 6 L-8 2" dur="2s" begin="0.4s" repeatCount="indefinite"/></circle><circle r="2"><animateMotion path="M-74 40 L-8 4" dur="2.4s" begin="0.8s" repeatCount="indefinite"/></circle></g><circle cx="0" cy="2" r="30" fill="#0A1326" stroke="#3A86FF" stroke-width="2" filter="url(#softShadow)"><animate attributeName="r" values="28;33;28" dur="3.4s" repeatCount="indefinite"/></circle><text x="0" y="-1" text-anchor="middle" font-family="Inter, monospace" font-size="11" font-weight="900" fill="#60A5FA">UPDATE</text><text x="0" y="13" text-anchor="middle" font-family="Inter, monospace" font-size="8" font-weight="700" fill="#4ADE80">RELEASE</text><g transform="translate(56,-44)" filter="url(#softShadow)"><rect x="0" y="0" width="120" height="92" rx="6" fill="#0A0F1E" stroke="#3A86FF" stroke-width="1.2"/><text x="60" y="16" text-anchor="middle" font-family="Inter, monospace" font-size="9" font-weight="800" fill="#60A5FA">ACTIVITY</text><polyline points="12,72 30,60 46,64 62,48 80,52 98,34 108,30" fill="none" stroke="#3A86FF" stroke-width="2" stroke-linecap="round" stroke-linejoin="round"/><circle cx="108" cy="30" r="3" fill="#60A5FA"><animate attributeName="opacity" values="0.5;1;0.5" dur="2s" repeatCount="indefinite"/></circle><g stroke="#3A86FF" stroke-width="0.6" opacity="0.3"><line x1="12" y1="46" x2="108" y2="46"/><line x1="12" y1="62" x2="108" y2="62"/></g><text x="60" y="86" text-anchor="middle" font-family="Inter, monospace" font-size="8" font-weight="600" fill="#3A86FF">trend overview</text></g></g>
<g transform="translate(54,548)">
<rect x="0" y="0" width="280" height="24" rx="3" fill="#3A86FF" opacity="0.95"/>
<text x="140" y="17" text-anchor="middle" font-family="Inter, Helvetica, Arial, sans-serif" font-size="12" font-weight="700" fill="#FFFFFF">READ THE FULL GUIDE</text>
</g>
<text x="350" y="566" font-family="Inter, Helvetica, Arial, sans-serif" font-size="13" font-weight="600" fill="#A5B4C4" font-style="italic">Security Guide  /  2026.01.14</text>
<rect x="652" y="80" width="516" height="248" rx="14" ry="14" fill="url(#heroPanelBlue)" stroke="#3A86FF" stroke-width="1.6" opacity="0.97"/>
<rect x="652" y="80" width="516" height="4" fill="#3A86FF" opacity="0.85"><animate attributeName="opacity" values="0.5;1;0.5" dur="4.2s" repeatCount="indefinite"/></rect>
<g filter="url(#textShadow)">
<text x="670" y="110" font-family="Inter, Helvetica, Arial, sans-serif" font-size="12" font-weight="700" fill="#7DA3D9" letter-spacing="3">HIGH  /  02</text>
<text x="670" y="140" font-family="Inter, Helvetica, Arial, sans-serif" font-size="24" font-weight="800" fill="#F5F7FA">Environment Management</text>
<text x="670" y="163" font-family="Inter, Helvetica, Arial, sans-serif" font-size="14" font-weight="500" fill="#BFC9D9">AWS In - System Establishment</text>
</g>
<g stroke="#3A86FF" stroke-width="1.4" fill="none" opacity="0.7"><path d="M656 93 L656 84 L665 84"/><path d="M1155 84 L1164 84 L1164 93"/><path d="M656 315 L656 324 L665 324"/><path d="M1155 324 L1164 324 L1164 315"/></g>
<g transform="translate(800,230)"><g font-family="Inter, monospace" font-size="8" font-weight="800"><g transform="translate(-150,-40)"><rect x="0" y="0" width="76" height="24" rx="4" fill="#0E1426" stroke="#3A86FF" stroke-width="1.2"/><text x="38" y="15" text-anchor="middle" fill="#60A5FA">DIGEST</text></g><g transform="translate(-150,-6)"><rect x="0" y="0" width="76" height="24" rx="4" fill="#0E1426" stroke="#3A86FF" stroke-width="1.2" opacity="0.88"/><text x="38" y="15" text-anchor="middle" fill="#60A5FA">ECOSYSTEM</text></g><g transform="translate(-150,28)"><rect x="0" y="0" width="76" height="24" rx="4" fill="#0E1426" stroke="#3A86FF" stroke-width="1.2" opacity="0.76"/><text x="38" y="15" text-anchor="middle" fill="#60A5FA">RELEASE</text></g></g><g stroke="#3A86FF" stroke-width="1" stroke-dasharray="3 2" fill="none" opacity="0.6"><line x1="-74" y1="-28" x2="-8" y2="0"/><line x1="-74" y1="6" x2="-8" y2="2"/><line x1="-74" y1="40" x2="-8" y2="4"/></g><g fill="#60A5FA"><circle r="2"><animateMotion path="M-74 -28 L-8 0" dur="2.2s" repeatCount="indefinite"/></circle><circle r="2"><animateMotion path="M-74 6 L-8 2" dur="2s" begin="0.4s" repeatCount="indefinite"/></circle><circle r="2"><animateMotion path="M-74 40 L-8 4" dur="2.4s" begin="0.8s" repeatCount="indefinite"/></circle></g><circle cx="0" cy="2" r="30" fill="#0A1326" stroke="#3A86FF" stroke-width="2" filter="url(#softShadow)"><animate attributeName="r" values="28;33;28" dur="3.4s" repeatCount="indefinite"/></circle><text x="0" y="-1" text-anchor="middle" font-family="Inter, monospace" font-size="11" font-weight="900" fill="#60A5FA">UPDATE</text><text x="0" y="13" text-anchor="middle" font-family="Inter, monospace" font-size="8" font-weight="700" fill="#3A86FF">ECOSYSTEM</text><g transform="translate(56,-44)" filter="url(#softShadow)"><rect x="0" y="0" width="120" height="92" rx="6" fill="#0A0F1E" stroke="#3A86FF" stroke-width="1.2"/><text x="60" y="16" text-anchor="middle" font-family="Inter, monospace" font-size="9" font-weight="800" fill="#60A5FA">ACTIVITY</text><polyline points="12,72 30,60 46,64 62,48 80,52 98,34 108,30" fill="none" stroke="#3A86FF" stroke-width="2" stroke-linecap="round" stroke-linejoin="round"/><circle cx="108" cy="30" r="3" fill="#60A5FA"><animate attributeName="opacity" values="0.5;1;0.5" dur="2s" repeatCount="indefinite"/></circle><g stroke="#3A86FF" stroke-width="0.6" opacity="0.3"><line x1="12" y1="46" x2="108" y2="46"/><line x1="12" y1="62" x2="108" y2="62"/></g><text x="60" y="86" text-anchor="middle" font-family="Inter, monospace" font-size="8" font-weight="600" fill="#3A86FF">trend overview</text></g></g>
<g transform="translate(1094,168)" filter="url(#softShadow)"><rect x="-68" y="-55" width="140" height="110" rx="10" fill="#071426" stroke="#3A86FF" stroke-width="2"/><text x="2" y="-28" text-anchor="middle" font-family="Inter, Helvetica, Arial, sans-serif" font-size="10" font-weight="700" letter-spacing="2" fill="#7DA3D9">STATUS</text><text x="2" y="18" text-anchor="middle" font-family="Inter, Helvetica, Arial, sans-serif" font-size="28" font-weight="900" fill="#F5F7FA">TBD</text><text x="2" y="40" text-anchor="middle" font-family="Inter, Helvetica, Arial, sans-serif" font-size="10" font-weight="600" fill="#BFC9D9">NEW</text></g>
<rect x="652" y="344" width="516" height="246" rx="14" ry="14" fill="url(#heroPanelBlue)" stroke="#3A86FF" stroke-width="1.6" opacity="0.97"/>
<rect x="652" y="344" width="516" height="4" fill="#3A86FF" opacity="0.85"><animate attributeName="opacity" values="0.5;1;0.5" dur="4.8s" repeatCount="indefinite"/></rect>
<g filter="url(#textShadow)">
<text x="670" y="374" font-family="Inter, Helvetica, Arial, sans-serif" font-size="12" font-weight="700" fill="#7DA3D9" letter-spacing="3">MEDIUM  /  03</text>
<text x="670" y="404" font-family="Inter, Helvetica, Arial, sans-serif" font-size="24" font-weight="800" fill="#F5F7FA">System Establishment</text>
<text x="670" y="428" font-family="Inter, Helvetica, Arial, sans-serif" font-size="14" font-weight="500" fill="#BFC9D9">AWS In - Environment Management</text>
</g>
<g stroke="#3A86FF" stroke-width="1.4" fill="none" opacity="0.7"><path d="M656 357 L656 348 L665 348"/><path d="M1155 348 L1164 348 L1164 357"/><path d="M656 577 L656 586 L665 586"/><path d="M1155 586 L1164 586 L1164 577"/></g>
<g transform="translate(800,490)"><g font-family="Inter, monospace" font-size="8" font-weight="800"><g transform="translate(-150,-40)"><rect x="0" y="0" width="76" height="24" rx="4" fill="#0E1426" stroke="#3A86FF" stroke-width="1.2"/><text x="38" y="15" text-anchor="middle" fill="#60A5FA">DIGEST</text></g><g transform="translate(-150,-6)"><rect x="0" y="0" width="76" height="24" rx="4" fill="#0E1426" stroke="#3A86FF" stroke-width="1.2" opacity="0.88"/><text x="38" y="15" text-anchor="middle" fill="#60A5FA">ECOSYSTEM</text></g><g transform="translate(-150,28)"><rect x="0" y="0" width="76" height="24" rx="4" fill="#0E1426" stroke="#3A86FF" stroke-width="1.2" opacity="0.76"/><text x="38" y="15" text-anchor="middle" fill="#60A5FA">RELEASE</text></g></g><g stroke="#3A86FF" stroke-width="1" stroke-dasharray="3 2" fill="none" opacity="0.6"><line x1="-74" y1="-28" x2="-8" y2="0"/><line x1="-74" y1="6" x2="-8" y2="2"/><line x1="-74" y1="40" x2="-8" y2="4"/></g><g fill="#60A5FA"><circle r="2"><animateMotion path="M-74 -28 L-8 0" dur="2.2s" repeatCount="indefinite"/></circle><circle r="2"><animateMotion path="M-74 6 L-8 2" dur="2s" begin="0.4s" repeatCount="indefinite"/></circle><circle r="2"><animateMotion path="M-74 40 L-8 4" dur="2.4s" begin="0.8s" repeatCount="indefinite"/></circle></g><circle cx="0" cy="2" r="30" fill="#0A1326" stroke="#3A86FF" stroke-width="2" filter="url(#softShadow)"><animate attributeName="r" values="28;33;28" dur="3.4s" repeatCount="indefinite"/></circle><text x="0" y="-1" text-anchor="middle" font-family="Inter, monospace" font-size="11" font-weight="900" fill="#60A5FA">UPDATE</text><text x="0" y="13" text-anchor="middle" font-family="Inter, monospace" font-size="8" font-weight="700" fill="#FFB703">ADVISORY</text><g transform="translate(56,-44)" filter="url(#softShadow)"><rect x="0" y="0" width="120" height="92" rx="6" fill="#0A0F1E" stroke="#3A86FF" stroke-width="1.2"/><text x="60" y="16" text-anchor="middle" font-family="Inter, monospace" font-size="9" font-weight="800" fill="#60A5FA">ACTIVITY</text><polyline points="12,72 30,60 46,64 62,48 80,52 98,34 108,30" fill="none" stroke="#3A86FF" stroke-width="2" stroke-linecap="round" stroke-linejoin="round"/><circle cx="108" cy="30" r="3" fill="#60A5FA"><animate attributeName="opacity" values="0.5;1;0.5" dur="2s" repeatCount="indefinite"/></circle><g stroke="#3A86FF" stroke-width="0.6" opacity="0.3"><line x1="12" y1="46" x2="108" y2="46"/><line x1="12" y1="62" x2="108" y2="62"/></g><text x="60" y="86" text-anchor="middle" font-family="Inter, monospace" font-size="8" font-weight="600" fill="#3A86FF">trend overview</text></g></g>
<g transform="translate(1094,414)" filter="url(#softShadow)"><rect x="-68" y="-55" width="140" height="110" rx="10" fill="#071426" stroke="#3A86FF" stroke-width="2"/><text x="2" y="-28" text-anchor="middle" font-family="Inter, Helvetica, Arial, sans-serif" font-size="10" font-weight="700" letter-spacing="2" fill="#7DA3D9">STATUS</text><text x="2" y="18" text-anchor="middle" font-family="Inter, Helvetica, Arial, sans-serif" font-size="28" font-weight="900" fill="#F5F7FA">TBD</text><text x="2" y="40" text-anchor="middle" font-family="Inter, Helvetica, Arial, sans-serif" font-size="10" font-weight="600" fill="#BFC9D9">NEW</text></g>
<g opacity="0.85"><g fill="#F87171"><circle cx="1104" cy="110" r="1.4"><animate attributeName="opacity" values="0.2;1;0.2" dur="1.8s" repeatCount="indefinite"/></circle><circle cx="1124" cy="110" r="1.4"><animate attributeName="opacity" values="0.2;1;0.2" dur="1.4s" begin="0.3s" repeatCount="indefinite"/></circle></g><g fill="#7DA3D9"><circle cx="1104" cy="218" r="1.2"><animate attributeName="opacity" values="0.2;1;0.2" dur="2s" repeatCount="indefinite"/></circle><circle cx="1124" cy="218" r="1.2"><animate attributeName="opacity" values="0.2;1;0.2" dur="1.6s" begin="0.4s" repeatCount="indefinite"/></circle></g><g fill="#FFD58A"><circle cx="1104" cy="374" r="1.4"><animate attributeName="opacity" values="0.2;1;0.2" dur="1.8s" repeatCount="indefinite"/></circle><circle cx="1124" cy="374" r="1.4"><animate attributeName="opacity" values="0.2;1;0.2" dur="1.6s" begin="0.3s" repeatCount="indefinite"/></circle></g><g stroke="#E63946" stroke-width="0.5" fill="none"><path d="M20 230 L28 230"><animate attributeName="stroke-opacity" values="0;0.7;0" dur="2s" repeatCount="indefinite"/></path><path d="M20 300 L28 300"><animate attributeName="stroke-opacity" values="0;0.7;0" dur="2.3s" begin="0.3s" repeatCount="indefinite"/></path><path d="M20 370 L28 370"><animate attributeName="stroke-opacity" values="0;0.7;0" dur="1.9s" begin="0.6s" repeatCount="indefinite"/></path><path d="M20 440 L28 440"><animate attributeName="stroke-opacity" values="0;0.7;0" dur="2.1s" begin="0.9s" repeatCount="indefinite"/></path></g></g>
<g transform="translate(1080,504)" filter="url(#softShadow)">
  <rect x="-12" y="-12" width="132" height="132" rx="8" fill="#FFFFFF"/>
  <path fill="#0A1020" d="M0.0 0.0h14.264v2.038h-14.264z M16.302 0.0h2.038v2.038h-2.038z M22.415 0.0h2.038v2.038h-2.038z M28.528 0.0h2.038v2.038h-2.038z M32.604 0.0h4.075v2.038h-4.075z M40.755 0.0h6.113v2.038h-6.113z M50.943 0.0h2.038v2.038h-2.038z M57.057 0.0h2.038v2.038h-2.038z M61.132 0.0h4.075v2.038h-4.075z M69.283 0.0h4.075v2.038h-4.075z M77.434 0.0h4.075v2.038h-4.075z M83.547 0.0h4.075v2.038h-4.075z M93.736 0.0h14.264v2.038h-14.264z M0.0 2.038h2.038v2.038h-2.038z M12.226 2.038h2.038v2.038h-2.038z M26.491 2.038h4.075v2.038h-4.075z M34.642 2.038h2.038v2.038h-2.038z M38.717 2.038h4.075v2.038h-4.075z M48.906 2.038h4.075v2.038h-4.075z M55.019 2.038h2.038v2.038h-2.038z M59.094 2.038h4.075v2.038h-4.075z M69.283 2.038h2.038v2.038h-2.038z M77.434 2.038h2.038v2.038h-2.038z M83.547 2.038h6.113v2.038h-6.113z M93.736 2.038h2.038v2.038h-2.038z M105.962 2.038h2.038v2.038h-2.038z M0.0 4.075h2.038v2.038h-2.038z M4.075 4.075h6.113v2.038h-6.113z M12.226 4.075h2.038v2.038h-2.038z M16.302 4.075h6.113v2.038h-6.113z M26.491 4.075h4.075v2.038h-4.075z M32.604 4.075h8.151v2.038h-8.151z M52.981 4.075h6.113v2.038h-6.113z M61.132 4.075h4.075v2.038h-4.075z M75.396 4.075h6.113v2.038h-6.113z M83.547 4.075h2.038v2.038h-2.038z M87.623 4.075h2.038v2.038h-2.038z M93.736 4.075h2.038v2.038h-2.038z M97.811 4.075h6.113v2.038h-6.113z M105.962 4.075h2.038v2.038h-2.038z M0.0 6.113h2.038v2.038h-2.038z M4.075 6.113h6.113v2.038h-6.113z M12.226 6.113h2.038v2.038h-2.038z M18.34 6.113h4.075v2.038h-4.075z M28.528 6.113h2.038v2.038h-2.038z M32.604 6.113h4.075v2.038h-4.075z M38.717 6.113h4.075v2.038h-4.075z M46.868 6.113h2.038v2.038h-2.038z M52.981 6.113h4.075v2.038h-4.075z M61.132 6.113h4.075v2.038h-4.075z M67.245 6.113h2.038v2.038h-2.038z M71.321 6.113h2.038v2.038h-2.038z M77.434 6.113h4.075v2.038h-4.075z M83.547 6.113h4.075v2.038h-4.075z M89.66 6.113h2.038v2.038h-2.038z M93.736 6.113h2.038v2.038h-2.038z M97.811 6.113h6.113v2.038h-6.113z M105.962 6.113h2.038v2.038h-2.038z M0.0 8.151h2.038v2.038h-2.038z M4.075 8.151h6.113v2.038h-6.113z M12.226 8.151h2.038v2.038h-2.038z M20.377 8.151h4.075v2.038h-4.075z M26.491 8.151h4.075v2.038h-4.075z M34.642 8.151h10.189v2.038h-10.189z M48.906 8.151h10.189v2.038h-10.189z M61.132 8.151h4.075v2.038h-4.075z M69.283 8.151h2.038v2.038h-2.038z M73.358 8.151h2.038v2.038h-2.038z M77.434 8.151h2.038v2.038h-2.038z M81.509 8.151h2.038v2.038h-2.038z M85.585 8.151h2.038v2.038h-2.038z M93.736 8.151h2.038v2.038h-2.038z M97.811 8.151h6.113v2.038h-6.113z M105.962 8.151h2.038v2.038h-2.038z M0.0 10.189h2.038v2.038h-2.038z M12.226 10.189h2.038v2.038h-2.038z M16.302 10.189h2.038v2.038h-2.038z M28.528 10.189h2.038v2.038h-2.038z M32.604 10.189h4.075v2.038h-4.075z M40.755 10.189h6.113v2.038h-6.113z M48.906 10.189h2.038v2.038h-2.038z M57.057 10.189h2.038v2.038h-2.038z M61.132 10.189h8.151v2.038h-8.151z M71.321 10.189h10.189v2.038h-10.189z M85.585 10.189h2.038v2.038h-2.038z M93.736 10.189h2.038v2.038h-2.038z M105.962 10.189h2.038v2.038h-2.038z M0.0 12.226h14.264v2.038h-14.264z M16.302 12.226h2.038v2.038h-2.038z M20.377 12.226h2.038v2.038h-2.038z M24.453 12.226h2.038v2.038h-2.038z M28.528 12.226h2.038v2.038h-2.038z M32.604 12.226h2.038v2.038h-2.038z M36.679 12.226h2.038v2.038h-2.038z M40.755 12.226h2.038v2.038h-2.038z M44.83 12.226h2.038v2.038h-2.038z M48.906 12.226h2.038v2.038h-2.038z M52.981 12.226h2.038v2.038h-2.038z M57.057 12.226h2.038v2.038h-2.038z M61.132 12.226h2.038v2.038h-2.038z M65.208 12.226h2.038v2.038h-2.038z M69.283 12.226h2.038v2.038h-2.038z M73.358 12.226h2.038v2.038h-2.038z M77.434 12.226h2.038v2.038h-2.038z M81.509 12.226h2.038v2.038h-2.038z M85.585 12.226h2.038v2.038h-2.038z M89.66 12.226h2.038v2.038h-2.038z M93.736 12.226h14.264v2.038h-14.264z M18.34 14.264h2.038v2.038h-2.038z M26.491 14.264h2.038v2.038h-2.038z M30.566 14.264h6.113v2.038h-6.113z M40.755 14.264h6.113v2.038h-6.113z M48.906 14.264h2.038v2.038h-2.038z M57.057 14.264h2.038v2.038h-2.038z M61.132 14.264h2.038v2.038h-2.038z M65.208 14.264h2.038v2.038h-2.038z M69.283 14.264h2.038v2.038h-2.038z M73.358 14.264h8.151v2.038h-8.151z M83.547 14.264h2.038v2.038h-2.038z M87.623 14.264h4.075v2.038h-4.075z M0.0 16.302h2.038v2.038h-2.038z M4.075 16.302h2.038v2.038h-2.038z M12.226 16.302h4.075v2.038h-4.075z M30.566 16.302h4.075v2.038h-4.075z M36.679 16.302h2.038v2.038h-2.038z M44.83 16.302h18.34v2.038h-18.34z M65.208 16.302h2.038v2.038h-2.038z M69.283 16.302h2.038v2.038h-2.038z M73.358 16.302h2.038v2.038h-2.038z M81.509 16.302h6.113v2.038h-6.113z M89.66 16.302h2.038v2.038h-2.038z M95.774 16.302h2.038v2.038h-2.038z M101.887 16.302h2.038v2.038h-2.038z M105.962 16.302h2.038v2.038h-2.038z M4.075 18.34h2.038v2.038h-2.038z M14.264 18.34h4.075v2.038h-4.075z M22.415 18.34h2.038v2.038h-2.038z M30.566 18.34h2.038v2.038h-2.038z M34.642 18.34h4.075v2.038h-4.075z M44.83 18.34h4.075v2.038h-4.075z M57.057 18.34h4.075v2.038h-4.075z M63.17 18.34h2.038v2.038h-2.038z M67.245 18.34h2.038v2.038h-2.038z M75.396 18.34h2.038v2.038h-2.038z M79.472 18.34h2.038v2.038h-2.038z M83.547 18.34h2.038v2.038h-2.038z M87.623 18.34h2.038v2.038h-2.038z M95.774 18.34h4.075v2.038h-4.075z M103.925 18.34h4.075v2.038h-4.075z M2.038 20.377h2.038v2.038h-2.038z M8.151 20.377h2.038v2.038h-2.038z M12.226 20.377h2.038v2.038h-2.038z M22.415 20.377h2.038v2.038h-2.038z M26.491 20.377h2.038v2.038h-2.038z M36.679 20.377h2.038v2.038h-2.038z M40.755 20.377h2.038v2.038h-2.038z M48.906 20.377h6.113v2.038h-6.113z M57.057 20.377h4.075v2.038h-4.075z M65.208 20.377h4.075v2.038h-4.075z M73.358 20.377h6.113v2.038h-6.113z M81.509 20.377h4.075v2.038h-4.075z M95.774 20.377h6.113v2.038h-6.113z M105.962 20.377h2.038v2.038h-2.038z M2.038 22.415h2.038v2.038h-2.038z M6.113 22.415h2.038v2.038h-2.038z M10.189 22.415h2.038v2.038h-2.038z M14.264 22.415h4.075v2.038h-4.075z M32.604 22.415h2.038v2.038h-2.038z M40.755 22.415h8.151v2.038h-8.151z M50.943 22.415h2.038v2.038h-2.038z M57.057 22.415h6.113v2.038h-6.113z M65.208 22.415h2.038v2.038h-2.038z M75.396 22.415h6.113v2.038h-6.113z M83.547 22.415h8.151v2.038h-8.151z M97.811 22.415h2.038v2.038h-2.038z M6.113 24.453h10.189v2.038h-10.189z M18.34 24.453h4.075v2.038h-4.075z M28.528 24.453h2.038v2.038h-2.038z M36.679 24.453h2.038v2.038h-2.038z M40.755 24.453h2.038v2.038h-2.038z M44.83 24.453h8.151v2.038h-8.151z M59.094 24.453h2.038v2.038h-2.038z M65.208 24.453h2.038v2.038h-2.038z M69.283 24.453h2.038v2.038h-2.038z M73.358 24.453h2.038v2.038h-2.038z M81.509 24.453h2.038v2.038h-2.038z M87.623 24.453h4.075v2.038h-4.075z M93.736 24.453h2.038v2.038h-2.038z M97.811 24.453h2.038v2.038h-2.038z M103.925 24.453h2.038v2.038h-2.038z M8.151 26.491h4.075v2.038h-4.075z M20.377 26.491h2.038v2.038h-2.038z M24.453 26.491h4.075v2.038h-4.075z M30.566 26.491h4.075v2.038h-4.075z M40.755 26.491h2.038v2.038h-2.038z M46.868 26.491h2.038v2.038h-2.038z M57.057 26.491h4.075v2.038h-4.075z M63.17 26.491h6.113v2.038h-6.113z M71.321 26.491h6.113v2.038h-6.113z M79.472 26.491h2.038v2.038h-2.038z M87.623 26.491h2.038v2.038h-2.038z M95.774 26.491h2.038v2.038h-2.038z M99.849 26.491h4.075v2.038h-4.075z M105.962 26.491h2.038v2.038h-2.038z M2.038 28.528h6.113v2.038h-6.113z M12.226 28.528h2.038v2.038h-2.038z M16.302 28.528h2.038v2.038h-2.038z M22.415 28.528h4.075v2.038h-4.075z M28.528 28.528h4.075v2.038h-4.075z M34.642 28.528h2.038v2.038h-2.038z M40.755 28.528h2.038v2.038h-2.038z M46.868 28.528h2.038v2.038h-2.038z M57.057 28.528h2.038v2.038h-2.038z M63.17 28.528h6.113v2.038h-6.113z M75.396 28.528h4.075v2.038h-4.075z M81.509 28.528h2.038v2.038h-2.038z M91.698 28.528h2.038v2.038h-2.038z M95.774 28.528h2.038v2.038h-2.038z M105.962 28.528h2.038v2.038h-2.038z M8.151 30.566h2.038v2.038h-2.038z M14.264 30.566h2.038v2.038h-2.038z M18.34 30.566h6.113v2.038h-6.113z M26.491 30.566h6.113v2.038h-6.113z M36.679 30.566h2.038v2.038h-2.038z M42.792 30.566h6.113v2.038h-6.113z M50.943 30.566h2.038v2.038h-2.038z M55.019 30.566h2.038v2.038h-2.038z M63.17 30.566h4.075v2.038h-4.075z M73.358 30.566h12.226v2.038h-12.226z M87.623 30.566h6.113v2.038h-6.113z M97.811 30.566h4.075v2.038h-4.075z M0.0 32.604h2.038v2.038h-2.038z M4.075 32.604h2.038v2.038h-2.038z M12.226 32.604h4.075v2.038h-4.075z M22.415 32.604h2.038v2.038h-2.038z M28.528 32.604h2.038v2.038h-2.038z M34.642 32.604h4.075v2.038h-4.075z M40.755 32.604h2.038v2.038h-2.038z M44.83 32.604h2.038v2.038h-2.038z M48.906 32.604h4.075v2.038h-4.075z M55.019 32.604h2.038v2.038h-2.038z M65.208 32.604h10.189v2.038h-10.189z M77.434 32.604h6.113v2.038h-6.113z M87.623 32.604h2.038v2.038h-2.038z M93.736 32.604h2.038v2.038h-2.038z M97.811 32.604h4.075v2.038h-4.075z M105.962 32.604h2.038v2.038h-2.038z M2.038 34.642h6.113v2.038h-6.113z M14.264 34.642h2.038v2.038h-2.038z M20.377 34.642h4.075v2.038h-4.075z M26.491 34.642h2.038v2.038h-2.038z M30.566 34.642h6.113v2.038h-6.113z M40.755 34.642h4.075v2.038h-4.075z M48.906 34.642h12.226v2.038h-12.226z M65.208 34.642h4.075v2.038h-4.075z M71.321 34.642h6.113v2.038h-6.113z M81.509 34.642h4.075v2.038h-4.075z M91.698 34.642h2.038v2.038h-2.038z M95.774 34.642h2.038v2.038h-2.038z M105.962 34.642h2.038v2.038h-2.038z M0.0 36.679h4.075v2.038h-4.075z M6.113 36.679h20.377v2.038h-20.377z M32.604 36.679h6.113v2.038h-6.113z M40.755 36.679h6.113v2.038h-6.113z M52.981 36.679h2.038v2.038h-2.038z M57.057 36.679h4.075v2.038h-4.075z M67.245 36.679h2.038v2.038h-2.038z M71.321 36.679h4.075v2.038h-4.075z M77.434 36.679h2.038v2.038h-2.038z M87.623 36.679h4.075v2.038h-4.075z M101.887 36.679h2.038v2.038h-2.038z M105.962 36.679h2.038v2.038h-2.038z M6.113 38.717h2.038v2.038h-2.038z M10.189 38.717h2.038v2.038h-2.038z M14.264 38.717h4.075v2.038h-4.075z M24.453 38.717h2.038v2.038h-2.038z M28.528 38.717h2.038v2.038h-2.038z M36.679 38.717h4.075v2.038h-4.075z M42.792 38.717h2.038v2.038h-2.038z M46.868 38.717h2.038v2.038h-2.038z M50.943 38.717h2.038v2.038h-2.038z M55.019 38.717h6.113v2.038h-6.113z M63.17 38.717h4.075v2.038h-4.075z M71.321 38.717h6.113v2.038h-6.113z M79.472 38.717h4.075v2.038h-4.075z M87.623 38.717h2.038v2.038h-2.038z M91.698 38.717h2.038v2.038h-2.038z M97.811 38.717h4.075v2.038h-4.075z M105.962 38.717h2.038v2.038h-2.038z M2.038 40.755h2.038v2.038h-2.038z M10.189 40.755h4.075v2.038h-4.075z M16.302 40.755h4.075v2.038h-4.075z M22.415 40.755h4.075v2.038h-4.075z M36.679 40.755h2.038v2.038h-2.038z M42.792 40.755h10.189v2.038h-10.189z M59.094 40.755h4.075v2.038h-4.075z M65.208 40.755h2.038v2.038h-2.038z M69.283 40.755h2.038v2.038h-2.038z M73.358 40.755h2.038v2.038h-2.038z M77.434 40.755h2.038v2.038h-2.038z M81.509 40.755h2.038v2.038h-2.038z M93.736 40.755h2.038v2.038h-2.038z M97.811 40.755h4.075v2.038h-4.075z M0.0 42.792h6.113v2.038h-6.113z M14.264 42.792h2.038v2.038h-2.038z M24.453 42.792h6.113v2.038h-6.113z M32.604 42.792h4.075v2.038h-4.075z M38.717 42.792h6.113v2.038h-6.113z M46.868 42.792h2.038v2.038h-2.038z M50.943 42.792h4.075v2.038h-4.075z M57.057 42.792h4.075v2.038h-4.075z M63.17 42.792h2.038v2.038h-2.038z M67.245 42.792h2.038v2.038h-2.038z M75.396 42.792h2.038v2.038h-2.038z M79.472 42.792h2.038v2.038h-2.038z M83.547 42.792h2.038v2.038h-2.038z M87.623 42.792h2.038v2.038h-2.038z M91.698 42.792h2.038v2.038h-2.038z M99.849 42.792h2.038v2.038h-2.038z M105.962 42.792h2.038v2.038h-2.038z M0.0 44.83h6.113v2.038h-6.113z M8.151 44.83h6.113v2.038h-6.113z M16.302 44.83h2.038v2.038h-2.038z M20.377 44.83h16.302v2.038h-16.302z M46.868 44.83h4.075v2.038h-4.075z M57.057 44.83h4.075v2.038h-4.075z M65.208 44.83h4.075v2.038h-4.075z M73.358 44.83h2.038v2.038h-2.038z M81.509 44.83h2.038v2.038h-2.038z M91.698 44.83h2.038v2.038h-2.038z M101.887 44.83h2.038v2.038h-2.038z M105.962 44.83h2.038v2.038h-2.038z M2.038 46.868h2.038v2.038h-2.038z M6.113 46.868h2.038v2.038h-2.038z M10.189 46.868h2.038v2.038h-2.038z M14.264 46.868h2.038v2.038h-2.038z M20.377 46.868h2.038v2.038h-2.038z M24.453 46.868h4.075v2.038h-4.075z M30.566 46.868h2.038v2.038h-2.038z M34.642 46.868h4.075v2.038h-4.075z M42.792 46.868h4.075v2.038h-4.075z M50.943 46.868h2.038v2.038h-2.038z M61.132 46.868h2.038v2.038h-2.038z M65.208 46.868h2.038v2.038h-2.038z M73.358 46.868h4.075v2.038h-4.075z M81.509 46.868h4.075v2.038h-4.075z M87.623 46.868h14.264v2.038h-14.264z M103.925 46.868h4.075v2.038h-4.075z M4.075 48.906h2.038v2.038h-2.038z M8.151 48.906h12.226v2.038h-12.226z M22.415 48.906h4.075v2.038h-4.075z M34.642 48.906h2.038v2.038h-2.038z M38.717 48.906h2.038v2.038h-2.038z M42.792 48.906h4.075v2.038h-4.075z M48.906 48.906h10.189v2.038h-10.189z M61.132 48.906h10.189v2.038h-10.189z M73.358 48.906h6.113v2.038h-6.113z M81.509 48.906h2.038v2.038h-2.038z M85.585 48.906h16.302v2.038h-16.302z M103.925 48.906h4.075v2.038h-4.075z M4.075 50.943h2.038v2.038h-2.038z M8.151 50.943h2.038v2.038h-2.038z M16.302 50.943h6.113v2.038h-6.113z M24.453 50.943h6.113v2.038h-6.113z M34.642 50.943h2.038v2.038h-2.038z M38.717 50.943h2.038v2.038h-2.038z M42.792 50.943h8.151v2.038h-8.151z M57.057 50.943h4.075v2.038h-4.075z M65.208 50.943h4.075v2.038h-4.075z M71.321 50.943h2.038v2.038h-2.038z M75.396 50.943h2.038v2.038h-2.038z M83.547 50.943h2.038v2.038h-2.038z M89.66 50.943h2.038v2.038h-2.038z M97.811 50.943h4.075v2.038h-4.075z M103.925 50.943h4.075v2.038h-4.075z M2.038 52.981h8.151v2.038h-8.151z M12.226 52.981h2.038v2.038h-2.038z M16.302 52.981h6.113v2.038h-6.113z M26.491 52.981h4.075v2.038h-4.075z M36.679 52.981h2.038v2.038h-2.038z M40.755 52.981h2.038v2.038h-2.038z M48.906 52.981h2.038v2.038h-2.038z M52.981 52.981h2.038v2.038h-2.038z M57.057 52.981h2.038v2.038h-2.038z M69.283 52.981h4.075v2.038h-4.075z M81.509 52.981h4.075v2.038h-4.075z M89.66 52.981h2.038v2.038h-2.038z M93.736 52.981h2.038v2.038h-2.038z M97.811 52.981h10.189v2.038h-10.189z M0.0 55.019h10.189v2.038h-10.189z M16.302 55.019h2.038v2.038h-2.038z M20.377 55.019h10.189v2.038h-10.189z M34.642 55.019h2.038v2.038h-2.038z M40.755 55.019h2.038v2.038h-2.038z M44.83 55.019h6.113v2.038h-6.113z M57.057 55.019h6.113v2.038h-6.113z M65.208 55.019h10.189v2.038h-10.189z M77.434 55.019h2.038v2.038h-2.038z M81.509 55.019h4.075v2.038h-4.075z M89.66 55.019h2.038v2.038h-2.038z M97.811 55.019h4.075v2.038h-4.075z M0.0 57.057h2.038v2.038h-2.038z M6.113 57.057h12.226v2.038h-12.226z M20.377 57.057h2.038v2.038h-2.038z M26.491 57.057h2.038v2.038h-2.038z M32.604 57.057h4.075v2.038h-4.075z M38.717 57.057h2.038v2.038h-2.038z M44.83 57.057h14.264v2.038h-14.264z M61.132 57.057h2.038v2.038h-2.038z M65.208 57.057h4.075v2.038h-4.075z M73.358 57.057h2.038v2.038h-2.038z M77.434 57.057h2.038v2.038h-2.038z M81.509 57.057h2.038v2.038h-2.038z M85.585 57.057h2.038v2.038h-2.038z M89.66 57.057h10.189v2.038h-10.189z M103.925 57.057h4.075v2.038h-4.075z M2.038 59.094h4.075v2.038h-4.075z M8.151 59.094h4.075v2.038h-4.075z M16.302 59.094h2.038v2.038h-2.038z M22.415 59.094h2.038v2.038h-2.038z M28.528 59.094h2.038v2.038h-2.038z M32.604 59.094h2.038v2.038h-2.038z M36.679 59.094h2.038v2.038h-2.038z M40.755 59.094h4.075v2.038h-4.075z M46.868 59.094h4.075v2.038h-4.075z M55.019 59.094h2.038v2.038h-2.038z M59.094 59.094h2.038v2.038h-2.038z M63.17 59.094h2.038v2.038h-2.038z M67.245 59.094h2.038v2.038h-2.038z M71.321 59.094h6.113v2.038h-6.113z M83.547 59.094h2.038v2.038h-2.038z M87.623 59.094h8.151v2.038h-8.151z M99.849 59.094h2.038v2.038h-2.038z M105.962 59.094h2.038v2.038h-2.038z M0.0 61.132h4.075v2.038h-4.075z M6.113 61.132h2.038v2.038h-2.038z M12.226 61.132h10.189v2.038h-10.189z M28.528 61.132h2.038v2.038h-2.038z M34.642 61.132h4.075v2.038h-4.075z M40.755 61.132h2.038v2.038h-2.038z M46.868 61.132h4.075v2.038h-4.075z M59.094 61.132h2.038v2.038h-2.038z M69.283 61.132h6.113v2.038h-6.113z M77.434 61.132h2.038v2.038h-2.038z M81.509 61.132h4.075v2.038h-4.075z M93.736 61.132h8.151v2.038h-8.151z M105.962 61.132h2.038v2.038h-2.038z M0.0 63.17h4.075v2.038h-4.075z M8.151 63.17h2.038v2.038h-2.038z M20.377 63.17h2.038v2.038h-2.038z M24.453 63.17h4.075v2.038h-4.075z M30.566 63.17h6.113v2.038h-6.113z M42.792 63.17h2.038v2.038h-2.038z M46.868 63.17h10.189v2.038h-10.189z M59.094 63.17h2.038v2.038h-2.038z M63.17 63.17h4.075v2.038h-4.075z M71.321 63.17h2.038v2.038h-2.038z M79.472 63.17h4.075v2.038h-4.075z M89.66 63.17h2.038v2.038h-2.038z M93.736 63.17h2.038v2.038h-2.038z M2.038 65.208h2.038v2.038h-2.038z M10.189 65.208h4.075v2.038h-4.075z M16.302 65.208h4.075v2.038h-4.075z M30.566 65.208h2.038v2.038h-2.038z M44.83 65.208h2.038v2.038h-2.038z M52.981 65.208h4.075v2.038h-4.075z M59.094 65.208h4.075v2.038h-4.075z M65.208 65.208h4.075v2.038h-4.075z M73.358 65.208h2.038v2.038h-2.038z M77.434 65.208h8.151v2.038h-8.151z M87.623 65.208h6.113v2.038h-6.113z M99.849 65.208h2.038v2.038h-2.038z M103.925 65.208h4.075v2.038h-4.075z M0.0 67.245h2.038v2.038h-2.038z M6.113 67.245h4.075v2.038h-4.075z M16.302 67.245h2.038v2.038h-2.038z M22.415 67.245h2.038v2.038h-2.038z M34.642 67.245h6.113v2.038h-6.113z M44.83 67.245h6.113v2.038h-6.113z M52.981 67.245h8.151v2.038h-8.151z M63.17 67.245h2.038v2.038h-2.038z M67.245 67.245h2.038v2.038h-2.038z M71.321 67.245h6.113v2.038h-6.113z M81.509 67.245h2.038v2.038h-2.038z M89.66 67.245h2.038v2.038h-2.038z M93.736 67.245h4.075v2.038h-4.075z M99.849 67.245h8.151v2.038h-8.151z M6.113 69.283h8.151v2.038h-8.151z M16.302 69.283h4.075v2.038h-4.075z M22.415 69.283h2.038v2.038h-2.038z M30.566 69.283h4.075v2.038h-4.075z M36.679 69.283h14.264v2.038h-14.264z M55.019 69.283h2.038v2.038h-2.038z M59.094 69.283h2.038v2.038h-2.038z M63.17 69.283h2.038v2.038h-2.038z M67.245 69.283h2.038v2.038h-2.038z M71.321 69.283h4.075v2.038h-4.075z M77.434 69.283h6.113v2.038h-6.113z M87.623 69.283h2.038v2.038h-2.038z M91.698 69.283h8.151v2.038h-8.151z M101.887 69.283h2.038v2.038h-2.038z M105.962 69.283h2.038v2.038h-2.038z M0.0 71.321h6.113v2.038h-6.113z M10.189 71.321h2.038v2.038h-2.038z M14.264 71.321h2.038v2.038h-2.038z M20.377 71.321h2.038v2.038h-2.038z M24.453 71.321h2.038v2.038h-2.038z M28.528 71.321h2.038v2.038h-2.038z M32.604 71.321h2.038v2.038h-2.038z M36.679 71.321h6.113v2.038h-6.113z M46.868 71.321h10.189v2.038h-10.189z M59.094 71.321h4.075v2.038h-4.075z M65.208 71.321h8.151v2.038h-8.151z M75.396 71.321h4.075v2.038h-4.075z M81.509 71.321h4.075v2.038h-4.075z M89.66 71.321h2.038v2.038h-2.038z M93.736 71.321h2.038v2.038h-2.038z M99.849 71.321h2.038v2.038h-2.038z M103.925 71.321h4.075v2.038h-4.075z M0.0 73.358h2.038v2.038h-2.038z M4.075 73.358h4.075v2.038h-4.075z M10.189 73.358h4.075v2.038h-4.075z M18.34 73.358h4.075v2.038h-4.075z M24.453 73.358h2.038v2.038h-2.038z M30.566 73.358h4.075v2.038h-4.075z M38.717 73.358h4.075v2.038h-4.075z M44.83 73.358h2.038v2.038h-2.038z M48.906 73.358h2.038v2.038h-2.038z M52.981 73.358h2.038v2.038h-2.038z M65.208 73.358h6.113v2.038h-6.113z M73.358 73.358h2.038v2.038h-2.038z M79.472 73.358h4.075v2.038h-4.075z M85.585 73.358h4.075v2.038h-4.075z M95.774 73.358h2.038v2.038h-2.038z M8.151 75.396h4.075v2.038h-4.075z M18.34 75.396h6.113v2.038h-6.113z M26.491 75.396h2.038v2.038h-2.038z M30.566 75.396h4.075v2.038h-4.075z M38.717 75.396h22.415v2.038h-22.415z M63.17 75.396h2.038v2.038h-2.038z M67.245 75.396h2.038v2.038h-2.038z M71.321 75.396h2.038v2.038h-2.038z M75.396 75.396h2.038v2.038h-2.038z M83.547 75.396h2.038v2.038h-2.038z M89.66 75.396h8.151v2.038h-8.151z M99.849 75.396h2.038v2.038h-2.038z M105.962 75.396h2.038v2.038h-2.038z M2.038 77.434h6.113v2.038h-6.113z M10.189 77.434h4.075v2.038h-4.075z M18.34 77.434h2.038v2.038h-2.038z M22.415 77.434h2.038v2.038h-2.038z M26.491 77.434h2.038v2.038h-2.038z M30.566 77.434h2.038v2.038h-2.038z M36.679 77.434h2.038v2.038h-2.038z M46.868 77.434h10.189v2.038h-10.189z M59.094 77.434h2.038v2.038h-2.038z M65.208 77.434h4.075v2.038h-4.075z M75.396 77.434h6.113v2.038h-6.113z M83.547 77.434h2.038v2.038h-2.038z M87.623 77.434h2.038v2.038h-2.038z M91.698 77.434h8.151v2.038h-8.151z M105.962 77.434h2.038v2.038h-2.038z M0.0 79.472h6.113v2.038h-6.113z M18.34 79.472h2.038v2.038h-2.038z M26.491 79.472h2.038v2.038h-2.038z M32.604 79.472h2.038v2.038h-2.038z M38.717 79.472h4.075v2.038h-4.075z M44.83 79.472h2.038v2.038h-2.038z M48.906 79.472h4.075v2.038h-4.075z M55.019 79.472h2.038v2.038h-2.038z M61.132 79.472h2.038v2.038h-2.038z M65.208 79.472h4.075v2.038h-4.075z M73.358 79.472h2.038v2.038h-2.038z M79.472 79.472h4.075v2.038h-4.075z M85.585 79.472h4.075v2.038h-4.075z M91.698 79.472h6.113v2.038h-6.113z M99.849 79.472h2.038v2.038h-2.038z M103.925 79.472h2.038v2.038h-2.038z M0.0 81.509h2.038v2.038h-2.038z M6.113 81.509h10.189v2.038h-10.189z M20.377 81.509h2.038v2.038h-2.038z M28.528 81.509h4.075v2.038h-4.075z M34.642 81.509h6.113v2.038h-6.113z M46.868 81.509h2.038v2.038h-2.038z M52.981 81.509h4.075v2.038h-4.075z M61.132 81.509h2.038v2.038h-2.038z M65.208 81.509h2.038v2.038h-2.038z M73.358 81.509h2.038v2.038h-2.038z M81.509 81.509h2.038v2.038h-2.038z M85.585 81.509h4.075v2.038h-4.075z M93.736 81.509h4.075v2.038h-4.075z M99.849 81.509h2.038v2.038h-2.038z M103.925 81.509h4.075v2.038h-4.075z M6.113 83.547h2.038v2.038h-2.038z M16.302 83.547h2.038v2.038h-2.038z M20.377 83.547h4.075v2.038h-4.075z M30.566 83.547h2.038v2.038h-2.038z M36.679 83.547h2.038v2.038h-2.038z M46.868 83.547h10.189v2.038h-10.189z M59.094 83.547h2.038v2.038h-2.038z M63.17 83.547h6.113v2.038h-6.113z M71.321 83.547h6.113v2.038h-6.113z M79.472 83.547h6.113v2.038h-6.113z M95.774 83.547h2.038v2.038h-2.038z M0.0 85.585h4.075v2.038h-4.075z M6.113 85.585h8.151v2.038h-8.151z M16.302 85.585h2.038v2.038h-2.038z M20.377 85.585h6.113v2.038h-6.113z M28.528 85.585h6.113v2.038h-6.113z M36.679 85.585h12.226v2.038h-12.226z M52.981 85.585h4.075v2.038h-4.075z M59.094 85.585h2.038v2.038h-2.038z M63.17 85.585h6.113v2.038h-6.113z M77.434 85.585h6.113v2.038h-6.113z M87.623 85.585h4.075v2.038h-4.075z M93.736 85.585h2.038v2.038h-2.038z M97.811 85.585h2.038v2.038h-2.038z M105.962 85.585h2.038v2.038h-2.038z M2.038 87.623h4.075v2.038h-4.075z M14.264 87.623h4.075v2.038h-4.075z M22.415 87.623h2.038v2.038h-2.038z M28.528 87.623h2.038v2.038h-2.038z M34.642 87.623h4.075v2.038h-4.075z M40.755 87.623h2.038v2.038h-2.038z M44.83 87.623h4.075v2.038h-4.075z M50.943 87.623h2.038v2.038h-2.038z M65.208 87.623h6.113v2.038h-6.113z M75.396 87.623h2.038v2.038h-2.038z M79.472 87.623h4.075v2.038h-4.075z M87.623 87.623h2.038v2.038h-2.038z M93.736 87.623h4.075v2.038h-4.075z M99.849 87.623h2.038v2.038h-2.038z M103.925 87.623h4.075v2.038h-4.075z M6.113 89.66h2.038v2.038h-2.038z M12.226 89.66h12.226v2.038h-12.226z M26.491 89.66h4.075v2.038h-4.075z M34.642 89.66h4.075v2.038h-4.075z M44.83 89.66h16.302v2.038h-16.302z M65.208 89.66h2.038v2.038h-2.038z M73.358 89.66h2.038v2.038h-2.038z M81.509 89.66h2.038v2.038h-2.038z M85.585 89.66h14.264v2.038h-14.264z M16.302 91.698h4.075v2.038h-4.075z M26.491 91.698h12.226v2.038h-12.226z M44.83 91.698h2.038v2.038h-2.038z M48.906 91.698h2.038v2.038h-2.038z M57.057 91.698h4.075v2.038h-4.075z M63.17 91.698h6.113v2.038h-6.113z M71.321 91.698h6.113v2.038h-6.113z M79.472 91.698h6.113v2.038h-6.113z M87.623 91.698h4.075v2.038h-4.075z M97.811 91.698h4.075v2.038h-4.075z M103.925 91.698h4.075v2.038h-4.075z M0.0 93.736h14.264v2.038h-14.264z M16.302 93.736h6.113v2.038h-6.113z M28.528 93.736h6.113v2.038h-6.113z M36.679 93.736h10.189v2.038h-10.189z M48.906 93.736h2.038v2.038h-2.038z M52.981 93.736h2.038v2.038h-2.038z M57.057 93.736h4.075v2.038h-4.075z M67.245 93.736h4.075v2.038h-4.075z M75.396 93.736h2.038v2.038h-2.038z M79.472 93.736h4.075v2.038h-4.075z M89.66 93.736h2.038v2.038h-2.038z M93.736 93.736h2.038v2.038h-2.038z M97.811 93.736h10.189v2.038h-10.189z M0.0 95.774h2.038v2.038h-2.038z M12.226 95.774h2.038v2.038h-2.038z M22.415 95.774h2.038v2.038h-2.038z M26.491 95.774h2.038v2.038h-2.038z M30.566 95.774h2.038v2.038h-2.038z M34.642 95.774h6.113v2.038h-6.113z M42.792 95.774h2.038v2.038h-2.038z M48.906 95.774h2.038v2.038h-2.038z M57.057 95.774h4.075v2.038h-4.075z M65.208 95.774h10.189v2.038h-10.189z M81.509 95.774h2.038v2.038h-2.038z M87.623 95.774h4.075v2.038h-4.075z M97.811 95.774h4.075v2.038h-4.075z M105.962 95.774h2.038v2.038h-2.038z M0.0 97.811h2.038v2.038h-2.038z M4.075 97.811h6.113v2.038h-6.113z M12.226 97.811h2.038v2.038h-2.038z M20.377 97.811h6.113v2.038h-6.113z M28.528 97.811h2.038v2.038h-2.038z M34.642 97.811h2.038v2.038h-2.038z M38.717 97.811h2.038v2.038h-2.038z M42.792 97.811h16.302v2.038h-16.302z M61.132 97.811h2.038v2.038h-2.038z M65.208 97.811h2.038v2.038h-2.038z M73.358 97.811h2.038v2.038h-2.038z M81.509 97.811h2.038v2.038h-2.038z M89.66 97.811h10.189v2.038h-10.189z M103.925 97.811h4.075v2.038h-4.075z M0.0 99.849h2.038v2.038h-2.038z M4.075 99.849h6.113v2.038h-6.113z M12.226 99.849h2.038v2.038h-2.038z M20.377 99.849h2.038v2.038h-2.038z M28.528 99.849h4.075v2.038h-4.075z M34.642 99.849h4.075v2.038h-4.075z M40.755 99.849h4.075v2.038h-4.075z M48.906 99.849h4.075v2.038h-4.075z M55.019 99.849h2.038v2.038h-2.038z M59.094 99.849h2.038v2.038h-2.038z M63.17 99.849h2.038v2.038h-2.038z M67.245 99.849h2.038v2.038h-2.038z M71.321 99.849h2.038v2.038h-2.038z M75.396 99.849h2.038v2.038h-2.038z M79.472 99.849h2.038v2.038h-2.038z M83.547 99.849h2.038v2.038h-2.038z M87.623 99.849h2.038v2.038h-2.038z M91.698 99.849h4.075v2.038h-4.075z M97.811 99.849h10.189v2.038h-10.189z M0.0 101.887h2.038v2.038h-2.038z M4.075 101.887h6.113v2.038h-6.113z M12.226 101.887h2.038v2.038h-2.038z M16.302 101.887h2.038v2.038h-2.038z M20.377 101.887h4.075v2.038h-4.075z M26.491 101.887h6.113v2.038h-6.113z M34.642 101.887h2.038v2.038h-2.038z M42.792 101.887h4.075v2.038h-4.075z M50.943 101.887h2.038v2.038h-2.038z M59.094 101.887h2.038v2.038h-2.038z M65.208 101.887h6.113v2.038h-6.113z M73.358 101.887h8.151v2.038h-8.151z M83.547 101.887h2.038v2.038h-2.038z M89.66 101.887h4.075v2.038h-4.075z M97.811 101.887h2.038v2.038h-2.038z M103.925 101.887h2.038v2.038h-2.038z M0.0 103.925h2.038v2.038h-2.038z M12.226 103.925h2.038v2.038h-2.038z M18.34 103.925h4.075v2.038h-4.075z M24.453 103.925h2.038v2.038h-2.038z M28.528 103.925h2.038v2.038h-2.038z M38.717 103.925h2.038v2.038h-2.038z M44.83 103.925h2.038v2.038h-2.038z M48.906 103.925h2.038v2.038h-2.038z M55.019 103.925h4.075v2.038h-4.075z M65.208 103.925h8.151v2.038h-8.151z M75.396 103.925h2.038v2.038h-2.038z M79.472 103.925h4.075v2.038h-4.075z M89.66 103.925h4.075v2.038h-4.075z M0.0 105.962h14.264v2.038h-14.264z M16.302 105.962h10.189v2.038h-10.189z M28.528 105.962h2.038v2.038h-2.038z M32.604 105.962h2.038v2.038h-2.038z M36.679 105.962h4.075v2.038h-4.075z M48.906 105.962h2.038v2.038h-2.038z M52.981 105.962h2.038v2.038h-2.038z M57.057 105.962h2.038v2.038h-2.038z M61.132 105.962h2.038v2.038h-2.038z M65.208 105.962h6.113v2.038h-6.113z M73.358 105.962h2.038v2.038h-2.038z M79.472 105.962h8.151v2.038h-8.151z M95.774 105.962h4.075v2.038h-4.075z M105.962 105.962h2.038v2.038h-2.038z"/>
</g>
<text x="1134" y="486" font-family="Inter, Helvetica, Arial, sans-serif" font-size="10" font-weight="700" fill="#F5F7FA" text-anchor="middle">scan / full post</text>
</svg>
