<svg xmlns="http://www.w3.org/2000/svg" width="1200" height="630" viewBox="0 0 1200 630">
  <title>Security Weekly Digest - April 08 2026</title>
  <defs>
    <linearGradient id="bg" x1="0%" y1="0%" x2="100%" y2="100%">
      <stop offset="0%" stop-color="#0a0e1a"/>
      <stop offset="60%" stop-color="#0f1628"/>
      <stop offset="100%" stop-color="#141b2d"/>
    </linearGradient>
    <linearGradient id="hg" x1="0%" y1="0%" x2="100%" y2="0%">
      <stop offset="0%" stop-color="#1e293b"/>
      <stop offset="100%" stop-color="#0f172a"/>
    </linearGradient>
    <filter id="glow" x="-50%" y="-50%" width="200%" height="200%">
      <feGaussianBlur stdDeviation="18"/>
    </filter>
    <marker id="ar" markerWidth="8" markerHeight="8" refX="4" refY="4" orient="auto">
      <path d="M0,0 L8,4 L0,8 Z" fill="#ef4444" opacity="0.7"/>
    </marker>
  </defs>

  <rect width="1200" height="630" fill="url(#bg)"/>

  <!-- Grid -->
  <g opacity="0.04" stroke="#94a3b8" stroke-width="0.5">
    <line x1="0" y1="105" x2="1200" y2="105"/><line x1="0" y1="210" x2="1200" y2="210"/>
    <line x1="0" y1="315" x2="1200" y2="315"/><line x1="0" y1="420" x2="1200" y2="420"/>
    <line x1="0" y1="525" x2="1200" y2="525"/>
    <line x1="240" y1="0" x2="240" y2="630"/><line x1="480" y1="0" x2="480" y2="630"/>
    <line x1="720" y1="0" x2="720" y2="630"/><line x1="960" y1="0" x2="960" y2="630"/>
  </g>

  <!-- Glow orbs -->
  <circle cx="200" cy="280" r="200" fill="#ef4444" opacity="0.06" filter="url(#glow)"/>
  <circle cx="900" cy="350" r="180" fill="#3b82f6" opacity="0.06" filter="url(#glow)"/>
  <circle cx="600" cy="400" r="160" fill="#22c55e" opacity="0.04" filter="url(#glow)"/>

  <!-- Header -->
  <rect x="0" y="0" width="1200" height="80" fill="url(#hg)" opacity="0.9"/>
  <rect x="0" y="78" width="1200" height="2" fill="#334155" opacity="0.8"/>
  <g transform="translate(48,40)">
    <path d="M0,-22 L18,-12 L18,3 C18,13 10,20 0,24 C-10,20 -18,13 -18,3 L-18,-12 Z" fill="#1e3a5f" stroke="#3b82f6" stroke-width="1.5"/>
    <path d="M-7,1 L-2,6 L8,-5" stroke="#3b82f6" stroke-width="2.5" fill="none" stroke-linecap="round"/>
  </g>
  <text x="80" y="44" font-family="Arial,sans-serif" font-size="28" font-weight="700" fill="#f1f5f9">Security Weekly Digest</text>
  <rect x="990" y="18" width="178" height="44" rx="6" fill="#1e293b" stroke="#334155" stroke-width="1"/>
  <text x="1079" y="48" font-family="Arial,sans-serif" font-size="15" font-weight="700" fill="#94a3b8" text-anchor="middle">April 08, 2026</text>

  <!-- Card 1: APT28 DNS -->
  <rect x="32" y="100" width="220" height="120" rx="8" fill="#1a0f0f" stroke="#ef4444" stroke-width="1.5"/>
  <circle cx="52" cy="120" r="6" fill="#ef4444"/>
  <g transform="translate(142,155)">
    <rect x="-20" y="-15" width="40" height="30" rx="6" fill="#1a0505" stroke="#ef4444" stroke-width="1.5"/>
    <circle cx="0" cy="0" r="4" fill="#ef4444" opacity="0.8"/>
    <line x1="-12" y1="-8" x2="12" y2="-8" stroke="#ef4444" stroke-width="1" opacity="0.5"/>
    <line x1="-12" y1="8" x2="12" y2="8" stroke="#ef4444" stroke-width="1" opacity="0.5"/>
  </g>
  <text x="142" y="195" font-family="Arial,sans-serif" font-size="15" font-weight="700" fill="#ef4444" text-anchor="middle">APT28 DNS</text>

  <!-- Card 2: Docker CVE -->
  <rect x="268" y="100" width="220" height="120" rx="8" fill="#1a0d0d" stroke="#dc2626" stroke-width="1.5"/>
  <circle cx="288" cy="120" r="6" fill="#dc2626"/>
  <g transform="translate(378,150)">
    <rect x="-18" y="-22" width="36" height="36" rx="4" fill="#1a0505" stroke="#dc2626" stroke-width="1.5"/>
    <path d="M-10,-4 h6 v-8 h4 v8 h6 M-14,0 h28" stroke="#dc2626" stroke-width="1.5" fill="none"/>
  </g>
  <text x="378" y="195" font-family="Arial,sans-serif" font-size="15" font-weight="700" fill="#dc2626" text-anchor="middle">DOCKER CVE</text>

  <!-- Card 3: Claude Mythos -->
  <rect x="504" y="100" width="220" height="120" rx="8" fill="#0a1020" stroke="#3b82f6" stroke-width="1.5"/>
  <circle cx="524" cy="120" r="6" fill="#3b82f6"/>
  <g transform="translate(614,150)">
    <circle r="16" fill="none" stroke="#3b82f6" stroke-width="1.5"/>
    <circle r="8" fill="#0f1f3d" stroke="#3b82f6" stroke-width="1"/>
    <circle r="3" fill="#3b82f6"/>
  </g>
  <text x="614" y="195" font-family="Arial,sans-serif" font-size="15" font-weight="700" fill="#3b82f6" text-anchor="middle">CLAUDE MYTHOS</text>

  <!-- Card 4: Copilot BYOK -->
  <rect x="740" y="100" width="200" height="120" rx="8" fill="#0a1020" stroke="#60a5fa" stroke-width="1.5"/>
  <circle cx="760" cy="120" r="6" fill="#60a5fa"/>
  <g transform="translate(840,148)">
    <rect x="-14" y="-16" width="28" height="28" rx="4" fill="#0f1f3d" stroke="#60a5fa" stroke-width="1.5"/>
    <path d="M-6,-6 L6,0 L-6,6 Z" fill="#60a5fa" opacity="0.8"/>
  </g>
  <text x="840" y="195" font-family="Arial,sans-serif" font-size="14" font-weight="700" fill="#60a5fa" text-anchor="middle">COPILOT BYOK</text>

  <!-- Card 5: Dependabot AI -->
  <rect x="956" y="100" width="212" height="120" rx="8" fill="#071a10" stroke="#22c55e" stroke-width="1.5"/>
  <circle cx="976" cy="120" r="6" fill="#22c55e"/>
  <g transform="translate(1062,148)">
    <circle r="14" fill="#0a2010" stroke="#22c55e" stroke-width="1.5"/>
    <path d="M-6,-4 L0,4 L8,-8" stroke="#22c55e" stroke-width="2" fill="none" stroke-linecap="round"/>
  </g>
  <text x="1062" y="195" font-family="Arial,sans-serif" font-size="14" font-weight="700" fill="#22c55e" text-anchor="middle">DEPENDABOT AI</text>

  <!-- Threat map area -->
  <rect x="32" y="240" width="1136" height="220" rx="10" fill="#0c1220" stroke="#1e293b" stroke-width="1"/>

  <!-- World dots -->
  <g opacity="0.25">
    <circle cx="180" cy="320" r="2" fill="#94a3b8"/><circle cx="200" cy="330" r="2" fill="#94a3b8"/>
    <circle cx="550" cy="310" r="2" fill="#94a3b8"/><circle cx="570" cy="320" r="2" fill="#94a3b8"/>
    <circle cx="900" cy="315" r="2" fill="#94a3b8"/><circle cx="920" cy="325" r="2" fill="#94a3b8"/>
    <circle cx="350" cy="340" r="2" fill="#94a3b8"/><circle cx="700" cy="330" r="2" fill="#94a3b8"/>
  </g>

  <!-- Node: APT28 -->
  <circle cx="160" cy="330" r="22" fill="#1a0505" stroke="#ef4444" stroke-width="2"/>
  <text x="160" y="335" font-family="Arial,sans-serif" font-size="9" font-weight="700" fill="#ef4444" text-anchor="middle">APT28</text>

  <!-- Node: SOHO -->
  <circle cx="380" cy="340" r="18" fill="#1a1000" stroke="#f59e0b" stroke-width="1.5"/>
  <text x="380" y="345" font-family="Arial,sans-serif" font-size="9" fill="#f59e0b" text-anchor="middle">SOHO</text>

  <!-- APT28->SOHO arrow -->
  <line x1="182" y1="335" x2="362" y2="340" stroke="#ef4444" stroke-width="1.5" stroke-dasharray="10 6" opacity="0.6" marker-end="url(#ar)"/>

  <!-- Node: Docker -->
  <circle cx="560" cy="360" r="22" fill="#1a0505" stroke="#dc2626" stroke-width="2"/>
  <text x="560" y="365" font-family="Arial,sans-serif" font-size="9" font-weight="700" fill="#dc2626" text-anchor="middle">CVE</text>

  <!-- Node: Vertex AI -->
  <circle cx="740" cy="320" r="20" fill="#0a1020" stroke="#3b82f6" stroke-width="1.5"/>
  <text x="740" y="325" font-family="Arial,sans-serif" font-size="9" fill="#3b82f6" text-anchor="middle">AI</text>

  <!-- Node: GitHub -->
  <circle cx="940" cy="350" r="22" fill="#071a10" stroke="#22c55e" stroke-width="2"/>
  <text x="940" y="355" font-family="Arial,sans-serif" font-size="9" fill="#22c55e" text-anchor="middle">GH</text>

  <!-- Connection lines -->
  <line x1="398" y1="340" x2="538" y2="358" stroke="#f59e0b" stroke-width="1" stroke-dasharray="6 4" opacity="0.4"/>
  <line x1="760" y1="330" x2="918" y2="345" stroke="#3b82f6" stroke-width="1" stroke-dasharray="6 4" opacity="0.4"/>

  <!-- Footer -->
  <rect x="0" y="472" width="1200" height="158" fill="#080c18" opacity="0.95"/>
  <rect x="0" y="472" width="1200" height="2" fill="#1e293b"/>

  <!-- Tags -->
  <rect x="32" y="490" width="110" height="24" rx="4" fill="#1a0505" stroke="#ef4444" stroke-width="1"/>
  <text x="87" y="506" font-family="Arial,sans-serif" font-size="10" font-weight="700" fill="#ef4444" text-anchor="middle">APT28 DNS</text>
  <rect x="154" y="490" width="115" height="24" rx="4" fill="#1a0505" stroke="#dc2626" stroke-width="1"/>
  <text x="211" y="506" font-family="Arial,sans-serif" font-size="10" font-weight="700" fill="#dc2626" text-anchor="middle">DOCKER CVE</text>
  <rect x="281" y="490" width="130" height="24" rx="4" fill="#0a1020" stroke="#3b82f6" stroke-width="1"/>
  <text x="346" y="506" font-family="Arial,sans-serif" font-size="10" font-weight="700" fill="#3b82f6" text-anchor="middle">CLAUDE MYTHOS</text>
  <rect x="423" y="490" width="115" height="24" rx="4" fill="#071a10" stroke="#22c55e" stroke-width="1"/>
  <text x="480" y="506" font-family="Arial,sans-serif" font-size="10" font-weight="700" fill="#22c55e" text-anchor="middle">DEPENDABOT</text>

  <!-- Bottom bar -->
  <circle cx="32" cy="545" r="4" fill="#ef4444" opacity="0.6"/>
  <text x="46" y="550" font-family="Arial,sans-serif" font-size="12" fill="#475569">Security Weekly Digest | April 08, 2026</text>
  <text x="1168" y="550" font-family="Arial,sans-serif" font-size="12" fill="#475569" text-anchor="end">tech.2twodragon.com</text>
</svg>
