<?xml version="1.0" encoding="UTF-8"?>
<svg xmlns="http://www.w3.org/2000/svg" viewBox="0 0 1200 630" width="1200" height="630">
  <title>PostgreSQL Scaling Architecture</title>
  <defs>
    <linearGradient id="bg" x1="0%" y1="0%" x2="100%" y2="100%">
      <stop offset="0%" style="stop-color:#0a1520" />
      <stop offset="100%" style="stop-color:#152535" />
    </linearGradient>
    <linearGradient id="accent" x1="0%" y1="0%" x2="100%" y2="0%">
      <stop offset="0%" style="stop-color:#336791" />
      <stop offset="100%" style="stop-color:#27ae60" />
    </linearGradient>
  </defs>
  <rect width="1200" height="630" fill="url(#bg)" />
  <line x1="0" y1="105" x2="1200" y2="105" stroke="rgba(255,255,255,0.04)" stroke-width="1" />
  <line x1="0" y1="210" x2="1200" y2="210" stroke="rgba(255,255,255,0.04)" stroke-width="1" />
  <line x1="0" y1="315" x2="1200" y2="315" stroke="rgba(255,255,255,0.04)" stroke-width="1" />
  <line x1="0" y1="420" x2="1200" y2="420" stroke="rgba(255,255,255,0.04)" stroke-width="1" />
  <line x1="240" y1="0" x2="240" y2="630" stroke="rgba(255,255,255,0.03)" stroke-width="1" />
  <line x1="480" y1="0" x2="480" y2="630" stroke="rgba(255,255,255,0.03)" stroke-width="1" />
  <line x1="720" y1="0" x2="720" y2="630" stroke="rgba(255,255,255,0.03)" stroke-width="1" />
  <line x1="960" y1="0" x2="960" y2="630" stroke="rgba(255,255,255,0.03)" stroke-width="1" />
  <circle cx="1050" cy="450" r="200" fill="rgba(51,103,145,0.07)" />
  <circle cx="1050" cy="450" r="140" fill="rgba(39,174,96,0.07)" />
  
  <ellipse cx="970" cy="225" rx="60" ry="22" fill="rgba(51,103,145,0.3)" stroke="#336791" stroke-width="2.5" />
  <rect x="910" y="225" width="120" height="50" fill="rgba(51,103,145,0.15)" stroke="#336791" stroke-width="2.5" />
  <ellipse cx="970" cy="275" rx="60" ry="22" fill="rgba(51,103,145,0.25)" stroke="#336791" stroke-width="2" />
  <ellipse cx="860" cy="370" rx="48" ry="18" fill="rgba(51,103,145,0.2)" stroke="rgba(51,103,145,0.6)" stroke-width="2" />
  <rect x="812" y="370" width="96" height="40" fill="rgba(51,103,145,0.1)" stroke="rgba(51,103,145,0.5)" stroke-width="2" />
  <ellipse cx="860" cy="410" rx="48" ry="18" fill="rgba(51,103,145,0.15)" stroke="rgba(51,103,145,0.5)" stroke-width="1.5" />
  <ellipse cx="1080" cy="370" rx="48" ry="18" fill="rgba(51,103,145,0.2)" stroke="rgba(51,103,145,0.6)" stroke-width="2" />
  <rect x="1032" y="370" width="96" height="40" fill="rgba(51,103,145,0.1)" stroke="rgba(51,103,145,0.5)" stroke-width="2" />
  <ellipse cx="1080" cy="410" rx="48" ry="18" fill="rgba(51,103,145,0.15)" stroke="rgba(51,103,145,0.5)" stroke-width="1.5" />
  <line x1="970" y1="297" x2="860" y2="370" stroke="rgba(39,174,96,0.4)" stroke-width="2" stroke-dasharray="5,3" />
  <line x1="970" y1="297" x2="1080" y2="370" stroke="rgba(39,174,96,0.4)" stroke-width="2" stroke-dasharray="5,3" />
  
  <rect x="932" y="453" width="76" height="26" rx="4" fill="rgba(39,174,96,0.12)" stroke="rgba(39,174,96,0.4)" stroke-width="1.5" />
  <rect x="0" y="0" width="6" height="630" fill="url(#accent)" />
  <rect x="80" y="44" width="240" height="34" rx="17" fill="rgba(51,103,145,0.15)" stroke="rgba(51,103,145,0.4)" stroke-width="1" />
  <text x="200" y="66" font-family="Arial,sans-serif" font-size="13" fill="#336791" text-anchor="middle" letter-spacing="2">JANUARY 23, 2026</text>
  <text x="80" y="185" font-family="Arial,sans-serif" font-size="46" font-weight="700" fill="#ffffff">PostgreSQL Scaling</text>
  <text x="80" y="245" font-family="Arial,sans-serif" font-size="46" font-weight="700" fill="#ffffff">Architecture</text>
  <text x="80" y="300" font-family="Arial,sans-serif" font-size="20" fill="rgba(255,255,255,0.7)">Read replicas, sharding and high-availability patterns</text>
  <rect x="80" y="320" width="120" height="3" rx="2" fill="url(#accent)" />
  <text x="80" y="370" font-family="Arial,sans-serif" font-size="15" fill="rgba(51,103,145,0.8)" letter-spacing="3">DATABASE ARCHITECTURE</text>
  <rect x="80" y="400" width="100" height="28" rx="14" fill="rgba(51,103,145,0.15)" stroke="rgba(51,103,145,0.4)" stroke-width="1" />
  <text x="130" y="419" font-family="Arial,sans-serif" font-size="13" fill="#336791" text-anchor="middle">PostgreSQL</text>
  <rect x="192" y="400" width="75" height="28" rx="14" fill="rgba(39,174,96,0.15)" stroke="rgba(39,174,96,0.4)" stroke-width="1" />
  <text x="229" y="419" font-family="Arial,sans-serif" font-size="13" fill="#27ae60" text-anchor="middle">Scaling</text>
  <rect x="279" y="400" width="110" height="28" rx="14" fill="rgba(255,255,255,0.08)" stroke="rgba(255,255,255,0.2)" stroke-width="1" />
  <text x="334" y="419" font-family="Arial,sans-serif" font-size="13" fill="rgba(255,255,255,0.7)" text-anchor="middle">Architecture</text>
  <rect x="0" y="590" width="1200" height="40" fill="rgba(0,0,0,0.3)" />
  <text x="80" y="615" font-family="Arial,sans-serif" font-size="13" fill="rgba(255,255,255,0.5)">tech.2twodragon.com</text>
  <text x="1120" y="615" font-family="Arial,sans-serif" font-size="13" fill="rgba(255,255,255,0.5)" text-anchor="end">DevSecOps</text>
</svg>