<svg xmlns="http://www.w3.org/2000/svg" viewBox="0 0 1200 630" fill="none">
  <defs>
    <linearGradient id="bg" x1="0" y1="0" x2="1200" y2="630">
      <stop offset="0%" stop-color="#0f172a"/>
      <stop offset="50%" stop-color="#1e293b"/>
      <stop offset="100%" stop-color="#0f172a"/>
    </linearGradient>
    <linearGradient id="accent" x1="0" y1="0" x2="1" y2="1">
      <stop offset="0%" stop-color="#ef4444"/>
      <stop offset="100%" stop-color="#dc2626"/>
    </linearGradient>
    <linearGradient id="accent2" x1="0" y1="0" x2="1" y2="1">
      <stop offset="0%" stop-color="#6366f1"/>
      <stop offset="100%" stop-color="#4f46e5"/>
    </linearGradient>
  </defs>

  <!-- Background -->
  <rect width="1200" height="630" fill="url(#bg)"/>

  <!-- Grid pattern -->
  <g opacity="0.05" stroke="#94a3b8" stroke-width="1">
    <line x1="0" y1="100" x2="1200" y2="100"/>
    <line x1="0" y1="200" x2="1200" y2="200"/>
    <line x1="0" y1="300" x2="1200" y2="300"/>
    <line x1="0" y1="400" x2="1200" y2="400"/>
    <line x1="0" y1="500" x2="1200" y2="500"/>
    <line x1="200" y1="0" x2="200" y2="630"/>
    <line x1="400" y1="0" x2="400" y2="630"/>
    <line x1="600" y1="0" x2="600" y2="630"/>
    <line x1="800" y1="0" x2="800" y2="630"/>
    <line x1="1000" y1="0" x2="1000" y2="630"/>
  </g>

  <!-- Primary icon -->
  <g transform="translate(80, 180)">
    <ellipse cx="60" cy="80" rx="35" ry="45" fill="url(#accent)" opacity="0.9"/>
    <circle cx="48" cy="60" r="8" fill="white" opacity="0.8"/>
    <circle cx="72" cy="60" r="8" fill="white" opacity="0.8"/>
    <line x1="20" y1="60" x2="35" y2="70" stroke="#fca5a5" stroke-width="2"/>
    <line x1="100" y1="60" x2="85" y2="70" stroke="#fca5a5" stroke-width="2"/>
    <line x1="15" y1="90" x2="30" y2="85" stroke="#fca5a5" stroke-width="2"/>
    <line x1="105" y1="90" x2="90" y2="85" stroke="#fca5a5" stroke-width="2"/>
  </g>

  <!-- Secondary icon -->
  <g transform="translate(80, 380)">
    <circle cx="60" cy="70" r="45" fill="url(#accent)" opacity="0.15"/>
    <circle cx="60" cy="70" r="45" fill="none" stroke="#6366f1" stroke-width="2.5"/>
    <path d="M40 55 Q50 35 60 50 Q70 35 80 55" fill="none" stroke="#94a3b8" stroke-width="2"/>
    <path d="M35 75 Q45 60 55 75 Q65 60 75 75 Q85 60 90 75" fill="none" stroke="#94a3b8" stroke-width="2"/>
    <text x="60" y="105" text-anchor="middle" fill="#6366f1" font-family="monospace" font-size="14" font-weight="bold">AI</text>
  </g>

  <!-- Main title area -->
  <g transform="translate(260, 100)">
    <text x="0" y="0" fill="#f8fafc" font-family="Arial, sans-serif" font-size="18" font-weight="bold" letter-spacing="4">TECH SECURITY WEEKLY DIGEST</text>
    <text x="0" y="60" fill="#f8fafc" font-family="Arial, sans-serif" font-size="36" font-weight="bold">Tech Security Weekly Digest VMware vCenter</text>
    <text x="0" y="110" fill="#94a3b8" font-family="Arial, sans-serif" font-size="32" font-weight="300">Fortinet SSO Sandworm DynoWiper AI Agents</text>
  </g>

  <!-- Date badge -->
  <rect x="260" y="240" width="200" height="36" rx="18" fill="url(#accent)" opacity="0.9"/>
  <text x="360" y="264" text-anchor="middle" fill="white" font-family="Arial, sans-serif" font-size="16" font-weight="bold">January 25, 2026</text>

  <!-- Stats cards -->
  <g transform="translate(260, 310)">
    <rect x="0" y="0" width="200" height="90" rx="8" fill="#1e293b" stroke="#334155" stroke-width="1"/>
    <text x="20" y="30" fill="#ef4444" font-family="Arial, sans-serif" font-size="12" font-weight="bold">MALWARE</text>
    <text x="20" y="65" fill="#f8fafc" font-family="Arial, sans-serif" font-size="28" font-weight="bold">Malware</text>
    <text x="20" y="80" fill="#64748b" font-family="Arial, sans-serif" font-size="13">analysis</text>
    <rect x="220" y="0" width="200" height="90" rx="8" fill="#1e293b" stroke="#334155" stroke-width="1"/>
    <text x="240" y="30" fill="#818cf8" font-family="Arial, sans-serif" font-size="12" font-weight="bold">AI/ML</text>
    <text x="240" y="65" fill="#f8fafc" font-family="Arial, sans-serif" font-size="28" font-weight="bold">AI/ML</text>
    <text x="240" y="80" fill="#64748b" font-family="Arial, sans-serif" font-size="13">analysis</text>
    <rect x="440" y="0" width="200" height="90" rx="8" fill="#1e293b" stroke="#334155" stroke-width="1"/>
    <text x="460" y="30" fill="#ef4444" font-family="Arial, sans-serif" font-size="12" font-weight="bold">SECURITY</text>
    <text x="460" y="65" fill="#f8fafc" font-family="Arial, sans-serif" font-size="28" font-weight="bold">Security</text>
    <text x="460" y="80" fill="#64748b" font-family="Arial, sans-serif" font-size="13">analysis</text>
  </g>

  <!-- Key topics -->
  <g transform="translate(260, 440)">
    <rect x="0" y="0" width="93" height="32" rx="16" fill="#991b1b" opacity="0.7"/>
    <text x="46" y="21" text-anchor="middle" fill="#fca5a5" font-family="Arial, sans-serif" font-size="13">Malware</text>
    <rect x="108" y="0" width="75" height="32" rx="16" fill="#7c2d12" opacity="0.7"/>
    <text x="145" y="21" text-anchor="middle" fill="#fdba74" font-family="Arial, sans-serif" font-size="13">AI/ML</text>
    <rect x="198" y="0" width="102" height="32" rx="16" fill="#312e81" opacity="0.7"/>
    <text x="249" y="21" text-anchor="middle" fill="#a5b4fc" font-family="Arial, sans-serif" font-size="13">Security</text>
    <rect x="315" y="0" width="120" height="32" rx="16" fill="#064e3b" opacity="0.7"/>
    <text x="375" y="21" text-anchor="middle" fill="#6ee7b7" font-family="Arial, sans-serif" font-size="13">Zero Trust</text>
  </g>

  <!-- Network visualization -->
  <g transform="translate(900, 180)" opacity="0.4">
    <circle cx="91" cy="60" r="3" fill="#f87171"/>
    <circle cx="87" cy="87" r="4" fill="#fb923c"/>
    <circle cx="212" cy="194" r="5" fill="#818cf8"/>
    <circle cx="102" cy="121" r="6" fill="#34d399"/>
    <circle cx="64" cy="102" r="3" fill="#fbbf24"/>
    <circle cx="84" cy="98" r="4" fill="#f87171"/>
    <circle cx="186" cy="47" r="5" fill="#fb923c"/>
    <circle cx="224" cy="84" r="6" fill="#818cf8"/>
    <circle cx="54" cy="143" r="3" fill="#34d399"/>
    <circle cx="58" cy="208" r="4" fill="#fbbf24"/>
    <line x1="91" y1="60" x2="87" y2="87" stroke="#475569" stroke-width="1"/>
    <line x1="87" y1="87" x2="212" y2="194" stroke="#475569" stroke-width="1"/>
    <line x1="212" y1="194" x2="102" y2="121" stroke="#475569" stroke-width="1"/>
    <line x1="102" y1="121" x2="64" y2="102" stroke="#475569" stroke-width="1"/>
    <line x1="64" y1="102" x2="84" y2="98" stroke="#475569" stroke-width="1"/>
    <line x1="84" y1="98" x2="186" y2="47" stroke="#475569" stroke-width="1"/>
    <line x1="186" y1="47" x2="224" y2="84" stroke="#475569" stroke-width="1"/>
    <line x1="224" y1="84" x2="54" y2="143" stroke="#475569" stroke-width="1"/>
  </g>

  <!-- Bottom bar -->
  <rect x="0" y="510" width="1200" height="120" fill="#0f172a" opacity="0.8"/>
  <rect x="0" y="510" width="1200" height="2" fill="url(#accent)" opacity="0.5"/>

  <!-- Bottom text -->
  <text x="80" y="560" fill="#94a3b8" font-family="Arial, sans-serif" font-size="16">tech.2twodragon.com</text>
  <text x="80" y="590" fill="#64748b" font-family="Arial, sans-serif" font-size="13">DevSecOps Weekly Security Intelligence</text>

  <!-- Bottom right -->
  <text x="1120" y="560" text-anchor="end" fill="#64748b" font-family="Arial, sans-serif" font-size="14">16 curated articles</text>
  <text x="1120" y="590" text-anchor="end" fill="#64748b" font-family="Arial, sans-serif" font-size="13">Malware | AI/ML | Security | Zero Trust</text>
</svg>
