<svg xmlns="http://www.w3.org/2000/svg" viewBox="0 0 1200 630" width="1200" height="630" role="img" aria-label="Weekly digest cover 2026.03.23: Ransomware, Security Update, Threat Analysis">

<title>2026 03 23 BYOVD EDR- (3 )</title>
<defs><linearGradient id="bgSpread" x1="0%" y1="0%" x2="100%" y2="100%"><stop offset="0%" stop-color="#0B1326" /><stop offset="55%" stop-color="#0D1530" /><stop offset="100%" stop-color="#141034" /></linearGradient><linearGradient id="heroPanel" x1="0%" y1="0%" x2="0%" y2="100%"><stop offset="0%" stop-color="#1A0A08" /><stop offset="100%" stop-color="#110608" /></linearGradient><linearGradient id="heroPanelBlue" x1="0%" y1="0%" x2="0%" y2="100%"><stop offset="0%" stop-color="#0A1A30" /><stop offset="100%" stop-color="#071426" /></linearGradient><linearGradient id="heroPanelAmber" x1="0%" y1="0%" x2="0%" y2="100%"><stop offset="0%" stop-color="#1A1208" /><stop offset="100%" stop-color="#120E06" /></linearGradient><linearGradient id="heroPanelGreen" x1="0%" y1="0%" x2="0%" y2="100%"><stop offset="0%" stop-color="#08160E" /><stop offset="100%" stop-color="#04100A" /></linearGradient><linearGradient id="heroPanelPurple" x1="0%" y1="0%" x2="0%" y2="100%"><stop offset="0%" stop-color="#110629" /><stop offset="100%" stop-color="#0A0418" /></linearGradient><radialGradient id="hotRed" cx="50%" cy="50%" r="50%"><stop offset="0%" stop-color="#E63946" stop-opacity="0.6" /><stop offset="100%" stop-color="#E63946" stop-opacity="0" /></radialGradient><radialGradient id="hotBlue" cx="50%" cy="50%" r="50%"><stop offset="0%" stop-color="#3A86FF" stop-opacity="0.5" /><stop offset="100%" stop-color="#3A86FF" stop-opacity="0" /></radialGradient><radialGradient id="hotAmber" cx="50%" cy="50%" r="50%"><stop offset="0%" stop-color="#FFB703" stop-opacity="0.45" /><stop offset="100%" stop-color="#FFB703" stop-opacity="0" /></radialGradient><radialGradient id="hotGreen" cx="50%" cy="50%" r="50%"><stop offset="0%" stop-color="#4ADE80" stop-opacity="0.45" /><stop offset="100%" stop-color="#4ADE80" stop-opacity="0" /></radialGradient><radialGradient id="hotPurple" cx="50%" cy="50%" r="50%"><stop offset="0%" stop-color="#A78BFA" stop-opacity="0.45" /><stop offset="100%" stop-color="#A78BFA" stop-opacity="0" /></radialGradient><pattern id="envGrid" x="0" y="0" width="40" height="40" patternUnits="userSpaceOnUse"><circle cx="20" cy="20" r="0.8" fill="#2A3256" opacity="0.55" /></pattern><filter id="softShadow" x="-10%" y="-10%" width="130%" height="130%"><feGaussianBlur in="SourceAlpha" stdDeviation="3" /><feOffset dx="2" dy="4" /><feComponentTransfer><feFuncA type="linear" slope="0.55" /></feComponentTransfer><feMerge><feMergeNode /><feMergeNode in="SourceGraphic" /></feMerge></filter><filter id="textShadow" x="-10%" y="-10%" width="130%" height="130%"><feGaussianBlur in="SourceAlpha" stdDeviation="1.2" /><feOffset dx="1" dy="1.5" /><feComponentTransfer><feFuncA type="linear" slope="0.7" /></feComponentTransfer><feMerge><feMergeNode /><feMergeNode in="SourceGraphic" /></feMerge></filter></defs>
<rect width="1200" height="630" fill="url(#bgSpread)" />
<rect width="1200" height="630" fill="url(#envGrid)" />
<circle cx="310" cy="310" r="160" fill="url(#hotRed)"><animate attributeName="opacity" values="0.6;1;0.6" dur="5.8s" repeatCount="indefinite" /></circle><circle cx="950" cy="210" r="120" fill="url(#hotBlue)"><animate attributeName="opacity" values="0.45;0.85;0.45" dur="6.4s" repeatCount="indefinite" /></circle><circle cx="970" cy="480" r="110" fill="url(#hotAmber)"><animate attributeName="opacity" values="0.4;0.75;0.4" dur="7.1s" repeatCount="indefinite" /></circle><g fill="#8FB8FF"><circle cx="180" cy="70" r="1.2"><animate attributeName="opacity" values="0.2;1;0.2" dur="3.4s" repeatCount="indefinite" /></circle><circle cx="440" cy="62" r="1"><animate attributeName="opacity" values="0.2;0.9;0.2" dur="4.2s" repeatCount="indefinite" /></circle><circle cx="740" cy="68" r="1.3"><animate attributeName="opacity" values="0.25;1;0.25" dur="3.9s" repeatCount="indefinite" /></circle><circle cx="1060" cy="74" r="0.9"><animate attributeName="opacity" values="0.2;0.85;0.2" dur="5.1s" repeatCount="indefinite" /></circle><circle cx="90" cy="580" r="1"><animate attributeName="opacity" values="0.15;0.8;0.15" dur="4.7s" repeatCount="indefinite" /></circle><circle cx="550" cy="590" r="0.8"><animate attributeName="opacity" values="0.2;0.75;0.2" dur="3.6s" begin="0.5s" repeatCount="indefinite" /></circle></g>
<g fill="#7DA3D9" opacity="0.85"><circle cx="252" cy="58" r="0.8"><animate attributeName="opacity" values="0.15;0.7;0.15" dur="4.3s" repeatCount="indefinite" /></circle><circle cx="368" cy="74" r="0.9"><animate attributeName="opacity" values="0.2;0.85;0.2" dur="3.8s" begin="0.4s" repeatCount="indefinite" /></circle><circle cx="624" cy="60" r="1.1"><animate attributeName="opacity" values="0.25;0.95;0.25" dur="4.5s" repeatCount="indefinite" /></circle><circle cx="858" cy="68" r="0.9"><animate attributeName="opacity" values="0.2;0.8;0.2" dur="3.6s" begin="0.6s" repeatCount="indefinite" /></circle><circle cx="996" cy="62" r="1.0"><animate attributeName="opacity" values="0.2;0.9;0.2" dur="4.0s" begin="0.2s" repeatCount="indefinite" /></circle><circle cx="1138" cy="76" r="0.8"><animate attributeName="opacity" values="0.15;0.7;0.15" dur="5.2s" begin="0.5s" repeatCount="indefinite" /></circle><circle cx="218" cy="596" r="0.9"><animate attributeName="opacity" values="0.18;0.75;0.18" dur="4.6s" begin="0.3s" repeatCount="indefinite" /></circle><circle cx="380" cy="608" r="1.0"><animate attributeName="opacity" values="0.2;0.85;0.2" dur="3.9s" begin="0.7s" repeatCount="indefinite" /></circle><circle cx="704" cy="600" r="0.8"><animate attributeName="opacity" values="0.18;0.7;0.18" dur="4.2s" begin="0.4s" repeatCount="indefinite" /></circle><circle cx="892" cy="608" r="1.1"><animate attributeName="opacity" values="0.22;0.9;0.22" dur="4.7s" begin="0.6s" repeatCount="indefinite" /></circle><circle cx="1078" cy="600" r="0.9"><animate attributeName="opacity" values="0.2;0.85;0.2" dur="3.6s" begin="0.8s" repeatCount="indefinite" /></circle></g>
<rect x="0" y="0" width="1200" height="56" fill="#050813" opacity="0.92" />
<text x="36" y="36" font-family="Inter, Helvetica, Arial, sans-serif" font-size="18" font-weight="700" fill="#8FB8FF" letter-spacing="2.5">WEEKLY DIGEST</text>
<text x="1164" y="36" font-family="Inter, Helvetica, Arial, sans-serif" font-size="15" font-weight="600" fill="#7DA3D9" letter-spacing="1.5" text-anchor="end">2026.03.23</text>
<rect x="0" y="54" width="1200" height="2" fill="#E63946" opacity="0.85"><animate attributeName="opacity" values="0.4;1;0.4" dur="4.8s" repeatCount="indefinite" /></rect>
<rect x="32" y="80" width="600" height="510" rx="14" ry="14" fill="url(#heroPanel)" stroke="#E63946" stroke-width="1.8" opacity="0.98" />
<circle cx="160" cy="300" r="240" fill="url(#hotRed)" opacity="0.28" />
<rect x="32" y="80" width="600" height="4" fill="#E63946" opacity="0.85"><animate attributeName="opacity" values="0.5;1;0.5" dur="3.4s" repeatCount="indefinite" /></rect>
<g filter="url(#textShadow)">
<text x="54" y="112" font-family="Inter, Helvetica, Arial, sans-serif" font-size="13" font-weight="700" fill="#F87171" letter-spacing="3">HIGH  /  01</text>
<text x="54" y="146" font-family="Inter, Helvetica, Arial, sans-serif" font-size="31" font-weight="800" fill="#F8FAFC">Ransomware</text>
<text x="54" y="174" font-family="Inter, Helvetica, Arial, sans-serif" font-size="17" font-weight="500" fill="#FBB6BD">Ransomware</text>
</g>
<g transform="translate(332,360)" opacity="0.32"><circle r="180" fill="none" stroke="#E63946" stroke-width="0.6" stroke-dasharray="2 4" /><circle r="140" fill="none" stroke="#E63946" stroke-width="0.6" stroke-dasharray="2 4" opacity="0.7" /><circle r="100" fill="none" stroke="#E63946" stroke-width="0.6" stroke-dasharray="2 4" opacity="0.5" /><g><path d="M0 0 L180 0 A180 180 0 0 1 127 127 Z" fill="#E63946" opacity="0.10" /><animateTransform attributeName="transform" type="rotate" from="0" to="360" dur="14s" repeatCount="indefinite" /></g></g>
<g stroke="#E63946" stroke-width="1.4" fill="none" opacity="0.7"><path d="M36 96 L36 84 L48 84" /><path d="M616 84 L628 84 L628 96" /><path d="M36 574 L36 586 L48 586" /><path d="M616 586 L628 586 L628 574" /></g>
<g><rect x="54" y="526" width="280" height="1" fill="#E63946" opacity="0.35" /><rect x="54" y="528" width="1" height="4" fill="#E63946" opacity="0.55" /><rect x="68" y="528" width="1" height="2" fill="#E63946" opacity="0.55" /><rect x="82" y="528" width="1" height="2" fill="#E63946" opacity="0.55" /><rect x="96" y="528" width="1" height="4" fill="#E63946" opacity="0.55" /><rect x="110" y="528" width="1" height="2" fill="#E63946" opacity="0.55" /><rect x="124" y="528" width="1" height="2" fill="#E63946" opacity="0.55" /><rect x="138" y="528" width="1" height="4" fill="#E63946" opacity="0.55" /><rect x="152" y="528" width="1" height="2" fill="#E63946" opacity="0.55" /><rect x="166" y="528" width="1" height="2" fill="#E63946" opacity="0.55" /><rect x="180" y="528" width="1" height="4" fill="#E63946" opacity="0.55" /><rect x="194" y="528" width="1" height="2" fill="#E63946" opacity="0.55" /><rect x="208" y="528" width="1" height="2" fill="#E63946" opacity="0.55" /><rect x="222" y="528" width="1" height="4" fill="#E63946" opacity="0.55" /><rect x="236" y="528" width="1" height="2" fill="#E63946" opacity="0.55" /><rect x="250" y="528" width="1" height="2" fill="#E63946" opacity="0.55" /><rect x="264" y="528" width="1" height="4" fill="#E63946" opacity="0.55" /><rect x="278" y="528" width="1" height="2" fill="#E63946" opacity="0.55" /><rect x="292" y="528" width="1" height="2" fill="#E63946" opacity="0.55" /><rect x="306" y="528" width="1" height="4" fill="#E63946" opacity="0.55" /><rect x="320" y="528" width="1" height="2" fill="#E63946" opacity="0.55" /><rect x="284" y="527" width="50" height="6" fill="#E63946" opacity="0.45"><animate attributeName="x" values="54;284;54" dur="6.4s" repeatCount="indefinite" /><animate attributeName="opacity" values="0.2;0.7;0.2" dur="6.4s" repeatCount="indefinite" /></rect></g>
<g transform="translate(332,360)"><g transform="translate(-100,-90)" filter="url(#softShadow)"><rect x="0" y="32" width="80" height="64" rx="8" fill="#E63946" /><path d="M14 32 L14 16 Q40 -6 66 16 L66 32" stroke="#E63946" stroke-width="6" fill="none" stroke-linecap="round" /><circle cx="40" cy="60" r="6" fill="#FFFFFF" /><rect x="38" y="62" width="4" height="14" fill="#FFFFFF" /><text x="40" y="116" text-anchor="middle" font-family="Inter, monospace" font-size="10" font-weight="900" fill="#F87171">LOCKED</text></g><g transform="translate(20,-90)" filter="url(#softShadow)"><rect x="0" y="0" width="180" height="180" rx="8" fill="#0A0C16" stroke="#E63946" stroke-width="1.4" /><text x="90" y="22" text-anchor="middle" font-family="Inter, monospace" font-size="11" font-weight="900" fill="#F87171">RANSOM NOTE</text><line x1="14" y1="32" x2="166" y2="32" stroke="#E63946" stroke-width="0.8" opacity="0.6" /><g font-family="Inter, monospace" font-size="9" font-weight="600" fill="#FCA5A5"><text x="14" y="50">Files encrypted: 100%</text><text x="14" y="68">AES-256 + RSA-4096</text><text x="14" y="86">Backups deleted</text><text x="14" y="104">Volume shadow wiped</text></g><rect x="14" y="118" width="152" height="22" rx="3" fill="#2A0808" stroke="#E63946" stroke-width="1.2"><animate attributeName="stroke-opacity" values="0.6;1;0.6" dur="1.6s" repeatCount="indefinite" /></rect><text x="90" y="133" text-anchor="middle" font-family="Inter, monospace" font-size="10" font-weight="900" fill="#FFFFFF">PAY OR LOSE DATA</text><g transform="translate(14,148)" font-family="Inter, monospace" font-size="8" font-weight="700" fill="#FFB703"><rect x="0" y="0" width="152" height="20" rx="3" fill="#1A1208" stroke="#FFB703" stroke-width="1" /><text x="76" y="14" text-anchor="middle">countdown  /  72h window</text></g></g></g>
<g transform="translate(54,548)">
<rect x="0" y="0" width="280" height="24" rx="3" fill="#E63946" opacity="0.95" />
<text x="140" y="17" text-anchor="middle" font-family="Inter, Helvetica, Arial, sans-serif" font-size="12" font-weight="700" fill="#FFFFFF">ISOLATE - RESTORE FROM BACKUP</text>
</g>
<text x="350" y="566" font-family="Inter, Helvetica, Arial, sans-serif" font-size="13" font-weight="600" fill="#A5B4C4" font-style="italic">Weekly Digest  /  2026.03.23</text>
<rect x="652" y="80" width="516" height="248" rx="14" ry="14" fill="url(#heroPanelBlue)" stroke="#3A86FF" stroke-width="1.6" opacity="0.97" />
<rect x="652" y="80" width="516" height="4" fill="#3A86FF" opacity="0.85"><animate attributeName="opacity" values="0.5;1;0.5" dur="4.2s" repeatCount="indefinite" /></rect>
<g filter="url(#textShadow)">
<text x="670" y="110" font-family="Inter, Helvetica, Arial, sans-serif" font-size="12" font-weight="700" fill="#7DA3D9" letter-spacing="3">HIGH  /  02</text>
<text x="670" y="140" font-family="Inter, Helvetica, Arial, sans-serif" font-size="24" font-weight="800" fill="#F5F7FA">Security Update</text>
<text x="670" y="163" font-family="Inter, Helvetica, Arial, sans-serif" font-size="14" font-weight="500" fill="#BFC9D9">Security Update</text>
</g>
<g stroke="#3A86FF" stroke-width="1.4" fill="none" opacity="0.7"><path d="M656 93 L656 84 L665 84" /><path d="M1155 84 L1164 84 L1164 93" /><path d="M656 315 L656 324 L665 324" /><path d="M1155 324 L1164 324 L1164 315" /></g>
<g transform="translate(800,230)"><g font-family="Inter, monospace" font-size="8" font-weight="800"><g transform="translate(-150,-40)"><rect x="0" y="0" width="76" height="24" rx="4" fill="#0E1426" stroke="#3A86FF" stroke-width="1.2" /><text x="38" y="15" text-anchor="middle" fill="#60A5FA">DIGEST</text></g><g transform="translate(-150,-6)"><rect x="0" y="0" width="76" height="24" rx="4" fill="#0E1426" stroke="#3A86FF" stroke-width="1.2" opacity="0.88" /><text x="38" y="15" text-anchor="middle" fill="#60A5FA">ECOSYSTEM</text></g><g transform="translate(-150,28)"><rect x="0" y="0" width="76" height="24" rx="4" fill="#0E1426" stroke="#3A86FF" stroke-width="1.2" opacity="0.76" /><text x="38" y="15" text-anchor="middle" fill="#60A5FA">RELEASE</text></g></g><g stroke="#3A86FF" stroke-width="1" stroke-dasharray="3 2" fill="none" opacity="0.6"><line x1="-74" y1="-28" x2="-8" y2="0" /><line x1="-74" y1="6" x2="-8" y2="2" /><line x1="-74" y1="40" x2="-8" y2="4" /></g><g fill="#60A5FA"><circle r="2"><animateMotion path="M-74 -28 L-8 0" dur="2.2s" repeatCount="indefinite" /></circle><circle r="2"><animateMotion path="M-74 6 L-8 2" dur="2s" begin="0.4s" repeatCount="indefinite" /></circle><circle r="2"><animateMotion path="M-74 40 L-8 4" dur="2.4s" begin="0.8s" repeatCount="indefinite" /></circle></g><circle cx="0" cy="2" r="30" fill="#0A1326" stroke="#3A86FF" stroke-width="2" filter="url(#softShadow)"><animate attributeName="r" values="28;33;28" dur="3.4s" repeatCount="indefinite" /></circle><text x="0" y="-1" text-anchor="middle" font-family="Inter, monospace" font-size="11" font-weight="900" fill="#60A5FA">UPDATE</text><text x="0" y="13" text-anchor="middle" font-family="Inter, monospace" font-size="8" font-weight="700" fill="#3A86FF">ECOSYSTEM</text><g transform="translate(56,-44)" filter="url(#softShadow)"><rect x="0" y="0" width="120" height="92" rx="6" fill="#0A0F1E" stroke="#3A86FF" stroke-width="1.2" /><text x="60" y="16" text-anchor="middle" font-family="Inter, monospace" font-size="9" font-weight="800" fill="#60A5FA">ACTIVITY</text><polyline points="12,72 30,60 46,64 62,48 80,52 98,34 108,30" fill="none" stroke="#3A86FF" stroke-width="2" stroke-linecap="round" stroke-linejoin="round" /><circle cx="108" cy="30" r="3" fill="#60A5FA"><animate attributeName="opacity" values="0.5;1;0.5" dur="2s" repeatCount="indefinite" /></circle><g stroke="#3A86FF" stroke-width="0.6" opacity="0.3"><line x1="12" y1="46" x2="108" y2="46" /><line x1="12" y1="62" x2="108" y2="62" /></g><text x="60" y="86" text-anchor="middle" font-family="Inter, monospace" font-size="8" font-weight="600" fill="#3A86FF">trend overview</text></g></g>
<g transform="translate(1094,168)" filter="url(#softShadow)"><rect x="-68" y="-55" width="140" height="110" rx="10" fill="#071426" stroke="#3A86FF" stroke-width="2" /><text x="2" y="-28" text-anchor="middle" font-family="Inter, Helvetica, Arial, sans-serif" font-size="10" font-weight="700" letter-spacing="2" fill="#7DA3D9">STATUS</text><text x="2" y="18" text-anchor="middle" font-family="Inter, Helvetica, Arial, sans-serif" font-size="28" font-weight="900" fill="#F5F7FA">TBD</text><text x="2" y="40" text-anchor="middle" font-family="Inter, Helvetica, Arial, sans-serif" font-size="10" font-weight="600" fill="#BFC9D9">NEW</text></g>
<rect x="652" y="344" width="516" height="246" rx="14" ry="14" fill="url(#heroPanelBlue)" stroke="#3A86FF" stroke-width="1.6" opacity="0.97" />
<rect x="652" y="344" width="516" height="4" fill="#3A86FF" opacity="0.85"><animate attributeName="opacity" values="0.5;1;0.5" dur="4.8s" repeatCount="indefinite" /></rect>
<g filter="url(#textShadow)">
<text x="670" y="374" font-family="Inter, Helvetica, Arial, sans-serif" font-size="12" font-weight="700" fill="#7DA3D9" letter-spacing="3">MEDIUM  /  03</text>
<text x="670" y="404" font-family="Inter, Helvetica, Arial, sans-serif" font-size="24" font-weight="800" fill="#F5F7FA">Threat Analysis</text>
<text x="670" y="428" font-family="Inter, Helvetica, Arial, sans-serif" font-size="14" font-weight="500" fill="#BFC9D9">Threat Analysis</text>
</g>
<g stroke="#3A86FF" stroke-width="1.4" fill="none" opacity="0.7"><path d="M656 357 L656 348 L665 348" /><path d="M1155 348 L1164 348 L1164 357" /><path d="M656 577 L656 586 L665 586" /><path d="M1155 586 L1164 586 L1164 577" /></g>
<g transform="translate(800,490)"><g font-family="Inter, monospace" font-size="8" font-weight="800"><g transform="translate(-150,-40)"><rect x="0" y="0" width="76" height="24" rx="4" fill="#0E1426" stroke="#3A86FF" stroke-width="1.2" /><text x="38" y="15" text-anchor="middle" fill="#60A5FA">DIGEST</text></g><g transform="translate(-150,-6)"><rect x="0" y="0" width="76" height="24" rx="4" fill="#0E1426" stroke="#3A86FF" stroke-width="1.2" opacity="0.88" /><text x="38" y="15" text-anchor="middle" fill="#60A5FA">ECOSYSTEM</text></g><g transform="translate(-150,28)"><rect x="0" y="0" width="76" height="24" rx="4" fill="#0E1426" stroke="#3A86FF" stroke-width="1.2" opacity="0.76" /><text x="38" y="15" text-anchor="middle" fill="#60A5FA">RELEASE</text></g></g><g stroke="#3A86FF" stroke-width="1" stroke-dasharray="3 2" fill="none" opacity="0.6"><line x1="-74" y1="-28" x2="-8" y2="0" /><line x1="-74" y1="6" x2="-8" y2="2" /><line x1="-74" y1="40" x2="-8" y2="4" /></g><g fill="#60A5FA"><circle r="2"><animateMotion path="M-74 -28 L-8 0" dur="2.2s" repeatCount="indefinite" /></circle><circle r="2"><animateMotion path="M-74 6 L-8 2" dur="2s" begin="0.4s" repeatCount="indefinite" /></circle><circle r="2"><animateMotion path="M-74 40 L-8 4" dur="2.4s" begin="0.8s" repeatCount="indefinite" /></circle></g><circle cx="0" cy="2" r="30" fill="#0A1326" stroke="#3A86FF" stroke-width="2" filter="url(#softShadow)"><animate attributeName="r" values="28;33;28" dur="3.4s" repeatCount="indefinite" /></circle><text x="0" y="-1" text-anchor="middle" font-family="Inter, monospace" font-size="11" font-weight="900" fill="#60A5FA">UPDATE</text><text x="0" y="13" text-anchor="middle" font-family="Inter, monospace" font-size="8" font-weight="700" fill="#FFB703">ADVISORY</text><g transform="translate(56,-44)" filter="url(#softShadow)"><rect x="0" y="0" width="120" height="92" rx="6" fill="#0A0F1E" stroke="#3A86FF" stroke-width="1.2" /><text x="60" y="16" text-anchor="middle" font-family="Inter, monospace" font-size="9" font-weight="800" fill="#60A5FA">ACTIVITY</text><polyline points="12,72 30,60 46,64 62,48 80,52 98,34 108,30" fill="none" stroke="#3A86FF" stroke-width="2" stroke-linecap="round" stroke-linejoin="round" /><circle cx="108" cy="30" r="3" fill="#60A5FA"><animate attributeName="opacity" values="0.5;1;0.5" dur="2s" repeatCount="indefinite" /></circle><g stroke="#3A86FF" stroke-width="0.6" opacity="0.3"><line x1="12" y1="46" x2="108" y2="46" /><line x1="12" y1="62" x2="108" y2="62" /></g><text x="60" y="86" text-anchor="middle" font-family="Inter, monospace" font-size="8" font-weight="600" fill="#3A86FF">trend overview</text></g></g>
<g transform="translate(1094,452)" filter="url(#softShadow)"><rect x="-68" y="-55" width="140" height="110" rx="10" fill="#071426" stroke="#3A86FF" stroke-width="2" /><text x="2" y="-28" text-anchor="middle" font-family="Inter, Helvetica, Arial, sans-serif" font-size="10" font-weight="700" letter-spacing="2" fill="#7DA3D9">STATUS</text><text x="2" y="18" text-anchor="middle" font-family="Inter, Helvetica, Arial, sans-serif" font-size="28" font-weight="900" fill="#F5F7FA">TBD</text><text x="2" y="40" text-anchor="middle" font-family="Inter, Helvetica, Arial, sans-serif" font-size="10" font-weight="600" fill="#BFC9D9">NEW</text></g>
<g opacity="0.85"><g fill="#F87171"><circle cx="1104" cy="110" r="1.4"><animate attributeName="opacity" values="0.2;1;0.2" dur="1.8s" repeatCount="indefinite" /></circle><circle cx="1124" cy="110" r="1.4"><animate attributeName="opacity" values="0.2;1;0.2" dur="1.4s" begin="0.3s" repeatCount="indefinite" /></circle></g><g fill="#7DA3D9"><circle cx="1104" cy="218" r="1.2"><animate attributeName="opacity" values="0.2;1;0.2" dur="2s" repeatCount="indefinite" /></circle><circle cx="1124" cy="218" r="1.2"><animate attributeName="opacity" values="0.2;1;0.2" dur="1.6s" begin="0.4s" repeatCount="indefinite" /></circle></g><g fill="#FFD58A"><circle cx="1104" cy="374" r="1.4"><animate attributeName="opacity" values="0.2;1;0.2" dur="1.8s" repeatCount="indefinite" /></circle><circle cx="1124" cy="374" r="1.4"><animate attributeName="opacity" values="0.2;1;0.2" dur="1.6s" begin="0.3s" repeatCount="indefinite" /></circle></g><g stroke="#E63946" stroke-width="0.5" fill="none"><path d="M20 230 L28 230"><animate attributeName="stroke-opacity" values="0;0.7;0" dur="2s" repeatCount="indefinite" /></path><path d="M20 300 L28 300"><animate attributeName="stroke-opacity" values="0;0.7;0" dur="2.3s" begin="0.3s" repeatCount="indefinite" /></path><path d="M20 370 L28 370"><animate attributeName="stroke-opacity" values="0;0.7;0" dur="1.9s" begin="0.6s" repeatCount="indefinite" /></path><path d="M20 440 L28 440"><animate attributeName="stroke-opacity" values="0;0.7;0" dur="2.1s" begin="0.9s" repeatCount="indefinite" /></path></g></g>
<g transform="translate(1080,504)" filter="url(#softShadow)">
  <rect x="-8" y="-8" width="100" height="100" rx="6" fill="#FFFFFF" />
  <path fill="#0A1020" d="M0.0 0.0h15.892v2.27h-15.892z M20.432 0.0h4.541v2.27h-4.541z M29.514 0.0h11.351v2.27h-11.351z M43.135 0.0h6.811v2.27h-6.811z M52.216 0.0h2.27v2.27h-2.27z M59.027 0.0h6.811v2.27h-6.811z M68.108 0.0h15.892v2.27h-15.892z M0.0 2.27h2.27v2.27h-2.27z M13.622 2.27h2.27v2.27h-2.27z M20.432 2.27h15.892v2.27h-15.892z M38.595 2.27h2.27v2.27h-2.27z M54.486 2.27h11.351v2.27h-11.351z M68.108 2.27h2.27v2.27h-2.27z M81.73 2.27h2.27v2.27h-2.27z M0.0 4.541h2.27v2.27h-2.27z M4.541 4.541h6.811v2.27h-6.811z M13.622 4.541h2.27v2.27h-2.27z M18.162 4.541h6.811v2.27h-6.811z M34.054 4.541h4.541v2.27h-4.541z M43.135 4.541h9.081v2.27h-9.081z M59.027 4.541h4.541v2.27h-4.541z M68.108 4.541h2.27v2.27h-2.27z M72.649 4.541h6.811v2.27h-6.811z M81.73 4.541h2.27v2.27h-2.27z M0.0 6.811h2.27v2.27h-2.27z M4.541 6.811h6.811v2.27h-6.811z M13.622 6.811h2.27v2.27h-2.27z M18.162 6.811h2.27v2.27h-2.27z M24.973 6.811h20.432v2.27h-20.432z M49.946 6.811h2.27v2.27h-2.27z M54.486 6.811h6.811v2.27h-6.811z M63.568 6.811h2.27v2.27h-2.27z M68.108 6.811h2.27v2.27h-2.27z M72.649 6.811h6.811v2.27h-6.811z M81.73 6.811h2.27v2.27h-2.27z M0.0 9.081h2.27v2.27h-2.27z M4.541 9.081h6.811v2.27h-6.811z M13.622 9.081h2.27v2.27h-2.27z M18.162 9.081h4.541v2.27h-4.541z M24.973 9.081h4.541v2.27h-4.541z M43.135 9.081h2.27v2.27h-2.27z M52.216 9.081h2.27v2.27h-2.27z M56.757 9.081h2.27v2.27h-2.27z M63.568 9.081h2.27v2.27h-2.27z M68.108 9.081h2.27v2.27h-2.27z M72.649 9.081h6.811v2.27h-6.811z M81.73 9.081h2.27v2.27h-2.27z M0.0 11.351h2.27v2.27h-2.27z M13.622 11.351h2.27v2.27h-2.27z M18.162 11.351h2.27v2.27h-2.27z M29.514 11.351h2.27v2.27h-2.27z M34.054 11.351h9.081v2.27h-9.081z M45.405 11.351h4.541v2.27h-4.541z M54.486 11.351h9.081v2.27h-9.081z M68.108 11.351h2.27v2.27h-2.27z M81.73 11.351h2.27v2.27h-2.27z M0.0 13.622h15.892v2.27h-15.892z M18.162 13.622h2.27v2.27h-2.27z M22.703 13.622h2.27v2.27h-2.27z M27.243 13.622h2.27v2.27h-2.27z M31.784 13.622h2.27v2.27h-2.27z M36.324 13.622h2.27v2.27h-2.27z M40.865 13.622h2.27v2.27h-2.27z M45.405 13.622h2.27v2.27h-2.27z M49.946 13.622h2.27v2.27h-2.27z M54.486 13.622h2.27v2.27h-2.27z M59.027 13.622h2.27v2.27h-2.27z M63.568 13.622h2.27v2.27h-2.27z M68.108 13.622h15.892v2.27h-15.892z M18.162 15.892h2.27v2.27h-2.27z M24.973 15.892h4.541v2.27h-4.541z M31.784 15.892h6.811v2.27h-6.811z M43.135 15.892h2.27v2.27h-2.27z M47.676 15.892h6.811v2.27h-6.811z M59.027 15.892h6.811v2.27h-6.811z M0.0 18.162h2.27v2.27h-2.27z M4.541 18.162h11.351v2.27h-11.351z M20.432 18.162h2.27v2.27h-2.27z M24.973 18.162h9.081v2.27h-9.081z M38.595 18.162h2.27v2.27h-2.27z M49.946 18.162h6.811v2.27h-6.811z M59.027 18.162h6.811v2.27h-6.811z M68.108 18.162h11.351v2.27h-11.351z M4.541 20.432h2.27v2.27h-2.27z M9.081 20.432h2.27v2.27h-2.27z M24.973 20.432h6.811v2.27h-6.811z M34.054 20.432h2.27v2.27h-2.27z M40.865 20.432h6.811v2.27h-6.811z M56.757 20.432h4.541v2.27h-4.541z M63.568 20.432h2.27v2.27h-2.27z M70.378 20.432h2.27v2.27h-2.27z M77.189 20.432h4.541v2.27h-4.541z M2.27 22.703h6.811v2.27h-6.811z M11.351 22.703h6.811v2.27h-6.811z M20.432 22.703h2.27v2.27h-2.27z M27.243 22.703h4.541v2.27h-4.541z M34.054 22.703h9.081v2.27h-9.081z M45.405 22.703h2.27v2.27h-2.27z M49.946 22.703h2.27v2.27h-2.27z M56.757 22.703h6.811v2.27h-6.811z M65.838 22.703h9.081v2.27h-9.081z M77.189 22.703h6.811v2.27h-6.811z M0.0 24.973h2.27v2.27h-2.27z M6.811 24.973h4.541v2.27h-4.541z M15.892 24.973h2.27v2.27h-2.27z M20.432 24.973h2.27v2.27h-2.27z M27.243 24.973h4.541v2.27h-4.541z M36.324 24.973h2.27v2.27h-2.27z M40.865 24.973h2.27v2.27h-2.27z M47.676 24.973h6.811v2.27h-6.811z M59.027 24.973h6.811v2.27h-6.811z M68.108 24.973h2.27v2.27h-2.27z M81.73 24.973h2.27v2.27h-2.27z M2.27 27.243h4.541v2.27h-4.541z M9.081 27.243h2.27v2.27h-2.27z M13.622 27.243h2.27v2.27h-2.27z M18.162 27.243h2.27v2.27h-2.27z M22.703 27.243h2.27v2.27h-2.27z M29.514 27.243h4.541v2.27h-4.541z M38.595 27.243h4.541v2.27h-4.541z M45.405 27.243h2.27v2.27h-2.27z M49.946 27.243h24.973v2.27h-24.973z M79.459 27.243h4.541v2.27h-4.541z M4.541 29.514h4.541v2.27h-4.541z M20.432 29.514h2.27v2.27h-2.27z M24.973 29.514h6.811v2.27h-6.811z M38.595 29.514h2.27v2.27h-2.27z M43.135 29.514h6.811v2.27h-6.811z M52.216 29.514h4.541v2.27h-4.541z M63.568 29.514h2.27v2.27h-2.27z M70.378 29.514h2.27v2.27h-2.27z M4.541 31.784h2.27v2.27h-2.27z M9.081 31.784h2.27v2.27h-2.27z M13.622 31.784h2.27v2.27h-2.27z M18.162 31.784h2.27v2.27h-2.27z M24.973 31.784h2.27v2.27h-2.27z M29.514 31.784h2.27v2.27h-2.27z M34.054 31.784h6.811v2.27h-6.811z M49.946 31.784h2.27v2.27h-2.27z M54.486 31.784h9.081v2.27h-9.081z M65.838 31.784h11.351v2.27h-11.351z M81.73 31.784h2.27v2.27h-2.27z M2.27 34.054h2.27v2.27h-2.27z M11.351 34.054h2.27v2.27h-2.27z M15.892 34.054h4.541v2.27h-4.541z M22.703 34.054h2.27v2.27h-2.27z M29.514 34.054h2.27v2.27h-2.27z M45.405 34.054h9.081v2.27h-9.081z M59.027 34.054h2.27v2.27h-2.27z M65.838 34.054h9.081v2.27h-9.081z M79.459 34.054h2.27v2.27h-2.27z M0.0 36.324h2.27v2.27h-2.27z M4.541 36.324h2.27v2.27h-2.27z M13.622 36.324h4.541v2.27h-4.541z M20.432 36.324h2.27v2.27h-2.27z M27.243 36.324h2.27v2.27h-2.27z M31.784 36.324h4.541v2.27h-4.541z M38.595 36.324h2.27v2.27h-2.27z M49.946 36.324h4.541v2.27h-4.541z M56.757 36.324h15.892v2.27h-15.892z M77.189 36.324h2.27v2.27h-2.27z M81.73 36.324h2.27v2.27h-2.27z M15.892 38.595h9.081v2.27h-9.081z M27.243 38.595h2.27v2.27h-2.27z M40.865 38.595h6.811v2.27h-6.811z M63.568 38.595h2.27v2.27h-2.27z M70.378 38.595h2.27v2.27h-2.27z M79.459 38.595h2.27v2.27h-2.27z M6.811 40.865h2.27v2.27h-2.27z M13.622 40.865h2.27v2.27h-2.27z M18.162 40.865h4.541v2.27h-4.541z M31.784 40.865h6.811v2.27h-6.811z M40.865 40.865h2.27v2.27h-2.27z M47.676 40.865h4.541v2.27h-4.541z M59.027 40.865h18.162v2.27h-18.162z M79.459 40.865h4.541v2.27h-4.541z M2.27 43.135h4.541v2.27h-4.541z M22.703 43.135h9.081v2.27h-9.081z M34.054 43.135h4.541v2.27h-4.541z M40.865 43.135h4.541v2.27h-4.541z M47.676 43.135h4.541v2.27h-4.541z M54.486 43.135h2.27v2.27h-2.27z M61.297 43.135h2.27v2.27h-2.27z M65.838 43.135h9.081v2.27h-9.081z M81.73 43.135h2.27v2.27h-2.27z M4.541 45.405h2.27v2.27h-2.27z M11.351 45.405h6.811v2.27h-6.811z M24.973 45.405h2.27v2.27h-2.27z M29.514 45.405h2.27v2.27h-2.27z M34.054 45.405h9.081v2.27h-9.081z M45.405 45.405h2.27v2.27h-2.27z M52.216 45.405h9.081v2.27h-9.081z M63.568 45.405h6.811v2.27h-6.811z M72.649 45.405h6.811v2.27h-6.811z M0.0 47.676h2.27v2.27h-2.27z M11.351 47.676h2.27v2.27h-2.27z M15.892 47.676h2.27v2.27h-2.27z M22.703 47.676h6.811v2.27h-6.811z M31.784 47.676h2.27v2.27h-2.27z M38.595 47.676h2.27v2.27h-2.27z M43.135 47.676h6.811v2.27h-6.811z M52.216 47.676h2.27v2.27h-2.27z M59.027 47.676h2.27v2.27h-2.27z M74.919 47.676h2.27v2.27h-2.27z M79.459 47.676h2.27v2.27h-2.27z M0.0 49.946h2.27v2.27h-2.27z M6.811 49.946h9.081v2.27h-9.081z M18.162 49.946h2.27v2.27h-2.27z M24.973 49.946h6.811v2.27h-6.811z M34.054 49.946h2.27v2.27h-2.27z M45.405 49.946h6.811v2.27h-6.811z M59.027 49.946h4.541v2.27h-4.541z M68.108 49.946h9.081v2.27h-9.081z M81.73 49.946h2.27v2.27h-2.27z M2.27 52.216h2.27v2.27h-2.27z M9.081 52.216h4.541v2.27h-4.541z M29.514 52.216h2.27v2.27h-2.27z M34.054 52.216h2.27v2.27h-2.27z M43.135 52.216h2.27v2.27h-2.27z M47.676 52.216h6.811v2.27h-6.811z M59.027 52.216h2.27v2.27h-2.27z M63.568 52.216h4.541v2.27h-4.541z M70.378 52.216h4.541v2.27h-4.541z M0.0 54.486h2.27v2.27h-2.27z M4.541 54.486h4.541v2.27h-4.541z M11.351 54.486h4.541v2.27h-4.541z M20.432 54.486h4.541v2.27h-4.541z M31.784 54.486h4.541v2.27h-4.541z M38.595 54.486h2.27v2.27h-2.27z M45.405 54.486h2.27v2.27h-2.27z M49.946 54.486h4.541v2.27h-4.541z M56.757 54.486h4.541v2.27h-4.541z M65.838 54.486h6.811v2.27h-6.811z M77.189 54.486h2.27v2.27h-2.27z M81.73 54.486h2.27v2.27h-2.27z M0.0 56.757h4.541v2.27h-4.541z M6.811 56.757h4.541v2.27h-4.541z M15.892 56.757h2.27v2.27h-2.27z M20.432 56.757h2.27v2.27h-2.27z M24.973 56.757h4.541v2.27h-4.541z M31.784 56.757h2.27v2.27h-2.27z M36.324 56.757h2.27v2.27h-2.27z M45.405 56.757h2.27v2.27h-2.27z M49.946 56.757h4.541v2.27h-4.541z M63.568 56.757h4.541v2.27h-4.541z M70.378 56.757h2.27v2.27h-2.27z M0.0 59.027h2.27v2.27h-2.27z M13.622 59.027h2.27v2.27h-2.27z M22.703 59.027h2.27v2.27h-2.27z M29.514 59.027h2.27v2.27h-2.27z M34.054 59.027h2.27v2.27h-2.27z M38.595 59.027h4.541v2.27h-4.541z M45.405 59.027h2.27v2.27h-2.27z M49.946 59.027h2.27v2.27h-2.27z M54.486 59.027h4.541v2.27h-4.541z M61.297 59.027h2.27v2.27h-2.27z M68.108 59.027h2.27v2.27h-2.27z M79.459 59.027h4.541v2.27h-4.541z M0.0 61.297h2.27v2.27h-2.27z M4.541 61.297h2.27v2.27h-2.27z M9.081 61.297h4.541v2.27h-4.541z M18.162 61.297h4.541v2.27h-4.541z M27.243 61.297h2.27v2.27h-2.27z M40.865 61.297h11.351v2.27h-11.351z M65.838 61.297h2.27v2.27h-2.27z M72.649 61.297h2.27v2.27h-2.27z M81.73 61.297h2.27v2.27h-2.27z M0.0 63.568h2.27v2.27h-2.27z M4.541 63.568h4.541v2.27h-4.541z M13.622 63.568h2.27v2.27h-2.27z M22.703 63.568h6.811v2.27h-6.811z M31.784 63.568h15.892v2.27h-15.892z M49.946 63.568h34.054v2.27h-34.054z M18.162 65.838h4.541v2.27h-4.541z M24.973 65.838h2.27v2.27h-2.27z M29.514 65.838h4.541v2.27h-4.541z M43.135 65.838h11.351v2.27h-11.351z M61.297 65.838h4.541v2.27h-4.541z M72.649 65.838h4.541v2.27h-4.541z M79.459 65.838h2.27v2.27h-2.27z M0.0 68.108h15.892v2.27h-15.892z M20.432 68.108h11.351v2.27h-11.351z M34.054 68.108h6.811v2.27h-6.811z M45.405 68.108h2.27v2.27h-2.27z M59.027 68.108h2.27v2.27h-2.27z M63.568 68.108h2.27v2.27h-2.27z M68.108 68.108h2.27v2.27h-2.27z M72.649 68.108h2.27v2.27h-2.27z M77.189 68.108h2.27v2.27h-2.27z M81.73 68.108h2.27v2.27h-2.27z M0.0 70.378h2.27v2.27h-2.27z M13.622 70.378h2.27v2.27h-2.27z M18.162 70.378h2.27v2.27h-2.27z M22.703 70.378h6.811v2.27h-6.811z M31.784 70.378h2.27v2.27h-2.27z M36.324 70.378h2.27v2.27h-2.27z M43.135 70.378h11.351v2.27h-11.351z M59.027 70.378h6.811v2.27h-6.811z M72.649 70.378h4.541v2.27h-4.541z M79.459 70.378h2.27v2.27h-2.27z M0.0 72.649h2.27v2.27h-2.27z M4.541 72.649h6.811v2.27h-6.811z M13.622 72.649h2.27v2.27h-2.27z M18.162 72.649h6.811v2.27h-6.811z M27.243 72.649h2.27v2.27h-2.27z M36.324 72.649h4.541v2.27h-4.541z M43.135 72.649h4.541v2.27h-4.541z M49.946 72.649h2.27v2.27h-2.27z M54.486 72.649h20.432v2.27h-20.432z M77.189 72.649h4.541v2.27h-4.541z M0.0 74.919h2.27v2.27h-2.27z M4.541 74.919h6.811v2.27h-6.811z M13.622 74.919h2.27v2.27h-2.27z M18.162 74.919h2.27v2.27h-2.27z M24.973 74.919h2.27v2.27h-2.27z M29.514 74.919h4.541v2.27h-4.541z M36.324 74.919h2.27v2.27h-2.27z M40.865 74.919h2.27v2.27h-2.27z M45.405 74.919h9.081v2.27h-9.081z M61.297 74.919h2.27v2.27h-2.27z M65.838 74.919h4.541v2.27h-4.541z M72.649 74.919h4.541v2.27h-4.541z M79.459 74.919h4.541v2.27h-4.541z M0.0 77.189h2.27v2.27h-2.27z M4.541 77.189h6.811v2.27h-6.811z M13.622 77.189h2.27v2.27h-2.27z M18.162 77.189h4.541v2.27h-4.541z M27.243 77.189h13.622v2.27h-13.622z M47.676 77.189h2.27v2.27h-2.27z M61.297 77.189h4.541v2.27h-4.541z M77.189 77.189h6.811v2.27h-6.811z M0.0 79.459h2.27v2.27h-2.27z M13.622 79.459h2.27v2.27h-2.27z M22.703 79.459h13.622v2.27h-13.622z M40.865 79.459h2.27v2.27h-2.27z M45.405 79.459h4.541v2.27h-4.541z M52.216 79.459h4.541v2.27h-4.541z M59.027 79.459h2.27v2.27h-2.27z M63.568 79.459h6.811v2.27h-6.811z M72.649 79.459h2.27v2.27h-2.27z M81.73 79.459h2.27v2.27h-2.27z M0.0 81.73h15.892v2.27h-15.892z M18.162 81.73h2.27v2.27h-2.27z M22.703 81.73h2.27v2.27h-2.27z M31.784 81.73h4.541v2.27h-4.541z M38.595 81.73h4.541v2.27h-4.541z M49.946 81.73h11.351v2.27h-11.351z M65.838 81.73h4.541v2.27h-4.541z M72.649 81.73h11.351v2.27h-11.351z" />
</g>
<text x="1122" y="614" font-family="Inter, Helvetica, Arial, sans-serif" font-size="10" font-weight="700" fill="#F5F7FA" text-anchor="middle">scan / full post</text>
</svg>