<svg xmlns="http://www.w3.org/2000/svg" viewBox="0 0 1200 630" width="1200" height="630" role="img" aria-label="2025 ISMS-P Certification Complete Guide AWS Environment Management">
<title>ISMS-P 2025: 101-Item Certification Guide &amp; AWS Integration</title>
<defs>
<linearGradient id="bgSpreadi14" x1="0%" y1="0%" x2="100%" y2="100%"><stop offset="0%" stop-color="#0A1226"/><stop offset="50%" stop-color="#0C1430"/><stop offset="100%" stop-color="#131038"/></linearGradient>
<linearGradient id="bandAi14" x1="0%" y1="0%" x2="100%" y2="0%"><stop offset="0%" stop-color="#1A0E2E"/><stop offset="100%" stop-color="#24122F"/></linearGradient>
<linearGradient id="bandBi14" x1="0%" y1="0%" x2="100%" y2="0%"><stop offset="0%" stop-color="#0A1B35"/><stop offset="100%" stop-color="#0D2040"/></linearGradient>
<linearGradient id="bandCi14" x1="0%" y1="0%" x2="100%" y2="0%"><stop offset="0%" stop-color="#2A1A0C"/><stop offset="100%" stop-color="#1E1F0A"/></linearGradient>
<linearGradient id="streakAi14" x1="0%" y1="0%" x2="100%" y2="0%"><stop offset="0%" stop-color="#E63946" stop-opacity="0"/><stop offset="50%" stop-color="#E63946" stop-opacity="0.85"/><stop offset="100%" stop-color="#E63946" stop-opacity="0"/></linearGradient>
<linearGradient id="streakBi14" x1="0%" y1="0%" x2="100%" y2="0%"><stop offset="0%" stop-color="#60A5FA" stop-opacity="0"/><stop offset="50%" stop-color="#60A5FA" stop-opacity="0.85"/><stop offset="100%" stop-color="#60A5FA" stop-opacity="0"/></linearGradient>
<linearGradient id="streakCi14" x1="0%" y1="0%" x2="100%" y2="0%"><stop offset="0%" stop-color="#FFB703" stop-opacity="0"/><stop offset="50%" stop-color="#FFB703" stop-opacity="0.85"/><stop offset="100%" stop-color="#FFB703" stop-opacity="0"/></linearGradient>
<radialGradient id="glowAi14" cx="50%" cy="50%" r="50%"><stop offset="0%" stop-color="#E63946" stop-opacity="0.55"/><stop offset="100%" stop-color="#E63946" stop-opacity="0"/></radialGradient>
<radialGradient id="glowBi14" cx="50%" cy="50%" r="50%"><stop offset="0%" stop-color="#60A5FA" stop-opacity="0.55"/><stop offset="100%" stop-color="#60A5FA" stop-opacity="0"/></radialGradient>
<radialGradient id="glowCi14" cx="50%" cy="50%" r="50%"><stop offset="0%" stop-color="#FFB703" stop-opacity="0.55"/><stop offset="100%" stop-color="#FFB703" stop-opacity="0"/></radialGradient>
<filter id="softShadow" x="-10%" y="-10%" width="130%" height="130%"><feGaussianBlur in="SourceAlpha" stdDeviation="2.5"/><feOffset dx="1" dy="3"/><feComponentTransfer><feFuncA type="linear" slope="0.55"/></feComponentTransfer><feMerge><feMergeNode/><feMergeNode in="SourceGraphic"/></feMerge></filter>
<filter id="textShadow" x="-5%" y="-5%" width="110%" height="110%"><feGaussianBlur in="SourceAlpha" stdDeviation="1.2"/><feOffset dx="0" dy="1.5"/><feComponentTransfer><feFuncA type="linear" slope="0.85"/></feComponentTransfer><feMerge><feMergeNode/><feMergeNode in="SourceGraphic"/></feMerge></filter>
<pattern id="ledgerGrid" x="0" y="0" width="40" height="20" patternUnits="userSpaceOnUse"><path d="M0 20 L40 20" stroke="#2A3A56" stroke-width="0.4" opacity="0.5"/><path d="M40 0 L40 20" stroke="#2A3A56" stroke-width="0.4" opacity="0.5"/></pattern>
<pattern id="circuitDot" x="0" y="0" width="18" height="18" patternUnits="userSpaceOnUse"><circle cx="9" cy="9" r="0.8" fill="#3A2A4E" opacity="0.55"/></pattern>
<pattern id="hexGridi14" x="0" y="0" width="28" height="32" patternUnits="userSpaceOnUse"><path d="M14 0 L28 8 L28 24 L14 32 L0 24 L0 8 Z" fill="none" stroke="#2A3A56" stroke-width="0.3" opacity="0.4"/></pattern>
<pattern id="radarRipplei14" x="0" y="0" width="60" height="60" patternUnits="userSpaceOnUse"><circle cx="30" cy="30" r="14" fill="none" stroke="#2A3A56" stroke-width="0.3" opacity="0.4"/></pattern>
</defs>
<rect width="1200" height="630" fill="url(#bgSpreadi14)"/>
<g>
  <rect x="0" y="0" width="1200" height="210" fill="url(#bandAi14)"/>
  <rect x="0" y="0" width="1200" height="210" fill="url(#circuitDot)" opacity="0.6"/>
  <rect x="0" y="0" width="8" height="210" fill="#E63946"/>
  
  <g filter="url(#textShadow)">
    <text x="30" y="44" font-family="Inter, Helvetica, Arial, sans-serif" font-size="18" font-weight="700" letter-spacing="2.4" fill="#F87171">ISMS-P CERTIFICATION</text>
    <text x="30" y="86" font-family="Inter, Helvetica, Arial, sans-serif" font-size="36" font-weight="800" fill="#F5F7FA">101 Controls · 2025</text>
    <text x="30" y="118" font-family="Inter, Helvetica, Arial, sans-serif" font-size="20" font-weight="600" fill="#FBB6BD">3 domains · 16 categories · management framework</text>
    <text x="30" y="144" font-family="Inter, Helvetica, Arial, sans-serif" font-size="15" font-weight="500" fill="#D9C9CE">KISA ISMS-P 2025 revision · AI security items added</text>
    <text x="30" y="162" font-family="Inter, Helvetica, Arial, sans-serif" font-size="13" font-weight="700" fill="#FBB6BD">Management · Technical · Physical security domains</text><text x="30" y="178" font-family="Inter, Helvetica, Arial, sans-serif" font-size="12" font-weight="500" fill="#D9C9CE" fill-opacity="0.85">Annual audit · on-site inspection · document review</text>
    
  </g>
  <g transform="translate(690,105)">
    <rect x="-95" y="-65" width="180" height="120" rx="6" fill="#E63946" fill-opacity="0.04" stroke="#E63946" stroke-width="0.6" stroke-opacity="0.4"/>
    <g stroke="#E63946" stroke-width="1.8" fill="#E63946" fill-opacity="0.12">
      <rect x="-75" y="-40" width="10" height="70" rx="1"/>
      <rect x="-50" y="-40" width="10" height="70" rx="1"/>
      <rect x="-25" y="-40" width="10" height="70" rx="1"/>
      <rect x="0" y="-40" width="10" height="70" rx="1"/>
      <rect x="25" y="-40" width="10" height="70" rx="1"/>
      <path d="M-85 -45 L50 -45 L50 -52 L-85 -52 Z"/>
      <path d="M-85 30 L50 30 L50 38 L-85 38 Z"/>
    </g>
    <g stroke="#FCA5A5" stroke-width="0.6" stroke-opacity="0.5" fill="none">
      <line x1="-78" y1="-40" x2="-78" y2="30"/><line x1="-53" y1="-40" x2="-53" y2="30"/>
      <line x1="-28" y1="-40" x2="-28" y2="30"/><line x1="-3" y1="-40" x2="-3" y2="30"/>
      <line x1="22" y1="-40" x2="22" y2="30"/>
    </g>
    <g fill="#FCA5A5" opacity="0.9">
      <circle cx="-70" cy="-46" r="2"><animate attributeName="opacity" values="0.4;1;0.4" dur="1.6s" repeatCount="indefinite"/></circle>
      <circle cx="-45" cy="-46" r="2"><animate attributeName="opacity" values="0.4;1;0.4" dur="1.9s" repeatCount="indefinite"/></circle>
      <circle cx="-20" cy="-46" r="2"><animate attributeName="opacity" values="0.4;1;0.4" dur="1.7s" repeatCount="indefinite"/></circle>
      <circle cx="5" cy="-46" r="2"><animate attributeName="opacity" values="0.4;1;0.4" dur="2.1s" repeatCount="indefinite"/></circle>
      <circle cx="30" cy="-46" r="2"><animate attributeName="opacity" values="0.4;1;0.4" dur="1.8s" repeatCount="indefinite"/></circle>
    </g>
    <g transform="translate(72,-5) rotate(25)">
      <rect x="-6" y="-20" width="12" height="30" rx="2" fill="#E63946"/>
      <rect x="-3" y="10" width="6" height="35" fill="#E63946" opacity="0.8"/>
      <animate attributeName="transform" values="translate(72,-5) rotate(25);translate(72,-5) rotate(-10);translate(72,-5) rotate(25)" dur="2.4s" repeatCount="indefinite"/>
    </g>
    <g fill="#FCA5A5" opacity="0.6">
      <circle cx="-90" cy="-58" r="1.2"><animate attributeName="opacity" values="0.2;0.9;0.2" dur="1.5s" repeatCount="indefinite"/></circle>
      <circle cx="-72" cy="-58" r="1.2"><animate attributeName="opacity" values="0.2;0.9;0.2" dur="1.7s" begin="0.3s" repeatCount="indefinite"/></circle>
      <circle cx="-54" cy="-58" r="1.2"><animate attributeName="opacity" values="0.2;0.9;0.2" dur="1.9s" begin="0.6s" repeatCount="indefinite"/></circle>
      <circle cx="78" cy="-58" r="1.2"><animate attributeName="opacity" values="0.2;0.9;0.2" dur="2.1s" begin="0.9s" repeatCount="indefinite"/></circle>
      <circle cx="78" cy="50" r="1.2"><animate attributeName="opacity" values="0.2;0.9;0.2" dur="1.8s" begin="0.4s" repeatCount="indefinite"/></circle>
    </g>
    <g stroke="#E63946" stroke-width="0.4" stroke-opacity="0.4" fill="none">
      <path d="M-90 50 L-78 50"><animate attributeName="stroke-opacity" values="0;0.7;0" dur="2s" repeatCount="indefinite"/></path>
      <path d="M-90 60 L-72 60"><animate attributeName="stroke-opacity" values="0;0.7;0" dur="2.2s" begin="0.4s" repeatCount="indefinite"/></path>
    </g>
    <text y="56" text-anchor="middle" font-family="Inter, monospace" font-size="10" font-weight="800" fill="#E63946">REGULATION</text>
    <text y="72" text-anchor="middle" font-family="Inter, monospace" font-size="9" font-weight="700" fill="#FCA5A5" opacity="0.7">5 columns : 1 gavel</text>
  </g>
  <g transform="translate(870,105)" filter="url(#softShadow)">
    <rect x="-50" y="-48" width="100" height="96" rx="10" fill="#1E0A14" stroke="#E63946" stroke-width="1.6" stroke-opacity="0.75"/>
    <text x="0" y="-26" text-anchor="middle" font-family="Inter, Helvetica, Arial, sans-serif" font-size="10" font-weight="700" letter-spacing="1.4" fill="#F87171">DOMAINS</text>
    <text x="0" y="14" text-anchor="middle" font-family="Inter, Helvetica, Arial, sans-serif" font-size="34" font-weight="900" fill="#F5F7FA">3</text>
    <text x="0" y="34" text-anchor="middle" font-family="Inter, Helvetica, Arial, sans-serif" font-size="10" font-weight="600" fill="#FBB6BD">structure</text>
  </g>
  <g transform="translate(1110,105)" filter="url(#softShadow)">
    <rect x="-44" y="-48" width="88" height="96" rx="10" fill="#1E0A14" stroke="#E63946" stroke-width="1.4" stroke-opacity="0.7">
      <animate attributeName="stroke-opacity" values="0.45;0.85;0.45" dur="3.6s" repeatCount="indefinite"/>
    </rect>
    <text x="0" y="-26" text-anchor="middle" font-family="Inter, Helvetica, Arial, sans-serif" font-size="9" font-weight="700" letter-spacing="1.2" fill="#F87171">CATEGORIES</text>
    <text x="0" y="12" text-anchor="middle" font-family="Inter, Helvetica, Arial, sans-serif" font-size="30" font-weight="900" fill="#F5F7FA">16</text>
    <text x="0" y="32" text-anchor="middle" font-family="Inter, Helvetica, Arial, sans-serif" font-size="9" font-weight="600" fill="#FBB6BD">control</text>
    <line x1="-32" y1="38" x2="32" y2="38" stroke="#E63946" stroke-width="0.6" stroke-opacity="0.45"/>
    <circle cx="0" cy="-40" r="1.6" fill="#FCA5A5"><animate attributeName="opacity" values="0.3;1;0.3" dur="1.8s" repeatCount="indefinite"/></circle>
  </g>
  <g transform="translate(990,105)" filter="url(#softShadow)">
    <rect x="-80" y="-65" width="180" height="125" rx="14" fill="#1E0A14" stroke="#E63946" stroke-width="2.2"/>
    <text x="10" y="-38" text-anchor="middle" font-family="Inter, Helvetica, Arial, sans-serif" font-size="13" font-weight="700" letter-spacing="2" fill="#F87171">CONTROLS</text>
    <text x="10" y="22" text-anchor="middle" font-family="Inter, Helvetica, Arial, sans-serif" font-size="72" font-weight="900" fill="#F5F7FA">101</text>
    <text x="10" y="44" text-anchor="middle" font-family="Inter, Helvetica, Arial, sans-serif" font-size="11" font-weight="600" fill="#FBB6BD">ISMS-P 2025</text>
    <line x1="-58" y1="50" x2="78" y2="50" stroke="#E63946" stroke-width="0.8" stroke-opacity="0.5"/>
    
  </g>
  <g transform="translate(990,105)">
    <circle cx="10" cy="-50" r="3" fill="#E63946"><animate attributeName="opacity" values="0.2;1;0.2" dur="1.8s" repeatCount="indefinite"/></circle>
    <circle cx="-58" cy="-50" r="2" fill="#FCA5A5"><animate attributeName="opacity" values="0.8;0.2;0.8" dur="2.2s" repeatCount="indefinite"/></circle>
    <circle cx="78" cy="-50" r="2" fill="#FCA5A5"><animate attributeName="opacity" values="0.2;0.9;0.2" dur="2.4s" repeatCount="indefinite"/></circle>
    <rect x="-78" y="-62" width="14" height="2" rx="1" fill="#E63946" opacity="0.7"><animate attributeName="opacity" values="0.3;1;0.3" dur="1.6s" repeatCount="indefinite"/></rect>
    <rect x="-78" y="-58" width="9" height="2" rx="1" fill="#FCA5A5" opacity="0.5"><animate attributeName="opacity" values="0.2;0.8;0.2" dur="1.9s" repeatCount="indefinite"/></rect>
    <rect x="62" y="-62" width="14" height="2" rx="1" fill="#E63946" opacity="0.7"><animate attributeName="opacity" values="0.3;1;0.3" dur="1.7s" begin="0.5s" repeatCount="indefinite"/></rect>
    <rect x="65" y="-58" width="9" height="2" rx="1" fill="#FCA5A5" opacity="0.5"><animate attributeName="opacity" values="0.2;0.8;0.2" dur="2.1s" begin="0.3s" repeatCount="indefinite"/></rect>
  </g>
  <g opacity="0.85">
    <line x1="20" y1="210" x2="1180" y2="210" stroke="#E63946" stroke-width="0.7" stroke-opacity="0.55" stroke-dasharray="6 6">
      <animate attributeName="stroke-dashoffset" values="0;-24" dur="3s" repeatCount="indefinite"/>
    </line>
    <circle cx="600" cy="210" r="2.2" fill="#E63946">
      <animate attributeName="opacity" values="0.25;1;0.25" dur="2.2s" repeatCount="indefinite"/>
    </circle>
  </g>
</g>
<g>
  <rect x="0" y="210" width="1200" height="210" fill="url(#bandBi14)"/>
  <rect x="0" y="210" width="1200" height="210" fill="url(#ledgerGrid)" opacity="0.6"/>
  <rect x="0" y="210" width="8" height="210" fill="#60A5FA"/>
  
  <g filter="url(#textShadow)">
    <text x="30" y="254" font-family="Inter, Helvetica, Arial, sans-serif" font-size="18" font-weight="700" letter-spacing="2.4" fill="#93C5FD">AWS INTEGRATION</text>
    <text x="30" y="296" font-family="Inter, Helvetica, Arial, sans-serif" font-size="36" font-weight="800" fill="#F5F7FA">NIST CSF 2.0 · AWS</text>
    <text x="30" y="328" font-family="Inter, Helvetica, Arial, sans-serif" font-size="20" font-weight="600" fill="#BFDBFE">Control Tower · Config · Security Hub alignment</text>
    <text x="30" y="354" font-family="Inter, Helvetica, Arial, sans-serif" font-size="15" font-weight="500" fill="#D0DCF0">AWS service mapping to each ISMS-P control item</text>
    <text x="30" y="372" font-family="Inter, Helvetica, Arial, sans-serif" font-size="13" font-weight="700" fill="#BFDBFE">AWS Config rules · automated evidence collection</text><text x="30" y="388" font-family="Inter, Helvetica, Arial, sans-serif" font-size="12" font-weight="500" fill="#D0DCF0" fill-opacity="0.85">CloudTrail · VPC Flow Logs · GuardDuty integration</text>
    
  </g>
  <g transform="translate(690,315)">
    <circle r="80" fill="#60A5FA" fill-opacity="0.06"><animate attributeName="r" values="64;86;64" dur="3.4s" repeatCount="indefinite"/></circle>
    <path d="M-60 0 Q-70 -25 -45 -30 Q-40 -50 -10 -45 Q10 -60 30 -45 Q55 -50 60 -20 Q80 -15 70 10 Q65 25 40 25 L-40 25 Q-70 25 -60 0 Z" fill="#60A5FA" fill-opacity="0.12" stroke="#60A5FA" stroke-width="1.8"/>
    <g fill="#60A5FA" stroke="#93C5FD" stroke-width="1.2">
      <polygon points="-30,-10 -18,-17 -6,-10 -6,4 -18,11 -30,4"/>
      <polygon points="0,-10 12,-17 24,-10 24,4 12,11 0,4"/>
      <polygon points="-15,10 -3,3 9,10 9,24 -3,31 -15,24"/>
    </g>
    <g fill="#93C5FD">
      <circle cx="-18" cy="-3" r="2.4"><animate attributeName="opacity" values="0.4;1;0.4" dur="1.8s" repeatCount="indefinite"/></circle>
      <circle cx="12" cy="-3" r="2.4"><animate attributeName="opacity" values="0.4;1;0.4" dur="2.0s" repeatCount="indefinite"/></circle>
      <circle cx="-3" cy="17" r="2.4"><animate attributeName="opacity" values="0.4;1;0.4" dur="2.2s" repeatCount="indefinite"/></circle>
    </g>
    <g fill="#FFF">
      <circle r="1.6"><animateMotion path="M-18 -3 L12 -3" dur="2.4s" repeatCount="indefinite"/></circle>
      <circle r="1.6"><animateMotion path="M12 -3 L-3 17" dur="2.2s" repeatCount="indefinite"/></circle>
      <circle r="1.6"><animateMotion path="M-3 17 L-18 -3" dur="2.6s" repeatCount="indefinite"/></circle>
    </g>
    <g fill="#93C5FD" opacity="0.6">
      <circle cx="-50" cy="-38" r="1.8"><animate attributeName="opacity" values="0.3;1;0.3" dur="1.6s" repeatCount="indefinite"/></circle>
      <circle cx="50" cy="-38" r="1.8"><animate attributeName="opacity" values="0.3;1;0.3" dur="2.0s" repeatCount="indefinite"/></circle>
      <circle cx="-70" cy="-15" r="1.4"><animate attributeName="opacity" values="0.3;1;0.3" dur="1.8s" begin="0.3s" repeatCount="indefinite"/></circle>
      <circle cx="70" cy="-15" r="1.4"><animate attributeName="opacity" values="0.3;1;0.3" dur="2.1s" begin="0.6s" repeatCount="indefinite"/></circle>
      <circle cx="-60" cy="32" r="1.4"><animate attributeName="opacity" values="0.3;1;0.3" dur="2.3s" begin="0.9s" repeatCount="indefinite"/></circle>
      <circle cx="60" cy="32" r="1.4"><animate attributeName="opacity" values="0.3;1;0.3" dur="1.9s" begin="1.2s" repeatCount="indefinite"/></circle>
    </g>
    <g stroke="#60A5FA" stroke-width="0.4" stroke-opacity="0.4" fill="none">
      <line x1="-90" y1="-58" x2="-78" y2="-58"><animate attributeName="stroke-opacity" values="0;0.7;0" dur="1.8s" repeatCount="indefinite"/></line>
      <line x1="78" y1="-58" x2="90" y2="-58"><animate attributeName="stroke-opacity" values="0;0.7;0" dur="2.1s" begin="0.4s" repeatCount="indefinite"/></line>
    </g>
    <text x="-86" y="-58" text-anchor="start" font-family="Inter, monospace" font-size="8" font-weight="700" fill="#93C5FD" opacity="0.7">3 pods</text>
    <text x="86" y="-58" text-anchor="end" font-family="Inter, monospace" font-size="8" font-weight="700" fill="#93C5FD" opacity="0.7">healthy</text>
    <text y="60" text-anchor="middle" font-family="Inter, monospace" font-size="10" font-weight="800" fill="#60A5FA">K8s CLOUD</text>
    <text y="74" text-anchor="middle" font-family="Inter, monospace" font-size="9" font-weight="700" fill="#93C5FD" opacity="0.7">3 nodes : workload identity</text>
  </g>
  <g transform="translate(870,315)" filter="url(#softShadow)">
    <rect x="-50" y="-48" width="100" height="96" rx="10" fill="#0A1628" stroke="#60A5FA" stroke-width="1.6" stroke-opacity="0.75"/>
    <text x="0" y="-26" text-anchor="middle" font-family="Inter, Helvetica, Arial, sans-serif" font-size="10" font-weight="700" letter-spacing="1.4" fill="#93C5FD">SECURITY HUB</text>
    <text x="0" y="14" text-anchor="middle" font-family="Inter, Helvetica, Arial, sans-serif" font-size="34" font-weight="900" fill="#F5F7FA">SH</text>
    <text x="0" y="34" text-anchor="middle" font-family="Inter, Helvetica, Arial, sans-serif" font-size="10" font-weight="600" fill="#BFDBFE">findings</text>
  </g>
  <g transform="translate(1110,315)" filter="url(#softShadow)">
    <rect x="-44" y="-48" width="88" height="96" rx="10" fill="#0A1628" stroke="#60A5FA" stroke-width="1.4" stroke-opacity="0.7">
      <animate attributeName="stroke-opacity" values="0.45;0.85;0.45" dur="3.6s" repeatCount="indefinite"/>
    </rect>
    <text x="0" y="-26" text-anchor="middle" font-family="Inter, Helvetica, Arial, sans-serif" font-size="9" font-weight="700" letter-spacing="1.2" fill="#93C5FD">CONTROL</text>
    <text x="0" y="12" text-anchor="middle" font-family="Inter, Helvetica, Arial, sans-serif" font-size="30" font-weight="900" fill="#F5F7FA">CT</text>
    <text x="0" y="32" text-anchor="middle" font-family="Inter, Helvetica, Arial, sans-serif" font-size="9" font-weight="600" fill="#BFDBFE">Tower</text>
    <line x1="-32" y1="38" x2="32" y2="38" stroke="#60A5FA" stroke-width="0.6" stroke-opacity="0.45"/>
    <circle cx="0" cy="-40" r="1.6" fill="#93C5FD"><animate attributeName="opacity" values="0.3;1;0.3" dur="1.8s" repeatCount="indefinite"/></circle>
  </g>
  <g transform="translate(990,315)" filter="url(#softShadow)">
    <rect x="-80" y="-65" width="180" height="125" rx="14" fill="#0A1628" stroke="#60A5FA" stroke-width="2.2"/>
    <text x="10" y="-38" text-anchor="middle" font-family="Inter, Helvetica, Arial, sans-serif" font-size="13" font-weight="700" letter-spacing="2" fill="#93C5FD">NIST 2.0</text>
    <text x="10" y="22" text-anchor="middle" font-family="Inter, Helvetica, Arial, sans-serif" font-size="72" font-weight="900" fill="#F5F7FA">CSF</text>
    <text x="10" y="44" text-anchor="middle" font-family="Inter, Helvetica, Arial, sans-serif" font-size="11" font-weight="600" fill="#BFDBFE">mapped</text>
    <line x1="-58" y1="50" x2="78" y2="50" stroke="#60A5FA" stroke-width="0.8" stroke-opacity="0.5"/>
    
  </g>
  <g transform="translate(990,315)">
    <circle cx="10" cy="-50" r="3" fill="#60A5FA"><animate attributeName="opacity" values="0.2;1;0.2" dur="1.8s" repeatCount="indefinite"/></circle>
    <circle cx="-58" cy="-50" r="2" fill="#93C5FD"><animate attributeName="opacity" values="0.8;0.2;0.8" dur="2.2s" repeatCount="indefinite"/></circle>
    <circle cx="78" cy="-50" r="2" fill="#93C5FD"><animate attributeName="opacity" values="0.2;0.9;0.2" dur="2.4s" repeatCount="indefinite"/></circle>
    <rect x="-78" y="-62" width="14" height="2" rx="1" fill="#60A5FA" opacity="0.7"><animate attributeName="opacity" values="0.3;1;0.3" dur="1.6s" repeatCount="indefinite"/></rect>
    <rect x="-78" y="-58" width="9" height="2" rx="1" fill="#93C5FD" opacity="0.5"><animate attributeName="opacity" values="0.2;0.8;0.2" dur="1.9s" repeatCount="indefinite"/></rect>
    <rect x="62" y="-62" width="14" height="2" rx="1" fill="#60A5FA" opacity="0.7"><animate attributeName="opacity" values="0.3;1;0.3" dur="1.7s" begin="0.5s" repeatCount="indefinite"/></rect>
    <rect x="65" y="-58" width="9" height="2" rx="1" fill="#93C5FD" opacity="0.5"><animate attributeName="opacity" values="0.2;0.8;0.2" dur="2.1s" begin="0.3s" repeatCount="indefinite"/></rect>
  </g>
  <g opacity="0.85">
    <line x1="20" y1="420" x2="1180" y2="420" stroke="#60A5FA" stroke-width="0.7" stroke-opacity="0.55" stroke-dasharray="6 6">
      <animate attributeName="stroke-dashoffset" values="0;-24" dur="3s" repeatCount="indefinite"/>
    </line>
    <circle cx="600" cy="420" r="2.2" fill="#60A5FA">
      <animate attributeName="opacity" values="0.25;1;0.25" dur="2.2s" repeatCount="indefinite"/>
    </circle>
  </g>
</g>
<g>
  <rect x="0" y="420" width="1200" height="210" fill="url(#bandCi14)"/>
  <rect x="0" y="420" width="1200" height="210" fill="url(#ledgerGrid)" opacity="0.6"/>
  <rect x="0" y="420" width="8" height="210" fill="#FFB703"/>
  
  <g filter="url(#textShadow)">
    <text x="30" y="464" font-family="Inter, Helvetica, Arial, sans-serif" font-size="18" font-weight="700" letter-spacing="2.4" fill="#FFB703">COMPLIANCE ROADMAP</text>
    <text x="30" y="506" font-family="Inter, Helvetica, Arial, sans-serif" font-size="36" font-weight="800" fill="#F5F7FA">AI Security · CIS</text>
    <text x="30" y="538" font-family="Inter, Helvetica, Arial, sans-serif" font-size="20" font-weight="600" fill="#FFD58A">CIS Benchmark Level 2 · 190 controls mapped</text>
    <text x="30" y="564" font-family="Inter, Helvetica, Arial, sans-serif" font-size="15" font-weight="500" fill="#E0D5B6">Gap analysis → remediation → certification timeline</text>
    <text x="30" y="582" font-family="Inter, Helvetica, Arial, sans-serif" font-size="13" font-weight="700" fill="#FFD58A">Personal data management · consent lifecycle</text><text x="30" y="598" font-family="Inter, Helvetica, Arial, sans-serif" font-size="12" font-weight="500" fill="#E0D5B6" fill-opacity="0.85">PIPA compliance · data flow mapping · DPO role</text>
    
  </g>
  <g transform="translate(690,525)">
    <g stroke="#FFB703" stroke-width="0.4" stroke-opacity="0.3">
      <line x1="-90" y1="-50" x2="100" y2="-50"/><line x1="-90" y1="-25" x2="100" y2="-25"/>
      <line x1="-90" y1="0" x2="100" y2="0"/><line x1="-90" y1="20" x2="100" y2="20"/>
    </g>
    <line x1="-85" y1="40" x2="100" y2="40" stroke="#FFB703" stroke-width="1" opacity="0.6"/>
    <rect x="-75" y="10" width="20" height="30" rx="2" fill="#FFB703" opacity="0.5"><animate attributeName="height" values="20;30;20" dur="1.6s" repeatCount="indefinite"/><animate attributeName="y" values="20;10;20" dur="1.6s" repeatCount="indefinite"/></rect><rect x="-47" y="-15" width="20" height="55" rx="2" fill="#FFB703" opacity="0.58"><animate attributeName="height" values="45;55;45" dur="1.8s" repeatCount="indefinite"/><animate attributeName="y" values="-5;-15;-5" dur="1.8s" repeatCount="indefinite"/></rect><rect x="-19" y="0" width="20" height="40" rx="2" fill="#FFB703" opacity="0.66"><animate attributeName="height" values="30;40;30" dur="2.0s" repeatCount="indefinite"/><animate attributeName="y" values="10;0;10" dur="2.0s" repeatCount="indefinite"/></rect><rect x="9" y="-30" width="20" height="70" rx="2" fill="#FFB703" opacity="0.74"><animate attributeName="height" values="60;70;60" dur="2.2s" repeatCount="indefinite"/><animate attributeName="y" values="-20;-30;-20" dur="2.2s" repeatCount="indefinite"/></rect><rect x="37" y="-45" width="20" height="85" rx="2" fill="#FFB703" opacity="0.8200000000000001"><animate attributeName="height" values="75;85;75" dur="2.4000000000000004s" repeatCount="indefinite"/><animate attributeName="y" values="-35;-45;-35" dur="2.4000000000000004s" repeatCount="indefinite"/></rect><rect x="65" y="-22" width="20" height="62" rx="2" fill="#FFB703" opacity="0.9"><animate attributeName="height" values="52;62;52" dur="2.6s" repeatCount="indefinite"/><animate attributeName="y" values="-12;-22;-12" dur="2.6s" repeatCount="indefinite"/></rect>
    <path d="M-78 -8 L-50 -22 L-22 -18 L6 -38 L34 -52 L62 -64" stroke="#FCD34D" stroke-width="1.6" fill="none" stroke-opacity="0.7" stroke-dasharray="3 3">
      <animate attributeName="stroke-dashoffset" values="0;-12" dur="1.6s" repeatCount="indefinite"/>
    </path>
    <polygon points="62,-64 70,-58 64,-50" fill="#FCD34D"/>
    <g fill="#FCD34D" opacity="0.75">
      <circle cx="-90" cy="-50" r="1.5"/><circle cx="-90" cy="-25" r="1.5"/><circle cx="-90" cy="0" r="1.5"/>
    </g>
    <g fill="#FFB703" opacity="0.7">
      <rect x="-95" y="-58" width="6" height="2" rx="1"><animate attributeName="opacity" values="0.3;1;0.3" dur="1.5s" repeatCount="indefinite"/></rect>
      <rect x="-85" y="-58" width="6" height="2" rx="1"><animate attributeName="opacity" values="0.3;1;0.3" dur="1.7s" begin="0.2s" repeatCount="indefinite"/></rect>
      <rect x="-75" y="-58" width="6" height="2" rx="1"><animate attributeName="opacity" values="0.3;1;0.3" dur="1.9s" begin="0.4s" repeatCount="indefinite"/></rect>
    </g>
    <g fill="#FCD34D" opacity="0.65">
      <circle cx="100" cy="-50" r="1.4"><animate attributeName="opacity" values="0.3;1;0.3" dur="1.6s" repeatCount="indefinite"/></circle>
      <circle cx="100" cy="-25" r="1.4"><animate attributeName="opacity" values="0.3;1;0.3" dur="1.9s" begin="0.4s" repeatCount="indefinite"/></circle>
      <circle cx="100" cy="0" r="1.4"><animate attributeName="opacity" values="0.3;1;0.3" dur="2.1s" begin="0.7s" repeatCount="indefinite"/></circle>
      <circle cx="100" cy="20" r="1.4"><animate attributeName="opacity" values="0.3;1;0.3" dur="1.7s" begin="0.5s" repeatCount="indefinite"/></circle>
    </g>
    <g stroke="#FFB703" stroke-width="0.4" stroke-opacity="0.4" fill="none">
      <line x1="-90" y1="48" x2="100" y2="48"><animate attributeName="stroke-opacity" values="0.2;0.6;0.2" dur="2s" repeatCount="indefinite"/></line>
    </g>
    <text x="-90" y="-56" text-anchor="start" font-family="Inter, monospace" font-size="8" font-weight="700" fill="#FFB703" opacity="0.7">peak</text>
    <text x="100" y="-56" text-anchor="end" font-family="Inter, monospace" font-size="8" font-weight="700" fill="#FFB703" opacity="0.7">+24%</text>
    <text y="58" text-anchor="middle" font-family="Inter, monospace" font-size="10" font-weight="800" fill="#FCD34D">GAPS</text>
    <text y="72" text-anchor="middle" font-family="Inter, monospace" font-size="9" font-weight="700" fill="#FCD34D" opacity="0.7">6 buckets : qoq trend</text>
  </g>
  <g transform="translate(870,525)" filter="url(#softShadow)">
    <rect x="-50" y="-48" width="100" height="96" rx="10" fill="#1E1805" stroke="#FFB703" stroke-width="1.6" stroke-opacity="0.75"/>
    <text x="0" y="-26" text-anchor="middle" font-family="Inter, Helvetica, Arial, sans-serif" font-size="10" font-weight="700" letter-spacing="1.4" fill="#FFB703">CIS BENCH</text>
    <text x="0" y="14" text-anchor="middle" font-family="Inter, Helvetica, Arial, sans-serif" font-size="34" font-weight="900" fill="#F5F7FA">L2</text>
    <text x="0" y="34" text-anchor="middle" font-family="Inter, Helvetica, Arial, sans-serif" font-size="10" font-weight="600" fill="#FFD58A">Level 2</text>
  </g>
  <g transform="translate(1110,525)" filter="url(#softShadow)">
    <rect x="-44" y="-48" width="88" height="96" rx="10" fill="#1E1805" stroke="#FFB703" stroke-width="1.4" stroke-opacity="0.7">
      <animate attributeName="stroke-opacity" values="0.45;0.85;0.45" dur="3.6s" repeatCount="indefinite"/>
    </rect>
    <text x="0" y="-26" text-anchor="middle" font-family="Inter, Helvetica, Arial, sans-serif" font-size="9" font-weight="700" letter-spacing="1.2" fill="#FFB703">CERT PREP</text>
    <text x="0" y="12" text-anchor="middle" font-family="Inter, Helvetica, Arial, sans-serif" font-size="30" font-weight="900" fill="#F5F7FA">12W</text>
    <text x="0" y="32" text-anchor="middle" font-family="Inter, Helvetica, Arial, sans-serif" font-size="9" font-weight="600" fill="#FFD58A">timeline</text>
    <line x1="-32" y1="38" x2="32" y2="38" stroke="#FFB703" stroke-width="0.6" stroke-opacity="0.45"/>
    <circle cx="0" cy="-40" r="1.6" fill="#FCD34D"><animate attributeName="opacity" values="0.3;1;0.3" dur="1.8s" repeatCount="indefinite"/></circle>
  </g>
  <g transform="translate(990,525)" filter="url(#softShadow)">
    <rect x="-80" y="-65" width="180" height="125" rx="14" fill="#1E1805" stroke="#FFB703" stroke-width="2.2"/>
    <text x="10" y="-38" text-anchor="middle" font-family="Inter, Helvetica, Arial, sans-serif" font-size="13" font-weight="700" letter-spacing="2" fill="#FFB703">SECURITY</text>
    <text x="10" y="22" text-anchor="middle" font-family="Inter, Helvetica, Arial, sans-serif" font-size="72" font-weight="900" fill="#F5F7FA">AI</text>
    <text x="10" y="44" text-anchor="middle" font-family="Inter, Helvetica, Arial, sans-serif" font-size="11" font-weight="600" fill="#FFD58A">items</text>
    <line x1="-58" y1="50" x2="78" y2="50" stroke="#FFB703" stroke-width="0.8" stroke-opacity="0.5"/>
    
  </g>
  <g transform="translate(990,525)">
    <circle cx="10" cy="-50" r="3" fill="#FFB703"><animate attributeName="opacity" values="0.2;1;0.2" dur="1.8s" repeatCount="indefinite"/></circle>
    <circle cx="-58" cy="-50" r="2" fill="#FCD34D"><animate attributeName="opacity" values="0.8;0.2;0.8" dur="2.2s" repeatCount="indefinite"/></circle>
    <circle cx="78" cy="-50" r="2" fill="#FCD34D"><animate attributeName="opacity" values="0.2;0.9;0.2" dur="2.4s" repeatCount="indefinite"/></circle>
    <rect x="-78" y="-62" width="14" height="2" rx="1" fill="#FFB703" opacity="0.7"><animate attributeName="opacity" values="0.3;1;0.3" dur="1.6s" repeatCount="indefinite"/></rect>
    <rect x="-78" y="-58" width="9" height="2" rx="1" fill="#FCD34D" opacity="0.5"><animate attributeName="opacity" values="0.2;0.8;0.2" dur="1.9s" repeatCount="indefinite"/></rect>
    <rect x="62" y="-62" width="14" height="2" rx="1" fill="#FFB703" opacity="0.7"><animate attributeName="opacity" values="0.3;1;0.3" dur="1.7s" begin="0.5s" repeatCount="indefinite"/></rect>
    <rect x="65" y="-58" width="9" height="2" rx="1" fill="#FCD34D" opacity="0.5"><animate attributeName="opacity" values="0.2;0.8;0.2" dur="2.1s" begin="0.3s" repeatCount="indefinite"/></rect>
  </g>
  
</g>
<g opacity="0.9">
  <g fill="#E63946">
    <circle cx="240" cy="63" r="1.5"><animate attributeName="opacity" values="0;1;0" dur="1.8s" repeatCount="indefinite"/></circle>
    <circle cx="290" cy="63" r="1.5"><animate attributeName="opacity" values="0;1;0" dur="1.6s" begin="0.2s" repeatCount="indefinite"/></circle>
    <circle cx="340" cy="63" r="1.5"><animate attributeName="opacity" values="0;1;0" dur="2.0s" begin="0.4s" repeatCount="indefinite"/></circle>
    <circle cx="390" cy="63" r="1.5"><animate attributeName="opacity" values="0;1;0" dur="1.7s" begin="0.6s" repeatCount="indefinite"/></circle>
    <circle cx="440" cy="63" r="1.5"><animate attributeName="opacity" values="0;1;0" dur="1.9s" begin="0.8s" repeatCount="indefinite"/></circle>
    <circle cx="780" cy="55" r="1.4"><animate attributeName="opacity" values="0;1;0" dur="1.6s" repeatCount="indefinite"/></circle>
    <circle cx="820" cy="55" r="1.4"><animate attributeName="opacity" values="0;1;0" dur="2.0s" begin="0.3s" repeatCount="indefinite"/></circle>
    <circle cx="860" cy="55" r="1.4"><animate attributeName="opacity" values="0;1;0" dur="1.8s" begin="0.6s" repeatCount="indefinite"/></circle>
    <circle cx="240" cy="147" r="1.3"><animate attributeName="opacity" values="0;1;0" dur="1.7s" begin="0.4s" repeatCount="indefinite"/></circle>
    <circle cx="320" cy="147" r="1.3"><animate attributeName="opacity" values="0;1;0" dur="1.9s" begin="0.7s" repeatCount="indefinite"/></circle>
    <circle cx="180" cy="35" r="1.3"><animate attributeName="opacity" values="0;1;0" dur="2.1s" begin="0.5s" repeatCount="indefinite"/></circle>
    <circle cx="180" cy="175" r="1.3"><animate attributeName="opacity" values="0;1;0" dur="1.8s" begin="0.9s" repeatCount="indefinite"/></circle>
    <circle cx="660" cy="27" r="1.2"><animate attributeName="opacity" values="0;1;0" dur="1.6s" begin="1.1s" repeatCount="indefinite"/></circle>
    <circle cx="900" cy="81" r="1.2"><animate attributeName="opacity" values="0;1;0" dur="2.3s" begin="0.2s" repeatCount="indefinite"/></circle>
    <circle cx="900" cy="129" r="1.2"><animate attributeName="opacity" values="0;1;0" dur="2.0s" begin="0.6s" repeatCount="indefinite"/></circle>
  </g>
  <g fill="#E63946" opacity="0.6">
    <rect x="780" y="27" width="6" height="2"><animate attributeName="opacity" values="0.2;1;0.2" dur="1.4s" repeatCount="indefinite"/></rect>
    <rect x="800" y="27" width="6" height="2"><animate attributeName="opacity" values="0.2;1;0.2" dur="1.2s" begin="0.3s" repeatCount="indefinite"/></rect>
    <rect x="820" y="27" width="6" height="2"><animate attributeName="opacity" values="0.2;1;0.2" dur="1.6s" begin="0.6s" repeatCount="indefinite"/></rect>
    <rect x="840" y="27" width="6" height="2"><animate attributeName="opacity" values="0.2;1;0.2" dur="1.3s" begin="0.9s" repeatCount="indefinite"/></rect>
  </g>
  <g fill="#FCA5A5" opacity="0.85">
    <rect x="730" y="165" width="3" height="3" rx="0.6"><animate attributeName="opacity" values="0.3;1;0.3" dur="1.4s" repeatCount="indefinite"/></rect>
    <rect x="746" y="165" width="3" height="3" rx="0.6"><animate attributeName="opacity" values="0.3;1;0.3" dur="1.2s" begin="0.3s" repeatCount="indefinite"/></rect>
    <rect x="762" y="165" width="3" height="3" rx="0.6"><animate attributeName="opacity" values="0.3;1;0.3" dur="1.6s" begin="0.6s" repeatCount="indefinite"/></rect>
  </g>
  <g stroke="#E63946" stroke-width="0.5" stroke-opacity="0.35" fill="none">
    <path d="M20 95 L28 95"><animate attributeName="stroke-opacity" values="0;0.7;0" dur="2s" repeatCount="indefinite"/></path>
    <path d="M20 125 L28 125"><animate attributeName="stroke-opacity" values="0;0.7;0" dur="2.2s" begin="0.3s" repeatCount="indefinite"/></path>
    <path d="M20 155 L28 155"><animate attributeName="stroke-opacity" values="0;0.7;0" dur="1.8s" begin="0.6s" repeatCount="indefinite"/></path>
    <path d="M20 185 L28 185"><animate attributeName="stroke-opacity" values="0;0.7;0" dur="2.4s" begin="0.9s" repeatCount="indefinite"/></path>
    <path d="M1180 95 L1172 95"><animate attributeName="stroke-opacity" values="0;0.7;0" dur="2.1s" begin="0.2s" repeatCount="indefinite"/></path>
    <path d="M1180 125 L1172 125"><animate attributeName="stroke-opacity" values="0;0.7;0" dur="1.9s" begin="0.5s" repeatCount="indefinite"/></path>
    <path d="M1180 155 L1172 155"><animate attributeName="stroke-opacity" values="0;0.7;0" dur="2.3s" begin="0.8s" repeatCount="indefinite"/></path>
    <path d="M1180 185 L1172 185"><animate attributeName="stroke-opacity" values="0;0.7;0" dur="1.7s" begin="1.1s" repeatCount="indefinite"/></path>
  </g>
  <g stroke="#FCA5A5" stroke-width="0.6" stroke-opacity="0.3" fill="none">
    <circle cx="500" cy="105" r="100"><animate attributeName="r" values="80;120;80" dur="4s" repeatCount="indefinite"/><animate attributeName="stroke-opacity" values="0.4;0;0.4" dur="4s" repeatCount="indefinite"/></circle>
    <circle cx="500" cy="105" r="60" stroke-dasharray="2 4"><animate attributeName="r" values="40;80;40" dur="3.4s" repeatCount="indefinite"/><animate attributeName="stroke-opacity" values="0.4;0;0.4" dur="3.4s" repeatCount="indefinite"/></circle>
  </g>
  <g fill="#E63946" opacity="0.55">
    <rect x="120" y="15" width="40" height="1.6"><animate attributeName="x" values="120;640;120" dur="6s" repeatCount="indefinite"/><animate attributeName="opacity" values="0.1;0.6;0.1" dur="6s" repeatCount="indefinite"/></rect>
    <rect x="640" y="195" width="40" height="1.6"><animate attributeName="x" values="640;120;640" dur="6.5s" repeatCount="indefinite"/><animate attributeName="opacity" values="0.1;0.6;0.1" dur="6.5s" repeatCount="indefinite"/></rect>
  </g>
  <g fill="#60A5FA">
    <circle cx="240" cy="273" r="1.5"><animate attributeName="opacity" values="0;1;0" dur="1.8s" repeatCount="indefinite"/></circle>
    <circle cx="290" cy="273" r="1.5"><animate attributeName="opacity" values="0;1;0" dur="1.6s" begin="0.2s" repeatCount="indefinite"/></circle>
    <circle cx="340" cy="273" r="1.5"><animate attributeName="opacity" values="0;1;0" dur="2.0s" begin="0.4s" repeatCount="indefinite"/></circle>
    <circle cx="390" cy="273" r="1.5"><animate attributeName="opacity" values="0;1;0" dur="1.7s" begin="0.6s" repeatCount="indefinite"/></circle>
    <circle cx="440" cy="273" r="1.5"><animate attributeName="opacity" values="0;1;0" dur="1.9s" begin="0.8s" repeatCount="indefinite"/></circle>
    <circle cx="780" cy="265" r="1.4"><animate attributeName="opacity" values="0;1;0" dur="1.6s" repeatCount="indefinite"/></circle>
    <circle cx="820" cy="265" r="1.4"><animate attributeName="opacity" values="0;1;0" dur="2.0s" begin="0.3s" repeatCount="indefinite"/></circle>
    <circle cx="860" cy="265" r="1.4"><animate attributeName="opacity" values="0;1;0" dur="1.8s" begin="0.6s" repeatCount="indefinite"/></circle>
    <circle cx="240" cy="357" r="1.3"><animate attributeName="opacity" values="0;1;0" dur="1.7s" begin="0.4s" repeatCount="indefinite"/></circle>
    <circle cx="320" cy="357" r="1.3"><animate attributeName="opacity" values="0;1;0" dur="1.9s" begin="0.7s" repeatCount="indefinite"/></circle>
    <circle cx="180" cy="245" r="1.3"><animate attributeName="opacity" values="0;1;0" dur="2.1s" begin="0.5s" repeatCount="indefinite"/></circle>
    <circle cx="180" cy="385" r="1.3"><animate attributeName="opacity" values="0;1;0" dur="1.8s" begin="0.9s" repeatCount="indefinite"/></circle>
    <circle cx="660" cy="237" r="1.2"><animate attributeName="opacity" values="0;1;0" dur="1.6s" begin="1.1s" repeatCount="indefinite"/></circle>
    <circle cx="900" cy="291" r="1.2"><animate attributeName="opacity" values="0;1;0" dur="2.3s" begin="0.2s" repeatCount="indefinite"/></circle>
    <circle cx="900" cy="339" r="1.2"><animate attributeName="opacity" values="0;1;0" dur="2.0s" begin="0.6s" repeatCount="indefinite"/></circle>
  </g>
  <g fill="#60A5FA" opacity="0.6">
    <rect x="780" y="237" width="6" height="2"><animate attributeName="opacity" values="0.2;1;0.2" dur="1.4s" repeatCount="indefinite"/></rect>
    <rect x="800" y="237" width="6" height="2"><animate attributeName="opacity" values="0.2;1;0.2" dur="1.2s" begin="0.3s" repeatCount="indefinite"/></rect>
    <rect x="820" y="237" width="6" height="2"><animate attributeName="opacity" values="0.2;1;0.2" dur="1.6s" begin="0.6s" repeatCount="indefinite"/></rect>
    <rect x="840" y="237" width="6" height="2"><animate attributeName="opacity" values="0.2;1;0.2" dur="1.3s" begin="0.9s" repeatCount="indefinite"/></rect>
  </g>
  <g fill="#93C5FD" opacity="0.85">
    <rect x="730" y="375" width="3" height="3" rx="0.6"><animate attributeName="opacity" values="0.3;1;0.3" dur="1.4s" repeatCount="indefinite"/></rect>
    <rect x="746" y="375" width="3" height="3" rx="0.6"><animate attributeName="opacity" values="0.3;1;0.3" dur="1.2s" begin="0.3s" repeatCount="indefinite"/></rect>
    <rect x="762" y="375" width="3" height="3" rx="0.6"><animate attributeName="opacity" values="0.3;1;0.3" dur="1.6s" begin="0.6s" repeatCount="indefinite"/></rect>
  </g>
  <g stroke="#60A5FA" stroke-width="0.5" stroke-opacity="0.35" fill="none">
    <path d="M20 305 L28 305"><animate attributeName="stroke-opacity" values="0;0.7;0" dur="2s" repeatCount="indefinite"/></path>
    <path d="M20 335 L28 335"><animate attributeName="stroke-opacity" values="0;0.7;0" dur="2.2s" begin="0.3s" repeatCount="indefinite"/></path>
    <path d="M20 365 L28 365"><animate attributeName="stroke-opacity" values="0;0.7;0" dur="1.8s" begin="0.6s" repeatCount="indefinite"/></path>
    <path d="M20 395 L28 395"><animate attributeName="stroke-opacity" values="0;0.7;0" dur="2.4s" begin="0.9s" repeatCount="indefinite"/></path>
    <path d="M1180 305 L1172 305"><animate attributeName="stroke-opacity" values="0;0.7;0" dur="2.1s" begin="0.2s" repeatCount="indefinite"/></path>
    <path d="M1180 335 L1172 335"><animate attributeName="stroke-opacity" values="0;0.7;0" dur="1.9s" begin="0.5s" repeatCount="indefinite"/></path>
    <path d="M1180 365 L1172 365"><animate attributeName="stroke-opacity" values="0;0.7;0" dur="2.3s" begin="0.8s" repeatCount="indefinite"/></path>
    <path d="M1180 395 L1172 395"><animate attributeName="stroke-opacity" values="0;0.7;0" dur="1.7s" begin="1.1s" repeatCount="indefinite"/></path>
  </g>
  <g stroke="#93C5FD" stroke-width="0.6" stroke-opacity="0.3" fill="none">
    <circle cx="500" cy="315" r="100"><animate attributeName="r" values="80;120;80" dur="4s" repeatCount="indefinite"/><animate attributeName="stroke-opacity" values="0.4;0;0.4" dur="4s" repeatCount="indefinite"/></circle>
    <circle cx="500" cy="315" r="60" stroke-dasharray="2 4"><animate attributeName="r" values="40;80;40" dur="3.4s" repeatCount="indefinite"/><animate attributeName="stroke-opacity" values="0.4;0;0.4" dur="3.4s" repeatCount="indefinite"/></circle>
  </g>
  <g fill="#60A5FA" opacity="0.55">
    <rect x="120" y="225" width="40" height="1.6"><animate attributeName="x" values="120;640;120" dur="6s" repeatCount="indefinite"/><animate attributeName="opacity" values="0.1;0.6;0.1" dur="6s" repeatCount="indefinite"/></rect>
    <rect x="640" y="405" width="40" height="1.6"><animate attributeName="x" values="640;120;640" dur="6.5s" repeatCount="indefinite"/><animate attributeName="opacity" values="0.1;0.6;0.1" dur="6.5s" repeatCount="indefinite"/></rect>
  </g>
  <g fill="#FFB703">
    <circle cx="240" cy="483" r="1.5"><animate attributeName="opacity" values="0;1;0" dur="1.8s" repeatCount="indefinite"/></circle>
    <circle cx="290" cy="483" r="1.5"><animate attributeName="opacity" values="0;1;0" dur="1.6s" begin="0.2s" repeatCount="indefinite"/></circle>
    <circle cx="340" cy="483" r="1.5"><animate attributeName="opacity" values="0;1;0" dur="2.0s" begin="0.4s" repeatCount="indefinite"/></circle>
    <circle cx="390" cy="483" r="1.5"><animate attributeName="opacity" values="0;1;0" dur="1.7s" begin="0.6s" repeatCount="indefinite"/></circle>
    <circle cx="440" cy="483" r="1.5"><animate attributeName="opacity" values="0;1;0" dur="1.9s" begin="0.8s" repeatCount="indefinite"/></circle>
    <circle cx="780" cy="475" r="1.4"><animate attributeName="opacity" values="0;1;0" dur="1.6s" repeatCount="indefinite"/></circle>
    <circle cx="820" cy="475" r="1.4"><animate attributeName="opacity" values="0;1;0" dur="2.0s" begin="0.3s" repeatCount="indefinite"/></circle>
    <circle cx="860" cy="475" r="1.4"><animate attributeName="opacity" values="0;1;0" dur="1.8s" begin="0.6s" repeatCount="indefinite"/></circle>
    <circle cx="240" cy="567" r="1.3"><animate attributeName="opacity" values="0;1;0" dur="1.7s" begin="0.4s" repeatCount="indefinite"/></circle>
    <circle cx="320" cy="567" r="1.3"><animate attributeName="opacity" values="0;1;0" dur="1.9s" begin="0.7s" repeatCount="indefinite"/></circle>
    <circle cx="180" cy="455" r="1.3"><animate attributeName="opacity" values="0;1;0" dur="2.1s" begin="0.5s" repeatCount="indefinite"/></circle>
    <circle cx="180" cy="595" r="1.3"><animate attributeName="opacity" values="0;1;0" dur="1.8s" begin="0.9s" repeatCount="indefinite"/></circle>
    <circle cx="660" cy="447" r="1.2"><animate attributeName="opacity" values="0;1;0" dur="1.6s" begin="1.1s" repeatCount="indefinite"/></circle>
    <circle cx="900" cy="501" r="1.2"><animate attributeName="opacity" values="0;1;0" dur="2.3s" begin="0.2s" repeatCount="indefinite"/></circle>
    <circle cx="900" cy="549" r="1.2"><animate attributeName="opacity" values="0;1;0" dur="2.0s" begin="0.6s" repeatCount="indefinite"/></circle>
  </g>
  <g fill="#FFB703" opacity="0.6">
    <rect x="780" y="447" width="6" height="2"><animate attributeName="opacity" values="0.2;1;0.2" dur="1.4s" repeatCount="indefinite"/></rect>
    <rect x="800" y="447" width="6" height="2"><animate attributeName="opacity" values="0.2;1;0.2" dur="1.2s" begin="0.3s" repeatCount="indefinite"/></rect>
    <rect x="820" y="447" width="6" height="2"><animate attributeName="opacity" values="0.2;1;0.2" dur="1.6s" begin="0.6s" repeatCount="indefinite"/></rect>
    <rect x="840" y="447" width="6" height="2"><animate attributeName="opacity" values="0.2;1;0.2" dur="1.3s" begin="0.9s" repeatCount="indefinite"/></rect>
  </g>
  <g fill="#FCD34D" opacity="0.85">
    <rect x="730" y="585" width="3" height="3" rx="0.6"><animate attributeName="opacity" values="0.3;1;0.3" dur="1.4s" repeatCount="indefinite"/></rect>
    <rect x="746" y="585" width="3" height="3" rx="0.6"><animate attributeName="opacity" values="0.3;1;0.3" dur="1.2s" begin="0.3s" repeatCount="indefinite"/></rect>
    <rect x="762" y="585" width="3" height="3" rx="0.6"><animate attributeName="opacity" values="0.3;1;0.3" dur="1.6s" begin="0.6s" repeatCount="indefinite"/></rect>
  </g>
  <g stroke="#FFB703" stroke-width="0.5" stroke-opacity="0.35" fill="none">
    <path d="M20 515 L28 515"><animate attributeName="stroke-opacity" values="0;0.7;0" dur="2s" repeatCount="indefinite"/></path>
    <path d="M20 545 L28 545"><animate attributeName="stroke-opacity" values="0;0.7;0" dur="2.2s" begin="0.3s" repeatCount="indefinite"/></path>
    <path d="M20 575 L28 575"><animate attributeName="stroke-opacity" values="0;0.7;0" dur="1.8s" begin="0.6s" repeatCount="indefinite"/></path>
    <path d="M20 605 L28 605"><animate attributeName="stroke-opacity" values="0;0.7;0" dur="2.4s" begin="0.9s" repeatCount="indefinite"/></path>
    <path d="M1180 515 L1172 515"><animate attributeName="stroke-opacity" values="0;0.7;0" dur="2.1s" begin="0.2s" repeatCount="indefinite"/></path>
    <path d="M1180 545 L1172 545"><animate attributeName="stroke-opacity" values="0;0.7;0" dur="1.9s" begin="0.5s" repeatCount="indefinite"/></path>
    <path d="M1180 575 L1172 575"><animate attributeName="stroke-opacity" values="0;0.7;0" dur="2.3s" begin="0.8s" repeatCount="indefinite"/></path>
    <path d="M1180 605 L1172 605"><animate attributeName="stroke-opacity" values="0;0.7;0" dur="1.7s" begin="1.1s" repeatCount="indefinite"/></path>
  </g>
  <g stroke="#FCD34D" stroke-width="0.6" stroke-opacity="0.3" fill="none">
    <circle cx="500" cy="525" r="100"><animate attributeName="r" values="80;120;80" dur="4s" repeatCount="indefinite"/><animate attributeName="stroke-opacity" values="0.4;0;0.4" dur="4s" repeatCount="indefinite"/></circle>
    <circle cx="500" cy="525" r="60" stroke-dasharray="2 4"><animate attributeName="r" values="40;80;40" dur="3.4s" repeatCount="indefinite"/><animate attributeName="stroke-opacity" values="0.4;0;0.4" dur="3.4s" repeatCount="indefinite"/></circle>
  </g>
  <g fill="#FFB703" opacity="0.55">
    <rect x="120" y="435" width="40" height="1.6"><animate attributeName="x" values="120;640;120" dur="6s" repeatCount="indefinite"/><animate attributeName="opacity" values="0.1;0.6;0.1" dur="6s" repeatCount="indefinite"/></rect>
    <rect x="640" y="615" width="40" height="1.6"><animate attributeName="x" values="640;120;640" dur="6.5s" repeatCount="indefinite"/><animate attributeName="opacity" values="0.1;0.6;0.1" dur="6.5s" repeatCount="indefinite"/></rect>
  </g>
</g>
<g opacity="0.85">
  <g fill="#E63946" opacity="0.7">
    <circle cx="500" cy="60" r="1.4"><animate attributeName="opacity" values="0.2;1;0.2" dur="1.7s" repeatCount="indefinite"/></circle>
    <circle cx="540" cy="60" r="1.4"><animate attributeName="opacity" values="0.2;1;0.2" dur="2.0s" begin="0.3s" repeatCount="indefinite"/></circle>
    <circle cx="580" cy="60" r="1.4"><animate attributeName="opacity" values="0.2;1;0.2" dur="2.3s" begin="0.6s" repeatCount="indefinite"/></circle>
    <circle cx="620" cy="60" r="1.4"><animate attributeName="opacity" values="0.2;1;0.2" dur="1.8s" begin="0.9s" repeatCount="indefinite"/></circle>
    <circle cx="660" cy="60" r="1.4"><animate attributeName="opacity" values="0.2;1;0.2" dur="2.1s" begin="1.2s" repeatCount="indefinite"/></circle>
  </g>
  <g fill="#60A5FA" opacity="0.7">
    <circle cx="500" cy="270" r="1.4"><animate attributeName="opacity" values="0.2;1;0.2" dur="1.9s" repeatCount="indefinite"/></circle>
    <circle cx="540" cy="270" r="1.4"><animate attributeName="opacity" values="0.2;1;0.2" dur="2.2s" begin="0.4s" repeatCount="indefinite"/></circle>
    <circle cx="580" cy="270" r="1.4"><animate attributeName="opacity" values="0.2;1;0.2" dur="1.6s" begin="0.7s" repeatCount="indefinite"/></circle>
    <circle cx="620" cy="270" r="1.4"><animate attributeName="opacity" values="0.2;1;0.2" dur="2.0s" begin="1.0s" repeatCount="indefinite"/></circle>
  </g>
  <g fill="#FFB703" opacity="0.7">
    <circle cx="500" cy="480" r="1.4"><animate attributeName="opacity" values="0.2;1;0.2" dur="1.7s" repeatCount="indefinite"/></circle>
    <circle cx="540" cy="480" r="1.4"><animate attributeName="opacity" values="0.2;1;0.2" dur="2.1s" begin="0.5s" repeatCount="indefinite"/></circle>
    <circle cx="580" cy="480" r="1.4"><animate attributeName="opacity" values="0.2;1;0.2" dur="1.9s" begin="0.8s" repeatCount="indefinite"/></circle>
    <circle cx="620" cy="480" r="1.4"><animate attributeName="opacity" values="0.2;1;0.2" dur="2.4s" begin="1.1s" repeatCount="indefinite"/></circle>
  </g>
  <g stroke-width="0.5" stroke-opacity="0.4" fill="none">
    <rect x="700" y="40" width="36" height="2" fill="#E63946" stroke="none"><animate attributeName="x" values="700;1000;700" dur="6.4s" repeatCount="indefinite"/><animate attributeName="opacity" values="0.1;0.7;0.1" dur="6.4s" repeatCount="indefinite"/></rect>
    <rect x="700" y="250" width="36" height="2" fill="#60A5FA" stroke="none"><animate attributeName="x" values="1000;700;1000" dur="6.8s" repeatCount="indefinite"/><animate attributeName="opacity" values="0.1;0.7;0.1" dur="6.8s" repeatCount="indefinite"/></rect>
    <rect x="700" y="460" width="36" height="2" fill="#FFB703" stroke="none"><animate attributeName="x" values="700;1000;700" dur="7.2s" repeatCount="indefinite"/><animate attributeName="opacity" values="0.1;0.7;0.1" dur="7.2s" repeatCount="indefinite"/></rect>
  </g>
  <g fill="#FCA5A5" opacity="0.6">
    <circle cx="60" cy="60" r="1.6"><animate attributeName="opacity" values="0.2;0.9;0.2" dur="2.1s" repeatCount="indefinite"/></circle>
    <circle cx="60" cy="270" r="1.6"><animate attributeName="opacity" values="0.2;0.9;0.2" dur="2.4s" begin="0.5s" repeatCount="indefinite"/></circle>
    <circle cx="60" cy="480" r="1.6"><animate attributeName="opacity" values="0.2;0.9;0.2" dur="2.7s" begin="1.0s" repeatCount="indefinite"/></circle>
    <circle cx="1140" cy="60" r="1.6"><animate attributeName="opacity" values="0.2;0.9;0.2" dur="2.0s" begin="0.3s" repeatCount="indefinite"/></circle>
    <circle cx="1140" cy="480" r="1.6"><animate attributeName="opacity" values="0.2;0.9;0.2" dur="2.6s" begin="0.8s" repeatCount="indefinite"/></circle>
  </g>
  <g stroke="#93C5FD" stroke-width="0.4" stroke-opacity="0.4" fill="none">
    <line x1="640" y1="200" x2="640" y2="220"><animate attributeName="stroke-opacity" values="0;0.7;0" dur="2.1s" repeatCount="indefinite"/></line>
    <line x1="660" y1="200" x2="660" y2="220"><animate attributeName="stroke-opacity" values="0;0.7;0" dur="2.4s" begin="0.4s" repeatCount="indefinite"/></line>
    <line x1="640" y1="410" x2="640" y2="430"><animate attributeName="stroke-opacity" values="0;0.7;0" dur="2.0s" begin="0.7s" repeatCount="indefinite"/></line>
    <line x1="660" y1="410" x2="660" y2="430"><animate attributeName="stroke-opacity" values="0;0.7;0" dur="2.3s" begin="1.1s" repeatCount="indefinite"/></line>
  </g>
</g>
<g transform="translate(1080,504)" filter="url(#softShadow)">
  <rect x="-8" y="-8" width="100" height="100" rx="6" fill="#FFFFFF"/>
  <path fill="#0A1020" d="M0.0 0.0h10.316v1.474h-10.316z M11.789 0.0h1.474v1.474h-1.474z M17.684 0.0h1.474v1.474h-1.474z M20.632 0.0h2.947v1.474h-2.947z M30.947 0.0h5.895v1.474h-5.895z M38.316 0.0h7.368v1.474h-7.368z M48.632 0.0h1.474v1.474h-1.474z M51.579 0.0h7.368v1.474h-7.368z M61.895 0.0h2.947v1.474h-2.947z M67.789 0.0h2.947v1.474h-2.947z M73.684 0.0h10.316v1.474h-10.316z M0.0 1.474h1.474v1.474h-1.474z M8.842 1.474h1.474v1.474h-1.474z M14.737 1.474h8.842v1.474h-8.842z M28.0 1.474h2.947v1.474h-2.947z M33.895 1.474h1.474v1.474h-1.474z M36.842 1.474h1.474v1.474h-1.474z M39.789 1.474h4.421v1.474h-4.421z M45.684 1.474h2.947v1.474h-2.947z M50.105 1.474h4.421v1.474h-4.421z M56.0 1.474h1.474v1.474h-1.474z M60.421 1.474h1.474v1.474h-1.474z M63.368 1.474h4.421v1.474h-4.421z M69.263 1.474h1.474v1.474h-1.474z M73.684 1.474h1.474v1.474h-1.474z M82.526 1.474h1.474v1.474h-1.474z M0.0 2.947h1.474v1.474h-1.474z M2.947 2.947h4.421v1.474h-4.421z M8.842 2.947h1.474v1.474h-1.474z M13.263 2.947h5.895v1.474h-5.895z M20.632 2.947h2.947v1.474h-2.947z M25.053 2.947h2.947v1.474h-2.947z M33.895 2.947h1.474v1.474h-1.474z M36.842 2.947h2.947v1.474h-2.947z M42.737 2.947h1.474v1.474h-1.474z M50.105 2.947h1.474v1.474h-1.474z M53.053 2.947h1.474v1.474h-1.474z M57.474 2.947h1.474v1.474h-1.474z M60.421 2.947h10.316v1.474h-10.316z M73.684 2.947h1.474v1.474h-1.474z M76.632 2.947h4.421v1.474h-4.421z M82.526 2.947h1.474v1.474h-1.474z M0.0 4.421h1.474v1.474h-1.474z M2.947 4.421h4.421v1.474h-4.421z M8.842 4.421h1.474v1.474h-1.474z M11.789 4.421h1.474v1.474h-1.474z M14.737 4.421h1.474v1.474h-1.474z M19.158 4.421h5.895v1.474h-5.895z M32.421 4.421h1.474v1.474h-1.474z M35.368 4.421h2.947v1.474h-2.947z M41.263 4.421h1.474v1.474h-1.474z M44.211 4.421h7.368v1.474h-7.368z M54.526 4.421h1.474v1.474h-1.474z M58.947 4.421h1.474v1.474h-1.474z M63.368 4.421h1.474v1.474h-1.474z M69.263 4.421h1.474v1.474h-1.474z M73.684 4.421h1.474v1.474h-1.474z M76.632 4.421h4.421v1.474h-4.421z M82.526 4.421h1.474v1.474h-1.474z M0.0 5.895h1.474v1.474h-1.474z M2.947 5.895h4.421v1.474h-4.421z M8.842 5.895h1.474v1.474h-1.474z M11.789 5.895h1.474v1.474h-1.474z M14.737 5.895h5.895v1.474h-5.895z M23.579 5.895h1.474v1.474h-1.474z M26.526 5.895h1.474v1.474h-1.474z M29.474 5.895h2.947v1.474h-2.947z M33.895 5.895h13.263v1.474h-13.263z M48.632 5.895h1.474v1.474h-1.474z M51.579 5.895h2.947v1.474h-2.947z M56.0 5.895h1.474v1.474h-1.474z M58.947 5.895h5.895v1.474h-5.895z M66.316 5.895h1.474v1.474h-1.474z M69.263 5.895h1.474v1.474h-1.474z M73.684 5.895h1.474v1.474h-1.474z M76.632 5.895h4.421v1.474h-4.421z M82.526 5.895h1.474v1.474h-1.474z M0.0 7.368h1.474v1.474h-1.474z M8.842 7.368h1.474v1.474h-1.474z M11.789 7.368h4.421v1.474h-4.421z M19.158 7.368h2.947v1.474h-2.947z M23.579 7.368h4.421v1.474h-4.421z M29.474 7.368h7.368v1.474h-7.368z M38.316 7.368h1.474v1.474h-1.474z M44.211 7.368h1.474v1.474h-1.474z M50.105 7.368h5.895v1.474h-5.895z M57.474 7.368h2.947v1.474h-2.947z M63.368 7.368h5.895v1.474h-5.895z M73.684 7.368h1.474v1.474h-1.474z M82.526 7.368h1.474v1.474h-1.474z M0.0 8.842h10.316v1.474h-10.316z M11.789 8.842h1.474v1.474h-1.474z M14.737 8.842h1.474v1.474h-1.474z M17.684 8.842h1.474v1.474h-1.474z M20.632 8.842h1.474v1.474h-1.474z M23.579 8.842h1.474v1.474h-1.474z M26.526 8.842h1.474v1.474h-1.474z M29.474 8.842h1.474v1.474h-1.474z M32.421 8.842h1.474v1.474h-1.474z M35.368 8.842h1.474v1.474h-1.474z M38.316 8.842h1.474v1.474h-1.474z M41.263 8.842h1.474v1.474h-1.474z M44.211 8.842h1.474v1.474h-1.474z M47.158 8.842h1.474v1.474h-1.474z M50.105 8.842h1.474v1.474h-1.474z M53.053 8.842h1.474v1.474h-1.474z M56.0 8.842h1.474v1.474h-1.474z M58.947 8.842h1.474v1.474h-1.474z M61.895 8.842h1.474v1.474h-1.474z M64.842 8.842h1.474v1.474h-1.474z M67.789 8.842h1.474v1.474h-1.474z M70.737 8.842h1.474v1.474h-1.474z M73.684 8.842h10.316v1.474h-10.316z M11.789 10.316h2.947v1.474h-2.947z M17.684 10.316h2.947v1.474h-2.947z M23.579 10.316h2.947v1.474h-2.947z M30.947 10.316h1.474v1.474h-1.474z M35.368 10.316h4.421v1.474h-4.421z M44.211 10.316h1.474v1.474h-1.474z M47.158 10.316h7.368v1.474h-7.368z M57.474 10.316h1.474v1.474h-1.474z M64.842 10.316h1.474v1.474h-1.474z M67.789 10.316h2.947v1.474h-2.947z M0.0 11.789h1.474v1.474h-1.474z M5.895 11.789h1.474v1.474h-1.474z M8.842 11.789h4.421v1.474h-4.421z M17.684 11.789h1.474v1.474h-1.474z M25.053 11.789h10.316v1.474h-10.316z M36.842 11.789h8.842v1.474h-8.842z M47.158 11.789h2.947v1.474h-2.947z M51.579 11.789h2.947v1.474h-2.947z M57.474 11.789h1.474v1.474h-1.474z M60.421 11.789h2.947v1.474h-2.947z M64.842 11.789h1.474v1.474h-1.474z M72.211 11.789h7.368v1.474h-7.368z M82.526 11.789h1.474v1.474h-1.474z M5.895 13.263h2.947v1.474h-2.947z M11.789 13.263h4.421v1.474h-4.421z M19.158 13.263h1.474v1.474h-1.474z M25.053 13.263h1.474v1.474h-1.474z M28.0 13.263h2.947v1.474h-2.947z M33.895 13.263h5.895v1.474h-5.895z M42.737 13.263h2.947v1.474h-2.947z M51.579 13.263h1.474v1.474h-1.474z M54.526 13.263h2.947v1.474h-2.947z M58.947 13.263h5.895v1.474h-5.895z M66.316 13.263h1.474v1.474h-1.474z M69.263 13.263h2.947v1.474h-2.947z M73.684 13.263h2.947v1.474h-2.947z M78.105 13.263h2.947v1.474h-2.947z M1.474 14.737h1.474v1.474h-1.474z M4.421 14.737h1.474v1.474h-1.474z M8.842 14.737h2.947v1.474h-2.947z M14.737 14.737h1.474v1.474h-1.474z M17.684 14.737h1.474v1.474h-1.474z M20.632 14.737h1.474v1.474h-1.474z M25.053 14.737h8.842v1.474h-8.842z M35.368 14.737h2.947v1.474h-2.947z M41.263 14.737h7.368v1.474h-7.368z M50.105 14.737h2.947v1.474h-2.947z M56.0 14.737h1.474v1.474h-1.474z M58.947 14.737h8.842v1.474h-8.842z M69.263 14.737h5.895v1.474h-5.895z M76.632 14.737h1.474v1.474h-1.474z M0.0 16.211h5.895v1.474h-5.895z M7.368 16.211h1.474v1.474h-1.474z M11.789 16.211h2.947v1.474h-2.947z M17.684 16.211h1.474v1.474h-1.474z M23.579 16.211h1.474v1.474h-1.474z M29.474 16.211h1.474v1.474h-1.474z M32.421 16.211h1.474v1.474h-1.474z M35.368 16.211h2.947v1.474h-2.947z M39.789 16.211h2.947v1.474h-2.947z M44.211 16.211h1.474v1.474h-1.474z M47.158 16.211h1.474v1.474h-1.474z M51.579 16.211h1.474v1.474h-1.474z M56.0 16.211h1.474v1.474h-1.474z M58.947 16.211h4.421v1.474h-4.421z M64.842 16.211h5.895v1.474h-5.895z M72.211 16.211h2.947v1.474h-2.947z M81.053 16.211h2.947v1.474h-2.947z M0.0 17.684h1.474v1.474h-1.474z M4.421 17.684h5.895v1.474h-5.895z M11.789 17.684h1.474v1.474h-1.474z M22.105 17.684h1.474v1.474h-1.474z M28.0 17.684h1.474v1.474h-1.474z M33.895 17.684h2.947v1.474h-2.947z M39.789 17.684h2.947v1.474h-2.947z M47.158 17.684h5.895v1.474h-5.895z M56.0 17.684h2.947v1.474h-2.947z M61.895 17.684h1.474v1.474h-1.474z M64.842 17.684h2.947v1.474h-2.947z M69.263 17.684h2.947v1.474h-2.947z M73.684 17.684h2.947v1.474h-2.947z M78.105 17.684h1.474v1.474h-1.474z M0.0 19.158h4.421v1.474h-4.421z M5.895 19.158h1.474v1.474h-1.474z M10.316 19.158h1.474v1.474h-1.474z M13.263 19.158h1.474v1.474h-1.474z M19.158 19.158h1.474v1.474h-1.474z M23.579 19.158h8.842v1.474h-8.842z M35.368 19.158h4.421v1.474h-4.421z M41.263 19.158h4.421v1.474h-4.421z M47.158 19.158h2.947v1.474h-2.947z M56.0 19.158h2.947v1.474h-2.947z M60.421 19.158h2.947v1.474h-2.947z M64.842 19.158h1.474v1.474h-1.474z M69.263 19.158h2.947v1.474h-2.947z M73.684 19.158h8.842v1.474h-8.842z M1.474 20.632h10.316v1.474h-10.316z M14.737 20.632h5.895v1.474h-5.895z M23.579 20.632h2.947v1.474h-2.947z M28.0 20.632h5.895v1.474h-5.895z M36.842 20.632h1.474v1.474h-1.474z M42.737 20.632h2.947v1.474h-2.947z M48.632 20.632h1.474v1.474h-1.474z M53.053 20.632h4.421v1.474h-4.421z M61.895 20.632h4.421v1.474h-4.421z M73.684 20.632h1.474v1.474h-1.474z M76.632 20.632h2.947v1.474h-2.947z M81.053 20.632h1.474v1.474h-1.474z M0.0 22.105h2.947v1.474h-2.947z M4.421 22.105h1.474v1.474h-1.474z M7.368 22.105h1.474v1.474h-1.474z M16.211 22.105h1.474v1.474h-1.474z M20.632 22.105h1.474v1.474h-1.474z M23.579 22.105h2.947v1.474h-2.947z M28.0 22.105h1.474v1.474h-1.474z M33.895 22.105h1.474v1.474h-1.474z M39.789 22.105h1.474v1.474h-1.474z M44.211 22.105h1.474v1.474h-1.474z M47.158 22.105h4.421v1.474h-4.421z M53.053 22.105h2.947v1.474h-2.947z M57.474 22.105h1.474v1.474h-1.474z M75.158 22.105h1.474v1.474h-1.474z M81.053 22.105h1.474v1.474h-1.474z M0.0 23.579h1.474v1.474h-1.474z M5.895 23.579h7.368v1.474h-7.368z M14.737 23.579h4.421v1.474h-4.421z M25.053 23.579h2.947v1.474h-2.947z M30.947 23.579h4.421v1.474h-4.421z M38.316 23.579h2.947v1.474h-2.947z M47.158 23.579h1.474v1.474h-1.474z M50.105 23.579h8.842v1.474h-8.842z M61.895 23.579h1.474v1.474h-1.474z M64.842 23.579h5.895v1.474h-5.895z M0.0 25.053h4.421v1.474h-4.421z M5.895 25.053h1.474v1.474h-1.474z M10.316 25.053h5.895v1.474h-5.895z M17.684 25.053h1.474v1.474h-1.474z M20.632 25.053h1.474v1.474h-1.474z M23.579 25.053h2.947v1.474h-2.947z M28.0 25.053h4.421v1.474h-4.421z M33.895 25.053h4.421v1.474h-4.421z M39.789 25.053h1.474v1.474h-1.474z M42.737 25.053h2.947v1.474h-2.947z M47.158 25.053h2.947v1.474h-2.947z M51.579 25.053h1.474v1.474h-1.474z M56.0 25.053h1.474v1.474h-1.474z M58.947 25.053h4.421v1.474h-4.421z M66.316 25.053h1.474v1.474h-1.474z M70.737 25.053h4.421v1.474h-4.421z M76.632 25.053h2.947v1.474h-2.947z M81.053 25.053h1.474v1.474h-1.474z M2.947 26.526h1.474v1.474h-1.474z M5.895 26.526h4.421v1.474h-4.421z M13.263 26.526h1.474v1.474h-1.474z M17.684 26.526h2.947v1.474h-2.947z M22.105 26.526h4.421v1.474h-4.421z M28.0 26.526h2.947v1.474h-2.947z M32.421 26.526h1.474v1.474h-1.474z M36.842 26.526h1.474v1.474h-1.474z M41.263 26.526h1.474v1.474h-1.474z M47.158 26.526h1.474v1.474h-1.474z M53.053 26.526h2.947v1.474h-2.947z M57.474 26.526h2.947v1.474h-2.947z M61.895 26.526h7.368v1.474h-7.368z M70.737 26.526h4.421v1.474h-4.421z M76.632 26.526h1.474v1.474h-1.474z M81.053 26.526h1.474v1.474h-1.474z M0.0 28.0h1.474v1.474h-1.474z M2.947 28.0h5.895v1.474h-5.895z M10.316 28.0h1.474v1.474h-1.474z M16.211 28.0h1.474v1.474h-1.474z M19.158 28.0h1.474v1.474h-1.474z M26.526 28.0h1.474v1.474h-1.474z M29.474 28.0h4.421v1.474h-4.421z M39.789 28.0h1.474v1.474h-1.474z M42.737 28.0h1.474v1.474h-1.474z M47.158 28.0h1.474v1.474h-1.474z M51.579 28.0h8.842v1.474h-8.842z M63.368 28.0h2.947v1.474h-2.947z M70.737 28.0h4.421v1.474h-4.421z M81.053 28.0h1.474v1.474h-1.474z M1.474 29.474h1.474v1.474h-1.474z M8.842 29.474h4.421v1.474h-4.421z M14.737 29.474h1.474v1.474h-1.474z M19.158 29.474h2.947v1.474h-2.947z M23.579 29.474h1.474v1.474h-1.474z M26.526 29.474h1.474v1.474h-1.474z M29.474 29.474h2.947v1.474h-2.947z M33.895 29.474h4.421v1.474h-4.421z M39.789 29.474h1.474v1.474h-1.474z M42.737 29.474h2.947v1.474h-2.947z M47.158 29.474h1.474v1.474h-1.474z M50.105 29.474h5.895v1.474h-5.895z M57.474 29.474h8.842v1.474h-8.842z M69.263 29.474h1.474v1.474h-1.474z M75.158 29.474h1.474v1.474h-1.474z M78.105 29.474h1.474v1.474h-1.474z M81.053 29.474h1.474v1.474h-1.474z M2.947 30.947h5.895v1.474h-5.895z M14.737 30.947h2.947v1.474h-2.947z M20.632 30.947h1.474v1.474h-1.474z M23.579 30.947h1.474v1.474h-1.474z M28.0 30.947h2.947v1.474h-2.947z M32.421 30.947h4.421v1.474h-4.421z M39.789 30.947h1.474v1.474h-1.474z M44.211 30.947h1.474v1.474h-1.474z M47.158 30.947h2.947v1.474h-2.947z M51.579 30.947h2.947v1.474h-2.947z M58.947 30.947h8.842v1.474h-8.842z M69.263 30.947h5.895v1.474h-5.895z M0.0 32.421h1.474v1.474h-1.474z M5.895 32.421h4.421v1.474h-4.421z M11.789 32.421h4.421v1.474h-4.421z M22.105 32.421h2.947v1.474h-2.947z M28.0 32.421h5.895v1.474h-5.895z M35.368 32.421h1.474v1.474h-1.474z M38.316 32.421h1.474v1.474h-1.474z M41.263 32.421h1.474v1.474h-1.474z M45.684 32.421h1.474v1.474h-1.474z M53.053 32.421h1.474v1.474h-1.474z M66.316 32.421h1.474v1.474h-1.474z M70.737 32.421h8.842v1.474h-8.842z M81.053 32.421h1.474v1.474h-1.474z M0.0 33.895h1.474v1.474h-1.474z M2.947 33.895h5.895v1.474h-5.895z M10.316 33.895h2.947v1.474h-2.947z M16.211 33.895h8.842v1.474h-8.842z M28.0 33.895h2.947v1.474h-2.947z M32.421 33.895h1.474v1.474h-1.474z M35.368 33.895h2.947v1.474h-2.947z M39.789 33.895h1.474v1.474h-1.474z M45.684 33.895h1.474v1.474h-1.474z M50.105 33.895h5.895v1.474h-5.895z M57.474 33.895h1.474v1.474h-1.474z M61.895 33.895h4.421v1.474h-4.421z M67.789 33.895h1.474v1.474h-1.474z M70.737 33.895h2.947v1.474h-2.947z M75.158 33.895h1.474v1.474h-1.474z M81.053 33.895h2.947v1.474h-2.947z M0.0 35.368h2.947v1.474h-2.947z M4.421 35.368h1.474v1.474h-1.474z M7.368 35.368h2.947v1.474h-2.947z M13.263 35.368h4.421v1.474h-4.421z M19.158 35.368h1.474v1.474h-1.474z M23.579 35.368h1.474v1.474h-1.474z M29.474 35.368h1.474v1.474h-1.474z M38.316 35.368h2.947v1.474h-2.947z M42.737 35.368h7.368v1.474h-7.368z M51.579 35.368h2.947v1.474h-2.947z M57.474 35.368h1.474v1.474h-1.474z M63.368 35.368h2.947v1.474h-2.947z M73.684 35.368h2.947v1.474h-2.947z M78.105 35.368h1.474v1.474h-1.474z M81.053 35.368h2.947v1.474h-2.947z M1.474 36.842h1.474v1.474h-1.474z M4.421 36.842h2.947v1.474h-2.947z M10.316 36.842h1.474v1.474h-1.474z M13.263 36.842h10.316v1.474h-10.316z M25.053 36.842h1.474v1.474h-1.474z M28.0 36.842h1.474v1.474h-1.474z M30.947 36.842h1.474v1.474h-1.474z M33.895 36.842h2.947v1.474h-2.947z M38.316 36.842h2.947v1.474h-2.947z M42.737 36.842h2.947v1.474h-2.947z M47.158 36.842h2.947v1.474h-2.947z M51.579 36.842h1.474v1.474h-1.474z M56.0 36.842h2.947v1.474h-2.947z M60.421 36.842h4.421v1.474h-4.421z M66.316 36.842h1.474v1.474h-1.474z M69.263 36.842h2.947v1.474h-2.947z M73.684 36.842h2.947v1.474h-2.947z M79.579 36.842h2.947v1.474h-2.947z M1.474 38.316h1.474v1.474h-1.474z M4.421 38.316h8.842v1.474h-8.842z M14.737 38.316h2.947v1.474h-2.947z M20.632 38.316h1.474v1.474h-1.474z M23.579 38.316h4.421v1.474h-4.421z M29.474 38.316h4.421v1.474h-4.421z M35.368 38.316h1.474v1.474h-1.474z M38.316 38.316h7.368v1.474h-7.368z M48.632 38.316h1.474v1.474h-1.474z M51.579 38.316h1.474v1.474h-1.474z M56.0 38.316h4.421v1.474h-4.421z M63.368 38.316h4.421v1.474h-4.421z M69.263 38.316h13.263v1.474h-13.263z M0.0 39.789h1.474v1.474h-1.474z M4.421 39.789h2.947v1.474h-2.947z M11.789 39.789h2.947v1.474h-2.947z M17.684 39.789h7.368v1.474h-7.368z M28.0 39.789h4.421v1.474h-4.421z M35.368 39.789h4.421v1.474h-4.421z M44.211 39.789h1.474v1.474h-1.474z M47.158 39.789h1.474v1.474h-1.474z M51.579 39.789h5.895v1.474h-5.895z M61.895 39.789h1.474v1.474h-1.474z M64.842 39.789h1.474v1.474h-1.474z M67.789 39.789h4.421v1.474h-4.421z M76.632 39.789h2.947v1.474h-2.947z M4.421 41.263h2.947v1.474h-2.947z M8.842 41.263h1.474v1.474h-1.474z M11.789 41.263h1.474v1.474h-1.474z M14.737 41.263h2.947v1.474h-2.947z M22.105 41.263h11.789v1.474h-11.789z M36.842 41.263h2.947v1.474h-2.947z M41.263 41.263h1.474v1.474h-1.474z M44.211 41.263h1.474v1.474h-1.474z M47.158 41.263h1.474v1.474h-1.474z M50.105 41.263h4.421v1.474h-4.421z M56.0 41.263h2.947v1.474h-2.947z M63.368 41.263h4.421v1.474h-4.421z M69.263 41.263h2.947v1.474h-2.947z M73.684 41.263h1.474v1.474h-1.474z M76.632 41.263h2.947v1.474h-2.947z M2.947 42.737h4.421v1.474h-4.421z M11.789 42.737h5.895v1.474h-5.895z M22.105 42.737h4.421v1.474h-4.421z M28.0 42.737h1.474v1.474h-1.474z M30.947 42.737h1.474v1.474h-1.474z M33.895 42.737h2.947v1.474h-2.947z M38.316 42.737h1.474v1.474h-1.474z M44.211 42.737h1.474v1.474h-1.474z M47.158 42.737h4.421v1.474h-4.421z M56.0 42.737h1.474v1.474h-1.474z M58.947 42.737h5.895v1.474h-5.895z M66.316 42.737h1.474v1.474h-1.474z M70.737 42.737h1.474v1.474h-1.474z M76.632 42.737h5.895v1.474h-5.895z M1.474 44.211h1.474v1.474h-1.474z M5.895 44.211h7.368v1.474h-7.368z M17.684 44.211h2.947v1.474h-2.947z M25.053 44.211h1.474v1.474h-1.474z M29.474 44.211h1.474v1.474h-1.474z M33.895 44.211h1.474v1.474h-1.474z M36.842 44.211h8.842v1.474h-8.842z M47.158 44.211h4.421v1.474h-4.421z M53.053 44.211h2.947v1.474h-2.947z M61.895 44.211h5.895v1.474h-5.895z M69.263 44.211h10.316v1.474h-10.316z M7.368 45.684h1.474v1.474h-1.474z M16.211 45.684h2.947v1.474h-2.947z M23.579 45.684h4.421v1.474h-4.421z M29.474 45.684h1.474v1.474h-1.474z M32.421 45.684h1.474v1.474h-1.474z M35.368 45.684h1.474v1.474h-1.474z M39.789 45.684h1.474v1.474h-1.474z M44.211 45.684h1.474v1.474h-1.474z M47.158 45.684h1.474v1.474h-1.474z M57.474 45.684h2.947v1.474h-2.947z M64.842 45.684h1.474v1.474h-1.474z M67.789 45.684h1.474v1.474h-1.474z M70.737 45.684h1.474v1.474h-1.474z M73.684 45.684h1.474v1.474h-1.474z M76.632 45.684h1.474v1.474h-1.474z M2.947 47.158h1.474v1.474h-1.474z M7.368 47.158h2.947v1.474h-2.947z M13.263 47.158h1.474v1.474h-1.474z M17.684 47.158h5.895v1.474h-5.895z M25.053 47.158h4.421v1.474h-4.421z M30.947 47.158h2.947v1.474h-2.947z M35.368 47.158h1.474v1.474h-1.474z M38.316 47.158h4.421v1.474h-4.421z M44.211 47.158h1.474v1.474h-1.474z M47.158 47.158h2.947v1.474h-2.947z M53.053 47.158h2.947v1.474h-2.947z M57.474 47.158h1.474v1.474h-1.474z M61.895 47.158h1.474v1.474h-1.474z M64.842 47.158h1.474v1.474h-1.474z M72.211 47.158h2.947v1.474h-2.947z M82.526 47.158h1.474v1.474h-1.474z M1.474 48.632h2.947v1.474h-2.947z M5.895 48.632h1.474v1.474h-1.474z M13.263 48.632h2.947v1.474h-2.947z M19.158 48.632h1.474v1.474h-1.474z M22.105 48.632h2.947v1.474h-2.947z M26.526 48.632h1.474v1.474h-1.474z M30.947 48.632h4.421v1.474h-4.421z M36.842 48.632h1.474v1.474h-1.474z M39.789 48.632h1.474v1.474h-1.474z M42.737 48.632h2.947v1.474h-2.947z M47.158 48.632h1.474v1.474h-1.474z M51.579 48.632h2.947v1.474h-2.947z M56.0 48.632h10.316v1.474h-10.316z M70.737 48.632h1.474v1.474h-1.474z M75.158 48.632h1.474v1.474h-1.474z M78.105 48.632h2.947v1.474h-2.947z M0.0 50.105h4.421v1.474h-4.421z M8.842 50.105h1.474v1.474h-1.474z M13.263 50.105h4.421v1.474h-4.421z M20.632 50.105h1.474v1.474h-1.474z M23.579 50.105h2.947v1.474h-2.947z M28.0 50.105h4.421v1.474h-4.421z M33.895 50.105h5.895v1.474h-5.895z M41.263 50.105h1.474v1.474h-1.474z M45.684 50.105h4.421v1.474h-4.421z M51.579 50.105h1.474v1.474h-1.474z M56.0 50.105h7.368v1.474h-7.368z M64.842 50.105h2.947v1.474h-2.947z M69.263 50.105h1.474v1.474h-1.474z M72.211 50.105h1.474v1.474h-1.474z M82.526 50.105h1.474v1.474h-1.474z M0.0 51.579h4.421v1.474h-4.421z M5.895 51.579h2.947v1.474h-2.947z M10.316 51.579h2.947v1.474h-2.947z M23.579 51.579h2.947v1.474h-2.947z M29.474 51.579h1.474v1.474h-1.474z M35.368 51.579h5.895v1.474h-5.895z M44.211 51.579h1.474v1.474h-1.474z M47.158 51.579h1.474v1.474h-1.474z M50.105 51.579h7.368v1.474h-7.368z M63.368 51.579h1.474v1.474h-1.474z M66.316 51.579h2.947v1.474h-2.947z M70.737 51.579h4.421v1.474h-4.421z M1.474 53.053h4.421v1.474h-4.421z M8.842 53.053h1.474v1.474h-1.474z M13.263 53.053h2.947v1.474h-2.947z M25.053 53.053h2.947v1.474h-2.947z M29.474 53.053h1.474v1.474h-1.474z M39.789 53.053h1.474v1.474h-1.474z M44.211 53.053h1.474v1.474h-1.474z M47.158 53.053h1.474v1.474h-1.474z M51.579 53.053h2.947v1.474h-2.947z M57.474 53.053h1.474v1.474h-1.474z M60.421 53.053h1.474v1.474h-1.474z M64.842 53.053h2.947v1.474h-2.947z M70.737 53.053h1.474v1.474h-1.474z M73.684 53.053h1.474v1.474h-1.474z M81.053 53.053h2.947v1.474h-2.947z M0.0 54.526h2.947v1.474h-2.947z M4.421 54.526h1.474v1.474h-1.474z M11.789 54.526h7.368v1.474h-7.368z M20.632 54.526h1.474v1.474h-1.474z M25.053 54.526h1.474v1.474h-1.474z M28.0 54.526h1.474v1.474h-1.474z M30.947 54.526h5.895v1.474h-5.895z M38.316 54.526h1.474v1.474h-1.474z M42.737 54.526h4.421v1.474h-4.421z M48.632 54.526h1.474v1.474h-1.474z M56.0 54.526h1.474v1.474h-1.474z M60.421 54.526h2.947v1.474h-2.947z M66.316 54.526h1.474v1.474h-1.474z M73.684 54.526h2.947v1.474h-2.947z M79.579 54.526h4.421v1.474h-4.421z M4.421 56.0h2.947v1.474h-2.947z M8.842 56.0h1.474v1.474h-1.474z M11.789 56.0h1.474v1.474h-1.474z M16.211 56.0h1.474v1.474h-1.474z M19.158 56.0h4.421v1.474h-4.421z M28.0 56.0h8.842v1.474h-8.842z M38.316 56.0h1.474v1.474h-1.474z M41.263 56.0h1.474v1.474h-1.474z M45.684 56.0h1.474v1.474h-1.474z M48.632 56.0h1.474v1.474h-1.474z M51.579 56.0h1.474v1.474h-1.474z M54.526 56.0h1.474v1.474h-1.474z M58.947 56.0h4.421v1.474h-4.421z M67.789 56.0h2.947v1.474h-2.947z M72.211 56.0h1.474v1.474h-1.474z M78.105 56.0h1.474v1.474h-1.474z M81.053 56.0h1.474v1.474h-1.474z M0.0 57.474h2.947v1.474h-2.947z M4.421 57.474h2.947v1.474h-2.947z M11.789 57.474h2.947v1.474h-2.947z M16.211 57.474h2.947v1.474h-2.947z M23.579 57.474h4.421v1.474h-4.421z M32.421 57.474h2.947v1.474h-2.947z M36.842 57.474h1.474v1.474h-1.474z M39.789 57.474h5.895v1.474h-5.895z M47.158 57.474h1.474v1.474h-1.474z M50.105 57.474h4.421v1.474h-4.421z M57.474 57.474h2.947v1.474h-2.947z M61.895 57.474h5.895v1.474h-5.895z M73.684 57.474h1.474v1.474h-1.474z M81.053 57.474h2.947v1.474h-2.947z M2.947 58.947h2.947v1.474h-2.947z M8.842 58.947h2.947v1.474h-2.947z M13.263 58.947h1.474v1.474h-1.474z M22.105 58.947h2.947v1.474h-2.947z M26.526 58.947h1.474v1.474h-1.474z M32.421 58.947h4.421v1.474h-4.421z M41.263 58.947h2.947v1.474h-2.947z M47.158 58.947h1.474v1.474h-1.474z M51.579 58.947h2.947v1.474h-2.947z M56.0 58.947h1.474v1.474h-1.474z M60.421 58.947h1.474v1.474h-1.474z M63.368 58.947h4.421v1.474h-4.421z M72.211 58.947h1.474v1.474h-1.474z M75.158 58.947h2.947v1.474h-2.947z M0.0 60.421h8.842v1.474h-8.842z M10.316 60.421h1.474v1.474h-1.474z M14.737 60.421h10.316v1.474h-10.316z M30.947 60.421h1.474v1.474h-1.474z M33.895 60.421h4.421v1.474h-4.421z M39.789 60.421h1.474v1.474h-1.474z M42.737 60.421h1.474v1.474h-1.474z M48.632 60.421h1.474v1.474h-1.474z M54.526 60.421h2.947v1.474h-2.947z M60.421 60.421h4.421v1.474h-4.421z M66.316 60.421h1.474v1.474h-1.474z M70.737 60.421h2.947v1.474h-2.947z M78.105 60.421h2.947v1.474h-2.947z M0.0 61.895h1.474v1.474h-1.474z M4.421 61.895h1.474v1.474h-1.474z M7.368 61.895h4.421v1.474h-4.421z M13.263 61.895h1.474v1.474h-1.474z M16.211 61.895h1.474v1.474h-1.474z M19.158 61.895h1.474v1.474h-1.474z M23.579 61.895h1.474v1.474h-1.474z M32.421 61.895h2.947v1.474h-2.947z M36.842 61.895h2.947v1.474h-2.947z M41.263 61.895h1.474v1.474h-1.474z M50.105 61.895h1.474v1.474h-1.474z M53.053 61.895h2.947v1.474h-2.947z M60.421 61.895h1.474v1.474h-1.474z M69.263 61.895h1.474v1.474h-1.474z M75.158 61.895h1.474v1.474h-1.474z M78.105 61.895h1.474v1.474h-1.474z M81.053 61.895h1.474v1.474h-1.474z M0.0 63.368h8.842v1.474h-8.842z M10.316 63.368h2.947v1.474h-2.947z M17.684 63.368h2.947v1.474h-2.947z M26.526 63.368h4.421v1.474h-4.421z M36.842 63.368h1.474v1.474h-1.474z M42.737 63.368h1.474v1.474h-1.474z M48.632 63.368h4.421v1.474h-4.421z M54.526 63.368h5.895v1.474h-5.895z M61.895 63.368h1.474v1.474h-1.474z M64.842 63.368h2.947v1.474h-2.947z M73.684 63.368h4.421v1.474h-4.421z M81.053 63.368h1.474v1.474h-1.474z M4.421 64.842h1.474v1.474h-1.474z M8.842 64.842h2.947v1.474h-2.947z M14.737 64.842h2.947v1.474h-2.947z M20.632 64.842h1.474v1.474h-1.474z M23.579 64.842h2.947v1.474h-2.947z M30.947 64.842h1.474v1.474h-1.474z M41.263 64.842h2.947v1.474h-2.947z M48.632 64.842h5.895v1.474h-5.895z M57.474 64.842h1.474v1.474h-1.474z M60.421 64.842h1.474v1.474h-1.474z M63.368 64.842h4.421v1.474h-4.421z M72.211 64.842h7.368v1.474h-7.368z M81.053 64.842h1.474v1.474h-1.474z M1.474 66.316h1.474v1.474h-1.474z M4.421 66.316h1.474v1.474h-1.474z M7.368 66.316h1.474v1.474h-1.474z M11.789 66.316h2.947v1.474h-2.947z M17.684 66.316h2.947v1.474h-2.947z M25.053 66.316h4.421v1.474h-4.421z M32.421 66.316h5.895v1.474h-5.895z M39.789 66.316h1.474v1.474h-1.474z M45.684 66.316h1.474v1.474h-1.474z M48.632 66.316h1.474v1.474h-1.474z M51.579 66.316h1.474v1.474h-1.474z M56.0 66.316h11.789v1.474h-11.789z M69.263 66.316h1.474v1.474h-1.474z M72.211 66.316h4.421v1.474h-4.421z M79.579 66.316h2.947v1.474h-2.947z M0.0 67.789h1.474v1.474h-1.474z M2.947 67.789h1.474v1.474h-1.474z M7.368 67.789h4.421v1.474h-4.421z M16.211 67.789h1.474v1.474h-1.474z M20.632 67.789h2.947v1.474h-2.947z M25.053 67.789h1.474v1.474h-1.474z M28.0 67.789h4.421v1.474h-4.421z M35.368 67.789h1.474v1.474h-1.474z M38.316 67.789h1.474v1.474h-1.474z M44.211 67.789h4.421v1.474h-4.421z M53.053 67.789h1.474v1.474h-1.474z M56.0 67.789h1.474v1.474h-1.474z M60.421 67.789h1.474v1.474h-1.474z M64.842 67.789h2.947v1.474h-2.947z M70.737 67.789h1.474v1.474h-1.474z M75.158 67.789h4.421v1.474h-4.421z M81.053 67.789h1.474v1.474h-1.474z M0.0 69.263h7.368v1.474h-7.368z M10.316 69.263h2.947v1.474h-2.947z M16.211 69.263h4.421v1.474h-4.421z M22.105 69.263h8.842v1.474h-8.842z M33.895 69.263h1.474v1.474h-1.474z M36.842 69.263h1.474v1.474h-1.474z M41.263 69.263h2.947v1.474h-2.947z M47.158 69.263h7.368v1.474h-7.368z M57.474 69.263h1.474v1.474h-1.474z M64.842 69.263h4.421v1.474h-4.421z M70.737 69.263h4.421v1.474h-4.421z M76.632 69.263h2.947v1.474h-2.947z M8.842 70.737h2.947v1.474h-2.947z M13.263 70.737h2.947v1.474h-2.947z M17.684 70.737h2.947v1.474h-2.947z M23.579 70.737h1.474v1.474h-1.474z M26.526 70.737h1.474v1.474h-1.474z M29.474 70.737h2.947v1.474h-2.947z M38.316 70.737h7.368v1.474h-7.368z M47.158 70.737h2.947v1.474h-2.947z M53.053 70.737h5.895v1.474h-5.895z M61.895 70.737h1.474v1.474h-1.474z M64.842 70.737h4.421v1.474h-4.421z M70.737 70.737h8.842v1.474h-8.842z M81.053 70.737h2.947v1.474h-2.947z M11.789 72.211h1.474v1.474h-1.474z M16.211 72.211h1.474v1.474h-1.474z M22.105 72.211h1.474v1.474h-1.474z M26.526 72.211h1.474v1.474h-1.474z M33.895 72.211h2.947v1.474h-2.947z M38.316 72.211h1.474v1.474h-1.474z M44.211 72.211h4.421v1.474h-4.421z M56.0 72.211h2.947v1.474h-2.947z M60.421 72.211h2.947v1.474h-2.947z M66.316 72.211h1.474v1.474h-1.474z M70.737 72.211h1.474v1.474h-1.474z M76.632 72.211h5.895v1.474h-5.895z M0.0 73.684h10.316v1.474h-10.316z M11.789 73.684h1.474v1.474h-1.474z M16.211 73.684h1.474v1.474h-1.474z M19.158 73.684h2.947v1.474h-2.947z M23.579 73.684h1.474v1.474h-1.474z M29.474 73.684h4.421v1.474h-4.421z M35.368 73.684h1.474v1.474h-1.474z M38.316 73.684h1.474v1.474h-1.474z M41.263 73.684h1.474v1.474h-1.474z M44.211 73.684h2.947v1.474h-2.947z M50.105 73.684h1.474v1.474h-1.474z M53.053 73.684h2.947v1.474h-2.947z M58.947 73.684h1.474v1.474h-1.474z M63.368 73.684h4.421v1.474h-4.421z M70.737 73.684h1.474v1.474h-1.474z M73.684 73.684h1.474v1.474h-1.474z M76.632 73.684h1.474v1.474h-1.474z M81.053 73.684h1.474v1.474h-1.474z M0.0 75.158h1.474v1.474h-1.474z M8.842 75.158h1.474v1.474h-1.474z M13.263 75.158h2.947v1.474h-2.947z M17.684 75.158h1.474v1.474h-1.474z M22.105 75.158h1.474v1.474h-1.474z M25.053 75.158h2.947v1.474h-2.947z M30.947 75.158h1.474v1.474h-1.474z M33.895 75.158h1.474v1.474h-1.474z M38.316 75.158h1.474v1.474h-1.474z M44.211 75.158h1.474v1.474h-1.474z M51.579 75.158h1.474v1.474h-1.474z M54.526 75.158h2.947v1.474h-2.947z M58.947 75.158h1.474v1.474h-1.474z M61.895 75.158h1.474v1.474h-1.474z M64.842 75.158h1.474v1.474h-1.474z M70.737 75.158h1.474v1.474h-1.474z M76.632 75.158h1.474v1.474h-1.474z M81.053 75.158h1.474v1.474h-1.474z M0.0 76.632h1.474v1.474h-1.474z M2.947 76.632h4.421v1.474h-4.421z M8.842 76.632h1.474v1.474h-1.474z M11.789 76.632h2.947v1.474h-2.947z M19.158 76.632h1.474v1.474h-1.474z M25.053 76.632h2.947v1.474h-2.947z M29.474 76.632h1.474v1.474h-1.474z M32.421 76.632h4.421v1.474h-4.421z M38.316 76.632h7.368v1.474h-7.368z M47.158 76.632h5.895v1.474h-5.895z M57.474 76.632h1.474v1.474h-1.474z M60.421 76.632h2.947v1.474h-2.947z M64.842 76.632h16.211v1.474h-16.211z M82.526 76.632h1.474v1.474h-1.474z M0.0 78.105h1.474v1.474h-1.474z M2.947 78.105h4.421v1.474h-4.421z M8.842 78.105h1.474v1.474h-1.474z M14.737 78.105h2.947v1.474h-2.947z M19.158 78.105h1.474v1.474h-1.474z M25.053 78.105h1.474v1.474h-1.474z M29.474 78.105h1.474v1.474h-1.474z M35.368 78.105h1.474v1.474h-1.474z M41.263 78.105h1.474v1.474h-1.474z M44.211 78.105h1.474v1.474h-1.474z M48.632 78.105h1.474v1.474h-1.474z M56.0 78.105h2.947v1.474h-2.947z M60.421 78.105h2.947v1.474h-2.947z M72.211 78.105h1.474v1.474h-1.474z M76.632 78.105h2.947v1.474h-2.947z M81.053 78.105h2.947v1.474h-2.947z M0.0 79.579h1.474v1.474h-1.474z M2.947 79.579h4.421v1.474h-4.421z M8.842 79.579h1.474v1.474h-1.474z M14.737 79.579h1.474v1.474h-1.474z M19.158 79.579h4.421v1.474h-4.421z M28.0 79.579h2.947v1.474h-2.947z M32.421 79.579h1.474v1.474h-1.474z M36.842 79.579h1.474v1.474h-1.474z M41.263 79.579h7.368v1.474h-7.368z M53.053 79.579h1.474v1.474h-1.474z M56.0 79.579h2.947v1.474h-2.947z M60.421 79.579h2.947v1.474h-2.947z M72.211 79.579h1.474v1.474h-1.474z M76.632 79.579h1.474v1.474h-1.474z M0.0 81.053h1.474v1.474h-1.474z M8.842 81.053h1.474v1.474h-1.474z M14.737 81.053h4.421v1.474h-4.421z M23.579 81.053h1.474v1.474h-1.474z M26.526 81.053h4.421v1.474h-4.421z M33.895 81.053h1.474v1.474h-1.474z M36.842 81.053h1.474v1.474h-1.474z M39.789 81.053h2.947v1.474h-2.947z M47.158 81.053h2.947v1.474h-2.947z M53.053 81.053h1.474v1.474h-1.474z M57.474 81.053h1.474v1.474h-1.474z M61.895 81.053h2.947v1.474h-2.947z M67.789 81.053h2.947v1.474h-2.947z M72.211 81.053h1.474v1.474h-1.474z M75.158 81.053h2.947v1.474h-2.947z M0.0 82.526h10.316v1.474h-10.316z M11.789 82.526h1.474v1.474h-1.474z M17.684 82.526h1.474v1.474h-1.474z M22.105 82.526h1.474v1.474h-1.474z M26.526 82.526h5.895v1.474h-5.895z M33.895 82.526h1.474v1.474h-1.474z M38.316 82.526h2.947v1.474h-2.947z M47.158 82.526h2.947v1.474h-2.947z M51.579 82.526h7.368v1.474h-7.368z M60.421 82.526h1.474v1.474h-1.474z M64.842 82.526h8.842v1.474h-8.842z M75.158 82.526h5.895v1.474h-5.895z M82.526 82.526h1.474v1.474h-1.474z"/>
</g>
<text x="1122" y="614" font-family="Inter, Helvetica, Arial, sans-serif" font-size="10" font-weight="700" fill="#F5F7FA" text-anchor="middle">scan / full post</text>
</svg>