<svg xmlns="http://www.w3.org/2000/svg" viewBox="0 0 1200 630" fill="none">
  <defs>
    <linearGradient id="bg" x1="0" y1="0" x2="1200" y2="630">
      <stop offset="0%" stop-color="#0f172a"/>
      <stop offset="50%" stop-color="#1e293b"/>
      <stop offset="100%" stop-color="#0f172a"/>
    </linearGradient>
    <linearGradient id="accent" x1="0" y1="0" x2="1" y2="1">
      <stop offset="0%" stop-color="#6366f1"/>
      <stop offset="100%" stop-color="#4f46e5"/>
    </linearGradient>
    <linearGradient id="accent2" x1="0" y1="0" x2="1" y2="1">
      <stop offset="0%" stop-color="#10b981"/>
      <stop offset="100%" stop-color="#059669"/>
    </linearGradient>
  </defs>

  <!-- Background -->
  <rect width="1200" height="630" fill="url(#bg)"/>

  <!-- Grid pattern -->
  <g opacity="0.05" stroke="#94a3b8" stroke-width="1">
    <line x1="0" y1="100" x2="1200" y2="100"/>
    <line x1="0" y1="200" x2="1200" y2="200"/>
    <line x1="0" y1="300" x2="1200" y2="300"/>
    <line x1="0" y1="400" x2="1200" y2="400"/>
    <line x1="0" y1="500" x2="1200" y2="500"/>
    <line x1="200" y1="0" x2="200" y2="630"/>
    <line x1="400" y1="0" x2="400" y2="630"/>
    <line x1="600" y1="0" x2="600" y2="630"/>
    <line x1="800" y1="0" x2="800" y2="630"/>
    <line x1="1000" y1="0" x2="1000" y2="630"/>
  </g>

  <!-- Primary icon -->
  <g transform="translate(80, 180)">
    <circle cx="60" cy="70" r="45" fill="url(#accent)" opacity="0.15"/>
    <circle cx="60" cy="70" r="45" fill="none" stroke="#6366f1" stroke-width="2.5"/>
    <path d="M40 55 Q50 35 60 50 Q70 35 80 55" fill="none" stroke="#c7d2fe" stroke-width="2"/>
    <path d="M35 75 Q45 60 55 75 Q65 60 75 75 Q85 60 90 75" fill="none" stroke="#c7d2fe" stroke-width="2"/>
    <text x="60" y="105" text-anchor="middle" fill="#6366f1" font-family="monospace" font-size="14" font-weight="bold">AI</text>
  </g>

  <!-- Secondary icon -->
  <g transform="translate(80, 380)">
    <circle cx="60" cy="70" r="45" fill="url(#accent)" opacity="0.15"/>
    <circle cx="60" cy="70" r="45" fill="none" stroke="#10b981" stroke-width="2.5"/>
    <path d="M40 55 Q50 35 60 50 Q70 35 80 55" fill="none" stroke="#94a3b8" stroke-width="2"/>
    <path d="M35 75 Q45 60 55 75 Q65 60 75 75 Q85 60 90 75" fill="none" stroke="#94a3b8" stroke-width="2"/>
    <text x="60" y="105" text-anchor="middle" fill="#10b981" font-family="monospace" font-size="14" font-weight="bold">AI</text>
  </g>

  <!-- Main title area -->
  <g transform="translate(260, 100)">
    <text x="0" y="0" fill="#f8fafc" font-family="Arial, sans-serif" font-size="18" font-weight="bold" letter-spacing="4">TECH SECURITY WEEKLY DIGEST</text>
    <text x="0" y="60" fill="#f8fafc" font-family="Arial, sans-serif" font-size="42" font-weight="bold">Tech &amp; Security Weekly Digest:</text>
    <text x="0" y="110" fill="#94a3b8" font-family="Arial, sans-serif" font-size="32" font-weight="300">Zero Trust for AI Agents, Chrome 기술지원 사기 방지, Terraform Stacks 혁신</text>
  </g>

  <!-- Date badge -->
  <rect x="260" y="240" width="200" height="36" rx="18" fill="url(#accent)" opacity="0.9"/>
  <text x="360" y="264" text-anchor="middle" fill="white" font-family="Arial, sans-serif" font-size="16" font-weight="bold">January 26, 2026</text>

  <!-- Stats cards -->
  <g transform="translate(260, 310)">
    <rect x="0" y="0" width="200" height="90" rx="8" fill="#1e293b" stroke="#334155" stroke-width="1"/>
    <text x="20" y="30" fill="#818cf8" font-family="Arial, sans-serif" font-size="12" font-weight="bold">AI/ML</text>
    <text x="20" y="65" fill="#f8fafc" font-family="Arial, sans-serif" font-size="28" font-weight="bold">AI/ML</text>
    <text x="20" y="80" fill="#64748b" font-family="Arial, sans-serif" font-size="13">analysis</text>
    <rect x="220" y="0" width="200" height="90" rx="8" fill="#1e293b" stroke="#334155" stroke-width="1"/>
    <text x="240" y="30" fill="#a78bfa" font-family="Arial, sans-serif" font-size="12" font-weight="bold">AI AGENT</text>
    <text x="240" y="65" fill="#f8fafc" font-family="Arial, sans-serif" font-size="28" font-weight="bold">AI Agent</text>
    <text x="240" y="80" fill="#64748b" font-family="Arial, sans-serif" font-size="13">analysis</text>
    <rect x="440" y="0" width="200" height="90" rx="8" fill="#1e293b" stroke="#334155" stroke-width="1"/>
    <text x="460" y="30" fill="#818cf8" font-family="Arial, sans-serif" font-size="12" font-weight="bold">GEMINI AI</text>
    <text x="460" y="65" fill="#f8fafc" font-family="Arial, sans-serif" font-size="28" font-weight="bold">Gemini AI</text>
    <text x="460" y="80" fill="#64748b" font-family="Arial, sans-serif" font-size="13">analysis</text>
  </g>

  <!-- Key topics -->
  <g transform="translate(260, 440)">
    <rect x="0" y="0" width="75" height="32" rx="16" fill="#991b1b" opacity="0.7"/>
    <text x="37" y="21" text-anchor="middle" fill="#fca5a5" font-family="Arial, sans-serif" font-size="13">AI/ML</text>
    <rect x="90" y="0" width="102" height="32" rx="16" fill="#7c2d12" opacity="0.7"/>
    <text x="141" y="21" text-anchor="middle" fill="#fdba74" font-family="Arial, sans-serif" font-size="13">AI Agent</text>
    <rect x="207" y="0" width="111" height="32" rx="16" fill="#312e81" opacity="0.7"/>
    <text x="262" y="21" text-anchor="middle" fill="#a5b4fc" font-family="Arial, sans-serif" font-size="13">Gemini AI</text>
    <rect x="333" y="0" width="111" height="32" rx="16" fill="#064e3b" opacity="0.7"/>
    <text x="388" y="21" text-anchor="middle" fill="#6ee7b7" font-family="Arial, sans-serif" font-size="13">DevSecOps</text>
  </g>

  <!-- Network visualization -->
  <g transform="translate(900, 180)" opacity="0.4">
    <circle cx="108" cy="69" r="3" fill="#f87171"/>
    <circle cx="39" cy="39" r="4" fill="#fb923c"/>
    <circle cx="131" cy="32" r="5" fill="#818cf8"/>
    <circle cx="142" cy="80" r="6" fill="#34d399"/>
    <circle cx="219" cy="142" r="3" fill="#fbbf24"/>
    <circle cx="78" cy="208" r="4" fill="#f87171"/>
    <circle cx="211" cy="224" r="5" fill="#fb923c"/>
    <circle cx="52" cy="78" r="6" fill="#818cf8"/>
    <circle cx="57" cy="192" r="3" fill="#34d399"/>
    <circle cx="58" cy="120" r="4" fill="#fbbf24"/>
    <line x1="108" y1="69" x2="39" y2="39" stroke="#475569" stroke-width="1"/>
    <line x1="39" y1="39" x2="131" y2="32" stroke="#475569" stroke-width="1"/>
    <line x1="131" y1="32" x2="142" y2="80" stroke="#475569" stroke-width="1"/>
    <line x1="142" y1="80" x2="219" y2="142" stroke="#475569" stroke-width="1"/>
    <line x1="219" y1="142" x2="78" y2="208" stroke="#475569" stroke-width="1"/>
    <line x1="78" y1="208" x2="211" y2="224" stroke="#475569" stroke-width="1"/>
    <line x1="211" y1="224" x2="52" y2="78" stroke="#475569" stroke-width="1"/>
    <line x1="52" y1="78" x2="57" y2="192" stroke="#475569" stroke-width="1"/>
  </g>

  <!-- Bottom bar -->
  <rect x="0" y="510" width="1200" height="120" fill="#0f172a" opacity="0.8"/>
  <rect x="0" y="510" width="1200" height="2" fill="url(#accent)" opacity="0.5"/>

  <!-- Bottom text -->
  <text x="80" y="560" fill="#94a3b8" font-family="Arial, sans-serif" font-size="16">tech.2twodragon.com</text>
  <text x="80" y="590" fill="#64748b" font-family="Arial, sans-serif" font-size="13">DevSecOps Weekly Security Intelligence</text>

  <!-- Bottom right -->
  <text x="1120" y="560" text-anchor="end" fill="#64748b" font-family="Arial, sans-serif" font-size="14">12 curated articles</text>
  <text x="1120" y="590" text-anchor="end" fill="#64748b" font-family="Arial, sans-serif" font-size="13">AI/ML | AI Agent | Gemini AI | DevSecOps</text>
</svg>
