<svg xmlns="http://www.w3.org/2000/svg" viewBox="0 0 1200 630">
  <defs>
    <linearGradient id="bg" x1="0%" y1="0%" x2="100%" y2="100%">
      <stop offset="0%" style="stop-color:#0a0a1a"/><stop offset="100%" style="stop-color:#1a0a0a"/>
    </linearGradient>
    <filter id="glow"><feGaussianBlur stdDeviation="4" result="b"/><feMerge><feMergeNode in="b"/><feMergeNode in="SourceGraphic"/></feMerge></filter>
    <filter id="sg"><feGaussianBlur stdDeviation="30"/></filter>
    <filter id="shadow"><feDropShadow dx="0" dy="4" stdDeviation="8" flood-color="#000" flood-opacity="0.3"/></filter>
  </defs>
  <rect width="1200" height="630" fill="url(#bg)"/>
  <circle cx="600" cy="250" r="280" fill="#ef4444" opacity="0.03" filter="url(#sg)"/>
  <g transform="translate(600,225)">
    <!-- MS Office document with zero-day crack -->
    <g filter="url(#shadow)">
      <rect x="-60" y="-80" width="120" height="160" rx="8" fill="#1e293b" stroke="#0078d4" stroke-width="2.5"/>
      <!-- Doc corner fold -->
      <path d="M30,-80 L60,-80 L60,-50 Z" fill="#0f172a" stroke="#0078d4" stroke-width="1"/>
      <!-- Doc lines -->
      <g opacity="0.2">
        <rect x="-40" y="-55" width="80" height="5" rx="1" fill="#0078d4"/>
        <rect x="-40" y="-45" width="60" height="5" rx="1" fill="#0078d4"/>
        <rect x="-40" y="-35" width="70" height="5" rx="1" fill="#0078d4"/>
        <rect x="-40" y="-20" width="80" height="5" rx="1" fill="#0078d4"/>
        <rect x="-40" y="-10" width="50" height="5" rx="1" fill="#0078d4"/>
      </g>
      <!-- Zero-day lightning crack -->
      <path d="M5,-70 L-10,-25 L5,-30 L-15,30 L10,-15 L-5,-10 Z" fill="#ef4444" opacity="0.5"/>
      <!-- 0-day label -->
      <rect x="-25" y="35" width="50" height="22" rx="4" fill="#ef4444" opacity="0.2" stroke="#ef4444" stroke-width="1.5"/>
      <text x="0" y="50" font-family="Courier New" font-size="10" fill="#fca5a5" text-anchor="middle">0-day</text>
    </g>
    <!-- Kimwolf botnet -->
    <g transform="translate(130,0)" opacity="0.5">
      <circle cx="0" cy="0" r="30" fill="#1e293b" stroke="#f59e0b" stroke-width="1.5"/>
      <!-- Wolf silhouette simplified -->
      <polygon points="-10,-15 -15,-5 -5,-10 0,-20 5,-10 15,-5 10,-15" fill="#f59e0b" opacity="0.3"/>
      <text x="0" y="10" font-family="Courier New" font-size="7" fill="#fde68a" text-anchor="middle">Kimwolf</text>
    </g>
    <!-- AWS node -->
    <g transform="translate(-130,0)" opacity="0.5">
      <circle cx="0" cy="0" r="30" fill="#1e293b" stroke="#f97316" stroke-width="1.5"/>
      <text x="0" y="5" font-family="Arial,sans-serif" font-size="12" font-weight="bold" fill="#fdba74" text-anchor="middle">AWS</text>
    </g>
  </g>
  <text x="600" y="500" font-family="Arial,sans-serif" font-size="34" font-weight="bold" fill="white" text-anchor="middle" filter="url(#glow)">MS Office Zero-Day</text>
  <text x="600" y="538" font-family="Arial,sans-serif" font-size="16" fill="#94a3b8" text-anchor="middle">Weekly Digest | Kimi K25 + Kimwolf Botnet + AWS G7e</text>
  <rect x="40" y="25" width="160" height="32" rx="16" fill="#ef4444" opacity="0.2" stroke="#ef4444" stroke-width="1"/>
  <text x="120" y="47" font-family="Arial,sans-serif" font-size="13" font-weight="bold" fill="#fca5a5" text-anchor="middle">WEEKLY</text>
  <rect x="1000" y="25" width="160" height="32" rx="16" fill="#3b82f6" opacity="0.2" stroke="#3b82f6" stroke-width="1"/>
  <text x="1080" y="47" font-family="Arial,sans-serif" font-size="13" font-weight="bold" fill="#93c5fd" text-anchor="middle">Jan 27, 2026</text>
  <text x="1160" y="615" font-family="Arial,sans-serif" font-size="13" fill="#475569" text-anchor="end">tech.2twodragon.com</text>
</svg>