<?xml version="1.0" encoding="UTF-8"?>
<svg xmlns="http://www.w3.org/2000/svg" viewBox="0 0 1200 630" width="None" height="None">
  <title>Tech Security Weekly Digest Kubernetes Supply</title>
  <defs>
    <linearGradient id="bgGradient" x1="0%" y1="0%" x2="100%" y2="100%">
      <stop offset="0%" style="stop-color:#0a0c1a;stop-opacity:1" />
      <stop offset="100%" style="stop-color:#0f1229;stop-opacity:1" />
    </linearGradient>
    <filter id="glow">
      <feGaussianBlur stdDeviation="3" result="coloredBlur" />
      <feMerge>
        <feMergeNode in="coloredBlur" />
        <feMergeNode in="SourceGraphic" />
      </feMerge>
    </filter>
  </defs>

  
  <rect width="1200" height="630" fill="url(#bgGradient)" />

  
  
  <g>
    <rect x="50" y="40" width="220" height="48" rx="6" fill="#ef4444" opacity="0.08" stroke="#ef4444" stroke-width="1.5" />
    <text x="160" y="69" font-family="system-ui, -apple-system, sans-serif" font-size="14" font-weight="600" fill="#ef4444" text-anchor="middle">MARCH 26, 2026</text>
  </g>

  
  <text x="80" y="215" font-family="system-ui, -apple-system, sans-serif" font-size="44" font-weight="700" fill="#ffffff">Tech Security</text>
  <text x="80" y="270" font-family="system-ui, -apple-system, sans-serif" font-size="44" font-weight="700" fill="#ffffff">Weekly Digest</text>
  <text x="80" y="325" font-family="system-ui, -apple-system, sans-serif" font-size="44" font-weight="700" fill="#f59e0b">Kubernetes Supply</text>

  
  <g>
    
    <rect x="80" y="410" width="140" height="36" rx="18" fill="#3b82f6" opacity="0.12" stroke="#3b82f6" stroke-width="1.5" />
    <text x="150" y="433" font-family="system-ui, -apple-system, sans-serif" font-size="13" font-weight="600" fill="#3b82f6" text-anchor="middle">Kubernetes</text>

    
    <rect x="240" y="410" width="120" height="36" rx="18" fill="#ef4444" opacity="0.12" stroke="#ef4444" stroke-width="1.5" />
    <text x="300" y="433" font-family="system-ui, -apple-system, sans-serif" font-size="13" font-weight="600" fill="#ef4444" text-anchor="middle">Security</text>

    
    <rect x="380" y="410" width="160" height="36" rx="18" fill="#f59e0b" opacity="0.12" stroke="#f59e0b" stroke-width="1.5" />
    <text x="460" y="433" font-family="system-ui, -apple-system, sans-serif" font-size="13" font-weight="600" fill="#f59e0b" text-anchor="middle">Supply Chain</text>
  </g>

  
  <text x="80" y="580" font-family="system-ui, -apple-system, sans-serif" font-size="13" font-weight="500" fill="#6b7280">tech.2twodragon.com</text>

  
  
  <line x1="700" y1="150" x2="850" y2="220" stroke="#3b82f6" stroke-width="2.5" opacity="0.25" stroke-dasharray="5,5" />
  <line x1="850" y1="220" x2="950" y2="320" stroke="#ef4444" stroke-width="2.5" opacity="0.25" stroke-dasharray="5,5" />
  <line x1="950" y1="320" x2="800" y2="420" stroke="#f59e0b" stroke-width="2.5" opacity="0.25" stroke-dasharray="5,5" />
  <line x1="800" y1="420" x2="700" y2="350" stroke="#3b82f6" stroke-width="2.5" opacity="0.25" />

  
  <g filter="url(#glow)">
    <circle cx="720" cy="160" r="45" fill="#3b82f6" opacity="0.10" stroke="#3b82f6" stroke-width="2.5" />
    
    <polygon points="720,130 750,145 750,175 720,190 690,175 690,145" fill="none" stroke="#3b82f6" stroke-width="2" opacity="0.6" />
    </g>

  
  <g filter="url(#glow)">
    <circle cx="950" cy="150" r="45" fill="#f59e0b" opacity="0.10" stroke="#f59e0b" stroke-width="2.5" />
    <polygon points="950,120 980,135 980,165 950,180 920,165 920,135" fill="none" stroke="#f59e0b" stroke-width="2" opacity="0.6" />
    </g>

  
  <g filter="url(#glow)">
    <circle cx="1000" cy="290" r="45" fill="#ef4444" opacity="0.10" stroke="#ef4444" stroke-width="2.5" />
    <polygon points="1000,260 1030,275 1030,305 1000,320 970,305 970,275" fill="none" stroke="#ef4444" stroke-width="2" opacity="0.6" />
    </g>

  
  <g filter="url(#glow)">
    <circle cx="750" cy="420" r="45" fill="#3b82f6" opacity="0.10" stroke="#3b82f6" stroke-width="2.5" />
    <polygon points="750,390 780,405 780,435 750,450 720,435 720,405" fill="none" stroke="#3b82f6" stroke-width="2" opacity="0.6" />
    </g>

  
  <g>
    
    <circle cx="820" cy="240" r="22" fill="none" stroke="#ef4444" stroke-width="3" opacity="0.6" />
    
    <line x1="810" y1="235" x2="800" y2="225" stroke="#ef4444" stroke-width="3" opacity="0.8" />
    <line x1="830" y1="245" x2="840" y2="255" stroke="#ef4444" stroke-width="3" opacity="0.8" />
    
    <text x="820" y="375" font-family="system-ui, -apple-system, sans-serif" font-size="12" font-weight="600" fill="#ef4444" text-anchor="middle" opacity="0.7">Supply Chain</text>
    <text x="820" y="392" font-family="system-ui, -apple-system, sans-serif" font-size="12" font-weight="600" fill="#ef4444" text-anchor="middle" opacity="0.7">Attack</text>
  </g>

  
  <g filter="url(#glow)">
    
    <path d="M 880 100 L 920 80 L 920 140 Q 920 180 880 200 Q 840 180 840 140 L 840 80 Z" fill="#3b82f6" opacity="0.08" stroke="#3b82f6" stroke-width="2.5" />
    
    <path d="M 865 145 L 875 155 L 895 120" fill="none" stroke="#3b82f6" stroke-width="2.5" stroke-linecap="round" stroke-linejoin="round" opacity="0.8" />
  </g>

  
  <g>
    
    <polygon points="700,115 715,145 685,145" fill="#f59e0b" opacity="0.08" stroke="#f59e0b" stroke-width="2" />
    </g>

  
  <g>
    <polygon points="1050,480 1070,520 1030,520" fill="#ef4444" opacity="0.08" stroke="#ef4444" stroke-width="2" />
    </g>

  
  <circle cx="850" cy="280" r="8" fill="#3b82f6" opacity="0.4" />
  <circle cx="900" cy="350" r="8" fill="#f59e0b" opacity="0.4" />
  <circle cx="820" cy="450" r="8" fill="#ef4444" opacity="0.4" />

  
  <defs>
    <linearGradient id="rightOverlay" x1="100%" y1="0%" x2="0%" y2="100%">
      <stop offset="0%" style="stop-color:#0a0c1a;stop-opacity:0" />
      <stop offset="100%" style="stop-color:#0a0c1a;stop-opacity:0.15" />
    </linearGradient>
  </defs>
  <rect x="650" y="80" width="500" height="470" fill="url(#rightOverlay)" />
</svg>