<svg xmlns="http://www.w3.org/2000/svg" viewBox="0 0 1200 630" width="1200" height="630">
  <title>section-ai-ml</title>
  <defs>
    <linearGradient id="bg" x1="0%" y1="0%" x2="100%" y2="100%">
      <stop offset="0%" stop-color="#08101f"/>
      <stop offset="58%" stop-color="#0f172a"/>
      <stop offset="100%" stop-color="#170f25"/>
    </linearGradient>
    <pattern id="microGrid" x="0" y="0" width="34" height="34" patternUnits="userSpaceOnUse">
      <path d="M34 0H0V34" fill="none" stroke="#334155" stroke-width="1" opacity="0.24"/>
      <circle cx="17" cy="17" r="1.1" fill="#6366f1" opacity="0.14"/>
    </pattern>
    <filter id="softGlow" x="-40%" y="-40%" width="180%" height="180%">
      <feGaussianBlur stdDeviation="24"/>
    </filter>
    <filter id="shadow" x="-30%" y="-30%" width="180%" height="180%">
      <feDropShadow dx="0" dy="14" stdDeviation="20" flood-color="#020617" flood-opacity="0.42"/>
    </filter>
  </defs>
  <rect width="1200" height="630" fill="url(#bg)"/>
  <rect width="1200" height="630" fill="url(#microGrid)"/>
  <circle cx="180" cy="118" r="190" fill="#6366f1" opacity="0.08" filter="url(#softGlow)"/>
  <circle cx="1010" cy="500" r="220" fill="#22d3ee" opacity="0.06" filter="url(#softGlow)"/>
  <path d="M0 520 C228 476 426 476 640 544" fill="none" stroke="#475569" stroke-width="1.2" opacity="0.24"/>
  <g transform="translate(84 70)">
    <rect width="170" height="36" rx="18" fill="#6366f1" opacity="0.18" stroke="#6366f1" stroke-width="1.2"/>
    <text x="85" y="23" font-family="Arial,sans-serif" font-size="13" font-weight="700" fill="#6366f1" text-anchor="middle">AI ML</text>
  </g>
  <text x="84" y="174" font-family="Arial,sans-serif" font-size="56" font-weight="700" fill="#f8fafc">AI ML</text>
  <text x="84" y="226" font-family="Arial,sans-serif" font-size="20" fill="#cbd5e1">Models agents and inference systems</text>
  <rect x="84" y="260" width="510" height="1.5" fill="#334155" opacity="0.9"/>
  <g transform="translate(860 318)" filter="url(#shadow)">
    <rect x="-204" y="-170" width="408" height="340" rx="30" fill="#0f172a" fill-opacity="0.82" stroke="#6366f1" stroke-opacity="0.28" stroke-width="1.4"/>
    <rect x="-182" y="-148" width="364" height="296" rx="24" fill="none" stroke="#334155" stroke-opacity="0.7" stroke-width="1"/>
    
  <circle r="22" fill="#6366f1" opacity="0.18"/>
  <circle r="8" fill="#6366f1" opacity="0.55"/>
  <circle cx="-108" cy="-72" r="18" fill="#0f172a" stroke="#22d3ee" stroke-width="1.8"/>
  <circle cx="108" cy="-72" r="18" fill="#0f172a" stroke="#22d3ee" stroke-width="1.8"/>
  <circle cx="-138" cy="54" r="16" fill="#0f172a" stroke="#6366f1" stroke-width="1.8"/>
  <circle cx="138" cy="54" r="16" fill="#0f172a" stroke="#6366f1" stroke-width="1.8"/>
  <circle cx="0" cy="-126" r="16" fill="#0f172a" stroke="#22d3ee" stroke-width="1.8"/>
  <g stroke="#22d3ee" stroke-width="1.8" opacity="0.46">
    <line x1="0" y1="0" x2="-108" y2="-72"/><line x1="0" y1="0" x2="108" y2="-72"/>
    <line x1="0" y1="0" x2="-138" y2="54"/><line x1="0" y1="0" x2="138" y2="54"/>
    <line x1="0" y1="0" x2="0" y2="-126"/>
  </g>

  </g>
  <g transform="translate(84 470)">
    <rect width="176" height="40" rx="20" fill="#6366f1" opacity="0.14" stroke="#6366f1" stroke-width="1.2"/>
    <text x="88" y="25" font-family="Arial,sans-serif" font-size="13" font-weight="700" fill="#e2e8f0" text-anchor="middle">SECTION BANNER</text>
  </g>
  <g transform="translate(274 470)">
    <rect width="220" height="40" rx="20" fill="#22d3ee" opacity="0.14" stroke="#22d3ee" stroke-width="1.2"/>
    <text x="110" y="25" font-family="Arial,sans-serif" font-size="13" font-weight="700" fill="#e2e8f0" text-anchor="middle">POST NAVIGATION</text>
  </g>
  <line x1="50" y1="588" x2="1150" y2="588" stroke="#334155" stroke-width="1" opacity="0.5"/>
  <text x="1150" y="612" font-family="Arial,sans-serif" font-size="13" fill="#94a3b8" text-anchor="end">tech.2twodragon.com</text>
</svg>