<svg xmlns="http://www.w3.org/2000/svg" viewBox="0 0 800 140" fill="none">
  <defs>
    <linearGradient id="bg" x1="0" y1="0" x2="800" y2="140">
      <stop offset="0%" stop-color="#0a1e14"/>
      <stop offset="100%" stop-color="#1e293b"/>
    </linearGradient>
    <linearGradient id="accent" x1="0" y1="0" x2="1" y2="1">
      <stop offset="0%" stop-color="#10b981"/>
      <stop offset="100%" stop-color="#059669"/>
    </linearGradient>
  </defs>
  <rect width="800" height="140" rx="12" fill="url(#bg)"/>
  <rect x="0" y="0" width="800" height="3" rx="1.5" fill="url(#accent)" opacity="0.8"/>
  <!-- Gear/infinity icon -->
  <g transform="translate(40, 25)">
    <circle cx="45" cy="45" r="40" fill="url(#accent)" opacity="0.12"/>
    <circle cx="45" cy="45" r="22" fill="none" stroke="#10b981" stroke-width="2.5"/>
    <circle cx="45" cy="45" r="8" fill="none" stroke="#10b981" stroke-width="2"/>
    <line x1="45" y1="18" x2="45" y2="10" stroke="#6ee7b7" stroke-width="2.5" stroke-linecap="round"/>
    <line x1="45" y1="72" x2="45" y2="80" stroke="#6ee7b7" stroke-width="2.5" stroke-linecap="round"/>
    <line x1="18" y1="45" x2="10" y2="45" stroke="#6ee7b7" stroke-width="2.5" stroke-linecap="round"/>
    <line x1="72" y1="45" x2="80" y2="45" stroke="#6ee7b7" stroke-width="2.5" stroke-linecap="round"/>
    <line x1="26" y1="26" x2="20" y2="20" stroke="#6ee7b7" stroke-width="2.5" stroke-linecap="round"/>
    <line x1="64" y1="64" x2="70" y2="70" stroke="#6ee7b7" stroke-width="2.5" stroke-linecap="round"/>
    <line x1="64" y1="26" x2="70" y2="20" stroke="#6ee7b7" stroke-width="2.5" stroke-linecap="round"/>
    <line x1="26" y1="64" x2="20" y2="70" stroke="#6ee7b7" stroke-width="2.5" stroke-linecap="round"/>
  </g>
  <!-- Text -->
  <text x="140" y="55" fill="#6ee7b7" font-family="Arial, sans-serif" font-size="13" font-weight="bold" letter-spacing="3">DEVOPS &amp; PLATFORM</text>
  <text x="140" y="85" fill="#f8fafc" font-family="Arial, sans-serif" font-size="26" font-weight="bold">DevOps, CI/CD &amp; Platform Engineering</text>
  <text x="140" y="115" fill="#94a3b8" font-family="Arial, sans-serif" font-size="14">Automation | Monitoring | Container | IaC</text>
  <!-- Decorative dots -->
  <g opacity="0.3">
    <circle cx="685" cy="30" r="3" fill="#10b981"/>
    <circle cx="715" cy="55" r="4" fill="#34d399"/>
    <circle cx="745" cy="35" r="2" fill="#6ee7b7"/>
    <circle cx="760" cy="75" r="3" fill="#10b981"/>
    <circle cx="700" cy="95" r="2" fill="#34d399"/>
    <circle cx="740" cy="110" r="3" fill="#6ee7b7"/>
    <line x1="685" y1="30" x2="715" y2="55" stroke="#475569" stroke-width="1"/>
    <line x1="715" y1="55" x2="745" y2="35" stroke="#475569" stroke-width="1"/>
    <line x1="745" y1="35" x2="760" y2="75" stroke="#475569" stroke-width="1"/>
    <line x1="700" y1="95" x2="740" y2="110" stroke="#475569" stroke-width="1"/>
  </g>
</svg>
