<svg xmlns="http://www.w3.org/2000/svg" viewBox="0 0 1200 630" width="1200" height="630">
  <title>section-security</title>
  <defs>
    <linearGradient id="bg" x1="0%" y1="0%" x2="100%" y2="100%">
      <stop offset="0%" stop-color="#08101f"/>
      <stop offset="58%" stop-color="#0f172a"/>
      <stop offset="100%" stop-color="#170f25"/>
    </linearGradient>
    <pattern id="microGrid" x="0" y="0" width="34" height="34" patternUnits="userSpaceOnUse">
      <path d="M34 0H0V34" fill="none" stroke="#334155" stroke-width="1" opacity="0.24"/>
      <circle cx="17" cy="17" r="1.1" fill="#ef4444" opacity="0.14"/>
    </pattern>
    <filter id="softGlow" x="-40%" y="-40%" width="180%" height="180%">
      <feGaussianBlur stdDeviation="24"/>
    </filter>
    <filter id="shadow" x="-30%" y="-30%" width="180%" height="180%">
      <feDropShadow dx="0" dy="14" stdDeviation="20" flood-color="#020617" flood-opacity="0.42"/>
    </filter>
  </defs>
  <rect width="1200" height="630" fill="url(#bg)"/>
  <rect width="1200" height="630" fill="url(#microGrid)"/>
  <circle cx="180" cy="118" r="190" fill="#ef4444" opacity="0.08" filter="url(#softGlow)"/>
  <circle cx="1010" cy="500" r="220" fill="#f59e0b" opacity="0.06" filter="url(#softGlow)"/>
  <path d="M0 520 C228 476 426 476 640 544" fill="none" stroke="#475569" stroke-width="1.2" opacity="0.24"/>
  <g transform="translate(84 70)">
    <rect width="170" height="36" rx="18" fill="#ef4444" opacity="0.18" stroke="#ef4444" stroke-width="1.2"/>
    <text x="85" y="23" font-family="Arial,sans-serif" font-size="13" font-weight="700" fill="#ef4444" text-anchor="middle">SECURITY</text>
  </g>
  <text x="84" y="174" font-family="Arial,sans-serif" font-size="56" font-weight="700" fill="#f8fafc">SECURITY</text>
  <text x="84" y="226" font-family="Arial,sans-serif" font-size="20" fill="#cbd5e1">Threat defense and response</text>
  <rect x="84" y="260" width="510" height="1.5" fill="#334155" opacity="0.9"/>
  <g transform="translate(860 318)" filter="url(#shadow)">
    <rect x="-204" y="-170" width="408" height="340" rx="30" fill="#0f172a" fill-opacity="0.82" stroke="#ef4444" stroke-opacity="0.28" stroke-width="1.4"/>
    <rect x="-182" y="-148" width="364" height="296" rx="24" fill="none" stroke="#334155" stroke-opacity="0.7" stroke-width="1"/>
    
  <path d="M0,-120 C70,-120 118,-82 118,-12 C118,70 62,126 0,156 C-62,126 -118,70 -118,-12 C-118,-82 -70,-120 0,-120Z" fill="#0f172a" stroke="#ef4444" stroke-width="2.8"/>
  <path d="M-4,-92 L10,-50 L-10,-8 L16,38 L-12,84" fill="none" stroke="#fca5a5" stroke-width="3" stroke-linecap="round"/>
  <rect x="-24" y="-8" width="48" height="36" rx="7" fill="none" stroke="#ef4444" stroke-width="2.2"/>
  <path d="M-14,-8 L-14,-24 C-14,-42 14,-42 14,-24 L14,-8" fill="none" stroke="#ef4444" stroke-width="2.4"/>
  <circle cx="0" cy="12" r="5" fill="#ef4444" opacity="0.7"/>
  <path d="M-240,-44 C-174,-20 -122,6 -74,40" fill="none" stroke="#f59e0b" stroke-width="2" stroke-dasharray="8 6" opacity="0.42"/>
  <path d="M240,-44 C174,-20 122,6 74,40" fill="none" stroke="#60a5fa" stroke-width="2" stroke-dasharray="8 6" opacity="0.42"/>

  </g>
  <g transform="translate(84 470)">
    <rect width="176" height="40" rx="20" fill="#ef4444" opacity="0.14" stroke="#ef4444" stroke-width="1.2"/>
    <text x="88" y="25" font-family="Arial,sans-serif" font-size="13" font-weight="700" fill="#e2e8f0" text-anchor="middle">SECTION BANNER</text>
  </g>
  <g transform="translate(274 470)">
    <rect width="220" height="40" rx="20" fill="#f59e0b" opacity="0.14" stroke="#f59e0b" stroke-width="1.2"/>
    <text x="110" y="25" font-family="Arial,sans-serif" font-size="13" font-weight="700" fill="#e2e8f0" text-anchor="middle">POST NAVIGATION</text>
  </g>
  <line x1="50" y1="588" x2="1150" y2="588" stroke="#334155" stroke-width="1" opacity="0.5"/>
  <text x="1150" y="612" font-family="Arial,sans-serif" font-size="13" fill="#94a3b8" text-anchor="end">tech.2twodragon.com</text>
</svg>