<svg xmlns="http://www.w3.org/2000/svg" viewBox="0 0 800 140" fill="none">
  <defs>
    <linearGradient id="bg" x1="0" y1="0" x2="800" y2="140">
      <stop offset="0%" stop-color="#0a1a1e"/>
      <stop offset="100%" stop-color="#1e293b"/>
    </linearGradient>
    <linearGradient id="accent" x1="0" y1="0" x2="1" y2="1">
      <stop offset="0%" stop-color="#14b8a6"/>
      <stop offset="100%" stop-color="#0d9488"/>
    </linearGradient>
  </defs>
  <rect width="800" height="140" rx="12" fill="url(#bg)"/>
  <rect x="0" y="0" width="800" height="3" rx="1.5" fill="url(#accent)" opacity="0.8"/>
  <!-- Shield + Gear icon -->
  <g transform="translate(40, 25)">
    <circle cx="45" cy="45" r="40" fill="url(#accent)" opacity="0.12"/>
    <path d="M45 12 L72 26 V52 C72 70 45 80 45 80 C45 80 18 70 18 52 V26 Z" fill="none" stroke="#14b8a6" stroke-width="2.5"/>
    <circle cx="45" cy="42" r="14" fill="none" stroke="#5eead4" stroke-width="2"/>
    <circle cx="45" cy="42" r="5" fill="none" stroke="#5eead4" stroke-width="1.5"/>
    <line x1="45" y1="24" x2="45" y2="18" stroke="#5eead4" stroke-width="2" stroke-linecap="round"/>
    <line x1="45" y1="60" x2="45" y2="66" stroke="#5eead4" stroke-width="2" stroke-linecap="round"/>
    <line x1="27" y1="42" x2="22" y2="42" stroke="#5eead4" stroke-width="2" stroke-linecap="round"/>
    <line x1="63" y1="42" x2="68" y2="42" stroke="#5eead4" stroke-width="2" stroke-linecap="round"/>
  </g>
  <!-- Text -->
  <text x="140" y="55" fill="#5eead4" font-family="Arial, sans-serif" font-size="13" font-weight="bold" letter-spacing="3">DEVSECOPS</text>
  <text x="140" y="85" fill="#f8fafc" font-family="Arial, sans-serif" font-size="26" font-weight="bold">DevSecOps &amp; Supply Chain Security</text>
  <text x="140" y="115" fill="#94a3b8" font-family="Arial, sans-serif" font-size="14">Shift-Left | CI/CD Security | SBOM | Dependency Risk</text>
  <!-- Decorative dots -->
  <g opacity="0.3">
    <circle cx="685" cy="30" r="3" fill="#14b8a6"/>
    <circle cx="715" cy="55" r="4" fill="#2dd4bf"/>
    <circle cx="745" cy="35" r="2" fill="#5eead4"/>
    <circle cx="760" cy="75" r="3" fill="#14b8a6"/>
    <circle cx="700" cy="95" r="2" fill="#2dd4bf"/>
    <circle cx="740" cy="110" r="3" fill="#5eead4"/>
    <line x1="685" y1="30" x2="715" y2="55" stroke="#475569" stroke-width="1"/>
    <line x1="715" y1="55" x2="745" y2="35" stroke="#475569" stroke-width="1"/>
    <line x1="745" y1="35" x2="760" y2="75" stroke="#475569" stroke-width="1"/>
    <line x1="700" y1="95" x2="740" y2="110" stroke="#475569" stroke-width="1"/>
  </g>
</svg>